<?xml version="1.0" encoding="UTF-8" standalone="no"?>
<!DOCTYPE svg PUBLIC "-//W3C//DTD SVG 1.1//EN"
 "http://www.w3.org/Graphics/SVG/1.1/DTD/svg11.dtd">
<!-- Generated by graphviz version 2.43.0 (0)
 -->
<!-- Title: sources/CPU/AddressingModes.cpp Pages: 1 -->
<svg width="1302pt" height="532pt"
 viewBox="0.00 0.00 1302.00 532.00" xmlns="http://www.w3.org/2000/svg" xmlns:xlink="http://www.w3.org/1999/xlink">
<g id="graph0" class="graph" transform="scale(1 1) rotate(0) translate(4 528)">
<title>sources/CPU/AddressingModes.cpp</title>
<polygon fill="white" stroke="transparent" points="-4,4 -4,-528 1298,-528 1298,4 -4,4"/>
<!-- Node1 -->
<g id="node1" class="node">
<title>Node1</title>
<g id="a_node1"><a xlink:title=" ">
<polygon fill="#bfbfbf" stroke="black" points="1057.5,-504.5 1057.5,-523.5 1244.5,-523.5 1244.5,-504.5 1057.5,-504.5"/>
<text text-anchor="middle" x="1151" y="-511.5" font-family="Helvetica,sans-Serif" font-size="10.00">sources/CPU/AddressingModes.cpp</text>
</a>
</g>
</g>
<!-- Node2 -->
<g id="node2" class="node">
<title>Node2</title>
<g id="a_node2"><a xlink:href="Ints_8hpp.html" target="_top" xlink:title=" ">
<polygon fill="white" stroke="black" points="962,-56.5 962,-75.5 1056,-75.5 1056,-56.5 962,-56.5"/>
<text text-anchor="middle" x="1009" y="-63.5" font-family="Helvetica,sans-Serif" font-size="10.00">Models/Ints.hpp</text>
</a>
</g>
</g>
<!-- Node1&#45;&gt;Node2 -->
<g id="edge1" class="edge">
<title>Node1&#45;&gt;Node2</title>
<path fill="none" stroke="midnightblue" d="M1181.68,-504.46C1223.7,-490.68 1294,-459.22 1294,-403 1294,-403 1294,-403 1294,-177 1294,-129.09 1251.45,-132.18 1208,-112 1162.84,-91.02 1107.26,-79.52 1066.33,-73.4"/>
<polygon fill="midnightblue" stroke="midnightblue" points="1066.65,-69.91 1056.26,-71.96 1065.66,-76.84 1066.65,-69.91"/>
</g>
<!-- Node5 -->
<g id="node5" class="node">
<title>Node5</title>
<g id="a_node5"><a xlink:href="CPU_8hpp.html" target="_top" xlink:title=" ">
<polygon fill="white" stroke="black" points="989,-448.5 989,-467.5 1047,-467.5 1047,-448.5 989,-448.5"/>
<text text-anchor="middle" x="1018" y="-455.5" font-family="Helvetica,sans-Serif" font-size="10.00">CPU.hpp</text>
</a>
</g>
</g>
<!-- Node1&#45;&gt;Node5 -->
<g id="edge4" class="edge">
<title>Node1&#45;&gt;Node5</title>
<path fill="none" stroke="midnightblue" d="M1129.93,-504.44C1107.94,-495.52 1073.27,-481.44 1048.34,-471.32"/>
<polygon fill="midnightblue" stroke="midnightblue" points="1049.56,-468.04 1038.98,-467.52 1046.92,-474.52 1049.56,-468.04"/>
</g>
<!-- Node3 -->
<g id="node3" class="node">
<title>Node3</title>
<g id="a_node3"><a xlink:title=" ">
<polygon fill="white" stroke="#bfbfbf" points="721,-0.5 721,-19.5 783,-19.5 783,-0.5 721,-0.5"/>
<text text-anchor="middle" x="752" y="-7.5" font-family="Helvetica,sans-Serif" font-size="10.00">cinttypes</text>
</a>
</g>
</g>
<!-- Node2&#45;&gt;Node3 -->
<g id="edge2" class="edge">
<title>Node2&#45;&gt;Node3</title>
<path fill="none" stroke="midnightblue" d="M968.28,-56.44C920.41,-46.39 841.42,-29.79 793.3,-19.68"/>
<polygon fill="midnightblue" stroke="midnightblue" points="793.74,-16.19 783.24,-17.56 792.3,-23.04 793.74,-16.19"/>
</g>
<!-- Node4 -->
<g id="node4" class="node">
<title>Node4</title>
<g id="a_node4"><a xlink:title=" ">
<polygon fill="white" stroke="#bfbfbf" points="979,-0.5 979,-19.5 1039,-19.5 1039,-0.5 979,-0.5"/>
<text text-anchor="middle" x="1009" y="-7.5" font-family="Helvetica,sans-Serif" font-size="10.00">iostream</text>
</a>
</g>
</g>
<!-- Node2&#45;&gt;Node4 -->
<g id="edge3" class="edge">
<title>Node2&#45;&gt;Node4</title>
<path fill="none" stroke="midnightblue" d="M1009,-56.08C1009,-49.01 1009,-38.86 1009,-29.99"/>
<polygon fill="midnightblue" stroke="midnightblue" points="1012.5,-29.75 1009,-19.75 1005.5,-29.75 1012.5,-29.75"/>
</g>
<!-- Node5&#45;&gt;Node2 -->
<g id="edge37" class="edge">
<title>Node5&#45;&gt;Node2</title>
<path fill="none" stroke="midnightblue" d="M1034.09,-448.39C1047.22,-440.56 1065.29,-427.84 1076,-412 1114.62,-354.89 1195.94,-167.46 1155,-112 1134.67,-84.46 1097.75,-73.25 1066.12,-68.91"/>
<polygon fill="midnightblue" stroke="midnightblue" points="1066.4,-65.42 1056.06,-67.73 1065.58,-72.37 1066.4,-65.42"/>
</g>
<!-- Node6 -->
<g id="node6" class="node">
<title>Node6</title>
<g id="a_node6"><a xlink:href="AMemory_8hpp.html" target="_top" xlink:title=" ">
<polygon fill="white" stroke="black" points="434.5,-168.5 434.5,-187.5 561.5,-187.5 561.5,-168.5 434.5,-168.5"/>
<text text-anchor="middle" x="498" y="-175.5" font-family="Helvetica,sans-Serif" font-size="10.00">Memory/AMemory.hpp</text>
</a>
</g>
</g>
<!-- Node5&#45;&gt;Node6 -->
<g id="edge5" class="edge">
<title>Node5&#45;&gt;Node6</title>
<path fill="none" stroke="midnightblue" d="M988.9,-453.43C950.24,-447.98 880.38,-435.62 825,-412 699.13,-358.32 674.56,-328.58 567,-244 547.32,-228.52 526.66,-208.48 513.14,-194.77"/>
<polygon fill="midnightblue" stroke="midnightblue" points="515.55,-192.23 506.06,-187.51 510.53,-197.12 515.55,-192.23"/>
</g>
<!-- Node13 -->
<g id="node13" class="node">
<title>Node13</title>
<g id="a_node13"><a xlink:href="MemoryBus_8hpp.html" target="_top" xlink:title=" ">
<polygon fill="white" stroke="black" points="301,-336.5 301,-355.5 441,-355.5 441,-336.5 301,-336.5"/>
<text text-anchor="middle" x="371" y="-343.5" font-family="Helvetica,sans-Serif" font-size="10.00">Memory/MemoryBus.hpp</text>
</a>
</g>
</g>
<!-- Node5&#45;&gt;Node13 -->
<g id="edge19" class="edge">
<title>Node5&#45;&gt;Node13</title>
<path fill="none" stroke="midnightblue" d="M988.79,-454.25C927.8,-448.29 782.59,-433.04 662,-412 573.43,-396.54 471.09,-372.14 414.43,-358.04"/>
<polygon fill="midnightblue" stroke="midnightblue" points="414.95,-354.57 404.4,-355.54 413.25,-361.36 414.95,-354.57"/>
</g>
<!-- Node19 -->
<g id="node19" class="node">
<title>Node19</title>
<g id="a_node19"><a xlink:href="Callback_8hpp.html" target="_top" xlink:title=" ">
<polygon fill="white" stroke="black" points="834,-392.5 834,-411.5 952,-411.5 952,-392.5 834,-392.5"/>
<text text-anchor="middle" x="893" y="-399.5" font-family="Helvetica,sans-Serif" font-size="10.00">Models/Callback.hpp</text>
</a>
</g>
</g>
<!-- Node5&#45;&gt;Node19 -->
<g id="edge38" class="edge">
<title>Node5&#45;&gt;Node19</title>
<path fill="none" stroke="midnightblue" d="M998.19,-448.44C977.71,-439.6 945.52,-425.69 922.14,-415.59"/>
<polygon fill="midnightblue" stroke="midnightblue" points="923.28,-412.27 912.71,-411.52 920.51,-418.7 923.28,-412.27"/>
</g>
<!-- Node23 -->
<g id="node23" class="node">
<title>Node23</title>
<g id="a_node23"><a xlink:href="Cartridge_8hpp.html" target="_top" xlink:title=" ">
<polygon fill="white" stroke="black" points="764.5,-280.5 764.5,-299.5 895.5,-299.5 895.5,-280.5 764.5,-280.5"/>
<text text-anchor="middle" x="830" y="-287.5" font-family="Helvetica,sans-Serif" font-size="10.00">Cartridge/Cartridge.hpp</text>
</a>
</g>
</g>
<!-- Node5&#45;&gt;Node23 -->
<g id="edge42" class="edge">
<title>Node5&#45;&gt;Node23</title>
<path fill="none" stroke="midnightblue" d="M1019.51,-448.36C1022.81,-426.5 1028.17,-368.39 999,-336 985.2,-320.68 938.49,-308.95 897.66,-301.31"/>
<polygon fill="midnightblue" stroke="midnightblue" points="898.17,-297.85 887.7,-299.51 896.92,-304.74 898.17,-297.85"/>
</g>
<!-- Node28 -->
<g id="node28" class="node">
<title>Node28</title>
<g id="a_node28"><a xlink:href="Instruction_8hpp.html" target="_top" xlink:title=" ">
<polygon fill="white" stroke="black" points="1056.5,-112.5 1056.5,-131.5 1145.5,-131.5 1145.5,-112.5 1056.5,-112.5"/>
<text text-anchor="middle" x="1101" y="-119.5" font-family="Helvetica,sans-Serif" font-size="10.00">Instruction.hpp</text>
</a>
</g>
</g>
<!-- Node5&#45;&gt;Node28 -->
<g id="edge55" class="edge">
<title>Node5&#45;&gt;Node28</title>
<path fill="none" stroke="midnightblue" d="M1026.74,-448.49C1043.61,-431.12 1079,-389.58 1079,-347 1079,-347 1079,-347 1079,-233 1079,-200.33 1088.45,-163.24 1094.96,-141.55"/>
<polygon fill="midnightblue" stroke="midnightblue" points="1098.39,-142.31 1098.03,-131.72 1091.71,-140.22 1098.39,-142.31"/>
</g>
<!-- Node29 -->
<g id="node29" class="node">
<title>Node29</title>
<g id="a_node29"><a xlink:href="DMA_8hpp.html" target="_top" xlink:title=" ">
<polygon fill="white" stroke="black" points="327.5,-392.5 327.5,-411.5 414.5,-411.5 414.5,-392.5 327.5,-392.5"/>
<text text-anchor="middle" x="371" y="-399.5" font-family="Helvetica,sans-Serif" font-size="10.00">DMA/DMA.hpp</text>
</a>
</g>
</g>
<!-- Node5&#45;&gt;Node29 -->
<g id="edge58" class="edge">
<title>Node5&#45;&gt;Node29</title>
<path fill="none" stroke="midnightblue" d="M988.94,-454.57C888.63,-446.2 555.87,-418.43 424.76,-407.49"/>
<polygon fill="midnightblue" stroke="midnightblue" points="424.82,-403.98 414.56,-406.64 424.23,-410.96 424.82,-403.98"/>
</g>
<!-- Node30 -->
<g id="node30" class="node">
<title>Node30</title>
<g id="a_node30"><a xlink:href="Registers_8hpp.html" target="_top" xlink:title=" ">
<polygon fill="white" stroke="black" points="1158.5,-280.5 1158.5,-299.5 1265.5,-299.5 1265.5,-280.5 1158.5,-280.5"/>
<text text-anchor="middle" x="1212" y="-287.5" font-family="Helvetica,sans-Serif" font-size="10.00">CPU/Registers.hpp</text>
</a>
</g>
</g>
<!-- Node5&#45;&gt;Node30 -->
<g id="edge63" class="edge">
<title>Node5&#45;&gt;Node30</title>
<path fill="none" stroke="midnightblue" d="M1047.19,-452.62C1074.79,-447.19 1116.04,-435.59 1144,-412 1177.03,-384.12 1197.16,-335.91 1206.25,-309.54"/>
<polygon fill="midnightblue" stroke="midnightblue" points="1209.69,-310.29 1209.47,-299.7 1203.03,-308.11 1209.69,-310.29"/>
</g>
<!-- Node6&#45;&gt;Node2 -->
<g id="edge10" class="edge">
<title>Node6&#45;&gt;Node2</title>
<path fill="none" stroke="midnightblue" d="M528.25,-168.48C557.23,-160.06 602.04,-146.4 640,-132 660.46,-124.24 663.95,-118.01 685,-112 733.8,-98.07 872.38,-81.66 951.6,-73.02"/>
<polygon fill="midnightblue" stroke="midnightblue" points="952.33,-76.46 961.89,-71.9 951.58,-69.5 952.33,-76.46"/>
</g>
<!-- Node7 -->
<g id="node7" class="node">
<title>Node7</title>
<g id="a_node7"><a xlink:title=" ">
<polygon fill="white" stroke="#bfbfbf" points="34,-56.5 34,-75.5 84,-75.5 84,-56.5 34,-56.5"/>
<text text-anchor="middle" x="59" y="-63.5" font-family="Helvetica,sans-Serif" font-size="10.00">cstdint</text>
</a>
</g>
</g>
<!-- Node6&#45;&gt;Node7 -->
<g id="edge6" class="edge">
<title>Node6&#45;&gt;Node7</title>
<path fill="none" stroke="midnightblue" d="M446.08,-168.5C408.93,-161.38 358.23,-149.54 316,-132 300.16,-125.42 298.98,-118.23 283,-112 249.04,-98.77 148.43,-81.35 94.34,-72.57"/>
<polygon fill="midnightblue" stroke="midnightblue" points="94.61,-69.07 84.18,-70.93 93.49,-75.98 94.61,-69.07"/>
</g>
<!-- Node8 -->
<g id="node8" class="node">
<title>Node8</title>
<g id="a_node8"><a xlink:title=" ">
<polygon fill="white" stroke="#bfbfbf" points="564.5,-56.5 564.5,-75.5 611.5,-75.5 611.5,-56.5 564.5,-56.5"/>
<text text-anchor="middle" x="588" y="-63.5" font-family="Helvetica,sans-Serif" font-size="10.00">vector</text>
</a>
</g>
</g>
<!-- Node6&#45;&gt;Node8 -->
<g id="edge7" class="edge">
<title>Node6&#45;&gt;Node8</title>
<path fill="none" stroke="midnightblue" d="M505.06,-168.37C520.05,-150.05 555.23,-107.05 574.61,-83.36"/>
<polygon fill="midnightblue" stroke="midnightblue" points="577.35,-85.55 580.97,-75.59 571.93,-81.11 577.35,-85.55"/>
</g>
<!-- Node9 -->
<g id="node9" class="node">
<title>Node9</title>
<g id="a_node9"><a xlink:title=" ">
<polygon fill="white" stroke="#bfbfbf" points="142,-56.5 142,-75.5 200,-75.5 200,-56.5 142,-56.5"/>
<text text-anchor="middle" x="171" y="-63.5" font-family="Helvetica,sans-Serif" font-size="10.00">memory</text>
</a>
</g>
</g>
<!-- Node6&#45;&gt;Node9 -->
<g id="edge8" class="edge">
<title>Node6&#45;&gt;Node9</title>
<path fill="none" stroke="midnightblue" d="M475.12,-168.48C440.74,-155.75 373.61,-131.22 316,-112 280.1,-100.03 238.86,-87.33 209.56,-78.49"/>
<polygon fill="midnightblue" stroke="midnightblue" points="210.31,-75.06 199.73,-75.53 208.29,-81.76 210.31,-75.06"/>
</g>
<!-- Node10 -->
<g id="node10" class="node">
<title>Node10</title>
<g id="a_node10"><a xlink:title=" ">
<polygon fill="white" stroke="#bfbfbf" points="854,-56.5 854,-75.5 898,-75.5 898,-56.5 854,-56.5"/>
<text text-anchor="middle" x="876" y="-63.5" font-family="Helvetica,sans-Serif" font-size="10.00">string</text>
</a>
</g>
</g>
<!-- Node6&#45;&gt;Node10 -->
<g id="edge9" class="edge">
<title>Node6&#45;&gt;Node10</title>
<path fill="none" stroke="midnightblue" d="M515.13,-168.42C543.12,-154.71 600.69,-127.81 652,-112 718.71,-91.45 799.56,-77.89 843.59,-71.42"/>
<polygon fill="midnightblue" stroke="midnightblue" points="844.3,-74.85 853.69,-69.96 843.3,-67.92 844.3,-74.85"/>
</g>
<!-- Node11 -->
<g id="node11" class="node">
<title>Node11</title>
<g id="a_node11"><a xlink:href="Components_8hpp.html" target="_top" xlink:title=" ">
<polygon fill="white" stroke="black" points="408.5,-56.5 408.5,-75.5 545.5,-75.5 545.5,-56.5 408.5,-56.5"/>
<text text-anchor="middle" x="477" y="-63.5" font-family="Helvetica,sans-Serif" font-size="10.00">Models/Components.hpp</text>
</a>
</g>
</g>
<!-- Node6&#45;&gt;Node11 -->
<g id="edge11" class="edge">
<title>Node6&#45;&gt;Node11</title>
<path fill="none" stroke="midnightblue" d="M477.15,-168.43C462.42,-161.13 443.8,-149.09 435,-132 425.77,-114.06 441.82,-94.8 456.67,-81.94"/>
<polygon fill="midnightblue" stroke="midnightblue" points="459.06,-84.51 464.63,-75.5 454.65,-79.07 459.06,-84.51"/>
</g>
<!-- Node12 -->
<g id="node12" class="node">
<title>Node12</title>
<g id="a_node12"><a xlink:href="IMemory_8hpp.html" target="_top" xlink:title=" ">
<polygon fill="white" stroke="black" points="444,-112.5 444,-131.5 524,-131.5 524,-112.5 444,-112.5"/>
<text text-anchor="middle" x="484" y="-119.5" font-family="Helvetica,sans-Serif" font-size="10.00">IMemory.hpp</text>
</a>
</g>
</g>
<!-- Node6&#45;&gt;Node12 -->
<g id="edge12" class="edge">
<title>Node6&#45;&gt;Node12</title>
<path fill="none" stroke="midnightblue" d="M495.69,-168.08C493.83,-160.93 491.16,-150.64 488.85,-141.69"/>
<polygon fill="midnightblue" stroke="midnightblue" points="492.17,-140.55 486.27,-131.75 485.39,-142.31 492.17,-140.55"/>
</g>
<!-- Node12&#45;&gt;Node2 -->
<g id="edge17" class="edge">
<title>Node12&#45;&gt;Node2</title>
<path fill="none" stroke="midnightblue" d="M524.32,-116.85C616.9,-107.33 844.9,-83.88 951.86,-72.88"/>
<polygon fill="midnightblue" stroke="midnightblue" points="952.24,-76.36 961.83,-71.85 951.52,-69.39 952.24,-76.36"/>
</g>
<!-- Node12&#45;&gt;Node7 -->
<g id="edge13" class="edge">
<title>Node12&#45;&gt;Node7</title>
<path fill="none" stroke="midnightblue" d="M443.63,-115.87C360.82,-105.35 172.89,-81.47 94.44,-71.5"/>
<polygon fill="midnightblue" stroke="midnightblue" points="94.48,-67.98 84.12,-70.19 93.6,-74.92 94.48,-67.98"/>
</g>
<!-- Node12&#45;&gt;Node8 -->
<g id="edge14" class="edge">
<title>Node12&#45;&gt;Node8</title>
<path fill="none" stroke="midnightblue" d="M500.71,-112.32C517.31,-103.7 543,-90.36 562.22,-80.39"/>
<polygon fill="midnightblue" stroke="midnightblue" points="564.07,-83.37 571.33,-75.65 560.84,-77.16 564.07,-83.37"/>
</g>
<!-- Node12&#45;&gt;Node9 -->
<g id="edge15" class="edge">
<title>Node12&#45;&gt;Node9</title>
<path fill="none" stroke="midnightblue" d="M443.72,-114.05C383.44,-103.65 270.47,-84.16 210.59,-73.83"/>
<polygon fill="midnightblue" stroke="midnightblue" points="210.85,-70.32 200.4,-72.07 209.66,-77.22 210.85,-70.32"/>
</g>
<!-- Node12&#45;&gt;Node10 -->
<g id="edge16" class="edge">
<title>Node12&#45;&gt;Node10</title>
<path fill="none" stroke="midnightblue" d="M524.11,-115.47C602.06,-104.74 772.6,-81.24 843.79,-71.44"/>
<polygon fill="midnightblue" stroke="midnightblue" points="844.51,-74.87 853.94,-70.04 843.55,-67.94 844.51,-74.87"/>
</g>
<!-- Node12&#45;&gt;Node11 -->
<g id="edge18" class="edge">
<title>Node12&#45;&gt;Node11</title>
<path fill="none" stroke="midnightblue" d="M482.84,-112.08C481.92,-104.93 480.58,-94.64 479.42,-85.69"/>
<polygon fill="midnightblue" stroke="midnightblue" points="482.89,-85.22 478.13,-75.75 475.95,-86.12 482.89,-85.22"/>
</g>
<!-- Node13&#45;&gt;Node6 -->
<g id="edge20" class="edge">
<title>Node13&#45;&gt;Node6</title>
<path fill="none" stroke="midnightblue" d="M379.74,-336.36C388.51,-327.54 402.23,-313.28 413,-300 441.72,-264.61 471.48,-220.11 487.03,-196.16"/>
<polygon fill="midnightblue" stroke="midnightblue" points="490.13,-197.81 492.61,-187.5 484.25,-194.01 490.13,-197.81"/>
</g>
<!-- Node13&#45;&gt;Node7 -->
<g id="edge34" class="edge">
<title>Node13&#45;&gt;Node7</title>
<path fill="none" stroke="midnightblue" d="M300.83,-339.94C238.41,-334.05 153.21,-322.17 128,-300 63.89,-243.61 58.02,-130.76 58.38,-85.96"/>
<polygon fill="midnightblue" stroke="midnightblue" points="61.88,-85.96 58.58,-75.89 54.88,-85.82 61.88,-85.96"/>
</g>
<!-- Node13&#45;&gt;Node8 -->
<g id="edge36" class="edge">
<title>Node13&#45;&gt;Node8</title>
<path fill="none" stroke="midnightblue" d="M441.2,-338.77C505.25,-328.78 590,-302.76 590,-235 590,-235 590,-235 590,-177 590,-144.94 589.14,-107.64 588.55,-85.75"/>
<polygon fill="midnightblue" stroke="midnightblue" points="592.04,-85.45 588.26,-75.56 585.04,-85.65 592.04,-85.45"/>
</g>
<!-- Node13&#45;&gt;Node9 -->
<g id="edge35" class="edge">
<title>Node13&#45;&gt;Node9</title>
<path fill="none" stroke="midnightblue" d="M300.77,-343.85C224.68,-338.43 114,-316.54 114,-235 114,-235 114,-235 114,-177 114,-140.3 139.32,-103.66 156.21,-83.3"/>
<polygon fill="midnightblue" stroke="midnightblue" points="158.95,-85.48 162.83,-75.62 153.65,-80.9 158.95,-85.48"/>
</g>
<!-- Node14 -->
<g id="node14" class="node">
<title>Node14</title>
<g id="a_node14"><a xlink:href="RectangleShadow_8hpp.html" target="_top" xlink:title=" ">
<polygon fill="white" stroke="black" points="264,-280.5 264,-299.5 388,-299.5 388,-280.5 264,-280.5"/>
<text text-anchor="middle" x="326" y="-287.5" font-family="Helvetica,sans-Serif" font-size="10.00">RectangleShadow.hpp</text>
</a>
</g>
</g>
<!-- Node13&#45;&gt;Node14 -->
<g id="edge21" class="edge">
<title>Node13&#45;&gt;Node14</title>
<path fill="none" stroke="midnightblue" d="M363.57,-336.08C357.15,-328.38 347.69,-317.03 339.88,-307.65"/>
<polygon fill="midnightblue" stroke="midnightblue" points="342.38,-305.19 333.29,-299.75 337.01,-309.67 342.38,-305.19"/>
</g>
<!-- Node16 -->
<g id="node16" class="node">
<title>Node16</title>
<g id="a_node16"><a xlink:href="MemoryShadow_8hpp.html" target="_top" xlink:title=" ">
<polygon fill="white" stroke="black" points="193,-224.5 193,-243.5 309,-243.5 309,-224.5 193,-224.5"/>
<text text-anchor="middle" x="251" y="-231.5" font-family="Helvetica,sans-Serif" font-size="10.00">MemoryShadow.hpp</text>
</a>
</g>
</g>
<!-- Node13&#45;&gt;Node16 -->
<g id="edge29" class="edge">
<title>Node13&#45;&gt;Node16</title>
<path fill="none" stroke="midnightblue" d="M314.22,-336.42C292.2,-330.09 268.96,-319.1 255,-300 245.31,-286.75 245.33,-267.62 247.16,-253.54"/>
<polygon fill="midnightblue" stroke="midnightblue" points="250.63,-253.99 248.86,-243.55 243.73,-252.82 250.63,-253.99"/>
</g>
<!-- Node17 -->
<g id="node17" class="node">
<title>Node17</title>
<g id="a_node17"><a xlink:href="IMemoryBus_8hpp.html" target="_top" xlink:title=" ">
<polygon fill="white" stroke="black" points="317.5,-168.5 317.5,-187.5 416.5,-187.5 416.5,-168.5 317.5,-168.5"/>
<text text-anchor="middle" x="367" y="-175.5" font-family="Helvetica,sans-Serif" font-size="10.00">IMemoryBus.hpp</text>
</a>
</g>
</g>
<!-- Node13&#45;&gt;Node17 -->
<g id="edge30" class="edge">
<title>Node13&#45;&gt;Node17</title>
<path fill="none" stroke="midnightblue" d="M377.89,-336.32C384.27,-327.68 393.31,-313.77 397,-300 406.86,-263.23 389.01,-219.88 376.87,-196.34"/>
<polygon fill="midnightblue" stroke="midnightblue" points="379.95,-194.67 372.12,-187.54 373.79,-198 379.95,-194.67"/>
</g>
<!-- Node14&#45;&gt;Node9 -->
<g id="edge22" class="edge">
<title>Node14&#45;&gt;Node9</title>
<path fill="none" stroke="midnightblue" d="M263.91,-284.88C235.1,-279.57 203.08,-268.15 184,-244 147.12,-197.31 158.48,-120.35 166.29,-85.35"/>
<polygon fill="midnightblue" stroke="midnightblue" points="169.71,-86.09 168.63,-75.55 162.9,-84.46 169.71,-86.09"/>
</g>
<!-- Node15 -->
<g id="node15" class="node">
<title>Node15</title>
<g id="a_node15"><a xlink:href="ARectangleMemory_8hpp.html" target="_top" xlink:title=" ">
<polygon fill="white" stroke="black" points="657,-168.5 657,-187.5 789,-187.5 789,-168.5 657,-168.5"/>
<text text-anchor="middle" x="723" y="-175.5" font-family="Helvetica,sans-Serif" font-size="10.00">ARectangleMemory.hpp</text>
</a>
</g>
</g>
<!-- Node14&#45;&gt;Node15 -->
<g id="edge23" class="edge">
<title>Node14&#45;&gt;Node15</title>
<path fill="none" stroke="midnightblue" d="M356.82,-280.46C427.84,-260.78 602.99,-212.25 682.53,-190.21"/>
<polygon fill="midnightblue" stroke="midnightblue" points="683.5,-193.58 692.2,-187.53 681.63,-186.83 683.5,-193.58"/>
</g>
<!-- Node14&#45;&gt;Node16 -->
<g id="edge26" class="edge">
<title>Node14&#45;&gt;Node16</title>
<path fill="none" stroke="midnightblue" d="M313.95,-280.32C302.54,-272.11 285.17,-259.6 271.57,-249.81"/>
<polygon fill="midnightblue" stroke="midnightblue" points="273.43,-246.84 263.27,-243.83 269.34,-252.52 273.43,-246.84"/>
</g>
<!-- Node15&#45;&gt;Node2 -->
<g id="edge25" class="edge">
<title>Node15&#45;&gt;Node2</title>
<path fill="none" stroke="midnightblue" d="M745.44,-168.37C795.98,-148.93 918.85,-101.67 977.21,-79.23"/>
<polygon fill="midnightblue" stroke="midnightblue" points="978.59,-82.45 986.66,-75.59 976.07,-75.91 978.59,-82.45"/>
</g>
<!-- Node15&#45;&gt;Node12 -->
<g id="edge24" class="edge">
<title>Node15&#45;&gt;Node12</title>
<path fill="none" stroke="midnightblue" d="M685.13,-168.44C643.52,-159.04 576.63,-143.93 531.53,-133.74"/>
<polygon fill="midnightblue" stroke="midnightblue" points="532.22,-130.31 521.69,-131.52 530.68,-137.13 532.22,-130.31"/>
</g>
<!-- Node16&#45;&gt;Node6 -->
<g id="edge28" class="edge">
<title>Node16&#45;&gt;Node6</title>
<path fill="none" stroke="midnightblue" d="M290.14,-224.44C333.23,-215.02 402.56,-199.87 449.17,-189.68"/>
<polygon fill="midnightblue" stroke="midnightblue" points="450.02,-193.07 459.05,-187.52 448.53,-186.23 450.02,-193.07"/>
</g>
<!-- Node16&#45;&gt;Node9 -->
<g id="edge27" class="edge">
<title>Node16&#45;&gt;Node9</title>
<path fill="none" stroke="midnightblue" d="M246.7,-224.08C234,-197.72 196.48,-119.88 179.51,-84.66"/>
<polygon fill="midnightblue" stroke="midnightblue" points="182.62,-83.06 175.13,-75.57 176.32,-86.1 182.62,-83.06"/>
</g>
<!-- Node17&#45;&gt;Node3 -->
<g id="edge31" class="edge">
<title>Node17&#45;&gt;Node3</title>
<path fill="none" stroke="midnightblue" d="M366.33,-168.33C365.13,-145.87 365.33,-85.5 399,-56 444.62,-16.03 627.92,-10.9 710.87,-10.68"/>
<polygon fill="midnightblue" stroke="midnightblue" points="710.94,-14.18 720.94,-10.68 710.94,-7.18 710.94,-14.18"/>
</g>
<!-- Node17&#45;&gt;Node12 -->
<g id="edge33" class="edge">
<title>Node17&#45;&gt;Node12</title>
<path fill="none" stroke="midnightblue" d="M385.54,-168.44C404.62,-159.64 434.57,-145.81 456.44,-135.72"/>
<polygon fill="midnightblue" stroke="midnightblue" points="457.93,-138.88 465.55,-131.52 455,-132.53 457.93,-138.88"/>
</g>
<!-- Node18 -->
<g id="node18" class="node">
<title>Node18</title>
<g id="a_node18"><a xlink:title=" ">
<polygon fill="white" stroke="#bfbfbf" points="218,-112.5 218,-131.5 274,-131.5 274,-112.5 218,-112.5"/>
<text text-anchor="middle" x="246" y="-119.5" font-family="Helvetica,sans-Serif" font-size="10.00">optional</text>
</a>
</g>
</g>
<!-- Node17&#45;&gt;Node18 -->
<g id="edge32" class="edge">
<title>Node17&#45;&gt;Node18</title>
<path fill="none" stroke="midnightblue" d="M347.83,-168.44C328.09,-159.64 297.11,-145.81 274.51,-135.72"/>
<polygon fill="midnightblue" stroke="midnightblue" points="275.64,-132.4 265.08,-131.52 272.79,-138.79 275.64,-132.4"/>
</g>
<!-- Node20 -->
<g id="node20" class="node">
<title>Node20</title>
<g id="a_node20"><a xlink:title=" ">
<polygon fill="white" stroke="#bfbfbf" points="750.5,-336.5 750.5,-355.5 815.5,-355.5 815.5,-336.5 750.5,-336.5"/>
<text text-anchor="middle" x="783" y="-343.5" font-family="Helvetica,sans-Serif" font-size="10.00">functional</text>
</a>
</g>
</g>
<!-- Node19&#45;&gt;Node20 -->
<g id="edge39" class="edge">
<title>Node19&#45;&gt;Node20</title>
<path fill="none" stroke="midnightblue" d="M875.33,-392.32C857.61,-383.62 830.1,-370.12 809.71,-360.11"/>
<polygon fill="midnightblue" stroke="midnightblue" points="811.15,-356.92 800.63,-355.65 808.06,-363.2 811.15,-356.92"/>
</g>
<!-- Node21 -->
<g id="node21" class="node">
<title>Node21</title>
<g id="a_node21"><a xlink:title=" ">
<polygon fill="white" stroke="#bfbfbf" points="833.5,-336.5 833.5,-355.5 878.5,-355.5 878.5,-336.5 833.5,-336.5"/>
<text text-anchor="middle" x="856" y="-343.5" font-family="Helvetica,sans-Serif" font-size="10.00">utility</text>
</a>
</g>
</g>
<!-- Node19&#45;&gt;Node21 -->
<g id="edge40" class="edge">
<title>Node19&#45;&gt;Node21</title>
<path fill="none" stroke="midnightblue" d="M886.89,-392.08C881.72,-384.53 874.15,-373.49 867.81,-364.23"/>
<polygon fill="midnightblue" stroke="midnightblue" points="870.54,-362.02 862,-355.75 864.76,-365.98 870.54,-362.02"/>
</g>
<!-- Node22 -->
<g id="node22" class="node">
<title>Node22</title>
<g id="a_node22"><a xlink:title=" ">
<polygon fill="white" stroke="#bfbfbf" points="896.5,-336.5 896.5,-355.5 989.5,-355.5 989.5,-336.5 896.5,-336.5"/>
<text text-anchor="middle" x="943" y="-343.5" font-family="Helvetica,sans-Serif" font-size="10.00">unordered_map</text>
</a>
</g>
</g>
<!-- Node19&#45;&gt;Node22 -->
<g id="edge41" class="edge">
<title>Node19&#45;&gt;Node22</title>
<path fill="none" stroke="midnightblue" d="M901.26,-392.08C908.46,-384.3 919.11,-372.8 927.85,-363.37"/>
<polygon fill="midnightblue" stroke="midnightblue" points="930.67,-365.47 934.9,-355.75 925.53,-360.71 930.67,-365.47"/>
</g>
<!-- Node23&#45;&gt;Node2 -->
<g id="edge47" class="edge">
<title>Node23&#45;&gt;Node2</title>
<path fill="none" stroke="midnightblue" d="M895.66,-282.46C922.52,-276.49 951.75,-265.22 971,-244 1011.6,-199.24 1012.65,-121.88 1010.66,-86.13"/>
<polygon fill="midnightblue" stroke="midnightblue" points="1014.12,-85.43 1009.92,-75.71 1007.13,-85.93 1014.12,-85.43"/>
</g>
<!-- Node23&#45;&gt;Node6 -->
<g id="edge45" class="edge">
<title>Node23&#45;&gt;Node6</title>
<path fill="none" stroke="midnightblue" d="M764.12,-280.47C720.82,-273.59 663.42,-262.04 615,-244 579.4,-230.74 541.56,-207.91 518.85,-193.14"/>
<polygon fill="midnightblue" stroke="midnightblue" points="520.65,-190.13 510.38,-187.54 516.79,-195.97 520.65,-190.13"/>
</g>
<!-- Node23&#45;&gt;Node10 -->
<g id="edge54" class="edge">
<title>Node23&#45;&gt;Node10</title>
<path fill="none" stroke="midnightblue" d="M836.25,-280.5C845.94,-267.58 865.52,-242.56 885,-224 904.05,-205.85 920.35,-211.59 932,-188 950.42,-150.68 915.34,-106.1 892.83,-82.86"/>
<polygon fill="midnightblue" stroke="midnightblue" points="895.06,-80.14 885.5,-75.58 890.13,-85.11 895.06,-80.14"/>
</g>
<!-- Node23&#45;&gt;Node15 -->
<g id="edge46" class="edge">
<title>Node23&#45;&gt;Node15</title>
<path fill="none" stroke="midnightblue" d="M800.76,-280.46C781.8,-273.51 757.94,-261.88 743,-244 732.01,-230.84 727.05,-211.7 724.82,-197.6"/>
<polygon fill="midnightblue" stroke="midnightblue" points="728.28,-197.06 723.55,-187.58 721.34,-197.94 728.28,-197.06"/>
</g>
<!-- Node24 -->
<g id="node24" class="node">
<title>Node24</title>
<g id="a_node24"><a xlink:href="InterruptVectors_8hpp.html" target="_top" xlink:title=" ">
<polygon fill="white" stroke="black" points="694,-112.5 694,-131.5 810,-131.5 810,-112.5 694,-112.5"/>
<text text-anchor="middle" x="752" y="-119.5" font-family="Helvetica,sans-Serif" font-size="10.00">InterruptVectors.hpp</text>
</a>
</g>
</g>
<!-- Node23&#45;&gt;Node24 -->
<g id="edge43" class="edge">
<title>Node23&#45;&gt;Node24</title>
<path fill="none" stroke="midnightblue" d="M790.21,-280.49C745.66,-268.52 676.04,-241.85 648,-188 634.1,-161.3 667.27,-144.27 699.76,-134.37"/>
<polygon fill="midnightblue" stroke="midnightblue" points="701.11,-137.62 709.77,-131.52 699.19,-130.89 701.11,-137.62"/>
</g>
<!-- Node25 -->
<g id="node25" class="node">
<title>Node25</title>
<g id="a_node25"><a xlink:href="Ram_8hpp.html" target="_top" xlink:title=" ">
<polygon fill="white" stroke="black" points="752,-224.5 752,-243.5 838,-243.5 838,-224.5 752,-224.5"/>
<text text-anchor="middle" x="795" y="-231.5" font-family="Helvetica,sans-Serif" font-size="10.00">Ram/Ram.hpp</text>
</a>
</g>
</g>
<!-- Node23&#45;&gt;Node25 -->
<g id="edge48" class="edge">
<title>Node23&#45;&gt;Node25</title>
<path fill="none" stroke="midnightblue" d="M824.22,-280.08C819.33,-272.53 812.17,-261.49 806.17,-252.23"/>
<polygon fill="midnightblue" stroke="midnightblue" points="809.05,-250.24 800.67,-243.75 803.17,-254.05 809.05,-250.24"/>
</g>
<!-- Node27 -->
<g id="node27" class="node">
<title>Node27</title>
<g id="a_node27"><a xlink:title=" ">
<polygon fill="white" stroke="#bfbfbf" points="894,-224.5 894,-243.5 962,-243.5 962,-224.5 894,-224.5"/>
<text text-anchor="middle" x="928" y="-231.5" font-family="Helvetica,sans-Serif" font-size="10.00">filesystem</text>
</a>
</g>
</g>
<!-- Node23&#45;&gt;Node27 -->
<g id="edge53" class="edge">
<title>Node23&#45;&gt;Node27</title>
<path fill="none" stroke="midnightblue" d="M845.75,-280.32C861.32,-271.74 885.38,-258.49 903.46,-248.52"/>
<polygon fill="midnightblue" stroke="midnightblue" points="905.22,-251.55 912.29,-243.65 901.85,-245.42 905.22,-251.55"/>
</g>
<!-- Node24&#45;&gt;Node3 -->
<g id="edge44" class="edge">
<title>Node24&#45;&gt;Node3</title>
<path fill="none" stroke="midnightblue" d="M752,-112.37C752,-94.62 752,-53.67 752,-29.6"/>
<polygon fill="midnightblue" stroke="midnightblue" points="755.5,-29.59 752,-19.59 748.5,-29.59 755.5,-29.59"/>
</g>
<!-- Node25&#45;&gt;Node8 -->
<g id="edge52" class="edge">
<title>Node25&#45;&gt;Node8</title>
<path fill="none" stroke="midnightblue" d="M801.01,-224.22C815.05,-202.53 846.78,-145.72 819,-112 794.42,-82.17 679.97,-71.85 621.94,-68.5"/>
<polygon fill="midnightblue" stroke="midnightblue" points="621.96,-65 611.79,-67.95 621.59,-71.98 621.96,-65"/>
</g>
<!-- Node25&#45;&gt;Node10 -->
<g id="edge50" class="edge">
<title>Node25&#45;&gt;Node10</title>
<path fill="none" stroke="midnightblue" d="M803.35,-224.31C811.31,-215.66 823.19,-201.74 831,-188 850.4,-153.87 864.32,-109.79 871.18,-85.36"/>
<polygon fill="midnightblue" stroke="midnightblue" points="874.58,-86.19 873.82,-75.63 867.82,-84.36 874.58,-86.19"/>
</g>
<!-- Node25&#45;&gt;Node15 -->
<g id="edge49" class="edge">
<title>Node25&#45;&gt;Node15</title>
<path fill="none" stroke="midnightblue" d="M783.43,-224.32C772.58,-216.18 756.12,-203.84 743.12,-194.09"/>
<polygon fill="midnightblue" stroke="midnightblue" points="744.88,-191.03 734.78,-187.83 740.68,-196.63 744.88,-191.03"/>
</g>
<!-- Node26 -->
<g id="node26" class="node">
<title>Node26</title>
<g id="a_node26"><a xlink:title=" ">
<polygon fill="white" stroke="#bfbfbf" points="883,-168.5 883,-187.5 923,-187.5 923,-168.5 883,-168.5"/>
<text text-anchor="middle" x="903" y="-175.5" font-family="Helvetica,sans-Serif" font-size="10.00">span</text>
</a>
</g>
</g>
<!-- Node25&#45;&gt;Node26 -->
<g id="edge51" class="edge">
<title>Node25&#45;&gt;Node26</title>
<path fill="none" stroke="midnightblue" d="M812.35,-224.32C829.67,-215.66 856.52,-202.24 876.5,-192.25"/>
<polygon fill="midnightblue" stroke="midnightblue" points="878.31,-195.26 885.69,-187.65 875.18,-189 878.31,-195.26"/>
</g>
<!-- Node28&#45;&gt;Node2 -->
<g id="edge57" class="edge">
<title>Node28&#45;&gt;Node2</title>
<path fill="none" stroke="midnightblue" d="M1086.22,-112.32C1071.73,-103.82 1049.43,-90.73 1032.51,-80.8"/>
<polygon fill="midnightblue" stroke="midnightblue" points="1034.14,-77.7 1023.74,-75.65 1030.6,-83.74 1034.14,-77.7"/>
</g>
<!-- Node28&#45;&gt;Node10 -->
<g id="edge56" class="edge">
<title>Node28&#45;&gt;Node10</title>
<path fill="none" stroke="midnightblue" d="M1065.35,-112.44C1022.05,-102.05 949.67,-84.68 908.06,-74.7"/>
<polygon fill="midnightblue" stroke="midnightblue" points="908.73,-71.25 898.19,-72.32 907.09,-78.06 908.73,-71.25"/>
</g>
<!-- Node29&#45;&gt;Node2 -->
<g id="edge60" class="edge">
<title>Node29&#45;&gt;Node2</title>
<path fill="none" stroke="midnightblue" d="M414.74,-393.2C538.22,-371.11 882.02,-309.16 905,-300 969.52,-274.27 1001.08,-256.25 1014,-188 1020.76,-152.32 1016.12,-109.7 1012.39,-85.75"/>
<polygon fill="midnightblue" stroke="midnightblue" points="1015.79,-84.89 1010.68,-75.61 1008.89,-86.05 1015.79,-84.89"/>
</g>
<!-- Node29&#45;&gt;Node7 -->
<g id="edge61" class="edge">
<title>Node29&#45;&gt;Node7</title>
<path fill="none" stroke="midnightblue" d="M327.15,-400.93C268.99,-399.35 164.23,-391.28 83,-356 40.02,-337.34 0,-337.85 0,-291 0,-291 0,-291 0,-177 0,-140.02 26.21,-103.47 43.69,-83.21"/>
<polygon fill="midnightblue" stroke="midnightblue" points="46.47,-85.34 50.55,-75.56 41.26,-80.67 46.47,-85.34"/>
</g>
<!-- Node29&#45;&gt;Node9 -->
<g id="edge62" class="edge">
<title>Node29&#45;&gt;Node9</title>
<path fill="none" stroke="midnightblue" d="M327.47,-395.9C237.2,-384.12 38,-351.28 38,-291 38,-291 38,-291 38,-233 38,-163.43 110.03,-106.35 148.07,-81.06"/>
<polygon fill="midnightblue" stroke="midnightblue" points="150.02,-83.97 156.51,-75.6 146.22,-78.09 150.02,-83.97"/>
</g>
<!-- Node29&#45;&gt;Node13 -->
<g id="edge59" class="edge">
<title>Node29&#45;&gt;Node13</title>
<path fill="none" stroke="midnightblue" d="M371,-392.08C371,-385.01 371,-374.86 371,-365.99"/>
<polygon fill="midnightblue" stroke="midnightblue" points="374.5,-365.75 371,-355.75 367.5,-365.75 374.5,-365.75"/>
</g>
<!-- Node30&#45;&gt;Node2 -->
<g id="edge64" class="edge">
<title>Node30&#45;&gt;Node2</title>
<path fill="none" stroke="midnightblue" d="M1213.85,-280.27C1219.29,-251.92 1232.24,-161.47 1188,-112 1171.83,-93.92 1112.19,-81.49 1066.14,-74.34"/>
<polygon fill="midnightblue" stroke="midnightblue" points="1066.66,-70.88 1056.25,-72.86 1065.62,-77.8 1066.66,-70.88"/>
</g>
</g>
</svg>
