<?xml version="1.0" encoding="UTF-8" standalone="no"?>
<!DOCTYPE svg PUBLIC "-//W3C//DTD SVG 1.1//EN"
 "http://www.w3.org/Graphics/SVG/1.1/DTD/svg11.dtd">
<!-- Generated by graphviz version 2.43.0 (0)
 -->
<!-- Title: sources/Memory/AMemory.hpp Pages: 1 -->
<svg width="4589pt" height="319pt"
 viewBox="0.00 0.00 4589.00 319.00" xmlns="http://www.w3.org/2000/svg" xmlns:xlink="http://www.w3.org/1999/xlink">
<g id="graph0" class="graph" transform="scale(1 1) rotate(0) translate(4 315)">
<title>sources/Memory/AMemory.hpp</title>
<polygon fill="white" stroke="transparent" points="-4,4 -4,-315 4585,-315 4585,4 -4,4"/>
<!-- Node1 -->
<g id="node1" class="node">
<title>Node1</title>
<g id="a_node1"><a xlink:title=" ">
<polygon fill="#bfbfbf" stroke="black" points="1678,-291.5 1678,-310.5 1845,-310.5 1845,-291.5 1678,-291.5"/>
<text text-anchor="middle" x="1761.5" y="-298.5" font-family="Helvetica,sans-Serif" font-size="10.00">sources/Memory/AMemory.hpp</text>
</a>
</g>
</g>
<!-- Node2 -->
<g id="node2" class="node">
<title>Node2</title>
<g id="a_node2"><a xlink:href="DSP_8hpp.html" target="_top" xlink:title=" ">
<polygon fill="white" stroke="black" points="3604.5,-179.5 3604.5,-198.5 3746.5,-198.5 3746.5,-179.5 3604.5,-179.5"/>
<text text-anchor="middle" x="3675.5" y="-186.5" font-family="Helvetica,sans-Serif" font-size="10.00">sources/APU/DSP/DSP.hpp</text>
</a>
</g>
</g>
<!-- Node1&#45;&gt;Node2 -->
<g id="edge1" class="edge">
<title>Node1&#45;&gt;Node2</title>
<path fill="none" stroke="midnightblue" d="M1855.14,-293.17C1916.04,-287.02 1996.63,-275.64 2065.5,-255 2085.69,-248.95 2087.99,-239.85 2108.5,-235 2254.92,-200.4 3317.53,-192 3604.33,-190.35"/>
<polygon fill="midnightblue" stroke="midnightblue" points="1854.77,-289.69 1845.16,-294.15 1855.46,-296.65 1854.77,-289.69"/>
</g>
<!-- Node3 -->
<g id="node3" class="node">
<title>Node3</title>
<g id="a_node3"><a xlink:href="APU_8hpp.html" target="_top" xlink:title=" ">
<polygon fill="white" stroke="black" points="2665.5,-123.5 2665.5,-142.5 2787.5,-142.5 2787.5,-123.5 2665.5,-123.5"/>
<text text-anchor="middle" x="2726.5" y="-130.5" font-family="Helvetica,sans-Serif" font-size="10.00">sources/APU/APU.hpp</text>
</a>
</g>
</g>
<!-- Node1&#45;&gt;Node3 -->
<g id="edge38" class="edge">
<title>Node1&#45;&gt;Node3</title>
<path fill="none" stroke="midnightblue" d="M1807.69,-289.24C1867.13,-275.59 1973.66,-251.82 2065.5,-235 2285.32,-194.74 2548.3,-157.92 2665.24,-142.13"/>
<polygon fill="midnightblue" stroke="midnightblue" points="1806.82,-285.84 1797.86,-291.5 1808.39,-292.67 1806.82,-285.84"/>
</g>
<!-- Node64 -->
<g id="node33" class="node">
<title>Node64</title>
<g id="a_node33"><a xlink:href="IPL_8hpp.html" target="_top" xlink:title=" ">
<polygon fill="white" stroke="black" points="1890,-179.5 1890,-198.5 2023,-198.5 2023,-179.5 1890,-179.5"/>
<text text-anchor="middle" x="1956.5" y="-186.5" font-family="Helvetica,sans-Serif" font-size="10.00">sources/APU/IPL/IPL.hpp</text>
</a>
</g>
</g>
<!-- Node1&#45;&gt;Node64 -->
<g id="edge39" class="edge">
<title>Node1&#45;&gt;Node64</title>
<path fill="none" stroke="midnightblue" d="M1785.53,-286.45C1826.21,-263.5 1907.52,-217.63 1941.27,-198.59"/>
<polygon fill="midnightblue" stroke="midnightblue" points="1783.79,-283.41 1776.8,-291.37 1787.23,-289.5 1783.79,-283.41"/>
</g>
<!-- Node66 -->
<g id="node35" class="node">
<title>Node66</title>
<g id="a_node35"><a xlink:href="Cartridge_8hpp.html" target="_top" xlink:title=" ">
<polygon fill="white" stroke="black" points="1676,-179.5 1676,-198.5 1847,-198.5 1847,-179.5 1676,-179.5"/>
<text text-anchor="middle" x="1761.5" y="-186.5" font-family="Helvetica,sans-Serif" font-size="10.00">sources/Cartridge/Cartridge.hpp</text>
</a>
</g>
</g>
<!-- Node1&#45;&gt;Node66 -->
<g id="edge42" class="edge">
<title>Node1&#45;&gt;Node66</title>
<path fill="none" stroke="midnightblue" d="M1761.5,-281.35C1761.5,-257.25 1761.5,-216.31 1761.5,-198.59"/>
<polygon fill="midnightblue" stroke="midnightblue" points="1758,-281.37 1761.5,-291.37 1765,-281.37 1758,-281.37"/>
</g>
<!-- Node68 -->
<g id="node37" class="node">
<title>Node68</title>
<g id="a_node37"><a xlink:href="CPU_8hpp.html" target="_top" xlink:title=" ">
<polygon fill="white" stroke="black" points="917.5,-123.5 917.5,-142.5 1039.5,-142.5 1039.5,-123.5 917.5,-123.5"/>
<text text-anchor="middle" x="978.5" y="-130.5" font-family="Helvetica,sans-Serif" font-size="10.00">sources/CPU/CPU.hpp</text>
</a>
</g>
</g>
<!-- Node1&#45;&gt;Node68 -->
<g id="edge57" class="edge">
<title>Node1&#45;&gt;Node68</title>
<path fill="none" stroke="midnightblue" d="M1667.5,-292.67C1592.95,-285.86 1486.39,-273.87 1394.5,-255 1243.09,-223.91 1066.7,-164.76 1003,-142.64"/>
<polygon fill="midnightblue" stroke="midnightblue" points="1667.52,-296.19 1677.8,-293.6 1668.15,-289.22 1667.52,-296.19"/>
</g>
<!-- Node78 -->
<g id="node47" class="node">
<title>Node78</title>
<g id="a_node47"><a xlink:href="MemoryBus_8hpp.html" target="_top" xlink:title=" ">
<polygon fill="white" stroke="red" points="1301.5,-179.5 1301.5,-198.5 1481.5,-198.5 1481.5,-179.5 1301.5,-179.5"/>
<text text-anchor="middle" x="1391.5" y="-186.5" font-family="Helvetica,sans-Serif" font-size="10.00">sources/Memory/MemoryBus.hpp</text>
</a>
</g>
</g>
<!-- Node1&#45;&gt;Node78 -->
<g id="edge58" class="edge">
<title>Node1&#45;&gt;Node78</title>
<path fill="none" stroke="midnightblue" d="M1667.84,-299.28C1577.18,-296.64 1448.1,-287.12 1410.5,-255 1393.87,-240.8 1391.38,-212.92 1391.26,-198.74"/>
<polygon fill="midnightblue" stroke="midnightblue" points="1667.78,-302.78 1677.87,-299.55 1667.97,-295.78 1667.78,-302.78"/>
</g>
<!-- Node87 -->
<g id="node48" class="node">
<title>Node87</title>
<g id="a_node48"><a xlink:href="PPU_8hpp.html" target="_top" xlink:title=" ">
<polygon fill="white" stroke="red" points="1334.5,-123.5 1334.5,-142.5 1454.5,-142.5 1454.5,-123.5 1334.5,-123.5"/>
<text text-anchor="middle" x="1394.5" y="-130.5" font-family="Helvetica,sans-Serif" font-size="10.00">sources/PPU/PPU.hpp</text>
</a>
</g>
</g>
<!-- Node1&#45;&gt;Node87 -->
<g id="edge65" class="edge">
<title>Node1&#45;&gt;Node87</title>
<path fill="none" stroke="midnightblue" d="M1735.34,-286.76C1708.64,-273.36 1665.93,-252.21 1628.5,-235 1550.51,-199.14 1456.34,-159.63 1415.3,-142.59"/>
<polygon fill="midnightblue" stroke="midnightblue" points="1733.9,-289.96 1744.41,-291.33 1737.05,-283.7 1733.9,-289.96"/>
</g>
<!-- Node96 -->
<g id="node49" class="node">
<title>Node96</title>
<g id="a_node49"><a xlink:href="MemoryShadow_8hpp.html" target="_top" xlink:title=" ">
<polygon fill="white" stroke="red" points="1419.5,-235.5 1419.5,-254.5 1619.5,-254.5 1619.5,-235.5 1419.5,-235.5"/>
<text text-anchor="middle" x="1519.5" y="-242.5" font-family="Helvetica,sans-Serif" font-size="10.00">sources/Memory/MemoryShadow.hpp</text>
</a>
</g>
</g>
<!-- Node1&#45;&gt;Node96 -->
<g id="edge63" class="edge">
<title>Node1&#45;&gt;Node96</title>
<path fill="none" stroke="midnightblue" d="M1713.18,-289.22C1667.45,-279.01 1599.72,-263.9 1557.67,-254.52"/>
<polygon fill="midnightblue" stroke="midnightblue" points="1712.63,-292.68 1723.15,-291.44 1714.16,-285.85 1712.63,-292.68"/>
</g>
<!-- Node100 -->
<g id="node50" class="node">
<title>Node100</title>
<g id="a_node50"><a xlink:href="AMemory_8cpp.html" target="_top" xlink:title=" ">
<polygon fill="white" stroke="black" points="2117,-235.5 2117,-254.5 2284,-254.5 2284,-235.5 2117,-235.5"/>
<text text-anchor="middle" x="2200.5" y="-242.5" font-family="Helvetica,sans-Serif" font-size="10.00">sources/Memory/AMemory.cpp</text>
</a>
</g>
</g>
<!-- Node1&#45;&gt;Node100 -->
<g id="edge66" class="edge">
<title>Node1&#45;&gt;Node100</title>
<path fill="none" stroke="midnightblue" d="M1841.19,-290.2C1924.06,-280 2052.49,-264.21 2131.26,-254.52"/>
<polygon fill="midnightblue" stroke="midnightblue" points="1840.56,-286.75 1831.06,-291.44 1841.41,-293.7 1840.56,-286.75"/>
</g>
<!-- Node2&#45;&gt;Node3 -->
<g id="edge2" class="edge">
<title>Node2&#45;&gt;Node3</title>
<path fill="none" stroke="midnightblue" d="M3594.15,-183.37C3407.69,-172.76 2952.8,-146.88 2787.67,-137.48"/>
<polygon fill="midnightblue" stroke="midnightblue" points="3593.99,-186.87 3604.17,-183.94 3594.39,-179.88 3593.99,-186.87"/>
</g>
<!-- Node5 -->
<g id="node5" class="node">
<title>Node5</title>
<g id="a_node5"><a xlink:href="DSP_8cpp.html" target="_top" xlink:title=" ">
<polygon fill="white" stroke="black" points="4273,-62 4273,-81 4414,-81 4414,-62 4273,-62"/>
<text text-anchor="middle" x="4343.5" y="-69" font-family="Helvetica,sans-Serif" font-size="10.00">sources/APU/DSP/DSP.cpp</text>
</a>
</g>
</g>
<!-- Node2&#45;&gt;Node5 -->
<g id="edge32" class="edge">
<title>Node2&#45;&gt;Node5</title>
<path fill="none" stroke="midnightblue" d="M3756.7,-179.16C3807.45,-172.3 3873.72,-160.88 3930.5,-143 3950.6,-136.67 3953.24,-128.81 3973.5,-123 4098.77,-87.08 4135.69,-106.77 4264.5,-87 4275.94,-85.24 4288.27,-83.1 4299.7,-81.01"/>
<polygon fill="midnightblue" stroke="midnightblue" points="3756.22,-175.7 3746.77,-180.48 3757.14,-182.64 3756.22,-175.7"/>
</g>
<!-- Node6 -->
<g id="node6" class="node">
<title>Node6</title>
<g id="a_node6"><a xlink:href="Voice_8cpp.html" target="_top" xlink:title=" ">
<polygon fill="white" stroke="black" points="4432,-62 4432,-81 4581,-81 4581,-62 4432,-62"/>
<text text-anchor="middle" x="4506.5" y="-69" font-family="Helvetica,sans-Serif" font-size="10.00">sources/APU/DSP/Voice.cpp</text>
</a>
</g>
</g>
<!-- Node2&#45;&gt;Node6 -->
<g id="edge37" class="edge">
<title>Node2&#45;&gt;Node6</title>
<path fill="none" stroke="midnightblue" d="M3756.52,-181.78C3815.48,-175.73 3896.69,-164.22 3965.5,-143 3985.26,-136.91 3987.55,-128.42 4007.5,-123 4186.58,-74.33 4239.48,-110.99 4423.5,-87 4435.97,-85.37 4449.43,-83.2 4461.81,-81.04"/>
<polygon fill="midnightblue" stroke="midnightblue" points="3756.12,-178.3 3746.52,-182.77 3756.82,-185.26 3756.12,-178.3"/>
</g>
<!-- Node59 -->
<g id="node28" class="node">
<title>Node59</title>
<g id="a_node28"><a xlink:href="BRR_8cpp.html" target="_top" xlink:title=" ">
<polygon fill="white" stroke="black" points="4016,-123.5 4016,-142.5 4159,-142.5 4159,-123.5 4016,-123.5"/>
<text text-anchor="middle" x="4087.5" y="-130.5" font-family="Helvetica,sans-Serif" font-size="10.00">sources/APU/DSP/BRR.cpp</text>
</a>
</g>
</g>
<!-- Node2&#45;&gt;Node59 -->
<g id="edge31" class="edge">
<title>Node2&#45;&gt;Node59</title>
<path fill="none" stroke="midnightblue" d="M3751,-178.1C3828.8,-167.91 3948.82,-152.18 4022.52,-142.52"/>
<polygon fill="midnightblue" stroke="midnightblue" points="3750.24,-174.67 3740.78,-179.44 3751.15,-181.61 3750.24,-174.67"/>
</g>
<!-- Node60 -->
<g id="node29" class="node">
<title>Node60</title>
<g id="a_node29"><a xlink:href="Echo_8cpp.html" target="_top" xlink:title=" ">
<polygon fill="white" stroke="black" points="3248.5,-123.5 3248.5,-142.5 3394.5,-142.5 3394.5,-123.5 3248.5,-123.5"/>
<text text-anchor="middle" x="3321.5" y="-130.5" font-family="Helvetica,sans-Serif" font-size="10.00">sources/APU/DSP/Echo.cpp</text>
</a>
</g>
</g>
<!-- Node2&#45;&gt;Node60 -->
<g id="edge33" class="edge">
<title>Node2&#45;&gt;Node60</title>
<path fill="none" stroke="midnightblue" d="M3609.4,-177.92C3542.52,-167.71 3440.27,-152.12 3377.33,-142.52"/>
<polygon fill="midnightblue" stroke="midnightblue" points="3608.99,-181.4 3619.41,-179.44 3610.05,-174.48 3608.99,-181.4"/>
</g>
<!-- Node61 -->
<g id="node30" class="node">
<title>Node61</title>
<g id="a_node30"><a xlink:href="Envelope_8cpp.html" target="_top" xlink:title=" ">
<polygon fill="white" stroke="black" points="3412.5,-123.5 3412.5,-142.5 3580.5,-142.5 3580.5,-123.5 3412.5,-123.5"/>
<text text-anchor="middle" x="3496.5" y="-130.5" font-family="Helvetica,sans-Serif" font-size="10.00">sources/APU/DSP/Envelope.cpp</text>
</a>
</g>
</g>
<!-- Node2&#45;&gt;Node61 -->
<g id="edge34" class="edge">
<title>Node2&#45;&gt;Node61</title>
<path fill="none" stroke="midnightblue" d="M3637.17,-176.44C3603.42,-166.26 3555.05,-151.66 3524.73,-142.52"/>
<polygon fill="midnightblue" stroke="midnightblue" points="3636.55,-179.91 3647.14,-179.44 3638.57,-173.2 3636.55,-179.91"/>
</g>
<!-- Node62 -->
<g id="node31" class="node">
<title>Node62</title>
<g id="a_node31"><a xlink:href="Gauss_8cpp.html" target="_top" xlink:title=" ">
<polygon fill="white" stroke="black" points="3599,-123.5 3599,-142.5 3752,-142.5 3752,-123.5 3599,-123.5"/>
<text text-anchor="middle" x="3675.5" y="-130.5" font-family="Helvetica,sans-Serif" font-size="10.00">sources/APU/DSP/Gauss.cpp</text>
</a>
</g>
</g>
<!-- Node2&#45;&gt;Node62 -->
<g id="edge35" class="edge">
<title>Node2&#45;&gt;Node62</title>
<path fill="none" stroke="midnightblue" d="M3675.5,-168.8C3675.5,-159.91 3675.5,-149.78 3675.5,-142.75"/>
<polygon fill="midnightblue" stroke="midnightblue" points="3672,-169.08 3675.5,-179.08 3679,-169.08 3672,-169.08"/>
</g>
<!-- Node63 -->
<g id="node32" class="node">
<title>Node63</title>
<g id="a_node32"><a xlink:href="Timer_8cpp.html" target="_top" xlink:title=" ">
<polygon fill="white" stroke="black" points="3770,-123.5 3770,-142.5 3921,-142.5 3921,-123.5 3770,-123.5"/>
<text text-anchor="middle" x="3845.5" y="-130.5" font-family="Helvetica,sans-Serif" font-size="10.00">sources/APU/DSP/Timer.cpp</text>
</a>
</g>
</g>
<!-- Node2&#45;&gt;Node63 -->
<g id="edge36" class="edge">
<title>Node2&#45;&gt;Node63</title>
<path fill="none" stroke="midnightblue" d="M3712.32,-176.3C3744.35,-166.13 3790.02,-151.62 3818.69,-142.52"/>
<polygon fill="midnightblue" stroke="midnightblue" points="3710.91,-173.08 3702.44,-179.44 3713.03,-179.75 3710.91,-173.08"/>
</g>
<!-- Node4 -->
<g id="node4" class="node">
<title>Node4</title>
<g id="a_node4"><a xlink:href="APU_8cpp.html" target="_top" xlink:title=" ">
<polygon fill="white" stroke="black" points="2843,-62 2843,-81 2964,-81 2964,-62 2843,-62"/>
<text text-anchor="middle" x="2903.5" y="-69" font-family="Helvetica,sans-Serif" font-size="10.00">sources/APU/APU.cpp</text>
</a>
</g>
</g>
<!-- Node3&#45;&gt;Node4 -->
<g id="edge3" class="edge">
<title>Node3&#45;&gt;Node4</title>
<path fill="none" stroke="midnightblue" d="M2761.51,-120.23C2795.91,-108.67 2847.58,-91.3 2878.19,-81.01"/>
<polygon fill="midnightblue" stroke="midnightblue" points="2760.22,-116.97 2751.86,-123.48 2762.45,-123.61 2760.22,-116.97"/>
</g>
<!-- Node3&#45;&gt;Node5 -->
<g id="edge4" class="edge">
<title>Node3&#45;&gt;Node5</title>
<path fill="none" stroke="midnightblue" d="M2798,-130.55C3081.47,-124.71 4117.96,-102.5 4264.5,-87 4277.26,-85.65 4291.05,-83.4 4303.48,-81.07"/>
<polygon fill="midnightblue" stroke="midnightblue" points="2797.77,-127.05 2787.84,-130.76 2797.91,-134.05 2797.77,-127.05"/>
</g>
<!-- Node3&#45;&gt;Node6 -->
<g id="edge5" class="edge">
<title>Node3&#45;&gt;Node6</title>
<path fill="none" stroke="midnightblue" d="M2798.25,-130.72C3100.31,-125.24 4260.48,-103.31 4423.5,-87 4437.04,-85.65 4451.69,-83.36 4464.87,-81"/>
<polygon fill="midnightblue" stroke="midnightblue" points="2797.8,-127.23 2787.87,-130.91 2797.93,-134.22 2797.8,-127.23"/>
</g>
<!-- Node7 -->
<g id="node7" class="node">
<title>Node7</title>
<g id="a_node7"><a xlink:href="16bitArithmetic_8cpp.html" target="_top" xlink:title=" ">
<polygon fill="white" stroke="black" points="2982,-56.5 2982,-86.5 3119,-86.5 3119,-56.5 2982,-56.5"/>
<text text-anchor="start" x="2990" y="-74.5" font-family="Helvetica,sans-Serif" font-size="10.00">sources/APU/Instructions</text>
<text text-anchor="middle" x="3050.5" y="-63.5" font-family="Helvetica,sans-Serif" font-size="10.00">/16bitArithmetic.cpp</text>
</a>
</g>
</g>
<!-- Node3&#45;&gt;Node7 -->
<g id="edge6" class="edge">
<title>Node3&#45;&gt;Node7</title>
<path fill="none" stroke="midnightblue" d="M2783.86,-121.65C2833.93,-112.59 2908.54,-99.03 2973.5,-87 2976.18,-86.5 2978.9,-86 2981.66,-85.48"/>
<polygon fill="midnightblue" stroke="midnightblue" points="2783.08,-118.23 2773.87,-123.46 2784.33,-125.12 2783.08,-118.23"/>
</g>
<!-- Node8 -->
<g id="node8" class="node">
<title>Node8</title>
<g id="a_node8"><a xlink:href="16bitDataTransmission_8cpp.html" target="_top" xlink:title=" ">
<polygon fill="white" stroke="black" points="3137.5,-56.5 3137.5,-86.5 3289.5,-86.5 3289.5,-56.5 3137.5,-56.5"/>
<text text-anchor="start" x="3145.5" y="-74.5" font-family="Helvetica,sans-Serif" font-size="10.00">sources/APU/Instructions</text>
<text text-anchor="middle" x="3213.5" y="-63.5" font-family="Helvetica,sans-Serif" font-size="10.00">/16bitDataTransmission.cpp</text>
</a>
</g>
</g>
<!-- Node3&#45;&gt;Node8 -->
<g id="edge7" class="edge">
<title>Node3&#45;&gt;Node8</title>
<path fill="none" stroke="midnightblue" d="M2797.61,-125.29C2878.07,-117.4 3012.97,-103.31 3128.5,-87 3131.32,-86.6 3134.18,-86.18 3137.08,-85.75"/>
<polygon fill="midnightblue" stroke="midnightblue" points="2797.2,-121.81 2787.59,-126.26 2797.88,-128.78 2797.2,-121.81"/>
</g>
<!-- Node9 -->
<g id="node9" class="node">
<title>Node9</title>
<g id="a_node9"><a xlink:href="8bitArithmetic_8cpp.html" target="_top" xlink:title=" ">
<polygon fill="white" stroke="black" points="3308,-56.5 3308,-86.5 3445,-86.5 3445,-56.5 3308,-56.5"/>
<text text-anchor="start" x="3316" y="-74.5" font-family="Helvetica,sans-Serif" font-size="10.00">sources/APU/Instructions</text>
<text text-anchor="middle" x="3376.5" y="-63.5" font-family="Helvetica,sans-Serif" font-size="10.00">/8bitArithmetic.cpp</text>
</a>
</g>
</g>
<!-- Node3&#45;&gt;Node9 -->
<g id="edge8" class="edge">
<title>Node3&#45;&gt;Node9</title>
<path fill="none" stroke="midnightblue" d="M2797.84,-128.8C2906.32,-123.4 3119.12,-110.66 3298.5,-87 3301.5,-86.6 3304.57,-86.17 3307.66,-85.7"/>
<polygon fill="midnightblue" stroke="midnightblue" points="2797.49,-125.32 2787.67,-129.31 2797.83,-132.31 2797.49,-125.32"/>
</g>
<!-- Node10 -->
<g id="node10" class="node">
<title>Node10</title>
<g id="a_node10"><a xlink:href="8bitDataTransmission_8cpp.html" target="_top" xlink:title=" ">
<polygon fill="white" stroke="black" points="3463.5,-56.5 3463.5,-86.5 3609.5,-86.5 3609.5,-56.5 3463.5,-56.5"/>
<text text-anchor="start" x="3471.5" y="-74.5" font-family="Helvetica,sans-Serif" font-size="10.00">sources/APU/Instructions</text>
<text text-anchor="middle" x="3536.5" y="-63.5" font-family="Helvetica,sans-Serif" font-size="10.00">/8bitDataTransmission.cpp</text>
</a>
</g>
</g>
<!-- Node3&#45;&gt;Node10 -->
<g id="edge9" class="edge">
<title>Node3&#45;&gt;Node10</title>
<path fill="none" stroke="midnightblue" d="M2797.86,-130.27C2928.53,-126.51 3214.85,-115.5 3454.5,-87 3457.37,-86.66 3460.29,-86.28 3463.24,-85.88"/>
<polygon fill="midnightblue" stroke="midnightblue" points="2797.49,-126.78 2787.59,-130.56 2797.68,-133.78 2797.49,-126.78"/>
</g>
<!-- Node11 -->
<g id="node11" class="node">
<title>Node11</title>
<g id="a_node11"><a xlink:href="8bitIncrementDecrement_8cpp.html" target="_top" xlink:title=" ">
<polygon fill="white" stroke="black" points="3627.5,-56.5 3627.5,-86.5 3789.5,-86.5 3789.5,-56.5 3627.5,-56.5"/>
<text text-anchor="start" x="3635.5" y="-74.5" font-family="Helvetica,sans-Serif" font-size="10.00">sources/APU/Instructions</text>
<text text-anchor="middle" x="3708.5" y="-63.5" font-family="Helvetica,sans-Serif" font-size="10.00">/8bitIncrementDecrement.cpp</text>
</a>
</g>
</g>
<!-- Node3&#45;&gt;Node11 -->
<g id="edge10" class="edge">
<title>Node3&#45;&gt;Node11</title>
<path fill="none" stroke="midnightblue" d="M2797.61,-131.05C2948.99,-128.45 3314.19,-119.09 3618.5,-87 3621.33,-86.7 3624.21,-86.37 3627.12,-86.02"/>
<polygon fill="midnightblue" stroke="midnightblue" points="2797.45,-127.55 2787.51,-131.22 2797.57,-134.55 2797.45,-127.55"/>
</g>
<!-- Node12 -->
<g id="node12" class="node">
<title>Node12</title>
<g id="a_node12"><a xlink:href="8bitLogical_8cpp.html" target="_top" xlink:title=" ">
<polygon fill="white" stroke="black" points="3808,-56.5 3808,-86.5 3945,-86.5 3945,-56.5 3808,-56.5"/>
<text text-anchor="start" x="3816" y="-74.5" font-family="Helvetica,sans-Serif" font-size="10.00">sources/APU/Instructions</text>
<text text-anchor="middle" x="3876.5" y="-63.5" font-family="Helvetica,sans-Serif" font-size="10.00">/8bitLogical.cpp</text>
</a>
</g>
</g>
<!-- Node3&#45;&gt;Node12 -->
<g id="edge11" class="edge">
<title>Node3&#45;&gt;Node12</title>
<path fill="none" stroke="midnightblue" d="M2797.75,-130.33C3004.75,-125.27 3603.74,-109.08 3798.5,-87 3801.51,-86.66 3804.58,-86.27 3807.68,-85.84"/>
<polygon fill="midnightblue" stroke="midnightblue" points="2797.52,-126.83 2787.6,-130.58 2797.69,-133.83 2797.52,-126.83"/>
</g>
<!-- Node13 -->
<g id="node13" class="node">
<title>Node13</title>
<g id="a_node13"><a xlink:href="8bitShiftRotation_8cpp.html" target="_top" xlink:title=" ">
<polygon fill="white" stroke="black" points="3963,-56.5 3963,-86.5 4100,-86.5 4100,-56.5 3963,-56.5"/>
<text text-anchor="start" x="3971" y="-74.5" font-family="Helvetica,sans-Serif" font-size="10.00">sources/APU/Instructions</text>
<text text-anchor="middle" x="4031.5" y="-63.5" font-family="Helvetica,sans-Serif" font-size="10.00">/8bitShiftRotation.cpp</text>
</a>
</g>
</g>
<!-- Node3&#45;&gt;Node13 -->
<g id="edge12" class="edge">
<title>Node3&#45;&gt;Node13</title>
<path fill="none" stroke="midnightblue" d="M2797.79,-130.79C3024.63,-126.72 3728.08,-112.32 3954.5,-87 3957.2,-86.7 3959.96,-86.35 3962.73,-85.98"/>
<polygon fill="midnightblue" stroke="midnightblue" points="2797.61,-127.29 2787.67,-130.97 2797.73,-134.29 2797.61,-127.29"/>
</g>
<!-- Node14 -->
<g id="node14" class="node">
<title>Node14</title>
<g id="a_node14"><a xlink:href="Bit_8cpp.html" target="_top" xlink:title=" ">
<polygon fill="white" stroke="black" points="4118,-56.5 4118,-86.5 4255,-86.5 4255,-56.5 4118,-56.5"/>
<text text-anchor="start" x="4126" y="-74.5" font-family="Helvetica,sans-Serif" font-size="10.00">sources/APU/Instructions</text>
<text text-anchor="middle" x="4186.5" y="-63.5" font-family="Helvetica,sans-Serif" font-size="10.00">/Bit.cpp</text>
</a>
</g>
</g>
<!-- Node3&#45;&gt;Node14 -->
<g id="edge13" class="edge">
<title>Node3&#45;&gt;Node14</title>
<path fill="none" stroke="midnightblue" d="M2798.15,-130.31C3063.12,-123.99 3979.01,-101.32 4109.5,-87 4112.2,-86.7 4114.96,-86.36 4117.73,-85.99"/>
<polygon fill="midnightblue" stroke="midnightblue" points="2797.79,-126.82 2787.88,-130.56 2797.96,-133.82 2797.79,-126.82"/>
</g>
<!-- Node15 -->
<g id="node15" class="node">
<title>Node15</title>
<g id="a_node15"><a xlink:href="DecimalCompensation_8cpp.html" target="_top" xlink:title=" ">
<polygon fill="white" stroke="black" points="1497,-56.5 1497,-86.5 1648,-86.5 1648,-56.5 1497,-56.5"/>
<text text-anchor="start" x="1505" y="-74.5" font-family="Helvetica,sans-Serif" font-size="10.00">sources/APU/Instructions</text>
<text text-anchor="middle" x="1572.5" y="-63.5" font-family="Helvetica,sans-Serif" font-size="10.00">/DecimalCompensation.cpp</text>
</a>
</g>
</g>
<!-- Node3&#45;&gt;Node15 -->
<g id="edge14" class="edge">
<title>Node3&#45;&gt;Node15</title>
<path fill="none" stroke="midnightblue" d="M2655.24,-132.12C2483.22,-131.72 2031.77,-126.64 1657.5,-87 1654.52,-86.68 1651.49,-86.33 1648.43,-85.94"/>
<polygon fill="midnightblue" stroke="midnightblue" points="2655.43,-135.62 2665.43,-132.14 2655.44,-128.62 2655.43,-135.62"/>
</g>
<!-- Node16 -->
<g id="node16" class="node">
<title>Node16</title>
<g id="a_node16"><a xlink:href="MultiplicationDivision_8cpp.html" target="_top" xlink:title=" ">
<polygon fill="white" stroke="black" points="1666.5,-56.5 1666.5,-86.5 1812.5,-86.5 1812.5,-56.5 1666.5,-56.5"/>
<text text-anchor="start" x="1674.5" y="-74.5" font-family="Helvetica,sans-Serif" font-size="10.00">sources/APU/Instructions</text>
<text text-anchor="middle" x="1739.5" y="-63.5" font-family="Helvetica,sans-Serif" font-size="10.00">/MultiplicationDivision.cpp</text>
</a>
</g>
</g>
<!-- Node3&#45;&gt;Node16 -->
<g id="edge15" class="edge">
<title>Node3&#45;&gt;Node16</title>
<path fill="none" stroke="midnightblue" d="M2655.17,-131.49C2502.02,-129.72 2130.56,-121.87 1821.5,-87 1818.63,-86.68 1815.7,-86.31 1812.75,-85.92"/>
<polygon fill="midnightblue" stroke="midnightblue" points="2655.34,-134.99 2665.38,-131.6 2655.42,-127.99 2655.34,-134.99"/>
</g>
<!-- Node17 -->
<g id="node17" class="node">
<title>Node17</title>
<g id="a_node17"><a xlink:href="ProgramFlow_8cpp.html" target="_top" xlink:title=" ">
<polygon fill="white" stroke="black" points="1831,-56.5 1831,-86.5 1968,-86.5 1968,-56.5 1831,-56.5"/>
<text text-anchor="start" x="1839" y="-74.5" font-family="Helvetica,sans-Serif" font-size="10.00">sources/APU/Instructions</text>
<text text-anchor="middle" x="1899.5" y="-63.5" font-family="Helvetica,sans-Serif" font-size="10.00">/ProgramFlow.cpp</text>
</a>
</g>
</g>
<!-- Node3&#45;&gt;Node17 -->
<g id="edge16" class="edge">
<title>Node3&#45;&gt;Node17</title>
<path fill="none" stroke="midnightblue" d="M2654.89,-130.71C2521.14,-127.63 2224.42,-117.66 1976.5,-87 1973.8,-86.67 1971.05,-86.3 1968.28,-85.9"/>
<polygon fill="midnightblue" stroke="midnightblue" points="2654.94,-134.21 2665.01,-130.93 2655.09,-127.21 2654.94,-134.21"/>
</g>
<!-- Node18 -->
<g id="node18" class="node">
<title>Node18</title>
<g id="a_node18"><a xlink:href="ProgramStatusWord_8cpp.html" target="_top" xlink:title=" ">
<polygon fill="white" stroke="black" points="1986,-56.5 1986,-86.5 2123,-86.5 2123,-56.5 1986,-56.5"/>
<text text-anchor="start" x="1994" y="-74.5" font-family="Helvetica,sans-Serif" font-size="10.00">sources/APU/Instructions</text>
<text text-anchor="middle" x="2054.5" y="-63.5" font-family="Helvetica,sans-Serif" font-size="10.00">/ProgramStatusWord.cpp</text>
</a>
</g>
</g>
<!-- Node3&#45;&gt;Node18 -->
<g id="edge17" class="edge">
<title>Node3&#45;&gt;Node18</title>
<path fill="none" stroke="midnightblue" d="M2654.99,-129.08C2543.15,-123.96 2320.21,-111.48 2132.5,-87 2129.5,-86.61 2126.43,-86.18 2123.34,-85.71"/>
<polygon fill="midnightblue" stroke="midnightblue" points="2654.99,-132.59 2665.14,-129.54 2655.3,-125.59 2654.99,-132.59"/>
</g>
<!-- Node19 -->
<g id="node19" class="node">
<title>Node19</title>
<g id="a_node19"><a xlink:href="Stack_8cpp.html" target="_top" xlink:title=" ">
<polygon fill="white" stroke="black" points="2141,-56.5 2141,-86.5 2278,-86.5 2278,-56.5 2141,-56.5"/>
<text text-anchor="start" x="2149" y="-74.5" font-family="Helvetica,sans-Serif" font-size="10.00">sources/APU/Instructions</text>
<text text-anchor="middle" x="2209.5" y="-63.5" font-family="Helvetica,sans-Serif" font-size="10.00">/Stack.cpp</text>
</a>
</g>
</g>
<!-- Node3&#45;&gt;Node19 -->
<g id="edge18" class="edge">
<title>Node3&#45;&gt;Node19</title>
<path fill="none" stroke="midnightblue" d="M2655.2,-126.49C2568.17,-119.35 2416.61,-105.59 2287.5,-87 2284.5,-86.57 2281.44,-86.1 2278.35,-85.61"/>
<polygon fill="midnightblue" stroke="midnightblue" points="2654.98,-129.99 2665.23,-127.31 2655.55,-123.01 2654.98,-129.99"/>
</g>
<!-- Node20 -->
<g id="node20" class="node">
<title>Node20</title>
<g id="a_node20"><a xlink:href="Standbys_8cpp.html" target="_top" xlink:title=" ">
<polygon fill="white" stroke="black" points="2296,-56.5 2296,-86.5 2433,-86.5 2433,-56.5 2296,-56.5"/>
<text text-anchor="start" x="2304" y="-74.5" font-family="Helvetica,sans-Serif" font-size="10.00">sources/APU/Instructions</text>
<text text-anchor="middle" x="2364.5" y="-63.5" font-family="Helvetica,sans-Serif" font-size="10.00">/Standbys.cpp</text>
</a>
</g>
</g>
<!-- Node3&#45;&gt;Node20 -->
<g id="edge19" class="edge">
<title>Node3&#45;&gt;Node20</title>
<path fill="none" stroke="midnightblue" d="M2659.78,-121.94C2602.18,-113.14 2516.76,-99.78 2442.5,-87 2439.51,-86.49 2436.46,-85.95 2433.39,-85.41"/>
<polygon fill="midnightblue" stroke="midnightblue" points="2659.44,-125.43 2669.85,-123.48 2660.49,-118.51 2659.44,-125.43"/>
</g>
<!-- Node21 -->
<g id="node21" class="node">
<title>Node21</title>
<g id="a_node21"><a xlink:href="Subroutine_8cpp.html" target="_top" xlink:title=" ">
<polygon fill="white" stroke="black" points="2451,-56.5 2451,-86.5 2588,-86.5 2588,-56.5 2451,-56.5"/>
<text text-anchor="start" x="2459" y="-74.5" font-family="Helvetica,sans-Serif" font-size="10.00">sources/APU/Instructions</text>
<text text-anchor="middle" x="2519.5" y="-63.5" font-family="Helvetica,sans-Serif" font-size="10.00">/Subroutine.cpp</text>
</a>
</g>
</g>
<!-- Node3&#45;&gt;Node21 -->
<g id="edge20" class="edge">
<title>Node3&#45;&gt;Node21</title>
<path fill="none" stroke="midnightblue" d="M2686.87,-120.61C2653.1,-110.9 2604.44,-96.92 2568.29,-86.52"/>
<polygon fill="midnightblue" stroke="midnightblue" points="2686.26,-124.08 2696.84,-123.48 2688.2,-117.35 2686.26,-124.08"/>
</g>
<!-- Node22 -->
<g id="node22" class="node">
<title>Node22</title>
<g id="a_node22"><a xlink:href="Operand_8cpp.html" target="_top" xlink:title=" ">
<polygon fill="white" stroke="black" points="2606.5,-62 2606.5,-81 2748.5,-81 2748.5,-62 2606.5,-62"/>
<text text-anchor="middle" x="2677.5" y="-69" font-family="Helvetica,sans-Serif" font-size="10.00">sources/APU/Operand.cpp</text>
</a>
</g>
</g>
<!-- Node3&#45;&gt;Node22 -->
<g id="edge21" class="edge">
<title>Node3&#45;&gt;Node22</title>
<path fill="none" stroke="midnightblue" d="M2713.05,-115.67C2703.81,-104.45 2691.93,-90.02 2684.51,-81.01"/>
<polygon fill="midnightblue" stroke="midnightblue" points="2710.42,-117.98 2719.48,-123.48 2715.82,-113.53 2710.42,-117.98"/>
</g>
<!-- Node23 -->
<g id="node23" class="node">
<title>Node23</title>
<g id="a_node23"><a xlink:href="APUDebug_8cpp.html" target="_top" xlink:title=" ">
<polygon fill="white" stroke="black" points="2506,-0.5 2506,-19.5 2685,-19.5 2685,-0.5 2506,-0.5"/>
<text text-anchor="middle" x="2595.5" y="-7.5" font-family="Helvetica,sans-Serif" font-size="10.00">sources/Debugger/APUDebug.cpp</text>
</a>
</g>
</g>
<!-- Node3&#45;&gt;Node23 -->
<g id="edge22" class="edge">
<title>Node3&#45;&gt;Node23</title>
<path fill="none" stroke="midnightblue" d="M2757.05,-118.56C2769.83,-111.22 2783.35,-100.77 2790.5,-87 2796.85,-74.77 2799.08,-66.78 2790.5,-56 2776.01,-37.78 2723.26,-26.31 2676.28,-19.51"/>
<polygon fill="midnightblue" stroke="midnightblue" points="2755.18,-115.59 2747.98,-123.36 2758.46,-121.77 2755.18,-115.59"/>
</g>
<!-- Node24 -->
<g id="node24" class="node">
<title>Node24</title>
<g id="a_node24"><a xlink:href="SNES_8hpp.html" target="_top" xlink:title=" ">
<polygon fill="white" stroke="red" points="1298.5,-62 1298.5,-81 1402.5,-81 1402.5,-62 1298.5,-62"/>
<text text-anchor="middle" x="1350.5" y="-69" font-family="Helvetica,sans-Serif" font-size="10.00">sources/SNES.hpp</text>
</a>
</g>
</g>
<!-- Node3&#45;&gt;Node24 -->
<g id="edge23" class="edge">
<title>Node3&#45;&gt;Node24</title>
<path fill="none" stroke="midnightblue" d="M2654.9,-131.26C2417.74,-128.53 1659.13,-117.56 1416.5,-87 1405.79,-85.65 1394.26,-83.4 1383.87,-81.07"/>
<polygon fill="midnightblue" stroke="midnightblue" points="2655.09,-134.76 2665.13,-131.37 2655.17,-127.76 2655.09,-134.76"/>
</g>
<!-- Node38 -->
<g id="node25" class="node">
<title>Node38</title>
<g id="a_node25"><a xlink:href="testAPU_8cpp.html" target="_top" xlink:title=" ">
<polygon fill="white" stroke="black" points="1259.5,-0.5 1259.5,-19.5 1385.5,-19.5 1385.5,-0.5 1259.5,-0.5"/>
<text text-anchor="middle" x="1322.5" y="-7.5" font-family="Helvetica,sans-Serif" font-size="10.00">tests/APU/testAPU.cpp</text>
</a>
</g>
</g>
<!-- Node3&#45;&gt;Node38 -->
<g id="edge28" class="edge">
<title>Node3&#45;&gt;Node38</title>
<path fill="none" stroke="midnightblue" d="M2654.96,-131.19C2406.46,-128.13 1589.59,-115.95 1475.5,-87 1471.87,-86.08 1378.71,-39.29 1339.57,-19.6"/>
<polygon fill="midnightblue" stroke="midnightblue" points="2655.27,-134.69 2665.31,-131.31 2655.36,-127.69 2655.27,-134.69"/>
</g>
<!-- Node40 -->
<g id="node26" class="node">
<title>Node40</title>
<g id="a_node26"><a xlink:href="testAPUInstructions_8cpp.html" target="_top" xlink:title=" ">
<polygon fill="white" stroke="black" points="1404,-0.5 1404,-19.5 1587,-19.5 1587,-0.5 1404,-0.5"/>
<text text-anchor="middle" x="1495.5" y="-7.5" font-family="Helvetica,sans-Serif" font-size="10.00">tests/APU/testAPUInstructions.cpp</text>
</a>
</g>
</g>
<!-- Node3&#45;&gt;Node40 -->
<g id="edge29" class="edge">
<title>Node3&#45;&gt;Node40</title>
<path fill="none" stroke="midnightblue" d="M2655.25,-130.74C2394.72,-125.95 1507.89,-108.14 1487.5,-87 1469.91,-68.76 1483.02,-35.43 1490.81,-19.68"/>
<polygon fill="midnightblue" stroke="midnightblue" points="2655.29,-134.24 2665.35,-130.92 2655.42,-127.24 2655.29,-134.24"/>
</g>
<!-- Node41 -->
<g id="node27" class="node">
<title>Node41</title>
<g id="a_node27"><a xlink:href="testOperand_8cpp.html" target="_top" xlink:title=" ">
<polygon fill="white" stroke="black" points="2096,-0.5 2096,-19.5 2243,-19.5 2243,-0.5 2096,-0.5"/>
<text text-anchor="middle" x="2169.5" y="-7.5" font-family="Helvetica,sans-Serif" font-size="10.00">tests/APU/testOperand.cpp</text>
</a>
</g>
</g>
<!-- Node3&#45;&gt;Node41 -->
<g id="edge30" class="edge">
<title>Node3&#45;&gt;Node41</title>
<path fill="none" stroke="midnightblue" d="M2742.37,-115.57C2756.65,-98.81 2773.17,-72.91 2757.5,-56 2740.26,-37.39 2397.09,-20.62 2243.14,-14"/>
<polygon fill="midnightblue" stroke="midnightblue" points="2739.39,-113.64 2735.29,-123.41 2744.59,-118.34 2739.39,-113.64"/>
</g>
<!-- Node24&#45;&gt;Node23 -->
<g id="edge24" class="edge">
<title>Node24&#45;&gt;Node23</title>
<path fill="none" stroke="midnightblue" d="M1412.93,-63.03C1436.29,-60.46 1463.08,-57.79 1487.5,-56 1684.67,-41.58 2278.59,-21.33 2505.78,-13.89"/>
<polygon fill="midnightblue" stroke="midnightblue" points="1412.35,-59.57 1402.8,-64.16 1413.12,-66.53 1412.35,-59.57"/>
</g>
<!-- Node24&#45;&gt;Node38 -->
<g id="edge25" class="edge">
<title>Node24&#45;&gt;Node38</title>
<path fill="none" stroke="midnightblue" d="M1342.19,-52.83C1337.01,-41.83 1330.58,-28.16 1326.5,-19.51"/>
<polygon fill="midnightblue" stroke="midnightblue" points="1339.06,-54.42 1346.49,-61.98 1345.4,-51.44 1339.06,-54.42"/>
</g>
<!-- Node24&#45;&gt;Node40 -->
<g id="edge26" class="edge">
<title>Node24&#45;&gt;Node40</title>
<path fill="none" stroke="midnightblue" d="M1380.64,-58.13C1408.81,-46.57 1450.12,-29.62 1474.76,-19.51"/>
<polygon fill="midnightblue" stroke="midnightblue" points="1379.2,-54.94 1371.27,-61.98 1381.86,-61.42 1379.2,-54.94"/>
</g>
<!-- Node24&#45;&gt;Node41 -->
<g id="edge27" class="edge">
<title>Node24&#45;&gt;Node41</title>
<path fill="none" stroke="midnightblue" d="M1412.95,-63.36C1436.32,-60.83 1463.11,-58.09 1487.5,-56 1708.58,-37.01 1970.58,-21.75 2095.75,-14.91"/>
<polygon fill="midnightblue" stroke="midnightblue" points="1412.38,-59.91 1402.82,-64.47 1413.14,-66.86 1412.38,-59.91"/>
</g>
<!-- Node64&#45;&gt;Node3 -->
<g id="edge40" class="edge">
<title>Node64&#45;&gt;Node3</title>
<path fill="none" stroke="midnightblue" d="M2033.54,-179.36C2034.87,-179.23 2036.19,-179.12 2037.5,-179 2268.86,-158.6 2544.67,-143.3 2665.13,-137.07"/>
<polygon fill="midnightblue" stroke="midnightblue" points="2032.84,-175.91 2023.22,-180.34 2033.51,-182.88 2032.84,-175.91"/>
</g>
<!-- Node65 -->
<g id="node34" class="node">
<title>Node65</title>
<g id="a_node34"><a xlink:href="IPL_8cpp.html" target="_top" xlink:title=" ">
<polygon fill="white" stroke="black" points="1914.5,-123.5 1914.5,-142.5 2046.5,-142.5 2046.5,-123.5 1914.5,-123.5"/>
<text text-anchor="middle" x="1980.5" y="-130.5" font-family="Helvetica,sans-Serif" font-size="10.00">sources/APU/IPL/IPL.cpp</text>
</a>
</g>
</g>
<!-- Node64&#45;&gt;Node65 -->
<g id="edge41" class="edge">
<title>Node64&#45;&gt;Node65</title>
<path fill="none" stroke="midnightblue" d="M1964.64,-169.69C1968.68,-160.59 1973.38,-150.01 1976.61,-142.75"/>
<polygon fill="midnightblue" stroke="midnightblue" points="1961.33,-168.52 1960.46,-179.08 1967.72,-171.37 1961.33,-168.52"/>
</g>
<!-- Node66&#45;&gt;Node3 -->
<g id="edge43" class="edge">
<title>Node66&#45;&gt;Node3</title>
<path fill="none" stroke="midnightblue" d="M1857.51,-180.55C1865.29,-180.01 1873.02,-179.48 1880.5,-179 2174.42,-160.07 2526.17,-143.22 2665.43,-136.78"/>
<polygon fill="midnightblue" stroke="midnightblue" points="1857.01,-177.08 1847.28,-181.28 1857.51,-184.06 1857.01,-177.08"/>
</g>
<!-- Node66&#45;&gt;Node24 -->
<g id="edge56" class="edge">
<title>Node66&#45;&gt;Node24</title>
<path fill="none" stroke="midnightblue" d="M1809.4,-176.67C1846.73,-165.68 1888.79,-147.15 1866.5,-123 1832.48,-86.14 1466.11,-94.4 1416.5,-87 1406.29,-85.48 1395.3,-83.29 1385.27,-81.07"/>
<polygon fill="midnightblue" stroke="midnightblue" points="1808.24,-173.36 1799.55,-179.43 1810.13,-180.1 1808.24,-173.36"/>
</g>
<!-- Node67 -->
<g id="node36" class="node">
<title>Node67</title>
<g id="a_node36"><a xlink:href="Cartridge_8cpp.html" target="_top" xlink:title=" ">
<polygon fill="white" stroke="black" points="1472.5,-123.5 1472.5,-142.5 1642.5,-142.5 1642.5,-123.5 1472.5,-123.5"/>
<text text-anchor="middle" x="1557.5" y="-130.5" font-family="Helvetica,sans-Serif" font-size="10.00">sources/Cartridge/Cartridge.cpp</text>
</a>
</g>
</g>
<!-- Node66&#45;&gt;Node67 -->
<g id="edge44" class="edge">
<title>Node66&#45;&gt;Node67</title>
<path fill="none" stroke="midnightblue" d="M1719.3,-176.83C1680.78,-166.63 1624.68,-151.78 1589.67,-142.52"/>
<polygon fill="midnightblue" stroke="midnightblue" points="1718.61,-180.27 1729.18,-179.44 1720.4,-173.5 1718.61,-180.27"/>
</g>
<!-- Node66&#45;&gt;Node68 -->
<g id="edge45" class="edge">
<title>Node66&#45;&gt;Node68</title>
<path fill="none" stroke="midnightblue" d="M1665.82,-181.4C1502.73,-170.15 1175.41,-147.58 1039.66,-138.22"/>
<polygon fill="midnightblue" stroke="midnightblue" points="1665.62,-184.9 1675.84,-182.09 1666.1,-177.91 1665.62,-184.9"/>
</g>
<!-- Node77 -->
<g id="node46" class="node">
<title>Node77</title>
<g id="a_node46"><a xlink:href="HeaderViewer_8hpp.html" target="_top" xlink:title=" ">
<polygon fill="white" stroke="red" points="1661,-123.5 1661,-142.5 1858,-142.5 1858,-123.5 1661,-123.5"/>
<text text-anchor="middle" x="1759.5" y="-130.5" font-family="Helvetica,sans-Serif" font-size="10.00">sources/Debugger/HeaderViewer.hpp</text>
</a>
</g>
</g>
<!-- Node66&#45;&gt;Node77 -->
<g id="edge55" class="edge">
<title>Node66&#45;&gt;Node77</title>
<path fill="none" stroke="midnightblue" d="M1760.79,-168.8C1760.46,-159.91 1760.08,-149.78 1759.82,-142.75"/>
<polygon fill="midnightblue" stroke="midnightblue" points="1757.3,-169.22 1761.17,-179.08 1764.3,-168.96 1757.3,-169.22"/>
</g>
<!-- Node68&#45;&gt;Node24 -->
<g id="edge54" class="edge">
<title>Node68&#45;&gt;Node24</title>
<path fill="none" stroke="midnightblue" d="M1049.86,-123.4C1112.88,-115.39 1207.13,-102.39 1288.5,-87 1297.62,-85.27 1307.44,-83.12 1316.5,-81"/>
<polygon fill="midnightblue" stroke="midnightblue" points="1049.12,-119.97 1039.64,-124.69 1050,-126.91 1049.12,-119.97"/>
</g>
<!-- Node69 -->
<g id="node38" class="node">
<title>Node69</title>
<g id="a_node38"><a xlink:href="AddressingModes_8cpp.html" target="_top" xlink:title=" ">
<polygon fill="white" stroke="black" points="799,-62 799,-81 986,-81 986,-62 799,-62"/>
<text text-anchor="middle" x="892.5" y="-69" font-family="Helvetica,sans-Serif" font-size="10.00">sources/CPU/AddressingModes.cpp</text>
</a>
</g>
</g>
<!-- Node68&#45;&gt;Node69 -->
<g id="edge46" class="edge">
<title>Node68&#45;&gt;Node69</title>
<path fill="none" stroke="midnightblue" d="M957.7,-117.61C941.16,-106.17 918.58,-90.55 904.8,-81.01"/>
<polygon fill="midnightblue" stroke="midnightblue" points="955.96,-120.66 966.18,-123.48 959.95,-114.91 955.96,-120.66"/>
</g>
<!-- Node70 -->
<g id="node39" class="node">
<title>Node70</title>
<g id="a_node39"><a xlink:href="CPU_8cpp.html" target="_top" xlink:title=" ">
<polygon fill="white" stroke="black" points="1004,-62 1004,-81 1125,-81 1125,-62 1004,-62"/>
<text text-anchor="middle" x="1064.5" y="-69" font-family="Helvetica,sans-Serif" font-size="10.00">sources/CPU/CPU.cpp</text>
</a>
</g>
</g>
<!-- Node68&#45;&gt;Node70 -->
<g id="edge47" class="edge">
<title>Node68&#45;&gt;Node70</title>
<path fill="none" stroke="midnightblue" d="M999.3,-117.61C1015.84,-106.17 1038.42,-90.55 1052.2,-81.01"/>
<polygon fill="midnightblue" stroke="midnightblue" points="997.05,-114.91 990.82,-123.48 1001.04,-120.66 997.05,-114.91"/>
</g>
<!-- Node71 -->
<g id="node40" class="node">
<title>Node71</title>
<g id="a_node40"><a xlink:href="BitsInstructions_8cpp.html" target="_top" xlink:title=" ">
<polygon fill="white" stroke="black" points="1143,-56.5 1143,-86.5 1280,-86.5 1280,-56.5 1143,-56.5"/>
<text text-anchor="start" x="1151" y="-74.5" font-family="Helvetica,sans-Serif" font-size="10.00">sources/CPU/Instructions</text>
<text text-anchor="middle" x="1211.5" y="-63.5" font-family="Helvetica,sans-Serif" font-size="10.00">/BitsInstructions.cpp</text>
</a>
</g>
</g>
<!-- Node68&#45;&gt;Node71 -->
<g id="edge48" class="edge">
<title>Node68&#45;&gt;Node71</title>
<path fill="none" stroke="midnightblue" d="M1021.64,-120.98C1059.7,-111.27 1115.36,-97.05 1156.59,-86.52"/>
<polygon fill="midnightblue" stroke="midnightblue" points="1020.71,-117.61 1011.88,-123.48 1022.44,-124.39 1020.71,-117.61"/>
</g>
<!-- Node72 -->
<g id="node41" class="node">
<title>Node72</title>
<g id="a_node41"><a xlink:href="InternalInstruction_8cpp.html" target="_top" xlink:title=" ">
<polygon fill="white" stroke="black" points="0,-56.5 0,-86.5 137,-86.5 137,-56.5 0,-56.5"/>
<text text-anchor="start" x="8" y="-74.5" font-family="Helvetica,sans-Serif" font-size="10.00">sources/CPU/Instructions</text>
<text text-anchor="middle" x="68.5" y="-63.5" font-family="Helvetica,sans-Serif" font-size="10.00">/InternalInstruction.cpp</text>
</a>
</g>
</g>
<!-- Node68&#45;&gt;Node72 -->
<g id="edge49" class="edge">
<title>Node68&#45;&gt;Node72</title>
<path fill="none" stroke="midnightblue" d="M907.33,-131.32C763.1,-129.24 426.16,-120.86 145.5,-87 142.8,-86.67 140.05,-86.31 137.28,-85.92"/>
<polygon fill="midnightblue" stroke="midnightblue" points="907.33,-134.82 917.38,-131.46 907.43,-127.82 907.33,-134.82"/>
</g>
<!-- Node73 -->
<g id="node42" class="node">
<title>Node73</title>
<g id="a_node42"><a xlink:href="Interrupts_8cpp.html" target="_top" xlink:title=" ">
<polygon fill="white" stroke="black" points="155,-56.5 155,-86.5 292,-86.5 292,-56.5 155,-56.5"/>
<text text-anchor="start" x="163" y="-74.5" font-family="Helvetica,sans-Serif" font-size="10.00">sources/CPU/Instructions</text>
<text text-anchor="middle" x="223.5" y="-63.5" font-family="Helvetica,sans-Serif" font-size="10.00">/Interrupts.cpp</text>
</a>
</g>
</g>
<!-- Node68&#45;&gt;Node73 -->
<g id="edge50" class="edge">
<title>Node68&#45;&gt;Node73</title>
<path fill="none" stroke="midnightblue" d="M907.38,-130.08C783.62,-126.12 520.76,-114.95 300.5,-87 297.8,-86.66 295.05,-86.28 292.28,-85.88"/>
<polygon fill="midnightblue" stroke="midnightblue" points="907.38,-133.59 917.49,-130.4 907.6,-126.59 907.38,-133.59"/>
</g>
<!-- Node74 -->
<g id="node43" class="node">
<title>Node74</title>
<g id="a_node43"><a xlink:href="MathematicalOperations_8cpp.html" target="_top" xlink:title=" ">
<polygon fill="white" stroke="black" points="310,-56.5 310,-86.5 471,-86.5 471,-56.5 310,-56.5"/>
<text text-anchor="start" x="318" y="-74.5" font-family="Helvetica,sans-Serif" font-size="10.00">sources/CPU/Instructions</text>
<text text-anchor="middle" x="390.5" y="-63.5" font-family="Helvetica,sans-Serif" font-size="10.00">/MathematicalOperations.cpp</text>
</a>
</g>
</g>
<!-- Node68&#45;&gt;Node74 -->
<g id="edge51" class="edge">
<title>Node68&#45;&gt;Node74</title>
<path fill="none" stroke="midnightblue" d="M907.3,-127.19C810.32,-120.27 631.4,-106.2 479.5,-87 476.86,-86.67 474.18,-86.31 471.47,-85.94"/>
<polygon fill="midnightblue" stroke="midnightblue" points="907.06,-130.68 917.28,-127.9 907.55,-123.7 907.06,-130.68"/>
</g>
<!-- Node75 -->
<g id="node44" class="node">
<title>Node75</title>
<g id="a_node44"><a xlink:href="MemoryInstructions_8cpp.html" target="_top" xlink:title=" ">
<polygon fill="white" stroke="black" points="489,-56.5 489,-86.5 626,-86.5 626,-56.5 489,-56.5"/>
<text text-anchor="start" x="497" y="-74.5" font-family="Helvetica,sans-Serif" font-size="10.00">sources/CPU/Instructions</text>
<text text-anchor="middle" x="557.5" y="-63.5" font-family="Helvetica,sans-Serif" font-size="10.00">/MemoryInstructions.cpp</text>
</a>
</g>
</g>
<!-- Node68&#45;&gt;Node75 -->
<g id="edge52" class="edge">
<title>Node68&#45;&gt;Node75</title>
<path fill="none" stroke="midnightblue" d="M907.47,-123.89C837.79,-115.65 728.61,-102 634.5,-87 631.81,-86.57 629.08,-86.12 626.31,-85.66"/>
<polygon fill="midnightblue" stroke="midnightblue" points="907.11,-127.37 917.45,-125.06 907.93,-120.42 907.11,-127.37"/>
</g>
<!-- Node76 -->
<g id="node45" class="node">
<title>Node76</title>
<g id="a_node45"><a xlink:href="TransferRegisters_8cpp.html" target="_top" xlink:title=" ">
<polygon fill="white" stroke="black" points="644,-56.5 644,-86.5 781,-86.5 781,-56.5 644,-56.5"/>
<text text-anchor="start" x="652" y="-74.5" font-family="Helvetica,sans-Serif" font-size="10.00">sources/CPU/Instructions</text>
<text text-anchor="middle" x="712.5" y="-63.5" font-family="Helvetica,sans-Serif" font-size="10.00">/TransferRegisters.cpp</text>
</a>
</g>
</g>
<!-- Node68&#45;&gt;Node76 -->
<g id="edge53" class="edge">
<title>Node68&#45;&gt;Node76</title>
<path fill="none" stroke="midnightblue" d="M930.63,-121.29C887.16,-111.57 822.76,-97.16 775.19,-86.52"/>
<polygon fill="midnightblue" stroke="midnightblue" points="929.87,-124.71 940.39,-123.48 931.39,-117.88 929.87,-124.71"/>
</g>
<!-- Node78&#45;&gt;Node24 -->
<g id="edge60" class="edge">
<title>Node78&#45;&gt;Node24</title>
<path fill="none" stroke="midnightblue" d="M1360.12,-174.83C1346.92,-167.53 1332.92,-157.05 1325.5,-143 1314.33,-121.87 1332.13,-94.7 1343.03,-81.08"/>
<polygon fill="midnightblue" stroke="midnightblue" points="1358.54,-177.96 1369.04,-179.38 1361.72,-171.72 1358.54,-177.96"/>
</g>
<!-- Node78&#45;&gt;Node68 -->
<g id="edge59" class="edge">
<title>Node78&#45;&gt;Node68</title>
<path fill="none" stroke="midnightblue" d="M1316.12,-178.14C1236.7,-167.76 1113.16,-151.61 1039.6,-141.99"/>
<polygon fill="midnightblue" stroke="midnightblue" points="1315.69,-181.62 1326.06,-179.44 1316.6,-174.68 1315.69,-181.62"/>
</g>
<!-- Node78&#45;&gt;Node87 -->
<g id="edge61" class="edge">
<title>Node78&#45;&gt;Node87</title>
<path fill="none" stroke="midnightblue" d="M1392.57,-168.8C1393.06,-159.91 1393.62,-149.78 1394.01,-142.75"/>
<polygon fill="midnightblue" stroke="midnightblue" points="1389.06,-168.9 1392,-179.08 1396.04,-169.29 1389.06,-168.9"/>
</g>
<!-- Node87&#45;&gt;Node24 -->
<g id="edge62" class="edge">
<title>Node87&#45;&gt;Node24</title>
<path fill="none" stroke="midnightblue" d="M1382.18,-115.34C1373.92,-104.17 1363.39,-89.93 1356.79,-81.01"/>
<polygon fill="midnightblue" stroke="midnightblue" points="1379.44,-117.52 1388.2,-123.48 1385.06,-113.35 1379.44,-117.52"/>
</g>
<!-- Node96&#45;&gt;Node78 -->
<g id="edge64" class="edge">
<title>Node96&#45;&gt;Node78</title>
<path fill="none" stroke="midnightblue" d="M1489.88,-231.5C1465.88,-221.38 1432.72,-207.39 1411.69,-198.52"/>
<polygon fill="midnightblue" stroke="midnightblue" points="1488.64,-234.78 1499.22,-235.44 1491.36,-228.33 1488.64,-234.78"/>
</g>
</g>
</svg>
