<?xml version="1.0" encoding="UTF-8" standalone="no"?>
<!DOCTYPE svg PUBLIC "-//W3C//DTD SVG 1.1//EN"
 "http://www.w3.org/Graphics/SVG/1.1/DTD/svg11.dtd">
<!-- Generated by graphviz version 2.43.0 (0)
 -->
<!-- Title: sources/Memory/AMemory.hpp Pages: 1 -->
<svg width="530pt" height="196pt"
 viewBox="0.00 0.00 529.50 196.00" xmlns="http://www.w3.org/2000/svg" xmlns:xlink="http://www.w3.org/1999/xlink">
<g id="graph0" class="graph" transform="scale(1 1) rotate(0) translate(4 192)">
<title>sources/Memory/AMemory.hpp</title>
<polygon fill="white" stroke="transparent" points="-4,4 -4,-192 525.5,-192 525.5,4 -4,4"/>
<!-- Node1 -->
<g id="node1" class="node">
<title>Node1</title>
<g id="a_node1"><a xlink:title=" ">
<polygon fill="#bfbfbf" stroke="black" points="123.5,-168.5 123.5,-187.5 290.5,-187.5 290.5,-168.5 123.5,-168.5"/>
<text text-anchor="middle" x="207" y="-175.5" font-family="Helvetica,sans-Serif" font-size="10.00">sources/Memory/AMemory.hpp</text>
</a>
</g>
</g>
<!-- Node2 -->
<g id="node2" class="node">
<title>Node2</title>
<g id="a_node2"><a xlink:title=" ">
<polygon fill="white" stroke="#bfbfbf" points="0,-56.5 0,-75.5 50,-75.5 50,-56.5 0,-56.5"/>
<text text-anchor="middle" x="25" y="-63.5" font-family="Helvetica,sans-Serif" font-size="10.00">cstdint</text>
</a>
</g>
</g>
<!-- Node1&#45;&gt;Node2 -->
<g id="edge1" class="edge">
<title>Node1&#45;&gt;Node2</title>
<path fill="none" stroke="midnightblue" d="M191.44,-168.41C175.42,-159.5 149.79,-145.07 128,-132 99.7,-115.02 67.62,-94.58 46.89,-81.21"/>
<polygon fill="midnightblue" stroke="midnightblue" points="48.51,-78.1 38.21,-75.61 44.71,-83.98 48.51,-78.1"/>
</g>
<!-- Node3 -->
<g id="node3" class="node">
<title>Node3</title>
<g id="a_node3"><a xlink:title=" ">
<polygon fill="white" stroke="#bfbfbf" points="68.5,-56.5 68.5,-75.5 115.5,-75.5 115.5,-56.5 68.5,-56.5"/>
<text text-anchor="middle" x="92" y="-63.5" font-family="Helvetica,sans-Serif" font-size="10.00">vector</text>
</a>
</g>
</g>
<!-- Node1&#45;&gt;Node3 -->
<g id="edge2" class="edge">
<title>Node1&#45;&gt;Node3</title>
<path fill="none" stroke="midnightblue" d="M194.71,-168.27C182.82,-159.6 164.5,-145.66 150,-132 133.74,-116.69 116.94,-97.42 105.64,-83.85"/>
<polygon fill="midnightblue" stroke="midnightblue" points="108.11,-81.35 99.06,-75.85 102.71,-85.8 108.11,-81.35"/>
</g>
<!-- Node4 -->
<g id="node4" class="node">
<title>Node4</title>
<g id="a_node4"><a xlink:title=" ">
<polygon fill="white" stroke="#bfbfbf" points="134,-56.5 134,-75.5 192,-75.5 192,-56.5 134,-56.5"/>
<text text-anchor="middle" x="163" y="-63.5" font-family="Helvetica,sans-Serif" font-size="10.00">memory</text>
</a>
</g>
</g>
<!-- Node1&#45;&gt;Node4 -->
<g id="edge3" class="edge">
<title>Node1&#45;&gt;Node4</title>
<path fill="none" stroke="midnightblue" d="M192.34,-168.4C180.59,-160.58 164.97,-147.86 158,-132 151.6,-117.43 153.74,-99.25 156.97,-85.83"/>
<polygon fill="midnightblue" stroke="midnightblue" points="160.43,-86.43 159.77,-75.85 153.7,-84.53 160.43,-86.43"/>
</g>
<!-- Node5 -->
<g id="node5" class="node">
<title>Node5</title>
<g id="a_node5"><a xlink:title=" ">
<polygon fill="white" stroke="#bfbfbf" points="210,-56.5 210,-75.5 254,-75.5 254,-56.5 210,-56.5"/>
<text text-anchor="middle" x="232" y="-63.5" font-family="Helvetica,sans-Serif" font-size="10.00">string</text>
</a>
</g>
</g>
<!-- Node1&#45;&gt;Node5 -->
<g id="edge4" class="edge">
<title>Node1&#45;&gt;Node5</title>
<path fill="none" stroke="midnightblue" d="M221.66,-168.4C233.41,-160.58 249.03,-147.86 256,-132 263.08,-115.89 254.23,-96.98 245.35,-83.72"/>
<polygon fill="midnightblue" stroke="midnightblue" points="248.11,-81.56 239.39,-75.54 242.46,-85.69 248.11,-81.56"/>
</g>
<!-- Node6 -->
<g id="node6" class="node">
<title>Node6</title>
<g id="a_node6"><a xlink:href="Ints_8hpp.html" target="_top" xlink:title=" ">
<polygon fill="white" stroke="black" points="272,-56.5 272,-75.5 366,-75.5 366,-56.5 272,-56.5"/>
<text text-anchor="middle" x="319" y="-63.5" font-family="Helvetica,sans-Serif" font-size="10.00">Models/Ints.hpp</text>
</a>
</g>
</g>
<!-- Node1&#45;&gt;Node6 -->
<g id="edge5" class="edge">
<title>Node1&#45;&gt;Node6</title>
<path fill="none" stroke="midnightblue" d="M222.27,-168.47C236.18,-160.24 256.8,-146.89 272,-132 286.71,-117.59 300.11,-98.14 308.8,-84.28"/>
<polygon fill="midnightblue" stroke="midnightblue" points="311.81,-86.07 314.03,-75.71 305.83,-82.42 311.81,-86.07"/>
</g>
<!-- Node9 -->
<g id="node9" class="node">
<title>Node9</title>
<g id="a_node9"><a xlink:href="Components_8hpp.html" target="_top" xlink:title=" ">
<polygon fill="white" stroke="black" points="384.5,-56.5 384.5,-75.5 521.5,-75.5 521.5,-56.5 384.5,-56.5"/>
<text text-anchor="middle" x="453" y="-63.5" font-family="Helvetica,sans-Serif" font-size="10.00">Models/Components.hpp</text>
</a>
</g>
</g>
<!-- Node1&#45;&gt;Node9 -->
<g id="edge8" class="edge">
<title>Node1&#45;&gt;Node9</title>
<path fill="none" stroke="midnightblue" d="M226.3,-168.37C269.42,-149.09 373.71,-102.45 424.4,-79.79"/>
<polygon fill="midnightblue" stroke="midnightblue" points="426.09,-82.87 433.79,-75.59 423.23,-76.48 426.09,-82.87"/>
</g>
<!-- Node10 -->
<g id="node10" class="node">
<title>Node10</title>
<g id="a_node10"><a xlink:href="IMemory_8hpp.html" target="_top" xlink:title=" ">
<polygon fill="white" stroke="black" points="167,-112.5 167,-131.5 247,-131.5 247,-112.5 167,-112.5"/>
<text text-anchor="middle" x="207" y="-119.5" font-family="Helvetica,sans-Serif" font-size="10.00">IMemory.hpp</text>
</a>
</g>
</g>
<!-- Node1&#45;&gt;Node10 -->
<g id="edge9" class="edge">
<title>Node1&#45;&gt;Node10</title>
<path fill="none" stroke="midnightblue" d="M207,-168.08C207,-161.01 207,-150.86 207,-141.99"/>
<polygon fill="midnightblue" stroke="midnightblue" points="210.5,-141.75 207,-131.75 203.5,-141.75 210.5,-141.75"/>
</g>
<!-- Node7 -->
<g id="node7" class="node">
<title>Node7</title>
<g id="a_node7"><a xlink:title=" ">
<polygon fill="white" stroke="#bfbfbf" points="249,-0.5 249,-19.5 311,-19.5 311,-0.5 249,-0.5"/>
<text text-anchor="middle" x="280" y="-7.5" font-family="Helvetica,sans-Serif" font-size="10.00">cinttypes</text>
</a>
</g>
</g>
<!-- Node6&#45;&gt;Node7 -->
<g id="edge6" class="edge">
<title>Node6&#45;&gt;Node7</title>
<path fill="none" stroke="midnightblue" d="M312.56,-56.08C307.05,-48.46 298.97,-37.26 292.24,-27.94"/>
<polygon fill="midnightblue" stroke="midnightblue" points="295.01,-25.81 286.32,-19.75 289.34,-29.91 295.01,-25.81"/>
</g>
<!-- Node8 -->
<g id="node8" class="node">
<title>Node8</title>
<g id="a_node8"><a xlink:title=" ">
<polygon fill="white" stroke="#bfbfbf" points="329,-0.5 329,-19.5 389,-19.5 389,-0.5 329,-0.5"/>
<text text-anchor="middle" x="359" y="-7.5" font-family="Helvetica,sans-Serif" font-size="10.00">iostream</text>
</a>
</g>
</g>
<!-- Node6&#45;&gt;Node8 -->
<g id="edge7" class="edge">
<title>Node6&#45;&gt;Node8</title>
<path fill="none" stroke="midnightblue" d="M325.61,-56.08C331.26,-48.46 339.54,-37.26 346.45,-27.94"/>
<polygon fill="midnightblue" stroke="midnightblue" points="349.38,-29.87 352.52,-19.75 343.75,-25.7 349.38,-29.87"/>
</g>
<!-- Node10&#45;&gt;Node2 -->
<g id="edge10" class="edge">
<title>Node10&#45;&gt;Node2</title>
<path fill="none" stroke="midnightblue" d="M178.16,-112.44C146.05,-102.92 94.16,-87.52 59.81,-77.33"/>
<polygon fill="midnightblue" stroke="midnightblue" points="60.77,-73.96 50.19,-74.47 58.78,-80.67 60.77,-73.96"/>
</g>
<!-- Node10&#45;&gt;Node3 -->
<g id="edge11" class="edge">
<title>Node10&#45;&gt;Node3</title>
<path fill="none" stroke="midnightblue" d="M188.78,-112.44C170.1,-103.68 140.84,-89.94 119.38,-79.86"/>
<polygon fill="midnightblue" stroke="midnightblue" points="120.68,-76.6 110.14,-75.52 117.7,-82.93 120.68,-76.6"/>
</g>
<!-- Node10&#45;&gt;Node4 -->
<g id="edge12" class="edge">
<title>Node10&#45;&gt;Node4</title>
<path fill="none" stroke="midnightblue" d="M199.73,-112.08C193.46,-104.38 184.21,-93.03 176.57,-83.65"/>
<polygon fill="midnightblue" stroke="midnightblue" points="179.16,-81.29 170.13,-75.75 173.73,-85.71 179.16,-81.29"/>
</g>
<!-- Node10&#45;&gt;Node5 -->
<g id="edge13" class="edge">
<title>Node10&#45;&gt;Node5</title>
<path fill="none" stroke="midnightblue" d="M211.13,-112.08C214.51,-104.77 219.42,-94.18 223.62,-85.1"/>
<polygon fill="midnightblue" stroke="midnightblue" points="226.92,-86.3 227.95,-75.75 220.57,-83.36 226.92,-86.3"/>
</g>
<!-- Node10&#45;&gt;Node6 -->
<g id="edge14" class="edge">
<title>Node10&#45;&gt;Node6</title>
<path fill="none" stroke="midnightblue" d="M224.99,-112.32C243.04,-103.62 271.05,-90.12 291.8,-80.11"/>
<polygon fill="midnightblue" stroke="midnightblue" points="293.56,-83.15 301.05,-75.65 290.52,-76.84 293.56,-83.15"/>
</g>
<!-- Node10&#45;&gt;Node9 -->
<g id="edge15" class="edge">
<title>Node10&#45;&gt;Node9</title>
<path fill="none" stroke="midnightblue" d="M245.98,-112.44C288.89,-103.02 357.95,-87.87 404.37,-77.68"/>
<polygon fill="midnightblue" stroke="midnightblue" points="405.19,-81.08 414.2,-75.52 403.69,-74.24 405.19,-81.08"/>
</g>
</g>
</svg>
