<?xml version="1.0" encoding="UTF-8" standalone="no"?>
<!DOCTYPE svg PUBLIC "-//W3C//DTD SVG 1.1//EN"
 "http://www.w3.org/Graphics/SVG/1.1/DTD/svg11.dtd">
<!-- Generated by graphviz version 2.43.0 (0)
 -->
<!-- Title: sources/APU/APU.cpp Pages: 1 -->
<svg width="1194pt" height="420pt"
 viewBox="0.00 0.00 1194.00 420.00" xmlns="http://www.w3.org/2000/svg" xmlns:xlink="http://www.w3.org/1999/xlink">
<g id="graph0" class="graph" transform="scale(1 1) rotate(0) translate(4 416)">
<title>sources/APU/APU.cpp</title>
<polygon fill="white" stroke="transparent" points="-4,4 -4,-416 1190,-416 1190,4 -4,4"/>
<!-- Node1 -->
<g id="node1" class="node">
<title>Node1</title>
<g id="a_node1"><a xlink:title=" ">
<polygon fill="#bfbfbf" stroke="black" points="870.5,-392.5 870.5,-411.5 991.5,-411.5 991.5,-392.5 870.5,-392.5"/>
<text text-anchor="middle" x="931" y="-399.5" font-family="Helvetica,sans-Serif" font-size="10.00">sources/APU/APU.cpp</text>
</a>
</g>
</g>
<!-- Node2 -->
<g id="node2" class="node">
<title>Node2</title>
<g id="a_node2"><a xlink:href="APU_8hpp.html" target="_top" xlink:title=" ">
<polygon fill="white" stroke="black" points="351,-336.5 351,-355.5 409,-355.5 409,-336.5 351,-336.5"/>
<text text-anchor="middle" x="380" y="-343.5" font-family="Helvetica,sans-Serif" font-size="10.00">APU.hpp</text>
</a>
</g>
</g>
<!-- Node1&#45;&gt;Node2 -->
<g id="edge1" class="edge">
<title>Node1&#45;&gt;Node2</title>
<path fill="none" stroke="midnightblue" d="M870.46,-395.07C756.75,-383.92 514.16,-360.15 419.24,-350.85"/>
<polygon fill="midnightblue" stroke="midnightblue" points="419.49,-347.35 409.2,-349.86 418.81,-354.32 419.49,-347.35"/>
</g>
<!-- Node14 -->
<g id="node14" class="node">
<title>Node14</title>
<g id="a_node14"><a xlink:title=" ">
<polygon fill="white" stroke="#bfbfbf" points="696,-0.5 696,-19.5 756,-19.5 756,-0.5 696,-0.5"/>
<text text-anchor="middle" x="726" y="-7.5" font-family="Helvetica,sans-Serif" font-size="10.00">iostream</text>
</a>
</g>
</g>
<!-- Node1&#45;&gt;Node14 -->
<g id="edge59" class="edge">
<title>Node1&#45;&gt;Node14</title>
<path fill="none" stroke="midnightblue" d="M927.13,-392.43C915.43,-366.67 879.24,-287.79 846,-224 807.63,-150.37 757.84,-64.9 736.48,-28.68"/>
<polygon fill="midnightblue" stroke="midnightblue" points="739.34,-26.64 731.24,-19.81 733.32,-30.2 739.34,-26.64"/>
</g>
<!-- Node23 -->
<g id="node23" class="node">
<title>Node23</title>
<g id="a_node23"><a xlink:href="InvalidAddress_8hpp.html" target="_top" xlink:title=" ">
<polygon fill="white" stroke="black" points="838,-112.5 838,-131.5 1004,-131.5 1004,-112.5 838,-112.5"/>
<text text-anchor="middle" x="921" y="-119.5" font-family="Helvetica,sans-Serif" font-size="10.00">Exceptions/InvalidAddress.hpp</text>
</a>
</g>
</g>
<!-- Node1&#45;&gt;Node23 -->
<g id="edge45" class="edge">
<title>Node1&#45;&gt;Node23</title>
<path fill="none" stroke="midnightblue" d="M928.44,-392.25C923.25,-373.74 912,-329.18 912,-291 912,-291 912,-291 912,-233 912,-200.84 915.87,-163.57 918.53,-141.71"/>
<polygon fill="midnightblue" stroke="midnightblue" points="922.04,-141.9 919.82,-131.54 915.09,-141.02 922.04,-141.9"/>
</g>
<!-- Node29 -->
<g id="node29" class="node">
<title>Node29</title>
<g id="a_node29"><a xlink:href="InvalidOpcode_8hpp.html" target="_top" xlink:title=" ">
<polygon fill="white" stroke="black" points="1022,-112.5 1022,-131.5 1186,-131.5 1186,-112.5 1022,-112.5"/>
<text text-anchor="middle" x="1104" y="-119.5" font-family="Helvetica,sans-Serif" font-size="10.00">Exceptions/InvalidOpcode.hpp</text>
</a>
</g>
</g>
<!-- Node1&#45;&gt;Node29 -->
<g id="edge53" class="edge">
<title>Node1&#45;&gt;Node29</title>
<path fill="none" stroke="midnightblue" d="M933.56,-392.25C938.75,-373.74 950,-329.18 950,-291 950,-291 950,-291 950,-233 950,-179.13 1013.18,-149.14 1058.6,-134.54"/>
<polygon fill="midnightblue" stroke="midnightblue" points="1059.75,-137.85 1068.28,-131.57 1057.7,-131.16 1059.75,-137.85"/>
</g>
<!-- Node30 -->
<g id="node30" class="node">
<title>Node30</title>
<g id="a_node30"><a xlink:title=" ">
<polygon fill="white" stroke="#bfbfbf" points="978,-336.5 978,-355.5 1028,-355.5 1028,-336.5 978,-336.5"/>
<text text-anchor="middle" x="1003" y="-343.5" font-family="Helvetica,sans-Serif" font-size="10.00">cstring</text>
</a>
</g>
</g>
<!-- Node1&#45;&gt;Node30 -->
<g id="edge58" class="edge">
<title>Node1&#45;&gt;Node30</title>
<path fill="none" stroke="midnightblue" d="M942.57,-392.32C953.42,-384.18 969.88,-371.84 982.88,-362.09"/>
<polygon fill="midnightblue" stroke="midnightblue" points="985.32,-364.63 991.22,-355.83 981.12,-359.03 985.32,-364.63"/>
</g>
<!-- Node31 -->
<g id="node31" class="node">
<title>Node31</title>
<g id="a_node31"><a xlink:title=" ">
<polygon fill="white" stroke="#bfbfbf" points="1046,-336.5 1046,-355.5 1110,-355.5 1110,-336.5 1046,-336.5"/>
<text text-anchor="middle" x="1078" y="-343.5" font-family="Helvetica,sans-Serif" font-size="10.00">algorithm</text>
</a>
</g>
</g>
<!-- Node1&#45;&gt;Node31 -->
<g id="edge60" class="edge">
<title>Node1&#45;&gt;Node31</title>
<path fill="none" stroke="midnightblue" d="M954.29,-392.44C978.81,-383.44 1017.6,-369.19 1045.2,-359.05"/>
<polygon fill="midnightblue" stroke="midnightblue" points="1046.64,-362.25 1054.82,-355.52 1044.22,-355.68 1046.64,-362.25"/>
</g>
<!-- Node3 -->
<g id="node3" class="node">
<title>Node3</title>
<g id="a_node3"><a xlink:title=" ">
<polygon fill="white" stroke="#bfbfbf" points="9,-56.5 9,-75.5 67,-75.5 67,-56.5 9,-56.5"/>
<text text-anchor="middle" x="38" y="-63.5" font-family="Helvetica,sans-Serif" font-size="10.00">memory</text>
</a>
</g>
</g>
<!-- Node2&#45;&gt;Node3 -->
<g id="edge2" class="edge">
<title>Node2&#45;&gt;Node3</title>
<path fill="none" stroke="midnightblue" d="M350.81,-342.87C261.83,-335.59 0,-307.97 0,-235 0,-235 0,-235 0,-177 0,-142.81 16.6,-105.76 27.86,-84.57"/>
<polygon fill="midnightblue" stroke="midnightblue" points="30.95,-86.22 32.72,-75.77 24.82,-82.83 30.95,-86.22"/>
</g>
<!-- Node4 -->
<g id="node4" class="node">
<title>Node4</title>
<g id="a_node4"><a xlink:href="DSP_8hpp.html" target="_top" xlink:title=" ">
<polygon fill="white" stroke="black" points="243,-280.5 243,-299.5 321,-299.5 321,-280.5 243,-280.5"/>
<text text-anchor="middle" x="282" y="-287.5" font-family="Helvetica,sans-Serif" font-size="10.00">DSP/DSP.hpp</text>
</a>
</g>
</g>
<!-- Node2&#45;&gt;Node4 -->
<g id="edge3" class="edge">
<title>Node2&#45;&gt;Node4</title>
<path fill="none" stroke="midnightblue" d="M364.25,-336.32C348.68,-327.74 324.62,-314.49 306.54,-304.52"/>
<polygon fill="midnightblue" stroke="midnightblue" points="308.15,-301.42 297.71,-299.65 304.78,-307.55 308.15,-301.42"/>
</g>
<!-- Node7 -->
<g id="node7" class="node">
<title>Node7</title>
<g id="a_node7"><a xlink:href="IRenderer_8hpp.html" target="_top" xlink:title=" ">
<polygon fill="white" stroke="black" points="705.5,-224.5 705.5,-243.5 836.5,-243.5 836.5,-224.5 705.5,-224.5"/>
<text text-anchor="middle" x="771" y="-231.5" font-family="Helvetica,sans-Serif" font-size="10.00">Renderer/IRenderer.hpp</text>
</a>
</g>
</g>
<!-- Node2&#45;&gt;Node7 -->
<g id="edge35" class="edge">
<title>Node2&#45;&gt;Node7</title>
<path fill="none" stroke="midnightblue" d="M409.29,-337.65C443.59,-328.96 502.05,-313.94 552,-300 615.97,-282.14 689.96,-259.84 733.48,-246.54"/>
<polygon fill="midnightblue" stroke="midnightblue" points="734.54,-249.88 743.08,-243.6 732.5,-243.18 734.54,-249.88"/>
</g>
<!-- Node10 -->
<g id="node10" class="node">
<title>Node10</title>
<g id="a_node10"><a xlink:href="AMemory_8hpp.html" target="_top" xlink:title=" ">
<polygon fill="white" stroke="black" points="78.5,-168.5 78.5,-187.5 205.5,-187.5 205.5,-168.5 78.5,-168.5"/>
<text text-anchor="middle" x="142" y="-175.5" font-family="Helvetica,sans-Serif" font-size="10.00">Memory/AMemory.hpp</text>
</a>
</g>
</g>
<!-- Node2&#45;&gt;Node10 -->
<g id="edge25" class="edge">
<title>Node2&#45;&gt;Node10</title>
<path fill="none" stroke="midnightblue" d="M350.94,-343.91C293.62,-341.1 169.24,-331.42 143,-300 118.85,-271.07 128.05,-223.28 135.72,-197.26"/>
<polygon fill="midnightblue" stroke="midnightblue" points="139.11,-198.15 138.82,-187.56 132.44,-196.02 139.11,-198.15"/>
</g>
<!-- Node17 -->
<g id="node17" class="node">
<title>Node17</title>
<g id="a_node17"><a xlink:href="Ram_8hpp.html" target="_top" xlink:title=" ">
<polygon fill="white" stroke="black" points="601,-224.5 601,-243.5 687,-243.5 687,-224.5 601,-224.5"/>
<text text-anchor="middle" x="644" y="-231.5" font-family="Helvetica,sans-Serif" font-size="10.00">Ram/Ram.hpp</text>
</a>
</g>
</g>
<!-- Node2&#45;&gt;Node17 -->
<g id="edge26" class="edge">
<title>Node2&#45;&gt;Node17</title>
<path fill="none" stroke="midnightblue" d="M409.08,-336.88C437.14,-328.72 480.61,-315.18 517,-300 554.09,-284.53 595.19,-262.55 620.31,-248.54"/>
<polygon fill="midnightblue" stroke="midnightblue" points="622.11,-251.54 629.11,-243.58 618.68,-245.44 622.11,-251.54"/>
</g>
<!-- Node19 -->
<g id="node19" class="node">
<title>Node19</title>
<g id="a_node19"><a xlink:href="IPL_8hpp.html" target="_top" xlink:title=" ">
<polygon fill="white" stroke="black" points="151.5,-280.5 151.5,-299.5 220.5,-299.5 220.5,-280.5 151.5,-280.5"/>
<text text-anchor="middle" x="186" y="-287.5" font-family="Helvetica,sans-Serif" font-size="10.00">IPL/IPL.hpp</text>
</a>
</g>
</g>
<!-- Node2&#45;&gt;Node19 -->
<g id="edge33" class="edge">
<title>Node2&#45;&gt;Node19</title>
<path fill="none" stroke="midnightblue" d="M350.96,-336.92C318.01,-327.74 264.04,-312.72 226.86,-302.37"/>
<polygon fill="midnightblue" stroke="midnightblue" points="227.42,-298.9 216.85,-299.59 225.54,-305.64 227.42,-298.9"/>
</g>
<!-- Node20 -->
<g id="node20" class="node">
<title>Node20</title>
<g id="a_node20"><a xlink:href="Cartridge_8hpp.html" target="_top" xlink:title=" ">
<polygon fill="white" stroke="black" points="376.5,-280.5 376.5,-299.5 507.5,-299.5 507.5,-280.5 376.5,-280.5"/>
<text text-anchor="middle" x="442" y="-287.5" font-family="Helvetica,sans-Serif" font-size="10.00">Cartridge/Cartridge.hpp</text>
</a>
</g>
</g>
<!-- Node2&#45;&gt;Node20 -->
<g id="edge36" class="edge">
<title>Node2&#45;&gt;Node20</title>
<path fill="none" stroke="midnightblue" d="M389.96,-336.32C399.13,-328.34 412.94,-316.31 424.03,-306.65"/>
<polygon fill="midnightblue" stroke="midnightblue" points="426.62,-309.04 431.86,-299.83 422.02,-303.76 426.62,-309.04"/>
</g>
<!-- Node5 -->
<g id="node5" class="node">
<title>Node5</title>
<g id="a_node5"><a xlink:title=" ">
<polygon fill="white" stroke="#bfbfbf" points="87,-56.5 87,-75.5 137,-75.5 137,-56.5 87,-56.5"/>
<text text-anchor="middle" x="112" y="-63.5" font-family="Helvetica,sans-Serif" font-size="10.00">cstdint</text>
</a>
</g>
</g>
<!-- Node4&#45;&gt;Node5 -->
<g id="edge4" class="edge">
<title>Node4&#45;&gt;Node5</title>
<path fill="none" stroke="midnightblue" d="M255.52,-280.41C203.33,-262.88 90.39,-221.81 69,-188 47.56,-154.1 77.49,-108.09 97.18,-83.73"/>
<polygon fill="midnightblue" stroke="midnightblue" points="100.09,-85.7 103.85,-75.8 94.74,-81.2 100.09,-85.7"/>
</g>
<!-- Node6 -->
<g id="node6" class="node">
<title>Node6</title>
<g id="a_node6"><a xlink:title=" ">
<polygon fill="white" stroke="#bfbfbf" points="261,-224.5 261,-243.5 303,-243.5 303,-224.5 261,-224.5"/>
<text text-anchor="middle" x="282" y="-231.5" font-family="Helvetica,sans-Serif" font-size="10.00">array</text>
</a>
</g>
</g>
<!-- Node4&#45;&gt;Node6 -->
<g id="edge5" class="edge">
<title>Node4&#45;&gt;Node6</title>
<path fill="none" stroke="midnightblue" d="M282,-280.08C282,-273.01 282,-262.86 282,-253.99"/>
<polygon fill="midnightblue" stroke="midnightblue" points="285.5,-253.75 282,-243.75 278.5,-253.75 285.5,-253.75"/>
</g>
<!-- Node4&#45;&gt;Node7 -->
<g id="edge6" class="edge">
<title>Node4&#45;&gt;Node7</title>
<path fill="none" stroke="midnightblue" d="M321.12,-284.9C392.87,-277.33 550.64,-260.56 694.8,-244.13"/>
<polygon fill="midnightblue" stroke="midnightblue" points="695.62,-247.56 705.15,-242.94 694.82,-240.6 695.62,-247.56"/>
</g>
<!-- Node4&#45;&gt;Node10 -->
<g id="edge9" class="edge">
<title>Node4&#45;&gt;Node10</title>
<path fill="none" stroke="midnightblue" d="M271.01,-280.37C247.19,-261.65 190.56,-217.15 160.88,-193.83"/>
<polygon fill="midnightblue" stroke="midnightblue" points="162.96,-191.02 152.93,-187.59 158.64,-196.52 162.96,-191.02"/>
</g>
<!-- Node8 -->
<g id="node8" class="node">
<title>Node8</title>
<g id="a_node8"><a xlink:title=" ">
<polygon fill="white" stroke="#bfbfbf" points="654,-56.5 654,-75.5 698,-75.5 698,-56.5 654,-56.5"/>
<text text-anchor="middle" x="676" y="-63.5" font-family="Helvetica,sans-Serif" font-size="10.00">string</text>
</a>
</g>
</g>
<!-- Node7&#45;&gt;Node8 -->
<g id="edge7" class="edge">
<title>Node7&#45;&gt;Node8</title>
<path fill="none" stroke="midnightblue" d="M769.66,-224.21C767.46,-211.34 762.37,-186.88 753,-168 736.6,-134.97 708.77,-101.99 691.43,-83.09"/>
<polygon fill="midnightblue" stroke="midnightblue" points="693.89,-80.59 684.5,-75.67 688.77,-85.37 693.89,-80.59"/>
</g>
<!-- Node9 -->
<g id="node9" class="node">
<title>Node9</title>
<g id="a_node9"><a xlink:title=" ">
<polygon fill="white" stroke="#bfbfbf" points="704,-168.5 704,-187.5 744,-187.5 744,-168.5 704,-168.5"/>
<text text-anchor="middle" x="724" y="-175.5" font-family="Helvetica,sans-Serif" font-size="10.00">span</text>
</a>
</g>
</g>
<!-- Node7&#45;&gt;Node9 -->
<g id="edge8" class="edge">
<title>Node7&#45;&gt;Node9</title>
<path fill="none" stroke="midnightblue" d="M763.24,-224.08C756.46,-216.3 746.46,-204.8 738.24,-195.37"/>
<polygon fill="midnightblue" stroke="midnightblue" points="740.82,-193 731.62,-187.75 735.54,-197.59 740.82,-193"/>
</g>
<!-- Node10&#45;&gt;Node3 -->
<g id="edge12" class="edge">
<title>Node10&#45;&gt;Node3</title>
<path fill="none" stroke="midnightblue" d="M133.84,-168.37C116.45,-149.97 75.51,-106.67 53.18,-83.05"/>
<polygon fill="midnightblue" stroke="midnightblue" points="55.54,-80.45 46.12,-75.59 50.45,-85.26 55.54,-80.45"/>
</g>
<!-- Node10&#45;&gt;Node5 -->
<g id="edge10" class="edge">
<title>Node10&#45;&gt;Node5</title>
<path fill="none" stroke="midnightblue" d="M139.65,-168.37C134.78,-150.54 123.54,-109.3 116.98,-85.27"/>
<polygon fill="midnightblue" stroke="midnightblue" points="120.35,-84.32 114.34,-75.59 113.6,-86.16 120.35,-84.32"/>
</g>
<!-- Node10&#45;&gt;Node8 -->
<g id="edge13" class="edge">
<title>Node10&#45;&gt;Node8</title>
<path fill="none" stroke="midnightblue" d="M184.96,-168.48C230.07,-159.51 303.05,-144.92 366,-132 467.46,-111.17 587.44,-85.8 643.76,-73.85"/>
<polygon fill="midnightblue" stroke="midnightblue" points="644.78,-77.21 653.84,-71.71 643.33,-70.37 644.78,-77.21"/>
</g>
<!-- Node11 -->
<g id="node11" class="node">
<title>Node11</title>
<g id="a_node11"><a xlink:title=" ">
<polygon fill="white" stroke="#bfbfbf" points="310.5,-56.5 310.5,-75.5 357.5,-75.5 357.5,-56.5 310.5,-56.5"/>
<text text-anchor="middle" x="334" y="-63.5" font-family="Helvetica,sans-Serif" font-size="10.00">vector</text>
</a>
</g>
</g>
<!-- Node10&#45;&gt;Node11 -->
<g id="edge11" class="edge">
<title>Node10&#45;&gt;Node11</title>
<path fill="none" stroke="midnightblue" d="M186.28,-168.48C213.99,-161.7 249.53,-150.25 277,-132 295.87,-119.47 312.3,-99.12 322.61,-84.52"/>
<polygon fill="midnightblue" stroke="midnightblue" points="325.74,-86.15 328.47,-75.91 319.95,-82.21 325.74,-86.15"/>
</g>
<!-- Node12 -->
<g id="node12" class="node">
<title>Node12</title>
<g id="a_node12"><a xlink:href="Ints_8hpp.html" target="_top" xlink:title=" ">
<polygon fill="white" stroke="black" points="515,-56.5 515,-75.5 609,-75.5 609,-56.5 515,-56.5"/>
<text text-anchor="middle" x="562" y="-63.5" font-family="Helvetica,sans-Serif" font-size="10.00">Models/Ints.hpp</text>
</a>
</g>
</g>
<!-- Node10&#45;&gt;Node12 -->
<g id="edge14" class="edge">
<title>Node10&#45;&gt;Node12</title>
<path fill="none" stroke="midnightblue" d="M174.61,-168.46C249.89,-148.74 435.79,-100.05 519.7,-78.08"/>
<polygon fill="midnightblue" stroke="midnightblue" points="520.63,-81.45 529.41,-75.53 518.85,-74.68 520.63,-81.45"/>
</g>
<!-- Node15 -->
<g id="node15" class="node">
<title>Node15</title>
<g id="a_node15"><a xlink:href="Components_8hpp.html" target="_top" xlink:title=" ">
<polygon fill="white" stroke="black" points="155.5,-56.5 155.5,-75.5 292.5,-75.5 292.5,-56.5 155.5,-56.5"/>
<text text-anchor="middle" x="224" y="-63.5" font-family="Helvetica,sans-Serif" font-size="10.00">Models/Components.hpp</text>
</a>
</g>
</g>
<!-- Node10&#45;&gt;Node15 -->
<g id="edge17" class="edge">
<title>Node10&#45;&gt;Node15</title>
<path fill="none" stroke="midnightblue" d="M146.1,-168.13C152.29,-155.17 164.83,-130.59 179,-112 187.1,-101.37 197.6,-90.74 206.41,-82.48"/>
<polygon fill="midnightblue" stroke="midnightblue" points="208.89,-84.96 213.92,-75.63 204.17,-79.79 208.89,-84.96"/>
</g>
<!-- Node16 -->
<g id="node16" class="node">
<title>Node16</title>
<g id="a_node16"><a xlink:href="IMemory_8hpp.html" target="_top" xlink:title=" ">
<polygon fill="white" stroke="black" points="188,-112.5 188,-131.5 268,-131.5 268,-112.5 188,-112.5"/>
<text text-anchor="middle" x="228" y="-119.5" font-family="Helvetica,sans-Serif" font-size="10.00">IMemory.hpp</text>
</a>
</g>
</g>
<!-- Node10&#45;&gt;Node16 -->
<g id="edge18" class="edge">
<title>Node10&#45;&gt;Node16</title>
<path fill="none" stroke="midnightblue" d="M155.82,-168.32C169.23,-159.9 189.82,-146.97 205.59,-137.07"/>
<polygon fill="midnightblue" stroke="midnightblue" points="207.61,-139.94 214.22,-131.65 203.89,-134.01 207.61,-139.94"/>
</g>
<!-- Node13 -->
<g id="node13" class="node">
<title>Node13</title>
<g id="a_node13"><a xlink:title=" ">
<polygon fill="white" stroke="#bfbfbf" points="492,-0.5 492,-19.5 554,-19.5 554,-0.5 492,-0.5"/>
<text text-anchor="middle" x="523" y="-7.5" font-family="Helvetica,sans-Serif" font-size="10.00">cinttypes</text>
</a>
</g>
</g>
<!-- Node12&#45;&gt;Node13 -->
<g id="edge15" class="edge">
<title>Node12&#45;&gt;Node13</title>
<path fill="none" stroke="midnightblue" d="M555.56,-56.08C550.05,-48.46 541.97,-37.26 535.24,-27.94"/>
<polygon fill="midnightblue" stroke="midnightblue" points="538.01,-25.81 529.32,-19.75 532.34,-29.91 538.01,-25.81"/>
</g>
<!-- Node12&#45;&gt;Node14 -->
<g id="edge16" class="edge">
<title>Node12&#45;&gt;Node14</title>
<path fill="none" stroke="midnightblue" d="M587.99,-56.44C615.7,-47.32 659.75,-32.81 690.62,-22.65"/>
<polygon fill="midnightblue" stroke="midnightblue" points="691.73,-25.97 700.14,-19.52 689.54,-19.32 691.73,-25.97"/>
</g>
<!-- Node16&#45;&gt;Node3 -->
<g id="edge21" class="edge">
<title>Node16&#45;&gt;Node3</title>
<path fill="none" stroke="midnightblue" d="M197.89,-112.44C165.09,-103.12 112.5,-88.17 76.66,-77.99"/>
<polygon fill="midnightblue" stroke="midnightblue" points="77.61,-74.62 67.03,-75.25 75.69,-81.35 77.61,-74.62"/>
</g>
<!-- Node16&#45;&gt;Node5 -->
<g id="edge19" class="edge">
<title>Node16&#45;&gt;Node5</title>
<path fill="none" stroke="midnightblue" d="M209.62,-112.44C190.78,-103.68 161.27,-89.94 139.62,-79.86"/>
<polygon fill="midnightblue" stroke="midnightblue" points="140.84,-76.56 130.29,-75.52 137.88,-82.91 140.84,-76.56"/>
</g>
<!-- Node16&#45;&gt;Node8 -->
<g id="edge22" class="edge">
<title>Node16&#45;&gt;Node8</title>
<path fill="none" stroke="midnightblue" d="M268.21,-116.88C339.01,-109.52 490.51,-93.24 618,-76 626.47,-74.85 635.62,-73.49 644.09,-72.18"/>
<polygon fill="midnightblue" stroke="midnightblue" points="644.66,-75.63 654,-70.62 643.57,-68.72 644.66,-75.63"/>
</g>
<!-- Node16&#45;&gt;Node11 -->
<g id="edge20" class="edge">
<title>Node16&#45;&gt;Node11</title>
<path fill="none" stroke="midnightblue" d="M245.03,-112.32C262.03,-103.66 288.38,-90.24 307.99,-80.25"/>
<polygon fill="midnightblue" stroke="midnightblue" points="309.69,-83.31 317.01,-75.65 306.51,-77.08 309.69,-83.31"/>
</g>
<!-- Node16&#45;&gt;Node12 -->
<g id="edge23" class="edge">
<title>Node16&#45;&gt;Node12</title>
<path fill="none" stroke="midnightblue" d="M268.29,-114.49C327.29,-104.95 437.47,-87.13 504.83,-76.24"/>
<polygon fill="midnightblue" stroke="midnightblue" points="505.54,-79.67 514.85,-74.62 504.42,-72.76 505.54,-79.67"/>
</g>
<!-- Node16&#45;&gt;Node15 -->
<g id="edge24" class="edge">
<title>Node16&#45;&gt;Node15</title>
<path fill="none" stroke="midnightblue" d="M227.34,-112.08C226.82,-105.01 226.06,-94.86 225.41,-85.99"/>
<polygon fill="midnightblue" stroke="midnightblue" points="228.88,-85.47 224.65,-75.75 221.9,-85.98 228.88,-85.47"/>
</g>
<!-- Node17&#45;&gt;Node8 -->
<g id="edge30" class="edge">
<title>Node17&#45;&gt;Node8</title>
<path fill="none" stroke="midnightblue" d="M645.72,-224.08C650.76,-197.95 665.55,-121.21 672.42,-85.58"/>
<polygon fill="midnightblue" stroke="midnightblue" points="675.89,-86.05 674.35,-75.57 669.02,-84.72 675.89,-86.05"/>
</g>
<!-- Node17&#45;&gt;Node9 -->
<g id="edge31" class="edge">
<title>Node17&#45;&gt;Node9</title>
<path fill="none" stroke="midnightblue" d="M656.85,-224.32C669.22,-215.98 688.13,-203.21 702.74,-193.35"/>
<polygon fill="midnightblue" stroke="midnightblue" points="704.85,-196.15 711.18,-187.65 700.93,-190.35 704.85,-196.15"/>
</g>
<!-- Node17&#45;&gt;Node11 -->
<g id="edge32" class="edge">
<title>Node17&#45;&gt;Node11</title>
<path fill="none" stroke="midnightblue" d="M631.86,-224.5C613.19,-211.58 576.1,-186.56 543,-168 480.49,-132.95 403.97,-97.86 363.07,-79.69"/>
<polygon fill="midnightblue" stroke="midnightblue" points="364.27,-76.4 353.71,-75.56 361.44,-82.8 364.27,-76.4"/>
</g>
<!-- Node18 -->
<g id="node18" class="node">
<title>Node18</title>
<g id="a_node18"><a xlink:href="ARectangleMemory_8hpp.html" target="_top" xlink:title=" ">
<polygon fill="white" stroke="black" points="358,-168.5 358,-187.5 534,-187.5 534,-168.5 358,-168.5"/>
<text text-anchor="middle" x="446" y="-175.5" font-family="Helvetica,sans-Serif" font-size="10.00">Memory/ARectangleMemory.hpp</text>
</a>
</g>
</g>
<!-- Node17&#45;&gt;Node18 -->
<g id="edge27" class="edge">
<title>Node17&#45;&gt;Node18</title>
<path fill="none" stroke="midnightblue" d="M612.63,-224.44C578.74,-215.2 524.6,-200.44 487.28,-190.26"/>
<polygon fill="midnightblue" stroke="midnightblue" points="487.8,-186.77 477.23,-187.52 485.95,-193.52 487.8,-186.77"/>
</g>
<!-- Node18&#45;&gt;Node12 -->
<g id="edge29" class="edge">
<title>Node18&#45;&gt;Node12</title>
<path fill="none" stroke="midnightblue" d="M456.57,-168.27C467.24,-159.38 484.07,-145.07 498,-132 515.22,-115.85 534.09,-96.47 546.84,-83.1"/>
<polygon fill="midnightblue" stroke="midnightblue" points="549.58,-85.29 553.93,-75.63 544.5,-80.48 549.58,-85.29"/>
</g>
<!-- Node18&#45;&gt;Node16 -->
<g id="edge28" class="edge">
<title>Node18&#45;&gt;Node16</title>
<path fill="none" stroke="midnightblue" d="M411.46,-168.44C373.75,-159.1 313.26,-144.12 272.14,-133.93"/>
<polygon fill="midnightblue" stroke="midnightblue" points="272.93,-130.52 262.38,-131.52 271.25,-137.32 272.93,-130.52"/>
</g>
<!-- Node19&#45;&gt;Node10 -->
<g id="edge34" class="edge">
<title>Node19&#45;&gt;Node10</title>
<path fill="none" stroke="midnightblue" d="M182.55,-280.37C175.38,-262.46 158.77,-220.92 149.18,-196.95"/>
<polygon fill="midnightblue" stroke="midnightblue" points="152.4,-195.58 145.44,-187.59 145.9,-198.18 152.4,-195.58"/>
</g>
<!-- Node20&#45;&gt;Node8 -->
<g id="edge44" class="edge">
<title>Node20&#45;&gt;Node8</title>
<path fill="none" stroke="midnightblue" d="M468.01,-280.42C488.21,-272.92 516.18,-260.62 537,-244 596.47,-196.52 645.91,-118.83 666.16,-84.38"/>
<polygon fill="midnightblue" stroke="midnightblue" points="669.31,-85.93 671.28,-75.52 663.25,-82.42 669.31,-85.93"/>
</g>
<!-- Node20&#45;&gt;Node10 -->
<g id="edge39" class="edge">
<title>Node20&#45;&gt;Node10</title>
<path fill="none" stroke="midnightblue" d="M422.86,-280.46C403.53,-271.71 372.89,-257.5 347,-244 331.11,-235.71 328.58,-230.79 312,-224 274.88,-208.79 231.07,-197.33 197.23,-189.79"/>
<polygon fill="midnightblue" stroke="midnightblue" points="197.58,-186.29 187.06,-187.58 196.09,-193.12 197.58,-186.29"/>
</g>
<!-- Node20&#45;&gt;Node12 -->
<g id="edge41" class="edge">
<title>Node20&#45;&gt;Node12</title>
<path fill="none" stroke="midnightblue" d="M462.74,-280.38C478.95,-272.78 501.15,-260.37 516,-244 557.02,-198.79 562.37,-121.65 562.49,-86.04"/>
<polygon fill="midnightblue" stroke="midnightblue" points="565.99,-85.63 562.38,-75.67 558.99,-85.7 565.99,-85.63"/>
</g>
<!-- Node20&#45;&gt;Node17 -->
<g id="edge42" class="edge">
<title>Node20&#45;&gt;Node17</title>
<path fill="none" stroke="midnightblue" d="M474.01,-280.44C508.73,-271.16 564.29,-256.31 602.38,-246.13"/>
<polygon fill="midnightblue" stroke="midnightblue" points="603.39,-249.48 612.14,-243.52 601.58,-242.72 603.39,-249.48"/>
</g>
<!-- Node20&#45;&gt;Node18 -->
<g id="edge40" class="edge">
<title>Node20&#45;&gt;Node18</title>
<path fill="none" stroke="midnightblue" d="M438.37,-280.18C433.69,-267.69 426.53,-244.13 430,-224 431.57,-214.91 434.79,-205.22 437.94,-197.17"/>
<polygon fill="midnightblue" stroke="midnightblue" points="441.26,-198.3 441.89,-187.72 434.81,-195.6 441.26,-198.3"/>
</g>
<!-- Node21 -->
<g id="node21" class="node">
<title>Node21</title>
<g id="a_node21"><a xlink:href="InterruptVectors_8hpp.html" target="_top" xlink:title=" ">
<polygon fill="white" stroke="black" points="224,-168.5 224,-187.5 340,-187.5 340,-168.5 224,-168.5"/>
<text text-anchor="middle" x="282" y="-175.5" font-family="Helvetica,sans-Serif" font-size="10.00">InterruptVectors.hpp</text>
</a>
</g>
</g>
<!-- Node20&#45;&gt;Node21 -->
<g id="edge37" class="edge">
<title>Node20&#45;&gt;Node21</title>
<path fill="none" stroke="midnightblue" d="M429.45,-280.37C402.11,-261.57 336.94,-216.77 303.14,-193.53"/>
<polygon fill="midnightblue" stroke="midnightblue" points="304.72,-190.37 294.5,-187.59 300.75,-196.14 304.72,-190.37"/>
</g>
<!-- Node22 -->
<g id="node22" class="node">
<title>Node22</title>
<g id="a_node22"><a xlink:title=" ">
<polygon fill="white" stroke="#bfbfbf" points="439,-224.5 439,-243.5 507,-243.5 507,-224.5 439,-224.5"/>
<text text-anchor="middle" x="473" y="-231.5" font-family="Helvetica,sans-Serif" font-size="10.00">filesystem</text>
</a>
</g>
</g>
<!-- Node20&#45;&gt;Node22 -->
<g id="edge43" class="edge">
<title>Node20&#45;&gt;Node22</title>
<path fill="none" stroke="midnightblue" d="M447.12,-280.08C451.41,-272.61 457.66,-261.72 462.94,-252.52"/>
<polygon fill="midnightblue" stroke="midnightblue" points="466.03,-254.17 467.98,-243.75 459.96,-250.68 466.03,-254.17"/>
</g>
<!-- Node21&#45;&gt;Node13 -->
<g id="edge38" class="edge">
<title>Node21&#45;&gt;Node13</title>
<path fill="none" stroke="midnightblue" d="M294.62,-168.31C333.74,-141.36 453.3,-59.01 502.01,-25.46"/>
<polygon fill="midnightblue" stroke="midnightblue" points="504.26,-28.16 510.51,-19.61 500.29,-22.4 504.26,-28.16"/>
</g>
<!-- Node23&#45;&gt;Node8 -->
<g id="edge52" class="edge">
<title>Node23&#45;&gt;Node8</title>
<path fill="none" stroke="midnightblue" d="M882.18,-112.44C834.09,-101.84 753.04,-83.98 708.22,-74.1"/>
<polygon fill="midnightblue" stroke="midnightblue" points="708.69,-70.62 698.18,-71.89 707.19,-77.46 708.69,-70.62"/>
</g>
<!-- Node23&#45;&gt;Node12 -->
<g id="edge48" class="edge">
<title>Node23&#45;&gt;Node12</title>
<path fill="none" stroke="midnightblue" d="M864.12,-112.44C797.07,-102.36 686.32,-85.7 619.16,-75.6"/>
<polygon fill="midnightblue" stroke="midnightblue" points="619.58,-72.12 609.17,-74.1 618.54,-79.04 619.58,-72.12"/>
</g>
<!-- Node24 -->
<g id="node24" class="node">
<title>Node24</title>
<g id="a_node24"><a xlink:href="DebuggableError_8hpp.html" target="_top" xlink:title=" ">
<polygon fill="white" stroke="black" points="967.5,-56.5 967.5,-75.5 1086.5,-75.5 1086.5,-56.5 967.5,-56.5"/>
<text text-anchor="middle" x="1027" y="-63.5" font-family="Helvetica,sans-Serif" font-size="10.00">DebuggableError.hpp</text>
</a>
</g>
</g>
<!-- Node23&#45;&gt;Node24 -->
<g id="edge46" class="edge">
<title>Node23&#45;&gt;Node24</title>
<path fill="none" stroke="midnightblue" d="M938.03,-112.32C955.03,-103.66 981.38,-90.24 1000.99,-80.25"/>
<polygon fill="midnightblue" stroke="midnightblue" points="1002.69,-83.31 1010.01,-75.65 999.51,-77.08 1002.69,-83.31"/>
</g>
<!-- Node26 -->
<g id="node26" class="node">
<title>Node26</title>
<g id="a_node26"><a xlink:title=" ">
<polygon fill="white" stroke="#bfbfbf" points="1104.5,-56.5 1104.5,-75.5 1169.5,-75.5 1169.5,-56.5 1104.5,-56.5"/>
<text text-anchor="middle" x="1137" y="-63.5" font-family="Helvetica,sans-Serif" font-size="10.00">exception</text>
</a>
</g>
</g>
<!-- Node23&#45;&gt;Node26 -->
<g id="edge49" class="edge">
<title>Node23&#45;&gt;Node26</title>
<path fill="none" stroke="midnightblue" d="M955.23,-112.44C992.95,-103.01 1053.68,-87.83 1094.44,-77.64"/>
<polygon fill="midnightblue" stroke="midnightblue" points="1095.5,-80.98 1104.35,-75.16 1093.8,-74.19 1095.5,-80.98"/>
</g>
<!-- Node27 -->
<g id="node27" class="node">
<title>Node27</title>
<g id="a_node27"><a xlink:title=" ">
<polygon fill="white" stroke="#bfbfbf" points="843.5,-56.5 843.5,-75.5 874.5,-75.5 874.5,-56.5 843.5,-56.5"/>
<text text-anchor="middle" x="859" y="-63.5" font-family="Helvetica,sans-Serif" font-size="10.00">ios</text>
</a>
</g>
</g>
<!-- Node23&#45;&gt;Node27 -->
<g id="edge50" class="edge">
<title>Node23&#45;&gt;Node27</title>
<path fill="none" stroke="midnightblue" d="M911.04,-112.32C901.87,-104.34 888.06,-92.31 876.97,-82.65"/>
<polygon fill="midnightblue" stroke="midnightblue" points="878.98,-79.76 869.14,-75.83 874.38,-85.04 878.98,-79.76"/>
</g>
<!-- Node28 -->
<g id="node28" class="node">
<title>Node28</title>
<g id="a_node28"><a xlink:title=" ">
<polygon fill="white" stroke="#bfbfbf" points="893,-56.5 893,-75.5 949,-75.5 949,-56.5 893,-56.5"/>
<text text-anchor="middle" x="921" y="-63.5" font-family="Helvetica,sans-Serif" font-size="10.00">sstream</text>
</a>
</g>
</g>
<!-- Node23&#45;&gt;Node28 -->
<g id="edge51" class="edge">
<title>Node23&#45;&gt;Node28</title>
<path fill="none" stroke="midnightblue" d="M921,-112.08C921,-105.01 921,-94.86 921,-85.99"/>
<polygon fill="midnightblue" stroke="midnightblue" points="924.5,-85.75 921,-75.75 917.5,-85.75 924.5,-85.75"/>
</g>
<!-- Node25 -->
<g id="node25" class="node">
<title>Node25</title>
<g id="a_node25"><a xlink:title=" ">
<polygon fill="white" stroke="#bfbfbf" points="979.5,-0.5 979.5,-19.5 1074.5,-19.5 1074.5,-0.5 979.5,-0.5"/>
<text text-anchor="middle" x="1027" y="-7.5" font-family="Helvetica,sans-Serif" font-size="10.00">bits/exception.h</text>
</a>
</g>
</g>
<!-- Node24&#45;&gt;Node25 -->
<g id="edge47" class="edge">
<title>Node24&#45;&gt;Node25</title>
<path fill="none" stroke="midnightblue" d="M1027,-56.08C1027,-49.01 1027,-38.86 1027,-29.99"/>
<polygon fill="midnightblue" stroke="midnightblue" points="1030.5,-29.75 1027,-19.75 1023.5,-29.75 1030.5,-29.75"/>
</g>
<!-- Node29&#45;&gt;Node8 -->
<g id="edge55" class="edge">
<title>Node29&#45;&gt;Node8</title>
<path fill="none" stroke="midnightblue" d="M1036.18,-112.44C942.66,-100.64 777.78,-79.84 708.31,-71.08"/>
<polygon fill="midnightblue" stroke="midnightblue" points="708.36,-67.56 698,-69.78 707.48,-74.5 708.36,-67.56"/>
</g>
<!-- Node29&#45;&gt;Node24 -->
<g id="edge57" class="edge">
<title>Node29&#45;&gt;Node24</title>
<path fill="none" stroke="midnightblue" d="M1091.63,-112.32C1079.84,-104.06 1061.87,-91.45 1047.86,-81.63"/>
<polygon fill="midnightblue" stroke="midnightblue" points="1049.54,-78.53 1039.34,-75.65 1045.52,-84.26 1049.54,-78.53"/>
</g>
<!-- Node29&#45;&gt;Node26 -->
<g id="edge54" class="edge">
<title>Node29&#45;&gt;Node26</title>
<path fill="none" stroke="midnightblue" d="M1109.45,-112.08C1114.01,-104.61 1120.67,-93.72 1126.29,-84.52"/>
<polygon fill="midnightblue" stroke="midnightblue" points="1129.42,-86.11 1131.65,-75.75 1123.45,-82.46 1129.42,-86.11"/>
</g>
<!-- Node29&#45;&gt;Node28 -->
<g id="edge56" class="edge">
<title>Node29&#45;&gt;Node28</title>
<path fill="none" stroke="midnightblue" d="M1075,-112.44C1043.63,-103.19 993.48,-88.39 958.99,-78.21"/>
<polygon fill="midnightblue" stroke="midnightblue" points="959.84,-74.81 949.26,-75.34 957.86,-81.53 959.84,-74.81"/>
</g>
</g>
</svg>
