<?xml version="1.0" encoding="UTF-8" standalone="no"?>
<!DOCTYPE svg PUBLIC "-//W3C//DTD SVG 1.1//EN"
 "http://www.w3.org/Graphics/SVG/1.1/DTD/svg11.dtd">
<!-- Generated by graphviz version 2.43.0 (0)
 -->
<!-- Title: sources/APU/APU.hpp Pages: 1 -->
<svg width="6311pt" height="229pt"
 viewBox="0.00 0.00 6310.50 229.00" xmlns="http://www.w3.org/2000/svg" xmlns:xlink="http://www.w3.org/1999/xlink">
<g id="graph0" class="graph" transform="scale(1 1) rotate(0) translate(4 225)">
<title>sources/APU/APU.hpp</title>
<polygon fill="white" stroke="transparent" points="-4,4 -4,-225 6306.5,-225 6306.5,4 -4,4"/>
<!-- Node1 -->
<g id="node1" class="node">
<title>Node1</title>
<g id="a_node1"><a xlink:title=" ">
<polygon fill="#bfbfbf" stroke="black" points="1853.5,-201.5 1853.5,-220.5 1975.5,-220.5 1975.5,-201.5 1853.5,-201.5"/>
<text text-anchor="middle" x="1914.5" y="-208.5" font-family="Helvetica,sans-Serif" font-size="10.00">sources/APU/APU.hpp</text>
</a>
</g>
</g>
<!-- Node2 -->
<g id="node2" class="node">
<title>Node2</title>
<g id="a_node2"><a xlink:href="APU_8cpp.html" target="_top" xlink:title=" ">
<polygon fill="white" stroke="black" points="0,-140 0,-159 121,-159 121,-140 0,-140"/>
<text text-anchor="middle" x="60.5" y="-147" font-family="Helvetica,sans-Serif" font-size="10.00">sources/APU/APU.cpp</text>
</a>
</g>
</g>
<!-- Node1&#45;&gt;Node2 -->
<g id="edge1" class="edge">
<title>Node1&#45;&gt;Node2</title>
<path fill="none" stroke="midnightblue" d="M1842.68,-209.93C1553,-209.39 469.76,-204.71 129.5,-165 118.19,-163.68 105.99,-161.41 95.05,-159.04"/>
<polygon fill="midnightblue" stroke="midnightblue" points="1843.05,-213.43 1853.05,-209.95 1843.06,-206.43 1843.05,-213.43"/>
</g>
<!-- Node3 -->
<g id="node3" class="node">
<title>Node3</title>
<g id="a_node3"><a xlink:href="DSP_8cpp.html" target="_top" xlink:title=" ">
<polygon fill="white" stroke="black" points="139,-140 139,-159 280,-159 280,-140 139,-140"/>
<text text-anchor="middle" x="209.5" y="-147" font-family="Helvetica,sans-Serif" font-size="10.00">sources/APU/DSP/DSP.cpp</text>
</a>
</g>
</g>
<!-- Node1&#45;&gt;Node3 -->
<g id="edge2" class="edge">
<title>Node1&#45;&gt;Node3</title>
<path fill="none" stroke="midnightblue" d="M1843.3,-209.49C1571.15,-207.3 596.64,-197.35 288.5,-165 275.6,-163.65 261.65,-161.36 249.11,-159"/>
<polygon fill="midnightblue" stroke="midnightblue" points="1843.41,-212.99 1853.44,-209.57 1843.47,-205.99 1843.41,-212.99"/>
</g>
<!-- Node4 -->
<g id="node4" class="node">
<title>Node4</title>
<g id="a_node4"><a xlink:href="Voice_8cpp.html" target="_top" xlink:title=" ">
<polygon fill="white" stroke="black" points="298,-140 298,-159 447,-159 447,-140 298,-140"/>
<text text-anchor="middle" x="372.5" y="-147" font-family="Helvetica,sans-Serif" font-size="10.00">sources/APU/DSP/Voice.cpp</text>
</a>
</g>
</g>
<!-- Node1&#45;&gt;Node4 -->
<g id="edge3" class="edge">
<title>Node1&#45;&gt;Node4</title>
<path fill="none" stroke="midnightblue" d="M1843.12,-209.14C1589.05,-205.88 729.33,-193 455.5,-165 442.11,-163.63 427.63,-161.37 414.56,-159.04"/>
<polygon fill="midnightblue" stroke="midnightblue" points="1843.29,-212.65 1853.33,-209.27 1843.38,-205.65 1843.29,-212.65"/>
</g>
<!-- Node5 -->
<g id="node5" class="node">
<title>Node5</title>
<g id="a_node5"><a xlink:href="16bitArithmetic_8cpp.html" target="_top" xlink:title=" ">
<polygon fill="white" stroke="black" points="465,-134.5 465,-164.5 602,-164.5 602,-134.5 465,-134.5"/>
<text text-anchor="start" x="473" y="-152.5" font-family="Helvetica,sans-Serif" font-size="10.00">sources/APU/Instructions</text>
<text text-anchor="middle" x="533.5" y="-141.5" font-family="Helvetica,sans-Serif" font-size="10.00">/16bitArithmetic.cpp</text>
</a>
</g>
</g>
<!-- Node1&#45;&gt;Node5 -->
<g id="edge4" class="edge">
<title>Node1&#45;&gt;Node5</title>
<path fill="none" stroke="midnightblue" d="M1843.32,-208.94C1607.54,-205.22 853.3,-191.5 611.5,-165 608.49,-164.67 605.42,-164.29 602.32,-163.87"/>
<polygon fill="midnightblue" stroke="midnightblue" points="1843.44,-212.45 1853.49,-209.1 1843.55,-205.45 1843.44,-212.45"/>
</g>
<!-- Node6 -->
<g id="node6" class="node">
<title>Node6</title>
<g id="a_node6"><a xlink:href="16bitDataTransmission_8cpp.html" target="_top" xlink:title=" ">
<polygon fill="white" stroke="black" points="620.5,-134.5 620.5,-164.5 772.5,-164.5 772.5,-134.5 620.5,-134.5"/>
<text text-anchor="start" x="628.5" y="-152.5" font-family="Helvetica,sans-Serif" font-size="10.00">sources/APU/Instructions</text>
<text text-anchor="middle" x="696.5" y="-141.5" font-family="Helvetica,sans-Serif" font-size="10.00">/16bitDataTransmission.cpp</text>
</a>
</g>
</g>
<!-- Node1&#45;&gt;Node6 -->
<g id="edge5" class="edge">
<title>Node1&#45;&gt;Node6</title>
<path fill="none" stroke="midnightblue" d="M1843.11,-210.36C1663.99,-210.57 1181.22,-206.85 781.5,-165 778.67,-164.7 775.79,-164.37 772.89,-164.01"/>
<polygon fill="midnightblue" stroke="midnightblue" points="1843.2,-213.86 1853.2,-210.34 1843.19,-206.86 1843.2,-213.86"/>
</g>
<!-- Node7 -->
<g id="node7" class="node">
<title>Node7</title>
<g id="a_node7"><a xlink:href="8bitArithmetic_8cpp.html" target="_top" xlink:title=" ">
<polygon fill="white" stroke="black" points="791,-134.5 791,-164.5 928,-164.5 928,-134.5 791,-134.5"/>
<text text-anchor="start" x="799" y="-152.5" font-family="Helvetica,sans-Serif" font-size="10.00">sources/APU/Instructions</text>
<text text-anchor="middle" x="859.5" y="-141.5" font-family="Helvetica,sans-Serif" font-size="10.00">/8bitArithmetic.cpp</text>
</a>
</g>
</g>
<!-- Node1&#45;&gt;Node7 -->
<g id="edge6" class="edge">
<title>Node1&#45;&gt;Node7</title>
<path fill="none" stroke="midnightblue" d="M1843.09,-210.07C1681.34,-209.5 1274.83,-203.94 937.5,-165 934.49,-164.65 931.42,-164.26 928.33,-163.83"/>
<polygon fill="midnightblue" stroke="midnightblue" points="1843.38,-213.57 1853.39,-210.1 1843.4,-206.57 1843.38,-213.57"/>
</g>
<!-- Node8 -->
<g id="node8" class="node">
<title>Node8</title>
<g id="a_node8"><a xlink:href="8bitDataTransmission_8cpp.html" target="_top" xlink:title=" ">
<polygon fill="white" stroke="black" points="946.5,-134.5 946.5,-164.5 1092.5,-164.5 1092.5,-134.5 946.5,-134.5"/>
<text text-anchor="start" x="954.5" y="-152.5" font-family="Helvetica,sans-Serif" font-size="10.00">sources/APU/Instructions</text>
<text text-anchor="middle" x="1019.5" y="-141.5" font-family="Helvetica,sans-Serif" font-size="10.00">/8bitDataTransmission.cpp</text>
</a>
</g>
</g>
<!-- Node1&#45;&gt;Node8 -->
<g id="edge7" class="edge">
<title>Node1&#45;&gt;Node8</title>
<path fill="none" stroke="midnightblue" d="M1843.05,-208.92C1701.23,-206.13 1374.3,-196.55 1101.5,-165 1098.63,-164.67 1095.7,-164.3 1092.75,-163.9"/>
<polygon fill="midnightblue" stroke="midnightblue" points="1843.29,-212.42 1853.35,-209.11 1843.42,-205.42 1843.29,-212.42"/>
</g>
<!-- Node9 -->
<g id="node9" class="node">
<title>Node9</title>
<g id="a_node9"><a xlink:href="8bitIncrementDecrement_8cpp.html" target="_top" xlink:title=" ">
<polygon fill="white" stroke="black" points="1110.5,-134.5 1110.5,-164.5 1272.5,-164.5 1272.5,-134.5 1110.5,-134.5"/>
<text text-anchor="start" x="1118.5" y="-152.5" font-family="Helvetica,sans-Serif" font-size="10.00">sources/APU/Instructions</text>
<text text-anchor="middle" x="1191.5" y="-141.5" font-family="Helvetica,sans-Serif" font-size="10.00">/8bitIncrementDecrement.cpp</text>
</a>
</g>
</g>
<!-- Node1&#45;&gt;Node9 -->
<g id="edge8" class="edge">
<title>Node1&#45;&gt;Node9</title>
<path fill="none" stroke="midnightblue" d="M1842.93,-206.98C1725.43,-201.57 1484.41,-188.51 1281.5,-165 1278.67,-164.67 1275.79,-164.32 1272.89,-163.94"/>
<polygon fill="midnightblue" stroke="midnightblue" points="1843.08,-210.5 1853.23,-207.45 1843.4,-203.5 1843.08,-210.5"/>
</g>
<!-- Node10 -->
<g id="node10" class="node">
<title>Node10</title>
<g id="a_node10"><a xlink:href="8bitLogical_8cpp.html" target="_top" xlink:title=" ">
<polygon fill="white" stroke="black" points="1291,-134.5 1291,-164.5 1428,-164.5 1428,-134.5 1291,-134.5"/>
<text text-anchor="start" x="1299" y="-152.5" font-family="Helvetica,sans-Serif" font-size="10.00">sources/APU/Instructions</text>
<text text-anchor="middle" x="1359.5" y="-141.5" font-family="Helvetica,sans-Serif" font-size="10.00">/8bitLogical.cpp</text>
</a>
</g>
</g>
<!-- Node1&#45;&gt;Node10 -->
<g id="edge9" class="edge">
<title>Node1&#45;&gt;Node10</title>
<path fill="none" stroke="midnightblue" d="M1842.96,-205.33C1749.28,-198.75 1580.1,-185.24 1436.5,-165 1433.81,-164.62 1431.06,-164.21 1428.3,-163.78"/>
<polygon fill="midnightblue" stroke="midnightblue" points="1842.95,-208.84 1853.17,-206.04 1843.44,-201.86 1842.95,-208.84"/>
</g>
<!-- Node11 -->
<g id="node11" class="node">
<title>Node11</title>
<g id="a_node11"><a xlink:href="8bitShiftRotation_8cpp.html" target="_top" xlink:title=" ">
<polygon fill="white" stroke="black" points="1446,-134.5 1446,-164.5 1583,-164.5 1583,-134.5 1446,-134.5"/>
<text text-anchor="start" x="1454" y="-152.5" font-family="Helvetica,sans-Serif" font-size="10.00">sources/APU/Instructions</text>
<text text-anchor="middle" x="1514.5" y="-141.5" font-family="Helvetica,sans-Serif" font-size="10.00">/8bitShiftRotation.cpp</text>
</a>
</g>
</g>
<!-- Node1&#45;&gt;Node11 -->
<g id="edge10" class="edge">
<title>Node1&#45;&gt;Node11</title>
<path fill="none" stroke="midnightblue" d="M1843.13,-201.05C1777.58,-192.6 1677.82,-179.13 1591.5,-165 1588.82,-164.56 1586.08,-164.1 1583.32,-163.63"/>
<polygon fill="midnightblue" stroke="midnightblue" points="1842.98,-204.56 1853.35,-202.36 1843.88,-197.62 1842.98,-204.56"/>
</g>
<!-- Node12 -->
<g id="node12" class="node">
<title>Node12</title>
<g id="a_node12"><a xlink:href="Bit_8cpp.html" target="_top" xlink:title=" ">
<polygon fill="white" stroke="black" points="1601,-134.5 1601,-164.5 1738,-164.5 1738,-134.5 1601,-134.5"/>
<text text-anchor="start" x="1609" y="-152.5" font-family="Helvetica,sans-Serif" font-size="10.00">sources/APU/Instructions</text>
<text text-anchor="middle" x="1669.5" y="-141.5" font-family="Helvetica,sans-Serif" font-size="10.00">/Bit.cpp</text>
</a>
</g>
</g>
<!-- Node1&#45;&gt;Node12 -->
<g id="edge11" class="edge">
<title>Node1&#45;&gt;Node12</title>
<path fill="none" stroke="midnightblue" d="M1869.65,-199.11C1829.62,-189.39 1770.77,-175.1 1727.24,-164.52"/>
<polygon fill="midnightblue" stroke="midnightblue" points="1868.85,-202.52 1879.4,-201.48 1870.51,-195.71 1868.85,-202.52"/>
</g>
<!-- Node13 -->
<g id="node13" class="node">
<title>Node13</title>
<g id="a_node13"><a xlink:href="DecimalCompensation_8cpp.html" target="_top" xlink:title=" ">
<polygon fill="white" stroke="black" points="1756,-134.5 1756,-164.5 1907,-164.5 1907,-134.5 1756,-134.5"/>
<text text-anchor="start" x="1764" y="-152.5" font-family="Helvetica,sans-Serif" font-size="10.00">sources/APU/Instructions</text>
<text text-anchor="middle" x="1831.5" y="-141.5" font-family="Helvetica,sans-Serif" font-size="10.00">/DecimalCompensation.cpp</text>
</a>
</g>
</g>
<!-- Node1&#45;&gt;Node13 -->
<g id="edge12" class="edge">
<title>Node1&#45;&gt;Node13</title>
<path fill="none" stroke="midnightblue" d="M1894.23,-195.47C1881.09,-186.05 1864.06,-173.84 1851.06,-164.52"/>
<polygon fill="midnightblue" stroke="midnightblue" points="1892.44,-198.49 1902.61,-201.48 1896.52,-192.8 1892.44,-198.49"/>
</g>
<!-- Node14 -->
<g id="node14" class="node">
<title>Node14</title>
<g id="a_node14"><a xlink:href="MultiplicationDivision_8cpp.html" target="_top" xlink:title=" ">
<polygon fill="white" stroke="black" points="1925.5,-134.5 1925.5,-164.5 2071.5,-164.5 2071.5,-134.5 1925.5,-134.5"/>
<text text-anchor="start" x="1933.5" y="-152.5" font-family="Helvetica,sans-Serif" font-size="10.00">sources/APU/Instructions</text>
<text text-anchor="middle" x="1998.5" y="-141.5" font-family="Helvetica,sans-Serif" font-size="10.00">/MultiplicationDivision.cpp</text>
</a>
</g>
</g>
<!-- Node1&#45;&gt;Node14 -->
<g id="edge13" class="edge">
<title>Node1&#45;&gt;Node14</title>
<path fill="none" stroke="midnightblue" d="M1935.02,-195.47C1948.32,-186.05 1965.55,-173.84 1978.7,-164.52"/>
<polygon fill="midnightblue" stroke="midnightblue" points="1932.67,-192.84 1926.54,-201.48 1936.72,-198.55 1932.67,-192.84"/>
</g>
<!-- Node15 -->
<g id="node15" class="node">
<title>Node15</title>
<g id="a_node15"><a xlink:href="ProgramFlow_8cpp.html" target="_top" xlink:title=" ">
<polygon fill="white" stroke="black" points="2090,-134.5 2090,-164.5 2227,-164.5 2227,-134.5 2090,-134.5"/>
<text text-anchor="start" x="2098" y="-152.5" font-family="Helvetica,sans-Serif" font-size="10.00">sources/APU/Instructions</text>
<text text-anchor="middle" x="2158.5" y="-141.5" font-family="Helvetica,sans-Serif" font-size="10.00">/ProgramFlow.cpp</text>
</a>
</g>
</g>
<!-- Node1&#45;&gt;Node15 -->
<g id="edge14" class="edge">
<title>Node1&#45;&gt;Node15</title>
<path fill="none" stroke="midnightblue" d="M1959.42,-199.05C1999.28,-189.33 2057.73,-175.07 2100.99,-164.52"/>
<polygon fill="midnightblue" stroke="midnightblue" points="1958.35,-195.71 1949.46,-201.48 1960,-202.51 1958.35,-195.71"/>
</g>
<!-- Node16 -->
<g id="node16" class="node">
<title>Node16</title>
<g id="a_node16"><a xlink:href="ProgramStatusWord_8cpp.html" target="_top" xlink:title=" ">
<polygon fill="white" stroke="black" points="2245,-134.5 2245,-164.5 2382,-164.5 2382,-134.5 2245,-134.5"/>
<text text-anchor="start" x="2253" y="-152.5" font-family="Helvetica,sans-Serif" font-size="10.00">sources/APU/Instructions</text>
<text text-anchor="middle" x="2313.5" y="-141.5" font-family="Helvetica,sans-Serif" font-size="10.00">/ProgramStatusWord.cpp</text>
</a>
</g>
</g>
<!-- Node1&#45;&gt;Node16 -->
<g id="edge15" class="edge">
<title>Node1&#45;&gt;Node16</title>
<path fill="none" stroke="midnightblue" d="M1985.72,-200.94C2050.86,-192.44 2149.83,-178.96 2235.5,-165 2238.49,-164.51 2241.54,-164 2244.63,-163.48"/>
<polygon fill="midnightblue" stroke="midnightblue" points="1985.03,-197.5 1975.56,-202.26 1985.93,-204.44 1985.03,-197.5"/>
</g>
<!-- Node17 -->
<g id="node17" class="node">
<title>Node17</title>
<g id="a_node17"><a xlink:href="Stack_8cpp.html" target="_top" xlink:title=" ">
<polygon fill="white" stroke="black" points="2400,-134.5 2400,-164.5 2537,-164.5 2537,-134.5 2400,-134.5"/>
<text text-anchor="start" x="2408" y="-152.5" font-family="Helvetica,sans-Serif" font-size="10.00">sources/APU/Instructions</text>
<text text-anchor="middle" x="2468.5" y="-141.5" font-family="Helvetica,sans-Serif" font-size="10.00">/Stack.cpp</text>
</a>
</g>
</g>
<!-- Node1&#45;&gt;Node17 -->
<g id="edge16" class="edge">
<title>Node1&#45;&gt;Node17</title>
<path fill="none" stroke="midnightblue" d="M1985.73,-205.27C2079.01,-198.61 2247.48,-185.01 2390.5,-165 2393.5,-164.58 2396.56,-164.13 2399.65,-163.64"/>
<polygon fill="midnightblue" stroke="midnightblue" points="1985.29,-201.79 1975.57,-205.98 1985.79,-208.77 1985.29,-201.79"/>
</g>
<!-- Node18 -->
<g id="node18" class="node">
<title>Node18</title>
<g id="a_node18"><a xlink:href="Standbys_8cpp.html" target="_top" xlink:title=" ">
<polygon fill="white" stroke="black" points="2555,-134.5 2555,-164.5 2692,-164.5 2692,-134.5 2555,-134.5"/>
<text text-anchor="start" x="2563" y="-152.5" font-family="Helvetica,sans-Serif" font-size="10.00">sources/APU/Instructions</text>
<text text-anchor="middle" x="2623.5" y="-141.5" font-family="Helvetica,sans-Serif" font-size="10.00">/Standbys.cpp</text>
</a>
</g>
</g>
<!-- Node1&#45;&gt;Node18 -->
<g id="edge17" class="edge">
<title>Node1&#45;&gt;Node18</title>
<path fill="none" stroke="midnightblue" d="M1985.91,-207.53C2103.14,-202.88 2343.53,-190.89 2545.5,-165 2548.51,-164.61 2551.57,-164.19 2554.66,-163.73"/>
<polygon fill="midnightblue" stroke="midnightblue" points="1985.5,-204.04 1975.64,-207.93 1985.77,-211.04 1985.5,-204.04"/>
</g>
<!-- Node19 -->
<g id="node19" class="node">
<title>Node19</title>
<g id="a_node19"><a xlink:href="Subroutine_8cpp.html" target="_top" xlink:title=" ">
<polygon fill="white" stroke="black" points="2710,-134.5 2710,-164.5 2847,-164.5 2847,-134.5 2710,-134.5"/>
<text text-anchor="start" x="2718" y="-152.5" font-family="Helvetica,sans-Serif" font-size="10.00">sources/APU/Instructions</text>
<text text-anchor="middle" x="2778.5" y="-141.5" font-family="Helvetica,sans-Serif" font-size="10.00">/Subroutine.cpp</text>
</a>
</g>
</g>
<!-- Node1&#45;&gt;Node19 -->
<g id="edge18" class="edge">
<title>Node1&#45;&gt;Node19</title>
<path fill="none" stroke="midnightblue" d="M1985.94,-208.93C2124.32,-206.2 2438.39,-196.74 2700.5,-165 2703.51,-164.64 2706.58,-164.23 2709.67,-163.78"/>
<polygon fill="midnightblue" stroke="midnightblue" points="1985.81,-205.44 1975.88,-209.13 1985.95,-212.43 1985.81,-205.44"/>
</g>
<!-- Node20 -->
<g id="node20" class="node">
<title>Node20</title>
<g id="a_node20"><a xlink:href="Operand_8cpp.html" target="_top" xlink:title=" ">
<polygon fill="white" stroke="black" points="2865.5,-140 2865.5,-159 3007.5,-159 3007.5,-140 2865.5,-140"/>
<text text-anchor="middle" x="2936.5" y="-147" font-family="Helvetica,sans-Serif" font-size="10.00">sources/APU/Operand.cpp</text>
</a>
</g>
</g>
<!-- Node1&#45;&gt;Node20 -->
<g id="edge19" class="edge">
<title>Node1&#45;&gt;Node20</title>
<path fill="none" stroke="midnightblue" d="M1985.56,-209.73C2142.84,-208.46 2532.07,-201.53 2855.5,-165 2868.28,-163.56 2882.08,-161.34 2894.61,-159.06"/>
<polygon fill="midnightblue" stroke="midnightblue" points="1985.52,-206.23 1975.54,-209.81 1985.57,-213.23 1985.52,-206.23"/>
</g>
<!-- Node21 -->
<g id="node21" class="node">
<title>Node21</title>
<g id="a_node21"><a xlink:href="APUDebug_8cpp.html" target="_top" xlink:title=" ">
<polygon fill="white" stroke="black" points="3102,-73 3102,-92 3281,-92 3281,-73 3102,-73"/>
<text text-anchor="middle" x="3191.5" y="-80" font-family="Helvetica,sans-Serif" font-size="10.00">sources/Debugger/APUDebug.cpp</text>
</a>
</g>
</g>
<!-- Node1&#45;&gt;Node21 -->
<g id="edge20" class="edge">
<title>Node1&#45;&gt;Node21</title>
<path fill="none" stroke="midnightblue" d="M1985.8,-209.82C2224.22,-208.85 2984.46,-202.79 3087.5,-165 3129.93,-149.44 3168.64,-109.57 3184.23,-92.01"/>
<polygon fill="midnightblue" stroke="midnightblue" points="1985.51,-206.32 1975.52,-209.86 1985.53,-213.32 1985.51,-206.32"/>
</g>
<!-- Node22 -->
<g id="node22" class="node">
<title>Node22</title>
<g id="a_node22"><a xlink:href="SNES_8hpp.html" target="_top" xlink:title=" ">
<polygon fill="white" stroke="red" points="4658.5,-140 4658.5,-159 4762.5,-159 4762.5,-140 4658.5,-140"/>
<text text-anchor="middle" x="4710.5" y="-147" font-family="Helvetica,sans-Serif" font-size="10.00">sources/SNES.hpp</text>
</a>
</g>
</g>
<!-- Node1&#45;&gt;Node22 -->
<g id="edge21" class="edge">
<title>Node1&#45;&gt;Node22</title>
<path fill="none" stroke="midnightblue" d="M1986.04,-208.48C2383.6,-200.02 4315.46,-158.91 4658.39,-151.61"/>
<polygon fill="midnightblue" stroke="midnightblue" points="1985.75,-204.98 1975.83,-208.69 1985.9,-211.98 1985.75,-204.98"/>
</g>
<!-- Node36 -->
<g id="node36" class="node">
<title>Node36</title>
<g id="a_node36"><a xlink:href="testAPU_8cpp.html" target="_top" xlink:title=" ">
<polygon fill="white" stroke="black" points="3329.5,-6 3329.5,-25 3455.5,-25 3455.5,-6 3329.5,-6"/>
<text text-anchor="middle" x="3392.5" y="-13" font-family="Helvetica,sans-Serif" font-size="10.00">tests/APU/testAPU.cpp</text>
</a>
</g>
</g>
<!-- Node1&#45;&gt;Node36 -->
<g id="edge65" class="edge">
<title>Node1&#45;&gt;Node36</title>
<path fill="none" stroke="midnightblue" d="M1985.93,-209.11C2226.82,-205.86 2996.9,-193.3 3041.5,-165 3082.96,-138.69 3052.66,-95.69 3092.5,-67 3175.39,-7.31 3218.94,-48.95 3319.5,-31 3329.68,-29.18 3340.62,-27.09 3350.86,-25.06"/>
<polygon fill="midnightblue" stroke="midnightblue" points="1985.83,-205.61 1975.88,-209.25 1985.92,-212.61 1985.83,-205.61"/>
</g>
<!-- Node38 -->
<g id="node38" class="node">
<title>Node38</title>
<g id="a_node38"><a xlink:href="testAPUInstructions_8cpp.html" target="_top" xlink:title=" ">
<polygon fill="white" stroke="black" points="3128,-6 3128,-25 3311,-25 3311,-6 3128,-6"/>
<text text-anchor="middle" x="3219.5" y="-13" font-family="Helvetica,sans-Serif" font-size="10.00">tests/APU/testAPUInstructions.cpp</text>
</a>
</g>
</g>
<!-- Node1&#45;&gt;Node38 -->
<g id="edge66" class="edge">
<title>Node1&#45;&gt;Node38</title>
<path fill="none" stroke="midnightblue" d="M1985.98,-209.15C2223.52,-206.07 2973.94,-194.06 3016.5,-165 3055.78,-138.18 3024.1,-98.77 3059.5,-67 3084.64,-44.43 3119.85,-31.94 3150.84,-25.04"/>
<polygon fill="midnightblue" stroke="midnightblue" points="1985.69,-205.66 1975.73,-209.28 1985.78,-212.66 1985.69,-205.66"/>
</g>
<!-- Node39 -->
<g id="node39" class="node">
<title>Node39</title>
<g id="a_node39"><a xlink:href="testOperand_8cpp.html" target="_top" xlink:title=" ">
<polygon fill="white" stroke="black" points="4913,-6 4913,-25 5060,-25 5060,-6 4913,-6"/>
<text text-anchor="middle" x="4986.5" y="-13" font-family="Helvetica,sans-Serif" font-size="10.00">tests/APU/testOperand.cpp</text>
</a>
</g>
</g>
<!-- Node1&#45;&gt;Node39 -->
<g id="edge67" class="edge">
<title>Node1&#45;&gt;Node39</title>
<path fill="none" stroke="midnightblue" d="M1985.8,-209.48C2531.25,-205.32 6023.67,-175.66 6097.5,-98 6106.99,-88.01 6107.07,-76.91 6097.5,-67 6057.8,-25.89 5126.34,-36.93 5069.5,-31 5056.11,-29.6 5041.63,-27.34 5028.57,-25.01"/>
<polygon fill="midnightblue" stroke="midnightblue" points="1985.69,-205.98 1975.71,-209.55 1985.74,-212.98 1985.69,-205.98"/>
</g>
<!-- Node22&#45;&gt;Node21 -->
<g id="edge22" class="edge">
<title>Node22&#45;&gt;Node21</title>
<path fill="none" stroke="midnightblue" d="M4648.13,-148.56C4449.94,-148.26 3816.96,-143.54 3295.5,-98 3278.97,-96.56 3261.05,-94.31 3244.82,-92.01"/>
<polygon fill="midnightblue" stroke="midnightblue" points="4648.34,-152.06 4658.34,-148.57 4648.35,-145.06 4648.34,-152.06"/>
</g>
<!-- Node23 -->
<g id="node23" class="node">
<title>Node23</title>
<g id="a_node23"><a xlink:href="CGramDebug_8cpp.html" target="_top" xlink:title=" ">
<polygon fill="white" stroke="black" points="3376,-73 3376,-92 3569,-92 3569,-73 3376,-73"/>
<text text-anchor="middle" x="3472.5" y="-80" font-family="Helvetica,sans-Serif" font-size="10.00">sources/Debugger/CGramDebug.cpp</text>
</a>
</g>
</g>
<!-- Node22&#45;&gt;Node23 -->
<g id="edge23" class="edge">
<title>Node22&#45;&gt;Node23</title>
<path fill="none" stroke="midnightblue" d="M4648.4,-147.57C4477.95,-144.62 3988.61,-133.47 3583.5,-98 3566.27,-96.49 3547.6,-94.28 3530.58,-92.03"/>
<polygon fill="midnightblue" stroke="midnightblue" points="4648.38,-151.07 4658.44,-147.74 4648.5,-144.07 4648.38,-151.07"/>
</g>
<!-- Node24 -->
<g id="node24" class="node">
<title>Node24</title>
<g id="a_node24"><a xlink:href="CPUDebug_8cpp.html" target="_top" xlink:title=" ">
<polygon fill="white" stroke="black" points="3625.5,-67.5 3625.5,-97.5 3753.5,-97.5 3753.5,-67.5 3625.5,-67.5"/>
<text text-anchor="start" x="3633.5" y="-85.5" font-family="Helvetica,sans-Serif" font-size="10.00">sources/Debugger/CPU</text>
<text text-anchor="middle" x="3689.5" y="-74.5" font-family="Helvetica,sans-Serif" font-size="10.00">/CPUDebug.cpp</text>
</a>
</g>
</g>
<!-- Node22&#45;&gt;Node24 -->
<g id="edge24" class="edge">
<title>Node22&#45;&gt;Node24</title>
<path fill="none" stroke="midnightblue" d="M4648.39,-147.97C4497.15,-146.06 4097.92,-137.39 3767.5,-98 3762.99,-97.46 3758.34,-96.82 3753.67,-96.11"/>
<polygon fill="midnightblue" stroke="midnightblue" points="4648.38,-151.47 4658.42,-148.09 4648.46,-144.47 4648.38,-151.47"/>
</g>
<!-- Node25 -->
<g id="node25" class="node">
<title>Node25</title>
<g id="a_node25"><a xlink:href="Disassembly_8cpp.html" target="_top" xlink:title=" ">
<polygon fill="white" stroke="black" points="4069.5,-67.5 4069.5,-97.5 4197.5,-97.5 4197.5,-67.5 4069.5,-67.5"/>
<text text-anchor="start" x="4077.5" y="-85.5" font-family="Helvetica,sans-Serif" font-size="10.00">sources/Debugger/CPU</text>
<text text-anchor="middle" x="4133.5" y="-74.5" font-family="Helvetica,sans-Serif" font-size="10.00">/Disassembly.cpp</text>
</a>
</g>
</g>
<!-- Node22&#45;&gt;Node25 -->
<g id="edge25" class="edge">
<title>Node22&#45;&gt;Node25</title>
<path fill="none" stroke="midnightblue" d="M4648.37,-144.21C4552.99,-137.19 4364.9,-121.61 4206.5,-98 4203.56,-97.56 4200.56,-97.09 4197.53,-96.58"/>
<polygon fill="midnightblue" stroke="midnightblue" points="4648.19,-147.7 4658.42,-144.94 4648.7,-140.72 4648.19,-147.7"/>
</g>
<!-- Node26 -->
<g id="node26" class="node">
<title>Node26</title>
<g id="a_node26"><a xlink:href="HeaderViewer_8cpp.html" target="_top" xlink:title=" ">
<polygon fill="white" stroke="black" points="4215.5,-73 4215.5,-92 4411.5,-92 4411.5,-73 4215.5,-73"/>
<text text-anchor="middle" x="4313.5" y="-80" font-family="Helvetica,sans-Serif" font-size="10.00">sources/Debugger/HeaderViewer.cpp</text>
</a>
</g>
</g>
<!-- Node22&#45;&gt;Node26 -->
<g id="edge26" class="edge">
<title>Node22&#45;&gt;Node26</title>
<path fill="none" stroke="midnightblue" d="M4648.03,-138.27C4570.12,-125.52 4438.35,-103.94 4365.61,-92.03"/>
<polygon fill="midnightblue" stroke="midnightblue" points="4647.76,-141.77 4658.19,-139.94 4648.89,-134.87 4647.76,-141.77"/>
</g>
<!-- Node27 -->
<g id="node27" class="node">
<title>Node27</title>
<g id="a_node27"><a xlink:href="MemoryBusDebug_8cpp.html" target="_top" xlink:title=" ">
<polygon fill="white" stroke="black" points="3809.5,-67.5 3809.5,-97.5 3975.5,-97.5 3975.5,-67.5 3809.5,-67.5"/>
<text text-anchor="start" x="3817.5" y="-85.5" font-family="Helvetica,sans-Serif" font-size="10.00">sources/Debugger/MemoryBus</text>
<text text-anchor="middle" x="3892.5" y="-74.5" font-family="Helvetica,sans-Serif" font-size="10.00">Debug.cpp</text>
</a>
</g>
</g>
<!-- Node22&#45;&gt;Node27 -->
<g id="edge27" class="edge">
<title>Node22&#45;&gt;Node27</title>
<path fill="none" stroke="midnightblue" d="M4648.19,-145.78C4523.08,-139.97 4232.45,-124.63 3989.5,-98 3984.93,-97.5 3980.24,-96.94 3975.52,-96.35"/>
<polygon fill="midnightblue" stroke="midnightblue" points="4648.2,-149.29 4658.35,-146.25 4648.52,-142.3 4648.2,-149.29"/>
</g>
<!-- Node28 -->
<g id="node28" class="node">
<title>Node28</title>
<g id="a_node28"><a xlink:href="MemoryViewer_8cpp.html" target="_top" xlink:title=" ">
<polygon fill="white" stroke="black" points="4430,-73 4430,-92 4631,-92 4631,-73 4430,-73"/>
<text text-anchor="middle" x="4530.5" y="-80" font-family="Helvetica,sans-Serif" font-size="10.00">sources/Debugger/MemoryViewer.cpp</text>
</a>
</g>
</g>
<!-- Node22&#45;&gt;Node28 -->
<g id="edge28" class="edge">
<title>Node22&#45;&gt;Node28</title>
<path fill="none" stroke="midnightblue" d="M4677.09,-136.44C4641.38,-123.54 4585.67,-103.42 4554.21,-92.06"/>
<polygon fill="midnightblue" stroke="midnightblue" points="4676,-139.76 4686.6,-139.87 4678.38,-133.18 4676,-139.76"/>
</g>
<!-- Node29 -->
<g id="node29" class="node">
<title>Node29</title>
<g id="a_node29"><a xlink:href="RegisterViewer_8cpp.html" target="_top" xlink:title=" ">
<polygon fill="white" stroke="black" points="4687.5,-67.5 4687.5,-97.5 4835.5,-97.5 4835.5,-67.5 4687.5,-67.5"/>
<text text-anchor="start" x="4695.5" y="-85.5" font-family="Helvetica,sans-Serif" font-size="10.00">sources/Debugger/Register</text>
<text text-anchor="middle" x="4761.5" y="-74.5" font-family="Helvetica,sans-Serif" font-size="10.00">Viewer.cpp</text>
</a>
</g>
</g>
<!-- Node22&#45;&gt;Node29 -->
<g id="edge29" class="edge">
<title>Node22&#45;&gt;Node29</title>
<path fill="none" stroke="midnightblue" d="M4723.7,-131.67C4732,-121.09 4742.59,-107.6 4750.45,-97.59"/>
<polygon fill="midnightblue" stroke="midnightblue" points="4720.8,-129.71 4717.38,-139.73 4726.3,-134.03 4720.8,-129.71"/>
</g>
<!-- Node30 -->
<g id="node30" class="node">
<title>Node30</title>
<g id="a_node30"><a xlink:href="TileViewer_8cpp.html" target="_top" xlink:title=" ">
<polygon fill="white" stroke="black" points="4854,-67.5 4854,-97.5 5013,-97.5 5013,-67.5 4854,-67.5"/>
<text text-anchor="start" x="4862" y="-85.5" font-family="Helvetica,sans-Serif" font-size="10.00">sources/Debugger/TileViewer</text>
<text text-anchor="middle" x="4933.5" y="-74.5" font-family="Helvetica,sans-Serif" font-size="10.00">/TileViewer.cpp</text>
</a>
</g>
</g>
<!-- Node22&#45;&gt;Node30 -->
<g id="edge30" class="edge">
<title>Node22&#45;&gt;Node30</title>
<path fill="none" stroke="midnightblue" d="M4749.76,-137.06C4787.57,-126.04 4844.83,-109.34 4885.37,-97.53"/>
<polygon fill="midnightblue" stroke="midnightblue" points="4748.73,-133.71 4740.11,-139.87 4750.69,-140.43 4748.73,-133.71"/>
</g>
<!-- Node31 -->
<g id="node31" class="node">
<title>Node31</title>
<g id="a_node31"><a xlink:href="main_8cpp.html" target="_top" xlink:title=" ">
<polygon fill="white" stroke="black" points="5176.5,-73 5176.5,-92 5278.5,-92 5278.5,-73 5176.5,-73"/>
<text text-anchor="middle" x="5227.5" y="-80" font-family="Helvetica,sans-Serif" font-size="10.00">sources/main.cpp</text>
</a>
</g>
</g>
<!-- Node22&#45;&gt;Node31 -->
<g id="edge31" class="edge">
<title>Node22&#45;&gt;Node31</title>
<path fill="none" stroke="midnightblue" d="M4772.63,-143.7C4860.03,-136.46 5024.09,-121.1 5162.5,-98 5172.31,-96.36 5182.86,-94.19 5192.55,-92.02"/>
<polygon fill="midnightblue" stroke="midnightblue" points="4772.29,-140.22 4762.61,-144.52 4772.86,-147.19 4772.29,-140.22"/>
</g>
<!-- Node32 -->
<g id="node32" class="node">
<title>Node32</title>
<g id="a_node32"><a xlink:href="MemoryBus_8cpp.html" target="_top" xlink:title=" ">
<polygon fill="white" stroke="black" points="5297,-73 5297,-92 5476,-92 5476,-73 5297,-73"/>
<text text-anchor="middle" x="5386.5" y="-80" font-family="Helvetica,sans-Serif" font-size="10.00">sources/Memory/MemoryBus.cpp</text>
</a>
</g>
</g>
<!-- Node22&#45;&gt;Node32 -->
<g id="edge32" class="edge">
<title>Node22&#45;&gt;Node32</title>
<path fill="none" stroke="midnightblue" d="M4772.91,-144.23C4878.89,-136.72 5100.71,-119.83 5287.5,-98 5302.08,-96.3 5317.82,-94.14 5332.37,-92.01"/>
<polygon fill="midnightblue" stroke="midnightblue" points="4772.45,-140.76 4762.72,-144.95 4772.94,-147.74 4772.45,-140.76"/>
</g>
<!-- Node33 -->
<g id="node33" class="node">
<title>Node33</title>
<g id="a_node33"><a xlink:href="QtSFML_8cpp.html" target="_top" xlink:title=" ">
<polygon fill="white" stroke="black" points="5494.5,-67.5 5494.5,-97.5 5654.5,-97.5 5654.5,-67.5 5494.5,-67.5"/>
<text text-anchor="start" x="5502.5" y="-85.5" font-family="Helvetica,sans-Serif" font-size="10.00">sources/Renderer/QtRenderer</text>
<text text-anchor="middle" x="5574.5" y="-74.5" font-family="Helvetica,sans-Serif" font-size="10.00">/QtSFML.cpp</text>
</a>
</g>
</g>
<!-- Node22&#45;&gt;Node33 -->
<g id="edge33" class="edge">
<title>Node22&#45;&gt;Node33</title>
<path fill="none" stroke="midnightblue" d="M4773.05,-146.43C4904.91,-141.61 5221,-127.75 5484.5,-98 5487.65,-97.64 5490.85,-97.26 5494.08,-96.84"/>
<polygon fill="midnightblue" stroke="midnightblue" points="4772.61,-142.94 4762.74,-146.8 4772.86,-149.94 4772.61,-142.94"/>
</g>
<!-- Node34 -->
<g id="node34" class="node">
<title>Node34</title>
<g id="a_node34"><a xlink:href="SFRenderer_8cpp.html" target="_top" xlink:title=" ">
<polygon fill="white" stroke="black" points="5786.5,-73 5786.5,-92 5966.5,-92 5966.5,-73 5786.5,-73"/>
<text text-anchor="middle" x="5876.5" y="-80" font-family="Helvetica,sans-Serif" font-size="10.00">sources/Renderer/SFRenderer.cpp</text>
</a>
</g>
</g>
<!-- Node22&#45;&gt;Node34 -->
<g id="edge34" class="edge">
<title>Node22&#45;&gt;Node34</title>
<path fill="none" stroke="midnightblue" d="M4772.94,-147.51C4937.04,-144.49 5393.94,-133.32 5772.5,-98 5788.65,-96.49 5806.15,-94.28 5822.09,-92.04"/>
<polygon fill="midnightblue" stroke="midnightblue" points="4772.49,-144.02 4762.56,-147.7 4772.62,-151.02 4772.49,-144.02"/>
</g>
<!-- Node35 -->
<g id="node35" class="node">
<title>Node35</title>
<g id="a_node35"><a xlink:href="SNES_8cpp.html" target="_top" xlink:title=" ">
<polygon fill="white" stroke="black" points="5985,-73 5985,-92 6088,-92 6088,-73 5985,-73"/>
<text text-anchor="middle" x="6036.5" y="-80" font-family="Helvetica,sans-Serif" font-size="10.00">sources/SNES.cpp</text>
</a>
</g>
</g>
<!-- Node22&#45;&gt;Node35 -->
<g id="edge35" class="edge">
<title>Node22&#45;&gt;Node35</title>
<path fill="none" stroke="midnightblue" d="M4772.64,-147.61C4993.37,-144.2 5739.05,-130.51 5975.5,-98 5985.42,-96.64 5996.09,-94.38 6005.69,-92.05"/>
<polygon fill="midnightblue" stroke="midnightblue" points="4772.47,-144.11 4762.53,-147.77 4772.58,-151.11 4772.47,-144.11"/>
</g>
<!-- Node22&#45;&gt;Node36 -->
<g id="edge36" class="edge">
<title>Node22&#45;&gt;Node36</title>
<path fill="none" stroke="midnightblue" d="M4647.79,-148.53C4388.48,-148.37 3411.43,-144.65 3366.5,-98 3346.72,-77.46 3371.23,-41.89 3384.73,-25.38"/>
<polygon fill="midnightblue" stroke="midnightblue" points="4648.15,-152.03 4658.15,-148.54 4648.15,-145.03 4648.15,-152.03"/>
</g>
<!-- Node37 -->
<g id="node37" class="node">
<title>Node37</title>
<g id="a_node37"><a xlink:href="tests_8hpp.html" target="_top" xlink:title=" ">
<polygon fill="white" stroke="red" points="5031,-73 5031,-92 5120,-92 5120,-73 5031,-73"/>
<text text-anchor="middle" x="5075.5" y="-80" font-family="Helvetica,sans-Serif" font-size="10.00">tests/tests.hpp</text>
</a>
</g>
</g>
<!-- Node22&#45;&gt;Node37 -->
<g id="edge37" class="edge">
<title>Node22&#45;&gt;Node37</title>
<path fill="none" stroke="midnightblue" d="M4772.7,-140.29C4835.73,-131.53 4935.89,-116.4 5021.5,-98 5029.47,-96.29 5038.03,-94.14 5045.92,-92.02"/>
<polygon fill="midnightblue" stroke="midnightblue" points="4771.96,-136.86 4762.53,-141.7 4772.91,-143.8 4771.96,-136.86"/>
</g>
<!-- Node22&#45;&gt;Node38 -->
<g id="edge52" class="edge">
<title>Node22&#45;&gt;Node38</title>
<path fill="none" stroke="midnightblue" d="M4647.85,-148C4397.98,-145.74 3480.09,-134.98 3355.5,-98 3328.98,-90.13 3260.26,-44.37 3231.96,-25.08"/>
<polygon fill="midnightblue" stroke="midnightblue" points="4648.17,-151.5 4658.2,-148.09 4648.23,-144.5 4648.17,-151.5"/>
</g>
<!-- Node22&#45;&gt;Node39 -->
<g id="edge53" class="edge">
<title>Node22&#45;&gt;Node39</title>
<path fill="none" stroke="midnightblue" d="M4695.09,-132.17C4680.25,-114.45 4662.26,-86.12 4678.5,-67 4707.97,-32.31 4831.4,-21.4 4912.78,-18"/>
<polygon fill="midnightblue" stroke="midnightblue" points="4692.71,-134.77 4701.96,-139.94 4697.95,-130.13 4692.71,-134.77"/>
</g>
<!-- Node40 -->
<g id="node40" class="node">
<title>Node40</title>
<g id="a_node40"><a xlink:href="testADC_8cpp.html" target="_top" xlink:title=" ">
<polygon fill="white" stroke="black" points="3525,-6 3525,-25 3680,-25 3680,-6 3525,-6"/>
<text text-anchor="middle" x="3602.5" y="-13" font-family="Helvetica,sans-Serif" font-size="10.00">tests/CPU/Math/testADC.cpp</text>
</a>
</g>
</g>
<!-- Node22&#45;&gt;Node40 -->
<g id="edge54" class="edge">
<title>Node22&#45;&gt;Node40</title>
<path fill="none" stroke="midnightblue" d="M4648.37,-147.77C4422.39,-144.82 3655.36,-132.32 3616.5,-98 3595.52,-79.47 3598.38,-41.88 3600.93,-25.02"/>
<polygon fill="midnightblue" stroke="midnightblue" points="4648.35,-151.27 4658.4,-147.89 4648.44,-144.27 4648.35,-151.27"/>
</g>
<!-- Node41 -->
<g id="node41" class="node">
<title>Node41</title>
<g id="a_node41"><a xlink:href="testCMP_8cpp.html" target="_top" xlink:title=" ">
<polygon fill="white" stroke="black" points="3731.5,-6 3731.5,-25 3885.5,-25 3885.5,-6 3731.5,-6"/>
<text text-anchor="middle" x="3808.5" y="-13" font-family="Helvetica,sans-Serif" font-size="10.00">tests/CPU/Math/testCMP.cpp</text>
</a>
</g>
</g>
<!-- Node22&#45;&gt;Node41 -->
<g id="edge55" class="edge">
<title>Node22&#45;&gt;Node41</title>
<path fill="none" stroke="midnightblue" d="M4648.18,-147.37C4447.53,-143.42 3829.63,-128.79 3800.5,-98 3781.64,-78.07 3795.77,-41.87 3803.86,-25.26"/>
<polygon fill="midnightblue" stroke="midnightblue" points="4648.19,-150.87 4658.26,-147.56 4648.33,-143.87 4648.19,-150.87"/>
</g>
<!-- Node42 -->
<g id="node42" class="node">
<title>Node42</title>
<g id="a_node42"><a xlink:href="testOthersMath_8cpp.html" target="_top" xlink:title=" ">
<polygon fill="white" stroke="black" points="4092.5,-0.5 4092.5,-30.5 4238.5,-30.5 4238.5,-0.5 4092.5,-0.5"/>
<text text-anchor="start" x="4100.5" y="-18.5" font-family="Helvetica,sans-Serif" font-size="10.00">tests/CPU/Math/testOthers</text>
<text text-anchor="middle" x="4165.5" y="-7.5" font-family="Helvetica,sans-Serif" font-size="10.00">Math.cpp</text>
</a>
</g>
</g>
<!-- Node22&#45;&gt;Node42 -->
<g id="edge56" class="edge">
<title>Node22&#45;&gt;Node42</title>
<path fill="none" stroke="midnightblue" d="M4648.05,-148.43C4491.25,-147.62 4090.6,-141.29 4050.5,-98 4024.14,-69.55 4074.51,-45.09 4116.69,-30.58"/>
<polygon fill="midnightblue" stroke="midnightblue" points="4648.45,-151.94 4658.47,-148.48 4648.48,-144.94 4648.45,-151.94"/>
</g>
<!-- Node43 -->
<g id="node43" class="node">
<title>Node43</title>
<g id="a_node43"><a xlink:href="testSBC_8cpp.html" target="_top" xlink:title=" ">
<polygon fill="white" stroke="black" points="4419,-6 4419,-25 4572,-25 4572,-6 4419,-6"/>
<text text-anchor="middle" x="4495.5" y="-13" font-family="Helvetica,sans-Serif" font-size="10.00">tests/CPU/Math/testSBC.cpp</text>
</a>
</g>
</g>
<!-- Node22&#45;&gt;Node43 -->
<g id="edge57" class="edge">
<title>Node22&#45;&gt;Node43</title>
<path fill="none" stroke="midnightblue" d="M4648.17,-148.36C4493.16,-147.35 4099.91,-140.59 4060.5,-98 4051.14,-87.89 4051.34,-77.29 4060.5,-67 4083.85,-40.78 4300.06,-26.1 4418.6,-19.96"/>
<polygon fill="midnightblue" stroke="midnightblue" points="4648.45,-151.86 4658.47,-148.42 4648.49,-144.86 4648.45,-151.86"/>
</g>
<!-- Node44 -->
<g id="node44" class="node">
<title>Node44</title>
<g id="a_node44"><a xlink:href="testAddressingMode_8cpp.html" target="_top" xlink:title=" ">
<polygon fill="white" stroke="black" points="5078.5,-0.5 5078.5,-30.5 5218.5,-30.5 5218.5,-0.5 5078.5,-0.5"/>
<text text-anchor="start" x="5086.5" y="-18.5" font-family="Helvetica,sans-Serif" font-size="10.00">tests/CPU/testAddressing</text>
<text text-anchor="middle" x="5148.5" y="-7.5" font-family="Helvetica,sans-Serif" font-size="10.00">Mode.cpp</text>
</a>
</g>
</g>
<!-- Node22&#45;&gt;Node44 -->
<g id="edge58" class="edge">
<title>Node22&#45;&gt;Node44</title>
<path fill="none" stroke="midnightblue" d="M4772.84,-149.35C4876.29,-149.43 5077.15,-143.51 5128.5,-98 5147.58,-81.09 5149.92,-49.21 5149.49,-30.74"/>
<polygon fill="midnightblue" stroke="midnightblue" points="4772.85,-145.85 4762.84,-149.32 4772.83,-152.85 4772.85,-145.85"/>
</g>
<!-- Node45 -->
<g id="node45" class="node">
<title>Node45</title>
<g id="a_node45"><a xlink:href="testBits_8cpp.html" target="_top" xlink:title=" ">
<polygon fill="white" stroke="black" points="5292,-6 5292,-25 5417,-25 5417,-6 5292,-6"/>
<text text-anchor="middle" x="5354.5" y="-13" font-family="Helvetica,sans-Serif" font-size="10.00">tests/CPU/testBits.cpp</text>
</a>
</g>
</g>
<!-- Node22&#45;&gt;Node45 -->
<g id="edge59" class="edge">
<title>Node22&#45;&gt;Node45</title>
<path fill="none" stroke="midnightblue" d="M4772.59,-147.53C4979.29,-144.01 5632.81,-130.36 5663.5,-98 5672.98,-88 5672.42,-77.5 5663.5,-67 5661.44,-64.58 5497.51,-38.75 5409.29,-25"/>
<polygon fill="midnightblue" stroke="midnightblue" points="4772.45,-144.03 4762.51,-147.7 4772.57,-151.03 4772.45,-144.03"/>
</g>
<!-- Node48 -->
<g id="node46" class="node">
<title>Node48</title>
<g id="a_node46"><a xlink:href="testInterupts_8cpp.html" target="_top" xlink:title=" ">
<polygon fill="white" stroke="black" points="5462,-6 5462,-25 5611,-25 5611,-6 5462,-6"/>
<text text-anchor="middle" x="5536.5" y="-13" font-family="Helvetica,sans-Serif" font-size="10.00">tests/CPU/testInterupts.cpp</text>
</a>
</g>
</g>
<!-- Node22&#45;&gt;Node48 -->
<g id="edge60" class="edge">
<title>Node22&#45;&gt;Node48</title>
<path fill="none" stroke="midnightblue" d="M4773.05,-147.59C4982.84,-144.23 5650.18,-130.99 5681.5,-98 5716.09,-61.56 5636.68,-37 5582.25,-25.01"/>
<polygon fill="midnightblue" stroke="midnightblue" points="4772.76,-144.09 4762.82,-147.75 4772.87,-151.09 4772.76,-144.09"/>
</g>
<!-- Node49 -->
<g id="node47" class="node">
<title>Node49</title>
<g id="a_node47"><a xlink:href="testStore_8cpp.html" target="_top" xlink:title=" ">
<polygon fill="white" stroke="black" points="5643,-6 5643,-25 5774,-25 5774,-6 5643,-6"/>
<text text-anchor="middle" x="5708.5" y="-13" font-family="Helvetica,sans-Serif" font-size="10.00">tests/CPU/testStore.cpp</text>
</a>
</g>
</g>
<!-- Node22&#45;&gt;Node49 -->
<g id="edge61" class="edge">
<title>Node22&#45;&gt;Node49</title>
<path fill="none" stroke="midnightblue" d="M4772.74,-147.54C4984.66,-143.99 5666.87,-130.09 5700.5,-98 5720.45,-78.96 5714.76,-41.97 5710.83,-25.18"/>
<polygon fill="midnightblue" stroke="midnightblue" points="4772.65,-144.04 4762.71,-147.71 4772.77,-151.04 4772.65,-144.04"/>
</g>
<!-- Node50 -->
<g id="node48" class="node">
<title>Node50</title>
<g id="a_node48"><a xlink:href="testTransfers_8cpp.html" target="_top" xlink:title=" ">
<polygon fill="white" stroke="black" points="5799.5,-6 5799.5,-25 5949.5,-25 5949.5,-6 5799.5,-6"/>
<text text-anchor="middle" x="5874.5" y="-13" font-family="Helvetica,sans-Serif" font-size="10.00">tests/CPU/testTransfers.cpp</text>
</a>
</g>
</g>
<!-- Node22&#45;&gt;Node50 -->
<g id="edge62" class="edge">
<title>Node22&#45;&gt;Node50</title>
<path fill="none" stroke="midnightblue" d="M4773.05,-148.61C5037.33,-148.77 6050.98,-146.25 6097.5,-98 6107.06,-88.08 6106.1,-77.76 6097.5,-67 6091.87,-59.95 5981.83,-37.46 5918.48,-25"/>
<polygon fill="midnightblue" stroke="midnightblue" points="4772.87,-145.11 4762.86,-148.6 4772.86,-152.11 4772.87,-145.11"/>
</g>
<!-- Node51 -->
<g id="node49" class="node">
<title>Node51</title>
<g id="a_node49"><a xlink:href="testBackground_8cpp.html" target="_top" xlink:title=" ">
<polygon fill="white" stroke="black" points="5971,-6 5971,-25 6134,-25 6134,-6 5971,-6"/>
<text text-anchor="middle" x="6052.5" y="-13" font-family="Helvetica,sans-Serif" font-size="10.00">tests/PPU/testBackground.cpp</text>
</a>
</g>
</g>
<!-- Node22&#45;&gt;Node51 -->
<g id="edge63" class="edge">
<title>Node22&#45;&gt;Node51</title>
<path fill="none" stroke="midnightblue" d="M4772.93,-148.64C5039.06,-148.93 6067.34,-146.88 6114.5,-98 6137.95,-73.69 6092.44,-40.57 6067.41,-25.11"/>
<polygon fill="midnightblue" stroke="midnightblue" points="4772.68,-145.14 4762.68,-148.63 4772.67,-152.14 4772.68,-145.14"/>
</g>
<!-- Node52 -->
<g id="node50" class="node">
<title>Node52</title>
<g id="a_node50"><a xlink:href="testPpuRead_8cpp.html" target="_top" xlink:title=" ">
<polygon fill="white" stroke="black" points="6154.5,-6 6154.5,-25 6302.5,-25 6302.5,-6 6154.5,-6"/>
<text text-anchor="middle" x="6228.5" y="-13" font-family="Helvetica,sans-Serif" font-size="10.00">tests/PPU/testPpuRead.cpp</text>
</a>
</g>
</g>
<!-- Node22&#45;&gt;Node52 -->
<g id="edge64" class="edge">
<title>Node22&#45;&gt;Node52</title>
<path fill="none" stroke="midnightblue" d="M4772.96,-148.67C5030.67,-149.04 6003.74,-147.14 6131.5,-98 6171.94,-82.45 6207.58,-42.57 6221.86,-25.01"/>
<polygon fill="midnightblue" stroke="midnightblue" points="4772.67,-145.17 4762.66,-148.65 4772.66,-152.17 4772.67,-145.17"/>
</g>
<!-- Node37&#45;&gt;Node36 -->
<g id="edge38" class="edge">
<title>Node37&#45;&gt;Node36</title>
<path fill="none" stroke="midnightblue" d="M5038.78,-70.39C5033.04,-69.02 5027.14,-67.81 5021.5,-67 4690.16,-19.25 3849.43,-54.62 3515.5,-31 3495.77,-29.6 3474.33,-27.34 3454.97,-25.01"/>
<polygon fill="midnightblue" stroke="midnightblue" points="5038.29,-73.88 5048.85,-72.99 5040.04,-67.1 5038.29,-73.88"/>
</g>
<!-- Node37&#45;&gt;Node38 -->
<g id="edge39" class="edge">
<title>Node37&#45;&gt;Node38</title>
<path fill="none" stroke="midnightblue" d="M5038.78,-70.38C5033.04,-69.01 5027.15,-67.81 5021.5,-67 4647.21,-13.59 3697.32,-61.92 3320.5,-31 3304.08,-29.65 3286.26,-27.37 3270.23,-25.01"/>
<polygon fill="midnightblue" stroke="midnightblue" points="5038.29,-73.86 5048.85,-72.98 5040.04,-67.09 5038.29,-73.86"/>
</g>
<!-- Node37&#45;&gt;Node39 -->
<g id="edge40" class="edge">
<title>Node37&#45;&gt;Node39</title>
<path fill="none" stroke="midnightblue" d="M5055.05,-66.57C5037.49,-53.74 5012.77,-35.69 4998.31,-25.13"/>
<polygon fill="midnightblue" stroke="midnightblue" points="5053.36,-69.66 5063.5,-72.73 5057.49,-64.01 5053.36,-69.66"/>
</g>
<!-- Node37&#45;&gt;Node40 -->
<g id="edge41" class="edge">
<title>Node37&#45;&gt;Node40</title>
<path fill="none" stroke="midnightblue" d="M5038.59,-70.36C5032.91,-69.01 5027.08,-67.82 5021.5,-67 4735.75,-25.27 4010.49,-52.34 3722.5,-31 3703.35,-29.58 3682.56,-27.32 3663.75,-25.01"/>
<polygon fill="midnightblue" stroke="midnightblue" points="5038.01,-73.83 5048.57,-72.94 5039.76,-67.05 5038.01,-73.83"/>
</g>
<!-- Node37&#45;&gt;Node41 -->
<g id="edge42" class="edge">
<title>Node37&#45;&gt;Node41</title>
<path fill="none" stroke="midnightblue" d="M5038.59,-70.42C5032.91,-69.05 5027.08,-67.85 5021.5,-67 4609.01,-4.51 4500.26,-49.98 4083.5,-31 4016.64,-27.95 3940.66,-23.9 3885.53,-20.86"/>
<polygon fill="midnightblue" stroke="midnightblue" points="5038,-73.88 5048.56,-73 5039.75,-67.1 5038,-73.88"/>
</g>
<!-- Node37&#45;&gt;Node42 -->
<g id="edge43" class="edge">
<title>Node37&#45;&gt;Node42</title>
<path fill="none" stroke="midnightblue" d="M5038.2,-70.43C5032.64,-69.09 5026.95,-67.88 5021.5,-67 4752.53,-23.44 4681.5,-47.08 4409.5,-31 4352.1,-27.61 4287.11,-23.74 4238.64,-20.86"/>
<polygon fill="midnightblue" stroke="midnightblue" points="5037.43,-73.85 5047.99,-72.95 5039.18,-67.07 5037.43,-73.85"/>
</g>
<!-- Node37&#45;&gt;Node43 -->
<g id="edge44" class="edge">
<title>Node37&#45;&gt;Node43</title>
<path fill="none" stroke="midnightblue" d="M5037.22,-70.38C5031.97,-69.1 5026.62,-67.93 5021.5,-67 4863.3,-38.37 4675.19,-25.27 4572.27,-19.86"/>
<polygon fill="midnightblue" stroke="midnightblue" points="5036.56,-73.82 5047.12,-72.93 5038.3,-67.05 5036.56,-73.82"/>
</g>
<!-- Node37&#45;&gt;Node44 -->
<g id="edge45" class="edge">
<title>Node37&#45;&gt;Node44</title>
<path fill="none" stroke="midnightblue" d="M5092.99,-65.93C5105.06,-55.18 5120.98,-41 5132.68,-30.59"/>
<polygon fill="midnightblue" stroke="midnightblue" points="5090.49,-63.47 5085.35,-72.73 5095.14,-68.7 5090.49,-63.47"/>
</g>
<!-- Node37&#45;&gt;Node45 -->
<g id="edge46" class="edge">
<title>Node37&#45;&gt;Node45</title>
<path fill="none" stroke="midnightblue" d="M5122.1,-70.64C5177.07,-57.84 5267.33,-36.81 5317.66,-25.08"/>
<polygon fill="midnightblue" stroke="midnightblue" points="5121.21,-67.26 5112.26,-72.94 5122.79,-74.08 5121.21,-67.26"/>
</g>
<!-- Node37&#45;&gt;Node48 -->
<g id="edge47" class="edge">
<title>Node37&#45;&gt;Node48</title>
<path fill="none" stroke="midnightblue" d="M5130.44,-72.65C5142.64,-70.74 5155.5,-68.77 5167.5,-67 5273.69,-51.37 5397.32,-34.77 5471.12,-25.04"/>
<polygon fill="midnightblue" stroke="midnightblue" points="5129.73,-69.22 5120.39,-74.24 5130.82,-76.14 5129.73,-69.22"/>
</g>
<!-- Node37&#45;&gt;Node49 -->
<g id="edge48" class="edge">
<title>Node37&#45;&gt;Node49</title>
<path fill="none" stroke="midnightblue" d="M5130.38,-72.14C5142.57,-70.26 5155.46,-68.43 5167.5,-67 5367.63,-43.3 5419.44,-55.22 5619.5,-31 5632.87,-29.38 5647.3,-27.21 5660.57,-25.05"/>
<polygon fill="midnightblue" stroke="midnightblue" points="5129.66,-68.71 5120.33,-73.73 5130.75,-75.63 5129.66,-68.71"/>
</g>
<!-- Node37&#45;&gt;Node50 -->
<g id="edge49" class="edge">
<title>Node37&#45;&gt;Node50</title>
<path fill="none" stroke="midnightblue" d="M5130.36,-71.95C5142.55,-70.08 5155.44,-68.3 5167.5,-67 5439.72,-37.65 5510.28,-60.35 5782.5,-31 5796.65,-29.47 5811.94,-27.28 5825.92,-25.07"/>
<polygon fill="midnightblue" stroke="midnightblue" points="5129.64,-68.52 5120.3,-73.54 5130.73,-75.44 5129.64,-68.52"/>
</g>
<!-- Node37&#45;&gt;Node51 -->
<g id="edge50" class="edge">
<title>Node37&#45;&gt;Node51</title>
<path fill="none" stroke="midnightblue" d="M5130.34,-71.84C5142.54,-69.97 5155.43,-68.22 5167.5,-67 5517.63,-31.55 5608.31,-65.88 5958.5,-31 5973.29,-29.53 5989.3,-27.3 6003.84,-25.03"/>
<polygon fill="midnightblue" stroke="midnightblue" points="5129.63,-68.41 5120.29,-73.42 5130.72,-75.32 5129.63,-68.41"/>
</g>
<!-- Node37&#45;&gt;Node52 -->
<g id="edge51" class="edge">
<title>Node37&#45;&gt;Node52</title>
<path fill="none" stroke="midnightblue" d="M5130.34,-71.76C5142.54,-69.9 5155.43,-68.17 5167.5,-67 5599.55,-25.14 5711.72,-75.59 6143.5,-31 6157.05,-29.6 6171.71,-27.36 6184.97,-25.06"/>
<polygon fill="midnightblue" stroke="midnightblue" points="5129.62,-68.33 5120.28,-73.34 5130.71,-75.24 5129.62,-68.33"/>
</g>
</g>
</svg>
