<?xml version="1.0" encoding="UTF-8" standalone="no"?>
<!DOCTYPE svg PUBLIC "-//W3C//DTD SVG 1.1//EN"
 "http://www.w3.org/Graphics/SVG/1.1/DTD/svg11.dtd">
<!-- Generated by graphviz version 2.43.0 (0)
 -->
<!-- Title: sources/Memory/ARectangleMemory.cpp Pages: 1 -->
<svg width="889pt" height="263pt"
 viewBox="0.00 0.00 889.44 263.00" xmlns="http://www.w3.org/2000/svg" xmlns:xlink="http://www.w3.org/1999/xlink">
<g id="graph0" class="graph" transform="scale(1 1) rotate(0) translate(4 259)">
<title>sources/Memory/ARectangleMemory.cpp</title>
<polygon fill="white" stroke="transparent" points="-4,4 -4,-259 885.44,-259 885.44,4 -4,4"/>
<!-- Node1 -->
<g id="node1" class="node">
<title>Node1</title>
<g id="a_node1"><a xlink:title=" ">
<polygon fill="#bfbfbf" stroke="black" points="294.94,-224.5 294.94,-254.5 450.94,-254.5 450.94,-224.5 294.94,-224.5"/>
<text text-anchor="start" x="302.94" y="-242.5" font-family="Helvetica,sans-Serif" font-size="10.00">sources/Memory/ARectangle</text>
<text text-anchor="middle" x="372.94" y="-231.5" font-family="Helvetica,sans-Serif" font-size="10.00">Memory.cpp</text>
</a>
</g>
</g>
<!-- Node2 -->
<g id="node2" class="node">
<title>Node2</title>
<g id="a_node2"><a xlink:title=" ">
<polygon fill="white" stroke="#bfbfbf" points="137.94,-0.5 137.94,-19.5 197.94,-19.5 197.94,-0.5 137.94,-0.5"/>
<text text-anchor="middle" x="167.94" y="-7.5" font-family="Helvetica,sans-Serif" font-size="10.00">iostream</text>
</a>
</g>
</g>
<!-- Node1&#45;&gt;Node2 -->
<g id="edge1" class="edge">
<title>Node1&#45;&gt;Node2</title>
<path fill="none" stroke="midnightblue" d="M294.9,-228.81C207.49,-213.32 69.71,-173.97 5.94,-76 -24.09,-29.85 70.11,-16.47 127.33,-12.59"/>
<polygon fill="midnightblue" stroke="midnightblue" points="127.77,-16.07 137.54,-11.97 127.35,-9.08 127.77,-16.07"/>
</g>
<!-- Node3 -->
<g id="node3" class="node">
<title>Node3</title>
<g id="a_node3"><a xlink:href="ARectangleMemory_8hpp.html" target="_top" xlink:title=" ">
<polygon fill="white" stroke="black" points="306.94,-168.5 306.94,-187.5 438.94,-187.5 438.94,-168.5 306.94,-168.5"/>
<text text-anchor="middle" x="372.94" y="-175.5" font-family="Helvetica,sans-Serif" font-size="10.00">ARectangleMemory.hpp</text>
</a>
</g>
</g>
<!-- Node1&#45;&gt;Node3 -->
<g id="edge2" class="edge">
<title>Node1&#45;&gt;Node3</title>
<path fill="none" stroke="midnightblue" d="M372.94,-224.4C372.94,-216.47 372.94,-206.46 372.94,-197.86"/>
<polygon fill="midnightblue" stroke="midnightblue" points="376.44,-197.66 372.94,-187.66 369.44,-197.66 376.44,-197.66"/>
</g>
<!-- Node12 -->
<g id="node12" class="node">
<title>Node12</title>
<g id="a_node12"><a xlink:href="InvalidAddress_8hpp.html" target="_top" xlink:title=" ">
<polygon fill="white" stroke="black" points="504.94,-112.5 504.94,-131.5 670.94,-131.5 670.94,-112.5 504.94,-112.5"/>
<text text-anchor="middle" x="587.94" y="-119.5" font-family="Helvetica,sans-Serif" font-size="10.00">Exceptions/InvalidAddress.hpp</text>
</a>
</g>
</g>
<!-- Node1&#45;&gt;Node12 -->
<g id="edge13" class="edge">
<title>Node1&#45;&gt;Node12</title>
<path fill="none" stroke="midnightblue" d="M399.3,-224.34C441.14,-201.86 522.17,-158.33 563.06,-136.37"/>
<polygon fill="midnightblue" stroke="midnightblue" points="564.92,-139.34 572.08,-131.52 561.61,-133.17 564.92,-139.34"/>
</g>
<!-- Node4 -->
<g id="node4" class="node">
<title>Node4</title>
<g id="a_node4"><a xlink:href="IMemory_8hpp.html" target="_top" xlink:title=" ">
<polygon fill="white" stroke="black" points="298.94,-112.5 298.94,-131.5 378.94,-131.5 378.94,-112.5 298.94,-112.5"/>
<text text-anchor="middle" x="338.94" y="-119.5" font-family="Helvetica,sans-Serif" font-size="10.00">IMemory.hpp</text>
</a>
</g>
</g>
<!-- Node3&#45;&gt;Node4 -->
<g id="edge3" class="edge">
<title>Node3&#45;&gt;Node4</title>
<path fill="none" stroke="midnightblue" d="M367.33,-168.08C362.57,-160.53 355.62,-149.49 349.79,-140.23"/>
<polygon fill="midnightblue" stroke="midnightblue" points="352.74,-138.35 344.45,-131.75 346.82,-142.08 352.74,-138.35"/>
</g>
<!-- Node9 -->
<g id="node9" class="node">
<title>Node9</title>
<g id="a_node9"><a xlink:href="Ints_8hpp.html" target="_top" xlink:title=" ">
<polygon fill="white" stroke="black" points="380.94,-56.5 380.94,-75.5 474.94,-75.5 474.94,-56.5 380.94,-56.5"/>
<text text-anchor="middle" x="427.94" y="-63.5" font-family="Helvetica,sans-Serif" font-size="10.00">Models/Ints.hpp</text>
</a>
</g>
</g>
<!-- Node3&#45;&gt;Node9 -->
<g id="edge12" class="edge">
<title>Node3&#45;&gt;Node9</title>
<path fill="none" stroke="midnightblue" d="M377.26,-168.37C386.25,-150.38 407.17,-108.55 419.13,-84.63"/>
<polygon fill="midnightblue" stroke="midnightblue" points="422.3,-86.1 423.65,-75.59 416.04,-82.97 422.3,-86.1"/>
</g>
<!-- Node5 -->
<g id="node5" class="node">
<title>Node5</title>
<g id="a_node5"><a xlink:title=" ">
<polygon fill="white" stroke="#bfbfbf" points="246.94,-56.5 246.94,-75.5 296.94,-75.5 296.94,-56.5 246.94,-56.5"/>
<text text-anchor="middle" x="271.94" y="-63.5" font-family="Helvetica,sans-Serif" font-size="10.00">cstdint</text>
</a>
</g>
</g>
<!-- Node4&#45;&gt;Node5 -->
<g id="edge4" class="edge">
<title>Node4&#45;&gt;Node5</title>
<path fill="none" stroke="midnightblue" d="M328.18,-112.32C318.18,-104.26 303.05,-92.08 291.01,-82.37"/>
<polygon fill="midnightblue" stroke="midnightblue" points="292.88,-79.38 282.9,-75.83 288.49,-84.83 292.88,-79.38"/>
</g>
<!-- Node6 -->
<g id="node6" class="node">
<title>Node6</title>
<g id="a_node6"><a xlink:title=" ">
<polygon fill="white" stroke="#bfbfbf" points="315.44,-56.5 315.44,-75.5 362.44,-75.5 362.44,-56.5 315.44,-56.5"/>
<text text-anchor="middle" x="338.94" y="-63.5" font-family="Helvetica,sans-Serif" font-size="10.00">vector</text>
</a>
</g>
</g>
<!-- Node4&#45;&gt;Node6 -->
<g id="edge5" class="edge">
<title>Node4&#45;&gt;Node6</title>
<path fill="none" stroke="midnightblue" d="M338.94,-112.08C338.94,-105.01 338.94,-94.86 338.94,-85.99"/>
<polygon fill="midnightblue" stroke="midnightblue" points="342.44,-85.75 338.94,-75.75 335.44,-85.75 342.44,-85.75"/>
</g>
<!-- Node7 -->
<g id="node7" class="node">
<title>Node7</title>
<g id="a_node7"><a xlink:title=" ">
<polygon fill="white" stroke="#bfbfbf" points="14.94,-56.5 14.94,-75.5 72.94,-75.5 72.94,-56.5 14.94,-56.5"/>
<text text-anchor="middle" x="43.94" y="-63.5" font-family="Helvetica,sans-Serif" font-size="10.00">memory</text>
</a>
</g>
</g>
<!-- Node4&#45;&gt;Node7 -->
<g id="edge6" class="edge">
<title>Node4&#45;&gt;Node7</title>
<path fill="none" stroke="midnightblue" d="M298.74,-114.72C250.02,-106.94 165.21,-92.86 82.96,-76.11"/>
<polygon fill="midnightblue" stroke="midnightblue" points="83.45,-72.64 72.95,-74.06 82.04,-79.5 83.45,-72.64"/>
</g>
<!-- Node8 -->
<g id="node8" class="node">
<title>Node8</title>
<g id="a_node8"><a xlink:title=" ">
<polygon fill="white" stroke="#bfbfbf" points="492.94,-56.5 492.94,-75.5 536.94,-75.5 536.94,-56.5 492.94,-56.5"/>
<text text-anchor="middle" x="514.94" y="-63.5" font-family="Helvetica,sans-Serif" font-size="10.00">string</text>
</a>
</g>
</g>
<!-- Node4&#45;&gt;Node8 -->
<g id="edge7" class="edge">
<title>Node4&#45;&gt;Node8</title>
<path fill="none" stroke="midnightblue" d="M366.83,-112.44C398.45,-102.74 449.91,-86.95 483.09,-76.77"/>
<polygon fill="midnightblue" stroke="midnightblue" points="484.22,-80.09 492.76,-73.81 482.17,-73.39 484.22,-80.09"/>
</g>
<!-- Node4&#45;&gt;Node9 -->
<g id="edge8" class="edge">
<title>Node4&#45;&gt;Node9</title>
<path fill="none" stroke="midnightblue" d="M353.24,-112.32C367.12,-103.9 388.43,-90.97 404.75,-81.07"/>
<polygon fill="midnightblue" stroke="midnightblue" points="406.94,-83.83 413.68,-75.65 403.31,-77.85 406.94,-83.83"/>
</g>
<!-- Node11 -->
<g id="node11" class="node">
<title>Node11</title>
<g id="a_node11"><a xlink:href="Components_8hpp.html" target="_top" xlink:title=" ">
<polygon fill="white" stroke="black" points="91.44,-56.5 91.44,-75.5 228.44,-75.5 228.44,-56.5 91.44,-56.5"/>
<text text-anchor="middle" x="159.94" y="-63.5" font-family="Helvetica,sans-Serif" font-size="10.00">Models/Components.hpp</text>
</a>
</g>
</g>
<!-- Node4&#45;&gt;Node11 -->
<g id="edge11" class="edge">
<title>Node4&#45;&gt;Node11</title>
<path fill="none" stroke="midnightblue" d="M310.58,-112.44C280.2,-103.28 231.83,-88.69 198.13,-78.52"/>
<polygon fill="midnightblue" stroke="midnightblue" points="198.76,-75.05 188.17,-75.52 196.73,-81.76 198.76,-75.05"/>
</g>
<!-- Node9&#45;&gt;Node2 -->
<g id="edge10" class="edge">
<title>Node9&#45;&gt;Node2</title>
<path fill="none" stroke="midnightblue" d="M386.74,-56.44C337.68,-46.25 256.3,-29.35 207.82,-19.28"/>
<polygon fill="midnightblue" stroke="midnightblue" points="208.51,-15.85 198,-17.24 207.08,-22.7 208.51,-15.85"/>
</g>
<!-- Node10 -->
<g id="node10" class="node">
<title>Node10</title>
<g id="a_node10"><a xlink:title=" ">
<polygon fill="white" stroke="#bfbfbf" points="396.94,-0.5 396.94,-19.5 458.94,-19.5 458.94,-0.5 396.94,-0.5"/>
<text text-anchor="middle" x="427.94" y="-7.5" font-family="Helvetica,sans-Serif" font-size="10.00">cinttypes</text>
</a>
</g>
</g>
<!-- Node9&#45;&gt;Node10 -->
<g id="edge9" class="edge">
<title>Node9&#45;&gt;Node10</title>
<path fill="none" stroke="midnightblue" d="M427.94,-56.08C427.94,-49.01 427.94,-38.86 427.94,-29.99"/>
<polygon fill="midnightblue" stroke="midnightblue" points="431.44,-29.75 427.94,-19.75 424.44,-29.75 431.44,-29.75"/>
</g>
<!-- Node12&#45;&gt;Node8 -->
<g id="edge20" class="edge">
<title>Node12&#45;&gt;Node8</title>
<path fill="none" stroke="midnightblue" d="M576.21,-112.32C565.1,-104.11 548.2,-91.6 534.96,-81.81"/>
<polygon fill="midnightblue" stroke="midnightblue" points="537,-78.97 526.88,-75.83 532.84,-84.59 537,-78.97"/>
</g>
<!-- Node12&#45;&gt;Node9 -->
<g id="edge16" class="edge">
<title>Node12&#45;&gt;Node9</title>
<path fill="none" stroke="midnightblue" d="M562.59,-112.44C535.67,-103.36 492.95,-88.94 462.85,-78.78"/>
<polygon fill="midnightblue" stroke="midnightblue" points="463.77,-75.4 453.18,-75.52 461.53,-82.03 463.77,-75.4"/>
</g>
<!-- Node13 -->
<g id="node13" class="node">
<title>Node13</title>
<g id="a_node13"><a xlink:href="DebuggableError_8hpp.html" target="_top" xlink:title=" ">
<polygon fill="white" stroke="black" points="762.44,-56.5 762.44,-75.5 881.44,-75.5 881.44,-56.5 762.44,-56.5"/>
<text text-anchor="middle" x="821.94" y="-63.5" font-family="Helvetica,sans-Serif" font-size="10.00">DebuggableError.hpp</text>
</a>
</g>
</g>
<!-- Node12&#45;&gt;Node13 -->
<g id="edge14" class="edge">
<title>Node12&#45;&gt;Node13</title>
<path fill="none" stroke="midnightblue" d="M625.02,-112.44C665.67,-103.06 730.97,-87.99 775.13,-77.8"/>
<polygon fill="midnightblue" stroke="midnightblue" points="776.08,-81.18 785.04,-75.52 774.51,-74.35 776.08,-81.18"/>
</g>
<!-- Node15 -->
<g id="node15" class="node">
<title>Node15</title>
<g id="a_node15"><a xlink:title=" ">
<polygon fill="white" stroke="#bfbfbf" points="555.44,-56.5 555.44,-75.5 620.44,-75.5 620.44,-56.5 555.44,-56.5"/>
<text text-anchor="middle" x="587.94" y="-63.5" font-family="Helvetica,sans-Serif" font-size="10.00">exception</text>
</a>
</g>
</g>
<!-- Node12&#45;&gt;Node15 -->
<g id="edge17" class="edge">
<title>Node12&#45;&gt;Node15</title>
<path fill="none" stroke="midnightblue" d="M587.94,-112.08C587.94,-105.01 587.94,-94.86 587.94,-85.99"/>
<polygon fill="midnightblue" stroke="midnightblue" points="591.44,-85.75 587.94,-75.75 584.44,-85.75 591.44,-85.75"/>
</g>
<!-- Node16 -->
<g id="node16" class="node">
<title>Node16</title>
<g id="a_node16"><a xlink:title=" ">
<polygon fill="white" stroke="#bfbfbf" points="638.44,-56.5 638.44,-75.5 669.44,-75.5 669.44,-56.5 638.44,-56.5"/>
<text text-anchor="middle" x="653.94" y="-63.5" font-family="Helvetica,sans-Serif" font-size="10.00">ios</text>
</a>
</g>
</g>
<!-- Node12&#45;&gt;Node16 -->
<g id="edge18" class="edge">
<title>Node12&#45;&gt;Node16</title>
<path fill="none" stroke="midnightblue" d="M598.55,-112.32C608.4,-104.26 623.29,-92.08 635.16,-82.37"/>
<polygon fill="midnightblue" stroke="midnightblue" points="637.62,-84.88 643.14,-75.83 633.19,-79.46 637.62,-84.88"/>
</g>
<!-- Node17 -->
<g id="node17" class="node">
<title>Node17</title>
<g id="a_node17"><a xlink:title=" ">
<polygon fill="white" stroke="#bfbfbf" points="687.94,-56.5 687.94,-75.5 743.94,-75.5 743.94,-56.5 687.94,-56.5"/>
<text text-anchor="middle" x="715.94" y="-63.5" font-family="Helvetica,sans-Serif" font-size="10.00">sstream</text>
</a>
</g>
</g>
<!-- Node12&#45;&gt;Node17 -->
<g id="edge19" class="edge">
<title>Node12&#45;&gt;Node17</title>
<path fill="none" stroke="midnightblue" d="M608.22,-112.44C629.29,-103.56 662.46,-89.56 686.43,-79.45"/>
<polygon fill="midnightblue" stroke="midnightblue" points="687.9,-82.63 695.75,-75.52 685.18,-76.18 687.9,-82.63"/>
</g>
<!-- Node14 -->
<g id="node14" class="node">
<title>Node14</title>
<g id="a_node14"><a xlink:title=" ">
<polygon fill="white" stroke="#bfbfbf" points="774.44,-0.5 774.44,-19.5 869.44,-19.5 869.44,-0.5 774.44,-0.5"/>
<text text-anchor="middle" x="821.94" y="-7.5" font-family="Helvetica,sans-Serif" font-size="10.00">bits/exception.h</text>
</a>
</g>
</g>
<!-- Node13&#45;&gt;Node14 -->
<g id="edge15" class="edge">
<title>Node13&#45;&gt;Node14</title>
<path fill="none" stroke="midnightblue" d="M821.94,-56.08C821.94,-49.01 821.94,-38.86 821.94,-29.99"/>
<polygon fill="midnightblue" stroke="midnightblue" points="825.44,-29.75 821.94,-19.75 818.44,-29.75 825.44,-29.75"/>
</g>
</g>
</svg>
