<?xml version="1.0" encoding="UTF-8" standalone="no"?>
<!DOCTYPE svg PUBLIC "-//W3C//DTD SVG 1.1//EN"
 "http://www.w3.org/Graphics/SVG/1.1/DTD/svg11.dtd">
<!-- Generated by graphviz version 2.43.0 (0)
 -->
<!-- Title: sources/Memory/ARectangleMemory.hpp Pages: 1 -->
<svg width="553pt" height="207pt"
 viewBox="0.00 0.00 553.00 207.00" xmlns="http://www.w3.org/2000/svg" xmlns:xlink="http://www.w3.org/1999/xlink">
<g id="graph0" class="graph" transform="scale(1 1) rotate(0) translate(4 203)">
<title>sources/Memory/ARectangleMemory.hpp</title>
<polygon fill="white" stroke="transparent" points="-4,4 -4,-203 549,-203 549,4 -4,4"/>
<!-- Node1 -->
<g id="node1" class="node">
<title>Node1</title>
<g id="a_node1"><a xlink:title=" ">
<polygon fill="#bfbfbf" stroke="black" points="188,-168.5 188,-198.5 344,-198.5 344,-168.5 188,-168.5"/>
<text text-anchor="start" x="196" y="-186.5" font-family="Helvetica,sans-Serif" font-size="10.00">sources/Memory/ARectangle</text>
<text text-anchor="middle" x="266" y="-175.5" font-family="Helvetica,sans-Serif" font-size="10.00">Memory.hpp</text>
</a>
</g>
</g>
<!-- Node2 -->
<g id="node2" class="node">
<title>Node2</title>
<g id="a_node2"><a xlink:href="IMemory_8hpp.html" target="_top" xlink:title=" ">
<polygon fill="white" stroke="black" points="192,-112.5 192,-131.5 272,-131.5 272,-112.5 192,-112.5"/>
<text text-anchor="middle" x="232" y="-119.5" font-family="Helvetica,sans-Serif" font-size="10.00">IMemory.hpp</text>
</a>
</g>
</g>
<!-- Node1&#45;&gt;Node2 -->
<g id="edge1" class="edge">
<title>Node1&#45;&gt;Node2</title>
<path fill="none" stroke="midnightblue" d="M257.94,-168.4C253.15,-160.02 247.04,-149.33 241.96,-140.42"/>
<polygon fill="midnightblue" stroke="midnightblue" points="244.95,-138.6 236.95,-131.66 238.87,-142.08 244.95,-138.6"/>
</g>
<!-- Node7 -->
<g id="node7" class="node">
<title>Node7</title>
<g id="a_node7"><a xlink:href="Ints_8hpp.html" target="_top" xlink:title=" ">
<polygon fill="white" stroke="black" points="428,-56.5 428,-75.5 522,-75.5 522,-56.5 428,-56.5"/>
<text text-anchor="middle" x="475" y="-63.5" font-family="Helvetica,sans-Serif" font-size="10.00">Models/Ints.hpp</text>
</a>
</g>
</g>
<!-- Node1&#45;&gt;Node7 -->
<g id="edge10" class="edge">
<title>Node1&#45;&gt;Node7</title>
<path fill="none" stroke="midnightblue" d="M291.63,-168.34C332.3,-145.86 411.06,-102.33 450.81,-80.37"/>
<polygon fill="midnightblue" stroke="midnightblue" points="452.52,-83.42 459.58,-75.52 449.13,-77.3 452.52,-83.42"/>
</g>
<!-- Node3 -->
<g id="node3" class="node">
<title>Node3</title>
<g id="a_node3"><a xlink:title=" ">
<polygon fill="white" stroke="#bfbfbf" points="0,-56.5 0,-75.5 50,-75.5 50,-56.5 0,-56.5"/>
<text text-anchor="middle" x="25" y="-63.5" font-family="Helvetica,sans-Serif" font-size="10.00">cstdint</text>
</a>
</g>
</g>
<!-- Node2&#45;&gt;Node3 -->
<g id="edge2" class="edge">
<title>Node2&#45;&gt;Node3</title>
<path fill="none" stroke="midnightblue" d="M199.15,-112.5C166.31,-103.99 114.12,-90.45 60.01,-76.26"/>
<polygon fill="midnightblue" stroke="midnightblue" points="60.81,-72.85 50.25,-73.7 59.03,-79.62 60.81,-72.85"/>
</g>
<!-- Node4 -->
<g id="node4" class="node">
<title>Node4</title>
<g id="a_node4"><a xlink:title=" ">
<polygon fill="white" stroke="#bfbfbf" points="68.5,-56.5 68.5,-75.5 115.5,-75.5 115.5,-56.5 68.5,-56.5"/>
<text text-anchor="middle" x="92" y="-63.5" font-family="Helvetica,sans-Serif" font-size="10.00">vector</text>
</a>
</g>
</g>
<!-- Node2&#45;&gt;Node4 -->
<g id="edge3" class="edge">
<title>Node2&#45;&gt;Node4</title>
<path fill="none" stroke="midnightblue" d="M209.82,-112.44C186.57,-103.48 149.85,-89.31 123.58,-79.18"/>
<polygon fill="midnightblue" stroke="midnightblue" points="124.67,-75.85 114.08,-75.52 122.15,-82.38 124.67,-75.85"/>
</g>
<!-- Node5 -->
<g id="node5" class="node">
<title>Node5</title>
<g id="a_node5"><a xlink:title=" ">
<polygon fill="white" stroke="#bfbfbf" points="134,-56.5 134,-75.5 192,-75.5 192,-56.5 134,-56.5"/>
<text text-anchor="middle" x="163" y="-63.5" font-family="Helvetica,sans-Serif" font-size="10.00">memory</text>
</a>
</g>
</g>
<!-- Node2&#45;&gt;Node5 -->
<g id="edge4" class="edge">
<title>Node2&#45;&gt;Node5</title>
<path fill="none" stroke="midnightblue" d="M220.91,-112.32C210.51,-104.18 194.74,-91.84 182.28,-82.09"/>
<polygon fill="midnightblue" stroke="midnightblue" points="184.32,-79.24 174.29,-75.83 180.01,-84.75 184.32,-79.24"/>
</g>
<!-- Node6 -->
<g id="node6" class="node">
<title>Node6</title>
<g id="a_node6"><a xlink:title=" ">
<polygon fill="white" stroke="#bfbfbf" points="210,-56.5 210,-75.5 254,-75.5 254,-56.5 210,-56.5"/>
<text text-anchor="middle" x="232" y="-63.5" font-family="Helvetica,sans-Serif" font-size="10.00">string</text>
</a>
</g>
</g>
<!-- Node2&#45;&gt;Node6 -->
<g id="edge5" class="edge">
<title>Node2&#45;&gt;Node6</title>
<path fill="none" stroke="midnightblue" d="M232,-112.08C232,-105.01 232,-94.86 232,-85.99"/>
<polygon fill="midnightblue" stroke="midnightblue" points="235.5,-85.75 232,-75.75 228.5,-85.75 235.5,-85.75"/>
</g>
<!-- Node2&#45;&gt;Node7 -->
<g id="edge6" class="edge">
<title>Node2&#45;&gt;Node7</title>
<path fill="none" stroke="midnightblue" d="M270.5,-112.44C312.81,-103.04 380.82,-87.93 426.67,-77.74"/>
<polygon fill="midnightblue" stroke="midnightblue" points="427.67,-81.1 436.68,-75.52 426.15,-74.27 427.67,-81.1"/>
</g>
<!-- Node10 -->
<g id="node10" class="node">
<title>Node10</title>
<g id="a_node10"><a xlink:href="Components_8hpp.html" target="_top" xlink:title=" ">
<polygon fill="white" stroke="black" points="272.5,-56.5 272.5,-75.5 409.5,-75.5 409.5,-56.5 272.5,-56.5"/>
<text text-anchor="middle" x="341" y="-63.5" font-family="Helvetica,sans-Serif" font-size="10.00">Models/Components.hpp</text>
</a>
</g>
</g>
<!-- Node2&#45;&gt;Node10 -->
<g id="edge9" class="edge">
<title>Node2&#45;&gt;Node10</title>
<path fill="none" stroke="midnightblue" d="M249.51,-112.32C267.07,-103.62 294.33,-90.12 314.53,-80.11"/>
<polygon fill="midnightblue" stroke="midnightblue" points="316.12,-83.23 323.53,-75.65 313.02,-76.96 316.12,-83.23"/>
</g>
<!-- Node8 -->
<g id="node8" class="node">
<title>Node8</title>
<g id="a_node8"><a xlink:title=" ">
<polygon fill="white" stroke="#bfbfbf" points="405,-0.5 405,-19.5 467,-19.5 467,-0.5 405,-0.5"/>
<text text-anchor="middle" x="436" y="-7.5" font-family="Helvetica,sans-Serif" font-size="10.00">cinttypes</text>
</a>
</g>
</g>
<!-- Node7&#45;&gt;Node8 -->
<g id="edge7" class="edge">
<title>Node7&#45;&gt;Node8</title>
<path fill="none" stroke="midnightblue" d="M468.56,-56.08C463.05,-48.46 454.97,-37.26 448.24,-27.94"/>
<polygon fill="midnightblue" stroke="midnightblue" points="451.01,-25.81 442.32,-19.75 445.34,-29.91 451.01,-25.81"/>
</g>
<!-- Node9 -->
<g id="node9" class="node">
<title>Node9</title>
<g id="a_node9"><a xlink:title=" ">
<polygon fill="white" stroke="#bfbfbf" points="485,-0.5 485,-19.5 545,-19.5 545,-0.5 485,-0.5"/>
<text text-anchor="middle" x="515" y="-7.5" font-family="Helvetica,sans-Serif" font-size="10.00">iostream</text>
</a>
</g>
</g>
<!-- Node7&#45;&gt;Node9 -->
<g id="edge8" class="edge">
<title>Node7&#45;&gt;Node9</title>
<path fill="none" stroke="midnightblue" d="M481.61,-56.08C487.26,-48.46 495.54,-37.26 502.45,-27.94"/>
<polygon fill="midnightblue" stroke="midnightblue" points="505.38,-29.87 508.52,-19.75 499.75,-25.7 505.38,-29.87"/>
</g>
</g>
</svg>
