<?xml version="1.0" encoding="UTF-8" standalone="no"?>
<!DOCTYPE svg PUBLIC "-//W3C//DTD SVG 1.1//EN"
 "http://www.w3.org/Graphics/SVG/1.1/DTD/svg11.dtd">
<!-- Generated by graphviz version 2.43.0 (0)
 -->
<!-- Title: sources/PPU/Background.hpp Pages: 1 -->
<svg width="4431pt" height="285pt"
 viewBox="0.00 0.00 4431.00 285.00" xmlns="http://www.w3.org/2000/svg" xmlns:xlink="http://www.w3.org/1999/xlink">
<g id="graph0" class="graph" transform="scale(1 1) rotate(0) translate(4 281)">
<title>sources/PPU/Background.hpp</title>
<polygon fill="white" stroke="transparent" points="-4,4 -4,-281 4427,-281 4427,4 -4,4"/>
<!-- Node1 -->
<g id="node1" class="node">
<title>Node1</title>
<g id="a_node1"><a xlink:title=" ">
<polygon fill="#bfbfbf" stroke="black" points="3697.5,-257.5 3697.5,-276.5 3855.5,-276.5 3855.5,-257.5 3697.5,-257.5"/>
<text text-anchor="middle" x="3776.5" y="-264.5" font-family="Helvetica,sans-Serif" font-size="10.00">sources/PPU/Background.hpp</text>
</a>
</g>
</g>
<!-- Node2 -->
<g id="node2" class="node">
<title>Node2</title>
<g id="a_node2"><a xlink:href="PPU_8hpp.html" target="_top" xlink:title=" ">
<polygon fill="white" stroke="black" points="3672.5,-201.5 3672.5,-220.5 3792.5,-220.5 3792.5,-201.5 3672.5,-201.5"/>
<text text-anchor="middle" x="3732.5" y="-208.5" font-family="Helvetica,sans-Serif" font-size="10.00">sources/PPU/PPU.hpp</text>
</a>
</g>
</g>
<!-- Node1&#45;&gt;Node2 -->
<g id="edge1" class="edge">
<title>Node1&#45;&gt;Node2</title>
<path fill="none" stroke="midnightblue" d="M3756.98,-249.72C3748.3,-240.2 3739.19,-228.56 3734.5,-220.75"/>
<polygon fill="midnightblue" stroke="midnightblue" points="3754.61,-252.3 3764.07,-257.08 3759.66,-247.45 3754.61,-252.3"/>
</g>
<!-- Node41 -->
<g id="node41" class="node">
<title>Node41</title>
<g id="a_node41"><a xlink:href="Background_8cpp.html" target="_top" xlink:title=" ">
<polygon fill="white" stroke="black" points="4127.5,-140 4127.5,-159 4285.5,-159 4285.5,-140 4127.5,-140"/>
<text text-anchor="middle" x="4206.5" y="-147" font-family="Helvetica,sans-Serif" font-size="10.00">sources/PPU/Background.cpp</text>
</a>
</g>
</g>
<!-- Node1&#45;&gt;Node41 -->
<g id="edge69" class="edge">
<title>Node1&#45;&gt;Node41</title>
<path fill="none" stroke="midnightblue" d="M3818.38,-254.75C3904.14,-231.72 4098.11,-179.61 4174.61,-159.06"/>
<polygon fill="midnightblue" stroke="midnightblue" points="3817.22,-251.44 3808.47,-257.41 3819.03,-258.2 3817.22,-251.44"/>
</g>
<!-- Node42 -->
<g id="node42" class="node">
<title>Node42</title>
<g id="a_node42"><a xlink:href="PPU_8cpp.html" target="_top" xlink:title=" ">
<polygon fill="white" stroke="black" points="4304,-140 4304,-159 4423,-159 4423,-140 4304,-140"/>
<text text-anchor="middle" x="4363.5" y="-147" font-family="Helvetica,sans-Serif" font-size="10.00">sources/PPU/PPU.cpp</text>
</a>
</g>
</g>
<!-- Node1&#45;&gt;Node42 -->
<g id="edge70" class="edge">
<title>Node1&#45;&gt;Node42</title>
<path fill="none" stroke="midnightblue" d="M3831.5,-255.55C3926.17,-237.5 4125.98,-199.13 4294.5,-165 4303.86,-163.1 4313.92,-161.02 4323.39,-159.03"/>
<polygon fill="midnightblue" stroke="midnightblue" points="3830.75,-252.13 3821.58,-257.44 3832.06,-259.01 3830.75,-252.13"/>
</g>
<!-- Node2&#45;&gt;Node1 -->
<g id="edge59" class="edge">
<title>Node2&#45;&gt;Node1</title>
<path fill="none" stroke="midnightblue" d="M3751.84,-228.08C3760.51,-237.57 3769.65,-249.22 3774.4,-257.08"/>
<polygon fill="midnightblue" stroke="midnightblue" points="3754.22,-225.52 3744.76,-220.75 3749.19,-230.38 3754.22,-225.52"/>
</g>
<!-- Node3 -->
<g id="node3" class="node">
<title>Node3</title>
<g id="a_node3"><a xlink:href="CGramDebug_8hpp.html" target="_top" xlink:title=" ">
<polygon fill="white" stroke="black" points="241.5,-140 241.5,-159 435.5,-159 435.5,-140 241.5,-140"/>
<text text-anchor="middle" x="338.5" y="-147" font-family="Helvetica,sans-Serif" font-size="10.00">sources/Debugger/CGramDebug.hpp</text>
</a>
</g>
</g>
<!-- Node2&#45;&gt;Node3 -->
<g id="edge2" class="edge">
<title>Node2&#45;&gt;Node3</title>
<path fill="none" stroke="midnightblue" d="M3661.98,-208.76C3229.47,-201.18 937.62,-161 435.69,-152.2"/>
<polygon fill="midnightblue" stroke="midnightblue" points="3662.09,-212.27 3672.15,-208.94 3662.21,-205.27 3662.09,-212.27"/>
</g>
<!-- Node5 -->
<g id="node5" class="node">
<title>Node5</title>
<g id="a_node5"><a xlink:href="TileViewer_8hpp.html" target="_top" xlink:title=" ">
<polygon fill="white" stroke="black" points="2054,-134.5 2054,-164.5 2213,-164.5 2213,-134.5 2054,-134.5"/>
<text text-anchor="start" x="2062" y="-152.5" font-family="Helvetica,sans-Serif" font-size="10.00">sources/Debugger/TileViewer</text>
<text text-anchor="middle" x="2133.5" y="-141.5" font-family="Helvetica,sans-Serif" font-size="10.00">/TileViewer.hpp</text>
</a>
</g>
</g>
<!-- Node2&#45;&gt;Node5 -->
<g id="edge4" class="edge">
<title>Node2&#45;&gt;Node5</title>
<path fill="none" stroke="midnightblue" d="M3662.25,-207.6C3472.28,-201.09 2932.46,-182.39 2483.5,-165 2390.67,-161.4 2284.01,-156.94 2213.08,-153.92"/>
<polygon fill="midnightblue" stroke="midnightblue" points="3662.26,-211.1 3672.38,-207.95 3662.5,-204.11 3662.26,-211.1"/>
</g>
<!-- Node6 -->
<g id="node6" class="node">
<title>Node6</title>
<g id="a_node6"><a xlink:href="TileViewer_8cpp.html" target="_top" xlink:title=" ">
<polygon fill="white" stroke="black" points="211,-67.5 211,-97.5 370,-97.5 370,-67.5 211,-67.5"/>
<text text-anchor="start" x="219" y="-85.5" font-family="Helvetica,sans-Serif" font-size="10.00">sources/Debugger/TileViewer</text>
<text text-anchor="middle" x="290.5" y="-74.5" font-family="Helvetica,sans-Serif" font-size="10.00">/TileViewer.cpp</text>
</a>
</g>
</g>
<!-- Node2&#45;&gt;Node6 -->
<g id="edge6" class="edge">
<title>Node2&#45;&gt;Node6</title>
<path fill="none" stroke="midnightblue" d="M3662.3,-208.97C3241.41,-202.56 1048.13,-166.37 378.5,-98 375.73,-97.72 372.91,-97.4 370.07,-97.06"/>
<polygon fill="midnightblue" stroke="midnightblue" points="3662.44,-212.47 3672.5,-209.12 3662.55,-205.47 3662.44,-212.47"/>
</g>
<!-- Node7 -->
<g id="node7" class="node">
<title>Node7</title>
<g id="a_node7"><a xlink:href="SNES_8hpp.html" target="_top" xlink:title=" ">
<polygon fill="white" stroke="black" points="2492.5,-140 2492.5,-159 2596.5,-159 2596.5,-140 2492.5,-140"/>
<text text-anchor="middle" x="2544.5" y="-147" font-family="Helvetica,sans-Serif" font-size="10.00">sources/SNES.hpp</text>
</a>
</g>
</g>
<!-- Node2&#45;&gt;Node7 -->
<g id="edge7" class="edge">
<title>Node2&#45;&gt;Node7</title>
<path fill="none" stroke="midnightblue" d="M3662.36,-206.49C3445.24,-195.61 2787.31,-162.66 2596.74,-153.12"/>
<polygon fill="midnightblue" stroke="midnightblue" points="3662.2,-209.98 3672.36,-206.99 3662.55,-202.99 3662.2,-209.98"/>
</g>
<!-- Node35 -->
<g id="node35" class="node">
<title>Node35</title>
<g id="a_node35"><a xlink:href="testBackground_8cpp.html" target="_top" xlink:title=" ">
<polygon fill="white" stroke="black" points="3707,-6 3707,-25 3870,-25 3870,-6 3707,-6"/>
<text text-anchor="middle" x="3788.5" y="-13" font-family="Helvetica,sans-Serif" font-size="10.00">tests/PPU/testBackground.cpp</text>
</a>
</g>
</g>
<!-- Node2&#45;&gt;Node35 -->
<g id="edge65" class="edge">
<title>Node2&#45;&gt;Node35</title>
<path fill="none" stroke="midnightblue" d="M3670.68,-198.34C3652.41,-191.7 3634.41,-181.3 3623.5,-165 3599.28,-128.8 3597.6,-102.02 3623.5,-67 3637.35,-48.27 3695.25,-33.67 3738.58,-25.08"/>
<polygon fill="midnightblue" stroke="midnightblue" points="3669.63,-201.68 3680.22,-201.48 3671.82,-195.03 3669.63,-201.68"/>
</g>
<!-- Node36 -->
<g id="node36" class="node">
<title>Node36</title>
<g id="a_node36"><a xlink:href="testPpuRead_8cpp.html" target="_top" xlink:title=" ">
<polygon fill="white" stroke="black" points="3888.5,-6 3888.5,-25 4036.5,-25 4036.5,-6 3888.5,-6"/>
<text text-anchor="middle" x="3962.5" y="-13" font-family="Helvetica,sans-Serif" font-size="10.00">tests/PPU/testPpuRead.cpp</text>
</a>
</g>
</g>
<!-- Node2&#45;&gt;Node36 -->
<g id="edge66" class="edge">
<title>Node2&#45;&gt;Node36</title>
<path fill="none" stroke="midnightblue" d="M3716.79,-193.88C3710.07,-185.88 3702.99,-175.66 3699.5,-165 3685.95,-123.61 3671.76,-100.58 3699.5,-67 3702.92,-62.86 3838.75,-38.33 3913.82,-25.04"/>
<polygon fill="midnightblue" stroke="midnightblue" points="3714.2,-196.24 3723.48,-201.34 3719.4,-191.56 3714.2,-196.24"/>
</g>
<!-- Node37 -->
<g id="node37" class="node">
<title>Node37</title>
<g id="a_node37"><a xlink:href="testPpuWrite_8cpp.html" target="_top" xlink:title=" ">
<polygon fill="white" stroke="black" points="4055,-6 4055,-25 4204,-25 4204,-6 4055,-6"/>
<text text-anchor="middle" x="4129.5" y="-13" font-family="Helvetica,sans-Serif" font-size="10.00">tests/PPU/testPpuWrite.cpp</text>
</a>
</g>
</g>
<!-- Node2&#45;&gt;Node37 -->
<g id="edge67" class="edge">
<title>Node2&#45;&gt;Node37</title>
<path fill="none" stroke="midnightblue" d="M3731.44,-190.82C3730.85,-158.55 3735.12,-94.25 3775.5,-67 3825.67,-33.14 3985.66,-40.15 4045.5,-31 4057.35,-29.19 4070.11,-27.07 4082.02,-25.02"/>
<polygon fill="midnightblue" stroke="midnightblue" points="3727.95,-191.27 3731.82,-201.13 3734.95,-191.01 3727.95,-191.27"/>
</g>
<!-- Node38 -->
<g id="node38" class="node">
<title>Node38</title>
<g id="a_node38"><a xlink:href="testPpuWriteFromVmain_8cpp.html" target="_top" xlink:title=" ">
<polygon fill="white" stroke="black" points="4222.5,-0.5 4222.5,-30.5 4376.5,-30.5 4376.5,-0.5 4222.5,-0.5"/>
<text text-anchor="start" x="4230.5" y="-18.5" font-family="Helvetica,sans-Serif" font-size="10.00">tests/PPU/testPpuWriteFrom</text>
<text text-anchor="middle" x="4299.5" y="-7.5" font-family="Helvetica,sans-Serif" font-size="10.00">Vmain.cpp</text>
</a>
</g>
</g>
<!-- Node2&#45;&gt;Node38 -->
<g id="edge68" class="edge">
<title>Node2&#45;&gt;Node38</title>
<path fill="none" stroke="midnightblue" d="M3736.34,-191.11C3743.92,-159.26 3764.07,-95.59 3808.5,-67 3884.48,-18.11 4123.88,-42.52 4213.5,-31 4216.35,-30.63 4219.26,-30.24 4222.19,-29.83"/>
<polygon fill="midnightblue" stroke="midnightblue" points="3732.83,-190.75 3734.1,-201.27 3739.67,-192.26 3732.83,-190.75"/>
</g>
<!-- Node2&#45;&gt;Node41 -->
<g id="edge60" class="edge">
<title>Node2&#45;&gt;Node41</title>
<path fill="none" stroke="midnightblue" d="M3802.91,-202.8C3880.38,-194.65 4008.52,-180.46 4118.5,-165 4131.07,-163.23 4144.62,-161.11 4157.23,-159.04"/>
<polygon fill="midnightblue" stroke="midnightblue" points="3802.37,-199.34 3792.79,-203.86 3803.1,-206.3 3802.37,-199.34"/>
</g>
<!-- Node2&#45;&gt;Node42 -->
<g id="edge61" class="edge">
<title>Node2&#45;&gt;Node42</title>
<path fill="none" stroke="midnightblue" d="M3802.66,-207.25C3909.34,-202.43 4118.53,-190.43 4294.5,-165 4305.16,-163.46 4316.65,-161.26 4327.13,-159.05"/>
<polygon fill="midnightblue" stroke="midnightblue" points="3802.5,-203.76 3792.67,-207.7 3802.81,-210.75 3802.5,-203.76"/>
</g>
<!-- Node43 -->
<g id="node43" class="node">
<title>Node43</title>
<g id="a_node43"><a xlink:href="PpuDebug_8hpp.html" target="_top" xlink:title=" ">
<polygon fill="white" stroke="black" points="3779.5,-140 3779.5,-159 3929.5,-159 3929.5,-140 3779.5,-140"/>
<text text-anchor="middle" x="3854.5" y="-147" font-family="Helvetica,sans-Serif" font-size="10.00">sources/PPU/PpuDebug.hpp</text>
</a>
</g>
</g>
<!-- Node2&#45;&gt;Node43 -->
<g id="edge62" class="edge">
<title>Node2&#45;&gt;Node43</title>
<path fill="none" stroke="midnightblue" d="M3759.11,-197.02C3782.77,-185.48 3816.68,-168.94 3837.05,-159.01"/>
<polygon fill="midnightblue" stroke="midnightblue" points="3757.43,-193.95 3749.98,-201.48 3760.5,-200.24 3757.43,-193.95"/>
</g>
<!-- Node45 -->
<g id="node45" class="node">
<title>Node45</title>
<g id="a_node45"><a xlink:href="TileRenderer_8cpp.html" target="_top" xlink:title=" ">
<polygon fill="white" stroke="black" points="3948,-140 3948,-159 4109,-159 4109,-140 3948,-140"/>
<text text-anchor="middle" x="4028.5" y="-147" font-family="Helvetica,sans-Serif" font-size="10.00">sources/PPU/TileRenderer.cpp</text>
</a>
</g>
</g>
<!-- Node2&#45;&gt;Node45 -->
<g id="edge64" class="edge">
<title>Node2&#45;&gt;Node45</title>
<path fill="none" stroke="midnightblue" d="M3784.86,-199.47C3842.23,-187.94 3933.12,-169.67 3986.17,-159.01"/>
<polygon fill="midnightblue" stroke="midnightblue" points="3784.02,-196.07 3774.91,-201.48 3785.4,-202.94 3784.02,-196.07"/>
</g>
<!-- Node4 -->
<g id="node4" class="node">
<title>Node4</title>
<g id="a_node4"><a xlink:href="CGramDebug_8cpp.html" target="_top" xlink:title=" ">
<polygon fill="white" stroke="black" points="0,-73 0,-92 193,-92 193,-73 0,-73"/>
<text text-anchor="middle" x="96.5" y="-80" font-family="Helvetica,sans-Serif" font-size="10.00">sources/Debugger/CGramDebug.cpp</text>
</a>
</g>
</g>
<!-- Node3&#45;&gt;Node4 -->
<g id="edge3" class="edge">
<title>Node3&#45;&gt;Node4</title>
<path fill="none" stroke="midnightblue" d="M296.89,-137.32C249.1,-124.49 171.75,-103.71 128.46,-92.08"/>
<polygon fill="midnightblue" stroke="midnightblue" points="296.05,-140.72 306.61,-139.94 297.86,-133.96 296.05,-140.72"/>
</g>
<!-- Node5&#45;&gt;Node6 -->
<g id="edge5" class="edge">
<title>Node5&#45;&gt;Node6</title>
<path fill="none" stroke="midnightblue" d="M2043.63,-146.25C1696.97,-137.53 461.9,-106.03 378.5,-98 375.73,-97.73 372.91,-97.43 370.06,-97.1"/>
<polygon fill="midnightblue" stroke="midnightblue" points="2043.78,-149.75 2053.87,-146.51 2043.96,-142.76 2043.78,-149.75"/>
</g>
<!-- Node7&#45;&gt;Node4 -->
<g id="edge9" class="edge">
<title>Node7&#45;&gt;Node4</title>
<path fill="none" stroke="midnightblue" d="M2482.41,-145.21C2417.39,-141.89 2312.3,-136.85 2221.5,-134 1324.02,-105.86 1096.72,-167.54 201.5,-98 184.44,-96.67 165.91,-94.4 149.24,-92.04"/>
<polygon fill="midnightblue" stroke="midnightblue" points="2482.32,-148.71 2492.49,-145.73 2482.68,-141.72 2482.32,-148.71"/>
</g>
<!-- Node7&#45;&gt;Node6 -->
<g id="edge16" class="edge">
<title>Node7&#45;&gt;Node6</title>
<path fill="none" stroke="midnightblue" d="M2482.41,-145.25C2417.39,-141.95 2312.3,-136.92 2221.5,-134 1812.08,-120.81 786.42,-135.4 378.5,-98 375.72,-97.75 372.9,-97.46 370.06,-97.14"/>
<polygon fill="midnightblue" stroke="midnightblue" points="2482.32,-148.75 2492.49,-145.76 2482.68,-141.75 2482.32,-148.75"/>
</g>
<!-- Node8 -->
<g id="node8" class="node">
<title>Node8</title>
<g id="a_node8"><a xlink:href="APUDebug_8cpp.html" target="_top" xlink:title=" ">
<polygon fill="white" stroke="black" points="388,-73 388,-92 567,-92 567,-73 388,-73"/>
<text text-anchor="middle" x="477.5" y="-80" font-family="Helvetica,sans-Serif" font-size="10.00">sources/Debugger/APUDebug.cpp</text>
</a>
</g>
</g>
<!-- Node7&#45;&gt;Node8 -->
<g id="edge8" class="edge">
<title>Node7&#45;&gt;Node8</title>
<path fill="none" stroke="midnightblue" d="M2482.4,-145.29C2417.38,-142.02 2312.3,-137.03 2221.5,-134 1490.62,-109.6 1305.23,-159.11 576.5,-98 560.4,-96.65 542.93,-94.37 527.22,-92.01"/>
<polygon fill="midnightblue" stroke="midnightblue" points="2482.32,-148.79 2492.49,-145.8 2482.68,-141.8 2482.32,-148.79"/>
</g>
<!-- Node9 -->
<g id="node9" class="node">
<title>Node9</title>
<g id="a_node9"><a xlink:href="CPUDebug_8cpp.html" target="_top" xlink:title=" ">
<polygon fill="white" stroke="black" points="585.5,-67.5 585.5,-97.5 713.5,-97.5 713.5,-67.5 585.5,-67.5"/>
<text text-anchor="start" x="593.5" y="-85.5" font-family="Helvetica,sans-Serif" font-size="10.00">sources/Debugger/CPU</text>
<text text-anchor="middle" x="649.5" y="-74.5" font-family="Helvetica,sans-Serif" font-size="10.00">/CPUDebug.cpp</text>
</a>
</g>
</g>
<!-- Node7&#45;&gt;Node9 -->
<g id="edge10" class="edge">
<title>Node7&#45;&gt;Node9</title>
<path fill="none" stroke="midnightblue" d="M2482.4,-145.33C2417.38,-142.1 2312.29,-137.13 2221.5,-134 1888.49,-122.53 1053.69,-134.59 722.5,-98 719.67,-97.69 716.8,-97.32 713.89,-96.91"/>
<polygon fill="midnightblue" stroke="midnightblue" points="2482.32,-148.83 2492.49,-145.83 2482.67,-141.84 2482.32,-148.83"/>
</g>
<!-- Node10 -->
<g id="node10" class="node">
<title>Node10</title>
<g id="a_node10"><a xlink:href="Disassembly_8cpp.html" target="_top" xlink:title=" ">
<polygon fill="white" stroke="black" points="731.5,-67.5 731.5,-97.5 859.5,-97.5 859.5,-67.5 731.5,-67.5"/>
<text text-anchor="start" x="739.5" y="-85.5" font-family="Helvetica,sans-Serif" font-size="10.00">sources/Debugger/CPU</text>
<text text-anchor="middle" x="795.5" y="-74.5" font-family="Helvetica,sans-Serif" font-size="10.00">/Disassembly.cpp</text>
</a>
</g>
</g>
<!-- Node7&#45;&gt;Node10 -->
<g id="edge11" class="edge">
<title>Node7&#45;&gt;Node10</title>
<path fill="none" stroke="midnightblue" d="M2482.4,-145.38C2417.38,-142.18 2312.29,-137.25 2221.5,-134 1620.34,-112.51 1466.32,-164.84 868.5,-98 865.67,-97.68 862.8,-97.32 859.89,-96.91"/>
<polygon fill="midnightblue" stroke="midnightblue" points="2482.33,-148.88 2492.49,-145.87 2482.67,-141.88 2482.33,-148.88"/>
</g>
<!-- Node11 -->
<g id="node11" class="node">
<title>Node11</title>
<g id="a_node11"><a xlink:href="HeaderViewer_8cpp.html" target="_top" xlink:title=" ">
<polygon fill="white" stroke="black" points="877.5,-73 877.5,-92 1073.5,-92 1073.5,-73 877.5,-73"/>
<text text-anchor="middle" x="975.5" y="-80" font-family="Helvetica,sans-Serif" font-size="10.00">sources/Debugger/HeaderViewer.cpp</text>
</a>
</g>
</g>
<!-- Node7&#45;&gt;Node11 -->
<g id="edge12" class="edge">
<title>Node7&#45;&gt;Node11</title>
<path fill="none" stroke="midnightblue" d="M2482.4,-145.47C2417.37,-142.35 2312.28,-137.47 2221.5,-134 1715.4,-114.64 1587.23,-140.06 1082.5,-98 1065.41,-96.58 1046.86,-94.32 1030.09,-92"/>
<polygon fill="midnightblue" stroke="midnightblue" points="2482.33,-148.97 2492.48,-145.95 2482.66,-141.98 2482.33,-148.97"/>
</g>
<!-- Node12 -->
<g id="node12" class="node">
<title>Node12</title>
<g id="a_node12"><a xlink:href="MemoryBusDebug_8cpp.html" target="_top" xlink:title=" ">
<polygon fill="white" stroke="black" points="1091.5,-67.5 1091.5,-97.5 1257.5,-97.5 1257.5,-67.5 1091.5,-67.5"/>
<text text-anchor="start" x="1099.5" y="-85.5" font-family="Helvetica,sans-Serif" font-size="10.00">sources/Debugger/MemoryBus</text>
<text text-anchor="middle" x="1174.5" y="-74.5" font-family="Helvetica,sans-Serif" font-size="10.00">Debug.cpp</text>
</a>
</g>
</g>
<!-- Node7&#45;&gt;Node12 -->
<g id="edge13" class="edge">
<title>Node7&#45;&gt;Node12</title>
<path fill="none" stroke="midnightblue" d="M2482.39,-145.58C2417.36,-142.55 2312.27,-137.75 2221.5,-134 1797.12,-116.48 1689.25,-139.14 1266.5,-98 1263.6,-97.72 1260.66,-97.4 1257.69,-97.06"/>
<polygon fill="midnightblue" stroke="midnightblue" points="2482.33,-149.08 2492.48,-146.05 2482.65,-142.09 2482.33,-149.08"/>
</g>
<!-- Node13 -->
<g id="node13" class="node">
<title>Node13</title>
<g id="a_node13"><a xlink:href="MemoryViewer_8cpp.html" target="_top" xlink:title=" ">
<polygon fill="white" stroke="black" points="1276,-73 1276,-92 1477,-92 1477,-73 1276,-73"/>
<text text-anchor="middle" x="1376.5" y="-80" font-family="Helvetica,sans-Serif" font-size="10.00">sources/Debugger/MemoryViewer.cpp</text>
</a>
</g>
</g>
<!-- Node7&#45;&gt;Node13 -->
<g id="edge14" class="edge">
<title>Node7&#45;&gt;Node13</title>
<path fill="none" stroke="midnightblue" d="M2482.32,-145.68C2263.02,-135.7 1536.22,-102.46 1486.5,-98 1469.42,-96.47 1450.93,-94.25 1434.06,-92.01"/>
<polygon fill="midnightblue" stroke="midnightblue" points="2482.22,-149.17 2492.37,-146.13 2482.54,-142.18 2482.22,-149.17"/>
</g>
<!-- Node14 -->
<g id="node14" class="node">
<title>Node14</title>
<g id="a_node14"><a xlink:href="RegisterViewer_8cpp.html" target="_top" xlink:title=" ">
<polygon fill="white" stroke="black" points="1495.5,-67.5 1495.5,-97.5 1643.5,-97.5 1643.5,-67.5 1495.5,-67.5"/>
<text text-anchor="start" x="1503.5" y="-85.5" font-family="Helvetica,sans-Serif" font-size="10.00">sources/Debugger/Register</text>
<text text-anchor="middle" x="1569.5" y="-74.5" font-family="Helvetica,sans-Serif" font-size="10.00">Viewer.cpp</text>
</a>
</g>
</g>
<!-- Node7&#45;&gt;Node14 -->
<g id="edge15" class="edge">
<title>Node7&#45;&gt;Node14</title>
<path fill="none" stroke="midnightblue" d="M2482.33,-145.4C2293.46,-135.93 1734.25,-107.42 1652.5,-98 1649.59,-97.67 1646.63,-97.29 1643.65,-96.89"/>
<polygon fill="midnightblue" stroke="midnightblue" points="2482.21,-148.9 2492.38,-145.9 2482.57,-141.91 2482.21,-148.9"/>
</g>
<!-- Node15 -->
<g id="node15" class="node">
<title>Node15</title>
<g id="a_node15"><a xlink:href="main_8cpp.html" target="_top" xlink:title=" ">
<polygon fill="white" stroke="black" points="1661.5,-73 1661.5,-92 1763.5,-92 1763.5,-73 1661.5,-73"/>
<text text-anchor="middle" x="1712.5" y="-80" font-family="Helvetica,sans-Serif" font-size="10.00">sources/main.cpp</text>
</a>
</g>
</g>
<!-- Node7&#45;&gt;Node15 -->
<g id="edge17" class="edge">
<title>Node7&#45;&gt;Node15</title>
<path fill="none" stroke="midnightblue" d="M2482.41,-145.82C2324.24,-138.77 1909.01,-118.8 1772.5,-98 1762.97,-96.55 1752.72,-94.32 1743.44,-92.05"/>
<polygon fill="midnightblue" stroke="midnightblue" points="2482.31,-149.32 2492.45,-146.26 2482.62,-142.32 2482.31,-149.32"/>
</g>
<!-- Node16 -->
<g id="node16" class="node">
<title>Node16</title>
<g id="a_node16"><a xlink:href="MemoryBus_8cpp.html" target="_top" xlink:title=" ">
<polygon fill="white" stroke="black" points="1782,-73 1782,-92 1961,-92 1961,-73 1782,-73"/>
<text text-anchor="middle" x="1871.5" y="-80" font-family="Helvetica,sans-Serif" font-size="10.00">sources/Memory/MemoryBus.cpp</text>
</a>
</g>
</g>
<!-- Node7&#45;&gt;Node16 -->
<g id="edge18" class="edge">
<title>Node7&#45;&gt;Node16</title>
<path fill="none" stroke="midnightblue" d="M2482,-144.19C2376.42,-136.64 2156.08,-119.74 1970.5,-98 1955.92,-96.29 1940.18,-94.13 1925.63,-92"/>
<polygon fill="midnightblue" stroke="midnightblue" points="2481.94,-147.69 2492.16,-144.91 2482.44,-140.71 2481.94,-147.69"/>
</g>
<!-- Node17 -->
<g id="node17" class="node">
<title>Node17</title>
<g id="a_node17"><a xlink:href="QtSFML_8cpp.html" target="_top" xlink:title=" ">
<polygon fill="white" stroke="black" points="1979.5,-67.5 1979.5,-97.5 2139.5,-97.5 2139.5,-67.5 1979.5,-67.5"/>
<text text-anchor="start" x="1987.5" y="-85.5" font-family="Helvetica,sans-Serif" font-size="10.00">sources/Renderer/QtRenderer</text>
<text text-anchor="middle" x="2059.5" y="-74.5" font-family="Helvetica,sans-Serif" font-size="10.00">/QtSFML.cpp</text>
</a>
</g>
</g>
<!-- Node7&#45;&gt;Node17 -->
<g id="edge19" class="edge">
<title>Node7&#45;&gt;Node17</title>
<path fill="none" stroke="midnightblue" d="M2482.06,-141.22C2403.95,-131.95 2266.16,-115.08 2148.5,-98 2145.56,-97.57 2142.56,-97.13 2139.53,-96.67"/>
<polygon fill="midnightblue" stroke="midnightblue" points="2481.87,-144.72 2492.21,-142.42 2482.69,-137.77 2481.87,-144.72"/>
</g>
<!-- Node18 -->
<g id="node18" class="node">
<title>Node18</title>
<g id="a_node18"><a xlink:href="SFRenderer_8cpp.html" target="_top" xlink:title=" ">
<polygon fill="white" stroke="black" points="2157.5,-73 2157.5,-92 2337.5,-92 2337.5,-73 2157.5,-73"/>
<text text-anchor="middle" x="2247.5" y="-80" font-family="Helvetica,sans-Serif" font-size="10.00">sources/Renderer/SFRenderer.cpp</text>
</a>
</g>
</g>
<!-- Node7&#45;&gt;Node18 -->
<g id="edge20" class="edge">
<title>Node7&#45;&gt;Node18</title>
<path fill="none" stroke="midnightblue" d="M2495.26,-137.72C2436.78,-124.92 2340.41,-103.83 2286.72,-92.08"/>
<polygon fill="midnightblue" stroke="midnightblue" points="2494.85,-141.22 2505.37,-139.94 2496.35,-134.38 2494.85,-141.22"/>
</g>
<!-- Node19 -->
<g id="node19" class="node">
<title>Node19</title>
<g id="a_node19"><a xlink:href="SNES_8cpp.html" target="_top" xlink:title=" ">
<polygon fill="white" stroke="black" points="2356,-73 2356,-92 2459,-92 2459,-73 2356,-73"/>
<text text-anchor="middle" x="2407.5" y="-80" font-family="Helvetica,sans-Serif" font-size="10.00">sources/SNES.cpp</text>
</a>
</g>
</g>
<!-- Node7&#45;&gt;Node19 -->
<g id="edge21" class="edge">
<title>Node7&#45;&gt;Node19</title>
<path fill="none" stroke="midnightblue" d="M2516.98,-135.44C2489.85,-122.57 2449.14,-103.26 2425.77,-92.17"/>
<polygon fill="midnightblue" stroke="midnightblue" points="2515.77,-138.74 2526.31,-139.87 2518.77,-132.42 2515.77,-138.74"/>
</g>
<!-- Node20 -->
<g id="node20" class="node">
<title>Node20</title>
<g id="a_node20"><a xlink:href="testAPU_8cpp.html" target="_top" xlink:title=" ">
<polygon fill="white" stroke="black" points="1072.5,-6 1072.5,-25 1198.5,-25 1198.5,-6 1072.5,-6"/>
<text text-anchor="middle" x="1135.5" y="-13" font-family="Helvetica,sans-Serif" font-size="10.00">tests/APU/testAPU.cpp</text>
</a>
</g>
</g>
<!-- Node7&#45;&gt;Node20 -->
<g id="edge22" class="edge">
<title>Node7&#45;&gt;Node20</title>
<path fill="none" stroke="midnightblue" d="M2530.29,-132.16C2510.32,-109.42 2475.49,-70.58 2467.5,-67 2339.68,-9.74 1346.65,-46.88 1207.5,-31 1195.72,-29.66 1182.99,-27.37 1171.57,-25.01"/>
<polygon fill="midnightblue" stroke="midnightblue" points="2527.91,-134.76 2537.12,-139.99 2533.18,-130.15 2527.91,-134.76"/>
</g>
<!-- Node21 -->
<g id="node21" class="node">
<title>Node21</title>
<g id="a_node21"><a xlink:href="tests_8hpp.html" target="_top" xlink:title=" ">
<polygon fill="white" stroke="black" points="2820,-73 2820,-92 2909,-92 2909,-73 2820,-73"/>
<text text-anchor="middle" x="2864.5" y="-80" font-family="Helvetica,sans-Serif" font-size="10.00">tests/tests.hpp</text>
</a>
</g>
</g>
<!-- Node7&#45;&gt;Node21 -->
<g id="edge23" class="edge">
<title>Node7&#45;&gt;Node21</title>
<path fill="none" stroke="midnightblue" d="M2602.17,-138.2C2655.16,-128.52 2735.83,-113.29 2805.5,-98 2813.74,-96.19 2822.59,-94.1 2830.87,-92.07"/>
<polygon fill="midnightblue" stroke="midnightblue" points="2601.49,-134.76 2592.27,-140 2602.74,-141.65 2601.49,-134.76"/>
</g>
<!-- Node22 -->
<g id="node22" class="node">
<title>Node22</title>
<g id="a_node22"><a xlink:href="testAPUInstructions_8cpp.html" target="_top" xlink:title=" ">
<polygon fill="white" stroke="black" points="1217,-6 1217,-25 1400,-25 1400,-6 1217,-6"/>
<text text-anchor="middle" x="1308.5" y="-13" font-family="Helvetica,sans-Serif" font-size="10.00">tests/APU/testAPUInstructions.cpp</text>
</a>
</g>
</g>
<!-- Node7&#45;&gt;Node22 -->
<g id="edge44" class="edge">
<title>Node7&#45;&gt;Node22</title>
<path fill="none" stroke="midnightblue" d="M2540.51,-130.1C2535.22,-110.67 2523.82,-80.97 2501.5,-67 2450,-34.77 1469.02,-36.37 1408.5,-31 1392.51,-29.58 1375.18,-27.33 1359.5,-25.01"/>
<polygon fill="midnightblue" stroke="midnightblue" points="2537.13,-131.02 2542.9,-139.91 2543.93,-129.36 2537.13,-131.02"/>
</g>
<!-- Node23 -->
<g id="node23" class="node">
<title>Node23</title>
<g id="a_node23"><a xlink:href="testOperand_8cpp.html" target="_top" xlink:title=" ">
<polygon fill="white" stroke="black" points="1418,-6 1418,-25 1565,-25 1565,-6 1418,-6"/>
<text text-anchor="middle" x="1491.5" y="-13" font-family="Helvetica,sans-Serif" font-size="10.00">tests/APU/testOperand.cpp</text>
</a>
</g>
</g>
<!-- Node7&#45;&gt;Node23 -->
<g id="edge45" class="edge">
<title>Node7&#45;&gt;Node23</title>
<path fill="none" stroke="midnightblue" d="M2549.66,-129.89C2553.59,-111.21 2555.87,-82.98 2539.5,-67 2501.07,-29.48 1626.9,-36.69 1573.5,-31 1560.42,-29.61 1546.28,-27.37 1533.48,-25.07"/>
<polygon fill="midnightblue" stroke="midnightblue" points="2546.2,-129.31 2547.22,-139.85 2553,-130.97 2546.2,-129.31"/>
</g>
<!-- Node24 -->
<g id="node24" class="node">
<title>Node24</title>
<g id="a_node24"><a xlink:href="testADC_8cpp.html" target="_top" xlink:title=" ">
<polygon fill="white" stroke="black" points="1583,-6 1583,-25 1738,-25 1738,-6 1583,-6"/>
<text text-anchor="middle" x="1660.5" y="-13" font-family="Helvetica,sans-Serif" font-size="10.00">tests/CPU/Math/testADC.cpp</text>
</a>
</g>
</g>
<!-- Node7&#45;&gt;Node24 -->
<g id="edge46" class="edge">
<title>Node7&#45;&gt;Node24</title>
<path fill="none" stroke="midnightblue" d="M2560.23,-132.31C2575.83,-114.31 2595.08,-85.36 2577.5,-67 2545.58,-33.66 1793.4,-35.8 1747.5,-31 1733.79,-29.57 1718.97,-27.35 1705.51,-25.07"/>
<polygon fill="midnightblue" stroke="midnightblue" points="2557.61,-129.99 2553.46,-139.73 2562.78,-134.7 2557.61,-129.99"/>
</g>
<!-- Node25 -->
<g id="node25" class="node">
<title>Node25</title>
<g id="a_node25"><a xlink:href="testCMP_8cpp.html" target="_top" xlink:title=" ">
<polygon fill="white" stroke="black" points="1756.5,-6 1756.5,-25 1910.5,-25 1910.5,-6 1756.5,-6"/>
<text text-anchor="middle" x="1833.5" y="-13" font-family="Helvetica,sans-Serif" font-size="10.00">tests/CPU/Math/testCMP.cpp</text>
</a>
</g>
</g>
<!-- Node7&#45;&gt;Node25 -->
<g id="edge47" class="edge">
<title>Node7&#45;&gt;Node25</title>
<path fill="none" stroke="midnightblue" d="M2570.32,-135.08C2598.7,-118.66 2637.54,-90.21 2615.5,-67 2588.84,-38.92 1957.99,-35.23 1919.5,-31 1905.95,-29.51 1891.3,-27.28 1878,-25.01"/>
<polygon fill="midnightblue" stroke="midnightblue" points="2568.59,-132.03 2561.56,-139.96 2572,-138.15 2568.59,-132.03"/>
</g>
<!-- Node26 -->
<g id="node26" class="node">
<title>Node26</title>
<g id="a_node26"><a xlink:href="testOthersMath_8cpp.html" target="_top" xlink:title=" ">
<polygon fill="white" stroke="black" points="1928.5,-0.5 1928.5,-30.5 2074.5,-30.5 2074.5,-0.5 1928.5,-0.5"/>
<text text-anchor="start" x="1936.5" y="-18.5" font-family="Helvetica,sans-Serif" font-size="10.00">tests/CPU/Math/testOthers</text>
<text text-anchor="middle" x="2001.5" y="-7.5" font-family="Helvetica,sans-Serif" font-size="10.00">Math.cpp</text>
</a>
</g>
</g>
<!-- Node7&#45;&gt;Node26 -->
<g id="edge48" class="edge">
<title>Node7&#45;&gt;Node26</title>
<path fill="none" stroke="midnightblue" d="M2583.21,-136.73C2624.6,-122.29 2680.82,-96.1 2653.5,-67 2610.06,-20.73 2146.51,-38.54 2083.5,-31 2080.63,-30.66 2077.71,-30.28 2074.76,-29.87"/>
<polygon fill="midnightblue" stroke="midnightblue" points="2581.95,-133.47 2573.59,-139.98 2584.19,-140.1 2581.95,-133.47"/>
</g>
<!-- Node27 -->
<g id="node27" class="node">
<title>Node27</title>
<g id="a_node27"><a xlink:href="testSBC_8cpp.html" target="_top" xlink:title=" ">
<polygon fill="white" stroke="black" points="2093,-6 2093,-25 2246,-25 2246,-6 2093,-6"/>
<text text-anchor="middle" x="2169.5" y="-13" font-family="Helvetica,sans-Serif" font-size="10.00">tests/CPU/Math/testSBC.cpp</text>
</a>
</g>
</g>
<!-- Node7&#45;&gt;Node27 -->
<g id="edge49" class="edge">
<title>Node7&#45;&gt;Node27</title>
<path fill="none" stroke="midnightblue" d="M2601.97,-137.76C2655.82,-125.29 2723.6,-101.86 2691.5,-67 2658.57,-31.24 2303.73,-37.05 2255.5,-31 2242.58,-29.38 2228.63,-27.21 2215.81,-25.05"/>
<polygon fill="midnightblue" stroke="midnightblue" points="2601.1,-134.37 2592.1,-139.96 2602.62,-141.2 2601.1,-134.37"/>
</g>
<!-- Node28 -->
<g id="node28" class="node">
<title>Node28</title>
<g id="a_node28"><a xlink:href="testAddressingMode_8cpp.html" target="_top" xlink:title=" ">
<polygon fill="white" stroke="black" points="2264.5,-0.5 2264.5,-30.5 2404.5,-30.5 2404.5,-0.5 2264.5,-0.5"/>
<text text-anchor="start" x="2272.5" y="-18.5" font-family="Helvetica,sans-Serif" font-size="10.00">tests/CPU/testAddressing</text>
<text text-anchor="middle" x="2334.5" y="-7.5" font-family="Helvetica,sans-Serif" font-size="10.00">Mode.cpp</text>
</a>
</g>
</g>
<!-- Node7&#45;&gt;Node28 -->
<g id="edge50" class="edge">
<title>Node7&#45;&gt;Node28</title>
<path fill="none" stroke="midnightblue" d="M2606.82,-142.12C2674.85,-132.79 2769.18,-111.46 2729.5,-67 2682.44,-14.27 2483.41,-41.39 2413.5,-31 2410.6,-30.57 2407.65,-30.11 2404.67,-29.64"/>
<polygon fill="midnightblue" stroke="midnightblue" points="2606.03,-138.69 2596.57,-143.46 2606.94,-145.64 2606.03,-138.69"/>
</g>
<!-- Node29 -->
<g id="node29" class="node">
<title>Node29</title>
<g id="a_node29"><a xlink:href="testBits_8cpp.html" target="_top" xlink:title=" ">
<polygon fill="white" stroke="black" points="2423,-6 2423,-25 2548,-25 2548,-6 2423,-6"/>
<text text-anchor="middle" x="2485.5" y="-13" font-family="Helvetica,sans-Serif" font-size="10.00">tests/CPU/testBits.cpp</text>
</a>
</g>
</g>
<!-- Node7&#45;&gt;Node29 -->
<g id="edge51" class="edge">
<title>Node7&#45;&gt;Node29</title>
<path fill="none" stroke="midnightblue" d="M2606.99,-146.04C2688.34,-140.6 2814.85,-123.12 2767.5,-67 2736.82,-30.65 2603.25,-39.76 2556.5,-31 2546.61,-29.15 2535.96,-27.04 2526.01,-25.01"/>
<polygon fill="midnightblue" stroke="midnightblue" points="2606.58,-142.56 2596.82,-146.68 2607.01,-149.55 2606.58,-142.56"/>
</g>
<!-- Node32 -->
<g id="node32" class="node">
<title>Node32</title>
<g id="a_node32"><a xlink:href="testInterupts_8cpp.html" target="_top" xlink:title=" ">
<polygon fill="white" stroke="black" points="3222,-6 3222,-25 3371,-25 3371,-6 3222,-6"/>
<text text-anchor="middle" x="3296.5" y="-13" font-family="Helvetica,sans-Serif" font-size="10.00">tests/CPU/testInterupts.cpp</text>
</a>
</g>
</g>
<!-- Node7&#45;&gt;Node32 -->
<g id="edge52" class="edge">
<title>Node7&#45;&gt;Node32</title>
<path fill="none" stroke="midnightblue" d="M2606.7,-141.57C2680.93,-132.95 2808.68,-117.04 2917.5,-98 3044.79,-75.73 3194.33,-41.02 3261.15,-25.06"/>
<polygon fill="midnightblue" stroke="midnightblue" points="2606.12,-138.11 2596.59,-142.74 2606.92,-145.07 2606.12,-138.11"/>
</g>
<!-- Node33 -->
<g id="node33" class="node">
<title>Node33</title>
<g id="a_node33"><a xlink:href="testStore_8cpp.html" target="_top" xlink:title=" ">
<polygon fill="white" stroke="black" points="3389,-6 3389,-25 3520,-25 3520,-6 3389,-6"/>
<text text-anchor="middle" x="3454.5" y="-13" font-family="Helvetica,sans-Serif" font-size="10.00">tests/CPU/testStore.cpp</text>
</a>
</g>
</g>
<!-- Node7&#45;&gt;Node33 -->
<g id="edge53" class="edge">
<title>Node7&#45;&gt;Node33</title>
<path fill="none" stroke="midnightblue" d="M2606.7,-143.19C2696.22,-135.22 2866.45,-118.85 3010.5,-98 3175.46,-74.12 3215.67,-61.71 3379.5,-31 3389.67,-29.09 3400.6,-27 3410.89,-25.02"/>
<polygon fill="midnightblue" stroke="midnightblue" points="2606.37,-139.7 2596.72,-144.07 2606.99,-146.68 2606.37,-139.7"/>
</g>
<!-- Node34 -->
<g id="node34" class="node">
<title>Node34</title>
<g id="a_node34"><a xlink:href="testTransfers_8cpp.html" target="_top" xlink:title=" ">
<polygon fill="white" stroke="black" points="3538.5,-6 3538.5,-25 3688.5,-25 3688.5,-6 3538.5,-6"/>
<text text-anchor="middle" x="3613.5" y="-13" font-family="Helvetica,sans-Serif" font-size="10.00">tests/CPU/testTransfers.cpp</text>
</a>
</g>
</g>
<!-- Node7&#45;&gt;Node34 -->
<g id="edge54" class="edge">
<title>Node7&#45;&gt;Node34</title>
<path fill="none" stroke="midnightblue" d="M2606.93,-144.5C2712.39,-137.41 2932.42,-121.17 3117.5,-98 3301.58,-74.95 3346.54,-61.67 3529.5,-31 3540.88,-29.09 3553.13,-27 3564.65,-25.01"/>
<polygon fill="midnightblue" stroke="midnightblue" points="2606.52,-141.02 2596.78,-145.18 2606.99,-148.01 2606.52,-141.02"/>
</g>
<!-- Node7&#45;&gt;Node35 -->
<g id="edge55" class="edge">
<title>Node7&#45;&gt;Node35</title>
<path fill="none" stroke="midnightblue" d="M2606.83,-145.43C2728.12,-139.13 3004.28,-123.18 3235.5,-98 3441.76,-75.54 3492.38,-62.21 3697.5,-31 3709.84,-29.12 3723.1,-27.04 3735.59,-25.06"/>
<polygon fill="midnightblue" stroke="midnightblue" points="2606.43,-141.95 2596.62,-145.96 2606.79,-148.94 2606.43,-141.95"/>
</g>
<!-- Node7&#45;&gt;Node36 -->
<g id="edge56" class="edge">
<title>Node7&#45;&gt;Node36</title>
<path fill="none" stroke="midnightblue" d="M2607.21,-146.09C2744.62,-140.49 3082.56,-124.99 3364.5,-98 3479.38,-87 3765.41,-48.38 3879.5,-31 3891.21,-29.22 3903.82,-27.11 3915.59,-25.06"/>
<polygon fill="midnightblue" stroke="midnightblue" points="2606.73,-142.61 2596.88,-146.51 2607.01,-149.6 2606.73,-142.61"/>
</g>
<!-- Node7&#45;&gt;Node37 -->
<g id="edge57" class="edge">
<title>Node7&#45;&gt;Node37</title>
<path fill="none" stroke="midnightblue" d="M2606.85,-147.4C2759.59,-144.23 3164.58,-132.95 3500.5,-98 3589.53,-88.74 3610.73,-78.52 3699.5,-67 3852.82,-47.09 3892.35,-52.16 4045.5,-31 4057.81,-29.3 4071.09,-27.15 4083.37,-25.04"/>
<polygon fill="midnightblue" stroke="midnightblue" points="2606.65,-143.9 2596.72,-147.61 2606.79,-150.9 2606.65,-143.9"/>
</g>
<!-- Node7&#45;&gt;Node38 -->
<g id="edge58" class="edge">
<title>Node7&#45;&gt;Node38</title>
<path fill="none" stroke="midnightblue" d="M2607.17,-148.64C2772.39,-148.33 3233.24,-143.13 3613.5,-98 3686.3,-89.36 3702.87,-76.91 3775.5,-67 3969.03,-40.61 4019.69,-55.26 4213.5,-31 4216.35,-30.64 4219.26,-30.26 4222.19,-29.85"/>
<polygon fill="midnightblue" stroke="midnightblue" points="2606.72,-145.14 2596.72,-148.65 2606.73,-152.14 2606.72,-145.14"/>
</g>
<!-- Node21&#45;&gt;Node20 -->
<g id="edge24" class="edge">
<title>Node21&#45;&gt;Node20</title>
<path fill="none" stroke="midnightblue" d="M2809.74,-79.11C2738.68,-76.05 2610.85,-70.7 2501.5,-67 1926.5,-47.52 1779.15,-96.03 1207.5,-31 1195.72,-29.66 1182.99,-27.38 1171.57,-25.02"/>
<polygon fill="midnightblue" stroke="midnightblue" points="2809.66,-82.61 2819.8,-79.54 2809.96,-75.61 2809.66,-82.61"/>
</g>
<!-- Node21&#45;&gt;Node22 -->
<g id="edge25" class="edge">
<title>Node21&#45;&gt;Node22</title>
<path fill="none" stroke="midnightblue" d="M2809.47,-78.83C2744.84,-75.74 2634.4,-70.63 2539.5,-67 2036.95,-47.79 1909.48,-75.15 1408.5,-31 1392.51,-29.59 1375.18,-27.34 1359.5,-25.02"/>
<polygon fill="midnightblue" stroke="midnightblue" points="2809.67,-82.34 2819.82,-79.33 2810,-75.35 2809.67,-82.34"/>
</g>
<!-- Node21&#45;&gt;Node23 -->
<g id="edge26" class="edge">
<title>Node21&#45;&gt;Node23</title>
<path fill="none" stroke="midnightblue" d="M2809.77,-78.5C2752.03,-75.38 2658.37,-70.49 2577.5,-67 2131.41,-47.73 2017.53,-77.99 1573.5,-31 1560.27,-29.6 1545.96,-27.33 1533.06,-25"/>
<polygon fill="midnightblue" stroke="midnightblue" points="2809.59,-81.99 2819.77,-79.04 2809.97,-75 2809.59,-81.99"/>
</g>
<!-- Node21&#45;&gt;Node24 -->
<g id="edge27" class="edge">
<title>Node21&#45;&gt;Node24</title>
<path fill="none" stroke="midnightblue" d="M2809.95,-78.06C2759.51,-74.94 2682.46,-70.34 2615.5,-67 2229.87,-47.78 2131.55,-70.81 1747.5,-31 1733.64,-29.56 1718.64,-27.32 1705.06,-25.02"/>
<polygon fill="midnightblue" stroke="midnightblue" points="2809.78,-81.56 2819.98,-78.68 2810.22,-74.57 2809.78,-81.56"/>
</g>
<!-- Node21&#45;&gt;Node25 -->
<g id="edge28" class="edge">
<title>Node21&#45;&gt;Node25</title>
<path fill="none" stroke="midnightblue" d="M2809.5,-77.42C2766.93,-74.34 2706.5,-70.12 2653.5,-67 2327.45,-47.8 2244.21,-66.21 1919.5,-31 1905.95,-29.53 1891.3,-27.3 1878,-25.03"/>
<polygon fill="midnightblue" stroke="midnightblue" points="2809.42,-80.93 2819.65,-78.16 2809.93,-73.95 2809.42,-80.93"/>
</g>
<!-- Node21&#45;&gt;Node26 -->
<g id="edge29" class="edge">
<title>Node21&#45;&gt;Node26</title>
<path fill="none" stroke="midnightblue" d="M2809.52,-76.55C2775.54,-73.57 2731.01,-69.82 2691.5,-67 2421.49,-47.69 2352.34,-62.62 2083.5,-31 2080.63,-30.66 2077.71,-30.29 2074.76,-29.89"/>
<polygon fill="midnightblue" stroke="midnightblue" points="2809.45,-80.05 2819.72,-77.44 2810.06,-73.08 2809.45,-80.05"/>
</g>
<!-- Node21&#45;&gt;Node27 -->
<g id="edge30" class="edge">
<title>Node21&#45;&gt;Node27</title>
<path fill="none" stroke="midnightblue" d="M2809.65,-75.22C2785.14,-72.51 2755.89,-69.42 2729.5,-67 2519.11,-47.72 2465.22,-56.59 2255.5,-31 2242.42,-29.4 2228.3,-27.22 2215.36,-25.03"/>
<polygon fill="midnightblue" stroke="midnightblue" points="2809.52,-78.72 2819.84,-76.35 2810.29,-71.77 2809.52,-78.72"/>
</g>
<!-- Node21&#45;&gt;Node28 -->
<g id="edge31" class="edge">
<title>Node21&#45;&gt;Node28</title>
<path fill="none" stroke="midnightblue" d="M2809.41,-72.81C2795.73,-70.77 2781.1,-68.71 2767.5,-67 2610.59,-47.3 2570.07,-53.29 2413.5,-31 2410.6,-30.59 2407.65,-30.14 2404.66,-29.68"/>
<polygon fill="midnightblue" stroke="midnightblue" points="2809.24,-76.32 2819.65,-74.35 2810.28,-69.4 2809.24,-76.32"/>
</g>
<!-- Node21&#45;&gt;Node29 -->
<g id="edge32" class="edge">
<title>Node21&#45;&gt;Node29</title>
<path fill="none" stroke="midnightblue" d="M2822.23,-70.59C2816.62,-69.29 2810.94,-68.06 2805.5,-67 2695.74,-45.63 2666.66,-50.2 2556.5,-31 2546.34,-29.23 2535.4,-27.1 2525.23,-25.04"/>
<polygon fill="midnightblue" stroke="midnightblue" points="2821.63,-74.04 2832.17,-72.95 2823.25,-67.23 2821.63,-74.04"/>
</g>
<!-- Node30 -->
<g id="node30" class="node">
<title>Node30</title>
<g id="a_node30"><a xlink:href="testDMA_8cpp.html" target="_top" xlink:title=" ">
<polygon fill="white" stroke="black" points="2566,-6 2566,-25 2695,-25 2695,-6 2566,-6"/>
<text text-anchor="middle" x="2630.5" y="-13" font-family="Helvetica,sans-Serif" font-size="10.00">tests/CPU/testDMA.cpp</text>
</a>
</g>
</g>
<!-- Node21&#45;&gt;Node30 -->
<g id="edge33" class="edge">
<title>Node21&#45;&gt;Node30</title>
<path fill="none" stroke="midnightblue" d="M2823.72,-70.17C2777.45,-57.32 2703.01,-36.64 2661.33,-25.06"/>
<polygon fill="midnightblue" stroke="midnightblue" points="2822.85,-73.56 2833.43,-72.87 2824.73,-66.82 2822.85,-73.56"/>
</g>
<!-- Node31 -->
<g id="node31" class="node">
<title>Node31</title>
<g id="a_node31"><a xlink:href="testInternal_8cpp.html" target="_top" xlink:title=" ">
<polygon fill="white" stroke="black" points="2713,-6 2713,-25 2856,-25 2856,-6 2713,-6"/>
<text text-anchor="middle" x="2784.5" y="-13" font-family="Helvetica,sans-Serif" font-size="10.00">tests/CPU/testInternal.cpp</text>
</a>
</g>
</g>
<!-- Node21&#45;&gt;Node31 -->
<g id="edge34" class="edge">
<title>Node21&#45;&gt;Node31</title>
<path fill="none" stroke="midnightblue" d="M2845.69,-66.21C2829.92,-53.41 2807.99,-35.59 2795.12,-25.13"/>
<polygon fill="midnightblue" stroke="midnightblue" points="2843.74,-69.14 2853.71,-72.73 2848.16,-63.71 2843.74,-69.14"/>
</g>
<!-- Node21&#45;&gt;Node32 -->
<g id="edge35" class="edge">
<title>Node21&#45;&gt;Node32</title>
<path fill="none" stroke="midnightblue" d="M2919.19,-74.03C2987.79,-64.54 3108.98,-47.44 3212.5,-31 3224.19,-29.14 3236.78,-27.03 3248.56,-25"/>
<polygon fill="midnightblue" stroke="midnightblue" points="2918.48,-70.59 2909.05,-75.42 2919.44,-77.52 2918.48,-70.59"/>
</g>
<!-- Node21&#45;&gt;Node33 -->
<g id="edge36" class="edge">
<title>Node21&#45;&gt;Node33</title>
<path fill="none" stroke="midnightblue" d="M2919.26,-77.82C3013.57,-71.09 3212.62,-55.26 3379.5,-31 3390.79,-29.36 3402.95,-27.18 3414.14,-25.02"/>
<polygon fill="midnightblue" stroke="midnightblue" points="2918.83,-74.34 2909.1,-78.53 2919.32,-81.32 2918.83,-74.34"/>
</g>
<!-- Node21&#45;&gt;Node34 -->
<g id="edge37" class="edge">
<title>Node21&#45;&gt;Node34</title>
<path fill="none" stroke="midnightblue" d="M2919.21,-79.11C3033.1,-73.75 3303.86,-58.98 3529.5,-31 3542.28,-29.42 3556.07,-27.23 3568.72,-25.04"/>
<polygon fill="midnightblue" stroke="midnightblue" points="2918.83,-75.62 2909,-79.59 2919.16,-82.62 2918.83,-75.62"/>
</g>
<!-- Node21&#45;&gt;Node35 -->
<g id="edge38" class="edge">
<title>Node21&#45;&gt;Node35</title>
<path fill="none" stroke="midnightblue" d="M2919.71,-80.01C3053.49,-76.01 3405.49,-63.04 3697.5,-31 3711.49,-29.46 3726.62,-27.27 3740.45,-25.05"/>
<polygon fill="midnightblue" stroke="midnightblue" points="2919.22,-76.53 2909.33,-80.32 2919.43,-83.52 2919.22,-76.53"/>
</g>
<!-- Node21&#45;&gt;Node36 -->
<g id="edge39" class="edge">
<title>Node21&#45;&gt;Node36</title>
<path fill="none" stroke="midnightblue" d="M2919.23,-81.14C3071.76,-79.64 3514.41,-71.82 3879.5,-31 3892.58,-29.54 3906.73,-27.31 3919.57,-25.04"/>
<polygon fill="midnightblue" stroke="midnightblue" points="2919.15,-77.65 2909.18,-81.24 2919.21,-84.64 2919.15,-77.65"/>
</g>
<!-- Node21&#45;&gt;Node37 -->
<g id="edge40" class="edge">
<title>Node21&#45;&gt;Node37</title>
<path fill="none" stroke="midnightblue" d="M2919.27,-81.65C3087.79,-81.57 3613.29,-77.35 4045.5,-31 4058.89,-29.56 4073.38,-27.32 4086.48,-25.02"/>
<polygon fill="midnightblue" stroke="midnightblue" points="2919.16,-78.15 2909.16,-81.65 2919.16,-85.15 2919.16,-78.15"/>
</g>
<!-- Node21&#45;&gt;Node38 -->
<g id="edge41" class="edge">
<title>Node21&#45;&gt;Node38</title>
<path fill="none" stroke="midnightblue" d="M2919.4,-81.99C3103.11,-83.09 3712.93,-82.35 4213.5,-31 4216.36,-30.71 4219.27,-30.38 4222.21,-30.02"/>
<polygon fill="midnightblue" stroke="midnightblue" points="2919.21,-78.49 2909.19,-81.92 2919.16,-85.49 2919.21,-78.49"/>
</g>
<!-- Node39 -->
<g id="node39" class="node">
<title>Node39</title>
<g id="a_node39"><a xlink:href="testMemoryBus_8cpp.html" target="_top" xlink:title=" ">
<polygon fill="white" stroke="black" points="2874,-6 2874,-25 3015,-25 3015,-6 2874,-6"/>
<text text-anchor="middle" x="2944.5" y="-13" font-family="Helvetica,sans-Serif" font-size="10.00">tests/testMemoryBus.cpp</text>
</a>
</g>
</g>
<!-- Node21&#45;&gt;Node39 -->
<g id="edge42" class="edge">
<title>Node21&#45;&gt;Node39</title>
<path fill="none" stroke="midnightblue" d="M2883.31,-66.21C2899.08,-53.41 2921.01,-35.59 2933.88,-25.13"/>
<polygon fill="midnightblue" stroke="midnightblue" points="2880.84,-63.71 2875.29,-72.73 2885.26,-69.14 2880.84,-63.71"/>
</g>
<!-- Node40 -->
<g id="node40" class="node">
<title>Node40</title>
<g id="a_node40"><a xlink:href="testRectangleMemory_8cpp.html" target="_top" xlink:title=" ">
<polygon fill="white" stroke="black" points="3033.5,-6 3033.5,-25 3203.5,-25 3203.5,-6 3033.5,-6"/>
<text text-anchor="middle" x="3118.5" y="-13" font-family="Helvetica,sans-Serif" font-size="10.00">tests/testRectangleMemory.cpp</text>
</a>
</g>
</g>
<!-- Node21&#45;&gt;Node40 -->
<g id="edge43" class="edge">
<title>Node21&#45;&gt;Node40</title>
<path fill="none" stroke="midnightblue" d="M2907.86,-70.4C2957.99,-57.58 3039.42,-36.74 3084.96,-25.08"/>
<polygon fill="midnightblue" stroke="midnightblue" points="2906.79,-67.07 2897.97,-72.94 2908.52,-73.85 2906.79,-67.07"/>
</g>
<!-- Node44 -->
<g id="node44" class="node">
<title>Node44</title>
<g id="a_node44"><a xlink:href="PpuDebug_8cpp.html" target="_top" xlink:title=" ">
<polygon fill="white" stroke="black" points="3817,-73 3817,-92 3966,-92 3966,-73 3817,-73"/>
<text text-anchor="middle" x="3891.5" y="-80" font-family="Helvetica,sans-Serif" font-size="10.00">sources/PPU/PpuDebug.cpp</text>
</a>
</g>
</g>
<!-- Node43&#45;&gt;Node44 -->
<g id="edge63" class="edge">
<title>Node43&#45;&gt;Node44</title>
<path fill="none" stroke="midnightblue" d="M3864.44,-131.03C3871.61,-118.45 3880.97,-102.01 3886.59,-92.13"/>
<polygon fill="midnightblue" stroke="midnightblue" points="3861.4,-129.31 3859.49,-139.73 3867.48,-132.77 3861.4,-129.31"/>
</g>
</g>
</svg>
