<?xml version="1.0" encoding="UTF-8" standalone="no"?>
<!DOCTYPE svg PUBLIC "-//W3C//DTD SVG 1.1//EN"
 "http://www.w3.org/Graphics/SVG/1.1/DTD/svg11.dtd">
<!-- Generated by graphviz version 2.43.0 (0)
 -->
<!-- Title: sources/PPU/Background.cpp Pages: 1 -->
<svg width="1370pt" height="476pt"
 viewBox="0.00 0.00 1370.00 476.00" xmlns="http://www.w3.org/2000/svg" xmlns:xlink="http://www.w3.org/1999/xlink">
<g id="graph0" class="graph" transform="scale(1 1) rotate(0) translate(4 472)">
<title>sources/PPU/Background.cpp</title>
<polygon fill="white" stroke="transparent" points="-4,4 -4,-472 1366,-472 1366,4 -4,4"/>
<!-- Node1 -->
<g id="node1" class="node">
<title>Node1</title>
<g id="a_node1"><a xlink:title=" ">
<polygon fill="#bfbfbf" stroke="black" points="437,-448.5 437,-467.5 595,-467.5 595,-448.5 437,-448.5"/>
<text text-anchor="middle" x="516" y="-455.5" font-family="Helvetica,sans-Serif" font-size="10.00">sources/PPU/Background.cpp</text>
</a>
</g>
</g>
<!-- Node2 -->
<g id="node2" class="node">
<title>Node2</title>
<g id="a_node2"><a xlink:href="PPUUtils_8hpp.html" target="_top" xlink:title=" ">
<polygon fill="white" stroke="black" points="154,-280.5 154,-299.5 234,-299.5 234,-280.5 154,-280.5"/>
<text text-anchor="middle" x="194" y="-287.5" font-family="Helvetica,sans-Serif" font-size="10.00">PPUUtils.hpp</text>
</a>
</g>
</g>
<!-- Node1&#45;&gt;Node2 -->
<g id="edge1" class="edge">
<title>Node1&#45;&gt;Node2</title>
<path fill="none" stroke="midnightblue" d="M494.24,-448.47C453.72,-432.29 364.3,-395.24 293,-356 264.57,-340.35 233.57,-319.29 213.97,-305.44"/>
<polygon fill="midnightblue" stroke="midnightblue" points="215.99,-302.59 205.82,-299.63 211.93,-308.29 215.99,-302.59"/>
</g>
<!-- Node7 -->
<g id="node7" class="node">
<title>Node7</title>
<g id="a_node7"><a xlink:href="Vector2_8hpp.html" target="_top" xlink:title=" ">
<polygon fill="white" stroke="black" points="373.5,-224.5 373.5,-243.5 486.5,-243.5 486.5,-224.5 373.5,-224.5"/>
<text text-anchor="middle" x="430" y="-231.5" font-family="Helvetica,sans-Serif" font-size="10.00">Models/Vector2.hpp</text>
</a>
</g>
</g>
<!-- Node1&#45;&gt;Node7 -->
<g id="edge70" class="edge">
<title>Node1&#45;&gt;Node7</title>
<path fill="none" stroke="midnightblue" d="M517.45,-448.47C521.58,-421.46 531.02,-336.36 497,-280 488.59,-266.06 474.01,-255.51 460.6,-248.13"/>
<polygon fill="midnightblue" stroke="midnightblue" points="462.08,-244.96 451.59,-243.54 458.9,-251.2 462.08,-244.96"/>
</g>
<!-- Node10 -->
<g id="node10" class="node">
<title>Node10</title>
<g id="a_node10"><a xlink:href="PPU_8hpp.html" target="_top" xlink:title=" ">
<polygon fill="white" stroke="black" points="652.5,-392.5 652.5,-411.5 709.5,-411.5 709.5,-392.5 652.5,-392.5"/>
<text text-anchor="middle" x="681" y="-399.5" font-family="Helvetica,sans-Serif" font-size="10.00">PPU.hpp</text>
</a>
</g>
</g>
<!-- Node1&#45;&gt;Node10 -->
<g id="edge9" class="edge">
<title>Node1&#45;&gt;Node10</title>
<path fill="none" stroke="midnightblue" d="M542.14,-448.44C570.02,-439.32 614.35,-424.81 645.4,-414.65"/>
<polygon fill="midnightblue" stroke="midnightblue" points="646.56,-417.95 654.98,-411.52 644.38,-411.3 646.56,-417.95"/>
</g>
<!-- Node30 -->
<g id="node30" class="node">
<title>Node30</title>
<g id="a_node30"><a xlink:href="Background_8hpp.html" target="_top" xlink:title=" ">
<polygon fill="white" stroke="black" points="364.5,-336.5 364.5,-355.5 459.5,-355.5 459.5,-336.5 364.5,-336.5"/>
<text text-anchor="middle" x="412" y="-343.5" font-family="Helvetica,sans-Serif" font-size="10.00">Background.hpp</text>
</a>
</g>
</g>
<!-- Node1&#45;&gt;Node30 -->
<g id="edge68" class="edge">
<title>Node1&#45;&gt;Node30</title>
<path fill="none" stroke="midnightblue" d="M507.84,-448.37C490.45,-429.97 449.51,-386.67 427.18,-363.05"/>
<polygon fill="midnightblue" stroke="midnightblue" points="429.54,-360.45 420.12,-355.59 424.45,-365.26 429.54,-360.45"/>
</g>
<!-- Node33 -->
<g id="node33" class="node">
<title>Node33</title>
<g id="a_node33"><a xlink:href="Tile_8hpp.html" target="_top" xlink:title=" ">
<polygon fill="white" stroke="black" points="728,-392.5 728,-411.5 784,-411.5 784,-392.5 728,-392.5"/>
<text text-anchor="middle" x="756" y="-399.5" font-family="Helvetica,sans-Serif" font-size="10.00">Tile.hpp</text>
</a>
</g>
</g>
<!-- Node1&#45;&gt;Node33 -->
<g id="edge69" class="edge">
<title>Node1&#45;&gt;Node33</title>
<path fill="none" stroke="midnightblue" d="M555.14,-448.44C595.86,-439.5 661.45,-425 718,-412 718.1,-411.98 718.2,-411.95 718.3,-411.93"/>
<polygon fill="midnightblue" stroke="midnightblue" points="718.84,-415.4 727.79,-409.73 717.26,-408.58 718.84,-415.4"/>
</g>
<!-- Node3 -->
<g id="node3" class="node">
<title>Node3</title>
<g id="a_node3"><a xlink:title=" ">
<polygon fill="white" stroke="#bfbfbf" points="28,-224.5 28,-243.5 102,-243.5 102,-224.5 28,-224.5"/>
<text text-anchor="middle" x="65" y="-231.5" font-family="Helvetica,sans-Serif" font-size="10.00">stdint&#45;gcc.h</text>
</a>
</g>
</g>
<!-- Node2&#45;&gt;Node3 -->
<g id="edge2" class="edge">
<title>Node2&#45;&gt;Node3</title>
<path fill="none" stroke="midnightblue" d="M173.56,-280.44C152.33,-271.56 118.9,-257.56 94.75,-247.45"/>
<polygon fill="midnightblue" stroke="midnightblue" points="95.92,-244.15 85.34,-243.52 93.22,-250.61 95.92,-244.15"/>
</g>
<!-- Node4 -->
<g id="node4" class="node">
<title>Node4</title>
<g id="a_node4"><a xlink:title=" ">
<polygon fill="white" stroke="#bfbfbf" points="120.5,-224.5 120.5,-243.5 173.5,-243.5 173.5,-224.5 120.5,-224.5"/>
<text text-anchor="middle" x="147" y="-231.5" font-family="Helvetica,sans-Serif" font-size="10.00">cstddef</text>
</a>
</g>
</g>
<!-- Node2&#45;&gt;Node4 -->
<g id="edge3" class="edge">
<title>Node2&#45;&gt;Node4</title>
<path fill="none" stroke="midnightblue" d="M186.24,-280.08C179.46,-272.3 169.46,-260.8 161.24,-251.37"/>
<polygon fill="midnightblue" stroke="midnightblue" points="163.82,-249 154.62,-243.75 158.54,-253.59 163.82,-249"/>
</g>
<!-- Node5 -->
<g id="node5" class="node">
<title>Node5</title>
<g id="a_node5"><a xlink:title=" ">
<polygon fill="white" stroke="#bfbfbf" points="589,-56.5 589,-75.5 647,-75.5 647,-56.5 589,-56.5"/>
<text text-anchor="middle" x="618" y="-63.5" font-family="Helvetica,sans-Serif" font-size="10.00">memory</text>
</a>
</g>
</g>
<!-- Node2&#45;&gt;Node5 -->
<g id="edge4" class="edge">
<title>Node2&#45;&gt;Node5</title>
<path fill="none" stroke="midnightblue" d="M196.19,-280.36C199.81,-267.27 207.96,-242.01 221,-224 243.36,-193.11 252.6,-186.39 286,-168 383.99,-114.06 514.47,-85.23 578.78,-73.47"/>
<polygon fill="midnightblue" stroke="midnightblue" points="579.66,-76.87 588.88,-71.66 578.42,-69.97 579.66,-76.87"/>
</g>
<!-- Node6 -->
<g id="node6" class="node">
<title>Node6</title>
<g id="a_node6"><a xlink:title=" ">
<polygon fill="white" stroke="#bfbfbf" points="230,-224.5 230,-243.5 272,-243.5 272,-224.5 230,-224.5"/>
<text text-anchor="middle" x="251" y="-231.5" font-family="Helvetica,sans-Serif" font-size="10.00">array</text>
</a>
</g>
</g>
<!-- Node2&#45;&gt;Node6 -->
<g id="edge5" class="edge">
<title>Node2&#45;&gt;Node6</title>
<path fill="none" stroke="midnightblue" d="M203.16,-280.32C211.5,-272.42 224.03,-260.55 234.18,-250.94"/>
<polygon fill="midnightblue" stroke="midnightblue" points="236.82,-253.25 241.68,-243.83 232.01,-248.17 236.82,-253.25"/>
</g>
<!-- Node2&#45;&gt;Node7 -->
<g id="edge6" class="edge">
<title>Node2&#45;&gt;Node7</title>
<path fill="none" stroke="midnightblue" d="M231.39,-280.44C272.39,-271.06 338.25,-255.99 382.78,-245.8"/>
<polygon fill="midnightblue" stroke="midnightblue" points="383.81,-249.16 392.78,-243.52 382.25,-242.34 383.81,-249.16"/>
</g>
<!-- Node8 -->
<g id="node8" class="node">
<title>Node8</title>
<g id="a_node8"><a xlink:title=" ">
<polygon fill="white" stroke="#bfbfbf" points="328.5,-168.5 328.5,-187.5 385.5,-187.5 385.5,-168.5 328.5,-168.5"/>
<text text-anchor="middle" x="357" y="-175.5" font-family="Helvetica,sans-Serif" font-size="10.00">ostream</text>
</a>
</g>
</g>
<!-- Node7&#45;&gt;Node8 -->
<g id="edge7" class="edge">
<title>Node7&#45;&gt;Node8</title>
<path fill="none" stroke="midnightblue" d="M418.27,-224.32C407.16,-216.11 390.26,-203.6 377.02,-193.81"/>
<polygon fill="midnightblue" stroke="midnightblue" points="379.06,-190.97 368.94,-187.83 374.9,-196.59 379.06,-190.97"/>
</g>
<!-- Node9 -->
<g id="node9" class="node">
<title>Node9</title>
<g id="a_node9"><a xlink:title=" ">
<polygon fill="white" stroke="#bfbfbf" points="403.5,-168.5 403.5,-187.5 546.5,-187.5 546.5,-168.5 403.5,-168.5"/>
<text text-anchor="middle" x="475" y="-175.5" font-family="Helvetica,sans-Serif" font-size="10.00">SFML/System/Vector2.hpp</text>
</a>
</g>
</g>
<!-- Node7&#45;&gt;Node9 -->
<g id="edge8" class="edge">
<title>Node7&#45;&gt;Node9</title>
<path fill="none" stroke="midnightblue" d="M437.43,-224.08C443.85,-216.38 453.31,-205.03 461.12,-195.65"/>
<polygon fill="midnightblue" stroke="midnightblue" points="463.99,-197.67 467.71,-187.75 458.62,-193.19 463.99,-197.67"/>
</g>
<!-- Node10&#45;&gt;Node2 -->
<g id="edge66" class="edge">
<title>Node10&#45;&gt;Node2</title>
<path fill="none" stroke="midnightblue" d="M652.19,-399.41C594.77,-395.72 462.38,-384.62 355,-356 306.11,-342.97 252.13,-319.09 220.74,-304.18"/>
<polygon fill="midnightblue" stroke="midnightblue" points="221.91,-300.86 211.38,-299.68 218.88,-307.17 221.91,-300.86"/>
</g>
<!-- Node10&#45;&gt;Node7 -->
<g id="edge53" class="edge">
<title>Node10&#45;&gt;Node7</title>
<path fill="none" stroke="midnightblue" d="M662.48,-392.41C645.83,-384.24 621.13,-371 602,-356 565.39,-327.29 567.93,-306.95 530,-280 510.26,-265.98 485.45,-254.78 465.48,-247.06"/>
<polygon fill="midnightblue" stroke="midnightblue" points="466.7,-243.78 456.11,-243.56 464.25,-250.34 466.7,-243.78"/>
</g>
<!-- Node11 -->
<g id="node11" class="node">
<title>Node11</title>
<g id="a_node11"><a xlink:title=" ">
<polygon fill="white" stroke="#bfbfbf" points="1312,-56.5 1312,-75.5 1362,-75.5 1362,-56.5 1312,-56.5"/>
<text text-anchor="middle" x="1337" y="-63.5" font-family="Helvetica,sans-Serif" font-size="10.00">cstdint</text>
</a>
</g>
</g>
<!-- Node10&#45;&gt;Node11 -->
<g id="edge10" class="edge">
<title>Node10&#45;&gt;Node11</title>
<path fill="none" stroke="midnightblue" d="M709.55,-393.82C712.73,-393.15 715.93,-392.52 719,-392 861.16,-367.81 1360,-435.2 1360,-291 1360,-291 1360,-291 1360,-177 1360,-144.12 1350.03,-106.86 1343.22,-85.24"/>
<polygon fill="midnightblue" stroke="midnightblue" points="1346.54,-84.12 1340.1,-75.71 1339.89,-86.3 1346.54,-84.12"/>
</g>
<!-- Node12 -->
<g id="node12" class="node">
<title>Node12</title>
<g id="a_node12"><a xlink:href="AMemory_8hpp.html" target="_top" xlink:title=" ">
<polygon fill="white" stroke="black" points="914.5,-168.5 914.5,-187.5 1041.5,-187.5 1041.5,-168.5 914.5,-168.5"/>
<text text-anchor="middle" x="978" y="-175.5" font-family="Helvetica,sans-Serif" font-size="10.00">Memory/AMemory.hpp</text>
</a>
</g>
</g>
<!-- Node10&#45;&gt;Node12 -->
<g id="edge11" class="edge">
<title>Node10&#45;&gt;Node12</title>
<path fill="none" stroke="midnightblue" d="M709.56,-393.84C712.73,-393.17 715.93,-392.53 719,-392 790.16,-379.65 993.84,-409.82 1042,-356 1084.98,-307.96 1023.71,-228.85 993.34,-195.08"/>
<polygon fill="midnightblue" stroke="midnightblue" points="995.72,-192.5 986.37,-187.52 990.57,-197.25 995.72,-192.5"/>
</g>
<!-- Node20 -->
<g id="node20" class="node">
<title>Node20</title>
<g id="a_node20"><a xlink:href="MemoryBus_8hpp.html" target="_top" xlink:title=" ">
<polygon fill="white" stroke="black" points="611,-336.5 611,-355.5 751,-355.5 751,-336.5 611,-336.5"/>
<text text-anchor="middle" x="681" y="-343.5" font-family="Helvetica,sans-Serif" font-size="10.00">Memory/MemoryBus.hpp</text>
</a>
</g>
</g>
<!-- Node10&#45;&gt;Node20 -->
<g id="edge27" class="edge">
<title>Node10&#45;&gt;Node20</title>
<path fill="none" stroke="midnightblue" d="M681,-392.08C681,-385.01 681,-374.86 681,-365.99"/>
<polygon fill="midnightblue" stroke="midnightblue" points="684.5,-365.75 681,-355.75 677.5,-365.75 684.5,-365.75"/>
</g>
<!-- Node26 -->
<g id="node26" class="node">
<title>Node26</title>
<g id="a_node26"><a xlink:href="IRenderer_8hpp.html" target="_top" xlink:title=" ">
<polygon fill="white" stroke="black" points="1084.5,-224.5 1084.5,-243.5 1215.5,-243.5 1215.5,-224.5 1084.5,-224.5"/>
<text text-anchor="middle" x="1150" y="-231.5" font-family="Helvetica,sans-Serif" font-size="10.00">Renderer/IRenderer.hpp</text>
</a>
</g>
</g>
<!-- Node10&#45;&gt;Node26 -->
<g id="edge45" class="edge">
<title>Node10&#45;&gt;Node26</title>
<path fill="none" stroke="midnightblue" d="M695.98,-392.43C725.13,-375.78 787.54,-340.34 798,-336 901.69,-292.98 1029.79,-261.26 1099.31,-245.71"/>
<polygon fill="midnightblue" stroke="midnightblue" points="1100.12,-249.12 1109.13,-243.54 1098.61,-242.28 1100.12,-249.12"/>
</g>
<!-- Node28 -->
<g id="node28" class="node">
<title>Node28</title>
<g id="a_node28"><a xlink:href="Ram_8hpp.html" target="_top" xlink:title=" ">
<polygon fill="white" stroke="black" points="851,-224.5 851,-243.5 937,-243.5 937,-224.5 851,-224.5"/>
<text text-anchor="middle" x="894" y="-231.5" font-family="Helvetica,sans-Serif" font-size="10.00">Ram/Ram.hpp</text>
</a>
</g>
</g>
<!-- Node10&#45;&gt;Node28 -->
<g id="edge48" class="edge">
<title>Node10&#45;&gt;Node28</title>
<path fill="none" stroke="midnightblue" d="M709.56,-393.86C712.73,-393.18 715.93,-392.54 719,-392 785.99,-380.14 977.81,-406.85 1023,-356 1061.05,-313.18 975.13,-268.51 925.72,-247.43"/>
<polygon fill="midnightblue" stroke="midnightblue" points="926.95,-244.15 916.37,-243.53 924.26,-250.61 926.95,-244.15"/>
</g>
<!-- Node29 -->
<g id="node29" class="node">
<title>Node29</title>
<g id="a_node29"><a xlink:title=" ">
<polygon fill="white" stroke="#bfbfbf" points="807,-336.5 807,-355.5 871,-355.5 871,-336.5 807,-336.5"/>
<text text-anchor="middle" x="839" y="-343.5" font-family="Helvetica,sans-Serif" font-size="10.00">algorithm</text>
</a>
</g>
</g>
<!-- Node10&#45;&gt;Node29 -->
<g id="edge54" class="edge">
<title>Node10&#45;&gt;Node29</title>
<path fill="none" stroke="midnightblue" d="M706.04,-392.44C732.62,-383.36 774.81,-368.94 804.52,-358.78"/>
<polygon fill="midnightblue" stroke="midnightblue" points="805.75,-362.06 814.08,-355.52 803.49,-355.44 805.75,-362.06"/>
</g>
<!-- Node10&#45;&gt;Node30 -->
<g id="edge55" class="edge">
<title>Node10&#45;&gt;Node30</title>
<path fill="none" stroke="midnightblue" d="M652.32,-396.06C606.11,-387.39 515.14,-369.22 459.27,-357.59"/>
<polygon fill="midnightblue" stroke="midnightblue" points="459.77,-354.12 449.27,-355.5 458.34,-360.97 459.77,-354.12"/>
</g>
<!-- Node32 -->
<g id="node32" class="node">
<title>Node32</title>
<g id="a_node32"><a xlink:href="PPURegisters_8hpp.html" target="_top" xlink:title=" ">
<polygon fill="white" stroke="black" points="889.5,-336.5 889.5,-355.5 1014.5,-355.5 1014.5,-336.5 889.5,-336.5"/>
<text text-anchor="middle" x="952" y="-343.5" font-family="Helvetica,sans-Serif" font-size="10.00">PPU/PPURegisters.hpp</text>
</a>
</g>
</g>
<!-- Node10&#45;&gt;Node32 -->
<g id="edge67" class="edge">
<title>Node10&#45;&gt;Node32</title>
<path fill="none" stroke="midnightblue" d="M709.6,-394.09C712.77,-393.37 715.95,-392.66 719,-392 778.67,-379.18 847.3,-366.13 894.54,-357.41"/>
<polygon fill="midnightblue" stroke="midnightblue" points="895.38,-360.81 904.58,-355.56 894.11,-353.93 895.38,-360.81"/>
</g>
<!-- Node12&#45;&gt;Node5 -->
<g id="edge14" class="edge">
<title>Node12&#45;&gt;Node5</title>
<path fill="none" stroke="midnightblue" d="M950.05,-168.46C885.99,-148.89 728.51,-100.77 655.85,-78.57"/>
<polygon fill="midnightblue" stroke="midnightblue" points="656.77,-75.19 646.18,-75.61 654.72,-81.88 656.77,-75.19"/>
</g>
<!-- Node12&#45;&gt;Node11 -->
<g id="edge12" class="edge">
<title>Node12&#45;&gt;Node11</title>
<path fill="none" stroke="midnightblue" d="M1005.87,-168.46C1070.56,-148.64 1230.81,-99.54 1301.97,-77.73"/>
<polygon fill="midnightblue" stroke="midnightblue" points="1303.27,-81 1311.81,-74.72 1301.22,-74.3 1303.27,-81"/>
</g>
<!-- Node13 -->
<g id="node13" class="node">
<title>Node13</title>
<g id="a_node13"><a xlink:title=" ">
<polygon fill="white" stroke="#bfbfbf" points="743.5,-56.5 743.5,-75.5 790.5,-75.5 790.5,-56.5 743.5,-56.5"/>
<text text-anchor="middle" x="767" y="-63.5" font-family="Helvetica,sans-Serif" font-size="10.00">vector</text>
</a>
</g>
</g>
<!-- Node12&#45;&gt;Node13 -->
<g id="edge13" class="edge">
<title>Node12&#45;&gt;Node13</title>
<path fill="none" stroke="midnightblue" d="M958.67,-168.46C939.13,-159.71 908.17,-145.51 882,-132 849.58,-115.27 813.04,-94.23 790.03,-80.7"/>
<polygon fill="midnightblue" stroke="midnightblue" points="791.72,-77.64 781.33,-75.57 788.16,-83.66 791.72,-77.64"/>
</g>
<!-- Node14 -->
<g id="node14" class="node">
<title>Node14</title>
<g id="a_node14"><a xlink:title=" ">
<polygon fill="white" stroke="#bfbfbf" points="1077,-56.5 1077,-75.5 1121,-75.5 1121,-56.5 1077,-56.5"/>
<text text-anchor="middle" x="1099" y="-63.5" font-family="Helvetica,sans-Serif" font-size="10.00">string</text>
</a>
</g>
</g>
<!-- Node12&#45;&gt;Node14 -->
<g id="edge15" class="edge">
<title>Node12&#45;&gt;Node14</title>
<path fill="none" stroke="midnightblue" d="M987.49,-168.37C1007.9,-149.81 1056.2,-105.91 1082.02,-82.44"/>
<polygon fill="midnightblue" stroke="midnightblue" points="1084.5,-84.91 1089.55,-75.59 1079.8,-79.73 1084.5,-84.91"/>
</g>
<!-- Node15 -->
<g id="node15" class="node">
<title>Node15</title>
<g id="a_node15"><a xlink:href="Ints_8hpp.html" target="_top" xlink:title=" ">
<polygon fill="white" stroke="black" points="809,-56.5 809,-75.5 903,-75.5 903,-56.5 809,-56.5"/>
<text text-anchor="middle" x="856" y="-63.5" font-family="Helvetica,sans-Serif" font-size="10.00">Models/Ints.hpp</text>
</a>
</g>
</g>
<!-- Node12&#45;&gt;Node15 -->
<g id="edge16" class="edge">
<title>Node12&#45;&gt;Node15</title>
<path fill="none" stroke="midnightblue" d="M959.34,-168.48C943.26,-160.55 920,-147.61 903,-132 887.83,-118.08 874.5,-98.55 865.95,-84.54"/>
<polygon fill="midnightblue" stroke="midnightblue" points="868.93,-82.69 860.83,-75.86 862.9,-86.25 868.93,-82.69"/>
</g>
<!-- Node18 -->
<g id="node18" class="node">
<title>Node18</title>
<g id="a_node18"><a xlink:href="Components_8hpp.html" target="_top" xlink:title=" ">
<polygon fill="white" stroke="black" points="921.5,-56.5 921.5,-75.5 1058.5,-75.5 1058.5,-56.5 921.5,-56.5"/>
<text text-anchor="middle" x="990" y="-63.5" font-family="Helvetica,sans-Serif" font-size="10.00">Models/Components.hpp</text>
</a>
</g>
</g>
<!-- Node12&#45;&gt;Node18 -->
<g id="edge19" class="edge">
<title>Node12&#45;&gt;Node18</title>
<path fill="none" stroke="midnightblue" d="M984.1,-168.19C989.75,-159.46 997.76,-145.48 1001,-132 1004.73,-116.53 1001.16,-98.68 997.12,-85.61"/>
<polygon fill="midnightblue" stroke="midnightblue" points="1000.34,-84.22 993.77,-75.91 993.73,-86.5 1000.34,-84.22"/>
</g>
<!-- Node19 -->
<g id="node19" class="node">
<title>Node19</title>
<g id="a_node19"><a xlink:href="IMemory_8hpp.html" target="_top" xlink:title=" ">
<polygon fill="white" stroke="black" points="912,-112.5 912,-131.5 992,-131.5 992,-112.5 912,-112.5"/>
<text text-anchor="middle" x="952" y="-119.5" font-family="Helvetica,sans-Serif" font-size="10.00">IMemory.hpp</text>
</a>
</g>
</g>
<!-- Node12&#45;&gt;Node19 -->
<g id="edge20" class="edge">
<title>Node12&#45;&gt;Node19</title>
<path fill="none" stroke="midnightblue" d="M973.71,-168.08C970.15,-160.69 964.98,-149.95 960.58,-140.81"/>
<polygon fill="midnightblue" stroke="midnightblue" points="963.71,-139.24 956.21,-131.75 957.4,-142.28 963.71,-139.24"/>
</g>
<!-- Node16 -->
<g id="node16" class="node">
<title>Node16</title>
<g id="a_node16"><a xlink:title=" ">
<polygon fill="white" stroke="#bfbfbf" points="1039,-0.5 1039,-19.5 1101,-19.5 1101,-0.5 1039,-0.5"/>
<text text-anchor="middle" x="1070" y="-7.5" font-family="Helvetica,sans-Serif" font-size="10.00">cinttypes</text>
</a>
</g>
</g>
<!-- Node15&#45;&gt;Node16 -->
<g id="edge17" class="edge">
<title>Node15&#45;&gt;Node16</title>
<path fill="none" stroke="midnightblue" d="M889.91,-56.44C927.61,-46.93 988.5,-31.57 1028.89,-21.37"/>
<polygon fill="midnightblue" stroke="midnightblue" points="1029.85,-24.74 1038.69,-18.9 1028.13,-17.95 1029.85,-24.74"/>
</g>
<!-- Node17 -->
<g id="node17" class="node">
<title>Node17</title>
<g id="a_node17"><a xlink:title=" ">
<polygon fill="white" stroke="#bfbfbf" points="577,-0.5 577,-19.5 637,-19.5 637,-0.5 577,-0.5"/>
<text text-anchor="middle" x="607" y="-7.5" font-family="Helvetica,sans-Serif" font-size="10.00">iostream</text>
</a>
</g>
</g>
<!-- Node15&#45;&gt;Node17 -->
<g id="edge18" class="edge">
<title>Node15&#45;&gt;Node17</title>
<path fill="none" stroke="midnightblue" d="M816.55,-56.44C770.27,-46.41 693.96,-29.86 647.31,-19.74"/>
<polygon fill="midnightblue" stroke="midnightblue" points="647.78,-16.26 637.26,-17.56 646.29,-23.1 647.78,-16.26"/>
</g>
<!-- Node19&#45;&gt;Node5 -->
<g id="edge23" class="edge">
<title>Node19&#45;&gt;Node5</title>
<path fill="none" stroke="midnightblue" d="M911.71,-114.49C847.12,-104.04 721.18,-83.68 657.25,-73.35"/>
<polygon fill="midnightblue" stroke="midnightblue" points="657.6,-69.86 647.17,-71.72 656.49,-76.77 657.6,-69.86"/>
</g>
<!-- Node19&#45;&gt;Node11 -->
<g id="edge21" class="edge">
<title>Node19&#45;&gt;Node11</title>
<path fill="none" stroke="midnightblue" d="M992.11,-115.37C1067.59,-104.79 1229.57,-82.07 1301.42,-71.99"/>
<polygon fill="midnightblue" stroke="midnightblue" points="1302.33,-75.4 1311.75,-70.54 1301.36,-68.46 1302.33,-75.4"/>
</g>
<!-- Node19&#45;&gt;Node13 -->
<g id="edge22" class="edge">
<title>Node19&#45;&gt;Node13</title>
<path fill="none" stroke="midnightblue" d="M922.69,-112.44C889.4,-102.73 835.19,-86.9 800.32,-76.73"/>
<polygon fill="midnightblue" stroke="midnightblue" points="801.18,-73.33 790.6,-73.89 799.22,-80.05 801.18,-73.33"/>
</g>
<!-- Node19&#45;&gt;Node14 -->
<g id="edge24" class="edge">
<title>Node19&#45;&gt;Node14</title>
<path fill="none" stroke="midnightblue" d="M975.29,-112.44C1000.1,-103.33 1039.51,-88.85 1067.17,-78.69"/>
<polygon fill="midnightblue" stroke="midnightblue" points="1068.6,-81.9 1076.78,-75.16 1066.19,-75.33 1068.6,-81.9"/>
</g>
<!-- Node19&#45;&gt;Node15 -->
<g id="edge25" class="edge">
<title>Node19&#45;&gt;Node15</title>
<path fill="none" stroke="midnightblue" d="M936.58,-112.32C921.46,-103.82 898.18,-90.73 880.53,-80.8"/>
<polygon fill="midnightblue" stroke="midnightblue" points="881.82,-77.51 871.39,-75.65 878.39,-83.61 881.82,-77.51"/>
</g>
<!-- Node19&#45;&gt;Node18 -->
<g id="edge26" class="edge">
<title>Node19&#45;&gt;Node18</title>
<path fill="none" stroke="midnightblue" d="M958.27,-112.08C963.64,-104.46 971.52,-93.26 978.08,-83.94"/>
<polygon fill="midnightblue" stroke="midnightblue" points="980.95,-85.94 983.84,-75.75 975.22,-81.91 980.95,-85.94"/>
</g>
<!-- Node20&#45;&gt;Node5 -->
<g id="edge43" class="edge">
<title>Node20&#45;&gt;Node5</title>
<path fill="none" stroke="midnightblue" d="M656.53,-336.44C640.43,-329.38 620.62,-317.63 611,-300 572.19,-228.92 598.33,-126.59 611.6,-85.3"/>
<polygon fill="midnightblue" stroke="midnightblue" points="614.94,-86.35 614.79,-75.76 608.3,-84.13 614.94,-86.35"/>
</g>
<!-- Node20&#45;&gt;Node11 -->
<g id="edge42" class="edge">
<title>Node20&#45;&gt;Node11</title>
<path fill="none" stroke="midnightblue" d="M751.2,-338.24C882.9,-324.62 1161.28,-291.1 1245,-244 1276.23,-226.43 1284.63,-218.76 1303,-188 1322.61,-155.17 1331.3,-110.59 1334.84,-85.72"/>
<polygon fill="midnightblue" stroke="midnightblue" points="1338.35,-85.89 1336.15,-75.52 1331.4,-84.99 1338.35,-85.89"/>
</g>
<!-- Node20&#45;&gt;Node12 -->
<g id="edge28" class="edge">
<title>Node20&#45;&gt;Node12</title>
<path fill="none" stroke="midnightblue" d="M735.15,-336.47C793.49,-324.77 886.03,-298.62 946,-244 959.64,-231.58 968.15,-212.07 972.93,-197.66"/>
<polygon fill="midnightblue" stroke="midnightblue" points="976.36,-198.42 975.89,-187.83 969.66,-196.4 976.36,-198.42"/>
</g>
<!-- Node20&#45;&gt;Node13 -->
<g id="edge44" class="edge">
<title>Node20&#45;&gt;Node13</title>
<path fill="none" stroke="midnightblue" d="M705.95,-336.44C724.87,-329.02 750.67,-316.82 769,-300 790.63,-280.16 795.91,-272.21 804,-244 806.45,-235.46 808.41,-231.72 804,-224 788.39,-196.66 759.1,-215.05 743,-188 725.72,-158.96 732.25,-144.64 741,-112 743.65,-102.1 749.07,-92.13 754.27,-84.1"/>
<polygon fill="midnightblue" stroke="midnightblue" points="757.29,-85.89 760.11,-75.68 751.54,-81.91 757.29,-85.89"/>
</g>
<!-- Node21 -->
<g id="node21" class="node">
<title>Node21</title>
<g id="a_node21"><a xlink:href="RectangleShadow_8hpp.html" target="_top" xlink:title=" ">
<polygon fill="white" stroke="black" points="620,-280.5 620,-299.5 744,-299.5 744,-280.5 620,-280.5"/>
<text text-anchor="middle" x="682" y="-287.5" font-family="Helvetica,sans-Serif" font-size="10.00">RectangleShadow.hpp</text>
</a>
</g>
</g>
<!-- Node20&#45;&gt;Node21 -->
<g id="edge29" class="edge">
<title>Node20&#45;&gt;Node21</title>
<path fill="none" stroke="midnightblue" d="M681.17,-336.08C681.3,-329.01 681.48,-318.86 681.65,-309.99"/>
<polygon fill="midnightblue" stroke="midnightblue" points="685.15,-309.81 681.84,-299.75 678.15,-309.68 685.15,-309.81"/>
</g>
<!-- Node23 -->
<g id="node23" class="node">
<title>Node23</title>
<g id="a_node23"><a xlink:href="MemoryShadow_8hpp.html" target="_top" xlink:title=" ">
<polygon fill="white" stroke="black" points="679,-224.5 679,-243.5 795,-243.5 795,-224.5 679,-224.5"/>
<text text-anchor="middle" x="737" y="-231.5" font-family="Helvetica,sans-Serif" font-size="10.00">MemoryShadow.hpp</text>
</a>
</g>
</g>
<!-- Node20&#45;&gt;Node23 -->
<g id="edge37" class="edge">
<title>Node20&#45;&gt;Node23</title>
<path fill="none" stroke="midnightblue" d="M706.5,-336.47C722.99,-329.48 743.14,-317.79 753,-300 761.25,-285.11 754.82,-265.99 747.81,-252.34"/>
<polygon fill="midnightblue" stroke="midnightblue" points="750.79,-250.49 742.81,-243.52 744.7,-253.94 750.79,-250.49"/>
</g>
<!-- Node24 -->
<g id="node24" class="node">
<title>Node24</title>
<g id="a_node24"><a xlink:href="IMemoryBus_8hpp.html" target="_top" xlink:title=" ">
<polygon fill="white" stroke="black" points="1194.5,-168.5 1194.5,-187.5 1293.5,-187.5 1293.5,-168.5 1194.5,-168.5"/>
<text text-anchor="middle" x="1244" y="-175.5" font-family="Helvetica,sans-Serif" font-size="10.00">IMemoryBus.hpp</text>
</a>
</g>
</g>
<!-- Node20&#45;&gt;Node24 -->
<g id="edge38" class="edge">
<title>Node20&#45;&gt;Node24</title>
<path fill="none" stroke="midnightblue" d="M735.49,-336.46C869.71,-315.21 1206.76,-260.49 1225,-244 1237.93,-232.31 1242.25,-212.37 1243.61,-197.65"/>
<polygon fill="midnightblue" stroke="midnightblue" points="1247.1,-197.81 1244.15,-187.63 1240.11,-197.43 1247.1,-197.81"/>
</g>
<!-- Node21&#45;&gt;Node5 -->
<g id="edge30" class="edge">
<title>Node21&#45;&gt;Node5</title>
<path fill="none" stroke="midnightblue" d="M677.28,-280.25C672.63,-271.34 665.57,-257.02 661,-244 641.24,-187.68 627.24,-118.19 621.25,-85.57"/>
<polygon fill="midnightblue" stroke="midnightblue" points="624.68,-84.87 619.47,-75.65 617.79,-86.11 624.68,-84.87"/>
</g>
<!-- Node22 -->
<g id="node22" class="node">
<title>Node22</title>
<g id="a_node22"><a xlink:href="ARectangleMemory_8hpp.html" target="_top" xlink:title=" ">
<polygon fill="white" stroke="black" points="764,-168.5 764,-187.5 896,-187.5 896,-168.5 764,-168.5"/>
<text text-anchor="middle" x="830" y="-175.5" font-family="Helvetica,sans-Serif" font-size="10.00">ARectangleMemory.hpp</text>
</a>
</g>
</g>
<!-- Node21&#45;&gt;Node22 -->
<g id="edge31" class="edge">
<title>Node21&#45;&gt;Node22</title>
<path fill="none" stroke="midnightblue" d="M676.66,-280.46C669.03,-267.05 657.25,-240.83 670,-224 681.64,-208.64 724.68,-197.06 763.2,-189.49"/>
<polygon fill="midnightblue" stroke="midnightblue" points="764.22,-192.86 773.39,-187.56 762.91,-185.99 764.22,-192.86"/>
</g>
<!-- Node21&#45;&gt;Node23 -->
<g id="edge34" class="edge">
<title>Node21&#45;&gt;Node23</title>
<path fill="none" stroke="midnightblue" d="M691.08,-280.08C699.17,-272.14 711.2,-260.34 720.91,-250.8"/>
<polygon fill="midnightblue" stroke="midnightblue" points="723.4,-253.25 728.09,-243.75 718.5,-248.26 723.4,-253.25"/>
</g>
<!-- Node22&#45;&gt;Node15 -->
<g id="edge33" class="edge">
<title>Node22&#45;&gt;Node15</title>
<path fill="none" stroke="midnightblue" d="M832.04,-168.37C836.24,-150.62 845.92,-109.67 851.6,-85.6"/>
<polygon fill="midnightblue" stroke="midnightblue" points="855.08,-86.13 853.97,-75.59 848.26,-84.52 855.08,-86.13"/>
</g>
<!-- Node22&#45;&gt;Node19 -->
<g id="edge32" class="edge">
<title>Node22&#45;&gt;Node19</title>
<path fill="none" stroke="midnightblue" d="M849.33,-168.44C869.32,-159.6 900.74,-145.69 923.56,-135.59"/>
<polygon fill="midnightblue" stroke="midnightblue" points="925.03,-138.76 932.76,-131.52 922.2,-132.36 925.03,-138.76"/>
</g>
<!-- Node23&#45;&gt;Node5 -->
<g id="edge35" class="edge">
<title>Node23&#45;&gt;Node5</title>
<path fill="none" stroke="midnightblue" d="M723.49,-224.26C711.49,-216 694.03,-202.7 682,-188 655.39,-155.48 635,-110.15 624.94,-85.23"/>
<polygon fill="midnightblue" stroke="midnightblue" points="628.08,-83.64 621.17,-75.61 621.56,-86.2 628.08,-83.64"/>
</g>
<!-- Node23&#45;&gt;Node12 -->
<g id="edge36" class="edge">
<title>Node23&#45;&gt;Node12</title>
<path fill="none" stroke="midnightblue" d="M775.19,-224.44C817.14,-215.04 884.59,-199.93 930.07,-189.74"/>
<polygon fill="midnightblue" stroke="midnightblue" points="931,-193.12 939.99,-187.52 929.47,-186.29 931,-193.12"/>
</g>
<!-- Node24&#45;&gt;Node16 -->
<g id="edge39" class="edge">
<title>Node24&#45;&gt;Node16</title>
<path fill="none" stroke="midnightblue" d="M1251.06,-168.47C1260.87,-155.51 1276.22,-130.44 1265,-112 1231.59,-57.07 1157.59,-30.68 1110.96,-19.07"/>
<polygon fill="midnightblue" stroke="midnightblue" points="1111.71,-15.65 1101.17,-16.75 1110.09,-22.46 1111.71,-15.65"/>
</g>
<!-- Node24&#45;&gt;Node19 -->
<g id="edge41" class="edge">
<title>Node24&#45;&gt;Node19</title>
<path fill="none" stroke="midnightblue" d="M1197.73,-168.44C1144.44,-158.59 1057.2,-142.45 1002.27,-132.3"/>
<polygon fill="midnightblue" stroke="midnightblue" points="1002.88,-128.85 992.41,-130.47 1001.61,-135.73 1002.88,-128.85"/>
</g>
<!-- Node25 -->
<g id="node25" class="node">
<title>Node25</title>
<g id="a_node25"><a xlink:title=" ">
<polygon fill="white" stroke="#bfbfbf" points="1200,-112.5 1200,-131.5 1256,-131.5 1256,-112.5 1200,-112.5"/>
<text text-anchor="middle" x="1228" y="-119.5" font-family="Helvetica,sans-Serif" font-size="10.00">optional</text>
</a>
</g>
</g>
<!-- Node24&#45;&gt;Node25 -->
<g id="edge40" class="edge">
<title>Node24&#45;&gt;Node25</title>
<path fill="none" stroke="midnightblue" d="M1241.36,-168.08C1239.21,-160.85 1236.12,-150.41 1233.45,-141.4"/>
<polygon fill="midnightblue" stroke="midnightblue" points="1236.79,-140.34 1230.59,-131.75 1230.08,-142.33 1236.79,-140.34"/>
</g>
<!-- Node26&#45;&gt;Node14 -->
<g id="edge46" class="edge">
<title>Node26&#45;&gt;Node14</title>
<path fill="none" stroke="midnightblue" d="M1150.67,-224.43C1151.41,-211.85 1151.93,-187.73 1147,-168 1139.23,-136.9 1121.52,-103.91 1109.92,-84.4"/>
<polygon fill="midnightblue" stroke="midnightblue" points="1112.83,-82.45 1104.64,-75.74 1106.85,-86.1 1112.83,-82.45"/>
</g>
<!-- Node27 -->
<g id="node27" class="node">
<title>Node27</title>
<g id="a_node27"><a xlink:title=" ">
<polygon fill="white" stroke="#bfbfbf" points="1098,-168.5 1098,-187.5 1138,-187.5 1138,-168.5 1098,-168.5"/>
<text text-anchor="middle" x="1118" y="-175.5" font-family="Helvetica,sans-Serif" font-size="10.00">span</text>
</a>
</g>
</g>
<!-- Node26&#45;&gt;Node27 -->
<g id="edge47" class="edge">
<title>Node26&#45;&gt;Node27</title>
<path fill="none" stroke="midnightblue" d="M1144.72,-224.08C1140.29,-216.61 1133.84,-205.72 1128.38,-196.52"/>
<polygon fill="midnightblue" stroke="midnightblue" points="1131.29,-194.57 1123.19,-187.75 1125.27,-198.14 1131.29,-194.57"/>
</g>
<!-- Node28&#45;&gt;Node13 -->
<g id="edge52" class="edge">
<title>Node28&#45;&gt;Node13</title>
<path fill="none" stroke="midnightblue" d="M850.86,-224.78C814.46,-216.87 766.49,-203.79 755,-188 732.74,-157.39 747.54,-110.3 758.42,-84.83"/>
<polygon fill="midnightblue" stroke="midnightblue" points="761.65,-86.19 762.58,-75.64 755.27,-83.31 761.65,-86.19"/>
</g>
<!-- Node28&#45;&gt;Node14 -->
<g id="edge50" class="edge">
<title>Node28&#45;&gt;Node14</title>
<path fill="none" stroke="midnightblue" d="M937.32,-230.64C971.71,-226.6 1019.01,-215.93 1050,-188 1080.2,-160.79 1092.14,-112.3 1096.58,-85.72"/>
<polygon fill="midnightblue" stroke="midnightblue" points="1100.04,-86.2 1098.05,-75.79 1093.12,-85.17 1100.04,-86.2"/>
</g>
<!-- Node28&#45;&gt;Node22 -->
<g id="edge49" class="edge">
<title>Node28&#45;&gt;Node22</title>
<path fill="none" stroke="midnightblue" d="M883.72,-224.32C874.16,-216.26 859.72,-204.08 848.22,-194.37"/>
<polygon fill="midnightblue" stroke="midnightblue" points="850.37,-191.61 840.47,-187.83 845.86,-196.96 850.37,-191.61"/>
</g>
<!-- Node28&#45;&gt;Node27 -->
<g id="edge51" class="edge">
<title>Node28&#45;&gt;Node27</title>
<path fill="none" stroke="midnightblue" d="M931.21,-224.49C969.56,-215.65 1031.06,-201.27 1084,-188 1085.27,-187.68 1086.56,-187.36 1087.86,-187.02"/>
<polygon fill="midnightblue" stroke="midnightblue" points="1089.09,-190.32 1097.89,-184.42 1087.33,-183.54 1089.09,-190.32"/>
</g>
<!-- Node30&#45;&gt;Node2 -->
<g id="edge65" class="edge">
<title>Node30&#45;&gt;Node2</title>
<path fill="none" stroke="midnightblue" d="M377.46,-336.44C339.75,-327.1 279.26,-312.12 238.14,-301.93"/>
<polygon fill="midnightblue" stroke="midnightblue" points="238.93,-298.52 228.38,-299.52 237.25,-305.32 238.93,-298.52"/>
</g>
<!-- Node30&#45;&gt;Node6 -->
<g id="edge56" class="edge">
<title>Node30&#45;&gt;Node6</title>
<path fill="none" stroke="midnightblue" d="M364.39,-336.65C338.82,-330.19 308.11,-319 286,-300 271.75,-287.75 262.34,-268.21 256.9,-253.75"/>
<polygon fill="midnightblue" stroke="midnightblue" points="260.07,-252.2 253.5,-243.89 253.45,-254.48 260.07,-252.2"/>
</g>
<!-- Node30&#45;&gt;Node7 -->
<g id="edge59" class="edge">
<title>Node30&#45;&gt;Node7</title>
<path fill="none" stroke="midnightblue" d="M395.18,-336.38C374.72,-324.67 344.39,-302.59 357,-280 365.16,-265.39 380.22,-254.94 394.55,-247.8"/>
<polygon fill="midnightblue" stroke="midnightblue" points="396.15,-250.92 403.79,-243.59 393.24,-244.56 396.15,-250.92"/>
</g>
<!-- Node30&#45;&gt;Node10 -->
<g id="edge64" class="edge">
<title>Node30&#45;&gt;Node10</title>
<path fill="none" stroke="midnightblue" d="M459.55,-355.53C511.65,-365.54 594.01,-382.07 642.32,-392.2"/>
<polygon fill="midnightblue" stroke="midnightblue" points="641.87,-395.68 652.37,-394.32 643.31,-388.84 641.87,-395.68"/>
</g>
<!-- Node30&#45;&gt;Node13 -->
<g id="edge57" class="edge">
<title>Node30&#45;&gt;Node13</title>
<path fill="none" stroke="midnightblue" d="M394.8,-336.43C381.01,-328.71 362.18,-316.11 351,-300 316.58,-250.41 281.3,-215.15 319,-168 345.3,-135.11 633.4,-87.7 733.2,-72.15"/>
<polygon fill="midnightblue" stroke="midnightblue" points="733.99,-75.57 743.34,-70.58 732.92,-68.66 733.99,-75.57"/>
</g>
<!-- Node30&#45;&gt;Node17 -->
<g id="edge58" class="edge">
<title>Node30&#45;&gt;Node17</title>
<path fill="none" stroke="midnightblue" d="M364.34,-342.34C255.88,-334.97 0,-309.68 0,-235 0,-235 0,-235 0,-121 0,-63.26 430.77,-24.74 566.53,-14.03"/>
<polygon fill="midnightblue" stroke="midnightblue" points="567.2,-17.49 576.9,-13.22 566.66,-10.51 567.2,-17.49"/>
</g>
<!-- Node30&#45;&gt;Node28 -->
<g id="edge63" class="edge">
<title>Node30&#45;&gt;Node28</title>
<path fill="none" stroke="midnightblue" d="M459.52,-343.22C526.27,-339.73 651.04,-329.49 753,-300 796.31,-287.47 843.23,-263.56 870.54,-248.5"/>
<polygon fill="midnightblue" stroke="midnightblue" points="872.33,-251.51 879.34,-243.57 868.91,-245.4 872.33,-251.51"/>
</g>
<!-- Node31 -->
<g id="node31" class="node">
<title>Node31</title>
<g id="a_node31"><a xlink:href="TileRenderer_8hpp.html" target="_top" xlink:title=" ">
<polygon fill="white" stroke="black" points="366,-280.5 366,-299.5 488,-299.5 488,-280.5 366,-280.5"/>
<text text-anchor="middle" x="427" y="-287.5" font-family="Helvetica,sans-Serif" font-size="10.00">PPU/TileRenderer.hpp</text>
</a>
</g>
</g>
<!-- Node30&#45;&gt;Node31 -->
<g id="edge60" class="edge">
<title>Node30&#45;&gt;Node31</title>
<path fill="none" stroke="midnightblue" d="M414.48,-336.08C416.49,-328.85 419.39,-318.41 421.89,-309.4"/>
<polygon fill="midnightblue" stroke="midnightblue" points="425.26,-310.32 424.57,-299.75 418.52,-308.45 425.26,-310.32"/>
</g>
<!-- Node31&#45;&gt;Node6 -->
<g id="edge61" class="edge">
<title>Node31&#45;&gt;Node6</title>
<path fill="none" stroke="midnightblue" d="M399.11,-280.44C367.14,-270.63 314.88,-254.6 281.75,-244.44"/>
<polygon fill="midnightblue" stroke="midnightblue" points="282.72,-241.07 272.13,-241.48 280.66,-247.76 282.72,-241.07"/>
</g>
<!-- Node31&#45;&gt;Node28 -->
<g id="edge62" class="edge">
<title>Node31&#45;&gt;Node28</title>
<path fill="none" stroke="midnightblue" d="M488.05,-281.94C580.33,-271.27 753.78,-251.21 841.03,-241.12"/>
<polygon fill="midnightblue" stroke="midnightblue" points="841.45,-244.6 850.98,-239.97 840.65,-237.65 841.45,-244.6"/>
</g>
</g>
</svg>
