<?xml version="1.0" encoding="UTF-8" standalone="no"?>
<!DOCTYPE svg PUBLIC "-//W3C//DTD SVG 1.1//EN"
 "http://www.w3.org/Graphics/SVG/1.1/DTD/svg11.dtd">
<!-- Generated by graphviz version 2.43.0 (0)
 -->
<!-- Title: sources/PPU/Background.hpp Pages: 1 -->
<svg width="1198pt" height="476pt"
 viewBox="0.00 0.00 1198.00 476.00" xmlns="http://www.w3.org/2000/svg" xmlns:xlink="http://www.w3.org/1999/xlink">
<g id="graph0" class="graph" transform="scale(1 1) rotate(0) translate(4 472)">
<title>sources/PPU/Background.hpp</title>
<polygon fill="white" stroke="transparent" points="-4,4 -4,-472 1194,-472 1194,4 -4,4"/>
<!-- Node1 -->
<g id="node1" class="node">
<title>Node1</title>
<g id="a_node1"><a xlink:title=" ">
<polygon fill="#bfbfbf" stroke="black" points="475,-448.5 475,-467.5 633,-467.5 633,-448.5 475,-448.5"/>
<text text-anchor="middle" x="554" y="-455.5" font-family="Helvetica,sans-Serif" font-size="10.00">sources/PPU/Background.hpp</text>
</a>
</g>
</g>
<!-- Node2 -->
<g id="node2" class="node">
<title>Node2</title>
<g id="a_node2"><a xlink:title=" ">
<polygon fill="white" stroke="#bfbfbf" points="28,-280.5 28,-299.5 70,-299.5 70,-280.5 28,-280.5"/>
<text text-anchor="middle" x="49" y="-287.5" font-family="Helvetica,sans-Serif" font-size="10.00">array</text>
</a>
</g>
</g>
<!-- Node1&#45;&gt;Node2 -->
<g id="edge1" class="edge">
<title>Node1&#45;&gt;Node2</title>
<path fill="none" stroke="midnightblue" d="M474.75,-453.46C401.56,-448.69 290.38,-437.59 197,-412 136.72,-395.48 109.35,-402.87 68,-356 56.71,-343.2 52.11,-324.01 50.25,-309.8"/>
<polygon fill="midnightblue" stroke="midnightblue" points="53.72,-309.3 49.27,-299.68 46.75,-309.97 53.72,-309.3"/>
</g>
<!-- Node3 -->
<g id="node3" class="node">
<title>Node3</title>
<g id="a_node3"><a xlink:title=" ">
<polygon fill="white" stroke="#bfbfbf" points="90.5,-56.5 90.5,-75.5 137.5,-75.5 137.5,-56.5 90.5,-56.5"/>
<text text-anchor="middle" x="114" y="-63.5" font-family="Helvetica,sans-Serif" font-size="10.00">vector</text>
</a>
</g>
</g>
<!-- Node1&#45;&gt;Node3 -->
<g id="edge2" class="edge">
<title>Node1&#45;&gt;Node3</title>
<path fill="none" stroke="midnightblue" d="M474.92,-457.53C321.85,-456.4 0,-442.67 0,-347 0,-347 0,-347 0,-177 0,-130.11 50.55,-96.89 84.33,-79.93"/>
<polygon fill="midnightblue" stroke="midnightblue" points="85.87,-83.07 93.36,-75.58 82.83,-76.77 85.87,-83.07"/>
</g>
<!-- Node4 -->
<g id="node4" class="node">
<title>Node4</title>
<g id="a_node4"><a xlink:title=" ">
<polygon fill="white" stroke="#bfbfbf" points="464,-0.5 464,-19.5 524,-19.5 524,-0.5 464,-0.5"/>
<text text-anchor="middle" x="494" y="-7.5" font-family="Helvetica,sans-Serif" font-size="10.00">iostream</text>
</a>
</g>
</g>
<!-- Node1&#45;&gt;Node4 -->
<g id="edge3" class="edge">
<title>Node1&#45;&gt;Node4</title>
<path fill="none" stroke="midnightblue" d="M633.26,-451.46C803.75,-438.47 1190,-402.89 1190,-347 1190,-347 1190,-347 1190,-121 1190,-54.17 682.94,-21.29 534.42,-13.09"/>
<polygon fill="midnightblue" stroke="midnightblue" points="534.53,-9.59 524.35,-12.54 534.15,-16.58 534.53,-9.59"/>
</g>
<!-- Node5 -->
<g id="node5" class="node">
<title>Node5</title>
<g id="a_node5"><a xlink:href="Vector2_8hpp.html" target="_top" xlink:title=" ">
<polygon fill="white" stroke="black" points="1048.5,-280.5 1048.5,-299.5 1161.5,-299.5 1161.5,-280.5 1048.5,-280.5"/>
<text text-anchor="middle" x="1105" y="-287.5" font-family="Helvetica,sans-Serif" font-size="10.00">Models/Vector2.hpp</text>
</a>
</g>
</g>
<!-- Node1&#45;&gt;Node5 -->
<g id="edge4" class="edge">
<title>Node1&#45;&gt;Node5</title>
<path fill="none" stroke="midnightblue" d="M621.85,-448.5C710.75,-435.82 870.32,-407.71 998,-356 1030.64,-342.78 1064.83,-320.26 1085.52,-305.5"/>
<polygon fill="midnightblue" stroke="midnightblue" points="1087.74,-308.22 1093.78,-299.52 1083.63,-302.55 1087.74,-308.22"/>
</g>
<!-- Node8 -->
<g id="node8" class="node">
<title>Node8</title>
<g id="a_node8"><a xlink:href="TileRenderer_8hpp.html" target="_top" xlink:title=" ">
<polygon fill="white" stroke="black" points="77,-336.5 77,-355.5 199,-355.5 199,-336.5 77,-336.5"/>
<text text-anchor="middle" x="138" y="-343.5" font-family="Helvetica,sans-Serif" font-size="10.00">PPU/TileRenderer.hpp</text>
</a>
</g>
</g>
<!-- Node1&#45;&gt;Node8 -->
<g id="edge7" class="edge">
<title>Node1&#45;&gt;Node8</title>
<path fill="none" stroke="midnightblue" d="M474.96,-454.89C410.06,-451.01 316.69,-440.41 240,-412 208.07,-400.17 175.66,-377.24 156.2,-362.03"/>
<polygon fill="midnightblue" stroke="midnightblue" points="158.21,-359.16 148.21,-355.65 153.84,-364.62 158.21,-359.16"/>
</g>
<!-- Node9 -->
<g id="node9" class="node">
<title>Node9</title>
<g id="a_node9"><a xlink:href="Ram_8hpp.html" target="_top" xlink:title=" ">
<polygon fill="white" stroke="black" points="88,-280.5 88,-299.5 174,-299.5 174,-280.5 88,-280.5"/>
<text text-anchor="middle" x="131" y="-287.5" font-family="Helvetica,sans-Serif" font-size="10.00">Ram/Ram.hpp</text>
</a>
</g>
</g>
<!-- Node1&#45;&gt;Node9 -->
<g id="edge24" class="edge">
<title>Node1&#45;&gt;Node9</title>
<path fill="none" stroke="midnightblue" d="M526.84,-448.45C475.61,-432.09 361.46,-394.55 268,-356 228.55,-339.73 184.13,-318 156.85,-304.25"/>
<polygon fill="midnightblue" stroke="midnightblue" points="158.12,-300.97 147.62,-299.57 154.96,-307.22 158.12,-300.97"/>
</g>
<!-- Node19 -->
<g id="node19" class="node">
<title>Node19</title>
<g id="a_node19"><a xlink:href="PPU_8hpp.html" target="_top" xlink:title=" ">
<polygon fill="white" stroke="black" points="514,-392.5 514,-411.5 594,-411.5 594,-392.5 514,-392.5"/>
<text text-anchor="middle" x="554" y="-399.5" font-family="Helvetica,sans-Serif" font-size="10.00">PPU/PPU.hpp</text>
</a>
</g>
</g>
<!-- Node1&#45;&gt;Node19 -->
<g id="edge25" class="edge">
<title>Node1&#45;&gt;Node19</title>
<path fill="none" stroke="midnightblue" d="M548.83,-448.08C547.32,-440.93 546.89,-430.64 547.54,-421.69"/>
<polygon fill="midnightblue" stroke="midnightblue" points="551.02,-422.13 548.87,-411.75 544.08,-421.2 551.02,-422.13"/>
</g>
<!-- Node28 -->
<g id="node28" class="node">
<title>Node28</title>
<g id="a_node28"><a xlink:href="PPUUtils_8hpp.html" target="_top" xlink:title=" ">
<polygon fill="white" stroke="black" points="846,-336.5 846,-355.5 948,-355.5 948,-336.5 846,-336.5"/>
<text text-anchor="middle" x="897" y="-343.5" font-family="Helvetica,sans-Serif" font-size="10.00">PPU/PPUUtils.hpp</text>
</a>
</g>
</g>
<!-- Node1&#45;&gt;Node28 -->
<g id="edge65" class="edge">
<title>Node1&#45;&gt;Node28</title>
<path fill="none" stroke="midnightblue" d="M580.63,-448.46C641.54,-428.93 791.1,-380.96 860.51,-358.7"/>
<polygon fill="midnightblue" stroke="midnightblue" points="861.7,-362 870.15,-355.61 859.56,-355.33 861.7,-362"/>
</g>
<!-- Node6 -->
<g id="node6" class="node">
<title>Node6</title>
<g id="a_node6"><a xlink:title=" ">
<polygon fill="white" stroke="#bfbfbf" points="1090.5,-224.5 1090.5,-243.5 1147.5,-243.5 1147.5,-224.5 1090.5,-224.5"/>
<text text-anchor="middle" x="1119" y="-231.5" font-family="Helvetica,sans-Serif" font-size="10.00">ostream</text>
</a>
</g>
</g>
<!-- Node5&#45;&gt;Node6 -->
<g id="edge5" class="edge">
<title>Node5&#45;&gt;Node6</title>
<path fill="none" stroke="midnightblue" d="M1107.31,-280.08C1109.17,-272.93 1111.84,-262.64 1114.15,-253.69"/>
<polygon fill="midnightblue" stroke="midnightblue" points="1117.61,-254.31 1116.73,-243.75 1110.83,-252.55 1117.61,-254.31"/>
</g>
<!-- Node7 -->
<g id="node7" class="node">
<title>Node7</title>
<g id="a_node7"><a xlink:title=" ">
<polygon fill="white" stroke="#bfbfbf" points="929.5,-224.5 929.5,-243.5 1072.5,-243.5 1072.5,-224.5 929.5,-224.5"/>
<text text-anchor="middle" x="1001" y="-231.5" font-family="Helvetica,sans-Serif" font-size="10.00">SFML/System/Vector2.hpp</text>
</a>
</g>
</g>
<!-- Node5&#45;&gt;Node7 -->
<g id="edge6" class="edge">
<title>Node5&#45;&gt;Node7</title>
<path fill="none" stroke="midnightblue" d="M1088.29,-280.32C1071.69,-271.7 1046,-258.36 1026.78,-248.39"/>
<polygon fill="midnightblue" stroke="midnightblue" points="1028.16,-245.16 1017.67,-243.65 1024.93,-251.37 1028.16,-245.16"/>
</g>
<!-- Node8&#45;&gt;Node2 -->
<g id="edge8" class="edge">
<title>Node8&#45;&gt;Node2</title>
<path fill="none" stroke="midnightblue" d="M123.7,-336.32C109.82,-327.9 88.51,-314.97 72.2,-305.07"/>
<polygon fill="midnightblue" stroke="midnightblue" points="73.63,-301.85 63.26,-299.65 70,-307.83 73.63,-301.85"/>
</g>
<!-- Node8&#45;&gt;Node9 -->
<g id="edge9" class="edge">
<title>Node8&#45;&gt;Node9</title>
<path fill="none" stroke="midnightblue" d="M136.84,-336.08C135.92,-328.93 134.58,-318.64 133.42,-309.69"/>
<polygon fill="midnightblue" stroke="midnightblue" points="136.89,-309.22 132.13,-299.75 129.95,-310.12 136.89,-309.22"/>
</g>
<!-- Node9&#45;&gt;Node3 -->
<g id="edge23" class="edge">
<title>Node9&#45;&gt;Node3</title>
<path fill="none" stroke="midnightblue" d="M107.21,-280.5C91.28,-273.41 71.54,-261.61 62,-244 34.06,-192.42 37.61,-165.36 62,-112 67.78,-99.36 79.05,-88.91 89.63,-81.27"/>
<polygon fill="midnightblue" stroke="midnightblue" points="91.85,-84 98.22,-75.53 87.96,-78.18 91.85,-84"/>
</g>
<!-- Node10 -->
<g id="node10" class="node">
<title>Node10</title>
<g id="a_node10"><a xlink:href="ARectangleMemory_8hpp.html" target="_top" xlink:title=" ">
<polygon fill="white" stroke="black" points="298,-168.5 298,-187.5 474,-187.5 474,-168.5 298,-168.5"/>
<text text-anchor="middle" x="386" y="-175.5" font-family="Helvetica,sans-Serif" font-size="10.00">Memory/ARectangleMemory.hpp</text>
</a>
</g>
</g>
<!-- Node9&#45;&gt;Node10 -->
<g id="edge10" class="edge">
<title>Node9&#45;&gt;Node10</title>
<path fill="none" stroke="midnightblue" d="M128.16,-280.2C124.33,-266.42 119.42,-239.72 133,-224 144.14,-211.11 232.05,-197.58 301.15,-188.77"/>
<polygon fill="midnightblue" stroke="midnightblue" points="301.72,-192.22 311.2,-187.5 300.84,-185.28 301.72,-192.22"/>
</g>
<!-- Node14 -->
<g id="node14" class="node">
<title>Node14</title>
<g id="a_node14"><a xlink:title=" ">
<polygon fill="white" stroke="#bfbfbf" points="264,-56.5 264,-75.5 308,-75.5 308,-56.5 264,-56.5"/>
<text text-anchor="middle" x="286" y="-63.5" font-family="Helvetica,sans-Serif" font-size="10.00">string</text>
</a>
</g>
</g>
<!-- Node9&#45;&gt;Node14 -->
<g id="edge21" class="edge">
<title>Node9&#45;&gt;Node14</title>
<path fill="none" stroke="midnightblue" d="M127.48,-280.47C122.81,-267.93 115.73,-243.86 121,-224 135.72,-168.59 142.48,-150.46 185,-112 204.66,-94.21 232.51,-82.52 253.99,-75.52"/>
<polygon fill="midnightblue" stroke="midnightblue" points="255.12,-78.83 263.65,-72.55 253.06,-72.14 255.12,-78.83"/>
</g>
<!-- Node18 -->
<g id="node18" class="node">
<title>Node18</title>
<g id="a_node18"><a xlink:title=" ">
<polygon fill="white" stroke="#bfbfbf" points="142,-224.5 142,-243.5 182,-243.5 182,-224.5 142,-224.5"/>
<text text-anchor="middle" x="162" y="-231.5" font-family="Helvetica,sans-Serif" font-size="10.00">span</text>
</a>
</g>
</g>
<!-- Node9&#45;&gt;Node18 -->
<g id="edge22" class="edge">
<title>Node9&#45;&gt;Node18</title>
<path fill="none" stroke="midnightblue" d="M136.12,-280.08C140.41,-272.61 146.66,-261.72 151.94,-252.52"/>
<polygon fill="midnightblue" stroke="midnightblue" points="155.03,-254.17 156.98,-243.75 148.96,-250.68 155.03,-254.17"/>
</g>
<!-- Node11 -->
<g id="node11" class="node">
<title>Node11</title>
<g id="a_node11"><a xlink:href="IMemory_8hpp.html" target="_top" xlink:title=" ">
<polygon fill="white" stroke="black" points="406,-112.5 406,-131.5 486,-131.5 486,-112.5 406,-112.5"/>
<text text-anchor="middle" x="446" y="-119.5" font-family="Helvetica,sans-Serif" font-size="10.00">IMemory.hpp</text>
</a>
</g>
</g>
<!-- Node10&#45;&gt;Node11 -->
<g id="edge11" class="edge">
<title>Node10&#45;&gt;Node11</title>
<path fill="none" stroke="midnightblue" d="M395.64,-168.32C404.51,-160.34 417.87,-148.31 428.61,-138.65"/>
<polygon fill="midnightblue" stroke="midnightblue" points="431.09,-141.13 436.18,-131.83 426.41,-135.92 431.09,-141.13"/>
</g>
<!-- Node15 -->
<g id="node15" class="node">
<title>Node15</title>
<g id="a_node15"><a xlink:href="Ints_8hpp.html" target="_top" xlink:title=" ">
<polygon fill="white" stroke="black" points="371,-56.5 371,-75.5 465,-75.5 465,-56.5 371,-56.5"/>
<text text-anchor="middle" x="418" y="-63.5" font-family="Helvetica,sans-Serif" font-size="10.00">Models/Ints.hpp</text>
</a>
</g>
</g>
<!-- Node10&#45;&gt;Node15 -->
<g id="edge20" class="edge">
<title>Node10&#45;&gt;Node15</title>
<path fill="none" stroke="midnightblue" d="M386.71,-168.42C387.92,-155.81 390.87,-131.67 397,-112 399.92,-102.64 404.39,-92.71 408.46,-84.57"/>
<polygon fill="midnightblue" stroke="midnightblue" points="411.57,-86.17 413.09,-75.68 405.36,-82.93 411.57,-86.17"/>
</g>
<!-- Node11&#45;&gt;Node3 -->
<g id="edge13" class="edge">
<title>Node11&#45;&gt;Node3</title>
<path fill="none" stroke="midnightblue" d="M405.95,-114.49C339.92,-103.75 209.4,-82.52 147.75,-72.49"/>
<polygon fill="midnightblue" stroke="midnightblue" points="148.2,-69.02 137.77,-70.87 147.08,-75.93 148.2,-69.02"/>
</g>
<!-- Node12 -->
<g id="node12" class="node">
<title>Node12</title>
<g id="a_node12"><a xlink:title=" ">
<polygon fill="white" stroke="#bfbfbf" points="763,-56.5 763,-75.5 813,-75.5 813,-56.5 763,-56.5"/>
<text text-anchor="middle" x="788" y="-63.5" font-family="Helvetica,sans-Serif" font-size="10.00">cstdint</text>
</a>
</g>
</g>
<!-- Node11&#45;&gt;Node12 -->
<g id="edge12" class="edge">
<title>Node11&#45;&gt;Node12</title>
<path fill="none" stroke="midnightblue" d="M486.24,-114.65C553.81,-103.98 688.96,-82.64 752.91,-72.54"/>
<polygon fill="midnightblue" stroke="midnightblue" points="753.57,-75.98 762.91,-70.96 752.48,-69.06 753.57,-75.98"/>
</g>
<!-- Node13 -->
<g id="node13" class="node">
<title>Node13</title>
<g id="a_node13"><a xlink:title=" ">
<polygon fill="white" stroke="#bfbfbf" points="657,-56.5 657,-75.5 715,-75.5 715,-56.5 657,-56.5"/>
<text text-anchor="middle" x="686" y="-63.5" font-family="Helvetica,sans-Serif" font-size="10.00">memory</text>
</a>
</g>
</g>
<!-- Node11&#45;&gt;Node13 -->
<g id="edge14" class="edge">
<title>Node11&#45;&gt;Node13</title>
<path fill="none" stroke="midnightblue" d="M484.03,-112.44C528.54,-102.43 601.88,-85.93 646.86,-75.81"/>
<polygon fill="midnightblue" stroke="midnightblue" points="647.84,-79.17 656.83,-73.56 646.31,-72.34 647.84,-79.17"/>
</g>
<!-- Node11&#45;&gt;Node14 -->
<g id="edge15" class="edge">
<title>Node11&#45;&gt;Node14</title>
<path fill="none" stroke="midnightblue" d="M420.65,-112.44C392.78,-103.04 347.97,-87.91 317.78,-77.72"/>
<polygon fill="midnightblue" stroke="midnightblue" points="318.74,-74.35 308.14,-74.47 316.5,-80.99 318.74,-74.35"/>
</g>
<!-- Node11&#45;&gt;Node15 -->
<g id="edge16" class="edge">
<title>Node11&#45;&gt;Node15</title>
<path fill="none" stroke="midnightblue" d="M441.38,-112.08C437.54,-104.69 431.98,-93.95 427.24,-84.81"/>
<polygon fill="midnightblue" stroke="midnightblue" points="430.25,-83.02 422.54,-75.75 424.03,-86.24 430.25,-83.02"/>
</g>
<!-- Node17 -->
<g id="node17" class="node">
<title>Node17</title>
<g id="a_node17"><a xlink:href="Components_8hpp.html" target="_top" xlink:title=" ">
<polygon fill="white" stroke="black" points="483.5,-56.5 483.5,-75.5 620.5,-75.5 620.5,-56.5 483.5,-56.5"/>
<text text-anchor="middle" x="552" y="-63.5" font-family="Helvetica,sans-Serif" font-size="10.00">Models/Components.hpp</text>
</a>
</g>
</g>
<!-- Node11&#45;&gt;Node17 -->
<g id="edge19" class="edge">
<title>Node11&#45;&gt;Node17</title>
<path fill="none" stroke="midnightblue" d="M463.03,-112.32C480.03,-103.66 506.38,-90.24 525.99,-80.25"/>
<polygon fill="midnightblue" stroke="midnightblue" points="527.69,-83.31 535.01,-75.65 524.51,-77.08 527.69,-83.31"/>
</g>
<!-- Node15&#45;&gt;Node4 -->
<g id="edge18" class="edge">
<title>Node15&#45;&gt;Node4</title>
<path fill="none" stroke="midnightblue" d="M430.21,-56.32C441.78,-48.11 459.38,-35.6 473.16,-25.81"/>
<polygon fill="midnightblue" stroke="midnightblue" points="475.44,-28.48 481.57,-19.83 471.39,-22.77 475.44,-28.48"/>
</g>
<!-- Node16 -->
<g id="node16" class="node">
<title>Node16</title>
<g id="a_node16"><a xlink:title=" ">
<polygon fill="white" stroke="#bfbfbf" points="310,-0.5 310,-19.5 372,-19.5 372,-0.5 310,-0.5"/>
<text text-anchor="middle" x="341" y="-7.5" font-family="Helvetica,sans-Serif" font-size="10.00">cinttypes</text>
</a>
</g>
</g>
<!-- Node15&#45;&gt;Node16 -->
<g id="edge17" class="edge">
<title>Node15&#45;&gt;Node16</title>
<path fill="none" stroke="midnightblue" d="M405.63,-56.32C393.84,-48.06 375.87,-35.45 361.86,-25.63"/>
<polygon fill="midnightblue" stroke="midnightblue" points="363.54,-22.53 353.34,-19.65 359.52,-28.26 363.54,-22.53"/>
</g>
<!-- Node19&#45;&gt;Node1 -->
<g id="edge57" class="edge">
<title>Node19&#45;&gt;Node1</title>
<path fill="none" stroke="midnightblue" d="M559.13,-411.75C560.66,-418.86 561.1,-429.14 560.47,-438.1"/>
<polygon fill="midnightblue" stroke="midnightblue" points="556.99,-437.71 559.17,-448.08 563.93,-438.62 556.99,-437.71"/>
</g>
<!-- Node19&#45;&gt;Node5 -->
<g id="edge55" class="edge">
<title>Node19&#45;&gt;Node5</title>
<path fill="none" stroke="midnightblue" d="M594.21,-400.5C667.56,-398.73 827.48,-390.8 957,-356 1002.53,-343.76 1052.05,-319.59 1080.7,-304.42"/>
<polygon fill="midnightblue" stroke="midnightblue" points="1082.43,-307.47 1089.59,-299.65 1079.12,-301.3 1082.43,-307.47"/>
</g>
<!-- Node19&#45;&gt;Node9 -->
<g id="edge54" class="edge">
<title>Node19&#45;&gt;Node9</title>
<path fill="none" stroke="midnightblue" d="M513.74,-394.05C469.59,-386.12 396.78,-372.14 335,-356 302.78,-347.58 215.75,-319.11 166.4,-302.78"/>
<polygon fill="midnightblue" stroke="midnightblue" points="167.36,-299.41 156.77,-299.59 165.16,-306.05 167.36,-299.41"/>
</g>
<!-- Node19&#45;&gt;Node12 -->
<g id="edge26" class="edge">
<title>Node19&#45;&gt;Node12</title>
<path fill="none" stroke="midnightblue" d="M594.16,-399.62C656.81,-396.52 773.33,-386.68 799,-356 866.1,-275.82 816.77,-134.88 796.02,-85.06"/>
<polygon fill="midnightblue" stroke="midnightblue" points="799.13,-83.44 791.97,-75.63 792.7,-86.2 799.13,-83.44"/>
</g>
<!-- Node20 -->
<g id="node20" class="node">
<title>Node20</title>
<g id="a_node20"><a xlink:href="AMemory_8hpp.html" target="_top" xlink:title=" ">
<polygon fill="white" stroke="black" points="492.5,-168.5 492.5,-187.5 619.5,-187.5 619.5,-168.5 492.5,-168.5"/>
<text text-anchor="middle" x="556" y="-175.5" font-family="Helvetica,sans-Serif" font-size="10.00">Memory/AMemory.hpp</text>
</a>
</g>
</g>
<!-- Node19&#45;&gt;Node20 -->
<g id="edge27" class="edge">
<title>Node19&#45;&gt;Node20</title>
<path fill="none" stroke="midnightblue" d="M513.75,-400.07C481.26,-396.93 437.38,-386.77 415,-356 369.31,-293.19 478.28,-221.83 530.28,-192.59"/>
<polygon fill="midnightblue" stroke="midnightblue" points="532.21,-195.52 539.28,-187.63 528.83,-189.39 532.21,-195.52"/>
</g>
<!-- Node21 -->
<g id="node21" class="node">
<title>Node21</title>
<g id="a_node21"><a xlink:href="MemoryBus_8hpp.html" target="_top" xlink:title=" ">
<polygon fill="white" stroke="black" points="424,-336.5 424,-355.5 564,-355.5 564,-336.5 424,-336.5"/>
<text text-anchor="middle" x="494" y="-343.5" font-family="Helvetica,sans-Serif" font-size="10.00">Memory/MemoryBus.hpp</text>
</a>
</g>
</g>
<!-- Node19&#45;&gt;Node21 -->
<g id="edge35" class="edge">
<title>Node19&#45;&gt;Node21</title>
<path fill="none" stroke="midnightblue" d="M544.36,-392.32C535.49,-384.34 522.13,-372.31 511.39,-362.65"/>
<polygon fill="midnightblue" stroke="midnightblue" points="513.59,-359.92 503.82,-355.83 508.91,-365.13 513.59,-359.92"/>
</g>
<!-- Node26 -->
<g id="node26" class="node">
<title>Node26</title>
<g id="a_node26"><a xlink:href="IRenderer_8hpp.html" target="_top" xlink:title=" ">
<polygon fill="white" stroke="black" points="192.5,-280.5 192.5,-299.5 323.5,-299.5 323.5,-280.5 192.5,-280.5"/>
<text text-anchor="middle" x="258" y="-287.5" font-family="Helvetica,sans-Serif" font-size="10.00">Renderer/IRenderer.hpp</text>
</a>
</g>
</g>
<!-- Node19&#45;&gt;Node26 -->
<g id="edge51" class="edge">
<title>Node19&#45;&gt;Node26</title>
<path fill="none" stroke="midnightblue" d="M513.92,-393.21C478.53,-385.71 425.9,-372.99 382,-356 345.18,-341.75 305.16,-319.41 280.83,-304.99"/>
<polygon fill="midnightblue" stroke="midnightblue" points="282.39,-301.84 272.01,-299.7 278.79,-307.85 282.39,-301.84"/>
</g>
<!-- Node27 -->
<g id="node27" class="node">
<title>Node27</title>
<g id="a_node27"><a xlink:title=" ">
<polygon fill="white" stroke="#bfbfbf" points="582,-336.5 582,-355.5 646,-355.5 646,-336.5 582,-336.5"/>
<text text-anchor="middle" x="614" y="-343.5" font-family="Helvetica,sans-Serif" font-size="10.00">algorithm</text>
</a>
</g>
</g>
<!-- Node19&#45;&gt;Node27 -->
<g id="edge56" class="edge">
<title>Node19&#45;&gt;Node27</title>
<path fill="none" stroke="midnightblue" d="M563.64,-392.32C572.51,-384.34 585.87,-372.31 596.61,-362.65"/>
<polygon fill="midnightblue" stroke="midnightblue" points="599.09,-365.13 604.18,-355.83 594.41,-359.92 599.09,-365.13"/>
</g>
<!-- Node19&#45;&gt;Node28 -->
<g id="edge58" class="edge">
<title>Node19&#45;&gt;Node28</title>
<path fill="none" stroke="midnightblue" d="M594.02,-394.7C653.56,-385.33 765.94,-367.63 835.84,-356.63"/>
<polygon fill="midnightblue" stroke="midnightblue" points="836.5,-360.07 845.83,-355.06 835.41,-353.15 836.5,-360.07"/>
</g>
<!-- Node31 -->
<g id="node31" class="node">
<title>Node31</title>
<g id="a_node31"><a xlink:href="PPURegisters_8hpp.html" target="_top" xlink:title=" ">
<polygon fill="white" stroke="black" points="664.5,-336.5 664.5,-355.5 789.5,-355.5 789.5,-336.5 664.5,-336.5"/>
<text text-anchor="middle" x="727" y="-343.5" font-family="Helvetica,sans-Serif" font-size="10.00">PPU/PPURegisters.hpp</text>
</a>
</g>
</g>
<!-- Node19&#45;&gt;Node31 -->
<g id="edge64" class="edge">
<title>Node19&#45;&gt;Node31</title>
<path fill="none" stroke="midnightblue" d="M581.41,-392.44C610.77,-383.28 657.52,-368.69 690.1,-358.52"/>
<polygon fill="midnightblue" stroke="midnightblue" points="691.21,-361.84 699.72,-355.52 689.13,-355.16 691.21,-361.84"/>
</g>
<!-- Node20&#45;&gt;Node3 -->
<g id="edge29" class="edge">
<title>Node20&#45;&gt;Node3</title>
<path fill="none" stroke="midnightblue" d="M515.05,-168.47C474.33,-159.84 410.15,-145.82 355,-132 322.78,-123.93 315.05,-120.72 283,-112 236,-99.22 181.55,-84.79 147.44,-75.79"/>
<polygon fill="midnightblue" stroke="midnightblue" points="148.1,-72.34 137.53,-73.18 146.31,-79.11 148.1,-72.34"/>
</g>
<!-- Node20&#45;&gt;Node11 -->
<g id="edge34" class="edge">
<title>Node20&#45;&gt;Node11</title>
<path fill="none" stroke="midnightblue" d="M538.33,-168.32C520.61,-159.62 493.1,-146.12 472.71,-136.11"/>
<polygon fill="midnightblue" stroke="midnightblue" points="474.15,-132.92 463.63,-131.65 471.06,-139.2 474.15,-132.92"/>
</g>
<!-- Node20&#45;&gt;Node12 -->
<g id="edge28" class="edge">
<title>Node20&#45;&gt;Node12</title>
<path fill="none" stroke="midnightblue" d="M574.2,-168.37C614.78,-149.13 712.82,-102.65 760.73,-79.93"/>
<polygon fill="midnightblue" stroke="midnightblue" points="762.34,-83.04 769.88,-75.59 759.34,-76.71 762.34,-83.04"/>
</g>
<!-- Node20&#45;&gt;Node13 -->
<g id="edge30" class="edge">
<title>Node20&#45;&gt;Node13</title>
<path fill="none" stroke="midnightblue" d="M562.46,-168.29C572.52,-155.11 592.95,-129.74 614,-112 628.33,-99.92 646.19,-88.74 660.53,-80.54"/>
<polygon fill="midnightblue" stroke="midnightblue" points="662.35,-83.54 669.38,-75.61 658.94,-77.42 662.35,-83.54"/>
</g>
<!-- Node20&#45;&gt;Node14 -->
<g id="edge31" class="edge">
<title>Node20&#45;&gt;Node14</title>
<path fill="none" stroke="midnightblue" d="M515.17,-168.46C482.46,-160.91 435.8,-148.53 397,-132 363.92,-117.91 328.55,-95.83 306.85,-81.39"/>
<polygon fill="midnightblue" stroke="midnightblue" points="308.68,-78.4 298.43,-75.71 304.76,-84.2 308.68,-78.4"/>
</g>
<!-- Node20&#45;&gt;Node15 -->
<g id="edge32" class="edge">
<title>Node20&#45;&gt;Node15</title>
<path fill="none" stroke="midnightblue" d="M549.18,-168.25C538.56,-155 517.02,-129.56 495,-112 479.46,-99.61 460.14,-88.33 444.75,-80.17"/>
<polygon fill="midnightblue" stroke="midnightblue" points="446.23,-76.99 435.74,-75.5 443.01,-83.21 446.23,-76.99"/>
</g>
<!-- Node20&#45;&gt;Node17 -->
<g id="edge33" class="edge">
<title>Node20&#45;&gt;Node17</title>
<path fill="none" stroke="midnightblue" d="M555.69,-168.37C555.04,-150.62 553.55,-109.67 552.68,-85.6"/>
<polygon fill="midnightblue" stroke="midnightblue" points="556.17,-85.46 552.31,-75.59 549.18,-85.71 556.17,-85.46"/>
</g>
<!-- Node21&#45;&gt;Node3 -->
<g id="edge50" class="edge">
<title>Node21&#45;&gt;Node3</title>
<path fill="none" stroke="midnightblue" d="M471.35,-336.35C405.63,-310.9 216.69,-235.11 171,-188 142.27,-158.38 125.96,-111.58 118.67,-85.72"/>
<polygon fill="midnightblue" stroke="midnightblue" points="121.97,-84.5 116.02,-75.74 115.21,-86.3 121.97,-84.5"/>
</g>
<!-- Node21&#45;&gt;Node12 -->
<g id="edge48" class="edge">
<title>Node21&#45;&gt;Node12</title>
<path fill="none" stroke="midnightblue" d="M547.21,-336.46C598.07,-327.71 670.63,-313.51 696,-300 727.91,-283.01 737.73,-275.76 755,-244 783.31,-191.92 787.79,-119.87 788.2,-86.02"/>
<polygon fill="midnightblue" stroke="midnightblue" points="791.7,-85.73 788.22,-75.73 784.7,-85.73 791.7,-85.73"/>
</g>
<!-- Node21&#45;&gt;Node13 -->
<g id="edge49" class="edge">
<title>Node21&#45;&gt;Node13</title>
<path fill="none" stroke="midnightblue" d="M544.64,-336.43C578.04,-329.52 622.08,-317.94 658,-300 700.23,-278.91 742,-282.21 742,-235 742,-235 742,-235 742,-177 742,-140.44 717.12,-103.75 700.53,-83.34"/>
<polygon fill="midnightblue" stroke="midnightblue" points="703.15,-81.02 694.02,-75.64 697.8,-85.54 703.15,-81.02"/>
</g>
<!-- Node21&#45;&gt;Node20 -->
<g id="edge36" class="edge">
<title>Node21&#45;&gt;Node20</title>
<path fill="none" stroke="midnightblue" d="M493.11,-336.37C492.09,-323.71 491.24,-299.5 497,-280 506.59,-247.55 528.69,-214.56 542.95,-195.47"/>
<polygon fill="midnightblue" stroke="midnightblue" points="545.75,-197.58 549.06,-187.51 540.2,-193.32 545.75,-197.58"/>
</g>
<!-- Node22 -->
<g id="node22" class="node">
<title>Node22</title>
<g id="a_node22"><a xlink:href="RectangleShadow_8hpp.html" target="_top" xlink:title=" ">
<polygon fill="white" stroke="black" points="506,-280.5 506,-299.5 630,-299.5 630,-280.5 506,-280.5"/>
<text text-anchor="middle" x="568" y="-287.5" font-family="Helvetica,sans-Serif" font-size="10.00">RectangleShadow.hpp</text>
</a>
</g>
</g>
<!-- Node21&#45;&gt;Node22 -->
<g id="edge37" class="edge">
<title>Node21&#45;&gt;Node22</title>
<path fill="none" stroke="midnightblue" d="M505.89,-336.32C517.15,-328.11 534.29,-315.6 547.71,-305.81"/>
<polygon fill="midnightblue" stroke="midnightblue" points="549.88,-308.56 555.89,-299.83 545.75,-302.9 549.88,-308.56"/>
</g>
<!-- Node23 -->
<g id="node23" class="node">
<title>Node23</title>
<g id="a_node23"><a xlink:href="MemoryShadow_8hpp.html" target="_top" xlink:title=" ">
<polygon fill="white" stroke="black" points="598,-224.5 598,-243.5 714,-243.5 714,-224.5 598,-224.5"/>
<text text-anchor="middle" x="656" y="-231.5" font-family="Helvetica,sans-Serif" font-size="10.00">MemoryShadow.hpp</text>
</a>
</g>
</g>
<!-- Node21&#45;&gt;Node23 -->
<g id="edge43" class="edge">
<title>Node21&#45;&gt;Node23</title>
<path fill="none" stroke="midnightblue" d="M564,-337.82C590.72,-331.7 619.42,-320.48 639,-300 650.7,-287.76 654.6,-268.49 655.78,-254.11"/>
<polygon fill="midnightblue" stroke="midnightblue" points="659.29,-254 656.24,-243.85 652.3,-253.68 659.29,-254"/>
</g>
<!-- Node24 -->
<g id="node24" class="node">
<title>Node24</title>
<g id="a_node24"><a xlink:href="IMemoryBus_8hpp.html" target="_top" xlink:title=" ">
<polygon fill="white" stroke="black" points="180.5,-168.5 180.5,-187.5 279.5,-187.5 279.5,-168.5 180.5,-168.5"/>
<text text-anchor="middle" x="230" y="-175.5" font-family="Helvetica,sans-Serif" font-size="10.00">IMemoryBus.hpp</text>
</a>
</g>
</g>
<!-- Node21&#45;&gt;Node24 -->
<g id="edge44" class="edge">
<title>Node21&#45;&gt;Node24</title>
<path fill="none" stroke="midnightblue" d="M480.18,-336.31C437.14,-309.25 305.26,-226.32 252.33,-193.04"/>
<polygon fill="midnightblue" stroke="midnightblue" points="254.01,-189.97 243.69,-187.61 250.29,-195.89 254.01,-189.97"/>
</g>
<!-- Node22&#45;&gt;Node10 -->
<g id="edge39" class="edge">
<title>Node22&#45;&gt;Node10</title>
<path fill="none" stroke="midnightblue" d="M553.72,-280.37C522.35,-261.41 447.22,-216 409.07,-192.94"/>
<polygon fill="midnightblue" stroke="midnightblue" points="410.58,-189.77 400.21,-187.59 406.96,-195.76 410.58,-189.77"/>
</g>
<!-- Node22&#45;&gt;Node13 -->
<g id="edge38" class="edge">
<title>Node22&#45;&gt;Node13</title>
<path fill="none" stroke="midnightblue" d="M569.31,-280.39C571.6,-267.32 577.26,-242.11 589,-224 602.01,-203.93 614.73,-207.2 629,-188 653.49,-155.04 671.35,-109.88 680.05,-85.1"/>
<polygon fill="midnightblue" stroke="midnightblue" points="683.39,-86.14 683.3,-75.55 676.76,-83.89 683.39,-86.14"/>
</g>
<!-- Node22&#45;&gt;Node23 -->
<g id="edge40" class="edge">
<title>Node22&#45;&gt;Node23</title>
<path fill="none" stroke="midnightblue" d="M582.14,-280.32C595.87,-271.9 616.94,-258.97 633.06,-249.07"/>
<polygon fill="midnightblue" stroke="midnightblue" points="635.2,-251.87 641.9,-243.65 631.54,-245.9 635.2,-251.87"/>
</g>
<!-- Node23&#45;&gt;Node13 -->
<g id="edge41" class="edge">
<title>Node23&#45;&gt;Node13</title>
<path fill="none" stroke="midnightblue" d="M657.61,-224.08C662.34,-197.95 676.2,-121.21 682.64,-85.58"/>
<polygon fill="midnightblue" stroke="midnightblue" points="686.12,-86.03 684.45,-75.57 679.23,-84.79 686.12,-86.03"/>
</g>
<!-- Node23&#45;&gt;Node20 -->
<g id="edge42" class="edge">
<title>Node23&#45;&gt;Node20</title>
<path fill="none" stroke="midnightblue" d="M639.93,-224.32C624.04,-215.74 599.49,-202.49 581.04,-192.52"/>
<polygon fill="midnightblue" stroke="midnightblue" points="582.49,-189.33 572.03,-187.65 579.16,-195.49 582.49,-189.33"/>
</g>
<!-- Node24&#45;&gt;Node11 -->
<g id="edge47" class="edge">
<title>Node24&#45;&gt;Node11</title>
<path fill="none" stroke="midnightblue" d="M264.23,-168.44C301.51,-159.12 361.27,-144.18 402.01,-134"/>
<polygon fill="midnightblue" stroke="midnightblue" points="403.08,-137.34 411.93,-131.52 401.38,-130.55 403.08,-137.34"/>
</g>
<!-- Node24&#45;&gt;Node16 -->
<g id="edge45" class="edge">
<title>Node24&#45;&gt;Node16</title>
<path fill="none" stroke="midnightblue" d="M223.36,-168.11C214.82,-155.54 201.88,-131.87 209,-112 224.89,-67.62 274.26,-38.75 307.9,-23.67"/>
<polygon fill="midnightblue" stroke="midnightblue" points="309.55,-26.77 317.36,-19.6 306.79,-20.34 309.55,-26.77"/>
</g>
<!-- Node25 -->
<g id="node25" class="node">
<title>Node25</title>
<g id="a_node25"><a xlink:title=" ">
<polygon fill="white" stroke="#bfbfbf" points="218,-112.5 218,-131.5 274,-131.5 274,-112.5 218,-112.5"/>
<text text-anchor="middle" x="246" y="-119.5" font-family="Helvetica,sans-Serif" font-size="10.00">optional</text>
</a>
</g>
</g>
<!-- Node24&#45;&gt;Node25 -->
<g id="edge46" class="edge">
<title>Node24&#45;&gt;Node25</title>
<path fill="none" stroke="midnightblue" d="M232.64,-168.08C234.79,-160.85 237.88,-150.41 240.55,-141.4"/>
<polygon fill="midnightblue" stroke="midnightblue" points="243.92,-142.33 243.41,-131.75 237.21,-140.34 243.92,-142.33"/>
</g>
<!-- Node26&#45;&gt;Node14 -->
<g id="edge52" class="edge">
<title>Node26&#45;&gt;Node14</title>
<path fill="none" stroke="midnightblue" d="M249.11,-280.34C228.6,-260.13 179.14,-209.91 171,-188 167.91,-179.67 168.39,-176.5 171,-168 179.83,-139.25 187.03,-132.54 209,-112 223.05,-98.87 241.59,-87.88 256.96,-80.06"/>
<polygon fill="midnightblue" stroke="midnightblue" points="258.62,-83.14 266.05,-75.6 255.53,-76.86 258.62,-83.14"/>
</g>
<!-- Node26&#45;&gt;Node18 -->
<g id="edge53" class="edge">
<title>Node26&#45;&gt;Node18</title>
<path fill="none" stroke="midnightblue" d="M242.58,-280.32C227.46,-271.82 204.18,-258.73 186.53,-248.8"/>
<polygon fill="midnightblue" stroke="midnightblue" points="187.82,-245.51 177.39,-243.65 184.39,-251.61 187.82,-245.51"/>
</g>
<!-- Node28&#45;&gt;Node2 -->
<g id="edge62" class="edge">
<title>Node28&#45;&gt;Node2</title>
<path fill="none" stroke="midnightblue" d="M845.92,-339.9C830.82,-338.51 814.25,-337.08 799,-336 482.68,-313.58 396.5,-353.59 80.06,-299.74"/>
<polygon fill="midnightblue" stroke="midnightblue" points="80.6,-296.28 70.15,-298.04 79.42,-303.18 80.6,-296.28"/>
</g>
<!-- Node28&#45;&gt;Node5 -->
<g id="edge63" class="edge">
<title>Node28&#45;&gt;Node5</title>
<path fill="none" stroke="midnightblue" d="M929.96,-336.44C965.79,-327.14 1023.16,-312.25 1062.39,-302.06"/>
<polygon fill="midnightblue" stroke="midnightblue" points="1063.4,-305.42 1072.2,-299.52 1061.64,-298.64 1063.4,-305.42"/>
</g>
<!-- Node28&#45;&gt;Node13 -->
<g id="edge61" class="edge">
<title>Node28&#45;&gt;Node13</title>
<path fill="none" stroke="midnightblue" d="M892.36,-336.34C875.01,-304.39 811.27,-190.92 740,-112 730.03,-100.96 717.32,-90.23 706.73,-82.02"/>
<polygon fill="midnightblue" stroke="midnightblue" points="708.53,-79 698.44,-75.77 704.31,-84.59 708.53,-79"/>
</g>
<!-- Node29 -->
<g id="node29" class="node">
<title>Node29</title>
<g id="a_node29"><a xlink:title=" ">
<polygon fill="white" stroke="#bfbfbf" points="956,-280.5 956,-299.5 1030,-299.5 1030,-280.5 956,-280.5"/>
<text text-anchor="middle" x="993" y="-287.5" font-family="Helvetica,sans-Serif" font-size="10.00">stdint&#45;gcc.h</text>
</a>
</g>
</g>
<!-- Node28&#45;&gt;Node29 -->
<g id="edge59" class="edge">
<title>Node28&#45;&gt;Node29</title>
<path fill="none" stroke="midnightblue" d="M912.42,-336.32C927.54,-327.82 950.82,-314.73 968.47,-304.8"/>
<polygon fill="midnightblue" stroke="midnightblue" points="970.61,-307.61 977.61,-299.65 967.18,-301.51 970.61,-307.61"/>
</g>
<!-- Node30 -->
<g id="node30" class="node">
<title>Node30</title>
<g id="a_node30"><a xlink:title=" ">
<polygon fill="white" stroke="#bfbfbf" points="884.5,-280.5 884.5,-299.5 937.5,-299.5 937.5,-280.5 884.5,-280.5"/>
<text text-anchor="middle" x="911" y="-287.5" font-family="Helvetica,sans-Serif" font-size="10.00">cstddef</text>
</a>
</g>
</g>
<!-- Node28&#45;&gt;Node30 -->
<g id="edge60" class="edge">
<title>Node28&#45;&gt;Node30</title>
<path fill="none" stroke="midnightblue" d="M899.31,-336.08C901.17,-328.93 903.84,-318.64 906.15,-309.69"/>
<polygon fill="midnightblue" stroke="midnightblue" points="909.61,-310.31 908.73,-299.75 902.83,-308.55 909.61,-310.31"/>
</g>
</g>
</svg>
