<?xml version="1.0" encoding="UTF-8" standalone="no"?>
<!DOCTYPE svg PUBLIC "-//W3C//DTD SVG 1.1//EN"
 "http://www.w3.org/Graphics/SVG/1.1/DTD/svg11.dtd">
<!-- Generated by graphviz version 2.43.0 (0)
 -->
<!-- Title: sources/CPU/Instructions/BitsInstructions.cpp Pages: 1 -->
<svg width="1371pt" height="543pt"
 viewBox="0.00 0.00 1370.50 543.00" xmlns="http://www.w3.org/2000/svg" xmlns:xlink="http://www.w3.org/1999/xlink">
<g id="graph0" class="graph" transform="scale(1 1) rotate(0) translate(4 539)">
<title>sources/CPU/Instructions/BitsInstructions.cpp</title>
<polygon fill="white" stroke="transparent" points="-4,4 -4,-539 1366.5,-539 1366.5,4 -4,4"/>
<!-- Node1 -->
<g id="node1" class="node">
<title>Node1</title>
<g id="a_node1"><a xlink:title=" ">
<polygon fill="#bfbfbf" stroke="black" points="0,-504.5 0,-534.5 137,-534.5 137,-504.5 0,-504.5"/>
<text text-anchor="start" x="8" y="-522.5" font-family="Helvetica,sans-Serif" font-size="10.00">sources/CPU/Instructions</text>
<text text-anchor="middle" x="68.5" y="-511.5" font-family="Helvetica,sans-Serif" font-size="10.00">/BitsInstructions.cpp</text>
</a>
</g>
</g>
<!-- Node2 -->
<g id="node2" class="node">
<title>Node2</title>
<g id="a_node2"><a xlink:title=" ">
<polygon fill="white" stroke="#bfbfbf" points="117.5,-0.5 117.5,-19.5 177.5,-19.5 177.5,-0.5 117.5,-0.5"/>
<text text-anchor="middle" x="147.5" y="-7.5" font-family="Helvetica,sans-Serif" font-size="10.00">iostream</text>
</a>
</g>
</g>
<!-- Node1&#45;&gt;Node2 -->
<g id="edge1" class="edge">
<title>Node1&#45;&gt;Node2</title>
<path fill="none" stroke="midnightblue" d="M60.63,-504.41C49.5,-483.13 30.5,-441.21 30.5,-403 30.5,-403 30.5,-403 30.5,-121 30.5,-73.6 82.1,-40.64 116.77,-23.85"/>
<polygon fill="midnightblue" stroke="midnightblue" points="118.45,-26.93 126.04,-19.54 115.5,-20.58 118.45,-26.93"/>
</g>
<!-- Node3 -->
<g id="node3" class="node">
<title>Node3</title>
<g id="a_node3"><a xlink:href="Ints_8hpp.html" target="_top" xlink:title=" ">
<polygon fill="white" stroke="black" points="217.5,-56.5 217.5,-75.5 311.5,-75.5 311.5,-56.5 217.5,-56.5"/>
<text text-anchor="middle" x="264.5" y="-63.5" font-family="Helvetica,sans-Serif" font-size="10.00">Models/Ints.hpp</text>
</a>
</g>
</g>
<!-- Node1&#45;&gt;Node3 -->
<g id="edge2" class="edge">
<title>Node1&#45;&gt;Node3</title>
<path fill="none" stroke="midnightblue" d="M68.5,-504.28C68.5,-482.48 68.5,-439.49 68.5,-403 68.5,-403 68.5,-403 68.5,-177 68.5,-112.95 149.08,-85.81 206.91,-74.58"/>
<polygon fill="midnightblue" stroke="midnightblue" points="207.85,-77.97 217.05,-72.73 206.59,-71.09 207.85,-77.97"/>
</g>
<!-- Node5 -->
<g id="node5" class="node">
<title>Node5</title>
<g id="a_node5"><a xlink:href="CPU_8hpp.html" target="_top" xlink:title=" ">
<polygon fill="white" stroke="black" points="400,-448.5 400,-467.5 481,-467.5 481,-448.5 400,-448.5"/>
<text text-anchor="middle" x="440.5" y="-455.5" font-family="Helvetica,sans-Serif" font-size="10.00">CPU/CPU.hpp</text>
</a>
</g>
</g>
<!-- Node1&#45;&gt;Node5 -->
<g id="edge5" class="edge">
<title>Node1&#45;&gt;Node5</title>
<path fill="none" stroke="midnightblue" d="M137.16,-507.52C210.3,-495.82 324.34,-477.58 389.76,-467.12"/>
<polygon fill="midnightblue" stroke="midnightblue" points="390.51,-470.54 399.83,-465.5 389.4,-463.63 390.51,-470.54"/>
</g>
<!-- Node3&#45;&gt;Node2 -->
<g id="edge4" class="edge">
<title>Node3&#45;&gt;Node2</title>
<path fill="none" stroke="midnightblue" d="M245.96,-56.44C226.88,-47.64 196.93,-33.81 175.06,-23.72"/>
<polygon fill="midnightblue" stroke="midnightblue" points="176.5,-20.53 165.95,-19.52 173.57,-26.88 176.5,-20.53"/>
</g>
<!-- Node4 -->
<g id="node4" class="node">
<title>Node4</title>
<g id="a_node4"><a xlink:title=" ">
<polygon fill="white" stroke="#bfbfbf" points="541.5,-0.5 541.5,-19.5 603.5,-19.5 603.5,-0.5 541.5,-0.5"/>
<text text-anchor="middle" x="572.5" y="-7.5" font-family="Helvetica,sans-Serif" font-size="10.00">cinttypes</text>
</a>
</g>
</g>
<!-- Node3&#45;&gt;Node4 -->
<g id="edge3" class="edge">
<title>Node3&#45;&gt;Node4</title>
<path fill="none" stroke="midnightblue" d="M311.61,-56.74C371.58,-46.23 474.21,-28.23 531.24,-18.23"/>
<polygon fill="midnightblue" stroke="midnightblue" points="532.09,-21.64 541.33,-16.46 530.88,-14.74 532.09,-21.64"/>
</g>
<!-- Node5&#45;&gt;Node3 -->
<g id="edge38" class="edge">
<title>Node5&#45;&gt;Node3</title>
<path fill="none" stroke="midnightblue" d="M399.68,-455.17C349.51,-451.67 262.63,-441.5 194.5,-412 149.88,-392.68 106.5,-395.62 106.5,-347 106.5,-347 106.5,-347 106.5,-177 106.5,-122.39 170.85,-92.68 217.42,-78.33"/>
<polygon fill="midnightblue" stroke="midnightblue" points="218.45,-81.68 227.06,-75.5 216.48,-74.96 218.45,-81.68"/>
</g>
<!-- Node6 -->
<g id="node6" class="node">
<title>Node6</title>
<g id="a_node6"><a xlink:href="AMemory_8hpp.html" target="_top" xlink:title=" ">
<polygon fill="white" stroke="black" points="955,-168.5 955,-187.5 1082,-187.5 1082,-168.5 955,-168.5"/>
<text text-anchor="middle" x="1018.5" y="-175.5" font-family="Helvetica,sans-Serif" font-size="10.00">Memory/AMemory.hpp</text>
</a>
</g>
</g>
<!-- Node5&#45;&gt;Node6 -->
<g id="edge6" class="edge">
<title>Node5&#45;&gt;Node6</title>
<path fill="none" stroke="midnightblue" d="M481.28,-455.81C592.96,-451.45 895.5,-431.82 895.5,-347 895.5,-347 895.5,-347 895.5,-289 895.5,-240.48 949.34,-208.01 985.77,-191.6"/>
<polygon fill="midnightblue" stroke="midnightblue" points="987.28,-194.76 995.08,-187.58 984.51,-188.33 987.28,-194.76"/>
</g>
<!-- Node13 -->
<g id="node13" class="node">
<title>Node13</title>
<g id="a_node13"><a xlink:href="MemoryBus_8hpp.html" target="_top" xlink:title=" ">
<polygon fill="white" stroke="black" points="977.5,-336.5 977.5,-355.5 1117.5,-355.5 1117.5,-336.5 977.5,-336.5"/>
<text text-anchor="middle" x="1047.5" y="-343.5" font-family="Helvetica,sans-Serif" font-size="10.00">Memory/MemoryBus.hpp</text>
</a>
</g>
</g>
<!-- Node5&#45;&gt;Node13 -->
<g id="edge20" class="edge">
<title>Node5&#45;&gt;Node13</title>
<path fill="none" stroke="midnightblue" d="M481.18,-457.74C563.59,-458.24 755.49,-454.28 909.5,-412 952.26,-400.26 998.12,-376.07 1024.73,-360.74"/>
<polygon fill="midnightblue" stroke="midnightblue" points="1026.76,-363.61 1033.62,-355.53 1023.23,-357.57 1026.76,-363.61"/>
</g>
<!-- Node19 -->
<g id="node19" class="node">
<title>Node19</title>
<g id="a_node19"><a xlink:href="Callback_8hpp.html" target="_top" xlink:title=" ">
<polygon fill="white" stroke="black" points="256.5,-392.5 256.5,-411.5 374.5,-411.5 374.5,-392.5 256.5,-392.5"/>
<text text-anchor="middle" x="315.5" y="-399.5" font-family="Helvetica,sans-Serif" font-size="10.00">Models/Callback.hpp</text>
</a>
</g>
</g>
<!-- Node5&#45;&gt;Node19 -->
<g id="edge39" class="edge">
<title>Node5&#45;&gt;Node19</title>
<path fill="none" stroke="midnightblue" d="M420.69,-448.44C400.21,-439.6 368.02,-425.69 344.64,-415.59"/>
<polygon fill="midnightblue" stroke="midnightblue" points="345.78,-412.27 335.21,-411.52 343.01,-418.7 345.78,-412.27"/>
</g>
<!-- Node23 -->
<g id="node23" class="node">
<title>Node23</title>
<g id="a_node23"><a xlink:href="Cartridge_8hpp.html" target="_top" xlink:title=" ">
<polygon fill="white" stroke="black" points="461,-280.5 461,-299.5 592,-299.5 592,-280.5 461,-280.5"/>
<text text-anchor="middle" x="526.5" y="-287.5" font-family="Helvetica,sans-Serif" font-size="10.00">Cartridge/Cartridge.hpp</text>
</a>
</g>
</g>
<!-- Node5&#45;&gt;Node23 -->
<g id="edge43" class="edge">
<title>Node5&#45;&gt;Node23</title>
<path fill="none" stroke="midnightblue" d="M445.12,-448.08C458.78,-421.72 499.11,-343.88 517.35,-308.66"/>
<polygon fill="midnightblue" stroke="midnightblue" points="520.57,-310.06 522.06,-299.57 514.35,-306.84 520.57,-310.06"/>
</g>
<!-- Node28 -->
<g id="node28" class="node">
<title>Node28</title>
<g id="a_node28"><a xlink:href="Instruction_8hpp.html" target="_top" xlink:title=" ">
<polygon fill="white" stroke="black" points="293,-112.5 293,-131.5 382,-131.5 382,-112.5 293,-112.5"/>
<text text-anchor="middle" x="337.5" y="-119.5" font-family="Helvetica,sans-Serif" font-size="10.00">Instruction.hpp</text>
</a>
</g>
</g>
<!-- Node5&#45;&gt;Node28 -->
<g id="edge56" class="edge">
<title>Node5&#45;&gt;Node28</title>
<path fill="none" stroke="midnightblue" d="M440.42,-448.46C439.96,-428.2 437.21,-375.98 421.5,-336 403.47,-290.11 378.08,-289.67 359.5,-244 345.47,-209.51 340.34,-165.86 338.5,-141.54"/>
<polygon fill="midnightblue" stroke="midnightblue" points="342,-141.3 337.85,-131.55 335.01,-141.75 342,-141.3"/>
</g>
<!-- Node29 -->
<g id="node29" class="node">
<title>Node29</title>
<g id="a_node29"><a xlink:href="DMA_8hpp.html" target="_top" xlink:title=" ">
<polygon fill="white" stroke="black" points="1004,-392.5 1004,-411.5 1091,-411.5 1091,-392.5 1004,-392.5"/>
<text text-anchor="middle" x="1047.5" y="-399.5" font-family="Helvetica,sans-Serif" font-size="10.00">DMA/DMA.hpp</text>
</a>
</g>
</g>
<!-- Node5&#45;&gt;Node29 -->
<g id="edge59" class="edge">
<title>Node5&#45;&gt;Node29</title>
<path fill="none" stroke="midnightblue" d="M481.16,-454.14C570.62,-447.74 791.25,-431.26 975.5,-412 981.36,-411.39 987.48,-410.7 993.57,-409.98"/>
<polygon fill="midnightblue" stroke="midnightblue" points="994.24,-413.43 1003.75,-408.76 993.4,-406.48 994.24,-413.43"/>
</g>
<!-- Node30 -->
<g id="node30" class="node">
<title>Node30</title>
<g id="a_node30"><a xlink:href="Registers_8hpp.html" target="_top" xlink:title=" ">
<polygon fill="white" stroke="black" points="135,-280.5 135,-299.5 242,-299.5 242,-280.5 135,-280.5"/>
<text text-anchor="middle" x="188.5" y="-287.5" font-family="Helvetica,sans-Serif" font-size="10.00">CPU/Registers.hpp</text>
</a>
</g>
</g>
<!-- Node5&#45;&gt;Node30 -->
<g id="edge64" class="edge">
<title>Node5&#45;&gt;Node30</title>
<path fill="none" stroke="midnightblue" d="M399.97,-451.93C359.95,-445.93 297.64,-433.87 247.5,-412 206.71,-394.21 185.39,-395.29 164.5,-356 156.24,-340.47 165.25,-321.47 174.5,-308.03"/>
<polygon fill="midnightblue" stroke="midnightblue" points="177.52,-309.83 180.72,-299.73 171.92,-305.63 177.52,-309.83"/>
</g>
<!-- Node6&#45;&gt;Node3 -->
<g id="edge11" class="edge">
<title>Node6&#45;&gt;Node3</title>
<path fill="none" stroke="midnightblue" d="M955,-170.95C906.95,-164.92 840,-153.36 784.5,-132 768.49,-125.84 767.79,-117.37 751.5,-112 711.54,-98.82 441.48,-79.07 321.62,-70.83"/>
<polygon fill="midnightblue" stroke="midnightblue" points="321.74,-67.33 311.53,-70.14 321.26,-74.31 321.74,-67.33"/>
</g>
<!-- Node7 -->
<g id="node7" class="node">
<title>Node7</title>
<g id="a_node7"><a xlink:title=" ">
<polygon fill="white" stroke="#bfbfbf" points="1242.5,-56.5 1242.5,-75.5 1292.5,-75.5 1292.5,-56.5 1242.5,-56.5"/>
<text text-anchor="middle" x="1267.5" y="-63.5" font-family="Helvetica,sans-Serif" font-size="10.00">cstdint</text>
</a>
</g>
</g>
<!-- Node6&#45;&gt;Node7 -->
<g id="edge7" class="edge">
<title>Node6&#45;&gt;Node7</title>
<path fill="none" stroke="midnightblue" d="M1038.04,-168.37C1081.77,-149.05 1187.69,-102.26 1238.87,-79.65"/>
<polygon fill="midnightblue" stroke="midnightblue" points="1240.32,-82.83 1248.05,-75.59 1237.49,-76.43 1240.32,-82.83"/>
</g>
<!-- Node8 -->
<g id="node8" class="node">
<title>Node8</title>
<g id="a_node8"><a xlink:title=" ">
<polygon fill="white" stroke="#bfbfbf" points="867,-56.5 867,-75.5 914,-75.5 914,-56.5 867,-56.5"/>
<text text-anchor="middle" x="890.5" y="-63.5" font-family="Helvetica,sans-Serif" font-size="10.00">vector</text>
</a>
</g>
</g>
<!-- Node6&#45;&gt;Node8 -->
<g id="edge8" class="edge">
<title>Node6&#45;&gt;Node8</title>
<path fill="none" stroke="midnightblue" d="M1018.58,-168.29C1018.25,-154.65 1015.66,-128.13 1001.5,-112 981.69,-89.44 948.92,-78.02 924.11,-72.34"/>
<polygon fill="midnightblue" stroke="midnightblue" points="924.53,-68.85 914.02,-70.24 923.1,-75.71 924.53,-68.85"/>
</g>
<!-- Node9 -->
<g id="node9" class="node">
<title>Node9</title>
<g id="a_node9"><a xlink:title=" ">
<polygon fill="white" stroke="#bfbfbf" points="1124.5,-56.5 1124.5,-75.5 1182.5,-75.5 1182.5,-56.5 1124.5,-56.5"/>
<text text-anchor="middle" x="1153.5" y="-63.5" font-family="Helvetica,sans-Serif" font-size="10.00">memory</text>
</a>
</g>
</g>
<!-- Node6&#45;&gt;Node9 -->
<g id="edge9" class="edge">
<title>Node6&#45;&gt;Node9</title>
<path fill="none" stroke="midnightblue" d="M1029.09,-168.37C1051.96,-149.73 1106.21,-105.53 1134.93,-82.13"/>
<polygon fill="midnightblue" stroke="midnightblue" points="1137.41,-84.62 1142.96,-75.59 1132.99,-79.19 1137.41,-84.62"/>
</g>
<!-- Node10 -->
<g id="node10" class="node">
<title>Node10</title>
<g id="a_node10"><a xlink:title=" ">
<polygon fill="white" stroke="#bfbfbf" points="464.5,-56.5 464.5,-75.5 508.5,-75.5 508.5,-56.5 464.5,-56.5"/>
<text text-anchor="middle" x="486.5" y="-63.5" font-family="Helvetica,sans-Serif" font-size="10.00">string</text>
</a>
</g>
</g>
<!-- Node6&#45;&gt;Node10 -->
<g id="edge10" class="edge">
<title>Node6&#45;&gt;Node10</title>
<path fill="none" stroke="midnightblue" d="M991.74,-168.42C948.54,-154.84 860.58,-128.25 784.5,-112 688.8,-91.56 573.87,-76.97 518.9,-70.59"/>
<polygon fill="midnightblue" stroke="midnightblue" points="519.06,-67.08 508.72,-69.42 518.26,-74.04 519.06,-67.08"/>
</g>
<!-- Node11 -->
<g id="node11" class="node">
<title>Node11</title>
<g id="a_node11"><a xlink:href="Components_8hpp.html" target="_top" xlink:title=" ">
<polygon fill="white" stroke="black" points="957,-56.5 957,-75.5 1094,-75.5 1094,-56.5 957,-56.5"/>
<text text-anchor="middle" x="1025.5" y="-63.5" font-family="Helvetica,sans-Serif" font-size="10.00">Models/Components.hpp</text>
</a>
</g>
</g>
<!-- Node6&#45;&gt;Node11 -->
<g id="edge12" class="edge">
<title>Node6&#45;&gt;Node11</title>
<path fill="none" stroke="midnightblue" d="M1022.61,-168.28C1026.56,-159.38 1032.24,-145.07 1034.5,-132 1037.19,-116.39 1034.3,-98.56 1031.1,-85.52"/>
<polygon fill="midnightblue" stroke="midnightblue" points="1034.47,-84.58 1028.46,-75.86 1027.72,-86.43 1034.47,-84.58"/>
</g>
<!-- Node12 -->
<g id="node12" class="node">
<title>Node12</title>
<g id="a_node12"><a xlink:href="IMemory_8hpp.html" target="_top" xlink:title=" ">
<polygon fill="white" stroke="black" points="912.5,-112.5 912.5,-131.5 992.5,-131.5 992.5,-112.5 912.5,-112.5"/>
<text text-anchor="middle" x="952.5" y="-119.5" font-family="Helvetica,sans-Serif" font-size="10.00">IMemory.hpp</text>
</a>
</g>
</g>
<!-- Node6&#45;&gt;Node12 -->
<g id="edge13" class="edge">
<title>Node6&#45;&gt;Node12</title>
<path fill="none" stroke="midnightblue" d="M1007.9,-168.32C998.04,-160.26 983.15,-148.08 971.28,-138.37"/>
<polygon fill="midnightblue" stroke="midnightblue" points="973.25,-135.46 963.3,-131.83 968.82,-140.88 973.25,-135.46"/>
</g>
<!-- Node12&#45;&gt;Node3 -->
<g id="edge18" class="edge">
<title>Node12&#45;&gt;Node3</title>
<path fill="none" stroke="midnightblue" d="M912.28,-117.84C795.75,-108.7 457.58,-82.15 321.86,-71.5"/>
<polygon fill="midnightblue" stroke="midnightblue" points="321.91,-68 311.67,-70.7 321.37,-74.97 321.91,-68"/>
</g>
<!-- Node12&#45;&gt;Node7 -->
<g id="edge14" class="edge">
<title>Node12&#45;&gt;Node7</title>
<path fill="none" stroke="midnightblue" d="M992.71,-114.11C1054.83,-103.46 1173.1,-83.18 1232.14,-73.06"/>
<polygon fill="midnightblue" stroke="midnightblue" points="1232.84,-76.49 1242.1,-71.35 1231.66,-69.59 1232.84,-76.49"/>
</g>
<!-- Node12&#45;&gt;Node8 -->
<g id="edge15" class="edge">
<title>Node12&#45;&gt;Node8</title>
<path fill="none" stroke="midnightblue" d="M942.54,-112.32C933.37,-104.34 919.56,-92.31 908.47,-82.65"/>
<polygon fill="midnightblue" stroke="midnightblue" points="910.48,-79.76 900.64,-75.83 905.88,-85.04 910.48,-79.76"/>
</g>
<!-- Node12&#45;&gt;Node9 -->
<g id="edge16" class="edge">
<title>Node12&#45;&gt;Node9</title>
<path fill="none" stroke="midnightblue" d="M984.35,-112.44C1019.71,-102.94 1076.8,-87.61 1114.73,-77.42"/>
<polygon fill="midnightblue" stroke="midnightblue" points="1115.66,-80.79 1124.41,-74.82 1113.84,-74.03 1115.66,-80.79"/>
</g>
<!-- Node12&#45;&gt;Node10 -->
<g id="edge17" class="edge">
<title>Node12&#45;&gt;Node10</title>
<path fill="none" stroke="midnightblue" d="M912.37,-116.35C821.53,-105.82 601.65,-80.34 518.8,-70.74"/>
<polygon fill="midnightblue" stroke="midnightblue" points="519.06,-67.25 508.72,-69.58 518.25,-74.2 519.06,-67.25"/>
</g>
<!-- Node12&#45;&gt;Node11 -->
<g id="edge19" class="edge">
<title>Node12&#45;&gt;Node11</title>
<path fill="none" stroke="midnightblue" d="M964.23,-112.32C975.34,-104.11 992.24,-91.6 1005.48,-81.81"/>
<polygon fill="midnightblue" stroke="midnightblue" points="1007.6,-84.59 1013.56,-75.83 1003.44,-78.97 1007.6,-84.59"/>
</g>
<!-- Node13&#45;&gt;Node6 -->
<g id="edge21" class="edge">
<title>Node13&#45;&gt;Node6</title>
<path fill="none" stroke="midnightblue" d="M1035,-336.3C1024.63,-328.25 1010.61,-315.24 1004.5,-300 990.65,-265.46 1002.45,-221.24 1011.19,-196.96"/>
<polygon fill="midnightblue" stroke="midnightblue" points="1014.47,-198.18 1014.77,-187.59 1007.93,-195.68 1014.47,-198.18"/>
</g>
<!-- Node13&#45;&gt;Node7 -->
<g id="edge35" class="edge">
<title>Node13&#45;&gt;Node7</title>
<path fill="none" stroke="midnightblue" d="M1117.59,-341.65C1188.12,-334.06 1286.5,-310.02 1286.5,-235 1286.5,-235 1286.5,-235 1286.5,-177 1286.5,-144.49 1278.34,-107.35 1272.72,-85.61"/>
<polygon fill="midnightblue" stroke="midnightblue" points="1276.04,-84.5 1270.06,-75.75 1269.28,-86.32 1276.04,-84.5"/>
</g>
<!-- Node13&#45;&gt;Node8 -->
<g id="edge37" class="edge">
<title>Node13&#45;&gt;Node8</title>
<path fill="none" stroke="midnightblue" d="M1035.25,-336.4C1023.95,-328.03 1007.2,-314.49 995.5,-300 942.02,-233.76 932.63,-211.99 903.5,-132 898.02,-116.95 894.65,-99.04 892.73,-85.84"/>
<polygon fill="midnightblue" stroke="midnightblue" points="896.16,-85.1 891.38,-75.64 889.22,-86.01 896.16,-85.1"/>
</g>
<!-- Node13&#45;&gt;Node9 -->
<g id="edge36" class="edge">
<title>Node13&#45;&gt;Node9</title>
<path fill="none" stroke="midnightblue" d="M1087.79,-336.43C1136.06,-323.53 1210.5,-294.06 1210.5,-235 1210.5,-235 1210.5,-235 1210.5,-177 1210.5,-140.3 1185.18,-103.66 1168.29,-83.3"/>
<polygon fill="midnightblue" stroke="midnightblue" points="1170.85,-80.9 1161.67,-75.62 1165.55,-85.48 1170.85,-80.9"/>
</g>
<!-- Node14 -->
<g id="node14" class="node">
<title>Node14</title>
<g id="a_node14"><a xlink:href="RectangleShadow_8hpp.html" target="_top" xlink:title=" ">
<polygon fill="white" stroke="black" points="1013.5,-280.5 1013.5,-299.5 1137.5,-299.5 1137.5,-280.5 1013.5,-280.5"/>
<text text-anchor="middle" x="1075.5" y="-287.5" font-family="Helvetica,sans-Serif" font-size="10.00">RectangleShadow.hpp</text>
</a>
</g>
</g>
<!-- Node13&#45;&gt;Node14 -->
<g id="edge22" class="edge">
<title>Node13&#45;&gt;Node14</title>
<path fill="none" stroke="midnightblue" d="M1052.12,-336.08C1055.96,-328.69 1061.52,-317.95 1066.26,-308.81"/>
<polygon fill="midnightblue" stroke="midnightblue" points="1069.47,-310.24 1070.96,-299.75 1063.25,-307.02 1069.47,-310.24"/>
</g>
<!-- Node16 -->
<g id="node16" class="node">
<title>Node16</title>
<g id="a_node16"><a xlink:href="MemoryShadow_8hpp.html" target="_top" xlink:title=" ">
<polygon fill="white" stroke="black" points="1023.5,-224.5 1023.5,-243.5 1139.5,-243.5 1139.5,-224.5 1023.5,-224.5"/>
<text text-anchor="middle" x="1081.5" y="-231.5" font-family="Helvetica,sans-Serif" font-size="10.00">MemoryShadow.hpp</text>
</a>
</g>
</g>
<!-- Node13&#45;&gt;Node16 -->
<g id="edge30" class="edge">
<title>Node13&#45;&gt;Node16</title>
<path fill="none" stroke="midnightblue" d="M1091.51,-336.44C1111.9,-330.03 1134.29,-318.97 1146.5,-300 1159.71,-279.48 1133.94,-260.28 1111.05,-248.15"/>
<polygon fill="midnightblue" stroke="midnightblue" points="1112.37,-244.89 1101.86,-243.55 1109.24,-251.15 1112.37,-244.89"/>
</g>
<!-- Node17 -->
<g id="node17" class="node">
<title>Node17</title>
<g id="a_node17"><a xlink:href="IMemoryBus_8hpp.html" target="_top" xlink:title=" ">
<polygon fill="white" stroke="black" points="799,-168.5 799,-187.5 898,-187.5 898,-168.5 799,-168.5"/>
<text text-anchor="middle" x="848.5" y="-175.5" font-family="Helvetica,sans-Serif" font-size="10.00">IMemoryBus.hpp</text>
</a>
</g>
</g>
<!-- Node13&#45;&gt;Node17 -->
<g id="edge31" class="edge">
<title>Node13&#45;&gt;Node17</title>
<path fill="none" stroke="midnightblue" d="M999.41,-336.49C973.52,-329.98 942.32,-318.8 919.5,-300 885.63,-272.1 864.27,-223.53 854.58,-197.21"/>
<polygon fill="midnightblue" stroke="midnightblue" points="857.86,-195.99 851.24,-187.71 851.26,-198.31 857.86,-195.99"/>
</g>
<!-- Node14&#45;&gt;Node9 -->
<g id="edge23" class="edge">
<title>Node14&#45;&gt;Node9</title>
<path fill="none" stroke="midnightblue" d="M1101.19,-280.47C1117.82,-273.48 1138.23,-261.8 1148.5,-244 1177.9,-193.04 1166.14,-119.36 1158.33,-85.41"/>
<polygon fill="midnightblue" stroke="midnightblue" points="1161.68,-84.38 1155.89,-75.5 1154.88,-86.05 1161.68,-84.38"/>
</g>
<!-- Node15 -->
<g id="node15" class="node">
<title>Node15</title>
<g id="a_node15"><a xlink:href="ARectangleMemory_8hpp.html" target="_top" xlink:title=" ">
<polygon fill="white" stroke="black" points="610.5,-168.5 610.5,-187.5 742.5,-187.5 742.5,-168.5 610.5,-168.5"/>
<text text-anchor="middle" x="676.5" y="-175.5" font-family="Helvetica,sans-Serif" font-size="10.00">ARectangleMemory.hpp</text>
</a>
</g>
</g>
<!-- Node14&#45;&gt;Node15 -->
<g id="edge24" class="edge">
<title>Node14&#45;&gt;Node15</title>
<path fill="none" stroke="midnightblue" d="M1044.52,-280.46C973.15,-260.78 797.12,-212.25 717.17,-190.21"/>
<polygon fill="midnightblue" stroke="midnightblue" points="718.03,-186.82 707.46,-187.53 716.17,-193.57 718.03,-186.82"/>
</g>
<!-- Node14&#45;&gt;Node16 -->
<g id="edge27" class="edge">
<title>Node14&#45;&gt;Node16</title>
<path fill="none" stroke="midnightblue" d="M1076.49,-280.08C1077.29,-272.93 1078.43,-262.64 1079.42,-253.69"/>
<polygon fill="midnightblue" stroke="midnightblue" points="1082.9,-254.08 1080.53,-243.75 1075.94,-253.3 1082.9,-254.08"/>
</g>
<!-- Node15&#45;&gt;Node3 -->
<g id="edge26" class="edge">
<title>Node15&#45;&gt;Node3</title>
<path fill="none" stroke="midnightblue" d="M643.7,-168.43C609.27,-159.42 553.55,-144.8 505.5,-132 435.33,-113.3 353.75,-91.23 305.78,-78.21"/>
<polygon fill="midnightblue" stroke="midnightblue" points="306.63,-74.82 296.06,-75.58 304.8,-81.58 306.63,-74.82"/>
</g>
<!-- Node15&#45;&gt;Node12 -->
<g id="edge25" class="edge">
<title>Node15&#45;&gt;Node12</title>
<path fill="none" stroke="midnightblue" d="M720.23,-168.44C769.68,-158.77 850.06,-143.04 902.1,-132.86"/>
<polygon fill="midnightblue" stroke="midnightblue" points="902.97,-136.26 912.11,-130.9 901.63,-129.39 902.97,-136.26"/>
</g>
<!-- Node16&#45;&gt;Node6 -->
<g id="edge29" class="edge">
<title>Node16&#45;&gt;Node6</title>
<path fill="none" stroke="midnightblue" d="M1071.38,-224.32C1061.97,-216.26 1047.76,-204.08 1036.43,-194.37"/>
<polygon fill="midnightblue" stroke="midnightblue" points="1038.68,-191.68 1028.81,-187.83 1034.12,-197 1038.68,-191.68"/>
</g>
<!-- Node16&#45;&gt;Node9 -->
<g id="edge28" class="edge">
<title>Node16&#45;&gt;Node9</title>
<path fill="none" stroke="midnightblue" d="M1085.37,-224.08C1096.75,-197.83 1130.28,-120.55 1145.64,-85.12"/>
<polygon fill="midnightblue" stroke="midnightblue" points="1149.02,-86.14 1149.78,-75.57 1142.59,-83.35 1149.02,-86.14"/>
</g>
<!-- Node17&#45;&gt;Node4 -->
<g id="edge32" class="edge">
<title>Node17&#45;&gt;Node4</title>
<path fill="none" stroke="midnightblue" d="M836.45,-168.49C818.3,-155.77 782.74,-131.24 751.5,-112 697.62,-78.82 632.5,-43.14 597.56,-24.35"/>
<polygon fill="midnightblue" stroke="midnightblue" points="599.01,-21.16 588.54,-19.51 595.7,-27.33 599.01,-21.16"/>
</g>
<!-- Node17&#45;&gt;Node12 -->
<g id="edge34" class="edge">
<title>Node17&#45;&gt;Node12</title>
<path fill="none" stroke="midnightblue" d="M865.21,-168.32C881.81,-159.7 907.5,-146.36 926.72,-136.39"/>
<polygon fill="midnightblue" stroke="midnightblue" points="928.57,-139.37 935.83,-131.65 925.34,-133.16 928.57,-139.37"/>
</g>
<!-- Node18 -->
<g id="node18" class="node">
<title>Node18</title>
<g id="a_node18"><a xlink:title=" ">
<polygon fill="white" stroke="#bfbfbf" points="686.5,-112.5 686.5,-131.5 742.5,-131.5 742.5,-112.5 686.5,-112.5"/>
<text text-anchor="middle" x="714.5" y="-119.5" font-family="Helvetica,sans-Serif" font-size="10.00">optional</text>
</a>
</g>
</g>
<!-- Node17&#45;&gt;Node18 -->
<g id="edge33" class="edge">
<title>Node17&#45;&gt;Node18</title>
<path fill="none" stroke="midnightblue" d="M827.27,-168.44C805.12,-159.52 770.18,-145.44 745.06,-135.32"/>
<polygon fill="midnightblue" stroke="midnightblue" points="746.22,-132.01 735.63,-131.52 743.6,-138.5 746.22,-132.01"/>
</g>
<!-- Node20 -->
<g id="node20" class="node">
<title>Node20</title>
<g id="a_node20"><a xlink:title=" ">
<polygon fill="white" stroke="#bfbfbf" points="173,-336.5 173,-355.5 238,-355.5 238,-336.5 173,-336.5"/>
<text text-anchor="middle" x="205.5" y="-343.5" font-family="Helvetica,sans-Serif" font-size="10.00">functional</text>
</a>
</g>
</g>
<!-- Node19&#45;&gt;Node20 -->
<g id="edge40" class="edge">
<title>Node19&#45;&gt;Node20</title>
<path fill="none" stroke="midnightblue" d="M297.83,-392.32C280.11,-383.62 252.6,-370.12 232.21,-360.11"/>
<polygon fill="midnightblue" stroke="midnightblue" points="233.65,-356.92 223.13,-355.65 230.56,-363.2 233.65,-356.92"/>
</g>
<!-- Node21 -->
<g id="node21" class="node">
<title>Node21</title>
<g id="a_node21"><a xlink:title=" ">
<polygon fill="white" stroke="#bfbfbf" points="256,-336.5 256,-355.5 301,-355.5 301,-336.5 256,-336.5"/>
<text text-anchor="middle" x="278.5" y="-343.5" font-family="Helvetica,sans-Serif" font-size="10.00">utility</text>
</a>
</g>
</g>
<!-- Node19&#45;&gt;Node21 -->
<g id="edge41" class="edge">
<title>Node19&#45;&gt;Node21</title>
<path fill="none" stroke="midnightblue" d="M309.39,-392.08C304.22,-384.53 296.65,-373.49 290.31,-364.23"/>
<polygon fill="midnightblue" stroke="midnightblue" points="293.04,-362.02 284.5,-355.75 287.26,-365.98 293.04,-362.02"/>
</g>
<!-- Node22 -->
<g id="node22" class="node">
<title>Node22</title>
<g id="a_node22"><a xlink:title=" ">
<polygon fill="white" stroke="#bfbfbf" points="319,-336.5 319,-355.5 412,-355.5 412,-336.5 319,-336.5"/>
<text text-anchor="middle" x="365.5" y="-343.5" font-family="Helvetica,sans-Serif" font-size="10.00">unordered_map</text>
</a>
</g>
</g>
<!-- Node19&#45;&gt;Node22 -->
<g id="edge42" class="edge">
<title>Node19&#45;&gt;Node22</title>
<path fill="none" stroke="midnightblue" d="M323.76,-392.08C330.96,-384.3 341.61,-372.8 350.35,-363.37"/>
<polygon fill="midnightblue" stroke="midnightblue" points="353.17,-365.47 357.4,-355.75 348.03,-360.71 353.17,-365.47"/>
</g>
<!-- Node23&#45;&gt;Node3 -->
<g id="edge48" class="edge">
<title>Node23&#45;&gt;Node3</title>
<path fill="none" stroke="midnightblue" d="M460.79,-282.32C427.95,-276.38 389.03,-265.17 359.5,-244 304.27,-204.41 278.08,-122.55 268.72,-85.7"/>
<polygon fill="midnightblue" stroke="midnightblue" points="272.08,-84.71 266.34,-75.8 265.27,-86.35 272.08,-84.71"/>
</g>
<!-- Node23&#45;&gt;Node6 -->
<g id="edge46" class="edge">
<title>Node23&#45;&gt;Node6</title>
<path fill="none" stroke="midnightblue" d="M573.99,-280.49C620.79,-271.93 694.28,-258.02 757.5,-244 835.29,-226.75 925.33,-203.62 976.73,-190.11"/>
<polygon fill="midnightblue" stroke="midnightblue" points="977.7,-193.47 986.48,-187.54 975.92,-186.7 977.7,-193.47"/>
</g>
<!-- Node23&#45;&gt;Node10 -->
<g id="edge55" class="edge">
<title>Node23&#45;&gt;Node10</title>
<path fill="none" stroke="midnightblue" d="M514,-280.3C503.63,-272.25 489.61,-259.24 483.5,-244 461.81,-189.9 473.9,-118.82 481.63,-85.61"/>
<polygon fill="midnightblue" stroke="midnightblue" points="485.12,-86.08 484.12,-75.53 478.32,-84.4 485.12,-86.08"/>
</g>
<!-- Node23&#45;&gt;Node15 -->
<g id="edge47" class="edge">
<title>Node23&#45;&gt;Node15</title>
<path fill="none" stroke="midnightblue" d="M538.27,-280.37C563.9,-261.57 625,-216.77 656.68,-193.53"/>
<polygon fill="midnightblue" stroke="midnightblue" points="658.79,-196.33 664.78,-187.59 654.65,-190.68 658.79,-196.33"/>
</g>
<!-- Node24 -->
<g id="node24" class="node">
<title>Node24</title>
<g id="a_node24"><a xlink:href="InterruptVectors_8hpp.html" target="_top" xlink:title=" ">
<polygon fill="white" stroke="black" points="514.5,-112.5 514.5,-131.5 630.5,-131.5 630.5,-112.5 514.5,-112.5"/>
<text text-anchor="middle" x="572.5" y="-119.5" font-family="Helvetica,sans-Serif" font-size="10.00">InterruptVectors.hpp</text>
</a>
</g>
</g>
<!-- Node23&#45;&gt;Node24 -->
<g id="edge44" class="edge">
<title>Node23&#45;&gt;Node24</title>
<path fill="none" stroke="midnightblue" d="M586.06,-280.48C639.59,-269.31 715.21,-244.07 751.5,-188 756.33,-180.54 756.97,-175.01 751.5,-168 737.67,-150.26 685.18,-138.45 640.59,-131.39"/>
<polygon fill="midnightblue" stroke="midnightblue" points="641.04,-127.92 630.63,-129.87 639.99,-134.84 641.04,-127.92"/>
</g>
<!-- Node25 -->
<g id="node25" class="node">
<title>Node25</title>
<g id="a_node25"><a xlink:href="Ram_8hpp.html" target="_top" xlink:title=" ">
<polygon fill="white" stroke="black" points="492.5,-224.5 492.5,-243.5 578.5,-243.5 578.5,-224.5 492.5,-224.5"/>
<text text-anchor="middle" x="535.5" y="-231.5" font-family="Helvetica,sans-Serif" font-size="10.00">Ram/Ram.hpp</text>
</a>
</g>
</g>
<!-- Node23&#45;&gt;Node25 -->
<g id="edge49" class="edge">
<title>Node23&#45;&gt;Node25</title>
<path fill="none" stroke="midnightblue" d="M527.99,-280.08C529.18,-272.93 530.89,-262.64 532.38,-253.69"/>
<polygon fill="midnightblue" stroke="midnightblue" points="535.85,-254.19 534.04,-243.75 528.95,-253.04 535.85,-254.19"/>
</g>
<!-- Node27 -->
<g id="node27" class="node">
<title>Node27</title>
<g id="a_node27"><a xlink:title=" ">
<polygon fill="white" stroke="#bfbfbf" points="368.5,-224.5 368.5,-243.5 436.5,-243.5 436.5,-224.5 368.5,-224.5"/>
<text text-anchor="middle" x="402.5" y="-231.5" font-family="Helvetica,sans-Serif" font-size="10.00">filesystem</text>
</a>
</g>
</g>
<!-- Node23&#45;&gt;Node27 -->
<g id="edge54" class="edge">
<title>Node23&#45;&gt;Node27</title>
<path fill="none" stroke="midnightblue" d="M506.85,-280.44C486.54,-271.6 454.6,-257.69 431.4,-247.59"/>
<polygon fill="midnightblue" stroke="midnightblue" points="432.62,-244.3 422.06,-243.52 429.83,-250.72 432.62,-244.3"/>
</g>
<!-- Node24&#45;&gt;Node4 -->
<g id="edge45" class="edge">
<title>Node24&#45;&gt;Node4</title>
<path fill="none" stroke="midnightblue" d="M572.5,-112.37C572.5,-94.62 572.5,-53.67 572.5,-29.6"/>
<polygon fill="midnightblue" stroke="midnightblue" points="576,-29.59 572.5,-19.59 569,-29.59 576,-29.59"/>
</g>
<!-- Node25&#45;&gt;Node8 -->
<g id="edge53" class="edge">
<title>Node25&#45;&gt;Node8</title>
<path fill="none" stroke="midnightblue" d="M542.39,-224.41C561.24,-201.62 616.33,-139.44 677.5,-112 737.24,-85.21 813.65,-74.07 856.83,-69.67"/>
<polygon fill="midnightblue" stroke="midnightblue" points="857.18,-73.15 866.8,-68.71 856.51,-66.18 857.18,-73.15"/>
</g>
<!-- Node25&#45;&gt;Node10 -->
<g id="edge51" class="edge">
<title>Node25&#45;&gt;Node10</title>
<path fill="none" stroke="midnightblue" d="M528.05,-224.34C521.05,-215.72 510.89,-201.82 505.5,-188 492.09,-153.61 488.13,-110.22 486.97,-85.85"/>
<polygon fill="midnightblue" stroke="midnightblue" points="490.46,-85.41 486.6,-75.54 483.46,-85.66 490.46,-85.41"/>
</g>
<!-- Node25&#45;&gt;Node15 -->
<g id="edge50" class="edge">
<title>Node25&#45;&gt;Node15</title>
<path fill="none" stroke="midnightblue" d="M557.84,-224.44C581.25,-215.48 618.24,-201.31 644.69,-191.18"/>
<polygon fill="midnightblue" stroke="midnightblue" points="646.18,-194.36 654.26,-187.52 643.67,-187.82 646.18,-194.36"/>
</g>
<!-- Node26 -->
<g id="node26" class="node">
<title>Node26</title>
<g id="a_node26"><a xlink:title=" ">
<polygon fill="white" stroke="#bfbfbf" points="514.5,-168.5 514.5,-187.5 554.5,-187.5 554.5,-168.5 514.5,-168.5"/>
<text text-anchor="middle" x="534.5" y="-175.5" font-family="Helvetica,sans-Serif" font-size="10.00">span</text>
</a>
</g>
</g>
<!-- Node25&#45;&gt;Node26 -->
<g id="edge52" class="edge">
<title>Node25&#45;&gt;Node26</title>
<path fill="none" stroke="midnightblue" d="M535.33,-224.08C535.2,-217.01 535.02,-206.86 534.85,-197.99"/>
<polygon fill="midnightblue" stroke="midnightblue" points="538.35,-197.68 534.66,-187.75 531.35,-197.81 538.35,-197.68"/>
</g>
<!-- Node28&#45;&gt;Node3 -->
<g id="edge58" class="edge">
<title>Node28&#45;&gt;Node3</title>
<path fill="none" stroke="midnightblue" d="M325.77,-112.32C314.66,-104.11 297.76,-91.6 284.52,-81.81"/>
<polygon fill="midnightblue" stroke="midnightblue" points="286.56,-78.97 276.44,-75.83 282.4,-84.59 286.56,-78.97"/>
</g>
<!-- Node28&#45;&gt;Node10 -->
<g id="edge57" class="edge">
<title>Node28&#45;&gt;Node10</title>
<path fill="none" stroke="midnightblue" d="M361.11,-112.44C386.4,-103.28 426.67,-88.68 454.72,-78.52"/>
<polygon fill="midnightblue" stroke="midnightblue" points="456.25,-81.69 464.46,-74.99 453.86,-75.11 456.25,-81.69"/>
</g>
<!-- Node29&#45;&gt;Node3 -->
<g id="edge61" class="edge">
<title>Node29&#45;&gt;Node3</title>
<path fill="none" stroke="midnightblue" d="M1003.63,-397.61C903.81,-389.01 652.79,-362.48 452.5,-300 396.32,-282.47 377.07,-282.44 332.5,-244 309.91,-224.52 309.65,-214.26 295.5,-188 282.65,-164.16 278.36,-158.2 271.5,-132 267.5,-116.71 265.78,-98.83 265.04,-85.7"/>
<polygon fill="midnightblue" stroke="midnightblue" points="268.53,-85.4 264.62,-75.56 261.54,-85.7 268.53,-85.4"/>
</g>
<!-- Node29&#45;&gt;Node7 -->
<g id="edge62" class="edge">
<title>Node29&#45;&gt;Node7</title>
<path fill="none" stroke="midnightblue" d="M1091.3,-395.06C1177.85,-382.09 1362.5,-347.77 1362.5,-291 1362.5,-291 1362.5,-291 1362.5,-177 1362.5,-133.74 1319.89,-99.09 1291.75,-80.91"/>
<polygon fill="midnightblue" stroke="midnightblue" points="1293.53,-77.9 1283.19,-75.6 1289.84,-83.85 1293.53,-77.9"/>
</g>
<!-- Node29&#45;&gt;Node9 -->
<g id="edge63" class="edge">
<title>Node29&#45;&gt;Node9</title>
<path fill="none" stroke="midnightblue" d="M1091.09,-393.07C1169.09,-377.62 1324.5,-340.61 1324.5,-291 1324.5,-291 1324.5,-291 1324.5,-177 1324.5,-114.58 1242.92,-85.91 1192.46,-74.15"/>
<polygon fill="midnightblue" stroke="midnightblue" points="1193.03,-70.69 1182.51,-71.95 1191.52,-77.52 1193.03,-70.69"/>
</g>
<!-- Node29&#45;&gt;Node13 -->
<g id="edge60" class="edge">
<title>Node29&#45;&gt;Node13</title>
<path fill="none" stroke="midnightblue" d="M1047.5,-392.08C1047.5,-385.01 1047.5,-374.86 1047.5,-365.99"/>
<polygon fill="midnightblue" stroke="midnightblue" points="1051,-365.75 1047.5,-355.75 1044,-365.75 1051,-365.75"/>
</g>
<!-- Node30&#45;&gt;Node3 -->
<g id="edge65" class="edge">
<title>Node30&#45;&gt;Node3</title>
<path fill="none" stroke="midnightblue" d="M187.61,-280.23C185.28,-253.26 181.21,-169.82 212.5,-112 219.16,-99.7 230.62,-89.23 241.09,-81.49"/>
<polygon fill="midnightblue" stroke="midnightblue" points="243.29,-84.22 249.52,-75.66 239.31,-78.47 243.29,-84.22"/>
</g>
</g>
</svg>
