<?xml version="1.0" encoding="UTF-8" standalone="no"?>
<!DOCTYPE svg PUBLIC "-//W3C//DTD SVG 1.1//EN"
 "http://www.w3.org/Graphics/SVG/1.1/DTD/svg11.dtd">
<!-- Generated by graphviz version 2.43.0 (0)
 -->
<!-- Title: sources/APU/DSP/BRR.cpp Pages: 1 -->
<svg width="552pt" height="308pt"
 viewBox="0.00 0.00 552.17 308.00" xmlns="http://www.w3.org/2000/svg" xmlns:xlink="http://www.w3.org/1999/xlink">
<g id="graph0" class="graph" transform="scale(1 1) rotate(0) translate(4 304)">
<title>sources/APU/DSP/BRR.cpp</title>
<polygon fill="white" stroke="transparent" points="-4,4 -4,-304 548.17,-304 548.17,4 -4,4"/>
<!-- Node1 -->
<g id="node1" class="node">
<title>Node1</title>
<g id="a_node1"><a xlink:title=" ">
<polygon fill="#bfbfbf" stroke="black" points="49.67,-280.5 49.67,-299.5 192.67,-299.5 192.67,-280.5 49.67,-280.5"/>
<text text-anchor="middle" x="121.17" y="-287.5" font-family="Helvetica,sans-Serif" font-size="10.00">sources/APU/DSP/BRR.cpp</text>
</a>
</g>
</g>
<!-- Node2 -->
<g id="node2" class="node">
<title>Node2</title>
<g id="a_node2"><a xlink:title=" ">
<polygon fill="white" stroke="#bfbfbf" points="50.17,-224.5 50.17,-243.5 114.17,-243.5 114.17,-224.5 50.17,-224.5"/>
<text text-anchor="middle" x="82.17" y="-231.5" font-family="Helvetica,sans-Serif" font-size="10.00">algorithm</text>
</a>
</g>
</g>
<!-- Node1&#45;&gt;Node2 -->
<g id="edge1" class="edge">
<title>Node1&#45;&gt;Node2</title>
<path fill="none" stroke="midnightblue" d="M114.73,-280.08C109.22,-272.46 101.14,-261.26 94.41,-251.94"/>
<polygon fill="midnightblue" stroke="midnightblue" points="97.18,-249.81 88.49,-243.75 91.51,-253.91 97.18,-249.81"/>
</g>
<!-- Node3 -->
<g id="node3" class="node">
<title>Node3</title>
<g id="a_node3"><a xlink:href="DSP_8hpp.html" target="_top" xlink:title=" ">
<polygon fill="white" stroke="black" points="132.17,-224.5 132.17,-243.5 188.17,-243.5 188.17,-224.5 132.17,-224.5"/>
<text text-anchor="middle" x="160.17" y="-231.5" font-family="Helvetica,sans-Serif" font-size="10.00">DSP.hpp</text>
</a>
</g>
</g>
<!-- Node1&#45;&gt;Node3 -->
<g id="edge2" class="edge">
<title>Node1&#45;&gt;Node3</title>
<path fill="none" stroke="midnightblue" d="M127.61,-280.08C133.12,-272.46 141.2,-261.26 147.94,-251.94"/>
<polygon fill="midnightblue" stroke="midnightblue" points="150.83,-253.91 153.85,-243.75 145.16,-249.81 150.83,-253.91"/>
</g>
<!-- Node4 -->
<g id="node4" class="node">
<title>Node4</title>
<g id="a_node4"><a xlink:title=" ">
<polygon fill="white" stroke="#bfbfbf" points="0.17,-56.5 0.17,-75.5 50.17,-75.5 50.17,-56.5 0.17,-56.5"/>
<text text-anchor="middle" x="25.17" y="-63.5" font-family="Helvetica,sans-Serif" font-size="10.00">cstdint</text>
</a>
</g>
</g>
<!-- Node3&#45;&gt;Node4 -->
<g id="edge3" class="edge">
<title>Node3&#45;&gt;Node4</title>
<path fill="none" stroke="midnightblue" d="M131.83,-225.31C89.91,-213.79 15.87,-192.9 12.17,-188 -10.66,-157.77 4.87,-110.53 16.22,-84.94"/>
<polygon fill="midnightblue" stroke="midnightblue" points="19.48,-86.23 20.56,-75.69 13.14,-83.25 19.48,-86.23"/>
</g>
<!-- Node5 -->
<g id="node5" class="node">
<title>Node5</title>
<g id="a_node5"><a xlink:title=" ">
<polygon fill="white" stroke="#bfbfbf" points="316.17,-168.5 316.17,-187.5 358.17,-187.5 358.17,-168.5 316.17,-168.5"/>
<text text-anchor="middle" x="337.17" y="-175.5" font-family="Helvetica,sans-Serif" font-size="10.00">array</text>
</a>
</g>
</g>
<!-- Node3&#45;&gt;Node5 -->
<g id="edge4" class="edge">
<title>Node3&#45;&gt;Node5</title>
<path fill="none" stroke="midnightblue" d="M188.22,-224.44C220.37,-214.63 272.93,-198.6 306.24,-188.44"/>
<polygon fill="midnightblue" stroke="midnightblue" points="307.38,-191.75 315.92,-185.48 305.34,-185.05 307.38,-191.75"/>
</g>
<!-- Node6 -->
<g id="node6" class="node">
<title>Node6</title>
<g id="a_node6"><a xlink:href="IRenderer_8hpp.html" target="_top" xlink:title=" ">
<polygon fill="white" stroke="black" points="21.67,-168.5 21.67,-187.5 152.67,-187.5 152.67,-168.5 21.67,-168.5"/>
<text text-anchor="middle" x="87.17" y="-175.5" font-family="Helvetica,sans-Serif" font-size="10.00">Renderer/IRenderer.hpp</text>
</a>
</g>
</g>
<!-- Node3&#45;&gt;Node6 -->
<g id="edge5" class="edge">
<title>Node3&#45;&gt;Node6</title>
<path fill="none" stroke="midnightblue" d="M148.44,-224.32C137.33,-216.11 120.43,-203.6 107.19,-193.81"/>
<polygon fill="midnightblue" stroke="midnightblue" points="109.23,-190.97 99.11,-187.83 105.07,-196.59 109.23,-190.97"/>
</g>
<!-- Node9 -->
<g id="node9" class="node">
<title>Node9</title>
<g id="a_node9"><a xlink:href="AMemory_8hpp.html" target="_top" xlink:title=" ">
<polygon fill="white" stroke="black" points="170.67,-168.5 170.67,-187.5 297.67,-187.5 297.67,-168.5 170.67,-168.5"/>
<text text-anchor="middle" x="234.17" y="-175.5" font-family="Helvetica,sans-Serif" font-size="10.00">Memory/AMemory.hpp</text>
</a>
</g>
</g>
<!-- Node3&#45;&gt;Node9 -->
<g id="edge8" class="edge">
<title>Node3&#45;&gt;Node9</title>
<path fill="none" stroke="midnightblue" d="M172.06,-224.32C183.32,-216.11 200.46,-203.6 213.88,-193.81"/>
<polygon fill="midnightblue" stroke="midnightblue" points="216.05,-196.56 222.07,-187.83 211.92,-190.9 216.05,-196.56"/>
</g>
<!-- Node7 -->
<g id="node7" class="node">
<title>Node7</title>
<g id="a_node7"><a xlink:title=" ">
<polygon fill="white" stroke="#bfbfbf" points="68.17,-56.5 68.17,-75.5 112.17,-75.5 112.17,-56.5 68.17,-56.5"/>
<text text-anchor="middle" x="90.17" y="-63.5" font-family="Helvetica,sans-Serif" font-size="10.00">string</text>
</a>
</g>
</g>
<!-- Node6&#45;&gt;Node7 -->
<g id="edge6" class="edge">
<title>Node6&#45;&gt;Node7</title>
<path fill="none" stroke="midnightblue" d="M87.41,-168.37C87.89,-150.62 89.01,-109.67 89.66,-85.6"/>
<polygon fill="midnightblue" stroke="midnightblue" points="93.16,-85.68 89.94,-75.59 86.17,-85.49 93.16,-85.68"/>
</g>
<!-- Node8 -->
<g id="node8" class="node">
<title>Node8</title>
<g id="a_node8"><a xlink:title=" ">
<polygon fill="white" stroke="#bfbfbf" points="20.17,-112.5 20.17,-131.5 60.17,-131.5 60.17,-112.5 20.17,-112.5"/>
<text text-anchor="middle" x="40.17" y="-119.5" font-family="Helvetica,sans-Serif" font-size="10.00">span</text>
</a>
</g>
</g>
<!-- Node6&#45;&gt;Node8 -->
<g id="edge7" class="edge">
<title>Node6&#45;&gt;Node8</title>
<path fill="none" stroke="midnightblue" d="M79.41,-168.08C72.63,-160.3 62.63,-148.8 54.42,-139.37"/>
<polygon fill="midnightblue" stroke="midnightblue" points="56.99,-137 47.79,-131.75 51.71,-141.59 56.99,-137"/>
</g>
<!-- Node9&#45;&gt;Node4 -->
<g id="edge9" class="edge">
<title>Node9&#45;&gt;Node4</title>
<path fill="none" stroke="midnightblue" d="M217.25,-168.47C199.49,-159.5 170.79,-144.91 146.17,-132 112.61,-114.41 74.09,-93.61 49.7,-80.37"/>
<polygon fill="midnightblue" stroke="midnightblue" points="51.24,-77.22 40.78,-75.52 47.89,-83.37 51.24,-77.22"/>
</g>
<!-- Node9&#45;&gt;Node7 -->
<g id="edge12" class="edge">
<title>Node9&#45;&gt;Node7</title>
<path fill="none" stroke="midnightblue" d="M222.87,-168.37C198.37,-149.65 140.11,-105.15 109.59,-81.83"/>
<polygon fill="midnightblue" stroke="midnightblue" points="111.49,-78.88 101.42,-75.59 107.24,-84.44 111.49,-78.88"/>
</g>
<!-- Node10 -->
<g id="node10" class="node">
<title>Node10</title>
<g id="a_node10"><a xlink:title=" ">
<polygon fill="white" stroke="#bfbfbf" points="285.67,-56.5 285.67,-75.5 332.67,-75.5 332.67,-56.5 285.67,-56.5"/>
<text text-anchor="middle" x="309.17" y="-63.5" font-family="Helvetica,sans-Serif" font-size="10.00">vector</text>
</a>
</g>
</g>
<!-- Node9&#45;&gt;Node10 -->
<g id="edge10" class="edge">
<title>Node9&#45;&gt;Node10</title>
<path fill="none" stroke="midnightblue" d="M267.97,-168.39C286.56,-161.74 308.06,-150.45 319.17,-132 327.71,-117.81 323.37,-98.84 317.99,-85.06"/>
<polygon fill="midnightblue" stroke="midnightblue" points="321.11,-83.44 313.88,-75.69 314.7,-86.25 321.11,-83.44"/>
</g>
<!-- Node11 -->
<g id="node11" class="node">
<title>Node11</title>
<g id="a_node11"><a xlink:title=" ">
<polygon fill="white" stroke="#bfbfbf" points="351.17,-56.5 351.17,-75.5 409.17,-75.5 409.17,-56.5 351.17,-56.5"/>
<text text-anchor="middle" x="380.17" y="-63.5" font-family="Helvetica,sans-Serif" font-size="10.00">memory</text>
</a>
</g>
</g>
<!-- Node9&#45;&gt;Node11 -->
<g id="edge11" class="edge">
<title>Node9&#45;&gt;Node11</title>
<path fill="none" stroke="midnightblue" d="M265.21,-168.35C286.81,-161.2 315.37,-149.37 336.17,-132 351.66,-119.07 363.95,-99.35 371.56,-85.03"/>
<polygon fill="midnightblue" stroke="midnightblue" points="374.88,-86.22 376.25,-75.72 368.63,-83.07 374.88,-86.22"/>
</g>
<!-- Node12 -->
<g id="node12" class="node">
<title>Node12</title>
<g id="a_node12"><a xlink:href="Ints_8hpp.html" target="_top" xlink:title=" ">
<polygon fill="white" stroke="black" points="427.17,-56.5 427.17,-75.5 521.17,-75.5 521.17,-56.5 427.17,-56.5"/>
<text text-anchor="middle" x="474.17" y="-63.5" font-family="Helvetica,sans-Serif" font-size="10.00">Models/Ints.hpp</text>
</a>
</g>
</g>
<!-- Node9&#45;&gt;Node12 -->
<g id="edge13" class="edge">
<title>Node9&#45;&gt;Node12</title>
<path fill="none" stroke="midnightblue" d="M262.01,-168.47C287.71,-160.26 326.67,-146.9 359.17,-132 392.7,-116.62 429.49,-94.91 452.21,-80.89"/>
<polygon fill="midnightblue" stroke="midnightblue" points="454.12,-83.83 460.76,-75.57 450.42,-77.89 454.12,-83.83"/>
</g>
<!-- Node15 -->
<g id="node15" class="node">
<title>Node15</title>
<g id="a_node15"><a xlink:href="Components_8hpp.html" target="_top" xlink:title=" ">
<polygon fill="white" stroke="black" points="130.67,-56.5 130.67,-75.5 267.67,-75.5 267.67,-56.5 130.67,-56.5"/>
<text text-anchor="middle" x="199.17" y="-63.5" font-family="Helvetica,sans-Serif" font-size="10.00">Models/Components.hpp</text>
</a>
</g>
</g>
<!-- Node9&#45;&gt;Node15 -->
<g id="edge16" class="edge">
<title>Node9&#45;&gt;Node15</title>
<path fill="none" stroke="midnightblue" d="M231.42,-168.37C225.75,-150.54 212.63,-109.3 204.98,-85.27"/>
<polygon fill="midnightblue" stroke="midnightblue" points="208.27,-84.06 201.9,-75.59 201.6,-86.18 208.27,-84.06"/>
</g>
<!-- Node16 -->
<g id="node16" class="node">
<title>Node16</title>
<g id="a_node16"><a xlink:href="IMemory_8hpp.html" target="_top" xlink:title=" ">
<polygon fill="white" stroke="black" points="230.17,-112.5 230.17,-131.5 310.17,-131.5 310.17,-112.5 230.17,-112.5"/>
<text text-anchor="middle" x="270.17" y="-119.5" font-family="Helvetica,sans-Serif" font-size="10.00">IMemory.hpp</text>
</a>
</g>
</g>
<!-- Node9&#45;&gt;Node16 -->
<g id="edge17" class="edge">
<title>Node9&#45;&gt;Node16</title>
<path fill="none" stroke="midnightblue" d="M240.12,-168.08C245.15,-160.53 252.51,-149.49 258.68,-140.23"/>
<polygon fill="midnightblue" stroke="midnightblue" points="261.7,-142.01 264.34,-131.75 255.88,-138.13 261.7,-142.01"/>
</g>
<!-- Node13 -->
<g id="node13" class="node">
<title>Node13</title>
<g id="a_node13"><a xlink:title=" ">
<polygon fill="white" stroke="#bfbfbf" points="404.17,-0.5 404.17,-19.5 466.17,-19.5 466.17,-0.5 404.17,-0.5"/>
<text text-anchor="middle" x="435.17" y="-7.5" font-family="Helvetica,sans-Serif" font-size="10.00">cinttypes</text>
</a>
</g>
</g>
<!-- Node12&#45;&gt;Node13 -->
<g id="edge14" class="edge">
<title>Node12&#45;&gt;Node13</title>
<path fill="none" stroke="midnightblue" d="M467.73,-56.08C462.22,-48.46 454.14,-37.26 447.41,-27.94"/>
<polygon fill="midnightblue" stroke="midnightblue" points="450.18,-25.81 441.49,-19.75 444.51,-29.91 450.18,-25.81"/>
</g>
<!-- Node14 -->
<g id="node14" class="node">
<title>Node14</title>
<g id="a_node14"><a xlink:title=" ">
<polygon fill="white" stroke="#bfbfbf" points="484.17,-0.5 484.17,-19.5 544.17,-19.5 544.17,-0.5 484.17,-0.5"/>
<text text-anchor="middle" x="514.17" y="-7.5" font-family="Helvetica,sans-Serif" font-size="10.00">iostream</text>
</a>
</g>
</g>
<!-- Node12&#45;&gt;Node14 -->
<g id="edge15" class="edge">
<title>Node12&#45;&gt;Node14</title>
<path fill="none" stroke="midnightblue" d="M480.78,-56.08C486.43,-48.46 494.72,-37.26 501.62,-27.94"/>
<polygon fill="midnightblue" stroke="midnightblue" points="504.55,-29.87 507.69,-19.75 498.92,-25.7 504.55,-29.87"/>
</g>
<!-- Node16&#45;&gt;Node4 -->
<g id="edge18" class="edge">
<title>Node16&#45;&gt;Node4</title>
<path fill="none" stroke="midnightblue" d="M229.98,-113.03C189.51,-104.88 125.05,-91.52 60.35,-76.2"/>
<polygon fill="midnightblue" stroke="midnightblue" points="60.93,-72.74 50.39,-73.82 59.3,-79.55 60.93,-72.74"/>
</g>
<!-- Node16&#45;&gt;Node7 -->
<g id="edge21" class="edge">
<title>Node16&#45;&gt;Node7</title>
<path fill="none" stroke="midnightblue" d="M241.65,-112.44C209.13,-102.69 156.09,-86.78 122.18,-76.6"/>
<polygon fill="midnightblue" stroke="midnightblue" points="122.9,-73.17 112.32,-73.64 120.89,-79.87 122.9,-73.17"/>
</g>
<!-- Node16&#45;&gt;Node10 -->
<g id="edge19" class="edge">
<title>Node16&#45;&gt;Node10</title>
<path fill="none" stroke="midnightblue" d="M276.61,-112.08C282.12,-104.46 290.2,-93.26 296.94,-83.94"/>
<polygon fill="midnightblue" stroke="midnightblue" points="299.83,-85.91 302.85,-75.75 294.16,-81.81 299.83,-85.91"/>
</g>
<!-- Node16&#45;&gt;Node11 -->
<g id="edge20" class="edge">
<title>Node16&#45;&gt;Node11</title>
<path fill="none" stroke="midnightblue" d="M287.84,-112.32C305.57,-103.62 333.07,-90.12 353.46,-80.11"/>
<polygon fill="midnightblue" stroke="midnightblue" points="355.11,-83.2 362.54,-75.65 352.02,-76.92 355.11,-83.2"/>
</g>
<!-- Node16&#45;&gt;Node12 -->
<g id="edge22" class="edge">
<title>Node16&#45;&gt;Node12</title>
<path fill="none" stroke="midnightblue" d="M302.5,-112.44C337.56,-103.16 393.67,-88.31 432.14,-78.13"/>
<polygon fill="midnightblue" stroke="midnightblue" points="433.23,-81.46 442,-75.52 431.43,-74.69 433.23,-81.46"/>
</g>
<!-- Node16&#45;&gt;Node15 -->
<g id="edge23" class="edge">
<title>Node16&#45;&gt;Node15</title>
<path fill="none" stroke="midnightblue" d="M258.76,-112.32C248.06,-104.18 231.83,-91.84 219.01,-82.09"/>
<polygon fill="midnightblue" stroke="midnightblue" points="220.86,-79.1 210.79,-75.83 216.63,-84.67 220.86,-79.1"/>
</g>
</g>
</svg>
