<?xml version="1.0" encoding="UTF-8" standalone="no"?>
<!DOCTYPE svg PUBLIC "-//W3C//DTD SVG 1.1//EN"
 "http://www.w3.org/Graphics/SVG/1.1/DTD/svg11.dtd">
<!-- Generated by graphviz version 2.43.0 (0)
 -->
<!-- Title: sources/Models/Callback.hpp Pages: 1 -->
<svg width="4691pt" height="285pt"
 viewBox="0.00 0.00 4690.50 285.00" xmlns="http://www.w3.org/2000/svg" xmlns:xlink="http://www.w3.org/1999/xlink">
<g id="graph0" class="graph" transform="scale(1 1) rotate(0) translate(4 281)">
<title>sources/Models/Callback.hpp</title>
<polygon fill="white" stroke="transparent" points="-4,4 -4,-281 4686.5,-281 4686.5,4 -4,4"/>
<!-- Node1 -->
<g id="node1" class="node">
<title>Node1</title>
<g id="a_node1"><a xlink:title=" ">
<polygon fill="#bfbfbf" stroke="black" points="1818.5,-257.5 1818.5,-276.5 1976.5,-276.5 1976.5,-257.5 1818.5,-257.5"/>
<text text-anchor="middle" x="1897.5" y="-264.5" font-family="Helvetica,sans-Serif" font-size="10.00">sources/Models/Callback.hpp</text>
</a>
</g>
</g>
<!-- Node2 -->
<g id="node2" class="node">
<title>Node2</title>
<g id="a_node2"><a xlink:href="CPU_8hpp.html" target="_top" xlink:title=" ">
<polygon fill="white" stroke="black" points="1836.5,-201.5 1836.5,-220.5 1958.5,-220.5 1958.5,-201.5 1836.5,-201.5"/>
<text text-anchor="middle" x="1897.5" y="-208.5" font-family="Helvetica,sans-Serif" font-size="10.00">sources/CPU/CPU.hpp</text>
</a>
</g>
</g>
<!-- Node1&#45;&gt;Node2 -->
<g id="edge1" class="edge">
<title>Node1&#45;&gt;Node2</title>
<path fill="none" stroke="midnightblue" d="M1897.5,-246.8C1897.5,-237.91 1897.5,-227.78 1897.5,-220.75"/>
<polygon fill="midnightblue" stroke="midnightblue" points="1894,-247.08 1897.5,-257.08 1901,-247.08 1894,-247.08"/>
</g>
<!-- Node3 -->
<g id="node3" class="node">
<title>Node3</title>
<g id="a_node3"><a xlink:href="AddressingModes_8cpp.html" target="_top" xlink:title=" ">
<polygon fill="white" stroke="black" points="1175,-140 1175,-159 1362,-159 1362,-140 1175,-140"/>
<text text-anchor="middle" x="1268.5" y="-147" font-family="Helvetica,sans-Serif" font-size="10.00">sources/CPU/AddressingModes.cpp</text>
</a>
</g>
</g>
<!-- Node2&#45;&gt;Node3 -->
<g id="edge2" class="edge">
<title>Node2&#45;&gt;Node3</title>
<path fill="none" stroke="midnightblue" d="M1826,-205.17C1724.53,-198.03 1533.02,-183.48 1370.5,-165 1355.48,-163.29 1339.27,-161.13 1324.28,-159"/>
<polygon fill="midnightblue" stroke="midnightblue" points="1825.91,-208.67 1836.13,-205.88 1826.4,-201.69 1825.91,-208.67"/>
</g>
<!-- Node4 -->
<g id="node4" class="node">
<title>Node4</title>
<g id="a_node4"><a xlink:href="CPU_8cpp.html" target="_top" xlink:title=" ">
<polygon fill="white" stroke="black" points="1380,-140 1380,-159 1501,-159 1501,-140 1380,-140"/>
<text text-anchor="middle" x="1440.5" y="-147" font-family="Helvetica,sans-Serif" font-size="10.00">sources/CPU/CPU.cpp</text>
</a>
</g>
</g>
<!-- Node2&#45;&gt;Node4 -->
<g id="edge3" class="edge">
<title>Node2&#45;&gt;Node4</title>
<path fill="none" stroke="midnightblue" d="M1826.24,-203.71C1748.21,-196.37 1619.52,-182.9 1509.5,-165 1499.23,-163.33 1488.17,-161.17 1477.98,-159.03"/>
<polygon fill="midnightblue" stroke="midnightblue" points="1826.16,-207.22 1836.44,-204.66 1826.81,-200.25 1826.16,-207.22"/>
</g>
<!-- Node5 -->
<g id="node5" class="node">
<title>Node5</title>
<g id="a_node5"><a xlink:href="BitsInstructions_8cpp.html" target="_top" xlink:title=" ">
<polygon fill="white" stroke="black" points="1519,-134.5 1519,-164.5 1656,-164.5 1656,-134.5 1519,-134.5"/>
<text text-anchor="start" x="1527" y="-152.5" font-family="Helvetica,sans-Serif" font-size="10.00">sources/CPU/Instructions</text>
<text text-anchor="middle" x="1587.5" y="-141.5" font-family="Helvetica,sans-Serif" font-size="10.00">/BitsInstructions.cpp</text>
</a>
</g>
</g>
<!-- Node2&#45;&gt;Node5 -->
<g id="edge4" class="edge">
<title>Node2&#45;&gt;Node5</title>
<path fill="none" stroke="midnightblue" d="M1843.05,-199.55C1791.02,-189.56 1712.41,-174.47 1656.12,-163.67"/>
<polygon fill="midnightblue" stroke="midnightblue" points="1842.6,-203.03 1853.08,-201.48 1843.92,-196.15 1842.6,-203.03"/>
</g>
<!-- Node6 -->
<g id="node6" class="node">
<title>Node6</title>
<g id="a_node6"><a xlink:href="InternalInstruction_8cpp.html" target="_top" xlink:title=" ">
<polygon fill="white" stroke="black" points="1674,-134.5 1674,-164.5 1811,-164.5 1811,-134.5 1674,-134.5"/>
<text text-anchor="start" x="1682" y="-152.5" font-family="Helvetica,sans-Serif" font-size="10.00">sources/CPU/Instructions</text>
<text text-anchor="middle" x="1742.5" y="-141.5" font-family="Helvetica,sans-Serif" font-size="10.00">/InternalInstruction.cpp</text>
</a>
</g>
</g>
<!-- Node2&#45;&gt;Node6 -->
<g id="edge5" class="edge">
<title>Node2&#45;&gt;Node6</title>
<path fill="none" stroke="midnightblue" d="M1865.84,-197.85C1840.66,-188.18 1805.4,-174.65 1779.03,-164.52"/>
<polygon fill="midnightblue" stroke="midnightblue" points="1864.7,-201.16 1875.29,-201.48 1867.21,-194.62 1864.7,-201.16"/>
</g>
<!-- Node7 -->
<g id="node7" class="node">
<title>Node7</title>
<g id="a_node7"><a xlink:href="Interrupts_8cpp.html" target="_top" xlink:title=" ">
<polygon fill="white" stroke="black" points="1829,-134.5 1829,-164.5 1966,-164.5 1966,-134.5 1829,-134.5"/>
<text text-anchor="start" x="1837" y="-152.5" font-family="Helvetica,sans-Serif" font-size="10.00">sources/CPU/Instructions</text>
<text text-anchor="middle" x="1897.5" y="-141.5" font-family="Helvetica,sans-Serif" font-size="10.00">/Interrupts.cpp</text>
</a>
</g>
</g>
<!-- Node2&#45;&gt;Node7 -->
<g id="edge6" class="edge">
<title>Node2&#45;&gt;Node7</title>
<path fill="none" stroke="midnightblue" d="M1897.5,-191.23C1897.5,-182.59 1897.5,-172.5 1897.5,-164.52"/>
<polygon fill="midnightblue" stroke="midnightblue" points="1894,-191.48 1897.5,-201.48 1901,-191.48 1894,-191.48"/>
</g>
<!-- Node8 -->
<g id="node8" class="node">
<title>Node8</title>
<g id="a_node8"><a xlink:href="MathematicalOperations_8cpp.html" target="_top" xlink:title=" ">
<polygon fill="white" stroke="black" points="1984,-134.5 1984,-164.5 2145,-164.5 2145,-134.5 1984,-134.5"/>
<text text-anchor="start" x="1992" y="-152.5" font-family="Helvetica,sans-Serif" font-size="10.00">sources/CPU/Instructions</text>
<text text-anchor="middle" x="2064.5" y="-141.5" font-family="Helvetica,sans-Serif" font-size="10.00">/MathematicalOperations.cpp</text>
</a>
</g>
</g>
<!-- Node2&#45;&gt;Node8 -->
<g id="edge7" class="edge">
<title>Node2&#45;&gt;Node8</title>
<path fill="none" stroke="midnightblue" d="M1930.89,-198.1C1958.06,-188.42 1996.47,-174.74 2025.14,-164.52"/>
<polygon fill="midnightblue" stroke="midnightblue" points="1929.67,-194.82 1921.43,-201.48 1932.02,-201.42 1929.67,-194.82"/>
</g>
<!-- Node9 -->
<g id="node9" class="node">
<title>Node9</title>
<g id="a_node9"><a xlink:href="MemoryInstructions_8cpp.html" target="_top" xlink:title=" ">
<polygon fill="white" stroke="black" points="2163,-134.5 2163,-164.5 2300,-164.5 2300,-134.5 2163,-134.5"/>
<text text-anchor="start" x="2171" y="-152.5" font-family="Helvetica,sans-Serif" font-size="10.00">sources/CPU/Instructions</text>
<text text-anchor="middle" x="2231.5" y="-141.5" font-family="Helvetica,sans-Serif" font-size="10.00">/MemoryInstructions.cpp</text>
</a>
</g>
</g>
<!-- Node2&#45;&gt;Node9 -->
<g id="edge8" class="edge">
<title>Node2&#45;&gt;Node9</title>
<path fill="none" stroke="midnightblue" d="M1957.11,-199.69C2009.02,-190.68 2086.27,-177.16 2153.5,-165 2156.48,-164.46 2159.53,-163.91 2162.6,-163.35"/>
<polygon fill="midnightblue" stroke="midnightblue" points="1956.33,-196.27 1947.08,-201.43 1957.53,-203.17 1956.33,-196.27"/>
</g>
<!-- Node10 -->
<g id="node10" class="node">
<title>Node10</title>
<g id="a_node10"><a xlink:href="TransferRegisters_8cpp.html" target="_top" xlink:title=" ">
<polygon fill="white" stroke="black" points="2318,-134.5 2318,-164.5 2455,-164.5 2455,-134.5 2318,-134.5"/>
<text text-anchor="start" x="2326" y="-152.5" font-family="Helvetica,sans-Serif" font-size="10.00">sources/CPU/Instructions</text>
<text text-anchor="middle" x="2386.5" y="-141.5" font-family="Helvetica,sans-Serif" font-size="10.00">/TransferRegisters.cpp</text>
</a>
</g>
</g>
<!-- Node2&#45;&gt;Node10 -->
<g id="edge9" class="edge">
<title>Node2&#45;&gt;Node10</title>
<path fill="none" stroke="midnightblue" d="M1968.58,-203.84C2050.69,-196.36 2189.72,-182.52 2308.5,-165 2311.5,-164.56 2314.56,-164.08 2317.64,-163.59"/>
<polygon fill="midnightblue" stroke="midnightblue" points="1968.26,-200.36 1958.61,-204.75 1968.89,-207.33 1968.26,-200.36"/>
</g>
<!-- Node11 -->
<g id="node11" class="node">
<title>Node11</title>
<g id="a_node11"><a xlink:href="SNES_8hpp.html" target="_top" xlink:title=" ">
<polygon fill="white" stroke="black" points="2473.5,-140 2473.5,-159 2577.5,-159 2577.5,-140 2473.5,-140"/>
<text text-anchor="middle" x="2525.5" y="-147" font-family="Helvetica,sans-Serif" font-size="10.00">sources/SNES.hpp</text>
</a>
</g>
</g>
<!-- Node2&#45;&gt;Node11 -->
<g id="edge10" class="edge">
<title>Node2&#45;&gt;Node11</title>
<path fill="none" stroke="midnightblue" d="M1968.67,-207.77C2076.34,-203.64 2286.82,-192.52 2463.5,-165 2473.22,-163.49 2483.68,-161.27 2493.18,-159.03"/>
<polygon fill="midnightblue" stroke="midnightblue" points="1968.44,-204.28 1958.58,-208.15 1968.7,-211.28 1968.44,-204.28"/>
</g>
<!-- Node12 -->
<g id="node12" class="node">
<title>Node12</title>
<g id="a_node12"><a xlink:href="APUDebug_8cpp.html" target="_top" xlink:title=" ">
<polygon fill="white" stroke="black" points="0,-73 0,-92 179,-92 179,-73 0,-73"/>
<text text-anchor="middle" x="89.5" y="-80" font-family="Helvetica,sans-Serif" font-size="10.00">sources/Debugger/APUDebug.cpp</text>
</a>
</g>
</g>
<!-- Node11&#45;&gt;Node12 -->
<g id="edge11" class="edge">
<title>Node11&#45;&gt;Node12</title>
<path fill="none" stroke="midnightblue" d="M2484.75,-137.67C2477.71,-136.17 2470.43,-134.86 2463.5,-134 1961.47,-72.05 691.67,-139.11 187.5,-98 171.47,-96.69 154.08,-94.41 138.46,-92.03"/>
<polygon fill="midnightblue" stroke="midnightblue" points="2484.3,-141.15 2494.83,-139.96 2485.85,-134.33 2484.3,-141.15"/>
</g>
<!-- Node13 -->
<g id="node13" class="node">
<title>Node13</title>
<g id="a_node13"><a xlink:href="CGramDebug_8cpp.html" target="_top" xlink:title=" ">
<polygon fill="white" stroke="black" points="197,-73 197,-92 390,-92 390,-73 197,-73"/>
<text text-anchor="middle" x="293.5" y="-80" font-family="Helvetica,sans-Serif" font-size="10.00">sources/Debugger/CGramDebug.cpp</text>
</a>
</g>
</g>
<!-- Node11&#45;&gt;Node13 -->
<g id="edge12" class="edge">
<title>Node11&#45;&gt;Node13</title>
<path fill="none" stroke="midnightblue" d="M2484.75,-137.68C2477.71,-136.18 2470.43,-134.86 2463.5,-134 2008.26,-77.45 856.89,-133.15 399.5,-98 382.18,-96.67 363.38,-94.38 346.48,-92"/>
<polygon fill="midnightblue" stroke="midnightblue" points="2484.3,-141.16 2494.83,-139.97 2485.85,-134.34 2484.3,-141.16"/>
</g>
<!-- Node14 -->
<g id="node14" class="node">
<title>Node14</title>
<g id="a_node14"><a xlink:href="CPUDebug_8cpp.html" target="_top" xlink:title=" ">
<polygon fill="white" stroke="black" points="408.5,-67.5 408.5,-97.5 536.5,-97.5 536.5,-67.5 408.5,-67.5"/>
<text text-anchor="start" x="416.5" y="-85.5" font-family="Helvetica,sans-Serif" font-size="10.00">sources/Debugger/CPU</text>
<text text-anchor="middle" x="472.5" y="-74.5" font-family="Helvetica,sans-Serif" font-size="10.00">/CPUDebug.cpp</text>
</a>
</g>
</g>
<!-- Node11&#45;&gt;Node14 -->
<g id="edge13" class="edge">
<title>Node11&#45;&gt;Node14</title>
<path fill="none" stroke="midnightblue" d="M2484.75,-137.69C2477.71,-136.19 2470.43,-134.87 2463.5,-134 2040.49,-81.17 969.34,-143.71 545.5,-98 542.67,-97.7 539.79,-97.34 536.89,-96.93"/>
<polygon fill="midnightblue" stroke="midnightblue" points="2484.3,-141.17 2494.83,-139.98 2485.85,-134.35 2484.3,-141.17"/>
</g>
<!-- Node15 -->
<g id="node15" class="node">
<title>Node15</title>
<g id="a_node15"><a xlink:href="Disassembly_8cpp.html" target="_top" xlink:title=" ">
<polygon fill="white" stroke="black" points="554.5,-67.5 554.5,-97.5 682.5,-97.5 682.5,-67.5 554.5,-67.5"/>
<text text-anchor="start" x="562.5" y="-85.5" font-family="Helvetica,sans-Serif" font-size="10.00">sources/Debugger/CPU</text>
<text text-anchor="middle" x="618.5" y="-74.5" font-family="Helvetica,sans-Serif" font-size="10.00">/Disassembly.cpp</text>
</a>
</g>
</g>
<!-- Node11&#45;&gt;Node15 -->
<g id="edge14" class="edge">
<title>Node11&#45;&gt;Node15</title>
<path fill="none" stroke="midnightblue" d="M2484.75,-137.69C2477.71,-136.19 2470.43,-134.87 2463.5,-134 1681.93,-35.77 1474.61,-183.06 691.5,-98 688.67,-97.69 685.79,-97.33 682.89,-96.93"/>
<polygon fill="midnightblue" stroke="midnightblue" points="2484.3,-141.18 2494.82,-139.99 2485.85,-134.35 2484.3,-141.18"/>
</g>
<!-- Node16 -->
<g id="node16" class="node">
<title>Node16</title>
<g id="a_node16"><a xlink:href="HeaderViewer_8cpp.html" target="_top" xlink:title=" ">
<polygon fill="white" stroke="black" points="700.5,-73 700.5,-92 896.5,-92 896.5,-73 700.5,-73"/>
<text text-anchor="middle" x="798.5" y="-80" font-family="Helvetica,sans-Serif" font-size="10.00">sources/Debugger/HeaderViewer.cpp</text>
</a>
</g>
</g>
<!-- Node11&#45;&gt;Node16 -->
<g id="edge15" class="edge">
<title>Node11&#45;&gt;Node16</title>
<path fill="none" stroke="midnightblue" d="M2484.52,-137.66C2477.55,-136.18 2470.35,-134.87 2463.5,-134 2119.95,-90.33 1250.74,-125.3 905.5,-98 888.21,-96.63 869.45,-94.36 852.53,-92.02"/>
<polygon fill="midnightblue" stroke="midnightblue" points="2483.98,-141.13 2494.51,-139.93 2485.53,-134.3 2483.98,-141.13"/>
</g>
<!-- Node17 -->
<g id="node17" class="node">
<title>Node17</title>
<g id="a_node17"><a xlink:href="MemoryBusDebug_8cpp.html" target="_top" xlink:title=" ">
<polygon fill="white" stroke="black" points="914.5,-67.5 914.5,-97.5 1080.5,-97.5 1080.5,-67.5 914.5,-67.5"/>
<text text-anchor="start" x="922.5" y="-85.5" font-family="Helvetica,sans-Serif" font-size="10.00">sources/Debugger/MemoryBus</text>
<text text-anchor="middle" x="997.5" y="-74.5" font-family="Helvetica,sans-Serif" font-size="10.00">Debug.cpp</text>
</a>
</g>
</g>
<!-- Node11&#45;&gt;Node17 -->
<g id="edge16" class="edge">
<title>Node11&#45;&gt;Node17</title>
<path fill="none" stroke="midnightblue" d="M2484.52,-137.68C2477.55,-136.2 2470.35,-134.88 2463.5,-134 1857.62,-56.04 1697.83,-153.67 1089.5,-98 1086.6,-97.73 1083.66,-97.44 1080.68,-97.11"/>
<polygon fill="midnightblue" stroke="midnightblue" points="2483.98,-141.15 2494.5,-139.95 2485.53,-134.32 2483.98,-141.15"/>
</g>
<!-- Node18 -->
<g id="node18" class="node">
<title>Node18</title>
<g id="a_node18"><a xlink:href="MemoryViewer_8cpp.html" target="_top" xlink:title=" ">
<polygon fill="white" stroke="black" points="1099,-73 1099,-92 1300,-92 1300,-73 1099,-73"/>
<text text-anchor="middle" x="1199.5" y="-80" font-family="Helvetica,sans-Serif" font-size="10.00">sources/Debugger/MemoryViewer.cpp</text>
</a>
</g>
</g>
<!-- Node11&#45;&gt;Node18 -->
<g id="edge17" class="edge">
<title>Node11&#45;&gt;Node18</title>
<path fill="none" stroke="midnightblue" d="M2484.52,-137.71C2477.55,-136.22 2470.35,-134.9 2463.5,-134 1954.72,-67.24 1820.95,-139.58 1309.5,-98 1292.03,-96.58 1273.08,-94.34 1255.91,-92.04"/>
<polygon fill="midnightblue" stroke="midnightblue" points="2483.97,-141.18 2494.5,-139.98 2485.52,-134.35 2483.97,-141.18"/>
</g>
<!-- Node19 -->
<g id="node19" class="node">
<title>Node19</title>
<g id="a_node19"><a xlink:href="RegisterViewer_8cpp.html" target="_top" xlink:title=" ">
<polygon fill="white" stroke="black" points="1318.5,-67.5 1318.5,-97.5 1466.5,-97.5 1466.5,-67.5 1318.5,-67.5"/>
<text text-anchor="start" x="1326.5" y="-85.5" font-family="Helvetica,sans-Serif" font-size="10.00">sources/Debugger/Register</text>
<text text-anchor="middle" x="1392.5" y="-74.5" font-family="Helvetica,sans-Serif" font-size="10.00">Viewer.cpp</text>
</a>
</g>
</g>
<!-- Node11&#45;&gt;Node19 -->
<g id="edge18" class="edge">
<title>Node11&#45;&gt;Node19</title>
<path fill="none" stroke="midnightblue" d="M2484.29,-137.69C2477.39,-136.22 2470.27,-134.91 2463.5,-134 2027.98,-75.7 1912.5,-143.92 1475.5,-98 1472.59,-97.69 1469.63,-97.35 1466.64,-96.97"/>
<polygon fill="midnightblue" stroke="midnightblue" points="2483.65,-141.14 2494.18,-139.93 2485.2,-134.31 2483.65,-141.14"/>
</g>
<!-- Node20 -->
<g id="node20" class="node">
<title>Node20</title>
<g id="a_node20"><a xlink:href="TileViewer_8cpp.html" target="_top" xlink:title=" ">
<polygon fill="white" stroke="black" points="1485,-67.5 1485,-97.5 1644,-97.5 1644,-67.5 1485,-67.5"/>
<text text-anchor="start" x="1493" y="-85.5" font-family="Helvetica,sans-Serif" font-size="10.00">sources/Debugger/TileViewer</text>
<text text-anchor="middle" x="1564.5" y="-74.5" font-family="Helvetica,sans-Serif" font-size="10.00">/TileViewer.cpp</text>
</a>
</g>
</g>
<!-- Node11&#45;&gt;Node20 -->
<g id="edge19" class="edge">
<title>Node11&#45;&gt;Node20</title>
<path fill="none" stroke="midnightblue" d="M2484.28,-137.74C2477.38,-136.26 2470.27,-134.93 2463.5,-134 2106.08,-84.71 2011.36,-135.4 1652.5,-98 1649.73,-97.71 1646.91,-97.39 1644.07,-97.05"/>
<polygon fill="midnightblue" stroke="midnightblue" points="2483.64,-141.18 2494.17,-139.98 2485.19,-134.36 2483.64,-141.18"/>
</g>
<!-- Node21 -->
<g id="node21" class="node">
<title>Node21</title>
<g id="a_node21"><a xlink:href="main_8cpp.html" target="_top" xlink:title=" ">
<polygon fill="white" stroke="black" points="1661.5,-73 1661.5,-92 1763.5,-92 1763.5,-73 1661.5,-73"/>
<text text-anchor="middle" x="1712.5" y="-80" font-family="Helvetica,sans-Serif" font-size="10.00">sources/main.cpp</text>
</a>
</g>
</g>
<!-- Node11&#45;&gt;Node21 -->
<g id="edge20" class="edge">
<title>Node11&#45;&gt;Node21</title>
<path fill="none" stroke="midnightblue" d="M2484.05,-137.74C2477.22,-136.27 2470.19,-134.95 2463.5,-134 2159.02,-90.81 2076.82,-142.31 1772.5,-98 1762.85,-96.59 1752.48,-94.36 1743.12,-92.05"/>
<polygon fill="midnightblue" stroke="midnightblue" points="2483.32,-141.16 2493.85,-139.95 2484.87,-134.33 2483.32,-141.16"/>
</g>
<!-- Node22 -->
<g id="node22" class="node">
<title>Node22</title>
<g id="a_node22"><a xlink:href="MemoryBus_8cpp.html" target="_top" xlink:title=" ">
<polygon fill="white" stroke="black" points="1782,-73 1782,-92 1961,-92 1961,-73 1782,-73"/>
<text text-anchor="middle" x="1871.5" y="-80" font-family="Helvetica,sans-Serif" font-size="10.00">sources/Memory/MemoryBus.cpp</text>
</a>
</g>
</g>
<!-- Node11&#45;&gt;Node22 -->
<g id="edge21" class="edge">
<title>Node11&#45;&gt;Node22</title>
<path fill="none" stroke="midnightblue" d="M2483.12,-137.66C2476.58,-136.26 2469.88,-134.97 2463.5,-134 2246.32,-100.88 2188.89,-121.93 1970.5,-98 1955.65,-96.37 1939.6,-94.2 1924.84,-92.04"/>
<polygon fill="midnightblue" stroke="midnightblue" points="2482.66,-141.14 2493.19,-139.93 2484.2,-134.32 2482.66,-141.14"/>
</g>
<!-- Node23 -->
<g id="node23" class="node">
<title>Node23</title>
<g id="a_node23"><a xlink:href="QtSFML_8cpp.html" target="_top" xlink:title=" ">
<polygon fill="white" stroke="black" points="1979.5,-67.5 1979.5,-97.5 2139.5,-97.5 2139.5,-67.5 1979.5,-67.5"/>
<text text-anchor="start" x="1987.5" y="-85.5" font-family="Helvetica,sans-Serif" font-size="10.00">sources/Renderer/QtRenderer</text>
<text text-anchor="middle" x="2059.5" y="-74.5" font-family="Helvetica,sans-Serif" font-size="10.00">/QtSFML.cpp</text>
</a>
</g>
</g>
<!-- Node11&#45;&gt;Node23 -->
<g id="edge22" class="edge">
<title>Node11&#45;&gt;Node23</title>
<path fill="none" stroke="midnightblue" d="M2482.42,-137.75C2476.1,-136.37 2469.65,-135.07 2463.5,-134 2324.66,-109.91 2288.08,-117.33 2148.5,-98 2145.55,-97.59 2142.55,-97.16 2139.53,-96.72"/>
<polygon fill="midnightblue" stroke="midnightblue" points="2481.66,-141.16 2492.18,-139.96 2483.2,-134.34 2481.66,-141.16"/>
</g>
<!-- Node24 -->
<g id="node24" class="node">
<title>Node24</title>
<g id="a_node24"><a xlink:href="SFRenderer_8cpp.html" target="_top" xlink:title=" ">
<polygon fill="white" stroke="black" points="2157.5,-73 2157.5,-92 2337.5,-92 2337.5,-73 2157.5,-73"/>
<text text-anchor="middle" x="2247.5" y="-80" font-family="Helvetica,sans-Serif" font-size="10.00">sources/Renderer/SFRenderer.cpp</text>
</a>
</g>
</g>
<!-- Node11&#45;&gt;Node24 -->
<g id="edge23" class="edge">
<title>Node11&#45;&gt;Node24</title>
<path fill="none" stroke="midnightblue" d="M2479.07,-137.64C2424.3,-124.84 2334.36,-103.81 2284.21,-92.08"/>
<polygon fill="midnightblue" stroke="midnightblue" points="2478.34,-141.07 2488.87,-139.94 2479.93,-134.25 2478.34,-141.07"/>
</g>
<!-- Node25 -->
<g id="node25" class="node">
<title>Node25</title>
<g id="a_node25"><a xlink:href="SNES_8cpp.html" target="_top" xlink:title=" ">
<polygon fill="white" stroke="black" points="2356,-73 2356,-92 2459,-92 2459,-73 2356,-73"/>
<text text-anchor="middle" x="2407.5" y="-80" font-family="Helvetica,sans-Serif" font-size="10.00">sources/SNES.cpp</text>
</a>
</g>
</g>
<!-- Node11&#45;&gt;Node25 -->
<g id="edge24" class="edge">
<title>Node11&#45;&gt;Node25</title>
<path fill="none" stroke="midnightblue" d="M2500.61,-134.79C2477.22,-121.9 2442.94,-103.02 2423.16,-92.13"/>
<polygon fill="midnightblue" stroke="midnightblue" points="2499.14,-137.97 2509.59,-139.73 2502.52,-131.84 2499.14,-137.97"/>
</g>
<!-- Node26 -->
<g id="node26" class="node">
<title>Node26</title>
<g id="a_node26"><a xlink:href="testAPU_8cpp.html" target="_top" xlink:title=" ">
<polygon fill="white" stroke="black" points="1378.5,-6 1378.5,-25 1504.5,-25 1504.5,-6 1378.5,-6"/>
<text text-anchor="middle" x="1441.5" y="-13" font-family="Helvetica,sans-Serif" font-size="10.00">tests/APU/testAPU.cpp</text>
</a>
</g>
</g>
<!-- Node11&#45;&gt;Node26 -->
<g id="edge25" class="edge">
<title>Node11&#45;&gt;Node26</title>
<path fill="none" stroke="midnightblue" d="M2518.46,-130.49C2509.75,-110.95 2492.89,-80.71 2467.5,-67 2374.16,-16.61 1618.84,-43.51 1513.5,-31 1501.85,-29.62 1489.28,-27.35 1477.94,-25.02"/>
<polygon fill="midnightblue" stroke="midnightblue" points="2515.28,-131.96 2522.37,-139.83 2521.74,-129.26 2515.28,-131.96"/>
</g>
<!-- Node27 -->
<g id="node27" class="node">
<title>Node27</title>
<g id="a_node27"><a xlink:href="tests_8hpp.html" target="_top" xlink:title=" ">
<polygon fill="white" stroke="black" points="2892,-73 2892,-92 2981,-92 2981,-73 2892,-73"/>
<text text-anchor="middle" x="2936.5" y="-80" font-family="Helvetica,sans-Serif" font-size="10.00">tests/tests.hpp</text>
</a>
</g>
</g>
<!-- Node11&#45;&gt;Node27 -->
<g id="edge26" class="edge">
<title>Node11&#45;&gt;Node27</title>
<path fill="none" stroke="midnightblue" d="M2587.68,-138.67C2671.36,-125.43 2818.18,-102.21 2891.78,-90.57"/>
<polygon fill="midnightblue" stroke="midnightblue" points="2586.88,-135.25 2577.55,-140.27 2587.98,-142.16 2586.88,-135.25"/>
</g>
<!-- Node28 -->
<g id="node28" class="node">
<title>Node28</title>
<g id="a_node28"><a xlink:href="testAPUInstructions_8cpp.html" target="_top" xlink:title=" ">
<polygon fill="white" stroke="black" points="1523,-6 1523,-25 1706,-25 1706,-6 1523,-6"/>
<text text-anchor="middle" x="1614.5" y="-13" font-family="Helvetica,sans-Serif" font-size="10.00">tests/APU/testAPUInstructions.cpp</text>
</a>
</g>
</g>
<!-- Node11&#45;&gt;Node28 -->
<g id="edge47" class="edge">
<title>Node11&#45;&gt;Node28</title>
<path fill="none" stroke="midnightblue" d="M2525.78,-129.66C2524.93,-110.55 2520.33,-81.77 2501.5,-67 2432.62,-12.98 1801.64,-39.29 1714.5,-31 1698.87,-29.51 1681.95,-27.29 1666.54,-25.04"/>
<polygon fill="midnightblue" stroke="midnightblue" points="2522.28,-129.89 2525.92,-139.85 2529.28,-129.8 2522.28,-129.89"/>
</g>
<!-- Node29 -->
<g id="node29" class="node">
<title>Node29</title>
<g id="a_node29"><a xlink:href="testOperand_8cpp.html" target="_top" xlink:title=" ">
<polygon fill="white" stroke="black" points="1724,-6 1724,-25 1871,-25 1871,-6 1724,-6"/>
<text text-anchor="middle" x="1797.5" y="-13" font-family="Helvetica,sans-Serif" font-size="10.00">tests/APU/testOperand.cpp</text>
</a>
</g>
</g>
<!-- Node11&#45;&gt;Node29 -->
<g id="edge48" class="edge">
<title>Node11&#45;&gt;Node29</title>
<path fill="none" stroke="midnightblue" d="M2535.97,-130.98C2545.44,-112.59 2555.65,-84.05 2539.5,-67 2489,-13.67 1952.46,-39.41 1879.5,-31 1866.57,-29.51 1852.6,-27.28 1839.92,-25"/>
<polygon fill="midnightblue" stroke="midnightblue" points="2532.88,-129.33 2531.09,-139.78 2539,-132.73 2532.88,-129.33"/>
</g>
<!-- Node30 -->
<g id="node30" class="node">
<title>Node30</title>
<g id="a_node30"><a xlink:href="testADC_8cpp.html" target="_top" xlink:title=" ">
<polygon fill="white" stroke="black" points="1889,-6 1889,-25 2044,-25 2044,-6 1889,-6"/>
<text text-anchor="middle" x="1966.5" y="-13" font-family="Helvetica,sans-Serif" font-size="10.00">tests/CPU/Math/testADC.cpp</text>
</a>
</g>
</g>
<!-- Node11&#45;&gt;Node30 -->
<g id="edge49" class="edge">
<title>Node11&#45;&gt;Node30</title>
<path fill="none" stroke="midnightblue" d="M2546.29,-133.73C2568.13,-116.48 2596.81,-87.69 2577.5,-67 2537.67,-24.34 2111.46,-37.81 2053.5,-31 2040.12,-29.43 2025.65,-27.22 2012.44,-25.01"/>
<polygon fill="midnightblue" stroke="midnightblue" points="2543.95,-131.11 2538.09,-139.94 2548.17,-136.69 2543.95,-131.11"/>
</g>
<!-- Node31 -->
<g id="node31" class="node">
<title>Node31</title>
<g id="a_node31"><a xlink:href="testCMP_8cpp.html" target="_top" xlink:title=" ">
<polygon fill="white" stroke="black" points="2062.5,-6 2062.5,-25 2216.5,-25 2216.5,-6 2062.5,-6"/>
<text text-anchor="middle" x="2139.5" y="-13" font-family="Helvetica,sans-Serif" font-size="10.00">tests/CPU/Math/testCMP.cpp</text>
</a>
</g>
</g>
<!-- Node11&#45;&gt;Node31 -->
<g id="edge50" class="edge">
<title>Node11&#45;&gt;Node31</title>
<path fill="none" stroke="midnightblue" d="M2557.59,-135.93C2592.28,-120.59 2639.58,-93.41 2615.5,-67 2586.18,-34.85 2268.65,-36.62 2225.5,-31 2212.74,-29.34 2198.97,-27.18 2186.27,-25.04"/>
<polygon fill="midnightblue" stroke="midnightblue" points="2556.04,-132.79 2548.21,-139.94 2558.78,-139.23 2556.04,-132.79"/>
</g>
<!-- Node32 -->
<g id="node32" class="node">
<title>Node32</title>
<g id="a_node32"><a xlink:href="testOthersMath_8cpp.html" target="_top" xlink:title=" ">
<polygon fill="white" stroke="black" points="2234.5,-0.5 2234.5,-30.5 2380.5,-30.5 2380.5,-0.5 2234.5,-0.5"/>
<text text-anchor="start" x="2242.5" y="-18.5" font-family="Helvetica,sans-Serif" font-size="10.00">tests/CPU/Math/testOthers</text>
<text text-anchor="middle" x="2307.5" y="-7.5" font-family="Helvetica,sans-Serif" font-size="10.00">Math.cpp</text>
</a>
</g>
</g>
<!-- Node11&#45;&gt;Node32 -->
<g id="edge51" class="edge">
<title>Node11&#45;&gt;Node32</title>
<path fill="none" stroke="midnightblue" d="M2573.55,-137.29C2620.81,-124.07 2682.05,-99.7 2653.5,-67 2614.56,-22.39 2448,-40.16 2389.5,-31 2386.64,-30.55 2383.73,-30.09 2380.79,-29.61"/>
<polygon fill="midnightblue" stroke="midnightblue" points="2572.46,-133.96 2563.71,-139.94 2574.28,-140.72 2572.46,-133.96"/>
</g>
<!-- Node33 -->
<g id="node33" class="node">
<title>Node33</title>
<g id="a_node33"><a xlink:href="testSBC_8cpp.html" target="_top" xlink:title=" ">
<polygon fill="white" stroke="black" points="2399,-6 2399,-25 2552,-25 2552,-6 2399,-6"/>
<text text-anchor="middle" x="2475.5" y="-13" font-family="Helvetica,sans-Serif" font-size="10.00">tests/CPU/Math/testSBC.cpp</text>
</a>
</g>
</g>
<!-- Node11&#45;&gt;Node33 -->
<g id="edge52" class="edge">
<title>Node11&#45;&gt;Node33</title>
<path fill="none" stroke="midnightblue" d="M2587.85,-140.34C2647.55,-129.91 2724.08,-108.08 2691.5,-67 2681.19,-54.01 2586.97,-35.64 2526.42,-25.01"/>
<polygon fill="midnightblue" stroke="midnightblue" points="2586.97,-136.94 2577.68,-142.03 2588.12,-143.84 2586.97,-136.94"/>
</g>
<!-- Node34 -->
<g id="node34" class="node">
<title>Node34</title>
<g id="a_node34"><a xlink:href="testAddressingMode_8cpp.html" target="_top" xlink:title=" ">
<polygon fill="white" stroke="black" points="2570.5,-0.5 2570.5,-30.5 2710.5,-30.5 2710.5,-0.5 2570.5,-0.5"/>
<text text-anchor="start" x="2578.5" y="-18.5" font-family="Helvetica,sans-Serif" font-size="10.00">tests/CPU/testAddressing</text>
<text text-anchor="middle" x="2640.5" y="-7.5" font-family="Helvetica,sans-Serif" font-size="10.00">Mode.cpp</text>
</a>
</g>
</g>
<!-- Node11&#45;&gt;Node34 -->
<g id="edge53" class="edge">
<title>Node11&#45;&gt;Node34</title>
<path fill="none" stroke="midnightblue" d="M2587.75,-139.6C2635.11,-131.41 2694.59,-117.55 2709.5,-98 2728.16,-73.53 2693.61,-46.52 2667.01,-30.56"/>
<polygon fill="midnightblue" stroke="midnightblue" points="2587.14,-136.16 2577.85,-141.26 2588.3,-143.06 2587.14,-136.16"/>
</g>
<!-- Node35 -->
<g id="node35" class="node">
<title>Node35</title>
<g id="a_node35"><a xlink:href="testBits_8cpp.html" target="_top" xlink:title=" ">
<polygon fill="white" stroke="black" points="2729,-6 2729,-25 2854,-25 2854,-6 2729,-6"/>
<text text-anchor="middle" x="2791.5" y="-13" font-family="Helvetica,sans-Serif" font-size="10.00">tests/CPU/testBits.cpp</text>
</a>
</g>
</g>
<!-- Node11&#45;&gt;Node35 -->
<g id="edge54" class="edge">
<title>Node11&#45;&gt;Node35</title>
<path fill="none" stroke="midnightblue" d="M2587.95,-143.29C2629.88,-137.38 2684.85,-124.8 2726.5,-98 2756.02,-79 2778.13,-41.99 2787.1,-25.18"/>
<polygon fill="midnightblue" stroke="midnightblue" points="2587.32,-139.84 2577.86,-144.61 2588.23,-146.78 2587.32,-139.84"/>
</g>
<!-- Node38 -->
<g id="node38" class="node">
<title>Node38</title>
<g id="a_node38"><a xlink:href="testInterupts_8cpp.html" target="_top" xlink:title=" ">
<polygon fill="white" stroke="black" points="3528,-6 3528,-25 3677,-25 3677,-6 3528,-6"/>
<text text-anchor="middle" x="3602.5" y="-13" font-family="Helvetica,sans-Serif" font-size="10.00">tests/CPU/testInterupts.cpp</text>
</a>
</g>
</g>
<!-- Node11&#45;&gt;Node38 -->
<g id="edge55" class="edge">
<title>Node11&#45;&gt;Node38</title>
<path fill="none" stroke="midnightblue" d="M2587.99,-142.45C2744.89,-126.97 3167.94,-83.43 3518.5,-31 3530.5,-29.21 3543.43,-27.07 3555.47,-25"/>
<polygon fill="midnightblue" stroke="midnightblue" points="2587.21,-139.01 2577.6,-143.47 2587.9,-145.98 2587.21,-139.01"/>
</g>
<!-- Node39 -->
<g id="node39" class="node">
<title>Node39</title>
<g id="a_node39"><a xlink:href="testStore_8cpp.html" target="_top" xlink:title=" ">
<polygon fill="white" stroke="black" points="3695,-6 3695,-25 3826,-25 3826,-6 3695,-6"/>
<text text-anchor="middle" x="3760.5" y="-13" font-family="Helvetica,sans-Serif" font-size="10.00">tests/CPU/testStore.cpp</text>
</a>
</g>
</g>
<!-- Node11&#45;&gt;Node39 -->
<g id="edge56" class="edge">
<title>Node11&#45;&gt;Node39</title>
<path fill="none" stroke="midnightblue" d="M2587.5,-144.66C2761.47,-133.37 3268.68,-96.83 3685.5,-31 3696.37,-29.28 3708.08,-27.15 3718.94,-25.06"/>
<polygon fill="midnightblue" stroke="midnightblue" points="2587.26,-141.17 2577.51,-145.31 2587.71,-148.16 2587.26,-141.17"/>
</g>
<!-- Node40 -->
<g id="node40" class="node">
<title>Node40</title>
<g id="a_node40"><a xlink:href="testTransfers_8cpp.html" target="_top" xlink:title=" ">
<polygon fill="white" stroke="black" points="3844.5,-6 3844.5,-25 3994.5,-25 3994.5,-6 3844.5,-6"/>
<text text-anchor="middle" x="3919.5" y="-13" font-family="Helvetica,sans-Serif" font-size="10.00">tests/CPU/testTransfers.cpp</text>
</a>
</g>
</g>
<!-- Node11&#45;&gt;Node40 -->
<g id="edge57" class="edge">
<title>Node11&#45;&gt;Node40</title>
<path fill="none" stroke="midnightblue" d="M2588.29,-145.72C2720.7,-139.57 3038.17,-123.33 3303.5,-98 3540.29,-75.4 3599.2,-65.9 3834.5,-31 3846.49,-29.22 3859.41,-27.12 3871.46,-25.07"/>
<polygon fill="midnightblue" stroke="midnightblue" points="2587.78,-142.24 2577.95,-146.2 2588.1,-149.23 2587.78,-142.24"/>
</g>
<!-- Node41 -->
<g id="node41" class="node">
<title>Node41</title>
<g id="a_node41"><a xlink:href="testBackground_8cpp.html" target="_top" xlink:title=" ">
<polygon fill="white" stroke="black" points="4013,-6 4013,-25 4176,-25 4176,-6 4013,-6"/>
<text text-anchor="middle" x="4094.5" y="-13" font-family="Helvetica,sans-Serif" font-size="10.00">tests/PPU/testBackground.cpp</text>
</a>
</g>
</g>
<!-- Node11&#45;&gt;Node41 -->
<g id="edge58" class="edge">
<title>Node11&#45;&gt;Node41</title>
<path fill="none" stroke="midnightblue" d="M2587.88,-146.57C2737.68,-141.6 3129.5,-126.75 3455.5,-98 3699.92,-76.45 3760.53,-65.2 4003.5,-31 4016.33,-29.19 4030.15,-27.08 4043.05,-25.03"/>
<polygon fill="midnightblue" stroke="midnightblue" points="2587.39,-143.08 2577.51,-146.91 2587.62,-150.08 2587.39,-143.08"/>
</g>
<!-- Node42 -->
<g id="node42" class="node">
<title>Node42</title>
<g id="a_node42"><a xlink:href="testPpuRead_8cpp.html" target="_top" xlink:title=" ">
<polygon fill="white" stroke="black" points="4194.5,-6 4194.5,-25 4342.5,-25 4342.5,-6 4194.5,-6"/>
<text text-anchor="middle" x="4268.5" y="-13" font-family="Helvetica,sans-Serif" font-size="10.00">tests/PPU/testPpuRead.cpp</text>
</a>
</g>
</g>
<!-- Node11&#45;&gt;Node42 -->
<g id="edge59" class="edge">
<title>Node11&#45;&gt;Node42</title>
<path fill="none" stroke="midnightblue" d="M2587.62,-147.13C2753.86,-143.14 3222.71,-129.73 3611.5,-98 3867.05,-77.14 3930.74,-67.71 4184.5,-31 4196.66,-29.24 4209.76,-27.1 4221.92,-25.01"/>
<polygon fill="midnightblue" stroke="midnightblue" points="2587.49,-143.63 2577.58,-147.37 2587.66,-150.63 2587.49,-143.63"/>
</g>
<!-- Node43 -->
<g id="node43" class="node">
<title>Node43</title>
<g id="a_node43"><a xlink:href="testPpuWrite_8cpp.html" target="_top" xlink:title=" ">
<polygon fill="white" stroke="black" points="4361,-6 4361,-25 4510,-25 4510,-6 4361,-6"/>
<text text-anchor="middle" x="4435.5" y="-13" font-family="Helvetica,sans-Serif" font-size="10.00">tests/PPU/testPpuWrite.cpp</text>
</a>
</g>
</g>
<!-- Node11&#45;&gt;Node43 -->
<g id="edge60" class="edge">
<title>Node11&#45;&gt;Node43</title>
<path fill="none" stroke="midnightblue" d="M2587.79,-147.67C2770.84,-144.88 3322.98,-133.88 3779.5,-98 4034.67,-77.95 4098.18,-67.67 4351.5,-31 4363.66,-29.24 4376.76,-27.1 4388.92,-25"/>
<polygon fill="midnightblue" stroke="midnightblue" points="2587.49,-144.18 2577.55,-147.83 2587.6,-151.18 2587.49,-144.18"/>
</g>
<!-- Node44 -->
<g id="node44" class="node">
<title>Node44</title>
<g id="a_node44"><a xlink:href="testPpuWriteFromVmain_8cpp.html" target="_top" xlink:title=" ">
<polygon fill="white" stroke="black" points="4528.5,-0.5 4528.5,-30.5 4682.5,-30.5 4682.5,-0.5 4528.5,-0.5"/>
<text text-anchor="start" x="4536.5" y="-18.5" font-family="Helvetica,sans-Serif" font-size="10.00">tests/PPU/testPpuWriteFrom</text>
<text text-anchor="middle" x="4605.5" y="-7.5" font-family="Helvetica,sans-Serif" font-size="10.00">Vmain.cpp</text>
</a>
</g>
</g>
<!-- Node11&#45;&gt;Node44 -->
<g id="edge61" class="edge">
<title>Node11&#45;&gt;Node44</title>
<path fill="none" stroke="midnightblue" d="M2587.98,-148.11C2787.2,-146.5 3425.23,-138.29 3951.5,-98 4204.95,-78.6 4267.87,-67.03 4519.5,-31 4522.35,-30.59 4525.25,-30.17 4528.17,-29.72"/>
<polygon fill="midnightblue" stroke="midnightblue" points="2587.68,-144.62 2577.71,-148.2 2587.73,-151.62 2587.68,-144.62"/>
</g>
<!-- Node27&#45;&gt;Node26 -->
<g id="edge27" class="edge">
<title>Node27&#45;&gt;Node26</title>
<path fill="none" stroke="midnightblue" d="M2881.77,-79.68C2624.68,-71.11 1548.08,-35.07 1513.5,-31 1501.85,-29.63 1489.27,-27.37 1477.94,-25.04"/>
<polygon fill="midnightblue" stroke="midnightblue" points="2881.87,-83.18 2891.98,-80.02 2882.1,-76.19 2881.87,-83.18"/>
</g>
<!-- Node27&#45;&gt;Node28 -->
<g id="edge28" class="edge">
<title>Node27&#45;&gt;Node28</title>
<path fill="none" stroke="midnightblue" d="M2881.7,-79.39C2651.67,-70.53 1773.26,-36.46 1714.5,-31 1698.69,-29.53 1681.56,-27.29 1666.02,-25"/>
<polygon fill="midnightblue" stroke="midnightblue" points="2881.72,-82.9 2891.84,-79.78 2881.99,-75.9 2881.72,-82.9"/>
</g>
<!-- Node27&#45;&gt;Node29 -->
<g id="edge29" class="edge">
<title>Node27&#45;&gt;Node29</title>
<path fill="none" stroke="midnightblue" d="M2881.73,-79.29C2679.21,-71.08 1979.27,-42.16 1879.5,-31 1866.57,-29.55 1852.6,-27.33 1839.91,-25.06"/>
<polygon fill="midnightblue" stroke="midnightblue" points="2881.7,-82.79 2891.84,-79.7 2881.99,-75.8 2881.7,-82.79"/>
</g>
<!-- Node27&#45;&gt;Node30 -->
<g id="edge30" class="edge">
<title>Node27&#45;&gt;Node30</title>
<path fill="none" stroke="midnightblue" d="M2881.98,-79.16C2715.52,-71.88 2215.4,-49.07 2053.5,-31 2039.96,-29.49 2025.31,-27.28 2011.97,-25.03"/>
<polygon fill="midnightblue" stroke="midnightblue" points="2881.85,-82.65 2891.99,-79.59 2882.15,-75.66 2881.85,-82.65"/>
</g>
<!-- Node27&#45;&gt;Node31 -->
<g id="edge31" class="edge">
<title>Node27&#45;&gt;Node31</title>
<path fill="none" stroke="midnightblue" d="M2881.43,-78.28C2737.49,-69.74 2352.42,-46.17 2225.5,-31 2212.42,-29.44 2198.3,-27.26 2185.35,-25.07"/>
<polygon fill="midnightblue" stroke="midnightblue" points="2881.59,-81.79 2891.78,-78.89 2882,-74.8 2881.59,-81.79"/>
</g>
<!-- Node27&#45;&gt;Node32 -->
<g id="edge32" class="edge">
<title>Node27&#45;&gt;Node32</title>
<path fill="none" stroke="midnightblue" d="M2881.65,-77.95C2782.92,-71.22 2568.88,-55.1 2389.5,-31 2386.63,-30.62 2383.72,-30.2 2380.77,-29.77"/>
<polygon fill="midnightblue" stroke="midnightblue" points="2881.48,-81.44 2891.69,-78.63 2881.95,-74.46 2881.48,-81.44"/>
</g>
<!-- Node27&#45;&gt;Node33 -->
<g id="edge33" class="edge">
<title>Node27&#45;&gt;Node33</title>
<path fill="none" stroke="midnightblue" d="M2881.64,-74.69C2808.51,-65.48 2675.1,-48.22 2561.5,-31 2549.52,-29.18 2536.63,-27.09 2524.57,-25.06"/>
<polygon fill="midnightblue" stroke="midnightblue" points="2881.62,-78.22 2891.98,-75.99 2882.5,-71.27 2881.62,-78.22"/>
</g>
<!-- Node27&#45;&gt;Node34 -->
<g id="edge34" class="edge">
<title>Node27&#45;&gt;Node34</title>
<path fill="none" stroke="midnightblue" d="M2887.57,-70.75C2837.5,-59.76 2759.47,-42.63 2704.52,-30.56"/>
<polygon fill="midnightblue" stroke="midnightblue" points="2886.98,-74.21 2897.5,-72.94 2888.48,-67.37 2886.98,-74.21"/>
</g>
<!-- Node27&#45;&gt;Node35 -->
<g id="edge35" class="edge">
<title>Node27&#45;&gt;Node35</title>
<path fill="none" stroke="midnightblue" d="M2907.75,-68.61C2879.03,-55.74 2835.68,-36.31 2810.83,-25.17"/>
<polygon fill="midnightblue" stroke="midnightblue" points="2906.69,-71.97 2917.25,-72.87 2909.55,-65.58 2906.69,-71.97"/>
</g>
<!-- Node36 -->
<g id="node36" class="node">
<title>Node36</title>
<g id="a_node36"><a xlink:href="testDMA_8cpp.html" target="_top" xlink:title=" ">
<polygon fill="white" stroke="black" points="2872,-6 2872,-25 3001,-25 3001,-6 2872,-6"/>
<text text-anchor="middle" x="2936.5" y="-13" font-family="Helvetica,sans-Serif" font-size="10.00">tests/CPU/testDMA.cpp</text>
</a>
</g>
</g>
<!-- Node27&#45;&gt;Node36 -->
<g id="edge36" class="edge">
<title>Node27&#45;&gt;Node36</title>
<path fill="none" stroke="midnightblue" d="M2936.5,-62.54C2936.5,-50.17 2936.5,-34.62 2936.5,-25.13"/>
<polygon fill="midnightblue" stroke="midnightblue" points="2933,-62.73 2936.5,-72.73 2940,-62.73 2933,-62.73"/>
</g>
<!-- Node37 -->
<g id="node37" class="node">
<title>Node37</title>
<g id="a_node37"><a xlink:href="testInternal_8cpp.html" target="_top" xlink:title=" ">
<polygon fill="white" stroke="black" points="3019,-6 3019,-25 3162,-25 3162,-6 3019,-6"/>
<text text-anchor="middle" x="3090.5" y="-13" font-family="Helvetica,sans-Serif" font-size="10.00">tests/CPU/testInternal.cpp</text>
</a>
</g>
</g>
<!-- Node27&#45;&gt;Node37 -->
<g id="edge37" class="edge">
<title>Node27&#45;&gt;Node37</title>
<path fill="none" stroke="midnightblue" d="M2966.24,-68.95C2996.73,-56.08 3043.34,-36.4 3069.97,-25.17"/>
<polygon fill="midnightblue" stroke="midnightblue" points="2964.8,-65.76 2956.95,-72.87 2967.52,-72.2 2964.8,-65.76"/>
</g>
<!-- Node27&#45;&gt;Node38 -->
<g id="edge38" class="edge">
<title>Node27&#45;&gt;Node38</title>
<path fill="none" stroke="midnightblue" d="M2991.37,-78.29C3094.78,-71.89 3325.47,-55.99 3518.5,-31 3531.12,-29.37 3544.74,-27.19 3557.27,-25.03"/>
<polygon fill="midnightblue" stroke="midnightblue" points="2990.94,-74.81 2981.18,-78.91 2991.37,-81.79 2990.94,-74.81"/>
</g>
<!-- Node27&#45;&gt;Node39 -->
<g id="edge39" class="edge">
<title>Node27&#45;&gt;Node39</title>
<path fill="none" stroke="midnightblue" d="M2991.38,-80.12C3115.5,-76.5 3427.11,-64.56 3685.5,-31 3697.2,-29.48 3709.84,-27.26 3721.33,-25.02"/>
<polygon fill="midnightblue" stroke="midnightblue" points="2990.91,-76.63 2981.01,-80.42 2991.1,-83.63 2990.91,-76.63"/>
</g>
<!-- Node27&#45;&gt;Node40 -->
<g id="edge40" class="edge">
<title>Node27&#45;&gt;Node40</title>
<path fill="none" stroke="midnightblue" d="M2991.11,-80.57C3131.48,-77.72 3516.24,-66.98 3834.5,-31 3847.74,-29.5 3862.05,-27.29 3875.08,-25.05"/>
<polygon fill="midnightblue" stroke="midnightblue" points="2990.96,-77.07 2981.03,-80.77 2991.1,-84.07 2990.96,-77.07"/>
</g>
<!-- Node27&#45;&gt;Node41 -->
<g id="edge41" class="edge">
<title>Node27&#45;&gt;Node41</title>
<path fill="none" stroke="midnightblue" d="M2991.49,-81.04C3149.34,-79.27 3617.37,-70.78 4003.5,-31 4017.82,-29.52 4033.32,-27.29 4047.4,-25.02"/>
<polygon fill="midnightblue" stroke="midnightblue" points="2991.06,-77.55 2981.1,-81.15 2991.14,-84.55 2991.06,-77.55"/>
</g>
<!-- Node27&#45;&gt;Node42 -->
<g id="edge42" class="edge">
<title>Node27&#45;&gt;Node42</title>
<path fill="none" stroke="midnightblue" d="M2991.37,-81.83C3166.12,-82.33 3725.15,-79.73 4184.5,-31 4197.89,-29.58 4212.38,-27.34 4225.49,-25.04"/>
<polygon fill="midnightblue" stroke="midnightblue" points="2991.16,-78.33 2981.15,-81.79 2991.13,-85.33 2991.16,-78.33"/>
</g>
<!-- Node27&#45;&gt;Node43 -->
<g id="edge43" class="edge">
<title>Node27&#45;&gt;Node43</title>
<path fill="none" stroke="midnightblue" d="M2991.59,-80.53C3218.37,-76.39 4080.58,-59.09 4351.5,-31 4364.9,-29.61 4379.38,-27.38 4392.49,-25.08"/>
<polygon fill="midnightblue" stroke="midnightblue" points="2991.21,-77.04 2981.27,-80.72 2991.33,-84.04 2991.21,-77.04"/>
</g>
<!-- Node27&#45;&gt;Node44 -->
<g id="edge44" class="edge">
<title>Node27&#45;&gt;Node44</title>
<path fill="none" stroke="midnightblue" d="M2991.61,-80.74C3234.83,-77.25 4213.67,-61.52 4519.5,-31 4522.36,-30.71 4525.27,-30.39 4528.21,-30.04"/>
<polygon fill="midnightblue" stroke="midnightblue" points="2991.2,-77.25 2981.25,-80.89 2991.3,-84.25 2991.2,-77.25"/>
</g>
<!-- Node45 -->
<g id="node45" class="node">
<title>Node45</title>
<g id="a_node45"><a xlink:href="testMemoryBus_8cpp.html" target="_top" xlink:title=" ">
<polygon fill="white" stroke="black" points="3180,-6 3180,-25 3321,-25 3321,-6 3180,-6"/>
<text text-anchor="middle" x="3250.5" y="-13" font-family="Helvetica,sans-Serif" font-size="10.00">tests/testMemoryBus.cpp</text>
</a>
</g>
</g>
<!-- Node27&#45;&gt;Node45 -->
<g id="edge45" class="edge">
<title>Node27&#45;&gt;Node45</title>
<path fill="none" stroke="midnightblue" d="M2987.79,-70.88C3049.54,-58.1 3152.04,-36.88 3209.04,-25.08"/>
<polygon fill="midnightblue" stroke="midnightblue" points="2986.96,-67.48 2977.87,-72.94 2988.37,-74.34 2986.96,-67.48"/>
</g>
<!-- Node46 -->
<g id="node46" class="node">
<title>Node46</title>
<g id="a_node46"><a xlink:href="testRectangleMemory_8cpp.html" target="_top" xlink:title=" ">
<polygon fill="white" stroke="black" points="3339.5,-6 3339.5,-25 3509.5,-25 3509.5,-6 3339.5,-6"/>
<text text-anchor="middle" x="3424.5" y="-13" font-family="Helvetica,sans-Serif" font-size="10.00">tests/testRectangleMemory.cpp</text>
</a>
</g>
</g>
<!-- Node27&#45;&gt;Node46 -->
<g id="edge46" class="edge">
<title>Node27&#45;&gt;Node46</title>
<path fill="none" stroke="midnightblue" d="M2991.32,-74.87C3067.33,-65.59 3208.98,-47.94 3329.5,-31 3342.72,-29.14 3356.95,-27.03 3370.28,-25"/>
<polygon fill="midnightblue" stroke="midnightblue" points="2990.55,-71.44 2981.04,-76.12 2991.39,-78.39 2990.55,-71.44"/>
</g>
</g>
</svg>
