<?xml version="1.0" encoding="UTF-8" standalone="no"?>
<!DOCTYPE svg PUBLIC "-//W3C//DTD SVG 1.1//EN"
 "http://www.w3.org/Graphics/SVG/1.1/DTD/svg11.dtd">
<!-- Generated by graphviz version 2.43.0 (0)
 -->
<!-- Title: sources/Cartridge/Cartridge.hpp Pages: 1 -->
<svg width="760pt" height="308pt"
 viewBox="0.00 0.00 760.00 308.00" xmlns="http://www.w3.org/2000/svg" xmlns:xlink="http://www.w3.org/1999/xlink">
<g id="graph0" class="graph" transform="scale(1 1) rotate(0) translate(4 304)">
<title>sources/Cartridge/Cartridge.hpp</title>
<polygon fill="white" stroke="transparent" points="-4,4 -4,-304 756,-304 756,4 -4,4"/>
<!-- Node1 -->
<g id="node1" class="node">
<title>Node1</title>
<g id="a_node1"><a xlink:title=" ">
<polygon fill="#bfbfbf" stroke="black" points="344.5,-280.5 344.5,-299.5 515.5,-299.5 515.5,-280.5 344.5,-280.5"/>
<text text-anchor="middle" x="430" y="-287.5" font-family="Helvetica,sans-Serif" font-size="10.00">sources/Cartridge/Cartridge.hpp</text>
</a>
</g>
</g>
<!-- Node2 -->
<g id="node2" class="node">
<title>Node2</title>
<g id="a_node2"><a xlink:href="InterruptVectors_8hpp.html" target="_top" xlink:title=" ">
<polygon fill="white" stroke="black" points="0,-112.5 0,-131.5 116,-131.5 116,-112.5 0,-112.5"/>
<text text-anchor="middle" x="58" y="-119.5" font-family="Helvetica,sans-Serif" font-size="10.00">InterruptVectors.hpp</text>
</a>
</g>
</g>
<!-- Node1&#45;&gt;Node2 -->
<g id="edge1" class="edge">
<title>Node1&#45;&gt;Node2</title>
<path fill="none" stroke="midnightblue" d="M344.41,-284.28C268.38,-278.64 164.16,-266.94 130,-244 93.08,-219.2 72.27,-168.54 63.32,-141.3"/>
<polygon fill="midnightblue" stroke="midnightblue" points="66.59,-140.02 60.29,-131.5 59.9,-142.09 66.59,-140.02"/>
</g>
<!-- Node4 -->
<g id="node4" class="node">
<title>Node4</title>
<g id="a_node4"><a xlink:href="AMemory_8hpp.html" target="_top" xlink:title=" ">
<polygon fill="white" stroke="black" points="366.5,-168.5 366.5,-187.5 493.5,-187.5 493.5,-168.5 366.5,-168.5"/>
<text text-anchor="middle" x="430" y="-175.5" font-family="Helvetica,sans-Serif" font-size="10.00">Memory/AMemory.hpp</text>
</a>
</g>
</g>
<!-- Node1&#45;&gt;Node4 -->
<g id="edge3" class="edge">
<title>Node1&#45;&gt;Node4</title>
<path fill="none" stroke="midnightblue" d="M430,-280.37C430,-262.62 430,-221.67 430,-197.6"/>
<polygon fill="midnightblue" stroke="midnightblue" points="433.5,-197.59 430,-187.59 426.5,-197.59 433.5,-197.59"/>
</g>
<!-- Node8 -->
<g id="node8" class="node">
<title>Node8</title>
<g id="a_node8"><a xlink:title=" ">
<polygon fill="white" stroke="#bfbfbf" points="592,-56.5 592,-75.5 636,-75.5 636,-56.5 592,-56.5"/>
<text text-anchor="middle" x="614" y="-63.5" font-family="Helvetica,sans-Serif" font-size="10.00">string</text>
</a>
</g>
</g>
<!-- Node1&#45;&gt;Node8 -->
<g id="edge29" class="edge">
<title>Node1&#45;&gt;Node8</title>
<path fill="none" stroke="midnightblue" d="M513.18,-280.46C538.78,-274.03 565.15,-262.96 584,-244 626.63,-201.12 621.88,-121.58 617.07,-85.57"/>
<polygon fill="midnightblue" stroke="midnightblue" points="620.51,-84.88 615.57,-75.51 613.59,-85.92 620.51,-84.88"/>
</g>
<!-- Node9 -->
<g id="node9" class="node">
<title>Node9</title>
<g id="a_node9"><a xlink:href="Ints_8hpp.html" target="_top" xlink:title=" ">
<polygon fill="white" stroke="black" points="110,-56.5 110,-75.5 204,-75.5 204,-56.5 110,-56.5"/>
<text text-anchor="middle" x="157" y="-63.5" font-family="Helvetica,sans-Serif" font-size="10.00">Models/Ints.hpp</text>
</a>
</g>
</g>
<!-- Node1&#45;&gt;Node9 -->
<g id="edge22" class="edge">
<title>Node1&#45;&gt;Node9</title>
<path fill="none" stroke="midnightblue" d="M344.24,-280.82C283.14,-270.09 204.72,-245.29 163,-188 141,-157.78 146.65,-111.21 152.17,-85.55"/>
<polygon fill="midnightblue" stroke="midnightblue" points="155.61,-86.19 154.52,-75.66 148.8,-84.58 155.61,-86.19"/>
</g>
<!-- Node13 -->
<g id="node13" class="node">
<title>Node13</title>
<g id="a_node13"><a xlink:href="ARectangleMemory_8hpp.html" target="_top" xlink:title=" ">
<polygon fill="white" stroke="black" points="172,-168.5 172,-187.5 348,-187.5 348,-168.5 172,-168.5"/>
<text text-anchor="middle" x="260" y="-175.5" font-family="Helvetica,sans-Serif" font-size="10.00">Memory/ARectangleMemory.hpp</text>
</a>
</g>
</g>
<!-- Node1&#45;&gt;Node13 -->
<g id="edge19" class="edge">
<title>Node1&#45;&gt;Node13</title>
<path fill="none" stroke="midnightblue" d="M416.66,-280.37C387.49,-261.49 317.78,-216.38 282,-193.24"/>
<polygon fill="midnightblue" stroke="midnightblue" points="283.57,-190.09 273.28,-187.59 279.77,-195.96 283.57,-190.09"/>
</g>
<!-- Node14 -->
<g id="node14" class="node">
<title>Node14</title>
<g id="a_node14"><a xlink:href="Ram_8hpp.html" target="_top" xlink:title=" ">
<polygon fill="white" stroke="black" points="489,-224.5 489,-243.5 575,-243.5 575,-224.5 489,-224.5"/>
<text text-anchor="middle" x="532" y="-231.5" font-family="Helvetica,sans-Serif" font-size="10.00">Ram/Ram.hpp</text>
</a>
</g>
</g>
<!-- Node1&#45;&gt;Node14 -->
<g id="edge23" class="edge">
<title>Node1&#45;&gt;Node14</title>
<path fill="none" stroke="midnightblue" d="M446.39,-280.32C462.67,-271.7 487.87,-258.36 506.72,-248.39"/>
<polygon fill="midnightblue" stroke="midnightblue" points="508.45,-251.43 515.65,-243.65 505.18,-245.24 508.45,-251.43"/>
</g>
<!-- Node16 -->
<g id="node16" class="node">
<title>Node16</title>
<g id="a_node16"><a xlink:title=" ">
<polygon fill="white" stroke="#bfbfbf" points="684,-224.5 684,-243.5 752,-243.5 752,-224.5 684,-224.5"/>
<text text-anchor="middle" x="718" y="-231.5" font-family="Helvetica,sans-Serif" font-size="10.00">filesystem</text>
</a>
</g>
</g>
<!-- Node1&#45;&gt;Node16 -->
<g id="edge28" class="edge">
<title>Node1&#45;&gt;Node16</title>
<path fill="none" stroke="midnightblue" d="M475.63,-280.44C530.02,-270.25 620.27,-253.32 673.95,-243.26"/>
<polygon fill="midnightblue" stroke="midnightblue" points="674.67,-246.69 683.85,-241.4 673.38,-239.81 674.67,-246.69"/>
</g>
<!-- Node3 -->
<g id="node3" class="node">
<title>Node3</title>
<g id="a_node3"><a xlink:title=" ">
<polygon fill="white" stroke="#bfbfbf" points="40,-0.5 40,-19.5 102,-19.5 102,-0.5 40,-0.5"/>
<text text-anchor="middle" x="71" y="-7.5" font-family="Helvetica,sans-Serif" font-size="10.00">cinttypes</text>
</a>
</g>
</g>
<!-- Node2&#45;&gt;Node3 -->
<g id="edge2" class="edge">
<title>Node2&#45;&gt;Node3</title>
<path fill="none" stroke="midnightblue" d="M59.02,-112.37C61.12,-94.62 65.96,-53.67 68.8,-29.6"/>
<polygon fill="midnightblue" stroke="midnightblue" points="72.29,-29.93 69.98,-19.59 65.34,-29.11 72.29,-29.93"/>
</g>
<!-- Node5 -->
<g id="node5" class="node">
<title>Node5</title>
<g id="a_node5"><a xlink:title=" ">
<polygon fill="white" stroke="#bfbfbf" points="454,-56.5 454,-75.5 504,-75.5 504,-56.5 454,-56.5"/>
<text text-anchor="middle" x="479" y="-63.5" font-family="Helvetica,sans-Serif" font-size="10.00">cstdint</text>
</a>
</g>
</g>
<!-- Node4&#45;&gt;Node5 -->
<g id="edge4" class="edge">
<title>Node4&#45;&gt;Node5</title>
<path fill="none" stroke="midnightblue" d="M433.84,-168.37C441.82,-150.46 460.33,-108.92 471,-84.95"/>
<polygon fill="midnightblue" stroke="midnightblue" points="474.3,-86.15 475.17,-75.59 467.91,-83.3 474.3,-86.15"/>
</g>
<!-- Node6 -->
<g id="node6" class="node">
<title>Node6</title>
<g id="a_node6"><a xlink:title=" ">
<polygon fill="white" stroke="#bfbfbf" points="522.5,-56.5 522.5,-75.5 569.5,-75.5 569.5,-56.5 522.5,-56.5"/>
<text text-anchor="middle" x="546" y="-63.5" font-family="Helvetica,sans-Serif" font-size="10.00">vector</text>
</a>
</g>
</g>
<!-- Node4&#45;&gt;Node6 -->
<g id="edge5" class="edge">
<title>Node4&#45;&gt;Node6</title>
<path fill="none" stroke="midnightblue" d="M439.1,-168.37C458.58,-149.89 504.56,-106.29 529.4,-82.74"/>
<polygon fill="midnightblue" stroke="midnightblue" points="532.09,-85.01 536.94,-75.59 527.28,-79.93 532.09,-85.01"/>
</g>
<!-- Node7 -->
<g id="node7" class="node">
<title>Node7</title>
<g id="a_node7"><a xlink:title=" ">
<polygon fill="white" stroke="#bfbfbf" points="222,-56.5 222,-75.5 280,-75.5 280,-56.5 222,-56.5"/>
<text text-anchor="middle" x="251" y="-63.5" font-family="Helvetica,sans-Serif" font-size="10.00">memory</text>
</a>
</g>
</g>
<!-- Node4&#45;&gt;Node7 -->
<g id="edge6" class="edge">
<title>Node4&#45;&gt;Node7</title>
<path fill="none" stroke="midnightblue" d="M395.16,-168.46C370.3,-161.3 336.82,-149.42 311,-132 291.6,-118.91 274.04,-98.38 263,-83.9"/>
<polygon fill="midnightblue" stroke="midnightblue" points="265.76,-81.75 257.01,-75.78 260.13,-85.91 265.76,-81.75"/>
</g>
<!-- Node4&#45;&gt;Node8 -->
<g id="edge7" class="edge">
<title>Node4&#45;&gt;Node8</title>
<path fill="none" stroke="midnightblue" d="M444.44,-168.37C476.15,-149.41 552.11,-104 590.68,-80.94"/>
<polygon fill="midnightblue" stroke="midnightblue" points="592.84,-83.73 599.63,-75.59 589.25,-77.72 592.84,-83.73"/>
</g>
<!-- Node4&#45;&gt;Node9 -->
<g id="edge8" class="edge">
<title>Node4&#45;&gt;Node9</title>
<path fill="none" stroke="midnightblue" d="M396.91,-168.45C367.15,-160.36 322.49,-147.21 285,-132 247.52,-116.8 206.13,-94.75 180.84,-80.65"/>
<polygon fill="midnightblue" stroke="midnightblue" points="182.41,-77.51 171.98,-75.66 178.98,-83.61 182.41,-77.51"/>
</g>
<!-- Node11 -->
<g id="node11" class="node">
<title>Node11</title>
<g id="a_node11"><a xlink:href="Components_8hpp.html" target="_top" xlink:title=" ">
<polygon fill="white" stroke="black" points="298.5,-56.5 298.5,-75.5 435.5,-75.5 435.5,-56.5 298.5,-56.5"/>
<text text-anchor="middle" x="367" y="-63.5" font-family="Helvetica,sans-Serif" font-size="10.00">Models/Components.hpp</text>
</a>
</g>
</g>
<!-- Node4&#45;&gt;Node11 -->
<g id="edge11" class="edge">
<title>Node4&#45;&gt;Node11</title>
<path fill="none" stroke="midnightblue" d="M428.41,-168.08C425.81,-155.06 419.82,-130.4 409,-112 402.59,-101.11 393.15,-90.68 384.84,-82.61"/>
<polygon fill="midnightblue" stroke="midnightblue" points="387.06,-79.9 377.35,-75.66 382.29,-85.03 387.06,-79.9"/>
</g>
<!-- Node12 -->
<g id="node12" class="node">
<title>Node12</title>
<g id="a_node12"><a xlink:href="IMemory_8hpp.html" target="_top" xlink:title=" ">
<polygon fill="white" stroke="black" points="320,-112.5 320,-131.5 400,-131.5 400,-112.5 320,-112.5"/>
<text text-anchor="middle" x="360" y="-119.5" font-family="Helvetica,sans-Serif" font-size="10.00">IMemory.hpp</text>
</a>
</g>
</g>
<!-- Node4&#45;&gt;Node12 -->
<g id="edge12" class="edge">
<title>Node4&#45;&gt;Node12</title>
<path fill="none" stroke="midnightblue" d="M418.75,-168.32C408.2,-160.18 392.2,-147.84 379.56,-138.09"/>
<polygon fill="midnightblue" stroke="midnightblue" points="381.51,-135.17 371.45,-131.83 377.23,-140.71 381.51,-135.17"/>
</g>
<!-- Node9&#45;&gt;Node3 -->
<g id="edge9" class="edge">
<title>Node9&#45;&gt;Node3</title>
<path fill="none" stroke="midnightblue" d="M143.18,-56.32C129.77,-47.9 109.18,-34.97 93.41,-25.07"/>
<polygon fill="midnightblue" stroke="midnightblue" points="95.11,-22.01 84.78,-19.65 91.39,-27.94 95.11,-22.01"/>
</g>
<!-- Node10 -->
<g id="node10" class="node">
<title>Node10</title>
<g id="a_node10"><a xlink:title=" ">
<polygon fill="white" stroke="#bfbfbf" points="127,-0.5 127,-19.5 187,-19.5 187,-0.5 127,-0.5"/>
<text text-anchor="middle" x="157" y="-7.5" font-family="Helvetica,sans-Serif" font-size="10.00">iostream</text>
</a>
</g>
</g>
<!-- Node9&#45;&gt;Node10 -->
<g id="edge10" class="edge">
<title>Node9&#45;&gt;Node10</title>
<path fill="none" stroke="midnightblue" d="M157,-56.08C157,-49.01 157,-38.86 157,-29.99"/>
<polygon fill="midnightblue" stroke="midnightblue" points="160.5,-29.75 157,-19.75 153.5,-29.75 160.5,-29.75"/>
</g>
<!-- Node12&#45;&gt;Node5 -->
<g id="edge13" class="edge">
<title>Node12&#45;&gt;Node5</title>
<path fill="none" stroke="midnightblue" d="M378.86,-112.44C398.27,-103.64 428.73,-89.81 450.96,-79.72"/>
<polygon fill="midnightblue" stroke="midnightblue" points="452.57,-82.84 460.23,-75.52 449.68,-76.46 452.57,-82.84"/>
</g>
<!-- Node12&#45;&gt;Node6 -->
<g id="edge14" class="edge">
<title>Node12&#45;&gt;Node6</title>
<path fill="none" stroke="midnightblue" d="M389.47,-112.44C422.94,-102.73 477.44,-86.9 512.5,-76.73"/>
<polygon fill="midnightblue" stroke="midnightblue" points="513.64,-80.04 522.27,-73.89 511.69,-73.32 513.64,-80.04"/>
</g>
<!-- Node12&#45;&gt;Node7 -->
<g id="edge15" class="edge">
<title>Node12&#45;&gt;Node7</title>
<path fill="none" stroke="midnightblue" d="M342.49,-112.32C324.93,-103.62 297.67,-90.12 277.47,-80.11"/>
<polygon fill="midnightblue" stroke="midnightblue" points="278.98,-76.96 268.47,-75.65 275.88,-83.23 278.98,-76.96"/>
</g>
<!-- Node12&#45;&gt;Node8 -->
<g id="edge16" class="edge">
<title>Node12&#45;&gt;Node8</title>
<path fill="none" stroke="midnightblue" d="M400.29,-113.2C444.12,-104.6 516.21,-90.09 578,-76 579.27,-75.71 580.57,-75.41 581.88,-75.1"/>
<polygon fill="midnightblue" stroke="midnightblue" points="583.05,-78.42 591.95,-72.67 581.41,-71.61 583.05,-78.42"/>
</g>
<!-- Node12&#45;&gt;Node9 -->
<g id="edge17" class="edge">
<title>Node12&#45;&gt;Node9</title>
<path fill="none" stroke="midnightblue" d="M327.83,-112.44C292.94,-103.16 237.11,-88.31 198.83,-78.13"/>
<polygon fill="midnightblue" stroke="midnightblue" points="199.58,-74.7 189.02,-75.52 197.78,-81.47 199.58,-74.7"/>
</g>
<!-- Node12&#45;&gt;Node11 -->
<g id="edge18" class="edge">
<title>Node12&#45;&gt;Node11</title>
<path fill="none" stroke="midnightblue" d="M361.16,-112.08C362.08,-104.93 363.42,-94.64 364.58,-85.69"/>
<polygon fill="midnightblue" stroke="midnightblue" points="368.05,-86.12 365.87,-75.75 361.11,-85.22 368.05,-86.12"/>
</g>
<!-- Node13&#45;&gt;Node9 -->
<g id="edge21" class="edge">
<title>Node13&#45;&gt;Node9</title>
<path fill="none" stroke="midnightblue" d="M251.92,-168.37C234.69,-149.97 194.15,-106.67 172.03,-83.05"/>
<polygon fill="midnightblue" stroke="midnightblue" points="174.43,-80.5 165.04,-75.59 169.32,-85.28 174.43,-80.5"/>
</g>
<!-- Node13&#45;&gt;Node12 -->
<g id="edge20" class="edge">
<title>Node13&#45;&gt;Node12</title>
<path fill="none" stroke="midnightblue" d="M276.07,-168.32C291.96,-159.74 316.51,-146.49 334.96,-136.52"/>
<polygon fill="midnightblue" stroke="midnightblue" points="336.84,-139.49 343.97,-131.65 333.51,-133.33 336.84,-139.49"/>
</g>
<!-- Node14&#45;&gt;Node6 -->
<g id="edge27" class="edge">
<title>Node14&#45;&gt;Node6</title>
<path fill="none" stroke="midnightblue" d="M539.67,-224.46C546.78,-215.93 556.85,-202.09 561,-188 571.42,-152.6 560.69,-109.31 552.79,-85.29"/>
<polygon fill="midnightblue" stroke="midnightblue" points="556.04,-83.99 549.44,-75.7 549.44,-86.3 556.04,-83.99"/>
</g>
<!-- Node14&#45;&gt;Node8 -->
<g id="edge25" class="edge">
<title>Node14&#45;&gt;Node8</title>
<path fill="none" stroke="midnightblue" d="M543.57,-224.21C553.73,-215.91 568.24,-202.58 577,-188 596.82,-155.02 606.84,-110.52 611.19,-85.71"/>
<polygon fill="midnightblue" stroke="midnightblue" points="614.65,-86.24 612.81,-75.8 607.74,-85.11 614.65,-86.24"/>
</g>
<!-- Node14&#45;&gt;Node13 -->
<g id="edge24" class="edge">
<title>Node14&#45;&gt;Node13</title>
<path fill="none" stroke="midnightblue" d="M488.9,-224.44C441.15,-214.96 364.14,-199.67 312.81,-189.48"/>
<polygon fill="midnightblue" stroke="midnightblue" points="313.39,-186.03 302.9,-187.52 312.02,-192.9 313.39,-186.03"/>
</g>
<!-- Node15 -->
<g id="node15" class="node">
<title>Node15</title>
<g id="a_node15"><a xlink:title=" ">
<polygon fill="white" stroke="#bfbfbf" points="512,-168.5 512,-187.5 552,-187.5 552,-168.5 512,-168.5"/>
<text text-anchor="middle" x="532" y="-175.5" font-family="Helvetica,sans-Serif" font-size="10.00">span</text>
</a>
</g>
</g>
<!-- Node14&#45;&gt;Node15 -->
<g id="edge26" class="edge">
<title>Node14&#45;&gt;Node15</title>
<path fill="none" stroke="midnightblue" d="M532,-224.08C532,-217.01 532,-206.86 532,-197.99"/>
<polygon fill="midnightblue" stroke="midnightblue" points="535.5,-197.75 532,-187.75 528.5,-197.75 535.5,-197.75"/>
</g>
</g>
</svg>
