<?xml version="1.0" encoding="UTF-8" standalone="no"?>
<!DOCTYPE svg PUBLIC "-//W3C//DTD SVG 1.1//EN"
 "http://www.w3.org/Graphics/SVG/1.1/DTD/svg11.dtd">
<!-- Generated by graphviz version 2.43.0 (0)
 -->
<!-- Title: sources/Cartridge/Cartridge.hpp Pages: 1 -->
<svg width="4712pt" height="218pt"
 viewBox="0.00 0.00 4712.00 218.00" xmlns="http://www.w3.org/2000/svg" xmlns:xlink="http://www.w3.org/1999/xlink">
<g id="graph0" class="graph" transform="scale(1 1) rotate(0) translate(4 214)">
<title>sources/Cartridge/Cartridge.hpp</title>
<polygon fill="white" stroke="transparent" points="-4,4 -4,-214 4708,-214 4708,4 -4,4"/>
<!-- Node1 -->
<g id="node1" class="node">
<title>Node1</title>
<g id="a_node1"><a xlink:title=" ">
<polygon fill="#bfbfbf" stroke="black" points="3396.5,-190.5 3396.5,-209.5 3567.5,-209.5 3567.5,-190.5 3396.5,-190.5"/>
<text text-anchor="middle" x="3482" y="-197.5" font-family="Helvetica,sans-Serif" font-size="10.00">sources/Cartridge/Cartridge.hpp</text>
</a>
</g>
</g>
<!-- Node2 -->
<g id="node2" class="node">
<title>Node2</title>
<g id="a_node2"><a xlink:href="APU_8hpp.html" target="_top" xlink:title=" ">
<polygon fill="white" stroke="black" points="1864,-134.5 1864,-153.5 1986,-153.5 1986,-134.5 1864,-134.5"/>
<text text-anchor="middle" x="1925" y="-141.5" font-family="Helvetica,sans-Serif" font-size="10.00">sources/APU/APU.hpp</text>
</a>
</g>
</g>
<!-- Node1&#45;&gt;Node2 -->
<g id="edge1" class="edge">
<title>Node1&#45;&gt;Node2</title>
<path fill="none" stroke="midnightblue" d="M3386.23,-195.68C3094.97,-185.58 2225.07,-155.41 1986.24,-147.12"/>
<polygon fill="midnightblue" stroke="midnightblue" points="3386.23,-199.18 3396.35,-196.03 3386.48,-192.18 3386.23,-199.18"/>
</g>
<!-- Node23 -->
<g id="node23" class="node">
<title>Node23</title>
<g id="a_node23"><a xlink:href="SNES_8hpp.html" target="_top" xlink:title=" ">
<polygon fill="white" stroke="red" points="3179,-73 3179,-92 3283,-92 3283,-73 3179,-73"/>
<text text-anchor="middle" x="3231" y="-80" font-family="Helvetica,sans-Serif" font-size="10.00">sources/SNES.hpp</text>
</a>
</g>
</g>
<!-- Node1&#45;&gt;Node23 -->
<g id="edge56" class="edge">
<title>Node1&#45;&gt;Node23</title>
<path fill="none" stroke="midnightblue" d="M3453.89,-186.06C3402.21,-162.28 3293.43,-112.23 3249.74,-92.12"/>
<polygon fill="midnightblue" stroke="midnightblue" points="3452.59,-189.32 3463.13,-190.32 3455.51,-182.96 3452.59,-189.32"/>
</g>
<!-- Node58 -->
<g id="node40" class="node">
<title>Node58</title>
<g id="a_node40"><a xlink:href="Cartridge_8cpp.html" target="_top" xlink:title=" ">
<polygon fill="white" stroke="black" points="3397,-134.5 3397,-153.5 3567,-153.5 3567,-134.5 3397,-134.5"/>
<text text-anchor="middle" x="3482" y="-141.5" font-family="Helvetica,sans-Serif" font-size="10.00">sources/Cartridge/Cartridge.cpp</text>
</a>
</g>
</g>
<!-- Node1&#45;&gt;Node58 -->
<g id="edge43" class="edge">
<title>Node1&#45;&gt;Node58</title>
<path fill="none" stroke="midnightblue" d="M3482,-179.8C3482,-170.91 3482,-160.78 3482,-153.75"/>
<polygon fill="midnightblue" stroke="midnightblue" points="3478.5,-180.08 3482,-190.08 3485.5,-180.08 3478.5,-180.08"/>
</g>
<!-- Node59 -->
<g id="node41" class="node">
<title>Node59</title>
<g id="a_node41"><a xlink:href="CPU_8hpp.html" target="_top" xlink:title=" ">
<polygon fill="white" stroke="black" points="3714,-134.5 3714,-153.5 3836,-153.5 3836,-134.5 3714,-134.5"/>
<text text-anchor="middle" x="3775" y="-141.5" font-family="Helvetica,sans-Serif" font-size="10.00">sources/CPU/CPU.hpp</text>
</a>
</g>
</g>
<!-- Node1&#45;&gt;Node59 -->
<g id="edge44" class="edge">
<title>Node1&#45;&gt;Node59</title>
<path fill="none" stroke="midnightblue" d="M3538.43,-188.6C3593.8,-178.4 3677.23,-163.02 3728.79,-153.52"/>
<polygon fill="midnightblue" stroke="midnightblue" points="3537.63,-185.19 3528.43,-190.44 3538.9,-192.07 3537.63,-185.19"/>
</g>
<!-- Node68 -->
<g id="node50" class="node">
<title>Node68</title>
<g id="a_node50"><a xlink:href="HeaderViewer_8hpp.html" target="_top" xlink:title=" ">
<polygon fill="white" stroke="black" points="4224.5,-134.5 4224.5,-153.5 4421.5,-153.5 4421.5,-134.5 4224.5,-134.5"/>
<text text-anchor="middle" x="4323" y="-141.5" font-family="Helvetica,sans-Serif" font-size="10.00">sources/Debugger/HeaderViewer.hpp</text>
</a>
</g>
</g>
<!-- Node1&#45;&gt;Node68 -->
<g id="edge54" class="edge">
<title>Node1&#45;&gt;Node68</title>
<path fill="none" stroke="midnightblue" d="M3578.02,-192.83C3739.01,-182.5 4061.67,-161.78 4224.37,-151.33"/>
<polygon fill="midnightblue" stroke="midnightblue" points="3577.41,-189.37 3567.66,-193.5 3577.86,-196.35 3577.41,-189.37"/>
</g>
<!-- Node3 -->
<g id="node3" class="node">
<title>Node3</title>
<g id="a_node3"><a xlink:href="APU_8cpp.html" target="_top" xlink:title=" ">
<polygon fill="white" stroke="black" points="1953.5,-73 1953.5,-92 2074.5,-92 2074.5,-73 1953.5,-73"/>
<text text-anchor="middle" x="2014" y="-80" font-family="Helvetica,sans-Serif" font-size="10.00">sources/APU/APU.cpp</text>
</a>
</g>
</g>
<!-- Node2&#45;&gt;Node3 -->
<g id="edge2" class="edge">
<title>Node2&#45;&gt;Node3</title>
<path fill="none" stroke="midnightblue" d="M1946.52,-128.61C1963.64,-117.17 1987.01,-101.55 2001.27,-92.01"/>
<polygon fill="midnightblue" stroke="midnightblue" points="1944.12,-126.01 1937.75,-134.48 1948.01,-131.83 1944.12,-126.01"/>
</g>
<!-- Node4 -->
<g id="node4" class="node">
<title>Node4</title>
<g id="a_node4"><a xlink:href="DSP_8cpp.html" target="_top" xlink:title=" ">
<polygon fill="white" stroke="black" points="2207.5,-73 2207.5,-92 2348.5,-92 2348.5,-73 2207.5,-73"/>
<text text-anchor="middle" x="2278" y="-80" font-family="Helvetica,sans-Serif" font-size="10.00">sources/APU/DSP/DSP.cpp</text>
</a>
</g>
</g>
<!-- Node2&#45;&gt;Node4 -->
<g id="edge3" class="edge">
<title>Node2&#45;&gt;Node4</title>
<path fill="none" stroke="midnightblue" d="M1986.04,-132.8C2040.36,-123.71 2121.99,-110.02 2193,-98 2204.37,-96.08 2216.58,-94 2228.11,-92.03"/>
<polygon fill="midnightblue" stroke="midnightblue" points="1985.17,-129.39 1975.89,-134.5 1986.33,-136.3 1985.17,-129.39"/>
</g>
<!-- Node5 -->
<g id="node5" class="node">
<title>Node5</title>
<g id="a_node5"><a xlink:href="Voice_8cpp.html" target="_top" xlink:title=" ">
<polygon fill="white" stroke="black" points="2366.5,-73 2366.5,-92 2515.5,-92 2515.5,-73 2366.5,-73"/>
<text text-anchor="middle" x="2441" y="-80" font-family="Helvetica,sans-Serif" font-size="10.00">sources/APU/DSP/Voice.cpp</text>
</a>
</g>
</g>
<!-- Node2&#45;&gt;Node5 -->
<g id="edge4" class="edge">
<title>Node2&#45;&gt;Node5</title>
<path fill="none" stroke="midnightblue" d="M1996.47,-137.04C2082.29,-129.53 2230.49,-115.49 2357,-98 2369.31,-96.3 2382.59,-94.15 2394.87,-92.04"/>
<polygon fill="midnightblue" stroke="midnightblue" points="1995.98,-133.56 1986.32,-137.92 1996.59,-140.54 1995.98,-133.56"/>
</g>
<!-- Node6 -->
<g id="node6" class="node">
<title>Node6</title>
<g id="a_node6"><a xlink:href="16bitArithmetic_8cpp.html" target="_top" xlink:title=" ">
<polygon fill="white" stroke="black" points="2533.5,-67.5 2533.5,-97.5 2670.5,-97.5 2670.5,-67.5 2533.5,-67.5"/>
<text text-anchor="start" x="2541.5" y="-85.5" font-family="Helvetica,sans-Serif" font-size="10.00">sources/APU/Instructions</text>
<text text-anchor="middle" x="2602" y="-74.5" font-family="Helvetica,sans-Serif" font-size="10.00">/16bitArithmetic.cpp</text>
</a>
</g>
</g>
<!-- Node2&#45;&gt;Node6 -->
<g id="edge5" class="edge">
<title>Node2&#45;&gt;Node6</title>
<path fill="none" stroke="midnightblue" d="M1996.22,-140.16C2108.7,-135.11 2334.21,-122.69 2524,-98 2527,-97.61 2530.07,-97.18 2533.16,-96.72"/>
<polygon fill="midnightblue" stroke="midnightblue" points="1995.85,-136.67 1986.02,-140.61 1996.16,-143.67 1995.85,-136.67"/>
</g>
<!-- Node7 -->
<g id="node7" class="node">
<title>Node7</title>
<g id="a_node7"><a xlink:href="16bitDataTransmission_8cpp.html" target="_top" xlink:title=" ">
<polygon fill="white" stroke="black" points="2689,-67.5 2689,-97.5 2841,-97.5 2841,-67.5 2689,-67.5"/>
<text text-anchor="start" x="2697" y="-85.5" font-family="Helvetica,sans-Serif" font-size="10.00">sources/APU/Instructions</text>
<text text-anchor="middle" x="2765" y="-74.5" font-family="Helvetica,sans-Serif" font-size="10.00">/16bitDataTransmission.cpp</text>
</a>
</g>
</g>
<!-- Node2&#45;&gt;Node7 -->
<g id="edge6" class="edge">
<title>Node2&#45;&gt;Node7</title>
<path fill="none" stroke="midnightblue" d="M1996.42,-141.29C2130.56,-137.52 2429.15,-126.43 2679,-98 2682.16,-97.64 2685.38,-97.24 2688.63,-96.81"/>
<polygon fill="midnightblue" stroke="midnightblue" points="1996.18,-137.8 1986.28,-141.57 1996.37,-144.8 1996.18,-137.8"/>
</g>
<!-- Node8 -->
<g id="node8" class="node">
<title>Node8</title>
<g id="a_node8"><a xlink:href="8bitArithmetic_8cpp.html" target="_top" xlink:title=" ">
<polygon fill="white" stroke="black" points="2859.5,-67.5 2859.5,-97.5 2996.5,-97.5 2996.5,-67.5 2859.5,-67.5"/>
<text text-anchor="start" x="2867.5" y="-85.5" font-family="Helvetica,sans-Serif" font-size="10.00">sources/APU/Instructions</text>
<text text-anchor="middle" x="2928" y="-74.5" font-family="Helvetica,sans-Serif" font-size="10.00">/8bitArithmetic.cpp</text>
</a>
</g>
</g>
<!-- Node2&#45;&gt;Node8 -->
<g id="edge7" class="edge">
<title>Node2&#45;&gt;Node8</title>
<path fill="none" stroke="midnightblue" d="M1996.48,-142.81C2152.16,-141.67 2533.29,-134.97 2850,-98 2853.01,-97.65 2856.08,-97.25 2859.17,-96.82"/>
<polygon fill="midnightblue" stroke="midnightblue" points="1996.09,-139.31 1986.11,-142.88 1996.14,-146.31 1996.09,-139.31"/>
</g>
<!-- Node9 -->
<g id="node9" class="node">
<title>Node9</title>
<g id="a_node9"><a xlink:href="8bitDataTransmission_8cpp.html" target="_top" xlink:title=" ">
<polygon fill="white" stroke="black" points="3015,-67.5 3015,-97.5 3161,-97.5 3161,-67.5 3015,-67.5"/>
<text text-anchor="start" x="3023" y="-85.5" font-family="Helvetica,sans-Serif" font-size="10.00">sources/APU/Instructions</text>
<text text-anchor="middle" x="3088" y="-74.5" font-family="Helvetica,sans-Serif" font-size="10.00">/8bitDataTransmission.cpp</text>
</a>
</g>
</g>
<!-- Node2&#45;&gt;Node9 -->
<g id="edge8" class="edge">
<title>Node2&#45;&gt;Node9</title>
<path fill="none" stroke="midnightblue" d="M1996.11,-143.26C2169.26,-143.19 2626.32,-138.79 3005,-98 3008.2,-97.66 3011.46,-97.26 3014.75,-96.83"/>
<polygon fill="midnightblue" stroke="midnightblue" points="1996.11,-139.76 1986.11,-143.26 1996.1,-146.76 1996.11,-139.76"/>
</g>
<!-- Node10 -->
<g id="node10" class="node">
<title>Node10</title>
<g id="a_node10"><a xlink:href="8bitIncrementDecrement_8cpp.html" target="_top" xlink:title=" ">
<polygon fill="white" stroke="black" points="0,-67.5 0,-97.5 162,-97.5 162,-67.5 0,-67.5"/>
<text text-anchor="start" x="8" y="-85.5" font-family="Helvetica,sans-Serif" font-size="10.00">sources/APU/Instructions</text>
<text text-anchor="middle" x="81" y="-74.5" font-family="Helvetica,sans-Serif" font-size="10.00">/8bitIncrementDecrement.cpp</text>
</a>
</g>
</g>
<!-- Node2&#45;&gt;Node10 -->
<g id="edge9" class="edge">
<title>Node2&#45;&gt;Node10</title>
<path fill="none" stroke="midnightblue" d="M1853.52,-142.45C1567.62,-140.03 505.81,-129.12 171,-98 168.16,-97.74 165.28,-97.44 162.37,-97.11"/>
<polygon fill="midnightblue" stroke="midnightblue" points="1853.73,-145.95 1863.76,-142.53 1853.79,-138.95 1853.73,-145.95"/>
</g>
<!-- Node11 -->
<g id="node11" class="node">
<title>Node11</title>
<g id="a_node11"><a xlink:href="8bitLogical_8cpp.html" target="_top" xlink:title=" ">
<polygon fill="white" stroke="black" points="180.5,-67.5 180.5,-97.5 317.5,-97.5 317.5,-67.5 180.5,-67.5"/>
<text text-anchor="start" x="188.5" y="-85.5" font-family="Helvetica,sans-Serif" font-size="10.00">sources/APU/Instructions</text>
<text text-anchor="middle" x="249" y="-74.5" font-family="Helvetica,sans-Serif" font-size="10.00">/8bitLogical.cpp</text>
</a>
</g>
</g>
<!-- Node2&#45;&gt;Node11 -->
<g id="edge10" class="edge">
<title>Node2&#45;&gt;Node11</title>
<path fill="none" stroke="midnightblue" d="M1853.61,-142.49C1584.1,-140.34 628.43,-130.53 326,-98 323.29,-97.71 320.54,-97.38 317.77,-97.01"/>
<polygon fill="midnightblue" stroke="midnightblue" points="1853.64,-145.99 1863.67,-142.57 1853.69,-138.99 1853.64,-145.99"/>
</g>
<!-- Node12 -->
<g id="node12" class="node">
<title>Node12</title>
<g id="a_node12"><a xlink:href="8bitShiftRotation_8cpp.html" target="_top" xlink:title=" ">
<polygon fill="white" stroke="black" points="335.5,-67.5 335.5,-97.5 472.5,-97.5 472.5,-67.5 335.5,-67.5"/>
<text text-anchor="start" x="343.5" y="-85.5" font-family="Helvetica,sans-Serif" font-size="10.00">sources/APU/Instructions</text>
<text text-anchor="middle" x="404" y="-74.5" font-family="Helvetica,sans-Serif" font-size="10.00">/8bitShiftRotation.cpp</text>
</a>
</g>
</g>
<!-- Node2&#45;&gt;Node12 -->
<g id="edge11" class="edge">
<title>Node2&#45;&gt;Node12</title>
<path fill="none" stroke="midnightblue" d="M1853.48,-142.24C1600.91,-139.32 751.52,-127.51 481,-98 478.3,-97.71 475.54,-97.37 472.77,-97"/>
<polygon fill="midnightblue" stroke="midnightblue" points="1853.6,-145.74 1863.64,-142.36 1853.68,-138.74 1853.6,-145.74"/>
</g>
<!-- Node13 -->
<g id="node13" class="node">
<title>Node13</title>
<g id="a_node13"><a xlink:href="Bit_8cpp.html" target="_top" xlink:title=" ">
<polygon fill="white" stroke="black" points="490.5,-67.5 490.5,-97.5 627.5,-97.5 627.5,-67.5 490.5,-67.5"/>
<text text-anchor="start" x="498.5" y="-85.5" font-family="Helvetica,sans-Serif" font-size="10.00">sources/APU/Instructions</text>
<text text-anchor="middle" x="559" y="-74.5" font-family="Helvetica,sans-Serif" font-size="10.00">/Bit.cpp</text>
</a>
</g>
</g>
<!-- Node2&#45;&gt;Node13 -->
<g id="edge12" class="edge">
<title>Node2&#45;&gt;Node13</title>
<path fill="none" stroke="midnightblue" d="M1853.78,-141.93C1619.62,-138.2 874.89,-124.51 636,-98 633.3,-97.7 630.54,-97.36 627.77,-96.98"/>
<polygon fill="midnightblue" stroke="midnightblue" points="1853.83,-145.43 1863.88,-142.09 1853.94,-138.44 1853.83,-145.43"/>
</g>
<!-- Node14 -->
<g id="node14" class="node">
<title>Node14</title>
<g id="a_node14"><a xlink:href="DecimalCompensation_8cpp.html" target="_top" xlink:title=" ">
<polygon fill="white" stroke="black" points="645.5,-67.5 645.5,-97.5 796.5,-97.5 796.5,-67.5 645.5,-67.5"/>
<text text-anchor="start" x="653.5" y="-85.5" font-family="Helvetica,sans-Serif" font-size="10.00">sources/APU/Instructions</text>
<text text-anchor="middle" x="721" y="-74.5" font-family="Helvetica,sans-Serif" font-size="10.00">/DecimalCompensation.cpp</text>
</a>
</g>
</g>
<!-- Node2&#45;&gt;Node14 -->
<g id="edge13" class="edge">
<title>Node2&#45;&gt;Node14</title>
<path fill="none" stroke="midnightblue" d="M1853.59,-143.31C1675.96,-143.39 1200.11,-139.37 806,-98 803.02,-97.69 799.99,-97.34 796.93,-96.95"/>
<polygon fill="midnightblue" stroke="midnightblue" points="1853.85,-146.81 1863.85,-143.3 1853.84,-139.81 1853.85,-146.81"/>
</g>
<!-- Node15 -->
<g id="node15" class="node">
<title>Node15</title>
<g id="a_node15"><a xlink:href="MultiplicationDivision_8cpp.html" target="_top" xlink:title=" ">
<polygon fill="white" stroke="black" points="815,-67.5 815,-97.5 961,-97.5 961,-67.5 815,-67.5"/>
<text text-anchor="start" x="823" y="-85.5" font-family="Helvetica,sans-Serif" font-size="10.00">sources/APU/Instructions</text>
<text text-anchor="middle" x="888" y="-74.5" font-family="Helvetica,sans-Serif" font-size="10.00">/MultiplicationDivision.cpp</text>
</a>
</g>
</g>
<!-- Node2&#45;&gt;Node15 -->
<g id="edge14" class="edge">
<title>Node2&#45;&gt;Node15</title>
<path fill="none" stroke="midnightblue" d="M1853.77,-142.75C1694.73,-141.52 1298.89,-134.67 970,-98 967.13,-97.68 964.2,-97.32 961.25,-96.93"/>
<polygon fill="midnightblue" stroke="midnightblue" points="1853.87,-146.25 1863.89,-142.83 1853.92,-139.25 1853.87,-146.25"/>
</g>
<!-- Node16 -->
<g id="node16" class="node">
<title>Node16</title>
<g id="a_node16"><a xlink:href="ProgramFlow_8cpp.html" target="_top" xlink:title=" ">
<polygon fill="white" stroke="black" points="979.5,-67.5 979.5,-97.5 1116.5,-97.5 1116.5,-67.5 979.5,-67.5"/>
<text text-anchor="start" x="987.5" y="-85.5" font-family="Helvetica,sans-Serif" font-size="10.00">sources/APU/Instructions</text>
<text text-anchor="middle" x="1048" y="-74.5" font-family="Helvetica,sans-Serif" font-size="10.00">/ProgramFlow.cpp</text>
</a>
</g>
</g>
<!-- Node2&#45;&gt;Node16 -->
<g id="edge15" class="edge">
<title>Node2&#45;&gt;Node16</title>
<path fill="none" stroke="midnightblue" d="M1853.61,-142.09C1713.44,-139.62 1392.58,-130.58 1125,-98 1122.3,-97.67 1119.55,-97.31 1116.78,-96.91"/>
<polygon fill="midnightblue" stroke="midnightblue" points="1853.73,-145.59 1863.79,-142.26 1853.85,-138.59 1853.73,-145.59"/>
</g>
<!-- Node17 -->
<g id="node17" class="node">
<title>Node17</title>
<g id="a_node17"><a xlink:href="ProgramStatusWord_8cpp.html" target="_top" xlink:title=" ">
<polygon fill="white" stroke="black" points="1134.5,-67.5 1134.5,-97.5 1271.5,-97.5 1271.5,-67.5 1134.5,-67.5"/>
<text text-anchor="start" x="1142.5" y="-85.5" font-family="Helvetica,sans-Serif" font-size="10.00">sources/APU/Instructions</text>
<text text-anchor="middle" x="1203" y="-74.5" font-family="Helvetica,sans-Serif" font-size="10.00">/ProgramStatusWord.cpp</text>
</a>
</g>
</g>
<!-- Node2&#45;&gt;Node17 -->
<g id="edge16" class="edge">
<title>Node2&#45;&gt;Node17</title>
<path fill="none" stroke="midnightblue" d="M1853.76,-140.74C1734.59,-136.36 1487.44,-124.68 1280,-98 1277.3,-97.65 1274.55,-97.27 1271.78,-96.86"/>
<polygon fill="midnightblue" stroke="midnightblue" points="1853.73,-144.24 1863.85,-141.11 1853.98,-137.25 1853.73,-144.24"/>
</g>
<!-- Node18 -->
<g id="node18" class="node">
<title>Node18</title>
<g id="a_node18"><a xlink:href="Stack_8cpp.html" target="_top" xlink:title=" ">
<polygon fill="white" stroke="black" points="1289.5,-67.5 1289.5,-97.5 1426.5,-97.5 1426.5,-67.5 1289.5,-67.5"/>
<text text-anchor="start" x="1297.5" y="-85.5" font-family="Helvetica,sans-Serif" font-size="10.00">sources/APU/Instructions</text>
<text text-anchor="middle" x="1358" y="-74.5" font-family="Helvetica,sans-Serif" font-size="10.00">/Stack.cpp</text>
</a>
</g>
</g>
<!-- Node2&#45;&gt;Node18 -->
<g id="edge17" class="edge">
<title>Node2&#45;&gt;Node18</title>
<path fill="none" stroke="midnightblue" d="M1853.54,-138.56C1757.91,-132.14 1583.16,-118.71 1435,-98 1432.31,-97.62 1429.56,-97.22 1426.79,-96.79"/>
<polygon fill="midnightblue" stroke="midnightblue" points="1853.46,-142.07 1863.67,-139.24 1853.93,-135.08 1853.46,-142.07"/>
</g>
<!-- Node19 -->
<g id="node19" class="node">
<title>Node19</title>
<g id="a_node19"><a xlink:href="Standbys_8cpp.html" target="_top" xlink:title=" ">
<polygon fill="white" stroke="black" points="1444.5,-67.5 1444.5,-97.5 1581.5,-97.5 1581.5,-67.5 1444.5,-67.5"/>
<text text-anchor="start" x="1452.5" y="-85.5" font-family="Helvetica,sans-Serif" font-size="10.00">sources/APU/Instructions</text>
<text text-anchor="middle" x="1513" y="-74.5" font-family="Helvetica,sans-Serif" font-size="10.00">/Standbys.cpp</text>
</a>
</g>
</g>
<!-- Node2&#45;&gt;Node19 -->
<g id="edge18" class="edge">
<title>Node2&#45;&gt;Node19</title>
<path fill="none" stroke="midnightblue" d="M1853.57,-134.51C1785.63,-126.17 1680.65,-112.61 1590,-98 1587.31,-97.57 1584.58,-97.11 1581.82,-96.64"/>
<polygon fill="midnightblue" stroke="midnightblue" points="1853.38,-138.01 1863.73,-135.75 1854.23,-131.06 1853.38,-138.01"/>
</g>
<!-- Node20 -->
<g id="node20" class="node">
<title>Node20</title>
<g id="a_node20"><a xlink:href="Subroutine_8cpp.html" target="_top" xlink:title=" ">
<polygon fill="white" stroke="black" points="1599.5,-67.5 1599.5,-97.5 1736.5,-97.5 1736.5,-67.5 1599.5,-67.5"/>
<text text-anchor="start" x="1607.5" y="-85.5" font-family="Helvetica,sans-Serif" font-size="10.00">sources/APU/Instructions</text>
<text text-anchor="middle" x="1668" y="-74.5" font-family="Helvetica,sans-Serif" font-size="10.00">/Subroutine.cpp</text>
</a>
</g>
</g>
<!-- Node2&#45;&gt;Node20 -->
<g id="edge19" class="edge">
<title>Node2&#45;&gt;Node20</title>
<path fill="none" stroke="midnightblue" d="M1878.22,-132.17C1836.22,-122.45 1774.33,-108.12 1728.57,-97.52"/>
<polygon fill="midnightblue" stroke="midnightblue" points="1877.65,-135.63 1888.18,-134.48 1879.23,-128.81 1877.65,-135.63"/>
</g>
<!-- Node21 -->
<g id="node21" class="node">
<title>Node21</title>
<g id="a_node21"><a xlink:href="Operand_8cpp.html" target="_top" xlink:title=" ">
<polygon fill="white" stroke="black" points="1755,-73 1755,-92 1897,-92 1897,-73 1755,-73"/>
<text text-anchor="middle" x="1826" y="-80" font-family="Helvetica,sans-Serif" font-size="10.00">sources/APU/Operand.cpp</text>
</a>
</g>
</g>
<!-- Node2&#45;&gt;Node21 -->
<g id="edge20" class="edge">
<title>Node2&#45;&gt;Node21</title>
<path fill="none" stroke="midnightblue" d="M1902.11,-129.24C1882.99,-117.75 1856.32,-101.72 1840.16,-92.01"/>
<polygon fill="midnightblue" stroke="midnightblue" points="1900.44,-132.32 1910.82,-134.48 1904.05,-126.32 1900.44,-132.32"/>
</g>
<!-- Node22 -->
<g id="node22" class="node">
<title>Node22</title>
<g id="a_node22"><a xlink:href="APUDebug_8cpp.html" target="_top" xlink:title=" ">
<polygon fill="white" stroke="black" points="1727.5,-6 1727.5,-25 1906.5,-25 1906.5,-6 1727.5,-6"/>
<text text-anchor="middle" x="1817" y="-13" font-family="Helvetica,sans-Serif" font-size="10.00">sources/Debugger/APUDebug.cpp</text>
</a>
</g>
</g>
<!-- Node2&#45;&gt;Node22 -->
<g id="edge21" class="edge">
<title>Node2&#45;&gt;Node22</title>
<path fill="none" stroke="midnightblue" d="M1924.36,-123.96C1922.9,-107.4 1918.57,-83.54 1906,-67 1890.31,-46.35 1863.57,-32.83 1843.48,-25.02"/>
<polygon fill="midnightblue" stroke="midnightblue" points="1920.87,-124.3 1924.97,-134.07 1927.86,-123.88 1920.87,-124.3"/>
</g>
<!-- Node2&#45;&gt;Node23 -->
<g id="edge22" class="edge">
<title>Node2&#45;&gt;Node23</title>
<path fill="none" stroke="midnightblue" d="M1996.54,-142.27C2225.84,-139.63 2940.84,-129.07 3170,-98 3179.92,-96.65 3190.59,-94.4 3200.19,-92.07"/>
<polygon fill="midnightblue" stroke="midnightblue" points="1996.27,-138.77 1986.31,-142.38 1996.35,-145.77 1996.27,-138.77"/>
</g>
<!-- Node37 -->
<g id="node37" class="node">
<title>Node37</title>
<g id="a_node37"><a xlink:href="testAPU_8cpp.html" target="_top" xlink:title=" ">
<polygon fill="white" stroke="black" points="1925,-6 1925,-25 2051,-25 2051,-6 1925,-6"/>
<text text-anchor="middle" x="1988" y="-13" font-family="Helvetica,sans-Serif" font-size="10.00">tests/APU/testAPU.cpp</text>
</a>
</g>
</g>
<!-- Node2&#45;&gt;Node37 -->
<g id="edge40" class="edge">
<title>Node2&#45;&gt;Node37</title>
<path fill="none" stroke="midnightblue" d="M1990.19,-132.55C2028.43,-124.95 2071.44,-113.31 2083,-98 2091.3,-87 2090.1,-78.81 2083,-67 2069.92,-45.23 2043.92,-32.33 2022.43,-25.03"/>
<polygon fill="midnightblue" stroke="midnightblue" points="1989.24,-129.17 1980.08,-134.5 1990.56,-136.05 1989.24,-129.17"/>
</g>
<!-- Node39 -->
<g id="node38" class="node">
<title>Node39</title>
<g id="a_node38"><a xlink:href="testAPUInstructions_8cpp.html" target="_top" xlink:title=" ">
<polygon fill="white" stroke="black" points="2069.5,-6 2069.5,-25 2252.5,-25 2252.5,-6 2069.5,-6"/>
<text text-anchor="middle" x="2161" y="-13" font-family="Helvetica,sans-Serif" font-size="10.00">tests/APU/testAPUInstructions.cpp</text>
</a>
</g>
</g>
<!-- Node2&#45;&gt;Node39 -->
<g id="edge41" class="edge">
<title>Node2&#45;&gt;Node39</title>
<path fill="none" stroke="midnightblue" d="M1996.47,-135.72C2030.09,-129.64 2069.41,-118.48 2100,-98 2128.49,-78.92 2148.83,-41.96 2157.01,-25.17"/>
<polygon fill="midnightblue" stroke="midnightblue" points="1995.51,-132.33 1986.23,-137.45 1996.68,-139.24 1995.51,-132.33"/>
</g>
<!-- Node40 -->
<g id="node39" class="node">
<title>Node40</title>
<g id="a_node39"><a xlink:href="testOperand_8cpp.html" target="_top" xlink:title=" ">
<polygon fill="white" stroke="black" points="2270.5,-6 2270.5,-25 2417.5,-25 2417.5,-6 2270.5,-6"/>
<text text-anchor="middle" x="2344" y="-13" font-family="Helvetica,sans-Serif" font-size="10.00">tests/APU/testOperand.cpp</text>
</a>
</g>
</g>
<!-- Node2&#45;&gt;Node40 -->
<g id="edge42" class="edge">
<title>Node2&#45;&gt;Node40</title>
<path fill="none" stroke="midnightblue" d="M1988.36,-132.68C2029.35,-125.13 2083.54,-113.5 2130,-98 2161.51,-87.49 2167.16,-79.33 2198,-67 2238.84,-50.67 2287.27,-34.54 2316.81,-25.05"/>
<polygon fill="midnightblue" stroke="midnightblue" points="1987.72,-129.24 1978.5,-134.46 1988.96,-136.12 1987.72,-129.24"/>
</g>
<!-- Node23&#45;&gt;Node22 -->
<g id="edge23" class="edge">
<title>Node23&#45;&gt;Node22</title>
<path fill="none" stroke="midnightblue" d="M3190.69,-70.69C3183.83,-69.21 3176.74,-67.89 3170,-67 2617.22,5.85 2471.45,-79.48 1916,-31 1900.08,-29.61 1882.82,-27.35 1867.23,-25.02"/>
<polygon fill="midnightblue" stroke="midnightblue" points="3189.98,-74.12 3200.51,-72.96 3191.55,-67.3 3189.98,-74.12"/>
</g>
<!-- Node24 -->
<g id="node24" class="node">
<title>Node24</title>
<g id="a_node24"><a xlink:href="CGramDebug_8cpp.html" target="_top" xlink:title=" ">
<polygon fill="white" stroke="black" points="3998.5,-6 3998.5,-25 4191.5,-25 4191.5,-6 3998.5,-6"/>
<text text-anchor="middle" x="4095" y="-13" font-family="Helvetica,sans-Serif" font-size="10.00">sources/Debugger/CGramDebug.cpp</text>
</a>
</g>
</g>
<!-- Node23&#45;&gt;Node24 -->
<g id="edge24" class="edge">
<title>Node23&#45;&gt;Node24</title>
<path fill="none" stroke="midnightblue" d="M3272.24,-70.63C3278.81,-69.2 3285.57,-67.92 3292,-67 3599.49,-22.9 3680.75,-60.27 3990,-31 4006.21,-29.47 4023.77,-27.26 4039.79,-25.03"/>
<polygon fill="midnightblue" stroke="midnightblue" points="3271.1,-67.3 3262.14,-72.95 3272.67,-74.12 3271.1,-67.3"/>
</g>
<!-- Node25 -->
<g id="node25" class="node">
<title>Node25</title>
<g id="a_node25"><a xlink:href="CPUDebug_8cpp.html" target="_top" xlink:title=" ">
<polygon fill="white" stroke="black" points="4210,-0.5 4210,-30.5 4338,-30.5 4338,-0.5 4210,-0.5"/>
<text text-anchor="start" x="4218" y="-18.5" font-family="Helvetica,sans-Serif" font-size="10.00">sources/Debugger/CPU</text>
<text text-anchor="middle" x="4274" y="-7.5" font-family="Helvetica,sans-Serif" font-size="10.00">/CPUDebug.cpp</text>
</a>
</g>
</g>
<!-- Node23&#45;&gt;Node25 -->
<g id="edge25" class="edge">
<title>Node23&#45;&gt;Node25</title>
<path fill="none" stroke="midnightblue" d="M3272.02,-70.61C3278.66,-69.17 3285.49,-67.89 3292,-67 3692.56,-11.99 3799.49,-78.53 4201,-31 4203.95,-30.65 4206.96,-30.25 4210,-29.8"/>
<polygon fill="midnightblue" stroke="midnightblue" points="3270.78,-67.3 3261.81,-72.95 3272.34,-74.12 3270.78,-67.3"/>
</g>
<!-- Node26 -->
<g id="node26" class="node">
<title>Node26</title>
<g id="a_node26"><a xlink:href="Disassembly_8cpp.html" target="_top" xlink:title=" ">
<polygon fill="white" stroke="black" points="4356,-0.5 4356,-30.5 4484,-30.5 4484,-0.5 4356,-0.5"/>
<text text-anchor="start" x="4364" y="-18.5" font-family="Helvetica,sans-Serif" font-size="10.00">sources/Debugger/CPU</text>
<text text-anchor="middle" x="4420" y="-7.5" font-family="Helvetica,sans-Serif" font-size="10.00">/Disassembly.cpp</text>
</a>
</g>
</g>
<!-- Node23&#45;&gt;Node26 -->
<g id="edge26" class="edge">
<title>Node23&#45;&gt;Node26</title>
<path fill="none" stroke="midnightblue" d="M3271.32,-70.72C3278.17,-69.24 3285.26,-67.91 3292,-67 3756.97,-4.44 3880.94,-84.88 4347,-31 4349.95,-30.66 4352.96,-30.26 4356,-29.82"/>
<polygon fill="midnightblue" stroke="midnightblue" points="3270.45,-67.33 3261.5,-72.99 3272.03,-74.15 3270.45,-67.33"/>
</g>
<!-- Node27 -->
<g id="node27" class="node">
<title>Node27</title>
<g id="a_node27"><a xlink:href="HeaderViewer_8cpp.html" target="_top" xlink:title=" ">
<polygon fill="white" stroke="black" points="4508,-6 4508,-25 4704,-25 4704,-6 4508,-6"/>
<text text-anchor="middle" x="4606" y="-13" font-family="Helvetica,sans-Serif" font-size="10.00">sources/Debugger/HeaderViewer.cpp</text>
</a>
</g>
</g>
<!-- Node23&#45;&gt;Node27 -->
<g id="edge27" class="edge">
<title>Node23&#45;&gt;Node27</title>
<path fill="none" stroke="midnightblue" d="M3271.31,-70.7C3278.17,-69.21 3285.26,-67.89 3292,-67 3821.4,3.11 3960.64,-73.03 4493,-31 4511.04,-29.58 4530.62,-27.32 4548.34,-25"/>
<polygon fill="midnightblue" stroke="midnightblue" points="3270.45,-67.31 3261.49,-72.97 3272.02,-74.13 3270.45,-67.31"/>
</g>
<!-- Node28 -->
<g id="node28" class="node">
<title>Node28</title>
<g id="a_node28"><a xlink:href="MemoryBusDebug_8cpp.html" target="_top" xlink:title=" ">
<polygon fill="white" stroke="black" points="2436,-0.5 2436,-30.5 2602,-30.5 2602,-0.5 2436,-0.5"/>
<text text-anchor="start" x="2444" y="-18.5" font-family="Helvetica,sans-Serif" font-size="10.00">sources/Debugger/MemoryBus</text>
<text text-anchor="middle" x="2519" y="-7.5" font-family="Helvetica,sans-Serif" font-size="10.00">Debug.cpp</text>
</a>
</g>
</g>
<!-- Node23&#45;&gt;Node28 -->
<g id="edge28" class="edge">
<title>Node23&#45;&gt;Node28</title>
<path fill="none" stroke="midnightblue" d="M3189.53,-70.65C3183.03,-69.24 3176.36,-67.95 3170,-67 2923.79,-30.08 2858.45,-58.41 2611,-31 2608.11,-30.68 2605.17,-30.33 2602.2,-29.96"/>
<polygon fill="midnightblue" stroke="midnightblue" points="3189.01,-74.12 3199.54,-72.95 3190.57,-67.3 3189.01,-74.12"/>
</g>
<!-- Node29 -->
<g id="node29" class="node">
<title>Node29</title>
<g id="a_node29"><a xlink:href="MemoryViewer_8cpp.html" target="_top" xlink:title=" ">
<polygon fill="white" stroke="black" points="2620.5,-6 2620.5,-25 2821.5,-25 2821.5,-6 2620.5,-6"/>
<text text-anchor="middle" x="2721" y="-13" font-family="Helvetica,sans-Serif" font-size="10.00">sources/Debugger/MemoryViewer.cpp</text>
</a>
</g>
</g>
<!-- Node23&#45;&gt;Node29 -->
<g id="edge29" class="edge">
<title>Node23&#45;&gt;Node29</title>
<path fill="none" stroke="midnightblue" d="M3188.39,-70.64C3182.25,-69.29 3175.98,-68.02 3170,-67 3020.66,-41.43 2981.45,-48.9 2831,-31 2815.6,-29.17 2799.01,-27.05 2783.5,-25.02"/>
<polygon fill="midnightblue" stroke="midnightblue" points="3188.02,-74.15 3198.55,-72.98 3189.59,-67.33 3188.02,-74.15"/>
</g>
<!-- Node30 -->
<g id="node30" class="node">
<title>Node30</title>
<g id="a_node30"><a xlink:href="RegisterViewer_8cpp.html" target="_top" xlink:title=" ">
<polygon fill="white" stroke="black" points="2840,-0.5 2840,-30.5 2988,-30.5 2988,-0.5 2840,-0.5"/>
<text text-anchor="start" x="2848" y="-18.5" font-family="Helvetica,sans-Serif" font-size="10.00">sources/Debugger/Register</text>
<text text-anchor="middle" x="2914" y="-7.5" font-family="Helvetica,sans-Serif" font-size="10.00">Viewer.cpp</text>
</a>
</g>
</g>
<!-- Node23&#45;&gt;Node30 -->
<g id="edge30" class="edge">
<title>Node23&#45;&gt;Node30</title>
<path fill="none" stroke="midnightblue" d="M3186.4,-70.69C3180.89,-69.41 3175.32,-68.16 3170,-67 3108.91,-53.72 3039.29,-40.08 2988.09,-30.33"/>
<polygon fill="midnightblue" stroke="midnightblue" points="3185.68,-74.11 3196.21,-72.99 3187.28,-67.3 3185.68,-74.11"/>
</g>
<!-- Node31 -->
<g id="node31" class="node">
<title>Node31</title>
<g id="a_node31"><a xlink:href="TileViewer_8cpp.html" target="_top" xlink:title=" ">
<polygon fill="white" stroke="black" points="3006.5,-0.5 3006.5,-30.5 3165.5,-30.5 3165.5,-0.5 3006.5,-0.5"/>
<text text-anchor="start" x="3014.5" y="-18.5" font-family="Helvetica,sans-Serif" font-size="10.00">sources/Debugger/TileViewer</text>
<text text-anchor="middle" x="3086" y="-7.5" font-family="Helvetica,sans-Serif" font-size="10.00">/TileViewer.cpp</text>
</a>
</g>
</g>
<!-- Node23&#45;&gt;Node31 -->
<g id="edge31" class="edge">
<title>Node23&#45;&gt;Node31</title>
<path fill="none" stroke="midnightblue" d="M3202.6,-68.77C3178.05,-57.77 3142.64,-41.89 3117.29,-30.53"/>
<polygon fill="midnightblue" stroke="midnightblue" points="3201.19,-71.97 3211.75,-72.87 3204.05,-65.58 3201.19,-71.97"/>
</g>
<!-- Node32 -->
<g id="node32" class="node">
<title>Node32</title>
<g id="a_node32"><a xlink:href="main_8cpp.html" target="_top" xlink:title=" ">
<polygon fill="white" stroke="black" points="3183,-6 3183,-25 3285,-25 3285,-6 3183,-6"/>
<text text-anchor="middle" x="3234" y="-13" font-family="Helvetica,sans-Serif" font-size="10.00">sources/main.cpp</text>
</a>
</g>
</g>
<!-- Node23&#45;&gt;Node32 -->
<g id="edge32" class="edge">
<title>Node23&#45;&gt;Node32</title>
<path fill="none" stroke="midnightblue" d="M3231.88,-62.54C3232.45,-50.17 3233.16,-34.62 3233.6,-25.13"/>
<polygon fill="midnightblue" stroke="midnightblue" points="3228.37,-62.58 3231.4,-72.73 3235.36,-62.91 3228.37,-62.58"/>
</g>
<!-- Node33 -->
<g id="node33" class="node">
<title>Node33</title>
<g id="a_node33"><a xlink:href="MemoryBus_8cpp.html" target="_top" xlink:title=" ">
<polygon fill="white" stroke="black" points="3303.5,-6 3303.5,-25 3482.5,-25 3482.5,-6 3303.5,-6"/>
<text text-anchor="middle" x="3393" y="-13" font-family="Helvetica,sans-Serif" font-size="10.00">sources/Memory/MemoryBus.cpp</text>
</a>
</g>
</g>
<!-- Node23&#45;&gt;Node33 -->
<g id="edge33" class="edge">
<title>Node23&#45;&gt;Node33</title>
<path fill="none" stroke="midnightblue" d="M3261.89,-69.1C3294.06,-56.2 3343.58,-36.33 3371.66,-25.06"/>
<polygon fill="midnightblue" stroke="midnightblue" points="3260.49,-65.9 3252.51,-72.87 3263.1,-72.39 3260.49,-65.9"/>
</g>
<!-- Node34 -->
<g id="node34" class="node">
<title>Node34</title>
<g id="a_node34"><a xlink:href="QtSFML_8cpp.html" target="_top" xlink:title=" ">
<polygon fill="white" stroke="black" points="3501,-0.5 3501,-30.5 3661,-30.5 3661,-0.5 3501,-0.5"/>
<text text-anchor="start" x="3509" y="-18.5" font-family="Helvetica,sans-Serif" font-size="10.00">sources/Renderer/QtRenderer</text>
<text text-anchor="middle" x="3581" y="-7.5" font-family="Helvetica,sans-Serif" font-size="10.00">/QtSFML.cpp</text>
</a>
</g>
</g>
<!-- Node23&#45;&gt;Node34 -->
<g id="edge34" class="edge">
<title>Node23&#45;&gt;Node34</title>
<path fill="none" stroke="midnightblue" d="M3275.37,-70.62C3280.95,-69.35 3286.6,-68.11 3292,-67 3330.91,-58.98 3429.72,-41.98 3500.97,-29.93"/>
<polygon fill="midnightblue" stroke="midnightblue" points="3274.39,-67.26 3265.44,-72.93 3275.97,-74.08 3274.39,-67.26"/>
</g>
<!-- Node35 -->
<g id="node35" class="node">
<title>Node35</title>
<g id="a_node35"><a xlink:href="SFRenderer_8cpp.html" target="_top" xlink:title=" ">
<polygon fill="white" stroke="black" points="3679,-6 3679,-25 3859,-25 3859,-6 3679,-6"/>
<text text-anchor="middle" x="3769" y="-13" font-family="Helvetica,sans-Serif" font-size="10.00">sources/Renderer/SFRenderer.cpp</text>
</a>
</g>
</g>
<!-- Node23&#45;&gt;Node35 -->
<g id="edge35" class="edge">
<title>Node23&#45;&gt;Node35</title>
<path fill="none" stroke="midnightblue" d="M3272.93,-70.73C3279.29,-69.33 3285.8,-68.03 3292,-67 3458.49,-39.42 3502.46,-51.23 3670,-31 3684.4,-29.26 3699.94,-27.11 3714.34,-25.01"/>
<polygon fill="midnightblue" stroke="midnightblue" points="3272.08,-67.33 3263.12,-72.98 3273.65,-74.15 3272.08,-67.33"/>
</g>
<!-- Node36 -->
<g id="node36" class="node">
<title>Node36</title>
<g id="a_node36"><a xlink:href="SNES_8cpp.html" target="_top" xlink:title=" ">
<polygon fill="white" stroke="black" points="3877.5,-6 3877.5,-25 3980.5,-25 3980.5,-6 3877.5,-6"/>
<text text-anchor="middle" x="3929" y="-13" font-family="Helvetica,sans-Serif" font-size="10.00">sources/SNES.cpp</text>
</a>
</g>
</g>
<!-- Node23&#45;&gt;Node36 -->
<g id="edge36" class="edge">
<title>Node23&#45;&gt;Node36</title>
<path fill="none" stroke="midnightblue" d="M3272.47,-70.64C3278.97,-69.23 3285.64,-67.95 3292,-67 3545.7,-29.2 3614.3,-68.8 3868,-31 3877.69,-29.56 3888.11,-27.34 3897.54,-25.06"/>
<polygon fill="midnightblue" stroke="midnightblue" points="3271.42,-67.29 3262.46,-72.94 3272.99,-74.11 3271.42,-67.29"/>
</g>
<!-- Node23&#45;&gt;Node37 -->
<g id="edge37" class="edge">
<title>Node23&#45;&gt;Node37</title>
<path fill="none" stroke="midnightblue" d="M3190.69,-70.71C3183.83,-69.23 3176.74,-67.9 3170,-67 2680.76,-1.6 2550.3,-87.92 2060,-31 2048.35,-29.65 2035.77,-27.39 2024.44,-25.06"/>
<polygon fill="midnightblue" stroke="midnightblue" points="3189.97,-74.14 3200.51,-72.98 3191.55,-67.32 3189.97,-74.14"/>
</g>
<!-- Node23&#45;&gt;Node39 -->
<g id="edge38" class="edge">
<title>Node23&#45;&gt;Node39</title>
<path fill="none" stroke="midnightblue" d="M3189.98,-70.61C3183.34,-69.17 3176.51,-67.89 3170,-67 2769.44,-11.99 2663.61,-68.06 2261,-31 2245.19,-29.54 2228.06,-27.31 2212.52,-25.02"/>
<polygon fill="midnightblue" stroke="midnightblue" points="3189.66,-74.12 3200.19,-72.95 3191.22,-67.3 3189.66,-74.12"/>
</g>
<!-- Node23&#45;&gt;Node40 -->
<g id="edge39" class="edge">
<title>Node23&#45;&gt;Node40</title>
<path fill="none" stroke="midnightblue" d="M3189.76,-70.61C3183.19,-69.19 3176.44,-67.91 3170,-67 2842.67,-20.57 2755.59,-67.52 2427,-31 2413.92,-29.55 2399.77,-27.32 2386.93,-25.05"/>
<polygon fill="midnightblue" stroke="midnightblue" points="3189.34,-74.1 3199.87,-72.93 3190.9,-67.28 3189.34,-74.1"/>
</g>
<!-- Node59&#45;&gt;Node23 -->
<g id="edge53" class="edge">
<title>Node59&#45;&gt;Node23</title>
<path fill="none" stroke="midnightblue" d="M3703.62,-139.49C3609.02,-134.13 3437.12,-121.89 3292,-98 3282.55,-96.44 3272.39,-94.24 3263.12,-92.03"/>
<polygon fill="midnightblue" stroke="midnightblue" points="3703.47,-142.99 3713.65,-140.05 3703.86,-136 3703.47,-142.99"/>
</g>
<!-- Node60 -->
<g id="node42" class="node">
<title>Node60</title>
<g id="a_node42"><a xlink:href="AddressingModes_8cpp.html" target="_top" xlink:title=" ">
<polygon fill="white" stroke="black" points="4100.5,-73 4100.5,-92 4287.5,-92 4287.5,-73 4100.5,-73"/>
<text text-anchor="middle" x="4194" y="-80" font-family="Helvetica,sans-Serif" font-size="10.00">sources/CPU/AddressingModes.cpp</text>
</a>
</g>
</g>
<!-- Node59&#45;&gt;Node60 -->
<g id="edge45" class="edge">
<title>Node59&#45;&gt;Node60</title>
<path fill="none" stroke="midnightblue" d="M3845.2,-133.04C3909.43,-123.92 4007.11,-110.06 4092,-98 4105.64,-96.06 4120.3,-93.98 4134.13,-92.01"/>
<polygon fill="midnightblue" stroke="midnightblue" points="3844.59,-129.59 3835.18,-134.46 3845.57,-136.52 3844.59,-129.59"/>
</g>
<!-- Node61 -->
<g id="node43" class="node">
<title>Node61</title>
<g id="a_node43"><a xlink:href="CPU_8cpp.html" target="_top" xlink:title=" ">
<polygon fill="white" stroke="black" points="4305.5,-73 4305.5,-92 4426.5,-92 4426.5,-73 4305.5,-73"/>
<text text-anchor="middle" x="4366" y="-80" font-family="Helvetica,sans-Serif" font-size="10.00">sources/CPU/CPU.cpp</text>
</a>
</g>
</g>
<!-- Node59&#45;&gt;Node61 -->
<g id="edge46" class="edge">
<title>Node59&#45;&gt;Node61</title>
<path fill="none" stroke="midnightblue" d="M3846.43,-139.59C3947.26,-134.15 4136.92,-121.63 4297,-98 4307.66,-96.43 4319.14,-94.22 4329.62,-92.01"/>
<polygon fill="midnightblue" stroke="midnightblue" points="3846.16,-136.1 3836.36,-140.12 3846.53,-143.09 3846.16,-136.1"/>
</g>
<!-- Node62 -->
<g id="node44" class="node">
<title>Node62</title>
<g id="a_node44"><a xlink:href="BitsInstructions_8cpp.html" target="_top" xlink:title=" ">
<polygon fill="white" stroke="black" points="4444.5,-67.5 4444.5,-97.5 4581.5,-97.5 4581.5,-67.5 4444.5,-67.5"/>
<text text-anchor="start" x="4452.5" y="-85.5" font-family="Helvetica,sans-Serif" font-size="10.00">sources/CPU/Instructions</text>
<text text-anchor="middle" x="4513" y="-74.5" font-family="Helvetica,sans-Serif" font-size="10.00">/BitsInstructions.cpp</text>
</a>
</g>
</g>
<!-- Node59&#45;&gt;Node62 -->
<g id="edge47" class="edge">
<title>Node59&#45;&gt;Node62</title>
<path fill="none" stroke="midnightblue" d="M3846.58,-140.9C3968.16,-136.71 4222.59,-125.26 4436,-98 4438.7,-97.66 4441.45,-97.28 4444.22,-96.87"/>
<polygon fill="midnightblue" stroke="midnightblue" points="3846.17,-137.41 3836.29,-141.25 3846.4,-144.41 3846.17,-137.41"/>
</g>
<!-- Node63 -->
<g id="node45" class="node">
<title>Node63</title>
<g id="a_node45"><a xlink:href="InternalInstruction_8cpp.html" target="_top" xlink:title=" ">
<polygon fill="white" stroke="black" points="3301.5,-67.5 3301.5,-97.5 3438.5,-97.5 3438.5,-67.5 3301.5,-67.5"/>
<text text-anchor="start" x="3309.5" y="-85.5" font-family="Helvetica,sans-Serif" font-size="10.00">sources/CPU/Instructions</text>
<text text-anchor="middle" x="3370" y="-74.5" font-family="Helvetica,sans-Serif" font-size="10.00">/InternalInstruction.cpp</text>
</a>
</g>
</g>
<!-- Node59&#45;&gt;Node63 -->
<g id="edge48" class="edge">
<title>Node59&#45;&gt;Node63</title>
<path fill="none" stroke="midnightblue" d="M3703.85,-134.28C3637.31,-125.87 3535.23,-112.35 3447,-98 3444.31,-97.56 3441.58,-97.11 3438.82,-96.63"/>
<polygon fill="midnightblue" stroke="midnightblue" points="3703.45,-137.75 3713.81,-135.53 3704.32,-130.81 3703.45,-137.75"/>
</g>
<!-- Node64 -->
<g id="node46" class="node">
<title>Node64</title>
<g id="a_node46"><a xlink:href="Interrupts_8cpp.html" target="_top" xlink:title=" ">
<polygon fill="white" stroke="black" points="3456.5,-67.5 3456.5,-97.5 3593.5,-97.5 3593.5,-67.5 3456.5,-67.5"/>
<text text-anchor="start" x="3464.5" y="-85.5" font-family="Helvetica,sans-Serif" font-size="10.00">sources/CPU/Instructions</text>
<text text-anchor="middle" x="3525" y="-74.5" font-family="Helvetica,sans-Serif" font-size="10.00">/Interrupts.cpp</text>
</a>
</g>
</g>
<!-- Node59&#45;&gt;Node64 -->
<g id="edge49" class="edge">
<title>Node59&#45;&gt;Node64</title>
<path fill="none" stroke="midnightblue" d="M3729.23,-132.11C3688.39,-122.39 3628.34,-108.1 3583.92,-97.52"/>
<polygon fill="midnightblue" stroke="midnightblue" points="3728.64,-135.56 3739.18,-134.48 3730.26,-128.75 3728.64,-135.56"/>
</g>
<!-- Node65 -->
<g id="node47" class="node">
<title>Node65</title>
<g id="a_node47"><a xlink:href="MathematicalOperations_8cpp.html" target="_top" xlink:title=" ">
<polygon fill="white" stroke="black" points="3611.5,-67.5 3611.5,-97.5 3772.5,-97.5 3772.5,-67.5 3611.5,-67.5"/>
<text text-anchor="start" x="3619.5" y="-85.5" font-family="Helvetica,sans-Serif" font-size="10.00">sources/CPU/Instructions</text>
<text text-anchor="middle" x="3692" y="-74.5" font-family="Helvetica,sans-Serif" font-size="10.00">/MathematicalOperations.cpp</text>
</a>
</g>
</g>
<!-- Node59&#45;&gt;Node65 -->
<g id="edge50" class="edge">
<title>Node59&#45;&gt;Node65</title>
<path fill="none" stroke="midnightblue" d="M3754.73,-128.47C3741.59,-119.05 3724.56,-106.84 3711.56,-97.52"/>
<polygon fill="midnightblue" stroke="midnightblue" points="3752.94,-131.49 3763.11,-134.48 3757.02,-125.8 3752.94,-131.49"/>
</g>
<!-- Node66 -->
<g id="node48" class="node">
<title>Node66</title>
<g id="a_node48"><a xlink:href="MemoryInstructions_8cpp.html" target="_top" xlink:title=" ">
<polygon fill="white" stroke="black" points="3790.5,-67.5 3790.5,-97.5 3927.5,-97.5 3927.5,-67.5 3790.5,-67.5"/>
<text text-anchor="start" x="3798.5" y="-85.5" font-family="Helvetica,sans-Serif" font-size="10.00">sources/CPU/Instructions</text>
<text text-anchor="middle" x="3859" y="-74.5" font-family="Helvetica,sans-Serif" font-size="10.00">/MemoryInstructions.cpp</text>
</a>
</g>
</g>
<!-- Node59&#45;&gt;Node66 -->
<g id="edge51" class="edge">
<title>Node59&#45;&gt;Node66</title>
<path fill="none" stroke="midnightblue" d="M3795.52,-128.47C3808.82,-119.05 3826.05,-106.84 3839.2,-97.52"/>
<polygon fill="midnightblue" stroke="midnightblue" points="3793.17,-125.84 3787.04,-134.48 3797.22,-131.55 3793.17,-125.84"/>
</g>
<!-- Node67 -->
<g id="node49" class="node">
<title>Node67</title>
<g id="a_node49"><a xlink:href="TransferRegisters_8cpp.html" target="_top" xlink:title=" ">
<polygon fill="white" stroke="black" points="3945.5,-67.5 3945.5,-97.5 4082.5,-97.5 4082.5,-67.5 3945.5,-67.5"/>
<text text-anchor="start" x="3953.5" y="-85.5" font-family="Helvetica,sans-Serif" font-size="10.00">sources/CPU/Instructions</text>
<text text-anchor="middle" x="4014" y="-74.5" font-family="Helvetica,sans-Serif" font-size="10.00">/TransferRegisters.cpp</text>
</a>
</g>
</g>
<!-- Node59&#45;&gt;Node67 -->
<g id="edge52" class="edge">
<title>Node59&#45;&gt;Node67</title>
<path fill="none" stroke="midnightblue" d="M3819.25,-131.98C3858.29,-122.27 3915.39,-108.05 3957.67,-97.52"/>
<polygon fill="midnightblue" stroke="midnightblue" points="3818.1,-128.66 3809.24,-134.48 3819.79,-135.46 3818.1,-128.66"/>
</g>
<!-- Node68&#45;&gt;Node27 -->
<g id="edge55" class="edge">
<title>Node68&#45;&gt;Node27</title>
<path fill="none" stroke="midnightblue" d="M4431.79,-137.23C4495.76,-131.52 4568.42,-120.23 4591,-98 4610.89,-78.42 4609.25,-41.71 4607.29,-25.08"/>
<polygon fill="midnightblue" stroke="midnightblue" points="4431.27,-133.76 4421.6,-138.1 4431.87,-140.74 4431.27,-133.76"/>
</g>
</g>
</svg>
