<?xml version="1.0" encoding="UTF-8" standalone="no"?>
<!DOCTYPE svg PUBLIC "-//W3C//DTD SVG 1.1//EN"
 "http://www.w3.org/Graphics/SVG/1.1/DTD/svg11.dtd">
<!-- Generated by graphviz version 2.43.0 (0)
 -->
<!-- Title: sources/Cartridge/Cartridge.cpp Pages: 1 -->
<svg width="1196pt" height="364pt"
 viewBox="0.00 0.00 1195.50 364.00" xmlns="http://www.w3.org/2000/svg" xmlns:xlink="http://www.w3.org/1999/xlink">
<g id="graph0" class="graph" transform="scale(1 1) rotate(0) translate(4 360)">
<title>sources/Cartridge/Cartridge.cpp</title>
<polygon fill="white" stroke="transparent" points="-4,4 -4,-360 1191.5,-360 1191.5,4 -4,4"/>
<!-- Node1 -->
<g id="node1" class="node">
<title>Node1</title>
<g id="a_node1"><a xlink:title=" ">
<polygon fill="#bfbfbf" stroke="black" points="863,-336.5 863,-355.5 1033,-355.5 1033,-336.5 863,-336.5"/>
<text text-anchor="middle" x="948" y="-343.5" font-family="Helvetica,sans-Serif" font-size="10.00">sources/Cartridge/Cartridge.cpp</text>
</a>
</g>
</g>
<!-- Node2 -->
<g id="node2" class="node">
<title>Node2</title>
<g id="a_node2"><a xlink:href="Cartridge_8hpp.html" target="_top" xlink:title=" ">
<polygon fill="white" stroke="black" points="439.5,-280.5 439.5,-299.5 522.5,-299.5 522.5,-280.5 439.5,-280.5"/>
<text text-anchor="middle" x="481" y="-287.5" font-family="Helvetica,sans-Serif" font-size="10.00">Cartridge.hpp</text>
</a>
</g>
</g>
<!-- Node1&#45;&gt;Node2 -->
<g id="edge1" class="edge">
<title>Node1&#45;&gt;Node2</title>
<path fill="none" stroke="midnightblue" d="M874.26,-336.47C779.02,-325.46 615.66,-306.57 532.66,-296.97"/>
<polygon fill="midnightblue" stroke="midnightblue" points="533.04,-293.49 522.7,-295.82 532.23,-300.45 533.04,-293.49"/>
</g>
<!-- Node18 -->
<g id="node18" class="node">
<title>Node18</title>
<g id="a_node18"><a xlink:href="InvalidAction_8hpp.html" target="_top" xlink:title=" ">
<polygon fill="white" stroke="black" points="640,-280.5 640,-299.5 798,-299.5 798,-280.5 640,-280.5"/>
<text text-anchor="middle" x="719" y="-287.5" font-family="Helvetica,sans-Serif" font-size="10.00">Exceptions/InvalidAction.hpp</text>
</a>
</g>
</g>
<!-- Node1&#45;&gt;Node18 -->
<g id="edge31" class="edge">
<title>Node1&#45;&gt;Node18</title>
<path fill="none" stroke="midnightblue" d="M911.71,-336.44C872.02,-327.08 808.29,-312.06 765.09,-301.87"/>
<polygon fill="midnightblue" stroke="midnightblue" points="765.65,-298.41 755.12,-299.52 764.05,-305.22 765.65,-298.41"/>
</g>
<!-- Node22 -->
<g id="node22" class="node">
<title>Node22</title>
<g id="a_node22"><a xlink:href="InvalidRom_8hpp.html" target="_top" xlink:title=" ">
<polygon fill="white" stroke="black" points="815.5,-280.5 815.5,-299.5 964.5,-299.5 964.5,-280.5 815.5,-280.5"/>
<text text-anchor="middle" x="890" y="-287.5" font-family="Helvetica,sans-Serif" font-size="10.00">Exceptions/InvalidRom.hpp</text>
</a>
</g>
</g>
<!-- Node1&#45;&gt;Node22 -->
<g id="edge36" class="edge">
<title>Node1&#45;&gt;Node22</title>
<path fill="none" stroke="midnightblue" d="M938.68,-336.32C930.11,-328.34 917.19,-316.31 906.81,-306.65"/>
<polygon fill="midnightblue" stroke="midnightblue" points="909.19,-304.09 899.49,-299.83 904.42,-309.21 909.19,-304.09"/>
</g>
<!-- Node23 -->
<g id="node23" class="node">
<title>Node23</title>
<g id="a_node23"><a xlink:title=" ">
<polygon fill="white" stroke="#bfbfbf" points="982,-280.5 982,-299.5 1032,-299.5 1032,-280.5 982,-280.5"/>
<text text-anchor="middle" x="1007" y="-287.5" font-family="Helvetica,sans-Serif" font-size="10.00">cstring</text>
</a>
</g>
</g>
<!-- Node1&#45;&gt;Node23 -->
<g id="edge40" class="edge">
<title>Node1&#45;&gt;Node23</title>
<path fill="none" stroke="midnightblue" d="M957.48,-336.32C966.2,-328.34 979.34,-316.31 989.9,-306.65"/>
<polygon fill="midnightblue" stroke="midnightblue" points="992.33,-309.17 997.35,-299.83 987.61,-304 992.33,-309.17"/>
</g>
<!-- Node24 -->
<g id="node24" class="node">
<title>Node24</title>
<g id="a_node24"><a xlink:title=" ">
<polygon fill="white" stroke="#bfbfbf" points="1050,-280.5 1050,-299.5 1114,-299.5 1114,-280.5 1050,-280.5"/>
<text text-anchor="middle" x="1082" y="-287.5" font-family="Helvetica,sans-Serif" font-size="10.00">sys/stat.h</text>
</a>
</g>
</g>
<!-- Node1&#45;&gt;Node24 -->
<g id="edge41" class="edge">
<title>Node1&#45;&gt;Node24</title>
<path fill="none" stroke="midnightblue" d="M969.23,-336.44C991.38,-327.52 1026.32,-313.44 1051.44,-303.32"/>
<polygon fill="midnightblue" stroke="midnightblue" points="1052.9,-306.5 1060.87,-299.52 1050.28,-300.01 1052.9,-306.5"/>
</g>
<!-- Node25 -->
<g id="node25" class="node">
<title>Node25</title>
<g id="a_node25"><a xlink:title=" ">
<polygon fill="white" stroke="#bfbfbf" points="1132.5,-280.5 1132.5,-299.5 1187.5,-299.5 1187.5,-280.5 1132.5,-280.5"/>
<text text-anchor="middle" x="1160" y="-287.5" font-family="Helvetica,sans-Serif" font-size="10.00">fstream</text>
</a>
</g>
</g>
<!-- Node1&#45;&gt;Node25 -->
<g id="edge42" class="edge">
<title>Node1&#45;&gt;Node25</title>
<path fill="none" stroke="midnightblue" d="M981.59,-336.44C1019.94,-326.68 1082.49,-310.74 1122.42,-300.57"/>
<polygon fill="midnightblue" stroke="midnightblue" points="1123.48,-303.91 1132.31,-298.05 1121.75,-297.13 1123.48,-303.91"/>
</g>
<!-- Node3 -->
<g id="node3" class="node">
<title>Node3</title>
<g id="a_node3"><a xlink:href="InterruptVectors_8hpp.html" target="_top" xlink:title=" ">
<polygon fill="white" stroke="black" points="0,-112.5 0,-131.5 116,-131.5 116,-112.5 0,-112.5"/>
<text text-anchor="middle" x="58" y="-119.5" font-family="Helvetica,sans-Serif" font-size="10.00">InterruptVectors.hpp</text>
</a>
</g>
</g>
<!-- Node2&#45;&gt;Node3 -->
<g id="edge2" class="edge">
<title>Node2&#45;&gt;Node3</title>
<path fill="none" stroke="midnightblue" d="M439.24,-288.15C357.52,-285.77 180.08,-276.87 130,-244 92.82,-219.6 72.12,-168.77 63.26,-141.4"/>
<polygon fill="midnightblue" stroke="midnightblue" points="66.52,-140.1 60.25,-131.55 59.82,-142.14 66.52,-140.1"/>
</g>
<!-- Node5 -->
<g id="node5" class="node">
<title>Node5</title>
<g id="a_node5"><a xlink:href="AMemory_8hpp.html" target="_top" xlink:title=" ">
<polygon fill="white" stroke="black" points="366.5,-168.5 366.5,-187.5 493.5,-187.5 493.5,-168.5 366.5,-168.5"/>
<text text-anchor="middle" x="430" y="-175.5" font-family="Helvetica,sans-Serif" font-size="10.00">Memory/AMemory.hpp</text>
</a>
</g>
</g>
<!-- Node2&#45;&gt;Node5 -->
<g id="edge4" class="edge">
<title>Node2&#45;&gt;Node5</title>
<path fill="none" stroke="midnightblue" d="M477,-280.37C468.69,-262.46 449.44,-220.92 438.32,-196.95"/>
<polygon fill="midnightblue" stroke="midnightblue" points="441.36,-195.19 433.98,-187.59 435.01,-198.14 441.36,-195.19"/>
</g>
<!-- Node9 -->
<g id="node9" class="node">
<title>Node9</title>
<g id="a_node9"><a xlink:title=" ">
<polygon fill="white" stroke="#bfbfbf" points="615,-56.5 615,-75.5 659,-75.5 659,-56.5 615,-56.5"/>
<text text-anchor="middle" x="637" y="-63.5" font-family="Helvetica,sans-Serif" font-size="10.00">string</text>
</a>
</g>
</g>
<!-- Node2&#45;&gt;Node9 -->
<g id="edge30" class="edge">
<title>Node2&#45;&gt;Node9</title>
<path fill="none" stroke="midnightblue" d="M512.08,-280.37C532.42,-273.39 558.39,-261.75 576,-244 620.21,-199.45 632.43,-121.4 635.77,-85.74"/>
<polygon fill="midnightblue" stroke="midnightblue" points="639.26,-85.99 636.57,-75.74 632.28,-85.43 639.26,-85.99"/>
</g>
<!-- Node10 -->
<g id="node10" class="node">
<title>Node10</title>
<g id="a_node10"><a xlink:href="Ints_8hpp.html" target="_top" xlink:title=" ">
<polygon fill="white" stroke="black" points="106,-56.5 106,-75.5 200,-75.5 200,-56.5 106,-56.5"/>
<text text-anchor="middle" x="153" y="-63.5" font-family="Helvetica,sans-Serif" font-size="10.00">Models/Ints.hpp</text>
</a>
</g>
</g>
<!-- Node2&#45;&gt;Node10 -->
<g id="edge23" class="edge">
<title>Node2&#45;&gt;Node10</title>
<path fill="none" stroke="midnightblue" d="M439.42,-289.42C369.81,-287.64 230.69,-272.94 163,-188 139.66,-158.71 143.9,-111.78 148.68,-85.81"/>
<polygon fill="midnightblue" stroke="midnightblue" points="152.16,-86.29 150.75,-75.79 145.3,-84.87 152.16,-86.29"/>
</g>
<!-- Node14 -->
<g id="node14" class="node">
<title>Node14</title>
<g id="a_node14"><a xlink:href="ARectangleMemory_8hpp.html" target="_top" xlink:title=" ">
<polygon fill="white" stroke="black" points="172,-168.5 172,-187.5 348,-187.5 348,-168.5 172,-168.5"/>
<text text-anchor="middle" x="260" y="-175.5" font-family="Helvetica,sans-Serif" font-size="10.00">Memory/ARectangleMemory.hpp</text>
</a>
</g>
</g>
<!-- Node2&#45;&gt;Node14 -->
<g id="edge20" class="edge">
<title>Node2&#45;&gt;Node14</title>
<path fill="none" stroke="midnightblue" d="M463.66,-280.37C425.09,-261.17 332.01,-214.84 286.27,-192.07"/>
<polygon fill="midnightblue" stroke="midnightblue" points="287.77,-188.91 277.26,-187.59 284.65,-195.18 287.77,-188.91"/>
</g>
<!-- Node15 -->
<g id="node15" class="node">
<title>Node15</title>
<g id="a_node15"><a xlink:href="Ram_8hpp.html" target="_top" xlink:title=" ">
<polygon fill="white" stroke="black" points="481,-224.5 481,-243.5 567,-243.5 567,-224.5 481,-224.5"/>
<text text-anchor="middle" x="524" y="-231.5" font-family="Helvetica,sans-Serif" font-size="10.00">Ram/Ram.hpp</text>
</a>
</g>
</g>
<!-- Node2&#45;&gt;Node15 -->
<g id="edge24" class="edge">
<title>Node2&#45;&gt;Node15</title>
<path fill="none" stroke="midnightblue" d="M488.1,-280.08C494.24,-272.38 503.27,-261.03 510.74,-251.65"/>
<polygon fill="midnightblue" stroke="midnightblue" points="513.54,-253.75 517.03,-243.75 508.06,-249.39 513.54,-253.75"/>
</g>
<!-- Node17 -->
<g id="node17" class="node">
<title>Node17</title>
<g id="a_node17"><a xlink:title=" ">
<polygon fill="white" stroke="#bfbfbf" points="623,-224.5 623,-243.5 691,-243.5 691,-224.5 623,-224.5"/>
<text text-anchor="middle" x="657" y="-231.5" font-family="Helvetica,sans-Serif" font-size="10.00">filesystem</text>
</a>
</g>
</g>
<!-- Node2&#45;&gt;Node17 -->
<g id="edge29" class="edge">
<title>Node2&#45;&gt;Node17</title>
<path fill="none" stroke="midnightblue" d="M508.89,-280.44C538.75,-271.28 586.31,-256.69 619.46,-246.52"/>
<polygon fill="midnightblue" stroke="midnightblue" points="620.71,-249.8 629.24,-243.52 618.66,-243.1 620.71,-249.8"/>
</g>
<!-- Node4 -->
<g id="node4" class="node">
<title>Node4</title>
<g id="a_node4"><a xlink:title=" ">
<polygon fill="white" stroke="#bfbfbf" points="38,-0.5 38,-19.5 100,-19.5 100,-0.5 38,-0.5"/>
<text text-anchor="middle" x="69" y="-7.5" font-family="Helvetica,sans-Serif" font-size="10.00">cinttypes</text>
</a>
</g>
</g>
<!-- Node3&#45;&gt;Node4 -->
<g id="edge3" class="edge">
<title>Node3&#45;&gt;Node4</title>
<path fill="none" stroke="midnightblue" d="M58.86,-112.37C60.64,-94.62 64.73,-53.67 67.14,-29.6"/>
<polygon fill="midnightblue" stroke="midnightblue" points="70.63,-29.89 68.14,-19.59 63.66,-29.19 70.63,-29.89"/>
</g>
<!-- Node6 -->
<g id="node6" class="node">
<title>Node6</title>
<g id="a_node6"><a xlink:title=" ">
<polygon fill="white" stroke="#bfbfbf" points="374,-56.5 374,-75.5 424,-75.5 424,-56.5 374,-56.5"/>
<text text-anchor="middle" x="399" y="-63.5" font-family="Helvetica,sans-Serif" font-size="10.00">cstdint</text>
</a>
</g>
</g>
<!-- Node5&#45;&gt;Node6 -->
<g id="edge5" class="edge">
<title>Node5&#45;&gt;Node6</title>
<path fill="none" stroke="midnightblue" d="M427.57,-168.37C422.54,-150.54 410.92,-109.3 404.15,-85.27"/>
<polygon fill="midnightblue" stroke="midnightblue" points="407.5,-84.27 401.42,-75.59 400.77,-86.17 407.5,-84.27"/>
</g>
<!-- Node7 -->
<g id="node7" class="node">
<title>Node7</title>
<g id="a_node7"><a xlink:title=" ">
<polygon fill="white" stroke="#bfbfbf" points="518.5,-56.5 518.5,-75.5 565.5,-75.5 565.5,-56.5 518.5,-56.5"/>
<text text-anchor="middle" x="542" y="-63.5" font-family="Helvetica,sans-Serif" font-size="10.00">vector</text>
</a>
</g>
</g>
<!-- Node5&#45;&gt;Node7 -->
<g id="edge6" class="edge">
<title>Node5&#45;&gt;Node7</title>
<path fill="none" stroke="midnightblue" d="M438.79,-168.37C457.6,-149.89 501.99,-106.29 525.97,-82.74"/>
<polygon fill="midnightblue" stroke="midnightblue" points="528.57,-85.1 533.25,-75.59 523.67,-80.1 528.57,-85.1"/>
</g>
<!-- Node8 -->
<g id="node8" class="node">
<title>Node8</title>
<g id="a_node8"><a xlink:title=" ">
<polygon fill="white" stroke="#bfbfbf" points="442,-56.5 442,-75.5 500,-75.5 500,-56.5 442,-56.5"/>
<text text-anchor="middle" x="471" y="-63.5" font-family="Helvetica,sans-Serif" font-size="10.00">memory</text>
</a>
</g>
</g>
<!-- Node5&#45;&gt;Node8 -->
<g id="edge7" class="edge">
<title>Node5&#45;&gt;Node8</title>
<path fill="none" stroke="midnightblue" d="M433.22,-168.37C439.86,-150.54 455.24,-109.3 464.19,-85.27"/>
<polygon fill="midnightblue" stroke="midnightblue" points="467.58,-86.18 467.8,-75.59 461.03,-83.74 467.58,-86.18"/>
</g>
<!-- Node5&#45;&gt;Node9 -->
<g id="edge8" class="edge">
<title>Node5&#45;&gt;Node9</title>
<path fill="none" stroke="midnightblue" d="M446.24,-168.37C482.22,-149.25 568.82,-103.23 611.86,-80.36"/>
<polygon fill="midnightblue" stroke="midnightblue" points="613.64,-83.37 620.83,-75.59 610.36,-77.19 613.64,-83.37"/>
</g>
<!-- Node5&#45;&gt;Node10 -->
<g id="edge9" class="edge">
<title>Node5&#45;&gt;Node10</title>
<path fill="none" stroke="midnightblue" d="M401.5,-168.48C373.96,-160.01 331.2,-146.27 295,-132 253.93,-115.81 207.67,-93.92 179.43,-80.13"/>
<polygon fill="midnightblue" stroke="midnightblue" points="180.75,-76.88 170.23,-75.62 177.66,-83.17 180.75,-76.88"/>
</g>
<!-- Node12 -->
<g id="node12" class="node">
<title>Node12</title>
<g id="a_node12"><a xlink:href="Components_8hpp.html" target="_top" xlink:title=" ">
<polygon fill="white" stroke="black" points="218.5,-56.5 218.5,-75.5 355.5,-75.5 355.5,-56.5 218.5,-56.5"/>
<text text-anchor="middle" x="287" y="-63.5" font-family="Helvetica,sans-Serif" font-size="10.00">Models/Components.hpp</text>
</a>
</g>
</g>
<!-- Node5&#45;&gt;Node12 -->
<g id="edge12" class="edge">
<title>Node5&#45;&gt;Node12</title>
<path fill="none" stroke="midnightblue" d="M381.33,-168.48C357.44,-162.06 329.82,-150.97 311,-132 298.7,-119.6 292.63,-100.36 289.68,-86.02"/>
<polygon fill="midnightblue" stroke="midnightblue" points="293.07,-85.07 287.93,-75.8 286.17,-86.25 293.07,-85.07"/>
</g>
<!-- Node13 -->
<g id="node13" class="node">
<title>Node13</title>
<g id="a_node13"><a xlink:href="IMemory_8hpp.html" target="_top" xlink:title=" ">
<polygon fill="white" stroke="black" points="320,-112.5 320,-131.5 400,-131.5 400,-112.5 320,-112.5"/>
<text text-anchor="middle" x="360" y="-119.5" font-family="Helvetica,sans-Serif" font-size="10.00">IMemory.hpp</text>
</a>
</g>
</g>
<!-- Node5&#45;&gt;Node13 -->
<g id="edge13" class="edge">
<title>Node5&#45;&gt;Node13</title>
<path fill="none" stroke="midnightblue" d="M418.75,-168.32C408.2,-160.18 392.2,-147.84 379.56,-138.09"/>
<polygon fill="midnightblue" stroke="midnightblue" points="381.51,-135.17 371.45,-131.83 377.23,-140.71 381.51,-135.17"/>
</g>
<!-- Node10&#45;&gt;Node4 -->
<g id="edge10" class="edge">
<title>Node10&#45;&gt;Node4</title>
<path fill="none" stroke="midnightblue" d="M139.5,-56.32C126.4,-47.9 106.29,-34.97 90.89,-25.07"/>
<polygon fill="midnightblue" stroke="midnightblue" points="92.77,-22.12 82.46,-19.65 88.98,-28.01 92.77,-22.12"/>
</g>
<!-- Node11 -->
<g id="node11" class="node">
<title>Node11</title>
<g id="a_node11"><a xlink:title=" ">
<polygon fill="white" stroke="#bfbfbf" points="123,-0.5 123,-19.5 183,-19.5 183,-0.5 123,-0.5"/>
<text text-anchor="middle" x="153" y="-7.5" font-family="Helvetica,sans-Serif" font-size="10.00">iostream</text>
</a>
</g>
</g>
<!-- Node10&#45;&gt;Node11 -->
<g id="edge11" class="edge">
<title>Node10&#45;&gt;Node11</title>
<path fill="none" stroke="midnightblue" d="M153,-56.08C153,-49.01 153,-38.86 153,-29.99"/>
<polygon fill="midnightblue" stroke="midnightblue" points="156.5,-29.75 153,-19.75 149.5,-29.75 156.5,-29.75"/>
</g>
<!-- Node13&#45;&gt;Node6 -->
<g id="edge14" class="edge">
<title>Node13&#45;&gt;Node6</title>
<path fill="none" stroke="midnightblue" d="M366.44,-112.08C371.95,-104.46 380.03,-93.26 386.76,-83.94"/>
<polygon fill="midnightblue" stroke="midnightblue" points="389.66,-85.91 392.68,-75.75 383.99,-81.81 389.66,-85.91"/>
</g>
<!-- Node13&#45;&gt;Node7 -->
<g id="edge15" class="edge">
<title>Node13&#45;&gt;Node7</title>
<path fill="none" stroke="midnightblue" d="M388.84,-112.44C421.27,-102.82 473.87,-87.21 508.2,-77.03"/>
<polygon fill="midnightblue" stroke="midnightblue" points="509.64,-80.25 518.23,-74.05 507.64,-73.54 509.64,-80.25"/>
</g>
<!-- Node13&#45;&gt;Node8 -->
<g id="edge16" class="edge">
<title>Node13&#45;&gt;Node8</title>
<path fill="none" stroke="midnightblue" d="M377.83,-112.32C395.72,-103.62 423.48,-90.12 444.05,-80.11"/>
<polygon fill="midnightblue" stroke="midnightblue" points="445.75,-83.18 453.21,-75.65 442.69,-76.88 445.75,-83.18"/>
</g>
<!-- Node13&#45;&gt;Node9 -->
<g id="edge17" class="edge">
<title>Node13&#45;&gt;Node9</title>
<path fill="none" stroke="midnightblue" d="M400.28,-113.15C455.61,-102.36 554.04,-83.17 604.78,-73.28"/>
<polygon fill="midnightblue" stroke="midnightblue" points="605.7,-76.67 614.85,-71.32 604.37,-69.8 605.7,-76.67"/>
</g>
<!-- Node13&#45;&gt;Node10 -->
<g id="edge18" class="edge">
<title>Node13&#45;&gt;Node10</title>
<path fill="none" stroke="midnightblue" d="M327.2,-112.44C291.62,-103.16 234.69,-88.31 195.65,-78.13"/>
<polygon fill="midnightblue" stroke="midnightblue" points="196.21,-74.65 185.65,-75.52 194.44,-81.43 196.21,-74.65"/>
</g>
<!-- Node13&#45;&gt;Node12 -->
<g id="edge19" class="edge">
<title>Node13&#45;&gt;Node12</title>
<path fill="none" stroke="midnightblue" d="M348.27,-112.32C337.16,-104.11 320.26,-91.6 307.02,-81.81"/>
<polygon fill="midnightblue" stroke="midnightblue" points="309.06,-78.97 298.94,-75.83 304.9,-84.59 309.06,-78.97"/>
</g>
<!-- Node14&#45;&gt;Node10 -->
<g id="edge22" class="edge">
<title>Node14&#45;&gt;Node10</title>
<path fill="none" stroke="midnightblue" d="M251.6,-168.37C233.71,-149.97 191.59,-106.67 168.61,-83.05"/>
<polygon fill="midnightblue" stroke="midnightblue" points="170.84,-80.32 161.36,-75.59 165.82,-85.2 170.84,-80.32"/>
</g>
<!-- Node14&#45;&gt;Node13 -->
<g id="edge21" class="edge">
<title>Node14&#45;&gt;Node13</title>
<path fill="none" stroke="midnightblue" d="M276.07,-168.32C291.96,-159.74 316.51,-146.49 334.96,-136.52"/>
<polygon fill="midnightblue" stroke="midnightblue" points="336.84,-139.49 343.97,-131.65 333.51,-133.33 336.84,-139.49"/>
</g>
<!-- Node15&#45;&gt;Node7 -->
<g id="edge28" class="edge">
<title>Node15&#45;&gt;Node7</title>
<path fill="none" stroke="midnightblue" d="M534.44,-224.24C543.42,-215.97 555.75,-202.66 561,-188 573.56,-152.95 560.05,-109.24 550.26,-85.12"/>
<polygon fill="midnightblue" stroke="midnightblue" points="553.41,-83.59 546.25,-75.78 546.98,-86.35 553.41,-83.59"/>
</g>
<!-- Node15&#45;&gt;Node9 -->
<g id="edge26" class="edge">
<title>Node15&#45;&gt;Node9</title>
<path fill="none" stroke="midnightblue" d="M537.08,-224.24C548.7,-215.95 565.55,-202.64 577,-188 602.54,-155.34 621.42,-110.06 630.66,-85.19"/>
<polygon fill="midnightblue" stroke="midnightblue" points="634.02,-86.18 634.12,-75.59 627.44,-83.81 634.02,-86.18"/>
</g>
<!-- Node15&#45;&gt;Node14 -->
<g id="edge25" class="edge">
<title>Node15&#45;&gt;Node14</title>
<path fill="none" stroke="midnightblue" d="M482.17,-224.44C435.92,-214.98 361.39,-199.74 311.56,-189.55"/>
<polygon fill="midnightblue" stroke="midnightblue" points="312.13,-186.09 301.64,-187.52 310.73,-192.95 312.13,-186.09"/>
</g>
<!-- Node16 -->
<g id="node16" class="node">
<title>Node16</title>
<g id="a_node16"><a xlink:title=" ">
<polygon fill="white" stroke="#bfbfbf" points="512,-168.5 512,-187.5 552,-187.5 552,-168.5 512,-168.5"/>
<text text-anchor="middle" x="532" y="-175.5" font-family="Helvetica,sans-Serif" font-size="10.00">span</text>
</a>
</g>
</g>
<!-- Node15&#45;&gt;Node16 -->
<g id="edge27" class="edge">
<title>Node15&#45;&gt;Node16</title>
<path fill="none" stroke="midnightblue" d="M525.32,-224.08C526.38,-216.93 527.91,-206.64 529.23,-197.69"/>
<polygon fill="midnightblue" stroke="midnightblue" points="532.7,-198.16 530.7,-187.75 525.78,-197.13 532.7,-198.16"/>
</g>
<!-- Node18&#45;&gt;Node9 -->
<g id="edge33" class="edge">
<title>Node18&#45;&gt;Node9</title>
<path fill="none" stroke="midnightblue" d="M717.71,-280.13C713.61,-253.53 699.35,-172.54 670,-112 665.1,-101.88 657.86,-91.69 651.41,-83.58"/>
<polygon fill="midnightblue" stroke="midnightblue" points="653.94,-81.15 644.87,-75.68 648.55,-85.61 653.94,-81.15"/>
</g>
<!-- Node19 -->
<g id="node19" class="node">
<title>Node19</title>
<g id="a_node19"><a xlink:title=" ">
<polygon fill="white" stroke="#bfbfbf" points="747.5,-224.5 747.5,-243.5 812.5,-243.5 812.5,-224.5 747.5,-224.5"/>
<text text-anchor="middle" x="780" y="-231.5" font-family="Helvetica,sans-Serif" font-size="10.00">exception</text>
</a>
</g>
</g>
<!-- Node18&#45;&gt;Node19 -->
<g id="edge32" class="edge">
<title>Node18&#45;&gt;Node19</title>
<path fill="none" stroke="midnightblue" d="M728.8,-280.32C737.82,-272.34 751.41,-260.31 762.32,-250.65"/>
<polygon fill="midnightblue" stroke="midnightblue" points="764.85,-253.08 770.02,-243.83 760.21,-247.84 764.85,-253.08"/>
</g>
<!-- Node20 -->
<g id="node20" class="node">
<title>Node20</title>
<g id="a_node20"><a xlink:href="DebuggableError_8hpp.html" target="_top" xlink:title=" ">
<polygon fill="white" stroke="black" points="830.5,-224.5 830.5,-243.5 949.5,-243.5 949.5,-224.5 830.5,-224.5"/>
<text text-anchor="middle" x="890" y="-231.5" font-family="Helvetica,sans-Serif" font-size="10.00">DebuggableError.hpp</text>
</a>
</g>
</g>
<!-- Node18&#45;&gt;Node20 -->
<g id="edge34" class="edge">
<title>Node18&#45;&gt;Node20</title>
<path fill="none" stroke="midnightblue" d="M746.1,-280.44C774.99,-271.32 820.92,-256.81 853.11,-246.65"/>
<polygon fill="midnightblue" stroke="midnightblue" points="854.55,-249.87 863.03,-243.52 852.44,-243.19 854.55,-249.87"/>
</g>
<!-- Node21 -->
<g id="node21" class="node">
<title>Node21</title>
<g id="a_node21"><a xlink:title=" ">
<polygon fill="white" stroke="#bfbfbf" points="842.5,-168.5 842.5,-187.5 937.5,-187.5 937.5,-168.5 842.5,-168.5"/>
<text text-anchor="middle" x="890" y="-175.5" font-family="Helvetica,sans-Serif" font-size="10.00">bits/exception.h</text>
</a>
</g>
</g>
<!-- Node20&#45;&gt;Node21 -->
<g id="edge35" class="edge">
<title>Node20&#45;&gt;Node21</title>
<path fill="none" stroke="midnightblue" d="M890,-224.08C890,-217.01 890,-206.86 890,-197.99"/>
<polygon fill="midnightblue" stroke="midnightblue" points="893.5,-197.75 890,-187.75 886.5,-197.75 893.5,-197.75"/>
</g>
<!-- Node22&#45;&gt;Node9 -->
<g id="edge38" class="edge">
<title>Node22&#45;&gt;Node9</title>
<path fill="none" stroke="midnightblue" d="M913.79,-280.5C929.72,-273.41 949.46,-261.61 959,-244 969.13,-225.31 958.14,-180.36 947,-168 873.39,-86.32 732.99,-70.44 669.55,-67.54"/>
<polygon fill="midnightblue" stroke="midnightblue" points="669.46,-64.03 659.34,-67.15 669.2,-71.03 669.46,-64.03"/>
</g>
<!-- Node22&#45;&gt;Node19 -->
<g id="edge37" class="edge">
<title>Node22&#45;&gt;Node19</title>
<path fill="none" stroke="midnightblue" d="M872.33,-280.32C854.61,-271.62 827.1,-258.12 806.71,-248.11"/>
<polygon fill="midnightblue" stroke="midnightblue" points="808.15,-244.92 797.63,-243.65 805.06,-251.2 808.15,-244.92"/>
</g>
<!-- Node22&#45;&gt;Node20 -->
<g id="edge39" class="edge">
<title>Node22&#45;&gt;Node20</title>
<path fill="none" stroke="midnightblue" d="M890,-280.08C890,-273.01 890,-262.86 890,-253.99"/>
<polygon fill="midnightblue" stroke="midnightblue" points="893.5,-253.75 890,-243.75 886.5,-253.75 893.5,-253.75"/>
</g>
</g>
</svg>
