<?xml version="1.0" encoding="UTF-8" standalone="no"?>
<!DOCTYPE svg PUBLIC "-//W3C//DTD SVG 1.1//EN"
 "http://www.w3.org/Graphics/SVG/1.1/DTD/svg11.dtd">
<!-- Generated by graphviz version 2.43.0 (0)
 -->
<!-- Title: sources/Debugger/CGramDebug.hpp Pages: 1 -->
<svg width="1482pt" height="476pt"
 viewBox="0.00 0.00 1481.50 476.00" xmlns="http://www.w3.org/2000/svg" xmlns:xlink="http://www.w3.org/1999/xlink">
<g id="graph0" class="graph" transform="scale(1 1) rotate(0) translate(4 472)">
<title>sources/Debugger/CGramDebug.hpp</title>
<polygon fill="white" stroke="transparent" points="-4,4 -4,-472 1477.5,-472 1477.5,4 -4,4"/>
<!-- Node1 -->
<g id="node1" class="node">
<title>Node1</title>
<g id="a_node1"><a xlink:title=" ">
<polygon fill="#bfbfbf" stroke="black" points="938,-448.5 938,-467.5 1132,-467.5 1132,-448.5 938,-448.5"/>
<text text-anchor="middle" x="1035" y="-455.5" font-family="Helvetica,sans-Serif" font-size="10.00">sources/Debugger/CGramDebug.hpp</text>
</a>
</g>
</g>
<!-- Node2 -->
<g id="node2" class="node">
<title>Node2</title>
<g id="a_node2"><a xlink:title=" ">
<polygon fill="white" stroke="#bfbfbf" points="1269.5,-336.5 1269.5,-355.5 1410.5,-355.5 1410.5,-336.5 1269.5,-336.5"/>
<text text-anchor="middle" x="1340" y="-343.5" font-family="Helvetica,sans-Serif" font-size="10.00">QtWidgets/QMainWindow</text>
</a>
</g>
</g>
<!-- Node1&#45;&gt;Node2 -->
<g id="edge1" class="edge">
<title>Node1&#45;&gt;Node2</title>
<path fill="none" stroke="midnightblue" d="M937.94,-454.27C867.3,-449.99 780.13,-439.18 757,-412 751.24,-405.23 750.95,-398.51 757,-392 794.79,-351.38 1199.74,-360.92 1255,-356 1256.29,-355.89 1257.59,-355.77 1258.9,-355.65"/>
<polygon fill="midnightblue" stroke="midnightblue" points="1259.43,-359.11 1269.06,-354.69 1258.77,-352.14 1259.43,-359.11"/>
</g>
<!-- Node3 -->
<g id="node3" class="node">
<title>Node3</title>
<g id="a_node3"><a xlink:href="PPU_8hpp.html" target="_top" xlink:title=" ">
<polygon fill="white" stroke="black" points="444,-392.5 444,-411.5 524,-411.5 524,-392.5 444,-392.5"/>
<text text-anchor="middle" x="484" y="-399.5" font-family="Helvetica,sans-Serif" font-size="10.00">PPU/PPU.hpp</text>
</a>
</g>
</g>
<!-- Node1&#45;&gt;Node3 -->
<g id="edge2" class="edge">
<title>Node1&#45;&gt;Node3</title>
<path fill="none" stroke="midnightblue" d="M948,-448.47C831.37,-437.04 628.16,-417.13 534.24,-407.92"/>
<polygon fill="midnightblue" stroke="midnightblue" points="534.44,-404.43 524.15,-406.93 533.76,-411.39 534.44,-404.43"/>
</g>
<!-- Node34 -->
<g id="node34" class="node">
<title>Node34</title>
<g id="a_node34"><a xlink:title=" ">
<polygon fill="white" stroke="#bfbfbf" points="766,-392.5 766,-411.5 872,-411.5 872,-392.5 766,-392.5"/>
<text text-anchor="middle" x="819" y="-399.5" font-family="Helvetica,sans-Serif" font-size="10.00">ui/ui_cgramView.h</text>
</a>
</g>
</g>
<!-- Node1&#45;&gt;Node34 -->
<g id="edge68" class="edge">
<title>Node1&#45;&gt;Node34</title>
<path fill="none" stroke="midnightblue" d="M1000.77,-448.44C963.49,-439.12 903.73,-424.18 862.99,-414"/>
<polygon fill="midnightblue" stroke="midnightblue" points="863.62,-410.55 853.07,-411.52 861.92,-417.34 863.62,-410.55"/>
</g>
<!-- Node35 -->
<g id="node35" class="node">
<title>Node35</title>
<g id="a_node35"><a xlink:title=" ">
<polygon fill="white" stroke="#bfbfbf" points="890.5,-392.5 890.5,-411.5 1053.5,-411.5 1053.5,-392.5 890.5,-392.5"/>
<text text-anchor="middle" x="972" y="-399.5" font-family="Helvetica,sans-Serif" font-size="10.00">QtCore/QSortFilterProxyModel</text>
</a>
</g>
</g>
<!-- Node1&#45;&gt;Node35 -->
<g id="edge69" class="edge">
<title>Node1&#45;&gt;Node35</title>
<path fill="none" stroke="midnightblue" d="M1024.88,-448.32C1015.47,-440.26 1001.26,-428.08 989.93,-418.37"/>
<polygon fill="midnightblue" stroke="midnightblue" points="992.18,-415.68 982.31,-411.83 987.62,-421 992.18,-415.68"/>
</g>
<!-- Node36 -->
<g id="node36" class="node">
<title>Node36</title>
<g id="a_node36"><a xlink:title=" ">
<polygon fill="white" stroke="#bfbfbf" points="1072,-392.5 1072,-411.5 1124,-411.5 1124,-392.5 1072,-392.5"/>
<text text-anchor="middle" x="1098" y="-399.5" font-family="Helvetica,sans-Serif" font-size="10.00">QEvent</text>
</a>
</g>
</g>
<!-- Node1&#45;&gt;Node36 -->
<g id="edge70" class="edge">
<title>Node1&#45;&gt;Node36</title>
<path fill="none" stroke="midnightblue" d="M1045.12,-448.32C1054.53,-440.26 1068.74,-428.08 1080.07,-418.37"/>
<polygon fill="midnightblue" stroke="midnightblue" points="1082.38,-421 1087.69,-411.83 1077.82,-415.68 1082.38,-421"/>
</g>
<!-- Node37 -->
<g id="node37" class="node">
<title>Node37</title>
<g id="a_node37"><a xlink:title=" ">
<polygon fill="white" stroke="#bfbfbf" points="1142,-392.5 1142,-411.5 1226,-411.5 1226,-392.5 1142,-392.5"/>
<text text-anchor="middle" x="1184" y="-399.5" font-family="Helvetica,sans-Serif" font-size="10.00">QMouseEvent</text>
</a>
</g>
</g>
<!-- Node1&#45;&gt;Node37 -->
<g id="edge71" class="edge">
<title>Node1&#45;&gt;Node37</title>
<path fill="none" stroke="midnightblue" d="M1058.61,-448.44C1083.46,-439.44 1122.77,-425.19 1150.75,-415.05"/>
<polygon fill="midnightblue" stroke="midnightblue" points="1152.29,-418.21 1160.5,-411.52 1149.91,-411.63 1152.29,-418.21"/>
</g>
<!-- Node38 -->
<g id="node38" class="node">
<title>Node38</title>
<g id="a_node38"><a xlink:title=" ">
<polygon fill="white" stroke="#bfbfbf" points="1244,-392.5 1244,-411.5 1318,-411.5 1318,-392.5 1244,-392.5"/>
<text text-anchor="middle" x="1281" y="-399.5" font-family="Helvetica,sans-Serif" font-size="10.00">QTableView</text>
</a>
</g>
</g>
<!-- Node1&#45;&gt;Node38 -->
<g id="edge72" class="edge">
<title>Node1&#45;&gt;Node38</title>
<path fill="none" stroke="midnightblue" d="M1073.98,-448.44C1117.4,-438.91 1187.57,-423.51 1234,-413.32"/>
<polygon fill="midnightblue" stroke="midnightblue" points="1234.8,-416.73 1243.81,-411.16 1233.3,-409.89 1234.8,-416.73"/>
</g>
<!-- Node39 -->
<g id="node39" class="node">
<title>Node39</title>
<g id="a_node39"><a xlink:href="ClosableWindow_8hpp.html" target="_top" xlink:title=" ">
<polygon fill="white" stroke="black" points="1336,-392.5 1336,-411.5 1454,-411.5 1454,-392.5 1336,-392.5"/>
<text text-anchor="middle" x="1395" y="-399.5" font-family="Helvetica,sans-Serif" font-size="10.00">ClosableWindow.hpp</text>
</a>
</g>
</g>
<!-- Node1&#45;&gt;Node39 -->
<g id="edge73" class="edge">
<title>Node1&#45;&gt;Node39</title>
<path fill="none" stroke="midnightblue" d="M1092.04,-448.44C1156.16,-438.83 1260.15,-423.23 1328.06,-413.04"/>
<polygon fill="midnightblue" stroke="midnightblue" points="1328.85,-416.46 1338.22,-411.52 1327.82,-409.54 1328.85,-416.46"/>
</g>
<!-- Node4 -->
<g id="node4" class="node">
<title>Node4</title>
<g id="a_node4"><a xlink:title=" ">
<polygon fill="white" stroke="#bfbfbf" points="1050,-56.5 1050,-75.5 1100,-75.5 1100,-56.5 1050,-56.5"/>
<text text-anchor="middle" x="1075" y="-63.5" font-family="Helvetica,sans-Serif" font-size="10.00">cstdint</text>
</a>
</g>
</g>
<!-- Node3&#45;&gt;Node4 -->
<g id="edge3" class="edge">
<title>Node3&#45;&gt;Node4</title>
<path fill="none" stroke="midnightblue" d="M524.17,-399.44C680.66,-392.85 1241,-364.13 1241,-291 1241,-291 1241,-291 1241,-177 1241,-114.71 1158.76,-85.61 1110.06,-73.84"/>
<polygon fill="midnightblue" stroke="midnightblue" points="1110.74,-70.4 1100.21,-71.58 1109.18,-77.23 1110.74,-70.4"/>
</g>
<!-- Node5 -->
<g id="node5" class="node">
<title>Node5</title>
<g id="a_node5"><a xlink:href="AMemory_8hpp.html" target="_top" xlink:title=" ">
<polygon fill="white" stroke="black" points="589.5,-168.5 589.5,-187.5 716.5,-187.5 716.5,-168.5 589.5,-168.5"/>
<text text-anchor="middle" x="653" y="-175.5" font-family="Helvetica,sans-Serif" font-size="10.00">Memory/AMemory.hpp</text>
</a>
</g>
</g>
<!-- Node3&#45;&gt;Node5 -->
<g id="edge4" class="edge">
<title>Node3&#45;&gt;Node5</title>
<path fill="none" stroke="midnightblue" d="M524.21,-397.77C576.74,-392.62 664.38,-380.53 684,-356 721.96,-308.55 684.21,-230.84 663.99,-196.39"/>
<polygon fill="midnightblue" stroke="midnightblue" points="666.78,-194.25 658.6,-187.52 660.8,-197.88 666.78,-194.25"/>
</g>
<!-- Node14 -->
<g id="node14" class="node">
<title>Node14</title>
<g id="a_node14"><a xlink:href="MemoryBus_8hpp.html" target="_top" xlink:title=" ">
<polygon fill="white" stroke="black" points="842,-336.5 842,-355.5 982,-355.5 982,-336.5 842,-336.5"/>
<text text-anchor="middle" x="912" y="-343.5" font-family="Helvetica,sans-Serif" font-size="10.00">Memory/MemoryBus.hpp</text>
</a>
</g>
</g>
<!-- Node3&#45;&gt;Node14 -->
<g id="edge20" class="edge">
<title>Node3&#45;&gt;Node14</title>
<path fill="none" stroke="midnightblue" d="M524.27,-395.92C595.07,-386.99 743,-368.32 834.28,-356.81"/>
<polygon fill="midnightblue" stroke="midnightblue" points="834.82,-360.27 844.3,-355.54 833.94,-353.32 834.82,-360.27"/>
</g>
<!-- Node20 -->
<g id="node20" class="node">
<title>Node20</title>
<g id="a_node20"><a xlink:href="IRenderer_8hpp.html" target="_top" xlink:title=" ">
<polygon fill="white" stroke="black" points="28.5,-224.5 28.5,-243.5 159.5,-243.5 159.5,-224.5 28.5,-224.5"/>
<text text-anchor="middle" x="94" y="-231.5" font-family="Helvetica,sans-Serif" font-size="10.00">Renderer/IRenderer.hpp</text>
</a>
</g>
</g>
<!-- Node3&#45;&gt;Node20 -->
<g id="edge38" class="edge">
<title>Node3&#45;&gt;Node20</title>
<path fill="none" stroke="midnightblue" d="M443.76,-397.9C398.27,-393.25 322.76,-382.05 263,-356 200.98,-328.96 139.16,-276.62 110.51,-250.55"/>
<polygon fill="midnightblue" stroke="midnightblue" points="112.75,-247.85 103.02,-243.64 108,-253 112.75,-247.85"/>
</g>
<!-- Node22 -->
<g id="node22" class="node">
<title>Node22</title>
<g id="a_node22"><a xlink:href="Ram_8hpp.html" target="_top" xlink:title=" ">
<polygon fill="white" stroke="black" points="309,-224.5 309,-243.5 395,-243.5 395,-224.5 309,-224.5"/>
<text text-anchor="middle" x="352" y="-231.5" font-family="Helvetica,sans-Serif" font-size="10.00">Ram/Ram.hpp</text>
</a>
</g>
</g>
<!-- Node3&#45;&gt;Node22 -->
<g id="edge41" class="edge">
<title>Node3&#45;&gt;Node22</title>
<path fill="none" stroke="midnightblue" d="M443.93,-400.13C405.03,-397.32 346.26,-387.62 307,-356 278.97,-333.42 261.45,-311.43 279,-280 287.16,-265.39 302.22,-254.94 316.55,-247.8"/>
<polygon fill="midnightblue" stroke="midnightblue" points="318.15,-250.92 325.79,-243.59 315.24,-244.56 318.15,-250.92"/>
</g>
<!-- Node23 -->
<g id="node23" class="node">
<title>Node23</title>
<g id="a_node23"><a xlink:href="Vector2_8hpp.html" target="_top" xlink:title=" ">
<polygon fill="white" stroke="black" points="177.5,-224.5 177.5,-243.5 290.5,-243.5 290.5,-224.5 177.5,-224.5"/>
<text text-anchor="middle" x="234" y="-231.5" font-family="Helvetica,sans-Serif" font-size="10.00">Models/Vector2.hpp</text>
</a>
</g>
</g>
<!-- Node3&#45;&gt;Node23 -->
<g id="edge46" class="edge">
<title>Node3&#45;&gt;Node23</title>
<path fill="none" stroke="midnightblue" d="M443.98,-396.47C392.52,-389.91 306.94,-376.29 283,-356 251.84,-329.58 240.27,-280.38 236.15,-253.57"/>
<polygon fill="midnightblue" stroke="midnightblue" points="239.61,-253.03 234.8,-243.59 232.67,-253.97 239.61,-253.03"/>
</g>
<!-- Node26 -->
<g id="node26" class="node">
<title>Node26</title>
<g id="a_node26"><a xlink:title=" ">
<polygon fill="white" stroke="#bfbfbf" points="316,-336.5 316,-355.5 380,-355.5 380,-336.5 316,-336.5"/>
<text text-anchor="middle" x="348" y="-343.5" font-family="Helvetica,sans-Serif" font-size="10.00">algorithm</text>
</a>
</g>
</g>
<!-- Node3&#45;&gt;Node26 -->
<g id="edge49" class="edge">
<title>Node3&#45;&gt;Node26</title>
<path fill="none" stroke="midnightblue" d="M462.45,-392.44C439.97,-383.52 404.51,-369.44 379.02,-359.32"/>
<polygon fill="midnightblue" stroke="midnightblue" points="380.03,-355.95 369.45,-355.52 377.45,-362.46 380.03,-355.95"/>
</g>
<!-- Node27 -->
<g id="node27" class="node">
<title>Node27</title>
<g id="a_node27"><a xlink:href="Background_8hpp.html" target="_top" xlink:title=" ">
<polygon fill="white" stroke="black" points="398.5,-336.5 398.5,-355.5 493.5,-355.5 493.5,-336.5 398.5,-336.5"/>
<text text-anchor="middle" x="446" y="-343.5" font-family="Helvetica,sans-Serif" font-size="10.00">Background.hpp</text>
</a>
</g>
</g>
<!-- Node3&#45;&gt;Node27 -->
<g id="edge50" class="edge">
<title>Node3&#45;&gt;Node27</title>
<path fill="none" stroke="midnightblue" d="M472.56,-392.08C465.73,-384.61 457.66,-373.72 451.96,-364.52"/>
<polygon fill="midnightblue" stroke="midnightblue" points="454.98,-362.75 447.03,-355.75 448.88,-366.18 454.98,-362.75"/>
</g>
<!-- Node30 -->
<g id="node30" class="node">
<title>Node30</title>
<g id="a_node30"><a xlink:href="PPUUtils_8hpp.html" target="_top" xlink:title=" ">
<polygon fill="white" stroke="black" points="512,-280.5 512,-299.5 614,-299.5 614,-280.5 512,-280.5"/>
<text text-anchor="middle" x="563" y="-287.5" font-family="Helvetica,sans-Serif" font-size="10.00">PPU/PPUUtils.hpp</text>
</a>
</g>
</g>
<!-- Node3&#45;&gt;Node30 -->
<g id="edge66" class="edge">
<title>Node3&#45;&gt;Node30</title>
<path fill="none" stroke="midnightblue" d="M490.2,-392.37C503.24,-374.22 533.7,-331.8 550.8,-307.99"/>
<polygon fill="midnightblue" stroke="midnightblue" points="553.84,-309.76 556.83,-299.59 548.15,-305.67 553.84,-309.76"/>
</g>
<!-- Node33 -->
<g id="node33" class="node">
<title>Node33</title>
<g id="a_node33"><a xlink:href="PPURegisters_8hpp.html" target="_top" xlink:title=" ">
<polygon fill="white" stroke="black" points="550.5,-336.5 550.5,-355.5 675.5,-355.5 675.5,-336.5 550.5,-336.5"/>
<text text-anchor="middle" x="613" y="-343.5" font-family="Helvetica,sans-Serif" font-size="10.00">PPU/PPURegisters.hpp</text>
</a>
</g>
</g>
<!-- Node3&#45;&gt;Node33 -->
<g id="edge67" class="edge">
<title>Node3&#45;&gt;Node33</title>
<path fill="none" stroke="midnightblue" d="M504.44,-392.44C525.67,-383.56 559.1,-369.56 583.25,-359.45"/>
<polygon fill="midnightblue" stroke="midnightblue" points="584.78,-362.61 592.66,-355.52 582.08,-356.15 584.78,-362.61"/>
</g>
<!-- Node5&#45;&gt;Node4 -->
<g id="edge5" class="edge">
<title>Node5&#45;&gt;Node4</title>
<path fill="none" stroke="midnightblue" d="M689.03,-168.49C726.18,-159.64 785.74,-145.26 837,-132 909.28,-113.29 993.48,-89.93 1039.85,-76.92"/>
<polygon fill="midnightblue" stroke="midnightblue" points="1041.02,-80.22 1049.7,-74.15 1039.12,-73.48 1041.02,-80.22"/>
</g>
<!-- Node6 -->
<g id="node6" class="node">
<title>Node6</title>
<g id="a_node6"><a xlink:title=" ">
<polygon fill="white" stroke="#bfbfbf" points="524.5,-56.5 524.5,-75.5 571.5,-75.5 571.5,-56.5 524.5,-56.5"/>
<text text-anchor="middle" x="548" y="-63.5" font-family="Helvetica,sans-Serif" font-size="10.00">vector</text>
</a>
</g>
</g>
<!-- Node5&#45;&gt;Node6 -->
<g id="edge6" class="edge">
<title>Node5&#45;&gt;Node6</title>
<path fill="none" stroke="midnightblue" d="M644.76,-168.37C627.2,-149.97 585.87,-106.67 563.32,-83.05"/>
<polygon fill="midnightblue" stroke="midnightblue" points="565.64,-80.41 556.2,-75.59 560.57,-85.24 565.64,-80.41"/>
</g>
<!-- Node7 -->
<g id="node7" class="node">
<title>Node7</title>
<g id="a_node7"><a xlink:title=" ">
<polygon fill="white" stroke="#bfbfbf" points="904,-56.5 904,-75.5 962,-75.5 962,-56.5 904,-56.5"/>
<text text-anchor="middle" x="933" y="-63.5" font-family="Helvetica,sans-Serif" font-size="10.00">memory</text>
</a>
</g>
</g>
<!-- Node5&#45;&gt;Node7 -->
<g id="edge7" class="edge">
<title>Node5&#45;&gt;Node7</title>
<path fill="none" stroke="midnightblue" d="M686.2,-168.45C716.34,-160.31 761.77,-147.09 800,-132 838.96,-116.63 882.22,-94.48 908.52,-80.42"/>
<polygon fill="midnightblue" stroke="midnightblue" points="910.25,-83.46 917.4,-75.63 906.93,-77.3 910.25,-83.46"/>
</g>
<!-- Node8 -->
<g id="node8" class="node">
<title>Node8</title>
<g id="a_node8"><a xlink:title=" ">
<polygon fill="white" stroke="#bfbfbf" points="387,-56.5 387,-75.5 431,-75.5 431,-56.5 387,-56.5"/>
<text text-anchor="middle" x="409" y="-63.5" font-family="Helvetica,sans-Serif" font-size="10.00">string</text>
</a>
</g>
</g>
<!-- Node5&#45;&gt;Node8 -->
<g id="edge8" class="edge">
<title>Node5&#45;&gt;Node8</title>
<path fill="none" stroke="midnightblue" d="M633.85,-168.37C591.09,-149.09 487.64,-102.45 437.37,-79.79"/>
<polygon fill="midnightblue" stroke="midnightblue" points="438.61,-76.51 428.06,-75.59 435.74,-82.89 438.61,-76.51"/>
</g>
<!-- Node9 -->
<g id="node9" class="node">
<title>Node9</title>
<g id="a_node9"><a xlink:href="Ints_8hpp.html" target="_top" xlink:title=" ">
<polygon fill="white" stroke="black" points="745,-56.5 745,-75.5 839,-75.5 839,-56.5 745,-56.5"/>
<text text-anchor="middle" x="792" y="-63.5" font-family="Helvetica,sans-Serif" font-size="10.00">Models/Ints.hpp</text>
</a>
</g>
</g>
<!-- Node5&#45;&gt;Node9 -->
<g id="edge9" class="edge">
<title>Node5&#45;&gt;Node9</title>
<path fill="none" stroke="midnightblue" d="M657.71,-168.42C665.45,-154.94 682.02,-128.64 702,-112 718.65,-98.14 740.29,-87.14 758.18,-79.49"/>
<polygon fill="midnightblue" stroke="midnightblue" points="759.76,-82.63 767.68,-75.59 757.1,-76.16 759.76,-82.63"/>
</g>
<!-- Node12 -->
<g id="node12" class="node">
<title>Node12</title>
<g id="a_node12"><a xlink:href="Components_8hpp.html" target="_top" xlink:title=" ">
<polygon fill="white" stroke="black" points="589.5,-56.5 589.5,-75.5 726.5,-75.5 726.5,-56.5 589.5,-56.5"/>
<text text-anchor="middle" x="658" y="-63.5" font-family="Helvetica,sans-Serif" font-size="10.00">Models/Components.hpp</text>
</a>
</g>
</g>
<!-- Node5&#45;&gt;Node12 -->
<g id="edge12" class="edge">
<title>Node5&#45;&gt;Node12</title>
<path fill="none" stroke="midnightblue" d="M653.39,-168.37C654.2,-150.62 656.06,-109.67 657.15,-85.6"/>
<polygon fill="midnightblue" stroke="midnightblue" points="660.65,-85.74 657.61,-75.59 653.66,-85.42 660.65,-85.74"/>
</g>
<!-- Node13 -->
<g id="node13" class="node">
<title>Node13</title>
<g id="a_node13"><a xlink:href="IMemory_8hpp.html" target="_top" xlink:title=" ">
<polygon fill="white" stroke="black" points="711,-112.5 711,-131.5 791,-131.5 791,-112.5 711,-112.5"/>
<text text-anchor="middle" x="751" y="-119.5" font-family="Helvetica,sans-Serif" font-size="10.00">IMemory.hpp</text>
</a>
</g>
</g>
<!-- Node5&#45;&gt;Node13 -->
<g id="edge13" class="edge">
<title>Node5&#45;&gt;Node13</title>
<path fill="none" stroke="midnightblue" d="M668.75,-168.32C684.32,-159.74 708.38,-146.49 726.46,-136.52"/>
<polygon fill="midnightblue" stroke="midnightblue" points="728.22,-139.55 735.29,-131.65 724.85,-133.42 728.22,-139.55"/>
</g>
<!-- Node10 -->
<g id="node10" class="node">
<title>Node10</title>
<g id="a_node10"><a xlink:title=" ">
<polygon fill="white" stroke="#bfbfbf" points="951,-0.5 951,-19.5 1013,-19.5 1013,-0.5 951,-0.5"/>
<text text-anchor="middle" x="982" y="-7.5" font-family="Helvetica,sans-Serif" font-size="10.00">cinttypes</text>
</a>
</g>
</g>
<!-- Node9&#45;&gt;Node10 -->
<g id="edge10" class="edge">
<title>Node9&#45;&gt;Node10</title>
<path fill="none" stroke="midnightblue" d="M822.11,-56.44C854.63,-47.2 906.58,-32.44 942.39,-22.26"/>
<polygon fill="midnightblue" stroke="midnightblue" points="943.37,-25.62 952.03,-19.52 941.46,-18.88 943.37,-25.62"/>
</g>
<!-- Node11 -->
<g id="node11" class="node">
<title>Node11</title>
<g id="a_node11"><a xlink:title=" ">
<polygon fill="white" stroke="#bfbfbf" points="523,-0.5 523,-19.5 583,-19.5 583,-0.5 523,-0.5"/>
<text text-anchor="middle" x="553" y="-7.5" font-family="Helvetica,sans-Serif" font-size="10.00">iostream</text>
</a>
</g>
</g>
<!-- Node9&#45;&gt;Node11 -->
<g id="edge11" class="edge">
<title>Node9&#45;&gt;Node11</title>
<path fill="none" stroke="midnightblue" d="M754.13,-56.44C710.17,-46.51 637.98,-30.2 593.09,-20.06"/>
<polygon fill="midnightblue" stroke="midnightblue" points="593.65,-16.6 583.13,-17.81 592.11,-23.42 593.65,-16.6"/>
</g>
<!-- Node13&#45;&gt;Node4 -->
<g id="edge14" class="edge">
<title>Node13&#45;&gt;Node4</title>
<path fill="none" stroke="midnightblue" d="M791.05,-114.32C854.94,-103.68 978.89,-83.02 1039.67,-72.89"/>
<polygon fill="midnightblue" stroke="midnightblue" points="1040.62,-76.28 1049.9,-71.18 1039.47,-69.37 1040.62,-76.28"/>
</g>
<!-- Node13&#45;&gt;Node6 -->
<g id="edge15" class="edge">
<title>Node13&#45;&gt;Node6</title>
<path fill="none" stroke="midnightblue" d="M717.85,-112.45C685.39,-104.05 634.27,-90.7 581.6,-76.41"/>
<polygon fill="midnightblue" stroke="midnightblue" points="582.32,-72.98 571.75,-73.73 580.48,-79.73 582.32,-72.98"/>
</g>
<!-- Node13&#45;&gt;Node7 -->
<g id="edge16" class="edge">
<title>Node13&#45;&gt;Node7</title>
<path fill="none" stroke="midnightblue" d="M779.84,-112.44C810.86,-103.24 860.33,-88.56 894.62,-78.39"/>
<polygon fill="midnightblue" stroke="midnightblue" points="895.71,-81.72 904.3,-75.52 893.71,-75.01 895.71,-81.72"/>
</g>
<!-- Node13&#45;&gt;Node8 -->
<g id="edge17" class="edge">
<title>Node13&#45;&gt;Node8</title>
<path fill="none" stroke="midnightblue" d="M710.76,-114.65C642.16,-103.81 503.91,-81.99 441.22,-72.09"/>
<polygon fill="midnightblue" stroke="midnightblue" points="441.55,-68.6 431.12,-70.49 440.45,-75.51 441.55,-68.6"/>
</g>
<!-- Node13&#45;&gt;Node9 -->
<g id="edge18" class="edge">
<title>Node13&#45;&gt;Node9</title>
<path fill="none" stroke="midnightblue" d="M757.77,-112.08C763.56,-104.46 772.06,-93.26 779.14,-83.94"/>
<polygon fill="midnightblue" stroke="midnightblue" points="782.1,-85.83 785.36,-75.75 776.52,-81.6 782.1,-85.83"/>
</g>
<!-- Node13&#45;&gt;Node12 -->
<g id="edge19" class="edge">
<title>Node13&#45;&gt;Node12</title>
<path fill="none" stroke="midnightblue" d="M736.06,-112.32C721.41,-103.82 698.87,-90.73 681.76,-80.8"/>
<polygon fill="midnightblue" stroke="midnightblue" points="683.31,-77.65 672.9,-75.65 679.8,-83.7 683.31,-77.65"/>
</g>
<!-- Node14&#45;&gt;Node4 -->
<g id="edge35" class="edge">
<title>Node14&#45;&gt;Node4</title>
<path fill="none" stroke="midnightblue" d="M963.36,-336.46C1046.9,-321.11 1203,-285.63 1203,-235 1203,-235 1203,-235 1203,-177 1203,-127.64 1147.58,-95.61 1109.67,-79.48"/>
<polygon fill="midnightblue" stroke="midnightblue" points="1110.57,-76.06 1099.98,-75.53 1107.93,-82.55 1110.57,-76.06"/>
</g>
<!-- Node14&#45;&gt;Node5 -->
<g id="edge21" class="edge">
<title>Node14&#45;&gt;Node5</title>
<path fill="none" stroke="midnightblue" d="M904.5,-336.48C885.1,-314.88 830.85,-257.36 775,-224 750.21,-209.2 719.75,-197.95 695.46,-190.41"/>
<polygon fill="midnightblue" stroke="midnightblue" points="696.39,-187.03 685.81,-187.5 694.37,-193.74 696.39,-187.03"/>
</g>
<!-- Node14&#45;&gt;Node6 -->
<g id="edge37" class="edge">
<title>Node14&#45;&gt;Node6</title>
<path fill="none" stroke="midnightblue" d="M895.38,-336.46C855.81,-316.23 752.75,-264.04 665,-224 627.68,-206.97 606.88,-219 580,-188 554.7,-158.83 549.11,-111.85 548.05,-85.85"/>
<polygon fill="midnightblue" stroke="midnightblue" points="551.55,-85.72 547.83,-75.8 544.55,-85.88 551.55,-85.72"/>
</g>
<!-- Node14&#45;&gt;Node7 -->
<g id="edge36" class="edge">
<title>Node14&#45;&gt;Node7</title>
<path fill="none" stroke="midnightblue" d="M960.88,-336.48C984.11,-330.09 1010.55,-319.02 1028,-300 1048.35,-277.83 1047,-265.1 1047,-235 1047,-235 1047,-235 1047,-177 1047,-130.11 996.45,-96.89 962.67,-79.93"/>
<polygon fill="midnightblue" stroke="midnightblue" points="964.17,-76.77 953.64,-75.58 961.13,-83.07 964.17,-76.77"/>
</g>
<!-- Node15 -->
<g id="node15" class="node">
<title>Node15</title>
<g id="a_node15"><a xlink:href="RectangleShadow_8hpp.html" target="_top" xlink:title=" ">
<polygon fill="white" stroke="black" points="895,-280.5 895,-299.5 1019,-299.5 1019,-280.5 895,-280.5"/>
<text text-anchor="middle" x="957" y="-287.5" font-family="Helvetica,sans-Serif" font-size="10.00">RectangleShadow.hpp</text>
</a>
</g>
</g>
<!-- Node14&#45;&gt;Node15 -->
<g id="edge22" class="edge">
<title>Node14&#45;&gt;Node15</title>
<path fill="none" stroke="midnightblue" d="M919.43,-336.08C925.85,-328.38 935.31,-317.03 943.12,-307.65"/>
<polygon fill="midnightblue" stroke="midnightblue" points="945.99,-309.67 949.71,-299.75 940.62,-305.19 945.99,-309.67"/>
</g>
<!-- Node17 -->
<g id="node17" class="node">
<title>Node17</title>
<g id="a_node17"><a xlink:href="MemoryShadow_8hpp.html" target="_top" xlink:title=" ">
<polygon fill="white" stroke="black" points="827,-224.5 827,-243.5 943,-243.5 943,-224.5 827,-224.5"/>
<text text-anchor="middle" x="885" y="-231.5" font-family="Helvetica,sans-Serif" font-size="10.00">MemoryShadow.hpp</text>
</a>
</g>
</g>
<!-- Node14&#45;&gt;Node17 -->
<g id="edge30" class="edge">
<title>Node14&#45;&gt;Node17</title>
<path fill="none" stroke="midnightblue" d="M905.16,-336.31C898.81,-327.66 889.8,-313.74 886,-300 881.81,-284.86 881.89,-266.96 882.82,-253.78"/>
<polygon fill="midnightblue" stroke="midnightblue" points="886.33,-253.89 883.78,-243.61 879.36,-253.23 886.33,-253.89"/>
</g>
<!-- Node18 -->
<g id="node18" class="node">
<title>Node18</title>
<g id="a_node18"><a xlink:href="IMemoryBus_8hpp.html" target="_top" xlink:title=" ">
<polygon fill="white" stroke="black" points="1075.5,-168.5 1075.5,-187.5 1174.5,-187.5 1174.5,-168.5 1075.5,-168.5"/>
<text text-anchor="middle" x="1125" y="-175.5" font-family="Helvetica,sans-Serif" font-size="10.00">IMemoryBus.hpp</text>
</a>
</g>
</g>
<!-- Node14&#45;&gt;Node18 -->
<g id="edge31" class="edge">
<title>Node14&#45;&gt;Node18</title>
<path fill="none" stroke="midnightblue" d="M978.59,-336.48C1006.48,-330.16 1037.74,-319.15 1061,-300 1093.91,-272.91 1112.12,-224.37 1120.08,-197.75"/>
<polygon fill="midnightblue" stroke="midnightblue" points="1123.53,-198.38 1122.87,-187.81 1116.8,-196.49 1123.53,-198.38"/>
</g>
<!-- Node15&#45;&gt;Node7 -->
<g id="edge23" class="edge">
<title>Node15&#45;&gt;Node7</title>
<path fill="none" stroke="midnightblue" d="M960.34,-280.2C963.55,-271.24 968.18,-256.88 970,-244 971.25,-235.2 971.03,-232.83 970,-224 964.07,-172.94 947.62,-114.39 938.79,-85.34"/>
<polygon fill="midnightblue" stroke="midnightblue" points="942.11,-84.24 935.81,-75.73 935.42,-86.31 942.11,-84.24"/>
</g>
<!-- Node16 -->
<g id="node16" class="node">
<title>Node16</title>
<g id="a_node16"><a xlink:href="ARectangleMemory_8hpp.html" target="_top" xlink:title=" ">
<polygon fill="white" stroke="black" points="735,-168.5 735,-187.5 867,-187.5 867,-168.5 735,-168.5"/>
<text text-anchor="middle" x="801" y="-175.5" font-family="Helvetica,sans-Serif" font-size="10.00">ARectangleMemory.hpp</text>
</a>
</g>
</g>
<!-- Node15&#45;&gt;Node16 -->
<g id="edge24" class="edge">
<title>Node15&#45;&gt;Node16</title>
<path fill="none" stroke="midnightblue" d="M959.14,-280.31C961.94,-266.7 965.08,-240.21 952,-224 933.87,-201.53 905.02,-189.94 877.38,-184.08"/>
<polygon fill="midnightblue" stroke="midnightblue" points="877.75,-180.59 867.27,-182.17 876.45,-187.46 877.75,-180.59"/>
</g>
<!-- Node15&#45;&gt;Node17 -->
<g id="edge27" class="edge">
<title>Node15&#45;&gt;Node17</title>
<path fill="none" stroke="midnightblue" d="M945.43,-280.32C934.58,-272.18 918.12,-259.84 905.12,-250.09"/>
<polygon fill="midnightblue" stroke="midnightblue" points="906.88,-247.03 896.78,-243.83 902.68,-252.63 906.88,-247.03"/>
</g>
<!-- Node16&#45;&gt;Node9 -->
<g id="edge26" class="edge">
<title>Node16&#45;&gt;Node9</title>
<path fill="none" stroke="midnightblue" d="M801.31,-168.14C801.65,-155.61 801.92,-132 800,-112 799.16,-103.2 797.53,-93.54 795.97,-85.44"/>
<polygon fill="midnightblue" stroke="midnightblue" points="799.38,-84.67 793.95,-75.57 792.52,-86.07 799.38,-84.67"/>
</g>
<!-- Node16&#45;&gt;Node13 -->
<g id="edge25" class="edge">
<title>Node16&#45;&gt;Node13</title>
<path fill="none" stroke="midnightblue" d="M792.74,-168.08C785.54,-160.3 774.89,-148.8 766.15,-139.37"/>
<polygon fill="midnightblue" stroke="midnightblue" points="768.47,-136.71 759.1,-131.75 763.33,-141.47 768.47,-136.71"/>
</g>
<!-- Node17&#45;&gt;Node5 -->
<g id="edge29" class="edge">
<title>Node17&#45;&gt;Node5</title>
<path fill="none" stroke="midnightblue" d="M848.24,-224.44C807.94,-215.06 743.19,-199.99 699.42,-189.8"/>
<polygon fill="midnightblue" stroke="midnightblue" points="700.12,-186.37 689.59,-187.52 698.54,-193.19 700.12,-186.37"/>
</g>
<!-- Node17&#45;&gt;Node7 -->
<g id="edge28" class="edge">
<title>Node17&#45;&gt;Node7</title>
<path fill="none" stroke="midnightblue" d="M890.58,-224.39C896.05,-215.58 904.24,-201.34 909,-188 921.49,-153 928.08,-109.86 931.02,-85.69"/>
<polygon fill="midnightblue" stroke="midnightblue" points="934.5,-86.07 932.16,-75.74 927.55,-85.28 934.5,-86.07"/>
</g>
<!-- Node18&#45;&gt;Node10 -->
<g id="edge32" class="edge">
<title>Node18&#45;&gt;Node10</title>
<path fill="none" stroke="midnightblue" d="M1128.86,-168.25C1132.56,-159.33 1137.89,-145.01 1140,-132 1145.84,-95.99 1136.83,-79.58 1109,-56 1084.55,-35.28 1049.9,-23.85 1022.96,-17.7"/>
<polygon fill="midnightblue" stroke="midnightblue" points="1023.57,-14.25 1013.06,-15.6 1022.11,-21.1 1023.57,-14.25"/>
</g>
<!-- Node18&#45;&gt;Node13 -->
<g id="edge34" class="edge">
<title>Node18&#45;&gt;Node13</title>
<path fill="none" stroke="midnightblue" d="M1075.34,-169.83C1003.94,-159.52 873.01,-140.62 801.27,-130.26"/>
<polygon fill="midnightblue" stroke="midnightblue" points="801.53,-126.76 791.13,-128.79 800.53,-133.69 801.53,-126.76"/>
</g>
<!-- Node19 -->
<g id="node19" class="node">
<title>Node19</title>
<g id="a_node19"><a xlink:title=" ">
<polygon fill="white" stroke="#bfbfbf" points="1075,-112.5 1075,-131.5 1131,-131.5 1131,-112.5 1075,-112.5"/>
<text text-anchor="middle" x="1103" y="-119.5" font-family="Helvetica,sans-Serif" font-size="10.00">optional</text>
</a>
</g>
</g>
<!-- Node18&#45;&gt;Node19 -->
<g id="edge33" class="edge">
<title>Node18&#45;&gt;Node19</title>
<path fill="none" stroke="midnightblue" d="M1121.37,-168.08C1118.39,-160.77 1114.07,-150.18 1110.38,-141.1"/>
<polygon fill="midnightblue" stroke="midnightblue" points="1113.58,-139.69 1106.57,-131.75 1107.1,-142.33 1113.58,-139.69"/>
</g>
<!-- Node20&#45;&gt;Node8 -->
<g id="edge39" class="edge">
<title>Node20&#45;&gt;Node8</title>
<path fill="none" stroke="midnightblue" d="M82.69,-224.37C67.21,-211.49 42.86,-186.77 57,-168 96.1,-116.11 297.14,-82.7 376.61,-71.33"/>
<polygon fill="midnightblue" stroke="midnightblue" points="377.57,-74.73 386.99,-69.88 376.6,-67.8 377.57,-74.73"/>
</g>
<!-- Node21 -->
<g id="node21" class="node">
<title>Node21</title>
<g id="a_node21"><a xlink:title=" ">
<polygon fill="white" stroke="#bfbfbf" points="303,-168.5 303,-187.5 343,-187.5 343,-168.5 303,-168.5"/>
<text text-anchor="middle" x="323" y="-175.5" font-family="Helvetica,sans-Serif" font-size="10.00">span</text>
</a>
</g>
</g>
<!-- Node20&#45;&gt;Node21 -->
<g id="edge40" class="edge">
<title>Node20&#45;&gt;Node21</title>
<path fill="none" stroke="midnightblue" d="M135.75,-224.44C176.15,-215.94 239.04,-202.18 293,-188 293.1,-187.97 293.2,-187.95 293.3,-187.92"/>
<polygon fill="midnightblue" stroke="midnightblue" points="294.03,-191.35 302.72,-185.29 292.15,-184.61 294.03,-191.35"/>
</g>
<!-- Node22&#45;&gt;Node6 -->
<g id="edge45" class="edge">
<title>Node22&#45;&gt;Node6</title>
<path fill="none" stroke="midnightblue" d="M359.12,-224.31C376.63,-203.29 423.8,-148.73 471,-112 486.68,-99.79 506,-88.52 521.36,-80.3"/>
<polygon fill="midnightblue" stroke="midnightblue" points="523.11,-83.34 530.35,-75.6 519.86,-77.14 523.11,-83.34"/>
</g>
<!-- Node22&#45;&gt;Node8 -->
<g id="edge43" class="edge">
<title>Node22&#45;&gt;Node8</title>
<path fill="none" stroke="midnightblue" d="M355.06,-224.08C364.08,-197.83 390.61,-120.55 402.78,-85.12"/>
<polygon fill="midnightblue" stroke="midnightblue" points="406.12,-86.16 406.06,-75.57 399.5,-83.89 406.12,-86.16"/>
</g>
<!-- Node22&#45;&gt;Node16 -->
<g id="edge42" class="edge">
<title>Node22&#45;&gt;Node16</title>
<path fill="none" stroke="midnightblue" d="M395.05,-227.82C470.97,-218.69 629.59,-199.61 724.52,-188.2"/>
<polygon fill="midnightblue" stroke="midnightblue" points="725.12,-191.65 734.63,-186.98 724.29,-184.7 725.12,-191.65"/>
</g>
<!-- Node22&#45;&gt;Node21 -->
<g id="edge44" class="edge">
<title>Node22&#45;&gt;Node21</title>
<path fill="none" stroke="midnightblue" d="M347.21,-224.08C343.24,-216.69 337.47,-205.95 332.57,-196.81"/>
<polygon fill="midnightblue" stroke="midnightblue" points="335.51,-194.91 327.7,-187.75 329.35,-198.22 335.51,-194.91"/>
</g>
<!-- Node24 -->
<g id="node24" class="node">
<title>Node24</title>
<g id="a_node24"><a xlink:title=" ">
<polygon fill="white" stroke="#bfbfbf" points="227.5,-168.5 227.5,-187.5 284.5,-187.5 284.5,-168.5 227.5,-168.5"/>
<text text-anchor="middle" x="256" y="-175.5" font-family="Helvetica,sans-Serif" font-size="10.00">ostream</text>
</a>
</g>
</g>
<!-- Node23&#45;&gt;Node24 -->
<g id="edge47" class="edge">
<title>Node23&#45;&gt;Node24</title>
<path fill="none" stroke="midnightblue" d="M237.63,-224.08C240.61,-216.77 244.93,-206.18 248.62,-197.1"/>
<polygon fill="midnightblue" stroke="midnightblue" points="251.9,-198.33 252.43,-187.75 245.42,-195.69 251.9,-198.33"/>
</g>
<!-- Node25 -->
<g id="node25" class="node">
<title>Node25</title>
<g id="a_node25"><a xlink:title=" ">
<polygon fill="white" stroke="#bfbfbf" points="66.5,-168.5 66.5,-187.5 209.5,-187.5 209.5,-168.5 66.5,-168.5"/>
<text text-anchor="middle" x="138" y="-175.5" font-family="Helvetica,sans-Serif" font-size="10.00">SFML/System/Vector2.hpp</text>
</a>
</g>
</g>
<!-- Node23&#45;&gt;Node25 -->
<g id="edge48" class="edge">
<title>Node23&#45;&gt;Node25</title>
<path fill="none" stroke="midnightblue" d="M218.58,-224.32C203.46,-215.82 180.18,-202.73 162.53,-192.8"/>
<polygon fill="midnightblue" stroke="midnightblue" points="163.82,-189.51 153.39,-187.65 160.39,-195.61 163.82,-189.51"/>
</g>
<!-- Node27&#45;&gt;Node3 -->
<g id="edge59" class="edge">
<title>Node27&#45;&gt;Node3</title>
<path fill="none" stroke="midnightblue" d="M457.29,-355.75C464.1,-363.17 472.17,-374.05 477.91,-383.27"/>
<polygon fill="midnightblue" stroke="midnightblue" points="474.92,-385.1 482.89,-392.08 481.01,-381.66 474.92,-385.1"/>
</g>
<!-- Node27&#45;&gt;Node6 -->
<g id="edge52" class="edge">
<title>Node27&#45;&gt;Node6</title>
<path fill="none" stroke="midnightblue" d="M443.81,-336.24C439.15,-315.95 429.64,-264.4 442,-224 459.88,-165.57 507.63,-109.26 532.48,-82.77"/>
<polygon fill="midnightblue" stroke="midnightblue" points="535.02,-85.18 539.4,-75.53 529.96,-80.34 535.02,-85.18"/>
</g>
<!-- Node27&#45;&gt;Node11 -->
<g id="edge53" class="edge">
<title>Node27&#45;&gt;Node11</title>
<path fill="none" stroke="midnightblue" d="M402.02,-336.48C289.5,-314.39 0,-255.56 0,-235 0,-235 0,-235 0,-121 0,-16.39 385.5,-9.78 512.77,-10.45"/>
<polygon fill="midnightblue" stroke="midnightblue" points="512.85,-13.95 522.88,-10.52 512.9,-6.95 512.85,-13.95"/>
</g>
<!-- Node27&#45;&gt;Node22 -->
<g id="edge58" class="edge">
<title>Node27&#45;&gt;Node22</title>
<path fill="none" stroke="midnightblue" d="M406.71,-336.47C362.06,-326.38 294.35,-309.72 287,-300 272.04,-280.22 299.19,-260.51 322.83,-248.07"/>
<polygon fill="midnightblue" stroke="midnightblue" points="324.58,-251.11 331.96,-243.51 321.45,-244.85 324.58,-251.11"/>
</g>
<!-- Node27&#45;&gt;Node23 -->
<g id="edge54" class="edge">
<title>Node27&#45;&gt;Node23</title>
<path fill="none" stroke="midnightblue" d="M400.64,-336.44C358.21,-327.79 298.51,-313.76 279,-300 262.05,-288.05 249.43,-267.55 241.93,-252.77"/>
<polygon fill="midnightblue" stroke="midnightblue" points="245.04,-251.14 237.57,-243.62 238.72,-254.15 245.04,-251.14"/>
</g>
<!-- Node28 -->
<g id="node28" class="node">
<title>Node28</title>
<g id="a_node28"><a xlink:title=" ">
<polygon fill="white" stroke="#bfbfbf" points="451,-224.5 451,-243.5 493,-243.5 493,-224.5 451,-224.5"/>
<text text-anchor="middle" x="472" y="-231.5" font-family="Helvetica,sans-Serif" font-size="10.00">array</text>
</a>
</g>
</g>
<!-- Node27&#45;&gt;Node28 -->
<g id="edge51" class="edge">
<title>Node27&#45;&gt;Node28</title>
<path fill="none" stroke="midnightblue" d="M448.99,-336.46C452.06,-327.47 456.82,-312.87 460,-300 463.79,-284.66 466.97,-267.02 469.11,-253.99"/>
<polygon fill="midnightblue" stroke="midnightblue" points="472.6,-254.33 470.7,-243.9 465.68,-253.23 472.6,-254.33"/>
</g>
<!-- Node29 -->
<g id="node29" class="node">
<title>Node29</title>
<g id="a_node29"><a xlink:href="TileRenderer_8hpp.html" target="_top" xlink:title=" ">
<polygon fill="white" stroke="black" points="296,-280.5 296,-299.5 418,-299.5 418,-280.5 296,-280.5"/>
<text text-anchor="middle" x="357" y="-287.5" font-family="Helvetica,sans-Serif" font-size="10.00">PPU/TileRenderer.hpp</text>
</a>
</g>
</g>
<!-- Node27&#45;&gt;Node29 -->
<g id="edge55" class="edge">
<title>Node27&#45;&gt;Node29</title>
<path fill="none" stroke="midnightblue" d="M431.7,-336.32C417.82,-327.9 396.51,-314.97 380.2,-305.07"/>
<polygon fill="midnightblue" stroke="midnightblue" points="381.63,-301.85 371.26,-299.65 378,-307.83 381.63,-301.85"/>
</g>
<!-- Node27&#45;&gt;Node30 -->
<g id="edge60" class="edge">
<title>Node27&#45;&gt;Node30</title>
<path fill="none" stroke="midnightblue" d="M464.54,-336.44C483.62,-327.64 513.57,-313.81 535.44,-303.72"/>
<polygon fill="midnightblue" stroke="midnightblue" points="536.93,-306.88 544.55,-299.52 534,-300.53 536.93,-306.88"/>
</g>
<!-- Node29&#45;&gt;Node22 -->
<g id="edge57" class="edge">
<title>Node29&#45;&gt;Node22</title>
<path fill="none" stroke="midnightblue" d="M356.17,-280.08C355.52,-273.01 354.58,-262.86 353.76,-253.99"/>
<polygon fill="midnightblue" stroke="midnightblue" points="357.22,-253.39 352.81,-243.75 350.25,-254.03 357.22,-253.39"/>
</g>
<!-- Node29&#45;&gt;Node28 -->
<g id="edge56" class="edge">
<title>Node29&#45;&gt;Node28</title>
<path fill="none" stroke="midnightblue" d="M375.22,-280.44C393.9,-271.68 423.16,-257.94 444.62,-247.86"/>
<polygon fill="midnightblue" stroke="midnightblue" points="446.3,-250.93 453.86,-243.52 443.32,-244.6 446.3,-250.93"/>
</g>
<!-- Node30&#45;&gt;Node7 -->
<g id="edge63" class="edge">
<title>Node30&#45;&gt;Node7</title>
<path fill="none" stroke="midnightblue" d="M602.15,-280.47C676.51,-263.62 834.46,-224.53 876,-188 892.31,-173.66 915.21,-115.69 926.37,-85.49"/>
<polygon fill="midnightblue" stroke="midnightblue" points="929.78,-86.35 929.91,-75.76 923.2,-83.96 929.78,-86.35"/>
</g>
<!-- Node30&#45;&gt;Node23 -->
<g id="edge65" class="edge">
<title>Node30&#45;&gt;Node23</title>
<path fill="none" stroke="midnightblue" d="M511.95,-280.62C453.74,-271.07 358.56,-255.44 296.1,-245.19"/>
<polygon fill="midnightblue" stroke="midnightblue" points="296.42,-241.7 285.98,-243.53 295.28,-248.61 296.42,-241.7"/>
</g>
<!-- Node30&#45;&gt;Node28 -->
<g id="edge64" class="edge">
<title>Node30&#45;&gt;Node28</title>
<path fill="none" stroke="midnightblue" d="M548.38,-280.32C534.05,-271.82 511.99,-258.73 495.25,-248.8"/>
<polygon fill="midnightblue" stroke="midnightblue" points="496.97,-245.75 486.58,-243.65 493.4,-251.77 496.97,-245.75"/>
</g>
<!-- Node31 -->
<g id="node31" class="node">
<title>Node31</title>
<g id="a_node31"><a xlink:title=" ">
<polygon fill="white" stroke="#bfbfbf" points="511,-224.5 511,-243.5 585,-243.5 585,-224.5 511,-224.5"/>
<text text-anchor="middle" x="548" y="-231.5" font-family="Helvetica,sans-Serif" font-size="10.00">stdint&#45;gcc.h</text>
</a>
</g>
</g>
<!-- Node30&#45;&gt;Node31 -->
<g id="edge61" class="edge">
<title>Node30&#45;&gt;Node31</title>
<path fill="none" stroke="midnightblue" d="M560.52,-280.08C558.51,-272.85 555.61,-262.41 553.11,-253.4"/>
<polygon fill="midnightblue" stroke="midnightblue" points="556.48,-252.45 550.43,-243.75 549.74,-254.32 556.48,-252.45"/>
</g>
<!-- Node32 -->
<g id="node32" class="node">
<title>Node32</title>
<g id="a_node32"><a xlink:title=" ">
<polygon fill="white" stroke="#bfbfbf" points="603.5,-224.5 603.5,-243.5 656.5,-243.5 656.5,-224.5 603.5,-224.5"/>
<text text-anchor="middle" x="630" y="-231.5" font-family="Helvetica,sans-Serif" font-size="10.00">cstddef</text>
</a>
</g>
</g>
<!-- Node30&#45;&gt;Node32 -->
<g id="edge62" class="edge">
<title>Node30&#45;&gt;Node32</title>
<path fill="none" stroke="midnightblue" d="M573.76,-280.32C583.77,-272.26 598.89,-260.08 610.93,-250.37"/>
<polygon fill="midnightblue" stroke="midnightblue" points="613.45,-252.83 619.04,-243.83 609.06,-247.38 613.45,-252.83"/>
</g>
<!-- Node39&#45;&gt;Node2 -->
<g id="edge74" class="edge">
<title>Node39&#45;&gt;Node2</title>
<path fill="none" stroke="midnightblue" d="M1385.92,-392.08C1377.83,-384.14 1365.8,-372.34 1356.09,-362.8"/>
<polygon fill="midnightblue" stroke="midnightblue" points="1358.5,-360.26 1348.91,-355.75 1353.6,-365.25 1358.5,-360.26"/>
</g>
<!-- Node40 -->
<g id="node40" class="node">
<title>Node40</title>
<g id="a_node40"><a xlink:title=" ">
<polygon fill="white" stroke="#bfbfbf" points="1428.5,-336.5 1428.5,-355.5 1473.5,-355.5 1473.5,-336.5 1428.5,-336.5"/>
<text text-anchor="middle" x="1451" y="-343.5" font-family="Helvetica,sans-Serif" font-size="10.00">utility</text>
</a>
</g>
</g>
<!-- Node39&#45;&gt;Node40 -->
<g id="edge75" class="edge">
<title>Node39&#45;&gt;Node40</title>
<path fill="none" stroke="midnightblue" d="M1404,-392.32C1412.19,-384.42 1424.51,-372.55 1434.47,-362.94"/>
<polygon fill="midnightblue" stroke="midnightblue" points="1437.07,-365.29 1441.84,-355.83 1432.21,-360.26 1437.07,-365.29"/>
</g>
</g>
</svg>
