<?xml version="1.0" encoding="UTF-8" standalone="no"?>
<!DOCTYPE svg PUBLIC "-//W3C//DTD SVG 1.1//EN"
 "http://www.w3.org/Graphics/SVG/1.1/DTD/svg11.dtd">
<!-- Generated by graphviz version 2.43.0 (0)
 -->
<!-- Title: ComSquare::Debugger::MemoryBusDebug Pages: 1 -->
<svg width="547pt" height="679pt"
 viewBox="0.00 0.00 547.00 679.00" xmlns="http://www.w3.org/2000/svg" xmlns:xlink="http://www.w3.org/1999/xlink">
<g id="graph0" class="graph" transform="scale(1 1) rotate(0) translate(4 675)">
<title>ComSquare::Debugger::MemoryBusDebug</title>
<polygon fill="white" stroke="transparent" points="-4,4 -4,-675 543,-675 543,4 -4,4"/>
<!-- Node1 -->
<g id="node1" class="node">
<title>Node1</title>
<g id="a_node1"><a xlink:title="window that allow the user to view all data going through the memory bus.">
<polygon fill="#bfbfbf" stroke="black" points="185,-0.5 185,-167.5 319,-167.5 319,-0.5 185,-0.5"/>
<text text-anchor="start" x="193" y="-155.5" font-family="Helvetica,sans-Serif" font-size="10.00">ComSquare::Debugger</text>
<text text-anchor="middle" x="252" y="-144.5" font-family="Helvetica,sans-Serif" font-size="10.00">::MemoryBusDebug</text>
<polyline fill="none" stroke="black" points="185,-137.5 319,-137.5 "/>
<text text-anchor="start" x="193" y="-125.5" font-family="Helvetica,sans-Serif" font-size="10.00">&#45; _ui</text>
<polyline fill="none" stroke="black" points="185,-118.5 319,-118.5 "/>
<text text-anchor="start" x="193" y="-106.5" font-family="Helvetica,sans-Serif" font-size="10.00">+ MemoryBusDebug()</text>
<text text-anchor="start" x="193" y="-95.5" font-family="Helvetica,sans-Serif" font-size="10.00">+ MemoryBusDebug()</text>
<text text-anchor="start" x="193" y="-84.5" font-family="Helvetica,sans-Serif" font-size="10.00">+ operator=()</text>
<text text-anchor="start" x="193" y="-73.5" font-family="Helvetica,sans-Serif" font-size="10.00">+ ~MemoryBusDebug()</text>
<text text-anchor="start" x="193" y="-62.5" font-family="Helvetica,sans-Serif" font-size="10.00">+ read()</text>
<text text-anchor="start" x="193" y="-51.5" font-family="Helvetica,sans-Serif" font-size="10.00">+ peek()</text>
<text text-anchor="start" x="193" y="-40.5" font-family="Helvetica,sans-Serif" font-size="10.00">+ peek_v()</text>
<text text-anchor="start" x="193" y="-29.5" font-family="Helvetica,sans-Serif" font-size="10.00">+ write()</text>
<text text-anchor="start" x="193" y="-18.5" font-family="Helvetica,sans-Serif" font-size="10.00">+ getAccessor()</text>
<text text-anchor="start" x="193" y="-7.5" font-family="Helvetica,sans-Serif" font-size="10.00">+ focus()</text>
</a>
</g>
</g>
<!-- Node2 -->
<g id="node2" class="node">
<title>Node2</title>
<g id="a_node2"><a xlink:href="classComSquare_1_1Memory_1_1IMemoryBus.html" target="_top" xlink:title="The memory bus is the component responsible of mapping addresses to components address and transmitti...">
<polygon fill="white" stroke="black" points="45.5,-215.5 45.5,-338.5 170.5,-338.5 170.5,-215.5 45.5,-215.5"/>
<text text-anchor="start" x="53.5" y="-326.5" font-family="Helvetica,sans-Serif" font-size="10.00">ComSquare::Memory::</text>
<text text-anchor="middle" x="108" y="-315.5" font-family="Helvetica,sans-Serif" font-size="10.00">IMemoryBus</text>
<polyline fill="none" stroke="black" points="45.5,-308.5 170.5,-308.5 "/>
<text text-anchor="middle" x="108" y="-296.5" font-family="Helvetica,sans-Serif" font-size="10.00"> </text>
<polyline fill="none" stroke="black" points="45.5,-289.5 170.5,-289.5 "/>
<text text-anchor="start" x="53.5" y="-277.5" font-family="Helvetica,sans-Serif" font-size="10.00">+ ~IMemoryBus()</text>
<text text-anchor="start" x="53.5" y="-266.5" font-family="Helvetica,sans-Serif" font-size="10.00">+ read()</text>
<text text-anchor="start" x="53.5" y="-255.5" font-family="Helvetica,sans-Serif" font-size="10.00">+ peek()</text>
<text text-anchor="start" x="53.5" y="-244.5" font-family="Helvetica,sans-Serif" font-size="10.00">+ peek_v()</text>
<text text-anchor="start" x="53.5" y="-233.5" font-family="Helvetica,sans-Serif" font-size="10.00">+ write()</text>
<text text-anchor="start" x="53.5" y="-222.5" font-family="Helvetica,sans-Serif" font-size="10.00">+ getAccessor()</text>
</a>
</g>
</g>
<!-- Node2&#45;&gt;Node1 -->
<g id="edge1" class="edge">
<title>Node2&#45;&gt;Node1</title>
<path fill="none" stroke="midnightblue" d="M148.97,-206.21C153.54,-199.27 158.26,-192.42 163,-186 169.8,-176.78 177.25,-167.39 184.87,-158.24"/>
<polygon fill="none" stroke="midnightblue" points="145.77,-204.72 143.28,-215.02 151.64,-208.52 145.77,-204.72"/>
</g>
<!-- Node2&#45;&gt;Node1 -->
<g id="edge4" class="edge">
<title>Node2&#45;&gt;Node1</title>
<path fill="none" stroke="#404040" d="M153.76,-215.3C162.88,-203.2 172.66,-190.24 182.37,-177.36"/>
<polygon fill="none" stroke="#404040" points="182.55,-177.11 182.97,-169.91 189.78,-167.53 189.36,-174.73 182.55,-177.11"/>
<text text-anchor="middle" x="191" y="-189" font-family="Helvetica,sans-Serif" font-size="10.00"> &#45;_bus</text>
</g>
<!-- Node3 -->
<g id="node3" class="node">
<title>Node3</title>
<g id="a_node3"><a xlink:href="classComSquare_1_1Debugger_1_1BusLogModel.html" target="_top" xlink:title="The qt model that bind the logs to the view.">
<polygon fill="white" stroke="black" points="288,-386.5 288,-575.5 414,-575.5 414,-386.5 288,-386.5"/>
<text text-anchor="start" x="296" y="-563.5" font-family="Helvetica,sans-Serif" font-size="10.00">ComSquare::Debugger</text>
<text text-anchor="middle" x="351" y="-552.5" font-family="Helvetica,sans-Serif" font-size="10.00">::BusLogModel</text>
<polyline fill="none" stroke="black" points="288,-545.5 414,-545.5 "/>
<text text-anchor="start" x="296" y="-533.5" font-family="Helvetica,sans-Serif" font-size="10.00">+ column</text>
<text text-anchor="start" x="296" y="-522.5" font-family="Helvetica,sans-Serif" font-size="10.00">&#45; _logs</text>
<polyline fill="none" stroke="black" points="288,-515.5 414,-515.5 "/>
<text text-anchor="start" x="296" y="-503.5" font-family="Helvetica,sans-Serif" font-size="10.00">+ BusLogModel()</text>
<text text-anchor="start" x="296" y="-492.5" font-family="Helvetica,sans-Serif" font-size="10.00">+ BusLogModel()</text>
<text text-anchor="start" x="296" y="-481.5" font-family="Helvetica,sans-Serif" font-size="10.00">+ operator=()</text>
<text text-anchor="start" x="296" y="-470.5" font-family="Helvetica,sans-Serif" font-size="10.00">+ ~BusLogModel()</text>
<text text-anchor="start" x="296" y="-459.5" font-family="Helvetica,sans-Serif" font-size="10.00">+ log()</text>
<text text-anchor="start" x="296" y="-448.5" font-family="Helvetica,sans-Serif" font-size="10.00">+ getLogAt()</text>
<text text-anchor="start" x="296" y="-437.5" font-family="Helvetica,sans-Serif" font-size="10.00">+ clearLogs()</text>
<text text-anchor="start" x="296" y="-426.5" font-family="Helvetica,sans-Serif" font-size="10.00">+ rowCount()</text>
<text text-anchor="start" x="296" y="-415.5" font-family="Helvetica,sans-Serif" font-size="10.00">+ columnCount()</text>
<text text-anchor="start" x="296" y="-404.5" font-family="Helvetica,sans-Serif" font-size="10.00">+ data()</text>
<text text-anchor="start" x="296" y="-393.5" font-family="Helvetica,sans-Serif" font-size="10.00">+ headerData()</text>
</a>
</g>
</g>
<!-- Node3&#45;&gt;Node1 -->
<g id="edge2" class="edge">
<title>Node3&#45;&gt;Node1</title>
<path fill="none" stroke="#404040" d="M350.62,-386.48C348.15,-334.89 341.32,-270.27 324,-215 320.19,-202.84 315.17,-190.54 309.55,-178.6"/>
<polygon fill="none" stroke="#404040" points="309.52,-178.52 303.28,-174.89 304.24,-167.74 310.47,-171.37 309.52,-178.52"/>
<text text-anchor="middle" x="369.5" y="-274.5" font-family="Helvetica,sans-Serif" font-size="10.00"> &#45;_model</text>
</g>
<!-- Node7 -->
<g id="node7" class="node">
<title>Node7</title>
<g id="a_node7"><a xlink:href="classComSquare_1_1Debugger_1_1BusLoggerProxy.html" target="_top" xlink:title="A class to filter logs from the memory bus&#39;s debugger.">
<polygon fill="white" stroke="black" points="189,-215.5 189,-338.5 315,-338.5 315,-215.5 189,-215.5"/>
<text text-anchor="start" x="197" y="-326.5" font-family="Helvetica,sans-Serif" font-size="10.00">ComSquare::Debugger</text>
<text text-anchor="middle" x="252" y="-315.5" font-family="Helvetica,sans-Serif" font-size="10.00">::BusLoggerProxy</text>
<polyline fill="none" stroke="black" points="189,-308.5 315,-308.5 "/>
<text text-anchor="middle" x="252" y="-296.5" font-family="Helvetica,sans-Serif" font-size="10.00"> </text>
<polyline fill="none" stroke="black" points="189,-289.5 315,-289.5 "/>
<text text-anchor="start" x="197" y="-277.5" font-family="Helvetica,sans-Serif" font-size="10.00">+ refresh()</text>
<text text-anchor="start" x="197" y="-266.5" font-family="Helvetica,sans-Serif" font-size="10.00">+ BusLoggerProxy()</text>
<text text-anchor="start" x="197" y="-255.5" font-family="Helvetica,sans-Serif" font-size="10.00">+ BusLoggerProxy()</text>
<text text-anchor="start" x="197" y="-244.5" font-family="Helvetica,sans-Serif" font-size="10.00">+ operator=()</text>
<text text-anchor="start" x="197" y="-233.5" font-family="Helvetica,sans-Serif" font-size="10.00">+ ~BusLoggerProxy()</text>
<text text-anchor="start" x="197" y="-222.5" font-family="Helvetica,sans-Serif" font-size="10.00"># filterAcceptsRow()</text>
</a>
</g>
</g>
<!-- Node3&#45;&gt;Node7 -->
<g id="edge9" class="edge">
<title>Node3&#45;&gt;Node7</title>
<path fill="none" stroke="#404040" d="M302.07,-386.37C298.97,-380.17 295.92,-374.01 293,-368 290.14,-362.11 287.22,-355.98 284.32,-349.81"/>
<polygon fill="none" stroke="#404040" points="284.22,-349.59 278.06,-345.84 279.15,-338.71 285.31,-342.46 284.22,-349.59"/>
<text text-anchor="middle" x="315" y="-360" font-family="Helvetica,sans-Serif" font-size="10.00"> &#45;_parent</text>
</g>
<!-- Node4 -->
<g id="node4" class="node">
<title>Node4</title>
<g id="a_node4"><a xlink:title=" ">
<polygon fill="white" stroke="#bfbfbf" points="291,-613.5 291,-670.5 411,-670.5 411,-613.5 291,-613.5"/>
<text text-anchor="middle" x="351" y="-658.5" font-family="Helvetica,sans-Serif" font-size="10.00">QAbstractTableModel</text>
<polyline fill="none" stroke="#bfbfbf" points="291,-651.5 411,-651.5 "/>
<text text-anchor="middle" x="351" y="-639.5" font-family="Helvetica,sans-Serif" font-size="10.00"> </text>
<polyline fill="none" stroke="#bfbfbf" points="291,-632.5 411,-632.5 "/>
<text text-anchor="middle" x="351" y="-620.5" font-family="Helvetica,sans-Serif" font-size="10.00"> </text>
</a>
</g>
</g>
<!-- Node4&#45;&gt;Node3 -->
<g id="edge3" class="edge">
<title>Node4&#45;&gt;Node3</title>
<path fill="none" stroke="midnightblue" d="M351,-603.08C351,-594.6 351,-585.24 351,-575.6"/>
<polygon fill="none" stroke="midnightblue" points="347.5,-603.3 351,-613.3 354.5,-603.3 347.5,-603.3"/>
</g>
<!-- Node5 -->
<g id="node5" class="node">
<title>Node5</title>
<g id="a_node5"><a xlink:href="classComSquare_1_1Debugger_1_1ClosableWindow.html" target="_top" xlink:title=" ">
<polygon fill="white" stroke="black" points="413,-221 413,-333 539,-333 539,-221 413,-221"/>
<text text-anchor="start" x="421" y="-321" font-family="Helvetica,sans-Serif" font-size="10.00">ComSquare::Debugger</text>
<text text-anchor="middle" x="476" y="-310" font-family="Helvetica,sans-Serif" font-size="10.00">::ClosableWindow</text>
<polyline fill="none" stroke="black" points="413,-303 539,-303 "/>
<text text-anchor="start" x="421" y="-291" font-family="Helvetica,sans-Serif" font-size="10.00">&#45; _onClose</text>
<polyline fill="none" stroke="black" points="413,-284 539,-284 "/>
<text text-anchor="start" x="421" y="-272" font-family="Helvetica,sans-Serif" font-size="10.00">+ ClosableWindow()</text>
<text text-anchor="start" x="421" y="-261" font-family="Helvetica,sans-Serif" font-size="10.00">+ ClosableWindow()</text>
<text text-anchor="start" x="421" y="-250" font-family="Helvetica,sans-Serif" font-size="10.00">+ operator=()</text>
<text text-anchor="start" x="421" y="-239" font-family="Helvetica,sans-Serif" font-size="10.00">+ ~ClosableWindow()</text>
<text text-anchor="start" x="421" y="-228" font-family="Helvetica,sans-Serif" font-size="10.00"># closeEvent()</text>
</a>
</g>
</g>
<!-- Node5&#45;&gt;Node1 -->
<g id="edge5" class="edge">
<title>Node5&#45;&gt;Node1</title>
<path fill="none" stroke="#404040" d="M412.71,-222.03C386.44,-199.63 355.73,-173.45 328.24,-150"/>
<polygon fill="none" stroke="#404040" points="328.18,-149.95 321.02,-149.1 319.04,-142.17 326.21,-143.02 328.18,-149.95"/>
<text text-anchor="middle" x="403" y="-189" font-family="Helvetica,sans-Serif" font-size="10.00"> &#45;_window</text>
</g>
<!-- Node6 -->
<g id="node6" class="node">
<title>Node6</title>
<g id="a_node6"><a xlink:title=" ">
<polygon fill="white" stroke="#bfbfbf" points="432.5,-452.5 432.5,-509.5 519.5,-509.5 519.5,-452.5 432.5,-452.5"/>
<text text-anchor="middle" x="476" y="-497.5" font-family="Helvetica,sans-Serif" font-size="10.00">QMainWindow</text>
<polyline fill="none" stroke="#bfbfbf" points="432.5,-490.5 519.5,-490.5 "/>
<text text-anchor="middle" x="476" y="-478.5" font-family="Helvetica,sans-Serif" font-size="10.00"> </text>
<polyline fill="none" stroke="#bfbfbf" points="432.5,-471.5 519.5,-471.5 "/>
<text text-anchor="middle" x="476" y="-459.5" font-family="Helvetica,sans-Serif" font-size="10.00"> </text>
</a>
</g>
</g>
<!-- Node6&#45;&gt;Node5 -->
<g id="edge6" class="edge">
<title>Node6&#45;&gt;Node5</title>
<path fill="none" stroke="midnightblue" d="M476,-442.05C476,-411.33 476,-367.64 476,-333.08"/>
<polygon fill="none" stroke="midnightblue" points="472.5,-442.34 476,-452.34 479.5,-442.34 472.5,-442.34"/>
</g>
<!-- Node7&#45;&gt;Node1 -->
<g id="edge7" class="edge">
<title>Node7&#45;&gt;Node1</title>
<path fill="none" stroke="#404040" d="M252,-215.3C252,-203.92 252,-191.76 252,-179.63"/>
<polygon fill="none" stroke="#404040" points="252,-179.53 248,-173.53 252,-167.53 256,-173.53 252,-179.53"/>
<text text-anchor="middle" x="272" y="-189" font-family="Helvetica,sans-Serif" font-size="10.00"> &#45;_proxy</text>
</g>
<!-- Node8 -->
<g id="node8" class="node">
<title>Node8</title>
<g id="a_node8"><a xlink:title=" ">
<polygon fill="white" stroke="#bfbfbf" points="0,-452.5 0,-509.5 126,-509.5 126,-452.5 0,-452.5"/>
<text text-anchor="middle" x="63" y="-497.5" font-family="Helvetica,sans-Serif" font-size="10.00">QSortFilterProxyModel</text>
<polyline fill="none" stroke="#bfbfbf" points="0,-490.5 126,-490.5 "/>
<text text-anchor="middle" x="63" y="-478.5" font-family="Helvetica,sans-Serif" font-size="10.00"> </text>
<polyline fill="none" stroke="#bfbfbf" points="0,-471.5 126,-471.5 "/>
<text text-anchor="middle" x="63" y="-459.5" font-family="Helvetica,sans-Serif" font-size="10.00"> </text>
</a>
</g>
</g>
<!-- Node8&#45;&gt;Node7 -->
<g id="edge8" class="edge">
<title>Node8&#45;&gt;Node7</title>
<path fill="none" stroke="midnightblue" d="M88.48,-443.78C101.67,-425.82 118.45,-404.14 135,-386 151.58,-367.82 170.77,-349.23 188.76,-332.71"/>
<polygon fill="none" stroke="midnightblue" points="85.35,-442.13 82.3,-452.27 91.02,-446.24 85.35,-442.13"/>
</g>
<!-- Node9 -->
<g id="node9" class="node">
<title>Node9</title>
<g id="a_node9"><a xlink:href="structComSquare_1_1Debugger_1_1BusLoggerFilters.html" target="_top" xlink:title="The struct representing filters of the memory bus&#39;s logger.">
<polygon fill="white" stroke="black" points="144,-403 144,-559 270,-559 270,-403 144,-403"/>
<text text-anchor="start" x="152" y="-547" font-family="Helvetica,sans-Serif" font-size="10.00">ComSquare::Debugger</text>
<text text-anchor="middle" x="207" y="-536" font-family="Helvetica,sans-Serif" font-size="10.00">::BusLoggerFilters</text>
<polyline fill="none" stroke="black" points="144,-529 270,-529 "/>
<text text-anchor="start" x="152" y="-517" font-family="Helvetica,sans-Serif" font-size="10.00">+ cpu</text>
<text text-anchor="start" x="152" y="-506" font-family="Helvetica,sans-Serif" font-size="10.00">+ apu</text>
<text text-anchor="start" x="152" y="-495" font-family="Helvetica,sans-Serif" font-size="10.00">+ ppu</text>
<text text-anchor="start" x="152" y="-484" font-family="Helvetica,sans-Serif" font-size="10.00">+ rom</text>
<text text-anchor="start" x="152" y="-473" font-family="Helvetica,sans-Serif" font-size="10.00">+ wram</text>
<text text-anchor="start" x="152" y="-462" font-family="Helvetica,sans-Serif" font-size="10.00">+ sram</text>
<text text-anchor="start" x="152" y="-451" font-family="Helvetica,sans-Serif" font-size="10.00">+ vram</text>
<text text-anchor="start" x="152" y="-440" font-family="Helvetica,sans-Serif" font-size="10.00">+ oamram</text>
<text text-anchor="start" x="152" y="-429" font-family="Helvetica,sans-Serif" font-size="10.00">+ cgram</text>
<polyline fill="none" stroke="black" points="144,-422 270,-422 "/>
<text text-anchor="middle" x="207" y="-410" font-family="Helvetica,sans-Serif" font-size="10.00"> </text>
</a>
</g>
</g>
<!-- Node9&#45;&gt;Node7 -->
<g id="edge10" class="edge">
<title>Node9&#45;&gt;Node7</title>
<path fill="none" stroke="#404040" d="M210.96,-402.95C212.74,-387.59 215.31,-371.67 219,-357 219.57,-354.73 220.2,-352.44 220.87,-350.14"/>
<polygon fill="none" stroke="#404040" points="220.9,-350.05 218.92,-343.12 224.57,-338.63 226.54,-345.56 220.9,-350.05"/>
<text text-anchor="middle" x="239" y="-360" font-family="Helvetica,sans-Serif" font-size="10.00"> +filters</text>
</g>
</g>
</svg>
