<?xml version="1.0" encoding="UTF-8" standalone="no"?>
<!DOCTYPE svg PUBLIC "-//W3C//DTD SVG 1.1//EN"
 "http://www.w3.org/Graphics/SVG/1.1/DTD/svg11.dtd">
<!-- Generated by graphviz version 2.43.0 (0)
 -->
<!-- Title: ComSquare::Memory::MemoryShadow Pages: 1 -->
<svg width="251pt" height="531pt"
 viewBox="0.00 0.00 251.00 531.00" xmlns="http://www.w3.org/2000/svg" xmlns:xlink="http://www.w3.org/1999/xlink">
<g id="graph0" class="graph" transform="scale(1 1) rotate(0) translate(4 527)">
<title>ComSquare::Memory::MemoryShadow</title>
<polygon fill="white" stroke="transparent" points="-4,4 -4,-527 247,-527 247,4 -4,4"/>
<!-- Node1 -->
<g id="node1" class="node">
<title>Node1</title>
<g id="a_node1"><a xlink:title=" ">
<polygon fill="#bfbfbf" stroke="black" points="28,-0.5 28,-178.5 153,-178.5 153,-0.5 28,-0.5"/>
<text text-anchor="start" x="36" y="-166.5" font-family="Helvetica,sans-Serif" font-size="10.00">ComSquare::Memory::</text>
<text text-anchor="middle" x="90.5" y="-155.5" font-family="Helvetica,sans-Serif" font-size="10.00">MemoryShadow</text>
<polyline fill="none" stroke="black" points="28,-148.5 153,-148.5 "/>
<text text-anchor="middle" x="90.5" y="-136.5" font-family="Helvetica,sans-Serif" font-size="10.00"> </text>
<polyline fill="none" stroke="black" points="28,-129.5 153,-129.5 "/>
<text text-anchor="start" x="36" y="-117.5" font-family="Helvetica,sans-Serif" font-size="10.00">+ MemoryShadow()</text>
<text text-anchor="start" x="36" y="-106.5" font-family="Helvetica,sans-Serif" font-size="10.00">+ MemoryShadow()</text>
<text text-anchor="start" x="36" y="-95.5" font-family="Helvetica,sans-Serif" font-size="10.00">+ operator=()</text>
<text text-anchor="start" x="36" y="-84.5" font-family="Helvetica,sans-Serif" font-size="10.00">+ ~MemoryShadow()</text>
<text text-anchor="start" x="36" y="-73.5" font-family="Helvetica,sans-Serif" font-size="10.00">+ read()</text>
<text text-anchor="start" x="36" y="-62.5" font-family="Helvetica,sans-Serif" font-size="10.00">+ write()</text>
<text text-anchor="start" x="36" y="-51.5" font-family="Helvetica,sans-Serif" font-size="10.00">+ getSize()</text>
<text text-anchor="start" x="36" y="-40.5" font-family="Helvetica,sans-Serif" font-size="10.00">+ getName()</text>
<text text-anchor="start" x="36" y="-29.5" font-family="Helvetica,sans-Serif" font-size="10.00">+ getComponent()</text>
<text text-anchor="start" x="36" y="-18.5" font-family="Helvetica,sans-Serif" font-size="10.00">+ getValueName()</text>
<text text-anchor="start" x="36" y="-7.5" font-family="Helvetica,sans-Serif" font-size="10.00">+ getMirrored()</text>
</a>
</g>
</g>
<!-- Node2 -->
<g id="node2" class="node">
<title>Node2</title>
<g id="a_node2"><a xlink:href="classComSquare_1_1Memory_1_1AMemory.html" target="_top" xlink:title="Abstract class representing a continuous block of memory.">
<polygon fill="white" stroke="black" points="112,-216.5 112,-328.5 243,-328.5 243,-216.5 112,-216.5"/>
<text text-anchor="start" x="120" y="-316.5" font-family="Helvetica,sans-Serif" font-size="10.00">ComSquare::Memory::</text>
<text text-anchor="middle" x="177.5" y="-305.5" font-family="Helvetica,sans-Serif" font-size="10.00">AMemory</text>
<polyline fill="none" stroke="black" points="112,-298.5 243,-298.5 "/>
<text text-anchor="start" x="120" y="-286.5" font-family="Helvetica,sans-Serif" font-size="10.00"># _start</text>
<text text-anchor="start" x="120" y="-275.5" font-family="Helvetica,sans-Serif" font-size="10.00"># _end</text>
<polyline fill="none" stroke="black" points="112,-268.5 243,-268.5 "/>
<text text-anchor="start" x="120" y="-256.5" font-family="Helvetica,sans-Serif" font-size="10.00">+ getRelativeAddress()</text>
<text text-anchor="start" x="120" y="-245.5" font-family="Helvetica,sans-Serif" font-size="10.00">+ setMemoryRegion()</text>
<text text-anchor="start" x="120" y="-234.5" font-family="Helvetica,sans-Serif" font-size="10.00">+ hasMemoryAt()</text>
<text text-anchor="start" x="120" y="-223.5" font-family="Helvetica,sans-Serif" font-size="10.00">+ ~AMemory()</text>
</a>
</g>
</g>
<!-- Node2&#45;&gt;Node1 -->
<g id="edge1" class="edge">
<title>Node2&#45;&gt;Node1</title>
<path fill="none" stroke="midnightblue" d="M146.57,-207.16C142.15,-197.96 137.54,-188.37 132.94,-178.8"/>
<polygon fill="none" stroke="midnightblue" points="143.44,-208.71 150.92,-216.21 149.75,-205.68 143.44,-208.71"/>
</g>
<!-- Node3 -->
<g id="node3" class="node">
<title>Node3</title>
<g id="a_node3"><a xlink:href="classComSquare_1_1Memory_1_1IMemory.html" target="_top" xlink:title="Common interface implemented by all components mapping memory.">
<polygon fill="white" stroke="black" points="0,-366.5 0,-522.5 131,-522.5 131,-366.5 0,-366.5"/>
<text text-anchor="start" x="8" y="-510.5" font-family="Helvetica,sans-Serif" font-size="10.00">ComSquare::Memory::</text>
<text text-anchor="middle" x="65.5" y="-499.5" font-family="Helvetica,sans-Serif" font-size="10.00">IMemory</text>
<polyline fill="none" stroke="black" points="0,-492.5 131,-492.5 "/>
<text text-anchor="middle" x="65.5" y="-480.5" font-family="Helvetica,sans-Serif" font-size="10.00"> </text>
<polyline fill="none" stroke="black" points="0,-473.5 131,-473.5 "/>
<text text-anchor="start" x="8" y="-461.5" font-family="Helvetica,sans-Serif" font-size="10.00">+ read()</text>
<text text-anchor="start" x="8" y="-450.5" font-family="Helvetica,sans-Serif" font-size="10.00">+ write()</text>
<text text-anchor="start" x="8" y="-439.5" font-family="Helvetica,sans-Serif" font-size="10.00">+ hasMemoryAt()</text>
<text text-anchor="start" x="8" y="-428.5" font-family="Helvetica,sans-Serif" font-size="10.00">+ getRelativeAddress()</text>
<text text-anchor="start" x="8" y="-417.5" font-family="Helvetica,sans-Serif" font-size="10.00">+ getSize()</text>
<text text-anchor="start" x="8" y="-406.5" font-family="Helvetica,sans-Serif" font-size="10.00">+ getName()</text>
<text text-anchor="start" x="8" y="-395.5" font-family="Helvetica,sans-Serif" font-size="10.00">+ getComponent()</text>
<text text-anchor="start" x="8" y="-384.5" font-family="Helvetica,sans-Serif" font-size="10.00">+ getValueName()</text>
<text text-anchor="start" x="8" y="-373.5" font-family="Helvetica,sans-Serif" font-size="10.00">+ ~IMemory()</text>
</a>
</g>
</g>
<!-- Node3&#45;&gt;Node1 -->
<g id="edge3" class="edge">
<title>Node3&#45;&gt;Node1</title>
<path fill="none" stroke="#404040" d="M63.97,-366.21C63.77,-353.77 63.61,-341.03 63.5,-329 63.06,-278.78 58.19,-265.94 63.5,-216 64.38,-207.72 65.58,-199.17 66.99,-190.63"/>
<polygon fill="none" stroke="#404040" points="67.03,-190.39 64.12,-183.79 69.1,-178.57 72,-185.17 67.03,-190.39"/>
<text text-anchor="middle" x="83.5" y="-270" font-family="Helvetica,sans-Serif" font-size="10.00"> &#45;_initial</text>
</g>
<!-- Node3&#45;&gt;Node2 -->
<g id="edge2" class="edge">
<title>Node3&#45;&gt;Node2</title>
<path fill="none" stroke="midnightblue" d="M121.94,-357.84C128.41,-348.01 134.87,-338.2 140.98,-328.93"/>
<polygon fill="none" stroke="midnightblue" points="118.84,-356.18 116.26,-366.46 124.68,-360.03 118.84,-356.18"/>
</g>
</g>
</svg>
