<?xml version="1.0" encoding="UTF-8" standalone="no"?>
<!DOCTYPE svg PUBLIC "-//W3C//DTD SVG 1.1//EN"
 "http://www.w3.org/Graphics/SVG/1.1/DTD/svg11.dtd">
<!-- Generated by graphviz version 2.43.0 (0)
 -->
<!-- Title: ComSquare::Renderer::QtSFMLTileRenderer Pages: 1 -->
<svg width="208pt" height="755pt"
 viewBox="0.00 0.00 208.00 755.00" xmlns="http://www.w3.org/2000/svg" xmlns:xlink="http://www.w3.org/1999/xlink">
<g id="graph0" class="graph" transform="scale(1 1) rotate(0) translate(4 751)">
<title>ComSquare::Renderer::QtSFMLTileRenderer</title>
<polygon fill="white" stroke="transparent" points="-4,4 -4,-751 204,-751 204,4 -4,4"/>
<!-- Node1 -->
<g id="node1" class="node">
<title>Node1</title>
<g id="a_node1"><a xlink:title=" ">
<polygon fill="#bfbfbf" stroke="black" points="12,-0.5 12,-112.5 155,-112.5 155,-0.5 12,-0.5"/>
<text text-anchor="start" x="20" y="-100.5" font-family="Helvetica,sans-Serif" font-size="10.00">ComSquare::Renderer</text>
<text text-anchor="middle" x="83.5" y="-89.5" font-family="Helvetica,sans-Serif" font-size="10.00">::QtSFMLTileRenderer</text>
<polyline fill="none" stroke="black" points="12,-82.5 155,-82.5 "/>
<text text-anchor="start" x="20" y="-70.5" font-family="Helvetica,sans-Serif" font-size="10.00">+ buffer</text>
<polyline fill="none" stroke="black" points="12,-63.5 155,-63.5 "/>
<text text-anchor="start" x="20" y="-51.5" font-family="Helvetica,sans-Serif" font-size="10.00">+ onUpdate()</text>
<text text-anchor="start" x="20" y="-40.5" font-family="Helvetica,sans-Serif" font-size="10.00">+ QtSFMLTileRenderer()</text>
<text text-anchor="start" x="20" y="-29.5" font-family="Helvetica,sans-Serif" font-size="10.00">+ QtSFMLTileRenderer()</text>
<text text-anchor="start" x="20" y="-18.5" font-family="Helvetica,sans-Serif" font-size="10.00">+ ~QtSFMLTileRenderer()</text>
<text text-anchor="start" x="20" y="-7.5" font-family="Helvetica,sans-Serif" font-size="10.00">+ operator=()</text>
</a>
</g>
</g>
<!-- Node2 -->
<g id="node2" class="node">
<title>Node2</title>
<g id="a_node2"><a xlink:href="classComSquare_1_1Renderer_1_1QtWidgetSFML.html" target="_top" xlink:title="A widget that you can put inside a QT application that render using the SFML.">
<polygon fill="white" stroke="black" points="22,-149.5 22,-316.5 145,-316.5 145,-149.5 22,-149.5"/>
<text text-anchor="start" x="30" y="-304.5" font-family="Helvetica,sans-Serif" font-size="10.00">ComSquare::Renderer</text>
<text text-anchor="middle" x="83.5" y="-293.5" font-family="Helvetica,sans-Serif" font-size="10.00">::QtWidgetSFML</text>
<polyline fill="none" stroke="black" points="22,-286.5 145,-286.5 "/>
<text text-anchor="start" x="30" y="-274.5" font-family="Helvetica,sans-Serif" font-size="10.00">&#45; _timer</text>
<text text-anchor="start" x="30" y="-263.5" font-family="Helvetica,sans-Serif" font-size="10.00">&#45; _isInitialized</text>
<polyline fill="none" stroke="black" points="22,-256.5 145,-256.5 "/>
<text text-anchor="start" x="30" y="-244.5" font-family="Helvetica,sans-Serif" font-size="10.00">+ QtWidgetSFML()</text>
<text text-anchor="start" x="30" y="-233.5" font-family="Helvetica,sans-Serif" font-size="10.00">+ QtWidgetSFML()</text>
<text text-anchor="start" x="30" y="-222.5" font-family="Helvetica,sans-Serif" font-size="10.00">+ operator=()</text>
<text text-anchor="start" x="30" y="-211.5" font-family="Helvetica,sans-Serif" font-size="10.00">+ ~QtWidgetSFML()</text>
<text text-anchor="start" x="30" y="-200.5" font-family="Helvetica,sans-Serif" font-size="10.00">+ onUpdate()</text>
<text text-anchor="start" x="30" y="-189.5" font-family="Helvetica,sans-Serif" font-size="10.00">&#45; _onInit()</text>
<text text-anchor="start" x="30" y="-178.5" font-family="Helvetica,sans-Serif" font-size="10.00">&#45; paintEngine()</text>
<text text-anchor="start" x="30" y="-167.5" font-family="Helvetica,sans-Serif" font-size="10.00">&#45; showEvent()</text>
<text text-anchor="start" x="30" y="-156.5" font-family="Helvetica,sans-Serif" font-size="10.00">&#45; paintEvent()</text>
</a>
</g>
</g>
<!-- Node2&#45;&gt;Node1 -->
<g id="edge1" class="edge">
<title>Node2&#45;&gt;Node1</title>
<path fill="none" stroke="midnightblue" d="M83.5,-139.23C83.5,-130.27 83.5,-121.39 83.5,-112.97"/>
<polygon fill="none" stroke="midnightblue" points="80,-139.35 83.5,-149.35 87,-139.35 80,-139.35"/>
</g>
<!-- Node3 -->
<g id="node3" class="node">
<title>Node3</title>
<g id="a_node3"><a xlink:title=" ">
<polygon fill="white" stroke="#bfbfbf" points="0,-447 0,-504 59,-504 59,-447 0,-447"/>
<text text-anchor="middle" x="29.5" y="-492" font-family="Helvetica,sans-Serif" font-size="10.00">QWidget</text>
<polyline fill="none" stroke="#bfbfbf" points="0,-485 59,-485 "/>
<text text-anchor="middle" x="29.5" y="-473" font-family="Helvetica,sans-Serif" font-size="10.00"> </text>
<polyline fill="none" stroke="#bfbfbf" points="0,-466 59,-466 "/>
<text text-anchor="middle" x="29.5" y="-454" font-family="Helvetica,sans-Serif" font-size="10.00"> </text>
</a>
</g>
</g>
<!-- Node3&#45;&gt;Node2 -->
<g id="edge2" class="edge">
<title>Node3&#45;&gt;Node2</title>
<path fill="none" stroke="midnightblue" d="M37.91,-437.05C45.12,-404.92 55.78,-357.46 64.98,-316.5"/>
<polygon fill="none" stroke="midnightblue" points="34.47,-436.39 35.69,-446.91 41.3,-437.92 34.47,-436.39"/>
</g>
<!-- Node4 -->
<g id="node4" class="node">
<title>Node4</title>
<g id="a_node4"><a xlink:href="classComSquare_1_1Renderer_1_1SFRenderer.html" target="_top" xlink:title=" ">
<polygon fill="white" stroke="black" points="77,-353.5 77,-597.5 200,-597.5 200,-353.5 77,-353.5"/>
<text text-anchor="start" x="85" y="-585.5" font-family="Helvetica,sans-Serif" font-size="10.00">ComSquare::Renderer</text>
<text text-anchor="middle" x="138.5" y="-574.5" font-family="Helvetica,sans-Serif" font-size="10.00">::SFRenderer</text>
<polyline fill="none" stroke="black" points="77,-567.5 200,-567.5 "/>
<text text-anchor="start" x="85" y="-555.5" font-family="Helvetica,sans-Serif" font-size="10.00">+ shouldExit</text>
<text text-anchor="start" x="85" y="-544.5" font-family="Helvetica,sans-Serif" font-size="10.00"># _window</text>
<text text-anchor="start" x="85" y="-533.5" font-family="Helvetica,sans-Serif" font-size="10.00"># _videoMode</text>
<text text-anchor="start" x="85" y="-522.5" font-family="Helvetica,sans-Serif" font-size="10.00"># _pixelBuffer</text>
<text text-anchor="start" x="85" y="-511.5" font-family="Helvetica,sans-Serif" font-size="10.00"># _sprite</text>
<text text-anchor="start" x="85" y="-500.5" font-family="Helvetica,sans-Serif" font-size="10.00"># _texture</text>
<text text-anchor="start" x="85" y="-489.5" font-family="Helvetica,sans-Serif" font-size="10.00"># _soundBuffer</text>
<text text-anchor="start" x="85" y="-478.5" font-family="Helvetica,sans-Serif" font-size="10.00"># _sound</text>
<polyline fill="none" stroke="black" points="77,-471.5 200,-471.5 "/>
<text text-anchor="start" x="85" y="-459.5" font-family="Helvetica,sans-Serif" font-size="10.00">+ setWindowName()</text>
<text text-anchor="start" x="85" y="-448.5" font-family="Helvetica,sans-Serif" font-size="10.00">+ drawScreen()</text>
<text text-anchor="start" x="85" y="-437.5" font-family="Helvetica,sans-Serif" font-size="10.00">+ putPixel()</text>
<text text-anchor="start" x="85" y="-426.5" font-family="Helvetica,sans-Serif" font-size="10.00">+ playAudio()</text>
<text text-anchor="start" x="85" y="-415.5" font-family="Helvetica,sans-Serif" font-size="10.00">+ getEvents()</text>
<text text-anchor="start" x="85" y="-404.5" font-family="Helvetica,sans-Serif" font-size="10.00">+ createWindow()</text>
<text text-anchor="start" x="85" y="-393.5" font-family="Helvetica,sans-Serif" font-size="10.00">+ SFRenderer()</text>
<text text-anchor="start" x="85" y="-382.5" font-family="Helvetica,sans-Serif" font-size="10.00">+ SFRenderer()</text>
<text text-anchor="start" x="85" y="-371.5" font-family="Helvetica,sans-Serif" font-size="10.00">+ operator=()</text>
<text text-anchor="start" x="85" y="-360.5" font-family="Helvetica,sans-Serif" font-size="10.00">+ ~SFRenderer()</text>
</a>
</g>
</g>
<!-- Node4&#45;&gt;Node2 -->
<g id="edge3" class="edge">
<title>Node4&#45;&gt;Node2</title>
<path fill="none" stroke="midnightblue" d="M108.51,-343.35C106.44,-334.29 104.38,-325.32 102.4,-316.64"/>
<polygon fill="none" stroke="midnightblue" points="105.12,-344.23 110.76,-353.19 111.94,-342.66 105.12,-344.23"/>
</g>
<!-- Node5 -->
<g id="node5" class="node">
<title>Node5</title>
<g id="a_node5"><a xlink:href="classComSquare_1_1Renderer_1_1IRenderer.html" target="_top" xlink:title=" ">
<polygon fill="white" stroke="black" points="77,-634.5 77,-746.5 200,-746.5 200,-634.5 77,-634.5"/>
<text text-anchor="start" x="85" y="-734.5" font-family="Helvetica,sans-Serif" font-size="10.00">ComSquare::Renderer</text>
<text text-anchor="middle" x="138.5" y="-723.5" font-family="Helvetica,sans-Serif" font-size="10.00">::IRenderer</text>
<polyline fill="none" stroke="black" points="77,-716.5 200,-716.5 "/>
<text text-anchor="middle" x="138.5" y="-704.5" font-family="Helvetica,sans-Serif" font-size="10.00"> </text>
<polyline fill="none" stroke="black" points="77,-697.5 200,-697.5 "/>
<text text-anchor="start" x="85" y="-685.5" font-family="Helvetica,sans-Serif" font-size="10.00">+ setWindowName()</text>
<text text-anchor="start" x="85" y="-674.5" font-family="Helvetica,sans-Serif" font-size="10.00">+ drawScreen()</text>
<text text-anchor="start" x="85" y="-663.5" font-family="Helvetica,sans-Serif" font-size="10.00">+ putPixel()</text>
<text text-anchor="start" x="85" y="-652.5" font-family="Helvetica,sans-Serif" font-size="10.00">+ createWindow()</text>
<text text-anchor="start" x="85" y="-641.5" font-family="Helvetica,sans-Serif" font-size="10.00">+ playAudio()</text>
</a>
</g>
</g>
<!-- Node5&#45;&gt;Node4 -->
<g id="edge4" class="edge">
<title>Node5&#45;&gt;Node4</title>
<path fill="none" stroke="midnightblue" d="M138.5,-624.19C138.5,-615.65 138.5,-606.7 138.5,-597.6"/>
<polygon fill="none" stroke="midnightblue" points="135,-624.37 138.5,-634.37 142,-624.37 135,-624.37"/>
</g>
</g>
</svg>
