<?xml version="1.0" encoding="UTF-8" standalone="no"?>
<!DOCTYPE svg PUBLIC "-//W3C//DTD SVG 1.1//EN"
 "http://www.w3.org/Graphics/SVG/1.1/DTD/svg11.dtd">
<!-- Generated by graphviz version 2.43.0 (0)
 -->
<!-- Title: ComSquare::Debugger::RAMTileRenderer Pages: 1 -->
<svg width="300pt" height="1181pt"
 viewBox="0.00 0.00 300.00 1181.00" xmlns="http://www.w3.org/2000/svg" xmlns:xlink="http://www.w3.org/1999/xlink">
<g id="graph0" class="graph" transform="scale(1 1) rotate(0) translate(4 1177)">
<title>ComSquare::Debugger::RAMTileRenderer</title>
<polygon fill="white" stroke="transparent" points="-4,4 -4,-1177 296,-1177 296,4 -4,4"/>
<!-- Node1 -->
<g id="node1" class="node">
<title>Node1</title>
<g id="a_node1"><a xlink:title=" ">
<polygon fill="#bfbfbf" stroke="black" points="6,-0.5 6,-244.5 134,-244.5 134,-0.5 6,-0.5"/>
<text text-anchor="start" x="14" y="-232.5" font-family="Helvetica,sans-Serif" font-size="10.00">ComSquare::Debugger</text>
<text text-anchor="middle" x="70" y="-221.5" font-family="Helvetica,sans-Serif" font-size="10.00">::RAMTileRenderer</text>
<polyline fill="none" stroke="black" points="6,-214.5 134,-214.5 "/>
<text text-anchor="start" x="14" y="-202.5" font-family="Helvetica,sans-Serif" font-size="10.00">+ buffer</text>
<text text-anchor="start" x="14" y="-191.5" font-family="Helvetica,sans-Serif" font-size="10.00">&#45; _renderSize</text>
<text text-anchor="start" x="14" y="-180.5" font-family="Helvetica,sans-Serif" font-size="10.00">&#45; _nbColumns</text>
<text text-anchor="start" x="14" y="-169.5" font-family="Helvetica,sans-Serif" font-size="10.00">&#45; _ramOffset</text>
<text text-anchor="start" x="14" y="-158.5" font-family="Helvetica,sans-Serif" font-size="10.00">&#45; _bpp</text>
<polyline fill="none" stroke="black" points="6,-151.5 134,-151.5 "/>
<text text-anchor="start" x="14" y="-139.5" font-family="Helvetica,sans-Serif" font-size="10.00">+ setPaletteIndex()</text>
<text text-anchor="start" x="14" y="-128.5" font-family="Helvetica,sans-Serif" font-size="10.00">+ setBpp()</text>
<text text-anchor="start" x="14" y="-117.5" font-family="Helvetica,sans-Serif" font-size="10.00">+ setNbColumns()</text>
<text text-anchor="start" x="14" y="-106.5" font-family="Helvetica,sans-Serif" font-size="10.00">+ setRenderSize()</text>
<text text-anchor="start" x="14" y="-95.5" font-family="Helvetica,sans-Serif" font-size="10.00">+ setRamOffset()</text>
<text text-anchor="start" x="14" y="-84.5" font-family="Helvetica,sans-Serif" font-size="10.00">+ getBpp()</text>
<text text-anchor="start" x="14" y="-73.5" font-family="Helvetica,sans-Serif" font-size="10.00">+ getPaletteIndex()</text>
<text text-anchor="start" x="14" y="-62.5" font-family="Helvetica,sans-Serif" font-size="10.00">+ getNbColumns()</text>
<text text-anchor="start" x="14" y="-51.5" font-family="Helvetica,sans-Serif" font-size="10.00">+ render()</text>
<text text-anchor="start" x="14" y="-40.5" font-family="Helvetica,sans-Serif" font-size="10.00">+ RAMTileRenderer()</text>
<text text-anchor="start" x="14" y="-29.5" font-family="Helvetica,sans-Serif" font-size="10.00">+ RAMTileRenderer()</text>
<text text-anchor="start" x="14" y="-18.5" font-family="Helvetica,sans-Serif" font-size="10.00">+ ~RAMTileRenderer()</text>
<text text-anchor="start" x="14" y="-7.5" font-family="Helvetica,sans-Serif" font-size="10.00">+ operator=()</text>
</a>
</g>
</g>
<!-- Node2 -->
<g id="node2" class="node">
<title>Node2</title>
<g id="a_node2"><a xlink:href="classComSquare_1_1PPU_1_1TileRenderer.html" target="_top" xlink:title=" ">
<polygon fill="white" stroke="black" points="104,-292.5 104,-514.5 292,-514.5 292,-292.5 104,-292.5"/>
<text text-anchor="middle" x="198" y="-502.5" font-family="Helvetica,sans-Serif" font-size="10.00">ComSquare::PPU::TileRenderer</text>
<polyline fill="none" stroke="black" points="104,-495.5 292,-495.5 "/>
<text text-anchor="start" x="112" y="-483.5" font-family="Helvetica,sans-Serif" font-size="10.00">+ buffer</text>
<text text-anchor="start" x="112" y="-472.5" font-family="Helvetica,sans-Serif" font-size="10.00">&#45; _bpp</text>
<text text-anchor="start" x="112" y="-461.5" font-family="Helvetica,sans-Serif" font-size="10.00">&#45; _paletteIndex</text>
<text text-anchor="start" x="112" y="-450.5" font-family="Helvetica,sans-Serif" font-size="10.00">&#45; TileByteSizeRow</text>
<polyline fill="none" stroke="black" points="104,-443.5 292,-443.5 "/>
<text text-anchor="start" x="112" y="-431.5" font-family="Helvetica,sans-Serif" font-size="10.00">+ setPaletteIndex()</text>
<text text-anchor="start" x="112" y="-420.5" font-family="Helvetica,sans-Serif" font-size="10.00">+ setBpp()</text>
<text text-anchor="start" x="112" y="-409.5" font-family="Helvetica,sans-Serif" font-size="10.00">+ getBpp()</text>
<text text-anchor="start" x="112" y="-398.5" font-family="Helvetica,sans-Serif" font-size="10.00">+ getPaletteIndex()</text>
<text text-anchor="start" x="112" y="-387.5" font-family="Helvetica,sans-Serif" font-size="10.00">+ getPixelReferenceFromTile()</text>
<text text-anchor="start" x="112" y="-376.5" font-family="Helvetica,sans-Serif" font-size="10.00">+ getPixelReferenceFromTileRow()</text>
<text text-anchor="start" x="112" y="-365.5" font-family="Helvetica,sans-Serif" font-size="10.00">+ getPalette()</text>
<text text-anchor="start" x="112" y="-354.5" font-family="Helvetica,sans-Serif" font-size="10.00">+ read2BPPValue()</text>
<text text-anchor="start" x="112" y="-343.5" font-family="Helvetica,sans-Serif" font-size="10.00">+ render()</text>
<text text-anchor="start" x="112" y="-332.5" font-family="Helvetica,sans-Serif" font-size="10.00">+ TileRenderer()</text>
<text text-anchor="start" x="112" y="-321.5" font-family="Helvetica,sans-Serif" font-size="10.00">+ TileRenderer()</text>
<text text-anchor="start" x="112" y="-310.5" font-family="Helvetica,sans-Serif" font-size="10.00">+ ~TileRenderer()</text>
<text text-anchor="start" x="112" y="-299.5" font-family="Helvetica,sans-Serif" font-size="10.00">+ operator=()</text>
</a>
</g>
</g>
<!-- Node2&#45;&gt;Node1 -->
<g id="edge1" class="edge">
<title>Node2&#45;&gt;Node1</title>
<path fill="none" stroke="#404040" d="M147.41,-292.23C141.95,-280.34 136.36,-268.15 130.8,-256.02"/>
<polygon fill="none" stroke="#404040" points="130.71,-255.83 124.57,-252.04 125.71,-244.92 131.84,-248.71 130.71,-255.83"/>
<text text-anchor="middle" x="173.5" y="-266" font-family="Helvetica,sans-Serif" font-size="10.00"> &#45;_tileRenderer</text>
</g>
<!-- Node3 -->
<g id="node3" class="node">
<title>Node3</title>
<g id="a_node3"><a xlink:href="classComSquare_1_1Ram_1_1Ram.html" target="_top" xlink:title=" ">
<polygon fill="white" stroke="black" points="5,-573.5 5,-795.5 135,-795.5 135,-573.5 5,-573.5"/>
<text text-anchor="middle" x="70" y="-783.5" font-family="Helvetica,sans-Serif" font-size="10.00">ComSquare::Ram::Ram</text>
<polyline fill="none" stroke="black" points="5,-776.5 135,-776.5 "/>
<text text-anchor="start" x="13" y="-764.5" font-family="Helvetica,sans-Serif" font-size="10.00"># _data</text>
<text text-anchor="start" x="13" y="-753.5" font-family="Helvetica,sans-Serif" font-size="10.00"># _ramType</text>
<text text-anchor="start" x="13" y="-742.5" font-family="Helvetica,sans-Serif" font-size="10.00"># _ramName</text>
<polyline fill="none" stroke="black" points="5,-735.5 135,-735.5 "/>
<text text-anchor="start" x="13" y="-723.5" font-family="Helvetica,sans-Serif" font-size="10.00">+ Ram()</text>
<text text-anchor="start" x="13" y="-712.5" font-family="Helvetica,sans-Serif" font-size="10.00">+ Ram()</text>
<text text-anchor="start" x="13" y="-701.5" font-family="Helvetica,sans-Serif" font-size="10.00">+ operator=()</text>
<text text-anchor="start" x="13" y="-690.5" font-family="Helvetica,sans-Serif" font-size="10.00">+ ~Ram()</text>
<text text-anchor="start" x="13" y="-679.5" font-family="Helvetica,sans-Serif" font-size="10.00">+ read()</text>
<text text-anchor="start" x="13" y="-668.5" font-family="Helvetica,sans-Serif" font-size="10.00">+ write()</text>
<text text-anchor="start" x="13" y="-657.5" font-family="Helvetica,sans-Serif" font-size="10.00">+ operator[]()</text>
<text text-anchor="start" x="13" y="-646.5" font-family="Helvetica,sans-Serif" font-size="10.00">+ operator[]()</text>
<text text-anchor="start" x="13" y="-635.5" font-family="Helvetica,sans-Serif" font-size="10.00">+ getName()</text>
<text text-anchor="start" x="13" y="-624.5" font-family="Helvetica,sans-Serif" font-size="10.00">+ getComponent()</text>
<text text-anchor="start" x="13" y="-613.5" font-family="Helvetica,sans-Serif" font-size="10.00">+ getSize()</text>
<text text-anchor="start" x="13" y="-602.5" font-family="Helvetica,sans-Serif" font-size="10.00">+ setSize()</text>
<text text-anchor="start" x="13" y="-591.5" font-family="Helvetica,sans-Serif" font-size="10.00">+ getData()</text>
<text text-anchor="start" x="13" y="-580.5" font-family="Helvetica,sans-Serif" font-size="10.00">+ getData()</text>
</a>
</g>
</g>
<!-- Node3&#45;&gt;Node1 -->
<g id="edge5" class="edge">
<title>Node3&#45;&gt;Node1</title>
<path fill="none" stroke="#404040" d="M64.77,-573.39C64.03,-553.94 63.39,-533.88 63,-515 60.94,-415.91 60.94,-391.09 63,-292 63.24,-280.47 63.57,-268.51 63.96,-256.51"/>
<polygon fill="none" stroke="#404040" points="63.96,-256.51 60.17,-250.37 64.37,-244.51 68.16,-250.65 63.96,-256.51"/>
<text text-anchor="middle" x="79" y="-401" font-family="Helvetica,sans-Serif" font-size="10.00"> &#45;_ram</text>
</g>
<!-- Node3&#45;&gt;Node2 -->
<g id="edge2" class="edge">
<title>Node3&#45;&gt;Node2</title>
<path fill="none" stroke="#404040" d="M120.59,-573.23C127.67,-557.79 134.99,-541.84 142.16,-526.2"/>
<polygon fill="none" stroke="#404040" points="142.36,-525.79 141.22,-518.67 147.36,-514.88 148.49,-522 142.36,-525.79"/>
<text text-anchor="middle" x="157" y="-547" font-family="Helvetica,sans-Serif" font-size="10.00"> &#45;_ram</text>
<text text-anchor="middle" x="157" y="-536" font-family="Helvetica,sans-Serif" font-size="10.00">&#45;_cgram</text>
</g>
<!-- Node4 -->
<g id="node4" class="node">
<title>Node4</title>
<g id="a_node4"><a xlink:href="classComSquare_1_1Memory_1_1ARectangleMemory.html" target="_top" xlink:title="Base memory class to map non continuous rectangle to the memory. (A rectangle that spam across more t...">
<polygon fill="white" stroke="black" points="0,-833.5 0,-978.5 140,-978.5 140,-833.5 0,-833.5"/>
<text text-anchor="start" x="8" y="-966.5" font-family="Helvetica,sans-Serif" font-size="10.00">ComSquare::Memory::</text>
<text text-anchor="middle" x="70" y="-955.5" font-family="Helvetica,sans-Serif" font-size="10.00">ARectangleMemory</text>
<polyline fill="none" stroke="black" points="0,-948.5 140,-948.5 "/>
<text text-anchor="start" x="8" y="-936.5" font-family="Helvetica,sans-Serif" font-size="10.00"># _startBank</text>
<text text-anchor="start" x="8" y="-925.5" font-family="Helvetica,sans-Serif" font-size="10.00"># _endBank</text>
<text text-anchor="start" x="8" y="-914.5" font-family="Helvetica,sans-Serif" font-size="10.00"># _startPage</text>
<text text-anchor="start" x="8" y="-903.5" font-family="Helvetica,sans-Serif" font-size="10.00"># _endPage</text>
<polyline fill="none" stroke="black" points="0,-896.5 140,-896.5 "/>
<text text-anchor="start" x="8" y="-884.5" font-family="Helvetica,sans-Serif" font-size="10.00">+ getRelativeAddress()</text>
<text text-anchor="start" x="8" y="-873.5" font-family="Helvetica,sans-Serif" font-size="10.00">+ hasMemoryAt()</text>
<text text-anchor="start" x="8" y="-862.5" font-family="Helvetica,sans-Serif" font-size="10.00">+ setMemoryRegion()</text>
<text text-anchor="start" x="8" y="-851.5" font-family="Helvetica,sans-Serif" font-size="10.00">+ getValueName()</text>
<text text-anchor="start" x="8" y="-840.5" font-family="Helvetica,sans-Serif" font-size="10.00">+ ~ARectangleMemory()</text>
</a>
</g>
</g>
<!-- Node4&#45;&gt;Node3 -->
<g id="edge3" class="edge">
<title>Node4&#45;&gt;Node3</title>
<path fill="none" stroke="midnightblue" d="M70,-823.33C70,-814.27 70,-804.93 70,-795.6"/>
<polygon fill="none" stroke="midnightblue" points="66.5,-823.43 70,-833.43 73.5,-823.43 66.5,-823.43"/>
</g>
<!-- Node5 -->
<g id="node5" class="node">
<title>Node5</title>
<g id="a_node5"><a xlink:href="classComSquare_1_1Memory_1_1IMemory.html" target="_top" xlink:title="Common interface implemented by all components mapping memory.">
<polygon fill="white" stroke="black" points="4.5,-1016.5 4.5,-1172.5 135.5,-1172.5 135.5,-1016.5 4.5,-1016.5"/>
<text text-anchor="start" x="12.5" y="-1160.5" font-family="Helvetica,sans-Serif" font-size="10.00">ComSquare::Memory::</text>
<text text-anchor="middle" x="70" y="-1149.5" font-family="Helvetica,sans-Serif" font-size="10.00">IMemory</text>
<polyline fill="none" stroke="black" points="4.5,-1142.5 135.5,-1142.5 "/>
<text text-anchor="middle" x="70" y="-1130.5" font-family="Helvetica,sans-Serif" font-size="10.00"> </text>
<polyline fill="none" stroke="black" points="4.5,-1123.5 135.5,-1123.5 "/>
<text text-anchor="start" x="12.5" y="-1111.5" font-family="Helvetica,sans-Serif" font-size="10.00">+ read()</text>
<text text-anchor="start" x="12.5" y="-1100.5" font-family="Helvetica,sans-Serif" font-size="10.00">+ write()</text>
<text text-anchor="start" x="12.5" y="-1089.5" font-family="Helvetica,sans-Serif" font-size="10.00">+ hasMemoryAt()</text>
<text text-anchor="start" x="12.5" y="-1078.5" font-family="Helvetica,sans-Serif" font-size="10.00">+ getRelativeAddress()</text>
<text text-anchor="start" x="12.5" y="-1067.5" font-family="Helvetica,sans-Serif" font-size="10.00">+ getSize()</text>
<text text-anchor="start" x="12.5" y="-1056.5" font-family="Helvetica,sans-Serif" font-size="10.00">+ getName()</text>
<text text-anchor="start" x="12.5" y="-1045.5" font-family="Helvetica,sans-Serif" font-size="10.00">+ getComponent()</text>
<text text-anchor="start" x="12.5" y="-1034.5" font-family="Helvetica,sans-Serif" font-size="10.00">+ getValueName()</text>
<text text-anchor="start" x="12.5" y="-1023.5" font-family="Helvetica,sans-Serif" font-size="10.00">+ ~IMemory()</text>
</a>
</g>
</g>
<!-- Node5&#45;&gt;Node4 -->
<g id="edge4" class="edge">
<title>Node5&#45;&gt;Node4</title>
<path fill="none" stroke="midnightblue" d="M70,-1006.03C70,-996.9 70,-987.69 70,-978.76"/>
<polygon fill="none" stroke="midnightblue" points="66.5,-1006.3 70,-1016.3 73.5,-1006.3 66.5,-1006.3"/>
</g>
</g>
</svg>
