<?xml version="1.0" encoding="UTF-8" standalone="no"?>
<!DOCTYPE svg PUBLIC "-//W3C//DTD SVG 1.1//EN"
 "http://www.w3.org/Graphics/SVG/1.1/DTD/svg11.dtd">
<!-- Generated by graphviz version 2.43.0 (0)
 -->
<!-- Title: ComSquare::Debugger::BusLoggerProxy Pages: 1 -->
<svg width="422pt" height="464pt"
 viewBox="0.00 0.00 422.00 464.00" xmlns="http://www.w3.org/2000/svg" xmlns:xlink="http://www.w3.org/1999/xlink">
<g id="graph0" class="graph" transform="scale(1 1) rotate(0) translate(4 460)">
<title>ComSquare::Debugger::BusLoggerProxy</title>
<polygon fill="white" stroke="transparent" points="-4,4 -4,-460 418,-460 418,4 -4,4"/>
<!-- Node1 -->
<g id="node1" class="node">
<title>Node1</title>
<g id="a_node1"><a xlink:title="A class to filter logs from the memory bus&#39;s debugger.">
<polygon fill="#bfbfbf" stroke="black" points="144,-0.5 144,-123.5 270,-123.5 270,-0.5 144,-0.5"/>
<text text-anchor="start" x="152" y="-111.5" font-family="Helvetica,sans-Serif" font-size="10.00">ComSquare::Debugger</text>
<text text-anchor="middle" x="207" y="-100.5" font-family="Helvetica,sans-Serif" font-size="10.00">::BusLoggerProxy</text>
<polyline fill="none" stroke="black" points="144,-93.5 270,-93.5 "/>
<text text-anchor="middle" x="207" y="-81.5" font-family="Helvetica,sans-Serif" font-size="10.00"> </text>
<polyline fill="none" stroke="black" points="144,-74.5 270,-74.5 "/>
<text text-anchor="start" x="152" y="-62.5" font-family="Helvetica,sans-Serif" font-size="10.00">+ refresh()</text>
<text text-anchor="start" x="152" y="-51.5" font-family="Helvetica,sans-Serif" font-size="10.00">+ BusLoggerProxy()</text>
<text text-anchor="start" x="152" y="-40.5" font-family="Helvetica,sans-Serif" font-size="10.00">+ BusLoggerProxy()</text>
<text text-anchor="start" x="152" y="-29.5" font-family="Helvetica,sans-Serif" font-size="10.00">+ operator=()</text>
<text text-anchor="start" x="152" y="-18.5" font-family="Helvetica,sans-Serif" font-size="10.00">+ ~BusLoggerProxy()</text>
<text text-anchor="start" x="152" y="-7.5" font-family="Helvetica,sans-Serif" font-size="10.00"># filterAcceptsRow()</text>
</a>
</g>
</g>
<!-- Node2 -->
<g id="node2" class="node">
<title>Node2</title>
<g id="a_node2"><a xlink:title=" ">
<polygon fill="white" stroke="#bfbfbf" points="0,-237.5 0,-294.5 126,-294.5 126,-237.5 0,-237.5"/>
<text text-anchor="middle" x="63" y="-282.5" font-family="Helvetica,sans-Serif" font-size="10.00">QSortFilterProxyModel</text>
<polyline fill="none" stroke="#bfbfbf" points="0,-275.5 126,-275.5 "/>
<text text-anchor="middle" x="63" y="-263.5" font-family="Helvetica,sans-Serif" font-size="10.00"> </text>
<polyline fill="none" stroke="#bfbfbf" points="0,-256.5 126,-256.5 "/>
<text text-anchor="middle" x="63" y="-244.5" font-family="Helvetica,sans-Serif" font-size="10.00"> </text>
</a>
</g>
</g>
<!-- Node2&#45;&gt;Node1 -->
<g id="edge1" class="edge">
<title>Node2&#45;&gt;Node1</title>
<path fill="none" stroke="midnightblue" d="M88.6,-229.1C109.36,-199.96 139.11,-158.23 163.59,-123.89"/>
<polygon fill="none" stroke="midnightblue" points="85.68,-227.16 82.72,-237.34 91.38,-231.23 85.68,-227.16"/>
</g>
<!-- Node3 -->
<g id="node3" class="node">
<title>Node3</title>
<g id="a_node3"><a xlink:href="classComSquare_1_1Debugger_1_1BusLogModel.html" target="_top" xlink:title="The qt model that bind the logs to the view.">
<polygon fill="white" stroke="black" points="144,-171.5 144,-360.5 270,-360.5 270,-171.5 144,-171.5"/>
<text text-anchor="start" x="152" y="-348.5" font-family="Helvetica,sans-Serif" font-size="10.00">ComSquare::Debugger</text>
<text text-anchor="middle" x="207" y="-337.5" font-family="Helvetica,sans-Serif" font-size="10.00">::BusLogModel</text>
<polyline fill="none" stroke="black" points="144,-330.5 270,-330.5 "/>
<text text-anchor="start" x="152" y="-318.5" font-family="Helvetica,sans-Serif" font-size="10.00">+ column</text>
<text text-anchor="start" x="152" y="-307.5" font-family="Helvetica,sans-Serif" font-size="10.00">&#45; _logs</text>
<polyline fill="none" stroke="black" points="144,-300.5 270,-300.5 "/>
<text text-anchor="start" x="152" y="-288.5" font-family="Helvetica,sans-Serif" font-size="10.00">+ BusLogModel()</text>
<text text-anchor="start" x="152" y="-277.5" font-family="Helvetica,sans-Serif" font-size="10.00">+ BusLogModel()</text>
<text text-anchor="start" x="152" y="-266.5" font-family="Helvetica,sans-Serif" font-size="10.00">+ operator=()</text>
<text text-anchor="start" x="152" y="-255.5" font-family="Helvetica,sans-Serif" font-size="10.00">+ ~BusLogModel()</text>
<text text-anchor="start" x="152" y="-244.5" font-family="Helvetica,sans-Serif" font-size="10.00">+ log()</text>
<text text-anchor="start" x="152" y="-233.5" font-family="Helvetica,sans-Serif" font-size="10.00">+ getLogAt()</text>
<text text-anchor="start" x="152" y="-222.5" font-family="Helvetica,sans-Serif" font-size="10.00">+ clearLogs()</text>
<text text-anchor="start" x="152" y="-211.5" font-family="Helvetica,sans-Serif" font-size="10.00">+ rowCount()</text>
<text text-anchor="start" x="152" y="-200.5" font-family="Helvetica,sans-Serif" font-size="10.00">+ columnCount()</text>
<text text-anchor="start" x="152" y="-189.5" font-family="Helvetica,sans-Serif" font-size="10.00">+ data()</text>
<text text-anchor="start" x="152" y="-178.5" font-family="Helvetica,sans-Serif" font-size="10.00">+ headerData()</text>
</a>
</g>
</g>
<!-- Node3&#45;&gt;Node1 -->
<g id="edge2" class="edge">
<title>Node3&#45;&gt;Node1</title>
<path fill="none" stroke="#404040" d="M207,-171.39C207,-159.49 207,-147.46 207,-135.95"/>
<polygon fill="none" stroke="#404040" points="207,-135.7 203,-129.7 207,-123.7 211,-129.7 207,-135.7"/>
<text text-anchor="middle" x="229" y="-145" font-family="Helvetica,sans-Serif" font-size="10.00"> &#45;_parent</text>
</g>
<!-- Node4 -->
<g id="node4" class="node">
<title>Node4</title>
<g id="a_node4"><a xlink:title=" ">
<polygon fill="white" stroke="#bfbfbf" points="147,-398.5 147,-455.5 267,-455.5 267,-398.5 147,-398.5"/>
<text text-anchor="middle" x="207" y="-443.5" font-family="Helvetica,sans-Serif" font-size="10.00">QAbstractTableModel</text>
<polyline fill="none" stroke="#bfbfbf" points="147,-436.5 267,-436.5 "/>
<text text-anchor="middle" x="207" y="-424.5" font-family="Helvetica,sans-Serif" font-size="10.00"> </text>
<polyline fill="none" stroke="#bfbfbf" points="147,-417.5 267,-417.5 "/>
<text text-anchor="middle" x="207" y="-405.5" font-family="Helvetica,sans-Serif" font-size="10.00"> </text>
</a>
</g>
</g>
<!-- Node4&#45;&gt;Node3 -->
<g id="edge3" class="edge">
<title>Node4&#45;&gt;Node3</title>
<path fill="none" stroke="midnightblue" d="M207,-388.08C207,-379.6 207,-370.24 207,-360.6"/>
<polygon fill="none" stroke="midnightblue" points="203.5,-388.3 207,-398.3 210.5,-388.3 203.5,-388.3"/>
</g>
<!-- Node5 -->
<g id="node5" class="node">
<title>Node5</title>
<g id="a_node5"><a xlink:href="structComSquare_1_1Debugger_1_1BusLoggerFilters.html" target="_top" xlink:title="The struct representing filters of the memory bus&#39;s logger.">
<polygon fill="white" stroke="black" points="288,-188 288,-344 414,-344 414,-188 288,-188"/>
<text text-anchor="start" x="296" y="-332" font-family="Helvetica,sans-Serif" font-size="10.00">ComSquare::Debugger</text>
<text text-anchor="middle" x="351" y="-321" font-family="Helvetica,sans-Serif" font-size="10.00">::BusLoggerFilters</text>
<polyline fill="none" stroke="black" points="288,-314 414,-314 "/>
<text text-anchor="start" x="296" y="-302" font-family="Helvetica,sans-Serif" font-size="10.00">+ cpu</text>
<text text-anchor="start" x="296" y="-291" font-family="Helvetica,sans-Serif" font-size="10.00">+ apu</text>
<text text-anchor="start" x="296" y="-280" font-family="Helvetica,sans-Serif" font-size="10.00">+ ppu</text>
<text text-anchor="start" x="296" y="-269" font-family="Helvetica,sans-Serif" font-size="10.00">+ rom</text>
<text text-anchor="start" x="296" y="-258" font-family="Helvetica,sans-Serif" font-size="10.00">+ wram</text>
<text text-anchor="start" x="296" y="-247" font-family="Helvetica,sans-Serif" font-size="10.00">+ sram</text>
<text text-anchor="start" x="296" y="-236" font-family="Helvetica,sans-Serif" font-size="10.00">+ vram</text>
<text text-anchor="start" x="296" y="-225" font-family="Helvetica,sans-Serif" font-size="10.00">+ oamram</text>
<text text-anchor="start" x="296" y="-214" font-family="Helvetica,sans-Serif" font-size="10.00">+ cgram</text>
<polyline fill="none" stroke="black" points="288,-207 414,-207 "/>
<text text-anchor="middle" x="351" y="-195" font-family="Helvetica,sans-Serif" font-size="10.00"> </text>
</a>
</g>
</g>
<!-- Node5&#45;&gt;Node1 -->
<g id="edge4" class="edge">
<title>Node5&#45;&gt;Node1</title>
<path fill="none" stroke="#404040" d="M295.94,-187.77C283.27,-169.98 269.85,-151.16 257.38,-133.67"/>
<polygon fill="none" stroke="#404040" points="257.13,-133.32 250.39,-130.75 250.16,-123.55 256.9,-126.11 257.13,-133.32"/>
<text text-anchor="middle" x="291" y="-145" font-family="Helvetica,sans-Serif" font-size="10.00"> +filters</text>
</g>
</g>
</svg>
