<?xml version="1.0" encoding="UTF-8" standalone="no"?>
<!DOCTYPE svg PUBLIC "-//W3C//DTD SVG 1.1//EN"
 "http://www.w3.org/Graphics/SVG/1.1/DTD/svg11.dtd">
<!-- Generated by graphviz version 2.43.0 (0)
 -->
<!-- Title: ComSquare::Renderer::IRenderer Pages: 1 -->
<svg width="498pt" height="777pt"
 viewBox="0.00 0.00 498.00 777.00" xmlns="http://www.w3.org/2000/svg" xmlns:xlink="http://www.w3.org/1999/xlink">
<g id="graph0" class="graph" transform="scale(1 1) rotate(0) translate(4 773)">
<title>ComSquare::Renderer::IRenderer</title>
<polygon fill="white" stroke="transparent" points="-4,4 -4,-773 494,-773 494,4 -4,4"/>
<!-- Node1 -->
<g id="node1" class="node">
<title>Node1</title>
<g id="a_node1"><a xlink:title=" ">
<polygon fill="#bfbfbf" stroke="black" points="141,-656.5 141,-768.5 264,-768.5 264,-656.5 141,-656.5"/>
<text text-anchor="start" x="149" y="-756.5" font-family="Helvetica,sans-Serif" font-size="10.00">ComSquare::Renderer</text>
<text text-anchor="middle" x="202.5" y="-745.5" font-family="Helvetica,sans-Serif" font-size="10.00">::IRenderer</text>
<polyline fill="none" stroke="black" points="141,-738.5 264,-738.5 "/>
<text text-anchor="middle" x="202.5" y="-726.5" font-family="Helvetica,sans-Serif" font-size="10.00"> </text>
<polyline fill="none" stroke="black" points="141,-719.5 264,-719.5 "/>
<text text-anchor="start" x="149" y="-707.5" font-family="Helvetica,sans-Serif" font-size="10.00">+ setWindowName()</text>
<text text-anchor="start" x="149" y="-696.5" font-family="Helvetica,sans-Serif" font-size="10.00">+ drawScreen()</text>
<text text-anchor="start" x="149" y="-685.5" font-family="Helvetica,sans-Serif" font-size="10.00">+ putPixel()</text>
<text text-anchor="start" x="149" y="-674.5" font-family="Helvetica,sans-Serif" font-size="10.00">+ createWindow()</text>
<text text-anchor="start" x="149" y="-663.5" font-family="Helvetica,sans-Serif" font-size="10.00">+ playAudio()</text>
</a>
</g>
</g>
<!-- Node2 -->
<g id="node2" class="node">
<title>Node2</title>
<g id="a_node2"><a xlink:href="classComSquare_1_1Renderer_1_1NoRenderer.html" target="_top" xlink:title="A renderer that discard everything you give. (Used for tests).">
<polygon fill="white" stroke="black" points="0,-419.5 0,-575.5 123,-575.5 123,-419.5 0,-419.5"/>
<text text-anchor="start" x="8" y="-563.5" font-family="Helvetica,sans-Serif" font-size="10.00">ComSquare::Renderer</text>
<text text-anchor="middle" x="61.5" y="-552.5" font-family="Helvetica,sans-Serif" font-size="10.00">::NoRenderer</text>
<polyline fill="none" stroke="black" points="0,-545.5 123,-545.5 "/>
<text text-anchor="middle" x="61.5" y="-533.5" font-family="Helvetica,sans-Serif" font-size="10.00"> </text>
<polyline fill="none" stroke="black" points="0,-526.5 123,-526.5 "/>
<text text-anchor="start" x="8" y="-514.5" font-family="Helvetica,sans-Serif" font-size="10.00">+ setWindowName()</text>
<text text-anchor="start" x="8" y="-503.5" font-family="Helvetica,sans-Serif" font-size="10.00">+ drawScreen()</text>
<text text-anchor="start" x="8" y="-492.5" font-family="Helvetica,sans-Serif" font-size="10.00">+ putPixel()</text>
<text text-anchor="start" x="8" y="-481.5" font-family="Helvetica,sans-Serif" font-size="10.00">+ playAudio()</text>
<text text-anchor="start" x="8" y="-470.5" font-family="Helvetica,sans-Serif" font-size="10.00">+ createWindow()</text>
<text text-anchor="start" x="8" y="-459.5" font-family="Helvetica,sans-Serif" font-size="10.00">+ NoRenderer()</text>
<text text-anchor="start" x="8" y="-448.5" font-family="Helvetica,sans-Serif" font-size="10.00">+ NoRenderer()</text>
<text text-anchor="start" x="8" y="-437.5" font-family="Helvetica,sans-Serif" font-size="10.00">+ operator=()</text>
<text text-anchor="start" x="8" y="-426.5" font-family="Helvetica,sans-Serif" font-size="10.00">+ ~NoRenderer()</text>
</a>
</g>
</g>
<!-- Node1&#45;&gt;Node2 -->
<g id="edge1" class="edge">
<title>Node1&#45;&gt;Node2</title>
<path fill="none" stroke="midnightblue" d="M151.58,-648.18C144.63,-638.88 137.74,-629.3 131.5,-620 122.07,-605.95 112.6,-590.58 103.81,-575.63"/>
<polygon fill="none" stroke="midnightblue" points="148.87,-650.4 157.7,-656.27 154.46,-646.18 148.87,-650.4"/>
</g>
<!-- Node3 -->
<g id="node3" class="node">
<title>Node3</title>
<g id="a_node3"><a xlink:href="classComSquare_1_1Renderer_1_1QtSFML.html" target="_top" xlink:title="A SFML renderer inside a QT widget.">
<polygon fill="white" stroke="black" points="141,-414 141,-581 264,-581 264,-414 141,-414"/>
<text text-anchor="start" x="149" y="-569" font-family="Helvetica,sans-Serif" font-size="10.00">ComSquare::Renderer</text>
<text text-anchor="middle" x="202.5" y="-558" font-family="Helvetica,sans-Serif" font-size="10.00">::QtSFML</text>
<polyline fill="none" stroke="black" points="141,-551 264,-551 "/>
<text text-anchor="start" x="149" y="-539" font-family="Helvetica,sans-Serif" font-size="10.00"># _sfWidget</text>
<text text-anchor="start" x="149" y="-528" font-family="Helvetica,sans-Serif" font-size="10.00">&#45; _window</text>
<polyline fill="none" stroke="black" points="141,-521 264,-521 "/>
<text text-anchor="start" x="149" y="-509" font-family="Helvetica,sans-Serif" font-size="10.00">+ createWindow()</text>
<text text-anchor="start" x="149" y="-498" font-family="Helvetica,sans-Serif" font-size="10.00">+ putPixel()</text>
<text text-anchor="start" x="149" y="-487" font-family="Helvetica,sans-Serif" font-size="10.00">+ drawScreen()</text>
<text text-anchor="start" x="149" y="-476" font-family="Helvetica,sans-Serif" font-size="10.00">+ playAudio()</text>
<text text-anchor="start" x="149" y="-465" font-family="Helvetica,sans-Serif" font-size="10.00">+ setWindowName()</text>
<text text-anchor="start" x="149" y="-454" font-family="Helvetica,sans-Serif" font-size="10.00">+ QtSFML()</text>
<text text-anchor="start" x="149" y="-443" font-family="Helvetica,sans-Serif" font-size="10.00">+ QtSFML()</text>
<text text-anchor="start" x="149" y="-432" font-family="Helvetica,sans-Serif" font-size="10.00">+ operator=()</text>
<text text-anchor="start" x="149" y="-421" font-family="Helvetica,sans-Serif" font-size="10.00">+ ~QtSFML()</text>
</a>
</g>
</g>
<!-- Node1&#45;&gt;Node3 -->
<g id="edge2" class="edge">
<title>Node1&#45;&gt;Node3</title>
<path fill="none" stroke="midnightblue" d="M202.5,-646.19C202.5,-625.65 202.5,-602.69 202.5,-581.12"/>
<polygon fill="none" stroke="midnightblue" points="199,-646.37 202.5,-656.37 206,-646.37 199,-646.37"/>
</g>
<!-- Node5 -->
<g id="node5" class="node">
<title>Node5</title>
<g id="a_node5"><a xlink:href="classComSquare_1_1Renderer_1_1SFRenderer.html" target="_top" xlink:title=" ">
<polygon fill="white" stroke="black" points="282,-375.5 282,-619.5 405,-619.5 405,-375.5 282,-375.5"/>
<text text-anchor="start" x="290" y="-607.5" font-family="Helvetica,sans-Serif" font-size="10.00">ComSquare::Renderer</text>
<text text-anchor="middle" x="343.5" y="-596.5" font-family="Helvetica,sans-Serif" font-size="10.00">::SFRenderer</text>
<polyline fill="none" stroke="black" points="282,-589.5 405,-589.5 "/>
<text text-anchor="start" x="290" y="-577.5" font-family="Helvetica,sans-Serif" font-size="10.00">+ shouldExit</text>
<text text-anchor="start" x="290" y="-566.5" font-family="Helvetica,sans-Serif" font-size="10.00"># _window</text>
<text text-anchor="start" x="290" y="-555.5" font-family="Helvetica,sans-Serif" font-size="10.00"># _videoMode</text>
<text text-anchor="start" x="290" y="-544.5" font-family="Helvetica,sans-Serif" font-size="10.00"># _pixelBuffer</text>
<text text-anchor="start" x="290" y="-533.5" font-family="Helvetica,sans-Serif" font-size="10.00"># _sprite</text>
<text text-anchor="start" x="290" y="-522.5" font-family="Helvetica,sans-Serif" font-size="10.00"># _texture</text>
<text text-anchor="start" x="290" y="-511.5" font-family="Helvetica,sans-Serif" font-size="10.00"># _soundBuffer</text>
<text text-anchor="start" x="290" y="-500.5" font-family="Helvetica,sans-Serif" font-size="10.00"># _sound</text>
<polyline fill="none" stroke="black" points="282,-493.5 405,-493.5 "/>
<text text-anchor="start" x="290" y="-481.5" font-family="Helvetica,sans-Serif" font-size="10.00">+ setWindowName()</text>
<text text-anchor="start" x="290" y="-470.5" font-family="Helvetica,sans-Serif" font-size="10.00">+ drawScreen()</text>
<text text-anchor="start" x="290" y="-459.5" font-family="Helvetica,sans-Serif" font-size="10.00">+ putPixel()</text>
<text text-anchor="start" x="290" y="-448.5" font-family="Helvetica,sans-Serif" font-size="10.00">+ playAudio()</text>
<text text-anchor="start" x="290" y="-437.5" font-family="Helvetica,sans-Serif" font-size="10.00">+ getEvents()</text>
<text text-anchor="start" x="290" y="-426.5" font-family="Helvetica,sans-Serif" font-size="10.00">+ createWindow()</text>
<text text-anchor="start" x="290" y="-415.5" font-family="Helvetica,sans-Serif" font-size="10.00">+ SFRenderer()</text>
<text text-anchor="start" x="290" y="-404.5" font-family="Helvetica,sans-Serif" font-size="10.00">+ SFRenderer()</text>
<text text-anchor="start" x="290" y="-393.5" font-family="Helvetica,sans-Serif" font-size="10.00">+ operator=()</text>
<text text-anchor="start" x="290" y="-382.5" font-family="Helvetica,sans-Serif" font-size="10.00">+ ~SFRenderer()</text>
</a>
</g>
</g>
<!-- Node1&#45;&gt;Node5 -->
<g id="edge4" class="edge">
<title>Node1&#45;&gt;Node5</title>
<path fill="none" stroke="midnightblue" d="M253.42,-648.18C260.37,-638.88 267.26,-629.3 273.5,-620 276.28,-615.86 279.07,-611.6 281.84,-607.27"/>
<polygon fill="none" stroke="midnightblue" points="250.54,-646.18 247.3,-656.27 256.13,-650.4 250.54,-646.18"/>
</g>
<!-- Node4 -->
<g id="node4" class="node">
<title>Node4</title>
<g id="a_node4"><a xlink:href="classComSquare_1_1Renderer_1_1QtSFMLWindow.html" target="_top" xlink:title=" ">
<polygon fill="white" stroke="black" points="141,-199 141,-311 264,-311 264,-199 141,-199"/>
<text text-anchor="start" x="149" y="-299" font-family="Helvetica,sans-Serif" font-size="10.00">ComSquare::Renderer</text>
<text text-anchor="middle" x="202.5" y="-288" font-family="Helvetica,sans-Serif" font-size="10.00">::QtSFMLWindow</text>
<polyline fill="none" stroke="black" points="141,-281 264,-281 "/>
<text text-anchor="start" x="149" y="-269" font-family="Helvetica,sans-Serif" font-size="10.00">&#45; _window</text>
<polyline fill="none" stroke="black" points="141,-262 264,-262 "/>
<text text-anchor="start" x="149" y="-250" font-family="Helvetica,sans-Serif" font-size="10.00">+ createWindow()</text>
<text text-anchor="start" x="149" y="-239" font-family="Helvetica,sans-Serif" font-size="10.00">+ QtSFMLWindow()</text>
<text text-anchor="start" x="149" y="-228" font-family="Helvetica,sans-Serif" font-size="10.00">+ QtSFMLWindow()</text>
<text text-anchor="start" x="149" y="-217" font-family="Helvetica,sans-Serif" font-size="10.00">+ operator=()</text>
<text text-anchor="start" x="149" y="-206" font-family="Helvetica,sans-Serif" font-size="10.00">+ ~QtSFMLWindow()</text>
</a>
</g>
</g>
<!-- Node3&#45;&gt;Node4 -->
<g id="edge3" class="edge">
<title>Node3&#45;&gt;Node4</title>
<path fill="none" stroke="midnightblue" d="M202.5,-403.71C202.5,-372.51 202.5,-338.71 202.5,-311.32"/>
<polygon fill="none" stroke="midnightblue" points="199,-403.73 202.5,-413.73 206,-403.73 199,-403.73"/>
</g>
<!-- Node6 -->
<g id="node6" class="node">
<title>Node6</title>
<g id="a_node6"><a xlink:href="classComSquare_1_1Renderer_1_1QtWidgetSFML.html" target="_top" xlink:title="A widget that you can put inside a QT application that render using the SFML.">
<polygon fill="white" stroke="black" points="282,-171.5 282,-338.5 405,-338.5 405,-171.5 282,-171.5"/>
<text text-anchor="start" x="290" y="-326.5" font-family="Helvetica,sans-Serif" font-size="10.00">ComSquare::Renderer</text>
<text text-anchor="middle" x="343.5" y="-315.5" font-family="Helvetica,sans-Serif" font-size="10.00">::QtWidgetSFML</text>
<polyline fill="none" stroke="black" points="282,-308.5 405,-308.5 "/>
<text text-anchor="start" x="290" y="-296.5" font-family="Helvetica,sans-Serif" font-size="10.00">&#45; _timer</text>
<text text-anchor="start" x="290" y="-285.5" font-family="Helvetica,sans-Serif" font-size="10.00">&#45; _isInitialized</text>
<polyline fill="none" stroke="black" points="282,-278.5 405,-278.5 "/>
<text text-anchor="start" x="290" y="-266.5" font-family="Helvetica,sans-Serif" font-size="10.00">+ QtWidgetSFML()</text>
<text text-anchor="start" x="290" y="-255.5" font-family="Helvetica,sans-Serif" font-size="10.00">+ QtWidgetSFML()</text>
<text text-anchor="start" x="290" y="-244.5" font-family="Helvetica,sans-Serif" font-size="10.00">+ operator=()</text>
<text text-anchor="start" x="290" y="-233.5" font-family="Helvetica,sans-Serif" font-size="10.00">+ ~QtWidgetSFML()</text>
<text text-anchor="start" x="290" y="-222.5" font-family="Helvetica,sans-Serif" font-size="10.00">+ onUpdate()</text>
<text text-anchor="start" x="290" y="-211.5" font-family="Helvetica,sans-Serif" font-size="10.00">&#45; _onInit()</text>
<text text-anchor="start" x="290" y="-200.5" font-family="Helvetica,sans-Serif" font-size="10.00">&#45; paintEngine()</text>
<text text-anchor="start" x="290" y="-189.5" font-family="Helvetica,sans-Serif" font-size="10.00">&#45; showEvent()</text>
<text text-anchor="start" x="290" y="-178.5" font-family="Helvetica,sans-Serif" font-size="10.00">&#45; paintEvent()</text>
</a>
</g>
</g>
<!-- Node5&#45;&gt;Node6 -->
<g id="edge5" class="edge">
<title>Node5&#45;&gt;Node6</title>
<path fill="none" stroke="midnightblue" d="M343.5,-365.06C343.5,-356.1 343.5,-347.23 343.5,-338.64"/>
<polygon fill="none" stroke="midnightblue" points="340,-365.19 343.5,-375.19 347,-365.19 340,-365.19"/>
</g>
<!-- Node7 -->
<g id="node7" class="node">
<title>Node7</title>
<g id="a_node7"><a xlink:href="classComSquare_1_1Renderer_1_1QtFullSFML.html" target="_top" xlink:title="The SFML window that manage the update.">
<polygon fill="white" stroke="black" points="206,-0.5 206,-134.5 329,-134.5 329,-0.5 206,-0.5"/>
<text text-anchor="start" x="214" y="-122.5" font-family="Helvetica,sans-Serif" font-size="10.00">ComSquare::Renderer</text>
<text text-anchor="middle" x="267.5" y="-111.5" font-family="Helvetica,sans-Serif" font-size="10.00">::QtFullSFML</text>
<polyline fill="none" stroke="black" points="206,-104.5 329,-104.5 "/>
<text text-anchor="start" x="214" y="-92.5" font-family="Helvetica,sans-Serif" font-size="10.00">&#45; _snes</text>
<polyline fill="none" stroke="black" points="206,-85.5 329,-85.5 "/>
<text text-anchor="start" x="214" y="-73.5" font-family="Helvetica,sans-Serif" font-size="10.00">+ openRom()</text>
<text text-anchor="start" x="214" y="-62.5" font-family="Helvetica,sans-Serif" font-size="10.00">+ reset()</text>
<text text-anchor="start" x="214" y="-51.5" font-family="Helvetica,sans-Serif" font-size="10.00">+ QtFullSFML()</text>
<text text-anchor="start" x="214" y="-40.5" font-family="Helvetica,sans-Serif" font-size="10.00">+ QtFullSFML()</text>
<text text-anchor="start" x="214" y="-29.5" font-family="Helvetica,sans-Serif" font-size="10.00">+ operator=()</text>
<text text-anchor="start" x="214" y="-18.5" font-family="Helvetica,sans-Serif" font-size="10.00">+ ~QtFullSFML()</text>
<text text-anchor="start" x="214" y="-7.5" font-family="Helvetica,sans-Serif" font-size="10.00">&#45; onUpdate()</text>
</a>
</g>
</g>
<!-- Node6&#45;&gt;Node7 -->
<g id="edge6" class="edge">
<title>Node6&#45;&gt;Node7</title>
<path fill="none" stroke="midnightblue" d="M305.71,-161.76C301.96,-152.61 298.21,-143.45 294.6,-134.64"/>
<polygon fill="none" stroke="midnightblue" points="302.58,-163.36 309.61,-171.29 309.06,-160.71 302.58,-163.36"/>
</g>
<!-- Node8 -->
<g id="node8" class="node">
<title>Node8</title>
<g id="a_node8"><a xlink:href="classComSquare_1_1Renderer_1_1QtSFMLTileRenderer.html" target="_top" xlink:title=" ">
<polygon fill="white" stroke="black" points="347,-11.5 347,-123.5 490,-123.5 490,-11.5 347,-11.5"/>
<text text-anchor="start" x="355" y="-111.5" font-family="Helvetica,sans-Serif" font-size="10.00">ComSquare::Renderer</text>
<text text-anchor="middle" x="418.5" y="-100.5" font-family="Helvetica,sans-Serif" font-size="10.00">::QtSFMLTileRenderer</text>
<polyline fill="none" stroke="black" points="347,-93.5 490,-93.5 "/>
<text text-anchor="start" x="355" y="-81.5" font-family="Helvetica,sans-Serif" font-size="10.00">+ buffer</text>
<polyline fill="none" stroke="black" points="347,-74.5 490,-74.5 "/>
<text text-anchor="start" x="355" y="-62.5" font-family="Helvetica,sans-Serif" font-size="10.00">+ onUpdate()</text>
<text text-anchor="start" x="355" y="-51.5" font-family="Helvetica,sans-Serif" font-size="10.00">+ QtSFMLTileRenderer()</text>
<text text-anchor="start" x="355" y="-40.5" font-family="Helvetica,sans-Serif" font-size="10.00">+ QtSFMLTileRenderer()</text>
<text text-anchor="start" x="355" y="-29.5" font-family="Helvetica,sans-Serif" font-size="10.00">+ ~QtSFMLTileRenderer()</text>
<text text-anchor="start" x="355" y="-18.5" font-family="Helvetica,sans-Serif" font-size="10.00">+ operator=()</text>
</a>
</g>
</g>
<!-- Node6&#45;&gt;Node8 -->
<g id="edge7" class="edge">
<title>Node6&#45;&gt;Node8</title>
<path fill="none" stroke="midnightblue" d="M380.78,-161.8C386.05,-148.75 391.34,-135.68 396.21,-123.64"/>
<polygon fill="none" stroke="midnightblue" points="377.45,-160.7 376.94,-171.29 383.94,-163.33 377.45,-160.7"/>
</g>
</g>
</svg>
