<?xml version="1.0" encoding="UTF-8" standalone="no"?>
<!DOCTYPE svg PUBLIC "-//W3C//DTD SVG 1.1//EN"
 "http://www.w3.org/Graphics/SVG/1.1/DTD/svg11.dtd">
<!-- Generated by graphviz version 2.43.0 (0)
 -->
<!-- Title: ComSquare::Debugger::CPU::DisassemblyModel Pages: 1 -->
<svg width="150pt" height="248pt"
 viewBox="0.00 0.00 150.00 248.00" xmlns="http://www.w3.org/2000/svg" xmlns:xlink="http://www.w3.org/1999/xlink">
<g id="graph0" class="graph" transform="scale(1 1) rotate(0) translate(4 244)">
<title>ComSquare::Debugger::CPU::DisassemblyModel</title>
<polygon fill="white" stroke="transparent" points="-4,4 -4,-244 146,-244 146,4 -4,4"/>
<!-- Node1 -->
<g id="node1" class="node">
<title>Node1</title>
<g id="a_node1"><a xlink:title="The qt model that show the disassembly.">
<polygon fill="#bfbfbf" stroke="black" points="0,-0.5 0,-145.5 142,-145.5 142,-0.5 0,-0.5"/>
<text text-anchor="start" x="8" y="-133.5" font-family="Helvetica,sans-Serif" font-size="10.00">ComSquare::Debugger</text>
<text text-anchor="middle" x="71" y="-122.5" font-family="Helvetica,sans-Serif" font-size="10.00">::CPU::DisassemblyModel</text>
<polyline fill="none" stroke="black" points="0,-115.5 142,-115.5 "/>
<text text-anchor="start" x="8" y="-103.5" font-family="Helvetica,sans-Serif" font-size="10.00">&#45; _cpu</text>
<polyline fill="none" stroke="black" points="0,-96.5 142,-96.5 "/>
<text text-anchor="start" x="8" y="-84.5" font-family="Helvetica,sans-Serif" font-size="10.00">+ DisassemblyModel()</text>
<text text-anchor="start" x="8" y="-73.5" font-family="Helvetica,sans-Serif" font-size="10.00">+ DisassemblyModel()</text>
<text text-anchor="start" x="8" y="-62.5" font-family="Helvetica,sans-Serif" font-size="10.00">+ operator=()</text>
<text text-anchor="start" x="8" y="-51.5" font-family="Helvetica,sans-Serif" font-size="10.00">+ ~DisassemblyModel()</text>
<text text-anchor="start" x="8" y="-40.5" font-family="Helvetica,sans-Serif" font-size="10.00">+ rowCount()</text>
<text text-anchor="start" x="8" y="-29.5" font-family="Helvetica,sans-Serif" font-size="10.00">+ columnCount()</text>
<text text-anchor="start" x="8" y="-18.5" font-family="Helvetica,sans-Serif" font-size="10.00">+ data()</text>
<text text-anchor="start" x="8" y="-7.5" font-family="Helvetica,sans-Serif" font-size="10.00">+ headerData()</text>
</a>
</g>
</g>
<!-- Node2 -->
<g id="node2" class="node">
<title>Node2</title>
<g id="a_node2"><a xlink:title=" ">
<polygon fill="white" stroke="#bfbfbf" points="11,-182.5 11,-239.5 131,-239.5 131,-182.5 11,-182.5"/>
<text text-anchor="middle" x="71" y="-227.5" font-family="Helvetica,sans-Serif" font-size="10.00">QAbstractTableModel</text>
<polyline fill="none" stroke="#bfbfbf" points="11,-220.5 131,-220.5 "/>
<text text-anchor="middle" x="71" y="-208.5" font-family="Helvetica,sans-Serif" font-size="10.00"> </text>
<polyline fill="none" stroke="#bfbfbf" points="11,-201.5 131,-201.5 "/>
<text text-anchor="middle" x="71" y="-189.5" font-family="Helvetica,sans-Serif" font-size="10.00"> </text>
</a>
</g>
</g>
<!-- Node2&#45;&gt;Node1 -->
<g id="edge1" class="edge">
<title>Node2&#45;&gt;Node1</title>
<path fill="none" stroke="midnightblue" d="M71,-172.36C71,-164 71,-154.87 71,-145.66"/>
<polygon fill="none" stroke="midnightblue" points="67.5,-172.48 71,-182.48 74.5,-172.48 67.5,-172.48"/>
</g>
</g>
</svg>
