<?xml version="1.0" encoding="UTF-8" standalone="no"?>
<!DOCTYPE svg PUBLIC "-//W3C//DTD SVG 1.1//EN"
 "http://www.w3.org/Graphics/SVG/1.1/DTD/svg11.dtd">
<!-- Generated by graphviz version 2.43.0 (0)
 -->
<!-- Title: ComSquare::DebuggableError Pages: 1 -->
<svg width="688pt" height="276pt"
 viewBox="0.00 0.00 687.50 276.00" xmlns="http://www.w3.org/2000/svg" xmlns:xlink="http://www.w3.org/1999/xlink">
<g id="graph0" class="graph" transform="scale(1 1) rotate(0) translate(4 272)">
<title>ComSquare::DebuggableError</title>
<polygon fill="white" stroke="transparent" points="-4,4 -4,-272 683.5,-272 683.5,4 -4,4"/>
<!-- Node1 -->
<g id="node1" class="node">
<title>Node1</title>
<g id="a_node1"><a xlink:title=" ">
<polygon fill="#bfbfbf" stroke="black" points="240,-116.5 240,-173.5 401,-173.5 401,-116.5 240,-116.5"/>
<text text-anchor="middle" x="320.5" y="-161.5" font-family="Helvetica,sans-Serif" font-size="10.00">ComSquare::DebuggableError</text>
<polyline fill="none" stroke="black" points="240,-154.5 401,-154.5 "/>
<text text-anchor="middle" x="320.5" y="-142.5" font-family="Helvetica,sans-Serif" font-size="10.00"> </text>
<polyline fill="none" stroke="black" points="240,-135.5 401,-135.5 "/>
<text text-anchor="middle" x="320.5" y="-123.5" font-family="Helvetica,sans-Serif" font-size="10.00"> </text>
</a>
</g>
</g>
<!-- Node3 -->
<g id="node3" class="node">
<title>Node3</title>
<g id="a_node3"><a xlink:href="classComSquare_1_1InvalidAction.html" target="_top" xlink:title="Exception thrown when someone tries to load an invalid rom.">
<polygon fill="white" stroke="black" points="0,-6 0,-74 143,-74 143,-6 0,-6"/>
<text text-anchor="middle" x="71.5" y="-62" font-family="Helvetica,sans-Serif" font-size="10.00">ComSquare::InvalidAction</text>
<polyline fill="none" stroke="black" points="0,-55 143,-55 "/>
<text text-anchor="start" x="8" y="-43" font-family="Helvetica,sans-Serif" font-size="10.00">&#45; _msg</text>
<polyline fill="none" stroke="black" points="0,-36 143,-36 "/>
<text text-anchor="start" x="8" y="-24" font-family="Helvetica,sans-Serif" font-size="10.00">+ InvalidAction()</text>
<text text-anchor="start" x="8" y="-13" font-family="Helvetica,sans-Serif" font-size="10.00">+ what()</text>
</a>
</g>
</g>
<!-- Node1&#45;&gt;Node3 -->
<g id="edge2" class="edge">
<title>Node1&#45;&gt;Node3</title>
<path fill="none" stroke="midnightblue" d="M233.68,-112.86C207.11,-102.87 177.92,-91.41 151.5,-80 147.1,-78.1 142.6,-76.09 138.07,-74.02"/>
<polygon fill="none" stroke="midnightblue" points="232.75,-116.25 243.35,-116.48 235.21,-109.7 232.75,-116.25"/>
</g>
<!-- Node4 -->
<g id="node4" class="node">
<title>Node4</title>
<g id="a_node4"><a xlink:href="classComSquare_1_1InvalidAddress.html" target="_top" xlink:title="Exception thrown when trying to read/write to an invalid address.">
<polygon fill="white" stroke="black" points="161,-6 161,-74 312,-74 312,-6 161,-6"/>
<text text-anchor="middle" x="236.5" y="-62" font-family="Helvetica,sans-Serif" font-size="10.00">ComSquare::InvalidAddress</text>
<polyline fill="none" stroke="black" points="161,-55 312,-55 "/>
<text text-anchor="start" x="169" y="-43" font-family="Helvetica,sans-Serif" font-size="10.00">&#45; _msg</text>
<polyline fill="none" stroke="black" points="161,-36 312,-36 "/>
<text text-anchor="start" x="169" y="-24" font-family="Helvetica,sans-Serif" font-size="10.00">+ InvalidAddress()</text>
<text text-anchor="start" x="169" y="-13" font-family="Helvetica,sans-Serif" font-size="10.00">+ what()</text>
</a>
</g>
</g>
<!-- Node1&#45;&gt;Node4 -->
<g id="edge3" class="edge">
<title>Node1&#45;&gt;Node4</title>
<path fill="none" stroke="midnightblue" d="M291.57,-108.52C282.49,-97.39 272.5,-85.15 263.56,-74.18"/>
<polygon fill="none" stroke="midnightblue" points="288.96,-110.86 297.99,-116.4 294.38,-106.44 288.96,-110.86"/>
</g>
<!-- Node5 -->
<g id="node5" class="node">
<title>Node5</title>
<g id="a_node5"><a xlink:href="classComSquare_1_1InvalidOpcode.html" target="_top" xlink:title="Exception thrown when someone tries to load an invalid rom.">
<polygon fill="white" stroke="black" points="330,-0.5 330,-79.5 479,-79.5 479,-0.5 330,-0.5"/>
<text text-anchor="middle" x="404.5" y="-67.5" font-family="Helvetica,sans-Serif" font-size="10.00">ComSquare::InvalidOpcode</text>
<polyline fill="none" stroke="black" points="330,-60.5 479,-60.5 "/>
<text text-anchor="start" x="338" y="-48.5" font-family="Helvetica,sans-Serif" font-size="10.00">&#45; _msg</text>
<polyline fill="none" stroke="black" points="330,-41.5 479,-41.5 "/>
<text text-anchor="start" x="338" y="-29.5" font-family="Helvetica,sans-Serif" font-size="10.00">+ InvalidOpcode()</text>
<text text-anchor="start" x="338" y="-18.5" font-family="Helvetica,sans-Serif" font-size="10.00">+ InvalidOpcode()</text>
<text text-anchor="start" x="338" y="-7.5" font-family="Helvetica,sans-Serif" font-size="10.00">+ what()</text>
</a>
</g>
</g>
<!-- Node1&#45;&gt;Node5 -->
<g id="edge4" class="edge">
<title>Node1&#45;&gt;Node5</title>
<path fill="none" stroke="midnightblue" d="M349.51,-108.43C357.12,-99.1 365.36,-89 373.09,-79.52"/>
<polygon fill="none" stroke="midnightblue" points="346.62,-106.44 343.01,-116.4 352.04,-110.86 346.62,-106.44"/>
</g>
<!-- Node6 -->
<g id="node6" class="node">
<title>Node6</title>
<g id="a_node6"><a xlink:href="classComSquare_1_1InvalidRomException.html" target="_top" xlink:title="Exception thrown when someone tries to load an invalid rom.">
<polygon fill="white" stroke="black" points="497.5,-6 497.5,-74 679.5,-74 679.5,-6 497.5,-6"/>
<text text-anchor="middle" x="588.5" y="-62" font-family="Helvetica,sans-Serif" font-size="10.00">ComSquare::InvalidRomException</text>
<polyline fill="none" stroke="black" points="497.5,-55 679.5,-55 "/>
<text text-anchor="start" x="505.5" y="-43" font-family="Helvetica,sans-Serif" font-size="10.00">&#45; _msg</text>
<polyline fill="none" stroke="black" points="497.5,-36 679.5,-36 "/>
<text text-anchor="start" x="505.5" y="-24" font-family="Helvetica,sans-Serif" font-size="10.00">+ InvalidRomException()</text>
<text text-anchor="start" x="505.5" y="-13" font-family="Helvetica,sans-Serif" font-size="10.00">+ what()</text>
</a>
</g>
</g>
<!-- Node1&#45;&gt;Node6 -->
<g id="edge5" class="edge">
<title>Node1&#45;&gt;Node6</title>
<path fill="none" stroke="midnightblue" d="M402.82,-112.79C430.11,-102.4 460.63,-90.74 488.5,-80 493.54,-78.06 498.73,-76.05 503.95,-74.03"/>
<polygon fill="none" stroke="midnightblue" points="401.42,-109.58 393.32,-116.4 403.91,-116.12 401.42,-109.58"/>
</g>
<!-- Node2 -->
<g id="node2" class="node">
<title>Node2</title>
<g id="a_node2"><a xlink:title=" ">
<polygon fill="white" stroke="#bfbfbf" points="277.5,-210.5 277.5,-267.5 363.5,-267.5 363.5,-210.5 277.5,-210.5"/>
<text text-anchor="middle" x="320.5" y="-255.5" font-family="Helvetica,sans-Serif" font-size="10.00">std::exception</text>
<polyline fill="none" stroke="#bfbfbf" points="277.5,-248.5 363.5,-248.5 "/>
<text text-anchor="middle" x="320.5" y="-236.5" font-family="Helvetica,sans-Serif" font-size="10.00"> </text>
<polyline fill="none" stroke="#bfbfbf" points="277.5,-229.5 363.5,-229.5 "/>
<text text-anchor="middle" x="320.5" y="-217.5" font-family="Helvetica,sans-Serif" font-size="10.00"> </text>
</a>
</g>
</g>
<!-- Node2&#45;&gt;Node1 -->
<g id="edge1" class="edge">
<title>Node2&#45;&gt;Node1</title>
<path fill="none" stroke="midnightblue" d="M320.5,-200.21C320.5,-191.29 320.5,-181.95 320.5,-173.58"/>
<polygon fill="none" stroke="midnightblue" points="317,-200.4 320.5,-210.4 324,-200.4 317,-200.4"/>
</g>
</g>
</svg>
