<?xml version="1.0" encoding="UTF-8" standalone="no"?>
<!DOCTYPE svg PUBLIC "-//W3C//DTD SVG 1.1//EN"
 "http://www.w3.org/Graphics/SVG/1.1/DTD/svg11.dtd">
<!-- Generated by graphviz version 2.43.0 (0)
 -->
<!-- Title: ComSquare::PPU::Background Pages: 1 -->
<svg width="825pt" height="1706pt"
 viewBox="0.00 0.00 824.70 1706.00" xmlns="http://www.w3.org/2000/svg" xmlns:xlink="http://www.w3.org/1999/xlink">
<g id="graph0" class="graph" transform="scale(1 1) rotate(0) translate(4 1702)">
<title>ComSquare::PPU::Background</title>
<polygon fill="white" stroke="transparent" points="-4,4 -4,-1702 820.7,-1702 820.7,4 -4,4"/>
<!-- Node1 -->
<g id="node1" class="node">
<title>Node1</title>
<g id="a_node1"><a xlink:title=" ">
<polygon fill="#bfbfbf" stroke="black" points="176.2,-270.5 176.2,-635.5 340.2,-635.5 340.2,-270.5 176.2,-270.5"/>
<text text-anchor="middle" x="258.2" y="-623.5" font-family="Helvetica,sans-Serif" font-size="10.00">ComSquare::PPU::Background</text>
<polyline fill="none" stroke="black" points="176.2,-616.5 340.2,-616.5 "/>
<text text-anchor="start" x="184.2" y="-604.5" font-family="Helvetica,sans-Serif" font-size="10.00">+ buffer</text>
<text text-anchor="start" x="184.2" y="-593.5" font-family="Helvetica,sans-Serif" font-size="10.00">+ tilesPriority</text>
<text text-anchor="start" x="184.2" y="-582.5" font-family="Helvetica,sans-Serif" font-size="10.00">&#45; _bpp</text>
<text text-anchor="start" x="184.2" y="-571.5" font-family="Helvetica,sans-Serif" font-size="10.00">&#45; _directColor</text>
<text text-anchor="start" x="184.2" y="-560.5" font-family="Helvetica,sans-Serif" font-size="10.00">&#45; _highRes</text>
<text text-anchor="start" x="184.2" y="-549.5" font-family="Helvetica,sans-Serif" font-size="10.00">&#45; _tileMapStartAddress</text>
<text text-anchor="start" x="184.2" y="-538.5" font-family="Helvetica,sans-Serif" font-size="10.00">&#45; _tilesetAddress</text>
<text text-anchor="start" x="184.2" y="-527.5" font-family="Helvetica,sans-Serif" font-size="10.00">&#45; _bgNumber</text>
<text text-anchor="start" x="184.2" y="-516.5" font-family="Helvetica,sans-Serif" font-size="10.00">&#45; _tileBuffer</text>
<text text-anchor="start" x="184.2" y="-505.5" font-family="Helvetica,sans-Serif" font-size="10.00">&#45; NbCharacterWidth</text>
<text text-anchor="start" x="184.2" y="-494.5" font-family="Helvetica,sans-Serif" font-size="10.00">&#45; NbCharacterHeight</text>
<text text-anchor="start" x="184.2" y="-483.5" font-family="Helvetica,sans-Serif" font-size="10.00">&#45; NbTilePerRow</text>
<text text-anchor="start" x="184.2" y="-472.5" font-family="Helvetica,sans-Serif" font-size="10.00">&#45; TileMapByteSize</text>
<polyline fill="none" stroke="black" points="176.2,-465.5 340.2,-465.5 "/>
<text text-anchor="start" x="184.2" y="-453.5" font-family="Helvetica,sans-Serif" font-size="10.00">+ isPriorityPixel()</text>
<text text-anchor="start" x="184.2" y="-442.5" font-family="Helvetica,sans-Serif" font-size="10.00">+ renderBackground()</text>
<text text-anchor="start" x="184.2" y="-431.5" font-family="Helvetica,sans-Serif" font-size="10.00">+ setTileMapStartAddress()</text>
<text text-anchor="start" x="184.2" y="-420.5" font-family="Helvetica,sans-Serif" font-size="10.00">+ setCharacterSize()</text>
<text text-anchor="start" x="184.2" y="-409.5" font-family="Helvetica,sans-Serif" font-size="10.00">+ setTilesetAddress()</text>
<text text-anchor="start" x="184.2" y="-398.5" font-family="Helvetica,sans-Serif" font-size="10.00">+ setBpp()</text>
<text text-anchor="start" x="184.2" y="-387.5" font-family="Helvetica,sans-Serif" font-size="10.00">+ setTileMapMirroring()</text>
<text text-anchor="start" x="184.2" y="-376.5" font-family="Helvetica,sans-Serif" font-size="10.00">+ getBgNumber()</text>
<text text-anchor="start" x="184.2" y="-365.5" font-family="Helvetica,sans-Serif" font-size="10.00">+ Background()</text>
<text text-anchor="start" x="184.2" y="-354.5" font-family="Helvetica,sans-Serif" font-size="10.00">+ Background()</text>
<text text-anchor="start" x="184.2" y="-343.5" font-family="Helvetica,sans-Serif" font-size="10.00">+ ~Background()</text>
<text text-anchor="start" x="184.2" y="-332.5" font-family="Helvetica,sans-Serif" font-size="10.00">+ operator=()</text>
<text text-anchor="start" x="184.2" y="-321.5" font-family="Helvetica,sans-Serif" font-size="10.00">+ mergeBackgroundBuffer()</text>
<text text-anchor="start" x="184.2" y="-310.5" font-family="Helvetica,sans-Serif" font-size="10.00">&#45; _drawTile()</text>
<text text-anchor="start" x="184.2" y="-299.5" font-family="Helvetica,sans-Serif" font-size="10.00">&#45; _drawTileFromMemoryToTile</text>
<text text-anchor="start" x="184.2" y="-288.5" font-family="Helvetica,sans-Serif" font-size="10.00">Buffer()</text>
<text text-anchor="start" x="184.2" y="-277.5" font-family="Helvetica,sans-Serif" font-size="10.00">&#45; _drawBasicTileMap()</text>
</a>
</g>
</g>
<!-- Node9 -->
<g id="node9" class="node">
<title>Node9</title>
<g id="a_node9"><a xlink:href="classComSquare_1_1PPU_1_1PPU.html" target="_top" xlink:title="The class containing all the registers of the PPU.">
<polygon fill="white" stroke="black" points="245.2,-0.5 245.2,-222.5 379.2,-222.5 379.2,-0.5 245.2,-0.5"/>
<text text-anchor="middle" x="312.2" y="-210.5" font-family="Helvetica,sans-Serif" font-size="10.00">ComSquare::PPU::PPU</text>
<polyline fill="none" stroke="black" points="245.2,-203.5 379.2,-203.5 "/>
<text text-anchor="start" x="253.2" y="-191.5" font-family="Helvetica,sans-Serif" font-size="10.00">&#45; _mainScreen</text>
<text text-anchor="start" x="253.2" y="-180.5" font-family="Helvetica,sans-Serif" font-size="10.00">&#45; _mainScreenLevelMap</text>
<text text-anchor="start" x="253.2" y="-169.5" font-family="Helvetica,sans-Serif" font-size="10.00">&#45; _subScreenLevelMap</text>
<text text-anchor="start" x="253.2" y="-158.5" font-family="Helvetica,sans-Serif" font-size="10.00">&#45; _subScreen</text>
<text text-anchor="start" x="253.2" y="-147.5" font-family="Helvetica,sans-Serif" font-size="10.00">&#45; _screen</text>
<text text-anchor="start" x="253.2" y="-136.5" font-family="Helvetica,sans-Serif" font-size="10.00">&#45; _vramReadBuffer</text>
<polyline fill="none" stroke="black" points="245.2,-129.5 379.2,-129.5 "/>
<text text-anchor="start" x="253.2" y="-117.5" font-family="Helvetica,sans-Serif" font-size="10.00">+ PPU()</text>
<text text-anchor="start" x="253.2" y="-106.5" font-family="Helvetica,sans-Serif" font-size="10.00">+ PPU()</text>
<text text-anchor="start" x="253.2" y="-95.5" font-family="Helvetica,sans-Serif" font-size="10.00">+ ~PPU()</text>
<text text-anchor="start" x="253.2" y="-84.5" font-family="Helvetica,sans-Serif" font-size="10.00">+ operator=()</text>
<text text-anchor="start" x="253.2" y="-73.5" font-family="Helvetica,sans-Serif" font-size="10.00">+ read()</text>
<text text-anchor="start" x="253.2" y="-62.5" font-family="Helvetica,sans-Serif" font-size="10.00">+ write()</text>
<text text-anchor="start" x="253.2" y="-51.5" font-family="Helvetica,sans-Serif" font-size="10.00">+ getName()</text>
<text text-anchor="start" x="253.2" y="-40.5" font-family="Helvetica,sans-Serif" font-size="10.00">+ getComponent()</text>
<text text-anchor="start" x="253.2" y="-29.5" font-family="Helvetica,sans-Serif" font-size="10.00">+ getSize()</text>
<text text-anchor="start" x="253.2" y="-18.5" font-family="Helvetica,sans-Serif" font-size="10.00">+ update()</text>
<text text-anchor="start" x="253.2" y="-7.5" font-family="Helvetica,sans-Serif" font-size="10.00">and 14 more...</text>
</a>
</g>
</g>
<!-- Node1&#45;&gt;Node9 -->
<g id="edge14" class="edge">
<title>Node1&#45;&gt;Node9</title>
<path fill="none" stroke="#404040" d="M287.3,-270.23C288.28,-264.08 289.24,-257.99 290.2,-252 291.1,-246.32 292.02,-240.51 292.95,-234.64"/>
<polygon fill="none" stroke="#404040" points="292.99,-234.39 289.98,-227.84 294.87,-222.54 297.88,-229.09 292.99,-234.39"/>
<text text-anchor="middle" x="328.7" y="-244" font-family="Helvetica,sans-Serif" font-size="10.00"> &#45;_backgrounds</text>
</g>
<!-- Node2 -->
<g id="node2" class="node">
<title>Node2</title>
<g id="a_node2"><a xlink:href="classComSquare_1_1PPU_1_1TileRenderer.html" target="_top" xlink:title=" ">
<polygon fill="white" stroke="black" points="468.2,-705.5 468.2,-927.5 656.2,-927.5 656.2,-705.5 468.2,-705.5"/>
<text text-anchor="middle" x="562.2" y="-915.5" font-family="Helvetica,sans-Serif" font-size="10.00">ComSquare::PPU::TileRenderer</text>
<polyline fill="none" stroke="black" points="468.2,-908.5 656.2,-908.5 "/>
<text text-anchor="start" x="476.2" y="-896.5" font-family="Helvetica,sans-Serif" font-size="10.00">+ buffer</text>
<text text-anchor="start" x="476.2" y="-885.5" font-family="Helvetica,sans-Serif" font-size="10.00">&#45; _bpp</text>
<text text-anchor="start" x="476.2" y="-874.5" font-family="Helvetica,sans-Serif" font-size="10.00">&#45; _paletteIndex</text>
<text text-anchor="start" x="476.2" y="-863.5" font-family="Helvetica,sans-Serif" font-size="10.00">&#45; TileByteSizeRow</text>
<polyline fill="none" stroke="black" points="468.2,-856.5 656.2,-856.5 "/>
<text text-anchor="start" x="476.2" y="-844.5" font-family="Helvetica,sans-Serif" font-size="10.00">+ setPaletteIndex()</text>
<text text-anchor="start" x="476.2" y="-833.5" font-family="Helvetica,sans-Serif" font-size="10.00">+ setBpp()</text>
<text text-anchor="start" x="476.2" y="-822.5" font-family="Helvetica,sans-Serif" font-size="10.00">+ getBpp()</text>
<text text-anchor="start" x="476.2" y="-811.5" font-family="Helvetica,sans-Serif" font-size="10.00">+ getPaletteIndex()</text>
<text text-anchor="start" x="476.2" y="-800.5" font-family="Helvetica,sans-Serif" font-size="10.00">+ getPixelReferenceFromTile()</text>
<text text-anchor="start" x="476.2" y="-789.5" font-family="Helvetica,sans-Serif" font-size="10.00">+ getPixelReferenceFromTileRow()</text>
<text text-anchor="start" x="476.2" y="-778.5" font-family="Helvetica,sans-Serif" font-size="10.00">+ getPalette()</text>
<text text-anchor="start" x="476.2" y="-767.5" font-family="Helvetica,sans-Serif" font-size="10.00">+ read2BPPValue()</text>
<text text-anchor="start" x="476.2" y="-756.5" font-family="Helvetica,sans-Serif" font-size="10.00">+ render()</text>
<text text-anchor="start" x="476.2" y="-745.5" font-family="Helvetica,sans-Serif" font-size="10.00">+ TileRenderer()</text>
<text text-anchor="start" x="476.2" y="-734.5" font-family="Helvetica,sans-Serif" font-size="10.00">+ TileRenderer()</text>
<text text-anchor="start" x="476.2" y="-723.5" font-family="Helvetica,sans-Serif" font-size="10.00">+ ~TileRenderer()</text>
<text text-anchor="start" x="476.2" y="-712.5" font-family="Helvetica,sans-Serif" font-size="10.00">+ operator=()</text>
</a>
</g>
</g>
<!-- Node2&#45;&gt;Node1 -->
<g id="edge1" class="edge">
<title>Node2&#45;&gt;Node1</title>
<path fill="none" stroke="#404040" d="M517.63,-705.5C505.02,-685.66 489.36,-667.14 470.2,-654 425.71,-623.51 393.91,-667.59 350.2,-636 350.09,-635.92 349.98,-635.84 349.87,-635.77"/>
<polygon fill="none" stroke="#404040" points="349.6,-635.55 342.41,-634.93 340.22,-628.06 347.41,-628.68 349.6,-635.55"/>
<text text-anchor="middle" x="538.7" y="-668" font-family="Helvetica,sans-Serif" font-size="10.00"> &#45;_tileRenderer</text>
</g>
<!-- Node3 -->
<g id="node3" class="node">
<title>Node3</title>
<g id="a_node3"><a xlink:href="classComSquare_1_1Ram_1_1Ram.html" target="_top" xlink:title=" ">
<polygon fill="white" stroke="black" points="454.2,-986.5 454.2,-1208.5 584.2,-1208.5 584.2,-986.5 454.2,-986.5"/>
<text text-anchor="middle" x="519.2" y="-1196.5" font-family="Helvetica,sans-Serif" font-size="10.00">ComSquare::Ram::Ram</text>
<polyline fill="none" stroke="black" points="454.2,-1189.5 584.2,-1189.5 "/>
<text text-anchor="start" x="462.2" y="-1177.5" font-family="Helvetica,sans-Serif" font-size="10.00"># _data</text>
<text text-anchor="start" x="462.2" y="-1166.5" font-family="Helvetica,sans-Serif" font-size="10.00"># _ramType</text>
<text text-anchor="start" x="462.2" y="-1155.5" font-family="Helvetica,sans-Serif" font-size="10.00"># _ramName</text>
<polyline fill="none" stroke="black" points="454.2,-1148.5 584.2,-1148.5 "/>
<text text-anchor="start" x="462.2" y="-1136.5" font-family="Helvetica,sans-Serif" font-size="10.00">+ Ram()</text>
<text text-anchor="start" x="462.2" y="-1125.5" font-family="Helvetica,sans-Serif" font-size="10.00">+ Ram()</text>
<text text-anchor="start" x="462.2" y="-1114.5" font-family="Helvetica,sans-Serif" font-size="10.00">+ operator=()</text>
<text text-anchor="start" x="462.2" y="-1103.5" font-family="Helvetica,sans-Serif" font-size="10.00">+ ~Ram()</text>
<text text-anchor="start" x="462.2" y="-1092.5" font-family="Helvetica,sans-Serif" font-size="10.00">+ read()</text>
<text text-anchor="start" x="462.2" y="-1081.5" font-family="Helvetica,sans-Serif" font-size="10.00">+ write()</text>
<text text-anchor="start" x="462.2" y="-1070.5" font-family="Helvetica,sans-Serif" font-size="10.00">+ operator[]()</text>
<text text-anchor="start" x="462.2" y="-1059.5" font-family="Helvetica,sans-Serif" font-size="10.00">+ operator[]()</text>
<text text-anchor="start" x="462.2" y="-1048.5" font-family="Helvetica,sans-Serif" font-size="10.00">+ getName()</text>
<text text-anchor="start" x="462.2" y="-1037.5" font-family="Helvetica,sans-Serif" font-size="10.00">+ getComponent()</text>
<text text-anchor="start" x="462.2" y="-1026.5" font-family="Helvetica,sans-Serif" font-size="10.00">+ getSize()</text>
<text text-anchor="start" x="462.2" y="-1015.5" font-family="Helvetica,sans-Serif" font-size="10.00">+ setSize()</text>
<text text-anchor="start" x="462.2" y="-1004.5" font-family="Helvetica,sans-Serif" font-size="10.00">+ getData()</text>
<text text-anchor="start" x="462.2" y="-993.5" font-family="Helvetica,sans-Serif" font-size="10.00">+ getData()</text>
</a>
</g>
</g>
<!-- Node3&#45;&gt;Node1 -->
<g id="edge5" class="edge">
<title>Node3&#45;&gt;Node1</title>
<path fill="none" stroke="#404040" d="M584.52,-1041.96C615.32,-1011.93 648.83,-971.88 665.2,-928 699.83,-835.14 714.25,-791.12 665.2,-705 643.2,-666.39 621.56,-667.42 579.2,-654 530.53,-638.58 392.59,-664.43 350.2,-636 350.09,-635.93 349.98,-635.86 349.88,-635.79"/>
<polygon fill="none" stroke="#404040" points="350.02,-635.9 342.82,-635.52 340.4,-628.73 347.6,-629.1 350.02,-635.9"/>
<text text-anchor="middle" x="716.2" y="-819.5" font-family="Helvetica,sans-Serif" font-size="10.00"> &#45;_vram</text>
<text text-anchor="middle" x="716.2" y="-808.5" font-family="Helvetica,sans-Serif" font-size="10.00">&#45;_cgram</text>
</g>
<!-- Node3&#45;&gt;Node2 -->
<g id="edge2" class="edge">
<title>Node3&#45;&gt;Node2</title>
<path fill="none" stroke="#404040" d="M536.19,-986.23C538.52,-971.09 540.93,-955.46 543.3,-940.12"/>
<polygon fill="none" stroke="#404040" points="543.36,-939.74 540.32,-933.2 545.18,-927.88 548.22,-934.42 543.36,-939.74"/>
<text text-anchor="middle" x="561.2" y="-960" font-family="Helvetica,sans-Serif" font-size="10.00"> &#45;_ram</text>
<text text-anchor="middle" x="561.2" y="-949" font-family="Helvetica,sans-Serif" font-size="10.00">&#45;_cgram</text>
</g>
<!-- Node3&#45;&gt;Node9 -->
<g id="edge12" class="edge">
<title>Node3&#45;&gt;Node9</title>
<path fill="none" stroke="#404040" d="M454.04,-1094.72C349.78,-1087.94 147.99,-1057.76 57.2,-928 -39.76,-789.43 143.07,-314.6 167.2,-270 184.99,-237.11 211.2,-205.74 236.46,-179.78"/>
<polygon fill="none" stroke="#404040" points="236.53,-179.71 237.91,-172.63 244.97,-171.19 243.59,-178.26 236.53,-179.71"/>
<text text-anchor="middle" x="71.2" y="-679" font-family="Helvetica,sans-Serif" font-size="10.00"> +vram</text>
<text text-anchor="middle" x="71.2" y="-668" font-family="Helvetica,sans-Serif" font-size="10.00">+oamram</text>
<text text-anchor="middle" x="71.2" y="-657" font-family="Helvetica,sans-Serif" font-size="10.00">+cgram</text>
</g>
<!-- Node4 -->
<g id="node4" class="node">
<title>Node4</title>
<g id="a_node4"><a xlink:href="classComSquare_1_1Memory_1_1ARectangleMemory.html" target="_top" xlink:title="Base memory class to map non continuous rectangle to the memory. (A rectangle that spam across more t...">
<polygon fill="white" stroke="black" points="434.2,-1358.5 434.2,-1503.5 574.2,-1503.5 574.2,-1358.5 434.2,-1358.5"/>
<text text-anchor="start" x="442.2" y="-1491.5" font-family="Helvetica,sans-Serif" font-size="10.00">ComSquare::Memory::</text>
<text text-anchor="middle" x="504.2" y="-1480.5" font-family="Helvetica,sans-Serif" font-size="10.00">ARectangleMemory</text>
<polyline fill="none" stroke="black" points="434.2,-1473.5 574.2,-1473.5 "/>
<text text-anchor="start" x="442.2" y="-1461.5" font-family="Helvetica,sans-Serif" font-size="10.00"># _startBank</text>
<text text-anchor="start" x="442.2" y="-1450.5" font-family="Helvetica,sans-Serif" font-size="10.00"># _endBank</text>
<text text-anchor="start" x="442.2" y="-1439.5" font-family="Helvetica,sans-Serif" font-size="10.00"># _startPage</text>
<text text-anchor="start" x="442.2" y="-1428.5" font-family="Helvetica,sans-Serif" font-size="10.00"># _endPage</text>
<polyline fill="none" stroke="black" points="434.2,-1421.5 574.2,-1421.5 "/>
<text text-anchor="start" x="442.2" y="-1409.5" font-family="Helvetica,sans-Serif" font-size="10.00">+ getRelativeAddress()</text>
<text text-anchor="start" x="442.2" y="-1398.5" font-family="Helvetica,sans-Serif" font-size="10.00">+ hasMemoryAt()</text>
<text text-anchor="start" x="442.2" y="-1387.5" font-family="Helvetica,sans-Serif" font-size="10.00">+ setMemoryRegion()</text>
<text text-anchor="start" x="442.2" y="-1376.5" font-family="Helvetica,sans-Serif" font-size="10.00">+ getValueName()</text>
<text text-anchor="start" x="442.2" y="-1365.5" font-family="Helvetica,sans-Serif" font-size="10.00">+ ~ARectangleMemory()</text>
</a>
</g>
</g>
<!-- Node4&#45;&gt;Node3 -->
<g id="edge3" class="edge">
<title>Node4&#45;&gt;Node3</title>
<path fill="none" stroke="midnightblue" d="M507.89,-1348.28C509.8,-1306.19 512.15,-1254.28 514.21,-1208.71"/>
<polygon fill="none" stroke="midnightblue" points="504.39,-1348.33 507.43,-1358.48 511.38,-1348.65 504.39,-1348.33"/>
</g>
<!-- Node5 -->
<g id="node5" class="node">
<title>Node5</title>
<g id="a_node5"><a xlink:href="classComSquare_1_1Memory_1_1IMemory.html" target="_top" xlink:title="Common interface implemented by all components mapping memory.">
<polygon fill="white" stroke="black" points="294.7,-1541.5 294.7,-1697.5 425.7,-1697.5 425.7,-1541.5 294.7,-1541.5"/>
<text text-anchor="start" x="302.7" y="-1685.5" font-family="Helvetica,sans-Serif" font-size="10.00">ComSquare::Memory::</text>
<text text-anchor="middle" x="360.2" y="-1674.5" font-family="Helvetica,sans-Serif" font-size="10.00">IMemory</text>
<polyline fill="none" stroke="black" points="294.7,-1667.5 425.7,-1667.5 "/>
<text text-anchor="middle" x="360.2" y="-1655.5" font-family="Helvetica,sans-Serif" font-size="10.00"> </text>
<polyline fill="none" stroke="black" points="294.7,-1648.5 425.7,-1648.5 "/>
<text text-anchor="start" x="302.7" y="-1636.5" font-family="Helvetica,sans-Serif" font-size="10.00">+ read()</text>
<text text-anchor="start" x="302.7" y="-1625.5" font-family="Helvetica,sans-Serif" font-size="10.00">+ write()</text>
<text text-anchor="start" x="302.7" y="-1614.5" font-family="Helvetica,sans-Serif" font-size="10.00">+ hasMemoryAt()</text>
<text text-anchor="start" x="302.7" y="-1603.5" font-family="Helvetica,sans-Serif" font-size="10.00">+ getRelativeAddress()</text>
<text text-anchor="start" x="302.7" y="-1592.5" font-family="Helvetica,sans-Serif" font-size="10.00">+ getSize()</text>
<text text-anchor="start" x="302.7" y="-1581.5" font-family="Helvetica,sans-Serif" font-size="10.00">+ getName()</text>
<text text-anchor="start" x="302.7" y="-1570.5" font-family="Helvetica,sans-Serif" font-size="10.00">+ getComponent()</text>
<text text-anchor="start" x="302.7" y="-1559.5" font-family="Helvetica,sans-Serif" font-size="10.00">+ getValueName()</text>
<text text-anchor="start" x="302.7" y="-1548.5" font-family="Helvetica,sans-Serif" font-size="10.00">+ ~IMemory()</text>
</a>
</g>
</g>
<!-- Node5&#45;&gt;Node4 -->
<g id="edge4" class="edge">
<title>Node5&#45;&gt;Node4</title>
<path fill="none" stroke="midnightblue" d="M426.14,-1533.1C433.71,-1523.29 441.37,-1513.36 448.79,-1503.76"/>
<polygon fill="none" stroke="midnightblue" points="423.15,-1531.24 419.81,-1541.3 428.69,-1535.52 423.15,-1531.24"/>
</g>
<!-- Node10 -->
<g id="node10" class="node">
<title>Node10</title>
<g id="a_node10"><a xlink:href="classComSquare_1_1Memory_1_1AMemory.html" target="_top" xlink:title="Abstract class representing a continuous block of memory.">
<polygon fill="white" stroke="black" points="166.7,-1227.5 166.7,-1339.5 297.7,-1339.5 297.7,-1227.5 166.7,-1227.5"/>
<text text-anchor="start" x="174.7" y="-1327.5" font-family="Helvetica,sans-Serif" font-size="10.00">ComSquare::Memory::</text>
<text text-anchor="middle" x="232.2" y="-1316.5" font-family="Helvetica,sans-Serif" font-size="10.00">AMemory</text>
<polyline fill="none" stroke="black" points="166.7,-1309.5 297.7,-1309.5 "/>
<text text-anchor="start" x="174.7" y="-1297.5" font-family="Helvetica,sans-Serif" font-size="10.00"># _start</text>
<text text-anchor="start" x="174.7" y="-1286.5" font-family="Helvetica,sans-Serif" font-size="10.00"># _end</text>
<polyline fill="none" stroke="black" points="166.7,-1279.5 297.7,-1279.5 "/>
<text text-anchor="start" x="174.7" y="-1267.5" font-family="Helvetica,sans-Serif" font-size="10.00">+ getRelativeAddress()</text>
<text text-anchor="start" x="174.7" y="-1256.5" font-family="Helvetica,sans-Serif" font-size="10.00">+ setMemoryRegion()</text>
<text text-anchor="start" x="174.7" y="-1245.5" font-family="Helvetica,sans-Serif" font-size="10.00">+ hasMemoryAt()</text>
<text text-anchor="start" x="174.7" y="-1234.5" font-family="Helvetica,sans-Serif" font-size="10.00">+ ~AMemory()</text>
</a>
</g>
</g>
<!-- Node5&#45;&gt;Node10 -->
<g id="edge11" class="edge">
<title>Node5&#45;&gt;Node10</title>
<path fill="none" stroke="midnightblue" d="M327,-1531.87C303.72,-1471.14 273.31,-1391.78 253.29,-1339.54"/>
<polygon fill="none" stroke="midnightblue" points="323.82,-1533.37 330.67,-1541.45 330.36,-1530.86 323.82,-1533.37"/>
</g>
<!-- Node6 -->
<g id="node6" class="node">
<title>Node6</title>
<g id="a_node6"><a xlink:href="classComSquare_1_1Vector2.html" target="_top" xlink:title=" ">
<polygon fill="white" stroke="black" points="66.2,-705.5 66.2,-927.5 182.2,-927.5 182.2,-705.5 66.2,-705.5"/>
<text text-anchor="start" x="74.2" y="-915.5" font-family="Helvetica,sans-Serif" font-size="10.00">ComSquare::Vector2</text>
<text text-anchor="middle" x="124.2" y="-904.5" font-family="Helvetica,sans-Serif" font-size="10.00">&lt; unsigned &gt;</text>
<polyline fill="none" stroke="black" points="66.2,-897.5 182.2,-897.5 "/>
<text text-anchor="start" x="74.2" y="-885.5" font-family="Helvetica,sans-Serif" font-size="10.00">+ x</text>
<text text-anchor="start" x="74.2" y="-874.5" font-family="Helvetica,sans-Serif" font-size="10.00">+ y</text>
<polyline fill="none" stroke="black" points="66.2,-867.5 182.2,-867.5 "/>
<text text-anchor="start" x="74.2" y="-855.5" font-family="Helvetica,sans-Serif" font-size="10.00">+ Vector2()</text>
<text text-anchor="start" x="74.2" y="-844.5" font-family="Helvetica,sans-Serif" font-size="10.00">+ Vector2()</text>
<text text-anchor="start" x="74.2" y="-833.5" font-family="Helvetica,sans-Serif" font-size="10.00">+ Vector2()</text>
<text text-anchor="start" x="74.2" y="-822.5" font-family="Helvetica,sans-Serif" font-size="10.00">+ operator+=()</text>
<text text-anchor="start" x="74.2" y="-811.5" font-family="Helvetica,sans-Serif" font-size="10.00">+ operator+()</text>
<text text-anchor="start" x="74.2" y="-800.5" font-family="Helvetica,sans-Serif" font-size="10.00">+ operator&#45;=()</text>
<text text-anchor="start" x="74.2" y="-789.5" font-family="Helvetica,sans-Serif" font-size="10.00">+ operator&#45;()</text>
<text text-anchor="start" x="74.2" y="-778.5" font-family="Helvetica,sans-Serif" font-size="10.00">+ operator*=()</text>
<text text-anchor="start" x="74.2" y="-767.5" font-family="Helvetica,sans-Serif" font-size="10.00">+ operator*()</text>
<text text-anchor="start" x="74.2" y="-756.5" font-family="Helvetica,sans-Serif" font-size="10.00">+ operator*()</text>
<text text-anchor="start" x="74.2" y="-745.5" font-family="Helvetica,sans-Serif" font-size="10.00">+ operator/=()</text>
<text text-anchor="start" x="74.2" y="-734.5" font-family="Helvetica,sans-Serif" font-size="10.00">+ operator/=()</text>
<text text-anchor="start" x="74.2" y="-723.5" font-family="Helvetica,sans-Serif" font-size="10.00">+ operator/()</text>
<text text-anchor="start" x="74.2" y="-712.5" font-family="Helvetica,sans-Serif" font-size="10.00">+ operator/()</text>
</a>
</g>
</g>
<!-- Node6&#45;&gt;Node1 -->
<g id="edge6" class="edge">
<title>Node6&#45;&gt;Node1</title>
<path fill="none" stroke="#404040" d="M149.26,-705.21C154.03,-687.91 159.38,-670.35 165.2,-654 167.27,-648.17 169.45,-642.29 171.72,-636.37"/>
<polygon fill="none" stroke="#404040" points="171.81,-636.14 170.27,-629.09 176.18,-624.96 177.72,-632.01 171.81,-636.14"/>
<text text-anchor="middle" x="209.7" y="-668" font-family="Helvetica,sans-Serif" font-size="10.00"> +backgroundSize</text>
</g>
<!-- Node7 -->
<g id="node7" class="node">
<title>Node7</title>
<g id="a_node7"><a xlink:href="classComSquare_1_1Vector2.html" target="_top" xlink:title=" ">
<polygon fill="white" stroke="black" points="200.2,-705.5 200.2,-927.5 316.2,-927.5 316.2,-705.5 200.2,-705.5"/>
<text text-anchor="start" x="208.2" y="-915.5" font-family="Helvetica,sans-Serif" font-size="10.00">ComSquare::Vector2</text>
<text text-anchor="middle" x="258.2" y="-904.5" font-family="Helvetica,sans-Serif" font-size="10.00">&lt; int &gt;</text>
<polyline fill="none" stroke="black" points="200.2,-897.5 316.2,-897.5 "/>
<text text-anchor="start" x="208.2" y="-885.5" font-family="Helvetica,sans-Serif" font-size="10.00">+ x</text>
<text text-anchor="start" x="208.2" y="-874.5" font-family="Helvetica,sans-Serif" font-size="10.00">+ y</text>
<polyline fill="none" stroke="black" points="200.2,-867.5 316.2,-867.5 "/>
<text text-anchor="start" x="208.2" y="-855.5" font-family="Helvetica,sans-Serif" font-size="10.00">+ Vector2()</text>
<text text-anchor="start" x="208.2" y="-844.5" font-family="Helvetica,sans-Serif" font-size="10.00">+ Vector2()</text>
<text text-anchor="start" x="208.2" y="-833.5" font-family="Helvetica,sans-Serif" font-size="10.00">+ Vector2()</text>
<text text-anchor="start" x="208.2" y="-822.5" font-family="Helvetica,sans-Serif" font-size="10.00">+ operator+=()</text>
<text text-anchor="start" x="208.2" y="-811.5" font-family="Helvetica,sans-Serif" font-size="10.00">+ operator+()</text>
<text text-anchor="start" x="208.2" y="-800.5" font-family="Helvetica,sans-Serif" font-size="10.00">+ operator&#45;=()</text>
<text text-anchor="start" x="208.2" y="-789.5" font-family="Helvetica,sans-Serif" font-size="10.00">+ operator&#45;()</text>
<text text-anchor="start" x="208.2" y="-778.5" font-family="Helvetica,sans-Serif" font-size="10.00">+ operator*=()</text>
<text text-anchor="start" x="208.2" y="-767.5" font-family="Helvetica,sans-Serif" font-size="10.00">+ operator*()</text>
<text text-anchor="start" x="208.2" y="-756.5" font-family="Helvetica,sans-Serif" font-size="10.00">+ operator*()</text>
<text text-anchor="start" x="208.2" y="-745.5" font-family="Helvetica,sans-Serif" font-size="10.00">+ operator/=()</text>
<text text-anchor="start" x="208.2" y="-734.5" font-family="Helvetica,sans-Serif" font-size="10.00">+ operator/=()</text>
<text text-anchor="start" x="208.2" y="-723.5" font-family="Helvetica,sans-Serif" font-size="10.00">+ operator/()</text>
<text text-anchor="start" x="208.2" y="-712.5" font-family="Helvetica,sans-Serif" font-size="10.00">+ operator/()</text>
</a>
</g>
</g>
<!-- Node7&#45;&gt;Node1 -->
<g id="edge7" class="edge">
<title>Node7&#45;&gt;Node1</title>
<path fill="none" stroke="#404040" d="M258.2,-705.07C258.2,-686.85 258.2,-667.49 258.2,-647.93"/>
<polygon fill="none" stroke="#404040" points="258.2,-647.73 254.2,-641.73 258.2,-635.73 262.2,-641.73 258.2,-647.73"/>
<text text-anchor="middle" x="308.2" y="-668" font-family="Helvetica,sans-Serif" font-size="10.00"> &#45;_characterNbPixels</text>
</g>
<!-- Node8 -->
<g id="node8" class="node">
<title>Node8</title>
<g id="a_node8"><a xlink:href="classComSquare_1_1Vector2.html" target="_top" xlink:title=" ">
<polygon fill="white" stroke="black" points="334.2,-705.5 334.2,-927.5 450.2,-927.5 450.2,-705.5 334.2,-705.5"/>
<text text-anchor="start" x="342.2" y="-915.5" font-family="Helvetica,sans-Serif" font-size="10.00">ComSquare::Vector2</text>
<text text-anchor="middle" x="392.2" y="-904.5" font-family="Helvetica,sans-Serif" font-size="10.00">&lt; bool &gt;</text>
<polyline fill="none" stroke="black" points="334.2,-897.5 450.2,-897.5 "/>
<text text-anchor="start" x="342.2" y="-885.5" font-family="Helvetica,sans-Serif" font-size="10.00">+ x</text>
<text text-anchor="start" x="342.2" y="-874.5" font-family="Helvetica,sans-Serif" font-size="10.00">+ y</text>
<polyline fill="none" stroke="black" points="334.2,-867.5 450.2,-867.5 "/>
<text text-anchor="start" x="342.2" y="-855.5" font-family="Helvetica,sans-Serif" font-size="10.00">+ Vector2()</text>
<text text-anchor="start" x="342.2" y="-844.5" font-family="Helvetica,sans-Serif" font-size="10.00">+ Vector2()</text>
<text text-anchor="start" x="342.2" y="-833.5" font-family="Helvetica,sans-Serif" font-size="10.00">+ Vector2()</text>
<text text-anchor="start" x="342.2" y="-822.5" font-family="Helvetica,sans-Serif" font-size="10.00">+ operator+=()</text>
<text text-anchor="start" x="342.2" y="-811.5" font-family="Helvetica,sans-Serif" font-size="10.00">+ operator+()</text>
<text text-anchor="start" x="342.2" y="-800.5" font-family="Helvetica,sans-Serif" font-size="10.00">+ operator&#45;=()</text>
<text text-anchor="start" x="342.2" y="-789.5" font-family="Helvetica,sans-Serif" font-size="10.00">+ operator&#45;()</text>
<text text-anchor="start" x="342.2" y="-778.5" font-family="Helvetica,sans-Serif" font-size="10.00">+ operator*=()</text>
<text text-anchor="start" x="342.2" y="-767.5" font-family="Helvetica,sans-Serif" font-size="10.00">+ operator*()</text>
<text text-anchor="start" x="342.2" y="-756.5" font-family="Helvetica,sans-Serif" font-size="10.00">+ operator*()</text>
<text text-anchor="start" x="342.2" y="-745.5" font-family="Helvetica,sans-Serif" font-size="10.00">+ operator/=()</text>
<text text-anchor="start" x="342.2" y="-734.5" font-family="Helvetica,sans-Serif" font-size="10.00">+ operator/=()</text>
<text text-anchor="start" x="342.2" y="-723.5" font-family="Helvetica,sans-Serif" font-size="10.00">+ operator/()</text>
<text text-anchor="start" x="342.2" y="-712.5" font-family="Helvetica,sans-Serif" font-size="10.00">+ operator/()</text>
</a>
</g>
</g>
<!-- Node8&#45;&gt;Node1 -->
<g id="edge8" class="edge">
<title>Node8&#45;&gt;Node1</title>
<path fill="none" stroke="#404040" d="M377.89,-705.19C373.87,-687.72 368.74,-670.12 362.2,-654 358.58,-645.09 355.04,-644.31 350.2,-636 348.91,-633.79 347.62,-631.56 346.33,-629.31"/>
<polygon fill="none" stroke="#404040" points="346.22,-629.12 339.78,-625.87 340.3,-618.68 346.74,-621.93 346.22,-629.12"/>
<text text-anchor="middle" x="419.2" y="-668" font-family="Helvetica,sans-Serif" font-size="10.00"> &#45;_tileMapMirroring</text>
</g>
<!-- Node9&#45;&gt;Node1 -->
<g id="edge9" class="edge">
<title>Node9&#45;&gt;Node1</title>
<path fill="none" stroke="#404040" d="M263.61,-222.75C261.9,-228.86 260.41,-234.97 259.2,-241 258.06,-246.65 257.06,-252.4 256.19,-258.23"/>
<polygon fill="none" stroke="#404040" points="256.17,-258.37 259.33,-264.85 254.56,-270.26 251.4,-263.78 256.17,-258.37"/>
<text text-anchor="middle" x="274.7" y="-244" font-family="Helvetica,sans-Serif" font-size="10.00"> &#45;_ppu</text>
</g>
<!-- Node10&#45;&gt;Node9 -->
<g id="edge10" class="edge">
<title>Node10&#45;&gt;Node9</title>
<path fill="none" stroke="midnightblue" d="M158.89,-1226.66C90.91,-1167.96 0.2,-1068.86 0.2,-958 0.2,-958 0.2,-958 0.2,-452 0.2,-368.46 -2.94,-336.83 47.2,-270 97.22,-203.32 184.46,-159.48 245.12,-135.37"/>
<polygon fill="none" stroke="midnightblue" points="156.76,-1229.44 166.64,-1233.27 161.3,-1224.12 156.76,-1229.44"/>
</g>
<!-- Node11 -->
<g id="node11" class="node">
<title>Node11</title>
<g id="a_node11"><a xlink:href="classComSquare_1_1Renderer_1_1IRenderer.html" target="_top" xlink:title=" ">
<polygon fill="white" stroke="black" points="358.7,-397 358.7,-509 481.7,-509 481.7,-397 358.7,-397"/>
<text text-anchor="start" x="366.7" y="-497" font-family="Helvetica,sans-Serif" font-size="10.00">ComSquare::Renderer</text>
<text text-anchor="middle" x="420.2" y="-486" font-family="Helvetica,sans-Serif" font-size="10.00">::IRenderer</text>
<polyline fill="none" stroke="black" points="358.7,-479 481.7,-479 "/>
<text text-anchor="middle" x="420.2" y="-467" font-family="Helvetica,sans-Serif" font-size="10.00"> </text>
<polyline fill="none" stroke="black" points="358.7,-460 481.7,-460 "/>
<text text-anchor="start" x="366.7" y="-448" font-family="Helvetica,sans-Serif" font-size="10.00">+ setWindowName()</text>
<text text-anchor="start" x="366.7" y="-437" font-family="Helvetica,sans-Serif" font-size="10.00">+ drawScreen()</text>
<text text-anchor="start" x="366.7" y="-426" font-family="Helvetica,sans-Serif" font-size="10.00">+ putPixel()</text>
<text text-anchor="start" x="366.7" y="-415" font-family="Helvetica,sans-Serif" font-size="10.00">+ createWindow()</text>
<text text-anchor="start" x="366.7" y="-404" font-family="Helvetica,sans-Serif" font-size="10.00">+ playAudio()</text>
</a>
</g>
</g>
<!-- Node11&#45;&gt;Node9 -->
<g id="edge13" class="edge">
<title>Node11&#45;&gt;Node9</title>
<path fill="none" stroke="#404040" d="M410.16,-396.98C401.6,-353.92 387.86,-292.85 370.2,-241 369.43,-238.74 368.63,-236.47 367.81,-234.18"/>
<polygon fill="none" stroke="#404040" points="367.73,-233.96 361.89,-229.72 363.55,-222.71 369.39,-226.94 367.73,-233.96"/>
<text text-anchor="middle" x="398.2" y="-244" font-family="Helvetica,sans-Serif" font-size="10.00"> &#45;_renderer</text>
</g>
<!-- Node12 -->
<g id="node12" class="node">
<title>Node12</title>
<g id="a_node12"><a xlink:href="structComSquare_1_1PPU_1_1Registers.html" target="_top" xlink:title=" ">
<polygon fill="white" stroke="black" points="500.2,-369.5 500.2,-536.5 650.2,-536.5 650.2,-369.5 500.2,-369.5"/>
<text text-anchor="middle" x="575.2" y="-524.5" font-family="Helvetica,sans-Serif" font-size="10.00">ComSquare::PPU::Registers</text>
<polyline fill="none" stroke="black" points="500.2,-517.5 650.2,-517.5 "/>
<text text-anchor="start" x="508.2" y="-505.5" font-family="Helvetica,sans-Serif" font-size="10.00">+ brightness</text>
<text text-anchor="start" x="508.2" y="-494.5" font-family="Helvetica,sans-Serif" font-size="10.00">+ _</text>
<text text-anchor="start" x="508.2" y="-483.5" font-family="Helvetica,sans-Serif" font-size="10.00">+ fblank</text>
<text text-anchor="start" x="508.2" y="-472.5" font-family="Helvetica,sans-Serif" font-size="10.00">+ raw</text>
<text text-anchor="start" x="508.2" y="-461.5" font-family="Helvetica,sans-Serif" font-size="10.00">+ _inidisp</text>
<text text-anchor="start" x="508.2" y="-450.5" font-family="Helvetica,sans-Serif" font-size="10.00">+ nameBaseSelect</text>
<text text-anchor="start" x="508.2" y="-439.5" font-family="Helvetica,sans-Serif" font-size="10.00">+ nameSelect</text>
<text text-anchor="start" x="508.2" y="-428.5" font-family="Helvetica,sans-Serif" font-size="10.00">+ objectSize</text>
<text text-anchor="start" x="508.2" y="-417.5" font-family="Helvetica,sans-Serif" font-size="10.00">+ _obsel</text>
<text text-anchor="start" x="508.2" y="-406.5" font-family="Helvetica,sans-Serif" font-size="10.00">+ oamAddress</text>
<text text-anchor="start" x="508.2" y="-395.5" font-family="Helvetica,sans-Serif" font-size="10.00">and 144 more...</text>
<polyline fill="none" stroke="black" points="500.2,-388.5 650.2,-388.5 "/>
<text text-anchor="middle" x="575.2" y="-376.5" font-family="Helvetica,sans-Serif" font-size="10.00"> </text>
</a>
</g>
</g>
<!-- Node12&#45;&gt;Node9 -->
<g id="edge15" class="edge">
<title>Node12&#45;&gt;Node9</title>
<path fill="none" stroke="#404040" d="M545.58,-369.14C531.78,-336.54 513.46,-299.85 491.2,-270 462.58,-231.63 423.3,-195.79 388.82,-168.02"/>
<polygon fill="none" stroke="#404040" points="388.63,-167.88 381.45,-167.28 379.24,-160.41 386.42,-161.01 388.63,-167.88"/>
<text text-anchor="middle" x="501.7" y="-244" font-family="Helvetica,sans-Serif" font-size="10.00"> &#45;_registers</text>
</g>
<!-- Node13 -->
<g id="node13" class="node">
<title>Node13</title>
<g id="a_node13"><a xlink:href="structComSquare_1_1PPU_1_1Utils_1_1PpuState.html" target="_top" xlink:title="Struct to save all specific variables needed for the registers (prev values for example)">
<polygon fill="white" stroke="black" points="667.7,-413.5 667.7,-492.5 816.7,-492.5 816.7,-413.5 667.7,-413.5"/>
<text text-anchor="start" x="675.7" y="-480.5" font-family="Helvetica,sans-Serif" font-size="10.00">ComSquare::PPU::Utils</text>
<text text-anchor="middle" x="742.2" y="-469.5" font-family="Helvetica,sans-Serif" font-size="10.00">::PpuState</text>
<polyline fill="none" stroke="black" points="667.7,-462.5 816.7,-462.5 "/>
<text text-anchor="start" x="675.7" y="-450.5" font-family="Helvetica,sans-Serif" font-size="10.00">+ hvSharedScrollPrevValue</text>
<text text-anchor="start" x="675.7" y="-439.5" font-family="Helvetica,sans-Serif" font-size="10.00">+ hScrollPrevValue</text>
<polyline fill="none" stroke="black" points="667.7,-432.5 816.7,-432.5 "/>
<text text-anchor="middle" x="742.2" y="-420.5" font-family="Helvetica,sans-Serif" font-size="10.00"> </text>
</a>
</g>
</g>
<!-- Node13&#45;&gt;Node9 -->
<g id="edge16" class="edge">
<title>Node13&#45;&gt;Node9</title>
<path fill="none" stroke="#404040" d="M733.15,-413.23C721.95,-372.84 699.26,-309.99 659.2,-270 584.64,-195.58 468.58,-152.8 391.5,-131.1"/>
<polygon fill="none" stroke="#404040" points="391.04,-130.97 384.2,-133.24 379.47,-127.79 386.32,-125.53 391.04,-130.97"/>
<text text-anchor="middle" x="664.2" y="-244" font-family="Helvetica,sans-Serif" font-size="10.00"> &#45;_ppuState</text>
</g>
</g>
</svg>
