<?xml version="1.0" encoding="UTF-8" standalone="no"?>
<!DOCTYPE svg PUBLIC "-//W3C//DTD SVG 1.1//EN"
 "http://www.w3.org/Graphics/SVG/1.1/DTD/svg11.dtd">
<!-- Generated by graphviz version 2.43.0 (0)
 -->
<!-- Title: ComSquare::APU::DSP::DSP Pages: 1 -->
<svg width="1343pt" height="1280pt"
 viewBox="0.00 0.00 1343.00 1280.00" xmlns="http://www.w3.org/2000/svg" xmlns:xlink="http://www.w3.org/1999/xlink">
<g id="graph0" class="graph" transform="scale(1 1) rotate(0) translate(4 1276)">
<title>ComSquare::APU::DSP::DSP</title>
<polygon fill="white" stroke="transparent" points="-4,4 -4,-1276 1339,-1276 1339,4 -4,4"/>
<!-- Node1 -->
<g id="node1" class="node">
<title>Node1</title>
<g id="a_node1"><a xlink:title=" ">
<polygon fill="#bfbfbf" stroke="black" points="578.5,-0.5 578.5,-332.5 728.5,-332.5 728.5,-0.5 578.5,-0.5"/>
<text text-anchor="middle" x="653.5" y="-320.5" font-family="Helvetica,sans-Serif" font-size="10.00">ComSquare::APU::DSP::DSP</text>
<polyline fill="none" stroke="black" points="578.5,-313.5 728.5,-313.5 "/>
<text text-anchor="start" x="586.5" y="-301.5" font-family="Helvetica,sans-Serif" font-size="10.00">&#45; _rateModulus</text>
<text text-anchor="start" x="586.5" y="-290.5" font-family="Helvetica,sans-Serif" font-size="10.00">&#45; _counterOffset</text>
<text text-anchor="start" x="586.5" y="-279.5" font-family="Helvetica,sans-Serif" font-size="10.00">&#45; _gauss</text>
<text text-anchor="start" x="586.5" y="-268.5" font-family="Helvetica,sans-Serif" font-size="10.00">&#45; _soundBuffer</text>
<text text-anchor="start" x="586.5" y="-257.5" font-family="Helvetica,sans-Serif" font-size="10.00">&#45; _voices</text>
<polyline fill="none" stroke="black" points="578.5,-250.5 728.5,-250.5 "/>
<text text-anchor="start" x="586.5" y="-238.5" font-family="Helvetica,sans-Serif" font-size="10.00">+ DSP()</text>
<text text-anchor="start" x="586.5" y="-227.5" font-family="Helvetica,sans-Serif" font-size="10.00">+ DSP()</text>
<text text-anchor="start" x="586.5" y="-216.5" font-family="Helvetica,sans-Serif" font-size="10.00">+ operator=()</text>
<text text-anchor="start" x="586.5" y="-205.5" font-family="Helvetica,sans-Serif" font-size="10.00">+ ~DSP()</text>
<text text-anchor="start" x="586.5" y="-194.5" font-family="Helvetica,sans-Serif" font-size="10.00">+ getVoices()</text>
<text text-anchor="start" x="586.5" y="-183.5" font-family="Helvetica,sans-Serif" font-size="10.00">+ getMaster()</text>
<text text-anchor="start" x="586.5" y="-172.5" font-family="Helvetica,sans-Serif" font-size="10.00">+ getEcho()</text>
<text text-anchor="start" x="586.5" y="-161.5" font-family="Helvetica,sans-Serif" font-size="10.00">+ getNoise()</text>
<text text-anchor="start" x="586.5" y="-150.5" font-family="Helvetica,sans-Serif" font-size="10.00">+ getBrr()</text>
<text text-anchor="start" x="586.5" y="-139.5" font-family="Helvetica,sans-Serif" font-size="10.00">+ getLatch()</text>
<text text-anchor="start" x="586.5" y="-128.5" font-family="Helvetica,sans-Serif" font-size="10.00">and 7 more...</text>
<text text-anchor="start" x="586.5" y="-117.5" font-family="Helvetica,sans-Serif" font-size="10.00">&#45; voiceOutput()</text>
<text text-anchor="start" x="586.5" y="-106.5" font-family="Helvetica,sans-Serif" font-size="10.00">&#45; voice1()</text>
<text text-anchor="start" x="586.5" y="-95.5" font-family="Helvetica,sans-Serif" font-size="10.00">&#45; voice2()</text>
<text text-anchor="start" x="586.5" y="-84.5" font-family="Helvetica,sans-Serif" font-size="10.00">&#45; voice3()</text>
<text text-anchor="start" x="586.5" y="-73.5" font-family="Helvetica,sans-Serif" font-size="10.00">&#45; voice3a()</text>
<text text-anchor="start" x="586.5" y="-62.5" font-family="Helvetica,sans-Serif" font-size="10.00">&#45; voice3b()</text>
<text text-anchor="start" x="586.5" y="-51.5" font-family="Helvetica,sans-Serif" font-size="10.00">&#45; voice3c()</text>
<text text-anchor="start" x="586.5" y="-40.5" font-family="Helvetica,sans-Serif" font-size="10.00">&#45; voice4()</text>
<text text-anchor="start" x="586.5" y="-29.5" font-family="Helvetica,sans-Serif" font-size="10.00">&#45; voice5()</text>
<text text-anchor="start" x="586.5" y="-18.5" font-family="Helvetica,sans-Serif" font-size="10.00">&#45; voice6()</text>
<text text-anchor="start" x="586.5" y="-7.5" font-family="Helvetica,sans-Serif" font-size="10.00">and 27 more...</text>
</a>
</g>
</g>
<!-- Node2 -->
<g id="node2" class="node">
<title>Node2</title>
<g id="a_node2"><a xlink:href="structComSquare_1_1APU_1_1DSP_1_1Timer.html" target="_top" xlink:title=" ">
<polygon fill="white" stroke="black" points="0,-452 0,-531 125,-531 125,-452 0,-452"/>
<text text-anchor="start" x="8" y="-519" font-family="Helvetica,sans-Serif" font-size="10.00">ComSquare::APU::DSP</text>
<text text-anchor="middle" x="62.5" y="-508" font-family="Helvetica,sans-Serif" font-size="10.00">::Timer</text>
<polyline fill="none" stroke="black" points="0,-501 125,-501 "/>
<text text-anchor="start" x="8" y="-489" font-family="Helvetica,sans-Serif" font-size="10.00">+ counter</text>
<text text-anchor="start" x="8" y="-478" font-family="Helvetica,sans-Serif" font-size="10.00">+ sample</text>
<polyline fill="none" stroke="black" points="0,-471 125,-471 "/>
<text text-anchor="middle" x="62.5" y="-459" font-family="Helvetica,sans-Serif" font-size="10.00"> </text>
</a>
</g>
</g>
<!-- Node2&#45;&gt;Node1 -->
<g id="edge1" class="edge">
<title>Node2&#45;&gt;Node1</title>
<path fill="none" stroke="#404040" d="M79.77,-451.92C91.93,-428.46 110.18,-399.39 133.5,-380 263.54,-271.84 456.04,-212.7 566.69,-185.8"/>
<polygon fill="none" stroke="#404040" points="566.78,-185.78 571.69,-180.5 578.45,-182.99 573.55,-188.28 566.78,-185.78"/>
<text text-anchor="middle" x="189" y="-354" font-family="Helvetica,sans-Serif" font-size="10.00"> &#45;_timer</text>
</g>
<!-- Node3 -->
<g id="node3" class="node">
<title>Node3</title>
<g id="a_node3"><a xlink:href="structComSquare_1_1APU_1_1DSP_1_1State.html" target="_top" xlink:title="Current state of the DSP.">
<polygon fill="white" stroke="black" points="143,-441 143,-542 268,-542 268,-441 143,-441"/>
<text text-anchor="start" x="151" y="-530" font-family="Helvetica,sans-Serif" font-size="10.00">ComSquare::APU::DSP</text>
<text text-anchor="middle" x="205.5" y="-519" font-family="Helvetica,sans-Serif" font-size="10.00">::State</text>
<polyline fill="none" stroke="black" points="143,-512 268,-512 "/>
<text text-anchor="start" x="151" y="-500" font-family="Helvetica,sans-Serif" font-size="10.00">+ voice</text>
<text text-anchor="start" x="151" y="-489" font-family="Helvetica,sans-Serif" font-size="10.00">+ buffer</text>
<text text-anchor="start" x="151" y="-478" font-family="Helvetica,sans-Serif" font-size="10.00">+ bufferSize</text>
<text text-anchor="start" x="151" y="-467" font-family="Helvetica,sans-Serif" font-size="10.00">+ bufferOffset</text>
<polyline fill="none" stroke="black" points="143,-460 268,-460 "/>
<text text-anchor="start" x="151" y="-448" font-family="Helvetica,sans-Serif" font-size="10.00">+ State()</text>
</a>
</g>
</g>
<!-- Node3&#45;&gt;Node1 -->
<g id="edge2" class="edge">
<title>Node3&#45;&gt;Node1</title>
<path fill="none" stroke="#404040" d="M230.48,-440.75C242.44,-420.25 258.18,-397.29 276.5,-380 362.48,-298.86 485.19,-237.18 567,-201.7"/>
<polygon fill="none" stroke="#404040" points="567.23,-201.6 571.17,-195.56 578.26,-196.87 574.32,-202.91 567.23,-201.6"/>
<text text-anchor="middle" x="322" y="-354" font-family="Helvetica,sans-Serif" font-size="10.00"> &#45;_state</text>
</g>
<!-- Node4 -->
<g id="node4" class="node">
<title>Node4</title>
<g id="a_node4"><a xlink:href="classComSquare_1_1Renderer_1_1IRenderer.html" target="_top" xlink:title=" ">
<polygon fill="white" stroke="black" points="286,-435.5 286,-547.5 409,-547.5 409,-435.5 286,-435.5"/>
<text text-anchor="start" x="294" y="-535.5" font-family="Helvetica,sans-Serif" font-size="10.00">ComSquare::Renderer</text>
<text text-anchor="middle" x="347.5" y="-524.5" font-family="Helvetica,sans-Serif" font-size="10.00">::IRenderer</text>
<polyline fill="none" stroke="black" points="286,-517.5 409,-517.5 "/>
<text text-anchor="middle" x="347.5" y="-505.5" font-family="Helvetica,sans-Serif" font-size="10.00"> </text>
<polyline fill="none" stroke="black" points="286,-498.5 409,-498.5 "/>
<text text-anchor="start" x="294" y="-486.5" font-family="Helvetica,sans-Serif" font-size="10.00">+ setWindowName()</text>
<text text-anchor="start" x="294" y="-475.5" font-family="Helvetica,sans-Serif" font-size="10.00">+ drawScreen()</text>
<text text-anchor="start" x="294" y="-464.5" font-family="Helvetica,sans-Serif" font-size="10.00">+ putPixel()</text>
<text text-anchor="start" x="294" y="-453.5" font-family="Helvetica,sans-Serif" font-size="10.00">+ createWindow()</text>
<text text-anchor="start" x="294" y="-442.5" font-family="Helvetica,sans-Serif" font-size="10.00">+ playAudio()</text>
</a>
</g>
</g>
<!-- Node4&#45;&gt;Node1 -->
<g id="edge3" class="edge">
<title>Node4&#45;&gt;Node1</title>
<path fill="none" stroke="#404040" d="M378.35,-435.33C389.66,-416.98 403.22,-396.92 417.5,-380 462.85,-326.29 521.57,-273.37 569.09,-233.77"/>
<polygon fill="none" stroke="#404040" points="569.19,-233.69 571.26,-226.78 578.44,-226.04 576.36,-232.94 569.19,-233.69"/>
<text text-anchor="middle" x="467.5" y="-354" font-family="Helvetica,sans-Serif" font-size="10.00"> &#45;_renderer</text>
</g>
<!-- Node5 -->
<g id="node5" class="node">
<title>Node5</title>
<g id="a_node5"><a xlink:href="structComSquare_1_1APU_1_1DSP_1_1Master.html" target="_top" xlink:title=" ">
<polygon fill="white" stroke="black" points="427,-435.5 427,-547.5 552,-547.5 552,-435.5 427,-435.5"/>
<text text-anchor="start" x="435" y="-535.5" font-family="Helvetica,sans-Serif" font-size="10.00">ComSquare::APU::DSP</text>
<text text-anchor="middle" x="489.5" y="-524.5" font-family="Helvetica,sans-Serif" font-size="10.00">::Master</text>
<polyline fill="none" stroke="black" points="427,-517.5 552,-517.5 "/>
<text text-anchor="start" x="435" y="-505.5" font-family="Helvetica,sans-Serif" font-size="10.00">+ volume</text>
<text text-anchor="start" x="435" y="-494.5" font-family="Helvetica,sans-Serif" font-size="10.00">+ mute</text>
<text text-anchor="start" x="435" y="-483.5" font-family="Helvetica,sans-Serif" font-size="10.00">+ reset</text>
<text text-anchor="start" x="435" y="-472.5" font-family="Helvetica,sans-Serif" font-size="10.00">+ output</text>
<text text-anchor="start" x="435" y="-461.5" font-family="Helvetica,sans-Serif" font-size="10.00">+ unused</text>
<polyline fill="none" stroke="black" points="427,-454.5 552,-454.5 "/>
<text text-anchor="middle" x="489.5" y="-442.5" font-family="Helvetica,sans-Serif" font-size="10.00"> </text>
</a>
</g>
</g>
<!-- Node5&#45;&gt;Node1 -->
<g id="edge4" class="edge">
<title>Node5&#45;&gt;Node1</title>
<path fill="none" stroke="#404040" d="M517.51,-435.34C532.97,-404.89 553.04,-365.36 572.99,-326.06"/>
<polygon fill="none" stroke="#404040" points="573.04,-325.96 572.19,-318.8 578.48,-315.26 579.33,-322.42 573.04,-325.96"/>
<text text-anchor="middle" x="581" y="-354" font-family="Helvetica,sans-Serif" font-size="10.00"> &#45;_master</text>
</g>
<!-- Node6 -->
<g id="node6" class="node">
<title>Node6</title>
<g id="a_node6"><a xlink:href="structComSquare_1_1APU_1_1MemoryMap.html" target="_top" xlink:title=" ">
<polygon fill="white" stroke="black" points="570,-446.5 570,-536.5 737,-536.5 737,-446.5 570,-446.5"/>
<text text-anchor="middle" x="653.5" y="-524.5" font-family="Helvetica,sans-Serif" font-size="10.00">ComSquare::APU::MemoryMap</text>
<polyline fill="none" stroke="black" points="570,-517.5 737,-517.5 "/>
<text text-anchor="middle" x="653.5" y="-505.5" font-family="Helvetica,sans-Serif" font-size="10.00"> </text>
<polyline fill="none" stroke="black" points="570,-498.5 737,-498.5 "/>
<text text-anchor="start" x="578" y="-486.5" font-family="Helvetica,sans-Serif" font-size="10.00">+ MemoryMap()</text>
<text text-anchor="start" x="578" y="-475.5" font-family="Helvetica,sans-Serif" font-size="10.00">+ MemoryMap()</text>
<text text-anchor="start" x="578" y="-464.5" font-family="Helvetica,sans-Serif" font-size="10.00">+ operator=()</text>
<text text-anchor="start" x="578" y="-453.5" font-family="Helvetica,sans-Serif" font-size="10.00">+ ~MemoryMap()</text>
</a>
</g>
</g>
<!-- Node6&#45;&gt;Node1 -->
<g id="edge5" class="edge">
<title>Node6&#45;&gt;Node1</title>
<path fill="none" stroke="#404040" d="M653.5,-446.27C653.5,-419.22 653.5,-382.64 653.5,-344.9"/>
<polygon fill="none" stroke="#404040" points="653.5,-344.62 649.5,-338.62 653.5,-332.62 657.5,-338.62 653.5,-344.62"/>
<text text-anchor="middle" x="670.5" y="-354" font-family="Helvetica,sans-Serif" font-size="10.00"> &#45;_map</text>
</g>
<!-- Node7 -->
<g id="node7" class="node">
<title>Node7</title>
<g id="a_node7"><a xlink:href="classComSquare_1_1Ram_1_1Ram.html" target="_top" xlink:title=" ">
<polygon fill="white" stroke="black" points="502.5,-672.5 502.5,-894.5 632.5,-894.5 632.5,-672.5 502.5,-672.5"/>
<text text-anchor="middle" x="567.5" y="-882.5" font-family="Helvetica,sans-Serif" font-size="10.00">ComSquare::Ram::Ram</text>
<polyline fill="none" stroke="black" points="502.5,-875.5 632.5,-875.5 "/>
<text text-anchor="start" x="510.5" y="-863.5" font-family="Helvetica,sans-Serif" font-size="10.00"># _data</text>
<text text-anchor="start" x="510.5" y="-852.5" font-family="Helvetica,sans-Serif" font-size="10.00"># _ramType</text>
<text text-anchor="start" x="510.5" y="-841.5" font-family="Helvetica,sans-Serif" font-size="10.00"># _ramName</text>
<polyline fill="none" stroke="black" points="502.5,-834.5 632.5,-834.5 "/>
<text text-anchor="start" x="510.5" y="-822.5" font-family="Helvetica,sans-Serif" font-size="10.00">+ Ram()</text>
<text text-anchor="start" x="510.5" y="-811.5" font-family="Helvetica,sans-Serif" font-size="10.00">+ Ram()</text>
<text text-anchor="start" x="510.5" y="-800.5" font-family="Helvetica,sans-Serif" font-size="10.00">+ operator=()</text>
<text text-anchor="start" x="510.5" y="-789.5" font-family="Helvetica,sans-Serif" font-size="10.00">+ ~Ram()</text>
<text text-anchor="start" x="510.5" y="-778.5" font-family="Helvetica,sans-Serif" font-size="10.00">+ read()</text>
<text text-anchor="start" x="510.5" y="-767.5" font-family="Helvetica,sans-Serif" font-size="10.00">+ write()</text>
<text text-anchor="start" x="510.5" y="-756.5" font-family="Helvetica,sans-Serif" font-size="10.00">+ operator[]()</text>
<text text-anchor="start" x="510.5" y="-745.5" font-family="Helvetica,sans-Serif" font-size="10.00">+ operator[]()</text>
<text text-anchor="start" x="510.5" y="-734.5" font-family="Helvetica,sans-Serif" font-size="10.00">+ getName()</text>
<text text-anchor="start" x="510.5" y="-723.5" font-family="Helvetica,sans-Serif" font-size="10.00">+ getComponent()</text>
<text text-anchor="start" x="510.5" y="-712.5" font-family="Helvetica,sans-Serif" font-size="10.00">+ getSize()</text>
<text text-anchor="start" x="510.5" y="-701.5" font-family="Helvetica,sans-Serif" font-size="10.00">+ setSize()</text>
<text text-anchor="start" x="510.5" y="-690.5" font-family="Helvetica,sans-Serif" font-size="10.00">+ getData()</text>
<text text-anchor="start" x="510.5" y="-679.5" font-family="Helvetica,sans-Serif" font-size="10.00">+ getData()</text>
</a>
</g>
</g>
<!-- Node7&#45;&gt;Node6 -->
<g id="edge6" class="edge">
<title>Node7&#45;&gt;Node6</title>
<path fill="none" stroke="#404040" d="M600.14,-672.45C612.67,-630.17 626.46,-583.67 636.88,-548.53"/>
<polygon fill="none" stroke="#404040" points="637.01,-548.11 634.88,-541.22 640.42,-536.6 642.55,-543.49 637.01,-548.11"/>
<text text-anchor="middle" x="638" y="-646" font-family="Helvetica,sans-Serif" font-size="10.00"> +Page0</text>
<text text-anchor="middle" x="638" y="-635" font-family="Helvetica,sans-Serif" font-size="10.00">+Page1</text>
<text text-anchor="middle" x="638" y="-624" font-family="Helvetica,sans-Serif" font-size="10.00">+Memory</text>
</g>
<!-- Node8 -->
<g id="node8" class="node">
<title>Node8</title>
<g id="a_node8"><a xlink:href="classComSquare_1_1Memory_1_1ARectangleMemory.html" target="_top" xlink:title="Base memory class to map non continuous rectangle to the memory. (A rectangle that spam across more t...">
<polygon fill="white" stroke="black" points="497.5,-932.5 497.5,-1077.5 637.5,-1077.5 637.5,-932.5 497.5,-932.5"/>
<text text-anchor="start" x="505.5" y="-1065.5" font-family="Helvetica,sans-Serif" font-size="10.00">ComSquare::Memory::</text>
<text text-anchor="middle" x="567.5" y="-1054.5" font-family="Helvetica,sans-Serif" font-size="10.00">ARectangleMemory</text>
<polyline fill="none" stroke="black" points="497.5,-1047.5 637.5,-1047.5 "/>
<text text-anchor="start" x="505.5" y="-1035.5" font-family="Helvetica,sans-Serif" font-size="10.00"># _startBank</text>
<text text-anchor="start" x="505.5" y="-1024.5" font-family="Helvetica,sans-Serif" font-size="10.00"># _endBank</text>
<text text-anchor="start" x="505.5" y="-1013.5" font-family="Helvetica,sans-Serif" font-size="10.00"># _startPage</text>
<text text-anchor="start" x="505.5" y="-1002.5" font-family="Helvetica,sans-Serif" font-size="10.00"># _endPage</text>
<polyline fill="none" stroke="black" points="497.5,-995.5 637.5,-995.5 "/>
<text text-anchor="start" x="505.5" y="-983.5" font-family="Helvetica,sans-Serif" font-size="10.00">+ getRelativeAddress()</text>
<text text-anchor="start" x="505.5" y="-972.5" font-family="Helvetica,sans-Serif" font-size="10.00">+ hasMemoryAt()</text>
<text text-anchor="start" x="505.5" y="-961.5" font-family="Helvetica,sans-Serif" font-size="10.00">+ setMemoryRegion()</text>
<text text-anchor="start" x="505.5" y="-950.5" font-family="Helvetica,sans-Serif" font-size="10.00">+ getValueName()</text>
<text text-anchor="start" x="505.5" y="-939.5" font-family="Helvetica,sans-Serif" font-size="10.00">+ ~ARectangleMemory()</text>
</a>
</g>
</g>
<!-- Node8&#45;&gt;Node7 -->
<g id="edge7" class="edge">
<title>Node8&#45;&gt;Node7</title>
<path fill="none" stroke="midnightblue" d="M567.5,-922.33C567.5,-913.27 567.5,-903.93 567.5,-894.6"/>
<polygon fill="none" stroke="midnightblue" points="564,-922.43 567.5,-932.43 571,-922.43 564,-922.43"/>
</g>
<!-- Node9 -->
<g id="node9" class="node">
<title>Node9</title>
<g id="a_node9"><a xlink:href="classComSquare_1_1Memory_1_1IMemory.html" target="_top" xlink:title="Common interface implemented by all components mapping memory.">
<polygon fill="white" stroke="black" points="578,-1115.5 578,-1271.5 709,-1271.5 709,-1115.5 578,-1115.5"/>
<text text-anchor="start" x="586" y="-1259.5" font-family="Helvetica,sans-Serif" font-size="10.00">ComSquare::Memory::</text>
<text text-anchor="middle" x="643.5" y="-1248.5" font-family="Helvetica,sans-Serif" font-size="10.00">IMemory</text>
<polyline fill="none" stroke="black" points="578,-1241.5 709,-1241.5 "/>
<text text-anchor="middle" x="643.5" y="-1229.5" font-family="Helvetica,sans-Serif" font-size="10.00"> </text>
<polyline fill="none" stroke="black" points="578,-1222.5 709,-1222.5 "/>
<text text-anchor="start" x="586" y="-1210.5" font-family="Helvetica,sans-Serif" font-size="10.00">+ read()</text>
<text text-anchor="start" x="586" y="-1199.5" font-family="Helvetica,sans-Serif" font-size="10.00">+ write()</text>
<text text-anchor="start" x="586" y="-1188.5" font-family="Helvetica,sans-Serif" font-size="10.00">+ hasMemoryAt()</text>
<text text-anchor="start" x="586" y="-1177.5" font-family="Helvetica,sans-Serif" font-size="10.00">+ getRelativeAddress()</text>
<text text-anchor="start" x="586" y="-1166.5" font-family="Helvetica,sans-Serif" font-size="10.00">+ getSize()</text>
<text text-anchor="start" x="586" y="-1155.5" font-family="Helvetica,sans-Serif" font-size="10.00">+ getName()</text>
<text text-anchor="start" x="586" y="-1144.5" font-family="Helvetica,sans-Serif" font-size="10.00">+ getComponent()</text>
<text text-anchor="start" x="586" y="-1133.5" font-family="Helvetica,sans-Serif" font-size="10.00">+ getValueName()</text>
<text text-anchor="start" x="586" y="-1122.5" font-family="Helvetica,sans-Serif" font-size="10.00">+ ~IMemory()</text>
</a>
</g>
</g>
<!-- Node9&#45;&gt;Node8 -->
<g id="edge8" class="edge">
<title>Node9&#45;&gt;Node8</title>
<path fill="none" stroke="midnightblue" d="M608.22,-1105.92C604.38,-1096.5 600.5,-1086.98 596.74,-1077.76"/>
<polygon fill="none" stroke="midnightblue" points="605.02,-1107.36 612.04,-1115.3 611.51,-1104.72 605.02,-1107.36"/>
</g>
<!-- Node11 -->
<g id="node11" class="node">
<title>Node11</title>
<g id="a_node11"><a xlink:href="classComSquare_1_1Memory_1_1AMemory.html" target="_top" xlink:title="Abstract class representing a continuous block of memory.">
<polygon fill="white" stroke="black" points="656,-949 656,-1061 787,-1061 787,-949 656,-949"/>
<text text-anchor="start" x="664" y="-1049" font-family="Helvetica,sans-Serif" font-size="10.00">ComSquare::Memory::</text>
<text text-anchor="middle" x="721.5" y="-1038" font-family="Helvetica,sans-Serif" font-size="10.00">AMemory</text>
<polyline fill="none" stroke="black" points="656,-1031 787,-1031 "/>
<text text-anchor="start" x="664" y="-1019" font-family="Helvetica,sans-Serif" font-size="10.00"># _start</text>
<text text-anchor="start" x="664" y="-1008" font-family="Helvetica,sans-Serif" font-size="10.00"># _end</text>
<polyline fill="none" stroke="black" points="656,-1001 787,-1001 "/>
<text text-anchor="start" x="664" y="-989" font-family="Helvetica,sans-Serif" font-size="10.00">+ getRelativeAddress()</text>
<text text-anchor="start" x="664" y="-978" font-family="Helvetica,sans-Serif" font-size="10.00">+ setMemoryRegion()</text>
<text text-anchor="start" x="664" y="-967" font-family="Helvetica,sans-Serif" font-size="10.00">+ hasMemoryAt()</text>
<text text-anchor="start" x="664" y="-956" font-family="Helvetica,sans-Serif" font-size="10.00">+ ~AMemory()</text>
</a>
</g>
</g>
<!-- Node9&#45;&gt;Node11 -->
<g id="edge11" class="edge">
<title>Node9&#45;&gt;Node11</title>
<path fill="none" stroke="midnightblue" d="M679.72,-1105.89C686.08,-1090.7 692.53,-1075.27 698.4,-1061.24"/>
<polygon fill="none" stroke="midnightblue" points="676.42,-1104.72 675.79,-1115.3 682.88,-1107.42 676.42,-1104.72"/>
</g>
<!-- Node10 -->
<g id="node10" class="node">
<title>Node10</title>
<g id="a_node10"><a xlink:href="classComSquare_1_1APU_1_1IPL_1_1IPL.html" target="_top" xlink:title=" ">
<polygon fill="white" stroke="black" points="650.5,-678 650.5,-889 790.5,-889 790.5,-678 650.5,-678"/>
<text text-anchor="middle" x="720.5" y="-877" font-family="Helvetica,sans-Serif" font-size="10.00">ComSquare::APU::IPL::IPL</text>
<polyline fill="none" stroke="black" points="650.5,-870 790.5,-870 "/>
<text text-anchor="start" x="658.5" y="-858" font-family="Helvetica,sans-Serif" font-size="10.00"># _data</text>
<text text-anchor="start" x="658.5" y="-847" font-family="Helvetica,sans-Serif" font-size="10.00"># _size</text>
<text text-anchor="start" x="658.5" y="-836" font-family="Helvetica,sans-Serif" font-size="10.00"># _iplType</text>
<text text-anchor="start" x="658.5" y="-825" font-family="Helvetica,sans-Serif" font-size="10.00"># _iplName</text>
<polyline fill="none" stroke="black" points="650.5,-818 790.5,-818 "/>
<text text-anchor="start" x="658.5" y="-806" font-family="Helvetica,sans-Serif" font-size="10.00">+ IPL()</text>
<text text-anchor="start" x="658.5" y="-795" font-family="Helvetica,sans-Serif" font-size="10.00">+ IPL()</text>
<text text-anchor="start" x="658.5" y="-784" font-family="Helvetica,sans-Serif" font-size="10.00">+ operator=()</text>
<text text-anchor="start" x="658.5" y="-773" font-family="Helvetica,sans-Serif" font-size="10.00">+ ~IPL()</text>
<text text-anchor="start" x="658.5" y="-762" font-family="Helvetica,sans-Serif" font-size="10.00">+ read()</text>
<text text-anchor="start" x="658.5" y="-751" font-family="Helvetica,sans-Serif" font-size="10.00">+ write()</text>
<text text-anchor="start" x="658.5" y="-740" font-family="Helvetica,sans-Serif" font-size="10.00">+ operator[]()</text>
<text text-anchor="start" x="658.5" y="-729" font-family="Helvetica,sans-Serif" font-size="10.00">+ operator[]()</text>
<text text-anchor="start" x="658.5" y="-718" font-family="Helvetica,sans-Serif" font-size="10.00">+ getSize()</text>
<text text-anchor="start" x="658.5" y="-707" font-family="Helvetica,sans-Serif" font-size="10.00">+ getName()</text>
<text text-anchor="start" x="658.5" y="-696" font-family="Helvetica,sans-Serif" font-size="10.00">+ getComponent()</text>
<text text-anchor="start" x="658.5" y="-685" font-family="Helvetica,sans-Serif" font-size="10.00">+ getValueName()</text>
</a>
</g>
</g>
<!-- Node10&#45;&gt;Node6 -->
<g id="edge9" class="edge">
<title>Node10&#45;&gt;Node6</title>
<path fill="none" stroke="#404040" d="M696.31,-677.8C686.24,-634.22 674.95,-585.36 666.5,-548.76"/>
<polygon fill="none" stroke="#404040" points="666.45,-548.53 661.2,-543.59 663.74,-536.84 668.99,-541.79 666.45,-548.53"/>
<text text-anchor="middle" x="702.5" y="-635" font-family="Helvetica,sans-Serif" font-size="10.00"> +IPL</text>
</g>
<!-- Node11&#45;&gt;Node10 -->
<g id="edge10" class="edge">
<title>Node11&#45;&gt;Node10</title>
<path fill="none" stroke="midnightblue" d="M721.2,-938.86C721.13,-923.25 721.05,-906.19 720.98,-889.29"/>
<polygon fill="none" stroke="midnightblue" points="717.7,-938.91 721.25,-948.89 724.7,-938.88 717.7,-938.91"/>
</g>
<!-- Node12 -->
<g id="node12" class="node">
<title>Node12</title>
<g id="a_node12"><a xlink:href="structComSquare_1_1APU_1_1DSP_1_1Echo.html" target="_top" xlink:title=" ">
<polygon fill="white" stroke="black" points="755,-380.5 755,-602.5 880,-602.5 880,-380.5 755,-380.5"/>
<text text-anchor="start" x="763" y="-590.5" font-family="Helvetica,sans-Serif" font-size="10.00">ComSquare::APU::DSP</text>
<text text-anchor="middle" x="817.5" y="-579.5" font-family="Helvetica,sans-Serif" font-size="10.00">::Echo</text>
<polyline fill="none" stroke="black" points="755,-572.5 880,-572.5 "/>
<text text-anchor="start" x="763" y="-560.5" font-family="Helvetica,sans-Serif" font-size="10.00">+ volume</text>
<text text-anchor="start" x="763" y="-549.5" font-family="Helvetica,sans-Serif" font-size="10.00">+ feedback</text>
<text text-anchor="start" x="763" y="-538.5" font-family="Helvetica,sans-Serif" font-size="10.00">+ FIR</text>
<text text-anchor="start" x="763" y="-527.5" font-family="Helvetica,sans-Serif" font-size="10.00">+ data</text>
<text text-anchor="start" x="763" y="-516.5" font-family="Helvetica,sans-Serif" font-size="10.00">+ offset</text>
<text text-anchor="start" x="763" y="-505.5" font-family="Helvetica,sans-Serif" font-size="10.00">+ length</text>
<text text-anchor="start" x="763" y="-494.5" font-family="Helvetica,sans-Serif" font-size="10.00">+ delay</text>
<text text-anchor="start" x="763" y="-483.5" font-family="Helvetica,sans-Serif" font-size="10.00">+ enabled</text>
<text text-anchor="start" x="763" y="-472.5" font-family="Helvetica,sans-Serif" font-size="10.00">+ toggle</text>
<text text-anchor="start" x="763" y="-461.5" font-family="Helvetica,sans-Serif" font-size="10.00">+ history</text>
<text text-anchor="start" x="763" y="-450.5" font-family="Helvetica,sans-Serif" font-size="10.00">+ historyOffset</text>
<text text-anchor="start" x="763" y="-439.5" font-family="Helvetica,sans-Serif" font-size="10.00">+ address</text>
<text text-anchor="start" x="763" y="-428.5" font-family="Helvetica,sans-Serif" font-size="10.00">+ value</text>
<text text-anchor="start" x="763" y="-417.5" font-family="Helvetica,sans-Serif" font-size="10.00">+ input</text>
<text text-anchor="start" x="763" y="-406.5" font-family="Helvetica,sans-Serif" font-size="10.00">+ output</text>
<polyline fill="none" stroke="black" points="755,-399.5 880,-399.5 "/>
<text text-anchor="middle" x="817.5" y="-387.5" font-family="Helvetica,sans-Serif" font-size="10.00"> </text>
</a>
</g>
</g>
<!-- Node12&#45;&gt;Node1 -->
<g id="edge12" class="edge">
<title>Node12&#45;&gt;Node1</title>
<path fill="none" stroke="#404040" d="M761.52,-380.25C752.64,-362.75 743.3,-344.37 733.99,-326.03"/>
<polygon fill="none" stroke="#404040" points="733.95,-325.95 727.67,-322.41 728.52,-315.25 734.8,-318.79 733.95,-325.95"/>
<text text-anchor="middle" x="768.5" y="-354" font-family="Helvetica,sans-Serif" font-size="10.00"> &#45;_echo</text>
</g>
<!-- Node13 -->
<g id="node13" class="node">
<title>Node13</title>
<g id="a_node13"><a xlink:href="structComSquare_1_1APU_1_1DSP_1_1BRR.html" target="_top" xlink:title=" ">
<polygon fill="white" stroke="black" points="898,-430 898,-553 1049,-553 1049,-430 898,-430"/>
<text text-anchor="middle" x="973.5" y="-541" font-family="Helvetica,sans-Serif" font-size="10.00">ComSquare::APU::DSP::BRR</text>
<polyline fill="none" stroke="black" points="898,-534 1049,-534 "/>
<text text-anchor="start" x="906" y="-522" font-family="Helvetica,sans-Serif" font-size="10.00">+ offset</text>
<text text-anchor="start" x="906" y="-511" font-family="Helvetica,sans-Serif" font-size="10.00">+ offsetAddr</text>
<text text-anchor="start" x="906" y="-500" font-family="Helvetica,sans-Serif" font-size="10.00">+ address</text>
<text text-anchor="start" x="906" y="-489" font-family="Helvetica,sans-Serif" font-size="10.00">+ nextAddress</text>
<text text-anchor="start" x="906" y="-478" font-family="Helvetica,sans-Serif" font-size="10.00">+ value</text>
<text text-anchor="start" x="906" y="-467" font-family="Helvetica,sans-Serif" font-size="10.00">+ header</text>
<text text-anchor="start" x="906" y="-456" font-family="Helvetica,sans-Serif" font-size="10.00">+ source</text>
<polyline fill="none" stroke="black" points="898,-449 1049,-449 "/>
<text text-anchor="middle" x="973.5" y="-437" font-family="Helvetica,sans-Serif" font-size="10.00"> </text>
</a>
</g>
</g>
<!-- Node13&#45;&gt;Node1 -->
<g id="edge13" class="edge">
<title>Node13&#45;&gt;Node1</title>
<path fill="none" stroke="#404040" d="M930.57,-429.78C917.94,-413.13 903.7,-395.43 889.5,-380 842.42,-328.84 784.47,-276.53 737.77,-236.6"/>
<polygon fill="none" stroke="#404040" points="737.73,-236.57 730.56,-235.72 728.59,-228.79 735.75,-229.63 737.73,-236.57"/>
<text text-anchor="middle" x="884.5" y="-354" font-family="Helvetica,sans-Serif" font-size="10.00"> &#45;_brr</text>
</g>
<!-- Node14 -->
<g id="node14" class="node">
<title>Node14</title>
<g id="a_node14"><a xlink:href="structComSquare_1_1APU_1_1DSP_1_1Latch.html" target="_top" xlink:title=" ">
<polygon fill="white" stroke="black" points="1067,-435.5 1067,-547.5 1192,-547.5 1192,-435.5 1067,-435.5"/>
<text text-anchor="start" x="1075" y="-535.5" font-family="Helvetica,sans-Serif" font-size="10.00">ComSquare::APU::DSP</text>
<text text-anchor="middle" x="1129.5" y="-524.5" font-family="Helvetica,sans-Serif" font-size="10.00">::Latch</text>
<polyline fill="none" stroke="black" points="1067,-517.5 1192,-517.5 "/>
<text text-anchor="start" x="1075" y="-505.5" font-family="Helvetica,sans-Serif" font-size="10.00">+ adsr1</text>
<text text-anchor="start" x="1075" y="-494.5" font-family="Helvetica,sans-Serif" font-size="10.00">+ envx</text>
<text text-anchor="start" x="1075" y="-483.5" font-family="Helvetica,sans-Serif" font-size="10.00">+ outx</text>
<text text-anchor="start" x="1075" y="-472.5" font-family="Helvetica,sans-Serif" font-size="10.00">+ pitch</text>
<text text-anchor="start" x="1075" y="-461.5" font-family="Helvetica,sans-Serif" font-size="10.00">+ output</text>
<polyline fill="none" stroke="black" points="1067,-454.5 1192,-454.5 "/>
<text text-anchor="middle" x="1129.5" y="-442.5" font-family="Helvetica,sans-Serif" font-size="10.00"> </text>
</a>
</g>
</g>
<!-- Node14&#45;&gt;Node1 -->
<g id="edge14" class="edge">
<title>Node14&#45;&gt;Node1</title>
<path fill="none" stroke="#404040" d="M1101.78,-435.42C1090.26,-416.24 1075.57,-395.63 1058.5,-380 963.97,-293.44 827.62,-231.55 739.78,-197.63"/>
<polygon fill="none" stroke="#404040" points="739.73,-197.62 732.7,-199.21 728.52,-193.34 735.55,-191.74 739.73,-197.62"/>
<text text-anchor="middle" x="1048" y="-354" font-family="Helvetica,sans-Serif" font-size="10.00"> &#45;_latch</text>
</g>
<!-- Node15 -->
<g id="node15" class="node">
<title>Node15</title>
<g id="a_node15"><a xlink:href="structComSquare_1_1APU_1_1DSP_1_1Noise.html" target="_top" xlink:title=" ">
<polygon fill="white" stroke="black" points="1210,-452 1210,-531 1335,-531 1335,-452 1210,-452"/>
<text text-anchor="start" x="1218" y="-519" font-family="Helvetica,sans-Serif" font-size="10.00">ComSquare::APU::DSP</text>
<text text-anchor="middle" x="1272.5" y="-508" font-family="Helvetica,sans-Serif" font-size="10.00">::Noise</text>
<polyline fill="none" stroke="black" points="1210,-501 1335,-501 "/>
<text text-anchor="start" x="1218" y="-489" font-family="Helvetica,sans-Serif" font-size="10.00">+ clock</text>
<text text-anchor="start" x="1218" y="-478" font-family="Helvetica,sans-Serif" font-size="10.00">+ lfsr</text>
<polyline fill="none" stroke="black" points="1210,-471 1335,-471 "/>
<text text-anchor="middle" x="1272.5" y="-459" font-family="Helvetica,sans-Serif" font-size="10.00"> </text>
</a>
</g>
</g>
<!-- Node15&#45;&gt;Node1 -->
<g id="edge15" class="edge">
<title>Node15&#45;&gt;Node1</title>
<path fill="none" stroke="#404040" d="M1255.35,-451.77C1243.24,-428.26 1224.99,-399.18 1201.5,-380 1062.76,-266.7 856.63,-208.87 740.76,-183.7"/>
<polygon fill="none" stroke="#404040" points="740.54,-183.66 733.84,-186.32 728.8,-181.15 735.51,-178.49 740.54,-183.66"/>
<text text-anchor="middle" x="1196" y="-354" font-family="Helvetica,sans-Serif" font-size="10.00"> &#45;_noise</text>
</g>
</g>
</svg>
