<?xml version="1.0" encoding="UTF-8" standalone="no"?>
<!DOCTYPE svg PUBLIC "-//W3C//DTD SVG 1.1//EN"
 "http://www.w3.org/Graphics/SVG/1.1/DTD/svg11.dtd">
<!-- Generated by graphviz version 2.43.0 (0)
 -->
<!-- Title: ComSquare::PPU::PPU Pages: 1 -->
<svg width="842pt" height="1425pt"
 viewBox="0.00 0.00 842.00 1425.00" xmlns="http://www.w3.org/2000/svg" xmlns:xlink="http://www.w3.org/1999/xlink">
<g id="graph0" class="graph" transform="scale(1 1) rotate(0) translate(4 1421)">
<title>ComSquare::PPU::PPU</title>
<polygon fill="white" stroke="transparent" points="-4,4 -4,-1421 838,-1421 838,4 -4,4"/>
<!-- Node1 -->
<g id="node1" class="node">
<title>Node1</title>
<g id="a_node1"><a xlink:title="The class containing all the registers of the PPU.">
<polygon fill="#bfbfbf" stroke="black" points="298,-413.5 298,-635.5 432,-635.5 432,-413.5 298,-413.5"/>
<text text-anchor="middle" x="365" y="-623.5" font-family="Helvetica,sans-Serif" font-size="10.00">ComSquare::PPU::PPU</text>
<polyline fill="none" stroke="black" points="298,-616.5 432,-616.5 "/>
<text text-anchor="start" x="306" y="-604.5" font-family="Helvetica,sans-Serif" font-size="10.00">&#45; _mainScreen</text>
<text text-anchor="start" x="306" y="-593.5" font-family="Helvetica,sans-Serif" font-size="10.00">&#45; _mainScreenLevelMap</text>
<text text-anchor="start" x="306" y="-582.5" font-family="Helvetica,sans-Serif" font-size="10.00">&#45; _subScreenLevelMap</text>
<text text-anchor="start" x="306" y="-571.5" font-family="Helvetica,sans-Serif" font-size="10.00">&#45; _subScreen</text>
<text text-anchor="start" x="306" y="-560.5" font-family="Helvetica,sans-Serif" font-size="10.00">&#45; _screen</text>
<text text-anchor="start" x="306" y="-549.5" font-family="Helvetica,sans-Serif" font-size="10.00">&#45; _vramReadBuffer</text>
<polyline fill="none" stroke="black" points="298,-542.5 432,-542.5 "/>
<text text-anchor="start" x="306" y="-530.5" font-family="Helvetica,sans-Serif" font-size="10.00">+ PPU()</text>
<text text-anchor="start" x="306" y="-519.5" font-family="Helvetica,sans-Serif" font-size="10.00">+ PPU()</text>
<text text-anchor="start" x="306" y="-508.5" font-family="Helvetica,sans-Serif" font-size="10.00">+ ~PPU()</text>
<text text-anchor="start" x="306" y="-497.5" font-family="Helvetica,sans-Serif" font-size="10.00">+ operator=()</text>
<text text-anchor="start" x="306" y="-486.5" font-family="Helvetica,sans-Serif" font-size="10.00">+ read()</text>
<text text-anchor="start" x="306" y="-475.5" font-family="Helvetica,sans-Serif" font-size="10.00">+ write()</text>
<text text-anchor="start" x="306" y="-464.5" font-family="Helvetica,sans-Serif" font-size="10.00">+ getName()</text>
<text text-anchor="start" x="306" y="-453.5" font-family="Helvetica,sans-Serif" font-size="10.00">+ getComponent()</text>
<text text-anchor="start" x="306" y="-442.5" font-family="Helvetica,sans-Serif" font-size="10.00">+ getSize()</text>
<text text-anchor="start" x="306" y="-431.5" font-family="Helvetica,sans-Serif" font-size="10.00">+ update()</text>
<text text-anchor="start" x="306" y="-420.5" font-family="Helvetica,sans-Serif" font-size="10.00">and 14 more...</text>
</a>
</g>
</g>
<!-- Node7 -->
<g id="node7" class="node">
<title>Node7</title>
<g id="a_node7"><a xlink:href="classComSquare_1_1PPU_1_1Background.html" target="_top" xlink:title=" ">
<polygon fill="white" stroke="black" points="372,-0.5 372,-365.5 536,-365.5 536,-0.5 372,-0.5"/>
<text text-anchor="middle" x="454" y="-353.5" font-family="Helvetica,sans-Serif" font-size="10.00">ComSquare::PPU::Background</text>
<polyline fill="none" stroke="black" points="372,-346.5 536,-346.5 "/>
<text text-anchor="start" x="380" y="-334.5" font-family="Helvetica,sans-Serif" font-size="10.00">+ buffer</text>
<text text-anchor="start" x="380" y="-323.5" font-family="Helvetica,sans-Serif" font-size="10.00">+ tilesPriority</text>
<text text-anchor="start" x="380" y="-312.5" font-family="Helvetica,sans-Serif" font-size="10.00">&#45; _bpp</text>
<text text-anchor="start" x="380" y="-301.5" font-family="Helvetica,sans-Serif" font-size="10.00">&#45; _directColor</text>
<text text-anchor="start" x="380" y="-290.5" font-family="Helvetica,sans-Serif" font-size="10.00">&#45; _highRes</text>
<text text-anchor="start" x="380" y="-279.5" font-family="Helvetica,sans-Serif" font-size="10.00">&#45; _tileMapStartAddress</text>
<text text-anchor="start" x="380" y="-268.5" font-family="Helvetica,sans-Serif" font-size="10.00">&#45; _tilesetAddress</text>
<text text-anchor="start" x="380" y="-257.5" font-family="Helvetica,sans-Serif" font-size="10.00">&#45; _bgNumber</text>
<text text-anchor="start" x="380" y="-246.5" font-family="Helvetica,sans-Serif" font-size="10.00">&#45; _tileBuffer</text>
<text text-anchor="start" x="380" y="-235.5" font-family="Helvetica,sans-Serif" font-size="10.00">&#45; NbCharacterWidth</text>
<text text-anchor="start" x="380" y="-224.5" font-family="Helvetica,sans-Serif" font-size="10.00">&#45; NbCharacterHeight</text>
<text text-anchor="start" x="380" y="-213.5" font-family="Helvetica,sans-Serif" font-size="10.00">&#45; NbTilePerRow</text>
<text text-anchor="start" x="380" y="-202.5" font-family="Helvetica,sans-Serif" font-size="10.00">&#45; TileMapByteSize</text>
<polyline fill="none" stroke="black" points="372,-195.5 536,-195.5 "/>
<text text-anchor="start" x="380" y="-183.5" font-family="Helvetica,sans-Serif" font-size="10.00">+ isPriorityPixel()</text>
<text text-anchor="start" x="380" y="-172.5" font-family="Helvetica,sans-Serif" font-size="10.00">+ renderBackground()</text>
<text text-anchor="start" x="380" y="-161.5" font-family="Helvetica,sans-Serif" font-size="10.00">+ setTileMapStartAddress()</text>
<text text-anchor="start" x="380" y="-150.5" font-family="Helvetica,sans-Serif" font-size="10.00">+ setCharacterSize()</text>
<text text-anchor="start" x="380" y="-139.5" font-family="Helvetica,sans-Serif" font-size="10.00">+ setTilesetAddress()</text>
<text text-anchor="start" x="380" y="-128.5" font-family="Helvetica,sans-Serif" font-size="10.00">+ setBpp()</text>
<text text-anchor="start" x="380" y="-117.5" font-family="Helvetica,sans-Serif" font-size="10.00">+ setTileMapMirroring()</text>
<text text-anchor="start" x="380" y="-106.5" font-family="Helvetica,sans-Serif" font-size="10.00">+ getBgNumber()</text>
<text text-anchor="start" x="380" y="-95.5" font-family="Helvetica,sans-Serif" font-size="10.00">+ Background()</text>
<text text-anchor="start" x="380" y="-84.5" font-family="Helvetica,sans-Serif" font-size="10.00">+ Background()</text>
<text text-anchor="start" x="380" y="-73.5" font-family="Helvetica,sans-Serif" font-size="10.00">+ ~Background()</text>
<text text-anchor="start" x="380" y="-62.5" font-family="Helvetica,sans-Serif" font-size="10.00">+ operator=()</text>
<text text-anchor="start" x="380" y="-51.5" font-family="Helvetica,sans-Serif" font-size="10.00">+ mergeBackgroundBuffer()</text>
<text text-anchor="start" x="380" y="-40.5" font-family="Helvetica,sans-Serif" font-size="10.00">&#45; _drawTile()</text>
<text text-anchor="start" x="380" y="-29.5" font-family="Helvetica,sans-Serif" font-size="10.00">&#45; _drawTileFromMemoryToTile</text>
<text text-anchor="start" x="380" y="-18.5" font-family="Helvetica,sans-Serif" font-size="10.00">Buffer()</text>
<text text-anchor="start" x="380" y="-7.5" font-family="Helvetica,sans-Serif" font-size="10.00">&#45; _drawBasicTileMap()</text>
</a>
</g>
</g>
<!-- Node1&#45;&gt;Node7 -->
<g id="edge14" class="edge">
<title>Node1&#45;&gt;Node7</title>
<path fill="none" stroke="#404040" d="M425.78,-413.15C428.09,-407.1 430.19,-401.02 432,-395 433.7,-389.35 435.28,-383.57 436.73,-377.72"/>
<polygon fill="none" stroke="#404040" points="436.83,-377.28 434.3,-370.53 439.56,-365.59 442.09,-372.35 436.83,-377.28"/>
<text text-anchor="middle" x="451.5" y="-387" font-family="Helvetica,sans-Serif" font-size="10.00"> &#45;_ppu</text>
</g>
<!-- Node2 -->
<g id="node2" class="node">
<title>Node2</title>
<g id="a_node2"><a xlink:href="classComSquare_1_1Memory_1_1AMemory.html" target="_top" xlink:title="Abstract class representing a continuous block of memory.">
<polygon fill="white" stroke="black" points="538.5,-946.5 538.5,-1058.5 669.5,-1058.5 669.5,-946.5 538.5,-946.5"/>
<text text-anchor="start" x="546.5" y="-1046.5" font-family="Helvetica,sans-Serif" font-size="10.00">ComSquare::Memory::</text>
<text text-anchor="middle" x="604" y="-1035.5" font-family="Helvetica,sans-Serif" font-size="10.00">AMemory</text>
<polyline fill="none" stroke="black" points="538.5,-1028.5 669.5,-1028.5 "/>
<text text-anchor="start" x="546.5" y="-1016.5" font-family="Helvetica,sans-Serif" font-size="10.00"># _start</text>
<text text-anchor="start" x="546.5" y="-1005.5" font-family="Helvetica,sans-Serif" font-size="10.00"># _end</text>
<polyline fill="none" stroke="black" points="538.5,-998.5 669.5,-998.5 "/>
<text text-anchor="start" x="546.5" y="-986.5" font-family="Helvetica,sans-Serif" font-size="10.00">+ getRelativeAddress()</text>
<text text-anchor="start" x="546.5" y="-975.5" font-family="Helvetica,sans-Serif" font-size="10.00">+ setMemoryRegion()</text>
<text text-anchor="start" x="546.5" y="-964.5" font-family="Helvetica,sans-Serif" font-size="10.00">+ hasMemoryAt()</text>
<text text-anchor="start" x="546.5" y="-953.5" font-family="Helvetica,sans-Serif" font-size="10.00">+ ~AMemory()</text>
</a>
</g>
</g>
<!-- Node2&#45;&gt;Node1 -->
<g id="edge1" class="edge">
<title>Node2&#45;&gt;Node1</title>
<path fill="none" stroke="midnightblue" d="M625.95,-936.38C643.24,-872.52 657.98,-774.86 615,-705 588.65,-662.17 561.16,-671.46 514,-654 482.66,-642.39 468.48,-655.01 441,-636 437.94,-633.88 434.96,-631.6 432.07,-629.17"/>
<polygon fill="none" stroke="midnightblue" points="622.49,-935.75 623.16,-946.32 629.23,-937.64 622.49,-935.75"/>
</g>
<!-- Node3 -->
<g id="node3" class="node">
<title>Node3</title>
<g id="a_node3"><a xlink:href="classComSquare_1_1Memory_1_1IMemory.html" target="_top" xlink:title="Common interface implemented by all components mapping memory.">
<polygon fill="white" stroke="black" points="460.5,-1260.5 460.5,-1416.5 591.5,-1416.5 591.5,-1260.5 460.5,-1260.5"/>
<text text-anchor="start" x="468.5" y="-1404.5" font-family="Helvetica,sans-Serif" font-size="10.00">ComSquare::Memory::</text>
<text text-anchor="middle" x="526" y="-1393.5" font-family="Helvetica,sans-Serif" font-size="10.00">IMemory</text>
<polyline fill="none" stroke="black" points="460.5,-1386.5 591.5,-1386.5 "/>
<text text-anchor="middle" x="526" y="-1374.5" font-family="Helvetica,sans-Serif" font-size="10.00"> </text>
<polyline fill="none" stroke="black" points="460.5,-1367.5 591.5,-1367.5 "/>
<text text-anchor="start" x="468.5" y="-1355.5" font-family="Helvetica,sans-Serif" font-size="10.00">+ read()</text>
<text text-anchor="start" x="468.5" y="-1344.5" font-family="Helvetica,sans-Serif" font-size="10.00">+ write()</text>
<text text-anchor="start" x="468.5" y="-1333.5" font-family="Helvetica,sans-Serif" font-size="10.00">+ hasMemoryAt()</text>
<text text-anchor="start" x="468.5" y="-1322.5" font-family="Helvetica,sans-Serif" font-size="10.00">+ getRelativeAddress()</text>
<text text-anchor="start" x="468.5" y="-1311.5" font-family="Helvetica,sans-Serif" font-size="10.00">+ getSize()</text>
<text text-anchor="start" x="468.5" y="-1300.5" font-family="Helvetica,sans-Serif" font-size="10.00">+ getName()</text>
<text text-anchor="start" x="468.5" y="-1289.5" font-family="Helvetica,sans-Serif" font-size="10.00">+ getComponent()</text>
<text text-anchor="start" x="468.5" y="-1278.5" font-family="Helvetica,sans-Serif" font-size="10.00">+ getValueName()</text>
<text text-anchor="start" x="468.5" y="-1267.5" font-family="Helvetica,sans-Serif" font-size="10.00">+ ~IMemory()</text>
</a>
</g>
</g>
<!-- Node3&#45;&gt;Node2 -->
<g id="edge2" class="edge">
<title>Node3&#45;&gt;Node2</title>
<path fill="none" stroke="midnightblue" d="M546.32,-1250.5C560.49,-1189.81 578.97,-1110.68 591.15,-1058.54"/>
<polygon fill="none" stroke="midnightblue" points="542.86,-1249.92 543.99,-1260.45 549.68,-1251.51 542.86,-1249.92"/>
</g>
<!-- Node5 -->
<g id="node5" class="node">
<title>Node5</title>
<g id="a_node5"><a xlink:href="classComSquare_1_1Memory_1_1ARectangleMemory.html" target="_top" xlink:title="Base memory class to map non continuous rectangle to the memory. (A rectangle that spam across more t...">
<polygon fill="white" stroke="black" points="348,-1077.5 348,-1222.5 488,-1222.5 488,-1077.5 348,-1077.5"/>
<text text-anchor="start" x="356" y="-1210.5" font-family="Helvetica,sans-Serif" font-size="10.00">ComSquare::Memory::</text>
<text text-anchor="middle" x="418" y="-1199.5" font-family="Helvetica,sans-Serif" font-size="10.00">ARectangleMemory</text>
<polyline fill="none" stroke="black" points="348,-1192.5 488,-1192.5 "/>
<text text-anchor="start" x="356" y="-1180.5" font-family="Helvetica,sans-Serif" font-size="10.00"># _startBank</text>
<text text-anchor="start" x="356" y="-1169.5" font-family="Helvetica,sans-Serif" font-size="10.00"># _endBank</text>
<text text-anchor="start" x="356" y="-1158.5" font-family="Helvetica,sans-Serif" font-size="10.00"># _startPage</text>
<text text-anchor="start" x="356" y="-1147.5" font-family="Helvetica,sans-Serif" font-size="10.00"># _endPage</text>
<polyline fill="none" stroke="black" points="348,-1140.5 488,-1140.5 "/>
<text text-anchor="start" x="356" y="-1128.5" font-family="Helvetica,sans-Serif" font-size="10.00">+ getRelativeAddress()</text>
<text text-anchor="start" x="356" y="-1117.5" font-family="Helvetica,sans-Serif" font-size="10.00">+ hasMemoryAt()</text>
<text text-anchor="start" x="356" y="-1106.5" font-family="Helvetica,sans-Serif" font-size="10.00">+ setMemoryRegion()</text>
<text text-anchor="start" x="356" y="-1095.5" font-family="Helvetica,sans-Serif" font-size="10.00">+ getValueName()</text>
<text text-anchor="start" x="356" y="-1084.5" font-family="Helvetica,sans-Serif" font-size="10.00">+ ~ARectangleMemory()</text>
</a>
</g>
</g>
<!-- Node3&#45;&gt;Node5 -->
<g id="edge5" class="edge">
<title>Node3&#45;&gt;Node5</title>
<path fill="none" stroke="midnightblue" d="M476.2,-1251.51C470.63,-1241.89 465.01,-1232.17 459.56,-1222.76"/>
<polygon fill="none" stroke="midnightblue" points="473.25,-1253.4 481.29,-1260.3 479.31,-1249.89 473.25,-1253.4"/>
</g>
<!-- Node4 -->
<g id="node4" class="node">
<title>Node4</title>
<g id="a_node4"><a xlink:href="classComSquare_1_1Ram_1_1Ram.html" target="_top" xlink:title=" ">
<polygon fill="white" stroke="black" points="0,-705.5 0,-927.5 130,-927.5 130,-705.5 0,-705.5"/>
<text text-anchor="middle" x="65" y="-915.5" font-family="Helvetica,sans-Serif" font-size="10.00">ComSquare::Ram::Ram</text>
<polyline fill="none" stroke="black" points="0,-908.5 130,-908.5 "/>
<text text-anchor="start" x="8" y="-896.5" font-family="Helvetica,sans-Serif" font-size="10.00"># _data</text>
<text text-anchor="start" x="8" y="-885.5" font-family="Helvetica,sans-Serif" font-size="10.00"># _ramType</text>
<text text-anchor="start" x="8" y="-874.5" font-family="Helvetica,sans-Serif" font-size="10.00"># _ramName</text>
<polyline fill="none" stroke="black" points="0,-867.5 130,-867.5 "/>
<text text-anchor="start" x="8" y="-855.5" font-family="Helvetica,sans-Serif" font-size="10.00">+ Ram()</text>
<text text-anchor="start" x="8" y="-844.5" font-family="Helvetica,sans-Serif" font-size="10.00">+ Ram()</text>
<text text-anchor="start" x="8" y="-833.5" font-family="Helvetica,sans-Serif" font-size="10.00">+ operator=()</text>
<text text-anchor="start" x="8" y="-822.5" font-family="Helvetica,sans-Serif" font-size="10.00">+ ~Ram()</text>
<text text-anchor="start" x="8" y="-811.5" font-family="Helvetica,sans-Serif" font-size="10.00">+ read()</text>
<text text-anchor="start" x="8" y="-800.5" font-family="Helvetica,sans-Serif" font-size="10.00">+ write()</text>
<text text-anchor="start" x="8" y="-789.5" font-family="Helvetica,sans-Serif" font-size="10.00">+ operator[]()</text>
<text text-anchor="start" x="8" y="-778.5" font-family="Helvetica,sans-Serif" font-size="10.00">+ operator[]()</text>
<text text-anchor="start" x="8" y="-767.5" font-family="Helvetica,sans-Serif" font-size="10.00">+ getName()</text>
<text text-anchor="start" x="8" y="-756.5" font-family="Helvetica,sans-Serif" font-size="10.00">+ getComponent()</text>
<text text-anchor="start" x="8" y="-745.5" font-family="Helvetica,sans-Serif" font-size="10.00">+ getSize()</text>
<text text-anchor="start" x="8" y="-734.5" font-family="Helvetica,sans-Serif" font-size="10.00">+ setSize()</text>
<text text-anchor="start" x="8" y="-723.5" font-family="Helvetica,sans-Serif" font-size="10.00">+ getData()</text>
<text text-anchor="start" x="8" y="-712.5" font-family="Helvetica,sans-Serif" font-size="10.00">+ getData()</text>
</a>
</g>
</g>
<!-- Node4&#45;&gt;Node1 -->
<g id="edge3" class="edge">
<title>Node4&#45;&gt;Node1</title>
<path fill="none" stroke="#404040" d="M130.06,-713.89C132.97,-710.8 135.95,-707.83 139,-705 172.7,-673.72 186.72,-672.05 229,-654 251.7,-644.31 263.63,-650.55 287.86,-635.75"/>
<polygon fill="none" stroke="#404040" points="287.88,-635.74 290.58,-629.05 297.79,-628.97 295.09,-635.66 287.88,-635.74"/>
<text text-anchor="middle" x="254" y="-679" font-family="Helvetica,sans-Serif" font-size="10.00"> +vram</text>
<text text-anchor="middle" x="254" y="-668" font-family="Helvetica,sans-Serif" font-size="10.00">+oamram</text>
<text text-anchor="middle" x="254" y="-657" font-family="Helvetica,sans-Serif" font-size="10.00">+cgram</text>
</g>
<!-- Node4&#45;&gt;Node7 -->
<g id="edge10" class="edge">
<title>Node4&#45;&gt;Node7</title>
<path fill="none" stroke="#404040" d="M27.63,-705.22C5.67,-619.62 -8.76,-501.09 43,-413 111.09,-297.11 261.47,-235.58 360.21,-206.42"/>
<polygon fill="none" stroke="#404040" points="360.46,-206.35 365.12,-200.84 371.99,-203.02 367.33,-208.53 360.46,-206.35"/>
<text text-anchor="middle" x="63" y="-527.5" font-family="Helvetica,sans-Serif" font-size="10.00"> &#45;_vram</text>
<text text-anchor="middle" x="63" y="-516.5" font-family="Helvetica,sans-Serif" font-size="10.00">&#45;_cgram</text>
</g>
<!-- Node8 -->
<g id="node8" class="node">
<title>Node8</title>
<g id="a_node8"><a xlink:href="classComSquare_1_1PPU_1_1TileRenderer.html" target="_top" xlink:title=" ">
<polygon fill="white" stroke="black" points="92,-413.5 92,-635.5 280,-635.5 280,-413.5 92,-413.5"/>
<text text-anchor="middle" x="186" y="-623.5" font-family="Helvetica,sans-Serif" font-size="10.00">ComSquare::PPU::TileRenderer</text>
<polyline fill="none" stroke="black" points="92,-616.5 280,-616.5 "/>
<text text-anchor="start" x="100" y="-604.5" font-family="Helvetica,sans-Serif" font-size="10.00">+ buffer</text>
<text text-anchor="start" x="100" y="-593.5" font-family="Helvetica,sans-Serif" font-size="10.00">&#45; _bpp</text>
<text text-anchor="start" x="100" y="-582.5" font-family="Helvetica,sans-Serif" font-size="10.00">&#45; _paletteIndex</text>
<text text-anchor="start" x="100" y="-571.5" font-family="Helvetica,sans-Serif" font-size="10.00">&#45; TileByteSizeRow</text>
<polyline fill="none" stroke="black" points="92,-564.5 280,-564.5 "/>
<text text-anchor="start" x="100" y="-552.5" font-family="Helvetica,sans-Serif" font-size="10.00">+ setPaletteIndex()</text>
<text text-anchor="start" x="100" y="-541.5" font-family="Helvetica,sans-Serif" font-size="10.00">+ setBpp()</text>
<text text-anchor="start" x="100" y="-530.5" font-family="Helvetica,sans-Serif" font-size="10.00">+ getBpp()</text>
<text text-anchor="start" x="100" y="-519.5" font-family="Helvetica,sans-Serif" font-size="10.00">+ getPaletteIndex()</text>
<text text-anchor="start" x="100" y="-508.5" font-family="Helvetica,sans-Serif" font-size="10.00">+ getPixelReferenceFromTile()</text>
<text text-anchor="start" x="100" y="-497.5" font-family="Helvetica,sans-Serif" font-size="10.00">+ getPixelReferenceFromTileRow()</text>
<text text-anchor="start" x="100" y="-486.5" font-family="Helvetica,sans-Serif" font-size="10.00">+ getPalette()</text>
<text text-anchor="start" x="100" y="-475.5" font-family="Helvetica,sans-Serif" font-size="10.00">+ read2BPPValue()</text>
<text text-anchor="start" x="100" y="-464.5" font-family="Helvetica,sans-Serif" font-size="10.00">+ render()</text>
<text text-anchor="start" x="100" y="-453.5" font-family="Helvetica,sans-Serif" font-size="10.00">+ TileRenderer()</text>
<text text-anchor="start" x="100" y="-442.5" font-family="Helvetica,sans-Serif" font-size="10.00">+ TileRenderer()</text>
<text text-anchor="start" x="100" y="-431.5" font-family="Helvetica,sans-Serif" font-size="10.00">+ ~TileRenderer()</text>
<text text-anchor="start" x="100" y="-420.5" font-family="Helvetica,sans-Serif" font-size="10.00">+ operator=()</text>
</a>
</g>
</g>
<!-- Node4&#45;&gt;Node8 -->
<g id="edge9" class="edge">
<title>Node4&#45;&gt;Node8</title>
<path fill="none" stroke="#404040" d="M60.6,-705.19C62.68,-687.63 66.51,-670 73,-654 76.42,-645.58 80.63,-637.33 85.4,-629.34"/>
<polygon fill="none" stroke="#404040" points="85.54,-629.13 85.38,-621.92 91.98,-619 92.14,-626.21 85.54,-629.13"/>
<text text-anchor="middle" x="93" y="-673.5" font-family="Helvetica,sans-Serif" font-size="10.00"> &#45;_ram</text>
<text text-anchor="middle" x="93" y="-662.5" font-family="Helvetica,sans-Serif" font-size="10.00">&#45;_cgram</text>
</g>
<!-- Node5&#45;&gt;Node4 -->
<g id="edge4" class="edge">
<title>Node5&#45;&gt;Node4</title>
<path fill="none" stroke="midnightblue" d="M339.38,-1096.79C280.27,-1055.27 199.43,-993.45 139,-928 136.02,-924.78 133.08,-921.42 130.19,-917.98"/>
<polygon fill="none" stroke="midnightblue" points="337.73,-1099.91 347.93,-1102.77 341.74,-1094.17 337.73,-1099.91"/>
</g>
<!-- Node6 -->
<g id="node6" class="node">
<title>Node6</title>
<g id="a_node6"><a xlink:href="classComSquare_1_1Renderer_1_1IRenderer.html" target="_top" xlink:title=" ">
<polygon fill="white" stroke="black" points="148.5,-760.5 148.5,-872.5 271.5,-872.5 271.5,-760.5 148.5,-760.5"/>
<text text-anchor="start" x="156.5" y="-860.5" font-family="Helvetica,sans-Serif" font-size="10.00">ComSquare::Renderer</text>
<text text-anchor="middle" x="210" y="-849.5" font-family="Helvetica,sans-Serif" font-size="10.00">::IRenderer</text>
<polyline fill="none" stroke="black" points="148.5,-842.5 271.5,-842.5 "/>
<text text-anchor="middle" x="210" y="-830.5" font-family="Helvetica,sans-Serif" font-size="10.00"> </text>
<polyline fill="none" stroke="black" points="148.5,-823.5 271.5,-823.5 "/>
<text text-anchor="start" x="156.5" y="-811.5" font-family="Helvetica,sans-Serif" font-size="10.00">+ setWindowName()</text>
<text text-anchor="start" x="156.5" y="-800.5" font-family="Helvetica,sans-Serif" font-size="10.00">+ drawScreen()</text>
<text text-anchor="start" x="156.5" y="-789.5" font-family="Helvetica,sans-Serif" font-size="10.00">+ putPixel()</text>
<text text-anchor="start" x="156.5" y="-778.5" font-family="Helvetica,sans-Serif" font-size="10.00">+ createWindow()</text>
<text text-anchor="start" x="156.5" y="-767.5" font-family="Helvetica,sans-Serif" font-size="10.00">+ playAudio()</text>
</a>
</g>
</g>
<!-- Node6&#45;&gt;Node1 -->
<g id="edge6" class="edge">
<title>Node6&#45;&gt;Node1</title>
<path fill="none" stroke="#404040" d="M239.52,-760.27C256.74,-728.06 279.16,-686.09 300.29,-646.57"/>
<polygon fill="none" stroke="#404040" points="300.4,-646.36 299.7,-639.18 306.06,-635.77 306.76,-642.95 300.4,-646.36"/>
<text text-anchor="middle" x="320" y="-668" font-family="Helvetica,sans-Serif" font-size="10.00"> &#45;_renderer</text>
</g>
<!-- Node7&#45;&gt;Node1 -->
<g id="edge7" class="edge">
<title>Node7&#45;&gt;Node1</title>
<path fill="none" stroke="#404040" d="M371.9,-335.66C365.86,-351.64 360.69,-367.92 357,-384 355.71,-389.62 354.73,-395.39 354.01,-401.24"/>
<polygon fill="none" stroke="#404040" points="353.99,-401.4 357.42,-407.75 352.89,-413.35 349.46,-407.01 353.99,-401.4"/>
<text text-anchor="middle" x="394.5" y="-387" font-family="Helvetica,sans-Serif" font-size="10.00"> &#45;_backgrounds</text>
</g>
<!-- Node8&#45;&gt;Node7 -->
<g id="edge8" class="edge">
<title>Node8&#45;&gt;Node7</title>
<path fill="none" stroke="#404040" d="M257.52,-413.27C264.61,-403.25 271.83,-393.36 279,-384 305.17,-349.82 335.5,-314 363.49,-282.26"/>
<polygon fill="none" stroke="#404040" points="363.75,-281.97 364.73,-274.83 371.71,-272.99 370.72,-280.13 363.75,-281.97"/>
<text text-anchor="middle" x="315.5" y="-387" font-family="Helvetica,sans-Serif" font-size="10.00"> &#45;_tileRenderer</text>
</g>
<!-- Node9 -->
<g id="node9" class="node">
<title>Node9</title>
<g id="a_node9"><a xlink:href="classComSquare_1_1Vector2.html" target="_top" xlink:title=" ">
<polygon fill="white" stroke="black" points="450,-413.5 450,-635.5 566,-635.5 566,-413.5 450,-413.5"/>
<text text-anchor="start" x="458" y="-623.5" font-family="Helvetica,sans-Serif" font-size="10.00">ComSquare::Vector2</text>
<text text-anchor="middle" x="508" y="-612.5" font-family="Helvetica,sans-Serif" font-size="10.00">&lt; unsigned &gt;</text>
<polyline fill="none" stroke="black" points="450,-605.5 566,-605.5 "/>
<text text-anchor="start" x="458" y="-593.5" font-family="Helvetica,sans-Serif" font-size="10.00">+ x</text>
<text text-anchor="start" x="458" y="-582.5" font-family="Helvetica,sans-Serif" font-size="10.00">+ y</text>
<polyline fill="none" stroke="black" points="450,-575.5 566,-575.5 "/>
<text text-anchor="start" x="458" y="-563.5" font-family="Helvetica,sans-Serif" font-size="10.00">+ Vector2()</text>
<text text-anchor="start" x="458" y="-552.5" font-family="Helvetica,sans-Serif" font-size="10.00">+ Vector2()</text>
<text text-anchor="start" x="458" y="-541.5" font-family="Helvetica,sans-Serif" font-size="10.00">+ Vector2()</text>
<text text-anchor="start" x="458" y="-530.5" font-family="Helvetica,sans-Serif" font-size="10.00">+ operator+=()</text>
<text text-anchor="start" x="458" y="-519.5" font-family="Helvetica,sans-Serif" font-size="10.00">+ operator+()</text>
<text text-anchor="start" x="458" y="-508.5" font-family="Helvetica,sans-Serif" font-size="10.00">+ operator&#45;=()</text>
<text text-anchor="start" x="458" y="-497.5" font-family="Helvetica,sans-Serif" font-size="10.00">+ operator&#45;()</text>
<text text-anchor="start" x="458" y="-486.5" font-family="Helvetica,sans-Serif" font-size="10.00">+ operator*=()</text>
<text text-anchor="start" x="458" y="-475.5" font-family="Helvetica,sans-Serif" font-size="10.00">+ operator*()</text>
<text text-anchor="start" x="458" y="-464.5" font-family="Helvetica,sans-Serif" font-size="10.00">+ operator*()</text>
<text text-anchor="start" x="458" y="-453.5" font-family="Helvetica,sans-Serif" font-size="10.00">+ operator/=()</text>
<text text-anchor="start" x="458" y="-442.5" font-family="Helvetica,sans-Serif" font-size="10.00">+ operator/=()</text>
<text text-anchor="start" x="458" y="-431.5" font-family="Helvetica,sans-Serif" font-size="10.00">+ operator/()</text>
<text text-anchor="start" x="458" y="-420.5" font-family="Helvetica,sans-Serif" font-size="10.00">+ operator/()</text>
</a>
</g>
</g>
<!-- Node9&#45;&gt;Node7 -->
<g id="edge11" class="edge">
<title>Node9&#45;&gt;Node7</title>
<path fill="none" stroke="#404040" d="M490.67,-413.46C489.09,-403.5 487.52,-393.56 486,-384 485.67,-381.94 485.34,-379.87 485.01,-377.79"/>
<polygon fill="none" stroke="#404040" points="484.99,-377.62 480.09,-372.32 483.1,-365.77 487.99,-371.06 484.99,-377.62"/>
<text text-anchor="middle" x="532.5" y="-387" font-family="Helvetica,sans-Serif" font-size="10.00"> +backgroundSize</text>
</g>
<!-- Node10 -->
<g id="node10" class="node">
<title>Node10</title>
<g id="a_node10"><a xlink:href="classComSquare_1_1Vector2.html" target="_top" xlink:title=" ">
<polygon fill="white" stroke="black" points="584,-413.5 584,-635.5 700,-635.5 700,-413.5 584,-413.5"/>
<text text-anchor="start" x="592" y="-623.5" font-family="Helvetica,sans-Serif" font-size="10.00">ComSquare::Vector2</text>
<text text-anchor="middle" x="642" y="-612.5" font-family="Helvetica,sans-Serif" font-size="10.00">&lt; int &gt;</text>
<polyline fill="none" stroke="black" points="584,-605.5 700,-605.5 "/>
<text text-anchor="start" x="592" y="-593.5" font-family="Helvetica,sans-Serif" font-size="10.00">+ x</text>
<text text-anchor="start" x="592" y="-582.5" font-family="Helvetica,sans-Serif" font-size="10.00">+ y</text>
<polyline fill="none" stroke="black" points="584,-575.5 700,-575.5 "/>
<text text-anchor="start" x="592" y="-563.5" font-family="Helvetica,sans-Serif" font-size="10.00">+ Vector2()</text>
<text text-anchor="start" x="592" y="-552.5" font-family="Helvetica,sans-Serif" font-size="10.00">+ Vector2()</text>
<text text-anchor="start" x="592" y="-541.5" font-family="Helvetica,sans-Serif" font-size="10.00">+ Vector2()</text>
<text text-anchor="start" x="592" y="-530.5" font-family="Helvetica,sans-Serif" font-size="10.00">+ operator+=()</text>
<text text-anchor="start" x="592" y="-519.5" font-family="Helvetica,sans-Serif" font-size="10.00">+ operator+()</text>
<text text-anchor="start" x="592" y="-508.5" font-family="Helvetica,sans-Serif" font-size="10.00">+ operator&#45;=()</text>
<text text-anchor="start" x="592" y="-497.5" font-family="Helvetica,sans-Serif" font-size="10.00">+ operator&#45;()</text>
<text text-anchor="start" x="592" y="-486.5" font-family="Helvetica,sans-Serif" font-size="10.00">+ operator*=()</text>
<text text-anchor="start" x="592" y="-475.5" font-family="Helvetica,sans-Serif" font-size="10.00">+ operator*()</text>
<text text-anchor="start" x="592" y="-464.5" font-family="Helvetica,sans-Serif" font-size="10.00">+ operator*()</text>
<text text-anchor="start" x="592" y="-453.5" font-family="Helvetica,sans-Serif" font-size="10.00">+ operator/=()</text>
<text text-anchor="start" x="592" y="-442.5" font-family="Helvetica,sans-Serif" font-size="10.00">+ operator/=()</text>
<text text-anchor="start" x="592" y="-431.5" font-family="Helvetica,sans-Serif" font-size="10.00">+ operator/()</text>
<text text-anchor="start" x="592" y="-420.5" font-family="Helvetica,sans-Serif" font-size="10.00">+ operator/()</text>
</a>
</g>
</g>
<!-- Node10&#45;&gt;Node7 -->
<g id="edge12" class="edge">
<title>Node10&#45;&gt;Node7</title>
<path fill="none" stroke="#404040" d="M595.79,-413.46C590.99,-403.4 586.03,-393.45 581,-384 569.28,-361.98 555.99,-339.17 542.53,-317.18"/>
<polygon fill="none" stroke="#404040" points="542.42,-317.01 535.87,-314 536.12,-306.8 542.68,-309.8 542.42,-317.01"/>
<text text-anchor="middle" x="636" y="-387" font-family="Helvetica,sans-Serif" font-size="10.00"> &#45;_characterNbPixels</text>
</g>
<!-- Node11 -->
<g id="node11" class="node">
<title>Node11</title>
<g id="a_node11"><a xlink:href="classComSquare_1_1Vector2.html" target="_top" xlink:title=" ">
<polygon fill="white" stroke="black" points="718,-413.5 718,-635.5 834,-635.5 834,-413.5 718,-413.5"/>
<text text-anchor="start" x="726" y="-623.5" font-family="Helvetica,sans-Serif" font-size="10.00">ComSquare::Vector2</text>
<text text-anchor="middle" x="776" y="-612.5" font-family="Helvetica,sans-Serif" font-size="10.00">&lt; bool &gt;</text>
<polyline fill="none" stroke="black" points="718,-605.5 834,-605.5 "/>
<text text-anchor="start" x="726" y="-593.5" font-family="Helvetica,sans-Serif" font-size="10.00">+ x</text>
<text text-anchor="start" x="726" y="-582.5" font-family="Helvetica,sans-Serif" font-size="10.00">+ y</text>
<polyline fill="none" stroke="black" points="718,-575.5 834,-575.5 "/>
<text text-anchor="start" x="726" y="-563.5" font-family="Helvetica,sans-Serif" font-size="10.00">+ Vector2()</text>
<text text-anchor="start" x="726" y="-552.5" font-family="Helvetica,sans-Serif" font-size="10.00">+ Vector2()</text>
<text text-anchor="start" x="726" y="-541.5" font-family="Helvetica,sans-Serif" font-size="10.00">+ Vector2()</text>
<text text-anchor="start" x="726" y="-530.5" font-family="Helvetica,sans-Serif" font-size="10.00">+ operator+=()</text>
<text text-anchor="start" x="726" y="-519.5" font-family="Helvetica,sans-Serif" font-size="10.00">+ operator+()</text>
<text text-anchor="start" x="726" y="-508.5" font-family="Helvetica,sans-Serif" font-size="10.00">+ operator&#45;=()</text>
<text text-anchor="start" x="726" y="-497.5" font-family="Helvetica,sans-Serif" font-size="10.00">+ operator&#45;()</text>
<text text-anchor="start" x="726" y="-486.5" font-family="Helvetica,sans-Serif" font-size="10.00">+ operator*=()</text>
<text text-anchor="start" x="726" y="-475.5" font-family="Helvetica,sans-Serif" font-size="10.00">+ operator*()</text>
<text text-anchor="start" x="726" y="-464.5" font-family="Helvetica,sans-Serif" font-size="10.00">+ operator*()</text>
<text text-anchor="start" x="726" y="-453.5" font-family="Helvetica,sans-Serif" font-size="10.00">+ operator/=()</text>
<text text-anchor="start" x="726" y="-442.5" font-family="Helvetica,sans-Serif" font-size="10.00">+ operator/=()</text>
<text text-anchor="start" x="726" y="-431.5" font-family="Helvetica,sans-Serif" font-size="10.00">+ operator/()</text>
<text text-anchor="start" x="726" y="-420.5" font-family="Helvetica,sans-Serif" font-size="10.00">+ operator/()</text>
</a>
</g>
</g>
<!-- Node11&#45;&gt;Node7 -->
<g id="edge13" class="edge">
<title>Node11&#45;&gt;Node7</title>
<path fill="none" stroke="#404040" d="M717.92,-427.25C714.92,-422.42 711.93,-417.65 709,-413 700.78,-399.97 700.21,-395.54 690,-384 647,-335.35 591.97,-288.05 545.88,-251.67"/>
<polygon fill="none" stroke="#404040" points="545.63,-251.47 538.44,-250.92 536.18,-244.07 543.37,-244.62 545.63,-251.47"/>
<text text-anchor="middle" x="745" y="-387" font-family="Helvetica,sans-Serif" font-size="10.00"> &#45;_tileMapMirroring</text>
</g>
<!-- Node12 -->
<g id="node12" class="node">
<title>Node12</title>
<g id="a_node12"><a xlink:href="structComSquare_1_1PPU_1_1Registers.html" target="_top" xlink:title=" ">
<polygon fill="white" stroke="black" points="290,-733 290,-900 440,-900 440,-733 290,-733"/>
<text text-anchor="middle" x="365" y="-888" font-family="Helvetica,sans-Serif" font-size="10.00">ComSquare::PPU::Registers</text>
<polyline fill="none" stroke="black" points="290,-881 440,-881 "/>
<text text-anchor="start" x="298" y="-869" font-family="Helvetica,sans-Serif" font-size="10.00">+ brightness</text>
<text text-anchor="start" x="298" y="-858" font-family="Helvetica,sans-Serif" font-size="10.00">+ _</text>
<text text-anchor="start" x="298" y="-847" font-family="Helvetica,sans-Serif" font-size="10.00">+ fblank</text>
<text text-anchor="start" x="298" y="-836" font-family="Helvetica,sans-Serif" font-size="10.00">+ raw</text>
<text text-anchor="start" x="298" y="-825" font-family="Helvetica,sans-Serif" font-size="10.00">+ _inidisp</text>
<text text-anchor="start" x="298" y="-814" font-family="Helvetica,sans-Serif" font-size="10.00">+ nameBaseSelect</text>
<text text-anchor="start" x="298" y="-803" font-family="Helvetica,sans-Serif" font-size="10.00">+ nameSelect</text>
<text text-anchor="start" x="298" y="-792" font-family="Helvetica,sans-Serif" font-size="10.00">+ objectSize</text>
<text text-anchor="start" x="298" y="-781" font-family="Helvetica,sans-Serif" font-size="10.00">+ _obsel</text>
<text text-anchor="start" x="298" y="-770" font-family="Helvetica,sans-Serif" font-size="10.00">+ oamAddress</text>
<text text-anchor="start" x="298" y="-759" font-family="Helvetica,sans-Serif" font-size="10.00">and 144 more...</text>
<polyline fill="none" stroke="black" points="290,-752 440,-752 "/>
<text text-anchor="middle" x="365" y="-740" font-family="Helvetica,sans-Serif" font-size="10.00"> </text>
</a>
</g>
</g>
<!-- Node12&#45;&gt;Node1 -->
<g id="edge15" class="edge">
<title>Node12&#45;&gt;Node1</title>
<path fill="none" stroke="#404040" d="M365,-732.79C365,-706.34 365,-676.49 365,-647.85"/>
<polygon fill="none" stroke="#404040" points="365,-647.66 361,-641.66 365,-635.66 369,-641.66 365,-647.66"/>
<text text-anchor="middle" x="392.5" y="-668" font-family="Helvetica,sans-Serif" font-size="10.00"> &#45;_registers</text>
</g>
<!-- Node13 -->
<g id="node13" class="node">
<title>Node13</title>
<g id="a_node13"><a xlink:href="structComSquare_1_1PPU_1_1Utils_1_1PpuState.html" target="_top" xlink:title="Struct to save all specific variables needed for the registers (prev values for example)">
<polygon fill="white" stroke="black" points="457.5,-777 457.5,-856 606.5,-856 606.5,-777 457.5,-777"/>
<text text-anchor="start" x="465.5" y="-844" font-family="Helvetica,sans-Serif" font-size="10.00">ComSquare::PPU::Utils</text>
<text text-anchor="middle" x="532" y="-833" font-family="Helvetica,sans-Serif" font-size="10.00">::PpuState</text>
<polyline fill="none" stroke="black" points="457.5,-826 606.5,-826 "/>
<text text-anchor="start" x="465.5" y="-814" font-family="Helvetica,sans-Serif" font-size="10.00">+ hvSharedScrollPrevValue</text>
<text text-anchor="start" x="465.5" y="-803" font-family="Helvetica,sans-Serif" font-size="10.00">+ hScrollPrevValue</text>
<polyline fill="none" stroke="black" points="457.5,-796 606.5,-796 "/>
<text text-anchor="middle" x="532" y="-784" font-family="Helvetica,sans-Serif" font-size="10.00"> </text>
</a>
</g>
</g>
<!-- Node13&#45;&gt;Node1 -->
<g id="edge16" class="edge">
<title>Node13&#45;&gt;Node1</title>
<path fill="none" stroke="#404040" d="M509.82,-776.99C490.52,-743.47 461.48,-693.03 434.45,-646.11"/>
<polygon fill="none" stroke="#404040" points="434.35,-645.93 427.89,-642.72 428.36,-635.53 434.82,-638.73 434.35,-645.93"/>
<text text-anchor="middle" x="482" y="-668" font-family="Helvetica,sans-Serif" font-size="10.00"> &#45;_ppuState</text>
</g>
</g>
</svg>
