<?xml version="1.0" encoding="UTF-8" standalone="no"?>
<!DOCTYPE svg PUBLIC "-//W3C//DTD SVG 1.1//EN"
 "http://www.w3.org/Graphics/SVG/1.1/DTD/svg11.dtd">
<!-- Generated by graphviz version 2.43.0 (0)
 -->
<!-- Title: ComSquare::Debugger::CGramModel Pages: 1 -->
<svg width="964pt" height="1425pt"
 viewBox="0.00 0.00 964.00 1425.00" xmlns="http://www.w3.org/2000/svg" xmlns:xlink="http://www.w3.org/1999/xlink">
<g id="graph0" class="graph" transform="scale(1 1) rotate(0) translate(4 1421)">
<title>ComSquare::Debugger::CGramModel</title>
<polygon fill="white" stroke="transparent" points="-4,4 -4,-1421 960,-1421 960,4 -4,4"/>
<!-- Node1 -->
<g id="node1" class="node">
<title>Node1</title>
<g id="a_node1"><a xlink:title="The qt model that bind the logs to the view.">
<polygon fill="#bfbfbf" stroke="black" points="20,-99.5 20,-266.5 146,-266.5 146,-99.5 20,-99.5"/>
<text text-anchor="start" x="28" y="-254.5" font-family="Helvetica,sans-Serif" font-size="10.00">ComSquare::Debugger</text>
<text text-anchor="middle" x="83" y="-243.5" font-family="Helvetica,sans-Serif" font-size="10.00">::CGramModel</text>
<polyline fill="none" stroke="black" points="20,-236.5 146,-236.5 "/>
<text text-anchor="start" x="28" y="-224.5" font-family="Helvetica,sans-Serif" font-size="10.00">+ column</text>
<text text-anchor="start" x="28" y="-213.5" font-family="Helvetica,sans-Serif" font-size="10.00">+ rows</text>
<text text-anchor="start" x="28" y="-202.5" font-family="Helvetica,sans-Serif" font-size="10.00">+ x</text>
<text text-anchor="start" x="28" y="-191.5" font-family="Helvetica,sans-Serif" font-size="10.00">+ y</text>
<polyline fill="none" stroke="black" points="20,-184.5 146,-184.5 "/>
<text text-anchor="start" x="28" y="-172.5" font-family="Helvetica,sans-Serif" font-size="10.00">+ CGramModel()</text>
<text text-anchor="start" x="28" y="-161.5" font-family="Helvetica,sans-Serif" font-size="10.00">+ CGramModel()</text>
<text text-anchor="start" x="28" y="-150.5" font-family="Helvetica,sans-Serif" font-size="10.00">+ operator=()</text>
<text text-anchor="start" x="28" y="-139.5" font-family="Helvetica,sans-Serif" font-size="10.00">+ ~CGramModel()</text>
<text text-anchor="start" x="28" y="-128.5" font-family="Helvetica,sans-Serif" font-size="10.00">+ rowCount()</text>
<text text-anchor="start" x="28" y="-117.5" font-family="Helvetica,sans-Serif" font-size="10.00">+ columnCount()</text>
<text text-anchor="start" x="28" y="-106.5" font-family="Helvetica,sans-Serif" font-size="10.00">+ data()</text>
</a>
</g>
</g>
<!-- Node2 -->
<g id="node2" class="node">
<title>Node2</title>
<g id="a_node2"><a xlink:title=" ">
<polygon fill="white" stroke="#bfbfbf" points="0,-496 0,-553 120,-553 120,-496 0,-496"/>
<text text-anchor="middle" x="60" y="-541" font-family="Helvetica,sans-Serif" font-size="10.00">QAbstractTableModel</text>
<polyline fill="none" stroke="#bfbfbf" points="0,-534 120,-534 "/>
<text text-anchor="middle" x="60" y="-522" font-family="Helvetica,sans-Serif" font-size="10.00"> </text>
<polyline fill="none" stroke="#bfbfbf" points="0,-515 120,-515 "/>
<text text-anchor="middle" x="60" y="-503" font-family="Helvetica,sans-Serif" font-size="10.00"> </text>
</a>
</g>
</g>
<!-- Node2&#45;&gt;Node1 -->
<g id="edge1" class="edge">
<title>Node2&#45;&gt;Node1</title>
<path fill="none" stroke="midnightblue" d="M62.58,-485.48C66.14,-432.79 72.69,-336.23 77.41,-266.56"/>
<polygon fill="none" stroke="midnightblue" points="59.07,-485.5 61.88,-495.72 66.05,-485.98 59.07,-485.5"/>
</g>
<!-- Node3 -->
<g id="node3" class="node">
<title>Node3</title>
<g id="a_node3"><a xlink:href="classComSquare_1_1PPU_1_1PPU.html" target="_top" xlink:title="The class containing all the registers of the PPU.">
<polygon fill="white" stroke="black" points="138,-413.5 138,-635.5 272,-635.5 272,-413.5 138,-413.5"/>
<text text-anchor="middle" x="205" y="-623.5" font-family="Helvetica,sans-Serif" font-size="10.00">ComSquare::PPU::PPU</text>
<polyline fill="none" stroke="black" points="138,-616.5 272,-616.5 "/>
<text text-anchor="start" x="146" y="-604.5" font-family="Helvetica,sans-Serif" font-size="10.00">&#45; _mainScreen</text>
<text text-anchor="start" x="146" y="-593.5" font-family="Helvetica,sans-Serif" font-size="10.00">&#45; _mainScreenLevelMap</text>
<text text-anchor="start" x="146" y="-582.5" font-family="Helvetica,sans-Serif" font-size="10.00">&#45; _subScreenLevelMap</text>
<text text-anchor="start" x="146" y="-571.5" font-family="Helvetica,sans-Serif" font-size="10.00">&#45; _subScreen</text>
<text text-anchor="start" x="146" y="-560.5" font-family="Helvetica,sans-Serif" font-size="10.00">&#45; _screen</text>
<text text-anchor="start" x="146" y="-549.5" font-family="Helvetica,sans-Serif" font-size="10.00">&#45; _vramReadBuffer</text>
<polyline fill="none" stroke="black" points="138,-542.5 272,-542.5 "/>
<text text-anchor="start" x="146" y="-530.5" font-family="Helvetica,sans-Serif" font-size="10.00">+ PPU()</text>
<text text-anchor="start" x="146" y="-519.5" font-family="Helvetica,sans-Serif" font-size="10.00">+ PPU()</text>
<text text-anchor="start" x="146" y="-508.5" font-family="Helvetica,sans-Serif" font-size="10.00">+ ~PPU()</text>
<text text-anchor="start" x="146" y="-497.5" font-family="Helvetica,sans-Serif" font-size="10.00">+ operator=()</text>
<text text-anchor="start" x="146" y="-486.5" font-family="Helvetica,sans-Serif" font-size="10.00">+ read()</text>
<text text-anchor="start" x="146" y="-475.5" font-family="Helvetica,sans-Serif" font-size="10.00">+ write()</text>
<text text-anchor="start" x="146" y="-464.5" font-family="Helvetica,sans-Serif" font-size="10.00">+ getName()</text>
<text text-anchor="start" x="146" y="-453.5" font-family="Helvetica,sans-Serif" font-size="10.00">+ getComponent()</text>
<text text-anchor="start" x="146" y="-442.5" font-family="Helvetica,sans-Serif" font-size="10.00">+ getSize()</text>
<text text-anchor="start" x="146" y="-431.5" font-family="Helvetica,sans-Serif" font-size="10.00">+ update()</text>
<text text-anchor="start" x="146" y="-420.5" font-family="Helvetica,sans-Serif" font-size="10.00">and 14 more...</text>
</a>
</g>
</g>
<!-- Node3&#45;&gt;Node1 -->
<g id="edge2" class="edge">
<title>Node3&#45;&gt;Node1</title>
<path fill="none" stroke="#404040" d="M158.93,-413.31C156.54,-407.13 154.21,-401 152,-395 138.03,-357.15 123.95,-314.98 112.18,-278.35"/>
<polygon fill="none" stroke="#404040" points="112.1,-278.09 106.46,-273.6 108.45,-266.66 114.08,-271.16 112.1,-278.09"/>
<text text-anchor="middle" x="167.5" y="-387" font-family="Helvetica,sans-Serif" font-size="10.00"> &#45;_ppu</text>
</g>
<!-- Node9 -->
<g id="node9" class="node">
<title>Node9</title>
<g id="a_node9"><a xlink:href="classComSquare_1_1PPU_1_1Background.html" target="_top" xlink:title=" ">
<polygon fill="white" stroke="black" points="396,-0.5 396,-365.5 560,-365.5 560,-0.5 396,-0.5"/>
<text text-anchor="middle" x="478" y="-353.5" font-family="Helvetica,sans-Serif" font-size="10.00">ComSquare::PPU::Background</text>
<polyline fill="none" stroke="black" points="396,-346.5 560,-346.5 "/>
<text text-anchor="start" x="404" y="-334.5" font-family="Helvetica,sans-Serif" font-size="10.00">+ buffer</text>
<text text-anchor="start" x="404" y="-323.5" font-family="Helvetica,sans-Serif" font-size="10.00">+ tilesPriority</text>
<text text-anchor="start" x="404" y="-312.5" font-family="Helvetica,sans-Serif" font-size="10.00">&#45; _bpp</text>
<text text-anchor="start" x="404" y="-301.5" font-family="Helvetica,sans-Serif" font-size="10.00">&#45; _directColor</text>
<text text-anchor="start" x="404" y="-290.5" font-family="Helvetica,sans-Serif" font-size="10.00">&#45; _highRes</text>
<text text-anchor="start" x="404" y="-279.5" font-family="Helvetica,sans-Serif" font-size="10.00">&#45; _tileMapStartAddress</text>
<text text-anchor="start" x="404" y="-268.5" font-family="Helvetica,sans-Serif" font-size="10.00">&#45; _tilesetAddress</text>
<text text-anchor="start" x="404" y="-257.5" font-family="Helvetica,sans-Serif" font-size="10.00">&#45; _bgNumber</text>
<text text-anchor="start" x="404" y="-246.5" font-family="Helvetica,sans-Serif" font-size="10.00">&#45; _tileBuffer</text>
<text text-anchor="start" x="404" y="-235.5" font-family="Helvetica,sans-Serif" font-size="10.00">&#45; NbCharacterWidth</text>
<text text-anchor="start" x="404" y="-224.5" font-family="Helvetica,sans-Serif" font-size="10.00">&#45; NbCharacterHeight</text>
<text text-anchor="start" x="404" y="-213.5" font-family="Helvetica,sans-Serif" font-size="10.00">&#45; NbTilePerRow</text>
<text text-anchor="start" x="404" y="-202.5" font-family="Helvetica,sans-Serif" font-size="10.00">&#45; TileMapByteSize</text>
<polyline fill="none" stroke="black" points="396,-195.5 560,-195.5 "/>
<text text-anchor="start" x="404" y="-183.5" font-family="Helvetica,sans-Serif" font-size="10.00">+ isPriorityPixel()</text>
<text text-anchor="start" x="404" y="-172.5" font-family="Helvetica,sans-Serif" font-size="10.00">+ renderBackground()</text>
<text text-anchor="start" x="404" y="-161.5" font-family="Helvetica,sans-Serif" font-size="10.00">+ setTileMapStartAddress()</text>
<text text-anchor="start" x="404" y="-150.5" font-family="Helvetica,sans-Serif" font-size="10.00">+ setCharacterSize()</text>
<text text-anchor="start" x="404" y="-139.5" font-family="Helvetica,sans-Serif" font-size="10.00">+ setTilesetAddress()</text>
<text text-anchor="start" x="404" y="-128.5" font-family="Helvetica,sans-Serif" font-size="10.00">+ setBpp()</text>
<text text-anchor="start" x="404" y="-117.5" font-family="Helvetica,sans-Serif" font-size="10.00">+ setTileMapMirroring()</text>
<text text-anchor="start" x="404" y="-106.5" font-family="Helvetica,sans-Serif" font-size="10.00">+ getBgNumber()</text>
<text text-anchor="start" x="404" y="-95.5" font-family="Helvetica,sans-Serif" font-size="10.00">+ Background()</text>
<text text-anchor="start" x="404" y="-84.5" font-family="Helvetica,sans-Serif" font-size="10.00">+ Background()</text>
<text text-anchor="start" x="404" y="-73.5" font-family="Helvetica,sans-Serif" font-size="10.00">+ ~Background()</text>
<text text-anchor="start" x="404" y="-62.5" font-family="Helvetica,sans-Serif" font-size="10.00">+ operator=()</text>
<text text-anchor="start" x="404" y="-51.5" font-family="Helvetica,sans-Serif" font-size="10.00">+ mergeBackgroundBuffer()</text>
<text text-anchor="start" x="404" y="-40.5" font-family="Helvetica,sans-Serif" font-size="10.00">&#45; _drawTile()</text>
<text text-anchor="start" x="404" y="-29.5" font-family="Helvetica,sans-Serif" font-size="10.00">&#45; _drawTileFromMemoryToTile</text>
<text text-anchor="start" x="404" y="-18.5" font-family="Helvetica,sans-Serif" font-size="10.00">Buffer()</text>
<text text-anchor="start" x="404" y="-7.5" font-family="Helvetica,sans-Serif" font-size="10.00">&#45; _drawBasicTileMap()</text>
</a>
</g>
</g>
<!-- Node3&#45;&gt;Node9 -->
<g id="edge16" class="edge">
<title>Node3&#45;&gt;Node9</title>
<path fill="none" stroke="#404040" d="M243.74,-413.31C248.95,-403.07 254.7,-393.13 261,-384 295.29,-334.3 344,-287.97 386.58,-252.45"/>
<polygon fill="none" stroke="#404040" points="386.59,-252.44 388.67,-245.54 395.85,-244.8 393.76,-251.71 386.59,-252.44"/>
<text text-anchor="middle" x="276.5" y="-387" font-family="Helvetica,sans-Serif" font-size="10.00"> &#45;_ppu</text>
</g>
<!-- Node4 -->
<g id="node4" class="node">
<title>Node4</title>
<g id="a_node4"><a xlink:href="classComSquare_1_1Memory_1_1AMemory.html" target="_top" xlink:title="Abstract class representing a continuous block of memory.">
<polygon fill="white" stroke="black" points="297.5,-946.5 297.5,-1058.5 428.5,-1058.5 428.5,-946.5 297.5,-946.5"/>
<text text-anchor="start" x="305.5" y="-1046.5" font-family="Helvetica,sans-Serif" font-size="10.00">ComSquare::Memory::</text>
<text text-anchor="middle" x="363" y="-1035.5" font-family="Helvetica,sans-Serif" font-size="10.00">AMemory</text>
<polyline fill="none" stroke="black" points="297.5,-1028.5 428.5,-1028.5 "/>
<text text-anchor="start" x="305.5" y="-1016.5" font-family="Helvetica,sans-Serif" font-size="10.00"># _start</text>
<text text-anchor="start" x="305.5" y="-1005.5" font-family="Helvetica,sans-Serif" font-size="10.00"># _end</text>
<polyline fill="none" stroke="black" points="297.5,-998.5 428.5,-998.5 "/>
<text text-anchor="start" x="305.5" y="-986.5" font-family="Helvetica,sans-Serif" font-size="10.00">+ getRelativeAddress()</text>
<text text-anchor="start" x="305.5" y="-975.5" font-family="Helvetica,sans-Serif" font-size="10.00">+ setMemoryRegion()</text>
<text text-anchor="start" x="305.5" y="-964.5" font-family="Helvetica,sans-Serif" font-size="10.00">+ hasMemoryAt()</text>
<text text-anchor="start" x="305.5" y="-953.5" font-family="Helvetica,sans-Serif" font-size="10.00">+ ~AMemory()</text>
</a>
</g>
</g>
<!-- Node4&#45;&gt;Node3 -->
<g id="edge3" class="edge">
<title>Node4&#45;&gt;Node3</title>
<path fill="none" stroke="midnightblue" d="M286.99,-999.14C234.72,-993.06 168.71,-975.6 134,-928 72.33,-843.44 105.29,-722.7 144.32,-635.55"/>
<polygon fill="none" stroke="midnightblue" points="286.94,-1002.65 297.25,-1000.21 287.66,-995.69 286.94,-1002.65"/>
</g>
<!-- Node5 -->
<g id="node5" class="node">
<title>Node5</title>
<g id="a_node5"><a xlink:href="classComSquare_1_1Memory_1_1IMemory.html" target="_top" xlink:title="Common interface implemented by all components mapping memory.">
<polygon fill="white" stroke="black" points="433.5,-1260.5 433.5,-1416.5 564.5,-1416.5 564.5,-1260.5 433.5,-1260.5"/>
<text text-anchor="start" x="441.5" y="-1404.5" font-family="Helvetica,sans-Serif" font-size="10.00">ComSquare::Memory::</text>
<text text-anchor="middle" x="499" y="-1393.5" font-family="Helvetica,sans-Serif" font-size="10.00">IMemory</text>
<polyline fill="none" stroke="black" points="433.5,-1386.5 564.5,-1386.5 "/>
<text text-anchor="middle" x="499" y="-1374.5" font-family="Helvetica,sans-Serif" font-size="10.00"> </text>
<polyline fill="none" stroke="black" points="433.5,-1367.5 564.5,-1367.5 "/>
<text text-anchor="start" x="441.5" y="-1355.5" font-family="Helvetica,sans-Serif" font-size="10.00">+ read()</text>
<text text-anchor="start" x="441.5" y="-1344.5" font-family="Helvetica,sans-Serif" font-size="10.00">+ write()</text>
<text text-anchor="start" x="441.5" y="-1333.5" font-family="Helvetica,sans-Serif" font-size="10.00">+ hasMemoryAt()</text>
<text text-anchor="start" x="441.5" y="-1322.5" font-family="Helvetica,sans-Serif" font-size="10.00">+ getRelativeAddress()</text>
<text text-anchor="start" x="441.5" y="-1311.5" font-family="Helvetica,sans-Serif" font-size="10.00">+ getSize()</text>
<text text-anchor="start" x="441.5" y="-1300.5" font-family="Helvetica,sans-Serif" font-size="10.00">+ getName()</text>
<text text-anchor="start" x="441.5" y="-1289.5" font-family="Helvetica,sans-Serif" font-size="10.00">+ getComponent()</text>
<text text-anchor="start" x="441.5" y="-1278.5" font-family="Helvetica,sans-Serif" font-size="10.00">+ getValueName()</text>
<text text-anchor="start" x="441.5" y="-1267.5" font-family="Helvetica,sans-Serif" font-size="10.00">+ ~IMemory()</text>
</a>
</g>
</g>
<!-- Node5&#45;&gt;Node4 -->
<g id="edge4" class="edge">
<title>Node5&#45;&gt;Node4</title>
<path fill="none" stroke="midnightblue" d="M463.73,-1250.87C439,-1190.14 406.68,-1110.78 385.41,-1058.54"/>
<polygon fill="none" stroke="midnightblue" points="460.62,-1252.51 467.63,-1260.45 467.1,-1249.87 460.62,-1252.51"/>
</g>
<!-- Node7 -->
<g id="node7" class="node">
<title>Node7</title>
<g id="a_node7"><a xlink:href="classComSquare_1_1Memory_1_1ARectangleMemory.html" target="_top" xlink:title="Base memory class to map non continuous rectangle to the memory. (A rectangle that spam across more t...">
<polygon fill="white" stroke="black" points="577,-1077.5 577,-1222.5 717,-1222.5 717,-1077.5 577,-1077.5"/>
<text text-anchor="start" x="585" y="-1210.5" font-family="Helvetica,sans-Serif" font-size="10.00">ComSquare::Memory::</text>
<text text-anchor="middle" x="647" y="-1199.5" font-family="Helvetica,sans-Serif" font-size="10.00">ARectangleMemory</text>
<polyline fill="none" stroke="black" points="577,-1192.5 717,-1192.5 "/>
<text text-anchor="start" x="585" y="-1180.5" font-family="Helvetica,sans-Serif" font-size="10.00"># _startBank</text>
<text text-anchor="start" x="585" y="-1169.5" font-family="Helvetica,sans-Serif" font-size="10.00"># _endBank</text>
<text text-anchor="start" x="585" y="-1158.5" font-family="Helvetica,sans-Serif" font-size="10.00"># _startPage</text>
<text text-anchor="start" x="585" y="-1147.5" font-family="Helvetica,sans-Serif" font-size="10.00"># _endPage</text>
<polyline fill="none" stroke="black" points="577,-1140.5 717,-1140.5 "/>
<text text-anchor="start" x="585" y="-1128.5" font-family="Helvetica,sans-Serif" font-size="10.00">+ getRelativeAddress()</text>
<text text-anchor="start" x="585" y="-1117.5" font-family="Helvetica,sans-Serif" font-size="10.00">+ hasMemoryAt()</text>
<text text-anchor="start" x="585" y="-1106.5" font-family="Helvetica,sans-Serif" font-size="10.00">+ setMemoryRegion()</text>
<text text-anchor="start" x="585" y="-1095.5" font-family="Helvetica,sans-Serif" font-size="10.00">+ getValueName()</text>
<text text-anchor="start" x="585" y="-1084.5" font-family="Helvetica,sans-Serif" font-size="10.00">+ ~ARectangleMemory()</text>
</a>
</g>
</g>
<!-- Node5&#45;&gt;Node7 -->
<g id="edge7" class="edge">
<title>Node5&#45;&gt;Node7</title>
<path fill="none" stroke="midnightblue" d="M566.54,-1252.39C574.4,-1242.49 582.36,-1232.46 590.05,-1222.76"/>
<polygon fill="none" stroke="midnightblue" points="563.74,-1250.29 560.27,-1260.3 569.22,-1254.64 563.74,-1250.29"/>
</g>
<!-- Node6 -->
<g id="node6" class="node">
<title>Node6</title>
<g id="a_node6"><a xlink:href="classComSquare_1_1Ram_1_1Ram.html" target="_top" xlink:title=" ">
<polygon fill="white" stroke="black" points="633,-705.5 633,-927.5 763,-927.5 763,-705.5 633,-705.5"/>
<text text-anchor="middle" x="698" y="-915.5" font-family="Helvetica,sans-Serif" font-size="10.00">ComSquare::Ram::Ram</text>
<polyline fill="none" stroke="black" points="633,-908.5 763,-908.5 "/>
<text text-anchor="start" x="641" y="-896.5" font-family="Helvetica,sans-Serif" font-size="10.00"># _data</text>
<text text-anchor="start" x="641" y="-885.5" font-family="Helvetica,sans-Serif" font-size="10.00"># _ramType</text>
<text text-anchor="start" x="641" y="-874.5" font-family="Helvetica,sans-Serif" font-size="10.00"># _ramName</text>
<polyline fill="none" stroke="black" points="633,-867.5 763,-867.5 "/>
<text text-anchor="start" x="641" y="-855.5" font-family="Helvetica,sans-Serif" font-size="10.00">+ Ram()</text>
<text text-anchor="start" x="641" y="-844.5" font-family="Helvetica,sans-Serif" font-size="10.00">+ Ram()</text>
<text text-anchor="start" x="641" y="-833.5" font-family="Helvetica,sans-Serif" font-size="10.00">+ operator=()</text>
<text text-anchor="start" x="641" y="-822.5" font-family="Helvetica,sans-Serif" font-size="10.00">+ ~Ram()</text>
<text text-anchor="start" x="641" y="-811.5" font-family="Helvetica,sans-Serif" font-size="10.00">+ read()</text>
<text text-anchor="start" x="641" y="-800.5" font-family="Helvetica,sans-Serif" font-size="10.00">+ write()</text>
<text text-anchor="start" x="641" y="-789.5" font-family="Helvetica,sans-Serif" font-size="10.00">+ operator[]()</text>
<text text-anchor="start" x="641" y="-778.5" font-family="Helvetica,sans-Serif" font-size="10.00">+ operator[]()</text>
<text text-anchor="start" x="641" y="-767.5" font-family="Helvetica,sans-Serif" font-size="10.00">+ getName()</text>
<text text-anchor="start" x="641" y="-756.5" font-family="Helvetica,sans-Serif" font-size="10.00">+ getComponent()</text>
<text text-anchor="start" x="641" y="-745.5" font-family="Helvetica,sans-Serif" font-size="10.00">+ getSize()</text>
<text text-anchor="start" x="641" y="-734.5" font-family="Helvetica,sans-Serif" font-size="10.00">+ setSize()</text>
<text text-anchor="start" x="641" y="-723.5" font-family="Helvetica,sans-Serif" font-size="10.00">+ getData()</text>
<text text-anchor="start" x="641" y="-712.5" font-family="Helvetica,sans-Serif" font-size="10.00">+ getData()</text>
</a>
</g>
</g>
<!-- Node6&#45;&gt;Node3 -->
<g id="edge5" class="edge">
<title>Node6&#45;&gt;Node3</title>
<path fill="none" stroke="#404040" d="M632.94,-724.13C625.99,-717.17 618.65,-710.67 611,-705 560.79,-667.81 540.82,-668.29 480,-654 439.81,-644.56 335.48,-656.49 283.16,-635.56"/>
<polygon fill="none" stroke="#404040" points="283.01,-635.48 275.87,-636.45 272.23,-630.22 279.38,-629.26 283.01,-635.48"/>
<text text-anchor="middle" x="608" y="-679" font-family="Helvetica,sans-Serif" font-size="10.00"> +vram</text>
<text text-anchor="middle" x="608" y="-668" font-family="Helvetica,sans-Serif" font-size="10.00">+oamram</text>
<text text-anchor="middle" x="608" y="-657" font-family="Helvetica,sans-Serif" font-size="10.00">+cgram</text>
</g>
<!-- Node6&#45;&gt;Node9 -->
<g id="edge12" class="edge">
<title>Node6&#45;&gt;Node9</title>
<path fill="none" stroke="#404040" d="M703.09,-705.25C706.43,-596.58 706.3,-439.05 681,-384 656.51,-330.72 611.17,-283.9 569.55,-248.98"/>
<polygon fill="none" stroke="#404040" points="569.44,-248.89 562.27,-248.17 560.18,-241.26 567.36,-241.99 569.44,-248.89"/>
<text text-anchor="middle" x="724" y="-527.5" font-family="Helvetica,sans-Serif" font-size="10.00"> &#45;_vram</text>
<text text-anchor="middle" x="724" y="-516.5" font-family="Helvetica,sans-Serif" font-size="10.00">&#45;_cgram</text>
</g>
<!-- Node10 -->
<g id="node10" class="node">
<title>Node10</title>
<g id="a_node10"><a xlink:href="classComSquare_1_1PPU_1_1TileRenderer.html" target="_top" xlink:title=" ">
<polygon fill="white" stroke="black" points="768,-413.5 768,-635.5 956,-635.5 956,-413.5 768,-413.5"/>
<text text-anchor="middle" x="862" y="-623.5" font-family="Helvetica,sans-Serif" font-size="10.00">ComSquare::PPU::TileRenderer</text>
<polyline fill="none" stroke="black" points="768,-616.5 956,-616.5 "/>
<text text-anchor="start" x="776" y="-604.5" font-family="Helvetica,sans-Serif" font-size="10.00">+ buffer</text>
<text text-anchor="start" x="776" y="-593.5" font-family="Helvetica,sans-Serif" font-size="10.00">&#45; _bpp</text>
<text text-anchor="start" x="776" y="-582.5" font-family="Helvetica,sans-Serif" font-size="10.00">&#45; _paletteIndex</text>
<text text-anchor="start" x="776" y="-571.5" font-family="Helvetica,sans-Serif" font-size="10.00">&#45; TileByteSizeRow</text>
<polyline fill="none" stroke="black" points="768,-564.5 956,-564.5 "/>
<text text-anchor="start" x="776" y="-552.5" font-family="Helvetica,sans-Serif" font-size="10.00">+ setPaletteIndex()</text>
<text text-anchor="start" x="776" y="-541.5" font-family="Helvetica,sans-Serif" font-size="10.00">+ setBpp()</text>
<text text-anchor="start" x="776" y="-530.5" font-family="Helvetica,sans-Serif" font-size="10.00">+ getBpp()</text>
<text text-anchor="start" x="776" y="-519.5" font-family="Helvetica,sans-Serif" font-size="10.00">+ getPaletteIndex()</text>
<text text-anchor="start" x="776" y="-508.5" font-family="Helvetica,sans-Serif" font-size="10.00">+ getPixelReferenceFromTile()</text>
<text text-anchor="start" x="776" y="-497.5" font-family="Helvetica,sans-Serif" font-size="10.00">+ getPixelReferenceFromTileRow()</text>
<text text-anchor="start" x="776" y="-486.5" font-family="Helvetica,sans-Serif" font-size="10.00">+ getPalette()</text>
<text text-anchor="start" x="776" y="-475.5" font-family="Helvetica,sans-Serif" font-size="10.00">+ read2BPPValue()</text>
<text text-anchor="start" x="776" y="-464.5" font-family="Helvetica,sans-Serif" font-size="10.00">+ render()</text>
<text text-anchor="start" x="776" y="-453.5" font-family="Helvetica,sans-Serif" font-size="10.00">+ TileRenderer()</text>
<text text-anchor="start" x="776" y="-442.5" font-family="Helvetica,sans-Serif" font-size="10.00">+ TileRenderer()</text>
<text text-anchor="start" x="776" y="-431.5" font-family="Helvetica,sans-Serif" font-size="10.00">+ ~TileRenderer()</text>
<text text-anchor="start" x="776" y="-420.5" font-family="Helvetica,sans-Serif" font-size="10.00">+ operator=()</text>
</a>
</g>
</g>
<!-- Node6&#45;&gt;Node10 -->
<g id="edge11" class="edge">
<title>Node6&#45;&gt;Node10</title>
<path fill="none" stroke="#404040" d="M760.24,-705.45C771.14,-686.16 782.55,-666 793.61,-646.44"/>
<polygon fill="none" stroke="#404040" points="793.63,-646.4 793.1,-639.21 799.54,-635.96 800.06,-643.15 793.63,-646.4"/>
<text text-anchor="middle" x="804" y="-673.5" font-family="Helvetica,sans-Serif" font-size="10.00"> &#45;_ram</text>
<text text-anchor="middle" x="804" y="-662.5" font-family="Helvetica,sans-Serif" font-size="10.00">&#45;_cgram</text>
</g>
<!-- Node7&#45;&gt;Node6 -->
<g id="edge6" class="edge">
<title>Node7&#45;&gt;Node6</title>
<path fill="none" stroke="midnightblue" d="M659.53,-1067.54C666.01,-1025.41 674.02,-973.38 681.05,-927.71"/>
<polygon fill="none" stroke="midnightblue" points="656.06,-1067.06 658,-1077.48 662.98,-1068.13 656.06,-1067.06"/>
</g>
<!-- Node8 -->
<g id="node8" class="node">
<title>Node8</title>
<g id="a_node8"><a xlink:href="classComSquare_1_1Renderer_1_1IRenderer.html" target="_top" xlink:title=" ">
<polygon fill="white" stroke="black" points="143.5,-760.5 143.5,-872.5 266.5,-872.5 266.5,-760.5 143.5,-760.5"/>
<text text-anchor="start" x="151.5" y="-860.5" font-family="Helvetica,sans-Serif" font-size="10.00">ComSquare::Renderer</text>
<text text-anchor="middle" x="205" y="-849.5" font-family="Helvetica,sans-Serif" font-size="10.00">::IRenderer</text>
<polyline fill="none" stroke="black" points="143.5,-842.5 266.5,-842.5 "/>
<text text-anchor="middle" x="205" y="-830.5" font-family="Helvetica,sans-Serif" font-size="10.00"> </text>
<polyline fill="none" stroke="black" points="143.5,-823.5 266.5,-823.5 "/>
<text text-anchor="start" x="151.5" y="-811.5" font-family="Helvetica,sans-Serif" font-size="10.00">+ setWindowName()</text>
<text text-anchor="start" x="151.5" y="-800.5" font-family="Helvetica,sans-Serif" font-size="10.00">+ drawScreen()</text>
<text text-anchor="start" x="151.5" y="-789.5" font-family="Helvetica,sans-Serif" font-size="10.00">+ putPixel()</text>
<text text-anchor="start" x="151.5" y="-778.5" font-family="Helvetica,sans-Serif" font-size="10.00">+ createWindow()</text>
<text text-anchor="start" x="151.5" y="-767.5" font-family="Helvetica,sans-Serif" font-size="10.00">+ playAudio()</text>
</a>
</g>
</g>
<!-- Node8&#45;&gt;Node3 -->
<g id="edge8" class="edge">
<title>Node8&#45;&gt;Node3</title>
<path fill="none" stroke="#404040" d="M205,-760.27C205,-728.4 205,-686.99 205,-647.84"/>
<polygon fill="none" stroke="#404040" points="205,-647.77 201,-641.77 205,-635.77 209,-641.77 205,-647.77"/>
<text text-anchor="middle" x="232" y="-668" font-family="Helvetica,sans-Serif" font-size="10.00"> &#45;_renderer</text>
</g>
<!-- Node9&#45;&gt;Node3 -->
<g id="edge9" class="edge">
<title>Node9&#45;&gt;Node3</title>
<path fill="none" stroke="#404040" d="M395.97,-272.21C359.1,-313.61 316.09,-364.44 281,-413 280.45,-413.76 279.9,-414.52 279.35,-415.29"/>
<polygon fill="none" stroke="#404040" points="279.08,-415.66 278.85,-422.87 272.1,-425.42 272.34,-418.21 279.08,-415.66"/>
<text text-anchor="middle" x="338.5" y="-387" font-family="Helvetica,sans-Serif" font-size="10.00"> &#45;_backgrounds</text>
</g>
<!-- Node10&#45;&gt;Node9 -->
<g id="edge10" class="edge">
<title>Node10&#45;&gt;Node9</title>
<path fill="none" stroke="#404040" d="M767.92,-426.92C763.22,-422.2 758.56,-417.54 754,-413 740.85,-399.92 737.87,-396.31 724,-384 674.21,-339.84 616.57,-292.77 569.6,-255.4"/>
<polygon fill="none" stroke="#404040" points="569.45,-255.28 562.27,-254.68 560.06,-247.82 567.24,-248.42 569.45,-255.28"/>
<text text-anchor="middle" x="771.5" y="-387" font-family="Helvetica,sans-Serif" font-size="10.00"> &#45;_tileRenderer</text>
</g>
<!-- Node11 -->
<g id="node11" class="node">
<title>Node11</title>
<g id="a_node11"><a xlink:href="classComSquare_1_1Vector2.html" target="_top" xlink:title=" ">
<polygon fill="white" stroke="black" points="290,-413.5 290,-635.5 406,-635.5 406,-413.5 290,-413.5"/>
<text text-anchor="start" x="298" y="-623.5" font-family="Helvetica,sans-Serif" font-size="10.00">ComSquare::Vector2</text>
<text text-anchor="middle" x="348" y="-612.5" font-family="Helvetica,sans-Serif" font-size="10.00">&lt; unsigned &gt;</text>
<polyline fill="none" stroke="black" points="290,-605.5 406,-605.5 "/>
<text text-anchor="start" x="298" y="-593.5" font-family="Helvetica,sans-Serif" font-size="10.00">+ x</text>
<text text-anchor="start" x="298" y="-582.5" font-family="Helvetica,sans-Serif" font-size="10.00">+ y</text>
<polyline fill="none" stroke="black" points="290,-575.5 406,-575.5 "/>
<text text-anchor="start" x="298" y="-563.5" font-family="Helvetica,sans-Serif" font-size="10.00">+ Vector2()</text>
<text text-anchor="start" x="298" y="-552.5" font-family="Helvetica,sans-Serif" font-size="10.00">+ Vector2()</text>
<text text-anchor="start" x="298" y="-541.5" font-family="Helvetica,sans-Serif" font-size="10.00">+ Vector2()</text>
<text text-anchor="start" x="298" y="-530.5" font-family="Helvetica,sans-Serif" font-size="10.00">+ operator+=()</text>
<text text-anchor="start" x="298" y="-519.5" font-family="Helvetica,sans-Serif" font-size="10.00">+ operator+()</text>
<text text-anchor="start" x="298" y="-508.5" font-family="Helvetica,sans-Serif" font-size="10.00">+ operator&#45;=()</text>
<text text-anchor="start" x="298" y="-497.5" font-family="Helvetica,sans-Serif" font-size="10.00">+ operator&#45;()</text>
<text text-anchor="start" x="298" y="-486.5" font-family="Helvetica,sans-Serif" font-size="10.00">+ operator*=()</text>
<text text-anchor="start" x="298" y="-475.5" font-family="Helvetica,sans-Serif" font-size="10.00">+ operator*()</text>
<text text-anchor="start" x="298" y="-464.5" font-family="Helvetica,sans-Serif" font-size="10.00">+ operator*()</text>
<text text-anchor="start" x="298" y="-453.5" font-family="Helvetica,sans-Serif" font-size="10.00">+ operator/=()</text>
<text text-anchor="start" x="298" y="-442.5" font-family="Helvetica,sans-Serif" font-size="10.00">+ operator/=()</text>
<text text-anchor="start" x="298" y="-431.5" font-family="Helvetica,sans-Serif" font-size="10.00">+ operator/()</text>
<text text-anchor="start" x="298" y="-420.5" font-family="Helvetica,sans-Serif" font-size="10.00">+ operator/()</text>
</a>
</g>
</g>
<!-- Node11&#45;&gt;Node9 -->
<g id="edge13" class="edge">
<title>Node11&#45;&gt;Node9</title>
<path fill="none" stroke="#404040" d="M375.29,-413.28C378.34,-403.31 381.59,-393.42 385,-384 387.08,-378.24 389.27,-372.42 391.54,-366.57"/>
<polygon fill="none" stroke="#404040" points="391.59,-366.44 390.07,-359.39 396,-355.28 397.51,-362.33 391.59,-366.44"/>
<text text-anchor="middle" x="429.5" y="-387" font-family="Helvetica,sans-Serif" font-size="10.00"> +backgroundSize</text>
</g>
<!-- Node12 -->
<g id="node12" class="node">
<title>Node12</title>
<g id="a_node12"><a xlink:href="classComSquare_1_1Vector2.html" target="_top" xlink:title=" ">
<polygon fill="white" stroke="black" points="424,-413.5 424,-635.5 540,-635.5 540,-413.5 424,-413.5"/>
<text text-anchor="start" x="432" y="-623.5" font-family="Helvetica,sans-Serif" font-size="10.00">ComSquare::Vector2</text>
<text text-anchor="middle" x="482" y="-612.5" font-family="Helvetica,sans-Serif" font-size="10.00">&lt; int &gt;</text>
<polyline fill="none" stroke="black" points="424,-605.5 540,-605.5 "/>
<text text-anchor="start" x="432" y="-593.5" font-family="Helvetica,sans-Serif" font-size="10.00">+ x</text>
<text text-anchor="start" x="432" y="-582.5" font-family="Helvetica,sans-Serif" font-size="10.00">+ y</text>
<polyline fill="none" stroke="black" points="424,-575.5 540,-575.5 "/>
<text text-anchor="start" x="432" y="-563.5" font-family="Helvetica,sans-Serif" font-size="10.00">+ Vector2()</text>
<text text-anchor="start" x="432" y="-552.5" font-family="Helvetica,sans-Serif" font-size="10.00">+ Vector2()</text>
<text text-anchor="start" x="432" y="-541.5" font-family="Helvetica,sans-Serif" font-size="10.00">+ Vector2()</text>
<text text-anchor="start" x="432" y="-530.5" font-family="Helvetica,sans-Serif" font-size="10.00">+ operator+=()</text>
<text text-anchor="start" x="432" y="-519.5" font-family="Helvetica,sans-Serif" font-size="10.00">+ operator+()</text>
<text text-anchor="start" x="432" y="-508.5" font-family="Helvetica,sans-Serif" font-size="10.00">+ operator&#45;=()</text>
<text text-anchor="start" x="432" y="-497.5" font-family="Helvetica,sans-Serif" font-size="10.00">+ operator&#45;()</text>
<text text-anchor="start" x="432" y="-486.5" font-family="Helvetica,sans-Serif" font-size="10.00">+ operator*=()</text>
<text text-anchor="start" x="432" y="-475.5" font-family="Helvetica,sans-Serif" font-size="10.00">+ operator*()</text>
<text text-anchor="start" x="432" y="-464.5" font-family="Helvetica,sans-Serif" font-size="10.00">+ operator*()</text>
<text text-anchor="start" x="432" y="-453.5" font-family="Helvetica,sans-Serif" font-size="10.00">+ operator/=()</text>
<text text-anchor="start" x="432" y="-442.5" font-family="Helvetica,sans-Serif" font-size="10.00">+ operator/=()</text>
<text text-anchor="start" x="432" y="-431.5" font-family="Helvetica,sans-Serif" font-size="10.00">+ operator/()</text>
<text text-anchor="start" x="432" y="-420.5" font-family="Helvetica,sans-Serif" font-size="10.00">+ operator/()</text>
</a>
</g>
</g>
<!-- Node12&#45;&gt;Node9 -->
<g id="edge14" class="edge">
<title>Node12&#45;&gt;Node9</title>
<path fill="none" stroke="#404040" d="M479.3,-413.45C479.18,-407.21 479.08,-401.02 479,-395 478.92,-389.29 478.85,-383.5 478.78,-377.64"/>
<polygon fill="none" stroke="#404040" points="478.78,-377.57 474.71,-371.61 478.64,-365.57 482.71,-371.52 478.78,-377.57"/>
<text text-anchor="middle" x="529" y="-387" font-family="Helvetica,sans-Serif" font-size="10.00"> &#45;_characterNbPixels</text>
</g>
<!-- Node13 -->
<g id="node13" class="node">
<title>Node13</title>
<g id="a_node13"><a xlink:href="classComSquare_1_1Vector2.html" target="_top" xlink:title=" ">
<polygon fill="white" stroke="black" points="558,-413.5 558,-635.5 674,-635.5 674,-413.5 558,-413.5"/>
<text text-anchor="start" x="566" y="-623.5" font-family="Helvetica,sans-Serif" font-size="10.00">ComSquare::Vector2</text>
<text text-anchor="middle" x="616" y="-612.5" font-family="Helvetica,sans-Serif" font-size="10.00">&lt; bool &gt;</text>
<polyline fill="none" stroke="black" points="558,-605.5 674,-605.5 "/>
<text text-anchor="start" x="566" y="-593.5" font-family="Helvetica,sans-Serif" font-size="10.00">+ x</text>
<text text-anchor="start" x="566" y="-582.5" font-family="Helvetica,sans-Serif" font-size="10.00">+ y</text>
<polyline fill="none" stroke="black" points="558,-575.5 674,-575.5 "/>
<text text-anchor="start" x="566" y="-563.5" font-family="Helvetica,sans-Serif" font-size="10.00">+ Vector2()</text>
<text text-anchor="start" x="566" y="-552.5" font-family="Helvetica,sans-Serif" font-size="10.00">+ Vector2()</text>
<text text-anchor="start" x="566" y="-541.5" font-family="Helvetica,sans-Serif" font-size="10.00">+ Vector2()</text>
<text text-anchor="start" x="566" y="-530.5" font-family="Helvetica,sans-Serif" font-size="10.00">+ operator+=()</text>
<text text-anchor="start" x="566" y="-519.5" font-family="Helvetica,sans-Serif" font-size="10.00">+ operator+()</text>
<text text-anchor="start" x="566" y="-508.5" font-family="Helvetica,sans-Serif" font-size="10.00">+ operator&#45;=()</text>
<text text-anchor="start" x="566" y="-497.5" font-family="Helvetica,sans-Serif" font-size="10.00">+ operator&#45;()</text>
<text text-anchor="start" x="566" y="-486.5" font-family="Helvetica,sans-Serif" font-size="10.00">+ operator*=()</text>
<text text-anchor="start" x="566" y="-475.5" font-family="Helvetica,sans-Serif" font-size="10.00">+ operator*()</text>
<text text-anchor="start" x="566" y="-464.5" font-family="Helvetica,sans-Serif" font-size="10.00">+ operator*()</text>
<text text-anchor="start" x="566" y="-453.5" font-family="Helvetica,sans-Serif" font-size="10.00">+ operator/=()</text>
<text text-anchor="start" x="566" y="-442.5" font-family="Helvetica,sans-Serif" font-size="10.00">+ operator/=()</text>
<text text-anchor="start" x="566" y="-431.5" font-family="Helvetica,sans-Serif" font-size="10.00">+ operator/()</text>
<text text-anchor="start" x="566" y="-420.5" font-family="Helvetica,sans-Serif" font-size="10.00">+ operator/()</text>
</a>
</g>
</g>
<!-- Node13&#45;&gt;Node9 -->
<g id="edge15" class="edge">
<title>Node13&#45;&gt;Node9</title>
<path fill="none" stroke="#404040" d="M589.04,-413.16C585.92,-403.21 582.56,-393.37 579,-384 574.7,-372.7 569.96,-361.2 564.95,-349.71"/>
<polygon fill="none" stroke="#404040" points="564.93,-349.68 558.84,-345.82 560.06,-338.71 566.15,-342.57 564.93,-349.68"/>
<text text-anchor="middle" x="630" y="-387" font-family="Helvetica,sans-Serif" font-size="10.00"> &#45;_tileMapMirroring</text>
</g>
<!-- Node14 -->
<g id="node14" class="node">
<title>Node14</title>
<g id="a_node14"><a xlink:href="structComSquare_1_1PPU_1_1Registers.html" target="_top" xlink:title=" ">
<polygon fill="white" stroke="black" points="285,-733 285,-900 435,-900 435,-733 285,-733"/>
<text text-anchor="middle" x="360" y="-888" font-family="Helvetica,sans-Serif" font-size="10.00">ComSquare::PPU::Registers</text>
<polyline fill="none" stroke="black" points="285,-881 435,-881 "/>
<text text-anchor="start" x="293" y="-869" font-family="Helvetica,sans-Serif" font-size="10.00">+ brightness</text>
<text text-anchor="start" x="293" y="-858" font-family="Helvetica,sans-Serif" font-size="10.00">+ _</text>
<text text-anchor="start" x="293" y="-847" font-family="Helvetica,sans-Serif" font-size="10.00">+ fblank</text>
<text text-anchor="start" x="293" y="-836" font-family="Helvetica,sans-Serif" font-size="10.00">+ raw</text>
<text text-anchor="start" x="293" y="-825" font-family="Helvetica,sans-Serif" font-size="10.00">+ _inidisp</text>
<text text-anchor="start" x="293" y="-814" font-family="Helvetica,sans-Serif" font-size="10.00">+ nameBaseSelect</text>
<text text-anchor="start" x="293" y="-803" font-family="Helvetica,sans-Serif" font-size="10.00">+ nameSelect</text>
<text text-anchor="start" x="293" y="-792" font-family="Helvetica,sans-Serif" font-size="10.00">+ objectSize</text>
<text text-anchor="start" x="293" y="-781" font-family="Helvetica,sans-Serif" font-size="10.00">+ _obsel</text>
<text text-anchor="start" x="293" y="-770" font-family="Helvetica,sans-Serif" font-size="10.00">+ oamAddress</text>
<text text-anchor="start" x="293" y="-759" font-family="Helvetica,sans-Serif" font-size="10.00">and 144 more...</text>
<polyline fill="none" stroke="black" points="285,-752 435,-752 "/>
<text text-anchor="middle" x="360" y="-740" font-family="Helvetica,sans-Serif" font-size="10.00"> </text>
</a>
</g>
</g>
<!-- Node14&#45;&gt;Node3 -->
<g id="edge17" class="edge">
<title>Node14&#45;&gt;Node3</title>
<path fill="none" stroke="#404040" d="M315.79,-732.79C301.41,-705.87 285.13,-675.42 269.57,-646.32"/>
<polygon fill="none" stroke="#404040" points="269.54,-646.24 263.18,-642.84 263.88,-635.66 270.23,-639.07 269.54,-646.24"/>
<text text-anchor="middle" x="315.5" y="-668" font-family="Helvetica,sans-Serif" font-size="10.00"> &#45;_registers</text>
</g>
<!-- Node15 -->
<g id="node15" class="node">
<title>Node15</title>
<g id="a_node15"><a xlink:href="structComSquare_1_1PPU_1_1Utils_1_1PpuState.html" target="_top" xlink:title="Struct to save all specific variables needed for the registers (prev values for example)">
<polygon fill="white" stroke="black" points="452.5,-777 452.5,-856 601.5,-856 601.5,-777 452.5,-777"/>
<text text-anchor="start" x="460.5" y="-844" font-family="Helvetica,sans-Serif" font-size="10.00">ComSquare::PPU::Utils</text>
<text text-anchor="middle" x="527" y="-833" font-family="Helvetica,sans-Serif" font-size="10.00">::PpuState</text>
<polyline fill="none" stroke="black" points="452.5,-826 601.5,-826 "/>
<text text-anchor="start" x="460.5" y="-814" font-family="Helvetica,sans-Serif" font-size="10.00">+ hvSharedScrollPrevValue</text>
<text text-anchor="start" x="460.5" y="-803" font-family="Helvetica,sans-Serif" font-size="10.00">+ hScrollPrevValue</text>
<polyline fill="none" stroke="black" points="452.5,-796 601.5,-796 "/>
<text text-anchor="middle" x="527" y="-784" font-family="Helvetica,sans-Serif" font-size="10.00"> </text>
</a>
</g>
</g>
<!-- Node15&#45;&gt;Node3 -->
<g id="edge18" class="edge">
<title>Node15&#45;&gt;Node3</title>
<path fill="none" stroke="#404040" d="M504.08,-776.77C489.1,-753.83 467.93,-725.38 444,-705 406.91,-673.42 392.32,-671.85 347,-654 321.69,-644.03 308.69,-651.58 282.14,-635.72"/>
<polygon fill="none" stroke="#404040" points="282.13,-635.72 274.92,-635.73 272.14,-629.07 279.35,-629.07 282.13,-635.72"/>
<text text-anchor="middle" x="448" y="-668" font-family="Helvetica,sans-Serif" font-size="10.00"> &#45;_ppuState</text>
</g>
</g>
</svg>
