<?xml version="1.0" encoding="UTF-8" standalone="no"?>
<!DOCTYPE svg PUBLIC "-//W3C//DTD SVG 1.1//EN"
 "http://www.w3.org/Graphics/SVG/1.1/DTD/svg11.dtd">
<!-- Generated by graphviz version 2.43.0 (0)
 -->
<!-- Title: ComSquare::Debugger::CPU::RowPainter Pages: 1 -->
<svg width="134pt" height="215pt"
 viewBox="0.00 0.00 134.00 215.00" xmlns="http://www.w3.org/2000/svg" xmlns:xlink="http://www.w3.org/1999/xlink">
<g id="graph0" class="graph" transform="scale(1 1) rotate(0) translate(4 211)">
<title>ComSquare::Debugger::CPU::RowPainter</title>
<polygon fill="white" stroke="transparent" points="-4,4 -4,-211 130,-211 130,4 -4,4"/>
<!-- Node1 -->
<g id="node1" class="node">
<title>Node1</title>
<g id="a_node1"><a xlink:title="The qt class that highlight breakpoints and the PC&#39;s position.">
<polygon fill="#bfbfbf" stroke="black" points="0,-0.5 0,-112.5 126,-112.5 126,-0.5 0,-0.5"/>
<text text-anchor="start" x="8" y="-100.5" font-family="Helvetica,sans-Serif" font-size="10.00">ComSquare::Debugger</text>
<text text-anchor="middle" x="63" y="-89.5" font-family="Helvetica,sans-Serif" font-size="10.00">::CPU::RowPainter</text>
<polyline fill="none" stroke="black" points="0,-82.5 126,-82.5 "/>
<text text-anchor="start" x="8" y="-70.5" font-family="Helvetica,sans-Serif" font-size="10.00">&#45; _cpu</text>
<polyline fill="none" stroke="black" points="0,-63.5 126,-63.5 "/>
<text text-anchor="start" x="8" y="-51.5" font-family="Helvetica,sans-Serif" font-size="10.00">+ RowPainter()</text>
<text text-anchor="start" x="8" y="-40.5" font-family="Helvetica,sans-Serif" font-size="10.00">+ operator=()</text>
<text text-anchor="start" x="8" y="-29.5" font-family="Helvetica,sans-Serif" font-size="10.00">+ ~RowPainter()</text>
<text text-anchor="start" x="8" y="-18.5" font-family="Helvetica,sans-Serif" font-size="10.00"># sizeHint()</text>
<text text-anchor="start" x="8" y="-7.5" font-family="Helvetica,sans-Serif" font-size="10.00"># paint()</text>
</a>
</g>
</g>
<!-- Node2 -->
<g id="node2" class="node">
<title>Node2</title>
<g id="a_node2"><a xlink:title=" ">
<polygon fill="white" stroke="#bfbfbf" points="2,-149.5 2,-206.5 124,-206.5 124,-149.5 2,-149.5"/>
<text text-anchor="middle" x="63" y="-194.5" font-family="Helvetica,sans-Serif" font-size="10.00">QStyledItemDelegate</text>
<polyline fill="none" stroke="#bfbfbf" points="2,-187.5 124,-187.5 "/>
<text text-anchor="middle" x="63" y="-175.5" font-family="Helvetica,sans-Serif" font-size="10.00"> </text>
<polyline fill="none" stroke="#bfbfbf" points="2,-168.5 124,-168.5 "/>
<text text-anchor="middle" x="63" y="-156.5" font-family="Helvetica,sans-Serif" font-size="10.00"> </text>
</a>
</g>
</g>
<!-- Node2&#45;&gt;Node1 -->
<g id="edge1" class="edge">
<title>Node2&#45;&gt;Node1</title>
<path fill="none" stroke="midnightblue" d="M63,-139.11C63,-130.75 63,-121.73 63,-112.83"/>
<polygon fill="none" stroke="midnightblue" points="59.5,-139.28 63,-149.28 66.5,-139.28 59.5,-139.28"/>
</g>
</g>
</svg>
