<?xml version="1.0" encoding="UTF-8" standalone="no"?>
<!DOCTYPE svg PUBLIC "-//W3C//DTD SVG 1.1//EN"
 "http://www.w3.org/Graphics/SVG/1.1/DTD/svg11.dtd">
<!-- Generated by graphviz version 2.43.0 (0)
 -->
<!-- Title: ComSquare::APU::APU Pages: 1 -->
<svg width="1386pt" height="1660pt"
 viewBox="0.00 0.00 1386.37 1660.00" xmlns="http://www.w3.org/2000/svg" xmlns:xlink="http://www.w3.org/1999/xlink">
<g id="graph0" class="graph" transform="scale(1 1) rotate(0) translate(4 1656)">
<title>ComSquare::APU::APU</title>
<polygon fill="white" stroke="transparent" points="-4,4 -4,-1656 1382.37,-1656 1382.37,4 -4,4"/>
<!-- Node1 -->
<g id="node1" class="node">
<title>Node1</title>
<g id="a_node1"><a xlink:title=" ">
<polygon fill="#bfbfbf" stroke="black" points="145.37,-0.5 145.37,-332.5 282.37,-332.5 282.37,-0.5 145.37,-0.5"/>
<text text-anchor="middle" x="213.87" y="-320.5" font-family="Helvetica,sans-Serif" font-size="10.00">ComSquare::APU::APU</text>
<polyline fill="none" stroke="black" points="145.37,-313.5 282.37,-313.5 "/>
<text text-anchor="start" x="153.37" y="-301.5" font-family="Helvetica,sans-Serif" font-size="10.00">+ isDisabled</text>
<text text-anchor="start" x="153.37" y="-290.5" font-family="Helvetica,sans-Serif" font-size="10.00">&#45; _state</text>
<text text-anchor="start" x="153.37" y="-279.5" font-family="Helvetica,sans-Serif" font-size="10.00">&#45; _paddingCycles</text>
<polyline fill="none" stroke="black" points="145.37,-272.5 282.37,-272.5 "/>
<text text-anchor="start" x="153.37" y="-260.5" font-family="Helvetica,sans-Serif" font-size="10.00">+ APU()</text>
<text text-anchor="start" x="153.37" y="-249.5" font-family="Helvetica,sans-Serif" font-size="10.00">+ APU()</text>
<text text-anchor="start" x="153.37" y="-238.5" font-family="Helvetica,sans-Serif" font-size="10.00">+ operator=()</text>
<text text-anchor="start" x="153.37" y="-227.5" font-family="Helvetica,sans-Serif" font-size="10.00">+ ~APU()</text>
<text text-anchor="start" x="153.37" y="-216.5" font-family="Helvetica,sans-Serif" font-size="10.00">+ read()</text>
<text text-anchor="start" x="153.37" y="-205.5" font-family="Helvetica,sans-Serif" font-size="10.00">+ write()</text>
<text text-anchor="start" x="153.37" y="-194.5" font-family="Helvetica,sans-Serif" font-size="10.00">+ getName()</text>
<text text-anchor="start" x="153.37" y="-183.5" font-family="Helvetica,sans-Serif" font-size="10.00">+ getComponent()</text>
<text text-anchor="start" x="153.37" y="-172.5" font-family="Helvetica,sans-Serif" font-size="10.00">+ getValueName()</text>
<text text-anchor="start" x="153.37" y="-161.5" font-family="Helvetica,sans-Serif" font-size="10.00">+ getSize()</text>
<text text-anchor="start" x="153.37" y="-150.5" font-family="Helvetica,sans-Serif" font-size="10.00">+ loadFromSPC()</text>
<text text-anchor="start" x="153.37" y="-139.5" font-family="Helvetica,sans-Serif" font-size="10.00">+ update()</text>
<text text-anchor="start" x="153.37" y="-128.5" font-family="Helvetica,sans-Serif" font-size="10.00">+ reset()</text>
<text text-anchor="start" x="153.37" y="-117.5" font-family="Helvetica,sans-Serif" font-size="10.00">&#45; _internalRead()</text>
<text text-anchor="start" x="153.37" y="-106.5" font-family="Helvetica,sans-Serif" font-size="10.00">&#45; _internalWrite()</text>
<text text-anchor="start" x="153.37" y="-95.5" font-family="Helvetica,sans-Serif" font-size="10.00">&#45; _getImmediateData()</text>
<text text-anchor="start" x="153.37" y="-84.5" font-family="Helvetica,sans-Serif" font-size="10.00">&#45; _getDirectAddr()</text>
<text text-anchor="start" x="153.37" y="-73.5" font-family="Helvetica,sans-Serif" font-size="10.00">&#45; _getIndexXAddr()</text>
<text text-anchor="start" x="153.37" y="-62.5" font-family="Helvetica,sans-Serif" font-size="10.00">&#45; _getIndexYAddr()</text>
<text text-anchor="start" x="153.37" y="-51.5" font-family="Helvetica,sans-Serif" font-size="10.00">&#45; _getDirectAddrByX()</text>
<text text-anchor="start" x="153.37" y="-40.5" font-family="Helvetica,sans-Serif" font-size="10.00">&#45; _getDirectAddrByY()</text>
<text text-anchor="start" x="153.37" y="-29.5" font-family="Helvetica,sans-Serif" font-size="10.00">&#45; _getAbsoluteAddr()</text>
<text text-anchor="start" x="153.37" y="-18.5" font-family="Helvetica,sans-Serif" font-size="10.00">&#45; _getAbsoluteByXAddr()</text>
<text text-anchor="start" x="153.37" y="-7.5" font-family="Helvetica,sans-Serif" font-size="10.00">and 84 more...</text>
</a>
</g>
</g>
<!-- Node2 -->
<g id="node2" class="node">
<title>Node2</title>
<g id="a_node2"><a xlink:href="classComSquare_1_1Memory_1_1AMemory.html" target="_top" xlink:title="Abstract class representing a continuous block of memory.">
<polygon fill="white" stroke="black" points="34.37,-1329 34.37,-1441 165.37,-1441 165.37,-1329 34.37,-1329"/>
<text text-anchor="start" x="42.37" y="-1429" font-family="Helvetica,sans-Serif" font-size="10.00">ComSquare::Memory::</text>
<text text-anchor="middle" x="99.87" y="-1418" font-family="Helvetica,sans-Serif" font-size="10.00">AMemory</text>
<polyline fill="none" stroke="black" points="34.37,-1411 165.37,-1411 "/>
<text text-anchor="start" x="42.37" y="-1399" font-family="Helvetica,sans-Serif" font-size="10.00"># _start</text>
<text text-anchor="start" x="42.37" y="-1388" font-family="Helvetica,sans-Serif" font-size="10.00"># _end</text>
<polyline fill="none" stroke="black" points="34.37,-1381 165.37,-1381 "/>
<text text-anchor="start" x="42.37" y="-1369" font-family="Helvetica,sans-Serif" font-size="10.00">+ getRelativeAddress()</text>
<text text-anchor="start" x="42.37" y="-1358" font-family="Helvetica,sans-Serif" font-size="10.00">+ setMemoryRegion()</text>
<text text-anchor="start" x="42.37" y="-1347" font-family="Helvetica,sans-Serif" font-size="10.00">+ hasMemoryAt()</text>
<text text-anchor="start" x="42.37" y="-1336" font-family="Helvetica,sans-Serif" font-size="10.00">+ ~AMemory()</text>
</a>
</g>
</g>
<!-- Node2&#45;&gt;Node1 -->
<g id="edge1" class="edge">
<title>Node2&#45;&gt;Node1</title>
<path fill="none" stroke="midnightblue" d="M47.38,-1320.65C37.61,-1306.33 28.43,-1290.71 21.87,-1275 2.67,-1229.02 2.87,-1214.33 2.87,-1164.5 2.87,-1164.5 2.87,-1164.5 2.87,-545.5 2.87,-471.46 -8.62,-447.47 21.87,-380 49.73,-318.38 102.17,-262.26 145.22,-223.18"/>
<polygon fill="none" stroke="midnightblue" points="44.57,-1322.74 53.18,-1328.92 50.3,-1318.72 44.57,-1322.74"/>
</g>
<!-- Node8 -->
<g id="node8" class="node">
<title>Node8</title>
<g id="a_node8"><a xlink:href="classComSquare_1_1APU_1_1IPL_1_1IPL.html" target="_top" xlink:title=" ">
<polygon fill="white" stroke="black" points="30.87,-1058 30.87,-1269 170.87,-1269 170.87,-1058 30.87,-1058"/>
<text text-anchor="middle" x="100.87" y="-1257" font-family="Helvetica,sans-Serif" font-size="10.00">ComSquare::APU::IPL::IPL</text>
<polyline fill="none" stroke="black" points="30.87,-1250 170.87,-1250 "/>
<text text-anchor="start" x="38.87" y="-1238" font-family="Helvetica,sans-Serif" font-size="10.00"># _data</text>
<text text-anchor="start" x="38.87" y="-1227" font-family="Helvetica,sans-Serif" font-size="10.00"># _size</text>
<text text-anchor="start" x="38.87" y="-1216" font-family="Helvetica,sans-Serif" font-size="10.00"># _iplType</text>
<text text-anchor="start" x="38.87" y="-1205" font-family="Helvetica,sans-Serif" font-size="10.00"># _iplName</text>
<polyline fill="none" stroke="black" points="30.87,-1198 170.87,-1198 "/>
<text text-anchor="start" x="38.87" y="-1186" font-family="Helvetica,sans-Serif" font-size="10.00">+ IPL()</text>
<text text-anchor="start" x="38.87" y="-1175" font-family="Helvetica,sans-Serif" font-size="10.00">+ IPL()</text>
<text text-anchor="start" x="38.87" y="-1164" font-family="Helvetica,sans-Serif" font-size="10.00">+ operator=()</text>
<text text-anchor="start" x="38.87" y="-1153" font-family="Helvetica,sans-Serif" font-size="10.00">+ ~IPL()</text>
<text text-anchor="start" x="38.87" y="-1142" font-family="Helvetica,sans-Serif" font-size="10.00">+ read()</text>
<text text-anchor="start" x="38.87" y="-1131" font-family="Helvetica,sans-Serif" font-size="10.00">+ write()</text>
<text text-anchor="start" x="38.87" y="-1120" font-family="Helvetica,sans-Serif" font-size="10.00">+ operator[]()</text>
<text text-anchor="start" x="38.87" y="-1109" font-family="Helvetica,sans-Serif" font-size="10.00">+ operator[]()</text>
<text text-anchor="start" x="38.87" y="-1098" font-family="Helvetica,sans-Serif" font-size="10.00">+ getSize()</text>
<text text-anchor="start" x="38.87" y="-1087" font-family="Helvetica,sans-Serif" font-size="10.00">+ getName()</text>
<text text-anchor="start" x="38.87" y="-1076" font-family="Helvetica,sans-Serif" font-size="10.00">+ getComponent()</text>
<text text-anchor="start" x="38.87" y="-1065" font-family="Helvetica,sans-Serif" font-size="10.00">+ getValueName()</text>
</a>
</g>
</g>
<!-- Node2&#45;&gt;Node8 -->
<g id="edge9" class="edge">
<title>Node2&#45;&gt;Node8</title>
<path fill="none" stroke="midnightblue" d="M100.17,-1318.86C100.24,-1303.25 100.32,-1286.19 100.4,-1269.29"/>
<polygon fill="none" stroke="midnightblue" points="96.67,-1318.88 100.13,-1328.89 103.67,-1318.91 96.67,-1318.88"/>
</g>
<!-- Node3 -->
<g id="node3" class="node">
<title>Node3</title>
<g id="a_node3"><a xlink:href="classComSquare_1_1Memory_1_1IMemory.html" target="_top" xlink:title="Common interface implemented by all components mapping memory.">
<polygon fill="white" stroke="black" points="110.37,-1495.5 110.37,-1651.5 241.37,-1651.5 241.37,-1495.5 110.37,-1495.5"/>
<text text-anchor="start" x="118.37" y="-1639.5" font-family="Helvetica,sans-Serif" font-size="10.00">ComSquare::Memory::</text>
<text text-anchor="middle" x="175.87" y="-1628.5" font-family="Helvetica,sans-Serif" font-size="10.00">IMemory</text>
<polyline fill="none" stroke="black" points="110.37,-1621.5 241.37,-1621.5 "/>
<text text-anchor="middle" x="175.87" y="-1609.5" font-family="Helvetica,sans-Serif" font-size="10.00"> </text>
<polyline fill="none" stroke="black" points="110.37,-1602.5 241.37,-1602.5 "/>
<text text-anchor="start" x="118.37" y="-1590.5" font-family="Helvetica,sans-Serif" font-size="10.00">+ read()</text>
<text text-anchor="start" x="118.37" y="-1579.5" font-family="Helvetica,sans-Serif" font-size="10.00">+ write()</text>
<text text-anchor="start" x="118.37" y="-1568.5" font-family="Helvetica,sans-Serif" font-size="10.00">+ hasMemoryAt()</text>
<text text-anchor="start" x="118.37" y="-1557.5" font-family="Helvetica,sans-Serif" font-size="10.00">+ getRelativeAddress()</text>
<text text-anchor="start" x="118.37" y="-1546.5" font-family="Helvetica,sans-Serif" font-size="10.00">+ getSize()</text>
<text text-anchor="start" x="118.37" y="-1535.5" font-family="Helvetica,sans-Serif" font-size="10.00">+ getName()</text>
<text text-anchor="start" x="118.37" y="-1524.5" font-family="Helvetica,sans-Serif" font-size="10.00">+ getComponent()</text>
<text text-anchor="start" x="118.37" y="-1513.5" font-family="Helvetica,sans-Serif" font-size="10.00">+ getValueName()</text>
<text text-anchor="start" x="118.37" y="-1502.5" font-family="Helvetica,sans-Serif" font-size="10.00">+ ~IMemory()</text>
</a>
</g>
</g>
<!-- Node3&#45;&gt;Node2 -->
<g id="edge2" class="edge">
<title>Node3&#45;&gt;Node2</title>
<path fill="none" stroke="midnightblue" d="M140.58,-1485.89C134.39,-1470.7 128.1,-1455.27 122.38,-1441.24"/>
<polygon fill="none" stroke="midnightblue" points="137.4,-1487.36 144.41,-1495.3 143.88,-1484.72 137.4,-1487.36"/>
</g>
<!-- Node7 -->
<g id="node7" class="node">
<title>Node7</title>
<g id="a_node7"><a xlink:href="classComSquare_1_1Memory_1_1ARectangleMemory.html" target="_top" xlink:title="Base memory class to map non continuous rectangle to the memory. (A rectangle that spam across more t...">
<polygon fill="white" stroke="black" points="183.87,-1312.5 183.87,-1457.5 323.87,-1457.5 323.87,-1312.5 183.87,-1312.5"/>
<text text-anchor="start" x="191.87" y="-1445.5" font-family="Helvetica,sans-Serif" font-size="10.00">ComSquare::Memory::</text>
<text text-anchor="middle" x="253.87" y="-1434.5" font-family="Helvetica,sans-Serif" font-size="10.00">ARectangleMemory</text>
<polyline fill="none" stroke="black" points="183.87,-1427.5 323.87,-1427.5 "/>
<text text-anchor="start" x="191.87" y="-1415.5" font-family="Helvetica,sans-Serif" font-size="10.00"># _startBank</text>
<text text-anchor="start" x="191.87" y="-1404.5" font-family="Helvetica,sans-Serif" font-size="10.00"># _endBank</text>
<text text-anchor="start" x="191.87" y="-1393.5" font-family="Helvetica,sans-Serif" font-size="10.00"># _startPage</text>
<text text-anchor="start" x="191.87" y="-1382.5" font-family="Helvetica,sans-Serif" font-size="10.00"># _endPage</text>
<polyline fill="none" stroke="black" points="183.87,-1375.5 323.87,-1375.5 "/>
<text text-anchor="start" x="191.87" y="-1363.5" font-family="Helvetica,sans-Serif" font-size="10.00">+ getRelativeAddress()</text>
<text text-anchor="start" x="191.87" y="-1352.5" font-family="Helvetica,sans-Serif" font-size="10.00">+ hasMemoryAt()</text>
<text text-anchor="start" x="191.87" y="-1341.5" font-family="Helvetica,sans-Serif" font-size="10.00">+ setMemoryRegion()</text>
<text text-anchor="start" x="191.87" y="-1330.5" font-family="Helvetica,sans-Serif" font-size="10.00">+ getValueName()</text>
<text text-anchor="start" x="191.87" y="-1319.5" font-family="Helvetica,sans-Serif" font-size="10.00">+ ~ARectangleMemory()</text>
</a>
</g>
</g>
<!-- Node3&#45;&gt;Node7 -->
<g id="edge7" class="edge">
<title>Node3&#45;&gt;Node7</title>
<path fill="none" stroke="midnightblue" d="M212.09,-1485.92C216.03,-1476.5 220.01,-1466.98 223.86,-1457.76"/>
<polygon fill="none" stroke="midnightblue" points="208.79,-1484.72 208.16,-1495.3 215.25,-1487.42 208.79,-1484.72"/>
</g>
<!-- Node4 -->
<g id="node4" class="node">
<title>Node4</title>
<g id="a_node4"><a xlink:href="structComSquare_1_1APU_1_1InternalRegisters.html" target="_top" xlink:title=" ">
<polygon fill="white" stroke="black" points="31.37,-457.5 31.37,-635.5 174.37,-635.5 174.37,-457.5 31.37,-457.5"/>
<text text-anchor="start" x="39.37" y="-623.5" font-family="Helvetica,sans-Serif" font-size="10.00">ComSquare::APU::Internal</text>
<text text-anchor="middle" x="102.87" y="-612.5" font-family="Helvetica,sans-Serif" font-size="10.00">Registers</text>
<polyline fill="none" stroke="black" points="31.37,-605.5 174.37,-605.5 "/>
<text text-anchor="start" x="39.37" y="-593.5" font-family="Helvetica,sans-Serif" font-size="10.00">+ x</text>
<text text-anchor="start" x="39.37" y="-582.5" font-family="Helvetica,sans-Serif" font-size="10.00">+ a</text>
<text text-anchor="start" x="39.37" y="-571.5" font-family="Helvetica,sans-Serif" font-size="10.00">+ y</text>
<text text-anchor="start" x="39.37" y="-560.5" font-family="Helvetica,sans-Serif" font-size="10.00">+ ya</text>
<text text-anchor="start" x="39.37" y="-549.5" font-family="Helvetica,sans-Serif" font-size="10.00">+ @1</text>
<text text-anchor="start" x="39.37" y="-538.5" font-family="Helvetica,sans-Serif" font-size="10.00">+ sp</text>
<text text-anchor="start" x="39.37" y="-527.5" font-family="Helvetica,sans-Serif" font-size="10.00">+ pcl</text>
<text text-anchor="start" x="39.37" y="-516.5" font-family="Helvetica,sans-Serif" font-size="10.00">+ pch</text>
<text text-anchor="start" x="39.37" y="-505.5" font-family="Helvetica,sans-Serif" font-size="10.00">+ pc</text>
<text text-anchor="start" x="39.37" y="-494.5" font-family="Helvetica,sans-Serif" font-size="10.00">+ @3</text>
<text text-anchor="start" x="39.37" y="-483.5" font-family="Helvetica,sans-Serif" font-size="10.00">and 10 more...</text>
<polyline fill="none" stroke="black" points="31.37,-476.5 174.37,-476.5 "/>
<text text-anchor="middle" x="102.87" y="-464.5" font-family="Helvetica,sans-Serif" font-size="10.00"> </text>
</a>
</g>
</g>
<!-- Node4&#45;&gt;Node1 -->
<g id="edge3" class="edge">
<title>Node4&#45;&gt;Node1</title>
<path fill="none" stroke="#404040" d="M93.53,-457.48C92.46,-423.63 94.37,-384.98 103.87,-351 111.57,-323.46 124.59,-295.88 139.04,-270.78"/>
<polygon fill="none" stroke="#404040" points="139.19,-270.52 138.8,-263.32 145.3,-260.19 145.69,-267.39 139.19,-270.52"/>
<text text-anchor="middle" x="151.87" y="-354" font-family="Helvetica,sans-Serif" font-size="10.00"> &#45;_internalRegisters</text>
</g>
<!-- Node5 -->
<g id="node5" class="node">
<title>Node5</title>
<g id="a_node5"><a xlink:href="structComSquare_1_1APU_1_1MemoryMap.html" target="_top" xlink:title=" ">
<polygon fill="white" stroke="black" points="43.37,-826.5 43.37,-916.5 210.37,-916.5 210.37,-826.5 43.37,-826.5"/>
<text text-anchor="middle" x="126.87" y="-904.5" font-family="Helvetica,sans-Serif" font-size="10.00">ComSquare::APU::MemoryMap</text>
<polyline fill="none" stroke="black" points="43.37,-897.5 210.37,-897.5 "/>
<text text-anchor="middle" x="126.87" y="-885.5" font-family="Helvetica,sans-Serif" font-size="10.00"> </text>
<polyline fill="none" stroke="black" points="43.37,-878.5 210.37,-878.5 "/>
<text text-anchor="start" x="51.37" y="-866.5" font-family="Helvetica,sans-Serif" font-size="10.00">+ MemoryMap()</text>
<text text-anchor="start" x="51.37" y="-855.5" font-family="Helvetica,sans-Serif" font-size="10.00">+ MemoryMap()</text>
<text text-anchor="start" x="51.37" y="-844.5" font-family="Helvetica,sans-Serif" font-size="10.00">+ operator=()</text>
<text text-anchor="start" x="51.37" y="-833.5" font-family="Helvetica,sans-Serif" font-size="10.00">+ ~MemoryMap()</text>
</a>
</g>
</g>
<!-- Node5&#45;&gt;Node1 -->
<g id="edge4" class="edge">
<title>Node5&#45;&gt;Node1</title>
<path fill="none" stroke="#404040" d="M146.41,-826.32C159.18,-795.27 174.92,-752.4 182.87,-713 207.36,-591.68 214.94,-452.33 216.49,-344.84"/>
<polygon fill="none" stroke="#404040" points="216.49,-344.56 212.57,-338.51 216.64,-332.56 220.57,-338.61 216.49,-344.56"/>
<text text-anchor="middle" x="232.87" y="-544" font-family="Helvetica,sans-Serif" font-size="10.00"> &#45;_map</text>
</g>
<!-- Node9 -->
<g id="node9" class="node">
<title>Node9</title>
<g id="a_node9"><a xlink:href="classComSquare_1_1APU_1_1DSP_1_1DSP.html" target="_top" xlink:title=" ">
<polygon fill="white" stroke="black" points="500.87,-380.5 500.87,-712.5 650.87,-712.5 650.87,-380.5 500.87,-380.5"/>
<text text-anchor="middle" x="575.87" y="-700.5" font-family="Helvetica,sans-Serif" font-size="10.00">ComSquare::APU::DSP::DSP</text>
<polyline fill="none" stroke="black" points="500.87,-693.5 650.87,-693.5 "/>
<text text-anchor="start" x="508.87" y="-681.5" font-family="Helvetica,sans-Serif" font-size="10.00">&#45; _rateModulus</text>
<text text-anchor="start" x="508.87" y="-670.5" font-family="Helvetica,sans-Serif" font-size="10.00">&#45; _counterOffset</text>
<text text-anchor="start" x="508.87" y="-659.5" font-family="Helvetica,sans-Serif" font-size="10.00">&#45; _gauss</text>
<text text-anchor="start" x="508.87" y="-648.5" font-family="Helvetica,sans-Serif" font-size="10.00">&#45; _soundBuffer</text>
<text text-anchor="start" x="508.87" y="-637.5" font-family="Helvetica,sans-Serif" font-size="10.00">&#45; _voices</text>
<polyline fill="none" stroke="black" points="500.87,-630.5 650.87,-630.5 "/>
<text text-anchor="start" x="508.87" y="-618.5" font-family="Helvetica,sans-Serif" font-size="10.00">+ DSP()</text>
<text text-anchor="start" x="508.87" y="-607.5" font-family="Helvetica,sans-Serif" font-size="10.00">+ DSP()</text>
<text text-anchor="start" x="508.87" y="-596.5" font-family="Helvetica,sans-Serif" font-size="10.00">+ operator=()</text>
<text text-anchor="start" x="508.87" y="-585.5" font-family="Helvetica,sans-Serif" font-size="10.00">+ ~DSP()</text>
<text text-anchor="start" x="508.87" y="-574.5" font-family="Helvetica,sans-Serif" font-size="10.00">+ getVoices()</text>
<text text-anchor="start" x="508.87" y="-563.5" font-family="Helvetica,sans-Serif" font-size="10.00">+ getMaster()</text>
<text text-anchor="start" x="508.87" y="-552.5" font-family="Helvetica,sans-Serif" font-size="10.00">+ getEcho()</text>
<text text-anchor="start" x="508.87" y="-541.5" font-family="Helvetica,sans-Serif" font-size="10.00">+ getNoise()</text>
<text text-anchor="start" x="508.87" y="-530.5" font-family="Helvetica,sans-Serif" font-size="10.00">+ getBrr()</text>
<text text-anchor="start" x="508.87" y="-519.5" font-family="Helvetica,sans-Serif" font-size="10.00">+ getLatch()</text>
<text text-anchor="start" x="508.87" y="-508.5" font-family="Helvetica,sans-Serif" font-size="10.00">and 7 more...</text>
<text text-anchor="start" x="508.87" y="-497.5" font-family="Helvetica,sans-Serif" font-size="10.00">&#45; voiceOutput()</text>
<text text-anchor="start" x="508.87" y="-486.5" font-family="Helvetica,sans-Serif" font-size="10.00">&#45; voice1()</text>
<text text-anchor="start" x="508.87" y="-475.5" font-family="Helvetica,sans-Serif" font-size="10.00">&#45; voice2()</text>
<text text-anchor="start" x="508.87" y="-464.5" font-family="Helvetica,sans-Serif" font-size="10.00">&#45; voice3()</text>
<text text-anchor="start" x="508.87" y="-453.5" font-family="Helvetica,sans-Serif" font-size="10.00">&#45; voice3a()</text>
<text text-anchor="start" x="508.87" y="-442.5" font-family="Helvetica,sans-Serif" font-size="10.00">&#45; voice3b()</text>
<text text-anchor="start" x="508.87" y="-431.5" font-family="Helvetica,sans-Serif" font-size="10.00">&#45; voice3c()</text>
<text text-anchor="start" x="508.87" y="-420.5" font-family="Helvetica,sans-Serif" font-size="10.00">&#45; voice4()</text>
<text text-anchor="start" x="508.87" y="-409.5" font-family="Helvetica,sans-Serif" font-size="10.00">&#45; voice5()</text>
<text text-anchor="start" x="508.87" y="-398.5" font-family="Helvetica,sans-Serif" font-size="10.00">&#45; voice6()</text>
<text text-anchor="start" x="508.87" y="-387.5" font-family="Helvetica,sans-Serif" font-size="10.00">and 27 more...</text>
</a>
</g>
</g>
<!-- Node5&#45;&gt;Node9 -->
<g id="edge15" class="edge">
<title>Node5&#45;&gt;Node9</title>
<path fill="none" stroke="#404040" d="M158.1,-826.28C174.63,-804.73 196.19,-779.37 218.87,-760 302.79,-688.35 413.89,-626.45 489.73,-588.24"/>
<polygon fill="none" stroke="#404040" points="489.92,-588.14 493.5,-581.88 500.65,-582.77 497.08,-589.03 489.92,-588.14"/>
<text text-anchor="middle" x="271.87" y="-734" font-family="Helvetica,sans-Serif" font-size="10.00"> &#45;_map</text>
</g>
<!-- Node6 -->
<g id="node6" class="node">
<title>Node6</title>
<g id="a_node6"><a xlink:href="classComSquare_1_1Ram_1_1Ram.html" target="_top" xlink:title=" ">
<polygon fill="white" stroke="black" points="188.87,-1052.5 188.87,-1274.5 318.87,-1274.5 318.87,-1052.5 188.87,-1052.5"/>
<text text-anchor="middle" x="253.87" y="-1262.5" font-family="Helvetica,sans-Serif" font-size="10.00">ComSquare::Ram::Ram</text>
<polyline fill="none" stroke="black" points="188.87,-1255.5 318.87,-1255.5 "/>
<text text-anchor="start" x="196.87" y="-1243.5" font-family="Helvetica,sans-Serif" font-size="10.00"># _data</text>
<text text-anchor="start" x="196.87" y="-1232.5" font-family="Helvetica,sans-Serif" font-size="10.00"># _ramType</text>
<text text-anchor="start" x="196.87" y="-1221.5" font-family="Helvetica,sans-Serif" font-size="10.00"># _ramName</text>
<polyline fill="none" stroke="black" points="188.87,-1214.5 318.87,-1214.5 "/>
<text text-anchor="start" x="196.87" y="-1202.5" font-family="Helvetica,sans-Serif" font-size="10.00">+ Ram()</text>
<text text-anchor="start" x="196.87" y="-1191.5" font-family="Helvetica,sans-Serif" font-size="10.00">+ Ram()</text>
<text text-anchor="start" x="196.87" y="-1180.5" font-family="Helvetica,sans-Serif" font-size="10.00">+ operator=()</text>
<text text-anchor="start" x="196.87" y="-1169.5" font-family="Helvetica,sans-Serif" font-size="10.00">+ ~Ram()</text>
<text text-anchor="start" x="196.87" y="-1158.5" font-family="Helvetica,sans-Serif" font-size="10.00">+ read()</text>
<text text-anchor="start" x="196.87" y="-1147.5" font-family="Helvetica,sans-Serif" font-size="10.00">+ write()</text>
<text text-anchor="start" x="196.87" y="-1136.5" font-family="Helvetica,sans-Serif" font-size="10.00">+ operator[]()</text>
<text text-anchor="start" x="196.87" y="-1125.5" font-family="Helvetica,sans-Serif" font-size="10.00">+ operator[]()</text>
<text text-anchor="start" x="196.87" y="-1114.5" font-family="Helvetica,sans-Serif" font-size="10.00">+ getName()</text>
<text text-anchor="start" x="196.87" y="-1103.5" font-family="Helvetica,sans-Serif" font-size="10.00">+ getComponent()</text>
<text text-anchor="start" x="196.87" y="-1092.5" font-family="Helvetica,sans-Serif" font-size="10.00">+ getSize()</text>
<text text-anchor="start" x="196.87" y="-1081.5" font-family="Helvetica,sans-Serif" font-size="10.00">+ setSize()</text>
<text text-anchor="start" x="196.87" y="-1070.5" font-family="Helvetica,sans-Serif" font-size="10.00">+ getData()</text>
<text text-anchor="start" x="196.87" y="-1059.5" font-family="Helvetica,sans-Serif" font-size="10.00">+ getData()</text>
</a>
</g>
</g>
<!-- Node6&#45;&gt;Node5 -->
<g id="edge5" class="edge">
<title>Node6&#45;&gt;Node5</title>
<path fill="none" stroke="#404040" d="M205.68,-1052.45C187,-1009.8 166.44,-962.85 151.01,-927.61"/>
<polygon fill="none" stroke="#404040" points="151,-927.59 144.93,-923.7 146.19,-916.6 152.26,-920.49 151,-927.59"/>
<text text-anchor="middle" x="219.37" y="-1026" font-family="Helvetica,sans-Serif" font-size="10.00"> +Page0</text>
<text text-anchor="middle" x="219.37" y="-1015" font-family="Helvetica,sans-Serif" font-size="10.00">+Page1</text>
<text text-anchor="middle" x="219.37" y="-1004" font-family="Helvetica,sans-Serif" font-size="10.00">+Memory</text>
</g>
<!-- Node7&#45;&gt;Node6 -->
<g id="edge6" class="edge">
<title>Node7&#45;&gt;Node6</title>
<path fill="none" stroke="midnightblue" d="M253.87,-1302.33C253.87,-1293.27 253.87,-1283.93 253.87,-1274.6"/>
<polygon fill="none" stroke="midnightblue" points="250.37,-1302.43 253.87,-1312.43 257.37,-1302.43 250.37,-1302.43"/>
</g>
<!-- Node8&#45;&gt;Node5 -->
<g id="edge8" class="edge">
<title>Node8&#45;&gt;Node5</title>
<path fill="none" stroke="#404040" d="M110.26,-1057.8C114.15,-1014.41 118.51,-965.79 121.79,-929.24"/>
<polygon fill="none" stroke="#404040" points="121.83,-928.79 118.38,-922.46 122.9,-916.84 126.35,-923.17 121.83,-928.79"/>
<text text-anchor="middle" x="127.87" y="-1015" font-family="Helvetica,sans-Serif" font-size="10.00"> +IPL</text>
</g>
<!-- Node9&#45;&gt;Node1 -->
<g id="edge10" class="edge">
<title>Node9&#45;&gt;Node1</title>
<path fill="none" stroke="#404040" d="M500.87,-467.18C439.55,-403.15 353.18,-312.96 291.24,-248.28"/>
<polygon fill="none" stroke="#404040" points="290.96,-248 283.92,-246.43 282.66,-239.33 289.7,-240.9 290.96,-248"/>
<text text-anchor="middle" x="409.87" y="-354" font-family="Helvetica,sans-Serif" font-size="10.00"> &#45;_dsp</text>
</g>
<!-- Node10 -->
<g id="node10" class="node">
<title>Node10</title>
<g id="a_node10"><a xlink:href="structComSquare_1_1APU_1_1DSP_1_1Timer.html" target="_top" xlink:title=" ">
<polygon fill="white" stroke="black" points="228.37,-832 228.37,-911 353.37,-911 353.37,-832 228.37,-832"/>
<text text-anchor="start" x="236.37" y="-899" font-family="Helvetica,sans-Serif" font-size="10.00">ComSquare::APU::DSP</text>
<text text-anchor="middle" x="290.87" y="-888" font-family="Helvetica,sans-Serif" font-size="10.00">::Timer</text>
<polyline fill="none" stroke="black" points="228.37,-881 353.37,-881 "/>
<text text-anchor="start" x="236.37" y="-869" font-family="Helvetica,sans-Serif" font-size="10.00">+ counter</text>
<text text-anchor="start" x="236.37" y="-858" font-family="Helvetica,sans-Serif" font-size="10.00">+ sample</text>
<polyline fill="none" stroke="black" points="228.37,-851 353.37,-851 "/>
<text text-anchor="middle" x="290.87" y="-839" font-family="Helvetica,sans-Serif" font-size="10.00"> </text>
</a>
</g>
</g>
<!-- Node10&#45;&gt;Node9 -->
<g id="edge11" class="edge">
<title>Node10&#45;&gt;Node9</title>
<path fill="none" stroke="#404040" d="M312.92,-831.76C326.05,-809.89 343.66,-782.52 361.87,-760 401.21,-711.36 450.45,-661.83 491.77,-622.84"/>
<polygon fill="none" stroke="#404040" points="491.98,-622.64 493.62,-615.62 500.73,-614.43 499.09,-621.45 491.98,-622.64"/>
<text text-anchor="middle" x="403.37" y="-734" font-family="Helvetica,sans-Serif" font-size="10.00"> &#45;_timer</text>
</g>
<!-- Node11 -->
<g id="node11" class="node">
<title>Node11</title>
<g id="a_node11"><a xlink:href="structComSquare_1_1APU_1_1DSP_1_1State.html" target="_top" xlink:title="Current state of the DSP.">
<polygon fill="white" stroke="black" points="371.37,-821 371.37,-922 496.37,-922 496.37,-821 371.37,-821"/>
<text text-anchor="start" x="379.37" y="-910" font-family="Helvetica,sans-Serif" font-size="10.00">ComSquare::APU::DSP</text>
<text text-anchor="middle" x="433.87" y="-899" font-family="Helvetica,sans-Serif" font-size="10.00">::State</text>
<polyline fill="none" stroke="black" points="371.37,-892 496.37,-892 "/>
<text text-anchor="start" x="379.37" y="-880" font-family="Helvetica,sans-Serif" font-size="10.00">+ voice</text>
<text text-anchor="start" x="379.37" y="-869" font-family="Helvetica,sans-Serif" font-size="10.00">+ buffer</text>
<text text-anchor="start" x="379.37" y="-858" font-family="Helvetica,sans-Serif" font-size="10.00">+ bufferSize</text>
<text text-anchor="start" x="379.37" y="-847" font-family="Helvetica,sans-Serif" font-size="10.00">+ bufferOffset</text>
<polyline fill="none" stroke="black" points="371.37,-840 496.37,-840 "/>
<text text-anchor="start" x="379.37" y="-828" font-family="Helvetica,sans-Serif" font-size="10.00">+ State()</text>
</a>
</g>
</g>
<!-- Node11&#45;&gt;Node9 -->
<g id="edge12" class="edge">
<title>Node11&#45;&gt;Node9</title>
<path fill="none" stroke="#404040" d="M455.75,-820.74C467.49,-794.04 482.74,-759.34 498.42,-723.68"/>
<polygon fill="none" stroke="#404040" points="498.46,-723.58 497.22,-716.48 503.29,-712.6 504.54,-719.7 498.46,-723.58"/>
<text text-anchor="middle" x="511.37" y="-734" font-family="Helvetica,sans-Serif" font-size="10.00"> &#45;_state</text>
</g>
<!-- Node12 -->
<g id="node12" class="node">
<title>Node12</title>
<g id="a_node12"><a xlink:href="classComSquare_1_1Renderer_1_1IRenderer.html" target="_top" xlink:title=" ">
<polygon fill="white" stroke="black" points="514.37,-815.5 514.37,-927.5 637.37,-927.5 637.37,-815.5 514.37,-815.5"/>
<text text-anchor="start" x="522.37" y="-915.5" font-family="Helvetica,sans-Serif" font-size="10.00">ComSquare::Renderer</text>
<text text-anchor="middle" x="575.87" y="-904.5" font-family="Helvetica,sans-Serif" font-size="10.00">::IRenderer</text>
<polyline fill="none" stroke="black" points="514.37,-897.5 637.37,-897.5 "/>
<text text-anchor="middle" x="575.87" y="-885.5" font-family="Helvetica,sans-Serif" font-size="10.00"> </text>
<polyline fill="none" stroke="black" points="514.37,-878.5 637.37,-878.5 "/>
<text text-anchor="start" x="522.37" y="-866.5" font-family="Helvetica,sans-Serif" font-size="10.00">+ setWindowName()</text>
<text text-anchor="start" x="522.37" y="-855.5" font-family="Helvetica,sans-Serif" font-size="10.00">+ drawScreen()</text>
<text text-anchor="start" x="522.37" y="-844.5" font-family="Helvetica,sans-Serif" font-size="10.00">+ putPixel()</text>
<text text-anchor="start" x="522.37" y="-833.5" font-family="Helvetica,sans-Serif" font-size="10.00">+ createWindow()</text>
<text text-anchor="start" x="522.37" y="-822.5" font-family="Helvetica,sans-Serif" font-size="10.00">+ playAudio()</text>
</a>
</g>
</g>
<!-- Node12&#45;&gt;Node9 -->
<g id="edge13" class="edge">
<title>Node12&#45;&gt;Node9</title>
<path fill="none" stroke="#404040" d="M575.87,-815.34C575.87,-789.75 575.87,-757.74 575.87,-724.84"/>
<polygon fill="none" stroke="#404040" points="575.87,-724.69 571.87,-718.69 575.87,-712.69 579.87,-718.69 575.87,-724.69"/>
<text text-anchor="middle" x="602.87" y="-734" font-family="Helvetica,sans-Serif" font-size="10.00"> &#45;_renderer</text>
</g>
<!-- Node13 -->
<g id="node13" class="node">
<title>Node13</title>
<g id="a_node13"><a xlink:href="structComSquare_1_1APU_1_1DSP_1_1Master.html" target="_top" xlink:title=" ">
<polygon fill="white" stroke="black" points="655.37,-815.5 655.37,-927.5 780.37,-927.5 780.37,-815.5 655.37,-815.5"/>
<text text-anchor="start" x="663.37" y="-915.5" font-family="Helvetica,sans-Serif" font-size="10.00">ComSquare::APU::DSP</text>
<text text-anchor="middle" x="717.87" y="-904.5" font-family="Helvetica,sans-Serif" font-size="10.00">::Master</text>
<polyline fill="none" stroke="black" points="655.37,-897.5 780.37,-897.5 "/>
<text text-anchor="start" x="663.37" y="-885.5" font-family="Helvetica,sans-Serif" font-size="10.00">+ volume</text>
<text text-anchor="start" x="663.37" y="-874.5" font-family="Helvetica,sans-Serif" font-size="10.00">+ mute</text>
<text text-anchor="start" x="663.37" y="-863.5" font-family="Helvetica,sans-Serif" font-size="10.00">+ reset</text>
<text text-anchor="start" x="663.37" y="-852.5" font-family="Helvetica,sans-Serif" font-size="10.00">+ output</text>
<text text-anchor="start" x="663.37" y="-841.5" font-family="Helvetica,sans-Serif" font-size="10.00">+ unused</text>
<polyline fill="none" stroke="black" points="655.37,-834.5 780.37,-834.5 "/>
<text text-anchor="middle" x="717.87" y="-822.5" font-family="Helvetica,sans-Serif" font-size="10.00"> </text>
</a>
</g>
</g>
<!-- Node13&#45;&gt;Node9 -->
<g id="edge14" class="edge">
<title>Node13&#45;&gt;Node9</title>
<path fill="none" stroke="#404040" d="M693.62,-815.34C682.27,-789.52 668.05,-757.17 653.46,-723.97"/>
<polygon fill="none" stroke="#404040" points="653.33,-723.68 647.25,-719.79 648.5,-712.69 654.57,-716.57 653.33,-723.68"/>
<text text-anchor="middle" x="682.37" y="-734" font-family="Helvetica,sans-Serif" font-size="10.00"> &#45;_master</text>
</g>
<!-- Node14 -->
<g id="node14" class="node">
<title>Node14</title>
<g id="a_node14"><a xlink:href="structComSquare_1_1APU_1_1DSP_1_1Echo.html" target="_top" xlink:title=" ">
<polygon fill="white" stroke="black" points="798.37,-760.5 798.37,-982.5 923.37,-982.5 923.37,-760.5 798.37,-760.5"/>
<text text-anchor="start" x="806.37" y="-970.5" font-family="Helvetica,sans-Serif" font-size="10.00">ComSquare::APU::DSP</text>
<text text-anchor="middle" x="860.87" y="-959.5" font-family="Helvetica,sans-Serif" font-size="10.00">::Echo</text>
<polyline fill="none" stroke="black" points="798.37,-952.5 923.37,-952.5 "/>
<text text-anchor="start" x="806.37" y="-940.5" font-family="Helvetica,sans-Serif" font-size="10.00">+ volume</text>
<text text-anchor="start" x="806.37" y="-929.5" font-family="Helvetica,sans-Serif" font-size="10.00">+ feedback</text>
<text text-anchor="start" x="806.37" y="-918.5" font-family="Helvetica,sans-Serif" font-size="10.00">+ FIR</text>
<text text-anchor="start" x="806.37" y="-907.5" font-family="Helvetica,sans-Serif" font-size="10.00">+ data</text>
<text text-anchor="start" x="806.37" y="-896.5" font-family="Helvetica,sans-Serif" font-size="10.00">+ offset</text>
<text text-anchor="start" x="806.37" y="-885.5" font-family="Helvetica,sans-Serif" font-size="10.00">+ length</text>
<text text-anchor="start" x="806.37" y="-874.5" font-family="Helvetica,sans-Serif" font-size="10.00">+ delay</text>
<text text-anchor="start" x="806.37" y="-863.5" font-family="Helvetica,sans-Serif" font-size="10.00">+ enabled</text>
<text text-anchor="start" x="806.37" y="-852.5" font-family="Helvetica,sans-Serif" font-size="10.00">+ toggle</text>
<text text-anchor="start" x="806.37" y="-841.5" font-family="Helvetica,sans-Serif" font-size="10.00">+ history</text>
<text text-anchor="start" x="806.37" y="-830.5" font-family="Helvetica,sans-Serif" font-size="10.00">+ historyOffset</text>
<text text-anchor="start" x="806.37" y="-819.5" font-family="Helvetica,sans-Serif" font-size="10.00">+ address</text>
<text text-anchor="start" x="806.37" y="-808.5" font-family="Helvetica,sans-Serif" font-size="10.00">+ value</text>
<text text-anchor="start" x="806.37" y="-797.5" font-family="Helvetica,sans-Serif" font-size="10.00">+ input</text>
<text text-anchor="start" x="806.37" y="-786.5" font-family="Helvetica,sans-Serif" font-size="10.00">+ output</text>
<polyline fill="none" stroke="black" points="798.37,-779.5 923.37,-779.5 "/>
<text text-anchor="middle" x="860.87" y="-767.5" font-family="Helvetica,sans-Serif" font-size="10.00"> </text>
</a>
</g>
</g>
<!-- Node14&#45;&gt;Node9 -->
<g id="edge16" class="edge">
<title>Node14&#45;&gt;Node9</title>
<path fill="none" stroke="#404040" d="M798.18,-767.25C795.49,-764.7 792.72,-762.28 789.87,-760 788.38,-758.81 662.3,-714.26 660.87,-713 660.56,-712.72 660.24,-712.44 659.92,-712.15"/>
<polygon fill="none" stroke="#404040" points="659.66,-711.9 652.57,-710.6 651.05,-703.55 658.14,-704.85 659.66,-711.9"/>
<text text-anchor="middle" x="757.87" y="-734" font-family="Helvetica,sans-Serif" font-size="10.00"> &#45;_echo</text>
</g>
<!-- Node15 -->
<g id="node15" class="node">
<title>Node15</title>
<g id="a_node15"><a xlink:href="structComSquare_1_1APU_1_1DSP_1_1BRR.html" target="_top" xlink:title=" ">
<polygon fill="white" stroke="black" points="941.37,-810 941.37,-933 1092.37,-933 1092.37,-810 941.37,-810"/>
<text text-anchor="middle" x="1016.87" y="-921" font-family="Helvetica,sans-Serif" font-size="10.00">ComSquare::APU::DSP::BRR</text>
<polyline fill="none" stroke="black" points="941.37,-914 1092.37,-914 "/>
<text text-anchor="start" x="949.37" y="-902" font-family="Helvetica,sans-Serif" font-size="10.00">+ offset</text>
<text text-anchor="start" x="949.37" y="-891" font-family="Helvetica,sans-Serif" font-size="10.00">+ offsetAddr</text>
<text text-anchor="start" x="949.37" y="-880" font-family="Helvetica,sans-Serif" font-size="10.00">+ address</text>
<text text-anchor="start" x="949.37" y="-869" font-family="Helvetica,sans-Serif" font-size="10.00">+ nextAddress</text>
<text text-anchor="start" x="949.37" y="-858" font-family="Helvetica,sans-Serif" font-size="10.00">+ value</text>
<text text-anchor="start" x="949.37" y="-847" font-family="Helvetica,sans-Serif" font-size="10.00">+ header</text>
<text text-anchor="start" x="949.37" y="-836" font-family="Helvetica,sans-Serif" font-size="10.00">+ source</text>
<polyline fill="none" stroke="black" points="941.37,-829 1092.37,-829 "/>
<text text-anchor="middle" x="1016.87" y="-817" font-family="Helvetica,sans-Serif" font-size="10.00"> </text>
</a>
</g>
</g>
<!-- Node15&#45;&gt;Node9 -->
<g id="edge17" class="edge">
<title>Node15&#45;&gt;Node9</title>
<path fill="none" stroke="#404040" d="M982.92,-809.8C969.63,-791.14 952.75,-772.3 932.87,-760 874.02,-723.58 848.1,-742.62 779.87,-731 727.14,-722.02 704.31,-744.22 660.87,-713 660.77,-712.92 660.66,-712.85 660.55,-712.77"/>
<polygon fill="none" stroke="#404040" points="660.39,-712.64 653.21,-712.01 651.02,-705.14 658.21,-705.77 660.39,-712.64"/>
<text text-anchor="middle" x="904.87" y="-734" font-family="Helvetica,sans-Serif" font-size="10.00"> &#45;_brr</text>
</g>
<!-- Node16 -->
<g id="node16" class="node">
<title>Node16</title>
<g id="a_node16"><a xlink:href="structComSquare_1_1APU_1_1DSP_1_1Latch.html" target="_top" xlink:title=" ">
<polygon fill="white" stroke="black" points="1110.37,-815.5 1110.37,-927.5 1235.37,-927.5 1235.37,-815.5 1110.37,-815.5"/>
<text text-anchor="start" x="1118.37" y="-915.5" font-family="Helvetica,sans-Serif" font-size="10.00">ComSquare::APU::DSP</text>
<text text-anchor="middle" x="1172.87" y="-904.5" font-family="Helvetica,sans-Serif" font-size="10.00">::Latch</text>
<polyline fill="none" stroke="black" points="1110.37,-897.5 1235.37,-897.5 "/>
<text text-anchor="start" x="1118.37" y="-885.5" font-family="Helvetica,sans-Serif" font-size="10.00">+ adsr1</text>
<text text-anchor="start" x="1118.37" y="-874.5" font-family="Helvetica,sans-Serif" font-size="10.00">+ envx</text>
<text text-anchor="start" x="1118.37" y="-863.5" font-family="Helvetica,sans-Serif" font-size="10.00">+ outx</text>
<text text-anchor="start" x="1118.37" y="-852.5" font-family="Helvetica,sans-Serif" font-size="10.00">+ pitch</text>
<text text-anchor="start" x="1118.37" y="-841.5" font-family="Helvetica,sans-Serif" font-size="10.00">+ output</text>
<polyline fill="none" stroke="black" points="1110.37,-834.5 1235.37,-834.5 "/>
<text text-anchor="middle" x="1172.87" y="-822.5" font-family="Helvetica,sans-Serif" font-size="10.00"> </text>
</a>
</g>
</g>
<!-- Node16&#45;&gt;Node9 -->
<g id="edge18" class="edge">
<title>Node16&#45;&gt;Node9</title>
<path fill="none" stroke="#404040" d="M1149.46,-815.36C1138.04,-794.86 1122.29,-773.37 1101.87,-760 1034.08,-715.61 1002.38,-740.24 921.87,-731 892.99,-727.68 685.15,-728.99 660.87,-713 660.77,-712.93 660.66,-712.86 660.56,-712.79"/>
<polygon fill="none" stroke="#404040" points="660.78,-712.96 653.58,-712.61 651.13,-705.83 658.34,-706.18 660.78,-712.96"/>
<text text-anchor="middle" x="1082.37" y="-734" font-family="Helvetica,sans-Serif" font-size="10.00"> &#45;_latch</text>
</g>
<!-- Node17 -->
<g id="node17" class="node">
<title>Node17</title>
<g id="a_node17"><a xlink:href="structComSquare_1_1APU_1_1DSP_1_1Noise.html" target="_top" xlink:title=" ">
<polygon fill="white" stroke="black" points="1253.37,-832 1253.37,-911 1378.37,-911 1378.37,-832 1253.37,-832"/>
<text text-anchor="start" x="1261.37" y="-899" font-family="Helvetica,sans-Serif" font-size="10.00">ComSquare::APU::DSP</text>
<text text-anchor="middle" x="1315.87" y="-888" font-family="Helvetica,sans-Serif" font-size="10.00">::Noise</text>
<polyline fill="none" stroke="black" points="1253.37,-881 1378.37,-881 "/>
<text text-anchor="start" x="1261.37" y="-869" font-family="Helvetica,sans-Serif" font-size="10.00">+ clock</text>
<text text-anchor="start" x="1261.37" y="-858" font-family="Helvetica,sans-Serif" font-size="10.00">+ lfsr</text>
<polyline fill="none" stroke="black" points="1253.37,-851 1378.37,-851 "/>
<text text-anchor="middle" x="1315.87" y="-839" font-family="Helvetica,sans-Serif" font-size="10.00"> </text>
</a>
</g>
</g>
<!-- Node17&#45;&gt;Node9 -->
<g id="edge19" class="edge">
<title>Node17&#45;&gt;Node9</title>
<path fill="none" stroke="#404040" d="M1300.55,-832C1288.88,-807.65 1270.43,-777.56 1244.87,-760 1192.5,-724.02 1167.94,-738.76 1104.87,-731 1055.87,-724.97 702.48,-739.58 660.87,-713 660.77,-712.93 660.66,-712.86 660.56,-712.8"/>
<polygon fill="none" stroke="#404040" points="660.79,-712.96 653.58,-712.71 651.05,-705.96 658.26,-706.21 660.79,-712.96"/>
<text text-anchor="middle" x="1230.37" y="-734" font-family="Helvetica,sans-Serif" font-size="10.00"> &#45;_noise</text>
</g>
<!-- Node18 -->
<g id="node18" class="node">
<title>Node18</title>
<g id="a_node18"><a xlink:href="structComSquare_1_1APU_1_1Registers.html" target="_top" xlink:title=" ">
<polygon fill="white" stroke="black" points="669.37,-441 669.37,-652 820.37,-652 820.37,-441 669.37,-441"/>
<text text-anchor="middle" x="744.87" y="-640" font-family="Helvetica,sans-Serif" font-size="10.00">ComSquare::APU::Registers</text>
<polyline fill="none" stroke="black" points="669.37,-633 820.37,-633 "/>
<text text-anchor="start" x="677.37" y="-621" font-family="Helvetica,sans-Serif" font-size="10.00">+ unknown</text>
<text text-anchor="start" x="677.37" y="-610" font-family="Helvetica,sans-Serif" font-size="10.00">+ ctrlreg</text>
<text text-anchor="start" x="677.37" y="-599" font-family="Helvetica,sans-Serif" font-size="10.00">+ dspregAddr</text>
<text text-anchor="start" x="677.37" y="-588" font-family="Helvetica,sans-Serif" font-size="10.00">+ port0</text>
<text text-anchor="start" x="677.37" y="-577" font-family="Helvetica,sans-Serif" font-size="10.00">+ port1</text>
<text text-anchor="start" x="677.37" y="-566" font-family="Helvetica,sans-Serif" font-size="10.00">+ port2</text>
<text text-anchor="start" x="677.37" y="-555" font-family="Helvetica,sans-Serif" font-size="10.00">+ port3</text>
<text text-anchor="start" x="677.37" y="-544" font-family="Helvetica,sans-Serif" font-size="10.00">+ regmem1</text>
<text text-anchor="start" x="677.37" y="-533" font-family="Helvetica,sans-Serif" font-size="10.00">+ regmem2</text>
<text text-anchor="start" x="677.37" y="-522" font-family="Helvetica,sans-Serif" font-size="10.00">+ timer0</text>
<text text-anchor="start" x="677.37" y="-511" font-family="Helvetica,sans-Serif" font-size="10.00">+ timer1</text>
<text text-anchor="start" x="677.37" y="-500" font-family="Helvetica,sans-Serif" font-size="10.00">+ timer2</text>
<text text-anchor="start" x="677.37" y="-489" font-family="Helvetica,sans-Serif" font-size="10.00">+ counter0</text>
<text text-anchor="start" x="677.37" y="-478" font-family="Helvetica,sans-Serif" font-size="10.00">+ counter1</text>
<text text-anchor="start" x="677.37" y="-467" font-family="Helvetica,sans-Serif" font-size="10.00">+ counter2</text>
<polyline fill="none" stroke="black" points="669.37,-460 820.37,-460 "/>
<text text-anchor="middle" x="744.87" y="-448" font-family="Helvetica,sans-Serif" font-size="10.00"> </text>
</a>
</g>
</g>
<!-- Node18&#45;&gt;Node1 -->
<g id="edge20" class="edge">
<title>Node18&#45;&gt;Node1</title>
<path fill="none" stroke="#404040" d="M704.26,-440.89C692.33,-418.91 677.61,-397.21 659.87,-380 554.86,-278.07 391.69,-217.61 294.55,-188.63"/>
<polygon fill="none" stroke="#404040" points="294.26,-188.54 287.38,-190.69 282.75,-185.16 289.63,-183.01 294.26,-188.54"/>
<text text-anchor="middle" x="657.37" y="-354" font-family="Helvetica,sans-Serif" font-size="10.00"> &#45;_registers</text>
</g>
</g>
</svg>
