<?xml version="1.0" encoding="UTF-8" standalone="no"?>
<!DOCTYPE svg PUBLIC "-//W3C//DTD SVG 1.1//EN"
 "http://www.w3.org/Graphics/SVG/1.1/DTD/svg11.dtd">
<!-- Generated by graphviz version 2.43.0 (0)
 -->
<!-- Title: ComSquare::CPU::CPU Pages: 1 -->
<svg width="948pt" height="969pt"
 viewBox="0.00 0.00 948.00 969.00" xmlns="http://www.w3.org/2000/svg" xmlns:xlink="http://www.w3.org/1999/xlink">
<g id="graph0" class="graph" transform="scale(1 1) rotate(0) translate(4 965)">
<title>ComSquare::CPU::CPU</title>
<polygon fill="white" stroke="transparent" points="-4,4 -4,-965 944,-965 944,4 -4,4"/>
<!-- Node1 -->
<g id="node1" class="node">
<title>Node1</title>
<g id="a_node1"><a xlink:title="The main CPU.">
<polygon fill="#bfbfbf" stroke="black" points="383.5,-0.5 383.5,-420.5 565.5,-420.5 565.5,-0.5 383.5,-0.5"/>
<text text-anchor="middle" x="474.5" y="-408.5" font-family="Helvetica,sans-Serif" font-size="10.00">ComSquare::CPU::CPU</text>
<polyline fill="none" stroke="black" points="383.5,-401.5 565.5,-401.5 "/>
<text text-anchor="start" x="391.5" y="-389.5" font-family="Helvetica,sans-Serif" font-size="10.00">+ IsNMIRequested</text>
<text text-anchor="start" x="391.5" y="-378.5" font-family="Helvetica,sans-Serif" font-size="10.00">+ IsIRQRequested</text>
<text text-anchor="start" x="391.5" y="-367.5" font-family="Helvetica,sans-Serif" font-size="10.00">+ IsAbortRequested</text>
<text text-anchor="start" x="391.5" y="-356.5" font-family="Helvetica,sans-Serif" font-size="10.00">+ isDisabled</text>
<text text-anchor="start" x="391.5" y="-345.5" font-family="Helvetica,sans-Serif" font-size="10.00">&#45; _isEmulationMode</text>
<text text-anchor="start" x="391.5" y="-334.5" font-family="Helvetica,sans-Serif" font-size="10.00">&#45; _isStopped</text>
<text text-anchor="start" x="391.5" y="-323.5" font-family="Helvetica,sans-Serif" font-size="10.00">&#45; _isWaitingForInterrupt</text>
<text text-anchor="start" x="391.5" y="-312.5" font-family="Helvetica,sans-Serif" font-size="10.00">&#45; _bus</text>
<text text-anchor="start" x="391.5" y="-301.5" font-family="Helvetica,sans-Serif" font-size="10.00">&#45; _dmaChannels</text>
<text text-anchor="start" x="391.5" y="-290.5" font-family="Helvetica,sans-Serif" font-size="10.00">&#45; _hasIndexCrossedPageBoundary</text>
<polyline fill="none" stroke="black" points="383.5,-283.5 565.5,-283.5 "/>
<text text-anchor="start" x="391.5" y="-271.5" font-family="Helvetica,sans-Serif" font-size="10.00">+ getBus()</text>
<text text-anchor="start" x="391.5" y="-260.5" font-family="Helvetica,sans-Serif" font-size="10.00">+ setBus()</text>
<text text-anchor="start" x="391.5" y="-249.5" font-family="Helvetica,sans-Serif" font-size="10.00">+ CPU()</text>
<text text-anchor="start" x="391.5" y="-238.5" font-family="Helvetica,sans-Serif" font-size="10.00">+ CPU()</text>
<text text-anchor="start" x="391.5" y="-227.5" font-family="Helvetica,sans-Serif" font-size="10.00">+ operator=()</text>
<text text-anchor="start" x="391.5" y="-216.5" font-family="Helvetica,sans-Serif" font-size="10.00">+ ~CPU()</text>
<text text-anchor="start" x="391.5" y="-205.5" font-family="Helvetica,sans-Serif" font-size="10.00">+ update()</text>
<text text-anchor="start" x="391.5" y="-194.5" font-family="Helvetica,sans-Serif" font-size="10.00">+ executeInstruction()</text>
<text text-anchor="start" x="391.5" y="-183.5" font-family="Helvetica,sans-Serif" font-size="10.00">+ runDMA()</text>
<text text-anchor="start" x="391.5" y="-172.5" font-family="Helvetica,sans-Serif" font-size="10.00">+ read()</text>
<text text-anchor="start" x="391.5" y="-161.5" font-family="Helvetica,sans-Serif" font-size="10.00">and 6 more...</text>
<text text-anchor="start" x="391.5" y="-150.5" font-family="Helvetica,sans-Serif" font-size="10.00">&#45; _getImmediateAddr8Bits()</text>
<text text-anchor="start" x="391.5" y="-139.5" font-family="Helvetica,sans-Serif" font-size="10.00">&#45; _getImmediateAddr16Bits()</text>
<text text-anchor="start" x="391.5" y="-128.5" font-family="Helvetica,sans-Serif" font-size="10.00">&#45; _getImmediateAddrForA()</text>
<text text-anchor="start" x="391.5" y="-117.5" font-family="Helvetica,sans-Serif" font-size="10.00">&#45; _getImmediateAddrForX()</text>
<text text-anchor="start" x="391.5" y="-106.5" font-family="Helvetica,sans-Serif" font-size="10.00">&#45; _getDirectAddr()</text>
<text text-anchor="start" x="391.5" y="-95.5" font-family="Helvetica,sans-Serif" font-size="10.00">&#45; _getAbsoluteAddr()</text>
<text text-anchor="start" x="391.5" y="-84.5" font-family="Helvetica,sans-Serif" font-size="10.00">&#45; _getAbsoluteLongAddr()</text>
<text text-anchor="start" x="391.5" y="-73.5" font-family="Helvetica,sans-Serif" font-size="10.00">&#45; _getDirectIndirectIndexed</text>
<text text-anchor="start" x="391.5" y="-62.5" font-family="Helvetica,sans-Serif" font-size="10.00">YAddr()</text>
<text text-anchor="start" x="391.5" y="-51.5" font-family="Helvetica,sans-Serif" font-size="10.00">&#45; _getDirectIndirectIndexed</text>
<text text-anchor="start" x="391.5" y="-40.5" font-family="Helvetica,sans-Serif" font-size="10.00">YLongAddr()</text>
<text text-anchor="start" x="391.5" y="-29.5" font-family="Helvetica,sans-Serif" font-size="10.00">&#45; _getDirectIndirectIndexed</text>
<text text-anchor="start" x="391.5" y="-18.5" font-family="Helvetica,sans-Serif" font-size="10.00">XAddr()</text>
<text text-anchor="start" x="391.5" y="-7.5" font-family="Helvetica,sans-Serif" font-size="10.00">and 112 more...</text>
</a>
</g>
</g>
<!-- Node2 -->
<g id="node2" class="node">
<title>Node2</title>
<g id="a_node2"><a xlink:href="classComSquare_1_1Memory_1_1AMemory.html" target="_top" xlink:title="Abstract class representing a continuous block of memory.">
<polygon fill="white" stroke="black" points="0,-540 0,-652 131,-652 131,-540 0,-540"/>
<text text-anchor="start" x="8" y="-640" font-family="Helvetica,sans-Serif" font-size="10.00">ComSquare::Memory::</text>
<text text-anchor="middle" x="65.5" y="-629" font-family="Helvetica,sans-Serif" font-size="10.00">AMemory</text>
<polyline fill="none" stroke="black" points="0,-622 131,-622 "/>
<text text-anchor="start" x="8" y="-610" font-family="Helvetica,sans-Serif" font-size="10.00"># _start</text>
<text text-anchor="start" x="8" y="-599" font-family="Helvetica,sans-Serif" font-size="10.00"># _end</text>
<polyline fill="none" stroke="black" points="0,-592 131,-592 "/>
<text text-anchor="start" x="8" y="-580" font-family="Helvetica,sans-Serif" font-size="10.00">+ getRelativeAddress()</text>
<text text-anchor="start" x="8" y="-569" font-family="Helvetica,sans-Serif" font-size="10.00">+ setMemoryRegion()</text>
<text text-anchor="start" x="8" y="-558" font-family="Helvetica,sans-Serif" font-size="10.00">+ hasMemoryAt()</text>
<text text-anchor="start" x="8" y="-547" font-family="Helvetica,sans-Serif" font-size="10.00">+ ~AMemory()</text>
</a>
</g>
</g>
<!-- Node2&#45;&gt;Node1 -->
<g id="edge1" class="edge">
<title>Node2&#45;&gt;Node1</title>
<path fill="none" stroke="midnightblue" d="M96.53,-530.74C108.38,-509.56 123.04,-486.68 139.5,-468 210.94,-386.95 311.27,-314.14 383.48,-266.99"/>
<polygon fill="none" stroke="midnightblue" points="93.36,-529.24 91.63,-539.69 99.5,-532.6 93.36,-529.24"/>
</g>
<!-- Node3 -->
<g id="node3" class="node">
<title>Node3</title>
<g id="a_node3"><a xlink:href="classComSquare_1_1Memory_1_1IMemory.html" target="_top" xlink:title="Common interface implemented by all components mapping memory.">
<polygon fill="white" stroke="black" points="0,-793.5 0,-949.5 131,-949.5 131,-793.5 0,-793.5"/>
<text text-anchor="start" x="8" y="-937.5" font-family="Helvetica,sans-Serif" font-size="10.00">ComSquare::Memory::</text>
<text text-anchor="middle" x="65.5" y="-926.5" font-family="Helvetica,sans-Serif" font-size="10.00">IMemory</text>
<polyline fill="none" stroke="black" points="0,-919.5 131,-919.5 "/>
<text text-anchor="middle" x="65.5" y="-907.5" font-family="Helvetica,sans-Serif" font-size="10.00"> </text>
<polyline fill="none" stroke="black" points="0,-900.5 131,-900.5 "/>
<text text-anchor="start" x="8" y="-888.5" font-family="Helvetica,sans-Serif" font-size="10.00">+ read()</text>
<text text-anchor="start" x="8" y="-877.5" font-family="Helvetica,sans-Serif" font-size="10.00">+ write()</text>
<text text-anchor="start" x="8" y="-866.5" font-family="Helvetica,sans-Serif" font-size="10.00">+ hasMemoryAt()</text>
<text text-anchor="start" x="8" y="-855.5" font-family="Helvetica,sans-Serif" font-size="10.00">+ getRelativeAddress()</text>
<text text-anchor="start" x="8" y="-844.5" font-family="Helvetica,sans-Serif" font-size="10.00">+ getSize()</text>
<text text-anchor="start" x="8" y="-833.5" font-family="Helvetica,sans-Serif" font-size="10.00">+ getName()</text>
<text text-anchor="start" x="8" y="-822.5" font-family="Helvetica,sans-Serif" font-size="10.00">+ getComponent()</text>
<text text-anchor="start" x="8" y="-811.5" font-family="Helvetica,sans-Serif" font-size="10.00">+ getValueName()</text>
<text text-anchor="start" x="8" y="-800.5" font-family="Helvetica,sans-Serif" font-size="10.00">+ ~IMemory()</text>
</a>
</g>
</g>
<!-- Node3&#45;&gt;Node2 -->
<g id="edge2" class="edge">
<title>Node3&#45;&gt;Node2</title>
<path fill="none" stroke="midnightblue" d="M65.5,-783.07C65.5,-740.21 65.5,-689.89 65.5,-652.39"/>
<polygon fill="none" stroke="midnightblue" points="62,-783.22 65.5,-793.22 69,-783.22 62,-783.22"/>
</g>
<!-- Node4 -->
<g id="node4" class="node">
<title>Node4</title>
<g id="a_node4"><a xlink:href="classComSquare_1_1Callback.html" target="_top" xlink:title="A callback where you can subscribe to and emit it.">
<polygon fill="white" stroke="black" points="149,-518 149,-674 270,-674 270,-518 149,-518"/>
<text text-anchor="start" x="157" y="-662" font-family="Helvetica,sans-Serif" font-size="10.00">ComSquare::Callback</text>
<text text-anchor="middle" x="209.5" y="-651" font-family="Helvetica,sans-Serif" font-size="10.00">&lt; Types &gt;</text>
<polyline fill="none" stroke="black" points="149,-644 270,-644 "/>
<text text-anchor="start" x="157" y="-632" font-family="Helvetica,sans-Serif" font-size="10.00">&#45; _nextID</text>
<text text-anchor="start" x="157" y="-621" font-family="Helvetica,sans-Serif" font-size="10.00">&#45; _functions</text>
<polyline fill="none" stroke="black" points="149,-614 270,-614 "/>
<text text-anchor="start" x="157" y="-602" font-family="Helvetica,sans-Serif" font-size="10.00">+ addCallback()</text>
<text text-anchor="start" x="157" y="-591" font-family="Helvetica,sans-Serif" font-size="10.00">+ removeCallback()</text>
<text text-anchor="start" x="157" y="-580" font-family="Helvetica,sans-Serif" font-size="10.00">+ operator()()</text>
<text text-anchor="start" x="157" y="-569" font-family="Helvetica,sans-Serif" font-size="10.00">+ Callback()</text>
<text text-anchor="start" x="157" y="-558" font-family="Helvetica,sans-Serif" font-size="10.00">+ Callback()</text>
<text text-anchor="start" x="157" y="-547" font-family="Helvetica,sans-Serif" font-size="10.00">+ ~Callback()</text>
<text text-anchor="start" x="157" y="-536" font-family="Helvetica,sans-Serif" font-size="10.00">+ operator=()</text>
<text text-anchor="start" x="157" y="-525" font-family="Helvetica,sans-Serif" font-size="10.00">+ Callback()</text>
</a>
</g>
</g>
<!-- Node4&#45;&gt;Node1 -->
<g id="edge3" class="edge">
<title>Node4&#45;&gt;Node1</title>
<path fill="none" stroke="#404040" d="M249.74,-517.71C259.07,-501.05 269.27,-483.72 279.5,-468 308.94,-422.76 343.88,-375.19 376.01,-333.47"/>
<polygon fill="none" stroke="#404040" points="376.12,-333.32 376.62,-326.13 383.46,-323.83 382.95,-331.02 376.12,-333.32"/>
<text text-anchor="middle" x="320.5" y="-442" font-family="Helvetica,sans-Serif" font-size="10.00"> +onReset</text>
</g>
<!-- Node5 -->
<g id="node5" class="node">
<title>Node5</title>
<g id="a_node5"><a xlink:href="structComSquare_1_1Cartridge_1_1Header.html" target="_top" xlink:title=" ">
<polygon fill="white" stroke="black" points="288.5,-468.5 288.5,-723.5 434.5,-723.5 434.5,-468.5 288.5,-468.5"/>
<text text-anchor="start" x="296.5" y="-711.5" font-family="Helvetica,sans-Serif" font-size="10.00">ComSquare::Cartridge</text>
<text text-anchor="middle" x="361.5" y="-700.5" font-family="Helvetica,sans-Serif" font-size="10.00">::Header</text>
<polyline fill="none" stroke="black" points="288.5,-693.5 434.5,-693.5 "/>
<text text-anchor="start" x="296.5" y="-681.5" font-family="Helvetica,sans-Serif" font-size="10.00">+ gameName</text>
<text text-anchor="start" x="296.5" y="-670.5" font-family="Helvetica,sans-Serif" font-size="10.00">+ mappingMode</text>
<text text-anchor="start" x="296.5" y="-659.5" font-family="Helvetica,sans-Serif" font-size="10.00">+ romType</text>
<text text-anchor="start" x="296.5" y="-648.5" font-family="Helvetica,sans-Serif" font-size="10.00">+ romSize</text>
<text text-anchor="start" x="296.5" y="-637.5" font-family="Helvetica,sans-Serif" font-size="10.00">+ sramSize</text>
<text text-anchor="start" x="296.5" y="-626.5" font-family="Helvetica,sans-Serif" font-size="10.00">+ creatorIDs</text>
<text text-anchor="start" x="296.5" y="-615.5" font-family="Helvetica,sans-Serif" font-size="10.00">+ creatorID</text>
<text text-anchor="start" x="296.5" y="-604.5" font-family="Helvetica,sans-Serif" font-size="10.00">+ @21</text>
<text text-anchor="start" x="296.5" y="-593.5" font-family="Helvetica,sans-Serif" font-size="10.00">+ version</text>
<text text-anchor="start" x="296.5" y="-582.5" font-family="Helvetica,sans-Serif" font-size="10.00">+ checksumComplements</text>
<text text-anchor="start" x="296.5" y="-571.5" font-family="Helvetica,sans-Serif" font-size="10.00">+ checksumComplement</text>
<text text-anchor="start" x="296.5" y="-560.5" font-family="Helvetica,sans-Serif" font-size="10.00">+ @23</text>
<text text-anchor="start" x="296.5" y="-549.5" font-family="Helvetica,sans-Serif" font-size="10.00">+ checksums</text>
<text text-anchor="start" x="296.5" y="-538.5" font-family="Helvetica,sans-Serif" font-size="10.00">+ checksum</text>
<text text-anchor="start" x="296.5" y="-527.5" font-family="Helvetica,sans-Serif" font-size="10.00">+ @25</text>
<polyline fill="none" stroke="black" points="288.5,-520.5 434.5,-520.5 "/>
<text text-anchor="start" x="296.5" y="-508.5" font-family="Helvetica,sans-Serif" font-size="10.00">+ Header()</text>
<text text-anchor="start" x="296.5" y="-497.5" font-family="Helvetica,sans-Serif" font-size="10.00">+ Header()</text>
<text text-anchor="start" x="296.5" y="-486.5" font-family="Helvetica,sans-Serif" font-size="10.00">+ operator=()</text>
<text text-anchor="start" x="296.5" y="-475.5" font-family="Helvetica,sans-Serif" font-size="10.00">+ ~Header()</text>
</a>
</g>
</g>
<!-- Node5&#45;&gt;Node1 -->
<g id="edge4" class="edge">
<title>Node5&#45;&gt;Node1</title>
<path fill="none" stroke="#404040" d="M398.81,-468.36C402.25,-456.71 405.79,-444.69 409.38,-432.51"/>
<polygon fill="none" stroke="#404040" points="409.44,-432.3 407.3,-425.41 412.83,-420.78 414.97,-427.67 409.44,-432.3"/>
<text text-anchor="middle" x="451" y="-442" font-family="Helvetica,sans-Serif" font-size="10.00"> &#45;_cartridgeHeader</text>
</g>
<!-- Node6 -->
<g id="node6" class="node">
<title>Node6</title>
<g id="a_node6"><a xlink:href="structComSquare_1_1Cartridge_1_1InterruptVectors.html" target="_top" xlink:title=" ">
<polygon fill="white" stroke="black" points="299.5,-782.5 299.5,-960.5 423.5,-960.5 423.5,-782.5 299.5,-782.5"/>
<text text-anchor="start" x="307.5" y="-948.5" font-family="Helvetica,sans-Serif" font-size="10.00">ComSquare::Cartridge</text>
<text text-anchor="middle" x="361.5" y="-937.5" font-family="Helvetica,sans-Serif" font-size="10.00">::InterruptVectors</text>
<polyline fill="none" stroke="black" points="299.5,-930.5 423.5,-930.5 "/>
<text text-anchor="start" x="307.5" y="-918.5" font-family="Helvetica,sans-Serif" font-size="10.00">+ cop8</text>
<text text-anchor="start" x="307.5" y="-907.5" font-family="Helvetica,sans-Serif" font-size="10.00">+ cop</text>
<text text-anchor="start" x="307.5" y="-896.5" font-family="Helvetica,sans-Serif" font-size="10.00">+ @27</text>
<text text-anchor="start" x="307.5" y="-885.5" font-family="Helvetica,sans-Serif" font-size="10.00">+ brk8</text>
<text text-anchor="start" x="307.5" y="-874.5" font-family="Helvetica,sans-Serif" font-size="10.00">+ brk</text>
<text text-anchor="start" x="307.5" y="-863.5" font-family="Helvetica,sans-Serif" font-size="10.00">+ @29</text>
<text text-anchor="start" x="307.5" y="-852.5" font-family="Helvetica,sans-Serif" font-size="10.00">+ abort8</text>
<text text-anchor="start" x="307.5" y="-841.5" font-family="Helvetica,sans-Serif" font-size="10.00">+ abort</text>
<text text-anchor="start" x="307.5" y="-830.5" font-family="Helvetica,sans-Serif" font-size="10.00">+ @31</text>
<text text-anchor="start" x="307.5" y="-819.5" font-family="Helvetica,sans-Serif" font-size="10.00">+ nmi8</text>
<text text-anchor="start" x="307.5" y="-808.5" font-family="Helvetica,sans-Serif" font-size="10.00">and 8 more...</text>
<polyline fill="none" stroke="black" points="299.5,-801.5 423.5,-801.5 "/>
<text text-anchor="middle" x="361.5" y="-789.5" font-family="Helvetica,sans-Serif" font-size="10.00"> </text>
</a>
</g>
</g>
<!-- Node6&#45;&gt;Node5 -->
<g id="edge5" class="edge">
<title>Node6&#45;&gt;Node5</title>
<path fill="none" stroke="#404040" d="M361.5,-782.46C361.5,-767.52 361.5,-751.7 361.5,-735.84"/>
<polygon fill="none" stroke="#404040" points="361.5,-735.72 357.5,-729.72 361.5,-723.72 365.5,-729.72 361.5,-735.72"/>
<text text-anchor="middle" x="416" y="-756" font-family="Helvetica,sans-Serif" font-size="10.00"> +emulationInterrupts</text>
<text text-anchor="middle" x="416" y="-745" font-family="Helvetica,sans-Serif" font-size="10.00">+nativeInterrupts</text>
</g>
<!-- Node7 -->
<g id="node7" class="node">
<title>Node7</title>
<g id="a_node7"><a xlink:href="structComSquare_1_1CPU_1_1Instruction.html" target="_top" xlink:title="Struct containing basic information about instructions.">
<polygon fill="white" stroke="black" points="453,-545.5 453,-646.5 610,-646.5 610,-545.5 453,-545.5"/>
<text text-anchor="middle" x="531.5" y="-634.5" font-family="Helvetica,sans-Serif" font-size="10.00">ComSquare::CPU::Instruction</text>
<polyline fill="none" stroke="black" points="453,-627.5 610,-627.5 "/>
<text text-anchor="start" x="461" y="-615.5" font-family="Helvetica,sans-Serif" font-size="10.00">+ call</text>
<text text-anchor="start" x="461" y="-604.5" font-family="Helvetica,sans-Serif" font-size="10.00">+ cycleCount</text>
<text text-anchor="start" x="461" y="-593.5" font-family="Helvetica,sans-Serif" font-size="10.00">+ name</text>
<text text-anchor="start" x="461" y="-582.5" font-family="Helvetica,sans-Serif" font-size="10.00">+ addressingMode</text>
<text text-anchor="start" x="461" y="-571.5" font-family="Helvetica,sans-Serif" font-size="10.00">+ size</text>
<polyline fill="none" stroke="black" points="453,-564.5 610,-564.5 "/>
<text text-anchor="middle" x="531.5" y="-552.5" font-family="Helvetica,sans-Serif" font-size="10.00"> </text>
</a>
</g>
</g>
<!-- Node7&#45;&gt;Node1 -->
<g id="edge6" class="edge">
<title>Node7&#45;&gt;Node1</title>
<path fill="none" stroke="#404040" d="M524.11,-545.26C519.66,-515.34 513.65,-474.93 507.36,-432.56"/>
<polygon fill="none" stroke="#404040" points="507.34,-432.44 502.5,-427.09 505.57,-420.57 510.41,-425.91 507.34,-432.44"/>
<text text-anchor="middle" x="544" y="-442" font-family="Helvetica,sans-Serif" font-size="10.00"> +instructions</text>
</g>
<!-- Node8 -->
<g id="node8" class="node">
<title>Node8</title>
<g id="a_node8"><a xlink:href="structComSquare_1_1CPU_1_1InternalRegisters.html" target="_top" xlink:title="Struct containing internal registers of the CPU.">
<polygon fill="white" stroke="black" points="628,-507 628,-685 771,-685 771,-507 628,-507"/>
<text text-anchor="start" x="636" y="-673" font-family="Helvetica,sans-Serif" font-size="10.00">ComSquare::CPU::Internal</text>
<text text-anchor="middle" x="699.5" y="-662" font-family="Helvetica,sans-Serif" font-size="10.00">Registers</text>
<polyline fill="none" stroke="black" points="628,-655 771,-655 "/>
<text text-anchor="start" x="636" y="-643" font-family="Helvetica,sans-Serif" font-size="10.00">+ nmitimen</text>
<text text-anchor="start" x="636" y="-632" font-family="Helvetica,sans-Serif" font-size="10.00">+ wrio</text>
<text text-anchor="start" x="636" y="-621" font-family="Helvetica,sans-Serif" font-size="10.00">+ wrmpya</text>
<text text-anchor="start" x="636" y="-610" font-family="Helvetica,sans-Serif" font-size="10.00">+ wrmpyb</text>
<text text-anchor="start" x="636" y="-599" font-family="Helvetica,sans-Serif" font-size="10.00">+ wrdivl</text>
<text text-anchor="start" x="636" y="-588" font-family="Helvetica,sans-Serif" font-size="10.00">+ wrdivh</text>
<text text-anchor="start" x="636" y="-577" font-family="Helvetica,sans-Serif" font-size="10.00">+ wrdivb</text>
<text text-anchor="start" x="636" y="-566" font-family="Helvetica,sans-Serif" font-size="10.00">+ htimel</text>
<text text-anchor="start" x="636" y="-555" font-family="Helvetica,sans-Serif" font-size="10.00">+ htimeh</text>
<text text-anchor="start" x="636" y="-544" font-family="Helvetica,sans-Serif" font-size="10.00">+ vtimel</text>
<text text-anchor="start" x="636" y="-533" font-family="Helvetica,sans-Serif" font-size="10.00">and 19 more...</text>
<polyline fill="none" stroke="black" points="628,-526 771,-526 "/>
<text text-anchor="middle" x="699.5" y="-514" font-family="Helvetica,sans-Serif" font-size="10.00"> </text>
</a>
</g>
</g>
<!-- Node8&#45;&gt;Node1 -->
<g id="edge7" class="edge">
<title>Node8&#45;&gt;Node1</title>
<path fill="none" stroke="#404040" d="M647.6,-506.54C625.02,-468.06 597.81,-421.67 571.71,-377.19"/>
<polygon fill="none" stroke="#404040" points="571.71,-377.18 565.22,-374.03 565.63,-366.83 572.12,-369.98 571.71,-377.18"/>
<text text-anchor="middle" x="661.5" y="-442" font-family="Helvetica,sans-Serif" font-size="10.00"> &#45;_internalRegisters</text>
</g>
<!-- Node9 -->
<g id="node9" class="node">
<title>Node9</title>
<g id="a_node9"><a xlink:href="structComSquare_1_1CPU_1_1Registers.html" target="_top" xlink:title="Struct containing registers for the main CPU.">
<polygon fill="white" stroke="black" points="789,-512.5 789,-679.5 940,-679.5 940,-512.5 789,-512.5"/>
<text text-anchor="middle" x="864.5" y="-667.5" font-family="Helvetica,sans-Serif" font-size="10.00">ComSquare::CPU::Registers</text>
<polyline fill="none" stroke="black" points="789,-660.5 940,-660.5 "/>
<text text-anchor="start" x="797" y="-648.5" font-family="Helvetica,sans-Serif" font-size="10.00">+ al</text>
<text text-anchor="start" x="797" y="-637.5" font-family="Helvetica,sans-Serif" font-size="10.00">+ ah</text>
<text text-anchor="start" x="797" y="-626.5" font-family="Helvetica,sans-Serif" font-size="10.00">+ a</text>
<text text-anchor="start" x="797" y="-615.5" font-family="Helvetica,sans-Serif" font-size="10.00">+ @46</text>
<text text-anchor="start" x="797" y="-604.5" font-family="Helvetica,sans-Serif" font-size="10.00">+ dbr</text>
<text text-anchor="start" x="797" y="-593.5" font-family="Helvetica,sans-Serif" font-size="10.00">+ dl</text>
<text text-anchor="start" x="797" y="-582.5" font-family="Helvetica,sans-Serif" font-size="10.00">+ dh</text>
<text text-anchor="start" x="797" y="-571.5" font-family="Helvetica,sans-Serif" font-size="10.00">+ d</text>
<text text-anchor="start" x="797" y="-560.5" font-family="Helvetica,sans-Serif" font-size="10.00">+ @48</text>
<text text-anchor="start" x="797" y="-549.5" font-family="Helvetica,sans-Serif" font-size="10.00">+ pcl</text>
<text text-anchor="start" x="797" y="-538.5" font-family="Helvetica,sans-Serif" font-size="10.00">and 27 more...</text>
<polyline fill="none" stroke="black" points="789,-531.5 940,-531.5 "/>
<text text-anchor="middle" x="864.5" y="-519.5" font-family="Helvetica,sans-Serif" font-size="10.00"> </text>
</a>
</g>
</g>
<!-- Node9&#45;&gt;Node1 -->
<g id="edge8" class="edge">
<title>Node9&#45;&gt;Node1</title>
<path fill="none" stroke="#404040" d="M814.96,-512.49C804.35,-497.11 792.65,-481.61 780.5,-468 718.81,-398.89 638.14,-332.04 575.11,-283.91"/>
<polygon fill="none" stroke="#404040" points="575.11,-283.91 567.91,-283.47 565.55,-276.65 572.75,-277.1 575.11,-283.91"/>
<text text-anchor="middle" x="786" y="-442" font-family="Helvetica,sans-Serif" font-size="10.00"> &#45;_registers</text>
</g>
</g>
</svg>
