<?xml version="1.0" encoding="UTF-8" standalone="no"?>
<!DOCTYPE svg PUBLIC "-//W3C//DTD SVG 1.1//EN"
 "http://www.w3.org/Graphics/SVG/1.1/DTD/svg11.dtd">
<!-- Generated by graphviz version 2.43.0 (0)
 -->
<!-- Title: ComSquare::Debugger::CPU::StackModel Pages: 1 -->
<svg width="134pt" height="259pt"
 viewBox="0.00 0.00 134.00 259.00" xmlns="http://www.w3.org/2000/svg" xmlns:xlink="http://www.w3.org/1999/xlink">
<g id="graph0" class="graph" transform="scale(1 1) rotate(0) translate(4 255)">
<title>ComSquare::Debugger::CPU::StackModel</title>
<polygon fill="white" stroke="transparent" points="-4,4 -4,-255 130,-255 130,4 -4,4"/>
<!-- Node1 -->
<g id="node1" class="node">
<title>Node1</title>
<g id="a_node1"><a xlink:title="The qt model that show the stack.">
<polygon fill="#bfbfbf" stroke="black" points="0,-0.5 0,-156.5 126,-156.5 126,-0.5 0,-0.5"/>
<text text-anchor="start" x="8" y="-144.5" font-family="Helvetica,sans-Serif" font-size="10.00">ComSquare::Debugger</text>
<text text-anchor="middle" x="63" y="-133.5" font-family="Helvetica,sans-Serif" font-size="10.00">::CPU::StackModel</text>
<polyline fill="none" stroke="black" points="0,-126.5 126,-126.5 "/>
<text text-anchor="start" x="8" y="-114.5" font-family="Helvetica,sans-Serif" font-size="10.00">&#45; _bus</text>
<text text-anchor="start" x="8" y="-103.5" font-family="Helvetica,sans-Serif" font-size="10.00">&#45; _cpu</text>
<polyline fill="none" stroke="black" points="0,-96.5 126,-96.5 "/>
<text text-anchor="start" x="8" y="-84.5" font-family="Helvetica,sans-Serif" font-size="10.00">+ StackModel()</text>
<text text-anchor="start" x="8" y="-73.5" font-family="Helvetica,sans-Serif" font-size="10.00">+ StackModel()</text>
<text text-anchor="start" x="8" y="-62.5" font-family="Helvetica,sans-Serif" font-size="10.00">+ operator=()</text>
<text text-anchor="start" x="8" y="-51.5" font-family="Helvetica,sans-Serif" font-size="10.00">+ ~StackModel()</text>
<text text-anchor="start" x="8" y="-40.5" font-family="Helvetica,sans-Serif" font-size="10.00">+ rowCount()</text>
<text text-anchor="start" x="8" y="-29.5" font-family="Helvetica,sans-Serif" font-size="10.00">+ columnCount()</text>
<text text-anchor="start" x="8" y="-18.5" font-family="Helvetica,sans-Serif" font-size="10.00">+ data()</text>
<text text-anchor="start" x="8" y="-7.5" font-family="Helvetica,sans-Serif" font-size="10.00">+ headerData()</text>
</a>
</g>
</g>
<!-- Node2 -->
<g id="node2" class="node">
<title>Node2</title>
<g id="a_node2"><a xlink:title=" ">
<polygon fill="white" stroke="#bfbfbf" points="3,-193.5 3,-250.5 123,-250.5 123,-193.5 3,-193.5"/>
<text text-anchor="middle" x="63" y="-238.5" font-family="Helvetica,sans-Serif" font-size="10.00">QAbstractTableModel</text>
<polyline fill="none" stroke="#bfbfbf" points="3,-231.5 123,-231.5 "/>
<text text-anchor="middle" x="63" y="-219.5" font-family="Helvetica,sans-Serif" font-size="10.00"> </text>
<polyline fill="none" stroke="#bfbfbf" points="3,-212.5 123,-212.5 "/>
<text text-anchor="middle" x="63" y="-200.5" font-family="Helvetica,sans-Serif" font-size="10.00"> </text>
</a>
</g>
</g>
<!-- Node2&#45;&gt;Node1 -->
<g id="edge1" class="edge">
<title>Node2&#45;&gt;Node1</title>
<path fill="none" stroke="midnightblue" d="M63,-183.34C63,-175.04 63,-165.96 63,-156.74"/>
<polygon fill="none" stroke="midnightblue" points="59.5,-183.38 63,-193.38 66.5,-183.38 59.5,-183.38"/>
</g>
</g>
</svg>
