<?xml version="1.0" encoding="UTF-8" standalone="no"?>
<!DOCTYPE svg PUBLIC "-//W3C//DTD SVG 1.1//EN"
 "http://www.w3.org/Graphics/SVG/1.1/DTD/svg11.dtd">
<!-- Generated by graphviz version 2.43.0 (0)
 -->
<!-- Title: sources/Debugger/ClosableWindow.hpp Pages: 1 -->
<svg width="1822pt" height="240pt"
 viewBox="0.00 0.00 1822.00 240.00" xmlns="http://www.w3.org/2000/svg" xmlns:xlink="http://www.w3.org/1999/xlink">
<g id="graph0" class="graph" transform="scale(1 1) rotate(0) translate(4 236)">
<title>sources/Debugger/ClosableWindow.hpp</title>
<polygon fill="white" stroke="transparent" points="-4,4 -4,-236 1818,-236 1818,4 -4,4"/>
<!-- Node1 -->
<g id="node1" class="node">
<title>Node1</title>
<g id="a_node1"><a xlink:title=" ">
<polygon fill="#bfbfbf" stroke="black" points="993,-201.5 993,-231.5 1142,-231.5 1142,-201.5 993,-201.5"/>
<text text-anchor="start" x="1001" y="-219.5" font-family="Helvetica,sans-Serif" font-size="10.00">sources/Debugger/Closable</text>
<text text-anchor="middle" x="1067.5" y="-208.5" font-family="Helvetica,sans-Serif" font-size="10.00">Window.hpp</text>
</a>
</g>
</g>
<!-- Node2 -->
<g id="node2" class="node">
<title>Node2</title>
<g id="a_node2"><a xlink:href="APUDebug_8hpp.html" target="_top" xlink:title=" ">
<polygon fill="white" stroke="black" points="115.5,-140 115.5,-159 295.5,-159 295.5,-140 115.5,-140"/>
<text text-anchor="middle" x="205.5" y="-147" font-family="Helvetica,sans-Serif" font-size="10.00">sources/Debugger/APUDebug.hpp</text>
</a>
</g>
</g>
<!-- Node1&#45;&gt;Node2 -->
<g id="edge1" class="edge">
<title>Node1&#45;&gt;Node2</title>
<path fill="none" stroke="midnightblue" d="M982.52,-209.61C852.12,-200.5 594.82,-182.23 376.5,-165 350.21,-162.93 321.67,-160.55 295.56,-158.33"/>
<polygon fill="midnightblue" stroke="midnightblue" points="982.61,-213.12 992.83,-210.33 983.1,-206.14 982.61,-213.12"/>
</g>
<!-- Node4 -->
<g id="node4" class="node">
<title>Node4</title>
<g id="a_node4"><a xlink:href="CGramDebug_8hpp.html" target="_top" xlink:title=" ">
<polygon fill="white" stroke="black" points="385.5,-140 385.5,-159 579.5,-159 579.5,-140 385.5,-140"/>
<text text-anchor="middle" x="482.5" y="-147" font-family="Helvetica,sans-Serif" font-size="10.00">sources/Debugger/CGramDebug.hpp</text>
</a>
</g>
</g>
<!-- Node1&#45;&gt;Node4 -->
<g id="edge3" class="edge">
<title>Node1&#45;&gt;Node4</title>
<path fill="none" stroke="midnightblue" d="M982.75,-206.08C868.97,-193.44 668.5,-171.17 559.06,-159.01"/>
<polygon fill="midnightblue" stroke="midnightblue" points="982.49,-209.58 992.82,-207.2 983.26,-202.62 982.49,-209.58"/>
</g>
<!-- Node6 -->
<g id="node6" class="node">
<title>Node6</title>
<g id="a_node6"><a xlink:href="CPUDebug_8hpp.html" target="_top" xlink:title=" ">
<polygon fill="white" stroke="black" points="633.5,-134.5 633.5,-164.5 761.5,-164.5 761.5,-134.5 633.5,-134.5"/>
<text text-anchor="start" x="641.5" y="-152.5" font-family="Helvetica,sans-Serif" font-size="10.00">sources/Debugger/CPU</text>
<text text-anchor="middle" x="697.5" y="-141.5" font-family="Helvetica,sans-Serif" font-size="10.00">/CPUDebug.hpp</text>
</a>
</g>
</g>
<!-- Node1&#45;&gt;Node6 -->
<g id="edge5" class="edge">
<title>Node1&#45;&gt;Node6</title>
<path fill="none" stroke="midnightblue" d="M982.48,-200.56C915.28,-188.76 822.91,-172.53 761.77,-161.79"/>
<polygon fill="midnightblue" stroke="midnightblue" points="982.17,-204.06 992.62,-202.35 983.38,-197.17 982.17,-204.06"/>
</g>
<!-- Node11 -->
<g id="node11" class="node">
<title>Node11</title>
<g id="a_node11"><a xlink:href="HeaderViewer_8hpp.html" target="_top" xlink:title=" ">
<polygon fill="white" stroke="black" points="869,-140 869,-159 1066,-159 1066,-140 869,-140"/>
<text text-anchor="middle" x="967.5" y="-147" font-family="Helvetica,sans-Serif" font-size="10.00">sources/Debugger/HeaderViewer.hpp</text>
</a>
</g>
</g>
<!-- Node1&#45;&gt;Node11 -->
<g id="edge10" class="edge">
<title>Node1&#45;&gt;Node11</title>
<path fill="none" stroke="midnightblue" d="M1037.2,-195.81C1018.29,-183.51 994.89,-168.3 980.59,-159.01"/>
<polygon fill="midnightblue" stroke="midnightblue" points="1035.51,-198.88 1045.8,-201.4 1039.32,-193.01 1035.51,-198.88"/>
</g>
<!-- Node13 -->
<g id="node13" class="node">
<title>Node13</title>
<g id="a_node13"><a xlink:href="MemoryBusDebug_8hpp.html" target="_top" xlink:title=" ">
<polygon fill="white" stroke="black" points="1084.5,-134.5 1084.5,-164.5 1250.5,-164.5 1250.5,-134.5 1084.5,-134.5"/>
<text text-anchor="start" x="1092.5" y="-152.5" font-family="Helvetica,sans-Serif" font-size="10.00">sources/Debugger/MemoryBus</text>
<text text-anchor="middle" x="1167.5" y="-141.5" font-family="Helvetica,sans-Serif" font-size="10.00">Debug.hpp</text>
</a>
</g>
</g>
<!-- Node1&#45;&gt;Node13 -->
<g id="edge12" class="edge">
<title>Node1&#45;&gt;Node13</title>
<path fill="none" stroke="midnightblue" d="M1097.91,-195.73C1113.38,-185.68 1131.83,-173.68 1145.84,-164.58"/>
<polygon fill="midnightblue" stroke="midnightblue" points="1095.68,-193.01 1089.2,-201.4 1099.49,-198.88 1095.68,-193.01"/>
</g>
<!-- Node15 -->
<g id="node15" class="node">
<title>Node15</title>
<g id="a_node15"><a xlink:href="MemoryViewer_8hpp.html" target="_top" xlink:title=" ">
<polygon fill="white" stroke="black" points="1268.5,-140 1268.5,-159 1470.5,-159 1470.5,-140 1268.5,-140"/>
<text text-anchor="middle" x="1369.5" y="-147" font-family="Helvetica,sans-Serif" font-size="10.00">sources/Debugger/MemoryViewer.hpp</text>
</a>
</g>
</g>
<!-- Node1&#45;&gt;Node15 -->
<g id="edge14" class="edge">
<title>Node1&#45;&gt;Node15</title>
<path fill="none" stroke="midnightblue" d="M1142.73,-199.31C1202.07,-186.54 1282.47,-169.23 1329.87,-159.03"/>
<polygon fill="midnightblue" stroke="midnightblue" points="1141.7,-195.95 1132.66,-201.48 1143.17,-202.79 1141.7,-195.95"/>
</g>
<!-- Node17 -->
<g id="node17" class="node">
<title>Node17</title>
<g id="a_node17"><a xlink:href="RegisterViewer_8hpp.html" target="_top" xlink:title=" ">
<polygon fill="white" stroke="black" points="1488.5,-134.5 1488.5,-164.5 1636.5,-164.5 1636.5,-134.5 1488.5,-134.5"/>
<text text-anchor="start" x="1496.5" y="-152.5" font-family="Helvetica,sans-Serif" font-size="10.00">sources/Debugger/Register</text>
<text text-anchor="middle" x="1562.5" y="-141.5" font-family="Helvetica,sans-Serif" font-size="10.00">Viewer.hpp</text>
</a>
</g>
</g>
<!-- Node1&#45;&gt;Node17 -->
<g id="edge16" class="edge">
<title>Node1&#45;&gt;Node17</title>
<path fill="none" stroke="midnightblue" d="M1152.27,-206.39C1235.68,-197.12 1366.6,-181.77 1479.5,-165 1482.39,-164.57 1485.34,-164.12 1488.32,-163.65"/>
<polygon fill="midnightblue" stroke="midnightblue" points="1151.64,-202.94 1142.08,-207.52 1152.41,-209.89 1151.64,-202.94"/>
</g>
<!-- Node19 -->
<g id="node19" class="node">
<title>Node19</title>
<g id="a_node19"><a xlink:href="TileViewer_8hpp.html" target="_top" xlink:title=" ">
<polygon fill="white" stroke="black" points="1655,-134.5 1655,-164.5 1814,-164.5 1814,-134.5 1655,-134.5"/>
<text text-anchor="start" x="1663" y="-152.5" font-family="Helvetica,sans-Serif" font-size="10.00">sources/Debugger/TileViewer</text>
<text text-anchor="middle" x="1734.5" y="-141.5" font-family="Helvetica,sans-Serif" font-size="10.00">/TileViewer.hpp</text>
</a>
</g>
</g>
<!-- Node1&#45;&gt;Node19 -->
<g id="edge18" class="edge">
<title>Node1&#45;&gt;Node19</title>
<path fill="none" stroke="midnightblue" d="M1152.34,-210.07C1265.2,-202.39 1470.79,-186.83 1645.5,-165 1648.61,-164.61 1651.77,-164.2 1654.97,-163.76"/>
<polygon fill="midnightblue" stroke="midnightblue" points="1151.79,-206.6 1142.05,-210.77 1152.26,-213.58 1151.79,-206.6"/>
</g>
<!-- Node3 -->
<g id="node3" class="node">
<title>Node3</title>
<g id="a_node3"><a xlink:href="APUDebug_8cpp.html" target="_top" xlink:title=" ">
<polygon fill="white" stroke="black" points="0,-73 0,-92 179,-92 179,-73 0,-73"/>
<text text-anchor="middle" x="89.5" y="-80" font-family="Helvetica,sans-Serif" font-size="10.00">sources/Debugger/APUDebug.cpp</text>
</a>
</g>
</g>
<!-- Node2&#45;&gt;Node3 -->
<g id="edge2" class="edge">
<title>Node2&#45;&gt;Node3</title>
<path fill="none" stroke="midnightblue" d="M181.03,-134.79C158.04,-121.9 124.34,-103.02 104.9,-92.13"/>
<polygon fill="midnightblue" stroke="midnightblue" points="179.42,-137.9 189.86,-139.73 182.84,-131.79 179.42,-137.9"/>
</g>
<!-- Node5 -->
<g id="node5" class="node">
<title>Node5</title>
<g id="a_node5"><a xlink:href="CGramDebug_8cpp.html" target="_top" xlink:title=" ">
<polygon fill="white" stroke="black" points="197,-73 197,-92 390,-92 390,-73 197,-73"/>
<text text-anchor="middle" x="293.5" y="-80" font-family="Helvetica,sans-Serif" font-size="10.00">sources/Debugger/CGramDebug.cpp</text>
</a>
</g>
</g>
<!-- Node4&#45;&gt;Node5 -->
<g id="edge4" class="edge">
<title>Node4&#45;&gt;Node5</title>
<path fill="none" stroke="midnightblue" d="M447.9,-136.6C410.43,-123.71 351.57,-103.47 318.4,-92.06"/>
<polygon fill="midnightblue" stroke="midnightblue" points="446.81,-139.93 457.4,-139.87 449.08,-133.31 446.81,-139.93"/>
</g>
<!-- Node7 -->
<g id="node7" class="node">
<title>Node7</title>
<g id="a_node7"><a xlink:href="CPUDebug_8cpp.html" target="_top" xlink:title=" ">
<polygon fill="white" stroke="black" points="408.5,-67.5 408.5,-97.5 536.5,-97.5 536.5,-67.5 408.5,-67.5"/>
<text text-anchor="start" x="416.5" y="-85.5" font-family="Helvetica,sans-Serif" font-size="10.00">sources/Debugger/CPU</text>
<text text-anchor="middle" x="472.5" y="-74.5" font-family="Helvetica,sans-Serif" font-size="10.00">/CPUDebug.cpp</text>
</a>
</g>
</g>
<!-- Node6&#45;&gt;Node7 -->
<g id="edge6" class="edge">
<title>Node6&#45;&gt;Node7</title>
<path fill="none" stroke="midnightblue" d="M638.93,-131.58C602.39,-121.02 555.9,-107.59 521.35,-97.61"/>
<polygon fill="midnightblue" stroke="midnightblue" points="638.38,-135.06 648.96,-134.48 640.32,-128.34 638.38,-135.06"/>
</g>
<!-- Node8 -->
<g id="node8" class="node">
<title>Node8</title>
<g id="a_node8"><a xlink:href="Disassembly_8cpp.html" target="_top" xlink:title=" ">
<polygon fill="white" stroke="black" points="554.5,-67.5 554.5,-97.5 682.5,-97.5 682.5,-67.5 554.5,-67.5"/>
<text text-anchor="start" x="562.5" y="-85.5" font-family="Helvetica,sans-Serif" font-size="10.00">sources/Debugger/CPU</text>
<text text-anchor="middle" x="618.5" y="-74.5" font-family="Helvetica,sans-Serif" font-size="10.00">/Disassembly.cpp</text>
</a>
</g>
</g>
<!-- Node6&#45;&gt;Node8 -->
<g id="edge7" class="edge">
<title>Node6&#45;&gt;Node8</title>
<path fill="none" stroke="midnightblue" d="M672.44,-127.88C660.44,-118.01 646.37,-106.43 635.61,-97.58"/>
<polygon fill="midnightblue" stroke="midnightblue" points="670.41,-130.75 680.36,-134.4 674.86,-125.34 670.41,-130.75"/>
</g>
<!-- Node9 -->
<g id="node9" class="node">
<title>Node9</title>
<g id="a_node9"><a xlink:href="WlaDx_8hpp.html" target="_top" xlink:title=" ">
<polygon fill="white" stroke="black" points="701,-67.5 701,-97.5 852,-97.5 852,-67.5 701,-67.5"/>
<text text-anchor="start" x="709" y="-85.5" font-family="Helvetica,sans-Serif" font-size="10.00">sources/Debugger/CPU</text>
<text text-anchor="middle" x="776.5" y="-74.5" font-family="Helvetica,sans-Serif" font-size="10.00">/SymbolLoaders/WlaDx.hpp</text>
</a>
</g>
</g>
<!-- Node6&#45;&gt;Node9 -->
<g id="edge8" class="edge">
<title>Node6&#45;&gt;Node9</title>
<path fill="none" stroke="midnightblue" d="M722.56,-127.88C734.56,-118.01 748.63,-106.43 759.39,-97.58"/>
<polygon fill="midnightblue" stroke="midnightblue" points="720.14,-125.34 714.64,-134.4 724.59,-130.75 720.14,-125.34"/>
</g>
<!-- Node10 -->
<g id="node10" class="node">
<title>Node10</title>
<g id="a_node10"><a xlink:href="WlaDx_8cpp.html" target="_top" xlink:title=" ">
<polygon fill="white" stroke="black" points="701.5,-0.5 701.5,-30.5 851.5,-30.5 851.5,-0.5 701.5,-0.5"/>
<text text-anchor="start" x="709.5" y="-18.5" font-family="Helvetica,sans-Serif" font-size="10.00">sources/Debugger/CPU</text>
<text text-anchor="middle" x="776.5" y="-7.5" font-family="Helvetica,sans-Serif" font-size="10.00">/SymbolLoaders/WlaDx.cpp</text>
</a>
</g>
</g>
<!-- Node9&#45;&gt;Node10 -->
<g id="edge9" class="edge">
<title>Node9&#45;&gt;Node10</title>
<path fill="none" stroke="midnightblue" d="M776.5,-57.11C776.5,-48.15 776.5,-38.32 776.5,-30.58"/>
<polygon fill="midnightblue" stroke="midnightblue" points="773,-57.4 776.5,-67.4 780,-57.4 773,-57.4"/>
</g>
<!-- Node12 -->
<g id="node12" class="node">
<title>Node12</title>
<g id="a_node12"><a xlink:href="HeaderViewer_8cpp.html" target="_top" xlink:title=" ">
<polygon fill="white" stroke="black" points="870.5,-73 870.5,-92 1066.5,-92 1066.5,-73 870.5,-73"/>
<text text-anchor="middle" x="968.5" y="-80" font-family="Helvetica,sans-Serif" font-size="10.00">sources/Debugger/HeaderViewer.cpp</text>
</a>
</g>
</g>
<!-- Node11&#45;&gt;Node12 -->
<g id="edge11" class="edge">
<title>Node11&#45;&gt;Node12</title>
<path fill="none" stroke="midnightblue" d="M967.79,-129.54C967.98,-117.17 968.22,-101.62 968.37,-92.13"/>
<polygon fill="midnightblue" stroke="midnightblue" points="964.29,-129.68 967.63,-139.73 971.29,-129.79 964.29,-129.68"/>
</g>
<!-- Node14 -->
<g id="node14" class="node">
<title>Node14</title>
<g id="a_node14"><a xlink:href="MemoryBusDebug_8cpp.html" target="_top" xlink:title=" ">
<polygon fill="white" stroke="black" points="1084.5,-67.5 1084.5,-97.5 1250.5,-97.5 1250.5,-67.5 1084.5,-67.5"/>
<text text-anchor="start" x="1092.5" y="-85.5" font-family="Helvetica,sans-Serif" font-size="10.00">sources/Debugger/MemoryBus</text>
<text text-anchor="middle" x="1167.5" y="-74.5" font-family="Helvetica,sans-Serif" font-size="10.00">Debug.cpp</text>
</a>
</g>
</g>
<!-- Node13&#45;&gt;Node14 -->
<g id="edge13" class="edge">
<title>Node13&#45;&gt;Node14</title>
<path fill="none" stroke="midnightblue" d="M1167.5,-124.11C1167.5,-115.15 1167.5,-105.32 1167.5,-97.58"/>
<polygon fill="midnightblue" stroke="midnightblue" points="1164,-124.4 1167.5,-134.4 1171,-124.4 1164,-124.4"/>
</g>
<!-- Node16 -->
<g id="node16" class="node">
<title>Node16</title>
<g id="a_node16"><a xlink:href="MemoryViewer_8cpp.html" target="_top" xlink:title=" ">
<polygon fill="white" stroke="black" points="1269,-73 1269,-92 1470,-92 1470,-73 1269,-73"/>
<text text-anchor="middle" x="1369.5" y="-80" font-family="Helvetica,sans-Serif" font-size="10.00">sources/Debugger/MemoryViewer.cpp</text>
</a>
</g>
</g>
<!-- Node15&#45;&gt;Node16 -->
<g id="edge15" class="edge">
<title>Node15&#45;&gt;Node16</title>
<path fill="none" stroke="midnightblue" d="M1369.5,-129.54C1369.5,-117.17 1369.5,-101.62 1369.5,-92.13"/>
<polygon fill="midnightblue" stroke="midnightblue" points="1366,-129.73 1369.5,-139.73 1373,-129.73 1366,-129.73"/>
</g>
<!-- Node18 -->
<g id="node18" class="node">
<title>Node18</title>
<g id="a_node18"><a xlink:href="RegisterViewer_8cpp.html" target="_top" xlink:title=" ">
<polygon fill="white" stroke="black" points="1488.5,-67.5 1488.5,-97.5 1636.5,-97.5 1636.5,-67.5 1488.5,-67.5"/>
<text text-anchor="start" x="1496.5" y="-85.5" font-family="Helvetica,sans-Serif" font-size="10.00">sources/Debugger/Register</text>
<text text-anchor="middle" x="1562.5" y="-74.5" font-family="Helvetica,sans-Serif" font-size="10.00">Viewer.cpp</text>
</a>
</g>
</g>
<!-- Node17&#45;&gt;Node18 -->
<g id="edge17" class="edge">
<title>Node17&#45;&gt;Node18</title>
<path fill="none" stroke="midnightblue" d="M1562.5,-124.11C1562.5,-115.15 1562.5,-105.32 1562.5,-97.58"/>
<polygon fill="midnightblue" stroke="midnightblue" points="1559,-124.4 1562.5,-134.4 1566,-124.4 1559,-124.4"/>
</g>
<!-- Node20 -->
<g id="node20" class="node">
<title>Node20</title>
<g id="a_node20"><a xlink:href="TileViewer_8cpp.html" target="_top" xlink:title=" ">
<polygon fill="white" stroke="black" points="1655,-67.5 1655,-97.5 1814,-97.5 1814,-67.5 1655,-67.5"/>
<text text-anchor="start" x="1663" y="-85.5" font-family="Helvetica,sans-Serif" font-size="10.00">sources/Debugger/TileViewer</text>
<text text-anchor="middle" x="1734.5" y="-74.5" font-family="Helvetica,sans-Serif" font-size="10.00">/TileViewer.cpp</text>
</a>
</g>
</g>
<!-- Node19&#45;&gt;Node20 -->
<g id="edge19" class="edge">
<title>Node19&#45;&gt;Node20</title>
<path fill="none" stroke="midnightblue" d="M1734.5,-124.11C1734.5,-115.15 1734.5,-105.32 1734.5,-97.58"/>
<polygon fill="midnightblue" stroke="midnightblue" points="1731,-124.4 1734.5,-134.4 1738,-124.4 1731,-124.4"/>
</g>
</g>
</svg>
