<?xml version="1.0" encoding="UTF-8" standalone="no"?>
<!DOCTYPE svg PUBLIC "-//W3C//DTD SVG 1.1//EN"
 "http://www.w3.org/Graphics/SVG/1.1/DTD/svg11.dtd">
<!-- Generated by graphviz version 2.43.0 (0)
 -->
<!-- Title: sources/Models/Components.hpp Pages: 1 -->
<svg width="3906pt" height="453pt"
 viewBox="0.00 0.00 3906.00 453.00" xmlns="http://www.w3.org/2000/svg" xmlns:xlink="http://www.w3.org/1999/xlink">
<g id="graph0" class="graph" transform="scale(1 1) rotate(0) translate(4 449)">
<title>sources/Models/Components.hpp</title>
<polygon fill="white" stroke="transparent" points="-4,4 -4,-449 3902,-449 3902,4 -4,4"/>
<!-- Node1 -->
<g id="node1" class="node">
<title>Node1</title>
<g id="a_node1"><a xlink:title=" ">
<polygon fill="#bfbfbf" stroke="black" points="3218.5,-425.5 3218.5,-444.5 3396.5,-444.5 3396.5,-425.5 3218.5,-425.5"/>
<text text-anchor="middle" x="3307.5" y="-432.5" font-family="Helvetica,sans-Serif" font-size="10.00">sources/Models/Components.hpp</text>
</a>
</g>
</g>
<!-- Node2 -->
<g id="node2" class="node">
<title>Node2</title>
<g id="a_node2"><a xlink:href="AMemory_8hpp.html" target="_top" xlink:title=" ">
<polygon fill="white" stroke="black" points="2968,-308 2968,-327 3135,-327 3135,-308 2968,-308"/>
<text text-anchor="middle" x="3051.5" y="-315" font-family="Helvetica,sans-Serif" font-size="10.00">sources/Memory/AMemory.hpp</text>
</a>
</g>
</g>
<!-- Node1&#45;&gt;Node2 -->
<g id="edge1" class="edge">
<title>Node1&#45;&gt;Node2</title>
<path fill="none" stroke="midnightblue" d="M3278.83,-421.06C3226.12,-397.28 3115.17,-347.23 3070.62,-327.12"/>
<polygon fill="midnightblue" stroke="midnightblue" points="3277.7,-424.4 3288.26,-425.32 3280.58,-418.02 3277.7,-424.4"/>
</g>
<!-- Node102 -->
<g id="node48" class="node">
<title>Node102</title>
<g id="a_node48"><a xlink:href="IMemory_8hpp.html" target="_top" xlink:title=" ">
<polygon fill="white" stroke="black" points="3430.5,-369.5 3430.5,-388.5 3594.5,-388.5 3594.5,-369.5 3430.5,-369.5"/>
<text text-anchor="middle" x="3512.5" y="-376.5" font-family="Helvetica,sans-Serif" font-size="10.00">sources/Memory/IMemory.hpp</text>
</a>
</g>
</g>
<!-- Node1&#45;&gt;Node102 -->
<g id="edge64" class="edge">
<title>Node1&#45;&gt;Node102</title>
<path fill="none" stroke="midnightblue" d="M3349.91,-422.83C3388.61,-412.63 3444.99,-397.78 3480.17,-388.52"/>
<polygon fill="midnightblue" stroke="midnightblue" points="3348.76,-419.51 3339.98,-425.44 3350.54,-426.28 3348.76,-419.51"/>
</g>
<!-- Node3 -->
<g id="node3" class="node">
<title>Node3</title>
<g id="a_node3"><a xlink:href="DSP_8hpp.html" target="_top" xlink:title=" ">
<polygon fill="white" stroke="black" points="1092.5,-190.5 1092.5,-209.5 1234.5,-209.5 1234.5,-190.5 1092.5,-190.5"/>
<text text-anchor="middle" x="1163.5" y="-197.5" font-family="Helvetica,sans-Serif" font-size="10.00">sources/APU/DSP/DSP.hpp</text>
</a>
</g>
</g>
<!-- Node2&#45;&gt;Node3 -->
<g id="edge2" class="edge">
<title>Node2&#45;&gt;Node3</title>
<path fill="none" stroke="midnightblue" d="M2957.31,-311.38C2795.28,-302.53 2453.37,-283.6 2164.5,-266 1815.76,-244.75 1398.84,-216.89 1234.79,-205.83"/>
<polygon fill="midnightblue" stroke="midnightblue" points="2957.54,-314.9 2967.72,-311.95 2957.92,-307.91 2957.54,-314.9"/>
</g>
<!-- Node4 -->
<g id="node4" class="node">
<title>Node4</title>
<g id="a_node4"><a xlink:href="APU_8hpp.html" target="_top" xlink:title=" ">
<polygon fill="white" stroke="black" points="2017.5,-129 2017.5,-148 2139.5,-148 2139.5,-129 2017.5,-129"/>
<text text-anchor="middle" x="2078.5" y="-136" font-family="Helvetica,sans-Serif" font-size="10.00">sources/APU/APU.hpp</text>
</a>
</g>
</g>
<!-- Node2&#45;&gt;Node4 -->
<g id="edge39" class="edge">
<title>Node2&#45;&gt;Node4</title>
<path fill="none" stroke="midnightblue" d="M2957.72,-308.95C2814.23,-296.12 2532.22,-265.86 2298.5,-210 2225.16,-192.47 2140.89,-162.67 2101.3,-148.07"/>
<polygon fill="midnightblue" stroke="midnightblue" points="2957.54,-312.45 2967.81,-309.85 2958.16,-305.48 2957.54,-312.45"/>
</g>
<!-- Node65 -->
<g id="node34" class="node">
<title>Node65</title>
<g id="a_node34"><a xlink:href="IPL_8hpp.html" target="_top" xlink:title=" ">
<polygon fill="white" stroke="black" points="2308,-190.5 2308,-209.5 2441,-209.5 2441,-190.5 2308,-190.5"/>
<text text-anchor="middle" x="2374.5" y="-197.5" font-family="Helvetica,sans-Serif" font-size="10.00">sources/APU/IPL/IPL.hpp</text>
</a>
</g>
</g>
<!-- Node2&#45;&gt;Node65 -->
<g id="edge40" class="edge">
<title>Node2&#45;&gt;Node65</title>
<path fill="none" stroke="midnightblue" d="M2991.52,-306.27C2859.76,-283.79 2547.05,-230.44 2424.76,-209.57"/>
<polygon fill="midnightblue" stroke="midnightblue" points="2991,-309.73 3001.44,-307.96 2992.17,-302.83 2991,-309.73"/>
</g>
<!-- Node67 -->
<g id="node36" class="node">
<title>Node67</title>
<g id="a_node36"><a xlink:href="Cartridge_8hpp.html" target="_top" xlink:title=" ">
<polygon fill="white" stroke="black" points="2814,-190.5 2814,-209.5 2985,-209.5 2985,-190.5 2814,-190.5"/>
<text text-anchor="middle" x="2899.5" y="-197.5" font-family="Helvetica,sans-Serif" font-size="10.00">sources/Cartridge/Cartridge.hpp</text>
</a>
</g>
</g>
<!-- Node2&#45;&gt;Node67 -->
<g id="edge43" class="edge">
<title>Node2&#45;&gt;Node67</title>
<path fill="none" stroke="midnightblue" d="M3031.89,-301.6C2999.76,-277.19 2936.93,-229.44 2911.06,-209.78"/>
<polygon fill="midnightblue" stroke="midnightblue" points="3030,-304.56 3040.08,-307.82 3034.23,-298.98 3030,-304.56"/>
</g>
<!-- Node69 -->
<g id="node38" class="node">
<title>Node69</title>
<g id="a_node38"><a xlink:href="CPU_8hpp.html" target="_top" xlink:title=" ">
<polygon fill="white" stroke="red" points="3168.5,-129 3168.5,-148 3290.5,-148 3290.5,-129 3168.5,-129"/>
<text text-anchor="middle" x="3229.5" y="-136" font-family="Helvetica,sans-Serif" font-size="10.00">sources/CPU/CPU.hpp</text>
</a>
</g>
</g>
<!-- Node2&#45;&gt;Node69 -->
<g id="edge53" class="edge">
<title>Node2&#45;&gt;Node69</title>
<path fill="none" stroke="midnightblue" d="M3049.65,-297.36C3048.89,-282.91 3049.18,-262.77 3054.5,-246 3063.44,-217.79 3067.38,-208.47 3090.5,-190 3117.78,-168.21 3155.31,-155.32 3184.49,-148.02"/>
<polygon fill="midnightblue" stroke="midnightblue" points="3046.18,-297.85 3050.42,-307.56 3053.16,-297.33 3046.18,-297.85"/>
</g>
<!-- Node79 -->
<g id="node43" class="node">
<title>Node79</title>
<g id="a_node43"><a xlink:href="MemoryBus_8hpp.html" target="_top" xlink:title=" ">
<polygon fill="white" stroke="red" points="3099.5,-190.5 3099.5,-209.5 3279.5,-209.5 3279.5,-190.5 3099.5,-190.5"/>
<text text-anchor="middle" x="3189.5" y="-197.5" font-family="Helvetica,sans-Serif" font-size="10.00">sources/Memory/MemoryBus.hpp</text>
</a>
</g>
</g>
<!-- Node2&#45;&gt;Node79 -->
<g id="edge54" class="edge">
<title>Node2&#45;&gt;Node79</title>
<path fill="none" stroke="midnightblue" d="M3051.97,-297.89C3053.33,-282.24 3057.62,-260.21 3070.5,-246 3087.78,-226.93 3113.98,-215.9 3137.4,-209.54"/>
<polygon fill="midnightblue" stroke="midnightblue" points="3048.47,-297.78 3051.42,-307.96 3055.46,-298.16 3048.47,-297.78"/>
</g>
<!-- Node88 -->
<g id="node45" class="node">
<title>Node88</title>
<g id="a_node45"><a xlink:href="PPU_8hpp.html" target="_top" xlink:title=" ">
<polygon fill="white" stroke="red" points="3308.5,-129 3308.5,-148 3428.5,-148 3428.5,-129 3308.5,-129"/>
<text text-anchor="middle" x="3368.5" y="-136" font-family="Helvetica,sans-Serif" font-size="10.00">sources/PPU/PPU.hpp</text>
</a>
</g>
</g>
<!-- Node2&#45;&gt;Node88 -->
<g id="edge62" class="edge">
<title>Node2&#45;&gt;Node88</title>
<path fill="none" stroke="midnightblue" d="M3145.27,-313.41C3191.82,-307.89 3246.85,-295.01 3288.5,-266 3332.64,-235.26 3357.7,-171.52 3365.68,-148.25"/>
<polygon fill="midnightblue" stroke="midnightblue" points="3144.73,-309.94 3135.17,-314.5 3145.49,-316.9 3144.73,-309.94"/>
</g>
<!-- Node97 -->
<g id="node46" class="node">
<title>Node97</title>
<g id="a_node46"><a xlink:href="MemoryShadow_8hpp.html" target="_top" xlink:title=" ">
<polygon fill="white" stroke="red" points="3079.5,-246.5 3079.5,-265.5 3279.5,-265.5 3279.5,-246.5 3079.5,-246.5"/>
<text text-anchor="middle" x="3179.5" y="-253.5" font-family="Helvetica,sans-Serif" font-size="10.00">sources/Memory/MemoryShadow.hpp</text>
</a>
</g>
</g>
<!-- Node2&#45;&gt;Node97 -->
<g id="edge60" class="edge">
<title>Node2&#45;&gt;Node97</title>
<path fill="none" stroke="midnightblue" d="M3079.09,-303.67C3103.93,-292.13 3139.73,-275.49 3161.19,-265.51"/>
<polygon fill="midnightblue" stroke="midnightblue" points="3077.43,-300.59 3069.84,-307.98 3080.38,-306.93 3077.43,-300.59"/>
</g>
<!-- Node101 -->
<g id="node47" class="node">
<title>Node101</title>
<g id="a_node47"><a xlink:href="AMemory_8cpp.html" target="_top" xlink:title=" ">
<polygon fill="white" stroke="black" points="3335,-246.5 3335,-265.5 3502,-265.5 3502,-246.5 3335,-246.5"/>
<text text-anchor="middle" x="3418.5" y="-253.5" font-family="Helvetica,sans-Serif" font-size="10.00">sources/Memory/AMemory.cpp</text>
</a>
</g>
</g>
<!-- Node2&#45;&gt;Node101 -->
<g id="edge63" class="edge">
<title>Node2&#45;&gt;Node101</title>
<path fill="none" stroke="midnightblue" d="M3114.23,-306.33C3185.21,-294.82 3299.57,-276.28 3366.02,-265.51"/>
<polygon fill="midnightblue" stroke="midnightblue" points="3113.39,-302.92 3104.08,-307.98 3114.51,-309.83 3113.39,-302.92"/>
</g>
<!-- Node3&#45;&gt;Node4 -->
<g id="edge3" class="edge">
<title>Node3&#45;&gt;Node4</title>
<path fill="none" stroke="midnightblue" d="M1244.77,-193.72C1425.44,-181.97 1857.07,-153.9 2017.28,-143.48"/>
<polygon fill="midnightblue" stroke="midnightblue" points="1244.29,-190.24 1234.54,-194.38 1244.74,-197.22 1244.29,-190.24"/>
</g>
<!-- Node6 -->
<g id="node6" class="node">
<title>Node6</title>
<g id="a_node6"><a xlink:href="DSP_8cpp.html" target="_top" xlink:title=" ">
<polygon fill="white" stroke="black" points="0,-62 0,-81 141,-81 141,-62 0,-62"/>
<text text-anchor="middle" x="70.5" y="-69" font-family="Helvetica,sans-Serif" font-size="10.00">sources/APU/DSP/DSP.cpp</text>
</a>
</g>
</g>
<!-- Node3&#45;&gt;Node6 -->
<g id="edge33" class="edge">
<title>Node3&#45;&gt;Node6</title>
<path fill="none" stroke="midnightblue" d="M1082.19,-195.83C961.92,-190.55 729.68,-178.06 533.5,-154 361.54,-132.91 320.03,-117.53 149.5,-87 138.79,-85.08 127.28,-82.99 116.44,-81"/>
<polygon fill="midnightblue" stroke="midnightblue" points="1082.27,-199.34 1092.41,-196.27 1082.57,-192.34 1082.27,-199.34"/>
</g>
<!-- Node7 -->
<g id="node7" class="node">
<title>Node7</title>
<g id="a_node7"><a xlink:href="Voice_8cpp.html" target="_top" xlink:title=" ">
<polygon fill="white" stroke="black" points="159,-62 159,-81 308,-81 308,-62 159,-62"/>
<text text-anchor="middle" x="233.5" y="-69" font-family="Helvetica,sans-Serif" font-size="10.00">sources/APU/DSP/Voice.cpp</text>
</a>
</g>
</g>
<!-- Node3&#45;&gt;Node7 -->
<g id="edge38" class="edge">
<title>Node3&#45;&gt;Node7</title>
<path fill="none" stroke="midnightblue" d="M1082.16,-191.44C997.63,-183.3 861.6,-169.44 744.5,-154 553.61,-128.82 506.45,-118.46 316.5,-87 305.1,-85.11 292.83,-83.01 281.32,-81"/>
<polygon fill="midnightblue" stroke="midnightblue" points="1081.91,-194.93 1092.2,-192.4 1082.58,-187.96 1081.91,-194.93"/>
</g>
<!-- Node60 -->
<g id="node29" class="node">
<title>Node60</title>
<g id="a_node29"><a xlink:href="BRR_8cpp.html" target="_top" xlink:title=" ">
<polygon fill="white" stroke="black" points="754,-129 754,-148 897,-148 897,-129 754,-129"/>
<text text-anchor="middle" x="825.5" y="-136" font-family="Helvetica,sans-Serif" font-size="10.00">sources/APU/DSP/BRR.cpp</text>
</a>
</g>
</g>
<!-- Node3&#45;&gt;Node60 -->
<g id="edge32" class="edge">
<title>Node3&#45;&gt;Node60</title>
<path fill="none" stroke="midnightblue" d="M1104.16,-188.67C1052.06,-179.59 974.24,-165.99 906.5,-154 895.67,-152.08 884.02,-150.01 873.04,-148.04"/>
<polygon fill="midnightblue" stroke="midnightblue" points="1103.77,-192.16 1114.22,-190.43 1104.97,-185.26 1103.77,-192.16"/>
</g>
<!-- Node61 -->
<g id="node30" class="node">
<title>Node61</title>
<g id="a_node30"><a xlink:href="Echo_8cpp.html" target="_top" xlink:title=" ">
<polygon fill="white" stroke="black" points="915.5,-129 915.5,-148 1061.5,-148 1061.5,-129 915.5,-129"/>
<text text-anchor="middle" x="988.5" y="-136" font-family="Helvetica,sans-Serif" font-size="10.00">sources/APU/DSP/Echo.cpp</text>
</a>
</g>
</g>
<!-- Node3&#45;&gt;Node61 -->
<g id="edge34" class="edge">
<title>Node3&#45;&gt;Node61</title>
<path fill="none" stroke="midnightblue" d="M1128.89,-187.23C1094.87,-175.67 1043.78,-158.3 1013.53,-148.01"/>
<polygon fill="midnightblue" stroke="midnightblue" points="1127.83,-190.57 1138.43,-190.48 1130.09,-183.94 1127.83,-190.57"/>
</g>
<!-- Node62 -->
<g id="node31" class="node">
<title>Node62</title>
<g id="a_node31"><a xlink:href="Envelope_8cpp.html" target="_top" xlink:title=" ">
<polygon fill="white" stroke="black" points="1079.5,-129 1079.5,-148 1247.5,-148 1247.5,-129 1079.5,-129"/>
<text text-anchor="middle" x="1163.5" y="-136" font-family="Helvetica,sans-Serif" font-size="10.00">sources/APU/DSP/Envelope.cpp</text>
</a>
</g>
</g>
<!-- Node3&#45;&gt;Node62 -->
<g id="edge35" class="edge">
<title>Node3&#45;&gt;Node62</title>
<path fill="none" stroke="midnightblue" d="M1163.5,-180.32C1163.5,-169.5 1163.5,-156.4 1163.5,-148.01"/>
<polygon fill="midnightblue" stroke="midnightblue" points="1160,-180.48 1163.5,-190.48 1167,-180.48 1160,-180.48"/>
</g>
<!-- Node63 -->
<g id="node32" class="node">
<title>Node63</title>
<g id="a_node32"><a xlink:href="Gauss_8cpp.html" target="_top" xlink:title=" ">
<polygon fill="white" stroke="black" points="1266,-129 1266,-148 1419,-148 1419,-129 1266,-129"/>
<text text-anchor="middle" x="1342.5" y="-136" font-family="Helvetica,sans-Serif" font-size="10.00">sources/APU/DSP/Gauss.cpp</text>
</a>
</g>
</g>
<!-- Node3&#45;&gt;Node63 -->
<g id="edge36" class="edge">
<title>Node3&#45;&gt;Node63</title>
<path fill="none" stroke="midnightblue" d="M1198.9,-187.23C1233.7,-175.67 1285.95,-158.3 1316.9,-148.01"/>
<polygon fill="midnightblue" stroke="midnightblue" points="1197.53,-184 1189.15,-190.48 1199.74,-190.64 1197.53,-184"/>
</g>
<!-- Node64 -->
<g id="node33" class="node">
<title>Node64</title>
<g id="a_node33"><a xlink:href="Timer_8cpp.html" target="_top" xlink:title=" ">
<polygon fill="white" stroke="black" points="1437,-129 1437,-148 1588,-148 1588,-129 1437,-129"/>
<text text-anchor="middle" x="1512.5" y="-136" font-family="Helvetica,sans-Serif" font-size="10.00">sources/APU/DSP/Timer.cpp</text>
</a>
</g>
</g>
<!-- Node3&#45;&gt;Node64 -->
<g id="edge37" class="edge">
<title>Node3&#45;&gt;Node64</title>
<path fill="none" stroke="midnightblue" d="M1223.62,-188.75C1277.13,-179.64 1357.53,-165.93 1427.5,-154 1438.86,-152.06 1451.08,-149.98 1462.61,-148.01"/>
<polygon fill="midnightblue" stroke="midnightblue" points="1222.89,-185.33 1213.62,-190.46 1224.07,-192.23 1222.89,-185.33"/>
</g>
<!-- Node5 -->
<g id="node5" class="node">
<title>Node5</title>
<g id="a_node5"><a xlink:href="APU_8cpp.html" target="_top" xlink:title=" ">
<polygon fill="white" stroke="black" points="326,-62 326,-81 447,-81 447,-62 326,-62"/>
<text text-anchor="middle" x="386.5" y="-69" font-family="Helvetica,sans-Serif" font-size="10.00">sources/APU/APU.cpp</text>
</a>
</g>
</g>
<!-- Node4&#45;&gt;Node5 -->
<g id="edge4" class="edge">
<title>Node4&#45;&gt;Node5</title>
<path fill="none" stroke="midnightblue" d="M2006.98,-135.32C1694.63,-125.78 465.27,-88.17 455.5,-87 444.2,-85.65 432,-83.36 421.05,-81"/>
<polygon fill="midnightblue" stroke="midnightblue" points="2007.16,-138.82 2017.27,-135.63 2007.38,-131.83 2007.16,-138.82"/>
</g>
<!-- Node4&#45;&gt;Node6 -->
<g id="edge5" class="edge">
<title>Node4&#45;&gt;Node6</title>
<path fill="none" stroke="midnightblue" d="M2007,-135.23C1912.89,-132.28 1742.3,-127.01 1596.5,-123 1274.97,-114.16 469.44,-120.14 149.5,-87 136.6,-85.66 122.65,-83.39 110.11,-81.02"/>
<polygon fill="midnightblue" stroke="midnightblue" points="2007.15,-138.74 2017.25,-135.56 2007.37,-131.74 2007.15,-138.74"/>
</g>
<!-- Node4&#45;&gt;Node7 -->
<g id="edge6" class="edge">
<title>Node4&#45;&gt;Node7</title>
<path fill="none" stroke="midnightblue" d="M2006.99,-135.31C1912.88,-132.43 1742.29,-127.24 1596.5,-123 1027.63,-106.44 882.74,-144.12 316.5,-87 303.11,-85.65 288.62,-83.4 275.56,-81.06"/>
<polygon fill="midnightblue" stroke="midnightblue" points="2007.15,-138.81 2017.25,-135.62 2007.36,-131.81 2007.15,-138.81"/>
</g>
<!-- Node8 -->
<g id="node8" class="node">
<title>Node8</title>
<g id="a_node8"><a xlink:href="16bitArithmetic_8cpp.html" target="_top" xlink:title=" ">
<polygon fill="white" stroke="black" points="465,-56.5 465,-86.5 602,-86.5 602,-56.5 465,-56.5"/>
<text text-anchor="start" x="473" y="-74.5" font-family="Helvetica,sans-Serif" font-size="10.00">sources/APU/Instructions</text>
<text text-anchor="middle" x="533.5" y="-63.5" font-family="Helvetica,sans-Serif" font-size="10.00">/16bitArithmetic.cpp</text>
</a>
</g>
</g>
<!-- Node4&#45;&gt;Node8 -->
<g id="edge7" class="edge">
<title>Node4&#45;&gt;Node8</title>
<path fill="none" stroke="midnightblue" d="M2007.25,-135.34C1722.94,-126.7 681.45,-94.66 611.5,-87 608.49,-86.67 605.42,-86.29 602.32,-85.87"/>
<polygon fill="midnightblue" stroke="midnightblue" points="2007.34,-138.85 2017.45,-135.65 2007.56,-131.85 2007.34,-138.85"/>
</g>
<!-- Node9 -->
<g id="node9" class="node">
<title>Node9</title>
<g id="a_node9"><a xlink:href="16bitDataTransmission_8cpp.html" target="_top" xlink:title=" ">
<polygon fill="white" stroke="black" points="620.5,-56.5 620.5,-86.5 772.5,-86.5 772.5,-56.5 620.5,-56.5"/>
<text text-anchor="start" x="628.5" y="-74.5" font-family="Helvetica,sans-Serif" font-size="10.00">sources/APU/Instructions</text>
<text text-anchor="middle" x="696.5" y="-63.5" font-family="Helvetica,sans-Serif" font-size="10.00">/16bitDataTransmission.cpp</text>
</a>
</g>
</g>
<!-- Node4&#45;&gt;Node9 -->
<g id="edge8" class="edge">
<title>Node4&#45;&gt;Node9</title>
<path fill="none" stroke="midnightblue" d="M2007.11,-135.26C1753.3,-127.24 903.29,-99.7 781.5,-87 778.67,-86.7 775.79,-86.37 772.89,-86.01"/>
<polygon fill="midnightblue" stroke="midnightblue" points="2007.21,-138.77 2017.31,-135.59 2007.43,-131.77 2007.21,-138.77"/>
</g>
<!-- Node10 -->
<g id="node10" class="node">
<title>Node10</title>
<g id="a_node10"><a xlink:href="8bitArithmetic_8cpp.html" target="_top" xlink:title=" ">
<polygon fill="white" stroke="black" points="791,-56.5 791,-86.5 928,-86.5 928,-56.5 791,-56.5"/>
<text text-anchor="start" x="799" y="-74.5" font-family="Helvetica,sans-Serif" font-size="10.00">sources/APU/Instructions</text>
<text text-anchor="middle" x="859.5" y="-63.5" font-family="Helvetica,sans-Serif" font-size="10.00">/8bitArithmetic.cpp</text>
</a>
</g>
</g>
<!-- Node4&#45;&gt;Node10 -->
<g id="edge9" class="edge">
<title>Node4&#45;&gt;Node10</title>
<path fill="none" stroke="midnightblue" d="M2007.18,-135.65C1791.19,-129.84 1146.22,-110.9 937.5,-87 934.49,-86.66 931.42,-86.26 928.32,-85.83"/>
<polygon fill="midnightblue" stroke="midnightblue" points="2007.36,-139.15 2017.45,-135.92 2007.54,-132.16 2007.36,-139.15"/>
</g>
<!-- Node11 -->
<g id="node11" class="node">
<title>Node11</title>
<g id="a_node11"><a xlink:href="8bitDataTransmission_8cpp.html" target="_top" xlink:title=" ">
<polygon fill="white" stroke="black" points="946.5,-56.5 946.5,-86.5 1092.5,-86.5 1092.5,-56.5 946.5,-56.5"/>
<text text-anchor="start" x="954.5" y="-74.5" font-family="Helvetica,sans-Serif" font-size="10.00">sources/APU/Instructions</text>
<text text-anchor="middle" x="1019.5" y="-63.5" font-family="Helvetica,sans-Serif" font-size="10.00">/8bitDataTransmission.cpp</text>
</a>
</g>
</g>
<!-- Node4&#45;&gt;Node11 -->
<g id="edge10" class="edge">
<title>Node4&#45;&gt;Node11</title>
<path fill="none" stroke="midnightblue" d="M2007.27,-134.96C1813.06,-127.86 1277.13,-106.99 1101.5,-87 1098.63,-86.67 1095.7,-86.31 1092.75,-85.91"/>
<polygon fill="midnightblue" stroke="midnightblue" points="2007.24,-138.46 2017.36,-135.33 2007.5,-131.47 2007.24,-138.46"/>
</g>
<!-- Node12 -->
<g id="node12" class="node">
<title>Node12</title>
<g id="a_node12"><a xlink:href="8bitIncrementDecrement_8cpp.html" target="_top" xlink:title=" ">
<polygon fill="white" stroke="black" points="1110.5,-56.5 1110.5,-86.5 1272.5,-86.5 1272.5,-56.5 1110.5,-56.5"/>
<text text-anchor="start" x="1118.5" y="-74.5" font-family="Helvetica,sans-Serif" font-size="10.00">sources/APU/Instructions</text>
<text text-anchor="middle" x="1191.5" y="-63.5" font-family="Helvetica,sans-Serif" font-size="10.00">/8bitIncrementDecrement.cpp</text>
</a>
</g>
</g>
<!-- Node4&#45;&gt;Node12 -->
<g id="edge11" class="edge">
<title>Node4&#45;&gt;Node12</title>
<path fill="none" stroke="midnightblue" d="M2007.19,-135.29C1867.53,-130.45 1548.32,-116.88 1281.5,-87 1278.67,-86.68 1275.79,-86.34 1272.89,-85.97"/>
<polygon fill="midnightblue" stroke="midnightblue" points="2007.22,-138.79 2017.33,-135.64 2007.46,-131.8 2007.22,-138.79"/>
</g>
<!-- Node13 -->
<g id="node13" class="node">
<title>Node13</title>
<g id="a_node13"><a xlink:href="8bitLogical_8cpp.html" target="_top" xlink:title=" ">
<polygon fill="white" stroke="black" points="1291,-56.5 1291,-86.5 1428,-86.5 1428,-56.5 1291,-56.5"/>
<text text-anchor="start" x="1299" y="-74.5" font-family="Helvetica,sans-Serif" font-size="10.00">sources/APU/Instructions</text>
<text text-anchor="middle" x="1359.5" y="-63.5" font-family="Helvetica,sans-Serif" font-size="10.00">/8bitLogical.cpp</text>
</a>
</g>
</g>
<!-- Node4&#45;&gt;Node13 -->
<g id="edge12" class="edge">
<title>Node4&#45;&gt;Node13</title>
<path fill="none" stroke="midnightblue" d="M2007.13,-134.4C1888.34,-128.67 1642.72,-114.45 1436.5,-87 1433.8,-86.64 1431.06,-86.25 1428.29,-85.83"/>
<polygon fill="midnightblue" stroke="midnightblue" points="2007.04,-137.9 2017.19,-134.88 2007.37,-130.91 2007.04,-137.9"/>
</g>
<!-- Node14 -->
<g id="node14" class="node">
<title>Node14</title>
<g id="a_node14"><a xlink:href="8bitShiftRotation_8cpp.html" target="_top" xlink:title=" ">
<polygon fill="white" stroke="black" points="1446,-56.5 1446,-86.5 1583,-86.5 1583,-56.5 1446,-56.5"/>
<text text-anchor="start" x="1454" y="-74.5" font-family="Helvetica,sans-Serif" font-size="10.00">sources/APU/Instructions</text>
<text text-anchor="middle" x="1514.5" y="-63.5" font-family="Helvetica,sans-Serif" font-size="10.00">/8bitShiftRotation.cpp</text>
</a>
</g>
</g>
<!-- Node4&#45;&gt;Node14 -->
<g id="edge13" class="edge">
<title>Node4&#45;&gt;Node14</title>
<path fill="none" stroke="midnightblue" d="M2007.1,-131.96C1911.98,-124.15 1738.6,-108.44 1591.5,-87 1588.81,-86.61 1586.07,-86.19 1583.3,-85.75"/>
<polygon fill="midnightblue" stroke="midnightblue" points="2006.93,-135.46 2017.18,-132.78 2007.5,-128.48 2006.93,-135.46"/>
</g>
<!-- Node15 -->
<g id="node15" class="node">
<title>Node15</title>
<g id="a_node15"><a xlink:href="Bit_8cpp.html" target="_top" xlink:title=" ">
<polygon fill="white" stroke="black" points="1601,-56.5 1601,-86.5 1738,-86.5 1738,-56.5 1601,-56.5"/>
<text text-anchor="start" x="1609" y="-74.5" font-family="Helvetica,sans-Serif" font-size="10.00">sources/APU/Instructions</text>
<text text-anchor="middle" x="1669.5" y="-63.5" font-family="Helvetica,sans-Serif" font-size="10.00">/Bit.cpp</text>
</a>
</g>
</g>
<!-- Node4&#45;&gt;Node15 -->
<g id="edge14" class="edge">
<title>Node4&#45;&gt;Node15</title>
<path fill="none" stroke="midnightblue" d="M2008.06,-127.52C1940.77,-117.81 1836.57,-102.33 1746.5,-87 1743.82,-86.54 1741.08,-86.07 1738.33,-85.58"/>
<polygon fill="midnightblue" stroke="midnightblue" points="2007.72,-131.01 2018.12,-128.97 2008.72,-124.08 2007.72,-131.01"/>
</g>
<!-- Node16 -->
<g id="node16" class="node">
<title>Node16</title>
<g id="a_node16"><a xlink:href="DecimalCompensation_8cpp.html" target="_top" xlink:title=" ">
<polygon fill="white" stroke="black" points="1756,-56.5 1756,-86.5 1907,-86.5 1907,-56.5 1756,-56.5"/>
<text text-anchor="start" x="1764" y="-74.5" font-family="Helvetica,sans-Serif" font-size="10.00">sources/APU/Instructions</text>
<text text-anchor="middle" x="1831.5" y="-63.5" font-family="Helvetica,sans-Serif" font-size="10.00">/DecimalCompensation.cpp</text>
</a>
</g>
</g>
<!-- Node4&#45;&gt;Node16 -->
<g id="edge15" class="edge">
<title>Node4&#45;&gt;Node16</title>
<path fill="none" stroke="midnightblue" d="M2036.09,-126.34C1994.26,-115.33 1930.2,-98.47 1884.92,-86.56"/>
<polygon fill="midnightblue" stroke="midnightblue" points="2035.39,-129.78 2045.96,-128.94 2037.18,-123.01 2035.39,-129.78"/>
</g>
<!-- Node17 -->
<g id="node17" class="node">
<title>Node17</title>
<g id="a_node17"><a xlink:href="MultiplicationDivision_8cpp.html" target="_top" xlink:title=" ">
<polygon fill="white" stroke="black" points="1925.5,-56.5 1925.5,-86.5 2071.5,-86.5 2071.5,-56.5 1925.5,-56.5"/>
<text text-anchor="start" x="1933.5" y="-74.5" font-family="Helvetica,sans-Serif" font-size="10.00">sources/APU/Instructions</text>
<text text-anchor="middle" x="1998.5" y="-63.5" font-family="Helvetica,sans-Serif" font-size="10.00">/MultiplicationDivision.cpp</text>
</a>
</g>
</g>
<!-- Node4&#45;&gt;Node17 -->
<g id="edge16" class="edge">
<title>Node4&#45;&gt;Node17</title>
<path fill="none" stroke="midnightblue" d="M2059.71,-122.24C2046.44,-111.45 2028.78,-97.1 2015.84,-86.59"/>
<polygon fill="midnightblue" stroke="midnightblue" points="2057.74,-125.14 2067.71,-128.73 2062.16,-119.71 2057.74,-125.14"/>
</g>
<!-- Node18 -->
<g id="node18" class="node">
<title>Node18</title>
<g id="a_node18"><a xlink:href="ProgramFlow_8cpp.html" target="_top" xlink:title=" ">
<polygon fill="white" stroke="black" points="2090,-56.5 2090,-86.5 2227,-86.5 2227,-56.5 2090,-56.5"/>
<text text-anchor="start" x="2098" y="-74.5" font-family="Helvetica,sans-Serif" font-size="10.00">sources/APU/Instructions</text>
<text text-anchor="middle" x="2158.5" y="-63.5" font-family="Helvetica,sans-Serif" font-size="10.00">/ProgramFlow.cpp</text>
</a>
</g>
</g>
<!-- Node4&#45;&gt;Node18 -->
<g id="edge17" class="edge">
<title>Node4&#45;&gt;Node18</title>
<path fill="none" stroke="midnightblue" d="M2097.29,-122.24C2110.56,-111.45 2128.22,-97.1 2141.16,-86.59"/>
<polygon fill="midnightblue" stroke="midnightblue" points="2094.84,-119.71 2089.29,-128.73 2099.26,-125.14 2094.84,-119.71"/>
</g>
<!-- Node19 -->
<g id="node19" class="node">
<title>Node19</title>
<g id="a_node19"><a xlink:href="ProgramStatusWord_8cpp.html" target="_top" xlink:title=" ">
<polygon fill="white" stroke="black" points="2245,-56.5 2245,-86.5 2382,-86.5 2382,-56.5 2245,-56.5"/>
<text text-anchor="start" x="2253" y="-74.5" font-family="Helvetica,sans-Serif" font-size="10.00">sources/APU/Instructions</text>
<text text-anchor="middle" x="2313.5" y="-63.5" font-family="Helvetica,sans-Serif" font-size="10.00">/ProgramStatusWord.cpp</text>
</a>
</g>
</g>
<!-- Node4&#45;&gt;Node19 -->
<g id="edge18" class="edge">
<title>Node4&#45;&gt;Node19</title>
<path fill="none" stroke="midnightblue" d="M2119.36,-126.2C2159.2,-115.18 2219.88,-98.39 2262.78,-86.53"/>
<polygon fill="midnightblue" stroke="midnightblue" points="2118.41,-122.83 2109.71,-128.87 2120.28,-129.58 2118.41,-122.83"/>
</g>
<!-- Node20 -->
<g id="node20" class="node">
<title>Node20</title>
<g id="a_node20"><a xlink:href="Stack_8cpp.html" target="_top" xlink:title=" ">
<polygon fill="white" stroke="black" points="2400,-56.5 2400,-86.5 2537,-86.5 2537,-56.5 2400,-56.5"/>
<text text-anchor="start" x="2408" y="-74.5" font-family="Helvetica,sans-Serif" font-size="10.00">sources/APU/Instructions</text>
<text text-anchor="middle" x="2468.5" y="-63.5" font-family="Helvetica,sans-Serif" font-size="10.00">/Stack.cpp</text>
</a>
</g>
</g>
<!-- Node4&#45;&gt;Node20 -->
<g id="edge19" class="edge">
<title>Node4&#45;&gt;Node20</title>
<path fill="none" stroke="midnightblue" d="M2143.73,-127.4C2206.9,-117.5 2305.36,-101.8 2390.5,-87 2393.49,-86.48 2396.53,-85.94 2399.61,-85.4"/>
<polygon fill="midnightblue" stroke="midnightblue" points="2142.85,-123.99 2133.52,-128.99 2143.94,-130.91 2142.85,-123.99"/>
</g>
<!-- Node21 -->
<g id="node21" class="node">
<title>Node21</title>
<g id="a_node21"><a xlink:href="Standbys_8cpp.html" target="_top" xlink:title=" ">
<polygon fill="white" stroke="black" points="2555,-56.5 2555,-86.5 2692,-86.5 2692,-56.5 2555,-56.5"/>
<text text-anchor="start" x="2563" y="-74.5" font-family="Helvetica,sans-Serif" font-size="10.00">sources/APU/Instructions</text>
<text text-anchor="middle" x="2623.5" y="-63.5" font-family="Helvetica,sans-Serif" font-size="10.00">/Standbys.cpp</text>
</a>
</g>
</g>
<!-- Node4&#45;&gt;Node21 -->
<g id="edge20" class="edge">
<title>Node4&#45;&gt;Node21</title>
<path fill="none" stroke="midnightblue" d="M2149.67,-131.57C2241.6,-123.52 2406.44,-107.71 2546.5,-87 2549.19,-86.6 2551.93,-86.18 2554.7,-85.73"/>
<polygon fill="midnightblue" stroke="midnightblue" points="2149.31,-128.09 2139.65,-132.45 2149.91,-135.07 2149.31,-128.09"/>
</g>
<!-- Node22 -->
<g id="node22" class="node">
<title>Node22</title>
<g id="a_node22"><a xlink:href="Subroutine_8cpp.html" target="_top" xlink:title=" ">
<polygon fill="white" stroke="black" points="2710,-56.5 2710,-86.5 2847,-86.5 2847,-56.5 2710,-56.5"/>
<text text-anchor="start" x="2718" y="-74.5" font-family="Helvetica,sans-Serif" font-size="10.00">sources/APU/Instructions</text>
<text text-anchor="middle" x="2778.5" y="-63.5" font-family="Helvetica,sans-Serif" font-size="10.00">/Subroutine.cpp</text>
</a>
</g>
</g>
<!-- Node4&#45;&gt;Node22 -->
<g id="edge21" class="edge">
<title>Node4&#45;&gt;Node22</title>
<path fill="none" stroke="midnightblue" d="M2149.91,-132.66C2290.07,-123.01 2596.64,-101.08 2701.5,-87 2704.2,-86.64 2706.94,-86.24 2709.71,-85.83"/>
<polygon fill="midnightblue" stroke="midnightblue" points="2149.44,-129.19 2139.71,-133.36 2149.92,-136.17 2149.44,-129.19"/>
</g>
<!-- Node23 -->
<g id="node23" class="node">
<title>Node23</title>
<g id="a_node23"><a xlink:href="Operand_8cpp.html" target="_top" xlink:title=" ">
<polygon fill="white" stroke="black" points="2865.5,-62 2865.5,-81 3007.5,-81 3007.5,-62 2865.5,-62"/>
<text text-anchor="middle" x="2936.5" y="-69" font-family="Helvetica,sans-Serif" font-size="10.00">sources/APU/Operand.cpp</text>
</a>
</g>
</g>
<!-- Node4&#45;&gt;Node23 -->
<g id="edge22" class="edge">
<title>Node4&#45;&gt;Node23</title>
<path fill="none" stroke="midnightblue" d="M2150.09,-132.79C2193.35,-129.94 2249.59,-126.25 2299.5,-123 2547.05,-106.88 2610.27,-117.17 2856.5,-87 2868.97,-85.47 2882.44,-83.25 2894.7,-81.01"/>
<polygon fill="midnightblue" stroke="midnightblue" points="2149.69,-129.3 2139.94,-133.45 2150.15,-136.29 2149.69,-129.3"/>
</g>
<!-- Node24 -->
<g id="node24" class="node">
<title>Node24</title>
<g id="a_node24"><a xlink:href="APUDebug_8cpp.html" target="_top" xlink:title=" ">
<polygon fill="white" stroke="black" points="2804,-0.5 2804,-19.5 2983,-19.5 2983,-0.5 2804,-0.5"/>
<text text-anchor="middle" x="2893.5" y="-7.5" font-family="Helvetica,sans-Serif" font-size="10.00">sources/Debugger/APUDebug.cpp</text>
</a>
</g>
</g>
<!-- Node4&#45;&gt;Node24 -->
<g id="edge23" class="edge">
<title>Node4&#45;&gt;Node24</title>
<path fill="none" stroke="midnightblue" d="M2150.07,-132.52C2193.33,-129.59 2249.57,-125.89 2299.5,-123 2339.32,-120.69 2989.01,-115.9 3016.5,-87 3046.69,-55.26 2978.57,-31.48 2932.14,-19.55"/>
<polygon fill="midnightblue" stroke="midnightblue" points="2149.67,-129.04 2139.93,-133.22 2150.14,-136.03 2149.67,-129.04"/>
</g>
<!-- Node25 -->
<g id="node25" class="node">
<title>Node25</title>
<g id="a_node25"><a xlink:href="SNES_8hpp.html" target="_top" xlink:title=" ">
<polygon fill="white" stroke="red" points="3177.5,-62 3177.5,-81 3281.5,-81 3281.5,-62 3177.5,-62"/>
<text text-anchor="middle" x="3229.5" y="-69" font-family="Helvetica,sans-Serif" font-size="10.00">sources/SNES.hpp</text>
</a>
</g>
</g>
<!-- Node4&#45;&gt;Node25 -->
<g id="edge24" class="edge">
<title>Node4&#45;&gt;Node25</title>
<path fill="none" stroke="midnightblue" d="M2150.06,-132.37C2193.31,-129.38 2249.56,-125.68 2299.5,-123 2683.28,-102.42 2782.36,-136.42 3163.5,-87 3174.2,-85.61 3185.74,-83.35 3196.12,-81.02"/>
<polygon fill="midnightblue" stroke="midnightblue" points="2149.66,-128.89 2139.92,-133.08 2150.14,-135.87 2149.66,-128.89"/>
</g>
<!-- Node39 -->
<g id="node26" class="node">
<title>Node39</title>
<g id="a_node26"><a xlink:href="testAPU_8cpp.html" target="_top" xlink:title=" ">
<polygon fill="white" stroke="black" points="3001.5,-0.5 3001.5,-19.5 3127.5,-19.5 3127.5,-0.5 3001.5,-0.5"/>
<text text-anchor="middle" x="3064.5" y="-7.5" font-family="Helvetica,sans-Serif" font-size="10.00">tests/APU/testAPU.cpp</text>
</a>
</g>
</g>
<!-- Node4&#45;&gt;Node39 -->
<g id="edge29" class="edge">
<title>Node4&#45;&gt;Node39</title>
<path fill="none" stroke="midnightblue" d="M2150.07,-132.5C2193.32,-129.56 2249.57,-125.86 2299.5,-123 2381.02,-118.33 2966.87,-134.19 3033.5,-87 3055.83,-71.19 3062.1,-36.34 3063.84,-19.91"/>
<polygon fill="midnightblue" stroke="midnightblue" points="2149.67,-129.02 2139.93,-133.2 2150.14,-136.01 2149.67,-129.02"/>
</g>
<!-- Node41 -->
<g id="node27" class="node">
<title>Node41</title>
<g id="a_node27"><a xlink:href="testAPUInstructions_8cpp.html" target="_top" xlink:title=" ">
<polygon fill="white" stroke="black" points="3146,-0.5 3146,-19.5 3329,-19.5 3329,-0.5 3146,-0.5"/>
<text text-anchor="middle" x="3237.5" y="-7.5" font-family="Helvetica,sans-Serif" font-size="10.00">tests/APU/testAPUInstructions.cpp</text>
</a>
</g>
</g>
<!-- Node4&#45;&gt;Node41 -->
<g id="edge30" class="edge">
<title>Node4&#45;&gt;Node41</title>
<path fill="none" stroke="midnightblue" d="M2150.07,-132.48C2193.32,-129.52 2249.57,-125.82 2299.5,-123 2467.87,-113.48 2893.06,-124.37 3057.5,-87 3074.08,-83.23 3175.1,-38.75 3218.13,-19.64"/>
<polygon fill="midnightblue" stroke="midnightblue" points="2149.66,-129 2139.93,-133.17 2150.14,-135.98 2149.66,-129"/>
</g>
<!-- Node42 -->
<g id="node28" class="node">
<title>Node42</title>
<g id="a_node28"><a xlink:href="testOperand_8cpp.html" target="_top" xlink:title=" ">
<polygon fill="white" stroke="black" points="3347,-0.5 3347,-19.5 3494,-19.5 3494,-0.5 3347,-0.5"/>
<text text-anchor="middle" x="3420.5" y="-7.5" font-family="Helvetica,sans-Serif" font-size="10.00">tests/APU/testOperand.cpp</text>
</a>
</g>
</g>
<!-- Node4&#45;&gt;Node42 -->
<g id="edge31" class="edge">
<title>Node4&#45;&gt;Node42</title>
<path fill="none" stroke="midnightblue" d="M2150.07,-132.42C2193.32,-129.45 2249.56,-125.75 2299.5,-123 2479.41,-113.1 2935.57,-134.03 3109.5,-87 3138.09,-79.27 3140.48,-65.61 3168.5,-56 3203.18,-44.11 3297.84,-28.85 3360.76,-19.51"/>
<polygon fill="midnightblue" stroke="midnightblue" points="2149.66,-128.94 2139.92,-133.12 2150.14,-135.92 2149.66,-128.94"/>
</g>
<!-- Node25&#45;&gt;Node24 -->
<g id="edge25" class="edge">
<title>Node25&#45;&gt;Node24</title>
<path fill="none" stroke="midnightblue" d="M3171.27,-60.19C3106.22,-48.67 3002.14,-30.24 2941.55,-19.51"/>
<polygon fill="midnightblue" stroke="midnightblue" points="3170.9,-63.68 3181.36,-61.98 3172.12,-56.78 3170.9,-63.68"/>
</g>
<!-- Node25&#45;&gt;Node39 -->
<g id="edge26" class="edge">
<title>Node25&#45;&gt;Node39</title>
<path fill="none" stroke="midnightblue" d="M3196.45,-58.58C3164.38,-47.02 3116.5,-29.75 3088.1,-19.51"/>
<polygon fill="midnightblue" stroke="midnightblue" points="3195.27,-61.88 3205.86,-61.98 3197.64,-55.29 3195.27,-61.88"/>
</g>
<!-- Node25&#45;&gt;Node41 -->
<g id="edge27" class="edge">
<title>Node25&#45;&gt;Node41</title>
<path fill="none" stroke="midnightblue" d="M3232.01,-51.82C3233.47,-41 3235.23,-27.9 3236.36,-19.51"/>
<polygon fill="midnightblue" stroke="midnightblue" points="3228.51,-51.6 3230.65,-61.98 3235.45,-52.53 3228.51,-51.6"/>
</g>
<!-- Node25&#45;&gt;Node42 -->
<g id="edge28" class="edge">
<title>Node25&#45;&gt;Node42</title>
<path fill="none" stroke="midnightblue" d="M3266.8,-58.88C3303.93,-47.32 3360.02,-29.84 3393.19,-19.51"/>
<polygon fill="midnightblue" stroke="midnightblue" points="3265.37,-55.66 3256.87,-61.98 3267.45,-62.34 3265.37,-55.66"/>
</g>
<!-- Node65&#45;&gt;Node4 -->
<g id="edge41" class="edge">
<title>Node65&#45;&gt;Node4</title>
<path fill="none" stroke="midnightblue" d="M2322.14,-188.47C2264.77,-176.94 2173.88,-158.67 2120.83,-148.01"/>
<polygon fill="midnightblue" stroke="midnightblue" points="2321.6,-191.94 2332.09,-190.48 2322.98,-185.07 2321.6,-191.94"/>
</g>
<!-- Node66 -->
<g id="node35" class="node">
<title>Node66</title>
<g id="a_node35"><a xlink:href="IPL_8cpp.html" target="_top" xlink:title=" ">
<polygon fill="white" stroke="black" points="2308.5,-129 2308.5,-148 2440.5,-148 2440.5,-129 2308.5,-129"/>
<text text-anchor="middle" x="2374.5" y="-136" font-family="Helvetica,sans-Serif" font-size="10.00">sources/APU/IPL/IPL.cpp</text>
</a>
</g>
</g>
<!-- Node65&#45;&gt;Node66 -->
<g id="edge42" class="edge">
<title>Node65&#45;&gt;Node66</title>
<path fill="none" stroke="midnightblue" d="M2374.5,-180.32C2374.5,-169.5 2374.5,-156.4 2374.5,-148.01"/>
<polygon fill="midnightblue" stroke="midnightblue" points="2371,-180.48 2374.5,-190.48 2378,-180.48 2371,-180.48"/>
</g>
<!-- Node67&#45;&gt;Node4 -->
<g id="edge44" class="edge">
<title>Node67&#45;&gt;Node4</title>
<path fill="none" stroke="midnightblue" d="M2803.74,-192.06C2633.17,-179.7 2281.36,-154.2 2139.64,-143.93"/>
<polygon fill="midnightblue" stroke="midnightblue" points="2803.74,-195.57 2813.96,-192.8 2804.24,-188.59 2803.74,-195.57"/>
</g>
<!-- Node67&#45;&gt;Node25 -->
<g id="edge52" class="edge">
<title>Node67&#45;&gt;Node25</title>
<path fill="none" stroke="midnightblue" d="M2805.96,-188.84C2745.62,-178.69 2684.12,-159.18 2717.5,-123 2751.21,-86.46 3114.33,-94.35 3163.5,-87 3173.71,-85.47 3184.7,-83.28 3194.73,-81.07"/>
<polygon fill="midnightblue" stroke="midnightblue" points="2805.58,-192.33 2816.01,-190.46 2806.69,-185.42 2805.58,-192.33"/>
</g>
<!-- Node68 -->
<g id="node37" class="node">
<title>Node68</title>
<g id="a_node37"><a xlink:href="Cartridge_8cpp.html" target="_top" xlink:title=" ">
<polygon fill="white" stroke="black" points="2726.5,-129 2726.5,-148 2896.5,-148 2896.5,-129 2726.5,-129"/>
<text text-anchor="middle" x="2811.5" y="-136" font-family="Helvetica,sans-Serif" font-size="10.00">sources/Cartridge/Cartridge.cpp</text>
</a>
</g>
</g>
<!-- Node67&#45;&gt;Node68 -->
<g id="edge45" class="edge">
<title>Node67&#45;&gt;Node68</title>
<path fill="none" stroke="midnightblue" d="M2878.22,-184.61C2861.3,-173.17 2838.19,-157.55 2824.08,-148.01"/>
<polygon fill="midnightblue" stroke="midnightblue" points="2876.65,-187.77 2886.89,-190.48 2880.57,-181.97 2876.65,-187.77"/>
</g>
<!-- Node67&#45;&gt;Node69 -->
<g id="edge46" class="edge">
<title>Node67&#45;&gt;Node69</title>
<path fill="none" stroke="midnightblue" d="M2956.69,-188.69C3020.57,-177.17 3122.8,-158.74 3182.31,-148.01"/>
<polygon fill="midnightblue" stroke="midnightblue" points="2956,-185.26 2946.78,-190.48 2957.24,-192.15 2956,-185.26"/>
</g>
<!-- Node78 -->
<g id="node42" class="node">
<title>Node78</title>
<g id="a_node42"><a xlink:href="HeaderViewer_8hpp.html" target="_top" xlink:title=" ">
<polygon fill="white" stroke="red" points="2915,-129 2915,-148 3112,-148 3112,-129 2915,-129"/>
<text text-anchor="middle" x="3013.5" y="-136" font-family="Helvetica,sans-Serif" font-size="10.00">sources/Debugger/HeaderViewer.hpp</text>
</a>
</g>
</g>
<!-- Node67&#45;&gt;Node78 -->
<g id="edge51" class="edge">
<title>Node67&#45;&gt;Node78</title>
<path fill="none" stroke="midnightblue" d="M2924.96,-185.71C2947.04,-174.19 2978.33,-157.86 2997.2,-148.01"/>
<polygon fill="midnightblue" stroke="midnightblue" points="2923.08,-182.75 2915.83,-190.48 2926.32,-188.95 2923.08,-182.75"/>
</g>
<!-- Node69&#45;&gt;Node25 -->
<g id="edge50" class="edge">
<title>Node69&#45;&gt;Node25</title>
<path fill="none" stroke="midnightblue" d="M3229.5,-118.54C3229.5,-106.17 3229.5,-90.62 3229.5,-81.13"/>
<polygon fill="midnightblue" stroke="midnightblue" points="3226,-118.73 3229.5,-128.73 3233,-118.73 3226,-118.73"/>
</g>
<!-- Node70 -->
<g id="node39" class="node">
<title>Node70</title>
<g id="a_node39"><a xlink:href="AddressingModes_8cpp.html" target="_top" xlink:title=" ">
<polygon fill="white" stroke="black" points="3300,-62 3300,-81 3487,-81 3487,-62 3300,-62"/>
<text text-anchor="middle" x="3393.5" y="-69" font-family="Helvetica,sans-Serif" font-size="10.00">sources/CPU/AddressingModes.cpp</text>
</a>
</g>
</g>
<!-- Node69&#45;&gt;Node70 -->
<g id="edge47" class="edge">
<title>Node69&#45;&gt;Node70</title>
<path fill="none" stroke="midnightblue" d="M3260.78,-125.1C3293.34,-112.2 3343.47,-92.33 3371.89,-81.06"/>
<polygon fill="midnightblue" stroke="midnightblue" points="3259.28,-121.93 3251.28,-128.87 3261.86,-128.44 3259.28,-121.93"/>
</g>
<!-- Node71 -->
<g id="node40" class="node">
<title>Node71</title>
<g id="a_node40"><a xlink:href="CPU_8cpp.html" target="_top" xlink:title=" ">
<polygon fill="white" stroke="black" points="3505,-62 3505,-81 3626,-81 3626,-62 3505,-62"/>
<text text-anchor="middle" x="3565.5" y="-69" font-family="Helvetica,sans-Serif" font-size="10.00">sources/CPU/CPU.cpp</text>
</a>
</g>
</g>
<!-- Node69&#45;&gt;Node71 -->
<g id="edge48" class="edge">
<title>Node69&#45;&gt;Node71</title>
<path fill="none" stroke="midnightblue" d="M3280,-126.89C3286.56,-125.56 3293.18,-124.23 3299.5,-123 3386.86,-105.97 3409.16,-104.15 3496.5,-87 3505.99,-85.14 3516.19,-83.04 3525.77,-81.04"/>
<polygon fill="midnightblue" stroke="midnightblue" points="3278.91,-123.54 3269.81,-128.98 3280.31,-130.4 3278.91,-123.54"/>
</g>
<!-- Node72 -->
<g id="node41" class="node">
<title>Node72</title>
<g id="a_node41"><a xlink:href="BitsInstructions_8cpp.html" target="_top" xlink:title=" ">
<polygon fill="white" stroke="black" points="3644,-56.5 3644,-86.5 3781,-86.5 3781,-56.5 3644,-56.5"/>
<text text-anchor="start" x="3652" y="-74.5" font-family="Helvetica,sans-Serif" font-size="10.00">sources/CPU/Instructions</text>
<text text-anchor="middle" x="3712.5" y="-63.5" font-family="Helvetica,sans-Serif" font-size="10.00">/BitsInstructions.cpp</text>
</a>
</g>
</g>
<!-- Node69&#45;&gt;Node72 -->
<g id="edge49" class="edge">
<title>Node69&#45;&gt;Node72</title>
<path fill="none" stroke="midnightblue" d="M3277.16,-126.98C3284.62,-125.52 3292.25,-124.14 3299.5,-123 3447.88,-99.74 3486.92,-108.91 3635.5,-87 3638.19,-86.6 3640.93,-86.18 3643.7,-85.74"/>
<polygon fill="midnightblue" stroke="midnightblue" points="3276.27,-123.59 3267.16,-129 3277.65,-130.45 3276.27,-123.59"/>
</g>
<!-- Node79&#45;&gt;Node25 -->
<g id="edge57" class="edge">
<title>Node79&#45;&gt;Node25</title>
<path fill="none" stroke="midnightblue" d="M3174.94,-182.57C3162.93,-166.9 3149.36,-142.82 3159.5,-123 3169.74,-102.99 3192.01,-89.09 3208.7,-81.01"/>
<polygon fill="midnightblue" stroke="midnightblue" points="3172.26,-184.81 3181.3,-190.33 3177.67,-180.38 3172.26,-184.81"/>
</g>
<!-- Node79&#45;&gt;Node69 -->
<g id="edge55" class="edge">
<title>Node79&#45;&gt;Node69</title>
<path fill="none" stroke="midnightblue" d="M3200.93,-182.01C3208.4,-170.89 3217.84,-156.84 3223.78,-148.01"/>
<polygon fill="midnightblue" stroke="midnightblue" points="3197.91,-180.22 3195.23,-190.48 3203.71,-184.13 3197.91,-180.22"/>
</g>
<!-- Node85 -->
<g id="node44" class="node">
<title>Node85</title>
<g id="a_node44"><a xlink:href="MemoryBusDebug_8hpp.html" target="_top" xlink:title=" ">
<polygon fill="white" stroke="red" points="3446.5,-123.5 3446.5,-153.5 3612.5,-153.5 3612.5,-123.5 3446.5,-123.5"/>
<text text-anchor="start" x="3454.5" y="-141.5" font-family="Helvetica,sans-Serif" font-size="10.00">sources/Debugger/MemoryBus</text>
<text text-anchor="middle" x="3529.5" y="-130.5" font-family="Helvetica,sans-Serif" font-size="10.00">Debug.hpp</text>
</a>
</g>
</g>
<!-- Node79&#45;&gt;Node85 -->
<g id="edge56" class="edge">
<title>Node79&#45;&gt;Node85</title>
<path fill="none" stroke="midnightblue" d="M3248.25,-188.72C3303.82,-178.99 3387.68,-164.32 3449.37,-153.52"/>
<polygon fill="midnightblue" stroke="midnightblue" points="3247.46,-185.3 3238.21,-190.48 3248.67,-192.2 3247.46,-185.3"/>
</g>
<!-- Node79&#45;&gt;Node88 -->
<g id="edge58" class="edge">
<title>Node79&#45;&gt;Node88</title>
<path fill="none" stroke="midnightblue" d="M3224.9,-187.23C3259.7,-175.67 3311.95,-158.3 3342.9,-148.01"/>
<polygon fill="midnightblue" stroke="midnightblue" points="3223.53,-184 3215.15,-190.48 3225.74,-190.64 3223.53,-184"/>
</g>
<!-- Node88&#45;&gt;Node25 -->
<g id="edge59" class="edge">
<title>Node88&#45;&gt;Node25</title>
<path fill="none" stroke="midnightblue" d="M3340.94,-124.61C3313.41,-111.74 3271.85,-92.31 3248.03,-81.17"/>
<polygon fill="midnightblue" stroke="midnightblue" points="3339.5,-127.8 3350.04,-128.87 3342.47,-121.46 3339.5,-127.8"/>
</g>
<!-- Node97&#45;&gt;Node79 -->
<g id="edge61" class="edge">
<title>Node97&#45;&gt;Node79</title>
<path fill="none" stroke="midnightblue" d="M3183,-236.1C3184.66,-227.14 3186.56,-216.86 3187.88,-209.75"/>
<polygon fill="midnightblue" stroke="midnightblue" points="3179.53,-235.61 3181.15,-246.08 3186.41,-236.89 3179.53,-235.61"/>
</g>
<!-- Node102&#45;&gt;Node2 -->
<g id="edge66" class="edge">
<title>Node102&#45;&gt;Node2</title>
<path fill="none" stroke="midnightblue" d="M3436.43,-368.18C3347.49,-356.7 3201.75,-337.89 3117.43,-327.01"/>
<polygon fill="midnightblue" stroke="midnightblue" points="3436.08,-371.67 3446.45,-369.48 3436.98,-364.72 3436.08,-371.67"/>
</g>
<!-- Node102&#45;&gt;Node85 -->
<g id="edge65" class="edge">
<title>Node102&#45;&gt;Node85</title>
<path fill="none" stroke="midnightblue" d="M3513.85,-359.11C3517.14,-312.85 3525.57,-194.7 3528.49,-153.74"/>
<polygon fill="midnightblue" stroke="midnightblue" points="3510.35,-359.01 3513.13,-369.23 3517.33,-359.5 3510.35,-359.01"/>
</g>
<!-- Node103 -->
<g id="node49" class="node">
<title>Node103</title>
<g id="a_node49"><a xlink:href="ARectangleMemory_8hpp.html" target="_top" xlink:title=" ">
<polygon fill="white" stroke="red" points="3540.5,-302.5 3540.5,-332.5 3696.5,-332.5 3696.5,-302.5 3540.5,-302.5"/>
<text text-anchor="start" x="3548.5" y="-320.5" font-family="Helvetica,sans-Serif" font-size="10.00">sources/Memory/ARectangle</text>
<text text-anchor="middle" x="3618.5" y="-309.5" font-family="Helvetica,sans-Serif" font-size="10.00">Memory.hpp</text>
</a>
</g>
</g>
<!-- Node102&#45;&gt;Node103 -->
<g id="edge67" class="edge">
<title>Node102&#45;&gt;Node103</title>
<path fill="none" stroke="midnightblue" d="M3536.48,-364.54C3553.49,-354.99 3576.28,-342.2 3593.52,-332.52"/>
<polygon fill="midnightblue" stroke="midnightblue" points="3534.69,-361.53 3527.69,-369.48 3538.12,-367.63 3534.69,-361.53"/>
</g>
<!-- Node113 -->
<g id="node50" class="node">
<title>Node113</title>
<g id="a_node50"><a xlink:href="IMemoryBus_8hpp.html" target="_top" xlink:title=" ">
<polygon fill="white" stroke="black" points="3715,-308 3715,-327 3898,-327 3898,-308 3715,-308"/>
<text text-anchor="middle" x="3806.5" y="-315" font-family="Helvetica,sans-Serif" font-size="10.00">sources/Memory/IMemoryBus.hpp</text>
</a>
</g>
</g>
<!-- Node102&#45;&gt;Node113 -->
<g id="edge69" class="edge">
<title>Node102&#45;&gt;Node113</title>
<path fill="none" stroke="midnightblue" d="M3564.51,-367.47C3621.49,-355.94 3711.77,-337.67 3764.46,-327.01"/>
<polygon fill="midnightblue" stroke="midnightblue" points="3563.73,-364.06 3554.62,-369.48 3565.12,-370.92 3563.73,-364.06"/>
</g>
<!-- Node103&#45;&gt;Node67 -->
<g id="edge68" class="edge">
<title>Node103&#45;&gt;Node67</title>
<path fill="none" stroke="midnightblue" d="M3595.03,-295.88C3574.52,-279.19 3543.15,-256.77 3511.5,-246 3462.99,-229.49 3141.79,-212.38 2985.13,-204.9"/>
<polygon fill="midnightblue" stroke="midnightblue" points="3592.93,-298.69 3602.86,-302.4 3597.41,-293.31 3592.93,-298.69"/>
</g>
<!-- Node113&#45;&gt;Node79 -->
<g id="edge70" class="edge">
<title>Node113&#45;&gt;Node79</title>
<path fill="none" stroke="midnightblue" d="M3778.49,-303.65C3741.85,-287.43 3675.28,-259.96 3615.5,-246 3501.44,-219.36 3366.48,-208.47 3279.51,-204.03"/>
<polygon fill="midnightblue" stroke="midnightblue" points="3777.44,-307.01 3788,-307.9 3780.3,-300.62 3777.44,-307.01"/>
</g>
</g>
</svg>
