<?xml version="1.0" encoding="UTF-8" standalone="no"?>
<!DOCTYPE svg PUBLIC "-//W3C//DTD SVG 1.1//EN"
 "http://www.w3.org/Graphics/SVG/1.1/DTD/svg11.dtd">
<!-- Generated by graphviz version 2.43.0 (0)
 -->
<!-- Title: sources/CPU/CPU.cpp Pages: 1 -->
<svg width="1759pt" height="532pt"
 viewBox="0.00 0.00 1759.00 532.00" xmlns="http://www.w3.org/2000/svg" xmlns:xlink="http://www.w3.org/1999/xlink">
<g id="graph0" class="graph" transform="scale(1 1) rotate(0) translate(4 528)">
<title>sources/CPU/CPU.cpp</title>
<polygon fill="white" stroke="transparent" points="-4,4 -4,-528 1755,-528 1755,4 -4,4"/>
<!-- Node1 -->
<g id="node1" class="node">
<title>Node1</title>
<g id="a_node1"><a xlink:title=" ">
<polygon fill="#bfbfbf" stroke="black" points="1374.5,-504.5 1374.5,-523.5 1495.5,-523.5 1495.5,-504.5 1374.5,-504.5"/>
<text text-anchor="middle" x="1435" y="-511.5" font-family="Helvetica,sans-Serif" font-size="10.00">sources/CPU/CPU.cpp</text>
</a>
</g>
</g>
<!-- Node2 -->
<g id="node2" class="node">
<title>Node2</title>
<g id="a_node2"><a xlink:href="CPU_8hpp.html" target="_top" xlink:title=" ">
<polygon fill="white" stroke="black" points="917,-448.5 917,-467.5 975,-467.5 975,-448.5 917,-448.5"/>
<text text-anchor="middle" x="946" y="-455.5" font-family="Helvetica,sans-Serif" font-size="10.00">CPU.hpp</text>
</a>
</g>
</g>
<!-- Node1&#45;&gt;Node2 -->
<g id="edge1" class="edge">
<title>Node1&#45;&gt;Node2</title>
<path fill="none" stroke="midnightblue" d="M1374.06,-506.27C1272.18,-495.02 1070.12,-472.71 985.12,-463.32"/>
<polygon fill="midnightblue" stroke="midnightblue" points="985.44,-459.83 975.11,-462.21 984.67,-466.79 985.44,-459.83"/>
</g>
<!-- Node10 -->
<g id="node10" class="node">
<title>Node10</title>
<g id="a_node10"><a xlink:title=" ">
<polygon fill="white" stroke="#bfbfbf" points="1691,-0.5 1691,-19.5 1751,-19.5 1751,-0.5 1691,-0.5"/>
<text text-anchor="middle" x="1721" y="-7.5" font-family="Helvetica,sans-Serif" font-size="10.00">iostream</text>
</a>
</g>
</g>
<!-- Node1&#45;&gt;Node10 -->
<g id="edge82" class="edge">
<title>Node1&#45;&gt;Node10</title>
<path fill="none" stroke="midnightblue" d="M1469.76,-504.43C1547.37,-482.98 1728,-419.28 1728,-291 1728,-291 1728,-291 1728,-121 1728,-88.88 1724.99,-51.6 1722.92,-29.73"/>
<polygon fill="midnightblue" stroke="midnightblue" points="1726.38,-29.15 1721.92,-19.55 1719.41,-29.84 1726.38,-29.15"/>
</g>
<!-- Node31 -->
<g id="node31" class="node">
<title>Node31</title>
<g id="a_node31"><a xlink:href="InvalidAddress_8hpp.html" target="_top" xlink:title=" ">
<polygon fill="white" stroke="black" points="1352,-112.5 1352,-131.5 1518,-131.5 1518,-112.5 1352,-112.5"/>
<text text-anchor="middle" x="1435" y="-119.5" font-family="Helvetica,sans-Serif" font-size="10.00">Exceptions/InvalidAddress.hpp</text>
</a>
</g>
</g>
<!-- Node1&#45;&gt;Node31 -->
<g id="edge64" class="edge">
<title>Node1&#45;&gt;Node31</title>
<path fill="none" stroke="midnightblue" d="M1435,-504.44C1435,-485.94 1435,-440.81 1435,-403 1435,-403 1435,-403 1435,-233 1435,-200.95 1435,-163.64 1435,-141.75"/>
<polygon fill="midnightblue" stroke="midnightblue" points="1438.5,-141.56 1435,-131.56 1431.5,-141.56 1438.5,-141.56"/>
</g>
<!-- Node37 -->
<g id="node37" class="node">
<title>Node37</title>
<g id="a_node37"><a xlink:href="InvalidOpcode_8hpp.html" target="_top" xlink:title=" ">
<polygon fill="white" stroke="black" points="1536,-112.5 1536,-131.5 1700,-131.5 1700,-112.5 1536,-112.5"/>
<text text-anchor="middle" x="1618" y="-119.5" font-family="Helvetica,sans-Serif" font-size="10.00">Exceptions/InvalidOpcode.hpp</text>
</a>
</g>
</g>
<!-- Node1&#45;&gt;Node37 -->
<g id="edge72" class="edge">
<title>Node1&#45;&gt;Node37</title>
<path fill="none" stroke="midnightblue" d="M1495.75,-512.25C1571.18,-507.74 1690,-487.25 1690,-403 1690,-403 1690,-403 1690,-233 1690,-193.94 1657.82,-157.94 1636.49,-138.37"/>
<polygon fill="midnightblue" stroke="midnightblue" points="1638.75,-135.7 1628.94,-131.7 1634.12,-140.94 1638.75,-135.7"/>
</g>
<!-- Node38 -->
<g id="node38" class="node">
<title>Node38</title>
<g id="a_node38"><a xlink:href="Utility_8hpp.html" target="_top" xlink:title=" ">
<polygon fill="white" stroke="black" points="1234.5,-112.5 1234.5,-131.5 1333.5,-131.5 1333.5,-112.5 1234.5,-112.5"/>
<text text-anchor="middle" x="1284" y="-119.5" font-family="Helvetica,sans-Serif" font-size="10.00">Utility/Utility.hpp</text>
</a>
</g>
</g>
<!-- Node1&#45;&gt;Node38 -->
<g id="edge77" class="edge">
<title>Node1&#45;&gt;Node38</title>
<path fill="none" stroke="midnightblue" d="M1427.12,-504.33C1411.91,-486.67 1380,-444.64 1380,-403 1380,-403 1380,-403 1380,-233 1380,-189.54 1336.94,-154.96 1308.5,-136.85"/>
<polygon fill="midnightblue" stroke="midnightblue" points="1310.21,-133.79 1299.85,-131.56 1306.56,-139.77 1310.21,-133.79"/>
</g>
<!-- Node3 -->
<g id="node3" class="node">
<title>Node3</title>
<g id="a_node3"><a xlink:href="AMemory_8hpp.html" target="_top" xlink:title=" ">
<polygon fill="white" stroke="black" points="390.5,-168.5 390.5,-187.5 517.5,-187.5 517.5,-168.5 390.5,-168.5"/>
<text text-anchor="middle" x="454" y="-175.5" font-family="Helvetica,sans-Serif" font-size="10.00">Memory/AMemory.hpp</text>
</a>
</g>
</g>
<!-- Node2&#45;&gt;Node3 -->
<g id="edge2" class="edge">
<title>Node2&#45;&gt;Node3</title>
<path fill="none" stroke="midnightblue" d="M916.95,-456.46C814.48,-453.78 476,-438.03 476,-347 476,-347 476,-347 476,-289 476,-256.33 466.55,-219.24 460.04,-197.55"/>
<polygon fill="midnightblue" stroke="midnightblue" points="463.29,-196.22 456.97,-187.72 456.61,-198.31 463.29,-196.22"/>
</g>
<!-- Node8 -->
<g id="node8" class="node">
<title>Node8</title>
<g id="a_node8"><a xlink:href="Ints_8hpp.html" target="_top" xlink:title=" ">
<polygon fill="white" stroke="black" points="937,-56.5 937,-75.5 1031,-75.5 1031,-56.5 937,-56.5"/>
<text text-anchor="middle" x="984" y="-63.5" font-family="Helvetica,sans-Serif" font-size="10.00">Models/Ints.hpp</text>
</a>
</g>
</g>
<!-- Node2&#45;&gt;Node8 -->
<g id="edge36" class="edge">
<title>Node2&#45;&gt;Node8</title>
<path fill="none" stroke="midnightblue" d="M958.81,-448.39C981.88,-431.74 1028,-392.73 1028,-347 1028,-347 1028,-347 1028,-233 1028,-177.53 1004.76,-115 992.06,-84.98"/>
<polygon fill="midnightblue" stroke="midnightblue" points="995.26,-83.56 988.06,-75.78 988.84,-86.35 995.26,-83.56"/>
</g>
<!-- Node13 -->
<g id="node13" class="node">
<title>Node13</title>
<g id="a_node13"><a xlink:href="MemoryBus_8hpp.html" target="_top" xlink:title=" ">
<polygon fill="white" stroke="black" points="232,-336.5 232,-355.5 372,-355.5 372,-336.5 232,-336.5"/>
<text text-anchor="middle" x="302" y="-343.5" font-family="Helvetica,sans-Serif" font-size="10.00">Memory/MemoryBus.hpp</text>
</a>
</g>
</g>
<!-- Node2&#45;&gt;Node13 -->
<g id="edge18" class="edge">
<title>Node2&#45;&gt;Node13</title>
<path fill="none" stroke="midnightblue" d="M916.75,-456.27C803.38,-453.25 396.77,-440.51 347,-412 328.81,-401.58 316.3,-380.45 309.18,-365.11"/>
<polygon fill="midnightblue" stroke="midnightblue" points="312.26,-363.42 305.1,-355.61 305.83,-366.18 312.26,-363.42"/>
</g>
<!-- Node19 -->
<g id="node19" class="node">
<title>Node19</title>
<g id="a_node19"><a xlink:href="Callback_8hpp.html" target="_top" xlink:title=" ">
<polygon fill="white" stroke="black" points="1118,-392.5 1118,-411.5 1236,-411.5 1236,-392.5 1118,-392.5"/>
<text text-anchor="middle" x="1177" y="-399.5" font-family="Helvetica,sans-Serif" font-size="10.00">Models/Callback.hpp</text>
</a>
</g>
</g>
<!-- Node2&#45;&gt;Node19 -->
<g id="edge37" class="edge">
<title>Node2&#45;&gt;Node19</title>
<path fill="none" stroke="midnightblue" d="M975.26,-450.16C1014.39,-441.01 1084.21,-424.69 1130.57,-413.85"/>
<polygon fill="midnightblue" stroke="midnightblue" points="1131.44,-417.25 1140.38,-411.56 1129.84,-410.43 1131.44,-417.25"/>
</g>
<!-- Node23 -->
<g id="node23" class="node">
<title>Node23</title>
<g id="a_node23"><a xlink:href="Cartridge_8hpp.html" target="_top" xlink:title=" ">
<polygon fill="white" stroke="black" points="729.5,-280.5 729.5,-299.5 860.5,-299.5 860.5,-280.5 729.5,-280.5"/>
<text text-anchor="middle" x="795" y="-287.5" font-family="Helvetica,sans-Serif" font-size="10.00">Cartridge/Cartridge.hpp</text>
</a>
</g>
</g>
<!-- Node2&#45;&gt;Node23 -->
<g id="edge41" class="edge">
<title>Node2&#45;&gt;Node23</title>
<path fill="none" stroke="midnightblue" d="M937.88,-448.08C913.6,-421.38 841.27,-341.87 809.85,-307.32"/>
<polygon fill="midnightblue" stroke="midnightblue" points="812.11,-304.61 802.79,-299.57 806.93,-309.32 812.11,-304.61"/>
</g>
<!-- Node28 -->
<g id="node28" class="node">
<title>Node28</title>
<g id="a_node28"><a xlink:href="Instruction_8hpp.html" target="_top" xlink:title=" ">
<polygon fill="white" stroke="black" points="1050.5,-112.5 1050.5,-131.5 1139.5,-131.5 1139.5,-112.5 1050.5,-112.5"/>
<text text-anchor="middle" x="1095" y="-119.5" font-family="Helvetica,sans-Serif" font-size="10.00">Instruction.hpp</text>
</a>
</g>
</g>
<!-- Node2&#45;&gt;Node28 -->
<g id="edge54" class="edge">
<title>Node2&#45;&gt;Node28</title>
<path fill="none" stroke="midnightblue" d="M975.19,-449.77C996.32,-443.15 1024.19,-431.38 1042,-412 1062.83,-389.32 1066,-377.8 1066,-347 1066,-347 1066,-347 1066,-233 1066,-199.72 1078.57,-162.58 1087.16,-141.09"/>
<polygon fill="midnightblue" stroke="midnightblue" points="1090.48,-142.21 1091.09,-131.64 1084.02,-139.53 1090.48,-142.21"/>
</g>
<!-- Node29 -->
<g id="node29" class="node">
<title>Node29</title>
<g id="a_node29"><a xlink:href="DMA_8hpp.html" target="_top" xlink:title=" ">
<polygon fill="white" stroke="black" points="356.5,-392.5 356.5,-411.5 443.5,-411.5 443.5,-392.5 356.5,-392.5"/>
<text text-anchor="middle" x="400" y="-399.5" font-family="Helvetica,sans-Serif" font-size="10.00">DMA/DMA.hpp</text>
</a>
</g>
</g>
<!-- Node2&#45;&gt;Node29 -->
<g id="edge57" class="edge">
<title>Node2&#45;&gt;Node29</title>
<path fill="none" stroke="midnightblue" d="M916.76,-454.81C841.32,-449.04 634,-432.47 462,-412 459.31,-411.68 456.55,-411.34 453.77,-410.98"/>
<polygon fill="midnightblue" stroke="midnightblue" points="454.03,-407.48 443.66,-409.63 453.11,-414.42 454.03,-407.48"/>
</g>
<!-- Node30 -->
<g id="node30" class="node">
<title>Node30</title>
<g id="a_node30"><a xlink:href="Registers_8hpp.html" target="_top" xlink:title=" ">
<polygon fill="white" stroke="black" points="892.5,-280.5 892.5,-299.5 999.5,-299.5 999.5,-280.5 892.5,-280.5"/>
<text text-anchor="middle" x="946" y="-287.5" font-family="Helvetica,sans-Serif" font-size="10.00">CPU/Registers.hpp</text>
</a>
</g>
</g>
<!-- Node2&#45;&gt;Node30 -->
<g id="edge62" class="edge">
<title>Node2&#45;&gt;Node30</title>
<path fill="none" stroke="midnightblue" d="M946,-448.08C946,-421.95 946,-345.21 946,-309.58"/>
<polygon fill="midnightblue" stroke="midnightblue" points="949.5,-309.57 946,-299.57 942.5,-309.57 949.5,-309.57"/>
</g>
<!-- Node4 -->
<g id="node4" class="node">
<title>Node4</title>
<g id="a_node4"><a xlink:title=" ">
<polygon fill="white" stroke="#bfbfbf" points="344,-56.5 344,-75.5 394,-75.5 394,-56.5 344,-56.5"/>
<text text-anchor="middle" x="369" y="-63.5" font-family="Helvetica,sans-Serif" font-size="10.00">cstdint</text>
</a>
</g>
</g>
<!-- Node3&#45;&gt;Node4 -->
<g id="edge3" class="edge">
<title>Node3&#45;&gt;Node4</title>
<path fill="none" stroke="midnightblue" d="M447.33,-168.37C433.24,-150.14 400.24,-107.43 381.89,-83.68"/>
<polygon fill="midnightblue" stroke="midnightblue" points="384.52,-81.36 375.64,-75.59 378.98,-85.64 384.52,-81.36"/>
</g>
<!-- Node5 -->
<g id="node5" class="node">
<title>Node5</title>
<g id="a_node5"><a xlink:title=" ">
<polygon fill="white" stroke="#bfbfbf" points="584.5,-56.5 584.5,-75.5 631.5,-75.5 631.5,-56.5 584.5,-56.5"/>
<text text-anchor="middle" x="608" y="-63.5" font-family="Helvetica,sans-Serif" font-size="10.00">vector</text>
</a>
</g>
</g>
<!-- Node3&#45;&gt;Node5 -->
<g id="edge4" class="edge">
<title>Node3&#45;&gt;Node5</title>
<path fill="none" stroke="midnightblue" d="M482.03,-168.49C503.42,-161.1 532.89,-148.91 555,-132 572.46,-118.65 587.75,-98.44 597.37,-84.11"/>
<polygon fill="midnightblue" stroke="midnightblue" points="600.34,-85.97 602.83,-75.67 594.46,-82.16 600.34,-85.97"/>
</g>
<!-- Node6 -->
<g id="node6" class="node">
<title>Node6</title>
<g id="a_node6"><a xlink:title=" ">
<polygon fill="white" stroke="#bfbfbf" points="67,-56.5 67,-75.5 125,-75.5 125,-56.5 67,-56.5"/>
<text text-anchor="middle" x="96" y="-63.5" font-family="Helvetica,sans-Serif" font-size="10.00">memory</text>
</a>
</g>
</g>
<!-- Node3&#45;&gt;Node6 -->
<g id="edge5" class="edge">
<title>Node3&#45;&gt;Node6</title>
<path fill="none" stroke="midnightblue" d="M431.16,-168.42C396.11,-155.4 326.84,-130.24 267,-112 222.1,-98.31 169.83,-84.92 135.02,-76.36"/>
<polygon fill="midnightblue" stroke="midnightblue" points="135.78,-72.94 125.24,-73.96 134.12,-79.74 135.78,-72.94"/>
</g>
<!-- Node7 -->
<g id="node7" class="node">
<title>Node7</title>
<g id="a_node7"><a xlink:title=" ">
<polygon fill="white" stroke="#bfbfbf" points="1165,-56.5 1165,-75.5 1209,-75.5 1209,-56.5 1165,-56.5"/>
<text text-anchor="middle" x="1187" y="-63.5" font-family="Helvetica,sans-Serif" font-size="10.00">string</text>
</a>
</g>
</g>
<!-- Node3&#45;&gt;Node7 -->
<g id="edge6" class="edge">
<title>Node3&#45;&gt;Node7</title>
<path fill="none" stroke="midnightblue" d="M510.91,-168.46C656.73,-146.58 1040.32,-89.01 1154.49,-71.88"/>
<polygon fill="midnightblue" stroke="midnightblue" points="1155.31,-75.29 1164.68,-70.35 1154.27,-68.37 1155.31,-75.29"/>
</g>
<!-- Node3&#45;&gt;Node8 -->
<g id="edge7" class="edge">
<title>Node3&#45;&gt;Node8</title>
<path fill="none" stroke="midnightblue" d="M490.79,-168.41C546.08,-155.59 653.93,-130.95 746,-112 807.72,-99.3 878.72,-86.05 927,-77.24"/>
<polygon fill="midnightblue" stroke="midnightblue" points="927.74,-80.67 936.95,-75.44 926.48,-73.78 927.74,-80.67"/>
</g>
<!-- Node11 -->
<g id="node11" class="node">
<title>Node11</title>
<g id="a_node11"><a xlink:href="Components_8hpp.html" target="_top" xlink:title=" ">
<polygon fill="white" stroke="black" points="426.5,-56.5 426.5,-75.5 563.5,-75.5 563.5,-56.5 426.5,-56.5"/>
<text text-anchor="middle" x="495" y="-63.5" font-family="Helvetica,sans-Serif" font-size="10.00">Models/Components.hpp</text>
</a>
</g>
</g>
<!-- Node3&#45;&gt;Node11 -->
<g id="edge10" class="edge">
<title>Node3&#45;&gt;Node11</title>
<path fill="none" stroke="midnightblue" d="M452.67,-168.22C451.11,-155.38 449.58,-130.93 457,-112 461.31,-101 469.47,-90.77 477.12,-82.85"/>
<polygon fill="midnightblue" stroke="midnightblue" points="479.7,-85.23 484.45,-75.76 474.83,-80.2 479.7,-85.23"/>
</g>
<!-- Node12 -->
<g id="node12" class="node">
<title>Node12</title>
<g id="a_node12"><a xlink:href="IMemory_8hpp.html" target="_top" xlink:title=" ">
<polygon fill="white" stroke="black" points="466,-112.5 466,-131.5 546,-131.5 546,-112.5 466,-112.5"/>
<text text-anchor="middle" x="506" y="-119.5" font-family="Helvetica,sans-Serif" font-size="10.00">IMemory.hpp</text>
</a>
</g>
</g>
<!-- Node3&#45;&gt;Node12 -->
<g id="edge11" class="edge">
<title>Node3&#45;&gt;Node12</title>
<path fill="none" stroke="midnightblue" d="M462.59,-168.08C470.16,-160.22 481.38,-148.57 490.51,-139.08"/>
<polygon fill="midnightblue" stroke="midnightblue" points="493.16,-141.38 497.57,-131.75 488.12,-136.53 493.16,-141.38"/>
</g>
<!-- Node9 -->
<g id="node9" class="node">
<title>Node9</title>
<g id="a_node9"><a xlink:title=" ">
<polygon fill="white" stroke="#bfbfbf" points="877,-0.5 877,-19.5 939,-19.5 939,-0.5 877,-0.5"/>
<text text-anchor="middle" x="908" y="-7.5" font-family="Helvetica,sans-Serif" font-size="10.00">cinttypes</text>
</a>
</g>
</g>
<!-- Node8&#45;&gt;Node9 -->
<g id="edge8" class="edge">
<title>Node8&#45;&gt;Node9</title>
<path fill="none" stroke="midnightblue" d="M971.79,-56.32C960.22,-48.11 942.62,-35.6 928.84,-25.81"/>
<polygon fill="midnightblue" stroke="midnightblue" points="930.61,-22.77 920.43,-19.83 926.56,-28.48 930.61,-22.77"/>
</g>
<!-- Node8&#45;&gt;Node10 -->
<g id="edge9" class="edge">
<title>Node8&#45;&gt;Node10</title>
<path fill="none" stroke="midnightblue" d="M1031.07,-62.29C1176.33,-53.86 1611.59,-28.23 1675,-20 1676.94,-19.75 1678.91,-19.47 1680.91,-19.16"/>
<polygon fill="midnightblue" stroke="midnightblue" points="1681.63,-22.59 1690.9,-17.46 1680.46,-15.68 1681.63,-22.59"/>
</g>
<!-- Node12&#45;&gt;Node4 -->
<g id="edge12" class="edge">
<title>Node12&#45;&gt;Node4</title>
<path fill="none" stroke="midnightblue" d="M484.29,-112.44C461.65,-103.52 425.93,-89.44 400.25,-79.32"/>
<polygon fill="midnightblue" stroke="midnightblue" points="401.19,-75.93 390.61,-75.52 398.63,-82.44 401.19,-75.93"/>
</g>
<!-- Node12&#45;&gt;Node5 -->
<g id="edge13" class="edge">
<title>Node12&#45;&gt;Node5</title>
<path fill="none" stroke="midnightblue" d="M522.39,-112.32C538.67,-103.7 563.87,-90.36 582.72,-80.39"/>
<polygon fill="midnightblue" stroke="midnightblue" points="584.45,-83.43 591.65,-75.65 581.18,-77.24 584.45,-83.43"/>
</g>
<!-- Node12&#45;&gt;Node6 -->
<g id="edge14" class="edge">
<title>Node12&#45;&gt;Node6</title>
<path fill="none" stroke="midnightblue" d="M465.94,-115.72C387.33,-105.37 213.71,-82.5 135.53,-72.21"/>
<polygon fill="midnightblue" stroke="midnightblue" points="135.52,-68.68 125.15,-70.84 134.61,-75.62 135.52,-68.68"/>
</g>
<!-- Node12&#45;&gt;Node7 -->
<g id="edge15" class="edge">
<title>Node12&#45;&gt;Node7</title>
<path fill="none" stroke="midnightblue" d="M546.06,-117.82C669.52,-108.03 1042.62,-78.45 1154.77,-69.56"/>
<polygon fill="midnightblue" stroke="midnightblue" points="1155.1,-73.04 1164.79,-68.76 1154.55,-66.06 1155.1,-73.04"/>
</g>
<!-- Node12&#45;&gt;Node8 -->
<g id="edge16" class="edge">
<title>Node12&#45;&gt;Node8</title>
<path fill="none" stroke="midnightblue" d="M546.34,-116.44C631.34,-106.84 829.04,-84.51 926.96,-73.44"/>
<polygon fill="midnightblue" stroke="midnightblue" points="927.42,-76.91 936.97,-72.31 926.64,-69.96 927.42,-76.91"/>
</g>
<!-- Node12&#45;&gt;Node11 -->
<g id="edge17" class="edge">
<title>Node12&#45;&gt;Node11</title>
<path fill="none" stroke="midnightblue" d="M504.18,-112.08C502.73,-104.93 500.63,-94.64 498.81,-85.69"/>
<polygon fill="midnightblue" stroke="midnightblue" points="502.21,-84.85 496.78,-75.75 495.35,-86.25 502.21,-84.85"/>
</g>
<!-- Node13&#45;&gt;Node3 -->
<g id="edge19" class="edge">
<title>Node13&#45;&gt;Node3</title>
<path fill="none" stroke="midnightblue" d="M310.17,-336.08C334.62,-309.38 407.42,-229.87 439.05,-195.32"/>
<polygon fill="midnightblue" stroke="midnightblue" points="441.98,-197.31 446.15,-187.57 436.82,-192.58 441.98,-197.31"/>
</g>
<!-- Node13&#45;&gt;Node4 -->
<g id="edge33" class="edge">
<title>Node13&#45;&gt;Node4</title>
<path fill="none" stroke="midnightblue" d="M304.97,-336.28C310.97,-317.82 324,-273.37 324,-235 324,-235 324,-235 324,-177 324,-141.93 343.84,-104.94 357.17,-84.04"/>
<polygon fill="midnightblue" stroke="midnightblue" points="360.13,-85.9 362.74,-75.63 354.3,-82.03 360.13,-85.9"/>
</g>
<!-- Node13&#45;&gt;Node5 -->
<g id="edge35" class="edge">
<title>Node13&#45;&gt;Node5</title>
<path fill="none" stroke="midnightblue" d="M320.27,-336.45C370.21,-312.1 509.96,-237.3 580,-132 589.67,-117.47 597.22,-99.05 602.04,-85.54"/>
<polygon fill="midnightblue" stroke="midnightblue" points="605.41,-86.51 605.3,-75.92 598.78,-84.26 605.41,-86.51"/>
</g>
<!-- Node13&#45;&gt;Node6 -->
<g id="edge34" class="edge">
<title>Node13&#45;&gt;Node6</title>
<path fill="none" stroke="midnightblue" d="M231.95,-344.64C153.73,-340.1 38,-319.16 38,-235 38,-235 38,-235 38,-177 38,-140.16 63.77,-103.57 80.95,-83.25"/>
<polygon fill="midnightblue" stroke="midnightblue" points="83.71,-85.41 87.69,-75.59 78.46,-80.79 83.71,-85.41"/>
</g>
<!-- Node14 -->
<g id="node14" class="node">
<title>Node14</title>
<g id="a_node14"><a xlink:href="RectangleShadow_8hpp.html" target="_top" xlink:title=" ">
<polygon fill="white" stroke="black" points="104,-280.5 104,-299.5 228,-299.5 228,-280.5 104,-280.5"/>
<text text-anchor="middle" x="166" y="-287.5" font-family="Helvetica,sans-Serif" font-size="10.00">RectangleShadow.hpp</text>
</a>
</g>
</g>
<!-- Node13&#45;&gt;Node14 -->
<g id="edge20" class="edge">
<title>Node13&#45;&gt;Node14</title>
<path fill="none" stroke="midnightblue" d="M280.45,-336.44C257.97,-327.52 222.51,-313.44 197.02,-303.32"/>
<polygon fill="midnightblue" stroke="midnightblue" points="198.03,-299.95 187.45,-299.52 195.45,-306.46 198.03,-299.95"/>
</g>
<!-- Node16 -->
<g id="node16" class="node">
<title>Node16</title>
<g id="a_node16"><a xlink:href="MemoryShadow_8hpp.html" target="_top" xlink:title=" ">
<polygon fill="white" stroke="black" points="104,-224.5 104,-243.5 220,-243.5 220,-224.5 104,-224.5"/>
<text text-anchor="middle" x="162" y="-231.5" font-family="Helvetica,sans-Serif" font-size="10.00">MemoryShadow.hpp</text>
</a>
</g>
</g>
<!-- Node13&#45;&gt;Node16 -->
<g id="edge28" class="edge">
<title>Node13&#45;&gt;Node16</title>
<path fill="none" stroke="midnightblue" d="M231.95,-339.08C178.82,-332.96 112.11,-321.23 95,-300 79.13,-280.31 107.51,-260.47 132.08,-247.98"/>
<polygon fill="midnightblue" stroke="midnightblue" points="133.73,-251.07 141.22,-243.57 130.69,-244.77 133.73,-251.07"/>
</g>
<!-- Node17 -->
<g id="node17" class="node">
<title>Node17</title>
<g id="a_node17"><a xlink:href="IMemoryBus_8hpp.html" target="_top" xlink:title=" ">
<polygon fill="white" stroke="black" points="188.5,-168.5 188.5,-187.5 287.5,-187.5 287.5,-168.5 188.5,-168.5"/>
<text text-anchor="middle" x="238" y="-175.5" font-family="Helvetica,sans-Serif" font-size="10.00">IMemoryBus.hpp</text>
</a>
</g>
</g>
<!-- Node13&#45;&gt;Node17 -->
<g id="edge29" class="edge">
<title>Node13&#45;&gt;Node17</title>
<path fill="none" stroke="midnightblue" d="M298.56,-336.08C288.44,-309.83 258.64,-232.55 244.98,-197.12"/>
<polygon fill="midnightblue" stroke="midnightblue" points="248.17,-195.64 241.3,-187.57 241.64,-198.16 248.17,-195.64"/>
</g>
<!-- Node14&#45;&gt;Node6 -->
<g id="edge21" class="edge">
<title>Node14&#45;&gt;Node6</title>
<path fill="none" stroke="midnightblue" d="M140.84,-280.38C124.58,-273.34 104.71,-261.65 95,-244 66.79,-192.72 81.11,-119.76 90.29,-85.78"/>
<polygon fill="midnightblue" stroke="midnightblue" points="93.75,-86.41 93.14,-75.83 87.02,-84.48 93.75,-86.41"/>
</g>
<!-- Node15 -->
<g id="node15" class="node">
<title>Node15</title>
<g id="a_node15"><a xlink:href="ARectangleMemory_8hpp.html" target="_top" xlink:title=" ">
<polygon fill="white" stroke="black" points="612,-168.5 612,-187.5 744,-187.5 744,-168.5 612,-168.5"/>
<text text-anchor="middle" x="678" y="-175.5" font-family="Helvetica,sans-Serif" font-size="10.00">ARectangleMemory.hpp</text>
</a>
</g>
</g>
<!-- Node14&#45;&gt;Node15 -->
<g id="edge22" class="edge">
<title>Node14&#45;&gt;Node15</title>
<path fill="none" stroke="midnightblue" d="M205.75,-280.46C298.09,-260.62 526.91,-211.46 628.29,-189.68"/>
<polygon fill="midnightblue" stroke="midnightblue" points="629.23,-193.06 638.28,-187.53 627.76,-186.21 629.23,-193.06"/>
</g>
<!-- Node14&#45;&gt;Node16 -->
<g id="edge25" class="edge">
<title>Node14&#45;&gt;Node16</title>
<path fill="none" stroke="midnightblue" d="M165.34,-280.08C164.82,-273.01 164.06,-262.86 163.41,-253.99"/>
<polygon fill="midnightblue" stroke="midnightblue" points="166.88,-253.47 162.65,-243.75 159.9,-253.98 166.88,-253.47"/>
</g>
<!-- Node15&#45;&gt;Node8 -->
<g id="edge24" class="edge">
<title>Node15&#45;&gt;Node8</title>
<path fill="none" stroke="midnightblue" d="M701.76,-168.46C755.76,-149.05 887.88,-101.55 950.3,-79.12"/>
<polygon fill="midnightblue" stroke="midnightblue" points="951.82,-82.29 960.05,-75.61 949.45,-75.7 951.82,-82.29"/>
</g>
<!-- Node15&#45;&gt;Node12 -->
<g id="edge23" class="edge">
<title>Node15&#45;&gt;Node12</title>
<path fill="none" stroke="midnightblue" d="M650.75,-168.44C621.56,-159.28 575.08,-144.69 542.69,-134.52"/>
<polygon fill="midnightblue" stroke="midnightblue" points="543.72,-131.17 533.13,-131.52 541.62,-137.85 543.72,-131.17"/>
</g>
<!-- Node16&#45;&gt;Node3 -->
<g id="edge27" class="edge">
<title>Node16&#45;&gt;Node3</title>
<path fill="none" stroke="midnightblue" d="M208.27,-224.44C259.74,-214.92 342.89,-199.55 398,-189.36"/>
<polygon fill="midnightblue" stroke="midnightblue" points="398.75,-192.78 407.95,-187.52 397.48,-185.89 398.75,-192.78"/>
</g>
<!-- Node16&#45;&gt;Node6 -->
<g id="edge26" class="edge">
<title>Node16&#45;&gt;Node6</title>
<path fill="none" stroke="midnightblue" d="M158.45,-224.08C148.02,-197.83 117.29,-120.55 103.2,-85.12"/>
<polygon fill="midnightblue" stroke="midnightblue" points="106.35,-83.57 99.41,-75.57 99.85,-86.15 106.35,-83.57"/>
</g>
<!-- Node17&#45;&gt;Node9 -->
<g id="edge30" class="edge">
<title>Node17&#45;&gt;Node9</title>
<path fill="none" stroke="midnightblue" d="M224.48,-168.41C206.69,-156 179.18,-132.31 193,-112 231.17,-55.92 268.9,-71.27 335,-56 436.35,-32.59 752.68,-17.46 866.59,-12.66"/>
<polygon fill="midnightblue" stroke="midnightblue" points="866.81,-16.15 876.66,-12.24 866.52,-9.16 866.81,-16.15"/>
</g>
<!-- Node17&#45;&gt;Node12 -->
<g id="edge32" class="edge">
<title>Node17&#45;&gt;Node12</title>
<path fill="none" stroke="midnightblue" d="M280.47,-168.44C328.1,-158.84 405.31,-143.29 455.87,-133.1"/>
<polygon fill="midnightblue" stroke="midnightblue" points="456.81,-136.48 465.92,-131.08 455.43,-129.62 456.81,-136.48"/>
</g>
<!-- Node18 -->
<g id="node18" class="node">
<title>Node18</title>
<g id="a_node18"><a xlink:title=" ">
<polygon fill="white" stroke="#bfbfbf" points="202,-112.5 202,-131.5 258,-131.5 258,-112.5 202,-112.5"/>
<text text-anchor="middle" x="230" y="-119.5" font-family="Helvetica,sans-Serif" font-size="10.00">optional</text>
</a>
</g>
</g>
<!-- Node17&#45;&gt;Node18 -->
<g id="edge31" class="edge">
<title>Node17&#45;&gt;Node18</title>
<path fill="none" stroke="midnightblue" d="M236.68,-168.08C235.62,-160.93 234.09,-150.64 232.77,-141.69"/>
<polygon fill="midnightblue" stroke="midnightblue" points="236.22,-141.13 231.3,-131.75 229.3,-142.16 236.22,-141.13"/>
</g>
<!-- Node20 -->
<g id="node20" class="node">
<title>Node20</title>
<g id="a_node20"><a xlink:title=" ">
<polygon fill="white" stroke="#bfbfbf" points="1094.5,-336.5 1094.5,-355.5 1159.5,-355.5 1159.5,-336.5 1094.5,-336.5"/>
<text text-anchor="middle" x="1127" y="-343.5" font-family="Helvetica,sans-Serif" font-size="10.00">functional</text>
</a>
</g>
</g>
<!-- Node19&#45;&gt;Node20 -->
<g id="edge38" class="edge">
<title>Node19&#45;&gt;Node20</title>
<path fill="none" stroke="midnightblue" d="M1168.74,-392.08C1161.54,-384.3 1150.89,-372.8 1142.15,-363.37"/>
<polygon fill="midnightblue" stroke="midnightblue" points="1144.47,-360.71 1135.1,-355.75 1139.33,-365.47 1144.47,-360.71"/>
</g>
<!-- Node21 -->
<g id="node21" class="node">
<title>Node21</title>
<g id="a_node21"><a xlink:title=" ">
<polygon fill="white" stroke="#bfbfbf" points="1177.5,-336.5 1177.5,-355.5 1222.5,-355.5 1222.5,-336.5 1177.5,-336.5"/>
<text text-anchor="middle" x="1200" y="-343.5" font-family="Helvetica,sans-Serif" font-size="10.00">utility</text>
</a>
</g>
</g>
<!-- Node19&#45;&gt;Node21 -->
<g id="edge39" class="edge">
<title>Node19&#45;&gt;Node21</title>
<path fill="none" stroke="midnightblue" d="M1180.8,-392.08C1183.91,-384.77 1188.42,-374.18 1192.29,-365.1"/>
<polygon fill="midnightblue" stroke="midnightblue" points="1195.57,-366.32 1196.27,-355.75 1189.13,-363.58 1195.57,-366.32"/>
</g>
<!-- Node22 -->
<g id="node22" class="node">
<title>Node22</title>
<g id="a_node22"><a xlink:title=" ">
<polygon fill="white" stroke="#bfbfbf" points="1240.5,-336.5 1240.5,-355.5 1333.5,-355.5 1333.5,-336.5 1240.5,-336.5"/>
<text text-anchor="middle" x="1287" y="-343.5" font-family="Helvetica,sans-Serif" font-size="10.00">unordered_map</text>
</a>
</g>
</g>
<!-- Node19&#45;&gt;Node22 -->
<g id="edge40" class="edge">
<title>Node19&#45;&gt;Node22</title>
<path fill="none" stroke="midnightblue" d="M1194.67,-392.32C1212.39,-383.62 1239.9,-370.12 1260.29,-360.11"/>
<polygon fill="midnightblue" stroke="midnightblue" points="1261.94,-363.2 1269.37,-355.65 1258.85,-356.92 1261.94,-363.2"/>
</g>
<!-- Node23&#45;&gt;Node3 -->
<g id="edge44" class="edge">
<title>Node23&#45;&gt;Node3</title>
<path fill="none" stroke="midnightblue" d="M746.87,-280.46C707.18,-272.79 649.7,-260.25 601,-244 557.24,-229.4 508.7,-206.55 479.8,-192.19"/>
<polygon fill="midnightblue" stroke="midnightblue" points="481.29,-189.03 470.79,-187.68 478.16,-195.29 481.29,-189.03"/>
</g>
<!-- Node23&#45;&gt;Node7 -->
<g id="edge53" class="edge">
<title>Node23&#45;&gt;Node7</title>
<path fill="none" stroke="midnightblue" d="M860.69,-281.29C946.69,-267.49 1095.47,-230.11 1172,-132 1182.34,-118.74 1185.78,-99.61 1186.81,-85.54"/>
<polygon fill="midnightblue" stroke="midnightblue" points="1190.31,-85.68 1187.22,-75.55 1183.32,-85.4 1190.31,-85.68"/>
</g>
<!-- Node23&#45;&gt;Node8 -->
<g id="edge46" class="edge">
<title>Node23&#45;&gt;Node8</title>
<path fill="none" stroke="midnightblue" d="M860.73,-280.98C886.32,-274.75 914,-263.67 933,-244 955.14,-221.08 973.71,-126.6 980.86,-85.85"/>
<polygon fill="midnightblue" stroke="midnightblue" points="984.33,-86.33 982.56,-75.88 977.43,-85.15 984.33,-86.33"/>
</g>
<!-- Node23&#45;&gt;Node15 -->
<g id="edge45" class="edge">
<title>Node23&#45;&gt;Node15</title>
<path fill="none" stroke="midnightblue" d="M729.31,-281.7C681.99,-274.93 623.95,-262.99 609,-244 593.21,-223.93 621.91,-204.31 646.97,-191.97"/>
<polygon fill="midnightblue" stroke="midnightblue" points="648.72,-195.01 656.3,-187.61 645.76,-188.67 648.72,-195.01"/>
</g>
<!-- Node24 -->
<g id="node24" class="node">
<title>Node24</title>
<g id="a_node24"><a xlink:href="InterruptVectors_8hpp.html" target="_top" xlink:title=" ">
<polygon fill="white" stroke="black" points="722,-224.5 722,-243.5 838,-243.5 838,-224.5 722,-224.5"/>
<text text-anchor="middle" x="780" y="-231.5" font-family="Helvetica,sans-Serif" font-size="10.00">InterruptVectors.hpp</text>
</a>
</g>
</g>
<!-- Node23&#45;&gt;Node24 -->
<g id="edge42" class="edge">
<title>Node23&#45;&gt;Node24</title>
<path fill="none" stroke="midnightblue" d="M792.52,-280.08C790.51,-272.85 787.61,-262.41 785.11,-253.4"/>
<polygon fill="midnightblue" stroke="midnightblue" points="788.48,-252.45 782.43,-243.75 781.74,-254.32 788.48,-252.45"/>
</g>
<!-- Node25 -->
<g id="node25" class="node">
<title>Node25</title>
<g id="a_node25"><a xlink:href="Ram_8hpp.html" target="_top" xlink:title=" ">
<polygon fill="white" stroke="black" points="618,-224.5 618,-243.5 704,-243.5 704,-224.5 618,-224.5"/>
<text text-anchor="middle" x="661" y="-231.5" font-family="Helvetica,sans-Serif" font-size="10.00">Ram/Ram.hpp</text>
</a>
</g>
</g>
<!-- Node23&#45;&gt;Node25 -->
<g id="edge47" class="edge">
<title>Node23&#45;&gt;Node25</title>
<path fill="none" stroke="midnightblue" d="M773.77,-280.44C751.62,-271.52 716.68,-257.44 691.56,-247.32"/>
<polygon fill="midnightblue" stroke="midnightblue" points="692.72,-244.01 682.13,-243.52 690.1,-250.5 692.72,-244.01"/>
</g>
<!-- Node27 -->
<g id="node27" class="node">
<title>Node27</title>
<g id="a_node27"><a xlink:title=" ">
<polygon fill="white" stroke="#bfbfbf" points="856,-224.5 856,-243.5 924,-243.5 924,-224.5 856,-224.5"/>
<text text-anchor="middle" x="890" y="-231.5" font-family="Helvetica,sans-Serif" font-size="10.00">filesystem</text>
</a>
</g>
</g>
<!-- Node23&#45;&gt;Node27 -->
<g id="edge52" class="edge">
<title>Node23&#45;&gt;Node27</title>
<path fill="none" stroke="midnightblue" d="M810.26,-280.32C825.22,-271.82 848.25,-258.73 865.73,-248.8"/>
<polygon fill="midnightblue" stroke="midnightblue" points="867.81,-251.64 874.77,-243.65 864.35,-245.55 867.81,-251.64"/>
</g>
<!-- Node24&#45;&gt;Node9 -->
<g id="edge43" class="edge">
<title>Node24&#45;&gt;Node9</title>
<path fill="none" stroke="midnightblue" d="M800.2,-224.37C815.59,-216.84 836.24,-204.53 849,-188 886.87,-138.93 901.09,-64.31 905.86,-29.77"/>
<polygon fill="midnightblue" stroke="midnightblue" points="909.35,-30.04 907.13,-19.68 902.41,-29.16 909.35,-30.04"/>
</g>
<!-- Node25&#45;&gt;Node5 -->
<g id="edge51" class="edge">
<title>Node25&#45;&gt;Node5</title>
<path fill="none" stroke="midnightblue" d="M695.33,-224.41C727.18,-214.54 767.62,-196 753,-168 729.57,-123.13 676.12,-94.15 641.07,-79.21"/>
<polygon fill="midnightblue" stroke="midnightblue" points="642.29,-75.93 631.71,-75.36 639.63,-82.4 642.29,-75.93"/>
</g>
<!-- Node25&#45;&gt;Node7 -->
<g id="edge49" class="edge">
<title>Node25&#45;&gt;Node7</title>
<path fill="none" stroke="midnightblue" d="M704.01,-225.05C819.64,-203.55 1129.69,-145 1148,-132 1164.06,-120.6 1174.67,-100.31 1180.72,-85.42"/>
<polygon fill="midnightblue" stroke="midnightblue" points="1184.11,-86.34 1184.32,-75.74 1177.55,-83.89 1184.11,-86.34"/>
</g>
<!-- Node25&#45;&gt;Node15 -->
<g id="edge48" class="edge">
<title>Node25&#45;&gt;Node15</title>
<path fill="none" stroke="midnightblue" d="M663.81,-224.08C666.08,-216.85 669.37,-206.41 672.21,-197.4"/>
<polygon fill="midnightblue" stroke="midnightblue" points="675.58,-198.34 675.25,-187.75 668.9,-196.24 675.58,-198.34"/>
</g>
<!-- Node26 -->
<g id="node26" class="node">
<title>Node26</title>
<g id="a_node26"><a xlink:title=" ">
<polygon fill="white" stroke="#bfbfbf" points="800,-168.5 800,-187.5 840,-187.5 840,-168.5 800,-168.5"/>
<text text-anchor="middle" x="820" y="-175.5" font-family="Helvetica,sans-Serif" font-size="10.00">span</text>
</a>
</g>
</g>
<!-- Node25&#45;&gt;Node26 -->
<g id="edge50" class="edge">
<title>Node25&#45;&gt;Node26</title>
<path fill="none" stroke="midnightblue" d="M686.19,-224.44C714.52,-214.82 760.45,-199.22 790.45,-189.04"/>
<polygon fill="midnightblue" stroke="midnightblue" points="791.61,-192.34 799.96,-185.81 789.36,-185.71 791.61,-192.34"/>
</g>
<!-- Node28&#45;&gt;Node7 -->
<g id="edge55" class="edge">
<title>Node28&#45;&gt;Node7</title>
<path fill="none" stroke="midnightblue" d="M1109.78,-112.32C1124.27,-103.82 1146.57,-90.73 1163.49,-80.8"/>
<polygon fill="midnightblue" stroke="midnightblue" points="1165.4,-83.74 1172.26,-75.65 1161.86,-77.7 1165.4,-83.74"/>
</g>
<!-- Node28&#45;&gt;Node8 -->
<g id="edge56" class="edge">
<title>Node28&#45;&gt;Node8</title>
<path fill="none" stroke="midnightblue" d="M1077.17,-112.32C1059.28,-103.62 1031.52,-90.12 1010.95,-80.11"/>
<polygon fill="midnightblue" stroke="midnightblue" points="1012.31,-76.88 1001.79,-75.65 1009.25,-83.18 1012.31,-76.88"/>
</g>
<!-- Node29&#45;&gt;Node4 -->
<g id="edge60" class="edge">
<title>Node29&#45;&gt;Node4</title>
<path fill="none" stroke="midnightblue" d="M399.2,-392.41C395.12,-348.47 376.57,-148.57 370.75,-85.87"/>
<polygon fill="midnightblue" stroke="midnightblue" points="374.2,-85.17 369.79,-75.54 367.23,-85.82 374.2,-85.17"/>
</g>
<!-- Node29&#45;&gt;Node6 -->
<g id="edge61" class="edge">
<title>Node29&#45;&gt;Node6</title>
<path fill="none" stroke="midnightblue" d="M356.43,-398.26C252.76,-390.57 0,-364.28 0,-291 0,-291 0,-291 0,-177 0,-133.54 43.06,-98.96 71.5,-80.85"/>
<polygon fill="midnightblue" stroke="midnightblue" points="73.44,-83.77 80.15,-75.56 69.79,-77.79 73.44,-83.77"/>
</g>
<!-- Node29&#45;&gt;Node8 -->
<g id="edge59" class="edge">
<title>Node29&#45;&gt;Node8</title>
<path fill="none" stroke="midnightblue" d="M405,-392.23C425.05,-357.87 503.35,-231.25 603,-168 622.21,-155.81 778,-117.82 800,-112 846.5,-99.71 899.92,-86.78 937.18,-77.94"/>
<polygon fill="midnightblue" stroke="midnightblue" points="938.32,-81.27 947.24,-75.57 936.71,-74.46 938.32,-81.27"/>
</g>
<!-- Node29&#45;&gt;Node13 -->
<g id="edge58" class="edge">
<title>Node29&#45;&gt;Node13</title>
<path fill="none" stroke="midnightblue" d="M384.25,-392.32C368.68,-383.74 344.62,-370.49 326.54,-360.52"/>
<polygon fill="midnightblue" stroke="midnightblue" points="328.15,-357.42 317.71,-355.65 324.78,-363.55 328.15,-357.42"/>
</g>
<!-- Node30&#45;&gt;Node8 -->
<g id="edge63" class="edge">
<title>Node30&#45;&gt;Node8</title>
<path fill="none" stroke="midnightblue" d="M950.85,-280.34C955.55,-271.49 962.49,-257.22 966,-244 980.91,-187.9 983.63,-118.79 984.02,-85.99"/>
<polygon fill="midnightblue" stroke="midnightblue" points="987.52,-85.67 984.08,-75.65 980.52,-85.63 987.52,-85.67"/>
</g>
<!-- Node31&#45;&gt;Node7 -->
<g id="edge71" class="edge">
<title>Node31&#45;&gt;Node7</title>
<path fill="none" stroke="midnightblue" d="M1395.7,-112.44C1346.79,-101.79 1264.2,-83.81 1218.97,-73.96"/>
<polygon fill="midnightblue" stroke="midnightblue" points="1219.63,-70.52 1209.12,-71.82 1218.15,-77.36 1219.63,-70.52"/>
</g>
<!-- Node31&#45;&gt;Node8 -->
<g id="edge67" class="edge">
<title>Node31&#45;&gt;Node8</title>
<path fill="none" stroke="midnightblue" d="M1363.54,-112.44C1274.34,-101.76 1123.53,-83.71 1041.44,-73.88"/>
<polygon fill="midnightblue" stroke="midnightblue" points="1041.64,-70.38 1031.29,-72.66 1040.8,-77.33 1041.64,-70.38"/>
</g>
<!-- Node32 -->
<g id="node32" class="node">
<title>Node32</title>
<g id="a_node32"><a xlink:href="DebuggableError_8hpp.html" target="_top" xlink:title=" ">
<polygon fill="white" stroke="black" points="1558.5,-56.5 1558.5,-75.5 1677.5,-75.5 1677.5,-56.5 1558.5,-56.5"/>
<text text-anchor="middle" x="1618" y="-63.5" font-family="Helvetica,sans-Serif" font-size="10.00">DebuggableError.hpp</text>
</a>
</g>
</g>
<!-- Node31&#45;&gt;Node32 -->
<g id="edge65" class="edge">
<title>Node31&#45;&gt;Node32</title>
<path fill="none" stroke="midnightblue" d="M1464,-112.44C1495.18,-103.24 1544.93,-88.56 1579.41,-78.39"/>
<polygon fill="midnightblue" stroke="midnightblue" points="1580.54,-81.7 1589.14,-75.52 1578.56,-74.99 1580.54,-81.7"/>
</g>
<!-- Node34 -->
<g id="node34" class="node">
<title>Node34</title>
<g id="a_node34"><a xlink:title=" ">
<polygon fill="white" stroke="#bfbfbf" points="1475.5,-56.5 1475.5,-75.5 1540.5,-75.5 1540.5,-56.5 1475.5,-56.5"/>
<text text-anchor="middle" x="1508" y="-63.5" font-family="Helvetica,sans-Serif" font-size="10.00">exception</text>
</a>
</g>
</g>
<!-- Node31&#45;&gt;Node34 -->
<g id="edge68" class="edge">
<title>Node31&#45;&gt;Node34</title>
<path fill="none" stroke="midnightblue" d="M1446.73,-112.32C1457.84,-104.11 1474.74,-91.6 1487.98,-81.81"/>
<polygon fill="midnightblue" stroke="midnightblue" points="1490.1,-84.59 1496.06,-75.83 1485.94,-78.97 1490.1,-84.59"/>
</g>
<!-- Node35 -->
<g id="node35" class="node">
<title>Node35</title>
<g id="a_node35"><a xlink:title=" ">
<polygon fill="white" stroke="#bfbfbf" points="1309.5,-56.5 1309.5,-75.5 1340.5,-75.5 1340.5,-56.5 1309.5,-56.5"/>
<text text-anchor="middle" x="1325" y="-63.5" font-family="Helvetica,sans-Serif" font-size="10.00">ios</text>
</a>
</g>
</g>
<!-- Node31&#45;&gt;Node35 -->
<g id="edge69" class="edge">
<title>Node31&#45;&gt;Node35</title>
<path fill="none" stroke="midnightblue" d="M1417.33,-112.32C1399.08,-103.37 1370.46,-89.32 1349.92,-79.23"/>
<polygon fill="midnightblue" stroke="midnightblue" points="1351.36,-76.04 1340.84,-74.78 1348.28,-82.33 1351.36,-76.04"/>
</g>
<!-- Node36 -->
<g id="node36" class="node">
<title>Node36</title>
<g id="a_node36"><a xlink:title=" ">
<polygon fill="white" stroke="#bfbfbf" points="1401,-56.5 1401,-75.5 1457,-75.5 1457,-56.5 1401,-56.5"/>
<text text-anchor="middle" x="1429" y="-63.5" font-family="Helvetica,sans-Serif" font-size="10.00">sstream</text>
</a>
</g>
</g>
<!-- Node31&#45;&gt;Node36 -->
<g id="edge70" class="edge">
<title>Node31&#45;&gt;Node36</title>
<path fill="none" stroke="midnightblue" d="M1434.01,-112.08C1433.21,-104.93 1432.07,-94.64 1431.08,-85.69"/>
<polygon fill="midnightblue" stroke="midnightblue" points="1434.56,-85.3 1429.97,-75.75 1427.6,-86.08 1434.56,-85.3"/>
</g>
<!-- Node33 -->
<g id="node33" class="node">
<title>Node33</title>
<g id="a_node33"><a xlink:title=" ">
<polygon fill="white" stroke="#bfbfbf" points="1570.5,-0.5 1570.5,-19.5 1665.5,-19.5 1665.5,-0.5 1570.5,-0.5"/>
<text text-anchor="middle" x="1618" y="-7.5" font-family="Helvetica,sans-Serif" font-size="10.00">bits/exception.h</text>
</a>
</g>
</g>
<!-- Node32&#45;&gt;Node33 -->
<g id="edge66" class="edge">
<title>Node32&#45;&gt;Node33</title>
<path fill="none" stroke="midnightblue" d="M1618,-56.08C1618,-49.01 1618,-38.86 1618,-29.99"/>
<polygon fill="midnightblue" stroke="midnightblue" points="1621.5,-29.75 1618,-19.75 1614.5,-29.75 1621.5,-29.75"/>
</g>
<!-- Node37&#45;&gt;Node7 -->
<g id="edge74" class="edge">
<title>Node37&#45;&gt;Node7</title>
<path fill="none" stroke="midnightblue" d="M1549.71,-112.44C1455.33,-100.62 1288.81,-79.76 1219.1,-71.02"/>
<polygon fill="midnightblue" stroke="midnightblue" points="1219.51,-67.55 1209.15,-69.78 1218.64,-74.49 1219.51,-67.55"/>
</g>
<!-- Node37&#45;&gt;Node32 -->
<g id="edge76" class="edge">
<title>Node37&#45;&gt;Node32</title>
<path fill="none" stroke="midnightblue" d="M1618,-112.08C1618,-105.01 1618,-94.86 1618,-85.99"/>
<polygon fill="midnightblue" stroke="midnightblue" points="1621.5,-85.75 1618,-75.75 1614.5,-85.75 1621.5,-85.75"/>
</g>
<!-- Node37&#45;&gt;Node34 -->
<g id="edge73" class="edge">
<title>Node37&#45;&gt;Node34</title>
<path fill="none" stroke="midnightblue" d="M1600.33,-112.32C1582.61,-103.62 1555.1,-90.12 1534.71,-80.11"/>
<polygon fill="midnightblue" stroke="midnightblue" points="1536.15,-76.92 1525.63,-75.65 1533.06,-83.2 1536.15,-76.92"/>
</g>
<!-- Node37&#45;&gt;Node36 -->
<g id="edge75" class="edge">
<title>Node37&#45;&gt;Node36</title>
<path fill="none" stroke="midnightblue" d="M1588.05,-112.44C1555.37,-103.11 1502.95,-88.13 1467.3,-77.94"/>
<polygon fill="midnightblue" stroke="midnightblue" points="1467.84,-74.46 1457.26,-75.08 1465.92,-81.19 1467.84,-74.46"/>
</g>
<!-- Node38&#45;&gt;Node7 -->
<g id="edge78" class="edge">
<title>Node38&#45;&gt;Node7</title>
<path fill="none" stroke="midnightblue" d="M1268.42,-112.32C1253,-103.74 1229.19,-90.49 1211.29,-80.52"/>
<polygon fill="midnightblue" stroke="midnightblue" points="1212.99,-77.46 1202.55,-75.65 1209.58,-83.58 1212.99,-77.46"/>
</g>
<!-- Node38&#45;&gt;Node8 -->
<g id="edge81" class="edge">
<title>Node38&#45;&gt;Node8</title>
<path fill="none" stroke="midnightblue" d="M1236.46,-112.44C1183.47,-102.9 1097.8,-87.48 1041.18,-77.29"/>
<polygon fill="midnightblue" stroke="midnightblue" points="1041.78,-73.84 1031.31,-75.52 1040.54,-80.73 1041.78,-73.84"/>
</g>
<!-- Node38&#45;&gt;Node35 -->
<g id="edge79" class="edge">
<title>Node38&#45;&gt;Node35</title>
<path fill="none" stroke="midnightblue" d="M1290.77,-112.08C1296.56,-104.46 1305.06,-93.26 1312.14,-83.94"/>
<polygon fill="midnightblue" stroke="midnightblue" points="1315.1,-85.83 1318.36,-75.75 1309.52,-81.6 1315.1,-85.83"/>
</g>
<!-- Node38&#45;&gt;Node36 -->
<g id="edge80" class="edge">
<title>Node38&#45;&gt;Node36</title>
<path fill="none" stroke="midnightblue" d="M1306.98,-112.44C1331.16,-103.44 1369.42,-89.19 1396.65,-79.05"/>
<polygon fill="midnightblue" stroke="midnightblue" points="1397.98,-82.29 1406.13,-75.52 1395.54,-75.73 1397.98,-82.29"/>
</g>
</g>
</svg>
