<?xml version="1.0" encoding="UTF-8" standalone="no"?>
<!DOCTYPE svg PUBLIC "-//W3C//DTD SVG 1.1//EN"
 "http://www.w3.org/Graphics/SVG/1.1/DTD/svg11.dtd">
<!-- Generated by graphviz version 2.43.0 (0)
 -->
<!-- Title: sources/Debugger Pages: 1 -->
<svg width="820pt" height="519pt"
 viewBox="0.00 0.00 819.50 519.00" xmlns="http://www.w3.org/2000/svg" xmlns:xlink="http://www.w3.org/1999/xlink">
<g id="graph0" class="graph" transform="scale(1 1) rotate(0) translate(4 515)">
<title>sources/Debugger</title>
<polygon fill="white" stroke="transparent" points="-4,4 -4,-515 815.5,-515 815.5,4 -4,4"/>
<g id="clust1" class="cluster">
<title>clusterdir_08d237fc27d4ecd563f71c5d52f2fecc</title>
<g id="a_clust1"><a xlink:href="dir_08d237fc27d4ecd563f71c5d52f2fecc.html" target="_top" xlink:title="sources">
<polygon fill="#ddddee" stroke="black" points="258.5,-416 258.5,-503 512.5,-503 512.5,-416 258.5,-416"/>
<text text-anchor="middle" x="385.5" y="-491" font-family="Helvetica,sans-Serif" font-size="10.00">sources</text>
</a>
</g>
</g>
<g id="clust2" class="cluster">
<title>clusterdir_189293303b628b823f13ae296b502d01</title>
<g id="a_clust2"><a xlink:href="dir_189293303b628b823f13ae296b502d01.html" target="_top">
<polygon fill="#eeeeff" stroke="black" points="266.5,-424 266.5,-476 504.5,-476 504.5,-424 266.5,-424"/>
</a>
</g>
</g>
<!-- dir_189293303b628b823f13ae296b502d01 -->
<g id="node1" class="node">
<title>dir_189293303b628b823f13ae296b502d01</title>
<text text-anchor="middle" x="392.5" y="-447.5" font-family="Helvetica,sans-Serif" font-size="10.00">Debugger</text>
</g>
<!-- dir_acbfe30a39643d3dad4cea6c4be60bc9 -->
<g id="node8" class="node">
<title>dir_acbfe30a39643d3dad4cea6c4be60bc9</title>
<g id="a_node8"><a xlink:href="dir_acbfe30a39643d3dad4cea6c4be60bc9.html" target="_top" xlink:title="Cartridge">
<polygon fill="none" stroke="black" points="559.5,-324 497.5,-324 497.5,-288 559.5,-288 559.5,-324"/>
<text text-anchor="middle" x="528.5" y="-303.5" font-family="Helvetica,sans-Serif" font-size="10.00">Cartridge</text>
</a>
</g>
</g>
<!-- dir_189293303b628b823f13ae296b502d01&#45;&gt;dir_acbfe30a39643d3dad4cea6c4be60bc9 -->
<g id="edge18" class="edge">
<title>dir_189293303b628b823f13ae296b502d01&#45;&gt;dir_acbfe30a39643d3dad4cea6c4be60bc9</title>
<path fill="none" stroke="black" d="M408.9,-431.87C432.8,-406.92 477.31,-360.45 504.77,-331.77"/>
<polygon fill="black" stroke="black" points="507.65,-333.83 512.04,-324.19 502.59,-328.99 507.65,-333.83"/>
<g id="a_edge18&#45;headlabel"><a xlink:href="dir_000010_000006.html" target="_top" xlink:title="1">
<text text-anchor="middle" x="507.21" y="-335.89" font-family="Helvetica,sans-Serif" font-size="10.00">1</text>
</a>
</g>
</g>
<!-- dir_c023b0da1327801e33139c8f2715cbe5 -->
<g id="node11" class="node">
<title>dir_c023b0da1327801e33139c8f2715cbe5</title>
<g id="a_node11"><a xlink:href="dir_c023b0da1327801e33139c8f2715cbe5.html" target="_top" xlink:title="APU">
<polygon fill="white" stroke="red" points="420.5,-396 366.5,-396 366.5,-360 420.5,-360 420.5,-396"/>
<text text-anchor="middle" x="393.5" y="-375.5" font-family="Helvetica,sans-Serif" font-size="10.00">APU</text>
</a>
</g>
</g>
<!-- dir_189293303b628b823f13ae296b502d01&#45;&gt;dir_c023b0da1327801e33139c8f2715cbe5 -->
<g id="edge19" class="edge">
<title>dir_189293303b628b823f13ae296b502d01&#45;&gt;dir_c023b0da1327801e33139c8f2715cbe5</title>
<path fill="none" stroke="black" d="M392.75,-431.7C392.86,-423.98 392.99,-414.71 393.11,-406.11"/>
<polygon fill="black" stroke="black" points="396.61,-406.15 393.26,-396.1 389.61,-406.05 396.61,-406.15"/>
<g id="a_edge19&#45;headlabel"><a xlink:href="dir_000010_000002.html" target="_top" xlink:title="1">
<text text-anchor="middle" x="399.4" y="-407.29" font-family="Helvetica,sans-Serif" font-size="10.00">1</text>
</a>
</g>
</g>
<!-- dir_596bfb3d48f2f085998f77aaf2d42ecf -->
<g id="node12" class="node">
<title>dir_596bfb3d48f2f085998f77aaf2d42ecf</title>
<g id="a_node12"><a xlink:href="dir_596bfb3d48f2f085998f77aaf2d42ecf.html" target="_top" xlink:title="PPU">
<polygon fill="none" stroke="black" points="192.5,-396 138.5,-396 138.5,-360 192.5,-360 192.5,-396"/>
<text text-anchor="middle" x="165.5" y="-375.5" font-family="Helvetica,sans-Serif" font-size="10.00">PPU</text>
</a>
</g>
</g>
<!-- dir_189293303b628b823f13ae296b502d01&#45;&gt;dir_596bfb3d48f2f085998f77aaf2d42ecf -->
<g id="edge20" class="edge">
<title>dir_189293303b628b823f13ae296b502d01&#45;&gt;dir_596bfb3d48f2f085998f77aaf2d42ecf</title>
<path fill="none" stroke="black" d="M375.01,-431.82C368.17,-425.98 359.94,-419.94 351.5,-416 303.24,-393.45 241.69,-384.63 202.92,-381.18"/>
<polygon fill="black" stroke="black" points="202.87,-377.67 192.62,-380.35 202.31,-384.65 202.87,-377.67"/>
<g id="a_edge20&#45;headlabel"><a xlink:href="dir_000010_000017.html" target="_top" xlink:title="6">
<text text-anchor="middle" x="206.68" y="-372.63" font-family="Helvetica,sans-Serif" font-size="10.00">6</text>
</a>
</g>
</g>
<!-- dir_96c90ef27c711de2cda20e988f4ab9d6 -->
<g id="node13" class="node">
<title>dir_96c90ef27c711de2cda20e988f4ab9d6</title>
<g id="a_node13"><a xlink:href="dir_96c90ef27c711de2cda20e988f4ab9d6.html" target="_top" xlink:title="Ram">
<polygon fill="none" stroke="black" points="331.5,-252 277.5,-252 277.5,-216 331.5,-216 331.5,-252"/>
<text text-anchor="middle" x="304.5" y="-231.5" font-family="Helvetica,sans-Serif" font-size="10.00">Ram</text>
</a>
</g>
</g>
<!-- dir_189293303b628b823f13ae296b502d01&#45;&gt;dir_96c90ef27c711de2cda20e988f4ab9d6 -->
<g id="edge21" class="edge">
<title>dir_189293303b628b823f13ae296b502d01&#45;&gt;dir_96c90ef27c711de2cda20e988f4ab9d6</title>
<path fill="none" stroke="black" d="M379.29,-431.54C372.15,-421.53 363.58,-408.49 357.5,-396 335.55,-350.87 319.32,-294.42 310.94,-261.76"/>
<polygon fill="black" stroke="black" points="314.32,-260.88 308.49,-252.03 307.54,-262.59 314.32,-260.88"/>
<g id="a_edge21&#45;headlabel"><a xlink:href="dir_000010_000018.html" target="_top" xlink:title="3">
<text text-anchor="middle" x="317.95" y="-261.17" font-family="Helvetica,sans-Serif" font-size="10.00">3</text>
</a>
</g>
</g>
<!-- dir_f310dd6fcff708d4aeb1a6c2ce39f361 -->
<g id="node2" class="node">
<title>dir_f310dd6fcff708d4aeb1a6c2ce39f361</title>
<g id="a_node2"><a xlink:href="dir_f310dd6fcff708d4aeb1a6c2ce39f361.html" target="_top" xlink:title="CPU">
<polygon fill="white" stroke="red" points="496.5,-468 442.5,-468 442.5,-432 496.5,-432 496.5,-468"/>
<text text-anchor="middle" x="469.5" y="-447.5" font-family="Helvetica,sans-Serif" font-size="10.00">CPU</text>
</a>
</g>
</g>
<!-- dir_a65246f7a5288ee65248a0302198d58d -->
<g id="node4" class="node">
<title>dir_a65246f7a5288ee65248a0302198d58d</title>
<g id="a_node4"><a xlink:href="dir_a65246f7a5288ee65248a0302198d58d.html" target="_top" xlink:title="CPU">
<polygon fill="white" stroke="red" points="675.5,-396 621.5,-396 621.5,-360 675.5,-360 675.5,-396"/>
<text text-anchor="middle" x="648.5" y="-375.5" font-family="Helvetica,sans-Serif" font-size="10.00">CPU</text>
</a>
</g>
</g>
<!-- dir_f310dd6fcff708d4aeb1a6c2ce39f361&#45;&gt;dir_a65246f7a5288ee65248a0302198d58d -->
<g id="edge1" class="edge">
<title>dir_f310dd6fcff708d4aeb1a6c2ce39f361&#45;&gt;dir_a65246f7a5288ee65248a0302198d58d</title>
<path fill="none" stroke="black" d="M496.69,-438.37C527.4,-426.36 577.54,-406.75 611.73,-393.38"/>
<polygon fill="black" stroke="black" points="613.31,-396.52 621.35,-389.62 610.76,-390 613.31,-396.52"/>
<g id="a_edge1&#45;headlabel"><a xlink:href="dir_000011_000007.html" target="_top" xlink:title="1">
<text text-anchor="middle" x="611" y="-397.97" font-family="Helvetica,sans-Serif" font-size="10.00">1</text>
</a>
</g>
</g>
<!-- dir_5cb6e1a8c8be2c39561c895666c60a3e -->
<g id="node6" class="node">
<title>dir_5cb6e1a8c8be2c39561c895666c60a3e</title>
<g id="a_node6"><a xlink:href="dir_5cb6e1a8c8be2c39561c895666c60a3e.html" target="_top" xlink:title="Models">
<polygon fill="none" stroke="black" points="500.5,-36 446.5,-36 446.5,0 500.5,0 500.5,-36"/>
<text text-anchor="middle" x="473.5" y="-15.5" font-family="Helvetica,sans-Serif" font-size="10.00">Models</text>
</a>
</g>
</g>
<!-- dir_f310dd6fcff708d4aeb1a6c2ce39f361&#45;&gt;dir_5cb6e1a8c8be2c39561c895666c60a3e -->
<g id="edge2" class="edge">
<title>dir_f310dd6fcff708d4aeb1a6c2ce39f361&#45;&gt;dir_5cb6e1a8c8be2c39561c895666c60a3e</title>
<path fill="none" stroke="black" d="M496.51,-447.39C542.53,-443.72 638.07,-432.05 709.5,-396 763.21,-368.89 811.5,-367.16 811.5,-307 811.5,-307 811.5,-307 811.5,-161 811.5,-31.64 598.47,-18.18 510.65,-18.12"/>
<polygon fill="black" stroke="black" points="510.57,-14.62 500.59,-18.18 510.61,-21.62 510.57,-14.62"/>
<g id="a_edge2&#45;headlabel"><a xlink:href="dir_000011_000016.html" target="_top" xlink:title="1">
<text text-anchor="middle" x="514.15" y="-9.27" font-family="Helvetica,sans-Serif" font-size="10.00">1</text>
</a>
</g>
</g>
<!-- dir_f5f18c638a333642b431bbbd93cbd24f -->
<g id="node7" class="node">
<title>dir_f5f18c638a333642b431bbbd93cbd24f</title>
<g id="a_node7"><a xlink:href="dir_f5f18c638a333642b431bbbd93cbd24f.html" target="_top" xlink:title="Utility">
<polygon fill="none" stroke="black" points="745.5,-324 691.5,-324 691.5,-288 745.5,-288 745.5,-324"/>
<text text-anchor="middle" x="718.5" y="-303.5" font-family="Helvetica,sans-Serif" font-size="10.00">Utility</text>
</a>
</g>
</g>
<!-- dir_f310dd6fcff708d4aeb1a6c2ce39f361&#45;&gt;dir_f5f18c638a333642b431bbbd93cbd24f -->
<g id="edge3" class="edge">
<title>dir_f310dd6fcff708d4aeb1a6c2ce39f361&#45;&gt;dir_f5f18c638a333642b431bbbd93cbd24f</title>
<path fill="none" stroke="black" d="M496.56,-449.9C541.22,-449.91 630.78,-443.48 684.5,-396 702.36,-380.22 710.89,-354 714.93,-334.1"/>
<polygon fill="black" stroke="black" points="718.4,-334.54 716.7,-324.08 711.51,-333.32 718.4,-334.54"/>
<g id="a_edge3&#45;headlabel"><a xlink:href="dir_000011_000021.html" target="_top" xlink:title="3">
<text text-anchor="middle" x="720.57" y="-336.07" font-family="Helvetica,sans-Serif" font-size="10.00">3</text>
</a>
</g>
</g>
<!-- dir_b6b0f0b7471b46e8c4cfc0f00c8af2f6 -->
<g id="node9" class="node">
<title>dir_b6b0f0b7471b46e8c4cfc0f00c8af2f6</title>
<g id="a_node9"><a xlink:href="dir_b6b0f0b7471b46e8c4cfc0f00c8af2f6.html" target="_top" xlink:title="Memory">
<polygon fill="none" stroke="black" points="429,-180 372,-180 372,-144 429,-144 429,-180"/>
<text text-anchor="middle" x="400.5" y="-159.5" font-family="Helvetica,sans-Serif" font-size="10.00">Memory</text>
</a>
</g>
</g>
<!-- dir_f310dd6fcff708d4aeb1a6c2ce39f361&#45;&gt;dir_b6b0f0b7471b46e8c4cfc0f00c8af2f6 -->
<g id="edge4" class="edge">
<title>dir_f310dd6fcff708d4aeb1a6c2ce39f361&#45;&gt;dir_b6b0f0b7471b46e8c4cfc0f00c8af2f6</title>
<path fill="none" stroke="black" d="M465.39,-431.97C453.86,-384.19 421.16,-248.62 407.08,-190.27"/>
<polygon fill="black" stroke="black" points="410.42,-189.21 404.68,-180.31 403.62,-190.85 410.42,-189.21"/>
<g id="a_edge4&#45;headlabel"><a xlink:href="dir_000011_000015.html" target="_top" xlink:title="1">
<text text-anchor="middle" x="414.03" y="-189.54" font-family="Helvetica,sans-Serif" font-size="10.00">1</text>
</a>
</g>
</g>
<!-- dir_5da686cefd6752aaaa3bcabf1d868d88 -->
<g id="node10" class="node">
<title>dir_5da686cefd6752aaaa3bcabf1d868d88</title>
<g id="a_node10"><a xlink:href="dir_5da686cefd6752aaaa3bcabf1d868d88.html" target="_top" xlink:title="Exceptions">
<polygon fill="none" stroke="black" points="508.5,-108 438.5,-108 438.5,-72 508.5,-72 508.5,-108"/>
<text text-anchor="middle" x="473.5" y="-87.5" font-family="Helvetica,sans-Serif" font-size="10.00">Exceptions</text>
</a>
</g>
</g>
<!-- dir_f310dd6fcff708d4aeb1a6c2ce39f361&#45;&gt;dir_5da686cefd6752aaaa3bcabf1d868d88 -->
<g id="edge5" class="edge">
<title>dir_f310dd6fcff708d4aeb1a6c2ce39f361&#45;&gt;dir_5da686cefd6752aaaa3bcabf1d868d88</title>
<path fill="none" stroke="black" d="M489.43,-431.98C513.54,-409.94 552.85,-368.97 568.5,-324 595.41,-246.68 532,-157.69 496.09,-115.56"/>
<polygon fill="black" stroke="black" points="498.73,-113.26 489.53,-108.01 493.45,-117.85 498.73,-113.26"/>
<g id="a_edge5&#45;headlabel"><a xlink:href="dir_000011_000014.html" target="_top" xlink:title="2">
<text text-anchor="middle" x="503.23" y="-111.6" font-family="Helvetica,sans-Serif" font-size="10.00">2</text>
</a>
</g>
</g>
<!-- dir_c321c6a7f0648929655fbb9f990d53a6 -->
<g id="node3" class="node">
<title>dir_c321c6a7f0648929655fbb9f990d53a6</title>
<g id="a_node3"><a xlink:href="dir_c321c6a7f0648929655fbb9f990d53a6.html" target="_top" xlink:title="TileViewer">
<polygon fill="white" stroke="black" points="342.5,-468 274.5,-468 274.5,-432 342.5,-432 342.5,-468"/>
<text text-anchor="middle" x="308.5" y="-447.5" font-family="Helvetica,sans-Serif" font-size="10.00">TileViewer</text>
</a>
</g>
</g>
<!-- dir_9d8b0bd023ebe51fb4b8ffcd38d3f5ed -->
<g id="node5" class="node">
<title>dir_9d8b0bd023ebe51fb4b8ffcd38d3f5ed</title>
<g id="a_node5"><a xlink:href="dir_9d8b0bd023ebe51fb4b8ffcd38d3f5ed.html" target="_top" xlink:title="Renderer">
<polygon fill="white" stroke="red" points="61,-324 0,-324 0,-288 61,-288 61,-324"/>
<text text-anchor="middle" x="30.5" y="-303.5" font-family="Helvetica,sans-Serif" font-size="10.00">Renderer</text>
</a>
</g>
</g>
<!-- dir_c321c6a7f0648929655fbb9f990d53a6&#45;&gt;dir_9d8b0bd023ebe51fb4b8ffcd38d3f5ed -->
<g id="edge37" class="edge">
<title>dir_c321c6a7f0648929655fbb9f990d53a6&#45;&gt;dir_9d8b0bd023ebe51fb4b8ffcd38d3f5ed</title>
<path fill="none" stroke="black" d="M274.22,-449.45C226.01,-448.37 137.6,-439.94 79.5,-396 59.04,-380.53 46.01,-353.91 38.58,-333.81"/>
<polygon fill="black" stroke="black" points="41.85,-332.57 35.28,-324.26 35.24,-334.86 41.85,-332.57"/>
<g id="a_edge37&#45;headlabel"><a xlink:href="dir_000013_000019.html" target="_top" xlink:title="2">
<text text-anchor="middle" x="45.71" y="-332.54" font-family="Helvetica,sans-Serif" font-size="10.00">2</text>
</a>
</g>
</g>
<!-- dir_c321c6a7f0648929655fbb9f990d53a6&#45;&gt;dir_596bfb3d48f2f085998f77aaf2d42ecf -->
<g id="edge38" class="edge">
<title>dir_c321c6a7f0648929655fbb9f990d53a6&#45;&gt;dir_596bfb3d48f2f085998f77aaf2d42ecf</title>
<path fill="none" stroke="black" d="M274.25,-432.23C252.41,-421.55 224.15,-407.71 201.91,-396.82"/>
<polygon fill="black" stroke="black" points="203.3,-393.61 192.78,-392.36 200.23,-399.9 203.3,-393.61"/>
<g id="a_edge38&#45;headlabel"><a xlink:href="dir_000013_000017.html" target="_top" xlink:title="4">
<text text-anchor="middle" x="207.78" y="-390.14" font-family="Helvetica,sans-Serif" font-size="10.00">4</text>
</a>
</g>
</g>
<!-- dir_c321c6a7f0648929655fbb9f990d53a6&#45;&gt;dir_96c90ef27c711de2cda20e988f4ab9d6 -->
<g id="edge39" class="edge">
<title>dir_c321c6a7f0648929655fbb9f990d53a6&#45;&gt;dir_96c90ef27c711de2cda20e988f4ab9d6</title>
<path fill="none" stroke="black" d="M306.47,-431.84C305.35,-421.48 304.06,-408 303.5,-396 301.3,-349.29 302.4,-294.88 303.43,-262.78"/>
<polygon fill="black" stroke="black" points="306.94,-262.52 303.79,-252.4 299.95,-262.28 306.94,-262.52"/>
<g id="a_edge39&#45;headlabel"><a xlink:href="dir_000013_000018.html" target="_top" xlink:title="2">
<text text-anchor="middle" x="309.66" y="-263.71" font-family="Helvetica,sans-Serif" font-size="10.00">2</text>
</a>
</g>
</g>
<!-- dir_a65246f7a5288ee65248a0302198d58d&#45;&gt;dir_5cb6e1a8c8be2c39561c895666c60a3e -->
<g id="edge6" class="edge">
<title>dir_a65246f7a5288ee65248a0302198d58d&#45;&gt;dir_5cb6e1a8c8be2c39561c895666c60a3e</title>
<path fill="none" stroke="black" d="M675.86,-370.54C700.24,-363.33 734.98,-349.22 754.5,-324 779.26,-292.02 773.5,-275.45 773.5,-235 773.5,-235 773.5,-235 773.5,-161 773.5,-46.02 591.23,-24.01 510.84,-19.9"/>
<polygon fill="black" stroke="black" points="510.8,-16.39 500.65,-19.44 510.49,-23.38 510.8,-16.39"/>
<g id="a_edge6&#45;headlabel"><a xlink:href="dir_000007_000016.html" target="_top" xlink:title="7">
<text text-anchor="middle" x="514.51" y="-11.21" font-family="Helvetica,sans-Serif" font-size="10.00">7</text>
</a>
</g>
</g>
<!-- dir_a65246f7a5288ee65248a0302198d58d&#45;&gt;dir_f5f18c638a333642b431bbbd93cbd24f -->
<g id="edge7" class="edge">
<title>dir_a65246f7a5288ee65248a0302198d58d&#45;&gt;dir_f5f18c638a333642b431bbbd93cbd24f</title>
<path fill="none" stroke="black" d="M665.8,-359.7C674.36,-351.14 684.84,-340.66 694.2,-331.3"/>
<polygon fill="black" stroke="black" points="696.8,-333.65 701.4,-324.1 691.85,-328.7 696.8,-333.65"/>
<g id="a_edge7&#45;headlabel"><a xlink:href="dir_000007_000021.html" target="_top" xlink:title="1">
<text text-anchor="middle" x="696.27" y="-335.7" font-family="Helvetica,sans-Serif" font-size="10.00">1</text>
</a>
</g>
</g>
<!-- dir_a65246f7a5288ee65248a0302198d58d&#45;&gt;dir_acbfe30a39643d3dad4cea6c4be60bc9 -->
<g id="edge8" class="edge">
<title>dir_a65246f7a5288ee65248a0302198d58d&#45;&gt;dir_acbfe30a39643d3dad4cea6c4be60bc9</title>
<path fill="none" stroke="black" d="M621.27,-361.12C605.14,-351.7 584.44,-339.63 566.69,-329.28"/>
<polygon fill="black" stroke="black" points="568.12,-326.06 557.72,-324.04 564.59,-332.11 568.12,-326.06"/>
<g id="a_edge8&#45;headlabel"><a xlink:href="dir_000007_000006.html" target="_top" xlink:title="1">
<text text-anchor="middle" x="572.66" y="-322.92" font-family="Helvetica,sans-Serif" font-size="10.00">1</text>
</a>
</g>
</g>
<!-- dir_a65246f7a5288ee65248a0302198d58d&#45;&gt;dir_b6b0f0b7471b46e8c4cfc0f00c8af2f6 -->
<g id="edge9" class="edge">
<title>dir_a65246f7a5288ee65248a0302198d58d&#45;&gt;dir_b6b0f0b7471b46e8c4cfc0f00c8af2f6</title>
<path fill="none" stroke="black" d="M634.53,-359.84C619.14,-341.34 593.28,-311.39 568.5,-288 531.25,-252.83 519.72,-246.42 478.5,-216 464.67,-205.79 449.06,-195.04 435.46,-185.91"/>
<polygon fill="black" stroke="black" points="437.11,-182.81 426.85,-180.17 433.23,-188.63 437.11,-182.81"/>
<g id="a_edge9&#45;headlabel"><a xlink:href="dir_000007_000015.html" target="_top" xlink:title="3">
<text text-anchor="middle" x="441.68" y="-179.94" font-family="Helvetica,sans-Serif" font-size="10.00">3</text>
</a>
</g>
</g>
<!-- dir_a65246f7a5288ee65248a0302198d58d&#45;&gt;dir_5da686cefd6752aaaa3bcabf1d868d88 -->
<g id="edge10" class="edge">
<title>dir_a65246f7a5288ee65248a0302198d58d&#45;&gt;dir_5da686cefd6752aaaa3bcabf1d868d88</title>
<path fill="none" stroke="black" d="M646.27,-359.81C640.1,-318.33 619.42,-211.18 563.5,-144 551.38,-129.44 534.16,-117.93 518.02,-109.42"/>
<polygon fill="black" stroke="black" points="519.2,-106.09 508.69,-104.75 516.07,-112.35 519.2,-106.09"/>
<g id="a_edge10&#45;headlabel"><a xlink:href="dir_000007_000014.html" target="_top" xlink:title="3">
<text text-anchor="middle" x="523.68" y="-102.66" font-family="Helvetica,sans-Serif" font-size="10.00">3</text>
</a>
</g>
</g>
<!-- dir_9d8b0bd023ebe51fb4b8ffcd38d3f5ed&#45;&gt;dir_c321c6a7f0648929655fbb9f990d53a6 -->
<g id="edge12" class="edge">
<title>dir_9d8b0bd023ebe51fb4b8ffcd38d3f5ed&#45;&gt;dir_c321c6a7f0648929655fbb9f990d53a6</title>
<path fill="none" stroke="black" d="M45.22,-324.24C63.19,-344.25 95.41,-376.93 129.5,-396 172.16,-419.87 226.68,-434.01 264.28,-441.6"/>
<polygon fill="black" stroke="black" points="263.93,-445.09 274.42,-443.57 265.27,-438.22 263.93,-445.09"/>
<g id="a_edge12&#45;headlabel"><a xlink:href="dir_000019_000013.html" target="_top" xlink:title="1">
<text text-anchor="middle" x="259.86" y="-444.7" font-family="Helvetica,sans-Serif" font-size="10.00">1</text>
</a>
</g>
</g>
<!-- dir_9d8b0bd023ebe51fb4b8ffcd38d3f5ed&#45;&gt;dir_5cb6e1a8c8be2c39561c895666c60a3e -->
<g id="edge11" class="edge">
<title>dir_9d8b0bd023ebe51fb4b8ffcd38d3f5ed&#45;&gt;dir_5cb6e1a8c8be2c39561c895666c60a3e</title>
<path fill="none" stroke="black" d="M27.83,-287.84C22.16,-244.5 14.06,-129.95 75.5,-72 127.03,-23.4 347.59,-18.56 436.32,-18.63"/>
<polygon fill="black" stroke="black" points="436.45,-22.13 446.46,-18.66 436.47,-15.13 436.45,-22.13"/>
<g id="a_edge11&#45;headlabel"><a xlink:href="dir_000019_000016.html" target="_top" xlink:title="1">
<text text-anchor="middle" x="432.85" y="-22.46" font-family="Helvetica,sans-Serif" font-size="10.00">1</text>
</a>
</g>
</g>
<!-- dir_f5f18c638a333642b431bbbd93cbd24f&#45;&gt;dir_5cb6e1a8c8be2c39561c895666c60a3e -->
<g id="edge13" class="edge">
<title>dir_f5f18c638a333642b431bbbd93cbd24f&#45;&gt;dir_5cb6e1a8c8be2c39561c895666c60a3e</title>
<path fill="none" stroke="black" d="M707.03,-287.94C679.83,-248.05 608.3,-146.45 536.5,-72 526.54,-61.67 514.7,-51.29 503.99,-42.49"/>
<polygon fill="black" stroke="black" points="506.05,-39.65 496.07,-36.09 501.65,-45.1 506.05,-39.65"/>
<g id="a_edge13&#45;headlabel"><a xlink:href="dir_000021_000016.html" target="_top" xlink:title="1">
<text text-anchor="middle" x="510.63" y="-37.2" font-family="Helvetica,sans-Serif" font-size="10.00">1</text>
</a>
</g>
</g>
<!-- dir_acbfe30a39643d3dad4cea6c4be60bc9&#45;&gt;dir_5cb6e1a8c8be2c39561c895666c60a3e -->
<g id="edge14" class="edge">
<title>dir_acbfe30a39643d3dad4cea6c4be60bc9&#45;&gt;dir_5cb6e1a8c8be2c39561c895666c60a3e</title>
<path fill="none" stroke="black" d="M531.28,-287.86C536.95,-248.24 546.99,-147.87 517.5,-72 513.49,-61.69 506.64,-51.92 499.52,-43.64"/>
<polygon fill="black" stroke="black" points="502.04,-41.2 492.7,-36.18 496.87,-45.92 502.04,-41.2"/>
<g id="a_edge14&#45;headlabel"><a xlink:href="dir_000006_000016.html" target="_top" xlink:title="1">
<text text-anchor="middle" x="506.56" y="-39.43" font-family="Helvetica,sans-Serif" font-size="10.00">1</text>
</a>
</g>
</g>
<!-- dir_acbfe30a39643d3dad4cea6c4be60bc9&#45;&gt;dir_b6b0f0b7471b46e8c4cfc0f00c8af2f6 -->
<g id="edge15" class="edge">
<title>dir_acbfe30a39643d3dad4cea6c4be60bc9&#45;&gt;dir_b6b0f0b7471b46e8c4cfc0f00c8af2f6</title>
<path fill="none" stroke="black" d="M513.06,-287.87C490.57,-262.92 448.68,-216.45 422.83,-187.77"/>
<polygon fill="black" stroke="black" points="425.29,-185.27 415.99,-180.19 420.09,-189.96 425.29,-185.27"/>
<g id="a_edge15&#45;headlabel"><a xlink:href="dir_000006_000015.html" target="_top" xlink:title="2">
<text text-anchor="middle" x="429.81" y="-183.54" font-family="Helvetica,sans-Serif" font-size="10.00">2</text>
</a>
</g>
</g>
<!-- dir_acbfe30a39643d3dad4cea6c4be60bc9&#45;&gt;dir_5da686cefd6752aaaa3bcabf1d868d88 -->
<g id="edge16" class="edge">
<title>dir_acbfe30a39643d3dad4cea6c4be60bc9&#45;&gt;dir_5da686cefd6752aaaa3bcabf1d868d88</title>
<path fill="none" stroke="black" d="M524.12,-287.6C516.68,-258.05 501.04,-196.21 487.5,-144 485.32,-135.58 482.91,-126.42 480.71,-118.11"/>
<polygon fill="black" stroke="black" points="484.02,-116.95 478.08,-108.18 477.26,-118.74 484.02,-116.95"/>
<g id="a_edge16&#45;headlabel"><a xlink:href="dir_000006_000014.html" target="_top" xlink:title="2">
<text text-anchor="middle" x="487.69" y="-117.19" font-family="Helvetica,sans-Serif" font-size="10.00">2</text>
</a>
</g>
</g>
<!-- dir_acbfe30a39643d3dad4cea6c4be60bc9&#45;&gt;dir_96c90ef27c711de2cda20e988f4ab9d6 -->
<g id="edge17" class="edge">
<title>dir_acbfe30a39643d3dad4cea6c4be60bc9&#45;&gt;dir_96c90ef27c711de2cda20e988f4ab9d6</title>
<path fill="none" stroke="black" d="M497.35,-295.27C456.42,-282.48 384.65,-260.05 341.15,-246.45"/>
<polygon fill="black" stroke="black" points="342.12,-243.09 331.53,-243.45 340.03,-249.77 342.12,-243.09"/>
<g id="a_edge17&#45;headlabel"><a xlink:href="dir_000006_000018.html" target="_top" xlink:title="1">
<text text-anchor="middle" x="346.39" y="-238.95" font-family="Helvetica,sans-Serif" font-size="10.00">1</text>
</a>
</g>
</g>
<!-- dir_b6b0f0b7471b46e8c4cfc0f00c8af2f6&#45;&gt;dir_5cb6e1a8c8be2c39561c895666c60a3e -->
<g id="edge22" class="edge">
<title>dir_b6b0f0b7471b46e8c4cfc0f00c8af2f6&#45;&gt;dir_5cb6e1a8c8be2c39561c895666c60a3e</title>
<path fill="none" stroke="black" d="M404.06,-143.82C408.35,-125.3 416.63,-95.34 429.5,-72 434.93,-62.16 442.3,-52.4 449.45,-43.99"/>
<polygon fill="black" stroke="black" points="452.18,-46.19 456.18,-36.38 446.93,-41.56 452.18,-46.19"/>
<g id="a_edge22&#45;headlabel"><a xlink:href="dir_000015_000016.html" target="_top" xlink:title="6">
<text text-anchor="middle" x="451.93" y="-48.27" font-family="Helvetica,sans-Serif" font-size="10.00">6</text>
</a>
</g>
</g>
<!-- dir_b6b0f0b7471b46e8c4cfc0f00c8af2f6&#45;&gt;dir_5da686cefd6752aaaa3bcabf1d868d88 -->
<g id="edge23" class="edge">
<title>dir_b6b0f0b7471b46e8c4cfc0f00c8af2f6&#45;&gt;dir_5da686cefd6752aaaa3bcabf1d868d88</title>
<path fill="none" stroke="black" d="M418.54,-143.7C427.56,-135.05 438.62,-124.45 448.44,-115.03"/>
<polygon fill="black" stroke="black" points="450.87,-117.55 455.66,-108.1 446.02,-112.5 450.87,-117.55"/>
<g id="a_edge23&#45;headlabel"><a xlink:href="dir_000015_000014.html" target="_top" xlink:title="2">
<text text-anchor="middle" x="450.24" y="-119.59" font-family="Helvetica,sans-Serif" font-size="10.00">2</text>
</a>
</g>
</g>
<!-- dir_5da686cefd6752aaaa3bcabf1d868d88&#45;&gt;dir_5cb6e1a8c8be2c39561c895666c60a3e -->
<g id="edge24" class="edge">
<title>dir_5da686cefd6752aaaa3bcabf1d868d88&#45;&gt;dir_5cb6e1a8c8be2c39561c895666c60a3e</title>
<path fill="none" stroke="black" d="M473.5,-71.7C473.5,-63.98 473.5,-54.71 473.5,-46.11"/>
<polygon fill="black" stroke="black" points="477,-46.1 473.5,-36.1 470,-46.1 477,-46.1"/>
<g id="a_edge24&#45;headlabel"><a xlink:href="dir_000014_000016.html" target="_top" xlink:title="1">
<text text-anchor="middle" x="479.84" y="-47.2" font-family="Helvetica,sans-Serif" font-size="10.00">1</text>
</a>
</g>
</g>
<!-- dir_c023b0da1327801e33139c8f2715cbe5&#45;&gt;dir_9d8b0bd023ebe51fb4b8ffcd38d3f5ed -->
<g id="edge25" class="edge">
<title>dir_c023b0da1327801e33139c8f2715cbe5&#45;&gt;dir_9d8b0bd023ebe51fb4b8ffcd38d3f5ed</title>
<path fill="none" stroke="black" d="M366.22,-371.74C302.91,-359.53 145.77,-329.23 71.12,-314.83"/>
<polygon fill="black" stroke="black" points="71.63,-311.37 61.15,-312.91 70.31,-318.24 71.63,-311.37"/>
<g id="a_edge25&#45;headlabel"><a xlink:href="dir_000002_000019.html" target="_top" xlink:title="2">
<text text-anchor="middle" x="75.7" y="-306.76" font-family="Helvetica,sans-Serif" font-size="10.00">2</text>
</a>
</g>
</g>
<!-- dir_c023b0da1327801e33139c8f2715cbe5&#45;&gt;dir_5cb6e1a8c8be2c39561c895666c60a3e -->
<g id="edge26" class="edge">
<title>dir_c023b0da1327801e33139c8f2715cbe5&#45;&gt;dir_5cb6e1a8c8be2c39561c895666c60a3e</title>
<path fill="none" stroke="black" d="M366.24,-361.78C323.05,-335.45 245.97,-278.22 268.5,-216 298.7,-132.59 387.52,-69.21 437.78,-38.84"/>
<polygon fill="black" stroke="black" points="439.58,-41.84 446.39,-33.73 436.01,-35.82 439.58,-41.84"/>
<g id="a_edge26&#45;headlabel"><a xlink:href="dir_000002_000016.html" target="_top" xlink:title="1">
<text text-anchor="middle" x="437.94" y="-43.61" font-family="Helvetica,sans-Serif" font-size="10.00">1</text>
</a>
</g>
</g>
<!-- dir_c023b0da1327801e33139c8f2715cbe5&#45;&gt;dir_f5f18c638a333642b431bbbd93cbd24f -->
<g id="edge27" class="edge">
<title>dir_c023b0da1327801e33139c8f2715cbe5&#45;&gt;dir_f5f18c638a333642b431bbbd93cbd24f</title>
<path fill="none" stroke="black" d="M420.65,-371.15C478.72,-358.64 615.07,-329.28 681.21,-315.03"/>
<polygon fill="black" stroke="black" points="682.16,-318.41 691.2,-312.88 680.69,-311.56 682.16,-318.41"/>
<g id="a_edge27&#45;headlabel"><a xlink:href="dir_000002_000021.html" target="_top" xlink:title="3">
<text text-anchor="middle" x="679.24" y="-319.44" font-family="Helvetica,sans-Serif" font-size="10.00">3</text>
</a>
</g>
</g>
<!-- dir_c023b0da1327801e33139c8f2715cbe5&#45;&gt;dir_acbfe30a39643d3dad4cea6c4be60bc9 -->
<g id="edge28" class="edge">
<title>dir_c023b0da1327801e33139c8f2715cbe5&#45;&gt;dir_acbfe30a39643d3dad4cea6c4be60bc9</title>
<path fill="none" stroke="black" d="M420.82,-362.83C440.23,-352.77 466.62,-339.08 488.42,-327.78"/>
<polygon fill="black" stroke="black" points="490.18,-330.81 497.44,-323.1 486.95,-324.6 490.18,-330.81"/>
<g id="a_edge28&#45;headlabel"><a xlink:href="dir_000002_000006.html" target="_top" xlink:title="1">
<text text-anchor="middle" x="488.29" y="-332.49" font-family="Helvetica,sans-Serif" font-size="10.00">1</text>
</a>
</g>
</g>
<!-- dir_c023b0da1327801e33139c8f2715cbe5&#45;&gt;dir_b6b0f0b7471b46e8c4cfc0f00c8af2f6 -->
<g id="edge29" class="edge">
<title>dir_c023b0da1327801e33139c8f2715cbe5&#45;&gt;dir_b6b0f0b7471b46e8c4cfc0f00c8af2f6</title>
<path fill="none" stroke="black" d="M390.04,-359.97C384.57,-330.46 375.36,-268.02 383.5,-216 384.86,-207.31 387.4,-198.1 390.11,-189.84"/>
<polygon fill="black" stroke="black" points="393.44,-190.93 393.43,-180.33 386.83,-188.62 393.44,-190.93"/>
<g id="a_edge29&#45;headlabel"><a xlink:href="dir_000002_000015.html" target="_top" xlink:title="3">
<text text-anchor="middle" x="394.93" y="-192.76" font-family="Helvetica,sans-Serif" font-size="10.00">3</text>
</a>
</g>
</g>
<!-- dir_c023b0da1327801e33139c8f2715cbe5&#45;&gt;dir_5da686cefd6752aaaa3bcabf1d868d88 -->
<g id="edge30" class="edge">
<title>dir_c023b0da1327801e33139c8f2715cbe5&#45;&gt;dir_5da686cefd6752aaaa3bcabf1d868d88</title>
<path fill="none" stroke="black" d="M398.26,-359.97C411.63,-312.19 449.55,-176.62 465.87,-118.27"/>
<polygon fill="black" stroke="black" points="469.34,-118.88 468.66,-108.31 462.59,-116.99 469.34,-118.88"/>
<g id="a_edge30&#45;headlabel"><a xlink:href="dir_000002_000014.html" target="_top" xlink:title="4">
<text text-anchor="middle" x="471.1" y="-120.61" font-family="Helvetica,sans-Serif" font-size="10.00">4</text>
</a>
</g>
</g>
<!-- dir_c023b0da1327801e33139c8f2715cbe5&#45;&gt;dir_96c90ef27c711de2cda20e988f4ab9d6 -->
<g id="edge31" class="edge">
<title>dir_c023b0da1327801e33139c8f2715cbe5&#45;&gt;dir_96c90ef27c711de2cda20e988f4ab9d6</title>
<path fill="none" stroke="black" d="M382.76,-359.87C367.33,-335.24 338.74,-289.64 320.72,-260.88"/>
<polygon fill="black" stroke="black" points="323.55,-258.8 315.27,-252.19 317.62,-262.52 323.55,-258.8"/>
<g id="a_edge31&#45;headlabel"><a xlink:href="dir_000002_000018.html" target="_top" xlink:title="1">
<text text-anchor="middle" x="327.86" y="-257.84" font-family="Helvetica,sans-Serif" font-size="10.00">1</text>
</a>
</g>
</g>
<!-- dir_596bfb3d48f2f085998f77aaf2d42ecf&#45;&gt;dir_9d8b0bd023ebe51fb4b8ffcd38d3f5ed -->
<g id="edge32" class="edge">
<title>dir_596bfb3d48f2f085998f77aaf2d42ecf&#45;&gt;dir_9d8b0bd023ebe51fb4b8ffcd38d3f5ed</title>
<path fill="none" stroke="black" d="M138.18,-362.83C118.63,-352.7 92.01,-338.89 70.13,-327.55"/>
<polygon fill="black" stroke="black" points="71.56,-324.35 61.08,-322.85 68.34,-330.56 71.56,-324.35"/>
<g id="a_edge32&#45;headlabel"><a xlink:href="dir_000017_000019.html" target="_top" xlink:title="1">
<text text-anchor="middle" x="76.06" y="-320.98" font-family="Helvetica,sans-Serif" font-size="10.00">1</text>
</a>
</g>
</g>
<!-- dir_596bfb3d48f2f085998f77aaf2d42ecf&#45;&gt;dir_5cb6e1a8c8be2c39561c895666c60a3e -->
<g id="edge33" class="edge">
<title>dir_596bfb3d48f2f085998f77aaf2d42ecf&#45;&gt;dir_5cb6e1a8c8be2c39561c895666c60a3e</title>
<path fill="none" stroke="black" d="M149.01,-359.77C126.66,-334.53 89.5,-285.05 89.5,-235 89.5,-235 89.5,-235 89.5,-161 89.5,-87.52 339.96,-40.11 436.33,-24.59"/>
<polygon fill="black" stroke="black" points="437.17,-28 446.5,-22.98 436.07,-21.08 437.17,-28"/>
<g id="a_edge33&#45;headlabel"><a xlink:href="dir_000017_000016.html" target="_top" xlink:title="5">
<text text-anchor="middle" x="434.06" y="-28.86" font-family="Helvetica,sans-Serif" font-size="10.00">5</text>
</a>
</g>
</g>
<!-- dir_596bfb3d48f2f085998f77aaf2d42ecf&#45;&gt;dir_b6b0f0b7471b46e8c4cfc0f00c8af2f6 -->
<g id="edge34" class="edge">
<title>dir_596bfb3d48f2f085998f77aaf2d42ecf&#45;&gt;dir_b6b0f0b7471b46e8c4cfc0f00c8af2f6</title>
<path fill="none" stroke="black" d="M171.81,-359.89C184.78,-327.07 217.56,-255.09 268.5,-216 296.42,-194.58 334.15,-180.58 362.13,-172.38"/>
<polygon fill="black" stroke="black" points="363.28,-175.7 371.96,-169.62 361.38,-168.96 363.28,-175.7"/>
<g id="a_edge34&#45;headlabel"><a xlink:href="dir_000017_000015.html" target="_top" xlink:title="2">
<text text-anchor="middle" x="360.58" y="-176.9" font-family="Helvetica,sans-Serif" font-size="10.00">2</text>
</a>
</g>
</g>
<!-- dir_596bfb3d48f2f085998f77aaf2d42ecf&#45;&gt;dir_5da686cefd6752aaaa3bcabf1d868d88 -->
<g id="edge35" class="edge">
<title>dir_596bfb3d48f2f085998f77aaf2d42ecf&#45;&gt;dir_5da686cefd6752aaaa3bcabf1d868d88</title>
<path fill="none" stroke="black" d="M167.62,-359.75C170.26,-341.43 175.69,-311.88 185.5,-288 199.84,-253.1 204.84,-243.67 230.5,-216 267.26,-176.38 280.86,-169.53 328.5,-144 360.55,-126.82 399.35,-112.97 428.75,-103.74"/>
<polygon fill="black" stroke="black" points="429.81,-107.07 438.33,-100.78 427.75,-100.38 429.81,-107.07"/>
<g id="a_edge35&#45;headlabel"><a xlink:href="dir_000017_000014.html" target="_top" xlink:title="1">
<text text-anchor="middle" x="427.21" y="-108.34" font-family="Helvetica,sans-Serif" font-size="10.00">1</text>
</a>
</g>
</g>
<!-- dir_596bfb3d48f2f085998f77aaf2d42ecf&#45;&gt;dir_96c90ef27c711de2cda20e988f4ab9d6 -->
<g id="edge36" class="edge">
<title>dir_596bfb3d48f2f085998f77aaf2d42ecf&#45;&gt;dir_96c90ef27c711de2cda20e988f4ab9d6</title>
<path fill="none" stroke="black" d="M182.27,-359.87C206.79,-334.82 252.57,-288.05 280.61,-259.41"/>
<polygon fill="black" stroke="black" points="283.18,-261.78 287.67,-252.19 278.18,-256.89 283.18,-261.78"/>
<g id="a_edge36&#45;headlabel"><a xlink:href="dir_000017_000018.html" target="_top" xlink:title="4">
<text text-anchor="middle" x="282.69" y="-263.84" font-family="Helvetica,sans-Serif" font-size="10.00">4</text>
</a>
</g>
</g>
<!-- dir_96c90ef27c711de2cda20e988f4ab9d6&#45;&gt;dir_b6b0f0b7471b46e8c4cfc0f00c8af2f6 -->
<g id="edge40" class="edge">
<title>dir_96c90ef27c711de2cda20e988f4ab9d6&#45;&gt;dir_b6b0f0b7471b46e8c4cfc0f00c8af2f6</title>
<path fill="none" stroke="black" d="M328.23,-215.7C340.44,-206.8 355.49,-195.82 368.68,-186.2"/>
<polygon fill="black" stroke="black" points="371.02,-188.82 377.04,-180.1 366.9,-183.17 371.02,-188.82"/>
<g id="a_edge40&#45;headlabel"><a xlink:href="dir_000018_000015.html" target="_top" xlink:title="1">
<text text-anchor="middle" x="369.79" y="-190.74" font-family="Helvetica,sans-Serif" font-size="10.00">1</text>
</a>
</g>
</g>
<!-- dir_96c90ef27c711de2cda20e988f4ab9d6&#45;&gt;dir_5da686cefd6752aaaa3bcabf1d868d88 -->
<g id="edge41" class="edge">
<title>dir_96c90ef27c711de2cda20e988f4ab9d6&#45;&gt;dir_5da686cefd6752aaaa3bcabf1d868d88</title>
<path fill="none" stroke="black" d="M312.3,-215.94C321.95,-196.4 340.03,-164.47 363.5,-144 382.48,-127.45 407.53,-114.84 428.94,-106.09"/>
<polygon fill="black" stroke="black" points="430.45,-109.25 438.48,-102.34 427.89,-102.74 430.45,-109.25"/>
<g id="a_edge41&#45;headlabel"><a xlink:href="dir_000018_000014.html" target="_top" xlink:title="1">
<text text-anchor="middle" x="428.15" y="-110.71" font-family="Helvetica,sans-Serif" font-size="10.00">1</text>
</a>
</g>
</g>
</g>
</svg>
