<?xml version="1.0" encoding="UTF-8" standalone="no"?>
<!DOCTYPE svg PUBLIC "-//W3C//DTD SVG 1.1//EN"
 "http://www.w3.org/Graphics/SVG/1.1/DTD/svg11.dtd">
<!-- Generated by graphviz version 2.43.0 (0)
 -->
<!-- Title: sources/Renderer Pages: 1 -->
<svg width="272pt" height="178pt"
 viewBox="0.00 0.00 272.00 178.49" xmlns="http://www.w3.org/2000/svg" xmlns:xlink="http://www.w3.org/1999/xlink">
<g id="graph0" class="graph" transform="scale(1 1) rotate(0) translate(4 174.49)">
<title>sources/Renderer</title>
<polygon fill="white" stroke="transparent" points="-4,4 -4,-174.49 268,-174.49 268,4 -4,4"/>
<g id="clust1" class="cluster">
<title>clusterdir_08d237fc27d4ecd563f71c5d52f2fecc</title>
<g id="a_clust1"><a xlink:href="dir_08d237fc27d4ecd563f71c5d52f2fecc.html" target="_top" xlink:title="sources">
<polygon fill="#ddddee" stroke="black" points="8,-56 8,-143 192,-143 192,-56 8,-56"/>
<text text-anchor="middle" x="100" y="-131" font-family="Helvetica,sans-Serif" font-size="10.00">sources</text>
</a>
</g>
</g>
<g id="clust2" class="cluster">
<title>clusterdir_9d8b0bd023ebe51fb4b8ffcd38d3f5ed</title>
<g id="a_clust2"><a xlink:href="dir_9d8b0bd023ebe51fb4b8ffcd38d3f5ed.html" target="_top">
<polygon fill="#eeeeff" stroke="black" points="16,-64 16,-116 184,-116 184,-64 16,-64"/>
</a>
</g>
</g>
<!-- dir_9d8b0bd023ebe51fb4b8ffcd38d3f5ed -->
<g id="node1" class="node">
<title>dir_9d8b0bd023ebe51fb4b8ffcd38d3f5ed</title>
<text text-anchor="middle" x="145" y="-87.5" font-family="Helvetica,sans-Serif" font-size="10.00">Renderer</text>
</g>
<!-- dir_8635253785d16d7f974cb7d01f3ba75f -->
<g id="node2" class="node">
<title>dir_8635253785d16d7f974cb7d01f3ba75f</title>
<g id="a_node2"><a xlink:href="dir_8635253785d16d7f974cb7d01f3ba75f.html" target="_top" xlink:title="QtRenderer">
<polygon fill="white" stroke="black" points="96,-108 24,-108 24,-72 96,-72 96,-108"/>
<text text-anchor="middle" x="60" y="-87.5" font-family="Helvetica,sans-Serif" font-size="10.00">QtRenderer</text>
</a>
</g>
</g>
<!-- dir_5cb6e1a8c8be2c39561c895666c60a3e -->
<g id="node3" class="node">
<title>dir_5cb6e1a8c8be2c39561c895666c60a3e</title>
<g id="a_node3"><a xlink:href="dir_5cb6e1a8c8be2c39561c895666c60a3e.html" target="_top" xlink:title="Models">
<polygon fill="none" stroke="black" points="173,-36 119,-36 119,0 173,0 173,-36"/>
<text text-anchor="middle" x="146" y="-15.5" font-family="Helvetica,sans-Serif" font-size="10.00">Models</text>
</a>
</g>
</g>
<!-- dir_8635253785d16d7f974cb7d01f3ba75f&#45;&gt;dir_5cb6e1a8c8be2c39561c895666c60a3e -->
<g id="edge3" class="edge">
<title>dir_8635253785d16d7f974cb7d01f3ba75f&#45;&gt;dir_5cb6e1a8c8be2c39561c895666c60a3e</title>
<path fill="none" stroke="black" d="M81.26,-71.7C92.09,-62.88 105.42,-52.03 117.16,-42.47"/>
<polygon fill="black" stroke="black" points="119.44,-45.13 124.99,-36.1 115.02,-39.7 119.44,-45.13"/>
<g id="a_edge3&#45;headlabel"><a xlink:href="dir_000020_000016.html" target="_top" xlink:title="1">
<text text-anchor="middle" x="118.44" y="-47.1" font-family="Helvetica,sans-Serif" font-size="10.00">1</text>
</a>
</g>
</g>
<!-- dir_189293303b628b823f13ae296b502d01 -->
<g id="node4" class="node">
<title>dir_189293303b628b823f13ae296b502d01</title>
<g id="a_node4"><a xlink:href="dir_189293303b628b823f13ae296b502d01.html" target="_top" xlink:title="Debugger">
<polygon fill="white" stroke="red" points="264,-108 200,-108 200,-72 264,-72 264,-108"/>
<text text-anchor="middle" x="232" y="-87.5" font-family="Helvetica,sans-Serif" font-size="10.00">Debugger</text>
</a>
</g>
</g>
<!-- dir_8635253785d16d7f974cb7d01f3ba75f&#45;&gt;dir_189293303b628b823f13ae296b502d01 -->
<g id="edge4" class="edge">
<title>dir_8635253785d16d7f974cb7d01f3ba75f&#45;&gt;dir_189293303b628b823f13ae296b502d01</title>
<path fill="none" stroke="black" d="M68.12,-108.15C76.91,-125.34 92.74,-150.09 115,-161 140.54,-173.52 153.57,-173.75 179,-161 197.28,-151.84 210.86,-133.05 219.7,-117.1"/>
<polygon fill="black" stroke="black" points="222.85,-118.62 224.36,-108.13 216.64,-115.4 222.85,-118.62"/>
<g id="a_edge4&#45;headlabel"><a xlink:href="dir_000020_000010.html" target="_top" xlink:title="1">
<text text-anchor="middle" x="223.72" y="-120.62" font-family="Helvetica,sans-Serif" font-size="10.00">1</text>
</a>
</g>
</g>
<!-- dir_189293303b628b823f13ae296b502d01&#45;&gt;dir_8635253785d16d7f974cb7d01f3ba75f -->
<g id="edge2" class="edge">
<title>dir_189293303b628b823f13ae296b502d01&#45;&gt;dir_8635253785d16d7f974cb7d01f3ba75f</title>
<path fill="none" stroke="black" d="M224.36,-108.13C216.01,-125.3 200.86,-150.04 179,-161 153.57,-173.75 140.54,-173.52 115,-161 96.39,-151.88 82.28,-133.09 73.01,-117.13"/>
<polygon fill="black" stroke="black" points="75.98,-115.26 68.12,-108.15 69.83,-118.61 75.98,-115.26"/>
<g id="a_edge2&#45;headlabel"><a xlink:href="dir_000010_000020.html" target="_top" xlink:title="2">
<text text-anchor="middle" x="80.19" y="-114.55" font-family="Helvetica,sans-Serif" font-size="10.00">2</text>
</a>
</g>
</g>
<!-- dir_189293303b628b823f13ae296b502d01&#45;&gt;dir_5cb6e1a8c8be2c39561c895666c60a3e -->
<g id="edge1" class="edge">
<title>dir_189293303b628b823f13ae296b502d01&#45;&gt;dir_5cb6e1a8c8be2c39561c895666c60a3e</title>
<path fill="none" stroke="black" d="M210.74,-71.7C199.91,-62.88 186.58,-52.03 174.84,-42.47"/>
<polygon fill="black" stroke="black" points="176.98,-39.7 167.01,-36.1 172.56,-45.13 176.98,-39.7"/>
<g id="a_edge1&#45;headlabel"><a xlink:href="dir_000010_000016.html" target="_top" xlink:title="2">
<text text-anchor="middle" x="181.56" y="-37.27" font-family="Helvetica,sans-Serif" font-size="10.00">2</text>
</a>
</g>
</g>
</g>
</svg>
