<?xml version="1.0" encoding="UTF-8" standalone="no"?>
<!DOCTYPE svg PUBLIC "-//W3C//DTD SVG 1.1//EN"
 "http://www.w3.org/Graphics/SVG/1.1/DTD/svg11.dtd">
<!-- Generated by graphviz version 2.43.0 (0)
 -->
<!-- Title: sources/CPU/DMA Pages: 1 -->
<svg width="137pt" height="295pt"
 viewBox="0.00 0.00 137.23 295.00" xmlns="http://www.w3.org/2000/svg" xmlns:xlink="http://www.w3.org/1999/xlink">
<g id="graph0" class="graph" transform="scale(1 1) rotate(0) translate(4 291)">
<title>sources/CPU/DMA</title>
<polygon fill="white" stroke="transparent" points="-4,4 -4,-291 133.23,-291 133.23,4 -4,4"/>
<g id="clust1" class="cluster">
<title>clusterdir_a65246f7a5288ee65248a0302198d58d</title>
<g id="a_clust1"><a xlink:href="dir_a65246f7a5288ee65248a0302198d58d.html" target="_top" xlink:title="CPU">
<polygon fill="#ddddee" stroke="black" points="9.23,-208 9.23,-279 79.23,-279 79.23,-208 9.23,-208"/>
<text text-anchor="middle" x="44.23" y="-267" font-family="Helvetica,sans-Serif" font-size="10.00">CPU</text>
</a>
</g>
</g>
<!-- dir_a27aee9ec8c7af1c7285a99fc42da75a -->
<g id="node1" class="node">
<title>dir_a27aee9ec8c7af1c7285a99fc42da75a</title>
<g id="a_node1"><a xlink:href="dir_a27aee9ec8c7af1c7285a99fc42da75a.html" target="_top" xlink:title="DMA">
<polygon fill="#eeeeff" stroke="black" points="71.23,-252 17.23,-252 17.23,-216 71.23,-216 71.23,-252"/>
<text text-anchor="middle" x="44.23" y="-231.5" font-family="Helvetica,sans-Serif" font-size="10.00">DMA</text>
</a>
</g>
</g>
<!-- dir_5cb6e1a8c8be2c39561c895666c60a3e -->
<g id="node2" class="node">
<title>dir_5cb6e1a8c8be2c39561c895666c60a3e</title>
<g id="a_node2"><a xlink:href="dir_5cb6e1a8c8be2c39561c895666c60a3e.html" target="_top" xlink:title="Models">
<polygon fill="none" stroke="black" points="58.23,-36 4.23,-36 4.23,0 58.23,0 58.23,-36"/>
<text text-anchor="middle" x="31.23" y="-15.5" font-family="Helvetica,sans-Serif" font-size="10.00">Models</text>
</a>
</g>
</g>
<!-- dir_a27aee9ec8c7af1c7285a99fc42da75a&#45;&gt;dir_5cb6e1a8c8be2c39561c895666c60a3e -->
<g id="edge1" class="edge">
<title>dir_a27aee9ec8c7af1c7285a99fc42da75a&#45;&gt;dir_5cb6e1a8c8be2c39561c895666c60a3e</title>
<path fill="none" stroke="black" d="M27.77,-215.92C19.58,-206.22 10.53,-193.37 6.23,-180 -8.45,-134.32 7.3,-78.48 19.6,-46.01"/>
<polygon fill="black" stroke="black" points="23.01,-46.91 23.43,-36.33 16.5,-44.34 23.01,-46.91"/>
<g id="a_edge1&#45;headlabel"><a xlink:href="dir_000008_000016.html" target="_top" xlink:title="1">
<text text-anchor="middle" x="24.33" y="-48.8" font-family="Helvetica,sans-Serif" font-size="10.00">1</text>
</a>
</g>
</g>
<!-- dir_b6b0f0b7471b46e8c4cfc0f00c8af2f6 -->
<g id="node3" class="node">
<title>dir_b6b0f0b7471b46e8c4cfc0f00c8af2f6</title>
<g id="a_node3"><a xlink:href="dir_b6b0f0b7471b46e8c4cfc0f00c8af2f6.html" target="_top" xlink:title="Memory">
<polygon fill="none" stroke="black" points="72.73,-180 15.73,-180 15.73,-144 72.73,-144 72.73,-180"/>
<text text-anchor="middle" x="44.23" y="-159.5" font-family="Helvetica,sans-Serif" font-size="10.00">Memory</text>
</a>
</g>
</g>
<!-- dir_a27aee9ec8c7af1c7285a99fc42da75a&#45;&gt;dir_b6b0f0b7471b46e8c4cfc0f00c8af2f6 -->
<g id="edge2" class="edge">
<title>dir_a27aee9ec8c7af1c7285a99fc42da75a&#45;&gt;dir_b6b0f0b7471b46e8c4cfc0f00c8af2f6</title>
<path fill="none" stroke="black" d="M44.23,-215.7C44.23,-207.98 44.23,-198.71 44.23,-190.11"/>
<polygon fill="black" stroke="black" points="47.73,-190.1 44.23,-180.1 40.73,-190.1 47.73,-190.1"/>
<g id="a_edge2&#45;headlabel"><a xlink:href="dir_000008_000015.html" target="_top" xlink:title="1">
<text text-anchor="middle" x="50.57" y="-191.2" font-family="Helvetica,sans-Serif" font-size="10.00">1</text>
</a>
</g>
</g>
<!-- dir_5da686cefd6752aaaa3bcabf1d868d88 -->
<g id="node4" class="node">
<title>dir_5da686cefd6752aaaa3bcabf1d868d88</title>
<g id="a_node4"><a xlink:href="dir_5da686cefd6752aaaa3bcabf1d868d88.html" target="_top" xlink:title="Exceptions">
<polygon fill="none" stroke="black" points="129.23,-108 59.23,-108 59.23,-72 129.23,-72 129.23,-108"/>
<text text-anchor="middle" x="94.23" y="-87.5" font-family="Helvetica,sans-Serif" font-size="10.00">Exceptions</text>
</a>
</g>
</g>
<!-- dir_a27aee9ec8c7af1c7285a99fc42da75a&#45;&gt;dir_5da686cefd6752aaaa3bcabf1d868d88 -->
<g id="edge3" class="edge">
<title>dir_a27aee9ec8c7af1c7285a99fc42da75a&#45;&gt;dir_5da686cefd6752aaaa3bcabf1d868d88</title>
<path fill="none" stroke="black" d="M59.51,-215.58C67.26,-205.78 76.11,-192.94 81.23,-180 89.03,-160.31 92.22,-136.51 93.49,-118.47"/>
<polygon fill="black" stroke="black" points="96.99,-118.51 94.04,-108.33 90,-118.13 96.99,-118.51"/>
<g id="a_edge3&#45;headlabel"><a xlink:href="dir_000008_000014.html" target="_top" xlink:title="1">
<text text-anchor="middle" x="99.63" y="-119.76" font-family="Helvetica,sans-Serif" font-size="10.00">1</text>
</a>
</g>
</g>
<!-- dir_b6b0f0b7471b46e8c4cfc0f00c8af2f6&#45;&gt;dir_5cb6e1a8c8be2c39561c895666c60a3e -->
<g id="edge4" class="edge">
<title>dir_b6b0f0b7471b46e8c4cfc0f00c8af2f6&#45;&gt;dir_5cb6e1a8c8be2c39561c895666c60a3e</title>
<path fill="none" stroke="black" d="M42.66,-143.87C40.45,-119.67 36.38,-75.21 33.74,-46.39"/>
<polygon fill="black" stroke="black" points="37.2,-45.83 32.81,-36.19 30.23,-46.47 37.2,-45.83"/>
<g id="a_edge4&#45;headlabel"><a xlink:href="dir_000015_000016.html" target="_top" xlink:title="6">
<text text-anchor="middle" x="40.36" y="-46.65" font-family="Helvetica,sans-Serif" font-size="10.00">6</text>
</a>
</g>
</g>
<!-- dir_b6b0f0b7471b46e8c4cfc0f00c8af2f6&#45;&gt;dir_5da686cefd6752aaaa3bcabf1d868d88 -->
<g id="edge5" class="edge">
<title>dir_b6b0f0b7471b46e8c4cfc0f00c8af2f6&#45;&gt;dir_5da686cefd6752aaaa3bcabf1d868d88</title>
<path fill="none" stroke="black" d="M56.59,-143.7C62.46,-135.47 69.6,-125.48 76.07,-116.42"/>
<polygon fill="black" stroke="black" points="79.05,-118.28 82.01,-108.1 73.35,-114.21 79.05,-118.28"/>
<g id="a_edge5&#45;headlabel"><a xlink:href="dir_000015_000014.html" target="_top" xlink:title="2">
<text text-anchor="middle" x="79.27" y="-120.35" font-family="Helvetica,sans-Serif" font-size="10.00">2</text>
</a>
</g>
</g>
<!-- dir_5da686cefd6752aaaa3bcabf1d868d88&#45;&gt;dir_5cb6e1a8c8be2c39561c895666c60a3e -->
<g id="edge6" class="edge">
<title>dir_5da686cefd6752aaaa3bcabf1d868d88&#45;&gt;dir_5cb6e1a8c8be2c39561c895666c60a3e</title>
<path fill="none" stroke="black" d="M78.66,-71.7C71.03,-63.22 61.71,-52.86 53.36,-43.58"/>
<polygon fill="black" stroke="black" points="55.92,-41.2 46.63,-36.1 50.71,-45.88 55.92,-41.2"/>
<g id="a_edge6&#45;headlabel"><a xlink:href="dir_000014_000016.html" target="_top" xlink:title="1">
<text text-anchor="middle" x="60.43" y="-39.47" font-family="Helvetica,sans-Serif" font-size="10.00">1</text>
</a>
</g>
</g>
</g>
</svg>
