<?xml version="1.0" encoding="UTF-8" standalone="no"?>
<!DOCTYPE svg PUBLIC "-//W3C//DTD SVG 1.1//EN"
 "http://www.w3.org/Graphics/SVG/1.1/DTD/svg11.dtd">
<!-- Generated by graphviz version 2.43.0 (0)
 -->
<!-- Title: tests/CPU Pages: 1 -->
<svg width="182pt" height="159pt"
 viewBox="0.00 0.00 182.00 159.00" xmlns="http://www.w3.org/2000/svg" xmlns:xlink="http://www.w3.org/1999/xlink">
<g id="graph0" class="graph" transform="scale(1 1) rotate(0) translate(4 155)">
<title>tests/CPU</title>
<polygon fill="white" stroke="transparent" points="-4,4 -4,-155 178,-155 178,4 -4,4"/>
<g id="clust1" class="cluster">
<title>clusterdir_59425e443f801f1f2fd8bbe4959a3ccf</title>
<g id="a_clust1"><a xlink:href="dir_59425e443f801f1f2fd8bbe4959a3ccf.html" target="_top" xlink:title="tests">
<polygon fill="#ddddee" stroke="black" points="8,-56 8,-143 166,-143 166,-56 8,-56"/>
<text text-anchor="middle" x="87" y="-131" font-family="Helvetica,sans-Serif" font-size="10.00">tests</text>
</a>
</g>
</g>
<g id="clust2" class="cluster">
<title>clusterdir_27527b11bb5508eb1b138c5beffd09ea</title>
<g id="a_clust2"><a xlink:href="dir_27527b11bb5508eb1b138c5beffd09ea.html" target="_top">
<polygon fill="#eeeeff" stroke="black" points="16,-64 16,-116 158,-116 158,-64 16,-64"/>
</a>
</g>
</g>
<!-- dir_27527b11bb5508eb1b138c5beffd09ea -->
<g id="node1" class="node">
<title>dir_27527b11bb5508eb1b138c5beffd09ea</title>
<text text-anchor="middle" x="123" y="-87.5" font-family="Helvetica,sans-Serif" font-size="10.00">CPU</text>
</g>
<!-- dir_08d237fc27d4ecd563f71c5d52f2fecc -->
<g id="node3" class="node">
<title>dir_08d237fc27d4ecd563f71c5d52f2fecc</title>
<g id="a_node3"><a xlink:href="dir_08d237fc27d4ecd563f71c5d52f2fecc.html" target="_top" xlink:title="sources">
<polygon fill="white" stroke="red" points="114,-36 60,-36 60,0 114,0 114,-36"/>
<text text-anchor="middle" x="87" y="-15.5" font-family="Helvetica,sans-Serif" font-size="10.00">sources</text>
</a>
</g>
</g>
<!-- dir_27527b11bb5508eb1b138c5beffd09ea&#45;&gt;dir_08d237fc27d4ecd563f71c5d52f2fecc -->
<g id="edge1" class="edge">
<title>dir_27527b11bb5508eb1b138c5beffd09ea&#45;&gt;dir_08d237fc27d4ecd563f71c5d52f2fecc</title>
<path fill="none" stroke="black" d="M114.1,-71.7C110,-63.73 105.05,-54.1 100.51,-45.26"/>
<polygon fill="black" stroke="black" points="103.48,-43.4 95.8,-36.1 97.26,-46.6 103.48,-43.4"/>
<g id="a_edge1&#45;headlabel"><a xlink:href="dir_000024_000001.html" target="_top" xlink:title="10">
<text text-anchor="middle" x="107.65" y="-42.79" font-family="Helvetica,sans-Serif" font-size="10.00">10</text>
</a>
</g>
</g>
<!-- dir_b6a6a4bac0f3a736d849ddb1b030be3a -->
<g id="node2" class="node">
<title>dir_b6a6a4bac0f3a736d849ddb1b030be3a</title>
<g id="a_node2"><a xlink:href="dir_b6a6a4bac0f3a736d849ddb1b030be3a.html" target="_top" xlink:title="Math">
<polygon fill="white" stroke="black" points="78,-108 24,-108 24,-72 78,-72 78,-108"/>
<text text-anchor="middle" x="51" y="-87.5" font-family="Helvetica,sans-Serif" font-size="10.00">Math</text>
</a>
</g>
</g>
<!-- dir_b6a6a4bac0f3a736d849ddb1b030be3a&#45;&gt;dir_08d237fc27d4ecd563f71c5d52f2fecc -->
<g id="edge2" class="edge">
<title>dir_b6a6a4bac0f3a736d849ddb1b030be3a&#45;&gt;dir_08d237fc27d4ecd563f71c5d52f2fecc</title>
<path fill="none" stroke="black" d="M59.9,-71.7C64,-63.73 68.95,-54.1 73.49,-45.26"/>
<polygon fill="black" stroke="black" points="76.74,-46.6 78.2,-36.1 70.52,-43.4 76.74,-46.6"/>
<g id="a_edge2&#45;headlabel"><a xlink:href="dir_000025_000001.html" target="_top" xlink:title="4">
<text text-anchor="middle" x="77.62" y="-48.59" font-family="Helvetica,sans-Serif" font-size="10.00">4</text>
</a>
</g>
</g>
</g>
</svg>
