<?xml version="1.0" encoding="UTF-8" standalone="no"?>
<!DOCTYPE svg PUBLIC "-//W3C//DTD SVG 1.1//EN"
 "http://www.w3.org/Graphics/SVG/1.1/DTD/svg11.dtd">
<!-- Generated by graphviz version 2.43.0 (0)
 -->
<!-- Title: sources/APU/DSP Pages: 1 -->
<svg width="179pt" height="223pt"
 viewBox="0.00 0.00 178.50 223.00" xmlns="http://www.w3.org/2000/svg" xmlns:xlink="http://www.w3.org/1999/xlink">
<g id="graph0" class="graph" transform="scale(1 1) rotate(0) translate(4 219)">
<title>sources/APU/DSP</title>
<polygon fill="white" stroke="transparent" points="-4,4 -4,-219 174.5,-219 174.5,4 -4,4"/>
<g id="clust1" class="cluster">
<title>clusterdir_c023b0da1327801e33139c8f2715cbe5</title>
<g id="a_clust1"><a xlink:href="dir_c023b0da1327801e33139c8f2715cbe5.html" target="_top" xlink:title="APU">
<polygon fill="#ddddee" stroke="black" points="72.5,-136 72.5,-207 142.5,-207 142.5,-136 72.5,-136"/>
<text text-anchor="middle" x="107.5" y="-195" font-family="Helvetica,sans-Serif" font-size="10.00">APU</text>
</a>
</g>
</g>
<!-- dir_51ad7b790076cccb183f81c3ebe77c63 -->
<g id="node1" class="node">
<title>dir_51ad7b790076cccb183f81c3ebe77c63</title>
<g id="a_node1"><a xlink:href="dir_51ad7b790076cccb183f81c3ebe77c63.html" target="_top" xlink:title="DSP">
<polygon fill="#eeeeff" stroke="black" points="134.5,-180 80.5,-180 80.5,-144 134.5,-144 134.5,-180"/>
<text text-anchor="middle" x="107.5" y="-159.5" font-family="Helvetica,sans-Serif" font-size="10.00">DSP</text>
</a>
</g>
</g>
<!-- dir_9d8b0bd023ebe51fb4b8ffcd38d3f5ed -->
<g id="node2" class="node">
<title>dir_9d8b0bd023ebe51fb4b8ffcd38d3f5ed</title>
<g id="a_node2"><a xlink:href="dir_9d8b0bd023ebe51fb4b8ffcd38d3f5ed.html" target="_top" xlink:title="Renderer">
<polygon fill="white" stroke="red" points="61,-108 0,-108 0,-72 61,-72 61,-108"/>
<text text-anchor="middle" x="30.5" y="-87.5" font-family="Helvetica,sans-Serif" font-size="10.00">Renderer</text>
</a>
</g>
</g>
<!-- dir_51ad7b790076cccb183f81c3ebe77c63&#45;&gt;dir_9d8b0bd023ebe51fb4b8ffcd38d3f5ed -->
<g id="edge1" class="edge">
<title>dir_51ad7b790076cccb183f81c3ebe77c63&#45;&gt;dir_9d8b0bd023ebe51fb4b8ffcd38d3f5ed</title>
<path fill="none" stroke="black" d="M88.47,-143.7C78.96,-135.05 67.29,-124.45 56.93,-115.03"/>
<polygon fill="black" stroke="black" points="59.07,-112.24 49.31,-108.1 54.36,-117.42 59.07,-112.24"/>
<g id="a_edge1&#45;headlabel"><a xlink:href="dir_000003_000019.html" target="_top" xlink:title="1">
<text text-anchor="middle" x="63.64" y="-110.06" font-family="Helvetica,sans-Serif" font-size="10.00">1</text>
</a>
</g>
</g>
<!-- dir_b6b0f0b7471b46e8c4cfc0f00c8af2f6 -->
<g id="node3" class="node">
<title>dir_b6b0f0b7471b46e8c4cfc0f00c8af2f6</title>
<g id="a_node3"><a xlink:href="dir_b6b0f0b7471b46e8c4cfc0f00c8af2f6.html" target="_top" xlink:title="Memory">
<polygon fill="none" stroke="black" points="136,-108 79,-108 79,-72 136,-72 136,-108"/>
<text text-anchor="middle" x="107.5" y="-87.5" font-family="Helvetica,sans-Serif" font-size="10.00">Memory</text>
</a>
</g>
</g>
<!-- dir_51ad7b790076cccb183f81c3ebe77c63&#45;&gt;dir_b6b0f0b7471b46e8c4cfc0f00c8af2f6 -->
<g id="edge2" class="edge">
<title>dir_51ad7b790076cccb183f81c3ebe77c63&#45;&gt;dir_b6b0f0b7471b46e8c4cfc0f00c8af2f6</title>
<path fill="none" stroke="black" d="M107.5,-143.7C107.5,-135.98 107.5,-126.71 107.5,-118.11"/>
<polygon fill="black" stroke="black" points="111,-118.1 107.5,-108.1 104,-118.1 111,-118.1"/>
<g id="a_edge2&#45;headlabel"><a xlink:href="dir_000003_000015.html" target="_top" xlink:title="1">
<text text-anchor="middle" x="113.84" y="-119.2" font-family="Helvetica,sans-Serif" font-size="10.00">1</text>
</a>
</g>
</g>
<!-- dir_5da686cefd6752aaaa3bcabf1d868d88 -->
<g id="node4" class="node">
<title>dir_5da686cefd6752aaaa3bcabf1d868d88</title>
<g id="a_node4"><a xlink:href="dir_5da686cefd6752aaaa3bcabf1d868d88.html" target="_top" xlink:title="Exceptions">
<polygon fill="none" stroke="black" points="170.5,-36 100.5,-36 100.5,0 170.5,0 170.5,-36"/>
<text text-anchor="middle" x="135.5" y="-15.5" font-family="Helvetica,sans-Serif" font-size="10.00">Exceptions</text>
</a>
</g>
</g>
<!-- dir_51ad7b790076cccb183f81c3ebe77c63&#45;&gt;dir_5da686cefd6752aaaa3bcabf1d868d88 -->
<g id="edge3" class="edge">
<title>dir_51ad7b790076cccb183f81c3ebe77c63&#45;&gt;dir_5da686cefd6752aaaa3bcabf1d868d88</title>
<path fill="none" stroke="black" d="M123.54,-143.85C131.51,-134.12 140.33,-121.27 144.5,-108 150.85,-87.81 147.89,-63.9 143.73,-45.95"/>
<polygon fill="black" stroke="black" points="147.09,-44.95 141.21,-36.14 140.31,-46.7 147.09,-44.95"/>
<g id="a_edge3&#45;headlabel"><a xlink:href="dir_000003_000014.html" target="_top" xlink:title="1">
<text text-anchor="middle" x="150.74" y="-45.23" font-family="Helvetica,sans-Serif" font-size="10.00">1</text>
</a>
</g>
</g>
<!-- dir_b6b0f0b7471b46e8c4cfc0f00c8af2f6&#45;&gt;dir_5da686cefd6752aaaa3bcabf1d868d88 -->
<g id="edge4" class="edge">
<title>dir_b6b0f0b7471b46e8c4cfc0f00c8af2f6&#45;&gt;dir_5da686cefd6752aaaa3bcabf1d868d88</title>
<path fill="none" stroke="black" d="M114.42,-71.7C117.57,-63.81 121.38,-54.3 124.88,-45.55"/>
<polygon fill="black" stroke="black" points="128.19,-46.69 128.66,-36.1 121.69,-44.09 128.19,-46.69"/>
<g id="a_edge4&#45;headlabel"><a xlink:href="dir_000015_000014.html" target="_top" xlink:title="2">
<text text-anchor="middle" x="129.5" y="-48.58" font-family="Helvetica,sans-Serif" font-size="10.00">2</text>
</a>
</g>
</g>
</g>
</svg>
