<?xml version="1.0" encoding="UTF-8" standalone="no"?>
<!DOCTYPE svg PUBLIC "-//W3C//DTD SVG 1.1//EN"
 "http://www.w3.org/Graphics/SVG/1.1/DTD/svg11.dtd">
<!-- Generated by graphviz version 2.43.0 (0)
 -->
<!-- Title: tests Pages: 1 -->
<svg width="310pt" height="132pt"
 viewBox="0.00 0.00 310.00 132.00" xmlns="http://www.w3.org/2000/svg" xmlns:xlink="http://www.w3.org/1999/xlink">
<g id="graph0" class="graph" transform="scale(1 1) rotate(0) translate(4 128)">
<title>tests</title>
<polygon fill="white" stroke="transparent" points="-4,4 -4,-128 306,-128 306,4 -4,4"/>
<g id="clust1" class="cluster">
<title>clusterdir_59425e443f801f1f2fd8bbe4959a3ccf</title>
<g id="a_clust1"><a xlink:href="dir_59425e443f801f1f2fd8bbe4959a3ccf.html" target="_top">
<polygon fill="#eeeeff" stroke="black" points="8,-64 8,-116 294,-116 294,-64 8,-64"/>
</a>
</g>
</g>
<!-- dir_59425e443f801f1f2fd8bbe4959a3ccf -->
<g id="node1" class="node">
<title>dir_59425e443f801f1f2fd8bbe4959a3ccf</title>
<text text-anchor="middle" x="259" y="-87.5" font-family="Helvetica,sans-Serif" font-size="10.00">tests</text>
</g>
<!-- dir_11c57937a98f4edf102bae5f70e90b51 -->
<g id="node2" class="node">
<title>dir_11c57937a98f4edf102bae5f70e90b51</title>
<g id="a_node2"><a xlink:href="dir_11c57937a98f4edf102bae5f70e90b51.html" target="_top" xlink:title="APU">
<polygon fill="white" stroke="black" points="214,-108 160,-108 160,-72 214,-72 214,-108"/>
<text text-anchor="middle" x="187" y="-87.5" font-family="Helvetica,sans-Serif" font-size="10.00">APU</text>
</a>
</g>
</g>
<!-- dir_08d237fc27d4ecd563f71c5d52f2fecc -->
<g id="node5" class="node">
<title>dir_08d237fc27d4ecd563f71c5d52f2fecc</title>
<g id="a_node5"><a xlink:href="dir_08d237fc27d4ecd563f71c5d52f2fecc.html" target="_top" xlink:title="sources">
<polygon fill="white" stroke="red" points="142,-36 88,-36 88,0 142,0 142,-36"/>
<text text-anchor="middle" x="115" y="-15.5" font-family="Helvetica,sans-Serif" font-size="10.00">sources</text>
</a>
</g>
</g>
<!-- dir_11c57937a98f4edf102bae5f70e90b51&#45;&gt;dir_08d237fc27d4ecd563f71c5d52f2fecc -->
<g id="edge3" class="edge">
<title>dir_11c57937a98f4edf102bae5f70e90b51&#45;&gt;dir_08d237fc27d4ecd563f71c5d52f2fecc</title>
<path fill="none" stroke="black" d="M169.2,-71.7C160.4,-63.14 149.62,-52.66 140,-43.3"/>
<polygon fill="black" stroke="black" points="142.2,-40.57 132.59,-36.1 137.32,-45.58 142.2,-40.57"/>
<g id="a_edge3&#45;headlabel"><a xlink:href="dir_000023_000001.html" target="_top" xlink:title="9">
<text text-anchor="middle" x="146.76" y="-38.54" font-family="Helvetica,sans-Serif" font-size="10.00">9</text>
</a>
</g>
</g>
<!-- dir_27527b11bb5508eb1b138c5beffd09ea -->
<g id="node3" class="node">
<title>dir_27527b11bb5508eb1b138c5beffd09ea</title>
<g id="a_node3"><a xlink:href="dir_27527b11bb5508eb1b138c5beffd09ea.html" target="_top" xlink:title="CPU">
<polygon fill="white" stroke="red" points="142,-108 88,-108 88,-72 142,-72 142,-108"/>
<text text-anchor="middle" x="115" y="-87.5" font-family="Helvetica,sans-Serif" font-size="10.00">CPU</text>
</a>
</g>
</g>
<!-- dir_27527b11bb5508eb1b138c5beffd09ea&#45;&gt;dir_08d237fc27d4ecd563f71c5d52f2fecc -->
<g id="edge2" class="edge">
<title>dir_27527b11bb5508eb1b138c5beffd09ea&#45;&gt;dir_08d237fc27d4ecd563f71c5d52f2fecc</title>
<path fill="none" stroke="black" d="M115,-71.7C115,-63.98 115,-54.71 115,-46.11"/>
<polygon fill="black" stroke="black" points="118.5,-46.1 115,-36.1 111.5,-46.1 118.5,-46.1"/>
<g id="a_edge2&#45;headlabel"><a xlink:href="dir_000024_000001.html" target="_top" xlink:title="10">
<text text-anchor="middle" x="121.34" y="-47.2" font-family="Helvetica,sans-Serif" font-size="10.00">10</text>
</a>
</g>
</g>
<!-- dir_51f19d05590c74c78fca017333ef7fcc -->
<g id="node4" class="node">
<title>dir_51f19d05590c74c78fca017333ef7fcc</title>
<g id="a_node4"><a xlink:href="dir_51f19d05590c74c78fca017333ef7fcc.html" target="_top" xlink:title="PPU">
<polygon fill="white" stroke="black" points="70,-108 16,-108 16,-72 70,-72 70,-108"/>
<text text-anchor="middle" x="43" y="-87.5" font-family="Helvetica,sans-Serif" font-size="10.00">PPU</text>
</a>
</g>
</g>
<!-- dir_51f19d05590c74c78fca017333ef7fcc&#45;&gt;dir_08d237fc27d4ecd563f71c5d52f2fecc -->
<g id="edge1" class="edge">
<title>dir_51f19d05590c74c78fca017333ef7fcc&#45;&gt;dir_08d237fc27d4ecd563f71c5d52f2fecc</title>
<path fill="none" stroke="black" d="M60.8,-71.7C69.6,-63.14 80.38,-52.66 90,-43.3"/>
<polygon fill="black" stroke="black" points="92.68,-45.58 97.41,-36.1 87.8,-40.57 92.68,-45.58"/>
<g id="a_edge1&#45;headlabel"><a xlink:href="dir_000026_000001.html" target="_top" xlink:title="16">
<text text-anchor="middle" x="92.08" y="-47.63" font-family="Helvetica,sans-Serif" font-size="10.00">16</text>
</a>
</g>
</g>
</g>
</svg>
