<?xml version="1.0" encoding="UTF-8" standalone="no"?>
<!DOCTYPE svg PUBLIC "-//W3C//DTD SVG 1.1//EN"
 "http://www.w3.org/Graphics/SVG/1.1/DTD/svg11.dtd">
<!-- Generated by graphviz version 2.43.0 (0)
 -->
<!-- Title: sources/Memory Pages: 1 -->
<svg width="119pt" height="223pt"
 viewBox="0.00 0.00 119.00 223.00" xmlns="http://www.w3.org/2000/svg" xmlns:xlink="http://www.w3.org/1999/xlink">
<g id="graph0" class="graph" transform="scale(1 1) rotate(0) translate(4 219)">
<title>sources/Memory</title>
<polygon fill="white" stroke="transparent" points="-4,4 -4,-219 115,-219 115,4 -4,4"/>
<g id="clust1" class="cluster">
<title>clusterdir_08d237fc27d4ecd563f71c5d52f2fecc</title>
<g id="a_clust1"><a xlink:href="dir_08d237fc27d4ecd563f71c5d52f2fecc.html" target="_top" xlink:title="sources">
<polygon fill="#ddddee" stroke="black" points="8,-136 8,-207 82,-207 82,-136 8,-136"/>
<text text-anchor="middle" x="45" y="-195" font-family="Helvetica,sans-Serif" font-size="10.00">sources</text>
</a>
</g>
</g>
<!-- dir_b6b0f0b7471b46e8c4cfc0f00c8af2f6 -->
<g id="node1" class="node">
<title>dir_b6b0f0b7471b46e8c4cfc0f00c8af2f6</title>
<g id="a_node1"><a xlink:href="dir_b6b0f0b7471b46e8c4cfc0f00c8af2f6.html" target="_top" xlink:title="Memory">
<polygon fill="#eeeeff" stroke="black" points="73.5,-180 16.5,-180 16.5,-144 73.5,-144 73.5,-180"/>
<text text-anchor="middle" x="45" y="-159.5" font-family="Helvetica,sans-Serif" font-size="10.00">Memory</text>
</a>
</g>
</g>
<!-- dir_5cb6e1a8c8be2c39561c895666c60a3e -->
<g id="node2" class="node">
<title>dir_5cb6e1a8c8be2c39561c895666c60a3e</title>
<g id="a_node2"><a xlink:href="dir_5cb6e1a8c8be2c39561c895666c60a3e.html" target="_top" xlink:title="Models">
<polygon fill="none" stroke="black" points="71,-36 17,-36 17,0 71,0 71,-36"/>
<text text-anchor="middle" x="44" y="-15.5" font-family="Helvetica,sans-Serif" font-size="10.00">Models</text>
</a>
</g>
</g>
<!-- dir_b6b0f0b7471b46e8c4cfc0f00c8af2f6&#45;&gt;dir_5cb6e1a8c8be2c39561c895666c60a3e -->
<g id="edge1" class="edge">
<title>dir_b6b0f0b7471b46e8c4cfc0f00c8af2f6&#45;&gt;dir_5cb6e1a8c8be2c39561c895666c60a3e</title>
<path fill="none" stroke="black" d="M39.59,-143.53C36.7,-133.29 33.45,-120.04 32,-108 30.08,-92.12 30.22,-87.9 32,-72 32.96,-63.43 34.76,-54.22 36.69,-45.93"/>
<polygon fill="black" stroke="black" points="40.13,-46.57 39.13,-36.02 33.34,-44.89 40.13,-46.57"/>
<g id="a_edge1&#45;headlabel"><a xlink:href="dir_000015_000016.html" target="_top" xlink:title="6">
<text text-anchor="middle" x="42.03" y="-48.24" font-family="Helvetica,sans-Serif" font-size="10.00">6</text>
</a>
</g>
</g>
<!-- dir_5da686cefd6752aaaa3bcabf1d868d88 -->
<g id="node3" class="node">
<title>dir_5da686cefd6752aaaa3bcabf1d868d88</title>
<g id="a_node3"><a xlink:href="dir_5da686cefd6752aaaa3bcabf1d868d88.html" target="_top" xlink:title="Exceptions">
<polygon fill="none" stroke="black" points="111,-108 41,-108 41,-72 111,-72 111,-108"/>
<text text-anchor="middle" x="76" y="-87.5" font-family="Helvetica,sans-Serif" font-size="10.00">Exceptions</text>
</a>
</g>
</g>
<!-- dir_b6b0f0b7471b46e8c4cfc0f00c8af2f6&#45;&gt;dir_5da686cefd6752aaaa3bcabf1d868d88 -->
<g id="edge2" class="edge">
<title>dir_b6b0f0b7471b46e8c4cfc0f00c8af2f6&#45;&gt;dir_5da686cefd6752aaaa3bcabf1d868d88</title>
<path fill="none" stroke="black" d="M52.66,-143.7C56.19,-135.73 60.46,-126.1 64.37,-117.26"/>
<polygon fill="black" stroke="black" points="67.58,-118.67 68.43,-108.1 61.18,-115.83 67.58,-118.67"/>
<g id="a_edge2&#45;headlabel"><a xlink:href="dir_000015_000014.html" target="_top" xlink:title="2">
<text text-anchor="middle" x="68.72" y="-120.6" font-family="Helvetica,sans-Serif" font-size="10.00">2</text>
</a>
</g>
</g>
<!-- dir_5da686cefd6752aaaa3bcabf1d868d88&#45;&gt;dir_5cb6e1a8c8be2c39561c895666c60a3e -->
<g id="edge3" class="edge">
<title>dir_5da686cefd6752aaaa3bcabf1d868d88&#45;&gt;dir_5cb6e1a8c8be2c39561c895666c60a3e</title>
<path fill="none" stroke="black" d="M68.09,-71.7C64.45,-63.73 60.05,-54.1 56.01,-45.26"/>
<polygon fill="black" stroke="black" points="59.16,-43.74 51.82,-36.1 52.79,-46.65 59.16,-43.74"/>
<g id="a_edge3&#45;headlabel"><a xlink:href="dir_000014_000016.html" target="_top" xlink:title="1">
<text text-anchor="middle" x="63.24" y="-43.33" font-family="Helvetica,sans-Serif" font-size="10.00">1</text>
</a>
</g>
</g>
</g>
</svg>
