<?xml version="1.0" encoding="UTF-8" standalone="no"?>
<!DOCTYPE svg PUBLIC "-//W3C//DTD SVG 1.1//EN"
 "http://www.w3.org/Graphics/SVG/1.1/DTD/svg11.dtd">
<!-- Generated by graphviz version 2.43.0 (0)
 -->
<!-- Title: sources/Debugger/TileViewer Pages: 1 -->
<svg width="150pt" height="223pt"
 viewBox="0.00 0.00 149.50 223.00" xmlns="http://www.w3.org/2000/svg" xmlns:xlink="http://www.w3.org/1999/xlink">
<g id="graph0" class="graph" transform="scale(1 1) rotate(0) translate(4 219)">
<title>sources/Debugger/TileViewer</title>
<polygon fill="white" stroke="transparent" points="-4,4 -4,-219 145.5,-219 145.5,4 -4,4"/>
<g id="clust1" class="cluster">
<title>clusterdir_189293303b628b823f13ae296b502d01</title>
<g id="a_clust1"><a xlink:href="dir_189293303b628b823f13ae296b502d01.html" target="_top" xlink:title="Debugger">
<polygon fill="#ddddee" stroke="black" points="26.5,-136 26.5,-207 110.5,-207 110.5,-136 26.5,-136"/>
<text text-anchor="middle" x="68.5" y="-195" font-family="Helvetica,sans-Serif" font-size="10.00">Debugger</text>
</a>
</g>
</g>
<!-- dir_c321c6a7f0648929655fbb9f990d53a6 -->
<g id="node1" class="node">
<title>dir_c321c6a7f0648929655fbb9f990d53a6</title>
<g id="a_node1"><a xlink:href="dir_c321c6a7f0648929655fbb9f990d53a6.html" target="_top" xlink:title="TileViewer">
<polygon fill="#eeeeff" stroke="black" points="102.5,-180 34.5,-180 34.5,-144 102.5,-144 102.5,-180"/>
<text text-anchor="middle" x="68.5" y="-159.5" font-family="Helvetica,sans-Serif" font-size="10.00">TileViewer</text>
</a>
</g>
</g>
<!-- dir_9d8b0bd023ebe51fb4b8ffcd38d3f5ed -->
<g id="node2" class="node">
<title>dir_9d8b0bd023ebe51fb4b8ffcd38d3f5ed</title>
<g id="a_node2"><a xlink:href="dir_9d8b0bd023ebe51fb4b8ffcd38d3f5ed.html" target="_top" xlink:title="Renderer">
<polygon fill="white" stroke="red" points="61,-36 0,-36 0,0 61,0 61,-36"/>
<text text-anchor="middle" x="30.5" y="-15.5" font-family="Helvetica,sans-Serif" font-size="10.00">Renderer</text>
</a>
</g>
</g>
<!-- dir_c321c6a7f0648929655fbb9f990d53a6&#45;&gt;dir_9d8b0bd023ebe51fb4b8ffcd38d3f5ed -->
<g id="edge3" class="edge">
<title>dir_c321c6a7f0648929655fbb9f990d53a6&#45;&gt;dir_9d8b0bd023ebe51fb4b8ffcd38d3f5ed</title>
<path fill="none" stroke="black" d="M53.01,-143.74C45.28,-133.98 36.7,-121.14 32.5,-108 26.11,-88.04 25.93,-64.25 27.17,-46.29"/>
<polygon fill="black" stroke="black" points="30.67,-46.47 28.06,-36.2 23.7,-45.86 30.67,-46.47"/>
<g id="a_edge3&#45;headlabel"><a xlink:href="dir_000013_000019.html" target="_top" xlink:title="2">
<text text-anchor="middle" x="33.19" y="-47.8" font-family="Helvetica,sans-Serif" font-size="10.00">2</text>
</a>
</g>
</g>
<!-- dir_596bfb3d48f2f085998f77aaf2d42ecf -->
<g id="node3" class="node">
<title>dir_596bfb3d48f2f085998f77aaf2d42ecf</title>
<g id="a_node3"><a xlink:href="dir_596bfb3d48f2f085998f77aaf2d42ecf.html" target="_top" xlink:title="PPU">
<polygon fill="none" stroke="black" points="95.5,-108 41.5,-108 41.5,-72 95.5,-72 95.5,-108"/>
<text text-anchor="middle" x="68.5" y="-87.5" font-family="Helvetica,sans-Serif" font-size="10.00">PPU</text>
</a>
</g>
</g>
<!-- dir_c321c6a7f0648929655fbb9f990d53a6&#45;&gt;dir_596bfb3d48f2f085998f77aaf2d42ecf -->
<g id="edge4" class="edge">
<title>dir_c321c6a7f0648929655fbb9f990d53a6&#45;&gt;dir_596bfb3d48f2f085998f77aaf2d42ecf</title>
<path fill="none" stroke="black" d="M68.5,-143.7C68.5,-135.98 68.5,-126.71 68.5,-118.11"/>
<polygon fill="black" stroke="black" points="72,-118.1 68.5,-108.1 65,-118.1 72,-118.1"/>
<g id="a_edge4&#45;headlabel"><a xlink:href="dir_000013_000017.html" target="_top" xlink:title="4">
<text text-anchor="middle" x="74.84" y="-119.2" font-family="Helvetica,sans-Serif" font-size="10.00">4</text>
</a>
</g>
</g>
<!-- dir_96c90ef27c711de2cda20e988f4ab9d6 -->
<g id="node4" class="node">
<title>dir_96c90ef27c711de2cda20e988f4ab9d6</title>
<g id="a_node4"><a xlink:href="dir_96c90ef27c711de2cda20e988f4ab9d6.html" target="_top" xlink:title="Ram">
<polygon fill="none" stroke="black" points="141.5,-36 87.5,-36 87.5,0 141.5,0 141.5,-36"/>
<text text-anchor="middle" x="114.5" y="-15.5" font-family="Helvetica,sans-Serif" font-size="10.00">Ram</text>
</a>
</g>
</g>
<!-- dir_c321c6a7f0648929655fbb9f990d53a6&#45;&gt;dir_96c90ef27c711de2cda20e988f4ab9d6 -->
<g id="edge5" class="edge">
<title>dir_c321c6a7f0648929655fbb9f990d53a6&#45;&gt;dir_96c90ef27c711de2cda20e988f4ab9d6</title>
<path fill="none" stroke="black" d="M83.53,-143.58C91.12,-133.78 99.72,-120.94 104.5,-108 111.82,-88.22 114.19,-64.42 114.8,-46.41"/>
<polygon fill="black" stroke="black" points="118.3,-46.35 114.98,-36.29 111.3,-46.23 118.3,-46.35"/>
<g id="a_edge5&#45;headlabel"><a xlink:href="dir_000013_000018.html" target="_top" xlink:title="2">
<text text-anchor="middle" x="121.07" y="-47.5" font-family="Helvetica,sans-Serif" font-size="10.00">2</text>
</a>
</g>
</g>
<!-- dir_596bfb3d48f2f085998f77aaf2d42ecf&#45;&gt;dir_9d8b0bd023ebe51fb4b8ffcd38d3f5ed -->
<g id="edge1" class="edge">
<title>dir_596bfb3d48f2f085998f77aaf2d42ecf&#45;&gt;dir_9d8b0bd023ebe51fb4b8ffcd38d3f5ed</title>
<path fill="none" stroke="black" d="M59.11,-71.7C54.74,-63.64 49.44,-53.89 44.6,-44.98"/>
<polygon fill="black" stroke="black" points="47.63,-43.22 39.79,-36.1 41.48,-46.56 47.63,-43.22"/>
<g id="a_edge1&#45;headlabel"><a xlink:href="dir_000017_000019.html" target="_top" xlink:title="1">
<text text-anchor="middle" x="51.84" y="-42.53" font-family="Helvetica,sans-Serif" font-size="10.00">1</text>
</a>
</g>
</g>
<!-- dir_596bfb3d48f2f085998f77aaf2d42ecf&#45;&gt;dir_96c90ef27c711de2cda20e988f4ab9d6 -->
<g id="edge2" class="edge">
<title>dir_596bfb3d48f2f085998f77aaf2d42ecf&#45;&gt;dir_96c90ef27c711de2cda20e988f4ab9d6</title>
<path fill="none" stroke="black" d="M79.87,-71.7C85.22,-63.56 91.7,-53.69 97.61,-44.7"/>
<polygon fill="black" stroke="black" points="100.69,-46.38 103.26,-36.1 94.84,-42.54 100.69,-46.38"/>
<g id="a_edge2&#45;headlabel"><a xlink:href="dir_000017_000018.html" target="_top" xlink:title="4">
<text text-anchor="middle" x="101.09" y="-48.45" font-family="Helvetica,sans-Serif" font-size="10.00">4</text>
</a>
</g>
</g>
</g>
</svg>
