<?xml version="1.0" encoding="UTF-8" standalone="no"?>
<!DOCTYPE svg PUBLIC "-//W3C//DTD SVG 1.1//EN"
 "http://www.w3.org/Graphics/SVG/1.1/DTD/svg11.dtd">
<!-- Generated by graphviz version 2.43.0 (0)
 -->
<!-- Title: sources Pages: 1 -->
<svg width="486pt" height="652pt"
 viewBox="0.00 0.00 486.00 652.00" xmlns="http://www.w3.org/2000/svg" xmlns:xlink="http://www.w3.org/1999/xlink">
<g id="graph0" class="graph" transform="scale(1 1) rotate(0) translate(4 648)">
<title>sources</title>
<polygon fill="white" stroke="transparent" points="-4,4 -4,-648 482,-648 482,4 -4,4"/>
<g id="clust1" class="cluster">
<title>clusterdir_08d237fc27d4ecd563f71c5d52f2fecc</title>
<g id="a_clust1"><a xlink:href="dir_08d237fc27d4ecd563f71c5d52f2fecc.html" target="_top">
<polygon fill="#eeeeff" stroke="black" points="8,-8 8,-636 470,-636 470,-8 8,-8"/>
</a>
</g>
</g>
<!-- dir_08d237fc27d4ecd563f71c5d52f2fecc -->
<g id="node1" class="node">
<title>dir_08d237fc27d4ecd563f71c5d52f2fecc</title>
<text text-anchor="middle" x="377" y="-607.5" font-family="Helvetica,sans-Serif" font-size="10.00">sources</text>
</g>
<!-- dir_c023b0da1327801e33139c8f2715cbe5 -->
<g id="node2" class="node">
<title>dir_c023b0da1327801e33139c8f2715cbe5</title>
<g id="a_node2"><a xlink:href="dir_c023b0da1327801e33139c8f2715cbe5.html" target="_top" xlink:title="APU">
<polygon fill="white" stroke="red" points="254,-628 200,-628 200,-592 254,-592 254,-628"/>
<text text-anchor="middle" x="227" y="-607.5" font-family="Helvetica,sans-Serif" font-size="10.00">APU</text>
</a>
</g>
</g>
<!-- dir_acbfe30a39643d3dad4cea6c4be60bc9 -->
<g id="node3" class="node">
<title>dir_acbfe30a39643d3dad4cea6c4be60bc9</title>
<g id="a_node3"><a xlink:href="dir_acbfe30a39643d3dad4cea6c4be60bc9.html" target="_top" xlink:title="Cartridge">
<polygon fill="white" stroke="black" points="270,-340 208,-340 208,-304 270,-304 270,-340"/>
<text text-anchor="middle" x="239" y="-319.5" font-family="Helvetica,sans-Serif" font-size="10.00">Cartridge</text>
</a>
</g>
</g>
<!-- dir_c023b0da1327801e33139c8f2715cbe5&#45;&gt;dir_acbfe30a39643d3dad4cea6c4be60bc9 -->
<g id="edge29" class="edge">
<title>dir_c023b0da1327801e33139c8f2715cbe5&#45;&gt;dir_acbfe30a39643d3dad4cea6c4be60bc9</title>
<path fill="none" stroke="black" d="M221.24,-591.55C218.15,-581.32 214.65,-568.07 213,-556 206.49,-508.44 206.9,-495.73 212,-448 215.65,-413.81 224.77,-375.24 231.4,-350.1"/>
<polygon fill="black" stroke="black" points="234.84,-350.77 234.07,-340.2 228.08,-348.95 234.84,-350.77"/>
<g id="a_edge29&#45;headlabel"><a xlink:href="dir_000002_000006.html" target="_top" xlink:title="1">
<text text-anchor="middle" x="236.65" y="-352.48" font-family="Helvetica,sans-Serif" font-size="10.00">1</text>
</a>
</g>
</g>
<!-- dir_5da686cefd6752aaaa3bcabf1d868d88 -->
<g id="node6" class="node">
<title>dir_5da686cefd6752aaaa3bcabf1d868d88</title>
<g id="a_node6"><a xlink:href="dir_5da686cefd6752aaaa3bcabf1d868d88.html" target="_top" xlink:title="Exceptions">
<polygon fill="white" stroke="black" points="214,-124 144,-124 144,-88 214,-88 214,-124"/>
<text text-anchor="middle" x="179" y="-103.5" font-family="Helvetica,sans-Serif" font-size="10.00">Exceptions</text>
</a>
</g>
</g>
<!-- dir_c023b0da1327801e33139c8f2715cbe5&#45;&gt;dir_5da686cefd6752aaaa3bcabf1d868d88 -->
<g id="edge31" class="edge">
<title>dir_c023b0da1327801e33139c8f2715cbe5&#45;&gt;dir_5da686cefd6752aaaa3bcabf1d868d88</title>
<path fill="none" stroke="black" d="M212.32,-591.99C178.72,-551.68 97.44,-445.73 75,-340 58.12,-260.44 58.76,-224.74 108,-160 116.84,-148.37 128.89,-138.08 140.55,-129.73"/>
<polygon fill="black" stroke="black" points="142.65,-132.54 148.93,-124 138.7,-126.76 142.65,-132.54"/>
<g id="a_edge31&#45;headlabel"><a xlink:href="dir_000002_000014.html" target="_top" xlink:title="4">
<text text-anchor="middle" x="141.29" y="-134.41" font-family="Helvetica,sans-Serif" font-size="10.00">4</text>
</a>
</g>
</g>
<!-- dir_b6b0f0b7471b46e8c4cfc0f00c8af2f6 -->
<g id="node7" class="node">
<title>dir_b6b0f0b7471b46e8c4cfc0f00c8af2f6</title>
<g id="a_node7"><a xlink:href="dir_b6b0f0b7471b46e8c4cfc0f00c8af2f6.html" target="_top" xlink:title="Memory">
<polygon fill="white" stroke="black" points="309.5,-196 252.5,-196 252.5,-160 309.5,-160 309.5,-196"/>
<text text-anchor="middle" x="281" y="-175.5" font-family="Helvetica,sans-Serif" font-size="10.00">Memory</text>
</a>
</g>
</g>
<!-- dir_c023b0da1327801e33139c8f2715cbe5&#45;&gt;dir_b6b0f0b7471b46e8c4cfc0f00c8af2f6 -->
<g id="edge30" class="edge">
<title>dir_c023b0da1327801e33139c8f2715cbe5&#45;&gt;dir_b6b0f0b7471b46e8c4cfc0f00c8af2f6</title>
<path fill="none" stroke="black" d="M254.3,-605.45C316.03,-595.74 461,-562.75 461,-467 461,-467 461,-467 461,-321 461,-249.39 372.1,-208.3 319.26,-190.2"/>
<polygon fill="black" stroke="black" points="320.11,-186.8 309.52,-186.98 317.92,-193.44 320.11,-186.8"/>
<g id="a_edge30&#45;headlabel"><a xlink:href="dir_000002_000015.html" target="_top" xlink:title="3">
<text text-anchor="middle" x="324.42" y="-182.73" font-family="Helvetica,sans-Serif" font-size="10.00">3</text>
</a>
</g>
</g>
<!-- dir_5cb6e1a8c8be2c39561c895666c60a3e -->
<g id="node8" class="node">
<title>dir_5cb6e1a8c8be2c39561c895666c60a3e</title>
<g id="a_node8"><a xlink:href="dir_5cb6e1a8c8be2c39561c895666c60a3e.html" target="_top" xlink:title="Models">
<polygon fill="white" stroke="black" points="260,-52 206,-52 206,-16 260,-16 260,-52"/>
<text text-anchor="middle" x="233" y="-31.5" font-family="Helvetica,sans-Serif" font-size="10.00">Models</text>
</a>
</g>
</g>
<!-- dir_c023b0da1327801e33139c8f2715cbe5&#45;&gt;dir_5cb6e1a8c8be2c39561c895666c60a3e -->
<g id="edge27" class="edge">
<title>dir_c023b0da1327801e33139c8f2715cbe5&#45;&gt;dir_5cb6e1a8c8be2c39561c895666c60a3e</title>
<path fill="none" stroke="black" d="M199.98,-603.95C143.26,-591.62 17,-554.36 17,-467 17,-467 17,-467 17,-177 17,-134.33 21.39,-116.66 53,-88 92.77,-51.95 155.92,-40.35 195.87,-36.66"/>
<polygon fill="black" stroke="black" points="196.3,-40.14 205.99,-35.85 195.74,-33.16 196.3,-40.14"/>
<g id="a_edge27&#45;headlabel"><a xlink:href="dir_000002_000016.html" target="_top" xlink:title="1">
<text text-anchor="middle" x="192.95" y="-40.75" font-family="Helvetica,sans-Serif" font-size="10.00">1</text>
</a>
</g>
</g>
<!-- dir_96c90ef27c711de2cda20e988f4ab9d6 -->
<g id="node10" class="node">
<title>dir_96c90ef27c711de2cda20e988f4ab9d6</title>
<g id="a_node10"><a xlink:href="dir_96c90ef27c711de2cda20e988f4ab9d6.html" target="_top" xlink:title="Ram">
<polygon fill="white" stroke="black" points="210,-268 156,-268 156,-232 210,-232 210,-268"/>
<text text-anchor="middle" x="183" y="-247.5" font-family="Helvetica,sans-Serif" font-size="10.00">Ram</text>
</a>
</g>
</g>
<!-- dir_c023b0da1327801e33139c8f2715cbe5&#45;&gt;dir_96c90ef27c711de2cda20e988f4ab9d6 -->
<g id="edge32" class="edge">
<title>dir_c023b0da1327801e33139c8f2715cbe5&#45;&gt;dir_96c90ef27c711de2cda20e988f4ab9d6</title>
<path fill="none" stroke="black" d="M217.85,-591.84C212.88,-581.7 207.13,-568.45 204,-556 180.51,-462.57 191.62,-436.17 186,-340 184.79,-319.29 184.02,-295.85 183.57,-278.22"/>
<polygon fill="black" stroke="black" points="187.06,-277.99 183.32,-268.07 180.07,-278.15 187.06,-277.99"/>
<g id="a_edge32&#45;headlabel"><a xlink:href="dir_000002_000018.html" target="_top" xlink:title="1">
<text text-anchor="middle" x="189.99" y="-279.01" font-family="Helvetica,sans-Serif" font-size="10.00">1</text>
</a>
</g>
</g>
<!-- dir_9d8b0bd023ebe51fb4b8ffcd38d3f5ed -->
<g id="node11" class="node">
<title>dir_9d8b0bd023ebe51fb4b8ffcd38d3f5ed</title>
<g id="a_node11"><a xlink:href="dir_9d8b0bd023ebe51fb4b8ffcd38d3f5ed.html" target="_top" xlink:title="Renderer">
<polygon fill="white" stroke="red" points="282.5,-556 221.5,-556 221.5,-520 282.5,-520 282.5,-556"/>
<text text-anchor="middle" x="252" y="-535.5" font-family="Helvetica,sans-Serif" font-size="10.00">Renderer</text>
</a>
</g>
</g>
<!-- dir_c023b0da1327801e33139c8f2715cbe5&#45;&gt;dir_9d8b0bd023ebe51fb4b8ffcd38d3f5ed -->
<g id="edge26" class="edge">
<title>dir_c023b0da1327801e33139c8f2715cbe5&#45;&gt;dir_9d8b0bd023ebe51fb4b8ffcd38d3f5ed</title>
<path fill="none" stroke="black" d="M233.18,-591.7C236,-583.81 239.39,-574.3 242.52,-565.55"/>
<polygon fill="black" stroke="black" points="245.82,-566.7 245.89,-556.1 239.23,-564.34 245.82,-566.7"/>
<g id="a_edge26&#45;headlabel"><a xlink:href="dir_000002_000019.html" target="_top" xlink:title="2">
<text text-anchor="middle" x="247.29" y="-568.54" font-family="Helvetica,sans-Serif" font-size="10.00">2</text>
</a>
</g>
</g>
<!-- dir_f5f18c638a333642b431bbbd93cbd24f -->
<g id="node12" class="node">
<title>dir_f5f18c638a333642b431bbbd93cbd24f</title>
<g id="a_node12"><a xlink:href="dir_f5f18c638a333642b431bbbd93cbd24f.html" target="_top" xlink:title="Utility">
<polygon fill="white" stroke="black" points="442,-340 388,-340 388,-304 442,-304 442,-340"/>
<text text-anchor="middle" x="415" y="-319.5" font-family="Helvetica,sans-Serif" font-size="10.00">Utility</text>
</a>
</g>
</g>
<!-- dir_c023b0da1327801e33139c8f2715cbe5&#45;&gt;dir_f5f18c638a333642b431bbbd93cbd24f -->
<g id="edge28" class="edge">
<title>dir_c023b0da1327801e33139c8f2715cbe5&#45;&gt;dir_f5f18c638a333642b431bbbd93cbd24f</title>
<path fill="none" stroke="black" d="M254.22,-592.49C268.58,-582.96 285.88,-570.08 299,-556 350.6,-500.6 359.22,-481.17 390,-412 398.89,-392.02 405.4,-368.1 409.54,-350.09"/>
<polygon fill="black" stroke="black" points="412.98,-350.76 411.71,-340.24 406.14,-349.25 412.98,-350.76"/>
<g id="a_edge28&#45;headlabel"><a xlink:href="dir_000002_000021.html" target="_top" xlink:title="3">
<text text-anchor="middle" x="414.98" y="-352.38" font-family="Helvetica,sans-Serif" font-size="10.00">3</text>
</a>
</g>
</g>
<!-- dir_acbfe30a39643d3dad4cea6c4be60bc9&#45;&gt;dir_5da686cefd6752aaaa3bcabf1d868d88 -->
<g id="edge21" class="edge">
<title>dir_acbfe30a39643d3dad4cea6c4be60bc9&#45;&gt;dir_5da686cefd6752aaaa3bcabf1d868d88</title>
<path fill="none" stroke="black" d="M235.61,-303.83C231.95,-285.82 225.73,-256.76 219,-232 209.7,-197.79 196.93,-159 188.35,-133.83"/>
<polygon fill="black" stroke="black" points="191.61,-132.57 185.05,-124.25 184.99,-134.84 191.61,-132.57"/>
<g id="a_edge21&#45;headlabel"><a xlink:href="dir_000006_000014.html" target="_top" xlink:title="2">
<text text-anchor="middle" x="195.47" y="-132.54" font-family="Helvetica,sans-Serif" font-size="10.00">2</text>
</a>
</g>
</g>
<!-- dir_acbfe30a39643d3dad4cea6c4be60bc9&#45;&gt;dir_b6b0f0b7471b46e8c4cfc0f00c8af2f6 -->
<g id="edge20" class="edge">
<title>dir_acbfe30a39643d3dad4cea6c4be60bc9&#45;&gt;dir_b6b0f0b7471b46e8c4cfc0f00c8af2f6</title>
<path fill="none" stroke="black" d="M244.07,-303.87C251.26,-279.56 264.49,-234.82 273.01,-206.01"/>
<polygon fill="black" stroke="black" points="276.44,-206.77 275.92,-196.19 269.72,-204.79 276.44,-206.77"/>
<g id="a_edge20&#45;headlabel"><a xlink:href="dir_000006_000015.html" target="_top" xlink:title="2">
<text text-anchor="middle" x="278.14" y="-208.52" font-family="Helvetica,sans-Serif" font-size="10.00">2</text>
</a>
</g>
</g>
<!-- dir_acbfe30a39643d3dad4cea6c4be60bc9&#45;&gt;dir_5cb6e1a8c8be2c39561c895666c60a3e -->
<g id="edge19" class="edge">
<title>dir_acbfe30a39643d3dad4cea6c4be60bc9&#45;&gt;dir_5cb6e1a8c8be2c39561c895666c60a3e</title>
<path fill="none" stroke="black" d="M238.64,-303.97C237.64,-256.29 234.81,-121.18 233.58,-62.63"/>
<polygon fill="black" stroke="black" points="237.07,-62.23 233.36,-52.31 230.07,-62.38 237.07,-62.23"/>
<g id="a_edge19&#45;headlabel"><a xlink:href="dir_000006_000016.html" target="_top" xlink:title="1">
<text text-anchor="middle" x="239.99" y="-63.27" font-family="Helvetica,sans-Serif" font-size="10.00">1</text>
</a>
</g>
</g>
<!-- dir_acbfe30a39643d3dad4cea6c4be60bc9&#45;&gt;dir_96c90ef27c711de2cda20e988f4ab9d6 -->
<g id="edge22" class="edge">
<title>dir_acbfe30a39643d3dad4cea6c4be60bc9&#45;&gt;dir_96c90ef27c711de2cda20e988f4ab9d6</title>
<path fill="none" stroke="black" d="M225.16,-303.7C218.51,-295.39 210.42,-285.28 203.11,-276.14"/>
<polygon fill="black" stroke="black" points="205.66,-273.73 196.68,-268.1 200.2,-278.1 205.66,-273.73"/>
<g id="a_edge22&#45;headlabel"><a xlink:href="dir_000006_000018.html" target="_top" xlink:title="1">
<text text-anchor="middle" x="210.13" y="-272.26" font-family="Helvetica,sans-Serif" font-size="10.00">1</text>
</a>
</g>
</g>
<!-- dir_a65246f7a5288ee65248a0302198d58d -->
<g id="node4" class="node">
<title>dir_a65246f7a5288ee65248a0302198d58d</title>
<g id="a_node4"><a xlink:href="dir_a65246f7a5288ee65248a0302198d58d.html" target="_top" xlink:title="CPU">
<polygon fill="white" stroke="red" points="350,-412 296,-412 296,-376 350,-376 350,-412"/>
<text text-anchor="middle" x="323" y="-391.5" font-family="Helvetica,sans-Serif" font-size="10.00">CPU</text>
</a>
</g>
</g>
<!-- dir_a65246f7a5288ee65248a0302198d58d&#45;&gt;dir_acbfe30a39643d3dad4cea6c4be60bc9 -->
<g id="edge3" class="edge">
<title>dir_a65246f7a5288ee65248a0302198d58d&#45;&gt;dir_acbfe30a39643d3dad4cea6c4be60bc9</title>
<path fill="none" stroke="black" d="M302.24,-375.7C291.76,-366.97 278.89,-356.24 267.5,-346.75"/>
<polygon fill="black" stroke="black" points="269.45,-343.82 259.53,-340.1 264.97,-349.19 269.45,-343.82"/>
<g id="a_edge3&#45;headlabel"><a xlink:href="dir_000007_000006.html" target="_top" xlink:title="1">
<text text-anchor="middle" x="274.03" y="-341.44" font-family="Helvetica,sans-Serif" font-size="10.00">1</text>
</a>
</g>
</g>
<!-- dir_a65246f7a5288ee65248a0302198d58d&#45;&gt;dir_5da686cefd6752aaaa3bcabf1d868d88 -->
<g id="edge5" class="edge">
<title>dir_a65246f7a5288ee65248a0302198d58d&#45;&gt;dir_5da686cefd6752aaaa3bcabf1d868d88</title>
<path fill="none" stroke="black" d="M325.1,-375.82C330.6,-328 343.32,-194.58 319,-160 297.61,-129.6 256.43,-116.62 224.24,-111.09"/>
<polygon fill="black" stroke="black" points="224.56,-107.6 214.14,-109.55 223.5,-114.52 224.56,-107.6"/>
<g id="a_edge5&#45;headlabel"><a xlink:href="dir_000007_000014.html" target="_top" xlink:title="3">
<text text-anchor="middle" x="228.54" y="-102.84" font-family="Helvetica,sans-Serif" font-size="10.00">3</text>
</a>
</g>
</g>
<!-- dir_a65246f7a5288ee65248a0302198d58d&#45;&gt;dir_b6b0f0b7471b46e8c4cfc0f00c8af2f6 -->
<g id="edge4" class="edge">
<title>dir_a65246f7a5288ee65248a0302198d58d&#45;&gt;dir_b6b0f0b7471b46e8c4cfc0f00c8af2f6</title>
<path fill="none" stroke="black" d="M320.22,-375.54C315.42,-345.91 305.04,-283.95 294,-232 292.2,-223.53 290.03,-214.35 287.98,-206.05"/>
<polygon fill="black" stroke="black" points="291.32,-204.97 285.49,-196.12 284.53,-206.67 291.32,-204.97"/>
<g id="a_edge4&#45;headlabel"><a xlink:href="dir_000007_000015.html" target="_top" xlink:title="3">
<text text-anchor="middle" x="294.95" y="-205.27" font-family="Helvetica,sans-Serif" font-size="10.00">3</text>
</a>
</g>
</g>
<!-- dir_a65246f7a5288ee65248a0302198d58d&#45;&gt;dir_5cb6e1a8c8be2c39561c895666c60a3e -->
<g id="edge1" class="edge">
<title>dir_a65246f7a5288ee65248a0302198d58d&#45;&gt;dir_5cb6e1a8c8be2c39561c895666c60a3e</title>
<path fill="none" stroke="black" d="M328.26,-375.7C335.86,-349.14 349,-296.61 349,-251 349,-251 349,-251 349,-177 349,-125.5 302.67,-82.38 268.57,-57.61"/>
<polygon fill="black" stroke="black" points="270.39,-54.62 260.2,-51.72 266.36,-60.34 270.39,-54.62"/>
<g id="a_edge1&#45;headlabel"><a xlink:href="dir_000007_000016.html" target="_top" xlink:title="7">
<text text-anchor="middle" x="274.96" y="-51.86" font-family="Helvetica,sans-Serif" font-size="10.00">7</text>
</a>
</g>
</g>
<!-- dir_a65246f7a5288ee65248a0302198d58d&#45;&gt;dir_f5f18c638a333642b431bbbd93cbd24f -->
<g id="edge2" class="edge">
<title>dir_a65246f7a5288ee65248a0302198d58d&#45;&gt;dir_f5f18c638a333642b431bbbd93cbd24f</title>
<path fill="none" stroke="black" d="M345.74,-375.7C357.44,-366.8 371.86,-355.82 384.51,-346.2"/>
<polygon fill="black" stroke="black" points="386.68,-348.94 392.52,-340.1 382.44,-343.37 386.68,-348.94"/>
<g id="a_edge2&#45;headlabel"><a xlink:href="dir_000007_000021.html" target="_top" xlink:title="1">
<text text-anchor="middle" x="385.54" y="-350.88" font-family="Helvetica,sans-Serif" font-size="10.00">1</text>
</a>
</g>
</g>
<!-- dir_189293303b628b823f13ae296b502d01 -->
<g id="node5" class="node">
<title>dir_189293303b628b823f13ae296b502d01</title>
<g id="a_node5"><a xlink:href="dir_189293303b628b823f13ae296b502d01.html" target="_top" xlink:title="Debugger">
<polygon fill="white" stroke="red" points="285,-484 221,-484 221,-448 285,-448 285,-484"/>
<text text-anchor="middle" x="253" y="-463.5" font-family="Helvetica,sans-Serif" font-size="10.00">Debugger</text>
</a>
</g>
</g>
<!-- dir_189293303b628b823f13ae296b502d01&#45;&gt;dir_c023b0da1327801e33139c8f2715cbe5 -->
<g id="edge16" class="edge">
<title>dir_189293303b628b823f13ae296b502d01&#45;&gt;dir_c023b0da1327801e33139c8f2715cbe5</title>
<path fill="none" stroke="black" d="M269.89,-484.01C278.29,-493.69 287.58,-506.54 292,-520 296.99,-535.2 298.86,-541.55 292,-556 285.67,-569.34 274.15,-580.42 262.56,-588.95"/>
<polygon fill="black" stroke="black" points="260.44,-586.16 254.17,-594.7 264.4,-591.93 260.44,-586.16"/>
<g id="a_edge16&#45;headlabel"><a xlink:href="dir_000010_000002.html" target="_top" xlink:title="1">
<text text-anchor="middle" x="261.8" y="-579.28" font-family="Helvetica,sans-Serif" font-size="10.00">1</text>
</a>
</g>
</g>
<!-- dir_189293303b628b823f13ae296b502d01&#45;&gt;dir_acbfe30a39643d3dad4cea6c4be60bc9 -->
<g id="edge13" class="edge">
<title>dir_189293303b628b823f13ae296b502d01&#45;&gt;dir_acbfe30a39643d3dad4cea6c4be60bc9</title>
<path fill="none" stroke="black" d="M251.31,-447.87C248.93,-423.67 244.54,-379.21 241.7,-350.39"/>
<polygon fill="black" stroke="black" points="245.16,-349.8 240.69,-340.19 238.19,-350.48 245.16,-349.8"/>
<g id="a_edge13&#45;headlabel"><a xlink:href="dir_000010_000006.html" target="_top" xlink:title="1">
<text text-anchor="middle" x="248.34" y="-350.6" font-family="Helvetica,sans-Serif" font-size="10.00">1</text>
</a>
</g>
</g>
<!-- dir_189293303b628b823f13ae296b502d01&#45;&gt;dir_a65246f7a5288ee65248a0302198d58d -->
<g id="edge9" class="edge">
<title>dir_189293303b628b823f13ae296b502d01&#45;&gt;dir_a65246f7a5288ee65248a0302198d58d</title>
<path fill="none" stroke="black" d="M270.3,-447.7C278.86,-439.14 289.34,-428.66 298.7,-419.3"/>
<polygon fill="black" stroke="black" points="301.3,-421.65 305.9,-412.1 296.35,-416.7 301.3,-421.65"/>
<g id="a_edge9&#45;headlabel"><a xlink:href="dir_000010_000007.html" target="_top" xlink:title="1">
<text text-anchor="middle" x="300.77" y="-423.7" font-family="Helvetica,sans-Serif" font-size="10.00">1</text>
</a>
</g>
</g>
<!-- dir_189293303b628b823f13ae296b502d01&#45;&gt;dir_5da686cefd6752aaaa3bcabf1d868d88 -->
<g id="edge15" class="edge">
<title>dir_189293303b628b823f13ae296b502d01&#45;&gt;dir_5da686cefd6752aaaa3bcabf1d868d88</title>
<path fill="none" stroke="black" d="M220.73,-452.37C180.16,-434.43 112.72,-397.26 87,-340 63.74,-288.21 99.32,-217.86 132,-160 137.74,-149.83 145.69,-139.92 153.42,-131.47"/>
<polygon fill="black" stroke="black" points="156.02,-133.81 160.38,-124.15 150.95,-128.98 156.02,-133.81"/>
<g id="a_edge15&#45;headlabel"><a xlink:href="dir_000010_000014.html" target="_top" xlink:title="5">
<text text-anchor="middle" x="155.6" y="-135.87" font-family="Helvetica,sans-Serif" font-size="10.00">5</text>
</a>
</g>
</g>
<!-- dir_189293303b628b823f13ae296b502d01&#45;&gt;dir_b6b0f0b7471b46e8c4cfc0f00c8af2f6 -->
<g id="edge14" class="edge">
<title>dir_189293303b628b823f13ae296b502d01&#45;&gt;dir_b6b0f0b7471b46e8c4cfc0f00c8af2f6</title>
<path fill="none" stroke="black" d="M257.68,-447.78C263.94,-423.83 274.74,-379 279,-340 284.08,-293.52 283.37,-239.04 282.27,-206.86"/>
<polygon fill="black" stroke="black" points="285.76,-206.32 281.88,-196.46 278.76,-206.58 285.76,-206.32"/>
<g id="a_edge14&#45;headlabel"><a xlink:href="dir_000010_000015.html" target="_top" xlink:title="5">
<text text-anchor="middle" x="288.73" y="-207.3" font-family="Helvetica,sans-Serif" font-size="10.00">5</text>
</a>
</g>
</g>
<!-- dir_189293303b628b823f13ae296b502d01&#45;&gt;dir_5cb6e1a8c8be2c39561c895666c60a3e -->
<g id="edge11" class="edge">
<title>dir_189293303b628b823f13ae296b502d01&#45;&gt;dir_5cb6e1a8c8be2c39561c895666c60a3e</title>
<path fill="none" stroke="black" d="M285.37,-457.7C309.74,-450.4 341.8,-436.63 359,-412 381.79,-379.36 369,-362.8 369,-323 369,-323 369,-323 369,-177 369,-132.47 353.6,-120.34 323,-88 307.93,-72.07 287.02,-59.37 269.14,-50.39"/>
<polygon fill="black" stroke="black" points="270.65,-47.23 260.12,-46.04 267.61,-53.54 270.65,-47.23"/>
<g id="a_edge11&#45;headlabel"><a xlink:href="dir_000010_000016.html" target="_top" xlink:title="2">
<text text-anchor="middle" x="275.12" y="-43.74" font-family="Helvetica,sans-Serif" font-size="10.00">2</text>
</a>
</g>
</g>
<!-- dir_596bfb3d48f2f085998f77aaf2d42ecf -->
<g id="node9" class="node">
<title>dir_596bfb3d48f2f085998f77aaf2d42ecf</title>
<g id="a_node9"><a xlink:href="dir_596bfb3d48f2f085998f77aaf2d42ecf.html" target="_top" xlink:title="PPU">
<polygon fill="white" stroke="black" points="150,-340 96,-340 96,-304 150,-304 150,-340"/>
<text text-anchor="middle" x="123" y="-319.5" font-family="Helvetica,sans-Serif" font-size="10.00">PPU</text>
</a>
</g>
</g>
<!-- dir_189293303b628b823f13ae296b502d01&#45;&gt;dir_596bfb3d48f2f085998f77aaf2d42ecf -->
<g id="edge17" class="edge">
<title>dir_189293303b628b823f13ae296b502d01&#45;&gt;dir_596bfb3d48f2f085998f77aaf2d42ecf</title>
<path fill="none" stroke="black" d="M237.32,-447.87C214.48,-422.92 171.93,-376.45 145.68,-347.77"/>
<polygon fill="black" stroke="black" points="148.07,-345.2 138.74,-340.19 142.91,-349.93 148.07,-345.2"/>
<g id="a_edge17&#45;headlabel"><a xlink:href="dir_000010_000017.html" target="_top" xlink:title="6">
<text text-anchor="middle" x="152.59" y="-343.44" font-family="Helvetica,sans-Serif" font-size="10.00">6</text>
</a>
</g>
</g>
<!-- dir_189293303b628b823f13ae296b502d01&#45;&gt;dir_96c90ef27c711de2cda20e988f4ab9d6 -->
<g id="edge18" class="edge">
<title>dir_189293303b628b823f13ae296b502d01&#45;&gt;dir_96c90ef27c711de2cda20e988f4ab9d6</title>
<path fill="none" stroke="black" d="M243.99,-447.68C232.03,-423.98 211.01,-379.83 199,-340 192.85,-319.62 188.73,-295.85 186.21,-278.01"/>
<polygon fill="black" stroke="black" points="189.67,-277.45 184.88,-268 182.73,-278.38 189.67,-277.45"/>
<g id="a_edge18&#45;headlabel"><a xlink:href="dir_000010_000018.html" target="_top" xlink:title="3">
<text text-anchor="middle" x="192.96" y="-278.14" font-family="Helvetica,sans-Serif" font-size="10.00">3</text>
</a>
</g>
</g>
<!-- dir_189293303b628b823f13ae296b502d01&#45;&gt;dir_9d8b0bd023ebe51fb4b8ffcd38d3f5ed -->
<g id="edge10" class="edge">
<title>dir_189293303b628b823f13ae296b502d01&#45;&gt;dir_9d8b0bd023ebe51fb4b8ffcd38d3f5ed</title>
<path fill="none" stroke="black" d="M258.65,-484.1C259.35,-491.79 259.45,-501.05 258.99,-509.67"/>
<polygon fill="black" stroke="black" points="255.5,-509.44 258.16,-519.7 262.48,-510.02 255.5,-509.44"/>
<g id="a_edge10&#45;headlabel"><a xlink:href="dir_000010_000019.html" target="_top" xlink:title="2">
<text text-anchor="middle" x="252.97" y="-503.12" font-family="Helvetica,sans-Serif" font-size="10.00">2</text>
</a>
</g>
</g>
<!-- dir_189293303b628b823f13ae296b502d01&#45;&gt;dir_f5f18c638a333642b431bbbd93cbd24f -->
<g id="edge12" class="edge">
<title>dir_189293303b628b823f13ae296b502d01&#45;&gt;dir_f5f18c638a333642b431bbbd93cbd24f</title>
<path fill="none" stroke="black" d="M285.16,-457.73C311.88,-450.24 349.37,-436.17 374,-412 391.29,-395.03 402.03,-369.4 408.16,-350"/>
<polygon fill="black" stroke="black" points="411.57,-350.8 411.03,-340.22 404.85,-348.83 411.57,-350.8"/>
<g id="a_edge12&#45;headlabel"><a xlink:href="dir_000010_000021.html" target="_top" xlink:title="9">
<text text-anchor="middle" x="413.28" y="-352.55" font-family="Helvetica,sans-Serif" font-size="10.00">9</text>
</a>
</g>
</g>
<!-- dir_5da686cefd6752aaaa3bcabf1d868d88&#45;&gt;dir_5cb6e1a8c8be2c39561c895666c60a3e -->
<g id="edge25" class="edge">
<title>dir_5da686cefd6752aaaa3bcabf1d868d88&#45;&gt;dir_5cb6e1a8c8be2c39561c895666c60a3e</title>
<path fill="none" stroke="black" d="M192.35,-87.7C198.76,-79.39 206.56,-69.28 213.61,-60.14"/>
<polygon fill="black" stroke="black" points="216.47,-62.16 219.81,-52.1 210.93,-57.88 216.47,-62.16"/>
<g id="a_edge25&#45;headlabel"><a xlink:href="dir_000014_000016.html" target="_top" xlink:title="1">
<text text-anchor="middle" x="216.52" y="-64.24" font-family="Helvetica,sans-Serif" font-size="10.00">1</text>
</a>
</g>
</g>
<!-- dir_b6b0f0b7471b46e8c4cfc0f00c8af2f6&#45;&gt;dir_5da686cefd6752aaaa3bcabf1d868d88 -->
<g id="edge24" class="edge">
<title>dir_b6b0f0b7471b46e8c4cfc0f00c8af2f6&#45;&gt;dir_5da686cefd6752aaaa3bcabf1d868d88</title>
<path fill="none" stroke="black" d="M256.05,-159.88C242.96,-150.89 226.74,-139.76 212.56,-130.03"/>
<polygon fill="black" stroke="black" points="214.27,-126.96 204.05,-124.19 210.31,-132.73 214.27,-126.96"/>
<g id="a_edge24&#45;headlabel"><a xlink:href="dir_000015_000014.html" target="_top" xlink:title="2">
<text text-anchor="middle" x="218.84" y="-124.16" font-family="Helvetica,sans-Serif" font-size="10.00">2</text>
</a>
</g>
</g>
<!-- dir_b6b0f0b7471b46e8c4cfc0f00c8af2f6&#45;&gt;dir_5cb6e1a8c8be2c39561c895666c60a3e -->
<g id="edge23" class="edge">
<title>dir_b6b0f0b7471b46e8c4cfc0f00c8af2f6&#45;&gt;dir_5cb6e1a8c8be2c39561c895666c60a3e</title>
<path fill="none" stroke="black" d="M275.21,-159.87C266.99,-135.56 251.87,-90.82 242.13,-62.01"/>
<polygon fill="black" stroke="black" points="245.33,-60.54 238.81,-52.19 238.7,-62.78 245.33,-60.54"/>
<g id="a_edge23&#45;headlabel"><a xlink:href="dir_000015_000016.html" target="_top" xlink:title="6">
<text text-anchor="middle" x="249.17" y="-60.54" font-family="Helvetica,sans-Serif" font-size="10.00">6</text>
</a>
</g>
</g>
<!-- dir_596bfb3d48f2f085998f77aaf2d42ecf&#45;&gt;dir_5da686cefd6752aaaa3bcabf1d868d88 -->
<g id="edge36" class="edge">
<title>dir_596bfb3d48f2f085998f77aaf2d42ecf&#45;&gt;dir_5da686cefd6752aaaa3bcabf1d868d88</title>
<path fill="none" stroke="black" d="M121.45,-303.71C120.27,-285.6 119.66,-256.46 125,-232 132.84,-196.12 151.06,-157.74 164.16,-133.12"/>
<polygon fill="black" stroke="black" points="167.38,-134.54 169.08,-124.08 161.23,-131.2 167.38,-134.54"/>
<g id="a_edge36&#45;headlabel"><a xlink:href="dir_000017_000014.html" target="_top" xlink:title="1">
<text text-anchor="middle" x="168.15" y="-136.55" font-family="Helvetica,sans-Serif" font-size="10.00">1</text>
</a>
</g>
</g>
<!-- dir_596bfb3d48f2f085998f77aaf2d42ecf&#45;&gt;dir_b6b0f0b7471b46e8c4cfc0f00c8af2f6 -->
<g id="edge35" class="edge">
<title>dir_596bfb3d48f2f085998f77aaf2d42ecf&#45;&gt;dir_b6b0f0b7471b46e8c4cfc0f00c8af2f6</title>
<path fill="none" stroke="black" d="M123.21,-303.79C124.35,-284.12 129.1,-252.06 147,-232 171.52,-204.54 212.12,-191.14 242.22,-184.7"/>
<polygon fill="black" stroke="black" points="243.25,-188.07 252.39,-182.71 241.9,-181.2 243.25,-188.07"/>
<g id="a_edge35&#45;headlabel"><a xlink:href="dir_000017_000015.html" target="_top" xlink:title="2">
<text text-anchor="middle" x="240.27" y="-189.05" font-family="Helvetica,sans-Serif" font-size="10.00">2</text>
</a>
</g>
</g>
<!-- dir_596bfb3d48f2f085998f77aaf2d42ecf&#45;&gt;dir_5cb6e1a8c8be2c39561c895666c60a3e -->
<g id="edge34" class="edge">
<title>dir_596bfb3d48f2f085998f77aaf2d42ecf&#45;&gt;dir_5cb6e1a8c8be2c39561c895666c60a3e</title>
<path fill="none" stroke="black" d="M118.33,-303.88C108.14,-262.55 88.36,-155.72 135,-88 149.46,-67 175.01,-53.58 196.4,-45.49"/>
<polygon fill="black" stroke="black" points="197.61,-48.78 205.88,-42.15 195.28,-42.17 197.61,-48.78"/>
<g id="a_edge34&#45;headlabel"><a xlink:href="dir_000017_000016.html" target="_top" xlink:title="5">
<text text-anchor="middle" x="195.17" y="-50.15" font-family="Helvetica,sans-Serif" font-size="10.00">5</text>
</a>
</g>
</g>
<!-- dir_596bfb3d48f2f085998f77aaf2d42ecf&#45;&gt;dir_96c90ef27c711de2cda20e988f4ab9d6 -->
<g id="edge37" class="edge">
<title>dir_596bfb3d48f2f085998f77aaf2d42ecf&#45;&gt;dir_96c90ef27c711de2cda20e988f4ab9d6</title>
<path fill="none" stroke="black" d="M137.83,-303.7C145.02,-295.3 153.8,-285.07 161.69,-275.86"/>
<polygon fill="black" stroke="black" points="164.49,-277.97 168.34,-268.1 159.17,-273.42 164.49,-277.97"/>
<g id="a_edge37&#45;headlabel"><a xlink:href="dir_000017_000018.html" target="_top" xlink:title="4">
<text text-anchor="middle" x="164.31" y="-280.05" font-family="Helvetica,sans-Serif" font-size="10.00">4</text>
</a>
</g>
</g>
<!-- dir_596bfb3d48f2f085998f77aaf2d42ecf&#45;&gt;dir_9d8b0bd023ebe51fb4b8ffcd38d3f5ed -->
<g id="edge33" class="edge">
<title>dir_596bfb3d48f2f085998f77aaf2d42ecf&#45;&gt;dir_9d8b0bd023ebe51fb4b8ffcd38d3f5ed</title>
<path fill="none" stroke="black" d="M131.22,-340.28C139.95,-358.37 154.35,-387.5 168,-412 186.25,-444.76 190.9,-453 212,-484 218.23,-493.15 225.41,-502.89 231.95,-511.49"/>
<polygon fill="black" stroke="black" points="229.36,-513.86 238.23,-519.65 234.9,-509.59 229.36,-513.86"/>
<g id="a_edge33&#45;headlabel"><a xlink:href="dir_000017_000019.html" target="_top" xlink:title="1">
<text text-anchor="middle" x="224.91" y="-510.24" font-family="Helvetica,sans-Serif" font-size="10.00">1</text>
</a>
</g>
</g>
<!-- dir_96c90ef27c711de2cda20e988f4ab9d6&#45;&gt;dir_5da686cefd6752aaaa3bcabf1d868d88 -->
<g id="edge39" class="edge">
<title>dir_96c90ef27c711de2cda20e988f4ab9d6&#45;&gt;dir_5da686cefd6752aaaa3bcabf1d868d88</title>
<path fill="none" stroke="black" d="M182.52,-231.87C181.84,-207.67 180.58,-163.21 179.77,-134.39"/>
<polygon fill="black" stroke="black" points="183.26,-134.09 179.48,-124.19 176.27,-134.28 183.26,-134.09"/>
<g id="a_edge39&#45;headlabel"><a xlink:href="dir_000018_000014.html" target="_top" xlink:title="1">
<text text-anchor="middle" x="186.2" y="-135.1" font-family="Helvetica,sans-Serif" font-size="10.00">1</text>
</a>
</g>
</g>
<!-- dir_96c90ef27c711de2cda20e988f4ab9d6&#45;&gt;dir_b6b0f0b7471b46e8c4cfc0f00c8af2f6 -->
<g id="edge38" class="edge">
<title>dir_96c90ef27c711de2cda20e988f4ab9d6&#45;&gt;dir_b6b0f0b7471b46e8c4cfc0f00c8af2f6</title>
<path fill="none" stroke="black" d="M206.97,-231.88C219.55,-222.89 235.13,-211.76 248.75,-202.03"/>
<polygon fill="black" stroke="black" points="250.83,-204.85 256.93,-196.19 246.76,-199.15 250.83,-204.85"/>
<g id="a_edge38&#45;headlabel"><a xlink:href="dir_000018_000015.html" target="_top" xlink:title="1">
<text text-anchor="middle" x="249.56" y="-206.75" font-family="Helvetica,sans-Serif" font-size="10.00">1</text>
</a>
</g>
</g>
<!-- dir_9d8b0bd023ebe51fb4b8ffcd38d3f5ed&#45;&gt;dir_189293303b628b823f13ae296b502d01 -->
<g id="edge7" class="edge">
<title>dir_9d8b0bd023ebe51fb4b8ffcd38d3f5ed&#45;&gt;dir_189293303b628b823f13ae296b502d01</title>
<path fill="none" stroke="black" d="M246.33,-519.7C245.65,-511.98 245.55,-502.71 246.02,-494.11"/>
<polygon fill="black" stroke="black" points="249.51,-494.36 246.86,-484.1 242.53,-493.78 249.51,-494.36"/>
<g id="a_edge7&#45;headlabel"><a xlink:href="dir_000019_000010.html" target="_top" xlink:title="1">
<text text-anchor="middle" x="252.04" y="-495.68" font-family="Helvetica,sans-Serif" font-size="10.00">1</text>
</a>
</g>
</g>
<!-- dir_9d8b0bd023ebe51fb4b8ffcd38d3f5ed&#45;&gt;dir_5cb6e1a8c8be2c39561c895666c60a3e -->
<g id="edge6" class="edge">
<title>dir_9d8b0bd023ebe51fb4b8ffcd38d3f5ed&#45;&gt;dir_5cb6e1a8c8be2c39561c895666c60a3e</title>
<path fill="none" stroke="black" d="M225.64,-519.77C168.23,-479.91 37,-375.24 37,-251 37,-251 37,-251 37,-177 37,-99.31 139.25,-59.77 196.04,-43.8"/>
<polygon fill="black" stroke="black" points="197.01,-47.16 205.75,-41.17 195.18,-40.4 197.01,-47.16"/>
<g id="a_edge6&#45;headlabel"><a xlink:href="dir_000019_000016.html" target="_top" xlink:title="1">
<text text-anchor="middle" x="194.28" y="-48.34" font-family="Helvetica,sans-Serif" font-size="10.00">1</text>
</a>
</g>
</g>
<!-- dir_f5f18c638a333642b431bbbd93cbd24f&#45;&gt;dir_5cb6e1a8c8be2c39561c895666c60a3e -->
<g id="edge8" class="edge">
<title>dir_f5f18c638a333642b431bbbd93cbd24f&#45;&gt;dir_5cb6e1a8c8be2c39561c895666c60a3e</title>
<path fill="none" stroke="black" d="M417.27,-303.74C421.8,-261.61 427.38,-152.32 374,-88 348.31,-57.04 302.57,-44.15 270.16,-38.79"/>
<polygon fill="black" stroke="black" points="270.56,-35.31 260.15,-37.3 269.53,-42.24 270.56,-35.31"/>
<g id="a_edge8&#45;headlabel"><a xlink:href="dir_000021_000016.html" target="_top" xlink:title="1">
<text text-anchor="middle" x="274.53" y="-30.53" font-family="Helvetica,sans-Serif" font-size="10.00">1</text>
</a>
</g>
</g>
</g>
</svg>
