<?xml version="1.0" encoding="UTF-8" standalone="no"?>
<!DOCTYPE svg PUBLIC "-//W3C//DTD SVG 1.1//EN"
 "http://www.w3.org/Graphics/SVG/1.1/DTD/svg11.dtd">
<!-- Generated by graphviz version 2.43.0 (0)
 -->
<!-- Title: sources/APU Pages: 1 -->
<svg width="564pt" height="447pt"
 viewBox="0.00 0.00 564.00 447.00" xmlns="http://www.w3.org/2000/svg" xmlns:xlink="http://www.w3.org/1999/xlink">
<g id="graph0" class="graph" transform="scale(1 1) rotate(0) translate(4 443)">
<title>sources/APU</title>
<polygon fill="white" stroke="transparent" points="-4,4 -4,-443 560,-443 560,4 -4,4"/>
<g id="clust1" class="cluster">
<title>clusterdir_08d237fc27d4ecd563f71c5d52f2fecc</title>
<g id="a_clust1"><a xlink:href="dir_08d237fc27d4ecd563f71c5d52f2fecc.html" target="_top" xlink:title="sources">
<polygon fill="#ddddee" stroke="black" points="154,-272 154,-431 332,-431 332,-272 154,-272"/>
<text text-anchor="middle" x="243" y="-419" font-family="Helvetica,sans-Serif" font-size="10.00">sources</text>
</a>
</g>
</g>
<g id="clust2" class="cluster">
<title>clusterdir_c023b0da1327801e33139c8f2715cbe5</title>
<g id="a_clust2"><a xlink:href="dir_c023b0da1327801e33139c8f2715cbe5.html" target="_top">
<polygon fill="#eeeeff" stroke="black" points="162,-280 162,-404 324,-404 324,-280 162,-280"/>
</a>
</g>
</g>
<!-- dir_c023b0da1327801e33139c8f2715cbe5 -->
<g id="node1" class="node">
<title>dir_c023b0da1327801e33139c8f2715cbe5</title>
<text text-anchor="middle" x="289" y="-375.5" font-family="Helvetica,sans-Serif" font-size="10.00">APU</text>
</g>
<!-- dir_51ad7b790076cccb183f81c3ebe77c63 -->
<g id="node2" class="node">
<title>dir_51ad7b790076cccb183f81c3ebe77c63</title>
<g id="a_node2"><a xlink:href="dir_51ad7b790076cccb183f81c3ebe77c63.html" target="_top" xlink:title="DSP">
<polygon fill="white" stroke="black" points="234,-324 180,-324 180,-288 234,-288 234,-324"/>
<text text-anchor="middle" x="207" y="-303.5" font-family="Helvetica,sans-Serif" font-size="10.00">DSP</text>
</a>
</g>
</g>
<!-- dir_c023b0da1327801e33139c8f2715cbe5&#45;&gt;dir_51ad7b790076cccb183f81c3ebe77c63 -->
<g id="edge19" class="edge">
<title>dir_c023b0da1327801e33139c8f2715cbe5&#45;&gt;dir_51ad7b790076cccb183f81c3ebe77c63</title>
<path fill="none" stroke="black" d="M268.73,-359.7C258.5,-350.97 245.94,-340.24 234.82,-330.75"/>
<polygon fill="black" stroke="black" points="236.91,-327.94 227.04,-324.1 232.37,-333.26 236.91,-327.94"/>
<g id="a_edge19&#45;headlabel"><a xlink:href="dir_000002_000003.html" target="_top" xlink:title="1">
<text text-anchor="middle" x="241.49" y="-325.61" font-family="Helvetica,sans-Serif" font-size="10.00">1</text>
</a>
</g>
</g>
<!-- dir_0bdbb77b778947cebbc974a1a20e502d -->
<g id="node4" class="node">
<title>dir_0bdbb77b778947cebbc974a1a20e502d</title>
<g id="a_node4"><a xlink:href="dir_0bdbb77b778947cebbc974a1a20e502d.html" target="_top" xlink:title="IPL">
<polygon fill="white" stroke="black" points="316,-324 262,-324 262,-288 316,-288 316,-324"/>
<text text-anchor="middle" x="289" y="-303.5" font-family="Helvetica,sans-Serif" font-size="10.00">IPL</text>
</a>
</g>
</g>
<!-- dir_c023b0da1327801e33139c8f2715cbe5&#45;&gt;dir_0bdbb77b778947cebbc974a1a20e502d -->
<g id="edge16" class="edge">
<title>dir_c023b0da1327801e33139c8f2715cbe5&#45;&gt;dir_0bdbb77b778947cebbc974a1a20e502d</title>
<path fill="none" stroke="black" d="M289,-359.7C289,-351.98 289,-342.71 289,-334.11"/>
<polygon fill="black" stroke="black" points="292.5,-334.1 289,-324.1 285.5,-334.1 292.5,-334.1"/>
<g id="a_edge16&#45;headlabel"><a xlink:href="dir_000002_000005.html" target="_top" xlink:title="1">
<text text-anchor="middle" x="295.34" y="-335.2" font-family="Helvetica,sans-Serif" font-size="10.00">1</text>
</a>
</g>
</g>
<!-- dir_9d8b0bd023ebe51fb4b8ffcd38d3f5ed -->
<g id="node5" class="node">
<title>dir_9d8b0bd023ebe51fb4b8ffcd38d3f5ed</title>
<g id="a_node5"><a xlink:href="dir_9d8b0bd023ebe51fb4b8ffcd38d3f5ed.html" target="_top" xlink:title="Renderer">
<polygon fill="white" stroke="red" points="171.5,-252 110.5,-252 110.5,-216 171.5,-216 171.5,-252"/>
<text text-anchor="middle" x="141" y="-231.5" font-family="Helvetica,sans-Serif" font-size="10.00">Renderer</text>
</a>
</g>
</g>
<!-- dir_c023b0da1327801e33139c8f2715cbe5&#45;&gt;dir_9d8b0bd023ebe51fb4b8ffcd38d3f5ed -->
<g id="edge17" class="edge">
<title>dir_c023b0da1327801e33139c8f2715cbe5&#45;&gt;dir_9d8b0bd023ebe51fb4b8ffcd38d3f5ed</title>
<path fill="none" stroke="black" d="M261.91,-364.11C258.91,-362.71 255.89,-361.32 253,-360 216.78,-343.5 197.87,-353.36 171,-324 155.4,-306.95 147.87,-281.49 144.27,-262.17"/>
<polygon fill="black" stroke="black" points="147.7,-261.47 142.64,-252.16 140.79,-262.59 147.7,-261.47"/>
<g id="a_edge17&#45;headlabel"><a xlink:href="dir_000002_000019.html" target="_top" xlink:title="2">
<text text-anchor="middle" x="151.08" y="-262.06" font-family="Helvetica,sans-Serif" font-size="10.00">2</text>
</a>
</g>
</g>
<!-- dir_5cb6e1a8c8be2c39561c895666c60a3e -->
<g id="node6" class="node">
<title>dir_5cb6e1a8c8be2c39561c895666c60a3e</title>
<g id="a_node6"><a xlink:href="dir_5cb6e1a8c8be2c39561c895666c60a3e.html" target="_top" xlink:title="Models">
<polygon fill="none" stroke="black" points="223,-36 169,-36 169,0 223,0 223,-36"/>
<text text-anchor="middle" x="196" y="-15.5" font-family="Helvetica,sans-Serif" font-size="10.00">Models</text>
</a>
</g>
</g>
<!-- dir_c023b0da1327801e33139c8f2715cbe5&#45;&gt;dir_5cb6e1a8c8be2c39561c895666c60a3e -->
<g id="edge18" class="edge">
<title>dir_c023b0da1327801e33139c8f2715cbe5&#45;&gt;dir_5cb6e1a8c8be2c39561c895666c60a3e</title>
<path fill="none" stroke="black" d="M261.64,-363.64C258.75,-362.36 255.83,-361.12 253,-360 204.79,-340.89 183.42,-355.21 142,-324 103.9,-295.3 82,-282.7 82,-235 82,-235 82,-235 82,-161 82,-110 127.27,-66.88 160.76,-41.97"/>
<polygon fill="black" stroke="black" points="162.92,-44.73 168.98,-36.04 158.83,-39.05 162.92,-44.73"/>
<g id="a_edge18&#45;headlabel"><a xlink:href="dir_000002_000016.html" target="_top" xlink:title="1">
<text text-anchor="middle" x="161.67" y="-46.63" font-family="Helvetica,sans-Serif" font-size="10.00">1</text>
</a>
</g>
</g>
<!-- dir_acbfe30a39643d3dad4cea6c4be60bc9 -->
<g id="node8" class="node">
<title>dir_acbfe30a39643d3dad4cea6c4be60bc9</title>
<g id="a_node8"><a xlink:href="dir_acbfe30a39643d3dad4cea6c4be60bc9.html" target="_top" xlink:title="Cartridge">
<polygon fill="none" stroke="black" points="556,-324 494,-324 494,-288 556,-288 556,-324"/>
<text text-anchor="middle" x="525" y="-303.5" font-family="Helvetica,sans-Serif" font-size="10.00">Cartridge</text>
</a>
</g>
</g>
<!-- dir_c023b0da1327801e33139c8f2715cbe5&#45;&gt;dir_acbfe30a39643d3dad4cea6c4be60bc9 -->
<g id="edge20" class="edge">
<title>dir_c023b0da1327801e33139c8f2715cbe5&#45;&gt;dir_acbfe30a39643d3dad4cea6c4be60bc9</title>
<path fill="none" stroke="black" d="M316.12,-370.3C353.35,-360.91 422.27,-342.87 480,-324 481.39,-323.55 482.8,-323.07 484.22,-322.59"/>
<polygon fill="black" stroke="black" points="485.4,-325.89 493.66,-319.25 483.06,-319.29 485.4,-325.89"/>
<g id="a_edge20&#45;headlabel"><a xlink:href="dir_000002_000006.html" target="_top" xlink:title="1">
<text text-anchor="middle" x="482.95" y="-327.26" font-family="Helvetica,sans-Serif" font-size="10.00">1</text>
</a>
</g>
</g>
<!-- dir_b6b0f0b7471b46e8c4cfc0f00c8af2f6 -->
<g id="node9" class="node">
<title>dir_b6b0f0b7471b46e8c4cfc0f00c8af2f6</title>
<g id="a_node9"><a xlink:href="dir_b6b0f0b7471b46e8c4cfc0f00c8af2f6.html" target="_top" xlink:title="Memory">
<polygon fill="none" stroke="black" points="361.5,-180 304.5,-180 304.5,-144 361.5,-144 361.5,-180"/>
<text text-anchor="middle" x="333" y="-159.5" font-family="Helvetica,sans-Serif" font-size="10.00">Memory</text>
</a>
</g>
</g>
<!-- dir_c023b0da1327801e33139c8f2715cbe5&#45;&gt;dir_b6b0f0b7471b46e8c4cfc0f00c8af2f6 -->
<g id="edge21" class="edge">
<title>dir_c023b0da1327801e33139c8f2715cbe5&#45;&gt;dir_b6b0f0b7471b46e8c4cfc0f00c8af2f6</title>
<path fill="none" stroke="black" d="M304.35,-359.69C312.04,-349.92 320.62,-337.08 325,-324 340.09,-278.94 338.68,-222.82 336.02,-190.14"/>
<polygon fill="black" stroke="black" points="339.49,-189.64 335.09,-180.01 332.52,-190.28 339.49,-189.64"/>
<g id="a_edge21&#45;headlabel"><a xlink:href="dir_000002_000015.html" target="_top" xlink:title="3">
<text text-anchor="middle" x="342.65" y="-190.47" font-family="Helvetica,sans-Serif" font-size="10.00">3</text>
</a>
</g>
</g>
<!-- dir_5da686cefd6752aaaa3bcabf1d868d88 -->
<g id="node10" class="node">
<title>dir_5da686cefd6752aaaa3bcabf1d868d88</title>
<g id="a_node10"><a xlink:href="dir_5da686cefd6752aaaa3bcabf1d868d88.html" target="_top" xlink:title="Exceptions">
<polygon fill="none" stroke="black" points="368,-108 298,-108 298,-72 368,-72 368,-108"/>
<text text-anchor="middle" x="333" y="-87.5" font-family="Helvetica,sans-Serif" font-size="10.00">Exceptions</text>
</a>
</g>
</g>
<!-- dir_c023b0da1327801e33139c8f2715cbe5&#45;&gt;dir_5da686cefd6752aaaa3bcabf1d868d88 -->
<g id="edge22" class="edge">
<title>dir_c023b0da1327801e33139c8f2715cbe5&#45;&gt;dir_5da686cefd6752aaaa3bcabf1d868d88</title>
<path fill="none" stroke="black" d="M312.68,-359.88C323.89,-350.53 336.45,-338.01 344,-324 374.91,-266.69 364.97,-244.84 371,-180 372.48,-164.07 375.9,-159.23 371,-144 367.81,-134.08 362,-124.44 355.87,-116.17"/>
<polygon fill="black" stroke="black" points="358.42,-113.74 349.46,-108.08 352.93,-118.09 358.42,-113.74"/>
<g id="a_edge22&#45;headlabel"><a xlink:href="dir_000002_000014.html" target="_top" xlink:title="4">
<text text-anchor="middle" x="362.88" y="-112.3" font-family="Helvetica,sans-Serif" font-size="10.00">4</text>
</a>
</g>
</g>
<!-- dir_96c90ef27c711de2cda20e988f4ab9d6 -->
<g id="node11" class="node">
<title>dir_96c90ef27c711de2cda20e988f4ab9d6</title>
<g id="a_node11"><a xlink:href="dir_96c90ef27c711de2cda20e988f4ab9d6.html" target="_top" xlink:title="Ram">
<polygon fill="none" stroke="black" points="510,-252 456,-252 456,-216 510,-216 510,-252"/>
<text text-anchor="middle" x="483" y="-231.5" font-family="Helvetica,sans-Serif" font-size="10.00">Ram</text>
</a>
</g>
</g>
<!-- dir_c023b0da1327801e33139c8f2715cbe5&#45;&gt;dir_96c90ef27c711de2cda20e988f4ab9d6 -->
<g id="edge23" class="edge">
<title>dir_c023b0da1327801e33139c8f2715cbe5&#45;&gt;dir_96c90ef27c711de2cda20e988f4ab9d6</title>
<path fill="none" stroke="black" d="M316.04,-374.11C349.42,-369.23 406.17,-356.47 442,-324 460.06,-307.63 470.74,-281.72 476.65,-262.06"/>
<polygon fill="black" stroke="black" points="480.1,-262.73 479.39,-252.16 473.35,-260.87 480.1,-262.73"/>
<g id="a_edge23&#45;headlabel"><a xlink:href="dir_000002_000018.html" target="_top" xlink:title="1">
<text text-anchor="middle" x="481.88" y="-264.45" font-family="Helvetica,sans-Serif" font-size="10.00">1</text>
</a>
</g>
</g>
<!-- dir_51ad7b790076cccb183f81c3ebe77c63&#45;&gt;dir_9d8b0bd023ebe51fb4b8ffcd38d3f5ed -->
<g id="edge4" class="edge">
<title>dir_51ad7b790076cccb183f81c3ebe77c63&#45;&gt;dir_9d8b0bd023ebe51fb4b8ffcd38d3f5ed</title>
<path fill="none" stroke="black" d="M190.69,-287.7C182.69,-279.22 172.93,-268.86 164.18,-259.58"/>
<polygon fill="black" stroke="black" points="166.53,-256.98 157.13,-252.1 161.44,-261.78 166.53,-256.98"/>
<g id="a_edge4&#45;headlabel"><a xlink:href="dir_000003_000019.html" target="_top" xlink:title="1">
<text text-anchor="middle" x="171.07" y="-255.15" font-family="Helvetica,sans-Serif" font-size="10.00">1</text>
</a>
</g>
</g>
<!-- dir_51ad7b790076cccb183f81c3ebe77c63&#45;&gt;dir_b6b0f0b7471b46e8c4cfc0f00c8af2f6 -->
<g id="edge5" class="edge">
<title>dir_51ad7b790076cccb183f81c3ebe77c63&#45;&gt;dir_b6b0f0b7471b46e8c4cfc0f00c8af2f6</title>
<path fill="none" stroke="black" d="M222.2,-287.87C244.34,-262.92 285.57,-216.45 311.02,-187.77"/>
<polygon fill="black" stroke="black" points="313.73,-189.99 317.75,-180.19 308.49,-185.35 313.73,-189.99"/>
<g id="a_edge5&#45;headlabel"><a xlink:href="dir_000003_000015.html" target="_top" xlink:title="1">
<text text-anchor="middle" x="313.47" y="-192.07" font-family="Helvetica,sans-Serif" font-size="10.00">1</text>
</a>
</g>
</g>
<!-- dir_51ad7b790076cccb183f81c3ebe77c63&#45;&gt;dir_5da686cefd6752aaaa3bcabf1d868d88 -->
<g id="edge6" class="edge">
<title>dir_51ad7b790076cccb183f81c3ebe77c63&#45;&gt;dir_5da686cefd6752aaaa3bcabf1d868d88</title>
<path fill="none" stroke="black" d="M213.13,-287.61C224.34,-257.02 250.08,-192.26 283,-144 289.84,-133.98 298.57,-124.03 306.82,-115.5"/>
<polygon fill="black" stroke="black" points="309.3,-117.96 313.88,-108.41 304.34,-113.02 309.3,-117.96"/>
<g id="a_edge6&#45;headlabel"><a xlink:href="dir_000003_000014.html" target="_top" xlink:title="1">
<text text-anchor="middle" x="308.78" y="-120.01" font-family="Helvetica,sans-Serif" font-size="10.00">1</text>
</a>
</g>
</g>
<!-- dir_c19fcb0bd0e88d6b11ae7d5787f6e42a -->
<g id="node3" class="node">
<title>dir_c19fcb0bd0e88d6b11ae7d5787f6e42a</title>
<g id="a_node3"><a xlink:href="dir_c19fcb0bd0e88d6b11ae7d5787f6e42a.html" target="_top" xlink:title="Instructions">
<polygon fill="white" stroke="black" points="244,-396 170,-396 170,-360 244,-360 244,-396"/>
<text text-anchor="middle" x="207" y="-375.5" font-family="Helvetica,sans-Serif" font-size="10.00">Instructions</text>
</a>
</g>
</g>
<!-- dir_f5f18c638a333642b431bbbd93cbd24f -->
<g id="node7" class="node">
<title>dir_f5f18c638a333642b431bbbd93cbd24f</title>
<g id="a_node7"><a xlink:href="dir_f5f18c638a333642b431bbbd93cbd24f.html" target="_top" xlink:title="Utility">
<polygon fill="none" stroke="black" points="54,-324 0,-324 0,-288 54,-288 54,-324"/>
<text text-anchor="middle" x="27" y="-303.5" font-family="Helvetica,sans-Serif" font-size="10.00">Utility</text>
</a>
</g>
</g>
<!-- dir_c19fcb0bd0e88d6b11ae7d5787f6e42a&#45;&gt;dir_f5f18c638a333642b431bbbd93cbd24f -->
<g id="edge8" class="edge">
<title>dir_c19fcb0bd0e88d6b11ae7d5787f6e42a&#45;&gt;dir_f5f18c638a333642b431bbbd93cbd24f</title>
<path fill="none" stroke="black" d="M169.72,-363.12C141.67,-352.59 102.32,-337.65 68,-324 66.61,-323.45 65.2,-322.88 63.78,-322.31"/>
<polygon fill="black" stroke="black" points="64.88,-318.98 54.3,-318.45 62.24,-325.46 64.88,-318.98"/>
<g id="a_edge8&#45;headlabel"><a xlink:href="dir_000004_000021.html" target="_top" xlink:title="3">
<text text-anchor="middle" x="69.28" y="-315.21" font-family="Helvetica,sans-Serif" font-size="10.00">3</text>
</a>
</g>
</g>
<!-- dir_0bdbb77b778947cebbc974a1a20e502d&#45;&gt;dir_b6b0f0b7471b46e8c4cfc0f00c8af2f6 -->
<g id="edge1" class="edge">
<title>dir_0bdbb77b778947cebbc974a1a20e502d&#45;&gt;dir_b6b0f0b7471b46e8c4cfc0f00c8af2f6</title>
<path fill="none" stroke="black" d="M294.31,-287.87C301.84,-263.56 315.7,-218.82 324.63,-190.01"/>
<polygon fill="black" stroke="black" points="328.06,-190.78 327.67,-180.19 321.37,-188.71 328.06,-190.78"/>
<g id="a_edge1&#45;headlabel"><a xlink:href="dir_000005_000015.html" target="_top" xlink:title="1">
<text text-anchor="middle" x="329.71" y="-192.55" font-family="Helvetica,sans-Serif" font-size="10.00">1</text>
</a>
</g>
</g>
<!-- dir_0bdbb77b778947cebbc974a1a20e502d&#45;&gt;dir_5da686cefd6752aaaa3bcabf1d868d88 -->
<g id="edge2" class="edge">
<title>dir_0bdbb77b778947cebbc974a1a20e502d&#45;&gt;dir_5da686cefd6752aaaa3bcabf1d868d88</title>
<path fill="none" stroke="black" d="M286.7,-287.98C283.31,-257.97 279.04,-194.09 296,-144 299.31,-134.22 305.02,-124.62 310.98,-116.34"/>
<polygon fill="black" stroke="black" points="313.89,-118.3 317.19,-108.23 308.33,-114.04 313.89,-118.3"/>
<g id="a_edge2&#45;headlabel"><a xlink:href="dir_000005_000014.html" target="_top" xlink:title="1">
<text text-anchor="middle" x="313.96" y="-120.38" font-family="Helvetica,sans-Serif" font-size="10.00">1</text>
</a>
</g>
</g>
<!-- dir_9d8b0bd023ebe51fb4b8ffcd38d3f5ed&#45;&gt;dir_5cb6e1a8c8be2c39561c895666c60a3e -->
<g id="edge3" class="edge">
<title>dir_9d8b0bd023ebe51fb4b8ffcd38d3f5ed&#45;&gt;dir_5cb6e1a8c8be2c39561c895666c60a3e</title>
<path fill="none" stroke="black" d="M145.41,-215.85C154.94,-178.75 177.54,-90.81 189.03,-46.1"/>
<polygon fill="black" stroke="black" points="192.47,-46.79 191.57,-36.23 185.69,-45.05 192.47,-46.79"/>
<g id="a_edge3&#45;headlabel"><a xlink:href="dir_000019_000016.html" target="_top" xlink:title="1">
<text text-anchor="middle" x="194.33" y="-48.48" font-family="Helvetica,sans-Serif" font-size="10.00">1</text>
</a>
</g>
</g>
<!-- dir_f5f18c638a333642b431bbbd93cbd24f&#45;&gt;dir_5cb6e1a8c8be2c39561c895666c60a3e -->
<g id="edge7" class="edge">
<title>dir_f5f18c638a333642b431bbbd93cbd24f&#45;&gt;dir_5cb6e1a8c8be2c39561c895666c60a3e</title>
<path fill="none" stroke="black" d="M24.87,-287.85C20.64,-245.97 15.69,-137.19 68,-72 90.35,-44.14 129.84,-30.77 159.06,-24.45"/>
<polygon fill="black" stroke="black" points="159.8,-27.88 168.93,-22.5 158.44,-21.01 159.8,-27.88"/>
<g id="a_edge7&#45;headlabel"><a xlink:href="dir_000021_000016.html" target="_top" xlink:title="1">
<text text-anchor="middle" x="156.82" y="-28.86" font-family="Helvetica,sans-Serif" font-size="10.00">1</text>
</a>
</g>
</g>
<!-- dir_acbfe30a39643d3dad4cea6c4be60bc9&#45;&gt;dir_5cb6e1a8c8be2c39561c895666c60a3e -->
<g id="edge9" class="edge">
<title>dir_acbfe30a39643d3dad4cea6c4be60bc9&#45;&gt;dir_5cb6e1a8c8be2c39561c895666c60a3e</title>
<path fill="none" stroke="black" d="M529.46,-287.95C531.94,-277.63 534.75,-264.15 536,-252 541.2,-201.38 533.05,-180.89 498,-144 424.51,-66.65 296.05,-35.49 233.02,-24.4"/>
<polygon fill="black" stroke="black" points="233.56,-20.94 223.12,-22.73 232.4,-27.84 233.56,-20.94"/>
<g id="a_edge9&#45;headlabel"><a xlink:href="dir_000006_000016.html" target="_top" xlink:title="1">
<text text-anchor="middle" x="237.58" y="-16.24" font-family="Helvetica,sans-Serif" font-size="10.00">1</text>
</a>
</g>
</g>
<!-- dir_acbfe30a39643d3dad4cea6c4be60bc9&#45;&gt;dir_b6b0f0b7471b46e8c4cfc0f00c8af2f6 -->
<g id="edge10" class="edge">
<title>dir_acbfe30a39643d3dad4cea6c4be60bc9&#45;&gt;dir_b6b0f0b7471b46e8c4cfc0f00c8af2f6</title>
<path fill="none" stroke="black" d="M499.06,-288C483.74,-277.8 464.07,-264.44 447,-252 417.54,-230.53 384.84,-204.79 362.04,-186.53"/>
<polygon fill="black" stroke="black" points="364.1,-183.69 354.11,-180.16 359.71,-189.15 364.1,-183.69"/>
<g id="a_edge10&#45;headlabel"><a xlink:href="dir_000006_000015.html" target="_top" xlink:title="2">
<text text-anchor="middle" x="368.68" y="-181.23" font-family="Helvetica,sans-Serif" font-size="10.00">2</text>
</a>
</g>
</g>
<!-- dir_acbfe30a39643d3dad4cea6c4be60bc9&#45;&gt;dir_5da686cefd6752aaaa3bcabf1d868d88 -->
<g id="edge11" class="edge">
<title>dir_acbfe30a39643d3dad4cea6c4be60bc9&#45;&gt;dir_5da686cefd6752aaaa3bcabf1d868d88</title>
<path fill="none" stroke="black" d="M526.59,-287.7C527.66,-269.33 527.57,-239.74 519,-216 505.6,-178.87 498.16,-168.23 467,-144 440.79,-123.62 405.75,-110.13 378.07,-101.86"/>
<polygon fill="black" stroke="black" points="378.81,-98.43 368.24,-99.04 376.89,-105.16 378.81,-98.43"/>
<g id="a_edge11&#45;headlabel"><a xlink:href="dir_000006_000014.html" target="_top" xlink:title="2">
<text text-anchor="middle" x="383.05" y="-94.19" font-family="Helvetica,sans-Serif" font-size="10.00">2</text>
</a>
</g>
</g>
<!-- dir_acbfe30a39643d3dad4cea6c4be60bc9&#45;&gt;dir_96c90ef27c711de2cda20e988f4ab9d6 -->
<g id="edge12" class="edge">
<title>dir_acbfe30a39643d3dad4cea6c4be60bc9&#45;&gt;dir_96c90ef27c711de2cda20e988f4ab9d6</title>
<path fill="none" stroke="black" d="M514.62,-287.7C509.74,-279.56 503.81,-269.69 498.42,-260.7"/>
<polygon fill="black" stroke="black" points="501.41,-258.88 493.26,-252.1 495.41,-262.48 501.41,-258.88"/>
<g id="a_edge12&#45;headlabel"><a xlink:href="dir_000006_000018.html" target="_top" xlink:title="1">
<text text-anchor="middle" x="505.69" y="-258" font-family="Helvetica,sans-Serif" font-size="10.00">1</text>
</a>
</g>
</g>
<!-- dir_b6b0f0b7471b46e8c4cfc0f00c8af2f6&#45;&gt;dir_5cb6e1a8c8be2c39561c895666c60a3e -->
<g id="edge13" class="edge">
<title>dir_b6b0f0b7471b46e8c4cfc0f00c8af2f6&#45;&gt;dir_5cb6e1a8c8be2c39561c895666c60a3e</title>
<path fill="none" stroke="black" d="M316.47,-143.87C292.3,-118.82 247.18,-72.05 219.55,-43.41"/>
<polygon fill="black" stroke="black" points="222.05,-40.96 212.58,-36.19 217.01,-45.82 222.05,-40.96"/>
<g id="a_edge13&#45;headlabel"><a xlink:href="dir_000015_000016.html" target="_top" xlink:title="6">
<text text-anchor="middle" x="226.59" y="-39.07" font-family="Helvetica,sans-Serif" font-size="10.00">6</text>
</a>
</g>
</g>
<!-- dir_b6b0f0b7471b46e8c4cfc0f00c8af2f6&#45;&gt;dir_5da686cefd6752aaaa3bcabf1d868d88 -->
<g id="edge14" class="edge">
<title>dir_b6b0f0b7471b46e8c4cfc0f00c8af2f6&#45;&gt;dir_5da686cefd6752aaaa3bcabf1d868d88</title>
<path fill="none" stroke="black" d="M333,-143.7C333,-135.98 333,-126.71 333,-118.11"/>
<polygon fill="black" stroke="black" points="336.5,-118.1 333,-108.1 329.5,-118.1 336.5,-118.1"/>
<g id="a_edge14&#45;headlabel"><a xlink:href="dir_000015_000014.html" target="_top" xlink:title="2">
<text text-anchor="middle" x="339.34" y="-119.2" font-family="Helvetica,sans-Serif" font-size="10.00">2</text>
</a>
</g>
</g>
<!-- dir_5da686cefd6752aaaa3bcabf1d868d88&#45;&gt;dir_5cb6e1a8c8be2c39561c895666c60a3e -->
<g id="edge15" class="edge">
<title>dir_5da686cefd6752aaaa3bcabf1d868d88&#45;&gt;dir_5cb6e1a8c8be2c39561c895666c60a3e</title>
<path fill="none" stroke="black" d="M299.49,-71.88C279.15,-61.49 253.2,-48.22 232.37,-37.58"/>
<polygon fill="black" stroke="black" points="233.69,-34.33 223.19,-32.9 230.51,-40.56 233.69,-34.33"/>
<g id="a_edge15&#45;headlabel"><a xlink:href="dir_000014_000016.html" target="_top" xlink:title="1">
<text text-anchor="middle" x="238.18" y="-30.94" font-family="Helvetica,sans-Serif" font-size="10.00">1</text>
</a>
</g>
</g>
<!-- dir_96c90ef27c711de2cda20e988f4ab9d6&#45;&gt;dir_b6b0f0b7471b46e8c4cfc0f00c8af2f6 -->
<g id="edge24" class="edge">
<title>dir_96c90ef27c711de2cda20e988f4ab9d6&#45;&gt;dir_b6b0f0b7471b46e8c4cfc0f00c8af2f6</title>
<path fill="none" stroke="black" d="M455.84,-220.32C432.15,-209.27 397.54,-193.12 371.09,-180.78"/>
<polygon fill="black" stroke="black" points="372.29,-177.47 361.75,-176.42 369.33,-183.82 372.29,-177.47"/>
<g id="a_edge24&#45;headlabel"><a xlink:href="dir_000018_000015.html" target="_top" xlink:title="1">
<text text-anchor="middle" x="376.75" y="-173.92" font-family="Helvetica,sans-Serif" font-size="10.00">1</text>
</a>
</g>
</g>
<!-- dir_96c90ef27c711de2cda20e988f4ab9d6&#45;&gt;dir_5da686cefd6752aaaa3bcabf1d868d88 -->
<g id="edge25" class="edge">
<title>dir_96c90ef27c711de2cda20e988f4ab9d6&#45;&gt;dir_5da686cefd6752aaaa3bcabf1d868d88</title>
<path fill="none" stroke="black" d="M478.89,-215.92C473.41,-196.37 462,-164.42 442,-144 424.38,-126.01 399.42,-113.26 377.82,-104.78"/>
<polygon fill="black" stroke="black" points="378.77,-101.39 368.18,-101.18 376.32,-107.95 378.77,-101.39"/>
<g id="a_edge25&#45;headlabel"><a xlink:href="dir_000018_000014.html" target="_top" xlink:title="1">
<text text-anchor="middle" x="383.13" y="-97.49" font-family="Helvetica,sans-Serif" font-size="10.00">1</text>
</a>
</g>
</g>
</g>
</svg>
