<?xml version="1.0" encoding="UTF-8" standalone="no"?>
<!DOCTYPE svg PUBLIC "-//W3C//DTD SVG 1.1//EN"
 "http://www.w3.org/Graphics/SVG/1.1/DTD/svg11.dtd">
<!-- Generated by graphviz version 2.43.0 (0)
 -->
<!-- Title: sources/Debugger/CPU Pages: 1 -->
<svg width="298pt" height="375pt"
 viewBox="0.00 0.00 297.93 375.00" xmlns="http://www.w3.org/2000/svg" xmlns:xlink="http://www.w3.org/1999/xlink">
<g id="graph0" class="graph" transform="scale(1 1) rotate(0) translate(4 371)">
<title>sources/Debugger/CPU</title>
<polygon fill="white" stroke="transparent" points="-4,4 -4,-371 293.93,-371 293.93,4 -4,4"/>
<g id="clust1" class="cluster">
<title>clusterdir_189293303b628b823f13ae296b502d01</title>
<g id="a_clust1"><a xlink:href="dir_189293303b628b823f13ae296b502d01.html" target="_top" xlink:title="Debugger">
<polygon fill="#ddddee" stroke="black" points="8,-272 8,-359 204,-359 204,-272 8,-272"/>
<text text-anchor="middle" x="106" y="-347" font-family="Helvetica,sans-Serif" font-size="10.00">Debugger</text>
</a>
</g>
</g>
<g id="clust2" class="cluster">
<title>clusterdir_f310dd6fcff708d4aeb1a6c2ce39f361</title>
<g id="a_clust2"><a xlink:href="dir_f310dd6fcff708d4aeb1a6c2ce39f361.html" target="_top">
<polygon fill="#eeeeff" stroke="black" points="16,-280 16,-332 196,-332 196,-280 16,-280"/>
</a>
</g>
</g>
<!-- dir_f310dd6fcff708d4aeb1a6c2ce39f361 -->
<g id="node1" class="node">
<title>dir_f310dd6fcff708d4aeb1a6c2ce39f361</title>
<text text-anchor="middle" x="161" y="-303.5" font-family="Helvetica,sans-Serif" font-size="10.00">CPU</text>
</g>
<!-- dir_a65246f7a5288ee65248a0302198d58d -->
<g id="node3" class="node">
<title>dir_a65246f7a5288ee65248a0302198d58d</title>
<g id="a_node3"><a xlink:href="dir_a65246f7a5288ee65248a0302198d58d.html" target="_top" xlink:title="CPU">
<polygon fill="white" stroke="red" points="161,-252 107,-252 107,-216 161,-216 161,-252"/>
<text text-anchor="middle" x="134" y="-231.5" font-family="Helvetica,sans-Serif" font-size="10.00">CPU</text>
</a>
</g>
</g>
<!-- dir_f310dd6fcff708d4aeb1a6c2ce39f361&#45;&gt;dir_a65246f7a5288ee65248a0302198d58d -->
<g id="edge2" class="edge">
<title>dir_f310dd6fcff708d4aeb1a6c2ce39f361&#45;&gt;dir_a65246f7a5288ee65248a0302198d58d</title>
<path fill="none" stroke="black" d="M154.33,-287.7C151.29,-279.81 147.62,-270.3 144.24,-261.55"/>
<polygon fill="black" stroke="black" points="147.46,-260.17 140.6,-252.1 140.93,-262.69 147.46,-260.17"/>
<g id="a_edge2&#45;headlabel"><a xlink:href="dir_000011_000007.html" target="_top" xlink:title="1">
<text text-anchor="middle" x="151.4" y="-260.01" font-family="Helvetica,sans-Serif" font-size="10.00">1</text>
</a>
</g>
</g>
<!-- dir_5cb6e1a8c8be2c39561c895666c60a3e -->
<g id="node4" class="node">
<title>dir_5cb6e1a8c8be2c39561c895666c60a3e</title>
<g id="a_node4"><a xlink:href="dir_5cb6e1a8c8be2c39561c895666c60a3e.html" target="_top" xlink:title="Models">
<polygon fill="none" stroke="black" points="210,-36 156,-36 156,0 210,0 210,-36"/>
<text text-anchor="middle" x="183" y="-15.5" font-family="Helvetica,sans-Serif" font-size="10.00">Models</text>
</a>
</g>
</g>
<!-- dir_f310dd6fcff708d4aeb1a6c2ce39f361&#45;&gt;dir_5cb6e1a8c8be2c39561c895666c60a3e -->
<g id="edge3" class="edge">
<title>dir_f310dd6fcff708d4aeb1a6c2ce39f361&#45;&gt;dir_5cb6e1a8c8be2c39561c895666c60a3e</title>
<path fill="none" stroke="black" d="M188.1,-288.34C218.9,-267.51 267.09,-228.6 284,-180 300.67,-132.08 278.78,-111.55 247,-72 238.21,-61.07 226.87,-50.79 216.18,-42.26"/>
<polygon fill="black" stroke="black" points="218.24,-39.43 208.19,-36.09 213.96,-44.97 218.24,-39.43"/>
<g id="a_edge3&#45;headlabel"><a xlink:href="dir_000011_000016.html" target="_top" xlink:title="1">
<text text-anchor="middle" x="222.82" y="-36.87" font-family="Helvetica,sans-Serif" font-size="10.00">1</text>
</a>
</g>
</g>
<!-- dir_f5f18c638a333642b431bbbd93cbd24f -->
<g id="node5" class="node">
<title>dir_f5f18c638a333642b431bbbd93cbd24f</title>
<g id="a_node5"><a xlink:href="dir_f5f18c638a333642b431bbbd93cbd24f.html" target="_top" xlink:title="Utility">
<polygon fill="none" stroke="black" points="85,-180 31,-180 31,-144 85,-144 85,-180"/>
<text text-anchor="middle" x="58" y="-159.5" font-family="Helvetica,sans-Serif" font-size="10.00">Utility</text>
</a>
</g>
</g>
<!-- dir_f310dd6fcff708d4aeb1a6c2ce39f361&#45;&gt;dir_f5f18c638a333642b431bbbd93cbd24f -->
<g id="edge4" class="edge">
<title>dir_f310dd6fcff708d4aeb1a6c2ce39f361&#45;&gt;dir_f5f18c638a333642b431bbbd93cbd24f</title>
<path fill="none" stroke="black" d="M143.01,-287.83C137.36,-282.62 131.02,-276.96 125,-272 113.48,-262.5 107.36,-263.63 98,-252 83.12,-233.52 72.55,-208.62 66.03,-189.86"/>
<polygon fill="black" stroke="black" points="69.28,-188.54 62.82,-180.14 62.63,-190.74 69.28,-188.54"/>
<g id="a_edge4&#45;headlabel"><a xlink:href="dir_000011_000021.html" target="_top" xlink:title="3">
<text text-anchor="middle" x="73.1" y="-188.56" font-family="Helvetica,sans-Serif" font-size="10.00">3</text>
</a>
</g>
</g>
<!-- dir_b6b0f0b7471b46e8c4cfc0f00c8af2f6 -->
<g id="node6" class="node">
<title>dir_b6b0f0b7471b46e8c4cfc0f00c8af2f6</title>
<g id="a_node6"><a xlink:href="dir_b6b0f0b7471b46e8c4cfc0f00c8af2f6.html" target="_top" xlink:title="Memory">
<polygon fill="none" stroke="black" points="274.5,-180 217.5,-180 217.5,-144 274.5,-144 274.5,-180"/>
<text text-anchor="middle" x="246" y="-159.5" font-family="Helvetica,sans-Serif" font-size="10.00">Memory</text>
</a>
</g>
</g>
<!-- dir_f310dd6fcff708d4aeb1a6c2ce39f361&#45;&gt;dir_b6b0f0b7471b46e8c4cfc0f00c8af2f6 -->
<g id="edge5" class="edge">
<title>dir_f310dd6fcff708d4aeb1a6c2ce39f361&#45;&gt;dir_b6b0f0b7471b46e8c4cfc0f00c8af2f6</title>
<path fill="none" stroke="black" d="M176.41,-287.57C184.84,-277.57 195.14,-264.53 203,-252 215.54,-232.01 227.02,-207.81 234.95,-189.69"/>
<polygon fill="black" stroke="black" points="238.25,-190.89 238.98,-180.32 231.82,-188.13 238.25,-190.89"/>
<g id="a_edge5&#45;headlabel"><a xlink:href="dir_000011_000015.html" target="_top" xlink:title="1">
<text text-anchor="middle" x="239.44" y="-192.81" font-family="Helvetica,sans-Serif" font-size="10.00">1</text>
</a>
</g>
</g>
<!-- dir_5da686cefd6752aaaa3bcabf1d868d88 -->
<g id="node7" class="node">
<title>dir_5da686cefd6752aaaa3bcabf1d868d88</title>
<g id="a_node7"><a xlink:href="dir_5da686cefd6752aaaa3bcabf1d868d88.html" target="_top" xlink:title="Exceptions">
<polygon fill="none" stroke="black" points="218,-108 148,-108 148,-72 218,-72 218,-108"/>
<text text-anchor="middle" x="183" y="-87.5" font-family="Helvetica,sans-Serif" font-size="10.00">Exceptions</text>
</a>
</g>
</g>
<!-- dir_f310dd6fcff708d4aeb1a6c2ce39f361&#45;&gt;dir_5da686cefd6752aaaa3bcabf1d868d88 -->
<g id="edge6" class="edge">
<title>dir_f310dd6fcff708d4aeb1a6c2ce39f361&#45;&gt;dir_5da686cefd6752aaaa3bcabf1d868d88</title>
<path fill="none" stroke="black" d="M164.3,-287.87C166.2,-277.52 168.49,-264.04 170,-252 175.82,-205.45 179.58,-151 181.5,-118.84"/>
<polygon fill="black" stroke="black" points="185.01,-118.63 182.09,-108.44 178.02,-118.23 185.01,-118.63"/>
<g id="a_edge6&#45;headlabel"><a xlink:href="dir_000011_000014.html" target="_top" xlink:title="2">
<text text-anchor="middle" x="187.64" y="-119.88" font-family="Helvetica,sans-Serif" font-size="10.00">2</text>
</a>
</g>
</g>
<!-- dir_5d27f08abd078146ff4b565fdf4c9261 -->
<g id="node2" class="node">
<title>dir_5d27f08abd078146ff4b565fdf4c9261</title>
<g id="a_node2"><a xlink:href="dir_5d27f08abd078146ff4b565fdf4c9261.html" target="_top" xlink:title="SymbolLoaders">
<polygon fill="white" stroke="black" points="116,-324 24,-324 24,-288 116,-288 116,-324"/>
<text text-anchor="middle" x="70" y="-303.5" font-family="Helvetica,sans-Serif" font-size="10.00">SymbolLoaders</text>
</a>
</g>
</g>
<!-- dir_5d27f08abd078146ff4b565fdf4c9261&#45;&gt;dir_f5f18c638a333642b431bbbd93cbd24f -->
<g id="edge1" class="edge">
<title>dir_5d27f08abd078146ff4b565fdf4c9261&#45;&gt;dir_f5f18c638a333642b431bbbd93cbd24f</title>
<path fill="none" stroke="black" d="M68.31,-287.82C67.31,-277.45 66.04,-263.97 65,-252 63.21,-231.28 61.37,-207.84 60.03,-190.21"/>
<polygon fill="black" stroke="black" points="63.51,-189.78 59.26,-180.07 56.53,-190.3 63.51,-189.78"/>
<g id="a_edge1&#45;headlabel"><a xlink:href="dir_000012_000021.html" target="_top" xlink:title="1">
<text text-anchor="middle" x="66.61" y="-190.65" font-family="Helvetica,sans-Serif" font-size="10.00">1</text>
</a>
</g>
</g>
<!-- dir_a65246f7a5288ee65248a0302198d58d&#45;&gt;dir_5cb6e1a8c8be2c39561c895666c60a3e -->
<g id="edge7" class="edge">
<title>dir_a65246f7a5288ee65248a0302198d58d&#45;&gt;dir_5cb6e1a8c8be2c39561c895666c60a3e</title>
<path fill="none" stroke="black" d="M131,-215.85C126.48,-185.63 120.28,-121.43 139,-72 142.92,-61.66 149.74,-51.88 156.86,-43.59"/>
<polygon fill="black" stroke="black" points="159.52,-45.88 163.7,-36.15 154.36,-41.15 159.52,-45.88"/>
<g id="a_edge7&#45;headlabel"><a xlink:href="dir_000007_000016.html" target="_top" xlink:title="7">
<text text-anchor="middle" x="159.18" y="-47.95" font-family="Helvetica,sans-Serif" font-size="10.00">7</text>
</a>
</g>
</g>
<!-- dir_a65246f7a5288ee65248a0302198d58d&#45;&gt;dir_f5f18c638a333642b431bbbd93cbd24f -->
<g id="edge8" class="edge">
<title>dir_a65246f7a5288ee65248a0302198d58d&#45;&gt;dir_f5f18c638a333642b431bbbd93cbd24f</title>
<path fill="none" stroke="black" d="M115.21,-215.7C105.83,-207.05 94.32,-196.45 84.09,-187.03"/>
<polygon fill="black" stroke="black" points="86.3,-184.3 76.57,-180.1 81.55,-189.45 86.3,-184.3"/>
<g id="a_edge8&#45;headlabel"><a xlink:href="dir_000007_000021.html" target="_top" xlink:title="1">
<text text-anchor="middle" x="90.86" y="-182.15" font-family="Helvetica,sans-Serif" font-size="10.00">1</text>
</a>
</g>
</g>
<!-- dir_a65246f7a5288ee65248a0302198d58d&#45;&gt;dir_b6b0f0b7471b46e8c4cfc0f00c8af2f6 -->
<g id="edge9" class="edge">
<title>dir_a65246f7a5288ee65248a0302198d58d&#45;&gt;dir_b6b0f0b7471b46e8c4cfc0f00c8af2f6</title>
<path fill="none" stroke="black" d="M161.11,-216.05C175.86,-206.84 194.29,-195.32 210.21,-185.37"/>
<polygon fill="black" stroke="black" points="212.12,-188.3 218.75,-180.03 208.41,-182.36 212.12,-188.3"/>
<g id="a_edge9&#45;headlabel"><a xlink:href="dir_000007_000015.html" target="_top" xlink:title="3">
<text text-anchor="middle" x="210.58" y="-190.11" font-family="Helvetica,sans-Serif" font-size="10.00">3</text>
</a>
</g>
</g>
<!-- dir_a65246f7a5288ee65248a0302198d58d&#45;&gt;dir_5da686cefd6752aaaa3bcabf1d868d88 -->
<g id="edge10" class="edge">
<title>dir_a65246f7a5288ee65248a0302198d58d&#45;&gt;dir_5da686cefd6752aaaa3bcabf1d868d88</title>
<path fill="none" stroke="black" d="M139.91,-215.87C148.3,-191.56 163.74,-146.82 173.68,-118.01"/>
<polygon fill="black" stroke="black" points="177.12,-118.78 177.07,-108.19 170.5,-116.5 177.12,-118.78"/>
<g id="a_edge10&#45;headlabel"><a xlink:href="dir_000007_000014.html" target="_top" xlink:title="3">
<text text-anchor="middle" x="178.63" y="-120.61" font-family="Helvetica,sans-Serif" font-size="10.00">3</text>
</a>
</g>
</g>
<!-- dir_f5f18c638a333642b431bbbd93cbd24f&#45;&gt;dir_5cb6e1a8c8be2c39561c895666c60a3e -->
<g id="edge11" class="edge">
<title>dir_f5f18c638a333642b431bbbd93cbd24f&#45;&gt;dir_5cb6e1a8c8be2c39561c895666c60a3e</title>
<path fill="none" stroke="black" d="M62.63,-143.95C68.53,-124.73 80.27,-93.36 99,-72 112.11,-57.04 130.47,-44.8 146.67,-35.87"/>
<polygon fill="black" stroke="black" points="148.7,-38.76 155.91,-31 145.43,-32.57 148.7,-38.76"/>
<g id="a_edge11&#45;headlabel"><a xlink:href="dir_000021_000016.html" target="_top" xlink:title="1">
<text text-anchor="middle" x="146.84" y="-40.45" font-family="Helvetica,sans-Serif" font-size="10.00">1</text>
</a>
</g>
</g>
<!-- dir_b6b0f0b7471b46e8c4cfc0f00c8af2f6&#45;&gt;dir_5cb6e1a8c8be2c39561c895666c60a3e -->
<g id="edge12" class="edge">
<title>dir_b6b0f0b7471b46e8c4cfc0f00c8af2f6&#45;&gt;dir_5cb6e1a8c8be2c39561c895666c60a3e</title>
<path fill="none" stroke="black" d="M244.78,-143.81C242.93,-125.28 238.31,-95.31 227,-72 222.1,-61.89 214.86,-52.06 207.67,-43.67"/>
<polygon fill="black" stroke="black" points="210.16,-41.2 200.87,-36.1 204.95,-45.88 210.16,-41.2"/>
<g id="a_edge12&#45;headlabel"><a xlink:href="dir_000015_000016.html" target="_top" xlink:title="6">
<text text-anchor="middle" x="214.67" y="-39.47" font-family="Helvetica,sans-Serif" font-size="10.00">6</text>
</a>
</g>
</g>
<!-- dir_b6b0f0b7471b46e8c4cfc0f00c8af2f6&#45;&gt;dir_5da686cefd6752aaaa3bcabf1d868d88 -->
<g id="edge13" class="edge">
<title>dir_b6b0f0b7471b46e8c4cfc0f00c8af2f6&#45;&gt;dir_5da686cefd6752aaaa3bcabf1d868d88</title>
<path fill="none" stroke="black" d="M230.43,-143.7C222.8,-135.22 213.48,-124.86 205.12,-115.58"/>
<polygon fill="black" stroke="black" points="207.69,-113.2 198.39,-108.1 202.48,-117.88 207.69,-113.2"/>
<g id="a_edge13&#45;headlabel"><a xlink:href="dir_000015_000014.html" target="_top" xlink:title="2">
<text text-anchor="middle" x="212.2" y="-111.47" font-family="Helvetica,sans-Serif" font-size="10.00">2</text>
</a>
</g>
</g>
<!-- dir_5da686cefd6752aaaa3bcabf1d868d88&#45;&gt;dir_5cb6e1a8c8be2c39561c895666c60a3e -->
<g id="edge14" class="edge">
<title>dir_5da686cefd6752aaaa3bcabf1d868d88&#45;&gt;dir_5cb6e1a8c8be2c39561c895666c60a3e</title>
<path fill="none" stroke="black" d="M183,-71.7C183,-63.98 183,-54.71 183,-46.11"/>
<polygon fill="black" stroke="black" points="186.5,-46.1 183,-36.1 179.5,-46.1 186.5,-46.1"/>
<g id="a_edge14&#45;headlabel"><a xlink:href="dir_000014_000016.html" target="_top" xlink:title="1">
<text text-anchor="middle" x="189.34" y="-47.2" font-family="Helvetica,sans-Serif" font-size="10.00">1</text>
</a>
</g>
</g>
</g>
</svg>
