<?xml version="1.0" encoding="UTF-8" standalone="no"?>
<!DOCTYPE svg PUBLIC "-//W3C//DTD SVG 1.1//EN"
 "http://www.w3.org/Graphics/SVG/1.1/DTD/svg11.dtd">
<!-- Generated by graphviz version 2.43.0 (0)
 -->
<!-- Title: sources/Debugger/CPU/SymbolLoaders Pages: 1 -->
<svg width="132pt" height="151pt"
 viewBox="0.00 0.00 132.00 151.00" xmlns="http://www.w3.org/2000/svg" xmlns:xlink="http://www.w3.org/1999/xlink">
<g id="graph0" class="graph" transform="scale(1 1) rotate(0) translate(4 147)">
<title>sources/Debugger/CPU/SymbolLoaders</title>
<polygon fill="white" stroke="transparent" points="-4,4 -4,-147 128,-147 128,4 -4,4"/>
<g id="clust1" class="cluster">
<title>clusterdir_f310dd6fcff708d4aeb1a6c2ce39f361</title>
<g id="a_clust1"><a xlink:href="dir_f310dd6fcff708d4aeb1a6c2ce39f361.html" target="_top" xlink:title="CPU">
<polygon fill="#ddddee" stroke="black" points="8,-64 8,-135 116,-135 116,-64 8,-64"/>
<text text-anchor="middle" x="62" y="-123" font-family="Helvetica,sans-Serif" font-size="10.00">CPU</text>
</a>
</g>
</g>
<!-- dir_5d27f08abd078146ff4b565fdf4c9261 -->
<g id="node1" class="node">
<title>dir_5d27f08abd078146ff4b565fdf4c9261</title>
<g id="a_node1"><a xlink:href="dir_5d27f08abd078146ff4b565fdf4c9261.html" target="_top" xlink:title="SymbolLoaders">
<polygon fill="#eeeeff" stroke="black" points="108,-108 16,-108 16,-72 108,-72 108,-108"/>
<text text-anchor="middle" x="62" y="-87.5" font-family="Helvetica,sans-Serif" font-size="10.00">SymbolLoaders</text>
</a>
</g>
</g>
<!-- dir_f5f18c638a333642b431bbbd93cbd24f -->
<g id="node2" class="node">
<title>dir_f5f18c638a333642b431bbbd93cbd24f</title>
<g id="a_node2"><a xlink:href="dir_f5f18c638a333642b431bbbd93cbd24f.html" target="_top" xlink:title="Utility">
<polygon fill="none" stroke="black" points="89,-36 35,-36 35,0 89,0 89,-36"/>
<text text-anchor="middle" x="62" y="-15.5" font-family="Helvetica,sans-Serif" font-size="10.00">Utility</text>
</a>
</g>
</g>
<!-- dir_5d27f08abd078146ff4b565fdf4c9261&#45;&gt;dir_f5f18c638a333642b431bbbd93cbd24f -->
<g id="edge1" class="edge">
<title>dir_5d27f08abd078146ff4b565fdf4c9261&#45;&gt;dir_f5f18c638a333642b431bbbd93cbd24f</title>
<path fill="none" stroke="black" d="M62,-71.7C62,-63.98 62,-54.71 62,-46.11"/>
<polygon fill="black" stroke="black" points="65.5,-46.1 62,-36.1 58.5,-46.1 65.5,-46.1"/>
<g id="a_edge1&#45;headlabel"><a xlink:href="dir_000012_000021.html" target="_top" xlink:title="1">
<text text-anchor="middle" x="68.34" y="-47.2" font-family="Helvetica,sans-Serif" font-size="10.00">1</text>
</a>
</g>
</g>
</g>
</svg>
