<?xml version="1.0" encoding="UTF-8" standalone="no"?>
<!DOCTYPE svg PUBLIC "-//W3C//DTD SVG 1.1//EN"
 "http://www.w3.org/Graphics/SVG/1.1/DTD/svg11.dtd">
<!-- Generated by graphviz version 2.43.0 (0)
 -->
<!-- Title: sources/Renderer/QtRenderer Pages: 1 -->
<svg width="122pt" height="223pt"
 viewBox="0.00 0.00 122.00 223.00" xmlns="http://www.w3.org/2000/svg" xmlns:xlink="http://www.w3.org/1999/xlink">
<g id="graph0" class="graph" transform="scale(1 1) rotate(0) translate(4 219)">
<title>sources/Renderer/QtRenderer</title>
<polygon fill="white" stroke="transparent" points="-4,4 -4,-219 118,-219 118,4 -4,4"/>
<g id="clust1" class="cluster">
<title>clusterdir_9d8b0bd023ebe51fb4b8ffcd38d3f5ed</title>
<g id="a_clust1"><a xlink:href="dir_9d8b0bd023ebe51fb4b8ffcd38d3f5ed.html" target="_top" xlink:title="Renderer">
<polygon fill="#ddddee" stroke="black" points="8,-136 8,-207 96,-207 96,-136 8,-136"/>
<text text-anchor="middle" x="52" y="-195" font-family="Helvetica,sans-Serif" font-size="10.00">Renderer</text>
</a>
</g>
</g>
<!-- dir_8635253785d16d7f974cb7d01f3ba75f -->
<g id="node1" class="node">
<title>dir_8635253785d16d7f974cb7d01f3ba75f</title>
<g id="a_node1"><a xlink:href="dir_8635253785d16d7f974cb7d01f3ba75f.html" target="_top" xlink:title="QtRenderer">
<polygon fill="#eeeeff" stroke="black" points="88,-180 16,-180 16,-144 88,-144 88,-180"/>
<text text-anchor="middle" x="52" y="-159.5" font-family="Helvetica,sans-Serif" font-size="10.00">QtRenderer</text>
</a>
</g>
</g>
<!-- dir_5cb6e1a8c8be2c39561c895666c60a3e -->
<g id="node2" class="node">
<title>dir_5cb6e1a8c8be2c39561c895666c60a3e</title>
<g id="a_node2"><a xlink:href="dir_5cb6e1a8c8be2c39561c895666c60a3e.html" target="_top" xlink:title="Models">
<polygon fill="none" stroke="black" points="79,-36 25,-36 25,0 79,0 79,-36"/>
<text text-anchor="middle" x="52" y="-15.5" font-family="Helvetica,sans-Serif" font-size="10.00">Models</text>
</a>
</g>
</g>
<!-- dir_8635253785d16d7f974cb7d01f3ba75f&#45;&gt;dir_5cb6e1a8c8be2c39561c895666c60a3e -->
<g id="edge2" class="edge">
<title>dir_8635253785d16d7f974cb7d01f3ba75f&#45;&gt;dir_5cb6e1a8c8be2c39561c895666c60a3e</title>
<path fill="none" stroke="black" d="M47.54,-143.95C45.06,-133.63 42.25,-120.15 41,-108 39.37,-92.08 39.37,-87.92 41,-72 41.88,-63.46 43.53,-54.26 45.29,-45.96"/>
<polygon fill="black" stroke="black" points="48.74,-46.57 47.54,-36.05 41.92,-45.03 48.74,-46.57"/>
<g id="a_edge2&#45;headlabel"><a xlink:href="dir_000020_000016.html" target="_top" xlink:title="1">
<text text-anchor="middle" x="50.72" y="-48.21" font-family="Helvetica,sans-Serif" font-size="10.00">1</text>
</a>
</g>
</g>
<!-- dir_189293303b628b823f13ae296b502d01 -->
<g id="node3" class="node">
<title>dir_189293303b628b823f13ae296b502d01</title>
<g id="a_node3"><a xlink:href="dir_189293303b628b823f13ae296b502d01.html" target="_top" xlink:title="Debugger">
<polygon fill="white" stroke="red" points="114,-108 50,-108 50,-72 114,-72 114,-108"/>
<text text-anchor="middle" x="82" y="-87.5" font-family="Helvetica,sans-Serif" font-size="10.00">Debugger</text>
</a>
</g>
</g>
<!-- dir_8635253785d16d7f974cb7d01f3ba75f&#45;&gt;dir_189293303b628b823f13ae296b502d01 -->
<g id="edge3" class="edge">
<title>dir_8635253785d16d7f974cb7d01f3ba75f&#45;&gt;dir_189293303b628b823f13ae296b502d01</title>
<path fill="none" stroke="black" d="M59.42,-143.7C62.79,-135.81 66.87,-126.3 70.62,-117.55"/>
<polygon fill="black" stroke="black" points="73.95,-118.67 74.67,-108.1 67.51,-115.92 73.95,-118.67"/>
<g id="a_edge3&#45;headlabel"><a xlink:href="dir_000020_000010.html" target="_top" xlink:title="1">
<text text-anchor="middle" x="75.14" y="-120.6" font-family="Helvetica,sans-Serif" font-size="10.00">1</text>
</a>
</g>
</g>
<!-- dir_189293303b628b823f13ae296b502d01&#45;&gt;dir_5cb6e1a8c8be2c39561c895666c60a3e -->
<g id="edge1" class="edge">
<title>dir_189293303b628b823f13ae296b502d01&#45;&gt;dir_5cb6e1a8c8be2c39561c895666c60a3e</title>
<path fill="none" stroke="black" d="M74.58,-71.7C71.21,-63.81 67.13,-54.3 63.38,-45.55"/>
<polygon fill="black" stroke="black" points="66.49,-43.92 59.33,-36.1 60.05,-46.67 66.49,-43.92"/>
<g id="a_edge1&#45;headlabel"><a xlink:href="dir_000010_000016.html" target="_top" xlink:title="2">
<text text-anchor="middle" x="70.51" y="-43.6" font-family="Helvetica,sans-Serif" font-size="10.00">2</text>
</a>
</g>
</g>
</g>
</svg>
