<?xml version="1.0" encoding="UTF-8" standalone="no"?>
<!DOCTYPE svg PUBLIC "-//W3C//DTD SVG 1.1//EN"
 "http://www.w3.org/Graphics/SVG/1.1/DTD/svg11.dtd">
<!-- Generated by graphviz version 2.43.0 (0)
 -->
<!-- Title: sources/CPU Pages: 1 -->
<svg width="358pt" height="375pt"
 viewBox="0.00 0.00 358.39 375.00" xmlns="http://www.w3.org/2000/svg" xmlns:xlink="http://www.w3.org/1999/xlink">
<g id="graph0" class="graph" transform="scale(1 1) rotate(0) translate(4 371)">
<title>sources/CPU</title>
<polygon fill="white" stroke="transparent" points="-4,4 -4,-371 354.39,-371 354.39,4 -4,4"/>
<g id="clust1" class="cluster">
<title>clusterdir_08d237fc27d4ecd563f71c5d52f2fecc</title>
<g id="a_clust1"><a xlink:href="dir_08d237fc27d4ecd563f71c5d52f2fecc.html" target="_top" xlink:title="sources">
<polygon fill="#ddddee" stroke="black" points="8,-200 8,-359 186,-359 186,-200 8,-200"/>
<text text-anchor="middle" x="97" y="-347" font-family="Helvetica,sans-Serif" font-size="10.00">sources</text>
</a>
</g>
</g>
<g id="clust2" class="cluster">
<title>clusterdir_a65246f7a5288ee65248a0302198d58d</title>
<g id="a_clust2"><a xlink:href="dir_a65246f7a5288ee65248a0302198d58d.html" target="_top">
<polygon fill="#eeeeff" stroke="black" points="16,-208 16,-332 178,-332 178,-208 16,-208"/>
</a>
</g>
</g>
<!-- dir_a65246f7a5288ee65248a0302198d58d -->
<g id="node1" class="node">
<title>dir_a65246f7a5288ee65248a0302198d58d</title>
<text text-anchor="middle" x="51" y="-303.5" font-family="Helvetica,sans-Serif" font-size="10.00">CPU</text>
</g>
<!-- dir_a27aee9ec8c7af1c7285a99fc42da75a -->
<g id="node2" class="node">
<title>dir_a27aee9ec8c7af1c7285a99fc42da75a</title>
<g id="a_node2"><a xlink:href="dir_a27aee9ec8c7af1c7285a99fc42da75a.html" target="_top" xlink:title="DMA">
<polygon fill="white" stroke="black" points="79,-252 25,-252 25,-216 79,-216 79,-252"/>
<text text-anchor="middle" x="52" y="-231.5" font-family="Helvetica,sans-Serif" font-size="10.00">DMA</text>
</a>
</g>
</g>
<!-- dir_a65246f7a5288ee65248a0302198d58d&#45;&gt;dir_a27aee9ec8c7af1c7285a99fc42da75a -->
<g id="edge4" class="edge">
<title>dir_a65246f7a5288ee65248a0302198d58d&#45;&gt;dir_a27aee9ec8c7af1c7285a99fc42da75a</title>
<path fill="none" stroke="black" d="M51.25,-287.7C51.36,-279.98 51.49,-270.71 51.61,-262.11"/>
<polygon fill="black" stroke="black" points="55.11,-262.15 51.76,-252.1 48.11,-262.05 55.11,-262.15"/>
<g id="a_edge4&#45;headlabel"><a xlink:href="dir_000007_000008.html" target="_top" xlink:title="1">
<text text-anchor="middle" x="57.9" y="-263.29" font-family="Helvetica,sans-Serif" font-size="10.00">1</text>
</a>
</g>
</g>
<!-- dir_5cb6e1a8c8be2c39561c895666c60a3e -->
<g id="node4" class="node">
<title>dir_5cb6e1a8c8be2c39561c895666c60a3e</title>
<g id="a_node4"><a xlink:href="dir_5cb6e1a8c8be2c39561c895666c60a3e.html" target="_top" xlink:title="Models">
<polygon fill="none" stroke="black" points="196,-36 142,-36 142,0 196,0 196,-36"/>
<text text-anchor="middle" x="169" y="-15.5" font-family="Helvetica,sans-Serif" font-size="10.00">Models</text>
</a>
</g>
</g>
<!-- dir_a65246f7a5288ee65248a0302198d58d&#45;&gt;dir_5cb6e1a8c8be2c39561c895666c60a3e -->
<g id="edge5" class="edge">
<title>dir_a65246f7a5288ee65248a0302198d58d&#45;&gt;dir_5cb6e1a8c8be2c39561c895666c60a3e</title>
<path fill="none" stroke="black" d="M35.82,-287.7C28.27,-277.94 19.93,-265.1 16,-252 -7.96,-172.25 12.05,-133.68 68,-72 85.31,-52.92 111.1,-39.55 132.29,-31.01"/>
<polygon fill="black" stroke="black" points="133.57,-34.26 141.66,-27.42 131.07,-27.73 133.57,-34.26"/>
<g id="a_edge5&#45;headlabel"><a xlink:href="dir_000007_000016.html" target="_top" xlink:title="7">
<text text-anchor="middle" x="131.23" y="-35.7" font-family="Helvetica,sans-Serif" font-size="10.00">7</text>
</a>
</g>
</g>
<!-- dir_f5f18c638a333642b431bbbd93cbd24f -->
<g id="node5" class="node">
<title>dir_f5f18c638a333642b431bbbd93cbd24f</title>
<g id="a_node5"><a xlink:href="dir_f5f18c638a333642b431bbbd93cbd24f.html" target="_top" xlink:title="Utility">
<polygon fill="none" stroke="black" points="328,-252 274,-252 274,-216 328,-216 328,-252"/>
<text text-anchor="middle" x="301" y="-231.5" font-family="Helvetica,sans-Serif" font-size="10.00">Utility</text>
</a>
</g>
</g>
<!-- dir_a65246f7a5288ee65248a0302198d58d&#45;&gt;dir_f5f18c638a333642b431bbbd93cbd24f -->
<g id="edge6" class="edge">
<title>dir_a65246f7a5288ee65248a0302198d58d&#45;&gt;dir_f5f18c638a333642b431bbbd93cbd24f</title>
<path fill="none" stroke="black" d="M78.24,-291.3C81.16,-290.09 84.11,-288.96 87,-288 160.61,-263.58 186.38,-276.32 264.03,-251.87"/>
<polygon fill="black" stroke="black" points="265.34,-255.12 273.76,-248.7 263.17,-248.47 265.34,-255.12"/>
<g id="a_edge6&#45;headlabel"><a xlink:href="dir_000007_000021.html" target="_top" xlink:title="1">
<text text-anchor="middle" x="262.8" y="-256.43" font-family="Helvetica,sans-Serif" font-size="10.00">1</text>
</a>
</g>
</g>
<!-- dir_acbfe30a39643d3dad4cea6c4be60bc9 -->
<g id="node6" class="node">
<title>dir_acbfe30a39643d3dad4cea6c4be60bc9</title>
<g id="a_node6"><a xlink:href="dir_acbfe30a39643d3dad4cea6c4be60bc9.html" target="_top" xlink:title="Cartridge">
<polygon fill="none" stroke="black" points="256,-252 194,-252 194,-216 256,-216 256,-252"/>
<text text-anchor="middle" x="225" y="-231.5" font-family="Helvetica,sans-Serif" font-size="10.00">Cartridge</text>
</a>
</g>
</g>
<!-- dir_a65246f7a5288ee65248a0302198d58d&#45;&gt;dir_acbfe30a39643d3dad4cea6c4be60bc9 -->
<g id="edge7" class="edge">
<title>dir_a65246f7a5288ee65248a0302198d58d&#45;&gt;dir_acbfe30a39643d3dad4cea6c4be60bc9</title>
<path fill="none" stroke="black" d="M78.02,-291.96C81.04,-290.59 84.07,-289.24 87,-288 128.56,-270.35 139.89,-268.3 182,-252 182.7,-251.73 183.41,-251.45 184.12,-251.18"/>
<polygon fill="black" stroke="black" points="185.51,-254.39 193.55,-247.49 182.96,-247.87 185.51,-254.39"/>
<g id="a_edge7&#45;headlabel"><a xlink:href="dir_000007_000006.html" target="_top" xlink:title="1">
<text text-anchor="middle" x="183.2" y="-255.84" font-family="Helvetica,sans-Serif" font-size="10.00">1</text>
</a>
</g>
</g>
<!-- dir_b6b0f0b7471b46e8c4cfc0f00c8af2f6 -->
<g id="node7" class="node">
<title>dir_b6b0f0b7471b46e8c4cfc0f00c8af2f6</title>
<g id="a_node7"><a xlink:href="dir_b6b0f0b7471b46e8c4cfc0f00c8af2f6.html" target="_top" xlink:title="Memory">
<polygon fill="none" stroke="black" points="137.5,-180 80.5,-180 80.5,-144 137.5,-144 137.5,-180"/>
<text text-anchor="middle" x="109" y="-159.5" font-family="Helvetica,sans-Serif" font-size="10.00">Memory</text>
</a>
</g>
</g>
<!-- dir_a65246f7a5288ee65248a0302198d58d&#45;&gt;dir_b6b0f0b7471b46e8c4cfc0f00c8af2f6 -->
<g id="edge8" class="edge">
<title>dir_a65246f7a5288ee65248a0302198d58d&#45;&gt;dir_b6b0f0b7471b46e8c4cfc0f00c8af2f6</title>
<path fill="none" stroke="black" d="M65.47,-287.86C73.17,-277.95 82.23,-264.91 88,-252 96.89,-232.13 102.28,-208.02 105.37,-189.91"/>
<polygon fill="black" stroke="black" points="108.83,-190.44 106.93,-180.01 101.91,-189.34 108.83,-190.44"/>
<g id="a_edge8&#45;headlabel"><a xlink:href="dir_000007_000015.html" target="_top" xlink:title="3">
<text text-anchor="middle" x="111.07" y="-191.93" font-family="Helvetica,sans-Serif" font-size="10.00">3</text>
</a>
</g>
</g>
<!-- dir_5da686cefd6752aaaa3bcabf1d868d88 -->
<g id="node8" class="node">
<title>dir_5da686cefd6752aaaa3bcabf1d868d88</title>
<g id="a_node8"><a xlink:href="dir_5da686cefd6752aaaa3bcabf1d868d88.html" target="_top" xlink:title="Exceptions">
<polygon fill="none" stroke="black" points="204,-108 134,-108 134,-72 204,-72 204,-108"/>
<text text-anchor="middle" x="169" y="-87.5" font-family="Helvetica,sans-Serif" font-size="10.00">Exceptions</text>
</a>
</g>
</g>
<!-- dir_a65246f7a5288ee65248a0302198d58d&#45;&gt;dir_5da686cefd6752aaaa3bcabf1d868d88 -->
<g id="edge9" class="edge">
<title>dir_a65246f7a5288ee65248a0302198d58d&#45;&gt;dir_5da686cefd6752aaaa3bcabf1d868d88</title>
<path fill="none" stroke="black" d="M73.85,-287.81C85.63,-278.17 99.66,-265.41 110,-252 141.33,-211.37 157.21,-152.47 164.25,-118.32"/>
<polygon fill="black" stroke="black" points="167.76,-118.64 166.24,-108.16 160.89,-117.3 167.76,-118.64"/>
<g id="a_edge9&#45;headlabel"><a xlink:href="dir_000007_000014.html" target="_top" xlink:title="3">
<text text-anchor="middle" x="169.85" y="-120.22" font-family="Helvetica,sans-Serif" font-size="10.00">3</text>
</a>
</g>
</g>
<!-- dir_a27aee9ec8c7af1c7285a99fc42da75a&#45;&gt;dir_5cb6e1a8c8be2c39561c895666c60a3e -->
<g id="edge1" class="edge">
<title>dir_a27aee9ec8c7af1c7285a99fc42da75a&#45;&gt;dir_5cb6e1a8c8be2c39561c895666c60a3e</title>
<path fill="none" stroke="black" d="M48.68,-215.7C45.91,-197.34 43.62,-167.75 52,-144 67.21,-100.88 106.38,-64.45 135.23,-42.24"/>
<polygon fill="black" stroke="black" points="137.53,-44.88 143.44,-36.08 133.33,-39.28 137.53,-44.88"/>
<g id="a_edge1&#45;headlabel"><a xlink:href="dir_000008_000016.html" target="_top" xlink:title="1">
<text text-anchor="middle" x="136.36" y="-46.81" font-family="Helvetica,sans-Serif" font-size="10.00">1</text>
</a>
</g>
</g>
<!-- dir_a27aee9ec8c7af1c7285a99fc42da75a&#45;&gt;dir_b6b0f0b7471b46e8c4cfc0f00c8af2f6 -->
<g id="edge2" class="edge">
<title>dir_a27aee9ec8c7af1c7285a99fc42da75a&#45;&gt;dir_b6b0f0b7471b46e8c4cfc0f00c8af2f6</title>
<path fill="none" stroke="black" d="M66.09,-215.7C72.92,-207.3 81.26,-197.07 88.76,-187.86"/>
<polygon fill="black" stroke="black" points="91.47,-190.07 95.07,-180.1 86.04,-185.65 91.47,-190.07"/>
<g id="a_edge2&#45;headlabel"><a xlink:href="dir_000008_000015.html" target="_top" xlink:title="1">
<text text-anchor="middle" x="91.4" y="-192.15" font-family="Helvetica,sans-Serif" font-size="10.00">1</text>
</a>
</g>
</g>
<!-- dir_a27aee9ec8c7af1c7285a99fc42da75a&#45;&gt;dir_5da686cefd6752aaaa3bcabf1d868d88 -->
<g id="edge3" class="edge">
<title>dir_a27aee9ec8c7af1c7285a99fc42da75a&#45;&gt;dir_5da686cefd6752aaaa3bcabf1d868d88</title>
<path fill="none" stroke="black" d="M51.56,-215.87C51.92,-196.56 55.19,-165.12 71,-144 84.19,-126.38 105.01,-113.96 124.08,-105.59"/>
<polygon fill="black" stroke="black" points="125.63,-108.73 133.55,-101.69 122.97,-102.26 125.63,-108.73"/>
<g id="a_edge3&#45;headlabel"><a xlink:href="dir_000008_000014.html" target="_top" xlink:title="1">
<text text-anchor="middle" x="123.39" y="-110.23" font-family="Helvetica,sans-Serif" font-size="10.00">1</text>
</a>
</g>
</g>
<!-- dir_75fd8458c6fcd85e83cb5a93cdc747a2 -->
<g id="node3" class="node">
<title>dir_75fd8458c6fcd85e83cb5a93cdc747a2</title>
<g id="a_node3"><a xlink:href="dir_75fd8458c6fcd85e83cb5a93cdc747a2.html" target="_top" xlink:title="Instructions">
<polygon fill="white" stroke="black" points="170,-324 96,-324 96,-288 170,-288 170,-324"/>
<text text-anchor="middle" x="133" y="-303.5" font-family="Helvetica,sans-Serif" font-size="10.00">Instructions</text>
</a>
</g>
</g>
<!-- dir_75fd8458c6fcd85e83cb5a93cdc747a2&#45;&gt;dir_5cb6e1a8c8be2c39561c895666c60a3e -->
<g id="edge14" class="edge">
<title>dir_75fd8458c6fcd85e83cb5a93cdc747a2&#45;&gt;dir_5cb6e1a8c8be2c39561c895666c60a3e</title>
<path fill="none" stroke="black" d="M170.05,-300.76C223.15,-293.84 316.74,-278.2 337,-252 386.57,-187.91 278.1,-94.7 255,-72 240.54,-57.79 221.6,-45.61 205.18,-36.52"/>
<polygon fill="black" stroke="black" points="206.83,-33.43 196.36,-31.79 203.53,-39.6 206.83,-33.43"/>
<g id="a_edge14&#45;headlabel"><a xlink:href="dir_000009_000016.html" target="_top" xlink:title="1">
<text text-anchor="middle" x="211.34" y="-30.12" font-family="Helvetica,sans-Serif" font-size="10.00">1</text>
</a>
</g>
</g>
<!-- dir_f5f18c638a333642b431bbbd93cbd24f&#45;&gt;dir_5cb6e1a8c8be2c39561c895666c60a3e -->
<g id="edge10" class="edge">
<title>dir_f5f18c638a333642b431bbbd93cbd24f&#45;&gt;dir_5cb6e1a8c8be2c39561c895666c60a3e</title>
<path fill="none" stroke="black" d="M296.31,-215.7C287.31,-184.69 265.44,-118.56 231,-72 222.96,-61.13 212.29,-51 202.08,-42.56"/>
<polygon fill="black" stroke="black" points="204.05,-39.66 194.04,-36.18 199.7,-45.14 204.05,-39.66"/>
<g id="a_edge10&#45;headlabel"><a xlink:href="dir_000021_000016.html" target="_top" xlink:title="1">
<text text-anchor="middle" x="208.63" y="-37.17" font-family="Helvetica,sans-Serif" font-size="10.00">1</text>
</a>
</g>
</g>
<!-- dir_acbfe30a39643d3dad4cea6c4be60bc9&#45;&gt;dir_5cb6e1a8c8be2c39561c895666c60a3e -->
<g id="edge11" class="edge">
<title>dir_acbfe30a39643d3dad4cea6c4be60bc9&#45;&gt;dir_5cb6e1a8c8be2c39561c895666c60a3e</title>
<path fill="none" stroke="black" d="M227.04,-215.78C229.92,-185.47 232.83,-121.12 213,-72 208.86,-61.75 201.97,-51.99 194.86,-43.7"/>
<polygon fill="black" stroke="black" points="197.38,-41.27 188.06,-36.24 192.21,-45.99 197.38,-41.27"/>
<g id="a_edge11&#45;headlabel"><a xlink:href="dir_000006_000016.html" target="_top" xlink:title="1">
<text text-anchor="middle" x="201.9" y="-39.51" font-family="Helvetica,sans-Serif" font-size="10.00">1</text>
</a>
</g>
</g>
<!-- dir_acbfe30a39643d3dad4cea6c4be60bc9&#45;&gt;dir_b6b0f0b7471b46e8c4cfc0f00c8af2f6 -->
<g id="edge12" class="edge">
<title>dir_acbfe30a39643d3dad4cea6c4be60bc9&#45;&gt;dir_b6b0f0b7471b46e8c4cfc0f00c8af2f6</title>
<path fill="none" stroke="black" d="M204.13,-215.74C197.27,-210.41 189.49,-204.71 182,-200 170.9,-193.01 158.31,-186.25 146.75,-180.46"/>
<polygon fill="black" stroke="black" points="148.27,-177.31 137.75,-176.05 145.19,-183.59 148.27,-177.31"/>
<g id="a_edge12&#45;headlabel"><a xlink:href="dir_000006_000015.html" target="_top" xlink:title="2">
<text text-anchor="middle" x="152.75" y="-173.85" font-family="Helvetica,sans-Serif" font-size="10.00">2</text>
</a>
</g>
</g>
<!-- dir_acbfe30a39643d3dad4cea6c4be60bc9&#45;&gt;dir_5da686cefd6752aaaa3bcabf1d868d88 -->
<g id="edge13" class="edge">
<title>dir_acbfe30a39643d3dad4cea6c4be60bc9&#45;&gt;dir_5da686cefd6752aaaa3bcabf1d868d88</title>
<path fill="none" stroke="black" d="M218.25,-215.87C208.62,-191.46 190.86,-146.43 179.5,-117.64"/>
<polygon fill="black" stroke="black" points="182.7,-116.21 175.78,-108.19 176.19,-118.78 182.7,-116.21"/>
<g id="a_edge13&#45;headlabel"><a xlink:href="dir_000006_000014.html" target="_top" xlink:title="2">
<text text-anchor="middle" x="186.66" y="-116.01" font-family="Helvetica,sans-Serif" font-size="10.00">2</text>
</a>
</g>
</g>
<!-- dir_b6b0f0b7471b46e8c4cfc0f00c8af2f6&#45;&gt;dir_5cb6e1a8c8be2c39561c895666c60a3e -->
<g id="edge15" class="edge">
<title>dir_b6b0f0b7471b46e8c4cfc0f00c8af2f6&#45;&gt;dir_5cb6e1a8c8be2c39561c895666c60a3e</title>
<path fill="none" stroke="black" d="M109.51,-143.82C110.63,-125.3 114.14,-95.34 125,-72 129.74,-61.81 136.93,-51.96 144.13,-43.57"/>
<polygon fill="black" stroke="black" points="146.85,-45.78 150.96,-36.02 141.66,-41.09 146.85,-45.78"/>
<g id="a_edge15&#45;headlabel"><a xlink:href="dir_000015_000016.html" target="_top" xlink:title="6">
<text text-anchor="middle" x="146.55" y="-47.85" font-family="Helvetica,sans-Serif" font-size="10.00">6</text>
</a>
</g>
</g>
<!-- dir_b6b0f0b7471b46e8c4cfc0f00c8af2f6&#45;&gt;dir_5da686cefd6752aaaa3bcabf1d868d88 -->
<g id="edge16" class="edge">
<title>dir_b6b0f0b7471b46e8c4cfc0f00c8af2f6&#45;&gt;dir_5da686cefd6752aaaa3bcabf1d868d88</title>
<path fill="none" stroke="black" d="M123.83,-143.7C131.02,-135.3 139.8,-125.07 147.69,-115.86"/>
<polygon fill="black" stroke="black" points="150.49,-117.97 154.34,-108.1 145.17,-113.42 150.49,-117.97"/>
<g id="a_edge16&#45;headlabel"><a xlink:href="dir_000015_000014.html" target="_top" xlink:title="2">
<text text-anchor="middle" x="150.31" y="-120.05" font-family="Helvetica,sans-Serif" font-size="10.00">2</text>
</a>
</g>
</g>
<!-- dir_5da686cefd6752aaaa3bcabf1d868d88&#45;&gt;dir_5cb6e1a8c8be2c39561c895666c60a3e -->
<g id="edge17" class="edge">
<title>dir_5da686cefd6752aaaa3bcabf1d868d88&#45;&gt;dir_5cb6e1a8c8be2c39561c895666c60a3e</title>
<path fill="none" stroke="black" d="M169,-71.7C169,-63.98 169,-54.71 169,-46.11"/>
<polygon fill="black" stroke="black" points="172.5,-46.1 169,-36.1 165.5,-46.1 172.5,-46.1"/>
<g id="a_edge17&#45;headlabel"><a xlink:href="dir_000014_000016.html" target="_top" xlink:title="1">
<text text-anchor="middle" x="175.34" y="-47.2" font-family="Helvetica,sans-Serif" font-size="10.00">1</text>
</a>
</g>
</g>
</g>
</svg>
