<?xml version="1.0" encoding="UTF-8" standalone="no"?>
<!DOCTYPE svg PUBLIC "-//W3C//DTD SVG 1.1//EN"
 "http://www.w3.org/Graphics/SVG/1.1/DTD/svg11.dtd">
<!-- Generated by graphviz version 2.43.0 (0)
 -->
<!-- Title: sources/CPU/DMA/DMA.cpp Pages: 1 -->
<svg width="1117pt" height="476pt"
 viewBox="0.00 0.00 1116.50 476.00" xmlns="http://www.w3.org/2000/svg" xmlns:xlink="http://www.w3.org/1999/xlink">
<g id="graph0" class="graph" transform="scale(1 1) rotate(0) translate(4 472)">
<title>sources/CPU/DMA/DMA.cpp</title>
<polygon fill="white" stroke="transparent" points="-4,4 -4,-472 1112.5,-472 1112.5,4 -4,4"/>
<!-- Node1 -->
<g id="node1" class="node">
<title>Node1</title>
<g id="a_node1"><a xlink:title=" ">
<polygon fill="#bfbfbf" stroke="black" points="518,-448.5 518,-467.5 668,-467.5 668,-448.5 518,-448.5"/>
<text text-anchor="middle" x="593" y="-455.5" font-family="Helvetica,sans-Serif" font-size="10.00">sources/CPU/DMA/DMA.cpp</text>
</a>
</g>
</g>
<!-- Node2 -->
<g id="node2" class="node">
<title>Node2</title>
<g id="a_node2"><a xlink:href="DMA_8hpp.html" target="_top" xlink:title=" ">
<polygon fill="white" stroke="black" points="335.5,-392.5 335.5,-411.5 396.5,-411.5 396.5,-392.5 335.5,-392.5"/>
<text text-anchor="middle" x="366" y="-399.5" font-family="Helvetica,sans-Serif" font-size="10.00">DMA.hpp</text>
</a>
</g>
</g>
<!-- Node1&#45;&gt;Node2 -->
<g id="edge1" class="edge">
<title>Node1&#45;&gt;Node2</title>
<path fill="none" stroke="midnightblue" d="M557.03,-448.44C516.06,-438.7 449.27,-422.81 406.5,-412.63"/>
<polygon fill="midnightblue" stroke="midnightblue" points="407.24,-409.21 396.7,-410.3 405.62,-416.02 407.24,-409.21"/>
</g>
<!-- Node19 -->
<g id="node19" class="node">
<title>Node19</title>
<g id="a_node19"><a xlink:href="InvalidAddress_8hpp.html" target="_top" xlink:title=" ">
<polygon fill="white" stroke="black" points="812,-112.5 812,-131.5 978,-131.5 978,-112.5 812,-112.5"/>
<text text-anchor="middle" x="895" y="-119.5" font-family="Helvetica,sans-Serif" font-size="10.00">Exceptions/InvalidAddress.hpp</text>
</a>
</g>
</g>
<!-- Node1&#45;&gt;Node19 -->
<g id="edge38" class="edge">
<title>Node1&#45;&gt;Node19</title>
<path fill="none" stroke="midnightblue" d="M668.23,-456.43C746.58,-451.39 858,-429.69 858,-347 858,-347 858,-347 858,-233 858,-198.89 874.18,-161.79 885.14,-140.57"/>
<polygon fill="midnightblue" stroke="midnightblue" points="888.36,-141.98 890.01,-131.51 882.19,-138.66 888.36,-141.98"/>
</g>
<!-- Node3 -->
<g id="node3" class="node">
<title>Node3</title>
<g id="a_node3"><a xlink:href="MemoryBus_8hpp.html" target="_top" xlink:title=" ">
<polygon fill="white" stroke="black" points="296,-336.5 296,-355.5 436,-355.5 436,-336.5 296,-336.5"/>
<text text-anchor="middle" x="366" y="-343.5" font-family="Helvetica,sans-Serif" font-size="10.00">Memory/MemoryBus.hpp</text>
</a>
</g>
</g>
<!-- Node2&#45;&gt;Node3 -->
<g id="edge2" class="edge">
<title>Node2&#45;&gt;Node3</title>
<path fill="none" stroke="midnightblue" d="M366,-392.08C366,-385.01 366,-374.86 366,-365.99"/>
<polygon fill="midnightblue" stroke="midnightblue" points="369.5,-365.75 366,-355.75 362.5,-365.75 369.5,-365.75"/>
</g>
<!-- Node5 -->
<g id="node5" class="node">
<title>Node5</title>
<g id="a_node5"><a xlink:title=" ">
<polygon fill="white" stroke="#bfbfbf" points="319,-56.5 319,-75.5 369,-75.5 369,-56.5 319,-56.5"/>
<text text-anchor="middle" x="344" y="-63.5" font-family="Helvetica,sans-Serif" font-size="10.00">cstdint</text>
</a>
</g>
</g>
<!-- Node2&#45;&gt;Node5 -->
<g id="edge36" class="edge">
<title>Node2&#45;&gt;Node5</title>
<path fill="none" stroke="midnightblue" d="M335.94,-392.4C297.3,-379.51 231.96,-351.06 205,-300 160.28,-215.3 274.3,-118.15 323.1,-81.77"/>
<polygon fill="midnightblue" stroke="midnightblue" points="325.39,-84.43 331.4,-75.7 321.26,-78.78 325.39,-84.43"/>
</g>
<!-- Node7 -->
<g id="node7" class="node">
<title>Node7</title>
<g id="a_node7"><a xlink:title=" ">
<polygon fill="white" stroke="#bfbfbf" points="220,-56.5 220,-75.5 278,-75.5 278,-56.5 220,-56.5"/>
<text text-anchor="middle" x="249" y="-63.5" font-family="Helvetica,sans-Serif" font-size="10.00">memory</text>
</a>
</g>
</g>
<!-- Node2&#45;&gt;Node7 -->
<g id="edge37" class="edge">
<title>Node2&#45;&gt;Node7</title>
<path fill="none" stroke="midnightblue" d="M335.42,-398.43C247.46,-390.2 0,-360.83 0,-291 0,-291 0,-291 0,-177 0,-86.42 139.57,-69.81 209.72,-67.19"/>
<polygon fill="midnightblue" stroke="midnightblue" points="210.06,-70.68 219.95,-66.89 209.85,-63.68 210.06,-70.68"/>
</g>
<!-- Node9 -->
<g id="node9" class="node">
<title>Node9</title>
<g id="a_node9"><a xlink:href="Ints_8hpp.html" target="_top" xlink:title=" ">
<polygon fill="white" stroke="black" points="671,-56.5 671,-75.5 765,-75.5 765,-56.5 671,-56.5"/>
<text text-anchor="middle" x="718" y="-63.5" font-family="Helvetica,sans-Serif" font-size="10.00">Models/Ints.hpp</text>
</a>
</g>
</g>
<!-- Node2&#45;&gt;Node9 -->
<g id="edge35" class="edge">
<title>Node2&#45;&gt;Node9</title>
<path fill="none" stroke="midnightblue" d="M396.74,-399.53C493.27,-394.11 784,-371.11 784,-291 784,-291 784,-291 784,-177 784,-138.86 754.46,-102.52 734.91,-82.64"/>
<polygon fill="midnightblue" stroke="midnightblue" points="737.33,-80.12 727.74,-75.63 732.44,-85.12 737.33,-80.12"/>
</g>
<!-- Node4 -->
<g id="node4" class="node">
<title>Node4</title>
<g id="a_node4"><a xlink:href="AMemory_8hpp.html" target="_top" xlink:title=" ">
<polygon fill="white" stroke="black" points="427.5,-168.5 427.5,-187.5 510.5,-187.5 510.5,-168.5 427.5,-168.5"/>
<text text-anchor="middle" x="469" y="-175.5" font-family="Helvetica,sans-Serif" font-size="10.00">AMemory.hpp</text>
</a>
</g>
</g>
<!-- Node3&#45;&gt;Node4 -->
<g id="edge3" class="edge">
<title>Node3&#45;&gt;Node4</title>
<path fill="none" stroke="midnightblue" d="M379.04,-336.35C390.57,-328.14 407.2,-314.88 418,-300 441.58,-267.53 456.85,-222.5 464.08,-197.54"/>
<polygon fill="midnightblue" stroke="midnightblue" points="467.54,-198.17 466.84,-187.6 460.8,-196.3 467.54,-198.17"/>
</g>
<!-- Node3&#45;&gt;Node5 -->
<g id="edge32" class="edge">
<title>Node3&#45;&gt;Node5</title>
<path fill="none" stroke="midnightblue" d="M368.17,-336.43C372.44,-319.11 381.77,-278.64 385,-244 390.53,-184.74 365.64,-116.69 352.16,-84.99"/>
<polygon fill="midnightblue" stroke="midnightblue" points="355.31,-83.46 348.09,-75.7 348.9,-86.27 355.31,-83.46"/>
</g>
<!-- Node6 -->
<g id="node6" class="node">
<title>Node6</title>
<g id="a_node6"><a xlink:title=" ">
<polygon fill="white" stroke="#bfbfbf" points="543.5,-56.5 543.5,-75.5 590.5,-75.5 590.5,-56.5 543.5,-56.5"/>
<text text-anchor="middle" x="567" y="-63.5" font-family="Helvetica,sans-Serif" font-size="10.00">vector</text>
</a>
</g>
</g>
<!-- Node3&#45;&gt;Node6 -->
<g id="edge34" class="edge">
<title>Node3&#45;&gt;Node6</title>
<path fill="none" stroke="midnightblue" d="M436.14,-339.11C545.94,-327.92 746,-298.79 746,-235 746,-235 746,-235 746,-177 746,-142.9 650.54,-99.94 599.04,-79.25"/>
<polygon fill="midnightblue" stroke="midnightblue" points="600.26,-75.97 589.67,-75.53 597.68,-82.47 600.26,-75.97"/>
</g>
<!-- Node3&#45;&gt;Node7 -->
<g id="edge33" class="edge">
<title>Node3&#45;&gt;Node7</title>
<path fill="none" stroke="midnightblue" d="M295.93,-336.74C259.47,-330.36 215.1,-319.23 179,-300 114.03,-265.4 86.61,-255.39 57,-188 27.06,-119.86 145.84,-86.4 210.17,-73.54"/>
<polygon fill="midnightblue" stroke="midnightblue" points="210.83,-76.97 219.99,-71.65 209.51,-70.1 210.83,-76.97"/>
</g>
<!-- Node14 -->
<g id="node14" class="node">
<title>Node14</title>
<g id="a_node14"><a xlink:href="RectangleShadow_8hpp.html" target="_top" xlink:title=" ">
<polygon fill="white" stroke="black" points="214,-280.5 214,-299.5 338,-299.5 338,-280.5 214,-280.5"/>
<text text-anchor="middle" x="276" y="-287.5" font-family="Helvetica,sans-Serif" font-size="10.00">RectangleShadow.hpp</text>
</a>
</g>
</g>
<!-- Node3&#45;&gt;Node14 -->
<g id="edge19" class="edge">
<title>Node3&#45;&gt;Node14</title>
<path fill="none" stroke="midnightblue" d="M351.54,-336.32C337.5,-327.9 315.95,-314.97 299.46,-305.07"/>
<polygon fill="midnightblue" stroke="midnightblue" points="300.8,-301.8 290.42,-299.65 297.2,-307.8 300.8,-301.8"/>
</g>
<!-- Node16 -->
<g id="node16" class="node">
<title>Node16</title>
<g id="a_node16"><a xlink:href="MemoryShadow_8hpp.html" target="_top" xlink:title=" ">
<polygon fill="white" stroke="black" points="260,-224.5 260,-243.5 376,-243.5 376,-224.5 260,-224.5"/>
<text text-anchor="middle" x="318" y="-231.5" font-family="Helvetica,sans-Serif" font-size="10.00">MemoryShadow.hpp</text>
</a>
</g>
</g>
<!-- Node3&#45;&gt;Node16 -->
<g id="edge27" class="edge">
<title>Node3&#45;&gt;Node16</title>
<path fill="none" stroke="midnightblue" d="M364.3,-336.3C361.61,-323.56 355.79,-299.25 347,-280 342.51,-270.17 336.12,-259.99 330.48,-251.8"/>
<polygon fill="midnightblue" stroke="midnightblue" points="333.23,-249.63 324.57,-243.53 327.53,-253.7 333.23,-249.63"/>
</g>
<!-- Node17 -->
<g id="node17" class="node">
<title>Node17</title>
<g id="a_node17"><a xlink:href="IMemoryBus_8hpp.html" target="_top" xlink:title=" ">
<polygon fill="white" stroke="black" points="66.5,-168.5 66.5,-187.5 165.5,-187.5 165.5,-168.5 66.5,-168.5"/>
<text text-anchor="middle" x="116" y="-175.5" font-family="Helvetica,sans-Serif" font-size="10.00">IMemoryBus.hpp</text>
</a>
</g>
</g>
<!-- Node3&#45;&gt;Node17 -->
<g id="edge28" class="edge">
<title>Node3&#45;&gt;Node17</title>
<path fill="none" stroke="midnightblue" d="M298.67,-336.43C268.05,-330.07 232.58,-319.05 205,-300 165.98,-273.04 137.49,-223.32 124.25,-196.79"/>
<polygon fill="midnightblue" stroke="midnightblue" points="127.3,-195.04 119.8,-187.55 120.99,-198.08 127.3,-195.04"/>
</g>
<!-- Node4&#45;&gt;Node5 -->
<g id="edge4" class="edge">
<title>Node4&#45;&gt;Node5</title>
<path fill="none" stroke="midnightblue" d="M459.12,-168.12C445.13,-155.57 418.7,-131.93 396,-112 384.64,-102.03 371.81,-90.92 361.73,-82.23"/>
<polygon fill="midnightblue" stroke="midnightblue" points="363.87,-79.46 354.01,-75.59 359.3,-84.76 363.87,-79.46"/>
</g>
<!-- Node4&#45;&gt;Node6 -->
<g id="edge5" class="edge">
<title>Node4&#45;&gt;Node6</title>
<path fill="none" stroke="midnightblue" d="M498.55,-168.47C526.73,-159.67 566.15,-145.38 575,-132 584.1,-118.25 580.32,-99.22 575.34,-85.3"/>
<polygon fill="midnightblue" stroke="midnightblue" points="578.49,-83.77 571.48,-75.83 572.01,-86.41 578.49,-83.77"/>
</g>
<!-- Node4&#45;&gt;Node7 -->
<g id="edge6" class="edge">
<title>Node4&#45;&gt;Node7</title>
<path fill="none" stroke="midnightblue" d="M451.74,-168.37C413.34,-149.17 320.68,-102.84 275.15,-80.07"/>
<polygon fill="midnightblue" stroke="midnightblue" points="276.69,-76.93 266.18,-75.59 273.56,-83.19 276.69,-76.93"/>
</g>
<!-- Node8 -->
<g id="node8" class="node">
<title>Node8</title>
<g id="a_node8"><a xlink:title=" ">
<polygon fill="white" stroke="#bfbfbf" points="609,-56.5 609,-75.5 653,-75.5 653,-56.5 609,-56.5"/>
<text text-anchor="middle" x="631" y="-63.5" font-family="Helvetica,sans-Serif" font-size="10.00">string</text>
</a>
</g>
</g>
<!-- Node4&#45;&gt;Node8 -->
<g id="edge7" class="edge">
<title>Node4&#45;&gt;Node8</title>
<path fill="none" stroke="midnightblue" d="M510.63,-168.92C535.99,-162.34 567.86,-150.95 591,-132 606.18,-119.57 617.18,-99.77 623.76,-85.29"/>
<polygon fill="midnightblue" stroke="midnightblue" points="627.07,-86.44 627.76,-75.87 620.63,-83.7 627.07,-86.44"/>
</g>
<!-- Node4&#45;&gt;Node9 -->
<g id="edge8" class="edge">
<title>Node4&#45;&gt;Node9</title>
<path fill="none" stroke="midnightblue" d="M504.84,-168.49C534.55,-160.8 577.5,-148.22 613,-132 644.26,-117.72 677.53,-95.84 698.05,-81.48"/>
<polygon fill="midnightblue" stroke="midnightblue" points="700.14,-84.28 706.27,-75.64 696.09,-78.58 700.14,-84.28"/>
</g>
<!-- Node12 -->
<g id="node12" class="node">
<title>Node12</title>
<g id="a_node12"><a xlink:href="Components_8hpp.html" target="_top" xlink:title=" ">
<polygon fill="white" stroke="black" points="388.5,-56.5 388.5,-75.5 525.5,-75.5 525.5,-56.5 388.5,-56.5"/>
<text text-anchor="middle" x="457" y="-63.5" font-family="Helvetica,sans-Serif" font-size="10.00">Models/Components.hpp</text>
</a>
</g>
</g>
<!-- Node4&#45;&gt;Node12 -->
<g id="edge11" class="edge">
<title>Node4&#45;&gt;Node12</title>
<path fill="none" stroke="midnightblue" d="M468.06,-168.37C466.12,-150.62 461.65,-109.67 459.03,-85.6"/>
<polygon fill="midnightblue" stroke="midnightblue" points="462.5,-85.15 457.94,-75.59 455.54,-85.91 462.5,-85.15"/>
</g>
<!-- Node13 -->
<g id="node13" class="node">
<title>Node13</title>
<g id="a_node13"><a xlink:href="IMemory_8hpp.html" target="_top" xlink:title=" ">
<polygon fill="white" stroke="black" points="486,-112.5 486,-131.5 566,-131.5 566,-112.5 486,-112.5"/>
<text text-anchor="middle" x="526" y="-119.5" font-family="Helvetica,sans-Serif" font-size="10.00">IMemory.hpp</text>
</a>
</g>
</g>
<!-- Node4&#45;&gt;Node13 -->
<g id="edge12" class="edge">
<title>Node4&#45;&gt;Node13</title>
<path fill="none" stroke="midnightblue" d="M478.16,-168.32C486.5,-160.42 499.03,-148.55 509.18,-138.94"/>
<polygon fill="midnightblue" stroke="midnightblue" points="511.82,-141.25 516.68,-131.83 507.01,-136.17 511.82,-141.25"/>
</g>
<!-- Node10 -->
<g id="node10" class="node">
<title>Node10</title>
<g id="a_node10"><a xlink:title=" ">
<polygon fill="white" stroke="#bfbfbf" points="348,-0.5 348,-19.5 410,-19.5 410,-0.5 348,-0.5"/>
<text text-anchor="middle" x="379" y="-7.5" font-family="Helvetica,sans-Serif" font-size="10.00">cinttypes</text>
</a>
</g>
</g>
<!-- Node9&#45;&gt;Node10 -->
<g id="edge9" class="edge">
<title>Node9&#45;&gt;Node10</title>
<path fill="none" stroke="midnightblue" d="M670.95,-57.43C667.92,-56.95 664.92,-56.47 662,-56 576.16,-42.28 475.65,-26.32 420.49,-17.58"/>
<polygon fill="midnightblue" stroke="midnightblue" points="420.84,-14.09 410.41,-15.98 419.74,-21 420.84,-14.09"/>
</g>
<!-- Node11 -->
<g id="node11" class="node">
<title>Node11</title>
<g id="a_node11"><a xlink:title=" ">
<polygon fill="white" stroke="#bfbfbf" points="688,-0.5 688,-19.5 748,-19.5 748,-0.5 688,-0.5"/>
<text text-anchor="middle" x="718" y="-7.5" font-family="Helvetica,sans-Serif" font-size="10.00">iostream</text>
</a>
</g>
</g>
<!-- Node9&#45;&gt;Node11 -->
<g id="edge10" class="edge">
<title>Node9&#45;&gt;Node11</title>
<path fill="none" stroke="midnightblue" d="M718,-56.08C718,-49.01 718,-38.86 718,-29.99"/>
<polygon fill="midnightblue" stroke="midnightblue" points="721.5,-29.75 718,-19.75 714.5,-29.75 721.5,-29.75"/>
</g>
<!-- Node13&#45;&gt;Node5 -->
<g id="edge13" class="edge">
<title>Node13&#45;&gt;Node5</title>
<path fill="none" stroke="midnightblue" d="M497.16,-112.44C465.05,-102.92 413.16,-87.52 378.81,-77.33"/>
<polygon fill="midnightblue" stroke="midnightblue" points="379.77,-73.96 369.19,-74.47 377.78,-80.67 379.77,-73.96"/>
</g>
<!-- Node13&#45;&gt;Node6 -->
<g id="edge14" class="edge">
<title>Node13&#45;&gt;Node6</title>
<path fill="none" stroke="midnightblue" d="M532.77,-112.08C538.56,-104.46 547.06,-93.26 554.14,-83.94"/>
<polygon fill="midnightblue" stroke="midnightblue" points="557.1,-85.83 560.36,-75.75 551.52,-81.6 557.1,-85.83"/>
</g>
<!-- Node13&#45;&gt;Node7 -->
<g id="edge15" class="edge">
<title>Node13&#45;&gt;Node7</title>
<path fill="none" stroke="midnightblue" d="M485.72,-113.15C432.83,-102.84 340.56,-84.85 288.21,-74.64"/>
<polygon fill="midnightblue" stroke="midnightblue" points="288.78,-71.19 278.29,-72.71 287.44,-78.06 288.78,-71.19"/>
</g>
<!-- Node13&#45;&gt;Node8 -->
<g id="edge16" class="edge">
<title>Node13&#45;&gt;Node8</title>
<path fill="none" stroke="midnightblue" d="M542.87,-112.32C559.71,-103.66 585.81,-90.24 605.24,-80.25"/>
<polygon fill="midnightblue" stroke="midnightblue" points="606.88,-83.34 614.17,-75.65 603.68,-77.12 606.88,-83.34"/>
</g>
<!-- Node13&#45;&gt;Node9 -->
<g id="edge17" class="edge">
<title>Node13&#45;&gt;Node9</title>
<path fill="none" stroke="midnightblue" d="M556.42,-112.44C589.28,-103.2 641.78,-88.44 677.97,-78.26"/>
<polygon fill="midnightblue" stroke="midnightblue" points="679.04,-81.59 687.72,-75.52 677.15,-74.85 679.04,-81.59"/>
</g>
<!-- Node13&#45;&gt;Node12 -->
<g id="edge18" class="edge">
<title>Node13&#45;&gt;Node12</title>
<path fill="none" stroke="midnightblue" d="M514.91,-112.32C504.51,-104.18 488.74,-91.84 476.28,-82.09"/>
<polygon fill="midnightblue" stroke="midnightblue" points="478.32,-79.24 468.29,-75.83 474.01,-84.75 478.32,-79.24"/>
</g>
<!-- Node14&#45;&gt;Node7 -->
<g id="edge20" class="edge">
<title>Node14&#45;&gt;Node7</title>
<path fill="none" stroke="midnightblue" d="M269.41,-280.27C263.29,-271.59 254.62,-257.65 251,-244 236.13,-187.93 242.1,-118.33 246.26,-85.62"/>
<polygon fill="midnightblue" stroke="midnightblue" points="249.74,-86.06 247.62,-75.67 242.8,-85.11 249.74,-86.06"/>
</g>
<!-- Node15 -->
<g id="node15" class="node">
<title>Node15</title>
<g id="a_node15"><a xlink:href="ARectangleMemory_8hpp.html" target="_top" xlink:title=" ">
<polygon fill="white" stroke="black" points="529,-168.5 529,-187.5 661,-187.5 661,-168.5 529,-168.5"/>
<text text-anchor="middle" x="595" y="-175.5" font-family="Helvetica,sans-Serif" font-size="10.00">ARectangleMemory.hpp</text>
</a>
</g>
</g>
<!-- Node14&#45;&gt;Node15 -->
<g id="edge21" class="edge">
<title>Node14&#45;&gt;Node15</title>
<path fill="none" stroke="midnightblue" d="M300.77,-280.46C357.18,-261.01 495.37,-213.36 560.27,-190.98"/>
<polygon fill="midnightblue" stroke="midnightblue" points="561.72,-194.18 570.03,-187.61 559.44,-187.56 561.72,-194.18"/>
</g>
<!-- Node14&#45;&gt;Node16 -->
<g id="edge24" class="edge">
<title>Node14&#45;&gt;Node16</title>
<path fill="none" stroke="midnightblue" d="M282.94,-280.08C288.93,-272.38 297.75,-261.03 305.05,-251.65"/>
<polygon fill="midnightblue" stroke="midnightblue" points="307.82,-253.79 311.19,-243.75 302.29,-249.5 307.82,-253.79"/>
</g>
<!-- Node15&#45;&gt;Node9 -->
<g id="edge23" class="edge">
<title>Node15&#45;&gt;Node9</title>
<path fill="none" stroke="midnightblue" d="M621.81,-168.45C641.03,-161.22 666.5,-149.26 684,-132 697.29,-118.89 706.51,-99.47 711.96,-85.28"/>
<polygon fill="midnightblue" stroke="midnightblue" points="715.34,-86.22 715.4,-75.63 708.75,-83.87 715.34,-86.22"/>
</g>
<!-- Node15&#45;&gt;Node13 -->
<g id="edge22" class="edge">
<title>Node15&#45;&gt;Node13</title>
<path fill="none" stroke="midnightblue" d="M583.91,-168.32C573.51,-160.18 557.74,-147.84 545.28,-138.09"/>
<polygon fill="midnightblue" stroke="midnightblue" points="547.32,-135.24 537.29,-131.83 543.01,-140.75 547.32,-135.24"/>
</g>
<!-- Node16&#45;&gt;Node4 -->
<g id="edge26" class="edge">
<title>Node16&#45;&gt;Node4</title>
<path fill="none" stroke="midnightblue" d="M341.93,-224.44C367.22,-215.4 407.3,-201.06 435.68,-190.92"/>
<polygon fill="midnightblue" stroke="midnightblue" points="436.95,-194.18 445.19,-187.52 434.59,-187.59 436.95,-194.18"/>
</g>
<!-- Node16&#45;&gt;Node7 -->
<g id="edge25" class="edge">
<title>Node16&#45;&gt;Node7</title>
<path fill="none" stroke="midnightblue" d="M314.29,-224.08C303.38,-197.83 271.26,-120.55 256.53,-85.12"/>
<polygon fill="midnightblue" stroke="midnightblue" points="259.63,-83.46 252.56,-75.57 253.17,-86.15 259.63,-83.46"/>
</g>
<!-- Node17&#45;&gt;Node10 -->
<g id="edge29" class="edge">
<title>Node17&#45;&gt;Node10</title>
<path fill="none" stroke="midnightblue" d="M116.77,-168.24C118.31,-154.99 122.74,-129.54 135,-112 159.04,-77.61 173.19,-74.19 211,-56 251.99,-36.28 302.9,-24.19 337.88,-17.57"/>
<polygon fill="midnightblue" stroke="midnightblue" points="338.53,-21.01 347.74,-15.77 337.28,-14.13 338.53,-21.01"/>
</g>
<!-- Node17&#45;&gt;Node13 -->
<g id="edge31" class="edge">
<title>Node17&#45;&gt;Node13</title>
<path fill="none" stroke="midnightblue" d="M165.86,-170.43C244.6,-160.06 396.86,-140.01 475.8,-129.61"/>
<polygon fill="midnightblue" stroke="midnightblue" points="476.52,-133.05 485.98,-128.27 475.61,-126.11 476.52,-133.05"/>
</g>
<!-- Node18 -->
<g id="node18" class="node">
<title>Node18</title>
<g id="a_node18"><a xlink:title=" ">
<polygon fill="white" stroke="#bfbfbf" points="144,-112.5 144,-131.5 200,-131.5 200,-112.5 144,-112.5"/>
<text text-anchor="middle" x="172" y="-119.5" font-family="Helvetica,sans-Serif" font-size="10.00">optional</text>
</a>
</g>
</g>
<!-- Node17&#45;&gt;Node18 -->
<g id="edge30" class="edge">
<title>Node17&#45;&gt;Node18</title>
<path fill="none" stroke="midnightblue" d="M125,-168.32C133.19,-160.42 145.51,-148.55 155.47,-138.94"/>
<polygon fill="midnightblue" stroke="midnightblue" points="158.07,-141.29 162.84,-131.83 153.21,-136.26 158.07,-141.29"/>
</g>
<!-- Node19&#45;&gt;Node8 -->
<g id="edge45" class="edge">
<title>Node19&#45;&gt;Node8</title>
<path fill="none" stroke="midnightblue" d="M843.34,-112.43C798.16,-104.61 730.58,-92.16 663.22,-76.13"/>
<polygon fill="midnightblue" stroke="midnightblue" points="663.83,-72.67 653.29,-73.74 662.19,-79.48 663.83,-72.67"/>
</g>
<!-- Node19&#45;&gt;Node9 -->
<g id="edge41" class="edge">
<title>Node19&#45;&gt;Node9</title>
<path fill="none" stroke="midnightblue" d="M866.95,-112.44C836.92,-103.28 789.09,-88.69 755.76,-78.52"/>
<polygon fill="midnightblue" stroke="midnightblue" points="756.5,-75.09 745.91,-75.52 754.46,-81.78 756.5,-75.09"/>
</g>
<!-- Node20 -->
<g id="node20" class="node">
<title>Node20</title>
<g id="a_node20"><a xlink:href="DebuggableError_8hpp.html" target="_top" xlink:title=" ">
<polygon fill="white" stroke="black" points="857.5,-56.5 857.5,-75.5 976.5,-75.5 976.5,-56.5 857.5,-56.5"/>
<text text-anchor="middle" x="917" y="-63.5" font-family="Helvetica,sans-Serif" font-size="10.00">DebuggableError.hpp</text>
</a>
</g>
</g>
<!-- Node19&#45;&gt;Node20 -->
<g id="edge39" class="edge">
<title>Node19&#45;&gt;Node20</title>
<path fill="none" stroke="midnightblue" d="M898.63,-112.08C901.61,-104.77 905.93,-94.18 909.62,-85.1"/>
<polygon fill="midnightblue" stroke="midnightblue" points="912.9,-86.33 913.43,-75.75 906.42,-83.69 912.9,-86.33"/>
</g>
<!-- Node22 -->
<g id="node22" class="node">
<title>Node22</title>
<g id="a_node22"><a xlink:title=" ">
<polygon fill="white" stroke="#bfbfbf" points="994.5,-56.5 994.5,-75.5 1059.5,-75.5 1059.5,-56.5 994.5,-56.5"/>
<text text-anchor="middle" x="1027" y="-63.5" font-family="Helvetica,sans-Serif" font-size="10.00">exception</text>
</a>
</g>
</g>
<!-- Node19&#45;&gt;Node22 -->
<g id="edge42" class="edge">
<title>Node19&#45;&gt;Node22</title>
<path fill="none" stroke="midnightblue" d="M915.92,-112.44C937.74,-103.52 972.15,-89.44 996.89,-79.32"/>
<polygon fill="midnightblue" stroke="midnightblue" points="998.25,-82.54 1006.18,-75.52 995.6,-76.06 998.25,-82.54"/>
</g>
<!-- Node23 -->
<g id="node23" class="node">
<title>Node23</title>
<g id="a_node23"><a xlink:title=" ">
<polygon fill="white" stroke="#bfbfbf" points="1077.5,-56.5 1077.5,-75.5 1108.5,-75.5 1108.5,-56.5 1077.5,-56.5"/>
<text text-anchor="middle" x="1093" y="-63.5" font-family="Helvetica,sans-Serif" font-size="10.00">ios</text>
</a>
</g>
</g>
<!-- Node19&#45;&gt;Node23 -->
<g id="edge43" class="edge">
<title>Node19&#45;&gt;Node23</title>
<path fill="none" stroke="midnightblue" d="M932.66,-112.48C966.05,-104.65 1016.27,-92.22 1067.72,-76.18"/>
<polygon fill="midnightblue" stroke="midnightblue" points="1068.85,-79.5 1077.33,-73.15 1066.74,-72.82 1068.85,-79.5"/>
</g>
<!-- Node24 -->
<g id="node24" class="node">
<title>Node24</title>
<g id="a_node24"><a xlink:title=" ">
<polygon fill="white" stroke="#bfbfbf" points="783,-56.5 783,-75.5 839,-75.5 839,-56.5 783,-56.5"/>
<text text-anchor="middle" x="811" y="-63.5" font-family="Helvetica,sans-Serif" font-size="10.00">sstream</text>
</a>
</g>
</g>
<!-- Node19&#45;&gt;Node24 -->
<g id="edge44" class="edge">
<title>Node19&#45;&gt;Node24</title>
<path fill="none" stroke="midnightblue" d="M881.5,-112.32C868.4,-103.9 848.29,-90.97 832.89,-81.07"/>
<polygon fill="midnightblue" stroke="midnightblue" points="834.77,-78.12 824.46,-75.65 830.98,-84.01 834.77,-78.12"/>
</g>
<!-- Node21 -->
<g id="node21" class="node">
<title>Node21</title>
<g id="a_node21"><a xlink:title=" ">
<polygon fill="white" stroke="#bfbfbf" points="869.5,-0.5 869.5,-19.5 964.5,-19.5 964.5,-0.5 869.5,-0.5"/>
<text text-anchor="middle" x="917" y="-7.5" font-family="Helvetica,sans-Serif" font-size="10.00">bits/exception.h</text>
</a>
</g>
</g>
<!-- Node20&#45;&gt;Node21 -->
<g id="edge40" class="edge">
<title>Node20&#45;&gt;Node21</title>
<path fill="none" stroke="midnightblue" d="M917,-56.08C917,-49.01 917,-38.86 917,-29.99"/>
<polygon fill="midnightblue" stroke="midnightblue" points="920.5,-29.75 917,-19.75 913.5,-29.75 920.5,-29.75"/>
</g>
</g>
</svg>
