<?xml version="1.0" encoding="UTF-8" standalone="no"?>
<!DOCTYPE svg PUBLIC "-//W3C//DTD SVG 1.1//EN"
 "http://www.w3.org/Graphics/SVG/1.1/DTD/svg11.dtd">
<!-- Generated by graphviz version 2.43.0 (0)
 -->
<!-- Title: sources/CPU/DMA/DMA.hpp Pages: 1 -->
<svg width="750pt" height="420pt"
 viewBox="0.00 0.00 750.00 420.00" xmlns="http://www.w3.org/2000/svg" xmlns:xlink="http://www.w3.org/1999/xlink">
<g id="graph0" class="graph" transform="scale(1 1) rotate(0) translate(4 416)">
<title>sources/CPU/DMA/DMA.hpp</title>
<polygon fill="white" stroke="transparent" points="-4,4 -4,-416 746,-416 746,4 -4,4"/>
<!-- Node1 -->
<g id="node1" class="node">
<title>Node1</title>
<g id="a_node1"><a xlink:title=" ">
<polygon fill="#bfbfbf" stroke="black" points="507.5,-392.5 507.5,-411.5 658.5,-411.5 658.5,-392.5 507.5,-392.5"/>
<text text-anchor="middle" x="583" y="-399.5" font-family="Helvetica,sans-Serif" font-size="10.00">sources/CPU/DMA/DMA.hpp</text>
</a>
</g>
</g>
<!-- Node2 -->
<g id="node2" class="node">
<title>Node2</title>
<g id="a_node2"><a xlink:href="MemoryBus_8hpp.html" target="_top" xlink:title=" ">
<polygon fill="white" stroke="black" points="362,-336.5 362,-355.5 502,-355.5 502,-336.5 362,-336.5"/>
<text text-anchor="middle" x="432" y="-343.5" font-family="Helvetica,sans-Serif" font-size="10.00">Memory/MemoryBus.hpp</text>
</a>
</g>
</g>
<!-- Node1&#45;&gt;Node2 -->
<g id="edge1" class="edge">
<title>Node1&#45;&gt;Node2</title>
<path fill="none" stroke="midnightblue" d="M559.07,-392.44C533.78,-383.4 493.7,-369.06 465.32,-358.92"/>
<polygon fill="midnightblue" stroke="midnightblue" points="466.41,-355.59 455.81,-355.52 464.05,-362.18 466.41,-355.59"/>
</g>
<!-- Node4 -->
<g id="node4" class="node">
<title>Node4</title>
<g id="a_node4"><a xlink:title=" ">
<polygon fill="white" stroke="#bfbfbf" points="82,-56.5 82,-75.5 132,-75.5 132,-56.5 82,-56.5"/>
<text text-anchor="middle" x="107" y="-63.5" font-family="Helvetica,sans-Serif" font-size="10.00">cstdint</text>
</a>
</g>
</g>
<!-- Node1&#45;&gt;Node4 -->
<g id="edge35" class="edge">
<title>Node1&#45;&gt;Node4</title>
<path fill="none" stroke="midnightblue" d="M507.38,-394.53C349.64,-380 0,-342.05 0,-291 0,-291 0,-291 0,-177 0,-131.41 47.8,-97.62 79.51,-80.23"/>
<polygon fill="midnightblue" stroke="midnightblue" points="81.15,-83.32 88.36,-75.56 77.88,-77.13 81.15,-83.32"/>
</g>
<!-- Node6 -->
<g id="node6" class="node">
<title>Node6</title>
<g id="a_node6"><a xlink:title=" ">
<polygon fill="white" stroke="#bfbfbf" points="599,-56.5 599,-75.5 657,-75.5 657,-56.5 599,-56.5"/>
<text text-anchor="middle" x="628" y="-63.5" font-family="Helvetica,sans-Serif" font-size="10.00">memory</text>
</a>
</g>
</g>
<!-- Node1&#45;&gt;Node6 -->
<g id="edge36" class="edge">
<title>Node1&#45;&gt;Node6</title>
<path fill="none" stroke="midnightblue" d="M644.57,-392.49C670.05,-386.17 698.21,-375.16 718,-356 740.12,-334.58 742,-321.8 742,-291 742,-291 742,-291 742,-177 742,-130.11 691.45,-96.89 657.67,-79.93"/>
<polygon fill="midnightblue" stroke="midnightblue" points="659.17,-76.77 648.64,-75.58 656.13,-83.07 659.17,-76.77"/>
</g>
<!-- Node8 -->
<g id="node8" class="node">
<title>Node8</title>
<g id="a_node8"><a xlink:href="Ints_8hpp.html" target="_top" xlink:title=" ">
<polygon fill="white" stroke="black" points="445,-56.5 445,-75.5 539,-75.5 539,-56.5 445,-56.5"/>
<text text-anchor="middle" x="492" y="-63.5" font-family="Helvetica,sans-Serif" font-size="10.00">Models/Ints.hpp</text>
</a>
</g>
</g>
<!-- Node1&#45;&gt;Node8 -->
<g id="edge34" class="edge">
<title>Node1&#45;&gt;Node8</title>
<path fill="none" stroke="midnightblue" d="M591.13,-392.21C608.19,-372.69 645.25,-323.95 634,-280 612.9,-197.53 594.83,-178.75 542,-112 533.26,-100.95 521.65,-90.32 511.82,-82.17"/>
<polygon fill="midnightblue" stroke="midnightblue" points="513.74,-79.23 503.75,-75.7 509.36,-84.68 513.74,-79.23"/>
</g>
<!-- Node3 -->
<g id="node3" class="node">
<title>Node3</title>
<g id="a_node3"><a xlink:href="AMemory_8hpp.html" target="_top" xlink:title=" ">
<polygon fill="white" stroke="black" points="290.5,-168.5 290.5,-187.5 373.5,-187.5 373.5,-168.5 290.5,-168.5"/>
<text text-anchor="middle" x="332" y="-175.5" font-family="Helvetica,sans-Serif" font-size="10.00">AMemory.hpp</text>
</a>
</g>
</g>
<!-- Node2&#45;&gt;Node3 -->
<g id="edge2" class="edge">
<title>Node2&#45;&gt;Node3</title>
<path fill="none" stroke="midnightblue" d="M421.53,-336.19C411.9,-327.67 397.68,-314.03 388,-300 364.87,-266.47 347.08,-221.87 338.22,-197.26"/>
<polygon fill="midnightblue" stroke="midnightblue" points="341.49,-196.02 334.88,-187.74 334.89,-198.34 341.49,-196.02"/>
</g>
<!-- Node2&#45;&gt;Node4 -->
<g id="edge31" class="edge">
<title>Node2&#45;&gt;Node4</title>
<path fill="none" stroke="midnightblue" d="M361.67,-337.71C257.92,-324.97 76,-294.19 76,-235 76,-235 76,-235 76,-177 76,-143.41 89.56,-106.14 98.74,-84.75"/>
<polygon fill="midnightblue" stroke="midnightblue" points="101.94,-86.17 102.82,-75.61 95.55,-83.31 101.94,-86.17"/>
</g>
<!-- Node5 -->
<g id="node5" class="node">
<title>Node5</title>
<g id="a_node5"><a xlink:title=" ">
<polygon fill="white" stroke="#bfbfbf" points="379.5,-56.5 379.5,-75.5 426.5,-75.5 426.5,-56.5 379.5,-56.5"/>
<text text-anchor="middle" x="403" y="-63.5" font-family="Helvetica,sans-Serif" font-size="10.00">vector</text>
</a>
</g>
</g>
<!-- Node2&#45;&gt;Node5 -->
<g id="edge33" class="edge">
<title>Node2&#45;&gt;Node5</title>
<path fill="none" stroke="midnightblue" d="M431.04,-336.36C429.1,-318.9 424.6,-278.21 421,-244 414.95,-186.55 408.13,-118.57 404.9,-86.11"/>
<polygon fill="midnightblue" stroke="midnightblue" points="408.35,-85.45 403.88,-75.84 401.38,-86.14 408.35,-85.45"/>
</g>
<!-- Node2&#45;&gt;Node6 -->
<g id="edge32" class="edge">
<title>Node2&#45;&gt;Node6</title>
<path fill="none" stroke="midnightblue" d="M502.05,-338.48C553.5,-332.09 617.23,-320.29 634,-300 686.04,-237.03 652.27,-128.47 635.67,-85.39"/>
<polygon fill="midnightblue" stroke="midnightblue" points="638.84,-83.9 631.88,-75.91 632.34,-86.5 638.84,-83.9"/>
</g>
<!-- Node13 -->
<g id="node13" class="node">
<title>Node13</title>
<g id="a_node13"><a xlink:href="RectangleShadow_8hpp.html" target="_top" xlink:title=" ">
<polygon fill="white" stroke="black" points="501,-280.5 501,-299.5 625,-299.5 625,-280.5 501,-280.5"/>
<text text-anchor="middle" x="563" y="-287.5" font-family="Helvetica,sans-Serif" font-size="10.00">RectangleShadow.hpp</text>
</a>
</g>
</g>
<!-- Node2&#45;&gt;Node13 -->
<g id="edge18" class="edge">
<title>Node2&#45;&gt;Node13</title>
<path fill="none" stroke="midnightblue" d="M452.76,-336.44C474.32,-327.56 508.26,-313.56 532.79,-303.45"/>
<polygon fill="midnightblue" stroke="midnightblue" points="534.43,-306.56 542.34,-299.52 531.76,-300.09 534.43,-306.56"/>
</g>
<!-- Node15 -->
<g id="node15" class="node">
<title>Node15</title>
<g id="a_node15"><a xlink:href="MemoryShadow_8hpp.html" target="_top" xlink:title=" ">
<polygon fill="white" stroke="black" points="430,-224.5 430,-243.5 546,-243.5 546,-224.5 430,-224.5"/>
<text text-anchor="middle" x="488" y="-231.5" font-family="Helvetica,sans-Serif" font-size="10.00">MemoryShadow.hpp</text>
</a>
</g>
</g>
<!-- Node2&#45;&gt;Node15 -->
<g id="edge26" class="edge">
<title>Node2&#45;&gt;Node15</title>
<path fill="none" stroke="midnightblue" d="M436.39,-336.37C445.55,-318.38 466.85,-276.55 479.03,-252.63"/>
<polygon fill="midnightblue" stroke="midnightblue" points="482.21,-254.09 483.63,-243.59 475.97,-250.92 482.21,-254.09"/>
</g>
<!-- Node16 -->
<g id="node16" class="node">
<title>Node16</title>
<g id="a_node16"><a xlink:href="IMemoryBus_8hpp.html" target="_top" xlink:title=" ">
<polygon fill="white" stroke="black" points="139.5,-168.5 139.5,-187.5 238.5,-187.5 238.5,-168.5 139.5,-168.5"/>
<text text-anchor="middle" x="189" y="-175.5" font-family="Helvetica,sans-Serif" font-size="10.00">IMemoryBus.hpp</text>
</a>
</g>
</g>
<!-- Node2&#45;&gt;Node16 -->
<g id="edge27" class="edge">
<title>Node2&#45;&gt;Node16</title>
<path fill="none" stroke="midnightblue" d="M419.28,-336.31C379.75,-309.3 258.78,-226.67 209.86,-193.25"/>
<polygon fill="midnightblue" stroke="midnightblue" points="211.83,-190.36 201.6,-187.61 207.88,-196.14 211.83,-190.36"/>
</g>
<!-- Node3&#45;&gt;Node4 -->
<g id="edge3" class="edge">
<title>Node3&#45;&gt;Node4</title>
<path fill="none" stroke="midnightblue" d="M314.34,-168.37C275.08,-149.17 180.31,-102.84 133.74,-80.07"/>
<polygon fill="midnightblue" stroke="midnightblue" points="135.09,-76.84 124.57,-75.59 132.02,-83.13 135.09,-76.84"/>
</g>
<!-- Node3&#45;&gt;Node5 -->
<g id="edge4" class="edge">
<title>Node3&#45;&gt;Node5</title>
<path fill="none" stroke="midnightblue" d="M344.52,-168.36C355.53,-160.16 371.29,-146.91 381,-132 390.24,-117.8 396.01,-99.33 399.3,-85.7"/>
<polygon fill="midnightblue" stroke="midnightblue" points="402.79,-86.12 401.51,-75.6 395.96,-84.62 402.79,-86.12"/>
</g>
<!-- Node3&#45;&gt;Node6 -->
<g id="edge5" class="edge">
<title>Node3&#45;&gt;Node6</title>
<path fill="none" stroke="midnightblue" d="M355.23,-168.37C407.64,-148.89 535.22,-101.48 595.47,-79.09"/>
<polygon fill="midnightblue" stroke="midnightblue" points="596.73,-82.36 604.88,-75.59 594.29,-75.79 596.73,-82.36"/>
</g>
<!-- Node7 -->
<g id="node7" class="node">
<title>Node7</title>
<g id="a_node7"><a xlink:title=" ">
<polygon fill="white" stroke="#bfbfbf" points="162,-56.5 162,-75.5 206,-75.5 206,-56.5 162,-56.5"/>
<text text-anchor="middle" x="184" y="-63.5" font-family="Helvetica,sans-Serif" font-size="10.00">string</text>
</a>
</g>
</g>
<!-- Node3&#45;&gt;Node7 -->
<g id="edge6" class="edge">
<title>Node3&#45;&gt;Node7</title>
<path fill="none" stroke="midnightblue" d="M320.39,-168.37C295.21,-149.65 235.33,-105.15 203.96,-81.83"/>
<polygon fill="midnightblue" stroke="midnightblue" points="205.67,-78.75 195.56,-75.59 201.5,-84.37 205.67,-78.75"/>
</g>
<!-- Node3&#45;&gt;Node8 -->
<g id="edge7" class="edge">
<title>Node3&#45;&gt;Node8</title>
<path fill="none" stroke="midnightblue" d="M344.89,-168.44C358.42,-159.44 380.27,-144.83 399,-132 424,-114.87 452.53,-94.86 471.33,-81.61"/>
<polygon fill="midnightblue" stroke="midnightblue" points="473.56,-84.32 479.71,-75.69 469.53,-78.6 473.56,-84.32"/>
</g>
<!-- Node11 -->
<g id="node11" class="node">
<title>Node11</title>
<g id="a_node11"><a xlink:href="Components_8hpp.html" target="_top" xlink:title=" ">
<polygon fill="white" stroke="black" points="224.5,-56.5 224.5,-75.5 361.5,-75.5 361.5,-56.5 224.5,-56.5"/>
<text text-anchor="middle" x="293" y="-63.5" font-family="Helvetica,sans-Serif" font-size="10.00">Models/Components.hpp</text>
</a>
</g>
</g>
<!-- Node3&#45;&gt;Node11 -->
<g id="edge10" class="edge">
<title>Node3&#45;&gt;Node11</title>
<path fill="none" stroke="midnightblue" d="M317.34,-168.4C305.59,-160.58 289.97,-147.86 283,-132 276.48,-117.15 280.27,-98.77 284.94,-85.35"/>
<polygon fill="midnightblue" stroke="midnightblue" points="288.29,-86.4 288.69,-75.81 281.78,-83.83 288.29,-86.4"/>
</g>
<!-- Node12 -->
<g id="node12" class="node">
<title>Node12</title>
<g id="a_node12"><a xlink:href="IMemory_8hpp.html" target="_top" xlink:title=" ">
<polygon fill="white" stroke="black" points="292,-112.5 292,-131.5 372,-131.5 372,-112.5 292,-112.5"/>
<text text-anchor="middle" x="332" y="-119.5" font-family="Helvetica,sans-Serif" font-size="10.00">IMemory.hpp</text>
</a>
</g>
</g>
<!-- Node3&#45;&gt;Node12 -->
<g id="edge11" class="edge">
<title>Node3&#45;&gt;Node12</title>
<path fill="none" stroke="midnightblue" d="M332,-168.08C332,-161.01 332,-150.86 332,-141.99"/>
<polygon fill="midnightblue" stroke="midnightblue" points="335.5,-141.75 332,-131.75 328.5,-141.75 335.5,-141.75"/>
</g>
<!-- Node9 -->
<g id="node9" class="node">
<title>Node9</title>
<g id="a_node9"><a xlink:title=" ">
<polygon fill="white" stroke="#bfbfbf" points="196,-0.5 196,-19.5 258,-19.5 258,-0.5 196,-0.5"/>
<text text-anchor="middle" x="227" y="-7.5" font-family="Helvetica,sans-Serif" font-size="10.00">cinttypes</text>
</a>
</g>
</g>
<!-- Node8&#45;&gt;Node9 -->
<g id="edge8" class="edge">
<title>Node8&#45;&gt;Node9</title>
<path fill="none" stroke="midnightblue" d="M450.01,-56.44C400.14,-46.28 317.51,-29.44 268.06,-19.37"/>
<polygon fill="midnightblue" stroke="midnightblue" points="268.53,-15.89 258.03,-17.32 267.13,-22.75 268.53,-15.89"/>
</g>
<!-- Node10 -->
<g id="node10" class="node">
<title>Node10</title>
<g id="a_node10"><a xlink:title=" ">
<polygon fill="white" stroke="#bfbfbf" points="462,-0.5 462,-19.5 522,-19.5 522,-0.5 462,-0.5"/>
<text text-anchor="middle" x="492" y="-7.5" font-family="Helvetica,sans-Serif" font-size="10.00">iostream</text>
</a>
</g>
</g>
<!-- Node8&#45;&gt;Node10 -->
<g id="edge9" class="edge">
<title>Node8&#45;&gt;Node10</title>
<path fill="none" stroke="midnightblue" d="M492,-56.08C492,-49.01 492,-38.86 492,-29.99"/>
<polygon fill="midnightblue" stroke="midnightblue" points="495.5,-29.75 492,-19.75 488.5,-29.75 495.5,-29.75"/>
</g>
<!-- Node12&#45;&gt;Node4 -->
<g id="edge12" class="edge">
<title>Node12&#45;&gt;Node4</title>
<path fill="none" stroke="midnightblue" d="M296.35,-112.44C253.99,-102.28 183.8,-85.43 141.81,-75.36"/>
<polygon fill="midnightblue" stroke="midnightblue" points="142.58,-71.94 132.04,-73.01 140.94,-78.75 142.58,-71.94"/>
</g>
<!-- Node12&#45;&gt;Node5 -->
<g id="edge13" class="edge">
<title>Node12&#45;&gt;Node5</title>
<path fill="none" stroke="midnightblue" d="M343.41,-112.32C354.11,-104.18 370.34,-91.84 383.16,-82.09"/>
<polygon fill="midnightblue" stroke="midnightblue" points="385.54,-84.67 391.39,-75.83 381.31,-79.1 385.54,-84.67"/>
</g>
<!-- Node12&#45;&gt;Node6 -->
<g id="edge14" class="edge">
<title>Node12&#45;&gt;Node6</title>
<path fill="none" stroke="midnightblue" d="M372.23,-113.66C429.07,-103.29 532.25,-84.47 588.62,-74.18"/>
<polygon fill="midnightblue" stroke="midnightblue" points="589.37,-77.6 598.58,-72.37 588.12,-70.72 589.37,-77.6"/>
</g>
<!-- Node12&#45;&gt;Node7 -->
<g id="edge15" class="edge">
<title>Node12&#45;&gt;Node7</title>
<path fill="none" stroke="midnightblue" d="M308.55,-112.44C283.58,-103.33 243.89,-88.85 216.05,-78.69"/>
<polygon fill="midnightblue" stroke="midnightblue" points="216.97,-75.3 206.37,-75.16 214.57,-81.88 216.97,-75.3"/>
</g>
<!-- Node12&#45;&gt;Node8 -->
<g id="edge16" class="edge">
<title>Node12&#45;&gt;Node8</title>
<path fill="none" stroke="midnightblue" d="M357.35,-112.44C384.27,-103.36 427,-88.94 457.09,-78.78"/>
<polygon fill="midnightblue" stroke="midnightblue" points="458.41,-82.03 466.77,-75.52 456.17,-75.4 458.41,-82.03"/>
</g>
<!-- Node12&#45;&gt;Node11 -->
<g id="edge17" class="edge">
<title>Node12&#45;&gt;Node11</title>
<path fill="none" stroke="midnightblue" d="M325.56,-112.08C320.05,-104.46 311.97,-93.26 305.24,-83.94"/>
<polygon fill="midnightblue" stroke="midnightblue" points="308.01,-81.81 299.32,-75.75 302.34,-85.91 308.01,-81.81"/>
</g>
<!-- Node13&#45;&gt;Node6 -->
<g id="edge19" class="edge">
<title>Node13&#45;&gt;Node6</title>
<path fill="none" stroke="midnightblue" d="M567.42,-280.44C579.15,-257.28 611.03,-191.12 624,-132 627.37,-116.63 628.26,-98.75 628.37,-85.64"/>
<polygon fill="midnightblue" stroke="midnightblue" points="631.87,-85.51 628.31,-75.53 624.87,-85.55 631.87,-85.51"/>
</g>
<!-- Node14 -->
<g id="node14" class="node">
<title>Node14</title>
<g id="a_node14"><a xlink:href="ARectangleMemory_8hpp.html" target="_top" xlink:title=" ">
<polygon fill="white" stroke="black" points="430,-168.5 430,-187.5 562,-187.5 562,-168.5 430,-168.5"/>
<text text-anchor="middle" x="496" y="-175.5" font-family="Helvetica,sans-Serif" font-size="10.00">ARectangleMemory.hpp</text>
</a>
</g>
</g>
<!-- Node13&#45;&gt;Node14 -->
<g id="edge20" class="edge">
<title>Node13&#45;&gt;Node14</title>
<path fill="none" stroke="midnightblue" d="M563.96,-280.35C565,-267.23 565.3,-241.95 555,-224 547.49,-210.91 534.5,-200.38 522.62,-192.8"/>
<polygon fill="midnightblue" stroke="midnightblue" points="524.24,-189.7 513.85,-187.59 520.66,-195.71 524.24,-189.7"/>
</g>
<!-- Node13&#45;&gt;Node15 -->
<g id="edge23" class="edge">
<title>Node13&#45;&gt;Node15</title>
<path fill="none" stroke="midnightblue" d="M550.95,-280.32C539.54,-272.11 522.17,-259.6 508.57,-249.81"/>
<polygon fill="midnightblue" stroke="midnightblue" points="510.43,-246.84 500.27,-243.83 506.34,-252.52 510.43,-246.84"/>
</g>
<!-- Node14&#45;&gt;Node8 -->
<g id="edge22" class="edge">
<title>Node14&#45;&gt;Node8</title>
<path fill="none" stroke="midnightblue" d="M505.17,-168.46C517.05,-156.3 535.41,-133.13 528,-112 524.21,-101.21 516.63,-91.08 509.4,-83.18"/>
<polygon fill="midnightblue" stroke="midnightblue" points="511.67,-80.49 502.16,-75.81 506.67,-85.4 511.67,-80.49"/>
</g>
<!-- Node14&#45;&gt;Node12 -->
<g id="edge21" class="edge">
<title>Node14&#45;&gt;Node12</title>
<path fill="none" stroke="midnightblue" d="M470.01,-168.44C442.3,-159.32 398.25,-144.81 367.38,-134.65"/>
<polygon fill="midnightblue" stroke="midnightblue" points="368.46,-131.32 357.86,-131.52 366.27,-137.97 368.46,-131.32"/>
</g>
<!-- Node15&#45;&gt;Node3 -->
<g id="edge25" class="edge">
<title>Node15&#45;&gt;Node3</title>
<path fill="none" stroke="midnightblue" d="M463.28,-224.44C437.15,-215.4 395.74,-201.06 366.42,-190.92"/>
<polygon fill="midnightblue" stroke="midnightblue" points="367.2,-187.48 356.6,-187.52 364.91,-194.1 367.2,-187.48"/>
</g>
<!-- Node15&#45;&gt;Node6 -->
<g id="edge24" class="edge">
<title>Node15&#45;&gt;Node6</title>
<path fill="none" stroke="midnightblue" d="M512.83,-224.4C530.89,-217.08 554.9,-205.04 571,-188 599.34,-158.01 615.8,-111.35 623.22,-85.62"/>
<polygon fill="midnightblue" stroke="midnightblue" points="626.67,-86.26 625.93,-75.69 619.92,-84.41 626.67,-86.26"/>
</g>
<!-- Node16&#45;&gt;Node9 -->
<g id="edge28" class="edge">
<title>Node16&#45;&gt;Node9</title>
<path fill="none" stroke="midnightblue" d="M157.45,-168.48C137.24,-161.59 111.76,-150.02 95,-132 71.05,-106.25 51.91,-84.14 73,-56 86.59,-37.87 145.12,-24.61 185.97,-17.35"/>
<polygon fill="midnightblue" stroke="midnightblue" points="186.67,-20.78 195.93,-15.63 185.49,-13.88 186.67,-20.78"/>
</g>
<!-- Node16&#45;&gt;Node12 -->
<g id="edge30" class="edge">
<title>Node16&#45;&gt;Node12</title>
<path fill="none" stroke="midnightblue" d="M211.66,-168.44C235.4,-159.48 272.91,-145.31 299.74,-135.18"/>
<polygon fill="midnightblue" stroke="midnightblue" points="301.33,-138.32 309.45,-131.52 298.86,-131.77 301.33,-138.32"/>
</g>
<!-- Node17 -->
<g id="node17" class="node">
<title>Node17</title>
<g id="a_node17"><a xlink:title=" ">
<polygon fill="white" stroke="#bfbfbf" points="104,-112.5 104,-131.5 160,-131.5 160,-112.5 104,-112.5"/>
<text text-anchor="middle" x="132" y="-119.5" font-family="Helvetica,sans-Serif" font-size="10.00">optional</text>
</a>
</g>
</g>
<!-- Node16&#45;&gt;Node17 -->
<g id="edge29" class="edge">
<title>Node16&#45;&gt;Node17</title>
<path fill="none" stroke="midnightblue" d="M179.84,-168.32C171.5,-160.42 158.97,-148.55 148.82,-138.94"/>
<polygon fill="midnightblue" stroke="midnightblue" points="150.99,-136.17 141.32,-131.83 146.18,-141.25 150.99,-136.17"/>
</g>
</g>
</svg>
