<?xml version="1.0" encoding="UTF-8" standalone="no"?>
<!DOCTYPE svg PUBLIC "-//W3C//DTD SVG 1.1//EN"
 "http://www.w3.org/Graphics/SVG/1.1/DTD/svg11.dtd">
<!-- Generated by graphviz version 2.43.0 (0)
 -->
<!-- Title: sources/APU/DSP/DSP.cpp Pages: 1 -->
<svg width="1189pt" height="420pt"
 viewBox="0.00 0.00 1188.50 420.00" xmlns="http://www.w3.org/2000/svg" xmlns:xlink="http://www.w3.org/1999/xlink">
<g id="graph0" class="graph" transform="scale(1 1) rotate(0) translate(4 416)">
<title>sources/APU/DSP/DSP.cpp</title>
<polygon fill="white" stroke="transparent" points="-4,4 -4,-416 1184.5,-416 1184.5,4 -4,4"/>
<!-- Node1 -->
<g id="node1" class="node">
<title>Node1</title>
<g id="a_node1"><a xlink:title=" ">
<polygon fill="#bfbfbf" stroke="black" points="201.5,-392.5 201.5,-411.5 342.5,-411.5 342.5,-392.5 201.5,-392.5"/>
<text text-anchor="middle" x="272" y="-399.5" font-family="Helvetica,sans-Serif" font-size="10.00">sources/APU/DSP/DSP.cpp</text>
</a>
</g>
</g>
<!-- Node2 -->
<g id="node2" class="node">
<title>Node2</title>
<g id="a_node2"><a xlink:href="DSP_8hpp.html" target="_top" xlink:title=" ">
<polygon fill="white" stroke="black" points="62,-280.5 62,-299.5 118,-299.5 118,-280.5 62,-280.5"/>
<text text-anchor="middle" x="90" y="-287.5" font-family="Helvetica,sans-Serif" font-size="10.00">DSP.hpp</text>
</a>
</g>
</g>
<!-- Node1&#45;&gt;Node2 -->
<g id="edge1" class="edge">
<title>Node1&#45;&gt;Node2</title>
<path fill="none" stroke="midnightblue" d="M257.72,-392.37C226.35,-373.41 151.22,-328 113.07,-304.94"/>
<polygon fill="midnightblue" stroke="midnightblue" points="114.58,-301.77 104.21,-299.59 110.96,-307.76 114.58,-301.77"/>
</g>
<!-- Node16 -->
<g id="node16" class="node">
<title>Node16</title>
<g id="a_node16"><a xlink:href="APU_8hpp.html" target="_top" xlink:title=" ">
<polygon fill="white" stroke="black" points="231.5,-336.5 231.5,-355.5 312.5,-355.5 312.5,-336.5 231.5,-336.5"/>
<text text-anchor="middle" x="272" y="-343.5" font-family="Helvetica,sans-Serif" font-size="10.00">APU/APU.hpp</text>
</a>
</g>
</g>
<!-- Node1&#45;&gt;Node16 -->
<g id="edge23" class="edge">
<title>Node1&#45;&gt;Node16</title>
<path fill="none" stroke="midnightblue" d="M272,-392.08C272,-385.01 272,-374.86 272,-365.99"/>
<polygon fill="midnightblue" stroke="midnightblue" points="275.5,-365.75 272,-355.75 268.5,-365.75 275.5,-365.75"/>
</g>
<!-- Node23 -->
<g id="node23" class="node">
<title>Node23</title>
<g id="a_node23"><a xlink:href="InvalidAddress_8hpp.html" target="_top" xlink:title=" ">
<polygon fill="white" stroke="black" points="905,-112.5 905,-131.5 1071,-131.5 1071,-112.5 905,-112.5"/>
<text text-anchor="middle" x="988" y="-119.5" font-family="Helvetica,sans-Serif" font-size="10.00">Exceptions/InvalidAddress.hpp</text>
</a>
</g>
</g>
<!-- Node1&#45;&gt;Node23 -->
<g id="edge46" class="edge">
<title>Node1&#45;&gt;Node23</title>
<path fill="none" stroke="midnightblue" d="M342.65,-396.24C509.69,-384.05 915,-348.55 915,-291 915,-291 915,-291 915,-233 915,-193.78 947.62,-157.84 969.25,-138.32"/>
<polygon fill="midnightblue" stroke="midnightblue" points="971.65,-140.87 976.91,-131.67 967.07,-135.58 971.65,-140.87"/>
</g>
<!-- Node3 -->
<g id="node3" class="node">
<title>Node3</title>
<g id="a_node3"><a xlink:title=" ">
<polygon fill="white" stroke="#bfbfbf" points="111,-56.5 111,-75.5 161,-75.5 161,-56.5 111,-56.5"/>
<text text-anchor="middle" x="136" y="-63.5" font-family="Helvetica,sans-Serif" font-size="10.00">cstdint</text>
</a>
</g>
</g>
<!-- Node2&#45;&gt;Node3 -->
<g id="edge2" class="edge">
<title>Node2&#45;&gt;Node3</title>
<path fill="none" stroke="midnightblue" d="M91.8,-280.3C98.57,-247.63 122.56,-131.87 132.07,-85.96"/>
<polygon fill="midnightblue" stroke="midnightblue" points="135.56,-86.39 134.16,-75.88 128.7,-84.97 135.56,-86.39"/>
</g>
<!-- Node4 -->
<g id="node4" class="node">
<title>Node4</title>
<g id="a_node4"><a xlink:title=" ">
<polygon fill="white" stroke="#bfbfbf" points="0,-224.5 0,-243.5 42,-243.5 42,-224.5 0,-224.5"/>
<text text-anchor="middle" x="21" y="-231.5" font-family="Helvetica,sans-Serif" font-size="10.00">array</text>
</a>
</g>
</g>
<!-- Node2&#45;&gt;Node4 -->
<g id="edge3" class="edge">
<title>Node2&#45;&gt;Node4</title>
<path fill="none" stroke="midnightblue" d="M78.91,-280.32C68.51,-272.18 52.74,-259.84 40.28,-250.09"/>
<polygon fill="midnightblue" stroke="midnightblue" points="42.32,-247.24 32.29,-243.83 38.01,-252.75 42.32,-247.24"/>
</g>
<!-- Node5 -->
<g id="node5" class="node">
<title>Node5</title>
<g id="a_node5"><a xlink:href="IRenderer_8hpp.html" target="_top" xlink:title=" ">
<polygon fill="white" stroke="black" points="275.5,-224.5 275.5,-243.5 406.5,-243.5 406.5,-224.5 275.5,-224.5"/>
<text text-anchor="middle" x="341" y="-231.5" font-family="Helvetica,sans-Serif" font-size="10.00">Renderer/IRenderer.hpp</text>
</a>
</g>
</g>
<!-- Node2&#45;&gt;Node5 -->
<g id="edge4" class="edge">
<title>Node2&#45;&gt;Node5</title>
<path fill="none" stroke="midnightblue" d="M118.3,-282.91C160.25,-273.89 239.53,-256.83 291.3,-245.69"/>
<polygon fill="midnightblue" stroke="midnightblue" points="292.22,-249.07 301.26,-243.55 290.75,-242.23 292.22,-249.07"/>
</g>
<!-- Node8 -->
<g id="node8" class="node">
<title>Node8</title>
<g id="a_node8"><a xlink:href="AMemory_8hpp.html" target="_top" xlink:title=" ">
<polygon fill="white" stroke="black" points="183.5,-168.5 183.5,-187.5 310.5,-187.5 310.5,-168.5 183.5,-168.5"/>
<text text-anchor="middle" x="247" y="-175.5" font-family="Helvetica,sans-Serif" font-size="10.00">Memory/AMemory.hpp</text>
</a>
</g>
</g>
<!-- Node2&#45;&gt;Node8 -->
<g id="edge7" class="edge">
<title>Node2&#45;&gt;Node8</title>
<path fill="none" stroke="midnightblue" d="M102.32,-280.37C129.15,-261.57 193.09,-216.77 226.26,-193.53"/>
<polygon fill="midnightblue" stroke="midnightblue" points="228.56,-196.2 234.74,-187.59 224.54,-190.46 228.56,-196.2"/>
</g>
<!-- Node6 -->
<g id="node6" class="node">
<title>Node6</title>
<g id="a_node6"><a xlink:title=" ">
<polygon fill="white" stroke="#bfbfbf" points="543,-56.5 543,-75.5 587,-75.5 587,-56.5 543,-56.5"/>
<text text-anchor="middle" x="565" y="-63.5" font-family="Helvetica,sans-Serif" font-size="10.00">string</text>
</a>
</g>
</g>
<!-- Node5&#45;&gt;Node6 -->
<g id="edge5" class="edge">
<title>Node5&#45;&gt;Node6</title>
<path fill="none" stroke="midnightblue" d="M340.87,-224.25C341.13,-210.54 343.62,-183.94 358,-168 388.52,-134.16 412.86,-151.58 454,-132 486.29,-116.63 521.61,-95.06 543.54,-81.05"/>
<polygon fill="midnightblue" stroke="midnightblue" points="545.56,-83.92 552.07,-75.56 541.77,-78.03 545.56,-83.92"/>
</g>
<!-- Node7 -->
<g id="node7" class="node">
<title>Node7</title>
<g id="a_node7"><a xlink:title=" ">
<polygon fill="white" stroke="#bfbfbf" points="367,-168.5 367,-187.5 407,-187.5 407,-168.5 367,-168.5"/>
<text text-anchor="middle" x="387" y="-175.5" font-family="Helvetica,sans-Serif" font-size="10.00">span</text>
</a>
</g>
</g>
<!-- Node5&#45;&gt;Node7 -->
<g id="edge6" class="edge">
<title>Node5&#45;&gt;Node7</title>
<path fill="none" stroke="midnightblue" d="M348.6,-224.08C355.23,-216.3 365.02,-204.8 373.06,-195.37"/>
<polygon fill="midnightblue" stroke="midnightblue" points="375.73,-197.63 379.55,-187.75 370.4,-193.09 375.73,-197.63"/>
</g>
<!-- Node8&#45;&gt;Node3 -->
<g id="edge8" class="edge">
<title>Node8&#45;&gt;Node3</title>
<path fill="none" stroke="midnightblue" d="M238.29,-168.37C219.65,-149.89 175.65,-106.29 151.89,-82.74"/>
<polygon fill="midnightblue" stroke="midnightblue" points="154.24,-80.14 144.67,-75.59 149.31,-85.12 154.24,-80.14"/>
</g>
<!-- Node8&#45;&gt;Node6 -->
<g id="edge11" class="edge">
<title>Node8&#45;&gt;Node6</title>
<path fill="none" stroke="midnightblue" d="M285.18,-168.47C319.55,-160.39 371.23,-147.25 415,-132 459.06,-116.64 508.4,-94.2 538.06,-80.11"/>
<polygon fill="midnightblue" stroke="midnightblue" points="539.82,-83.15 547.33,-75.67 536.8,-76.83 539.82,-83.15"/>
</g>
<!-- Node9 -->
<g id="node9" class="node">
<title>Node9</title>
<g id="a_node9"><a xlink:title=" ">
<polygon fill="white" stroke="#bfbfbf" points="410.5,-56.5 410.5,-75.5 457.5,-75.5 457.5,-56.5 410.5,-56.5"/>
<text text-anchor="middle" x="434" y="-63.5" font-family="Helvetica,sans-Serif" font-size="10.00">vector</text>
</a>
</g>
</g>
<!-- Node8&#45;&gt;Node9 -->
<g id="edge9" class="edge">
<title>Node8&#45;&gt;Node9</title>
<path fill="none" stroke="midnightblue" d="M254.35,-168.3C266.27,-154.66 291.11,-128.15 317,-112 331.33,-103.06 371.29,-88.42 400.53,-78.28"/>
<polygon fill="midnightblue" stroke="midnightblue" points="402.05,-81.46 410.37,-74.89 399.77,-74.84 402.05,-81.46"/>
</g>
<!-- Node10 -->
<g id="node10" class="node">
<title>Node10</title>
<g id="a_node10"><a xlink:title=" ">
<polygon fill="white" stroke="#bfbfbf" points="179,-56.5 179,-75.5 237,-75.5 237,-56.5 179,-56.5"/>
<text text-anchor="middle" x="208" y="-63.5" font-family="Helvetica,sans-Serif" font-size="10.00">memory</text>
</a>
</g>
</g>
<!-- Node8&#45;&gt;Node10 -->
<g id="edge10" class="edge">
<title>Node8&#45;&gt;Node10</title>
<path fill="none" stroke="midnightblue" d="M243.94,-168.37C237.62,-150.54 223,-109.3 214.48,-85.27"/>
<polygon fill="midnightblue" stroke="midnightblue" points="217.69,-83.85 211.05,-75.59 211.09,-86.19 217.69,-83.85"/>
</g>
<!-- Node11 -->
<g id="node11" class="node">
<title>Node11</title>
<g id="a_node11"><a xlink:href="Ints_8hpp.html" target="_top" xlink:title=" ">
<polygon fill="white" stroke="black" points="641,-56.5 641,-75.5 735,-75.5 735,-56.5 641,-56.5"/>
<text text-anchor="middle" x="688" y="-63.5" font-family="Helvetica,sans-Serif" font-size="10.00">Models/Ints.hpp</text>
</a>
</g>
</g>
<!-- Node8&#45;&gt;Node11 -->
<g id="edge12" class="edge">
<title>Node8&#45;&gt;Node11</title>
<path fill="none" stroke="midnightblue" d="M289.58,-168.48C331.55,-159.91 397.41,-146 454,-132 523.4,-114.83 603.52,-91.89 649.72,-78.36"/>
<polygon fill="midnightblue" stroke="midnightblue" points="650.71,-81.71 659.32,-75.53 648.74,-75 650.71,-81.71"/>
</g>
<!-- Node14 -->
<g id="node14" class="node">
<title>Node14</title>
<g id="a_node14"><a xlink:href="Components_8hpp.html" target="_top" xlink:title=" ">
<polygon fill="white" stroke="black" points="255.5,-56.5 255.5,-75.5 392.5,-75.5 392.5,-56.5 255.5,-56.5"/>
<text text-anchor="middle" x="324" y="-63.5" font-family="Helvetica,sans-Serif" font-size="10.00">Models/Components.hpp</text>
</a>
</g>
</g>
<!-- Node8&#45;&gt;Node14 -->
<g id="edge15" class="edge">
<title>Node8&#45;&gt;Node14</title>
<path fill="none" stroke="midnightblue" d="M251.25,-168.24C257.62,-155.41 270.38,-130.99 284,-112 291.31,-101.81 300.56,-91.28 308.32,-82.98"/>
<polygon fill="midnightblue" stroke="midnightblue" points="311.08,-85.15 315.46,-75.5 306.02,-80.32 311.08,-85.15"/>
</g>
<!-- Node15 -->
<g id="node15" class="node">
<title>Node15</title>
<g id="a_node15"><a xlink:href="IMemory_8hpp.html" target="_top" xlink:title=" ">
<polygon fill="white" stroke="black" points="326,-112.5 326,-131.5 406,-131.5 406,-112.5 326,-112.5"/>
<text text-anchor="middle" x="366" y="-119.5" font-family="Helvetica,sans-Serif" font-size="10.00">IMemory.hpp</text>
</a>
</g>
</g>
<!-- Node8&#45;&gt;Node15 -->
<g id="edge16" class="edge">
<title>Node8&#45;&gt;Node15</title>
<path fill="none" stroke="midnightblue" d="M265.86,-168.44C285.27,-159.64 315.73,-145.81 337.96,-135.72"/>
<polygon fill="midnightblue" stroke="midnightblue" points="339.57,-138.84 347.23,-131.52 336.68,-132.46 339.57,-138.84"/>
</g>
<!-- Node12 -->
<g id="node12" class="node">
<title>Node12</title>
<g id="a_node12"><a xlink:title=" ">
<polygon fill="white" stroke="#bfbfbf" points="762,-0.5 762,-19.5 824,-19.5 824,-0.5 762,-0.5"/>
<text text-anchor="middle" x="793" y="-7.5" font-family="Helvetica,sans-Serif" font-size="10.00">cinttypes</text>
</a>
</g>
</g>
<!-- Node11&#45;&gt;Node12 -->
<g id="edge13" class="edge">
<title>Node11&#45;&gt;Node12</title>
<path fill="none" stroke="midnightblue" d="M704.87,-56.32C721.71,-47.66 747.81,-34.24 767.24,-24.25"/>
<polygon fill="midnightblue" stroke="midnightblue" points="768.88,-27.34 776.17,-19.65 765.68,-21.12 768.88,-27.34"/>
</g>
<!-- Node13 -->
<g id="node13" class="node">
<title>Node13</title>
<g id="a_node13"><a xlink:title=" ">
<polygon fill="white" stroke="#bfbfbf" points="658,-0.5 658,-19.5 718,-19.5 718,-0.5 658,-0.5"/>
<text text-anchor="middle" x="688" y="-7.5" font-family="Helvetica,sans-Serif" font-size="10.00">iostream</text>
</a>
</g>
</g>
<!-- Node11&#45;&gt;Node13 -->
<g id="edge14" class="edge">
<title>Node11&#45;&gt;Node13</title>
<path fill="none" stroke="midnightblue" d="M688,-56.08C688,-49.01 688,-38.86 688,-29.99"/>
<polygon fill="midnightblue" stroke="midnightblue" points="691.5,-29.75 688,-19.75 684.5,-29.75 691.5,-29.75"/>
</g>
<!-- Node15&#45;&gt;Node3 -->
<g id="edge17" class="edge">
<title>Node15&#45;&gt;Node3</title>
<path fill="none" stroke="midnightblue" d="M327.23,-112.5C289.72,-104.18 231,-90.93 171.22,-76.24"/>
<polygon fill="midnightblue" stroke="midnightblue" points="171.77,-72.78 161.23,-73.78 170.1,-79.57 171.77,-72.78"/>
</g>
<!-- Node15&#45;&gt;Node6 -->
<g id="edge20" class="edge">
<title>Node15&#45;&gt;Node6</title>
<path fill="none" stroke="midnightblue" d="M397.53,-112.44C434.6,-102.39 495.77,-85.79 533.02,-75.68"/>
<polygon fill="midnightblue" stroke="midnightblue" points="534.12,-79.01 542.86,-73.01 532.29,-72.25 534.12,-79.01"/>
</g>
<!-- Node15&#45;&gt;Node9 -->
<g id="edge18" class="edge">
<title>Node15&#45;&gt;Node9</title>
<path fill="none" stroke="midnightblue" d="M376.93,-112.32C387.17,-104.18 402.72,-91.84 415,-82.09"/>
<polygon fill="midnightblue" stroke="midnightblue" points="417.22,-84.79 422.88,-75.83 412.87,-79.31 417.22,-84.79"/>
</g>
<!-- Node15&#45;&gt;Node10 -->
<g id="edge19" class="edge">
<title>Node15&#45;&gt;Node10</title>
<path fill="none" stroke="midnightblue" d="M340.96,-112.44C314.38,-103.36 272.19,-88.94 242.48,-78.78"/>
<polygon fill="midnightblue" stroke="midnightblue" points="243.51,-75.44 232.92,-75.52 241.25,-82.06 243.51,-75.44"/>
</g>
<!-- Node15&#45;&gt;Node11 -->
<g id="edge21" class="edge">
<title>Node15&#45;&gt;Node11</title>
<path fill="none" stroke="midnightblue" d="M406.13,-114.27C462.7,-104.78 566.19,-87.43 630.8,-76.59"/>
<polygon fill="midnightblue" stroke="midnightblue" points="631.54,-80.02 640.82,-74.91 630.38,-73.11 631.54,-80.02"/>
</g>
<!-- Node15&#45;&gt;Node14 -->
<g id="edge22" class="edge">
<title>Node15&#45;&gt;Node14</title>
<path fill="none" stroke="midnightblue" d="M359.06,-112.08C353.07,-104.38 344.25,-93.03 336.95,-83.65"/>
<polygon fill="midnightblue" stroke="midnightblue" points="339.71,-81.5 330.81,-75.75 334.18,-85.79 339.71,-81.5"/>
</g>
<!-- Node16&#45;&gt;Node2 -->
<g id="edge25" class="edge">
<title>Node16&#45;&gt;Node2</title>
<path fill="none" stroke="midnightblue" d="M243.16,-336.44C211.96,-327.19 162.09,-312.39 127.78,-302.21"/>
<polygon fill="midnightblue" stroke="midnightblue" points="128.69,-298.83 118.11,-299.34 126.7,-305.54 128.69,-298.83"/>
</g>
<!-- Node16&#45;&gt;Node5 -->
<g id="edge36" class="edge">
<title>Node16&#45;&gt;Node5</title>
<path fill="none" stroke="midnightblue" d="M277.41,-336.37C288.75,-318.3 315.17,-276.18 330.14,-252.31"/>
<polygon fill="midnightblue" stroke="midnightblue" points="333.26,-253.92 335.61,-243.59 327.33,-250.2 333.26,-253.92"/>
</g>
<!-- Node16&#45;&gt;Node8 -->
<g id="edge26" class="edge">
<title>Node16&#45;&gt;Node8</title>
<path fill="none" stroke="midnightblue" d="M270.66,-336.08C266.72,-309.95 255.16,-233.21 249.8,-197.58"/>
<polygon fill="midnightblue" stroke="midnightblue" points="253.24,-196.94 248.29,-187.57 246.32,-197.98 253.24,-196.94"/>
</g>
<!-- Node16&#45;&gt;Node10 -->
<g id="edge24" class="edge">
<title>Node16&#45;&gt;Node10</title>
<path fill="none" stroke="midnightblue" d="M231.33,-336.6C209.23,-330.08 183.01,-318.85 166,-300 145.76,-277.56 146,-265.23 146,-235 146,-235 146,-235 146,-177 146,-139.62 173.5,-103.24 191.87,-83.1"/>
<polygon fill="midnightblue" stroke="midnightblue" points="194.51,-85.41 198.85,-75.75 189.43,-80.59 194.51,-85.41"/>
</g>
<!-- Node17 -->
<g id="node17" class="node">
<title>Node17</title>
<g id="a_node17"><a xlink:href="Ram_8hpp.html" target="_top" xlink:title=" ">
<polygon fill="white" stroke="black" points="463,-224.5 463,-243.5 549,-243.5 549,-224.5 463,-224.5"/>
<text text-anchor="middle" x="506" y="-231.5" font-family="Helvetica,sans-Serif" font-size="10.00">Ram/Ram.hpp</text>
</a>
</g>
</g>
<!-- Node16&#45;&gt;Node17 -->
<g id="edge27" class="edge">
<title>Node16&#45;&gt;Node17</title>
<path fill="none" stroke="midnightblue" d="M290.36,-336.37C331.29,-317.13 430.17,-270.65 478.49,-247.93"/>
<polygon fill="midnightblue" stroke="midnightblue" points="480.16,-251.01 487.72,-243.59 477.18,-244.68 480.16,-251.01"/>
</g>
<!-- Node19 -->
<g id="node19" class="node">
<title>Node19</title>
<g id="a_node19"><a xlink:href="IPL_8hpp.html" target="_top" xlink:title=" ">
<polygon fill="white" stroke="black" points="174.5,-280.5 174.5,-299.5 243.5,-299.5 243.5,-280.5 174.5,-280.5"/>
<text text-anchor="middle" x="209" y="-287.5" font-family="Helvetica,sans-Serif" font-size="10.00">IPL/IPL.hpp</text>
</a>
</g>
</g>
<!-- Node16&#45;&gt;Node19 -->
<g id="edge34" class="edge">
<title>Node16&#45;&gt;Node19</title>
<path fill="none" stroke="midnightblue" d="M261.88,-336.32C252.47,-328.26 238.26,-316.08 226.93,-306.37"/>
<polygon fill="midnightblue" stroke="midnightblue" points="229.18,-303.68 219.31,-299.83 224.62,-309 229.18,-303.68"/>
</g>
<!-- Node20 -->
<g id="node20" class="node">
<title>Node20</title>
<g id="a_node20"><a xlink:href="Cartridge_8hpp.html" target="_top" xlink:title=" ">
<polygon fill="white" stroke="black" points="566.5,-280.5 566.5,-299.5 697.5,-299.5 697.5,-280.5 566.5,-280.5"/>
<text text-anchor="middle" x="632" y="-287.5" font-family="Helvetica,sans-Serif" font-size="10.00">Cartridge/Cartridge.hpp</text>
</a>
</g>
</g>
<!-- Node16&#45;&gt;Node20 -->
<g id="edge37" class="edge">
<title>Node16&#45;&gt;Node20</title>
<path fill="none" stroke="midnightblue" d="M312.6,-338.91C373.98,-329.7 491.08,-312.14 565.16,-301.03"/>
<polygon fill="midnightblue" stroke="midnightblue" points="565.95,-304.45 575.32,-299.5 564.91,-297.52 565.95,-304.45"/>
</g>
<!-- Node17&#45;&gt;Node6 -->
<g id="edge31" class="edge">
<title>Node17&#45;&gt;Node6</title>
<path fill="none" stroke="midnightblue" d="M500.42,-224.34C492.75,-211.22 481.06,-185.93 492,-168 510.22,-138.14 543.09,-161.44 562,-132 570.77,-118.35 570.64,-99.56 568.84,-85.69"/>
<polygon fill="midnightblue" stroke="midnightblue" points="572.29,-85.1 567.18,-75.82 565.39,-86.26 572.29,-85.1"/>
</g>
<!-- Node17&#45;&gt;Node7 -->
<g id="edge32" class="edge">
<title>Node17&#45;&gt;Node7</title>
<path fill="none" stroke="midnightblue" d="M487.14,-224.44C467.73,-215.64 437.27,-201.81 415.04,-191.72"/>
<polygon fill="midnightblue" stroke="midnightblue" points="416.32,-188.46 405.77,-187.52 413.43,-194.84 416.32,-188.46"/>
</g>
<!-- Node17&#45;&gt;Node9 -->
<g id="edge33" class="edge">
<title>Node17&#45;&gt;Node9</title>
<path fill="none" stroke="midnightblue" d="M501.36,-224.48C496.55,-215.51 488.91,-200.93 483,-188 466.58,-152.07 449.8,-108.97 440.77,-85.13"/>
<polygon fill="midnightblue" stroke="midnightblue" points="443.99,-83.74 437.19,-75.62 437.44,-86.21 443.99,-83.74"/>
</g>
<!-- Node18 -->
<g id="node18" class="node">
<title>Node18</title>
<g id="a_node18"><a xlink:href="ARectangleMemory_8hpp.html" target="_top" xlink:title=" ">
<polygon fill="white" stroke="black" points="501,-168.5 501,-187.5 677,-187.5 677,-168.5 501,-168.5"/>
<text text-anchor="middle" x="589" y="-175.5" font-family="Helvetica,sans-Serif" font-size="10.00">Memory/ARectangleMemory.hpp</text>
</a>
</g>
</g>
<!-- Node17&#45;&gt;Node18 -->
<g id="edge28" class="edge">
<title>Node17&#45;&gt;Node18</title>
<path fill="none" stroke="midnightblue" d="M519.34,-224.32C532.16,-215.98 551.78,-203.21 566.94,-193.35"/>
<polygon fill="midnightblue" stroke="midnightblue" points="569.22,-196.04 575.7,-187.65 565.41,-190.17 569.22,-196.04"/>
</g>
<!-- Node18&#45;&gt;Node11 -->
<g id="edge30" class="edge">
<title>Node18&#45;&gt;Node11</title>
<path fill="none" stroke="midnightblue" d="M596.77,-168.37C613.32,-149.97 652.3,-106.67 673.55,-83.05"/>
<polygon fill="midnightblue" stroke="midnightblue" points="676.18,-85.37 680.27,-75.59 670.98,-80.68 676.18,-85.37"/>
</g>
<!-- Node18&#45;&gt;Node15 -->
<g id="edge29" class="edge">
<title>Node18&#45;&gt;Node15</title>
<path fill="none" stroke="midnightblue" d="M553.66,-168.44C515.09,-159.1 453.22,-144.12 411.15,-133.93"/>
<polygon fill="midnightblue" stroke="midnightblue" points="411.71,-130.47 401.17,-131.52 410.07,-137.27 411.71,-130.47"/>
</g>
<!-- Node19&#45;&gt;Node8 -->
<g id="edge35" class="edge">
<title>Node19&#45;&gt;Node8</title>
<path fill="none" stroke="midnightblue" d="M211.98,-280.37C218.14,-262.54 232.39,-221.3 240.69,-197.27"/>
<polygon fill="midnightblue" stroke="midnightblue" points="244.07,-198.19 244.03,-187.59 237.46,-195.9 244.07,-198.19"/>
</g>
<!-- Node20&#45;&gt;Node6 -->
<g id="edge45" class="edge">
<title>Node20&#45;&gt;Node6</title>
<path fill="none" stroke="midnightblue" d="M641.12,-280.44C661.13,-260.59 705.6,-209.88 686,-168 666.75,-126.85 621.57,-96.59 592.2,-80.41"/>
<polygon fill="midnightblue" stroke="midnightblue" points="593.74,-77.26 583.27,-75.65 590.45,-83.44 593.74,-77.26"/>
</g>
<!-- Node20&#45;&gt;Node8 -->
<g id="edge40" class="edge">
<title>Node20&#45;&gt;Node8</title>
<path fill="none" stroke="midnightblue" d="M585.72,-280.44C549.24,-272.95 497.45,-260.66 454,-244 436.18,-237.17 433.78,-230.94 416,-224 378.07,-209.18 333.49,-197.54 299.65,-189.81"/>
<polygon fill="midnightblue" stroke="midnightblue" points="300.03,-186.31 289.51,-187.54 298.5,-193.14 300.03,-186.31"/>
</g>
<!-- Node20&#45;&gt;Node11 -->
<g id="edge42" class="edge">
<title>Node20&#45;&gt;Node11</title>
<path fill="none" stroke="midnightblue" d="M667.01,-280.45C685.93,-273.84 707.68,-262.59 719,-244 749.5,-193.89 736.43,-168.02 719,-112 715.77,-101.62 709.22,-91.52 702.98,-83.53"/>
<polygon fill="midnightblue" stroke="midnightblue" points="705.58,-81.19 696.48,-75.77 700.21,-85.68 705.58,-81.19"/>
</g>
<!-- Node20&#45;&gt;Node17 -->
<g id="edge43" class="edge">
<title>Node20&#45;&gt;Node17</title>
<path fill="none" stroke="midnightblue" d="M612.03,-280.44C591.39,-271.6 558.94,-257.69 535.37,-247.59"/>
<polygon fill="midnightblue" stroke="midnightblue" points="536.44,-244.24 525.87,-243.52 533.68,-250.67 536.44,-244.24"/>
</g>
<!-- Node20&#45;&gt;Node18 -->
<g id="edge41" class="edge">
<title>Node20&#45;&gt;Node18</title>
<path fill="none" stroke="midnightblue" d="M636.88,-280.15C643.32,-267.22 652.85,-242.67 644,-224 637.87,-211.07 626.01,-200.62 614.86,-193.05"/>
<polygon fill="midnightblue" stroke="midnightblue" points="616.53,-189.97 606.2,-187.61 612.81,-195.9 616.53,-189.97"/>
</g>
<!-- Node21 -->
<g id="node21" class="node">
<title>Node21</title>
<g id="a_node21"><a xlink:href="InterruptVectors_8hpp.html" target="_top" xlink:title=" ">
<polygon fill="white" stroke="black" points="771,-112.5 771,-131.5 887,-131.5 887,-112.5 771,-112.5"/>
<text text-anchor="middle" x="829" y="-119.5" font-family="Helvetica,sans-Serif" font-size="10.00">InterruptVectors.hpp</text>
</a>
</g>
</g>
<!-- Node20&#45;&gt;Node21 -->
<g id="edge38" class="edge">
<title>Node20&#45;&gt;Node21</title>
<path fill="none" stroke="midnightblue" d="M678.02,-280.44C703.46,-273.86 734.4,-262.64 757,-244 790.97,-215.97 812.79,-167.46 822.73,-141.18"/>
<polygon fill="midnightblue" stroke="midnightblue" points="826.05,-142.29 826.17,-131.7 819.47,-139.91 826.05,-142.29"/>
</g>
<!-- Node22 -->
<g id="node22" class="node">
<title>Node22</title>
<g id="a_node22"><a xlink:title=" ">
<polygon fill="white" stroke="#bfbfbf" points="567,-224.5 567,-243.5 635,-243.5 635,-224.5 567,-224.5"/>
<text text-anchor="middle" x="601" y="-231.5" font-family="Helvetica,sans-Serif" font-size="10.00">filesystem</text>
</a>
</g>
</g>
<!-- Node20&#45;&gt;Node22 -->
<g id="edge44" class="edge">
<title>Node20&#45;&gt;Node22</title>
<path fill="none" stroke="midnightblue" d="M626.88,-280.08C622.59,-272.61 616.34,-261.72 611.06,-252.52"/>
<polygon fill="midnightblue" stroke="midnightblue" points="614.04,-250.68 606.02,-243.75 607.97,-254.17 614.04,-250.68"/>
</g>
<!-- Node21&#45;&gt;Node12 -->
<g id="edge39" class="edge">
<title>Node21&#45;&gt;Node12</title>
<path fill="none" stroke="midnightblue" d="M826.18,-112.37C820.34,-94.54 806.84,-53.3 798.98,-29.27"/>
<polygon fill="midnightblue" stroke="midnightblue" points="802.25,-28.01 795.81,-19.59 795.6,-30.18 802.25,-28.01"/>
</g>
<!-- Node23&#45;&gt;Node6 -->
<g id="edge53" class="edge">
<title>Node23&#45;&gt;Node6</title>
<path fill="none" stroke="midnightblue" d="M919.4,-112.49C847.7,-103.56 731.92,-89.03 632,-76 620.62,-74.52 608.16,-72.85 597.11,-71.37"/>
<polygon fill="midnightblue" stroke="midnightblue" points="597.4,-67.87 587.02,-70 596.46,-74.81 597.4,-67.87"/>
</g>
<!-- Node23&#45;&gt;Node11 -->
<g id="edge49" class="edge">
<title>Node23&#45;&gt;Node11</title>
<path fill="none" stroke="midnightblue" d="M940.46,-112.44C887.47,-102.9 801.8,-87.48 745.18,-77.29"/>
<polygon fill="midnightblue" stroke="midnightblue" points="745.78,-73.84 735.31,-75.52 744.54,-80.73 745.78,-73.84"/>
</g>
<!-- Node24 -->
<g id="node24" class="node">
<title>Node24</title>
<g id="a_node24"><a xlink:href="DebuggableError_8hpp.html" target="_top" xlink:title=" ">
<polygon fill="white" stroke="black" points="1061.5,-56.5 1061.5,-75.5 1180.5,-75.5 1180.5,-56.5 1061.5,-56.5"/>
<text text-anchor="middle" x="1121" y="-63.5" font-family="Helvetica,sans-Serif" font-size="10.00">DebuggableError.hpp</text>
</a>
</g>
</g>
<!-- Node23&#45;&gt;Node24 -->
<g id="edge47" class="edge">
<title>Node23&#45;&gt;Node24</title>
<path fill="none" stroke="midnightblue" d="M1009.07,-112.44C1031.06,-103.52 1065.73,-89.44 1090.66,-79.32"/>
<polygon fill="midnightblue" stroke="midnightblue" points="1092.08,-82.52 1100.02,-75.52 1089.44,-76.04 1092.08,-82.52"/>
</g>
<!-- Node26 -->
<g id="node26" class="node">
<title>Node26</title>
<g id="a_node26"><a xlink:title=" ">
<polygon fill="white" stroke="#bfbfbf" points="854.5,-56.5 854.5,-75.5 919.5,-75.5 919.5,-56.5 854.5,-56.5"/>
<text text-anchor="middle" x="887" y="-63.5" font-family="Helvetica,sans-Serif" font-size="10.00">exception</text>
</a>
</g>
</g>
<!-- Node23&#45;&gt;Node26 -->
<g id="edge50" class="edge">
<title>Node23&#45;&gt;Node26</title>
<path fill="none" stroke="midnightblue" d="M971.77,-112.32C955.65,-103.7 930.7,-90.36 912.04,-80.39"/>
<polygon fill="midnightblue" stroke="midnightblue" points="913.66,-77.28 903.19,-75.65 910.36,-83.46 913.66,-77.28"/>
</g>
<!-- Node27 -->
<g id="node27" class="node">
<title>Node27</title>
<g id="a_node27"><a xlink:title=" ">
<polygon fill="white" stroke="#bfbfbf" points="937.5,-56.5 937.5,-75.5 968.5,-75.5 968.5,-56.5 937.5,-56.5"/>
<text text-anchor="middle" x="953" y="-63.5" font-family="Helvetica,sans-Serif" font-size="10.00">ios</text>
</a>
</g>
</g>
<!-- Node23&#45;&gt;Node27 -->
<g id="edge51" class="edge">
<title>Node23&#45;&gt;Node27</title>
<path fill="none" stroke="midnightblue" d="M982.22,-112.08C977.33,-104.53 970.17,-93.49 964.17,-84.23"/>
<polygon fill="midnightblue" stroke="midnightblue" points="967.05,-82.24 958.67,-75.75 961.17,-86.05 967.05,-82.24"/>
</g>
<!-- Node28 -->
<g id="node28" class="node">
<title>Node28</title>
<g id="a_node28"><a xlink:title=" ">
<polygon fill="white" stroke="#bfbfbf" points="987,-56.5 987,-75.5 1043,-75.5 1043,-56.5 987,-56.5"/>
<text text-anchor="middle" x="1015" y="-63.5" font-family="Helvetica,sans-Serif" font-size="10.00">sstream</text>
</a>
</g>
</g>
<!-- Node23&#45;&gt;Node28 -->
<g id="edge52" class="edge">
<title>Node23&#45;&gt;Node28</title>
<path fill="none" stroke="midnightblue" d="M992.46,-112.08C996.15,-104.69 1001.52,-93.95 1006.09,-84.81"/>
<polygon fill="midnightblue" stroke="midnightblue" points="1009.28,-86.26 1010.62,-75.75 1003.02,-83.13 1009.28,-86.26"/>
</g>
<!-- Node25 -->
<g id="node25" class="node">
<title>Node25</title>
<g id="a_node25"><a xlink:title=" ">
<polygon fill="white" stroke="#bfbfbf" points="1073.5,-0.5 1073.5,-19.5 1168.5,-19.5 1168.5,-0.5 1073.5,-0.5"/>
<text text-anchor="middle" x="1121" y="-7.5" font-family="Helvetica,sans-Serif" font-size="10.00">bits/exception.h</text>
</a>
</g>
</g>
<!-- Node24&#45;&gt;Node25 -->
<g id="edge48" class="edge">
<title>Node24&#45;&gt;Node25</title>
<path fill="none" stroke="midnightblue" d="M1121,-56.08C1121,-49.01 1121,-38.86 1121,-29.99"/>
<polygon fill="midnightblue" stroke="midnightblue" points="1124.5,-29.75 1121,-19.75 1117.5,-29.75 1124.5,-29.75"/>
</g>
</g>
</svg>
