<?xml version="1.0" encoding="UTF-8" standalone="no"?>
<!DOCTYPE svg PUBLIC "-//W3C//DTD SVG 1.1//EN"
 "http://www.w3.org/Graphics/SVG/1.1/DTD/svg11.dtd">
<!-- Generated by graphviz version 2.43.0 (0)
 -->
<!-- Title: sources/APU/DSP/DSP.hpp Pages: 1 -->
<svg width="5449pt" height="285pt"
 viewBox="0.00 0.00 5448.50 285.00" xmlns="http://www.w3.org/2000/svg" xmlns:xlink="http://www.w3.org/1999/xlink">
<g id="graph0" class="graph" transform="scale(1 1) rotate(0) translate(4 281)">
<title>sources/APU/DSP/DSP.hpp</title>
<polygon fill="white" stroke="transparent" points="-4,4 -4,-281 5444.5,-281 5444.5,4 -4,4"/>
<!-- Node1 -->
<g id="node1" class="node">
<title>Node1</title>
<g id="a_node1"><a xlink:title=" ">
<polygon fill="#bfbfbf" stroke="black" points="1931.5,-257.5 1931.5,-276.5 2073.5,-276.5 2073.5,-257.5 1931.5,-257.5"/>
<text text-anchor="middle" x="2002.5" y="-264.5" font-family="Helvetica,sans-Serif" font-size="10.00">sources/APU/DSP/DSP.hpp</text>
</a>
</g>
</g>
<!-- Node2 -->
<g id="node2" class="node">
<title>Node2</title>
<g id="a_node2"><a xlink:href="APU_8hpp.html" target="_top" xlink:title=" ">
<polygon fill="white" stroke="black" points="1709.5,-201.5 1709.5,-220.5 1831.5,-220.5 1831.5,-201.5 1709.5,-201.5"/>
<text text-anchor="middle" x="1770.5" y="-208.5" font-family="Helvetica,sans-Serif" font-size="10.00">sources/APU/APU.hpp</text>
</a>
</g>
</g>
<!-- Node1&#45;&gt;Node2 -->
<g id="edge1" class="edge">
<title>Node1&#45;&gt;Node2</title>
<path fill="none" stroke="midnightblue" d="M1955.9,-255.15C1912.06,-244.95 1847.32,-229.88 1807.09,-220.52"/>
<polygon fill="midnightblue" stroke="midnightblue" points="1955.21,-258.59 1965.74,-257.44 1956.79,-251.77 1955.21,-258.59"/>
</g>
<!-- Node4 -->
<g id="node4" class="node">
<title>Node4</title>
<g id="a_node4"><a xlink:href="DSP_8cpp.html" target="_top" xlink:title=" ">
<polygon fill="white" stroke="black" points="0,-140 0,-159 141,-159 141,-140 0,-140"/>
<text text-anchor="middle" x="70.5" y="-147" font-family="Helvetica,sans-Serif" font-size="10.00">sources/APU/DSP/DSP.cpp</text>
</a>
</g>
</g>
<!-- Node1&#45;&gt;Node4 -->
<g id="edge58" class="edge">
<title>Node1&#45;&gt;Node4</title>
<path fill="none" stroke="midnightblue" d="M1921.04,-265.22C1713.97,-262.81 1150.68,-253.53 682.5,-221 444.88,-204.49 385.26,-198.97 149.5,-165 137.77,-163.31 125.12,-161.14 113.45,-159"/>
<polygon fill="midnightblue" stroke="midnightblue" points="1921.18,-268.72 1931.22,-265.34 1921.26,-261.72 1921.18,-268.72"/>
</g>
<!-- Node5 -->
<g id="node5" class="node">
<title>Node5</title>
<g id="a_node5"><a xlink:href="Voice_8cpp.html" target="_top" xlink:title=" ">
<polygon fill="white" stroke="black" points="159,-140 159,-159 308,-159 308,-140 159,-140"/>
<text text-anchor="middle" x="233.5" y="-147" font-family="Helvetica,sans-Serif" font-size="10.00">sources/APU/DSP/Voice.cpp</text>
</a>
</g>
</g>
<!-- Node1&#45;&gt;Node5 -->
<g id="edge63" class="edge">
<title>Node1&#45;&gt;Node5</title>
<path fill="none" stroke="midnightblue" d="M1921.02,-264.32C1677.04,-258.61 931.3,-236.15 317.5,-165 304.42,-163.48 290.28,-161.27 277.4,-159.02"/>
<polygon fill="midnightblue" stroke="midnightblue" points="1921.14,-267.83 1931.22,-264.56 1921.3,-260.83 1921.14,-267.83"/>
</g>
<!-- Node58 -->
<g id="node46" class="node">
<title>Node58</title>
<g id="a_node46"><a xlink:href="BRR_8cpp.html" target="_top" xlink:title=" ">
<polygon fill="white" stroke="black" points="1850,-201.5 1850,-220.5 1993,-220.5 1993,-201.5 1850,-201.5"/>
<text text-anchor="middle" x="1921.5" y="-208.5" font-family="Helvetica,sans-Serif" font-size="10.00">sources/APU/DSP/BRR.cpp</text>
</a>
</g>
</g>
<!-- Node1&#45;&gt;Node58 -->
<g id="edge57" class="edge">
<title>Node1&#45;&gt;Node58</title>
<path fill="none" stroke="midnightblue" d="M1980.93,-251.62C1966.14,-241.76 1946.99,-228.99 1934.48,-220.65"/>
<polygon fill="midnightblue" stroke="midnightblue" points="1979.22,-254.69 1989.49,-257.32 1983.11,-248.86 1979.22,-254.69"/>
</g>
<!-- Node59 -->
<g id="node47" class="node">
<title>Node59</title>
<g id="a_node47"><a xlink:href="Echo_8cpp.html" target="_top" xlink:title=" ">
<polygon fill="white" stroke="black" points="2011.5,-201.5 2011.5,-220.5 2157.5,-220.5 2157.5,-201.5 2011.5,-201.5"/>
<text text-anchor="middle" x="2084.5" y="-208.5" font-family="Helvetica,sans-Serif" font-size="10.00">sources/APU/DSP/Echo.cpp</text>
</a>
</g>
</g>
<!-- Node1&#45;&gt;Node59 -->
<g id="edge59" class="edge">
<title>Node1&#45;&gt;Node59</title>
<path fill="none" stroke="midnightblue" d="M2024.33,-251.62C2039.31,-241.76 2058.7,-228.99 2071.36,-220.65"/>
<polygon fill="midnightblue" stroke="midnightblue" points="2022.1,-248.9 2015.67,-257.32 2025.95,-254.75 2022.1,-248.9"/>
</g>
<!-- Node60 -->
<g id="node48" class="node">
<title>Node60</title>
<g id="a_node48"><a xlink:href="Envelope_8cpp.html" target="_top" xlink:title=" ">
<polygon fill="white" stroke="black" points="2175.5,-201.5 2175.5,-220.5 2343.5,-220.5 2343.5,-201.5 2175.5,-201.5"/>
<text text-anchor="middle" x="2259.5" y="-208.5" font-family="Helvetica,sans-Serif" font-size="10.00">sources/APU/DSP/Envelope.cpp</text>
</a>
</g>
</g>
<!-- Node1&#45;&gt;Node60 -->
<g id="edge60" class="edge">
<title>Node1&#45;&gt;Node60</title>
<path fill="none" stroke="midnightblue" d="M2053.21,-255.35C2101.78,-245.14 2174.12,-229.94 2218.97,-220.52"/>
<polygon fill="midnightblue" stroke="midnightblue" points="2052.29,-251.96 2043.22,-257.44 2053.73,-258.81 2052.29,-251.96"/>
</g>
<!-- Node61 -->
<g id="node49" class="node">
<title>Node61</title>
<g id="a_node49"><a xlink:href="Gauss_8cpp.html" target="_top" xlink:title=" ">
<polygon fill="white" stroke="black" points="2362,-201.5 2362,-220.5 2515,-220.5 2515,-201.5 2362,-201.5"/>
<text text-anchor="middle" x="2438.5" y="-208.5" font-family="Helvetica,sans-Serif" font-size="10.00">sources/APU/DSP/Gauss.cpp</text>
</a>
</g>
</g>
<!-- Node1&#45;&gt;Node61 -->
<g id="edge61" class="edge">
<title>Node1&#45;&gt;Node61</title>
<path fill="none" stroke="midnightblue" d="M2081.64,-256.2C2163.95,-246 2291.5,-230.21 2369.74,-220.52"/>
<polygon fill="midnightblue" stroke="midnightblue" points="2081.08,-252.74 2071.59,-257.44 2081.94,-259.69 2081.08,-252.74"/>
</g>
<!-- Node62 -->
<g id="node50" class="node">
<title>Node62</title>
<g id="a_node50"><a xlink:href="Timer_8cpp.html" target="_top" xlink:title=" ">
<polygon fill="white" stroke="black" points="2533,-201.5 2533,-220.5 2684,-220.5 2684,-201.5 2533,-201.5"/>
<text text-anchor="middle" x="2608.5" y="-208.5" font-family="Helvetica,sans-Serif" font-size="10.00">sources/APU/DSP/Timer.cpp</text>
</a>
</g>
</g>
<!-- Node1&#45;&gt;Node62 -->
<g id="edge62" class="edge">
<title>Node1&#45;&gt;Node62</title>
<path fill="none" stroke="midnightblue" d="M2083.72,-259.47C2186.26,-251.12 2368.04,-235.94 2523.5,-221 2526.6,-220.7 2529.77,-220.39 2532.96,-220.07"/>
<polygon fill="midnightblue" stroke="midnightblue" points="2083.43,-255.99 2073.75,-260.28 2084,-262.96 2083.43,-255.99"/>
</g>
<!-- Node3 -->
<g id="node3" class="node">
<title>Node3</title>
<g id="a_node3"><a xlink:href="APU_8cpp.html" target="_top" xlink:title=" ">
<polygon fill="white" stroke="black" points="3709,-140 3709,-159 3830,-159 3830,-140 3709,-140"/>
<text text-anchor="middle" x="3769.5" y="-147" font-family="Helvetica,sans-Serif" font-size="10.00">sources/APU/APU.cpp</text>
</a>
</g>
</g>
<!-- Node2&#45;&gt;Node3 -->
<g id="edge2" class="edge">
<title>Node2&#45;&gt;Node3</title>
<path fill="none" stroke="midnightblue" d="M1841.52,-201.04C2268.72,-171.24 3292.1,-210.74 3699.5,-165 3711.09,-163.7 3723.61,-161.4 3734.81,-159.01"/>
<polygon fill="midnightblue" stroke="midnightblue" points="1841.27,-197.55 1831.54,-201.76 1841.77,-204.53 1841.27,-197.55"/>
</g>
<!-- Node2&#45;&gt;Node4 -->
<g id="edge3" class="edge">
<title>Node2&#45;&gt;Node4</title>
<path fill="none" stroke="midnightblue" d="M1699.06,-209.48C1427.11,-207.27 456.52,-197.24 149.5,-165 136.6,-163.65 122.65,-161.36 110.11,-159"/>
<polygon fill="midnightblue" stroke="midnightblue" points="1699.17,-212.98 1709.2,-209.56 1699.23,-205.98 1699.17,-212.98"/>
</g>
<!-- Node2&#45;&gt;Node5 -->
<g id="edge4" class="edge">
<title>Node2&#45;&gt;Node5</title>
<path fill="none" stroke="midnightblue" d="M1698.91,-208.37C1425.45,-202.07 455.32,-178.96 317.5,-165 303.95,-163.63 289.3,-161.37 276.07,-159.04"/>
<polygon fill="midnightblue" stroke="midnightblue" points="1699.03,-211.88 1709.11,-208.61 1699.19,-204.88 1699.03,-211.88"/>
</g>
<!-- Node6 -->
<g id="node6" class="node">
<title>Node6</title>
<g id="a_node6"><a xlink:href="16bitArithmetic_8cpp.html" target="_top" xlink:title=" ">
<polygon fill="white" stroke="black" points="3848,-134.5 3848,-164.5 3985,-164.5 3985,-134.5 3848,-134.5"/>
<text text-anchor="start" x="3856" y="-152.5" font-family="Helvetica,sans-Serif" font-size="10.00">sources/APU/Instructions</text>
<text text-anchor="middle" x="3916.5" y="-141.5" font-family="Helvetica,sans-Serif" font-size="10.00">/16bitArithmetic.cpp</text>
</a>
</g>
</g>
<!-- Node2&#45;&gt;Node6 -->
<g id="edge5" class="edge">
<title>Node2&#45;&gt;Node6</title>
<path fill="none" stroke="midnightblue" d="M1841.67,-201.02C2728.02,-137.17 2958.22,-254.13 3838.5,-165 3841.51,-164.69 3844.59,-164.33 3847.69,-163.93"/>
<polygon fill="midnightblue" stroke="midnightblue" points="1841.26,-197.54 1831.54,-201.75 1841.77,-204.52 1841.26,-197.54"/>
</g>
<!-- Node7 -->
<g id="node7" class="node">
<title>Node7</title>
<g id="a_node7"><a xlink:href="16bitDataTransmission_8cpp.html" target="_top" xlink:title=" ">
<polygon fill="white" stroke="black" points="4003.5,-134.5 4003.5,-164.5 4155.5,-164.5 4155.5,-134.5 4003.5,-134.5"/>
<text text-anchor="start" x="4011.5" y="-152.5" font-family="Helvetica,sans-Serif" font-size="10.00">sources/APU/Instructions</text>
<text text-anchor="middle" x="4079.5" y="-141.5" font-family="Helvetica,sans-Serif" font-size="10.00">/16bitDataTransmission.cpp</text>
</a>
</g>
</g>
<!-- Node2&#45;&gt;Node7 -->
<g id="edge6" class="edge">
<title>Node2&#45;&gt;Node7</title>
<path fill="none" stroke="midnightblue" d="M1841.75,-201.01C2796.77,-132.73 3043.89,-252.49 3993.5,-165 3996.67,-164.71 3999.89,-164.37 4003.15,-163.99"/>
<polygon fill="midnightblue" stroke="midnightblue" points="1841.27,-197.54 1831.54,-201.75 1841.77,-204.52 1841.27,-197.54"/>
</g>
<!-- Node8 -->
<g id="node8" class="node">
<title>Node8</title>
<g id="a_node8"><a xlink:href="8bitArithmetic_8cpp.html" target="_top" xlink:title=" ">
<polygon fill="white" stroke="black" points="4174,-134.5 4174,-164.5 4311,-164.5 4311,-134.5 4174,-134.5"/>
<text text-anchor="start" x="4182" y="-152.5" font-family="Helvetica,sans-Serif" font-size="10.00">sources/APU/Instructions</text>
<text text-anchor="middle" x="4242.5" y="-141.5" font-family="Helvetica,sans-Serif" font-size="10.00">/8bitArithmetic.cpp</text>
</a>
</g>
</g>
<!-- Node2&#45;&gt;Node8 -->
<g id="edge7" class="edge">
<title>Node2&#45;&gt;Node8</title>
<path fill="none" stroke="midnightblue" d="M1841.62,-201.03C2372.09,-164.67 3653.82,-216.06 4164.5,-165 4167.52,-164.7 4170.59,-164.34 4173.69,-163.94"/>
<polygon fill="midnightblue" stroke="midnightblue" points="1841.27,-197.55 1831.54,-201.74 1841.76,-204.53 1841.27,-197.55"/>
</g>
<!-- Node9 -->
<g id="node9" class="node">
<title>Node9</title>
<g id="a_node9"><a xlink:href="8bitDataTransmission_8cpp.html" target="_top" xlink:title=" ">
<polygon fill="white" stroke="black" points="326.5,-134.5 326.5,-164.5 472.5,-164.5 472.5,-134.5 326.5,-134.5"/>
<text text-anchor="start" x="334.5" y="-152.5" font-family="Helvetica,sans-Serif" font-size="10.00">sources/APU/Instructions</text>
<text text-anchor="middle" x="399.5" y="-141.5" font-family="Helvetica,sans-Serif" font-size="10.00">/8bitDataTransmission.cpp</text>
</a>
</g>
</g>
<!-- Node2&#45;&gt;Node9 -->
<g id="edge8" class="edge">
<title>Node2&#45;&gt;Node9</title>
<path fill="none" stroke="midnightblue" d="M1699.29,-208.83C1465.16,-204.78 720.54,-190.18 481.5,-165 478.62,-164.7 475.7,-164.35 472.75,-163.98"/>
<polygon fill="midnightblue" stroke="midnightblue" points="1699.33,-212.33 1709.39,-209 1699.45,-205.33 1699.33,-212.33"/>
</g>
<!-- Node10 -->
<g id="node10" class="node">
<title>Node10</title>
<g id="a_node10"><a xlink:href="8bitIncrementDecrement_8cpp.html" target="_top" xlink:title=" ">
<polygon fill="white" stroke="black" points="490.5,-134.5 490.5,-164.5 652.5,-164.5 652.5,-134.5 490.5,-134.5"/>
<text text-anchor="start" x="498.5" y="-152.5" font-family="Helvetica,sans-Serif" font-size="10.00">sources/APU/Instructions</text>
<text text-anchor="middle" x="571.5" y="-141.5" font-family="Helvetica,sans-Serif" font-size="10.00">/8bitIncrementDecrement.cpp</text>
</a>
</g>
</g>
<!-- Node2&#45;&gt;Node10 -->
<g id="edge9" class="edge">
<title>Node2&#45;&gt;Node10</title>
<path fill="none" stroke="midnightblue" d="M1699.37,-208.22C1487.7,-202.76 864.05,-185.35 661.5,-165 658.67,-164.72 655.78,-164.4 652.88,-164.06"/>
<polygon fill="midnightblue" stroke="midnightblue" points="1699.35,-211.72 1709.43,-208.48 1699.53,-204.73 1699.35,-211.72"/>
</g>
<!-- Node11 -->
<g id="node11" class="node">
<title>Node11</title>
<g id="a_node11"><a xlink:href="8bitLogical_8cpp.html" target="_top" xlink:title=" ">
<polygon fill="white" stroke="black" points="671,-134.5 671,-164.5 808,-164.5 808,-134.5 671,-134.5"/>
<text text-anchor="start" x="679" y="-152.5" font-family="Helvetica,sans-Serif" font-size="10.00">sources/APU/Instructions</text>
<text text-anchor="middle" x="739.5" y="-141.5" font-family="Helvetica,sans-Serif" font-size="10.00">/8bitLogical.cpp</text>
</a>
</g>
</g>
<!-- Node2&#45;&gt;Node11 -->
<g id="edge10" class="edge">
<title>Node2&#45;&gt;Node11</title>
<path fill="none" stroke="midnightblue" d="M1698.96,-207.92C1507.67,-202.14 987.3,-185.01 816.5,-165 813.8,-164.68 811.05,-164.33 808.27,-163.94"/>
<polygon fill="midnightblue" stroke="midnightblue" points="1699.08,-211.42 1709.18,-208.22 1699.29,-204.42 1699.08,-211.42"/>
</g>
<!-- Node12 -->
<g id="node12" class="node">
<title>Node12</title>
<g id="a_node12"><a xlink:href="8bitShiftRotation_8cpp.html" target="_top" xlink:title=" ">
<polygon fill="white" stroke="black" points="826,-134.5 826,-164.5 963,-164.5 963,-134.5 826,-134.5"/>
<text text-anchor="start" x="834" y="-152.5" font-family="Helvetica,sans-Serif" font-size="10.00">sources/APU/Instructions</text>
<text text-anchor="middle" x="894.5" y="-141.5" font-family="Helvetica,sans-Serif" font-size="10.00">/8bitShiftRotation.cpp</text>
</a>
</g>
</g>
<!-- Node2&#45;&gt;Node12 -->
<g id="edge11" class="edge">
<title>Node2&#45;&gt;Node12</title>
<path fill="none" stroke="midnightblue" d="M1699.2,-209.09C1559.21,-206.61 1238.75,-197.55 971.5,-165 968.8,-164.67 966.05,-164.31 963.28,-163.91"/>
<polygon fill="midnightblue" stroke="midnightblue" points="1699.31,-212.59 1709.37,-209.26 1699.43,-205.59 1699.31,-212.59"/>
</g>
<!-- Node13 -->
<g id="node13" class="node">
<title>Node13</title>
<g id="a_node13"><a xlink:href="Bit_8cpp.html" target="_top" xlink:title=" ">
<polygon fill="white" stroke="black" points="981,-134.5 981,-164.5 1118,-164.5 1118,-134.5 981,-134.5"/>
<text text-anchor="start" x="989" y="-152.5" font-family="Helvetica,sans-Serif" font-size="10.00">sources/APU/Instructions</text>
<text text-anchor="middle" x="1049.5" y="-141.5" font-family="Helvetica,sans-Serif" font-size="10.00">/Bit.cpp</text>
</a>
</g>
</g>
<!-- Node2&#45;&gt;Node13 -->
<g id="edge12" class="edge">
<title>Node2&#45;&gt;Node13</title>
<path fill="none" stroke="midnightblue" d="M1699.37,-207.74C1580.38,-203.34 1333.62,-191.65 1126.5,-165 1123.8,-164.65 1121.05,-164.27 1118.28,-163.86"/>
<polygon fill="midnightblue" stroke="midnightblue" points="1699.33,-211.24 1709.45,-208.1 1699.58,-204.24 1699.33,-211.24"/>
</g>
<!-- Node14 -->
<g id="node14" class="node">
<title>Node14</title>
<g id="a_node14"><a xlink:href="DecimalCompensation_8cpp.html" target="_top" xlink:title=" ">
<polygon fill="white" stroke="black" points="1136,-134.5 1136,-164.5 1287,-164.5 1287,-134.5 1136,-134.5"/>
<text text-anchor="start" x="1144" y="-152.5" font-family="Helvetica,sans-Serif" font-size="10.00">sources/APU/Instructions</text>
<text text-anchor="middle" x="1211.5" y="-141.5" font-family="Helvetica,sans-Serif" font-size="10.00">/DecimalCompensation.cpp</text>
</a>
</g>
</g>
<!-- Node2&#45;&gt;Node14 -->
<g id="edge13" class="edge">
<title>Node2&#45;&gt;Node14</title>
<path fill="none" stroke="midnightblue" d="M1699.22,-204.89C1606.31,-197.86 1438.87,-183.87 1296.5,-165 1293.53,-164.61 1290.51,-164.19 1287.46,-163.75"/>
<polygon fill="midnightblue" stroke="midnightblue" points="1699.12,-208.4 1709.35,-205.66 1699.64,-201.41 1699.12,-208.4"/>
</g>
<!-- Node15 -->
<g id="node15" class="node">
<title>Node15</title>
<g id="a_node15"><a xlink:href="MultiplicationDivision_8cpp.html" target="_top" xlink:title=" ">
<polygon fill="white" stroke="black" points="1305.5,-134.5 1305.5,-164.5 1451.5,-164.5 1451.5,-134.5 1305.5,-134.5"/>
<text text-anchor="start" x="1313.5" y="-152.5" font-family="Helvetica,sans-Serif" font-size="10.00">sources/APU/Instructions</text>
<text text-anchor="middle" x="1378.5" y="-141.5" font-family="Helvetica,sans-Serif" font-size="10.00">/MultiplicationDivision.cpp</text>
</a>
</g>
</g>
<!-- Node2&#45;&gt;Node15 -->
<g id="edge14" class="edge">
<title>Node2&#45;&gt;Node15</title>
<path fill="none" stroke="midnightblue" d="M1699.04,-200.26C1636.14,-191.54 1542.13,-178.14 1460.5,-165 1457.65,-164.54 1454.74,-164.06 1451.8,-163.58"/>
<polygon fill="midnightblue" stroke="midnightblue" points="1698.86,-203.77 1709.24,-201.68 1699.82,-196.84 1698.86,-203.77"/>
</g>
<!-- Node16 -->
<g id="node16" class="node">
<title>Node16</title>
<g id="a_node16"><a xlink:href="ProgramFlow_8cpp.html" target="_top" xlink:title=" ">
<polygon fill="white" stroke="black" points="1470,-134.5 1470,-164.5 1607,-164.5 1607,-134.5 1470,-134.5"/>
<text text-anchor="start" x="1478" y="-152.5" font-family="Helvetica,sans-Serif" font-size="10.00">sources/APU/Instructions</text>
<text text-anchor="middle" x="1538.5" y="-141.5" font-family="Helvetica,sans-Serif" font-size="10.00">/ProgramFlow.cpp</text>
</a>
</g>
</g>
<!-- Node2&#45;&gt;Node16 -->
<g id="edge15" class="edge">
<title>Node2&#45;&gt;Node16</title>
<path fill="none" stroke="midnightblue" d="M1727.54,-198.98C1689.65,-189.27 1634.23,-175.05 1593.18,-164.52"/>
<polygon fill="midnightblue" stroke="midnightblue" points="1726.7,-202.38 1737.26,-201.48 1728.44,-195.6 1726.7,-202.38"/>
</g>
<!-- Node17 -->
<g id="node17" class="node">
<title>Node17</title>
<g id="a_node17"><a xlink:href="ProgramStatusWord_8cpp.html" target="_top" xlink:title=" ">
<polygon fill="white" stroke="black" points="1625,-134.5 1625,-164.5 1762,-164.5 1762,-134.5 1625,-134.5"/>
<text text-anchor="start" x="1633" y="-152.5" font-family="Helvetica,sans-Serif" font-size="10.00">sources/APU/Instructions</text>
<text text-anchor="middle" x="1693.5" y="-141.5" font-family="Helvetica,sans-Serif" font-size="10.00">/ProgramStatusWord.cpp</text>
</a>
</g>
</g>
<!-- Node2&#45;&gt;Node17 -->
<g id="edge16" class="edge">
<title>Node2&#45;&gt;Node17</title>
<path fill="none" stroke="midnightblue" d="M1751.34,-195.2C1739.2,-185.81 1723.59,-173.75 1711.65,-164.52"/>
<polygon fill="midnightblue" stroke="midnightblue" points="1749.41,-198.13 1759.47,-201.48 1753.69,-192.59 1749.41,-198.13"/>
</g>
<!-- Node18 -->
<g id="node18" class="node">
<title>Node18</title>
<g id="a_node18"><a xlink:href="Stack_8cpp.html" target="_top" xlink:title=" ">
<polygon fill="white" stroke="black" points="1780,-134.5 1780,-164.5 1917,-164.5 1917,-134.5 1780,-134.5"/>
<text text-anchor="start" x="1788" y="-152.5" font-family="Helvetica,sans-Serif" font-size="10.00">sources/APU/Instructions</text>
<text text-anchor="middle" x="1848.5" y="-141.5" font-family="Helvetica,sans-Serif" font-size="10.00">/Stack.cpp</text>
</a>
</g>
</g>
<!-- Node2&#45;&gt;Node18 -->
<g id="edge17" class="edge">
<title>Node2&#45;&gt;Node18</title>
<path fill="none" stroke="midnightblue" d="M1789.91,-195.2C1802.21,-185.81 1818.02,-173.75 1830.12,-164.52"/>
<polygon fill="midnightblue" stroke="midnightblue" points="1787.5,-192.63 1781.68,-201.48 1791.75,-198.19 1787.5,-192.63"/>
</g>
<!-- Node19 -->
<g id="node19" class="node">
<title>Node19</title>
<g id="a_node19"><a xlink:href="Standbys_8cpp.html" target="_top" xlink:title=" ">
<polygon fill="white" stroke="black" points="1935,-134.5 1935,-164.5 2072,-164.5 2072,-134.5 1935,-134.5"/>
<text text-anchor="start" x="1943" y="-152.5" font-family="Helvetica,sans-Serif" font-size="10.00">sources/APU/Instructions</text>
<text text-anchor="middle" x="2003.5" y="-141.5" font-family="Helvetica,sans-Serif" font-size="10.00">/Standbys.cpp</text>
</a>
</g>
</g>
<!-- Node2&#45;&gt;Node19 -->
<g id="edge18" class="edge">
<title>Node2&#45;&gt;Node19</title>
<path fill="none" stroke="midnightblue" d="M1813.64,-198.98C1851.7,-189.27 1907.36,-175.05 1948.59,-164.52"/>
<polygon fill="midnightblue" stroke="midnightblue" points="1812.71,-195.61 1803.88,-201.48 1814.44,-202.39 1812.71,-195.61"/>
</g>
<!-- Node20 -->
<g id="node20" class="node">
<title>Node20</title>
<g id="a_node20"><a xlink:href="Subroutine_8cpp.html" target="_top" xlink:title=" ">
<polygon fill="white" stroke="black" points="2090,-134.5 2090,-164.5 2227,-164.5 2227,-134.5 2090,-134.5"/>
<text text-anchor="start" x="2098" y="-152.5" font-family="Helvetica,sans-Serif" font-size="10.00">sources/APU/Instructions</text>
<text text-anchor="middle" x="2158.5" y="-141.5" font-family="Helvetica,sans-Serif" font-size="10.00">/Subroutine.cpp</text>
</a>
</g>
</g>
<!-- Node2&#45;&gt;Node20 -->
<g id="edge19" class="edge">
<title>Node2&#45;&gt;Node20</title>
<path fill="none" stroke="midnightblue" d="M1841.99,-200.44C1904.91,-191.83 1998.93,-178.5 2080.5,-165 2083.49,-164.51 2086.54,-163.99 2089.62,-163.46"/>
<polygon fill="midnightblue" stroke="midnightblue" points="1841.22,-197.01 1831.78,-201.83 1842.16,-203.95 1841.22,-197.01"/>
</g>
<!-- Node21 -->
<g id="node21" class="node">
<title>Node21</title>
<g id="a_node21"><a xlink:href="Operand_8cpp.html" target="_top" xlink:title=" ">
<polygon fill="white" stroke="black" points="2245.5,-140 2245.5,-159 2387.5,-159 2387.5,-140 2245.5,-140"/>
<text text-anchor="middle" x="2316.5" y="-147" font-family="Helvetica,sans-Serif" font-size="10.00">sources/APU/Operand.cpp</text>
</a>
</g>
</g>
<!-- Node2&#45;&gt;Node21 -->
<g id="edge20" class="edge">
<title>Node2&#45;&gt;Node21</title>
<path fill="none" stroke="midnightblue" d="M1841.68,-200.91C2017.45,-182 2064.04,-188.12 2235.5,-165 2247.68,-163.36 2260.81,-161.18 2272.89,-159.02"/>
<polygon fill="midnightblue" stroke="midnightblue" points="1841.13,-197.45 1831.57,-202.01 1841.89,-204.41 1841.13,-197.45"/>
</g>
<!-- Node22 -->
<g id="node22" class="node">
<title>Node22</title>
<g id="a_node22"><a xlink:href="APUDebug_8cpp.html" target="_top" xlink:title=" ">
<polygon fill="white" stroke="black" points="2520,-73 2520,-92 2699,-92 2699,-73 2520,-73"/>
<text text-anchor="middle" x="2609.5" y="-80" font-family="Helvetica,sans-Serif" font-size="10.00">sources/Debugger/APUDebug.cpp</text>
</a>
</g>
</g>
<!-- Node2&#45;&gt;Node22 -->
<g id="edge21" class="edge">
<title>Node2&#45;&gt;Node22</title>
<path fill="none" stroke="midnightblue" d="M1841.93,-201.02C2004.06,-188.78 2369.94,-215.93 2505.5,-165 2547.59,-149.19 2586.19,-109.81 2601.98,-92.23"/>
<polygon fill="midnightblue" stroke="midnightblue" points="1841.23,-197.56 1831.55,-201.88 1841.81,-204.54 1841.23,-197.56"/>
</g>
<!-- Node23 -->
<g id="node23" class="node">
<title>Node23</title>
<g id="a_node23"><a xlink:href="SNES_8hpp.html" target="_top" xlink:title=" ">
<polygon fill="white" stroke="red" points="3586.5,-140 3586.5,-159 3690.5,-159 3690.5,-140 3586.5,-140"/>
<text text-anchor="middle" x="3638.5" y="-147" font-family="Helvetica,sans-Serif" font-size="10.00">sources/SNES.hpp</text>
</a>
</g>
</g>
<!-- Node2&#45;&gt;Node23 -->
<g id="edge22" class="edge">
<title>Node2&#45;&gt;Node23</title>
<path fill="none" stroke="midnightblue" d="M1841.53,-201.02C2213.53,-173.12 3331.57,-155.08 3586.42,-151.26"/>
<polygon fill="midnightblue" stroke="midnightblue" points="1841.25,-197.53 1831.55,-201.79 1841.78,-204.51 1841.25,-197.53"/>
</g>
<!-- Node37 -->
<g id="node37" class="node">
<title>Node37</title>
<g id="a_node37"><a xlink:href="testAPU_8cpp.html" target="_top" xlink:title=" ">
<polygon fill="white" stroke="black" points="3363.5,-6 3363.5,-25 3489.5,-25 3489.5,-6 3363.5,-6"/>
<text text-anchor="middle" x="3426.5" y="-13" font-family="Helvetica,sans-Serif" font-size="10.00">tests/APU/testAPU.cpp</text>
</a>
</g>
</g>
<!-- Node2&#45;&gt;Node37 -->
<g id="edge54" class="edge">
<title>Node2&#45;&gt;Node37</title>
<path fill="none" stroke="midnightblue" d="M1841.78,-201.15C1937.02,-195.42 2347.82,-199.09 2396.5,-165 2435.46,-137.71 2400.36,-94.02 2439.5,-67 2515.26,-14.7 3157.73,-14.6 3363.43,-15.93"/>
<polygon fill="midnightblue" stroke="midnightblue" points="1841.27,-197.68 1831.56,-201.92 1841.79,-204.66 1841.27,-197.68"/>
</g>
<!-- Node39 -->
<g id="node39" class="node">
<title>Node39</title>
<g id="a_node39"><a xlink:href="testAPUInstructions_8cpp.html" target="_top" xlink:title=" ">
<polygon fill="white" stroke="black" points="3673,-6 3673,-25 3856,-25 3856,-6 3673,-6"/>
<text text-anchor="middle" x="3764.5" y="-13" font-family="Helvetica,sans-Serif" font-size="10.00">tests/APU/testAPUInstructions.cpp</text>
</a>
</g>
</g>
<!-- Node2&#45;&gt;Node39 -->
<g id="edge55" class="edge">
<title>Node2&#45;&gt;Node39</title>
<path fill="none" stroke="midnightblue" d="M1841.67,-201.14C1942.91,-194.96 2391.35,-197.85 2447.5,-165 2492.19,-138.85 2465.45,-92.52 2510.5,-67 2566.26,-35.42 3599.66,-36.56 3663.5,-31 3679.65,-29.59 3697.15,-27.34 3712.99,-25.02"/>
<polygon fill="midnightblue" stroke="midnightblue" points="1841.27,-197.66 1831.56,-201.9 1841.79,-204.64 1841.27,-197.66"/>
</g>
<!-- Node40 -->
<g id="node40" class="node">
<title>Node40</title>
<g id="a_node40"><a xlink:href="testOperand_8cpp.html" target="_top" xlink:title=" ">
<polygon fill="white" stroke="black" points="3508,-6 3508,-25 3655,-25 3655,-6 3508,-6"/>
<text text-anchor="middle" x="3581.5" y="-13" font-family="Helvetica,sans-Serif" font-size="10.00">tests/APU/testOperand.cpp</text>
</a>
</g>
</g>
<!-- Node2&#45;&gt;Node40 -->
<g id="edge56" class="edge">
<title>Node2&#45;&gt;Node40</title>
<path fill="none" stroke="midnightblue" d="M1841.57,-201.15C1939.29,-195.13 2367.65,-197.62 2420.5,-165 2463.38,-138.53 2434.27,-92.89 2477.5,-67 2574.89,-8.68 3385.6,-42.8 3498.5,-31 3511.88,-29.6 3526.37,-27.34 3539.43,-25.01"/>
<polygon fill="midnightblue" stroke="midnightblue" points="1841.26,-197.66 1831.56,-201.91 1841.79,-204.64 1841.26,-197.66"/>
</g>
<!-- Node23&#45;&gt;Node22 -->
<g id="edge23" class="edge">
<title>Node23&#45;&gt;Node22</title>
<path fill="none" stroke="midnightblue" d="M3576.07,-147.08C3426.17,-143.23 3034.13,-130.62 2708.5,-98 2693.2,-96.47 2676.65,-94.26 2661.54,-92.03"/>
<polygon fill="midnightblue" stroke="midnightblue" points="3576.36,-150.58 3586.45,-147.34 3576.54,-143.59 3576.36,-150.58"/>
</g>
<!-- Node24 -->
<g id="node24" class="node">
<title>Node24</title>
<g id="a_node24"><a xlink:href="CGramDebug_8cpp.html" target="_top" xlink:title=" ">
<polygon fill="white" stroke="black" points="3686,-73 3686,-92 3879,-92 3879,-73 3686,-73"/>
<text text-anchor="middle" x="3782.5" y="-80" font-family="Helvetica,sans-Serif" font-size="10.00">sources/Debugger/CGramDebug.cpp</text>
</a>
</g>
</g>
<!-- Node23&#45;&gt;Node24 -->
<g id="edge24" class="edge">
<title>Node23&#45;&gt;Node24</title>
<path fill="none" stroke="midnightblue" d="M3667.05,-135.61C3695.57,-122.74 3738.62,-103.31 3763.3,-92.17"/>
<polygon fill="midnightblue" stroke="midnightblue" points="3665.3,-132.56 3657.62,-139.87 3668.18,-138.94 3665.3,-132.56"/>
</g>
<!-- Node25 -->
<g id="node25" class="node">
<title>Node25</title>
<g id="a_node25"><a xlink:href="CPUDebug_8cpp.html" target="_top" xlink:title=" ">
<polygon fill="white" stroke="black" points="3897.5,-67.5 3897.5,-97.5 4025.5,-97.5 4025.5,-67.5 3897.5,-67.5"/>
<text text-anchor="start" x="3905.5" y="-85.5" font-family="Helvetica,sans-Serif" font-size="10.00">sources/Debugger/CPU</text>
<text text-anchor="middle" x="3961.5" y="-74.5" font-family="Helvetica,sans-Serif" font-size="10.00">/CPUDebug.cpp</text>
</a>
</g>
</g>
<!-- Node23&#45;&gt;Node25 -->
<g id="edge25" class="edge">
<title>Node23&#45;&gt;Node25</title>
<path fill="none" stroke="midnightblue" d="M3683.09,-137.66C3688.61,-136.39 3694.18,-135.14 3699.5,-134 3782.68,-116.16 3803.98,-114.18 3887.5,-98 3890.71,-97.38 3894,-96.74 3897.33,-96.09"/>
<polygon fill="midnightblue" stroke="midnightblue" points="3682.22,-134.27 3673.28,-139.95 3683.81,-141.09 3682.22,-134.27"/>
</g>
<!-- Node26 -->
<g id="node26" class="node">
<title>Node26</title>
<g id="a_node26"><a xlink:href="Disassembly_8cpp.html" target="_top" xlink:title=" ">
<polygon fill="white" stroke="black" points="4043.5,-67.5 4043.5,-97.5 4171.5,-97.5 4171.5,-67.5 4043.5,-67.5"/>
<text text-anchor="start" x="4051.5" y="-85.5" font-family="Helvetica,sans-Serif" font-size="10.00">sources/Debugger/CPU</text>
<text text-anchor="middle" x="4107.5" y="-74.5" font-family="Helvetica,sans-Serif" font-size="10.00">/Disassembly.cpp</text>
</a>
</g>
</g>
<!-- Node23&#45;&gt;Node26 -->
<g id="edge26" class="edge">
<title>Node23&#45;&gt;Node26</title>
<path fill="none" stroke="midnightblue" d="M3681.11,-137.65C3687.25,-136.3 3693.52,-135.03 3699.5,-134 3847.08,-108.63 3886.47,-120.61 4034.5,-98 4037.44,-97.55 4040.44,-97.07 4043.46,-96.55"/>
<polygon fill="midnightblue" stroke="midnightblue" points="3679.91,-134.33 3670.95,-139.98 3681.48,-141.15 3679.91,-134.33"/>
</g>
<!-- Node27 -->
<g id="node27" class="node">
<title>Node27</title>
<g id="a_node27"><a xlink:href="HeaderViewer_8cpp.html" target="_top" xlink:title=" ">
<polygon fill="white" stroke="black" points="4189.5,-73 4189.5,-92 4385.5,-92 4385.5,-73 4189.5,-73"/>
<text text-anchor="middle" x="4287.5" y="-80" font-family="Helvetica,sans-Serif" font-size="10.00">sources/Debugger/HeaderViewer.cpp</text>
</a>
</g>
</g>
<!-- Node23&#45;&gt;Node27 -->
<g id="edge27" class="edge">
<title>Node23&#45;&gt;Node27</title>
<path fill="none" stroke="midnightblue" d="M3680.19,-137.66C3686.63,-136.26 3693.22,-134.98 3699.5,-134 3911.34,-101.11 3967.3,-120.4 4180.5,-98 4196.35,-96.33 4213.47,-94.18 4229.27,-92.04"/>
<polygon fill="midnightblue" stroke="midnightblue" points="3679.25,-134.29 3670.29,-139.94 3680.82,-141.11 3679.25,-134.29"/>
</g>
<!-- Node28 -->
<g id="node28" class="node">
<title>Node28</title>
<g id="a_node28"><a xlink:href="MemoryBusDebug_8cpp.html" target="_top" xlink:title=" ">
<polygon fill="white" stroke="black" points="4403.5,-67.5 4403.5,-97.5 4569.5,-97.5 4569.5,-67.5 4403.5,-67.5"/>
<text text-anchor="start" x="4411.5" y="-85.5" font-family="Helvetica,sans-Serif" font-size="10.00">sources/Debugger/MemoryBus</text>
<text text-anchor="middle" x="4486.5" y="-74.5" font-family="Helvetica,sans-Serif" font-size="10.00">Debug.cpp</text>
</a>
</g>
</g>
<!-- Node23&#45;&gt;Node28 -->
<g id="edge28" class="edge">
<title>Node23&#45;&gt;Node28</title>
<path fill="none" stroke="midnightblue" d="M3679.74,-137.63C3686.31,-136.21 3693.07,-134.92 3699.5,-134 4005.67,-90.05 4086.87,-130.12 4394.5,-98 4397.39,-97.7 4400.34,-97.37 4403.31,-97.01"/>
<polygon fill="midnightblue" stroke="midnightblue" points="3678.6,-134.3 3669.64,-139.95 3680.17,-141.12 3678.6,-134.3"/>
</g>
<!-- Node29 -->
<g id="node29" class="node">
<title>Node29</title>
<g id="a_node29"><a xlink:href="MemoryViewer_8cpp.html" target="_top" xlink:title=" ">
<polygon fill="white" stroke="black" points="4588,-73 4588,-92 4789,-92 4789,-73 4588,-73"/>
<text text-anchor="middle" x="4688.5" y="-80" font-family="Helvetica,sans-Serif" font-size="10.00">sources/Debugger/MemoryViewer.cpp</text>
</a>
</g>
</g>
<!-- Node23&#45;&gt;Node29 -->
<g id="edge29" class="edge">
<title>Node23&#45;&gt;Node29</title>
<path fill="none" stroke="midnightblue" d="M3679.52,-137.61C3686.16,-136.18 3692.99,-134.9 3699.5,-134 4086.82,-80.54 4188.95,-131.58 4578.5,-98 4595.77,-96.51 4614.5,-94.28 4631.51,-92.01"/>
<polygon fill="midnightblue" stroke="midnightblue" points="3678.28,-134.31 3669.31,-139.96 3679.84,-141.13 3678.28,-134.31"/>
</g>
<!-- Node30 -->
<g id="node30" class="node">
<title>Node30</title>
<g id="a_node30"><a xlink:href="RegisterViewer_8cpp.html" target="_top" xlink:title=" ">
<polygon fill="white" stroke="black" points="4990.5,-67.5 4990.5,-97.5 5138.5,-97.5 5138.5,-67.5 4990.5,-67.5"/>
<text text-anchor="start" x="4998.5" y="-85.5" font-family="Helvetica,sans-Serif" font-size="10.00">sources/Debugger/Register</text>
<text text-anchor="middle" x="5064.5" y="-74.5" font-family="Helvetica,sans-Serif" font-size="10.00">Viewer.cpp</text>
</a>
</g>
</g>
<!-- Node23&#45;&gt;Node30 -->
<g id="edge30" class="edge">
<title>Node23&#45;&gt;Node30</title>
<path fill="none" stroke="midnightblue" d="M3678.81,-137.69C3685.67,-136.2 3692.76,-134.89 3699.5,-134 4262.43,-59.96 4411.32,-152.28 4976.5,-98 4980.97,-97.57 4985.56,-97.05 4990.18,-96.47"/>
<polygon fill="midnightblue" stroke="midnightblue" points="3677.95,-134.3 3668.99,-139.96 3679.52,-141.12 3677.95,-134.3"/>
</g>
<!-- Node31 -->
<g id="node31" class="node">
<title>Node31</title>
<g id="a_node31"><a xlink:href="TileViewer_8cpp.html" target="_top" xlink:title=" ">
<polygon fill="white" stroke="black" points="5157,-67.5 5157,-97.5 5316,-97.5 5316,-67.5 5157,-67.5"/>
<text text-anchor="start" x="5165" y="-85.5" font-family="Helvetica,sans-Serif" font-size="10.00">sources/Debugger/TileViewer</text>
<text text-anchor="middle" x="5236.5" y="-74.5" font-family="Helvetica,sans-Serif" font-size="10.00">/TileViewer.cpp</text>
</a>
</g>
</g>
<!-- Node23&#45;&gt;Node31 -->
<g id="edge31" class="edge">
<title>Node23&#45;&gt;Node31</title>
<path fill="none" stroke="midnightblue" d="M3678.81,-137.67C3685.67,-136.19 3692.75,-134.88 3699.5,-134 4337.9,-51.11 4506.54,-157.9 5147.5,-98 5150.62,-97.71 5153.79,-97.37 5156.99,-97.01"/>
<polygon fill="midnightblue" stroke="midnightblue" points="3677.95,-134.28 3668.99,-139.94 3679.52,-141.1 3677.95,-134.28"/>
</g>
<!-- Node32 -->
<g id="node32" class="node">
<title>Node32</title>
<g id="a_node32"><a xlink:href="main_8cpp.html" target="_top" xlink:title=" ">
<polygon fill="white" stroke="black" points="2717.5,-73 2717.5,-92 2819.5,-92 2819.5,-73 2717.5,-73"/>
<text text-anchor="middle" x="2768.5" y="-80" font-family="Helvetica,sans-Serif" font-size="10.00">sources/main.cpp</text>
</a>
</g>
</g>
<!-- Node23&#45;&gt;Node32 -->
<g id="edge32" class="edge">
<title>Node23&#45;&gt;Node32</title>
<path fill="none" stroke="midnightblue" d="M3575.78,-148.31C3439.17,-147.09 3104.82,-139.68 2828.5,-98 2818.96,-96.56 2808.72,-94.34 2799.44,-92.07"/>
<polygon fill="midnightblue" stroke="midnightblue" points="3576.02,-151.81 3586.05,-148.39 3576.07,-144.81 3576.02,-151.81"/>
</g>
<!-- Node33 -->
<g id="node33" class="node">
<title>Node33</title>
<g id="a_node33"><a xlink:href="MemoryBus_8cpp.html" target="_top" xlink:title=" ">
<polygon fill="white" stroke="black" points="2838,-73 2838,-92 3017,-92 3017,-73 2838,-73"/>
<text text-anchor="middle" x="2927.5" y="-80" font-family="Helvetica,sans-Serif" font-size="10.00">sources/Memory/MemoryBus.cpp</text>
</a>
</g>
</g>
<!-- Node23&#45;&gt;Node33 -->
<g id="edge33" class="edge">
<title>Node23&#45;&gt;Node33</title>
<path fill="none" stroke="midnightblue" d="M3576.42,-144.68C3465.72,-137.57 3227.05,-120.94 3026.5,-98 3011.83,-96.32 2995.99,-94.16 2981.37,-92.02"/>
<polygon fill="midnightblue" stroke="midnightblue" points="3576.2,-148.17 3586.4,-145.31 3576.65,-141.18 3576.2,-148.17"/>
</g>
<!-- Node34 -->
<g id="node34" class="node">
<title>Node34</title>
<g id="a_node34"><a xlink:href="QtSFML_8cpp.html" target="_top" xlink:title=" ">
<polygon fill="white" stroke="black" points="3035.5,-67.5 3035.5,-97.5 3195.5,-97.5 3195.5,-67.5 3035.5,-67.5"/>
<text text-anchor="start" x="3043.5" y="-85.5" font-family="Helvetica,sans-Serif" font-size="10.00">sources/Renderer/QtRenderer</text>
<text text-anchor="middle" x="3115.5" y="-74.5" font-family="Helvetica,sans-Serif" font-size="10.00">/QtSFML.cpp</text>
</a>
</g>
</g>
<!-- Node23&#45;&gt;Node34 -->
<g id="edge34" class="edge">
<title>Node23&#45;&gt;Node34</title>
<path fill="none" stroke="midnightblue" d="M3576.11,-142.14C3491.69,-133.34 3336.48,-116.42 3204.5,-98 3201.55,-97.59 3198.56,-97.16 3195.53,-96.72"/>
<polygon fill="midnightblue" stroke="midnightblue" points="3575.99,-145.65 3586.29,-143.2 3576.71,-138.69 3575.99,-145.65"/>
</g>
<!-- Node35 -->
<g id="node35" class="node">
<title>Node35</title>
<g id="a_node35"><a xlink:href="SFRenderer_8cpp.html" target="_top" xlink:title=" ">
<polygon fill="white" stroke="black" points="3213.5,-73 3213.5,-92 3393.5,-92 3393.5,-73 3213.5,-73"/>
<text text-anchor="middle" x="3303.5" y="-80" font-family="Helvetica,sans-Serif" font-size="10.00">sources/Renderer/SFRenderer.cpp</text>
</a>
</g>
</g>
<!-- Node23&#45;&gt;Node35 -->
<g id="edge35" class="edge">
<title>Node23&#45;&gt;Node35</title>
<path fill="none" stroke="midnightblue" d="M3584.17,-137.96C3518.23,-125.16 3408.35,-103.84 3347.47,-92.03"/>
<polygon fill="midnightblue" stroke="midnightblue" points="3583.88,-141.47 3594.36,-139.94 3585.21,-134.59 3583.88,-141.47"/>
</g>
<!-- Node36 -->
<g id="node36" class="node">
<title>Node36</title>
<g id="a_node36"><a xlink:href="SNES_8cpp.html" target="_top" xlink:title=" ">
<polygon fill="white" stroke="black" points="3412,-73 3412,-92 3515,-92 3515,-73 3412,-73"/>
<text text-anchor="middle" x="3463.5" y="-80" font-family="Helvetica,sans-Serif" font-size="10.00">sources/SNES.cpp</text>
</a>
</g>
</g>
<!-- Node23&#45;&gt;Node36 -->
<g id="edge36" class="edge">
<title>Node23&#45;&gt;Node36</title>
<path fill="none" stroke="midnightblue" d="M3605.57,-136.27C3570.84,-123.37 3517.01,-103.38 3486.56,-92.06"/>
<polygon fill="midnightblue" stroke="midnightblue" points="3604.67,-139.67 3615.26,-139.87 3607.11,-133.11 3604.67,-139.67"/>
</g>
<!-- Node23&#45;&gt;Node37 -->
<g id="edge37" class="edge">
<title>Node23&#45;&gt;Node37</title>
<path fill="none" stroke="midnightblue" d="M3619.41,-133.74C3597.03,-116.74 3558.53,-88.39 3523.5,-67 3496.93,-50.77 3464.59,-34.61 3444.78,-25.09"/>
<polygon fill="midnightblue" stroke="midnightblue" points="3617.35,-136.58 3627.42,-139.87 3621.6,-131.02 3617.35,-136.58"/>
</g>
<!-- Node38 -->
<g id="node38" class="node">
<title>Node38</title>
<g id="a_node38"><a xlink:href="tests_8hpp.html" target="_top" xlink:title=" ">
<polygon fill="white" stroke="red" points="4807,-73 4807,-92 4896,-92 4896,-73 4807,-73"/>
<text text-anchor="middle" x="4851.5" y="-80" font-family="Helvetica,sans-Serif" font-size="10.00">tests/tests.hpp</text>
</a>
</g>
</g>
<!-- Node23&#45;&gt;Node38 -->
<g id="edge38" class="edge">
<title>Node23&#45;&gt;Node38</title>
<path fill="none" stroke="midnightblue" d="M3678.82,-137.72C3685.67,-136.23 3692.76,-134.9 3699.5,-134 4183.45,-69.22 4314.54,-169.78 4797.5,-98 4806.43,-96.67 4816,-94.4 4824.56,-92.04"/>
<polygon fill="midnightblue" stroke="midnightblue" points="3677.95,-134.32 3668.99,-139.98 3679.53,-141.14 3677.95,-134.32"/>
</g>
<!-- Node23&#45;&gt;Node39 -->
<g id="edge47" class="edge">
<title>Node23&#45;&gt;Node39</title>
<path fill="none" stroke="midnightblue" d="M3634.44,-129.92C3631.66,-112.1 3630.5,-85.28 3643.5,-67 3659.53,-44.46 3687.6,-31.94 3712.67,-25.01"/>
<polygon fill="midnightblue" stroke="midnightblue" points="3631.04,-130.74 3636.32,-139.92 3637.91,-129.45 3631.04,-130.74"/>
</g>
<!-- Node23&#45;&gt;Node40 -->
<g id="edge48" class="edge">
<title>Node23&#45;&gt;Node40</title>
<path fill="none" stroke="midnightblue" d="M3625.62,-131.54C3618.89,-122.06 3610.96,-109.82 3605.5,-98 3593.87,-72.82 3586.38,-40.67 3583.22,-25.37"/>
<polygon fill="midnightblue" stroke="midnightblue" points="3622.84,-133.66 3631.57,-139.66 3628.48,-129.53 3622.84,-133.66"/>
</g>
<!-- Node41 -->
<g id="node41" class="node">
<title>Node41</title>
<g id="a_node41"><a xlink:href="testADC_8cpp.html" target="_top" xlink:title=" ">
<polygon fill="white" stroke="black" points="4220,-6 4220,-25 4375,-25 4375,-6 4220,-6"/>
<text text-anchor="middle" x="4297.5" y="-13" font-family="Helvetica,sans-Serif" font-size="10.00">tests/CPU/Math/testADC.cpp</text>
</a>
</g>
</g>
<!-- Node23&#45;&gt;Node41 -->
<g id="edge49" class="edge">
<title>Node23&#45;&gt;Node41</title>
<path fill="none" stroke="midnightblue" d="M3641.63,-129.8C3645.92,-110.6 3655.61,-81.53 3676.5,-67 3720.15,-36.63 4063.09,-23.12 4219.82,-18.49"/>
<polygon fill="midnightblue" stroke="midnightblue" points="3638.16,-129.3 3639.69,-139.78 3645.03,-130.64 3638.16,-129.3"/>
</g>
<!-- Node42 -->
<g id="node42" class="node">
<title>Node42</title>
<g id="a_node42"><a xlink:href="testCMP_8cpp.html" target="_top" xlink:title=" ">
<polygon fill="white" stroke="black" points="4728.5,-6 4728.5,-25 4882.5,-25 4882.5,-6 4728.5,-6"/>
<text text-anchor="middle" x="4805.5" y="-13" font-family="Helvetica,sans-Serif" font-size="10.00">tests/CPU/Math/testCMP.cpp</text>
</a>
</g>
</g>
<!-- Node23&#45;&gt;Node42 -->
<g id="edge50" class="edge">
<title>Node23&#45;&gt;Node42</title>
<path fill="none" stroke="midnightblue" d="M3678.81,-137.7C3685.67,-136.21 3692.76,-134.89 3699.5,-134 3765.9,-125.21 4857.85,-146.06 4904.5,-98 4933.18,-68.45 4868.71,-39.04 4830.74,-25.01"/>
<polygon fill="midnightblue" stroke="midnightblue" points="3677.95,-134.31 3668.99,-139.97 3679.52,-141.13 3677.95,-134.31"/>
</g>
<!-- Node43 -->
<g id="node43" class="node">
<title>Node43</title>
<g id="a_node43"><a xlink:href="testOthersMath_8cpp.html" target="_top" xlink:title=" ">
<polygon fill="white" stroke="black" points="4900.5,-0.5 4900.5,-30.5 5046.5,-30.5 5046.5,-0.5 4900.5,-0.5"/>
<text text-anchor="start" x="4908.5" y="-18.5" font-family="Helvetica,sans-Serif" font-size="10.00">tests/CPU/Math/testOthers</text>
<text text-anchor="middle" x="4973.5" y="-7.5" font-family="Helvetica,sans-Serif" font-size="10.00">Math.cpp</text>
</a>
</g>
</g>
<!-- Node23&#45;&gt;Node43 -->
<g id="edge51" class="edge">
<title>Node23&#45;&gt;Node43</title>
<path fill="none" stroke="midnightblue" d="M3678.81,-137.7C3685.67,-136.21 3692.76,-134.89 3699.5,-134 3766.89,-125.09 4863.53,-131.81 4922.5,-98 4948.13,-83.31 4962.7,-49.97 4969.25,-30.8"/>
<polygon fill="midnightblue" stroke="midnightblue" points="3677.95,-134.3 3668.99,-139.96 3679.52,-141.13 3677.95,-134.3"/>
</g>
<!-- Node44 -->
<g id="node44" class="node">
<title>Node44</title>
<g id="a_node44"><a xlink:href="testSBC_8cpp.html" target="_top" xlink:title=" ">
<polygon fill="white" stroke="black" points="5108,-6 5108,-25 5261,-25 5261,-6 5108,-6"/>
<text text-anchor="middle" x="5184.5" y="-13" font-family="Helvetica,sans-Serif" font-size="10.00">tests/CPU/Math/testSBC.cpp</text>
</a>
</g>
</g>
<!-- Node23&#45;&gt;Node44 -->
<g id="edge52" class="edge">
<title>Node23&#45;&gt;Node44</title>
<path fill="none" stroke="midnightblue" d="M3678.59,-137.7C3685.51,-136.2 3692.68,-134.88 3699.5,-134 3744.28,-128.25 5292.93,-130.28 5324.5,-98 5359.11,-62.61 5279.96,-37.36 5227.11,-25.04"/>
<polygon fill="midnightblue" stroke="midnightblue" points="3677.63,-134.33 3668.67,-140 3679.21,-141.15 3677.63,-134.33"/>
</g>
<!-- Node45 -->
<g id="node45" class="node">
<title>Node45</title>
<g id="a_node45"><a xlink:href="testAddressingMode_8cpp.html" target="_top" xlink:title=" ">
<polygon fill="white" stroke="black" points="5300.5,-0.5 5300.5,-30.5 5440.5,-30.5 5440.5,-0.5 5300.5,-0.5"/>
<text text-anchor="start" x="5308.5" y="-18.5" font-family="Helvetica,sans-Serif" font-size="10.00">tests/CPU/testAddressing</text>
<text text-anchor="middle" x="5370.5" y="-7.5" font-family="Helvetica,sans-Serif" font-size="10.00">Mode.cpp</text>
</a>
</g>
</g>
<!-- Node23&#45;&gt;Node45 -->
<g id="edge53" class="edge">
<title>Node23&#45;&gt;Node45</title>
<path fill="none" stroke="midnightblue" d="M3678.59,-137.7C3685.51,-136.2 3692.68,-134.88 3699.5,-134 3790.06,-122.38 5268.78,-151.85 5342.5,-98 5363.88,-82.38 5369.08,-49.4 5370.26,-30.53"/>
<polygon fill="midnightblue" stroke="midnightblue" points="3677.63,-134.33 3668.67,-139.99 3679.21,-141.15 3677.63,-134.33"/>
</g>
<!-- Node38&#45;&gt;Node37 -->
<g id="edge39" class="edge">
<title>Node38&#45;&gt;Node37</title>
<path fill="none" stroke="midnightblue" d="M4814.59,-70.36C4808.91,-69.01 4803.08,-67.82 4797.5,-67 4226.01,16.46 4072.36,-96.25 3498.5,-31 3486.72,-29.66 3473.99,-27.38 3462.57,-25.02"/>
<polygon fill="midnightblue" stroke="midnightblue" points="4814.01,-73.83 4824.57,-72.94 4815.76,-67.05 4814.01,-73.83"/>
</g>
<!-- Node38&#45;&gt;Node39 -->
<g id="edge40" class="edge">
<title>Node38&#45;&gt;Node39</title>
<path fill="none" stroke="midnightblue" d="M4814.39,-70.43C4808.78,-69.07 4803.01,-67.86 4797.5,-67 4706.04,-52.65 4091.44,-28.64 3856.01,-19.85"/>
<polygon fill="midnightblue" stroke="midnightblue" points="4813.71,-73.87 4824.27,-72.98 4815.46,-67.09 4813.71,-73.87"/>
</g>
<!-- Node38&#45;&gt;Node40 -->
<g id="edge41" class="edge">
<title>Node38&#45;&gt;Node40</title>
<path fill="none" stroke="midnightblue" d="M4814.59,-70.38C4808.91,-69.03 4803.08,-67.83 4797.5,-67 4298.69,6.88 4165.06,-83.04 3663.5,-31 3650.27,-29.63 3635.96,-27.37 3623.05,-25.04"/>
<polygon fill="midnightblue" stroke="midnightblue" points="4814.01,-73.85 4824.56,-72.96 4815.76,-67.07 4814.01,-73.85"/>
</g>
<!-- Node38&#45;&gt;Node41 -->
<g id="edge42" class="edge">
<title>Node38&#45;&gt;Node41</title>
<path fill="none" stroke="midnightblue" d="M4813.21,-70.4C4807.96,-69.12 4802.62,-67.94 4797.5,-67 4649.47,-39.83 4473.91,-26.35 4375.14,-20.44"/>
<polygon fill="midnightblue" stroke="midnightblue" points="4812.55,-73.85 4823.11,-72.95 4814.3,-67.07 4812.55,-73.85"/>
</g>
<!-- Node38&#45;&gt;Node42 -->
<g id="edge43" class="edge">
<title>Node38&#45;&gt;Node42</title>
<path fill="none" stroke="midnightblue" d="M4839.4,-64.4C4830.46,-51.77 4818.67,-35.1 4811.61,-25.13"/>
<polygon fill="midnightblue" stroke="midnightblue" points="4836.66,-66.59 4845.3,-72.73 4842.38,-62.55 4836.66,-66.59"/>
</g>
<!-- Node38&#45;&gt;Node43 -->
<g id="edge44" class="edge">
<title>Node38&#45;&gt;Node43</title>
<path fill="none" stroke="midnightblue" d="M4876.75,-68.05C4897.26,-57.12 4926.09,-41.76 4946.94,-30.65"/>
<polygon fill="midnightblue" stroke="midnightblue" points="4874.88,-65.08 4867.7,-72.87 4878.17,-71.26 4874.88,-65.08"/>
</g>
<!-- Node38&#45;&gt;Node44 -->
<g id="edge45" class="edge">
<title>Node38&#45;&gt;Node44</title>
<path fill="none" stroke="midnightblue" d="M4905.51,-70.96C4971.05,-58.16 5080.28,-36.84 5140.79,-25.03"/>
<polygon fill="midnightblue" stroke="midnightblue" points="4904.52,-67.58 4895.38,-72.94 4905.86,-74.45 4904.52,-67.58"/>
</g>
<!-- Node38&#45;&gt;Node45 -->
<g id="edge46" class="edge">
<title>Node38&#45;&gt;Node45</title>
<path fill="none" stroke="midnightblue" d="M4906.54,-75.29C4986.68,-66.16 5140.17,-48.3 5270.5,-31 5280.15,-29.72 5290.32,-28.31 5300.32,-26.89"/>
<polygon fill="midnightblue" stroke="midnightblue" points="4905.73,-71.86 4896.19,-76.47 4906.52,-78.82 4905.73,-71.86"/>
</g>
</g>
</svg>
