<?xml version="1.0" encoding="UTF-8" standalone="no"?>
<!DOCTYPE svg PUBLIC "-//W3C//DTD SVG 1.1//EN"
 "http://www.w3.org/Graphics/SVG/1.1/DTD/svg11.dtd">
<!-- Generated by graphviz version 2.43.0 (0)
 -->
<!-- Title: sources/APU/DSP/Gauss.cpp Pages: 1 -->
<svg width="529pt" height="308pt"
 viewBox="0.00 0.00 529.00 308.00" xmlns="http://www.w3.org/2000/svg" xmlns:xlink="http://www.w3.org/1999/xlink">
<g id="graph0" class="graph" transform="scale(1 1) rotate(0) translate(4 304)">
<title>sources/APU/DSP/Gauss.cpp</title>
<polygon fill="white" stroke="transparent" points="-4,4 -4,-304 525,-304 525,4 -4,4"/>
<!-- Node1 -->
<g id="node1" class="node">
<title>Node1</title>
<g id="a_node1"><a xlink:title=" ">
<polygon fill="#bfbfbf" stroke="black" points="227.5,-280.5 227.5,-299.5 380.5,-299.5 380.5,-280.5 227.5,-280.5"/>
<text text-anchor="middle" x="304" y="-287.5" font-family="Helvetica,sans-Serif" font-size="10.00">sources/APU/DSP/Gauss.cpp</text>
</a>
</g>
</g>
<!-- Node2 -->
<g id="node2" class="node">
<title>Node2</title>
<g id="a_node2"><a xlink:title=" ">
<polygon fill="white" stroke="#bfbfbf" points="194,-224.5 194,-243.5 258,-243.5 258,-224.5 194,-224.5"/>
<text text-anchor="middle" x="226" y="-231.5" font-family="Helvetica,sans-Serif" font-size="10.00">algorithm</text>
</a>
</g>
</g>
<!-- Node1&#45;&gt;Node2 -->
<g id="edge1" class="edge">
<title>Node1&#45;&gt;Node2</title>
<path fill="none" stroke="midnightblue" d="M291.47,-280.32C279.41,-271.98 260.97,-259.21 246.73,-249.35"/>
<polygon fill="midnightblue" stroke="midnightblue" points="248.72,-246.47 238.5,-243.65 244.73,-252.22 248.72,-246.47"/>
</g>
<!-- Node3 -->
<g id="node3" class="node">
<title>Node3</title>
<g id="a_node3"><a xlink:title=" ">
<polygon fill="white" stroke="#bfbfbf" points="471,-56.5 471,-75.5 521,-75.5 521,-56.5 471,-56.5"/>
<text text-anchor="middle" x="496" y="-63.5" font-family="Helvetica,sans-Serif" font-size="10.00">cstdint</text>
</a>
</g>
</g>
<!-- Node1&#45;&gt;Node3 -->
<g id="edge2" class="edge">
<title>Node1&#45;&gt;Node3</title>
<path fill="none" stroke="midnightblue" d="M314.48,-280.29C341.12,-257.78 412.71,-194.99 460,-132 471.11,-117.2 481.07,-98.58 487.68,-85.07"/>
<polygon fill="midnightblue" stroke="midnightblue" points="490.92,-86.41 492.05,-75.88 484.6,-83.41 490.92,-86.41"/>
</g>
<!-- Node4 -->
<g id="node4" class="node">
<title>Node4</title>
<g id="a_node4"><a xlink:href="DSP_8hpp.html" target="_top" xlink:title=" ">
<polygon fill="white" stroke="black" points="276,-224.5 276,-243.5 332,-243.5 332,-224.5 276,-224.5"/>
<text text-anchor="middle" x="304" y="-231.5" font-family="Helvetica,sans-Serif" font-size="10.00">DSP.hpp</text>
</a>
</g>
</g>
<!-- Node1&#45;&gt;Node4 -->
<g id="edge3" class="edge">
<title>Node1&#45;&gt;Node4</title>
<path fill="none" stroke="midnightblue" d="M304,-280.08C304,-273.01 304,-262.86 304,-253.99"/>
<polygon fill="midnightblue" stroke="midnightblue" points="307.5,-253.75 304,-243.75 300.5,-253.75 307.5,-253.75"/>
</g>
<!-- Node4&#45;&gt;Node3 -->
<g id="edge4" class="edge">
<title>Node4&#45;&gt;Node3</title>
<path fill="none" stroke="midnightblue" d="M320.4,-224.39C335.7,-216.02 358.84,-202.48 377,-188 418.83,-154.65 461.2,-107.73 482.29,-83.27"/>
<polygon fill="midnightblue" stroke="midnightblue" points="484.99,-85.49 488.82,-75.62 479.67,-80.95 484.99,-85.49"/>
</g>
<!-- Node5 -->
<g id="node5" class="node">
<title>Node5</title>
<g id="a_node5"><a xlink:title=" ">
<polygon fill="white" stroke="#bfbfbf" points="180,-168.5 180,-187.5 222,-187.5 222,-168.5 180,-168.5"/>
<text text-anchor="middle" x="201" y="-175.5" font-family="Helvetica,sans-Serif" font-size="10.00">array</text>
</a>
</g>
</g>
<!-- Node4&#45;&gt;Node5 -->
<g id="edge5" class="edge">
<title>Node4&#45;&gt;Node5</title>
<path fill="none" stroke="midnightblue" d="M287.45,-224.32C271.01,-215.7 245.57,-202.36 226.53,-192.39"/>
<polygon fill="midnightblue" stroke="midnightblue" points="227.99,-189.2 217.51,-187.65 224.74,-195.4 227.99,-189.2"/>
</g>
<!-- Node6 -->
<g id="node6" class="node">
<title>Node6</title>
<g id="a_node6"><a xlink:href="IRenderer_8hpp.html" target="_top" xlink:title=" ">
<polygon fill="white" stroke="black" points="4.5,-168.5 4.5,-187.5 135.5,-187.5 135.5,-168.5 4.5,-168.5"/>
<text text-anchor="middle" x="70" y="-175.5" font-family="Helvetica,sans-Serif" font-size="10.00">Renderer/IRenderer.hpp</text>
</a>
</g>
</g>
<!-- Node4&#45;&gt;Node6 -->
<g id="edge6" class="edge">
<title>Node4&#45;&gt;Node6</title>
<path fill="none" stroke="midnightblue" d="M275.73,-226.08C272.78,-225.37 269.83,-224.67 267,-224 216.27,-212.04 158.07,-198.8 118.16,-189.8"/>
<polygon fill="midnightblue" stroke="midnightblue" points="118.7,-186.34 108.17,-187.55 117.16,-193.16 118.7,-186.34"/>
</g>
<!-- Node9 -->
<g id="node9" class="node">
<title>Node9</title>
<g id="a_node9"><a xlink:href="AMemory_8hpp.html" target="_top" xlink:title=" ">
<polygon fill="white" stroke="black" points="240.5,-168.5 240.5,-187.5 367.5,-187.5 367.5,-168.5 240.5,-168.5"/>
<text text-anchor="middle" x="304" y="-175.5" font-family="Helvetica,sans-Serif" font-size="10.00">Memory/AMemory.hpp</text>
</a>
</g>
</g>
<!-- Node4&#45;&gt;Node9 -->
<g id="edge9" class="edge">
<title>Node4&#45;&gt;Node9</title>
<path fill="none" stroke="midnightblue" d="M304,-224.08C304,-217.01 304,-206.86 304,-197.99"/>
<polygon fill="midnightblue" stroke="midnightblue" points="307.5,-197.75 304,-187.75 300.5,-197.75 307.5,-197.75"/>
</g>
<!-- Node7 -->
<g id="node7" class="node">
<title>Node7</title>
<g id="a_node7"><a xlink:title=" ">
<polygon fill="white" stroke="#bfbfbf" points="0,-56.5 0,-75.5 44,-75.5 44,-56.5 0,-56.5"/>
<text text-anchor="middle" x="22" y="-63.5" font-family="Helvetica,sans-Serif" font-size="10.00">string</text>
</a>
</g>
</g>
<!-- Node6&#45;&gt;Node7 -->
<g id="edge7" class="edge">
<title>Node6&#45;&gt;Node7</title>
<path fill="none" stroke="midnightblue" d="M63.43,-168.47C56.96,-159.72 47.18,-145.53 41,-132 34.13,-116.96 29.08,-98.83 25.91,-85.54"/>
<polygon fill="midnightblue" stroke="midnightblue" points="29.31,-84.69 23.7,-75.7 22.48,-86.22 29.31,-84.69"/>
</g>
<!-- Node8 -->
<g id="node8" class="node">
<title>Node8</title>
<g id="a_node8"><a xlink:title=" ">
<polygon fill="white" stroke="#bfbfbf" points="50,-112.5 50,-131.5 90,-131.5 90,-112.5 50,-112.5"/>
<text text-anchor="middle" x="70" y="-119.5" font-family="Helvetica,sans-Serif" font-size="10.00">span</text>
</a>
</g>
</g>
<!-- Node6&#45;&gt;Node8 -->
<g id="edge8" class="edge">
<title>Node6&#45;&gt;Node8</title>
<path fill="none" stroke="midnightblue" d="M70,-168.08C70,-161.01 70,-150.86 70,-141.99"/>
<polygon fill="midnightblue" stroke="midnightblue" points="73.5,-141.75 70,-131.75 66.5,-141.75 73.5,-141.75"/>
</g>
<!-- Node9&#45;&gt;Node3 -->
<g id="edge10" class="edge">
<title>Node9&#45;&gt;Node3</title>
<path fill="none" stroke="midnightblue" d="M319.07,-168.37C352.29,-149.33 432.09,-103.62 472.17,-80.65"/>
<polygon fill="midnightblue" stroke="midnightblue" points="474.07,-83.6 481,-75.59 470.59,-77.53 474.07,-83.6"/>
</g>
<!-- Node9&#45;&gt;Node7 -->
<g id="edge13" class="edge">
<title>Node9&#45;&gt;Node7</title>
<path fill="none" stroke="midnightblue" d="M270.58,-168.45C240.24,-160.31 194.51,-147.09 156,-132 116.76,-116.63 73.17,-94.48 46.68,-80.42"/>
<polygon fill="midnightblue" stroke="midnightblue" points="48.2,-77.26 37.73,-75.63 44.89,-83.43 48.2,-77.26"/>
</g>
<!-- Node10 -->
<g id="node10" class="node">
<title>Node10</title>
<g id="a_node10"><a xlink:title=" ">
<polygon fill="white" stroke="#bfbfbf" points="405.5,-56.5 405.5,-75.5 452.5,-75.5 452.5,-56.5 405.5,-56.5"/>
<text text-anchor="middle" x="429" y="-63.5" font-family="Helvetica,sans-Serif" font-size="10.00">vector</text>
</a>
</g>
</g>
<!-- Node9&#45;&gt;Node10 -->
<g id="edge11" class="edge">
<title>Node9&#45;&gt;Node10</title>
<path fill="none" stroke="midnightblue" d="M313.81,-168.37C334.89,-149.81 384.78,-105.91 411.46,-82.44"/>
<polygon fill="midnightblue" stroke="midnightblue" points="414.04,-84.83 419.24,-75.59 409.42,-79.57 414.04,-84.83"/>
</g>
<!-- Node11 -->
<g id="node11" class="node">
<title>Node11</title>
<g id="a_node11"><a xlink:title=" ">
<polygon fill="white" stroke="#bfbfbf" points="62,-56.5 62,-75.5 120,-75.5 120,-56.5 62,-56.5"/>
<text text-anchor="middle" x="91" y="-63.5" font-family="Helvetica,sans-Serif" font-size="10.00">memory</text>
</a>
</g>
</g>
<!-- Node9&#45;&gt;Node11 -->
<g id="edge12" class="edge">
<title>Node9&#45;&gt;Node11</title>
<path fill="none" stroke="midnightblue" d="M280.1,-168.45C257.66,-160.12 223.4,-146.61 195,-132 164.98,-116.56 132.26,-95.31 111.69,-81.38"/>
<polygon fill="midnightblue" stroke="midnightblue" points="113.64,-78.47 103.41,-75.71 109.69,-84.25 113.64,-78.47"/>
</g>
<!-- Node12 -->
<g id="node12" class="node">
<title>Node12</title>
<g id="a_node12"><a xlink:href="Ints_8hpp.html" target="_top" xlink:title=" ">
<polygon fill="white" stroke="black" points="138,-56.5 138,-75.5 232,-75.5 232,-56.5 138,-56.5"/>
<text text-anchor="middle" x="185" y="-63.5" font-family="Helvetica,sans-Serif" font-size="10.00">Models/Ints.hpp</text>
</a>
</g>
</g>
<!-- Node9&#45;&gt;Node12 -->
<g id="edge14" class="edge">
<title>Node9&#45;&gt;Node12</title>
<path fill="none" stroke="midnightblue" d="M274.49,-168.38C254.88,-161.34 229.74,-149.64 213,-132 200.72,-119.06 193.36,-99.89 189.3,-85.72"/>
<polygon fill="midnightblue" stroke="midnightblue" points="192.58,-84.46 186.71,-75.64 185.8,-86.2 192.58,-84.46"/>
</g>
<!-- Node15 -->
<g id="node15" class="node">
<title>Node15</title>
<g id="a_node15"><a xlink:href="Components_8hpp.html" target="_top" xlink:title=" ">
<polygon fill="white" stroke="black" points="250.5,-56.5 250.5,-75.5 387.5,-75.5 387.5,-56.5 250.5,-56.5"/>
<text text-anchor="middle" x="319" y="-63.5" font-family="Helvetica,sans-Serif" font-size="10.00">Models/Components.hpp</text>
</a>
</g>
</g>
<!-- Node9&#45;&gt;Node15 -->
<g id="edge17" class="edge">
<title>Node9&#45;&gt;Node15</title>
<path fill="none" stroke="midnightblue" d="M305.42,-168.39C306.9,-159.34 309.23,-144.69 311,-132 313.16,-116.5 315.31,-98.87 316.84,-85.89"/>
<polygon fill="midnightblue" stroke="midnightblue" points="320.33,-86.18 318,-75.84 313.37,-85.37 320.33,-86.18"/>
</g>
<!-- Node16 -->
<g id="node16" class="node">
<title>Node16</title>
<g id="a_node16"><a xlink:href="IMemory_8hpp.html" target="_top" xlink:title=" ">
<polygon fill="white" stroke="black" points="222,-112.5 222,-131.5 302,-131.5 302,-112.5 222,-112.5"/>
<text text-anchor="middle" x="262" y="-119.5" font-family="Helvetica,sans-Serif" font-size="10.00">IMemory.hpp</text>
</a>
</g>
</g>
<!-- Node9&#45;&gt;Node16 -->
<g id="edge18" class="edge">
<title>Node9&#45;&gt;Node16</title>
<path fill="none" stroke="midnightblue" d="M297.06,-168.08C291.07,-160.38 282.25,-149.03 274.95,-139.65"/>
<polygon fill="midnightblue" stroke="midnightblue" points="277.71,-137.5 268.81,-131.75 272.18,-141.79 277.71,-137.5"/>
</g>
<!-- Node13 -->
<g id="node13" class="node">
<title>Node13</title>
<g id="a_node13"><a xlink:title=" ">
<polygon fill="white" stroke="#bfbfbf" points="115,-0.5 115,-19.5 177,-19.5 177,-0.5 115,-0.5"/>
<text text-anchor="middle" x="146" y="-7.5" font-family="Helvetica,sans-Serif" font-size="10.00">cinttypes</text>
</a>
</g>
</g>
<!-- Node12&#45;&gt;Node13 -->
<g id="edge15" class="edge">
<title>Node12&#45;&gt;Node13</title>
<path fill="none" stroke="midnightblue" d="M178.56,-56.08C173.05,-48.46 164.97,-37.26 158.24,-27.94"/>
<polygon fill="midnightblue" stroke="midnightblue" points="161.01,-25.81 152.32,-19.75 155.34,-29.91 161.01,-25.81"/>
</g>
<!-- Node14 -->
<g id="node14" class="node">
<title>Node14</title>
<g id="a_node14"><a xlink:title=" ">
<polygon fill="white" stroke="#bfbfbf" points="195,-0.5 195,-19.5 255,-19.5 255,-0.5 195,-0.5"/>
<text text-anchor="middle" x="225" y="-7.5" font-family="Helvetica,sans-Serif" font-size="10.00">iostream</text>
</a>
</g>
</g>
<!-- Node12&#45;&gt;Node14 -->
<g id="edge16" class="edge">
<title>Node12&#45;&gt;Node14</title>
<path fill="none" stroke="midnightblue" d="M191.61,-56.08C197.26,-48.46 205.54,-37.26 212.45,-27.94"/>
<polygon fill="midnightblue" stroke="midnightblue" points="215.38,-29.87 218.52,-19.75 209.75,-25.7 215.38,-29.87"/>
</g>
<!-- Node16&#45;&gt;Node3 -->
<g id="edge19" class="edge">
<title>Node16&#45;&gt;Node3</title>
<path fill="none" stroke="midnightblue" d="M301.95,-112.47C340.34,-104.18 400.22,-90.97 461.01,-76.18"/>
<polygon fill="midnightblue" stroke="midnightblue" points="461.89,-79.56 470.78,-73.79 460.23,-72.76 461.89,-79.56"/>
</g>
<!-- Node16&#45;&gt;Node7 -->
<g id="edge22" class="edge">
<title>Node16&#45;&gt;Node7</title>
<path fill="none" stroke="midnightblue" d="M221.74,-113.21C181.57,-105.24 117.9,-92.08 54.12,-76.15"/>
<polygon fill="midnightblue" stroke="midnightblue" points="54.85,-72.73 44.3,-73.68 53.14,-79.52 54.85,-72.73"/>
</g>
<!-- Node16&#45;&gt;Node10 -->
<g id="edge20" class="edge">
<title>Node16&#45;&gt;Node10</title>
<path fill="none" stroke="midnightblue" d="M288.46,-112.44C317.51,-103.05 364.19,-87.96 395.71,-77.77"/>
<polygon fill="midnightblue" stroke="midnightblue" points="396.92,-81.05 405.36,-74.64 394.77,-74.39 396.92,-81.05"/>
</g>
<!-- Node16&#45;&gt;Node11 -->
<g id="edge21" class="edge">
<title>Node16&#45;&gt;Node11</title>
<path fill="none" stroke="midnightblue" d="M234.9,-112.44C206.01,-103.32 160.08,-88.81 127.89,-78.65"/>
<polygon fill="midnightblue" stroke="midnightblue" points="128.56,-75.19 117.97,-75.52 126.45,-81.87 128.56,-75.19"/>
</g>
<!-- Node16&#45;&gt;Node12 -->
<g id="edge23" class="edge">
<title>Node16&#45;&gt;Node12</title>
<path fill="none" stroke="midnightblue" d="M249.63,-112.32C237.84,-104.06 219.87,-91.45 205.86,-81.63"/>
<polygon fill="midnightblue" stroke="midnightblue" points="207.54,-78.53 197.34,-75.65 203.52,-84.26 207.54,-78.53"/>
</g>
<!-- Node16&#45;&gt;Node15 -->
<g id="edge24" class="edge">
<title>Node16&#45;&gt;Node15</title>
<path fill="none" stroke="midnightblue" d="M271.16,-112.32C279.5,-104.42 292.03,-92.55 302.18,-82.94"/>
<polygon fill="midnightblue" stroke="midnightblue" points="304.82,-85.25 309.68,-75.83 300.01,-80.17 304.82,-85.25"/>
</g>
</g>
</svg>
