<?xml version="1.0" encoding="UTF-8" standalone="no"?>
<!DOCTYPE svg PUBLIC "-//W3C//DTD SVG 1.1//EN"
 "http://www.w3.org/Graphics/SVG/1.1/DTD/svg11.dtd">
<!-- Generated by graphviz version 2.43.0 (0)
 -->
<!-- Title: sources/Debugger/HeaderViewer.hpp Pages: 1 -->
<svg width="916pt" height="364pt"
 viewBox="0.00 0.00 915.50 364.00" xmlns="http://www.w3.org/2000/svg" xmlns:xlink="http://www.w3.org/1999/xlink">
<g id="graph0" class="graph" transform="scale(1 1) rotate(0) translate(4 360)">
<title>sources/Debugger/HeaderViewer.hpp</title>
<polygon fill="white" stroke="transparent" points="-4,4 -4,-360 911.5,-360 911.5,4 -4,4"/>
<!-- Node1 -->
<g id="node1" class="node">
<title>Node1</title>
<g id="a_node1"><a xlink:title=" ">
<polygon fill="#bfbfbf" stroke="black" points="250,-336.5 250,-355.5 447,-355.5 447,-336.5 250,-336.5"/>
<text text-anchor="middle" x="348.5" y="-343.5" font-family="Helvetica,sans-Serif" font-size="10.00">sources/Debugger/HeaderViewer.hpp</text>
</a>
</g>
</g>
<!-- Node2 -->
<g id="node2" class="node">
<title>Node2</title>
<g id="a_node2"><a xlink:title=" ">
<polygon fill="white" stroke="#bfbfbf" points="0,-224.5 0,-243.5 141,-243.5 141,-224.5 0,-224.5"/>
<text text-anchor="middle" x="70.5" y="-231.5" font-family="Helvetica,sans-Serif" font-size="10.00">QtWidgets/QMainWindow</text>
</a>
</g>
</g>
<!-- Node1&#45;&gt;Node2 -->
<g id="edge1" class="edge">
<title>Node1&#45;&gt;Node2</title>
<path fill="none" stroke="midnightblue" d="M269.3,-336.49C211.37,-329.04 138.69,-316.79 113.5,-300 96.48,-288.66 84.57,-268.06 77.67,-253.08"/>
<polygon fill="midnightblue" stroke="midnightblue" points="80.85,-251.6 73.69,-243.79 74.41,-254.36 80.85,-251.6"/>
</g>
<!-- Node3 -->
<g id="node3" class="node">
<title>Node3</title>
<g id="a_node3"><a xlink:href="Cartridge_8hpp.html" target="_top" xlink:title=" ">
<polygon fill="white" stroke="black" points="415,-280.5 415,-299.5 546,-299.5 546,-280.5 415,-280.5"/>
<text text-anchor="middle" x="480.5" y="-287.5" font-family="Helvetica,sans-Serif" font-size="10.00">Cartridge/Cartridge.hpp</text>
</a>
</g>
</g>
<!-- Node1&#45;&gt;Node3 -->
<g id="edge2" class="edge">
<title>Node1&#45;&gt;Node3</title>
<path fill="none" stroke="midnightblue" d="M369.42,-336.44C391.24,-327.52 425.65,-313.44 450.39,-303.32"/>
<polygon fill="midnightblue" stroke="midnightblue" points="451.75,-306.54 459.68,-299.52 449.1,-300.06 451.75,-306.54"/>
</g>
<!-- Node19 -->
<g id="node19" class="node">
<title>Node19</title>
<g id="a_node19"><a xlink:title=" ">
<polygon fill="white" stroke="#bfbfbf" points="564,-280.5 564,-299.5 683,-299.5 683,-280.5 564,-280.5"/>
<text text-anchor="middle" x="623.5" y="-287.5" font-family="Helvetica,sans-Serif" font-size="10.00">ui/ui_cartridgeView.h</text>
</a>
</g>
</g>
<!-- Node1&#45;&gt;Node19 -->
<g id="edge32" class="edge">
<title>Node1&#45;&gt;Node19</title>
<path fill="none" stroke="midnightblue" d="M392.07,-336.44C440.35,-326.96 518.21,-311.67 570.11,-301.48"/>
<polygon fill="midnightblue" stroke="midnightblue" points="570.99,-304.88 580.13,-299.52 569.64,-298.01 570.99,-304.88"/>
</g>
<!-- Node20 -->
<g id="node20" class="node">
<title>Node20</title>
<g id="a_node20"><a xlink:href="ClosableWindow_8hpp.html" target="_top" xlink:title=" ">
<polygon fill="white" stroke="black" points="122.5,-280.5 122.5,-299.5 240.5,-299.5 240.5,-280.5 122.5,-280.5"/>
<text text-anchor="middle" x="181.5" y="-287.5" font-family="Helvetica,sans-Serif" font-size="10.00">ClosableWindow.hpp</text>
</a>
</g>
</g>
<!-- Node1&#45;&gt;Node20 -->
<g id="edge33" class="edge">
<title>Node1&#45;&gt;Node20</title>
<path fill="none" stroke="midnightblue" d="M322.04,-336.44C293.82,-327.32 248.96,-312.81 217.53,-302.65"/>
<polygon fill="midnightblue" stroke="midnightblue" points="218.43,-299.26 207.84,-299.52 216.28,-305.92 218.43,-299.26"/>
</g>
<!-- Node4 -->
<g id="node4" class="node">
<title>Node4</title>
<g id="a_node4"><a xlink:href="InterruptVectors_8hpp.html" target="_top" xlink:title=" ">
<polygon fill="white" stroke="black" points="791.5,-112.5 791.5,-131.5 907.5,-131.5 907.5,-112.5 791.5,-112.5"/>
<text text-anchor="middle" x="849.5" y="-119.5" font-family="Helvetica,sans-Serif" font-size="10.00">InterruptVectors.hpp</text>
</a>
</g>
</g>
<!-- Node3&#45;&gt;Node4 -->
<g id="edge3" class="edge">
<title>Node3&#45;&gt;Node4</title>
<path fill="none" stroke="midnightblue" d="M546.06,-281.04C649.3,-268.48 838.24,-245.32 839.5,-244 865.66,-216.71 860.07,-168.25 854.38,-141.7"/>
<polygon fill="midnightblue" stroke="midnightblue" points="857.74,-140.7 852.03,-131.78 850.93,-142.32 857.74,-140.7"/>
</g>
<!-- Node6 -->
<g id="node6" class="node">
<title>Node6</title>
<g id="a_node6"><a xlink:href="AMemory_8hpp.html" target="_top" xlink:title=" ">
<polygon fill="white" stroke="black" points="551,-168.5 551,-187.5 678,-187.5 678,-168.5 551,-168.5"/>
<text text-anchor="middle" x="614.5" y="-175.5" font-family="Helvetica,sans-Serif" font-size="10.00">Memory/AMemory.hpp</text>
</a>
</g>
</g>
<!-- Node3&#45;&gt;Node6 -->
<g id="edge5" class="edge">
<title>Node3&#45;&gt;Node6</title>
<path fill="none" stroke="midnightblue" d="M491.01,-280.37C513.72,-261.73 567.56,-217.53 596.06,-194.13"/>
<polygon fill="midnightblue" stroke="midnightblue" points="598.53,-196.64 604.03,-187.59 594.08,-191.23 598.53,-196.64"/>
</g>
<!-- Node10 -->
<g id="node10" class="node">
<title>Node10</title>
<g id="a_node10"><a xlink:title=" ">
<polygon fill="white" stroke="#bfbfbf" points="719.5,-56.5 719.5,-75.5 763.5,-75.5 763.5,-56.5 719.5,-56.5"/>
<text text-anchor="middle" x="741.5" y="-63.5" font-family="Helvetica,sans-Serif" font-size="10.00">string</text>
</a>
</g>
</g>
<!-- Node3&#45;&gt;Node10 -->
<g id="edge31" class="edge">
<title>Node3&#45;&gt;Node10</title>
<path fill="none" stroke="midnightblue" d="M523.16,-280.45C573.74,-268.24 657.58,-241.14 708.5,-188 735.4,-159.93 740.83,-112.14 741.65,-85.81"/>
<polygon fill="midnightblue" stroke="midnightblue" points="745.15,-85.7 741.77,-75.66 738.15,-85.61 745.15,-85.7"/>
</g>
<!-- Node11 -->
<g id="node11" class="node">
<title>Node11</title>
<g id="a_node11"><a xlink:href="Ints_8hpp.html" target="_top" xlink:title=" ">
<polygon fill="white" stroke="black" points="241.5,-56.5 241.5,-75.5 335.5,-75.5 335.5,-56.5 241.5,-56.5"/>
<text text-anchor="middle" x="288.5" y="-63.5" font-family="Helvetica,sans-Serif" font-size="10.00">Models/Ints.hpp</text>
</a>
</g>
</g>
<!-- Node3&#45;&gt;Node11 -->
<g id="edge24" class="edge">
<title>Node3&#45;&gt;Node11</title>
<path fill="none" stroke="midnightblue" d="M428.27,-280.45C378.56,-269.09 307.22,-243.56 278.5,-188 261.38,-154.89 272.69,-109.79 281.31,-85.06"/>
<polygon fill="midnightblue" stroke="midnightblue" points="284.65,-86.12 284.87,-75.52 278.09,-83.67 284.65,-86.12"/>
</g>
<!-- Node15 -->
<g id="node15" class="node">
<title>Node15</title>
<g id="a_node15"><a xlink:href="ARectangleMemory_8hpp.html" target="_top" xlink:title=" ">
<polygon fill="white" stroke="black" points="356.5,-168.5 356.5,-187.5 532.5,-187.5 532.5,-168.5 356.5,-168.5"/>
<text text-anchor="middle" x="444.5" y="-175.5" font-family="Helvetica,sans-Serif" font-size="10.00">Memory/ARectangleMemory.hpp</text>
</a>
</g>
</g>
<!-- Node3&#45;&gt;Node15 -->
<g id="edge21" class="edge">
<title>Node3&#45;&gt;Node15</title>
<path fill="none" stroke="midnightblue" d="M478.13,-280.1C474.73,-267.52 468.14,-243.85 461.5,-224 458.52,-215.08 454.87,-205.3 451.72,-197.14"/>
<polygon fill="midnightblue" stroke="midnightblue" points="454.87,-195.59 447.96,-187.56 448.35,-198.14 454.87,-195.59"/>
</g>
<!-- Node16 -->
<g id="node16" class="node">
<title>Node16</title>
<g id="a_node16"><a xlink:href="Ram_8hpp.html" target="_top" xlink:title=" ">
<polygon fill="white" stroke="black" points="366.5,-224.5 366.5,-243.5 452.5,-243.5 452.5,-224.5 366.5,-224.5"/>
<text text-anchor="middle" x="409.5" y="-231.5" font-family="Helvetica,sans-Serif" font-size="10.00">Ram/Ram.hpp</text>
</a>
</g>
</g>
<!-- Node3&#45;&gt;Node16 -->
<g id="edge25" class="edge">
<title>Node3&#45;&gt;Node16</title>
<path fill="none" stroke="midnightblue" d="M469.09,-280.32C458.39,-272.18 442.16,-259.84 429.34,-250.09"/>
<polygon fill="midnightblue" stroke="midnightblue" points="431.19,-247.1 421.11,-243.83 426.96,-252.67 431.19,-247.1"/>
</g>
<!-- Node18 -->
<g id="node18" class="node">
<title>Node18</title>
<g id="a_node18"><a xlink:title=" ">
<polygon fill="white" stroke="#bfbfbf" points="762.5,-224.5 762.5,-243.5 830.5,-243.5 830.5,-224.5 762.5,-224.5"/>
<text text-anchor="middle" x="796.5" y="-231.5" font-family="Helvetica,sans-Serif" font-size="10.00">filesystem</text>
</a>
</g>
</g>
<!-- Node3&#45;&gt;Node18 -->
<g id="edge30" class="edge">
<title>Node3&#45;&gt;Node18</title>
<path fill="none" stroke="midnightblue" d="M532.93,-280.5C586.99,-271.66 673.71,-257.29 748.5,-244 749.77,-243.77 751.05,-243.54 752.35,-243.31"/>
<polygon fill="midnightblue" stroke="midnightblue" points="753.22,-246.71 762.43,-241.47 751.96,-239.82 753.22,-246.71"/>
</g>
<!-- Node5 -->
<g id="node5" class="node">
<title>Node5</title>
<g id="a_node5"><a xlink:title=" ">
<polygon fill="white" stroke="#bfbfbf" points="548.5,-0.5 548.5,-19.5 610.5,-19.5 610.5,-0.5 548.5,-0.5"/>
<text text-anchor="middle" x="579.5" y="-7.5" font-family="Helvetica,sans-Serif" font-size="10.00">cinttypes</text>
</a>
</g>
</g>
<!-- Node4&#45;&gt;Node5 -->
<g id="edge4" class="edge">
<title>Node4&#45;&gt;Node5</title>
<path fill="none" stroke="midnightblue" d="M841.9,-112.35C829.05,-98.29 801.58,-70.59 772.5,-56 723.7,-31.51 661.24,-20.09 620.81,-14.95"/>
<polygon fill="midnightblue" stroke="midnightblue" points="621.12,-11.46 610.77,-13.74 620.29,-18.41 621.12,-11.46"/>
</g>
<!-- Node7 -->
<g id="node7" class="node">
<title>Node7</title>
<g id="a_node7"><a xlink:title=" ">
<polygon fill="white" stroke="#bfbfbf" points="419.5,-56.5 419.5,-75.5 469.5,-75.5 469.5,-56.5 419.5,-56.5"/>
<text text-anchor="middle" x="444.5" y="-63.5" font-family="Helvetica,sans-Serif" font-size="10.00">cstdint</text>
</a>
</g>
</g>
<!-- Node6&#45;&gt;Node7 -->
<g id="edge6" class="edge">
<title>Node6&#45;&gt;Node7</title>
<path fill="none" stroke="midnightblue" d="M604.14,-168.48C588.18,-155.55 556.4,-130.5 527.5,-112 509.26,-100.33 487.75,-88.72 471.2,-80.22"/>
<polygon fill="midnightblue" stroke="midnightblue" points="472.59,-77 462.09,-75.6 469.42,-83.24 472.59,-77"/>
</g>
<!-- Node8 -->
<g id="node8" class="node">
<title>Node8</title>
<g id="a_node8"><a xlink:title=" ">
<polygon fill="white" stroke="#bfbfbf" points="354,-56.5 354,-75.5 401,-75.5 401,-56.5 354,-56.5"/>
<text text-anchor="middle" x="377.5" y="-63.5" font-family="Helvetica,sans-Serif" font-size="10.00">vector</text>
</a>
</g>
</g>
<!-- Node6&#45;&gt;Node8 -->
<g id="edge7" class="edge">
<title>Node6&#45;&gt;Node8</title>
<path fill="none" stroke="midnightblue" d="M563.61,-168.43C516.83,-159.89 451.52,-146.03 429.5,-132 410.9,-120.15 396,-99.34 387,-84.45"/>
<polygon fill="midnightblue" stroke="midnightblue" points="389.97,-82.6 381.95,-75.68 383.91,-86.1 389.97,-82.6"/>
</g>
<!-- Node9 -->
<g id="node9" class="node">
<title>Node9</title>
<g id="a_node9"><a xlink:title=" ">
<polygon fill="white" stroke="#bfbfbf" points="487.5,-56.5 487.5,-75.5 545.5,-75.5 545.5,-56.5 487.5,-56.5"/>
<text text-anchor="middle" x="516.5" y="-63.5" font-family="Helvetica,sans-Serif" font-size="10.00">memory</text>
</a>
</g>
</g>
<!-- Node6&#45;&gt;Node9 -->
<g id="edge8" class="edge">
<title>Node6&#45;&gt;Node9</title>
<path fill="none" stroke="midnightblue" d="M608.45,-168.23C599.44,-155.41 581.72,-130.98 564.5,-112 555,-101.53 543.47,-90.67 534.09,-82.24"/>
<polygon fill="midnightblue" stroke="midnightblue" points="536.32,-79.53 526.51,-75.53 531.68,-84.77 536.32,-79.53"/>
</g>
<!-- Node6&#45;&gt;Node10 -->
<g id="edge9" class="edge">
<title>Node6&#45;&gt;Node10</title>
<path fill="none" stroke="midnightblue" d="M624.47,-168.37C645.89,-149.81 696.57,-105.91 723.68,-82.44"/>
<polygon fill="midnightblue" stroke="midnightblue" points="726.31,-84.78 731.58,-75.59 721.73,-79.49 726.31,-84.78"/>
</g>
<!-- Node6&#45;&gt;Node11 -->
<g id="edge10" class="edge">
<title>Node6&#45;&gt;Node11</title>
<path fill="none" stroke="midnightblue" d="M550.75,-168.58C508.12,-161.71 451.31,-150.12 403.5,-132 368.44,-118.71 331.26,-95.89 308.97,-81.13"/>
<polygon fill="midnightblue" stroke="midnightblue" points="310.9,-78.21 300.65,-75.53 306.99,-84.02 310.9,-78.21"/>
</g>
<!-- Node13 -->
<g id="node13" class="node">
<title>Node13</title>
<g id="a_node13"><a xlink:href="Components_8hpp.html" target="_top" xlink:title=" ">
<polygon fill="white" stroke="black" points="564,-56.5 564,-75.5 701,-75.5 701,-56.5 564,-56.5"/>
<text text-anchor="middle" x="632.5" y="-63.5" font-family="Helvetica,sans-Serif" font-size="10.00">Models/Components.hpp</text>
</a>
</g>
</g>
<!-- Node6&#45;&gt;Node13 -->
<g id="edge13" class="edge">
<title>Node6&#45;&gt;Node13</title>
<path fill="none" stroke="midnightblue" d="M615.91,-168.37C618.82,-150.62 625.52,-109.67 629.46,-85.6"/>
<polygon fill="midnightblue" stroke="midnightblue" points="632.93,-86.03 631.09,-75.59 626.03,-84.89 632.93,-86.03"/>
</g>
<!-- Node14 -->
<g id="node14" class="node">
<title>Node14</title>
<g id="a_node14"><a xlink:href="IMemory_8hpp.html" target="_top" xlink:title=" ">
<polygon fill="white" stroke="black" points="438.5,-112.5 438.5,-131.5 518.5,-131.5 518.5,-112.5 438.5,-112.5"/>
<text text-anchor="middle" x="478.5" y="-119.5" font-family="Helvetica,sans-Serif" font-size="10.00">IMemory.hpp</text>
</a>
</g>
</g>
<!-- Node6&#45;&gt;Node14 -->
<g id="edge14" class="edge">
<title>Node6&#45;&gt;Node14</title>
<path fill="none" stroke="midnightblue" d="M592.95,-168.44C570.47,-159.52 535.01,-145.44 509.52,-135.32"/>
<polygon fill="midnightblue" stroke="midnightblue" points="510.53,-131.95 499.95,-131.52 507.95,-138.46 510.53,-131.95"/>
</g>
<!-- Node11&#45;&gt;Node5 -->
<g id="edge11" class="edge">
<title>Node11&#45;&gt;Node5</title>
<path fill="none" stroke="midnightblue" d="M334.61,-56.44C390.77,-46.02 484.77,-28.58 538.5,-18.61"/>
<polygon fill="midnightblue" stroke="midnightblue" points="539.18,-22.04 548.37,-16.78 537.9,-15.16 539.18,-22.04"/>
</g>
<!-- Node12 -->
<g id="node12" class="node">
<title>Node12</title>
<g id="a_node12"><a xlink:title=" ">
<polygon fill="white" stroke="#bfbfbf" points="258.5,-0.5 258.5,-19.5 318.5,-19.5 318.5,-0.5 258.5,-0.5"/>
<text text-anchor="middle" x="288.5" y="-7.5" font-family="Helvetica,sans-Serif" font-size="10.00">iostream</text>
</a>
</g>
</g>
<!-- Node11&#45;&gt;Node12 -->
<g id="edge12" class="edge">
<title>Node11&#45;&gt;Node12</title>
<path fill="none" stroke="midnightblue" d="M288.5,-56.08C288.5,-49.01 288.5,-38.86 288.5,-29.99"/>
<polygon fill="midnightblue" stroke="midnightblue" points="292,-29.75 288.5,-19.75 285,-29.75 292,-29.75"/>
</g>
<!-- Node14&#45;&gt;Node7 -->
<g id="edge15" class="edge">
<title>Node14&#45;&gt;Node7</title>
<path fill="none" stroke="midnightblue" d="M472.89,-112.08C468.13,-104.53 461.18,-93.49 455.35,-84.23"/>
<polygon fill="midnightblue" stroke="midnightblue" points="458.3,-82.35 450.01,-75.75 452.38,-86.08 458.3,-82.35"/>
</g>
<!-- Node14&#45;&gt;Node8 -->
<g id="edge16" class="edge">
<title>Node14&#45;&gt;Node8</title>
<path fill="none" stroke="midnightblue" d="M462.27,-112.32C446.15,-103.7 421.2,-90.36 402.54,-80.39"/>
<polygon fill="midnightblue" stroke="midnightblue" points="404.16,-77.28 393.69,-75.65 400.86,-83.46 404.16,-77.28"/>
</g>
<!-- Node14&#45;&gt;Node9 -->
<g id="edge17" class="edge">
<title>Node14&#45;&gt;Node9</title>
<path fill="none" stroke="midnightblue" d="M484.77,-112.08C490.14,-104.46 498.02,-93.26 504.58,-83.94"/>
<polygon fill="midnightblue" stroke="midnightblue" points="507.45,-85.94 510.34,-75.75 501.72,-81.91 507.45,-85.94"/>
</g>
<!-- Node14&#45;&gt;Node10 -->
<g id="edge18" class="edge">
<title>Node14&#45;&gt;Node10</title>
<path fill="none" stroke="midnightblue" d="M518.56,-114.37C563,-106.77 637,-93.36 709.46,-76.08"/>
<polygon fill="midnightblue" stroke="midnightblue" points="710.31,-79.48 719.21,-73.73 708.67,-72.67 710.31,-79.48"/>
</g>
<!-- Node14&#45;&gt;Node11 -->
<g id="edge19" class="edge">
<title>Node14&#45;&gt;Node11</title>
<path fill="none" stroke="midnightblue" d="M448.39,-112.44C415.87,-103.2 363.92,-88.44 328.11,-78.26"/>
<polygon fill="midnightblue" stroke="midnightblue" points="329.04,-74.88 318.47,-75.52 327.13,-81.62 329.04,-74.88"/>
</g>
<!-- Node14&#45;&gt;Node13 -->
<g id="edge20" class="edge">
<title>Node14&#45;&gt;Node13</title>
<path fill="none" stroke="midnightblue" d="M502.9,-112.44C528.7,-103.4 569.58,-89.06 598.52,-78.92"/>
<polygon fill="midnightblue" stroke="midnightblue" points="599.93,-82.13 608.21,-75.52 597.62,-75.52 599.93,-82.13"/>
</g>
<!-- Node15&#45;&gt;Node11 -->
<g id="edge23" class="edge">
<title>Node15&#45;&gt;Node11</title>
<path fill="none" stroke="midnightblue" d="M409.51,-168.49C386.18,-161.53 355.82,-149.87 333.5,-132 317.48,-119.17 304.83,-99.16 297.07,-84.73"/>
<polygon fill="midnightblue" stroke="midnightblue" points="300.17,-83.1 292.5,-75.79 293.93,-86.28 300.17,-83.1"/>
</g>
<!-- Node15&#45;&gt;Node14 -->
<g id="edge22" class="edge">
<title>Node15&#45;&gt;Node14</title>
<path fill="none" stroke="midnightblue" d="M450.11,-168.08C454.87,-160.53 461.82,-149.49 467.65,-140.23"/>
<polygon fill="midnightblue" stroke="midnightblue" points="470.62,-142.08 472.99,-131.75 464.7,-138.35 470.62,-142.08"/>
</g>
<!-- Node16&#45;&gt;Node8 -->
<g id="edge29" class="edge">
<title>Node16&#45;&gt;Node8</title>
<path fill="none" stroke="midnightblue" d="M366.48,-229C339.53,-224.02 306.74,-212.87 289.5,-188 262.34,-148.8 319.39,-103.59 353.84,-81.16"/>
<polygon fill="midnightblue" stroke="midnightblue" points="355.88,-84.01 362.46,-75.71 352.14,-78.09 355.88,-84.01"/>
</g>
<!-- Node16&#45;&gt;Node10 -->
<g id="edge27" class="edge">
<title>Node16&#45;&gt;Node10</title>
<path fill="none" stroke="midnightblue" d="M452.68,-230.95C521.39,-226.89 651.51,-215.69 687.5,-188 704.63,-174.82 725.71,-115.79 735.71,-85.32"/>
<polygon fill="midnightblue" stroke="midnightblue" points="739.13,-86.12 738.86,-75.53 732.47,-83.98 739.13,-86.12"/>
</g>
<!-- Node16&#45;&gt;Node15 -->
<g id="edge26" class="edge">
<title>Node16&#45;&gt;Node15</title>
<path fill="none" stroke="midnightblue" d="M415.28,-224.08C420.17,-216.53 427.33,-205.49 433.33,-196.23"/>
<polygon fill="midnightblue" stroke="midnightblue" points="436.33,-198.05 438.83,-187.75 430.45,-194.24 436.33,-198.05"/>
</g>
<!-- Node17 -->
<g id="node17" class="node">
<title>Node17</title>
<g id="a_node17"><a xlink:title=" ">
<polygon fill="white" stroke="#bfbfbf" points="298.5,-168.5 298.5,-187.5 338.5,-187.5 338.5,-168.5 298.5,-168.5"/>
<text text-anchor="middle" x="318.5" y="-175.5" font-family="Helvetica,sans-Serif" font-size="10.00">span</text>
</a>
</g>
</g>
<!-- Node16&#45;&gt;Node17 -->
<g id="edge28" class="edge">
<title>Node16&#45;&gt;Node17</title>
<path fill="none" stroke="midnightblue" d="M394.88,-224.32C380.55,-215.82 358.49,-202.73 341.75,-192.8"/>
<polygon fill="midnightblue" stroke="midnightblue" points="343.47,-189.75 333.08,-187.65 339.9,-195.77 343.47,-189.75"/>
</g>
<!-- Node20&#45;&gt;Node2 -->
<g id="edge34" class="edge">
<title>Node20&#45;&gt;Node2</title>
<path fill="none" stroke="midnightblue" d="M163.67,-280.32C145.78,-271.62 118.02,-258.12 97.45,-248.11"/>
<polygon fill="midnightblue" stroke="midnightblue" points="98.81,-244.88 88.29,-243.65 95.75,-251.18 98.81,-244.88"/>
</g>
<!-- Node21 -->
<g id="node21" class="node">
<title>Node21</title>
<g id="a_node21"><a xlink:title=" ">
<polygon fill="white" stroke="#bfbfbf" points="159,-224.5 159,-243.5 204,-243.5 204,-224.5 159,-224.5"/>
<text text-anchor="middle" x="181.5" y="-231.5" font-family="Helvetica,sans-Serif" font-size="10.00">utility</text>
</a>
</g>
</g>
<!-- Node20&#45;&gt;Node21 -->
<g id="edge35" class="edge">
<title>Node20&#45;&gt;Node21</title>
<path fill="none" stroke="midnightblue" d="M181.5,-280.08C181.5,-273.01 181.5,-262.86 181.5,-253.99"/>
<polygon fill="midnightblue" stroke="midnightblue" points="185,-253.75 181.5,-243.75 178,-253.75 185,-253.75"/>
</g>
</g>
</svg>
