<?xml version="1.0" encoding="UTF-8" standalone="no"?>
<!DOCTYPE svg PUBLIC "-//W3C//DTD SVG 1.1//EN"
 "http://www.w3.org/Graphics/SVG/1.1/DTD/svg11.dtd">
<!-- Generated by graphviz version 2.43.0 (0)
 -->
<!-- Title: sources/Memory/IMemoryBus.hpp Pages: 1 -->
<svg width="568pt" height="196pt"
 viewBox="0.00 0.00 568.00 196.00" xmlns="http://www.w3.org/2000/svg" xmlns:xlink="http://www.w3.org/1999/xlink">
<g id="graph0" class="graph" transform="scale(1 1) rotate(0) translate(4 192)">
<title>sources/Memory/IMemoryBus.hpp</title>
<polygon fill="white" stroke="transparent" points="-4,4 -4,-192 564,-192 564,4 -4,4"/>
<!-- Node1 -->
<g id="node1" class="node">
<title>Node1</title>
<g id="a_node1"><a xlink:title=" ">
<polygon fill="#bfbfbf" stroke="black" points="0,-168.5 0,-187.5 183,-187.5 183,-168.5 0,-168.5"/>
<text text-anchor="middle" x="91.5" y="-175.5" font-family="Helvetica,sans-Serif" font-size="10.00">sources/Memory/IMemoryBus.hpp</text>
</a>
</g>
</g>
<!-- Node2 -->
<g id="node2" class="node">
<title>Node2</title>
<g id="a_node2"><a xlink:title=" ">
<polygon fill="white" stroke="#bfbfbf" points="113.5,-0.5 113.5,-19.5 175.5,-19.5 175.5,-0.5 113.5,-0.5"/>
<text text-anchor="middle" x="144.5" y="-7.5" font-family="Helvetica,sans-Serif" font-size="10.00">cinttypes</text>
</a>
</g>
</g>
<!-- Node1&#45;&gt;Node2 -->
<g id="edge1" class="edge">
<title>Node1&#45;&gt;Node2</title>
<path fill="none" stroke="midnightblue" d="M80.8,-168.38C56.76,-147.95 2.62,-95.38 29.5,-56 45.98,-31.85 77.55,-20.66 103.44,-15.47"/>
<polygon fill="midnightblue" stroke="midnightblue" points="104.17,-18.9 113.41,-13.71 102.95,-12.01 104.17,-18.9"/>
</g>
<!-- Node3 -->
<g id="node3" class="node">
<title>Node3</title>
<g id="a_node3"><a xlink:title=" ">
<polygon fill="white" stroke="#bfbfbf" points="63.5,-112.5 63.5,-131.5 119.5,-131.5 119.5,-112.5 63.5,-112.5"/>
<text text-anchor="middle" x="91.5" y="-119.5" font-family="Helvetica,sans-Serif" font-size="10.00">optional</text>
</a>
</g>
</g>
<!-- Node1&#45;&gt;Node3 -->
<g id="edge2" class="edge">
<title>Node1&#45;&gt;Node3</title>
<path fill="none" stroke="midnightblue" d="M91.5,-168.08C91.5,-161.01 91.5,-150.86 91.5,-141.99"/>
<polygon fill="midnightblue" stroke="midnightblue" points="95,-141.75 91.5,-131.75 88,-141.75 95,-141.75"/>
</g>
<!-- Node4 -->
<g id="node4" class="node">
<title>Node4</title>
<g id="a_node4"><a xlink:href="IMemory_8hpp.html" target="_top" xlink:title=" ">
<polygon fill="white" stroke="black" points="161.5,-112.5 161.5,-131.5 241.5,-131.5 241.5,-112.5 161.5,-112.5"/>
<text text-anchor="middle" x="201.5" y="-119.5" font-family="Helvetica,sans-Serif" font-size="10.00">IMemory.hpp</text>
</a>
</g>
</g>
<!-- Node1&#45;&gt;Node4 -->
<g id="edge3" class="edge">
<title>Node1&#45;&gt;Node4</title>
<path fill="none" stroke="midnightblue" d="M109.17,-168.32C126.89,-159.62 154.4,-146.12 174.79,-136.11"/>
<polygon fill="midnightblue" stroke="midnightblue" points="176.44,-139.2 183.87,-131.65 173.35,-132.92 176.44,-139.2"/>
</g>
<!-- Node5 -->
<g id="node5" class="node">
<title>Node5</title>
<g id="a_node5"><a xlink:title=" ">
<polygon fill="white" stroke="#bfbfbf" points="38.5,-56.5 38.5,-75.5 88.5,-75.5 88.5,-56.5 38.5,-56.5"/>
<text text-anchor="middle" x="63.5" y="-63.5" font-family="Helvetica,sans-Serif" font-size="10.00">cstdint</text>
</a>
</g>
</g>
<!-- Node4&#45;&gt;Node5 -->
<g id="edge4" class="edge">
<title>Node4&#45;&gt;Node5</title>
<path fill="none" stroke="midnightblue" d="M179.63,-112.44C156.72,-103.48 120.52,-89.31 94.63,-79.18"/>
<polygon fill="midnightblue" stroke="midnightblue" points="95.85,-75.9 85.26,-75.52 93.3,-82.42 95.85,-75.9"/>
</g>
<!-- Node6 -->
<g id="node6" class="node">
<title>Node6</title>
<g id="a_node6"><a xlink:title=" ">
<polygon fill="white" stroke="#bfbfbf" points="107,-56.5 107,-75.5 154,-75.5 154,-56.5 107,-56.5"/>
<text text-anchor="middle" x="130.5" y="-63.5" font-family="Helvetica,sans-Serif" font-size="10.00">vector</text>
</a>
</g>
</g>
<!-- Node4&#45;&gt;Node6 -->
<g id="edge5" class="edge">
<title>Node4&#45;&gt;Node6</title>
<path fill="none" stroke="midnightblue" d="M190.09,-112.32C179.39,-104.18 163.16,-91.84 150.34,-82.09"/>
<polygon fill="midnightblue" stroke="midnightblue" points="152.19,-79.1 142.11,-75.83 147.96,-84.67 152.19,-79.1"/>
</g>
<!-- Node7 -->
<g id="node7" class="node">
<title>Node7</title>
<g id="a_node7"><a xlink:title=" ">
<polygon fill="white" stroke="#bfbfbf" points="172.5,-56.5 172.5,-75.5 230.5,-75.5 230.5,-56.5 172.5,-56.5"/>
<text text-anchor="middle" x="201.5" y="-63.5" font-family="Helvetica,sans-Serif" font-size="10.00">memory</text>
</a>
</g>
</g>
<!-- Node4&#45;&gt;Node7 -->
<g id="edge6" class="edge">
<title>Node4&#45;&gt;Node7</title>
<path fill="none" stroke="midnightblue" d="M201.5,-112.08C201.5,-105.01 201.5,-94.86 201.5,-85.99"/>
<polygon fill="midnightblue" stroke="midnightblue" points="205,-85.75 201.5,-75.75 198,-85.75 205,-85.75"/>
</g>
<!-- Node8 -->
<g id="node8" class="node">
<title>Node8</title>
<g id="a_node8"><a xlink:title=" ">
<polygon fill="white" stroke="#bfbfbf" points="248.5,-56.5 248.5,-75.5 292.5,-75.5 292.5,-56.5 248.5,-56.5"/>
<text text-anchor="middle" x="270.5" y="-63.5" font-family="Helvetica,sans-Serif" font-size="10.00">string</text>
</a>
</g>
</g>
<!-- Node4&#45;&gt;Node8 -->
<g id="edge7" class="edge">
<title>Node4&#45;&gt;Node8</title>
<path fill="none" stroke="midnightblue" d="M212.59,-112.32C222.99,-104.18 238.76,-91.84 251.22,-82.09"/>
<polygon fill="midnightblue" stroke="midnightblue" points="253.49,-84.75 259.21,-75.83 249.18,-79.24 253.49,-84.75"/>
</g>
<!-- Node9 -->
<g id="node9" class="node">
<title>Node9</title>
<g id="a_node9"><a xlink:href="Ints_8hpp.html" target="_top" xlink:title=" ">
<polygon fill="white" stroke="black" points="310.5,-56.5 310.5,-75.5 404.5,-75.5 404.5,-56.5 310.5,-56.5"/>
<text text-anchor="middle" x="357.5" y="-63.5" font-family="Helvetica,sans-Serif" font-size="10.00">Models/Ints.hpp</text>
</a>
</g>
</g>
<!-- Node4&#45;&gt;Node9 -->
<g id="edge8" class="edge">
<title>Node4&#45;&gt;Node9</title>
<path fill="none" stroke="midnightblue" d="M226.22,-112.44C252.35,-103.4 293.76,-89.06 323.08,-78.92"/>
<polygon fill="midnightblue" stroke="midnightblue" points="324.59,-82.1 332.9,-75.52 322.3,-75.48 324.59,-82.1"/>
</g>
<!-- Node11 -->
<g id="node11" class="node">
<title>Node11</title>
<g id="a_node11"><a xlink:href="Components_8hpp.html" target="_top" xlink:title=" ">
<polygon fill="white" stroke="black" points="423,-56.5 423,-75.5 560,-75.5 560,-56.5 423,-56.5"/>
<text text-anchor="middle" x="491.5" y="-63.5" font-family="Helvetica,sans-Serif" font-size="10.00">Models/Components.hpp</text>
</a>
</g>
</g>
<!-- Node4&#45;&gt;Node11 -->
<g id="edge11" class="edge">
<title>Node4&#45;&gt;Node11</title>
<path fill="none" stroke="midnightblue" d="M241.52,-113.55C291.94,-104.16 378.87,-87.97 435.77,-77.38"/>
<polygon fill="midnightblue" stroke="midnightblue" points="436.49,-80.8 445.68,-75.53 435.21,-73.92 436.49,-80.8"/>
</g>
<!-- Node9&#45;&gt;Node2 -->
<g id="edge9" class="edge">
<title>Node9&#45;&gt;Node2</title>
<path fill="none" stroke="midnightblue" d="M323.75,-56.44C286.22,-46.93 225.62,-31.57 185.42,-21.37"/>
<polygon fill="midnightblue" stroke="midnightblue" points="186.22,-17.97 175.67,-18.9 184.5,-24.75 186.22,-17.97"/>
</g>
<!-- Node10 -->
<g id="node10" class="node">
<title>Node10</title>
<g id="a_node10"><a xlink:title=" ">
<polygon fill="white" stroke="#bfbfbf" points="327.5,-0.5 327.5,-19.5 387.5,-19.5 387.5,-0.5 327.5,-0.5"/>
<text text-anchor="middle" x="357.5" y="-7.5" font-family="Helvetica,sans-Serif" font-size="10.00">iostream</text>
</a>
</g>
</g>
<!-- Node9&#45;&gt;Node10 -->
<g id="edge10" class="edge">
<title>Node9&#45;&gt;Node10</title>
<path fill="none" stroke="midnightblue" d="M357.5,-56.08C357.5,-49.01 357.5,-38.86 357.5,-29.99"/>
<polygon fill="midnightblue" stroke="midnightblue" points="361,-29.75 357.5,-19.75 354,-29.75 361,-29.75"/>
</g>
</g>
</svg>
