<?xml version="1.0" encoding="UTF-8" standalone="no"?>
<!DOCTYPE svg PUBLIC "-//W3C//DTD SVG 1.1//EN"
 "http://www.w3.org/Graphics/SVG/1.1/DTD/svg11.dtd">
<!-- Generated by graphviz version 2.43.0 (0)
 -->
<!-- Title: Graphical Class Hierarchy Pages: 1 -->
<svg width="488pt" height="233pt"
 viewBox="0.00 0.00 488.00 232.50" xmlns="http://www.w3.org/2000/svg" xmlns:xlink="http://www.w3.org/1999/xlink">
<g id="graph0" class="graph" transform="scale(1 1) rotate(0) translate(4 228.5)">
<title>Graphical Class Hierarchy</title>
<polygon fill="white" stroke="transparent" points="-4,4 -4,-228.5 484,-228.5 484,4 -4,4"/>
<!-- Node77 -->
<g id="node1" class="node">
<title>Node77</title>
<g id="a_node1"><a xlink:title=" ">
<polygon fill="white" stroke="#bfbfbf" points="0,-79 0,-98 65,-98 65,-79 0,-79"/>
<text text-anchor="middle" x="32.5" y="-86" font-family="Helvetica,sans-Serif" font-size="10.00">exception</text>
</a>
</g>
</g>
<!-- Node0 -->
<g id="node2" class="node">
<title>Node0</title>
<g id="a_node2"><a xlink:href="classComSquare_1_1DebuggableError.html" target="_top" xlink:title=" ">
<polygon fill="white" stroke="black" points="101,-148 101,-167 262,-167 262,-148 101,-148"/>
<text text-anchor="middle" x="181.5" y="-155" font-family="Helvetica,sans-Serif" font-size="10.00">ComSquare::DebuggableError</text>
</a>
</g>
</g>
<!-- Node77&#45;&gt;Node0 -->
<g id="edge1" class="edge">
<title>Node77&#45;&gt;Node0</title>
<path fill="none" stroke="midnightblue" d="M51.82,-104.79C64.74,-115.5 82.92,-129.05 101,-137.5 110.15,-141.78 120.35,-145.22 130.3,-147.96"/>
<polygon fill="midnightblue" stroke="midnightblue" points="54.01,-102.06 44.13,-98.24 49.47,-107.39 54.01,-102.06"/>
</g>
<!-- Node83 -->
<g id="node7" class="node">
<title>Node83</title>
<g id="a_node7"><a xlink:href="classComSquare_1_1InvalidRectangleAddress.html" target="_top" xlink:title="Exception thrown when trying to read/write to an invalid address in a rectangle memory region.">
<polygon fill="white" stroke="black" points="101,-98.5 101,-128.5 262,-128.5 262,-98.5 101,-98.5"/>
<text text-anchor="start" x="109" y="-116.5" font-family="Helvetica,sans-Serif" font-size="10.00">ComSquare::InvalidRectangle</text>
<text text-anchor="middle" x="181.5" y="-105.5" font-family="Helvetica,sans-Serif" font-size="10.00">Address</text>
</a>
</g>
</g>
<!-- Node77&#45;&gt;Node83 -->
<g id="edge6" class="edge">
<title>Node77&#45;&gt;Node83</title>
<path fill="none" stroke="midnightblue" d="M75.01,-95.56C83.19,-96.95 92.04,-98.46 101,-99.98"/>
<polygon fill="midnightblue" stroke="midnightblue" points="75.48,-92.09 65.04,-93.86 74.31,-98.99 75.48,-92.09"/>
</g>
<!-- Node84 -->
<g id="node8" class="node">
<title>Node84</title>
<g id="a_node8"><a xlink:href="classComSquare_1_1NotImplementedException.html" target="_top" xlink:title="When this is thrown, it means that we should work more.">
<polygon fill="white" stroke="black" points="101,-49.5 101,-79.5 262,-79.5 262,-49.5 101,-49.5"/>
<text text-anchor="start" x="109" y="-67.5" font-family="Helvetica,sans-Serif" font-size="10.00">ComSquare::NotImplemented</text>
<text text-anchor="middle" x="181.5" y="-56.5" font-family="Helvetica,sans-Serif" font-size="10.00">Exception</text>
</a>
</g>
</g>
<!-- Node77&#45;&gt;Node84 -->
<g id="edge7" class="edge">
<title>Node77&#45;&gt;Node84</title>
<path fill="none" stroke="midnightblue" d="M75.01,-81.72C83.19,-80.39 92.04,-78.94 101,-77.48"/>
<polygon fill="midnightblue" stroke="midnightblue" points="74.34,-78.29 65.04,-83.35 75.47,-85.19 74.34,-78.29"/>
</g>
<!-- Node85 -->
<g id="node9" class="node">
<title>Node85</title>
<g id="a_node9"><a xlink:href="classComSquare_1_1Renderer_1_1InvalidPixelPosition.html" target="_top" xlink:title=" ">
<polygon fill="white" stroke="black" points="120,-0.5 120,-30.5 243,-30.5 243,-0.5 120,-0.5"/>
<text text-anchor="start" x="128" y="-18.5" font-family="Helvetica,sans-Serif" font-size="10.00">ComSquare::Renderer</text>
<text text-anchor="middle" x="181.5" y="-7.5" font-family="Helvetica,sans-Serif" font-size="10.00">::InvalidPixelPosition</text>
</a>
</g>
</g>
<!-- Node77&#45;&gt;Node85 -->
<g id="edge8" class="edge">
<title>Node77&#45;&gt;Node85</title>
<path fill="none" stroke="midnightblue" d="M51.95,-72.48C64.93,-61.89 83.12,-48.37 101,-39.5 107.72,-36.17 114.98,-33.2 122.3,-30.58"/>
<polygon fill="midnightblue" stroke="midnightblue" points="49.65,-69.84 44.22,-78.94 54.14,-75.21 49.65,-69.84"/>
</g>
<!-- Node1 -->
<g id="node3" class="node">
<title>Node1</title>
<g id="a_node3"><a xlink:href="classComSquare_1_1InvalidAction.html" target="_top" xlink:title="Exception thrown when someone tries to load an invalid rom.">
<polygon fill="white" stroke="black" points="317.5,-205 317.5,-224 460.5,-224 460.5,-205 317.5,-205"/>
<text text-anchor="middle" x="389" y="-212" font-family="Helvetica,sans-Serif" font-size="10.00">ComSquare::InvalidAction</text>
</a>
</g>
</g>
<!-- Node0&#45;&gt;Node1 -->
<g id="edge2" class="edge">
<title>Node0&#45;&gt;Node1</title>
<path fill="none" stroke="midnightblue" d="M218.4,-170.44C241.04,-178.32 271.01,-188.23 298,-195.5 310.8,-198.95 324.76,-202.15 337.78,-204.92"/>
<polygon fill="midnightblue" stroke="midnightblue" points="219.45,-167.1 208.86,-167.09 217.13,-173.71 219.45,-167.1"/>
</g>
<!-- Node2 -->
<g id="node4" class="node">
<title>Node2</title>
<g id="a_node4"><a xlink:href="classComSquare_1_1InvalidAddress.html" target="_top" xlink:title="Exception thrown when trying to read/write to an invalid address.">
<polygon fill="white" stroke="black" points="313.5,-167 313.5,-186 464.5,-186 464.5,-167 313.5,-167"/>
<text text-anchor="middle" x="389" y="-174" font-family="Helvetica,sans-Serif" font-size="10.00">ComSquare::InvalidAddress</text>
</a>
</g>
</g>
<!-- Node0&#45;&gt;Node2 -->
<g id="edge3" class="edge">
<title>Node0&#45;&gt;Node2</title>
<path fill="none" stroke="midnightblue" d="M272.58,-165.83C286.19,-167.09 300.11,-168.37 313.35,-169.6"/>
<polygon fill="midnightblue" stroke="midnightblue" points="272.53,-162.31 262.25,-164.87 271.88,-169.28 272.53,-162.31"/>
</g>
<!-- Node3 -->
<g id="node5" class="node">
<title>Node3</title>
<g id="a_node5"><a xlink:href="classComSquare_1_1InvalidOpcode.html" target="_top" xlink:title="Exception thrown when someone tries to load an invalid rom.">
<polygon fill="white" stroke="black" points="314.5,-129 314.5,-148 463.5,-148 463.5,-129 314.5,-129"/>
<text text-anchor="middle" x="389" y="-136" font-family="Helvetica,sans-Serif" font-size="10.00">ComSquare::InvalidOpcode</text>
</a>
</g>
</g>
<!-- Node0&#45;&gt;Node3 -->
<g id="edge4" class="edge">
<title>Node0&#45;&gt;Node3</title>
<path fill="none" stroke="midnightblue" d="M272.38,-149.19C286.4,-147.89 300.75,-146.57 314.35,-145.31"/>
<polygon fill="midnightblue" stroke="midnightblue" points="271.88,-145.72 262.25,-150.13 272.53,-152.69 271.88,-145.72"/>
</g>
<!-- Node4 -->
<g id="node6" class="node">
<title>Node4</title>
<g id="a_node6"><a xlink:href="classComSquare_1_1InvalidRomException.html" target="_top" xlink:title="Exception thrown when someone tries to load an invalid rom.">
<polygon fill="white" stroke="black" points="298,-91 298,-110 480,-110 480,-91 298,-91"/>
<text text-anchor="middle" x="389" y="-98" font-family="Helvetica,sans-Serif" font-size="10.00">ComSquare::InvalidRomException</text>
</a>
</g>
</g>
<!-- Node0&#45;&gt;Node4 -->
<g id="edge5" class="edge">
<title>Node0&#45;&gt;Node4</title>
<path fill="none" stroke="midnightblue" d="M237.32,-145.38C245.68,-143.05 254.14,-140.42 262,-137.5 278.77,-131.28 281.11,-125.4 298,-119.5 308.7,-115.76 320.39,-112.64 331.7,-110.07"/>
<polygon fill="midnightblue" stroke="midnightblue" points="236.35,-142.01 227.59,-147.96 238.15,-148.78 236.35,-142.01"/>
</g>
</g>
</svg>
