<?xml version="1.0" encoding="UTF-8" standalone="no"?>
<!DOCTYPE svg PUBLIC "-//W3C//DTD SVG 1.1//EN"
 "http://www.w3.org/Graphics/SVG/1.1/DTD/svg11.dtd">
<!-- Generated by graphviz version 2.43.0 (0)
 -->
<!-- Title: Graphical Class Hierarchy Pages: 1 -->
<svg width="608pt" height="183pt"
 viewBox="0.00 0.00 608.00 183.00" xmlns="http://www.w3.org/2000/svg" xmlns:xlink="http://www.w3.org/1999/xlink">
<g id="graph0" class="graph" transform="scale(1 1) rotate(0) translate(4 179)">
<title>Graphical Class Hierarchy</title>
<polygon fill="white" stroke="transparent" points="-4,4 -4,-179 604,-179 604,4 -4,4"/>
<!-- Node49 -->
<g id="node1" class="node">
<title>Node49</title>
<g id="a_node1"><a xlink:href="classComSquare_1_1Renderer_1_1IRenderer.html" target="_top" xlink:title=" ">
<polygon fill="white" stroke="black" points="0,-95.5 0,-125.5 123,-125.5 123,-95.5 0,-95.5"/>
<text text-anchor="start" x="8" y="-113.5" font-family="Helvetica,sans-Serif" font-size="10.00">ComSquare::Renderer</text>
<text text-anchor="middle" x="61.5" y="-102.5" font-family="Helvetica,sans-Serif" font-size="10.00">::IRenderer</text>
</a>
</g>
</g>
<!-- Node50 -->
<g id="node2" class="node">
<title>Node50</title>
<g id="a_node2"><a xlink:href="classComSquare_1_1Renderer_1_1NoRenderer.html" target="_top" xlink:title="A renderer that discard everything you give. (Used for tests).">
<polygon fill="white" stroke="black" points="159,-144.5 159,-174.5 282,-174.5 282,-144.5 159,-144.5"/>
<text text-anchor="start" x="167" y="-162.5" font-family="Helvetica,sans-Serif" font-size="10.00">ComSquare::Renderer</text>
<text text-anchor="middle" x="220.5" y="-151.5" font-family="Helvetica,sans-Serif" font-size="10.00">::NoRenderer</text>
</a>
</g>
</g>
<!-- Node49&#45;&gt;Node50 -->
<g id="edge1" class="edge">
<title>Node49&#45;&gt;Node50</title>
<path fill="none" stroke="midnightblue" d="M120.54,-128.61C137.23,-133.82 155.24,-139.45 171.27,-144.45"/>
<polygon fill="midnightblue" stroke="midnightblue" points="121.47,-125.24 110.89,-125.6 119.39,-131.92 121.47,-125.24"/>
</g>
<!-- Node51 -->
<g id="node3" class="node">
<title>Node51</title>
<g id="a_node3"><a xlink:href="classComSquare_1_1Renderer_1_1QtSFML.html" target="_top" xlink:title="A SFML renderer inside a QT widget.">
<polygon fill="white" stroke="black" points="159,-95.5 159,-125.5 282,-125.5 282,-95.5 159,-95.5"/>
<text text-anchor="start" x="167" y="-113.5" font-family="Helvetica,sans-Serif" font-size="10.00">ComSquare::Renderer</text>
<text text-anchor="middle" x="220.5" y="-102.5" font-family="Helvetica,sans-Serif" font-size="10.00">::QtSFML</text>
</a>
</g>
</g>
<!-- Node49&#45;&gt;Node51 -->
<g id="edge2" class="edge">
<title>Node49&#45;&gt;Node51</title>
<path fill="none" stroke="midnightblue" d="M133.21,-110.5C141.81,-110.5 150.53,-110.5 158.96,-110.5"/>
<polygon fill="midnightblue" stroke="midnightblue" points="133.2,-107 123.2,-110.5 133.2,-114 133.2,-107"/>
</g>
<!-- Node53 -->
<g id="node5" class="node">
<title>Node53</title>
<g id="a_node5"><a xlink:href="classComSquare_1_1Renderer_1_1SFRenderer.html" target="_top" xlink:title=" ">
<polygon fill="white" stroke="black" points="159,-46.5 159,-76.5 282,-76.5 282,-46.5 159,-46.5"/>
<text text-anchor="start" x="167" y="-64.5" font-family="Helvetica,sans-Serif" font-size="10.00">ComSquare::Renderer</text>
<text text-anchor="middle" x="220.5" y="-53.5" font-family="Helvetica,sans-Serif" font-size="10.00">::SFRenderer</text>
</a>
</g>
</g>
<!-- Node49&#45;&gt;Node53 -->
<g id="edge4" class="edge">
<title>Node49&#45;&gt;Node53</title>
<path fill="none" stroke="midnightblue" d="M120.54,-92.39C137.23,-87.18 155.24,-81.55 171.27,-76.55"/>
<polygon fill="midnightblue" stroke="midnightblue" points="119.39,-89.08 110.89,-95.4 121.47,-95.76 119.39,-89.08"/>
</g>
<!-- Node52 -->
<g id="node4" class="node">
<title>Node52</title>
<g id="a_node4"><a xlink:href="classComSquare_1_1Renderer_1_1QtSFMLWindow.html" target="_top" xlink:title=" ">
<polygon fill="white" stroke="black" points="318,-95.5 318,-125.5 441,-125.5 441,-95.5 318,-95.5"/>
<text text-anchor="start" x="326" y="-113.5" font-family="Helvetica,sans-Serif" font-size="10.00">ComSquare::Renderer</text>
<text text-anchor="middle" x="379.5" y="-102.5" font-family="Helvetica,sans-Serif" font-size="10.00">::QtSFMLWindow</text>
</a>
</g>
</g>
<!-- Node51&#45;&gt;Node52 -->
<g id="edge3" class="edge">
<title>Node51&#45;&gt;Node52</title>
<path fill="none" stroke="midnightblue" d="M292.21,-110.5C300.81,-110.5 309.53,-110.5 317.96,-110.5"/>
<polygon fill="midnightblue" stroke="midnightblue" points="292.2,-107 282.2,-110.5 292.2,-114 292.2,-107"/>
</g>
<!-- Node0 -->
<g id="node6" class="node">
<title>Node0</title>
<g id="a_node6"><a xlink:href="classComSquare_1_1Renderer_1_1QtWidgetSFML.html" target="_top" xlink:title="A widget that you can put inside a QT application that render using the SFML.">
<polygon fill="white" stroke="black" points="318,-24.5 318,-54.5 441,-54.5 441,-24.5 318,-24.5"/>
<text text-anchor="start" x="326" y="-42.5" font-family="Helvetica,sans-Serif" font-size="10.00">ComSquare::Renderer</text>
<text text-anchor="middle" x="379.5" y="-31.5" font-family="Helvetica,sans-Serif" font-size="10.00">::QtWidgetSFML</text>
</a>
</g>
</g>
<!-- Node53&#45;&gt;Node0 -->
<g id="edge5" class="edge">
<title>Node53&#45;&gt;Node0</title>
<path fill="none" stroke="midnightblue" d="M292.21,-51.59C300.81,-50.39 309.53,-49.16 317.96,-47.98"/>
<polygon fill="midnightblue" stroke="midnightblue" points="291.62,-48.14 282.2,-52.99 292.59,-55.07 291.62,-48.14"/>
</g>
<!-- Node1 -->
<g id="node7" class="node">
<title>Node1</title>
<g id="a_node7"><a xlink:href="classComSquare_1_1Renderer_1_1QtFullSFML.html" target="_top" xlink:title="The SFML window that manage the update.">
<polygon fill="white" stroke="black" points="477,-49.5 477,-79.5 600,-79.5 600,-49.5 477,-49.5"/>
<text text-anchor="start" x="485" y="-67.5" font-family="Helvetica,sans-Serif" font-size="10.00">ComSquare::Renderer</text>
<text text-anchor="middle" x="538.5" y="-56.5" font-family="Helvetica,sans-Serif" font-size="10.00">::QtFullSFML</text>
</a>
</g>
</g>
<!-- Node0&#45;&gt;Node1 -->
<g id="edge6" class="edge">
<title>Node0&#45;&gt;Node1</title>
<path fill="none" stroke="midnightblue" d="M451.21,-50.76C459.81,-52.13 468.53,-53.52 476.96,-54.86"/>
<polygon fill="midnightblue" stroke="midnightblue" points="451.63,-47.28 441.2,-49.17 450.53,-54.19 451.63,-47.28"/>
</g>
<!-- Node2 -->
<g id="node8" class="node">
<title>Node2</title>
<g id="a_node8"><a xlink:href="classComSquare_1_1Renderer_1_1QtSFMLTileRenderer.html" target="_top" xlink:title=" ">
<polygon fill="white" stroke="black" points="477,-0.5 477,-30.5 600,-30.5 600,-0.5 477,-0.5"/>
<text text-anchor="start" x="485" y="-18.5" font-family="Helvetica,sans-Serif" font-size="10.00">ComSquare::Renderer</text>
<text text-anchor="middle" x="538.5" y="-7.5" font-family="Helvetica,sans-Serif" font-size="10.00">::QtSFMLTileRenderer</text>
</a>
</g>
</g>
<!-- Node0&#45;&gt;Node2 -->
<g id="edge7" class="edge">
<title>Node0&#45;&gt;Node2</title>
<path fill="none" stroke="midnightblue" d="M451.21,-28.69C459.81,-27.38 468.53,-26.04 476.96,-24.75"/>
<polygon fill="midnightblue" stroke="midnightblue" points="450.56,-25.25 441.2,-30.22 451.61,-32.17 450.56,-25.25"/>
</g>
<!-- Node18 -->
<g id="node9" class="node">
<title>Node18</title>
<g id="a_node9"><a xlink:title=" ">
<polygon fill="white" stroke="#bfbfbf" points="191,-8 191,-27 250,-27 250,-8 191,-8"/>
<text text-anchor="middle" x="220.5" y="-15" font-family="Helvetica,sans-Serif" font-size="10.00">QWidget</text>
</a>
</g>
</g>
<!-- Node18&#45;&gt;Node0 -->
<g id="edge8" class="edge">
<title>Node18&#45;&gt;Node0</title>
<path fill="none" stroke="midnightblue" d="M260.55,-22.97C277.8,-25.39 298.49,-28.29 317.69,-30.98"/>
<polygon fill="midnightblue" stroke="midnightblue" points="260.69,-19.46 250.3,-21.54 259.71,-26.39 260.69,-19.46"/>
</g>
</g>
</svg>
