<?xml version="1.0" encoding="UTF-8" standalone="no"?>
<!DOCTYPE svg PUBLIC "-//W3C//DTD SVG 1.1//EN"
 "http://www.w3.org/Graphics/SVG/1.1/DTD/svg11.dtd">
<!-- Generated by graphviz version 2.43.0 (0)
 -->
<!-- Title: Graphical Class Hierarchy Pages: 1 -->
<svg width="306pt" height="333pt"
 viewBox="0.00 0.00 306.00 333.00" xmlns="http://www.w3.org/2000/svg" xmlns:xlink="http://www.w3.org/1999/xlink">
<g id="graph0" class="graph" transform="scale(1 1) rotate(0) translate(4 329)">
<title>Graphical Class Hierarchy</title>
<polygon fill="white" stroke="transparent" points="-4,4 -4,-329 302,-329 302,4 -4,4"/>
<!-- Node35 -->
<g id="node1" class="node">
<title>Node35</title>
<g id="a_node1"><a xlink:title=" ">
<polygon fill="white" stroke="#bfbfbf" points="0,-153 0,-172 120,-172 120,-153 0,-153"/>
<text text-anchor="middle" x="60" y="-160" font-family="Helvetica,sans-Serif" font-size="10.00">QAbstractTableModel</text>
</a>
</g>
</g>
<!-- Node0 -->
<g id="node2" class="node">
<title>Node0</title>
<g id="a_node2"><a xlink:href="classComSquare_1_1Debugger_1_1BusLogModel.html" target="_top" xlink:title="The qt model that bind the logs to the view.">
<polygon fill="white" stroke="black" points="164,-294.5 164,-324.5 290,-324.5 290,-294.5 164,-294.5"/>
<text text-anchor="start" x="172" y="-312.5" font-family="Helvetica,sans-Serif" font-size="10.00">ComSquare::Debugger</text>
<text text-anchor="middle" x="227" y="-301.5" font-family="Helvetica,sans-Serif" font-size="10.00">::BusLogModel</text>
</a>
</g>
</g>
<!-- Node35&#45;&gt;Node0 -->
<g id="edge1" class="edge">
<title>Node35&#45;&gt;Node0</title>
<path fill="none" stroke="midnightblue" d="M70.71,-181.1C85.59,-207.89 116.52,-257.21 156,-285.5 160.8,-288.94 166.14,-291.92 171.67,-294.49"/>
<polygon fill="midnightblue" stroke="midnightblue" points="73.64,-179.16 65.8,-172.03 67.48,-182.49 73.64,-179.16"/>
</g>
<!-- Node37 -->
<g id="node3" class="node">
<title>Node37</title>
<g id="a_node3"><a xlink:href="classComSquare_1_1Debugger_1_1CGramModel.html" target="_top" xlink:title="The qt model that bind the logs to the view.">
<polygon fill="white" stroke="black" points="164,-245.5 164,-275.5 290,-275.5 290,-245.5 164,-245.5"/>
<text text-anchor="start" x="172" y="-263.5" font-family="Helvetica,sans-Serif" font-size="10.00">ComSquare::Debugger</text>
<text text-anchor="middle" x="227" y="-252.5" font-family="Helvetica,sans-Serif" font-size="10.00">::CGramModel</text>
</a>
</g>
</g>
<!-- Node35&#45;&gt;Node37 -->
<g id="edge2" class="edge">
<title>Node35&#45;&gt;Node37</title>
<path fill="none" stroke="midnightblue" d="M78.5,-179.07C96.67,-195.52 126.5,-220.54 156,-236.5 162.1,-239.8 168.74,-242.78 175.43,-245.42"/>
<polygon fill="midnightblue" stroke="midnightblue" points="80.75,-176.37 71.02,-172.17 76,-181.52 80.75,-176.37"/>
</g>
<!-- Node38 -->
<g id="node4" class="node">
<title>Node38</title>
<g id="a_node4"><a xlink:href="classComSquare_1_1Debugger_1_1CPU_1_1DisassemblyModel.html" target="_top" xlink:title="The qt model that show the disassembly.">
<polygon fill="white" stroke="black" points="156,-196.5 156,-226.5 298,-226.5 298,-196.5 156,-196.5"/>
<text text-anchor="start" x="164" y="-214.5" font-family="Helvetica,sans-Serif" font-size="10.00">ComSquare::Debugger</text>
<text text-anchor="middle" x="227" y="-203.5" font-family="Helvetica,sans-Serif" font-size="10.00">::CPU::DisassemblyModel</text>
</a>
</g>
</g>
<!-- Node35&#45;&gt;Node38 -->
<g id="edge3" class="edge">
<title>Node35&#45;&gt;Node38</title>
<path fill="none" stroke="midnightblue" d="M102.94,-174.95C124.98,-181.5 152.16,-189.57 175.37,-196.46"/>
<polygon fill="midnightblue" stroke="midnightblue" points="103.79,-171.56 93.21,-172.06 101.8,-178.27 103.79,-171.56"/>
</g>
<!-- Node39 -->
<g id="node5" class="node">
<title>Node39</title>
<g id="a_node5"><a xlink:href="classComSquare_1_1Debugger_1_1CPU_1_1HistoryModel.html" target="_top" xlink:title="The qt model that show the history.">
<polygon fill="white" stroke="black" points="164,-147.5 164,-177.5 290,-177.5 290,-147.5 164,-147.5"/>
<text text-anchor="start" x="172" y="-165.5" font-family="Helvetica,sans-Serif" font-size="10.00">ComSquare::Debugger</text>
<text text-anchor="middle" x="227" y="-154.5" font-family="Helvetica,sans-Serif" font-size="10.00">::CPU::HistoryModel</text>
</a>
</g>
</g>
<!-- Node35&#45;&gt;Node39 -->
<g id="edge4" class="edge">
<title>Node35&#45;&gt;Node39</title>
<path fill="none" stroke="midnightblue" d="M130.26,-162.5C141.45,-162.5 152.97,-162.5 163.97,-162.5"/>
<polygon fill="midnightblue" stroke="midnightblue" points="130.1,-159 120.1,-162.5 130.1,-166 130.1,-159"/>
</g>
<!-- Node40 -->
<g id="node6" class="node">
<title>Node40</title>
<g id="a_node6"><a xlink:href="classComSquare_1_1Debugger_1_1CPU_1_1StackModel.html" target="_top" xlink:title="The qt model that show the stack.">
<polygon fill="white" stroke="black" points="164,-98.5 164,-128.5 290,-128.5 290,-98.5 164,-98.5"/>
<text text-anchor="start" x="172" y="-116.5" font-family="Helvetica,sans-Serif" font-size="10.00">ComSquare::Debugger</text>
<text text-anchor="middle" x="227" y="-105.5" font-family="Helvetica,sans-Serif" font-size="10.00">::CPU::StackModel</text>
</a>
</g>
</g>
<!-- Node35&#45;&gt;Node40 -->
<g id="edge5" class="edge">
<title>Node35&#45;&gt;Node40</title>
<path fill="none" stroke="midnightblue" d="M102.94,-150.05C124.98,-143.5 152.16,-135.43 175.37,-128.54"/>
<polygon fill="midnightblue" stroke="midnightblue" points="101.8,-146.73 93.21,-152.94 103.79,-153.44 101.8,-146.73"/>
</g>
<!-- Node41 -->
<g id="node7" class="node">
<title>Node41</title>
<g id="a_node7"><a xlink:href="classComSquare_1_1Debugger_1_1MemoryViewerModel.html" target="_top" xlink:title="The qt model that bind the ram to the view.">
<polygon fill="white" stroke="black" points="163.5,-49.5 163.5,-79.5 290.5,-79.5 290.5,-49.5 163.5,-49.5"/>
<text text-anchor="start" x="171.5" y="-67.5" font-family="Helvetica,sans-Serif" font-size="10.00">ComSquare::Debugger</text>
<text text-anchor="middle" x="227" y="-56.5" font-family="Helvetica,sans-Serif" font-size="10.00">::MemoryViewerModel</text>
</a>
</g>
</g>
<!-- Node35&#45;&gt;Node41 -->
<g id="edge6" class="edge">
<title>Node35&#45;&gt;Node41</title>
<path fill="none" stroke="midnightblue" d="M78.88,-145.99C97.14,-129.83 126.86,-105.39 156,-89.5 162.8,-85.79 170.25,-82.45 177.69,-79.51"/>
<polygon fill="midnightblue" stroke="midnightblue" points="76.44,-143.48 71.34,-152.77 81.12,-148.69 76.44,-143.48"/>
</g>
<!-- Node42 -->
<g id="node8" class="node">
<title>Node42</title>
<g id="a_node8"><a xlink:href="classComSquare_1_1Debugger_1_1RegistersViewerModel.html" target="_top" xlink:title=" ">
<polygon fill="white" stroke="black" points="161,-0.5 161,-30.5 293,-30.5 293,-0.5 161,-0.5"/>
<text text-anchor="start" x="169" y="-18.5" font-family="Helvetica,sans-Serif" font-size="10.00">ComSquare::Debugger</text>
<text text-anchor="middle" x="227" y="-7.5" font-family="Helvetica,sans-Serif" font-size="10.00">::RegistersViewerModel</text>
</a>
</g>
</g>
<!-- Node35&#45;&gt;Node42 -->
<g id="edge7" class="edge">
<title>Node35&#45;&gt;Node42</title>
<path fill="none" stroke="midnightblue" d="M71.02,-143.72C86.09,-117.15 117.04,-68.68 156,-40.5 161.23,-36.72 167.08,-33.46 173.12,-30.67"/>
<polygon fill="midnightblue" stroke="midnightblue" points="67.8,-142.3 66.03,-152.75 73.93,-145.68 67.8,-142.3"/>
</g>
</g>
</svg>
