<?xml version="1.0" encoding="UTF-8" standalone="no"?>
<!DOCTYPE svg PUBLIC "-//W3C//DTD SVG 1.1//EN"
 "http://www.w3.org/Graphics/SVG/1.1/DTD/svg11.dtd">
<!-- Generated by graphviz version 2.43.0 (0)
 -->
<!-- Title: Graphical Class Hierarchy Pages: 1 -->
<svg width="226pt" height="284pt"
 viewBox="0.00 0.00 226.00 284.00" xmlns="http://www.w3.org/2000/svg" xmlns:xlink="http://www.w3.org/1999/xlink">
<g id="graph0" class="graph" transform="scale(1 1) rotate(0) translate(4 280)">
<title>Graphical Class Hierarchy</title>
<polygon fill="white" stroke="transparent" points="-4,4 -4,-280 222,-280 222,4 -4,4"/>
<!-- Node26 -->
<g id="node1" class="node">
<title>Node26</title>
<g id="a_node1"><a xlink:title=" ">
<polygon fill="white" stroke="#bfbfbf" points="0,-128 0,-147 56,-147 56,-128 0,-128"/>
<text text-anchor="middle" x="28" y="-135" font-family="Helvetica,sans-Serif" font-size="10.00">QObject</text>
</a>
</g>
</g>
<!-- Node0 -->
<g id="node2" class="node">
<title>Node0</title>
<g id="a_node2"><a xlink:href="classComSquare_1_1Debugger_1_1APU_1_1APUDebug.html" target="_top" xlink:title=" ">
<polygon fill="white" stroke="black" points="92,-245.5 92,-275.5 218,-275.5 218,-245.5 92,-245.5"/>
<text text-anchor="start" x="100" y="-263.5" font-family="Helvetica,sans-Serif" font-size="10.00">ComSquare::Debugger</text>
<text text-anchor="middle" x="155" y="-252.5" font-family="Helvetica,sans-Serif" font-size="10.00">::APU::APUDebug</text>
</a>
</g>
</g>
<!-- Node26&#45;&gt;Node0 -->
<g id="edge1" class="edge">
<title>Node26&#45;&gt;Node0</title>
<path fill="none" stroke="midnightblue" d="M36.62,-156.39C46.4,-178.43 65.34,-214.65 92,-236.5 96.11,-239.87 100.74,-242.8 105.58,-245.34"/>
<polygon fill="midnightblue" stroke="midnightblue" points="39.8,-154.93 32.67,-147.09 33.36,-157.67 39.8,-154.93"/>
</g>
<!-- Node28 -->
<g id="node3" class="node">
<title>Node28</title>
<g id="a_node3"><a xlink:href="classComSquare_1_1Debugger_1_1CGramDebug.html" target="_top" xlink:title="window that allow the user to view all data going through the memory bus.">
<polygon fill="white" stroke="black" points="92,-196.5 92,-226.5 218,-226.5 218,-196.5 92,-196.5"/>
<text text-anchor="start" x="100" y="-214.5" font-family="Helvetica,sans-Serif" font-size="10.00">ComSquare::Debugger</text>
<text text-anchor="middle" x="155" y="-203.5" font-family="Helvetica,sans-Serif" font-size="10.00">::CGramDebug</text>
</a>
</g>
</g>
<!-- Node26&#45;&gt;Node28 -->
<g id="edge2" class="edge">
<title>Node26&#45;&gt;Node28</title>
<path fill="none" stroke="midnightblue" d="M46.55,-153.82C58.65,-164.44 75.46,-178.03 92,-187.5 97.71,-190.77 103.95,-193.77 110.2,-196.47"/>
<polygon fill="midnightblue" stroke="midnightblue" points="48.78,-151.11 39,-147.03 44.1,-156.32 48.78,-151.11"/>
</g>
<!-- Node29 -->
<g id="node4" class="node">
<title>Node29</title>
<g id="a_node4"><a xlink:href="classComSquare_1_1Debugger_1_1CPU_1_1CPUDebug.html" target="_top" xlink:title="A window that show registers and the disassembly of a CPU.">
<polygon fill="white" stroke="black" points="92,-147.5 92,-177.5 218,-177.5 218,-147.5 92,-147.5"/>
<text text-anchor="start" x="100" y="-165.5" font-family="Helvetica,sans-Serif" font-size="10.00">ComSquare::Debugger</text>
<text text-anchor="middle" x="155" y="-154.5" font-family="Helvetica,sans-Serif" font-size="10.00">::CPU::CPUDebug</text>
</a>
</g>
</g>
<!-- Node26&#45;&gt;Node29 -->
<g id="edge3" class="edge">
<title>Node26&#45;&gt;Node29</title>
<path fill="none" stroke="midnightblue" d="M66,-144.9C74.14,-146.53 82.97,-148.29 91.79,-150.06"/>
<polygon fill="midnightblue" stroke="midnightblue" points="66.62,-141.45 56.12,-142.92 65.24,-148.32 66.62,-141.45"/>
</g>
<!-- Node30 -->
<g id="node5" class="node">
<title>Node30</title>
<g id="a_node5"><a xlink:href="classComSquare_1_1Debugger_1_1MemoryViewer.html" target="_top" xlink:title="Class responsible of the Memory Viewer.">
<polygon fill="white" stroke="black" points="92,-98.5 92,-128.5 218,-128.5 218,-98.5 92,-98.5"/>
<text text-anchor="start" x="100" y="-116.5" font-family="Helvetica,sans-Serif" font-size="10.00">ComSquare::Debugger</text>
<text text-anchor="middle" x="155" y="-105.5" font-family="Helvetica,sans-Serif" font-size="10.00">::MemoryViewer</text>
</a>
</g>
</g>
<!-- Node26&#45;&gt;Node30 -->
<g id="edge4" class="edge">
<title>Node26&#45;&gt;Node30</title>
<path fill="none" stroke="midnightblue" d="M66,-130.4C74.14,-128.83 82.97,-127.14 91.79,-125.44"/>
<polygon fill="midnightblue" stroke="midnightblue" points="65.28,-126.97 56.12,-132.29 66.6,-133.84 65.28,-126.97"/>
</g>
<!-- Node31 -->
<g id="node6" class="node">
<title>Node31</title>
<g id="a_node6"><a xlink:href="classComSquare_1_1Debugger_1_1RegisterViewer.html" target="_top" xlink:title=" ">
<polygon fill="white" stroke="black" points="92,-49.5 92,-79.5 218,-79.5 218,-49.5 92,-49.5"/>
<text text-anchor="start" x="100" y="-67.5" font-family="Helvetica,sans-Serif" font-size="10.00">ComSquare::Debugger</text>
<text text-anchor="middle" x="155" y="-56.5" font-family="Helvetica,sans-Serif" font-size="10.00">::RegisterViewer</text>
</a>
</g>
</g>
<!-- Node26&#45;&gt;Node31 -->
<g id="edge5" class="edge">
<title>Node26&#45;&gt;Node31</title>
<path fill="none" stroke="midnightblue" d="M47.93,-120.93C59.97,-110.95 76.23,-98.47 92,-89.5 98.36,-85.88 105.34,-82.53 112.25,-79.54"/>
<polygon fill="midnightblue" stroke="midnightblue" points="45.33,-118.54 39.97,-127.68 49.86,-123.88 45.33,-118.54"/>
</g>
<!-- Node32 -->
<g id="node7" class="node">
<title>Node32</title>
<g id="a_node7"><a xlink:href="classComSquare_1_1Debugger_1_1TileViewer.html" target="_top" xlink:title="window that allow the user to view all data going through the memory bus.">
<polygon fill="white" stroke="black" points="92,-0.5 92,-30.5 218,-30.5 218,-0.5 92,-0.5"/>
<text text-anchor="start" x="100" y="-18.5" font-family="Helvetica,sans-Serif" font-size="10.00">ComSquare::Debugger</text>
<text text-anchor="middle" x="155" y="-7.5" font-family="Helvetica,sans-Serif" font-size="10.00">::TileViewer</text>
</a>
</g>
</g>
<!-- Node26&#45;&gt;Node32 -->
<g id="edge6" class="edge">
<title>Node26&#45;&gt;Node32</title>
<path fill="none" stroke="midnightblue" d="M37.06,-118.43C47.06,-96.84 66.03,-61.89 92,-40.5 96.66,-36.66 101.98,-33.35 107.51,-30.51"/>
<polygon fill="midnightblue" stroke="midnightblue" points="33.74,-117.28 32.88,-127.84 40.14,-120.13 33.74,-117.28"/>
</g>
</g>
</svg>
