<?xml version="1.0" encoding="UTF-8" standalone="no"?>
<!DOCTYPE svg PUBLIC "-//W3C//DTD SVG 1.1//EN"
 "http://www.w3.org/Graphics/SVG/1.1/DTD/svg11.dtd">
<!-- Generated by graphviz version 2.43.0 (0)
 -->
<!-- Title: Graphical Class Hierarchy Pages: 1 -->
<svg width="630pt" height="286pt"
 viewBox="0.00 0.00 630.00 285.50" xmlns="http://www.w3.org/2000/svg" xmlns:xlink="http://www.w3.org/1999/xlink">
<g id="graph0" class="graph" transform="scale(1 1) rotate(0) translate(4 281.5)">
<title>Graphical Class Hierarchy</title>
<polygon fill="white" stroke="transparent" points="-4,4 -4,-281.5 626,-281.5 626,4 -4,4"/>
<!-- Node0 -->
<g id="node1" class="node">
<title>Node0</title>
<g id="a_node1"><a xlink:href="classComSquare_1_1Memory_1_1IMemory.html" target="_top" xlink:title="Common interface implemented by all components mapping memory.">
<polygon fill="white" stroke="black" points="0,-88.5 0,-118.5 125,-118.5 125,-88.5 0,-88.5"/>
<text text-anchor="start" x="8" y="-106.5" font-family="Helvetica,sans-Serif" font-size="10.00">ComSquare::Memory::</text>
<text text-anchor="middle" x="62.5" y="-95.5" font-family="Helvetica,sans-Serif" font-size="10.00">IMemory</text>
</a>
</g>
</g>
<!-- Node1 -->
<g id="node2" class="node">
<title>Node1</title>
<g id="a_node2"><a xlink:href="classComSquare_1_1Memory_1_1AMemory.html" target="_top" xlink:title="Abstract class representing a continuous block of memory.">
<polygon fill="white" stroke="black" points="161,-154.5 161,-184.5 286,-184.5 286,-154.5 161,-154.5"/>
<text text-anchor="start" x="169" y="-172.5" font-family="Helvetica,sans-Serif" font-size="10.00">ComSquare::Memory::</text>
<text text-anchor="middle" x="223.5" y="-161.5" font-family="Helvetica,sans-Serif" font-size="10.00">AMemory</text>
</a>
</g>
</g>
<!-- Node0&#45;&gt;Node1 -->
<g id="edge1" class="edge">
<title>Node0&#45;&gt;Node1</title>
<path fill="none" stroke="midnightblue" d="M109.4,-122.55C133.81,-132.68 163.4,-144.97 186.19,-154.43"/>
<polygon fill="midnightblue" stroke="midnightblue" points="110.56,-119.24 99.98,-118.64 107.87,-125.71 110.56,-119.24"/>
</g>
<!-- Node7 -->
<g id="node8" class="node">
<title>Node7</title>
<g id="a_node8"><a xlink:href="classComSquare_1_1Memory_1_1ARectangleMemory.html" target="_top" xlink:title="Base memory class to map non continuous rectangle to the memory. (A rectangle that spam across more t...">
<polygon fill="white" stroke="black" points="161,-44.5 161,-74.5 286,-74.5 286,-44.5 161,-44.5"/>
<text text-anchor="start" x="169" y="-62.5" font-family="Helvetica,sans-Serif" font-size="10.00">ComSquare::Memory::</text>
<text text-anchor="middle" x="223.5" y="-51.5" font-family="Helvetica,sans-Serif" font-size="10.00">ARectangleMemory</text>
</a>
</g>
</g>
<!-- Node0&#45;&gt;Node7 -->
<g id="edge7" class="edge">
<title>Node0&#45;&gt;Node7</title>
<path fill="none" stroke="midnightblue" d="M127.47,-85.8C140.97,-82.06 155.1,-78.15 168.2,-74.53"/>
<polygon fill="midnightblue" stroke="midnightblue" points="126.48,-82.44 117.77,-88.48 128.35,-89.19 126.48,-82.44"/>
</g>
<!-- Node2 -->
<g id="node3" class="node">
<title>Node2</title>
<g id="a_node3"><a xlink:href="classComSquare_1_1APU_1_1APU.html" target="_top" xlink:title=" ">
<polygon fill="white" stroke="black" points="329.5,-258 329.5,-277 454.5,-277 454.5,-258 329.5,-258"/>
<text text-anchor="middle" x="392" y="-265" font-family="Helvetica,sans-Serif" font-size="10.00">ComSquare::APU::APU</text>
</a>
</g>
</g>
<!-- Node1&#45;&gt;Node2 -->
<g id="edge2" class="edge">
<title>Node1&#45;&gt;Node2</title>
<path fill="none" stroke="midnightblue" d="M246.32,-191.68C264.93,-209.41 293.18,-233.68 322,-248.5 329.4,-252.31 337.66,-255.42 345.81,-257.95"/>
<polygon fill="midnightblue" stroke="midnightblue" points="248.57,-188.98 238.97,-184.52 243.7,-194 248.57,-188.98"/>
</g>
<!-- Node3 -->
<g id="node4" class="node">
<title>Node3</title>
<g id="a_node4"><a xlink:href="classComSquare_1_1APU_1_1IPL_1_1IPL.html" target="_top" xlink:title=" ">
<polygon fill="white" stroke="black" points="322,-220 322,-239 462,-239 462,-220 322,-220"/>
<text text-anchor="middle" x="392" y="-227" font-family="Helvetica,sans-Serif" font-size="10.00">ComSquare::APU::IPL::IPL</text>
</a>
</g>
</g>
<!-- Node1&#45;&gt;Node3 -->
<g id="edge3" class="edge">
<title>Node1&#45;&gt;Node3</title>
<path fill="none" stroke="midnightblue" d="M267.07,-188.81C283.98,-196.11 303.72,-204.17 322,-210.5 331.86,-213.92 342.68,-217.14 352.77,-219.92"/>
<polygon fill="midnightblue" stroke="midnightblue" points="268.04,-185.42 257.48,-184.62 265.24,-191.83 268.04,-185.42"/>
</g>
<!-- Node4 -->
<g id="node5" class="node">
<title>Node4</title>
<g id="a_node5"><a xlink:href="classComSquare_1_1CPU_1_1CPU.html" target="_top" xlink:title="The main CPU.">
<polygon fill="white" stroke="black" points="329.5,-182 329.5,-201 454.5,-201 454.5,-182 329.5,-182"/>
<text text-anchor="middle" x="392" y="-189" font-family="Helvetica,sans-Serif" font-size="10.00">ComSquare::CPU::CPU</text>
</a>
</g>
</g>
<!-- Node1&#45;&gt;Node4 -->
<g id="edge4" class="edge">
<title>Node1&#45;&gt;Node4</title>
<path fill="none" stroke="midnightblue" d="M296.12,-178.96C307.22,-180.43 318.6,-181.93 329.45,-183.37"/>
<polygon fill="midnightblue" stroke="midnightblue" points="296.4,-175.47 286.03,-177.63 295.48,-182.41 296.4,-175.47"/>
</g>
<!-- Node5 -->
<g id="node6" class="node">
<title>Node5</title>
<g id="a_node6"><a xlink:href="classComSquare_1_1Memory_1_1MemoryShadow.html" target="_top" xlink:title=" ">
<polygon fill="white" stroke="black" points="329.5,-132.5 329.5,-162.5 454.5,-162.5 454.5,-132.5 329.5,-132.5"/>
<text text-anchor="start" x="337.5" y="-150.5" font-family="Helvetica,sans-Serif" font-size="10.00">ComSquare::Memory::</text>
<text text-anchor="middle" x="392" y="-139.5" font-family="Helvetica,sans-Serif" font-size="10.00">MemoryShadow</text>
</a>
</g>
</g>
<!-- Node1&#45;&gt;Node5 -->
<g id="edge5" class="edge">
<title>Node1&#45;&gt;Node5</title>
<path fill="none" stroke="midnightblue" d="M296.12,-160.04C307.22,-158.57 318.6,-157.07 329.45,-155.63"/>
<polygon fill="midnightblue" stroke="midnightblue" points="295.48,-156.59 286.03,-161.37 296.4,-163.53 295.48,-156.59"/>
</g>
<!-- Node6 -->
<g id="node7" class="node">
<title>Node6</title>
<g id="a_node7"><a xlink:href="classComSquare_1_1PPU_1_1PPU.html" target="_top" xlink:title="The class containing all the registers of the PPU.">
<polygon fill="white" stroke="black" points="330,-94 330,-113 454,-113 454,-94 330,-94"/>
<text text-anchor="middle" x="392" y="-101" font-family="Helvetica,sans-Serif" font-size="10.00">ComSquare::PPU::PPU</text>
</a>
</g>
</g>
<!-- Node1&#45;&gt;Node6 -->
<g id="edge6" class="edge">
<title>Node1&#45;&gt;Node6</title>
<path fill="none" stroke="midnightblue" d="M262.84,-149.69C280.56,-140.98 302.06,-131.04 322,-123.5 332.27,-119.62 343.63,-116.04 354.12,-113.02"/>
<polygon fill="midnightblue" stroke="midnightblue" points="260.81,-146.79 253.41,-154.37 263.93,-153.05 260.81,-146.79"/>
</g>
<!-- Node8 -->
<g id="node9" class="node">
<title>Node8</title>
<g id="a_node9"><a xlink:href="classComSquare_1_1Memory_1_1RectangleShadow.html" target="_top" xlink:title=" ">
<polygon fill="white" stroke="black" points="329.5,-44.5 329.5,-74.5 454.5,-74.5 454.5,-44.5 329.5,-44.5"/>
<text text-anchor="start" x="337.5" y="-62.5" font-family="Helvetica,sans-Serif" font-size="10.00">ComSquare::Memory::</text>
<text text-anchor="middle" x="392" y="-51.5" font-family="Helvetica,sans-Serif" font-size="10.00">RectangleShadow</text>
</a>
</g>
</g>
<!-- Node7&#45;&gt;Node8 -->
<g id="edge8" class="edge">
<title>Node7&#45;&gt;Node8</title>
<path fill="none" stroke="midnightblue" d="M296.12,-59.5C307.22,-59.5 318.6,-59.5 329.45,-59.5"/>
<polygon fill="midnightblue" stroke="midnightblue" points="296.03,-56 286.03,-59.5 296.03,-63 296.03,-56"/>
</g>
<!-- Node9 -->
<g id="node10" class="node">
<title>Node9</title>
<g id="a_node10"><a xlink:href="classComSquare_1_1Ram_1_1Ram.html" target="_top" xlink:title=" ">
<polygon fill="white" stroke="black" points="327,-6 327,-25 457,-25 457,-6 327,-6"/>
<text text-anchor="middle" x="392" y="-13" font-family="Helvetica,sans-Serif" font-size="10.00">ComSquare::Ram::Ram</text>
</a>
</g>
</g>
<!-- Node7&#45;&gt;Node9 -->
<g id="edge9" class="edge">
<title>Node7&#45;&gt;Node9</title>
<path fill="none" stroke="midnightblue" d="M291.17,-41.88C312.88,-36.15 336.15,-30 354.75,-25.08"/>
<polygon fill="midnightblue" stroke="midnightblue" points="290.11,-38.54 281.33,-44.48 291.9,-45.31 290.11,-38.54"/>
</g>
<!-- Node10 -->
<g id="node11" class="node">
<title>Node10</title>
<g id="a_node11"><a xlink:href="classComSquare_1_1Cartridge_1_1Cartridge.html" target="_top" xlink:title="Contains the rom&#39;s memory/instructions.">
<polygon fill="white" stroke="black" points="498,-0.5 498,-30.5 622,-30.5 622,-0.5 498,-0.5"/>
<text text-anchor="start" x="506" y="-18.5" font-family="Helvetica,sans-Serif" font-size="10.00">ComSquare::Cartridge</text>
<text text-anchor="middle" x="560" y="-7.5" font-family="Helvetica,sans-Serif" font-size="10.00">::Cartridge</text>
</a>
</g>
</g>
<!-- Node9&#45;&gt;Node10 -->
<g id="edge10" class="edge">
<title>Node9&#45;&gt;Node10</title>
<path fill="none" stroke="midnightblue" d="M467.34,-15.5C477.59,-15.5 488.02,-15.5 497.99,-15.5"/>
<polygon fill="midnightblue" stroke="midnightblue" points="467.18,-12 457.18,-15.5 467.18,-19 467.18,-12"/>
</g>
</g>
</svg>
