<?xml version="1.0" encoding="UTF-8" standalone="no"?>
<!DOCTYPE svg PUBLIC "-//W3C//DTD SVG 1.1//EN"
 "http://www.w3.org/Graphics/SVG/1.1/DTD/svg11.dtd">
<!-- Generated by graphviz version 2.43.0 (0)
 -->
<!-- Title: sources/CPU/Instruction.hpp Pages: 1 -->
<svg width="3509pt" height="285pt"
 viewBox="0.00 0.00 3508.50 285.00" xmlns="http://www.w3.org/2000/svg" xmlns:xlink="http://www.w3.org/1999/xlink">
<g id="graph0" class="graph" transform="scale(1 1) rotate(0) translate(4 281)">
<title>sources/CPU/Instruction.hpp</title>
<polygon fill="white" stroke="transparent" points="-4,4 -4,-281 3504.5,-281 3504.5,4 -4,4"/>
<!-- Node1 -->
<g id="node1" class="node">
<title>Node1</title>
<g id="a_node1"><a xlink:title=" ">
<polygon fill="#bfbfbf" stroke="black" points="1285.5,-257.5 1285.5,-276.5 1438.5,-276.5 1438.5,-257.5 1285.5,-257.5"/>
<text text-anchor="middle" x="1362" y="-264.5" font-family="Helvetica,sans-Serif" font-size="10.00">sources/CPU/Instruction.hpp</text>
</a>
</g>
</g>
<!-- Node2 -->
<g id="node2" class="node">
<title>Node2</title>
<g id="a_node2"><a xlink:href="CPU_8hpp.html" target="_top" xlink:title=" ">
<polygon fill="white" stroke="black" points="1257,-201.5 1257,-220.5 1379,-220.5 1379,-201.5 1257,-201.5"/>
<text text-anchor="middle" x="1318" y="-208.5" font-family="Helvetica,sans-Serif" font-size="10.00">sources/CPU/CPU.hpp</text>
</a>
</g>
</g>
<!-- Node1&#45;&gt;Node2 -->
<g id="edge1" class="edge">
<title>Node1&#45;&gt;Node2</title>
<path fill="none" stroke="midnightblue" d="M1348.27,-249.14C1340.6,-239.74 1331.37,-228.4 1325.13,-220.75"/>
<polygon fill="midnightblue" stroke="midnightblue" points="1345.7,-251.54 1354.73,-257.08 1351.13,-247.12 1345.7,-251.54"/>
</g>
<!-- Node47 -->
<g id="node47" class="node">
<title>Node47</title>
<g id="a_node47"><a xlink:href="CPUDebug_8hpp.html" target="_top" xlink:title=" ">
<polygon fill="white" stroke="black" points="3130,-134.5 3130,-164.5 3258,-164.5 3258,-134.5 3130,-134.5"/>
<text text-anchor="start" x="3138" y="-152.5" font-family="Helvetica,sans-Serif" font-size="10.00">sources/Debugger/CPU</text>
<text text-anchor="middle" x="3194" y="-141.5" font-family="Helvetica,sans-Serif" font-size="10.00">/CPUDebug.hpp</text>
</a>
</g>
</g>
<!-- Node1&#45;&gt;Node47 -->
<g id="edge62" class="edge">
<title>Node1&#45;&gt;Node47</title>
<path fill="none" stroke="midnightblue" d="M1448.71,-260.53C1765.02,-240.59 2852.85,-172.01 3129.56,-154.56"/>
<polygon fill="midnightblue" stroke="midnightblue" points="1448.44,-257.04 1438.68,-261.17 1448.88,-264.03 1448.44,-257.04"/>
</g>
<!-- Node3 -->
<g id="node3" class="node">
<title>Node3</title>
<g id="a_node3"><a xlink:href="AddressingModes_8cpp.html" target="_top" xlink:title=" ">
<polygon fill="white" stroke="black" points="1314.5,-140 1314.5,-159 1501.5,-159 1501.5,-140 1314.5,-140"/>
<text text-anchor="middle" x="1408" y="-147" font-family="Helvetica,sans-Serif" font-size="10.00">sources/CPU/AddressingModes.cpp</text>
</a>
</g>
</g>
<!-- Node2&#45;&gt;Node3 -->
<g id="edge2" class="edge">
<title>Node2&#45;&gt;Node3</title>
<path fill="none" stroke="midnightblue" d="M1339.28,-195.93C1356.63,-184.46 1380.57,-168.63 1395.13,-159.01"/>
<polygon fill="midnightblue" stroke="midnightblue" points="1337.31,-193.04 1330.89,-201.48 1341.17,-198.88 1337.31,-193.04"/>
</g>
<!-- Node4 -->
<g id="node4" class="node">
<title>Node4</title>
<g id="a_node4"><a xlink:href="CPU_8cpp.html" target="_top" xlink:title=" ">
<polygon fill="white" stroke="black" points="1642.5,-140 1642.5,-159 1763.5,-159 1763.5,-140 1642.5,-140"/>
<text text-anchor="middle" x="1703" y="-147" font-family="Helvetica,sans-Serif" font-size="10.00">sources/CPU/CPU.cpp</text>
</a>
</g>
</g>
<!-- Node2&#45;&gt;Node4 -->
<g id="edge3" class="edge">
<title>Node2&#45;&gt;Node4</title>
<path fill="none" stroke="midnightblue" d="M1389.14,-201.13C1453.11,-192.84 1549.58,-179.58 1633,-165 1643.02,-163.25 1653.81,-161.13 1663.84,-159.06"/>
<polygon fill="midnightblue" stroke="midnightblue" points="1388.62,-197.66 1379.15,-202.41 1389.52,-204.6 1388.62,-197.66"/>
</g>
<!-- Node5 -->
<g id="node5" class="node">
<title>Node5</title>
<g id="a_node5"><a xlink:href="BitsInstructions_8cpp.html" target="_top" xlink:title=" ">
<polygon fill="white" stroke="black" points="1781.5,-134.5 1781.5,-164.5 1918.5,-164.5 1918.5,-134.5 1781.5,-134.5"/>
<text text-anchor="start" x="1789.5" y="-152.5" font-family="Helvetica,sans-Serif" font-size="10.00">sources/CPU/Instructions</text>
<text text-anchor="middle" x="1850" y="-141.5" font-family="Helvetica,sans-Serif" font-size="10.00">/BitsInstructions.cpp</text>
</a>
</g>
</g>
<!-- Node2&#45;&gt;Node5 -->
<g id="edge4" class="edge">
<title>Node2&#45;&gt;Node5</title>
<path fill="none" stroke="midnightblue" d="M1389.19,-204.83C1478.77,-197.88 1637.22,-184.17 1772,-165 1775,-164.57 1778.06,-164.11 1781.15,-163.63"/>
<polygon fill="midnightblue" stroke="midnightblue" points="1388.85,-201.34 1379.15,-205.6 1389.39,-208.32 1388.85,-201.34"/>
</g>
<!-- Node6 -->
<g id="node6" class="node">
<title>Node6</title>
<g id="a_node6"><a xlink:href="InternalInstruction_8cpp.html" target="_top" xlink:title=" ">
<polygon fill="white" stroke="black" points="515.5,-134.5 515.5,-164.5 652.5,-164.5 652.5,-134.5 515.5,-134.5"/>
<text text-anchor="start" x="523.5" y="-152.5" font-family="Helvetica,sans-Serif" font-size="10.00">sources/CPU/Instructions</text>
<text text-anchor="middle" x="584" y="-141.5" font-family="Helvetica,sans-Serif" font-size="10.00">/InternalInstruction.cpp</text>
</a>
</g>
</g>
<!-- Node2&#45;&gt;Node6 -->
<g id="edge5" class="edge">
<title>Node2&#45;&gt;Node6</title>
<path fill="none" stroke="midnightblue" d="M1246.38,-207.86C1125.36,-203.61 872.85,-192.11 661,-165 658.3,-164.65 655.55,-164.27 652.78,-163.87"/>
<polygon fill="midnightblue" stroke="midnightblue" points="1246.51,-211.36 1256.62,-208.21 1246.75,-204.37 1246.51,-211.36"/>
</g>
<!-- Node7 -->
<g id="node7" class="node">
<title>Node7</title>
<g id="a_node7"><a xlink:href="Interrupts_8cpp.html" target="_top" xlink:title=" ">
<polygon fill="white" stroke="black" points="670.5,-134.5 670.5,-164.5 807.5,-164.5 807.5,-134.5 670.5,-134.5"/>
<text text-anchor="start" x="678.5" y="-152.5" font-family="Helvetica,sans-Serif" font-size="10.00">sources/CPU/Instructions</text>
<text text-anchor="middle" x="739" y="-141.5" font-family="Helvetica,sans-Serif" font-size="10.00">/Interrupts.cpp</text>
</a>
</g>
</g>
<!-- Node2&#45;&gt;Node7 -->
<g id="edge6" class="edge">
<title>Node2&#45;&gt;Node7</title>
<path fill="none" stroke="midnightblue" d="M1246.7,-205.79C1149.15,-199.53 968.77,-186.18 816,-165 813.31,-164.63 810.56,-164.22 807.79,-163.8"/>
<polygon fill="midnightblue" stroke="midnightblue" points="1246.53,-209.28 1256.74,-206.43 1246.98,-202.3 1246.53,-209.28"/>
</g>
<!-- Node8 -->
<g id="node8" class="node">
<title>Node8</title>
<g id="a_node8"><a xlink:href="MathematicalOperations_8cpp.html" target="_top" xlink:title=" ">
<polygon fill="white" stroke="black" points="825.5,-134.5 825.5,-164.5 986.5,-164.5 986.5,-134.5 825.5,-134.5"/>
<text text-anchor="start" x="833.5" y="-152.5" font-family="Helvetica,sans-Serif" font-size="10.00">sources/CPU/Instructions</text>
<text text-anchor="middle" x="906" y="-141.5" font-family="Helvetica,sans-Serif" font-size="10.00">/MathematicalOperations.cpp</text>
</a>
</g>
</g>
<!-- Node2&#45;&gt;Node8 -->
<g id="edge7" class="edge">
<title>Node2&#45;&gt;Node8</title>
<path fill="none" stroke="midnightblue" d="M1246.71,-200.55C1181.21,-191.75 1081.48,-178.07 995,-165 992.21,-164.58 989.38,-164.15 986.52,-163.7"/>
<polygon fill="midnightblue" stroke="midnightblue" points="1246.54,-204.06 1256.92,-201.92 1247.47,-197.12 1246.54,-204.06"/>
</g>
<!-- Node9 -->
<g id="node9" class="node">
<title>Node9</title>
<g id="a_node9"><a xlink:href="MemoryInstructions_8cpp.html" target="_top" xlink:title=" ">
<polygon fill="white" stroke="black" points="1004.5,-134.5 1004.5,-164.5 1141.5,-164.5 1141.5,-134.5 1004.5,-134.5"/>
<text text-anchor="start" x="1012.5" y="-152.5" font-family="Helvetica,sans-Serif" font-size="10.00">sources/CPU/Instructions</text>
<text text-anchor="middle" x="1073" y="-141.5" font-family="Helvetica,sans-Serif" font-size="10.00">/MemoryInstructions.cpp</text>
</a>
</g>
</g>
<!-- Node2&#45;&gt;Node9 -->
<g id="edge8" class="edge">
<title>Node2&#45;&gt;Node9</title>
<path fill="none" stroke="midnightblue" d="M1273.15,-199.11C1233.12,-189.39 1174.27,-175.1 1130.74,-164.52"/>
<polygon fill="midnightblue" stroke="midnightblue" points="1272.35,-202.52 1282.9,-201.48 1274.01,-195.71 1272.35,-202.52"/>
</g>
<!-- Node10 -->
<g id="node10" class="node">
<title>Node10</title>
<g id="a_node10"><a xlink:href="TransferRegisters_8cpp.html" target="_top" xlink:title=" ">
<polygon fill="white" stroke="black" points="1159.5,-134.5 1159.5,-164.5 1296.5,-164.5 1296.5,-134.5 1159.5,-134.5"/>
<text text-anchor="start" x="1167.5" y="-152.5" font-family="Helvetica,sans-Serif" font-size="10.00">sources/CPU/Instructions</text>
<text text-anchor="middle" x="1228" y="-141.5" font-family="Helvetica,sans-Serif" font-size="10.00">/TransferRegisters.cpp</text>
</a>
</g>
</g>
<!-- Node2&#45;&gt;Node10 -->
<g id="edge9" class="edge">
<title>Node2&#45;&gt;Node10</title>
<path fill="none" stroke="midnightblue" d="M1296.43,-195.74C1282.12,-186.28 1263.44,-173.93 1249.21,-164.52"/>
<polygon fill="midnightblue" stroke="midnightblue" points="1294.83,-198.88 1305.11,-201.48 1298.69,-193.04 1294.83,-198.88"/>
</g>
<!-- Node11 -->
<g id="node11" class="node">
<title>Node11</title>
<g id="a_node11"><a xlink:href="SNES_8hpp.html" target="_top" xlink:title=" ">
<polygon fill="white" stroke="black" points="1520,-140 1520,-159 1624,-159 1624,-140 1520,-140"/>
<text text-anchor="middle" x="1572" y="-147" font-family="Helvetica,sans-Serif" font-size="10.00">sources/SNES.hpp</text>
</a>
</g>
</g>
<!-- Node2&#45;&gt;Node11 -->
<g id="edge10" class="edge">
<title>Node2&#45;&gt;Node11</title>
<path fill="none" stroke="midnightblue" d="M1364.16,-199.19C1413.45,-187.64 1490.53,-169.58 1535.68,-159.01"/>
<polygon fill="midnightblue" stroke="midnightblue" points="1363.33,-195.79 1354.39,-201.48 1364.93,-202.6 1363.33,-195.79"/>
</g>
<!-- Node12 -->
<g id="node12" class="node">
<title>Node12</title>
<g id="a_node12"><a xlink:href="APUDebug_8cpp.html" target="_top" xlink:title=" ">
<polygon fill="white" stroke="black" points="1864.5,-73 1864.5,-92 2043.5,-92 2043.5,-73 1864.5,-73"/>
<text text-anchor="middle" x="1954" y="-80" font-family="Helvetica,sans-Serif" font-size="10.00">sources/Debugger/APUDebug.cpp</text>
</a>
</g>
</g>
<!-- Node11&#45;&gt;Node12 -->
<g id="edge11" class="edge">
<title>Node11&#45;&gt;Node12</title>
<path fill="none" stroke="midnightblue" d="M1615.93,-137.63C1621.66,-136.34 1627.46,-135.09 1633,-134 1682.26,-124.29 1818.21,-103.67 1896.48,-92"/>
<polygon fill="midnightblue" stroke="midnightblue" points="1614.73,-134.31 1605.78,-139.98 1616.31,-141.13 1614.73,-134.31"/>
</g>
<!-- Node13 -->
<g id="node13" class="node">
<title>Node13</title>
<g id="a_node13"><a xlink:href="CGramDebug_8cpp.html" target="_top" xlink:title=" ">
<polygon fill="white" stroke="black" points="2061.5,-73 2061.5,-92 2254.5,-92 2254.5,-73 2061.5,-73"/>
<text text-anchor="middle" x="2158" y="-80" font-family="Helvetica,sans-Serif" font-size="10.00">sources/Debugger/CGramDebug.cpp</text>
</a>
</g>
</g>
<!-- Node11&#45;&gt;Node13 -->
<g id="edge12" class="edge">
<title>Node11&#45;&gt;Node13</title>
<path fill="none" stroke="midnightblue" d="M1613.92,-137.68C1620.28,-136.28 1626.79,-135 1633,-134 1817.97,-104.26 1866.81,-118.82 2053,-98 2068.36,-96.28 2084.95,-94.13 2100.3,-92.01"/>
<polygon fill="midnightblue" stroke="midnightblue" points="1613.08,-134.28 1604.11,-139.93 1614.64,-141.1 1613.08,-134.28"/>
</g>
<!-- Node14 -->
<g id="node14" class="node">
<title>Node14</title>
<g id="a_node14"><a xlink:href="CPUDebug_8cpp.html" target="_top" xlink:title=" ">
<polygon fill="white" stroke="black" points="3203,-67.5 3203,-97.5 3331,-97.5 3331,-67.5 3203,-67.5"/>
<text text-anchor="start" x="3211" y="-85.5" font-family="Helvetica,sans-Serif" font-size="10.00">sources/Debugger/CPU</text>
<text text-anchor="middle" x="3267" y="-74.5" font-family="Helvetica,sans-Serif" font-size="10.00">/CPUDebug.cpp</text>
</a>
</g>
</g>
<!-- Node11&#45;&gt;Node14 -->
<g id="edge13" class="edge">
<title>Node11&#45;&gt;Node14</title>
<path fill="none" stroke="midnightblue" d="M1612.31,-137.66C1619.17,-136.18 1626.25,-134.87 1633,-134 2321.27,-45.27 2504.2,-173.88 3194,-98 3196.83,-97.69 3199.7,-97.32 3202.61,-96.92"/>
<polygon fill="midnightblue" stroke="midnightblue" points="1611.44,-134.27 1602.49,-139.92 1613.02,-141.09 1611.44,-134.27"/>
</g>
<!-- Node15 -->
<g id="node15" class="node">
<title>Node15</title>
<g id="a_node15"><a xlink:href="Disassembly_8cpp.html" target="_top" xlink:title=" ">
<polygon fill="white" stroke="black" points="3057,-67.5 3057,-97.5 3185,-97.5 3185,-67.5 3057,-67.5"/>
<text text-anchor="start" x="3065" y="-85.5" font-family="Helvetica,sans-Serif" font-size="10.00">sources/Debugger/CPU</text>
<text text-anchor="middle" x="3121" y="-74.5" font-family="Helvetica,sans-Serif" font-size="10.00">/Disassembly.cpp</text>
</a>
</g>
</g>
<!-- Node11&#45;&gt;Node15 -->
<g id="edge14" class="edge">
<title>Node11&#45;&gt;Node15</title>
<path fill="none" stroke="midnightblue" d="M1612.31,-137.67C1619.17,-136.19 1626.26,-134.88 1633,-134 2256.83,-52.82 2422.76,-167.53 3048,-98 3050.83,-97.69 3053.7,-97.32 3056.61,-96.91"/>
<polygon fill="midnightblue" stroke="midnightblue" points="1611.45,-134.28 1602.49,-139.94 1613.02,-141.1 1611.45,-134.28"/>
</g>
<!-- Node16 -->
<g id="node16" class="node">
<title>Node16</title>
<g id="a_node16"><a xlink:href="HeaderViewer_8cpp.html" target="_top" xlink:title=" ">
<polygon fill="white" stroke="black" points="2273,-73 2273,-92 2469,-92 2469,-73 2273,-73"/>
<text text-anchor="middle" x="2371" y="-80" font-family="Helvetica,sans-Serif" font-size="10.00">sources/Debugger/HeaderViewer.cpp</text>
</a>
</g>
</g>
<!-- Node11&#45;&gt;Node16 -->
<g id="edge15" class="edge">
<title>Node11&#45;&gt;Node16</title>
<path fill="none" stroke="midnightblue" d="M1613.25,-137.66C1619.82,-136.23 1626.57,-134.94 1633,-134 1910.95,-93.36 1984.39,-124.88 2264,-98 2280.33,-96.43 2297.99,-94.24 2314.18,-92.04"/>
<polygon fill="midnightblue" stroke="midnightblue" points="1612.1,-134.33 1603.14,-139.98 1613.67,-141.15 1612.1,-134.33"/>
</g>
<!-- Node17 -->
<g id="node17" class="node">
<title>Node17</title>
<g id="a_node17"><a xlink:href="MemoryBusDebug_8cpp.html" target="_top" xlink:title=" ">
<polygon fill="white" stroke="black" points="2487,-67.5 2487,-97.5 2653,-97.5 2653,-67.5 2487,-67.5"/>
<text text-anchor="start" x="2495" y="-85.5" font-family="Helvetica,sans-Serif" font-size="10.00">sources/Debugger/MemoryBus</text>
<text text-anchor="middle" x="2570" y="-74.5" font-family="Helvetica,sans-Serif" font-size="10.00">Debug.cpp</text>
</a>
</g>
</g>
<!-- Node11&#45;&gt;Node17 -->
<g id="edge16" class="edge">
<title>Node11&#45;&gt;Node17</title>
<path fill="none" stroke="midnightblue" d="M1613.02,-137.62C1619.66,-136.19 1626.49,-134.9 1633,-134 2005.32,-82.3 2103.96,-135.32 2478,-98 2480.9,-97.71 2483.84,-97.39 2486.81,-97.05"/>
<polygon fill="midnightblue" stroke="midnightblue" points="1611.78,-134.32 1602.82,-139.97 1613.35,-141.14 1611.78,-134.32"/>
</g>
<!-- Node18 -->
<g id="node18" class="node">
<title>Node18</title>
<g id="a_node18"><a xlink:href="MemoryViewer_8cpp.html" target="_top" xlink:title=" ">
<polygon fill="white" stroke="black" points="2671.5,-73 2671.5,-92 2872.5,-92 2872.5,-73 2671.5,-73"/>
<text text-anchor="middle" x="2772" y="-80" font-family="Helvetica,sans-Serif" font-size="10.00">sources/Debugger/MemoryViewer.cpp</text>
</a>
</g>
</g>
<!-- Node11&#45;&gt;Node18 -->
<g id="edge17" class="edge">
<title>Node11&#45;&gt;Node18</title>
<path fill="none" stroke="midnightblue" d="M1612.32,-137.73C1619.18,-136.24 1626.26,-134.91 1633,-134 2086.5,-72.78 2205.96,-135.95 2662,-98 2679.37,-96.55 2698.21,-94.32 2715.3,-92.03"/>
<polygon fill="midnightblue" stroke="midnightblue" points="1611.45,-134.34 1602.5,-140 1613.03,-141.16 1611.45,-134.34"/>
</g>
<!-- Node19 -->
<g id="node19" class="node">
<title>Node19</title>
<g id="a_node19"><a xlink:href="RegisterViewer_8cpp.html" target="_top" xlink:title=" ">
<polygon fill="white" stroke="black" points="2891,-67.5 2891,-97.5 3039,-97.5 3039,-67.5 2891,-67.5"/>
<text text-anchor="start" x="2899" y="-85.5" font-family="Helvetica,sans-Serif" font-size="10.00">sources/Debugger/Register</text>
<text text-anchor="middle" x="2965" y="-74.5" font-family="Helvetica,sans-Serif" font-size="10.00">Viewer.cpp</text>
</a>
</g>
</g>
<!-- Node11&#45;&gt;Node19 -->
<g id="edge18" class="edge">
<title>Node11&#45;&gt;Node19</title>
<path fill="none" stroke="midnightblue" d="M1612.31,-137.69C1619.17,-136.21 1626.26,-134.89 1633,-134 2183.58,-61.41 2329.48,-153.93 2882,-98 2884.91,-97.71 2887.87,-97.37 2890.86,-97"/>
<polygon fill="midnightblue" stroke="midnightblue" points="1611.45,-134.3 1602.49,-139.96 1613.02,-141.12 1611.45,-134.3"/>
</g>
<!-- Node20 -->
<g id="node20" class="node">
<title>Node20</title>
<g id="a_node20"><a xlink:href="TileViewer_8cpp.html" target="_top" xlink:title=" ">
<polygon fill="white" stroke="black" points="155.5,-67.5 155.5,-97.5 314.5,-97.5 314.5,-67.5 155.5,-67.5"/>
<text text-anchor="start" x="163.5" y="-85.5" font-family="Helvetica,sans-Serif" font-size="10.00">sources/Debugger/TileViewer</text>
<text text-anchor="middle" x="235" y="-74.5" font-family="Helvetica,sans-Serif" font-size="10.00">/TileViewer.cpp</text>
</a>
</g>
</g>
<!-- Node11&#45;&gt;Node20 -->
<g id="edge19" class="edge">
<title>Node11&#45;&gt;Node20</title>
<path fill="none" stroke="midnightblue" d="M1531.02,-137.71C1524.05,-136.22 1516.85,-134.9 1510,-134 986.66,-65.56 848.33,-149.02 323,-98 320.23,-97.73 317.41,-97.43 314.56,-97.1"/>
<polygon fill="midnightblue" stroke="midnightblue" points="1530.47,-141.17 1541,-139.97 1532.02,-134.34 1530.47,-141.17"/>
</g>
<!-- Node21 -->
<g id="node21" class="node">
<title>Node21</title>
<g id="a_node21"><a xlink:href="main_8cpp.html" target="_top" xlink:title=" ">
<polygon fill="white" stroke="black" points="332,-73 332,-92 434,-92 434,-73 332,-73"/>
<text text-anchor="middle" x="383" y="-80" font-family="Helvetica,sans-Serif" font-size="10.00">sources/main.cpp</text>
</a>
</g>
</g>
<!-- Node11&#45;&gt;Node21 -->
<g id="edge20" class="edge">
<title>Node11&#45;&gt;Node21</title>
<path fill="none" stroke="midnightblue" d="M1531.02,-137.73C1524.05,-136.24 1516.85,-134.91 1510,-134 1039.62,-71.67 913.15,-162.06 443,-98 433.12,-96.65 422.51,-94.37 412.99,-92.01"/>
<polygon fill="midnightblue" stroke="midnightblue" points="1530.47,-141.19 1541,-139.99 1532.02,-134.36 1530.47,-141.19"/>
</g>
<!-- Node22 -->
<g id="node22" class="node">
<title>Node22</title>
<g id="a_node22"><a xlink:href="MemoryBus_8cpp.html" target="_top" xlink:title=" ">
<polygon fill="white" stroke="black" points="452.5,-73 452.5,-92 631.5,-92 631.5,-73 452.5,-73"/>
<text text-anchor="middle" x="542" y="-80" font-family="Helvetica,sans-Serif" font-size="10.00">sources/Memory/MemoryBus.cpp</text>
</a>
</g>
</g>
<!-- Node11&#45;&gt;Node22 -->
<g id="edge21" class="edge">
<title>Node11&#45;&gt;Node22</title>
<path fill="none" stroke="midnightblue" d="M1530.78,-137.72C1523.89,-136.25 1516.77,-134.92 1510,-134 1126.99,-81.75 1025.87,-134.06 641,-98 625.35,-96.53 608.39,-94.29 593.01,-92.01"/>
<polygon fill="midnightblue" stroke="midnightblue" points="1530.15,-141.17 1540.67,-139.96 1531.69,-134.34 1530.15,-141.17"/>
</g>
<!-- Node23 -->
<g id="node23" class="node">
<title>Node23</title>
<g id="a_node23"><a xlink:href="QtSFML_8cpp.html" target="_top" xlink:title=" ">
<polygon fill="white" stroke="black" points="650,-67.5 650,-97.5 810,-97.5 810,-67.5 650,-67.5"/>
<text text-anchor="start" x="658" y="-85.5" font-family="Helvetica,sans-Serif" font-size="10.00">sources/Renderer/QtRenderer</text>
<text text-anchor="middle" x="730" y="-74.5" font-family="Helvetica,sans-Serif" font-size="10.00">/QtSFML.cpp</text>
</a>
</g>
</g>
<!-- Node11&#45;&gt;Node23 -->
<g id="edge22" class="edge">
<title>Node11&#45;&gt;Node23</title>
<path fill="none" stroke="midnightblue" d="M1530.55,-137.74C1523.72,-136.27 1516.69,-134.95 1510,-134 1205.52,-90.81 1124.78,-130.77 819,-98 816.2,-97.7 813.35,-97.37 810.48,-97.02"/>
<polygon fill="midnightblue" stroke="midnightblue" points="1529.82,-141.16 1540.35,-139.95 1531.37,-134.33 1529.82,-141.16"/>
</g>
<!-- Node24 -->
<g id="node24" class="node">
<title>Node24</title>
<g id="a_node24"><a xlink:href="SFRenderer_8cpp.html" target="_top" xlink:title=" ">
<polygon fill="white" stroke="black" points="828,-73 828,-92 1008,-92 1008,-73 828,-73"/>
<text text-anchor="middle" x="918" y="-80" font-family="Helvetica,sans-Serif" font-size="10.00">sources/Renderer/SFRenderer.cpp</text>
</a>
</g>
</g>
<!-- Node11&#45;&gt;Node24 -->
<g id="edge23" class="edge">
<title>Node11&#45;&gt;Node24</title>
<path fill="none" stroke="midnightblue" d="M1529.62,-137.66C1523.08,-136.26 1516.38,-134.97 1510,-134 1292.82,-100.88 1235.39,-121.93 1017,-98 1002.15,-96.37 986.1,-94.2 971.34,-92.04"/>
<polygon fill="midnightblue" stroke="midnightblue" points="1529.16,-141.14 1539.69,-139.93 1530.7,-134.32 1529.16,-141.14"/>
</g>
<!-- Node25 -->
<g id="node25" class="node">
<title>Node25</title>
<g id="a_node25"><a xlink:href="SNES_8cpp.html" target="_top" xlink:title=" ">
<polygon fill="white" stroke="black" points="1026.5,-73 1026.5,-92 1129.5,-92 1129.5,-73 1026.5,-73"/>
<text text-anchor="middle" x="1078" y="-80" font-family="Helvetica,sans-Serif" font-size="10.00">sources/SNES.cpp</text>
</a>
</g>
</g>
<!-- Node11&#45;&gt;Node25 -->
<g id="edge24" class="edge">
<title>Node11&#45;&gt;Node25</title>
<path fill="none" stroke="midnightblue" d="M1529.15,-137.71C1522.76,-136.32 1516.23,-135.03 1510,-134 1348.74,-107.33 1305.44,-123.58 1144,-98 1133.92,-96.4 1123.07,-94.22 1113.13,-92.03"/>
<polygon fill="midnightblue" stroke="midnightblue" points="1528.49,-141.15 1539.02,-139.94 1530.04,-134.32 1528.49,-141.15"/>
</g>
<!-- Node26 -->
<g id="node26" class="node">
<title>Node26</title>
<g id="a_node26"><a xlink:href="testAPU_8cpp.html" target="_top" xlink:title=" ">
<polygon fill="white" stroke="black" points="0,-6 0,-25 126,-25 126,-6 0,-6"/>
<text text-anchor="middle" x="63" y="-13" font-family="Helvetica,sans-Serif" font-size="10.00">tests/APU/testAPU.cpp</text>
</a>
</g>
</g>
<!-- Node11&#45;&gt;Node26 -->
<g id="edge25" class="edge">
<title>Node11&#45;&gt;Node26</title>
<path fill="none" stroke="midnightblue" d="M1529.15,-137.75C1522.75,-136.36 1516.22,-135.05 1510,-134 1361.05,-108.75 1309.78,-159.97 1172,-98 1153.35,-89.61 1156.93,-74.73 1138,-67 1034.76,-24.85 245.75,-44.05 135,-31 123.35,-29.63 110.77,-27.37 99.44,-25.04"/>
<polygon fill="midnightblue" stroke="midnightblue" points="1528.49,-141.19 1539.01,-139.99 1530.03,-134.36 1528.49,-141.19"/>
</g>
<!-- Node27 -->
<g id="node27" class="node">
<title>Node27</title>
<g id="a_node27"><a xlink:href="tests_8hpp.html" target="_top" xlink:title=" ">
<polygon fill="white" stroke="black" points="1490.5,-73 1490.5,-92 1579.5,-92 1579.5,-73 1490.5,-73"/>
<text text-anchor="middle" x="1535" y="-80" font-family="Helvetica,sans-Serif" font-size="10.00">tests/tests.hpp</text>
</a>
</g>
</g>
<!-- Node11&#45;&gt;Node27 -->
<g id="edge26" class="edge">
<title>Node11&#45;&gt;Node27</title>
<path fill="none" stroke="midnightblue" d="M1562.06,-131.03C1554.89,-118.45 1545.53,-102.01 1539.91,-92.13"/>
<polygon fill="midnightblue" stroke="midnightblue" points="1559.02,-132.77 1567.01,-139.73 1565.1,-129.31 1559.02,-132.77"/>
</g>
<!-- Node28 -->
<g id="node28" class="node">
<title>Node28</title>
<g id="a_node28"><a xlink:href="testAPUInstructions_8cpp.html" target="_top" xlink:title=" ">
<polygon fill="white" stroke="black" points="144.5,-6 144.5,-25 327.5,-25 327.5,-6 144.5,-6"/>
<text text-anchor="middle" x="236" y="-13" font-family="Helvetica,sans-Serif" font-size="10.00">tests/APU/testAPUInstructions.cpp</text>
</a>
</g>
</g>
<!-- Node11&#45;&gt;Node28 -->
<g id="edge47" class="edge">
<title>Node11&#45;&gt;Node28</title>
<path fill="none" stroke="midnightblue" d="M1528.91,-137.78C1522.59,-136.39 1516.14,-135.08 1510,-134 1377.75,-110.67 1333.59,-150.53 1210,-98 1189.94,-89.47 1192.37,-74.75 1172,-67 1085.11,-33.93 428.57,-39.68 336,-31 320.28,-29.53 303.25,-27.3 287.78,-25.02"/>
<polygon fill="midnightblue" stroke="midnightblue" points="1528.15,-141.19 1538.68,-139.99 1529.7,-134.37 1528.15,-141.19"/>
</g>
<!-- Node29 -->
<g id="node29" class="node">
<title>Node29</title>
<g id="a_node29"><a xlink:href="testOperand_8cpp.html" target="_top" xlink:title=" ">
<polygon fill="white" stroke="black" points="345.5,-6 345.5,-25 492.5,-25 492.5,-6 345.5,-6"/>
<text text-anchor="middle" x="419" y="-13" font-family="Helvetica,sans-Serif" font-size="10.00">tests/APU/testOperand.cpp</text>
</a>
</g>
</g>
<!-- Node11&#45;&gt;Node29 -->
<g id="edge48" class="edge">
<title>Node11&#45;&gt;Node29</title>
<path fill="none" stroke="midnightblue" d="M1528.01,-137.68C1521.98,-136.35 1515.85,-135.08 1510,-134 1394.43,-112.59 1355.78,-144.9 1248,-98 1228.01,-89.3 1230.34,-74.83 1210,-67 1062.78,-10.32 657.75,-48.77 501,-31 488.07,-29.53 474.1,-27.31 461.41,-25.04"/>
<polygon fill="midnightblue" stroke="midnightblue" points="1527.48,-141.15 1538.01,-139.95 1529.03,-134.32 1527.48,-141.15"/>
</g>
<!-- Node30 -->
<g id="node30" class="node">
<title>Node30</title>
<g id="a_node30"><a xlink:href="testADC_8cpp.html" target="_top" xlink:title=" ">
<polygon fill="white" stroke="black" points="510.5,-6 510.5,-25 665.5,-25 665.5,-6 510.5,-6"/>
<text text-anchor="middle" x="588" y="-13" font-family="Helvetica,sans-Serif" font-size="10.00">tests/CPU/Math/testADC.cpp</text>
</a>
</g>
</g>
<!-- Node11&#45;&gt;Node30 -->
<g id="edge49" class="edge">
<title>Node11&#45;&gt;Node30</title>
<path fill="none" stroke="midnightblue" d="M1527.56,-137.71C1521.67,-136.4 1515.7,-135.12 1510,-134 1411.07,-114.51 1377.99,-139.28 1286,-98 1266.11,-89.08 1268.29,-74.95 1248,-67 1129.21,-20.45 801.76,-45.51 675,-31 661.61,-29.47 647.15,-27.28 633.93,-25.06"/>
<polygon fill="midnightblue" stroke="midnightblue" points="1526.81,-141.13 1537.33,-139.94 1528.36,-134.3 1526.81,-141.13"/>
</g>
<!-- Node31 -->
<g id="node31" class="node">
<title>Node31</title>
<g id="a_node31"><a xlink:href="testCMP_8cpp.html" target="_top" xlink:title=" ">
<polygon fill="white" stroke="black" points="684,-6 684,-25 838,-25 838,-6 684,-6"/>
<text text-anchor="middle" x="761" y="-13" font-family="Helvetica,sans-Serif" font-size="10.00">tests/CPU/Math/testCMP.cpp</text>
</a>
</g>
</g>
<!-- Node11&#45;&gt;Node31 -->
<g id="edge50" class="edge">
<title>Node11&#45;&gt;Node31</title>
<path fill="none" stroke="midnightblue" d="M1526.67,-137.69C1521.06,-136.41 1515.41,-135.15 1510,-134 1427.66,-116.41 1400.26,-133.69 1324,-98 1304.26,-88.76 1306.22,-75.15 1286,-67 1195.21,-30.42 944.13,-43.15 847,-31 834.08,-29.38 820.13,-27.22 807.31,-25.05"/>
<polygon fill="midnightblue" stroke="midnightblue" points="1526.11,-141.15 1536.64,-139.98 1527.68,-134.33 1526.11,-141.15"/>
</g>
<!-- Node32 -->
<g id="node32" class="node">
<title>Node32</title>
<g id="a_node32"><a xlink:href="testOthersMath_8cpp.html" target="_top" xlink:title=" ">
<polygon fill="white" stroke="black" points="856,-0.5 856,-30.5 1002,-30.5 1002,-0.5 856,-0.5"/>
<text text-anchor="start" x="864" y="-18.5" font-family="Helvetica,sans-Serif" font-size="10.00">tests/CPU/Math/testOthers</text>
<text text-anchor="middle" x="929" y="-7.5" font-family="Helvetica,sans-Serif" font-size="10.00">Math.cpp</text>
</a>
</g>
</g>
<!-- Node11&#45;&gt;Node32 -->
<g id="edge51" class="edge">
<title>Node11&#45;&gt;Node32</title>
<path fill="none" stroke="midnightblue" d="M1525.55,-137.6C1464.84,-123.31 1365.72,-99.84 1362,-98 1342.47,-88.32 1344.08,-75.48 1324,-67 1194.99,-12.55 1149.56,-51.2 1011,-31 1008.14,-30.58 1005.22,-30.14 1002.28,-29.68"/>
<polygon fill="midnightblue" stroke="midnightblue" points="1524.78,-141.01 1535.31,-139.9 1526.38,-134.2 1524.78,-141.01"/>
</g>
<!-- Node33 -->
<g id="node33" class="node">
<title>Node33</title>
<g id="a_node33"><a xlink:href="testSBC_8cpp.html" target="_top" xlink:title=" ">
<polygon fill="white" stroke="black" points="1020.5,-6 1020.5,-25 1173.5,-25 1173.5,-6 1020.5,-6"/>
<text text-anchor="middle" x="1097" y="-13" font-family="Helvetica,sans-Serif" font-size="10.00">tests/CPU/Math/testSBC.cpp</text>
</a>
</g>
</g>
<!-- Node11&#45;&gt;Node33 -->
<g id="edge52" class="edge">
<title>Node11&#45;&gt;Node33</title>
<path fill="none" stroke="midnightblue" d="M1527.27,-137.52C1484.09,-126.54 1422.1,-109.64 1400,-98 1380.72,-87.84 1381.75,-76.21 1362,-67 1352.21,-62.44 1218.89,-38.22 1145.18,-25.05"/>
<polygon fill="midnightblue" stroke="midnightblue" points="1526.44,-140.92 1536.99,-139.97 1528.15,-134.13 1526.44,-140.92"/>
</g>
<!-- Node34 -->
<g id="node34" class="node">
<title>Node34</title>
<g id="a_node34"><a xlink:href="testAddressingMode_8cpp.html" target="_top" xlink:title=" ">
<polygon fill="white" stroke="black" points="1192,-0.5 1192,-30.5 1332,-30.5 1332,-0.5 1192,-0.5"/>
<text text-anchor="start" x="1200" y="-18.5" font-family="Helvetica,sans-Serif" font-size="10.00">tests/CPU/testAddressing</text>
<text text-anchor="middle" x="1262" y="-7.5" font-family="Helvetica,sans-Serif" font-size="10.00">Mode.cpp</text>
</a>
</g>
</g>
<!-- Node11&#45;&gt;Node34 -->
<g id="edge53" class="edge">
<title>Node11&#45;&gt;Node34</title>
<path fill="none" stroke="midnightblue" d="M1536.81,-136.42C1511.3,-127.15 1476.27,-113.37 1447,-98 1424.85,-86.37 1422.34,-78.26 1400,-67 1370.61,-52.19 1335.8,-39.48 1308.49,-30.52"/>
<polygon fill="midnightblue" stroke="midnightblue" points="1535.84,-139.79 1546.44,-139.87 1538.2,-133.2 1535.84,-139.79"/>
</g>
<!-- Node35 -->
<g id="node35" class="node">
<title>Node35</title>
<g id="a_node35"><a xlink:href="testBits_8cpp.html" target="_top" xlink:title=" ">
<polygon fill="white" stroke="black" points="1350.5,-6 1350.5,-25 1475.5,-25 1475.5,-6 1350.5,-6"/>
<text text-anchor="middle" x="1413" y="-13" font-family="Helvetica,sans-Serif" font-size="10.00">tests/CPU/testBits.cpp</text>
</a>
</g>
</g>
<!-- Node11&#45;&gt;Node35 -->
<g id="edge54" class="edge">
<title>Node11&#45;&gt;Node35</title>
<path fill="none" stroke="midnightblue" d="M1542.64,-135.65C1523.91,-126.65 1499.73,-113.49 1481,-98 1453.74,-75.45 1429.12,-40.88 1418.51,-25.01"/>
<polygon fill="midnightblue" stroke="midnightblue" points="1541.33,-138.9 1551.87,-139.96 1544.3,-132.56 1541.33,-138.9"/>
</g>
<!-- Node38 -->
<g id="node38" class="node">
<title>Node38</title>
<g id="a_node38"><a xlink:href="testInterupts_8cpp.html" target="_top" xlink:title=" ">
<polygon fill="white" stroke="black" points="2149.5,-6 2149.5,-25 2298.5,-25 2298.5,-6 2149.5,-6"/>
<text text-anchor="middle" x="2224" y="-13" font-family="Helvetica,sans-Serif" font-size="10.00">tests/CPU/testInterupts.cpp</text>
</a>
</g>
</g>
<!-- Node11&#45;&gt;Node38 -->
<g id="edge55" class="edge">
<title>Node11&#45;&gt;Node38</title>
<path fill="none" stroke="midnightblue" d="M1579.54,-130.63C1588.78,-111.21 1606.43,-81.08 1632,-67 1731.33,-12.3 2028.45,-44.78 2141,-31 2153.78,-29.44 2167.58,-27.23 2180.19,-25.02"/>
<polygon fill="midnightblue" stroke="midnightblue" points="1576.27,-129.35 1575.37,-139.91 1582.66,-132.22 1576.27,-129.35"/>
</g>
<!-- Node39 -->
<g id="node39" class="node">
<title>Node39</title>
<g id="a_node39"><a xlink:href="testStore_8cpp.html" target="_top" xlink:title=" ">
<polygon fill="white" stroke="black" points="2316.5,-6 2316.5,-25 2447.5,-25 2447.5,-6 2316.5,-6"/>
<text text-anchor="middle" x="2382" y="-13" font-family="Helvetica,sans-Serif" font-size="10.00">tests/CPU/testStore.cpp</text>
</a>
</g>
</g>
<!-- Node11&#45;&gt;Node39 -->
<g id="edge56" class="edge">
<title>Node11&#45;&gt;Node39</title>
<path fill="none" stroke="midnightblue" d="M1589.79,-133.22C1616.73,-110.14 1665.27,-68.86 1670,-67 1802.13,-14.98 2167.1,-48.69 2308,-31 2319.69,-29.53 2332.31,-27.3 2343.75,-25.03"/>
<polygon fill="midnightblue" stroke="midnightblue" points="1587.5,-130.56 1582.19,-139.73 1592.06,-135.88 1587.5,-130.56"/>
</g>
<!-- Node40 -->
<g id="node40" class="node">
<title>Node40</title>
<g id="a_node40"><a xlink:href="testTransfers_8cpp.html" target="_top" xlink:title=" ">
<polygon fill="white" stroke="black" points="2466,-6 2466,-25 2616,-25 2616,-6 2466,-6"/>
<text text-anchor="middle" x="2541" y="-13" font-family="Helvetica,sans-Serif" font-size="10.00">tests/CPU/testTransfers.cpp</text>
</a>
</g>
</g>
<!-- Node11&#45;&gt;Node40 -->
<g id="edge57" class="edge">
<title>Node11&#45;&gt;Node40</title>
<path fill="none" stroke="midnightblue" d="M1598.79,-135.4C1617.92,-125.73 1644.04,-111.9 1666,-98 1685.6,-85.59 1686.14,-74.78 1708,-67 1864.99,-11.13 2291.36,-49.21 2457,-31 2470.24,-29.54 2484.55,-27.32 2497.55,-25.05"/>
<polygon fill="midnightblue" stroke="midnightblue" points="1597.13,-132.32 1589.75,-139.92 1600.26,-138.58 1597.13,-132.32"/>
</g>
<!-- Node41 -->
<g id="node41" class="node">
<title>Node41</title>
<g id="a_node41"><a xlink:href="testBackground_8cpp.html" target="_top" xlink:title=" ">
<polygon fill="white" stroke="black" points="2634.5,-6 2634.5,-25 2797.5,-25 2797.5,-6 2634.5,-6"/>
<text text-anchor="middle" x="2716" y="-13" font-family="Helvetica,sans-Serif" font-size="10.00">tests/PPU/testBackground.cpp</text>
</a>
</g>
</g>
<!-- Node11&#45;&gt;Node41 -->
<g id="edge58" class="edge">
<title>Node11&#45;&gt;Node41</title>
<path fill="none" stroke="midnightblue" d="M1608.58,-136.71C1634.96,-127.61 1671.05,-113.9 1701,-98 1722.45,-86.61 1722.96,-74.69 1746,-67 1931.44,-5.12 2430.47,-50.41 2625,-31 2639.49,-29.55 2655.17,-27.3 2669.37,-25"/>
<polygon fill="midnightblue" stroke="midnightblue" points="1607.32,-133.44 1598.98,-139.97 1609.57,-140.07 1607.32,-133.44"/>
</g>
<!-- Node42 -->
<g id="node42" class="node">
<title>Node42</title>
<g id="a_node42"><a xlink:href="testPpuRead_8cpp.html" target="_top" xlink:title=" ">
<polygon fill="white" stroke="black" points="2816,-6 2816,-25 2964,-25 2964,-6 2816,-6"/>
<text text-anchor="middle" x="2890" y="-13" font-family="Helvetica,sans-Serif" font-size="10.00">tests/PPU/testPpuRead.cpp</text>
</a>
</g>
</g>
<!-- Node11&#45;&gt;Node42 -->
<g id="edge59" class="edge">
<title>Node11&#45;&gt;Node42</title>
<path fill="none" stroke="midnightblue" d="M1614.05,-137.25C1655.59,-125.85 1716.01,-108.46 1738,-98 1760.26,-87.41 1760.55,-74.62 1784,-67 1892.17,-31.86 2693.88,-42.81 2807,-31 2820.38,-29.6 2834.87,-27.34 2847.93,-25.01"/>
<polygon fill="midnightblue" stroke="midnightblue" points="1612.92,-133.93 1604.19,-139.93 1614.76,-140.68 1612.92,-133.93"/>
</g>
<!-- Node43 -->
<g id="node43" class="node">
<title>Node43</title>
<g id="a_node43"><a xlink:href="testPpuWrite_8cpp.html" target="_top" xlink:title=" ">
<polygon fill="white" stroke="black" points="2982.5,-6 2982.5,-25 3131.5,-25 3131.5,-6 2982.5,-6"/>
<text text-anchor="middle" x="3057" y="-13" font-family="Helvetica,sans-Serif" font-size="10.00">tests/PPU/testPpuWrite.cpp</text>
</a>
</g>
</g>
<!-- Node11&#45;&gt;Node43 -->
<g id="edge60" class="edge">
<title>Node11&#45;&gt;Node43</title>
<path fill="none" stroke="midnightblue" d="M1617.46,-137.6C1675.04,-123.74 1767.71,-101.2 1775,-98 1797.91,-87.95 1798.15,-74.57 1822,-67 1943.96,-28.31 2845.7,-43.91 2973,-31 2986.55,-29.63 3001.2,-27.37 3014.43,-25.04"/>
<polygon fill="midnightblue" stroke="midnightblue" points="1616.4,-134.26 1607.5,-140 1618.04,-141.06 1616.4,-134.26"/>
</g>
<!-- Node44 -->
<g id="node44" class="node">
<title>Node44</title>
<g id="a_node44"><a xlink:href="testPpuWriteFromVmain_8cpp.html" target="_top" xlink:title=" ">
<polygon fill="white" stroke="black" points="3150,-0.5 3150,-30.5 3304,-30.5 3304,-0.5 3150,-0.5"/>
<text text-anchor="start" x="3158" y="-18.5" font-family="Helvetica,sans-Serif" font-size="10.00">tests/PPU/testPpuWriteFrom</text>
<text text-anchor="middle" x="3227" y="-7.5" font-family="Helvetica,sans-Serif" font-size="10.00">Vmain.cpp</text>
</a>
</g>
</g>
<!-- Node11&#45;&gt;Node44 -->
<g id="edge61" class="edge">
<title>Node11&#45;&gt;Node44</title>
<path fill="none" stroke="midnightblue" d="M1617.22,-137.57C1622.53,-136.34 1627.88,-135.12 1633,-134 1712.26,-116.61 1737.45,-130.06 1812,-98 1833.98,-88.55 1833.3,-74.55 1856,-67 1991.54,-21.95 2998.84,-44.91 3141,-31 3143.86,-30.72 3146.78,-30.4 3149.71,-30.05"/>
<polygon fill="midnightblue" stroke="midnightblue" points="1616.05,-134.24 1607.11,-139.93 1617.65,-141.06 1616.05,-134.24"/>
</g>
<!-- Node27&#45;&gt;Node26 -->
<g id="edge27" class="edge">
<title>Node27&#45;&gt;Node26</title>
<path fill="none" stroke="midnightblue" d="M1480.23,-79.22C1409.17,-76.29 1281.33,-71.08 1172,-67 711.15,-49.8 593.03,-84.7 135,-31 123.35,-29.63 110.77,-27.38 99.44,-25.05"/>
<polygon fill="midnightblue" stroke="midnightblue" points="1480.16,-82.72 1490.3,-79.64 1480.45,-75.73 1480.16,-82.72"/>
</g>
<!-- Node27&#45;&gt;Node28 -->
<g id="edge28" class="edge">
<title>Node27&#45;&gt;Node28</title>
<path fill="none" stroke="midnightblue" d="M1479.96,-78.99C1415.32,-76.05 1304.88,-71.07 1210,-67 821.58,-50.34 723.11,-66.94 336,-31 320.19,-29.53 303.06,-27.29 287.52,-25"/>
<polygon fill="midnightblue" stroke="midnightblue" points="1480.17,-82.5 1490.32,-79.46 1480.49,-75.51 1480.17,-82.5"/>
</g>
<!-- Node27&#45;&gt;Node29 -->
<g id="edge29" class="edge">
<title>Node27&#45;&gt;Node29</title>
<path fill="none" stroke="midnightblue" d="M1480.26,-78.7C1422.51,-75.75 1328.85,-70.99 1248,-67 916.02,-50.61 831.32,-68.01 501,-31 488.07,-29.55 474.1,-27.33 461.41,-25.06"/>
<polygon fill="midnightblue" stroke="midnightblue" points="1480.1,-82.19 1490.26,-79.21 1480.45,-75.2 1480.1,-82.19"/>
</g>
<!-- Node27&#45;&gt;Node30 -->
<g id="edge30" class="edge">
<title>Node27&#45;&gt;Node30</title>
<path fill="none" stroke="midnightblue" d="M1480.02,-78.29C1291.12,-67.26 680.03,-31.56 675,-31 661.46,-29.48 646.82,-27.26 633.48,-25.02"/>
<polygon fill="midnightblue" stroke="midnightblue" points="1480.08,-81.8 1490.27,-78.89 1480.49,-74.81 1480.08,-81.8"/>
</g>
<!-- Node27&#45;&gt;Node31 -->
<g id="edge31" class="edge">
<title>Node27&#45;&gt;Node31</title>
<path fill="none" stroke="midnightblue" d="M1480.03,-77.61C1322.42,-66.42 878.26,-34.77 847,-31 833.92,-29.42 819.8,-27.24 806.86,-25.05"/>
<polygon fill="midnightblue" stroke="midnightblue" points="1480.2,-81.13 1490.43,-78.34 1480.7,-74.15 1480.2,-81.13"/>
</g>
<!-- Node27&#45;&gt;Node32 -->
<g id="edge32" class="edge">
<title>Node27&#45;&gt;Node32</title>
<path fill="none" stroke="midnightblue" d="M1480.34,-76.78C1365.14,-66.76 1100.66,-43.23 1011,-31 1008.14,-30.61 1005.22,-30.19 1002.27,-29.75"/>
<polygon fill="midnightblue" stroke="midnightblue" points="1480.09,-80.28 1490.36,-77.65 1480.7,-73.3 1480.09,-80.28"/>
</g>
<!-- Node27&#45;&gt;Node33 -->
<g id="edge33" class="edge">
<title>Node27&#45;&gt;Node33</title>
<path fill="none" stroke="midnightblue" d="M1480.26,-74.07C1410.98,-64.57 1288.02,-47.38 1183,-31 1171.18,-29.16 1158.47,-27.07 1146.54,-25.07"/>
<polygon fill="midnightblue" stroke="midnightblue" points="1480.11,-77.58 1490.49,-75.47 1481.06,-70.65 1480.11,-77.58"/>
</g>
<!-- Node27&#45;&gt;Node34 -->
<g id="edge34" class="edge">
<title>Node27&#45;&gt;Node34</title>
<path fill="none" stroke="midnightblue" d="M1489.29,-70.62C1443.09,-59.62 1371.52,-42.58 1321.05,-30.56"/>
<polygon fill="midnightblue" stroke="midnightblue" points="1488.49,-74.02 1499.03,-72.94 1490.11,-67.21 1488.49,-74.02"/>
</g>
<!-- Node27&#45;&gt;Node35 -->
<g id="edge35" class="edge">
<title>Node27&#45;&gt;Node35</title>
<path fill="none" stroke="midnightblue" d="M1509.86,-68.1C1485.69,-55.23 1449.9,-36.16 1429.27,-25.17"/>
<polygon fill="midnightblue" stroke="midnightblue" points="1508.33,-71.26 1518.8,-72.87 1511.62,-65.08 1508.33,-71.26"/>
</g>
<!-- Node36 -->
<g id="node36" class="node">
<title>Node36</title>
<g id="a_node36"><a xlink:href="testDMA_8cpp.html" target="_top" xlink:title=" ">
<polygon fill="white" stroke="black" points="1841.5,-6 1841.5,-25 1970.5,-25 1970.5,-6 1841.5,-6"/>
<text text-anchor="middle" x="1906" y="-13" font-family="Helvetica,sans-Serif" font-size="10.00">tests/CPU/testDMA.cpp</text>
</a>
</g>
</g>
<!-- Node27&#45;&gt;Node36 -->
<g id="edge36" class="edge">
<title>Node27&#45;&gt;Node36</title>
<path fill="none" stroke="midnightblue" d="M1577.28,-70.62C1582.88,-69.32 1588.57,-68.08 1594,-67 1698.94,-46.21 1726.59,-49.29 1832,-31 1842.45,-29.19 1853.69,-27.07 1864.18,-25.02"/>
<polygon fill="midnightblue" stroke="midnightblue" points="1576.26,-67.26 1567.34,-72.99 1577.88,-74.07 1576.26,-67.26"/>
</g>
<!-- Node37 -->
<g id="node37" class="node">
<title>Node37</title>
<g id="a_node37"><a xlink:href="testInternal_8cpp.html" target="_top" xlink:title=" ">
<polygon fill="white" stroke="black" points="1988.5,-6 1988.5,-25 2131.5,-25 2131.5,-6 1988.5,-6"/>
<text text-anchor="middle" x="2060" y="-13" font-family="Helvetica,sans-Serif" font-size="10.00">tests/CPU/testInternal.cpp</text>
</a>
</g>
</g>
<!-- Node27&#45;&gt;Node37 -->
<g id="edge37" class="edge">
<title>Node27&#45;&gt;Node37</title>
<path fill="none" stroke="midnightblue" d="M1575.98,-70.6C1581.99,-69.24 1588.14,-67.99 1594,-67 1763.9,-38.36 1809.29,-54.39 1980,-31 1992.03,-29.35 2005,-27.18 2016.93,-25.01"/>
<polygon fill="midnightblue" stroke="midnightblue" points="1574.98,-67.24 1566.05,-72.96 1576.59,-74.06 1574.98,-67.24"/>
</g>
<!-- Node27&#45;&gt;Node38 -->
<g id="edge38" class="edge">
<title>Node27&#45;&gt;Node38</title>
<path fill="none" stroke="midnightblue" d="M1575.55,-70.55C1581.69,-69.17 1587.99,-67.93 1594,-67 1834.78,-29.78 1899.1,-60.01 2141,-31 2153.78,-29.47 2167.58,-27.28 2180.19,-25.06"/>
<polygon fill="midnightblue" stroke="midnightblue" points="1574.34,-67.24 1565.42,-72.95 1575.95,-74.05 1574.34,-67.24"/>
</g>
<!-- Node27&#45;&gt;Node39 -->
<g id="edge39" class="edge">
<title>Node27&#45;&gt;Node39</title>
<path fill="none" stroke="midnightblue" d="M1590.04,-72.34C1603.72,-70.32 1618.37,-68.38 1632,-67 1931.34,-36.73 2009.42,-68.02 2308,-31 2319.69,-29.55 2332.31,-27.33 2343.76,-25.06"/>
<polygon fill="midnightblue" stroke="midnightblue" points="1589.16,-68.94 1579.8,-73.89 1590.21,-75.86 1589.16,-68.94"/>
</g>
<!-- Node27&#45;&gt;Node40 -->
<g id="edge40" class="edge">
<title>Node27&#45;&gt;Node40</title>
<path fill="none" stroke="midnightblue" d="M1589.82,-74.84C1614.32,-72.06 1643.57,-69.02 1670,-67 2019.12,-40.29 2108.91,-68.85 2457,-31 2470.24,-29.56 2484.55,-27.34 2497.55,-25.07"/>
<polygon fill="midnightblue" stroke="midnightblue" points="1589.16,-71.39 1579.63,-76.01 1589.96,-78.35 1589.16,-71.39"/>
</g>
<!-- Node27&#45;&gt;Node41 -->
<g id="edge41" class="edge">
<title>Node27&#45;&gt;Node41</title>
<path fill="none" stroke="midnightblue" d="M1589.96,-76.27C1623.94,-73.19 1668.47,-69.43 1708,-67 2115.1,-41.96 2219.11,-71.16 2625,-31 2639.49,-29.57 2655.17,-27.32 2669.38,-25.02"/>
<polygon fill="midnightblue" stroke="midnightblue" points="1589.41,-72.8 1579.77,-77.2 1590.04,-79.77 1589.41,-72.8"/>
</g>
<!-- Node27&#45;&gt;Node42 -->
<g id="edge42" class="edge">
<title>Node27&#45;&gt;Node42</title>
<path fill="none" stroke="midnightblue" d="M1589.99,-77.2C1632.55,-73.99 1692.98,-69.72 1746,-67 2217.21,-42.82 2337.69,-79.72 2807,-31 2820.39,-29.61 2834.87,-27.35 2847.93,-25.02"/>
<polygon fill="midnightblue" stroke="midnightblue" points="1589.55,-73.72 1579.84,-77.97 1590.07,-80.7 1589.55,-73.72"/>
</g>
<!-- Node27&#45;&gt;Node43 -->
<g id="edge43" class="edge">
<title>Node27&#45;&gt;Node43</title>
<path fill="none" stroke="midnightblue" d="M1589.54,-77.88C1639.98,-74.65 1717.02,-69.96 1784,-67 2312.17,-43.63 2446.99,-84.1 2973,-31 2986.55,-29.63 3001.2,-27.38 3014.43,-25.04"/>
<polygon fill="midnightblue" stroke="midnightblue" points="1589.26,-74.4 1579.51,-78.53 1589.72,-81.38 1589.26,-74.4"/>
</g>
<!-- Node27&#45;&gt;Node44 -->
<g id="edge44" class="edge">
<title>Node27&#45;&gt;Node44</title>
<path fill="none" stroke="midnightblue" d="M1589.73,-78.36C1647.46,-75.13 1741.11,-70.15 1822,-67 2408,-44.2 2557.33,-87.89 3141,-31 3143.86,-30.72 3146.78,-30.4 3149.71,-30.05"/>
<polygon fill="midnightblue" stroke="midnightblue" points="1589.51,-74.86 1579.73,-78.92 1589.91,-81.85 1589.51,-74.86"/>
</g>
<!-- Node45 -->
<g id="node45" class="node">
<title>Node45</title>
<g id="a_node45"><a xlink:href="testMemoryBus_8cpp.html" target="_top" xlink:title=" ">
<polygon fill="white" stroke="black" points="1493.5,-6 1493.5,-25 1634.5,-25 1634.5,-6 1493.5,-6"/>
<text text-anchor="middle" x="1564" y="-13" font-family="Helvetica,sans-Serif" font-size="10.00">tests/testMemoryBus.cpp</text>
</a>
</g>
</g>
<!-- Node27&#45;&gt;Node45 -->
<g id="edge45" class="edge">
<title>Node27&#45;&gt;Node45</title>
<path fill="none" stroke="midnightblue" d="M1543.12,-63.29C1548.69,-50.81 1555.83,-34.81 1560.15,-25.13"/>
<polygon fill="midnightblue" stroke="midnightblue" points="1539.79,-62.18 1538.91,-72.73 1546.18,-65.03 1539.79,-62.18"/>
</g>
<!-- Node46 -->
<g id="node46" class="node">
<title>Node46</title>
<g id="a_node46"><a xlink:href="testRectangleMemory_8cpp.html" target="_top" xlink:title=" ">
<polygon fill="white" stroke="black" points="1653,-6 1653,-25 1823,-25 1823,-6 1653,-6"/>
<text text-anchor="middle" x="1738" y="-13" font-family="Helvetica,sans-Serif" font-size="10.00">tests/testRectangleMemory.cpp</text>
</a>
</g>
</g>
<!-- Node27&#45;&gt;Node46 -->
<g id="edge46" class="edge">
<title>Node27&#45;&gt;Node46</title>
<path fill="none" stroke="midnightblue" d="M1571.65,-69.77C1611.87,-56.89 1675.47,-36.52 1711.25,-25.06"/>
<polygon fill="midnightblue" stroke="midnightblue" points="1570.41,-66.49 1561.96,-72.87 1572.55,-73.15 1570.41,-66.49"/>
</g>
<!-- Node47&#45;&gt;Node14 -->
<g id="edge63" class="edge">
<title>Node47&#45;&gt;Node14</title>
<path fill="none" stroke="midnightblue" d="M3217.47,-127.6C3228.5,-117.78 3241.34,-106.34 3251.19,-97.58"/>
<polygon fill="midnightblue" stroke="midnightblue" points="3214.98,-125.13 3209.84,-134.4 3219.64,-130.36 3214.98,-125.13"/>
</g>
<!-- Node47&#45;&gt;Node15 -->
<g id="edge64" class="edge">
<title>Node47&#45;&gt;Node15</title>
<path fill="none" stroke="midnightblue" d="M3170.53,-127.6C3159.5,-117.78 3146.66,-106.34 3136.81,-97.58"/>
<polygon fill="midnightblue" stroke="midnightblue" points="3168.36,-130.36 3178.16,-134.4 3173.02,-125.13 3168.36,-130.36"/>
</g>
<!-- Node48 -->
<g id="node48" class="node">
<title>Node48</title>
<g id="a_node48"><a xlink:href="WlaDx_8hpp.html" target="_top" xlink:title=" ">
<polygon fill="white" stroke="black" points="3349.5,-67.5 3349.5,-97.5 3500.5,-97.5 3500.5,-67.5 3349.5,-67.5"/>
<text text-anchor="start" x="3357.5" y="-85.5" font-family="Helvetica,sans-Serif" font-size="10.00">sources/Debugger/CPU</text>
<text text-anchor="middle" x="3425" y="-74.5" font-family="Helvetica,sans-Serif" font-size="10.00">/SymbolLoaders/WlaDx.hpp</text>
</a>
</g>
</g>
<!-- Node47&#45;&gt;Node48 -->
<g id="edge65" class="edge">
<title>Node47&#45;&gt;Node48</title>
<path fill="none" stroke="midnightblue" d="M3253.65,-131.71C3291.24,-121.14 3339.23,-107.63 3374.85,-97.61"/>
<polygon fill="midnightblue" stroke="midnightblue" points="3252.52,-128.4 3243.84,-134.48 3254.41,-135.14 3252.52,-128.4"/>
</g>
<!-- Node49 -->
<g id="node49" class="node">
<title>Node49</title>
<g id="a_node49"><a xlink:href="WlaDx_8cpp.html" target="_top" xlink:title=" ">
<polygon fill="white" stroke="black" points="3350,-0.5 3350,-30.5 3500,-30.5 3500,-0.5 3350,-0.5"/>
<text text-anchor="start" x="3358" y="-18.5" font-family="Helvetica,sans-Serif" font-size="10.00">sources/Debugger/CPU</text>
<text text-anchor="middle" x="3425" y="-7.5" font-family="Helvetica,sans-Serif" font-size="10.00">/SymbolLoaders/WlaDx.cpp</text>
</a>
</g>
</g>
<!-- Node48&#45;&gt;Node49 -->
<g id="edge66" class="edge">
<title>Node48&#45;&gt;Node49</title>
<path fill="none" stroke="midnightblue" d="M3425,-57.11C3425,-48.15 3425,-38.32 3425,-30.58"/>
<polygon fill="midnightblue" stroke="midnightblue" points="3421.5,-57.4 3425,-67.4 3428.5,-57.4 3421.5,-57.4"/>
</g>
</g>
</svg>
