<?xml version="1.0" encoding="UTF-8" standalone="no"?>
<!DOCTYPE svg PUBLIC "-//W3C//DTD SVG 1.1//EN"
 "http://www.w3.org/Graphics/SVG/1.1/DTD/svg11.dtd">
<!-- Generated by graphviz version 2.43.0 (0)
 -->
<!-- Title: sources/Exceptions/InvalidAddress.hpp Pages: 1 -->
<svg width="1928pt" height="106pt"
 viewBox="0.00 0.00 1928.00 106.00" xmlns="http://www.w3.org/2000/svg" xmlns:xlink="http://www.w3.org/1999/xlink">
<g id="graph0" class="graph" transform="scale(1 1) rotate(0) translate(4 102)">
<title>sources/Exceptions/InvalidAddress.hpp</title>
<polygon fill="white" stroke="transparent" points="-4,4 -4,-102 1924,-102 1924,4 -4,4"/>
<!-- Node1 -->
<g id="node1" class="node">
<title>Node1</title>
<g id="a_node1"><a xlink:title=" ">
<polygon fill="#bfbfbf" stroke="black" points="899,-67.5 899,-97.5 1012,-97.5 1012,-67.5 899,-67.5"/>
<text text-anchor="start" x="907" y="-85.5" font-family="Helvetica,sans-Serif" font-size="10.00">sources/Exceptions</text>
<text text-anchor="middle" x="955.5" y="-74.5" font-family="Helvetica,sans-Serif" font-size="10.00">/InvalidAddress.hpp</text>
</a>
</g>
</g>
<!-- Node2 -->
<g id="node2" class="node">
<title>Node2</title>
<g id="a_node2"><a xlink:href="APU_8cpp.html" target="_top" xlink:title=" ">
<polygon fill="white" stroke="black" points="0,-6 0,-25 121,-25 121,-6 0,-6"/>
<text text-anchor="middle" x="60.5" y="-13" font-family="Helvetica,sans-Serif" font-size="10.00">sources/APU/APU.cpp</text>
</a>
</g>
</g>
<!-- Node1&#45;&gt;Node2 -->
<g id="edge1" class="edge">
<title>Node1&#45;&gt;Node2</title>
<path fill="none" stroke="midnightblue" d="M888.68,-80.72C747.74,-78.34 409.91,-68.83 129.5,-31 118.58,-29.53 106.81,-27.3 96.14,-25.03"/>
<polygon fill="midnightblue" stroke="midnightblue" points="888.83,-84.22 898.89,-80.88 888.95,-77.22 888.83,-84.22"/>
</g>
<!-- Node3 -->
<g id="node3" class="node">
<title>Node3</title>
<g id="a_node3"><a xlink:href="DSP_8cpp.html" target="_top" xlink:title=" ">
<polygon fill="white" stroke="black" points="139,-6 139,-25 280,-25 280,-6 139,-6"/>
<text text-anchor="middle" x="209.5" y="-13" font-family="Helvetica,sans-Serif" font-size="10.00">sources/APU/DSP/DSP.cpp</text>
</a>
</g>
</g>
<!-- Node1&#45;&gt;Node3 -->
<g id="edge2" class="edge">
<title>Node1&#45;&gt;Node3</title>
<path fill="none" stroke="midnightblue" d="M888.57,-78.72C768.27,-73.22 507.71,-58.97 289.5,-31 277.32,-29.44 264.18,-27.26 252.14,-25.07"/>
<polygon fill="midnightblue" stroke="midnightblue" points="888.58,-82.23 898.72,-79.18 888.89,-75.23 888.58,-82.23"/>
</g>
<!-- Node4 -->
<g id="node4" class="node">
<title>Node4</title>
<g id="a_node4"><a xlink:href="IPL_8cpp.html" target="_top" xlink:title=" ">
<polygon fill="white" stroke="black" points="298.5,-6 298.5,-25 430.5,-25 430.5,-6 298.5,-6"/>
<text text-anchor="middle" x="364.5" y="-13" font-family="Helvetica,sans-Serif" font-size="10.00">sources/APU/IPL/IPL.cpp</text>
</a>
</g>
</g>
<!-- Node1&#45;&gt;Node4 -->
<g id="edge3" class="edge">
<title>Node1&#45;&gt;Node4</title>
<path fill="none" stroke="midnightblue" d="M888.67,-76.96C790.07,-69.82 599.95,-54.31 439.5,-31 428.21,-29.36 416.05,-27.19 404.86,-25.02"/>
<polygon fill="midnightblue" stroke="midnightblue" points="888.56,-80.47 898.79,-77.69 889.07,-73.48 888.56,-80.47"/>
</g>
<!-- Node5 -->
<g id="node5" class="node">
<title>Node5</title>
<g id="a_node5"><a xlink:href="CPU_8cpp.html" target="_top" xlink:title=" ">
<polygon fill="white" stroke="black" points="449,-6 449,-25 570,-25 570,-6 449,-6"/>
<text text-anchor="middle" x="509.5" y="-13" font-family="Helvetica,sans-Serif" font-size="10.00">sources/CPU/CPU.cpp</text>
</a>
</g>
</g>
<!-- Node1&#45;&gt;Node5 -->
<g id="edge4" class="edge">
<title>Node1&#45;&gt;Node5</title>
<path fill="none" stroke="midnightblue" d="M888.65,-73.97C813.3,-65.14 687.24,-49.37 579.5,-31 569.35,-29.27 558.42,-27.14 548.28,-25.04"/>
<polygon fill="midnightblue" stroke="midnightblue" points="888.6,-77.49 898.94,-75.17 889.41,-70.53 888.6,-77.49"/>
</g>
<!-- Node6 -->
<g id="node6" class="node">
<title>Node6</title>
<g id="a_node6"><a xlink:href="DMA_8cpp.html" target="_top" xlink:title=" ">
<polygon fill="white" stroke="black" points="588.5,-6 588.5,-25 738.5,-25 738.5,-6 588.5,-6"/>
<text text-anchor="middle" x="663.5" y="-13" font-family="Helvetica,sans-Serif" font-size="10.00">sources/CPU/DMA/DMA.cpp</text>
</a>
</g>
</g>
<!-- Node1&#45;&gt;Node6 -->
<g id="edge5" class="edge">
<title>Node1&#45;&gt;Node6</title>
<path fill="none" stroke="midnightblue" d="M889.07,-66.71C831.22,-53.84 749.39,-35.62 701.84,-25.03"/>
<polygon fill="midnightblue" stroke="midnightblue" points="888.33,-70.13 898.85,-68.89 889.85,-63.3 888.33,-70.13"/>
</g>
<!-- Node7 -->
<g id="node7" class="node">
<title>Node7</title>
<g id="a_node7"><a xlink:href="MemoryViewer_8cpp.html" target="_top" xlink:title=" ">
<polygon fill="white" stroke="black" points="757,-6 757,-25 958,-25 958,-6 757,-6"/>
<text text-anchor="middle" x="857.5" y="-13" font-family="Helvetica,sans-Serif" font-size="10.00">sources/Debugger/MemoryViewer.cpp</text>
</a>
</g>
</g>
<!-- Node1&#45;&gt;Node7 -->
<g id="edge6" class="edge">
<title>Node1&#45;&gt;Node7</title>
<path fill="none" stroke="midnightblue" d="M925.81,-61.81C907.27,-49.51 884.34,-34.3 870.33,-25.01"/>
<polygon fill="midnightblue" stroke="midnightblue" points="923.97,-64.79 934.24,-67.4 927.84,-58.95 923.97,-64.79"/>
</g>
<!-- Node8 -->
<g id="node8" class="node">
<title>Node8</title>
<g id="a_node8"><a xlink:href="ARectangleMemory_8cpp.html" target="_top" xlink:title=" ">
<polygon fill="white" stroke="black" points="976.5,-0.5 976.5,-30.5 1132.5,-30.5 1132.5,-0.5 976.5,-0.5"/>
<text text-anchor="start" x="984.5" y="-18.5" font-family="Helvetica,sans-Serif" font-size="10.00">sources/Memory/ARectangle</text>
<text text-anchor="middle" x="1054.5" y="-7.5" font-family="Helvetica,sans-Serif" font-size="10.00">Memory.cpp</text>
</a>
</g>
</g>
<!-- Node1&#45;&gt;Node8 -->
<g id="edge7" class="edge">
<title>Node1&#45;&gt;Node8</title>
<path fill="none" stroke="midnightblue" d="M985.61,-61.73C1000.92,-51.68 1019.19,-39.68 1033.06,-30.58"/>
<polygon fill="midnightblue" stroke="midnightblue" points="983.42,-58.98 976.98,-67.4 987.26,-64.83 983.42,-58.98"/>
</g>
<!-- Node9 -->
<g id="node9" class="node">
<title>Node9</title>
<g id="a_node9"><a xlink:href="MemoryBus_8cpp.html" target="_top" xlink:title=" ">
<polygon fill="white" stroke="black" points="1151,-6 1151,-25 1330,-25 1330,-6 1151,-6"/>
<text text-anchor="middle" x="1240.5" y="-13" font-family="Helvetica,sans-Serif" font-size="10.00">sources/Memory/MemoryBus.cpp</text>
</a>
</g>
</g>
<!-- Node1&#45;&gt;Node9 -->
<g id="edge8" class="edge">
<title>Node1&#45;&gt;Node9</title>
<path fill="none" stroke="midnightblue" d="M1022.04,-66.32C1078.37,-53.48 1157.08,-35.53 1203.03,-25.05"/>
<polygon fill="midnightblue" stroke="midnightblue" points="1021.12,-62.94 1012.15,-68.58 1022.68,-69.77 1021.12,-62.94"/>
</g>
<!-- Node10 -->
<g id="node10" class="node">
<title>Node10</title>
<g id="a_node10"><a xlink:href="PPU_8cpp.html" target="_top" xlink:title=" ">
<polygon fill="white" stroke="black" points="1348,-6 1348,-25 1467,-25 1467,-6 1348,-6"/>
<text text-anchor="middle" x="1407.5" y="-13" font-family="Helvetica,sans-Serif" font-size="10.00">sources/PPU/PPU.cpp</text>
</a>
</g>
</g>
<!-- Node1&#45;&gt;Node10 -->
<g id="edge9" class="edge">
<title>Node1&#45;&gt;Node10</title>
<path fill="none" stroke="midnightblue" d="M1022.34,-74.34C1099.14,-65.73 1228.83,-50.05 1339.5,-31 1349.49,-29.28 1360.25,-27.13 1370.19,-25.01"/>
<polygon fill="midnightblue" stroke="midnightblue" points="1021.87,-70.87 1012.32,-75.45 1022.64,-77.83 1021.87,-70.87"/>
</g>
<!-- Node11 -->
<g id="node11" class="node">
<title>Node11</title>
<g id="a_node11"><a xlink:href="Ram_8cpp.html" target="_top" xlink:title=" ">
<polygon fill="white" stroke="black" points="1485,-6 1485,-25 1610,-25 1610,-6 1485,-6"/>
<text text-anchor="middle" x="1547.5" y="-13" font-family="Helvetica,sans-Serif" font-size="10.00">sources/Ram/Ram.cpp</text>
</a>
</g>
</g>
<!-- Node1&#45;&gt;Node11 -->
<g id="edge10" class="edge">
<title>Node1&#45;&gt;Node11</title>
<path fill="none" stroke="midnightblue" d="M1022.21,-77.28C1121.58,-70.49 1314.19,-55.37 1476.5,-31 1487.2,-29.39 1498.72,-27.23 1509.31,-25.06"/>
<polygon fill="midnightblue" stroke="midnightblue" points="1021.76,-73.8 1012.02,-77.97 1022.23,-80.79 1021.76,-73.8"/>
</g>
<!-- Node12 -->
<g id="node12" class="node">
<title>Node12</title>
<g id="a_node12"><a xlink:href="testAPU_8cpp.html" target="_top" xlink:title=" ">
<polygon fill="white" stroke="black" points="1628.5,-6 1628.5,-25 1754.5,-25 1754.5,-6 1628.5,-6"/>
<text text-anchor="middle" x="1691.5" y="-13" font-family="Helvetica,sans-Serif" font-size="10.00">tests/APU/testAPU.cpp</text>
</a>
</g>
</g>
<!-- Node1&#45;&gt;Node12 -->
<g id="edge11" class="edge">
<title>Node1&#45;&gt;Node12</title>
<path fill="none" stroke="midnightblue" d="M1022.29,-79.14C1142.31,-74.28 1402.23,-61.02 1619.5,-31 1630.62,-29.46 1642.6,-27.27 1653.54,-25.05"/>
<polygon fill="midnightblue" stroke="midnightblue" points="1022.01,-75.64 1012.15,-79.54 1022.29,-82.64 1022.01,-75.64"/>
</g>
<!-- Node13 -->
<g id="node13" class="node">
<title>Node13</title>
<g id="a_node13"><a xlink:href="testOperand_8cpp.html" target="_top" xlink:title=" ">
<polygon fill="white" stroke="black" points="1773,-6 1773,-25 1920,-25 1920,-6 1773,-6"/>
<text text-anchor="middle" x="1846.5" y="-13" font-family="Helvetica,sans-Serif" font-size="10.00">tests/APU/testOperand.cpp</text>
</a>
</g>
</g>
<!-- Node1&#45;&gt;Node13 -->
<g id="edge12" class="edge">
<title>Node1&#45;&gt;Node13</title>
<path fill="none" stroke="midnightblue" d="M1022.05,-79.83C1160.5,-75.81 1489.45,-63.4 1763.5,-31 1776.43,-29.47 1790.4,-27.25 1803.13,-25.01"/>
<polygon fill="midnightblue" stroke="midnightblue" points="1021.92,-76.33 1012.02,-80.12 1022.11,-83.33 1021.92,-76.33"/>
</g>
</g>
</svg>
