<?xml version="1.0" encoding="UTF-8" standalone="no"?>
<!DOCTYPE svg PUBLIC "-//W3C//DTD SVG 1.1//EN"
 "http://www.w3.org/Graphics/SVG/1.1/DTD/svg11.dtd">
<!-- Generated by graphviz version 2.43.0 (0)
 -->
<!-- Title: sources/APU/IPL/IPL.hpp Pages: 1 -->
<svg width="6172pt" height="285pt"
 viewBox="0.00 0.00 6172.00 285.00" xmlns="http://www.w3.org/2000/svg" xmlns:xlink="http://www.w3.org/1999/xlink">
<g id="graph0" class="graph" transform="scale(1 1) rotate(0) translate(4 281)">
<title>sources/APU/IPL/IPL.hpp</title>
<polygon fill="white" stroke="transparent" points="-4,4 -4,-281 6168,-281 6168,4 -4,4"/>
<!-- Node1 -->
<g id="node1" class="node">
<title>Node1</title>
<g id="a_node1"><a xlink:title=" ">
<polygon fill="#bfbfbf" stroke="black" points="1920,-257.5 1920,-276.5 2053,-276.5 2053,-257.5 1920,-257.5"/>
<text text-anchor="middle" x="1986.5" y="-264.5" font-family="Helvetica,sans-Serif" font-size="10.00">sources/APU/IPL/IPL.hpp</text>
</a>
</g>
</g>
<!-- Node2 -->
<g id="node2" class="node">
<title>Node2</title>
<g id="a_node2"><a xlink:href="APU_8hpp.html" target="_top" xlink:title=" ">
<polygon fill="white" stroke="black" points="1853.5,-201.5 1853.5,-220.5 1975.5,-220.5 1975.5,-201.5 1853.5,-201.5"/>
<text text-anchor="middle" x="1914.5" y="-208.5" font-family="Helvetica,sans-Serif" font-size="10.00">sources/APU/APU.hpp</text>
</a>
</g>
</g>
<!-- Node1&#45;&gt;Node2 -->
<g id="edge1" class="edge">
<title>Node1&#45;&gt;Node2</title>
<path fill="none" stroke="midnightblue" d="M1966.63,-251.1C1953.68,-241.38 1937.2,-229.03 1926.28,-220.83"/>
<polygon fill="midnightblue" stroke="midnightblue" points="1964.83,-254.12 1974.93,-257.32 1969.03,-248.52 1964.83,-254.12"/>
</g>
<!-- Node58 -->
<g id="node50" class="node">
<title>Node58</title>
<g id="a_node50"><a xlink:href="IPL_8cpp.html" target="_top" xlink:title=" ">
<polygon fill="white" stroke="black" points="1993.5,-201.5 1993.5,-220.5 2125.5,-220.5 2125.5,-201.5 1993.5,-201.5"/>
<text text-anchor="middle" x="2059.5" y="-208.5" font-family="Helvetica,sans-Serif" font-size="10.00">sources/APU/IPL/IPL.cpp</text>
</a>
</g>
</g>
<!-- Node1&#45;&gt;Node58 -->
<g id="edge65" class="edge">
<title>Node1&#45;&gt;Node58</title>
<path fill="none" stroke="midnightblue" d="M2006.64,-251.1C2019.78,-241.38 2036.48,-229.03 2047.56,-220.83"/>
<polygon fill="midnightblue" stroke="midnightblue" points="2004.19,-248.56 1998.23,-257.32 2008.35,-254.19 2004.19,-248.56"/>
</g>
<!-- Node3 -->
<g id="node3" class="node">
<title>Node3</title>
<g id="a_node3"><a xlink:href="APU_8cpp.html" target="_top" xlink:title=" ">
<polygon fill="white" stroke="black" points="0,-140 0,-159 121,-159 121,-140 0,-140"/>
<text text-anchor="middle" x="60.5" y="-147" font-family="Helvetica,sans-Serif" font-size="10.00">sources/APU/APU.cpp</text>
</a>
</g>
</g>
<!-- Node2&#45;&gt;Node3 -->
<g id="edge2" class="edge">
<title>Node2&#45;&gt;Node3</title>
<path fill="none" stroke="midnightblue" d="M1842.68,-209.93C1553,-209.39 469.76,-204.71 129.5,-165 118.19,-163.68 105.99,-161.41 95.05,-159.04"/>
<polygon fill="midnightblue" stroke="midnightblue" points="1843.05,-213.43 1853.05,-209.95 1843.06,-206.43 1843.05,-213.43"/>
</g>
<!-- Node4 -->
<g id="node4" class="node">
<title>Node4</title>
<g id="a_node4"><a xlink:href="DSP_8cpp.html" target="_top" xlink:title=" ">
<polygon fill="white" stroke="black" points="139,-140 139,-159 280,-159 280,-140 139,-140"/>
<text text-anchor="middle" x="209.5" y="-147" font-family="Helvetica,sans-Serif" font-size="10.00">sources/APU/DSP/DSP.cpp</text>
</a>
</g>
</g>
<!-- Node2&#45;&gt;Node4 -->
<g id="edge3" class="edge">
<title>Node2&#45;&gt;Node4</title>
<path fill="none" stroke="midnightblue" d="M1843.3,-209.49C1571.15,-207.3 596.64,-197.35 288.5,-165 275.6,-163.65 261.65,-161.36 249.11,-159"/>
<polygon fill="midnightblue" stroke="midnightblue" points="1843.41,-212.99 1853.44,-209.57 1843.47,-205.99 1843.41,-212.99"/>
</g>
<!-- Node5 -->
<g id="node5" class="node">
<title>Node5</title>
<g id="a_node5"><a xlink:href="Voice_8cpp.html" target="_top" xlink:title=" ">
<polygon fill="white" stroke="black" points="298,-140 298,-159 447,-159 447,-140 298,-140"/>
<text text-anchor="middle" x="372.5" y="-147" font-family="Helvetica,sans-Serif" font-size="10.00">sources/APU/DSP/Voice.cpp</text>
</a>
</g>
</g>
<!-- Node2&#45;&gt;Node5 -->
<g id="edge4" class="edge">
<title>Node2&#45;&gt;Node5</title>
<path fill="none" stroke="midnightblue" d="M1843.12,-209.14C1589.05,-205.88 729.33,-193 455.5,-165 442.11,-163.63 427.63,-161.37 414.56,-159.04"/>
<polygon fill="midnightblue" stroke="midnightblue" points="1843.29,-212.65 1853.33,-209.27 1843.38,-205.65 1843.29,-212.65"/>
</g>
<!-- Node6 -->
<g id="node6" class="node">
<title>Node6</title>
<g id="a_node6"><a xlink:href="16bitArithmetic_8cpp.html" target="_top" xlink:title=" ">
<polygon fill="white" stroke="black" points="465,-134.5 465,-164.5 602,-164.5 602,-134.5 465,-134.5"/>
<text text-anchor="start" x="473" y="-152.5" font-family="Helvetica,sans-Serif" font-size="10.00">sources/APU/Instructions</text>
<text text-anchor="middle" x="533.5" y="-141.5" font-family="Helvetica,sans-Serif" font-size="10.00">/16bitArithmetic.cpp</text>
</a>
</g>
</g>
<!-- Node2&#45;&gt;Node6 -->
<g id="edge5" class="edge">
<title>Node2&#45;&gt;Node6</title>
<path fill="none" stroke="midnightblue" d="M1843.32,-208.94C1607.54,-205.22 853.3,-191.5 611.5,-165 608.49,-164.67 605.42,-164.29 602.32,-163.87"/>
<polygon fill="midnightblue" stroke="midnightblue" points="1843.44,-212.45 1853.49,-209.1 1843.55,-205.45 1843.44,-212.45"/>
</g>
<!-- Node7 -->
<g id="node7" class="node">
<title>Node7</title>
<g id="a_node7"><a xlink:href="16bitDataTransmission_8cpp.html" target="_top" xlink:title=" ">
<polygon fill="white" stroke="black" points="620.5,-134.5 620.5,-164.5 772.5,-164.5 772.5,-134.5 620.5,-134.5"/>
<text text-anchor="start" x="628.5" y="-152.5" font-family="Helvetica,sans-Serif" font-size="10.00">sources/APU/Instructions</text>
<text text-anchor="middle" x="696.5" y="-141.5" font-family="Helvetica,sans-Serif" font-size="10.00">/16bitDataTransmission.cpp</text>
</a>
</g>
</g>
<!-- Node2&#45;&gt;Node7 -->
<g id="edge6" class="edge">
<title>Node2&#45;&gt;Node7</title>
<path fill="none" stroke="midnightblue" d="M1843.11,-210.36C1663.99,-210.57 1181.22,-206.85 781.5,-165 778.67,-164.7 775.79,-164.37 772.89,-164.01"/>
<polygon fill="midnightblue" stroke="midnightblue" points="1843.2,-213.86 1853.2,-210.34 1843.19,-206.86 1843.2,-213.86"/>
</g>
<!-- Node8 -->
<g id="node8" class="node">
<title>Node8</title>
<g id="a_node8"><a xlink:href="8bitArithmetic_8cpp.html" target="_top" xlink:title=" ">
<polygon fill="white" stroke="black" points="791,-134.5 791,-164.5 928,-164.5 928,-134.5 791,-134.5"/>
<text text-anchor="start" x="799" y="-152.5" font-family="Helvetica,sans-Serif" font-size="10.00">sources/APU/Instructions</text>
<text text-anchor="middle" x="859.5" y="-141.5" font-family="Helvetica,sans-Serif" font-size="10.00">/8bitArithmetic.cpp</text>
</a>
</g>
</g>
<!-- Node2&#45;&gt;Node8 -->
<g id="edge7" class="edge">
<title>Node2&#45;&gt;Node8</title>
<path fill="none" stroke="midnightblue" d="M1843.09,-210.07C1681.34,-209.5 1274.83,-203.94 937.5,-165 934.49,-164.65 931.42,-164.26 928.33,-163.83"/>
<polygon fill="midnightblue" stroke="midnightblue" points="1843.38,-213.57 1853.39,-210.1 1843.4,-206.57 1843.38,-213.57"/>
</g>
<!-- Node9 -->
<g id="node9" class="node">
<title>Node9</title>
<g id="a_node9"><a xlink:href="8bitDataTransmission_8cpp.html" target="_top" xlink:title=" ">
<polygon fill="white" stroke="black" points="946.5,-134.5 946.5,-164.5 1092.5,-164.5 1092.5,-134.5 946.5,-134.5"/>
<text text-anchor="start" x="954.5" y="-152.5" font-family="Helvetica,sans-Serif" font-size="10.00">sources/APU/Instructions</text>
<text text-anchor="middle" x="1019.5" y="-141.5" font-family="Helvetica,sans-Serif" font-size="10.00">/8bitDataTransmission.cpp</text>
</a>
</g>
</g>
<!-- Node2&#45;&gt;Node9 -->
<g id="edge8" class="edge">
<title>Node2&#45;&gt;Node9</title>
<path fill="none" stroke="midnightblue" d="M1843.05,-208.92C1701.23,-206.13 1374.3,-196.55 1101.5,-165 1098.63,-164.67 1095.7,-164.3 1092.75,-163.9"/>
<polygon fill="midnightblue" stroke="midnightblue" points="1843.29,-212.42 1853.35,-209.11 1843.42,-205.42 1843.29,-212.42"/>
</g>
<!-- Node10 -->
<g id="node10" class="node">
<title>Node10</title>
<g id="a_node10"><a xlink:href="8bitIncrementDecrement_8cpp.html" target="_top" xlink:title=" ">
<polygon fill="white" stroke="black" points="1110.5,-134.5 1110.5,-164.5 1272.5,-164.5 1272.5,-134.5 1110.5,-134.5"/>
<text text-anchor="start" x="1118.5" y="-152.5" font-family="Helvetica,sans-Serif" font-size="10.00">sources/APU/Instructions</text>
<text text-anchor="middle" x="1191.5" y="-141.5" font-family="Helvetica,sans-Serif" font-size="10.00">/8bitIncrementDecrement.cpp</text>
</a>
</g>
</g>
<!-- Node2&#45;&gt;Node10 -->
<g id="edge9" class="edge">
<title>Node2&#45;&gt;Node10</title>
<path fill="none" stroke="midnightblue" d="M1842.93,-206.98C1725.43,-201.57 1484.41,-188.51 1281.5,-165 1278.67,-164.67 1275.79,-164.32 1272.89,-163.94"/>
<polygon fill="midnightblue" stroke="midnightblue" points="1843.08,-210.5 1853.23,-207.45 1843.4,-203.5 1843.08,-210.5"/>
</g>
<!-- Node11 -->
<g id="node11" class="node">
<title>Node11</title>
<g id="a_node11"><a xlink:href="8bitLogical_8cpp.html" target="_top" xlink:title=" ">
<polygon fill="white" stroke="black" points="1291,-134.5 1291,-164.5 1428,-164.5 1428,-134.5 1291,-134.5"/>
<text text-anchor="start" x="1299" y="-152.5" font-family="Helvetica,sans-Serif" font-size="10.00">sources/APU/Instructions</text>
<text text-anchor="middle" x="1359.5" y="-141.5" font-family="Helvetica,sans-Serif" font-size="10.00">/8bitLogical.cpp</text>
</a>
</g>
</g>
<!-- Node2&#45;&gt;Node11 -->
<g id="edge10" class="edge">
<title>Node2&#45;&gt;Node11</title>
<path fill="none" stroke="midnightblue" d="M1842.96,-205.33C1749.28,-198.75 1580.1,-185.24 1436.5,-165 1433.81,-164.62 1431.06,-164.21 1428.3,-163.78"/>
<polygon fill="midnightblue" stroke="midnightblue" points="1842.95,-208.84 1853.17,-206.04 1843.44,-201.86 1842.95,-208.84"/>
</g>
<!-- Node12 -->
<g id="node12" class="node">
<title>Node12</title>
<g id="a_node12"><a xlink:href="8bitShiftRotation_8cpp.html" target="_top" xlink:title=" ">
<polygon fill="white" stroke="black" points="1446,-134.5 1446,-164.5 1583,-164.5 1583,-134.5 1446,-134.5"/>
<text text-anchor="start" x="1454" y="-152.5" font-family="Helvetica,sans-Serif" font-size="10.00">sources/APU/Instructions</text>
<text text-anchor="middle" x="1514.5" y="-141.5" font-family="Helvetica,sans-Serif" font-size="10.00">/8bitShiftRotation.cpp</text>
</a>
</g>
</g>
<!-- Node2&#45;&gt;Node12 -->
<g id="edge11" class="edge">
<title>Node2&#45;&gt;Node12</title>
<path fill="none" stroke="midnightblue" d="M1843.13,-201.05C1777.58,-192.6 1677.82,-179.13 1591.5,-165 1588.82,-164.56 1586.08,-164.1 1583.32,-163.63"/>
<polygon fill="midnightblue" stroke="midnightblue" points="1842.98,-204.56 1853.35,-202.36 1843.88,-197.62 1842.98,-204.56"/>
</g>
<!-- Node13 -->
<g id="node13" class="node">
<title>Node13</title>
<g id="a_node13"><a xlink:href="Bit_8cpp.html" target="_top" xlink:title=" ">
<polygon fill="white" stroke="black" points="1601,-134.5 1601,-164.5 1738,-164.5 1738,-134.5 1601,-134.5"/>
<text text-anchor="start" x="1609" y="-152.5" font-family="Helvetica,sans-Serif" font-size="10.00">sources/APU/Instructions</text>
<text text-anchor="middle" x="1669.5" y="-141.5" font-family="Helvetica,sans-Serif" font-size="10.00">/Bit.cpp</text>
</a>
</g>
</g>
<!-- Node2&#45;&gt;Node13 -->
<g id="edge12" class="edge">
<title>Node2&#45;&gt;Node13</title>
<path fill="none" stroke="midnightblue" d="M1869.65,-199.11C1829.62,-189.39 1770.77,-175.1 1727.24,-164.52"/>
<polygon fill="midnightblue" stroke="midnightblue" points="1868.85,-202.52 1879.4,-201.48 1870.51,-195.71 1868.85,-202.52"/>
</g>
<!-- Node14 -->
<g id="node14" class="node">
<title>Node14</title>
<g id="a_node14"><a xlink:href="DecimalCompensation_8cpp.html" target="_top" xlink:title=" ">
<polygon fill="white" stroke="black" points="1756,-134.5 1756,-164.5 1907,-164.5 1907,-134.5 1756,-134.5"/>
<text text-anchor="start" x="1764" y="-152.5" font-family="Helvetica,sans-Serif" font-size="10.00">sources/APU/Instructions</text>
<text text-anchor="middle" x="1831.5" y="-141.5" font-family="Helvetica,sans-Serif" font-size="10.00">/DecimalCompensation.cpp</text>
</a>
</g>
</g>
<!-- Node2&#45;&gt;Node14 -->
<g id="edge13" class="edge">
<title>Node2&#45;&gt;Node14</title>
<path fill="none" stroke="midnightblue" d="M1894.23,-195.47C1881.09,-186.05 1864.06,-173.84 1851.06,-164.52"/>
<polygon fill="midnightblue" stroke="midnightblue" points="1892.44,-198.49 1902.61,-201.48 1896.52,-192.8 1892.44,-198.49"/>
</g>
<!-- Node15 -->
<g id="node15" class="node">
<title>Node15</title>
<g id="a_node15"><a xlink:href="MultiplicationDivision_8cpp.html" target="_top" xlink:title=" ">
<polygon fill="white" stroke="black" points="1925.5,-134.5 1925.5,-164.5 2071.5,-164.5 2071.5,-134.5 1925.5,-134.5"/>
<text text-anchor="start" x="1933.5" y="-152.5" font-family="Helvetica,sans-Serif" font-size="10.00">sources/APU/Instructions</text>
<text text-anchor="middle" x="1998.5" y="-141.5" font-family="Helvetica,sans-Serif" font-size="10.00">/MultiplicationDivision.cpp</text>
</a>
</g>
</g>
<!-- Node2&#45;&gt;Node15 -->
<g id="edge14" class="edge">
<title>Node2&#45;&gt;Node15</title>
<path fill="none" stroke="midnightblue" d="M1935.02,-195.47C1948.32,-186.05 1965.55,-173.84 1978.7,-164.52"/>
<polygon fill="midnightblue" stroke="midnightblue" points="1932.67,-192.84 1926.54,-201.48 1936.72,-198.55 1932.67,-192.84"/>
</g>
<!-- Node16 -->
<g id="node16" class="node">
<title>Node16</title>
<g id="a_node16"><a xlink:href="ProgramFlow_8cpp.html" target="_top" xlink:title=" ">
<polygon fill="white" stroke="black" points="2090,-134.5 2090,-164.5 2227,-164.5 2227,-134.5 2090,-134.5"/>
<text text-anchor="start" x="2098" y="-152.5" font-family="Helvetica,sans-Serif" font-size="10.00">sources/APU/Instructions</text>
<text text-anchor="middle" x="2158.5" y="-141.5" font-family="Helvetica,sans-Serif" font-size="10.00">/ProgramFlow.cpp</text>
</a>
</g>
</g>
<!-- Node2&#45;&gt;Node16 -->
<g id="edge15" class="edge">
<title>Node2&#45;&gt;Node16</title>
<path fill="none" stroke="midnightblue" d="M1959.42,-199.05C1999.28,-189.33 2057.73,-175.07 2100.99,-164.52"/>
<polygon fill="midnightblue" stroke="midnightblue" points="1958.35,-195.71 1949.46,-201.48 1960,-202.51 1958.35,-195.71"/>
</g>
<!-- Node17 -->
<g id="node17" class="node">
<title>Node17</title>
<g id="a_node17"><a xlink:href="ProgramStatusWord_8cpp.html" target="_top" xlink:title=" ">
<polygon fill="white" stroke="black" points="2245,-134.5 2245,-164.5 2382,-164.5 2382,-134.5 2245,-134.5"/>
<text text-anchor="start" x="2253" y="-152.5" font-family="Helvetica,sans-Serif" font-size="10.00">sources/APU/Instructions</text>
<text text-anchor="middle" x="2313.5" y="-141.5" font-family="Helvetica,sans-Serif" font-size="10.00">/ProgramStatusWord.cpp</text>
</a>
</g>
</g>
<!-- Node2&#45;&gt;Node17 -->
<g id="edge16" class="edge">
<title>Node2&#45;&gt;Node17</title>
<path fill="none" stroke="midnightblue" d="M1985.59,-200.41C2065.09,-189.62 2188.83,-172.61 2235.5,-165 2238.49,-164.51 2241.54,-164 2244.63,-163.48"/>
<polygon fill="midnightblue" stroke="midnightblue" points="1985.08,-196.95 1975.64,-201.76 1986.02,-203.88 1985.08,-196.95"/>
</g>
<!-- Node18 -->
<g id="node18" class="node">
<title>Node18</title>
<g id="a_node18"><a xlink:href="Stack_8cpp.html" target="_top" xlink:title=" ">
<polygon fill="white" stroke="black" points="2400,-134.5 2400,-164.5 2537,-164.5 2537,-134.5 2400,-134.5"/>
<text text-anchor="start" x="2408" y="-152.5" font-family="Helvetica,sans-Serif" font-size="10.00">sources/APU/Instructions</text>
<text text-anchor="middle" x="2468.5" y="-141.5" font-family="Helvetica,sans-Serif" font-size="10.00">/Stack.cpp</text>
</a>
</g>
</g>
<!-- Node2&#45;&gt;Node18 -->
<g id="edge17" class="edge">
<title>Node2&#45;&gt;Node18</title>
<path fill="none" stroke="midnightblue" d="M1985.67,-200.92C2166.31,-181.73 2214.27,-189.14 2390.5,-165 2393.5,-164.59 2396.56,-164.14 2399.65,-163.67"/>
<polygon fill="midnightblue" stroke="midnightblue" points="1985.14,-197.46 1975.57,-202 1985.88,-204.42 1985.14,-197.46"/>
</g>
<!-- Node19 -->
<g id="node19" class="node">
<title>Node19</title>
<g id="a_node19"><a xlink:href="Standbys_8cpp.html" target="_top" xlink:title=" ">
<polygon fill="white" stroke="black" points="2555,-134.5 2555,-164.5 2692,-164.5 2692,-134.5 2555,-134.5"/>
<text text-anchor="start" x="2563" y="-152.5" font-family="Helvetica,sans-Serif" font-size="10.00">sources/APU/Instructions</text>
<text text-anchor="middle" x="2623.5" y="-141.5" font-family="Helvetica,sans-Serif" font-size="10.00">/Standbys.cpp</text>
</a>
</g>
</g>
<!-- Node2&#45;&gt;Node19 -->
<g id="edge18" class="edge">
<title>Node2&#45;&gt;Node19</title>
<path fill="none" stroke="midnightblue" d="M1985.65,-200.96C2234.93,-177.55 2300.84,-195.48 2545.5,-165 2548.51,-164.63 2551.57,-164.21 2554.67,-163.76"/>
<polygon fill="midnightblue" stroke="midnightblue" points="1985.18,-197.48 1975.56,-201.92 1985.84,-204.45 1985.18,-197.48"/>
</g>
<!-- Node20 -->
<g id="node20" class="node">
<title>Node20</title>
<g id="a_node20"><a xlink:href="Subroutine_8cpp.html" target="_top" xlink:title=" ">
<polygon fill="white" stroke="black" points="2710,-134.5 2710,-164.5 2847,-164.5 2847,-134.5 2710,-134.5"/>
<text text-anchor="start" x="2718" y="-152.5" font-family="Helvetica,sans-Serif" font-size="10.00">sources/APU/Instructions</text>
<text text-anchor="middle" x="2778.5" y="-141.5" font-family="Helvetica,sans-Serif" font-size="10.00">/Subroutine.cpp</text>
</a>
</g>
</g>
<!-- Node2&#45;&gt;Node20 -->
<g id="edge19" class="edge">
<title>Node2&#45;&gt;Node20</title>
<path fill="none" stroke="midnightblue" d="M1985.51,-200.99C2303.57,-173.26 2387.3,-201.82 2700.5,-165 2703.51,-164.65 2706.58,-164.25 2709.67,-163.81"/>
<polygon fill="midnightblue" stroke="midnightblue" points="1985.21,-197.5 1975.55,-201.87 1985.82,-204.47 1985.21,-197.5"/>
</g>
<!-- Node21 -->
<g id="node21" class="node">
<title>Node21</title>
<g id="a_node21"><a xlink:href="Operand_8cpp.html" target="_top" xlink:title=" ">
<polygon fill="white" stroke="black" points="2865.5,-140 2865.5,-159 3007.5,-159 3007.5,-140 2865.5,-140"/>
<text text-anchor="middle" x="2936.5" y="-147" font-family="Helvetica,sans-Serif" font-size="10.00">sources/APU/Operand.cpp</text>
</a>
</g>
</g>
<!-- Node2&#45;&gt;Node21 -->
<g id="edge20" class="edge">
<title>Node2&#45;&gt;Node21</title>
<path fill="none" stroke="midnightblue" d="M1985.61,-200.99C2372.28,-168.93 2473.66,-206.87 2855.5,-165 2868.42,-163.58 2882.39,-161.34 2895.03,-159.04"/>
<polygon fill="midnightblue" stroke="midnightblue" points="1985.22,-197.51 1975.55,-201.83 1985.81,-204.49 1985.22,-197.51"/>
</g>
<!-- Node22 -->
<g id="node22" class="node">
<title>Node22</title>
<g id="a_node22"><a xlink:href="APUDebug_8cpp.html" target="_top" xlink:title=" ">
<polygon fill="white" stroke="black" points="3140,-73 3140,-92 3319,-92 3319,-73 3140,-73"/>
<text text-anchor="middle" x="3229.5" y="-80" font-family="Helvetica,sans-Serif" font-size="10.00">sources/Debugger/APUDebug.cpp</text>
</a>
</g>
</g>
<!-- Node2&#45;&gt;Node22 -->
<g id="edge21" class="edge">
<title>Node2&#45;&gt;Node22</title>
<path fill="none" stroke="midnightblue" d="M1985.8,-201.11C2150.77,-191.65 3008.95,-207.3 3125.5,-165 3167.98,-149.58 3206.67,-109.63 3222.24,-92.04"/>
<polygon fill="midnightblue" stroke="midnightblue" points="1985.29,-197.63 1975.55,-201.8 1985.76,-204.62 1985.29,-197.63"/>
</g>
<!-- Node23 -->
<g id="node23" class="node">
<title>Node23</title>
<g id="a_node23"><a xlink:href="SNES_8hpp.html" target="_top" xlink:title=" ">
<polygon fill="white" stroke="red" points="4496.5,-140 4496.5,-159 4600.5,-159 4600.5,-140 4496.5,-140"/>
<text text-anchor="middle" x="4548.5" y="-147" font-family="Helvetica,sans-Serif" font-size="10.00">sources/SNES.hpp</text>
</a>
</g>
</g>
<!-- Node2&#45;&gt;Node23 -->
<g id="edge22" class="edge">
<title>Node2&#45;&gt;Node23</title>
<path fill="none" stroke="midnightblue" d="M1985.62,-201.06C2287.73,-181.27 4158.95,-155.68 4496.39,-151.19"/>
<polygon fill="midnightblue" stroke="midnightblue" points="1985.28,-197.57 1975.54,-201.76 1985.76,-204.55 1985.28,-197.57"/>
</g>
<!-- Node37 -->
<g id="node37" class="node">
<title>Node37</title>
<g id="a_node37"><a xlink:href="testAPU_8cpp.html" target="_top" xlink:title=" ">
<polygon fill="white" stroke="black" points="3149.5,-6 3149.5,-25 3275.5,-25 3275.5,-6 3149.5,-6"/>
<text text-anchor="middle" x="3212.5" y="-13" font-family="Helvetica,sans-Serif" font-size="10.00">tests/APU/testAPU.cpp</text>
</a>
</g>
</g>
<!-- Node2&#45;&gt;Node37 -->
<g id="edge62" class="edge">
<title>Node2&#45;&gt;Node37</title>
<path fill="none" stroke="midnightblue" d="M1985.64,-201.26C2105.8,-196.36 2970.69,-196.07 3016.5,-165 3055.86,-138.3 3024.31,-99 3059.5,-67 3084.23,-44.51 3119.21,-32.01 3149.48,-25.08"/>
<polygon fill="midnightblue" stroke="midnightblue" points="1985.34,-197.77 1975.55,-201.81 1985.73,-204.76 1985.34,-197.77"/>
</g>
<!-- Node39 -->
<g id="node39" class="node">
<title>Node39</title>
<g id="a_node39"><a xlink:href="testAPUInstructions_8cpp.html" target="_top" xlink:title=" ">
<polygon fill="white" stroke="black" points="3294,-6 3294,-25 3477,-25 3477,-6 3294,-6"/>
<text text-anchor="middle" x="3385.5" y="-13" font-family="Helvetica,sans-Serif" font-size="10.00">tests/APU/testAPUInstructions.cpp</text>
</a>
</g>
</g>
<!-- Node2&#45;&gt;Node39 -->
<g id="edge63" class="edge">
<title>Node2&#45;&gt;Node39</title>
<path fill="none" stroke="midnightblue" d="M1985.86,-201.24C2108.62,-196.15 2992.96,-194.29 3041.5,-165 3084.45,-139.09 3056.46,-95.85 3097.5,-67 3106.96,-60.35 3248.92,-37.57 3329.92,-25"/>
<polygon fill="midnightblue" stroke="midnightblue" points="1985.34,-197.76 1975.55,-201.81 1985.73,-204.75 1985.34,-197.76"/>
</g>
<!-- Node40 -->
<g id="node40" class="node">
<title>Node40</title>
<g id="a_node40"><a xlink:href="testOperand_8cpp.html" target="_top" xlink:title=" ">
<polygon fill="white" stroke="black" points="3495,-6 3495,-25 3642,-25 3642,-6 3495,-6"/>
<text text-anchor="middle" x="3568.5" y="-13" font-family="Helvetica,sans-Serif" font-size="10.00">tests/APU/testOperand.cpp</text>
</a>
</g>
</g>
<!-- Node2&#45;&gt;Node40 -->
<g id="edge64" class="edge">
<title>Node2&#45;&gt;Node40</title>
<path fill="none" stroke="midnightblue" d="M1985.71,-201.24C2109.91,-196.04 3018,-193.91 3068.5,-165 3113.23,-139.39 3086.67,-94.11 3130.5,-67 3197.94,-25.29 3406.95,-41.83 3485.5,-31 3497.67,-29.32 3510.79,-27.18 3522.93,-25.07"/>
<polygon fill="midnightblue" stroke="midnightblue" points="1985.34,-197.76 1975.55,-201.81 1985.73,-204.74 1985.34,-197.76"/>
</g>
<!-- Node23&#45;&gt;Node22 -->
<g id="edge23" class="edge">
<title>Node23&#45;&gt;Node22</title>
<path fill="none" stroke="midnightblue" d="M4486.23,-148.04C4306.89,-146.26 3773.87,-137.76 3333.5,-98 3317.16,-96.52 3299.45,-94.29 3283.36,-92.02"/>
<polygon fill="midnightblue" stroke="midnightblue" points="4486.24,-151.54 4496.28,-148.14 4486.31,-144.54 4486.24,-151.54"/>
</g>
<!-- Node24 -->
<g id="node24" class="node">
<title>Node24</title>
<g id="a_node24"><a xlink:href="CGramDebug_8cpp.html" target="_top" xlink:title=" ">
<polygon fill="white" stroke="black" points="3566,-73 3566,-92 3759,-92 3759,-73 3566,-73"/>
<text text-anchor="middle" x="3662.5" y="-80" font-family="Helvetica,sans-Serif" font-size="10.00">sources/Debugger/CGramDebug.cpp</text>
</a>
</g>
</g>
<!-- Node23&#45;&gt;Node24 -->
<g id="edge24" class="edge">
<title>Node23&#45;&gt;Node24</title>
<path fill="none" stroke="midnightblue" d="M4486.01,-145.97C4353.52,-140.27 4034.7,-124.79 3768.5,-98 3752.51,-96.39 3735.23,-94.21 3719.35,-92.04"/>
<polygon fill="midnightblue" stroke="midnightblue" points="4486.22,-149.48 4496.36,-146.41 4486.52,-142.49 4486.22,-149.48"/>
</g>
<!-- Node25 -->
<g id="node25" class="node">
<title>Node25</title>
<g id="a_node25"><a xlink:href="CPUDebug_8cpp.html" target="_top" xlink:title=" ">
<polygon fill="white" stroke="black" points="3777.5,-67.5 3777.5,-97.5 3905.5,-97.5 3905.5,-67.5 3777.5,-67.5"/>
<text text-anchor="start" x="3785.5" y="-85.5" font-family="Helvetica,sans-Serif" font-size="10.00">sources/Debugger/CPU</text>
<text text-anchor="middle" x="3841.5" y="-74.5" font-family="Helvetica,sans-Serif" font-size="10.00">/CPUDebug.cpp</text>
</a>
</g>
</g>
<!-- Node23&#45;&gt;Node25 -->
<g id="edge25" class="edge">
<title>Node23&#45;&gt;Node25</title>
<path fill="none" stroke="midnightblue" d="M4485.8,-145.93C4371.69,-140.72 4122.64,-126.86 3914.5,-98 3911.56,-97.59 3908.55,-97.14 3905.52,-96.66"/>
<polygon fill="midnightblue" stroke="midnightblue" points="4485.94,-149.44 4496.09,-146.4 4486.26,-142.45 4485.94,-149.44"/>
</g>
<!-- Node26 -->
<g id="node26" class="node">
<title>Node26</title>
<g id="a_node26"><a xlink:href="Disassembly_8cpp.html" target="_top" xlink:title=" ">
<polygon fill="white" stroke="black" points="3923.5,-67.5 3923.5,-97.5 4051.5,-97.5 4051.5,-67.5 3923.5,-67.5"/>
<text text-anchor="start" x="3931.5" y="-85.5" font-family="Helvetica,sans-Serif" font-size="10.00">sources/Debugger/CPU</text>
<text text-anchor="middle" x="3987.5" y="-74.5" font-family="Helvetica,sans-Serif" font-size="10.00">/Disassembly.cpp</text>
</a>
</g>
</g>
<!-- Node23&#45;&gt;Node26 -->
<g id="edge26" class="edge">
<title>Node23&#45;&gt;Node26</title>
<path fill="none" stroke="midnightblue" d="M4486.22,-143.92C4393.22,-136.66 4212.71,-120.94 4060.5,-98 4057.56,-97.56 4054.56,-97.08 4051.54,-96.57"/>
<polygon fill="midnightblue" stroke="midnightblue" points="4486.06,-147.42 4496.3,-144.7 4486.6,-140.44 4486.06,-147.42"/>
</g>
<!-- Node27 -->
<g id="node27" class="node">
<title>Node27</title>
<g id="a_node27"><a xlink:href="HeaderViewer_8cpp.html" target="_top" xlink:title=" ">
<polygon fill="white" stroke="black" points="4069.5,-73 4069.5,-92 4265.5,-92 4265.5,-73 4069.5,-73"/>
<text text-anchor="middle" x="4167.5" y="-80" font-family="Helvetica,sans-Serif" font-size="10.00">sources/Debugger/HeaderViewer.cpp</text>
</a>
</g>
</g>
<!-- Node23&#45;&gt;Node27 -->
<g id="edge27" class="edge">
<title>Node23&#45;&gt;Node27</title>
<path fill="none" stroke="midnightblue" d="M4488.09,-138.19C4413.27,-125.43 4287.17,-103.92 4217.51,-92.03"/>
<polygon fill="midnightblue" stroke="midnightblue" points="4487.85,-141.7 4498.3,-139.94 4489.03,-134.8 4487.85,-141.7"/>
</g>
<!-- Node28 -->
<g id="node28" class="node">
<title>Node28</title>
<g id="a_node28"><a xlink:href="MemoryBusDebug_8cpp.html" target="_top" xlink:title=" ">
<polygon fill="white" stroke="black" points="4283.5,-67.5 4283.5,-97.5 4449.5,-97.5 4449.5,-67.5 4283.5,-67.5"/>
<text text-anchor="start" x="4291.5" y="-85.5" font-family="Helvetica,sans-Serif" font-size="10.00">sources/Debugger/MemoryBus</text>
<text text-anchor="middle" x="4366.5" y="-74.5" font-family="Helvetica,sans-Serif" font-size="10.00">Debug.cpp</text>
</a>
</g>
</g>
<!-- Node23&#45;&gt;Node28 -->
<g id="edge28" class="edge">
<title>Node23&#45;&gt;Node28</title>
<path fill="none" stroke="midnightblue" d="M4514.87,-136.49C4484.02,-125.47 4438.3,-109.14 4405.78,-97.53"/>
<polygon fill="midnightblue" stroke="midnightblue" points="4513.74,-139.8 4524.33,-139.87 4516.09,-133.21 4513.74,-139.8"/>
</g>
<!-- Node29 -->
<g id="node29" class="node">
<title>Node29</title>
<g id="a_node29"><a xlink:href="MemoryViewer_8cpp.html" target="_top" xlink:title=" ">
<polygon fill="white" stroke="black" points="4614,-73 4614,-92 4815,-92 4815,-73 4614,-73"/>
<text text-anchor="middle" x="4714.5" y="-80" font-family="Helvetica,sans-Serif" font-size="10.00">sources/Debugger/MemoryViewer.cpp</text>
</a>
</g>
</g>
<!-- Node23&#45;&gt;Node29 -->
<g id="edge29" class="edge">
<title>Node23&#45;&gt;Node29</title>
<path fill="none" stroke="midnightblue" d="M4580.16,-136.1C4613.12,-123.2 4663.86,-103.33 4692.63,-92.06"/>
<polygon fill="midnightblue" stroke="midnightblue" points="4578.58,-132.96 4570.54,-139.87 4581.13,-139.48 4578.58,-132.96"/>
</g>
<!-- Node30 -->
<g id="node30" class="node">
<title>Node30</title>
<g id="a_node30"><a xlink:href="RegisterViewer_8cpp.html" target="_top" xlink:title=" ">
<polygon fill="white" stroke="black" points="4833.5,-67.5 4833.5,-97.5 4981.5,-97.5 4981.5,-67.5 4833.5,-67.5"/>
<text text-anchor="start" x="4841.5" y="-85.5" font-family="Helvetica,sans-Serif" font-size="10.00">sources/Debugger/Register</text>
<text text-anchor="middle" x="4907.5" y="-74.5" font-family="Helvetica,sans-Serif" font-size="10.00">Viewer.cpp</text>
</a>
</g>
</g>
<!-- Node23&#45;&gt;Node30 -->
<g id="edge30" class="edge">
<title>Node23&#45;&gt;Node30</title>
<path fill="none" stroke="midnightblue" d="M4605.74,-138.14C4667.39,-126.97 4765.69,-109.18 4833.24,-96.95"/>
<polygon fill="midnightblue" stroke="midnightblue" points="4605.02,-134.71 4595.8,-139.94 4606.27,-141.6 4605.02,-134.71"/>
</g>
<!-- Node31 -->
<g id="node31" class="node">
<title>Node31</title>
<g id="a_node31"><a xlink:href="TileViewer_8cpp.html" target="_top" xlink:title=" ">
<polygon fill="white" stroke="black" points="5000,-67.5 5000,-97.5 5159,-97.5 5159,-67.5 5000,-67.5"/>
<text text-anchor="start" x="5008" y="-85.5" font-family="Helvetica,sans-Serif" font-size="10.00">sources/Debugger/TileViewer</text>
<text text-anchor="middle" x="5079.5" y="-74.5" font-family="Helvetica,sans-Serif" font-size="10.00">/TileViewer.cpp</text>
</a>
</g>
</g>
<!-- Node23&#45;&gt;Node31 -->
<g id="edge31" class="edge">
<title>Node23&#45;&gt;Node31</title>
<path fill="none" stroke="midnightblue" d="M4610.73,-142.34C4696.4,-133.63 4855.41,-116.71 4990.5,-98 4993.6,-97.57 4996.76,-97.12 4999.95,-96.65"/>
<polygon fill="midnightblue" stroke="midnightblue" points="4610.25,-138.87 4600.65,-143.36 4610.96,-145.83 4610.25,-138.87"/>
</g>
<!-- Node32 -->
<g id="node32" class="node">
<title>Node32</title>
<g id="a_node32"><a xlink:href="main_8cpp.html" target="_top" xlink:title=" ">
<polygon fill="white" stroke="black" points="5290.5,-73 5290.5,-92 5392.5,-92 5392.5,-73 5290.5,-73"/>
<text text-anchor="middle" x="5341.5" y="-80" font-family="Helvetica,sans-Serif" font-size="10.00">sources/main.cpp</text>
</a>
</g>
</g>
<!-- Node23&#45;&gt;Node32 -->
<g id="edge32" class="edge">
<title>Node23&#45;&gt;Node32</title>
<path fill="none" stroke="midnightblue" d="M4611.13,-147.32C4737.54,-144.24 5032,-133.55 5276.5,-98 5286.68,-96.52 5297.64,-94.32 5307.61,-92.07"/>
<polygon fill="midnightblue" stroke="midnightblue" points="4610.78,-143.83 4600.87,-147.56 4610.95,-150.82 4610.78,-143.83"/>
</g>
<!-- Node33 -->
<g id="node33" class="node">
<title>Node33</title>
<g id="a_node33"><a xlink:href="MemoryBus_8cpp.html" target="_top" xlink:title=" ">
<polygon fill="white" stroke="black" points="5411,-73 5411,-92 5590,-92 5590,-73 5411,-73"/>
<text text-anchor="middle" x="5500.5" y="-80" font-family="Helvetica,sans-Serif" font-size="10.00">sources/Memory/MemoryBus.cpp</text>
</a>
</g>
</g>
<!-- Node23&#45;&gt;Node33 -->
<g id="edge33" class="edge">
<title>Node23&#45;&gt;Node33</title>
<path fill="none" stroke="midnightblue" d="M4610.73,-146.66C4751.76,-142.08 5106.36,-128.29 5401.5,-98 5416.71,-96.44 5433.16,-94.24 5448.2,-92.02"/>
<polygon fill="midnightblue" stroke="midnightblue" points="4610.44,-143.16 4600.55,-146.98 4610.66,-150.16 4610.44,-143.16"/>
</g>
<!-- Node34 -->
<g id="node34" class="node">
<title>Node34</title>
<g id="a_node34"><a xlink:href="QtSFML_8cpp.html" target="_top" xlink:title=" ">
<polygon fill="white" stroke="black" points="5608.5,-67.5 5608.5,-97.5 5768.5,-97.5 5768.5,-67.5 5608.5,-67.5"/>
<text text-anchor="start" x="5616.5" y="-85.5" font-family="Helvetica,sans-Serif" font-size="10.00">sources/Renderer/QtRenderer</text>
<text text-anchor="middle" x="5688.5" y="-74.5" font-family="Helvetica,sans-Serif" font-size="10.00">/QtSFML.cpp</text>
</a>
</g>
</g>
<!-- Node23&#45;&gt;Node34 -->
<g id="edge34" class="edge">
<title>Node23&#45;&gt;Node34</title>
<path fill="none" stroke="midnightblue" d="M4610.86,-147.93C4773.71,-145.91 5225.06,-136.94 5598.5,-98 5601.65,-97.67 5604.85,-97.31 5608.09,-96.91"/>
<polygon fill="midnightblue" stroke="midnightblue" points="4610.51,-144.43 4600.55,-148.05 4610.59,-151.43 4610.51,-144.43"/>
</g>
<!-- Node35 -->
<g id="node35" class="node">
<title>Node35</title>
<g id="a_node35"><a xlink:href="SFRenderer_8cpp.html" target="_top" xlink:title=" ">
<polygon fill="white" stroke="black" points="5862.5,-73 5862.5,-92 6042.5,-92 6042.5,-73 5862.5,-73"/>
<text text-anchor="middle" x="5952.5" y="-80" font-family="Helvetica,sans-Serif" font-size="10.00">sources/Renderer/SFRenderer.cpp</text>
</a>
</g>
</g>
<!-- Node23&#45;&gt;Node35 -->
<g id="edge35" class="edge">
<title>Node23&#45;&gt;Node35</title>
<path fill="none" stroke="midnightblue" d="M4610.85,-148.28C4798.42,-147.15 5373.77,-140.21 5848.5,-98 5864.93,-96.54 5882.75,-94.3 5898.91,-92.01"/>
<polygon fill="midnightblue" stroke="midnightblue" points="4610.61,-144.78 4600.63,-148.34 4610.65,-151.78 4610.61,-144.78"/>
</g>
<!-- Node36 -->
<g id="node36" class="node">
<title>Node36</title>
<g id="a_node36"><a xlink:href="SNES_8cpp.html" target="_top" xlink:title=" ">
<polygon fill="white" stroke="black" points="6061,-73 6061,-92 6164,-92 6164,-73 6061,-73"/>
<text text-anchor="middle" x="6112.5" y="-80" font-family="Helvetica,sans-Serif" font-size="10.00">sources/SNES.cpp</text>
</a>
</g>
</g>
<!-- Node23&#45;&gt;Node36 -->
<g id="edge36" class="edge">
<title>Node23&#45;&gt;Node36</title>
<path fill="none" stroke="midnightblue" d="M4610.87,-148.06C4857.67,-146.09 5766.27,-136.3 6051.5,-98 6061.53,-96.65 6072.33,-94.37 6082,-92.01"/>
<polygon fill="midnightblue" stroke="midnightblue" points="4610.62,-144.57 4600.65,-148.15 4610.68,-151.57 4610.62,-144.57"/>
</g>
<!-- Node23&#45;&gt;Node37 -->
<g id="edge37" class="edge">
<title>Node23&#45;&gt;Node37</title>
<path fill="none" stroke="midnightblue" d="M4486.33,-148C4284.47,-145.99 3648.82,-136.68 3447.5,-98 3364.17,-81.99 3270.31,-42.54 3231.18,-25.07"/>
<polygon fill="midnightblue" stroke="midnightblue" points="4486.43,-151.5 4496.46,-148.09 4486.5,-144.5 4486.43,-151.5"/>
</g>
<!-- Node38 -->
<g id="node38" class="node">
<title>Node38</title>
<g id="a_node38"><a xlink:href="tests_8hpp.html" target="_top" xlink:title=" ">
<polygon fill="white" stroke="red" points="4468,-73 4468,-92 4557,-92 4557,-73 4468,-73"/>
<text text-anchor="middle" x="4512.5" y="-80" font-family="Helvetica,sans-Serif" font-size="10.00">tests/tests.hpp</text>
</a>
</g>
</g>
<!-- Node23&#45;&gt;Node38 -->
<g id="edge38" class="edge">
<title>Node23&#45;&gt;Node38</title>
<path fill="none" stroke="midnightblue" d="M4538.62,-130.66C4531.68,-118.13 4522.7,-101.91 4517.28,-92.13"/>
<polygon fill="midnightblue" stroke="midnightblue" points="4535.74,-132.68 4543.64,-139.73 4541.86,-129.29 4535.74,-132.68"/>
</g>
<!-- Node23&#45;&gt;Node39 -->
<g id="edge51" class="edge">
<title>Node23&#45;&gt;Node39</title>
<path fill="none" stroke="midnightblue" d="M4486.3,-147.31C4277.11,-143.03 3606.87,-127.2 3514.5,-98 3464.99,-82.35 3415.68,-42.89 3395.28,-25.25"/>
<polygon fill="midnightblue" stroke="midnightblue" points="4486.43,-150.81 4496.5,-147.51 4486.57,-143.81 4486.43,-150.81"/>
</g>
<!-- Node23&#45;&gt;Node40 -->
<g id="edge52" class="edge">
<title>Node23&#45;&gt;Node40</title>
<path fill="none" stroke="midnightblue" d="M4486.23,-147.77C4269.25,-144.92 3557.76,-132.94 3524.5,-98 3503.21,-75.64 3538.61,-40.98 3557.63,-25.04"/>
<polygon fill="midnightblue" stroke="midnightblue" points="4486.45,-151.27 4496.49,-147.9 4486.54,-144.27 4486.45,-151.27"/>
</g>
<!-- Node41 -->
<g id="node41" class="node">
<title>Node41</title>
<g id="a_node41"><a xlink:href="testADC_8cpp.html" target="_top" xlink:title=" ">
<polygon fill="white" stroke="black" points="3711,-6 3711,-25 3866,-25 3866,-6 3711,-6"/>
<text text-anchor="middle" x="3788.5" y="-13" font-family="Helvetica,sans-Serif" font-size="10.00">tests/CPU/Math/testADC.cpp</text>
</a>
</g>
</g>
<!-- Node23&#45;&gt;Node41 -->
<g id="edge53" class="edge">
<title>Node23&#45;&gt;Node41</title>
<path fill="none" stroke="midnightblue" d="M4486.11,-147.74C4270.38,-144.79 3567.39,-132.57 3534.5,-98 3525,-88.02 3525.76,-77.65 3534.5,-67 3546.52,-52.36 3652.75,-35.11 3723.98,-25.04"/>
<polygon fill="midnightblue" stroke="midnightblue" points="4486.26,-151.24 4496.31,-147.87 4486.36,-144.24 4486.26,-151.24"/>
</g>
<!-- Node42 -->
<g id="node42" class="node">
<title>Node42</title>
<g id="a_node42"><a xlink:href="testCMP_8cpp.html" target="_top" xlink:title=" ">
<polygon fill="white" stroke="black" points="4017.5,-6 4017.5,-25 4171.5,-25 4171.5,-6 4017.5,-6"/>
<text text-anchor="middle" x="4094.5" y="-13" font-family="Helvetica,sans-Serif" font-size="10.00">tests/CPU/Math/testCMP.cpp</text>
</a>
</g>
</g>
<!-- Node23&#45;&gt;Node42 -->
<g id="edge54" class="edge">
<title>Node23&#45;&gt;Node42</title>
<path fill="none" stroke="midnightblue" d="M4486.06,-147.7C4271.82,-144.65 3577.99,-132.17 3545.5,-98 3536.01,-88.02 3536.21,-77.18 3545.5,-67 3553.37,-58.38 3868.19,-33.56 4017.47,-22.25"/>
<polygon fill="midnightblue" stroke="midnightblue" points="4486.14,-151.2 4496.19,-147.84 4486.24,-144.2 4486.14,-151.2"/>
</g>
<!-- Node43 -->
<g id="node43" class="node">
<title>Node43</title>
<g id="a_node43"><a xlink:href="testOthersMath_8cpp.html" target="_top" xlink:title=" ">
<polygon fill="white" stroke="black" points="4255.5,-0.5 4255.5,-30.5 4401.5,-30.5 4401.5,-0.5 4255.5,-0.5"/>
<text text-anchor="start" x="4263.5" y="-18.5" font-family="Helvetica,sans-Serif" font-size="10.00">tests/CPU/Math/testOthers</text>
<text text-anchor="middle" x="4328.5" y="-7.5" font-family="Helvetica,sans-Serif" font-size="10.00">Math.cpp</text>
</a>
</g>
</g>
<!-- Node23&#45;&gt;Node43 -->
<g id="edge55" class="edge">
<title>Node23&#45;&gt;Node43</title>
<path fill="none" stroke="midnightblue" d="M4486.38,-147.67C4274.07,-144.52 3588.61,-131.78 3556.5,-98 3547.01,-88.01 3547.04,-77.02 3556.5,-67 3604.17,-16.5 4111.26,-36.39 4180.5,-31 4204.82,-29.11 4231.36,-26.64 4255.15,-24.27"/>
<polygon fill="midnightblue" stroke="midnightblue" points="4486.37,-151.17 4496.42,-147.81 4486.48,-144.17 4486.37,-151.17"/>
</g>
<!-- Node44 -->
<g id="node44" class="node">
<title>Node44</title>
<g id="a_node44"><a xlink:href="testSBC_8cpp.html" target="_top" xlink:title=" ">
<polygon fill="white" stroke="black" points="4453,-6 4453,-25 4606,-25 4606,-6 4453,-6"/>
<text text-anchor="middle" x="4529.5" y="-13" font-family="Helvetica,sans-Serif" font-size="10.00">tests/CPU/Math/testSBC.cpp</text>
</a>
</g>
</g>
<!-- Node23&#45;&gt;Node44 -->
<g id="edge56" class="edge">
<title>Node23&#45;&gt;Node44</title>
<path fill="none" stroke="midnightblue" d="M4557.44,-130.64C4564.59,-113.94 4572.36,-88.43 4565.5,-67 4560.18,-50.39 4547.18,-34.58 4538.35,-25.21"/>
<polygon fill="midnightblue" stroke="midnightblue" points="4554.24,-129.24 4553.21,-139.78 4560.59,-132.18 4554.24,-129.24"/>
</g>
<!-- Node45 -->
<g id="node45" class="node">
<title>Node45</title>
<g id="a_node45"><a xlink:href="testAddressingMode_8cpp.html" target="_top" xlink:title=" ">
<polygon fill="white" stroke="black" points="4763.5,-0.5 4763.5,-30.5 4903.5,-30.5 4903.5,-0.5 4763.5,-0.5"/>
<text text-anchor="start" x="4771.5" y="-18.5" font-family="Helvetica,sans-Serif" font-size="10.00">tests/CPU/testAddressing</text>
<text text-anchor="middle" x="4833.5" y="-7.5" font-family="Helvetica,sans-Serif" font-size="10.00">Mode.cpp</text>
</a>
</g>
</g>
<!-- Node23&#45;&gt;Node45 -->
<g id="edge57" class="edge">
<title>Node23&#45;&gt;Node45</title>
<path fill="none" stroke="midnightblue" d="M4610.98,-148.09C4760.69,-146.46 5130.3,-138.36 5167.5,-98 5176.84,-87.87 5176.48,-77.45 5167.5,-67 5158.94,-57.05 4999.06,-36.33 4903.65,-24.76"/>
<polygon fill="midnightblue" stroke="midnightblue" points="4610.55,-144.6 4600.59,-148.2 4610.63,-151.59 4610.55,-144.6"/>
</g>
<!-- Node46 -->
<g id="node46" class="node">
<title>Node46</title>
<g id="a_node46"><a xlink:href="testBits_8cpp.html" target="_top" xlink:title=" ">
<polygon fill="white" stroke="black" points="4992,-6 4992,-25 5117,-25 5117,-6 4992,-6"/>
<text text-anchor="middle" x="5054.5" y="-13" font-family="Helvetica,sans-Serif" font-size="10.00">tests/CPU/testBits.cpp</text>
</a>
</g>
</g>
<!-- Node23&#45;&gt;Node46 -->
<g id="edge58" class="edge">
<title>Node23&#45;&gt;Node46</title>
<path fill="none" stroke="midnightblue" d="M4610.68,-148.25C4763.34,-146.99 5147,-139.67 5185.5,-98 5217.67,-63.18 5142.73,-37.55 5093.42,-25.04"/>
<polygon fill="midnightblue" stroke="midnightblue" points="4610.5,-144.75 4600.53,-148.33 4610.56,-151.75 4610.5,-144.75"/>
</g>
<!-- Node49 -->
<g id="node47" class="node">
<title>Node49</title>
<g id="a_node47"><a xlink:href="testInterupts_8cpp.html" target="_top" xlink:title=" ">
<polygon fill="white" stroke="black" points="5170,-6 5170,-25 5319,-25 5319,-6 5170,-6"/>
<text text-anchor="middle" x="5244.5" y="-13" font-family="Helvetica,sans-Serif" font-size="10.00">tests/CPU/testInterupts.cpp</text>
</a>
</g>
</g>
<!-- Node23&#45;&gt;Node49 -->
<g id="edge59" class="edge">
<title>Node23&#45;&gt;Node49</title>
<path fill="none" stroke="midnightblue" d="M4610.81,-147.15C4764.92,-143.33 5155.01,-130.53 5203.5,-98 5229.15,-80.8 5239.51,-42.51 5242.99,-25.25"/>
<polygon fill="midnightblue" stroke="midnightblue" points="4610.48,-143.66 4600.57,-147.4 4610.65,-150.66 4610.48,-143.66"/>
</g>
<!-- Node50 -->
<g id="node48" class="node">
<title>Node50</title>
<g id="a_node48"><a xlink:href="testStore_8cpp.html" target="_top" xlink:title=" ">
<polygon fill="white" stroke="black" points="5482,-6 5482,-25 5613,-25 5613,-6 5482,-6"/>
<text text-anchor="middle" x="5547.5" y="-13" font-family="Helvetica,sans-Serif" font-size="10.00">tests/CPU/testStore.cpp</text>
</a>
</g>
</g>
<!-- Node23&#45;&gt;Node50 -->
<g id="edge60" class="edge">
<title>Node23&#45;&gt;Node50</title>
<path fill="none" stroke="midnightblue" d="M4610.63,-148.31C4854.75,-147.24 5736.75,-140.46 5777.5,-98 5787.04,-88.06 5786.13,-77.74 5777.5,-67 5757.16,-41.71 5673.6,-28.37 5613.05,-21.88"/>
<polygon fill="midnightblue" stroke="midnightblue" points="4610.5,-144.81 4600.51,-148.35 4610.53,-151.81 4610.5,-144.81"/>
</g>
<!-- Node51 -->
<g id="node49" class="node">
<title>Node51</title>
<g id="a_node49"><a xlink:href="testTransfers_8cpp.html" target="_top" xlink:title=" ">
<polygon fill="white" stroke="black" points="5703.5,-6 5703.5,-25 5853.5,-25 5853.5,-6 5703.5,-6"/>
<text text-anchor="middle" x="5778.5" y="-13" font-family="Helvetica,sans-Serif" font-size="10.00">tests/CPU/testTransfers.cpp</text>
</a>
</g>
</g>
<!-- Node23&#45;&gt;Node51 -->
<g id="edge61" class="edge">
<title>Node23&#45;&gt;Node51</title>
<path fill="none" stroke="midnightblue" d="M4611.08,-148.34C4857.98,-147.41 5753.15,-141.06 5794.5,-98 5813.78,-77.93 5794.89,-41.8 5784.43,-25.23"/>
<polygon fill="midnightblue" stroke="midnightblue" points="4610.83,-144.84 4600.84,-148.38 4610.86,-151.84 4610.83,-144.84"/>
</g>
<!-- Node38&#45;&gt;Node37 -->
<g id="edge39" class="edge">
<title>Node38&#45;&gt;Node37</title>
<path fill="none" stroke="midnightblue" d="M4475.59,-70.38C4469.91,-69.02 4464.08,-67.82 4458.5,-67 3942.07,9.2 3803.09,-90.74 3284.5,-31 3272.85,-29.66 3260.27,-27.41 3248.94,-25.08"/>
<polygon fill="midnightblue" stroke="midnightblue" points="4475.01,-73.84 4485.56,-72.95 4476.76,-67.06 4475.01,-73.84"/>
</g>
<!-- Node38&#45;&gt;Node39 -->
<g id="edge40" class="edge">
<title>Node38&#45;&gt;Node39</title>
<path fill="none" stroke="midnightblue" d="M4475.59,-70.41C4469.91,-69.05 4464.08,-67.84 4458.5,-67 4030.6,-2.48 3916.47,-70.1 3485.5,-31 3469.6,-29.56 3452.37,-27.31 3436.76,-25.01"/>
<polygon fill="midnightblue" stroke="midnightblue" points="4475,-73.87 4485.56,-72.99 4476.75,-67.1 4475,-73.87"/>
</g>
<!-- Node38&#45;&gt;Node40 -->
<g id="edge41" class="edge">
<title>Node38&#45;&gt;Node40</title>
<path fill="none" stroke="midnightblue" d="M4475.4,-70.42C4469.78,-69.07 4464.01,-67.86 4458.5,-67 4125.71,-15.03 4037.3,-57.26 3701.5,-31 3681.24,-29.42 3659.29,-27.22 3639.17,-25.02"/>
<polygon fill="midnightblue" stroke="midnightblue" points="4474.72,-73.86 4485.27,-72.97 4476.47,-67.08 4474.72,-73.86"/>
</g>
<!-- Node38&#45;&gt;Node41 -->
<g id="edge42" class="edge">
<title>Node38&#45;&gt;Node41</title>
<path fill="none" stroke="midnightblue" d="M4475.01,-70.47C4469.51,-69.13 4463.88,-67.92 4458.5,-67 4401.44,-57.28 4030.04,-32.27 3866.08,-21.53"/>
<polygon fill="midnightblue" stroke="midnightblue" points="4474.14,-73.86 4484.69,-72.97 4475.89,-67.08 4474.14,-73.86"/>
</g>
<!-- Node38&#45;&gt;Node42 -->
<g id="edge43" class="edge">
<title>Node38&#45;&gt;Node42</title>
<path fill="none" stroke="midnightblue" d="M4473.25,-70.35C4468.31,-69.13 4463.3,-67.97 4458.5,-67 4360.33,-47.09 4245.67,-32.61 4171.66,-24.38"/>
<polygon fill="midnightblue" stroke="midnightblue" points="4472.67,-73.82 4483.23,-72.93 4474.42,-67.04 4472.67,-73.82"/>
</g>
<!-- Node38&#45;&gt;Node43 -->
<g id="edge44" class="edge">
<title>Node38&#45;&gt;Node43</title>
<path fill="none" stroke="midnightblue" d="M4478.5,-69.49C4447.31,-58.47 4401.09,-42.14 4368.21,-30.53"/>
<polygon fill="midnightblue" stroke="midnightblue" points="4477.47,-72.84 4488.07,-72.87 4479.8,-66.24 4477.47,-72.84"/>
</g>
<!-- Node38&#45;&gt;Node44 -->
<g id="edge45" class="edge">
<title>Node38&#45;&gt;Node44</title>
<path fill="none" stroke="midnightblue" d="M4517.36,-62.91C4520.61,-50.49 4524.74,-34.72 4527.24,-25.13"/>
<polygon fill="midnightblue" stroke="midnightblue" points="4513.94,-62.17 4514.79,-72.73 4520.71,-63.94 4513.94,-62.17"/>
</g>
<!-- Node38&#45;&gt;Node45 -->
<g id="edge46" class="edge">
<title>Node38&#45;&gt;Node45</title>
<path fill="none" stroke="midnightblue" d="M4564.89,-70.89C4619.15,-59.9 4704.23,-42.68 4764.07,-30.56"/>
<polygon fill="midnightblue" stroke="midnightblue" points="4563.9,-67.52 4554.8,-72.94 4565.29,-74.38 4563.9,-67.52"/>
</g>
<!-- Node38&#45;&gt;Node46 -->
<g id="edge47" class="edge">
<title>Node38&#45;&gt;Node46</title>
<path fill="none" stroke="midnightblue" d="M4567.41,-72.43C4579.61,-70.54 4592.48,-68.62 4604.5,-67 4677.74,-57.12 4886.09,-34.52 4991.62,-23.21"/>
<polygon fill="midnightblue" stroke="midnightblue" points="4566.7,-69 4557.36,-74.02 4567.79,-75.92 4566.7,-69"/>
</g>
<!-- Node38&#45;&gt;Node49 -->
<g id="edge48" class="edge">
<title>Node38&#45;&gt;Node49</title>
<path fill="none" stroke="midnightblue" d="M4567.37,-72.05C4579.56,-70.17 4592.45,-68.36 4604.5,-67 4835.14,-40.91 4894.44,-53.04 5125.5,-31 5143.11,-29.32 5162.15,-27.16 5179.72,-25.02"/>
<polygon fill="midnightblue" stroke="midnightblue" points="4566.65,-68.62 4557.32,-73.63 4567.74,-75.53 4566.65,-68.62"/>
</g>
<!-- Node38&#45;&gt;Node50 -->
<g id="edge49" class="edge">
<title>Node38&#45;&gt;Node50</title>
<path fill="none" stroke="midnightblue" d="M4567.35,-71.87C4579.55,-70.01 4592.44,-68.25 4604.5,-67 4924.53,-33.91 5006.31,-49.58 5327.5,-31 5379.28,-28 5437.88,-24.12 5481.57,-21.12"/>
<polygon fill="midnightblue" stroke="midnightblue" points="4566.63,-68.44 4557.3,-73.46 4567.72,-75.36 4566.63,-68.44"/>
</g>
<!-- Node38&#45;&gt;Node51 -->
<g id="edge50" class="edge">
<title>Node38&#45;&gt;Node51</title>
<path fill="none" stroke="midnightblue" d="M4567.33,-71.74C4579.53,-69.89 4592.43,-68.16 4604.5,-67 5055.15,-23.68 5170.7,-59.96 5622.5,-31 5648.83,-29.31 5677.6,-26.82 5703.19,-24.38"/>
<polygon fill="midnightblue" stroke="midnightblue" points="4566.62,-68.31 4557.28,-73.33 4567.71,-75.23 4566.62,-68.31"/>
</g>
</g>
</svg>
