<?xml version="1.0" encoding="UTF-8" standalone="no"?>
<!DOCTYPE svg PUBLIC "-//W3C//DTD SVG 1.1//EN"
 "http://www.w3.org/Graphics/SVG/1.1/DTD/svg11.dtd">
<!-- Generated by graphviz version 2.43.0 (0)
 -->
<!-- Title: sources/APU/IPL/IPL.cpp Pages: 1 -->
<svg width="874pt" height="308pt"
 viewBox="0.00 0.00 874.00 308.00" xmlns="http://www.w3.org/2000/svg" xmlns:xlink="http://www.w3.org/1999/xlink">
<g id="graph0" class="graph" transform="scale(1 1) rotate(0) translate(4 304)">
<title>sources/APU/IPL/IPL.cpp</title>
<polygon fill="white" stroke="transparent" points="-4,4 -4,-304 870,-304 870,4 -4,4"/>
<!-- Node1 -->
<g id="node1" class="node">
<title>Node1</title>
<g id="a_node1"><a xlink:title=" ">
<polygon fill="#bfbfbf" stroke="black" points="417.5,-280.5 417.5,-299.5 549.5,-299.5 549.5,-280.5 417.5,-280.5"/>
<text text-anchor="middle" x="483.5" y="-287.5" font-family="Helvetica,sans-Serif" font-size="10.00">sources/APU/IPL/IPL.cpp</text>
</a>
</g>
</g>
<!-- Node2 -->
<g id="node2" class="node">
<title>Node2</title>
<g id="a_node2"><a xlink:href="IPL_8hpp.html" target="_top" xlink:title=" ">
<polygon fill="white" stroke="black" points="384.5,-224.5 384.5,-243.5 436.5,-243.5 436.5,-224.5 384.5,-224.5"/>
<text text-anchor="middle" x="410.5" y="-231.5" font-family="Helvetica,sans-Serif" font-size="10.00">IPL.hpp</text>
</a>
</g>
</g>
<!-- Node1&#45;&gt;Node2 -->
<g id="edge1" class="edge">
<title>Node1&#45;&gt;Node2</title>
<path fill="none" stroke="midnightblue" d="M471.77,-280.32C460.66,-272.11 443.76,-259.6 430.52,-249.81"/>
<polygon fill="midnightblue" stroke="midnightblue" points="432.56,-246.97 422.44,-243.83 428.4,-252.59 432.56,-246.97"/>
</g>
<!-- Node13 -->
<g id="node13" class="node">
<title>Node13</title>
<g id="a_node13"><a xlink:href="InvalidAddress_8hpp.html" target="_top" xlink:title=" ">
<polygon fill="white" stroke="black" points="472.5,-112.5 472.5,-131.5 638.5,-131.5 638.5,-112.5 472.5,-112.5"/>
<text text-anchor="middle" x="555.5" y="-119.5" font-family="Helvetica,sans-Serif" font-size="10.00">Exceptions/InvalidAddress.hpp</text>
</a>
</g>
</g>
<!-- Node1&#45;&gt;Node13 -->
<g id="edge18" class="edge">
<title>Node1&#45;&gt;Node13</title>
<path fill="none" stroke="midnightblue" d="M485.62,-280.42C488.85,-267.82 495.48,-243.68 503.5,-224 515.85,-193.69 534.04,-160.23 545.31,-140.44"/>
<polygon fill="midnightblue" stroke="midnightblue" points="548.41,-142.08 550.37,-131.67 542.34,-138.59 548.41,-142.08"/>
</g>
<!-- Node19 -->
<g id="node19" class="node">
<title>Node19</title>
<g id="a_node19"><a xlink:title=" ">
<polygon fill="white" stroke="#bfbfbf" points="512,-224.5 512,-243.5 557,-243.5 557,-224.5 512,-224.5"/>
<text text-anchor="middle" x="534.5" y="-231.5" font-family="Helvetica,sans-Serif" font-size="10.00">utility</text>
</a>
</g>
</g>
<!-- Node1&#45;&gt;Node19 -->
<g id="edge26" class="edge">
<title>Node1&#45;&gt;Node19</title>
<path fill="none" stroke="midnightblue" d="M491.92,-280.08C499.35,-272.22 510.35,-260.57 519.31,-251.08"/>
<polygon fill="midnightblue" stroke="midnightblue" points="521.91,-253.42 526.24,-243.75 516.82,-248.62 521.91,-253.42"/>
</g>
<!-- Node3 -->
<g id="node3" class="node">
<title>Node3</title>
<g id="a_node3"><a xlink:href="AMemory_8hpp.html" target="_top" xlink:title=" ">
<polygon fill="white" stroke="black" points="257,-168.5 257,-187.5 384,-187.5 384,-168.5 257,-168.5"/>
<text text-anchor="middle" x="320.5" y="-175.5" font-family="Helvetica,sans-Serif" font-size="10.00">Memory/AMemory.hpp</text>
</a>
</g>
</g>
<!-- Node2&#45;&gt;Node3 -->
<g id="edge2" class="edge">
<title>Node2&#45;&gt;Node3</title>
<path fill="none" stroke="midnightblue" d="M396.04,-224.32C382,-215.9 360.45,-202.97 343.96,-193.07"/>
<polygon fill="midnightblue" stroke="midnightblue" points="345.3,-189.8 334.92,-187.65 341.7,-195.8 345.3,-189.8"/>
</g>
<!-- Node4 -->
<g id="node4" class="node">
<title>Node4</title>
<g id="a_node4"><a xlink:title=" ">
<polygon fill="white" stroke="#bfbfbf" points="155.5,-56.5 155.5,-75.5 205.5,-75.5 205.5,-56.5 155.5,-56.5"/>
<text text-anchor="middle" x="180.5" y="-63.5" font-family="Helvetica,sans-Serif" font-size="10.00">cstdint</text>
</a>
</g>
</g>
<!-- Node3&#45;&gt;Node4 -->
<g id="edge3" class="edge">
<title>Node3&#45;&gt;Node4</title>
<path fill="none" stroke="midnightblue" d="M295.18,-168.42C275.56,-160.92 248.44,-148.62 228.5,-132 212.39,-118.57 198.73,-98.66 190.15,-84.42"/>
<polygon fill="midnightblue" stroke="midnightblue" points="193.09,-82.51 185.05,-75.61 187.03,-86.02 193.09,-82.51"/>
</g>
<!-- Node5 -->
<g id="node5" class="node">
<title>Node5</title>
<g id="a_node5"><a xlink:title=" ">
<polygon fill="white" stroke="#bfbfbf" points="224,-56.5 224,-75.5 271,-75.5 271,-56.5 224,-56.5"/>
<text text-anchor="middle" x="247.5" y="-63.5" font-family="Helvetica,sans-Serif" font-size="10.00">vector</text>
</a>
</g>
</g>
<!-- Node3&#45;&gt;Node5 -->
<g id="edge4" class="edge">
<title>Node3&#45;&gt;Node5</title>
<path fill="none" stroke="midnightblue" d="M288.32,-168.49C269.96,-161.8 248.48,-150.45 237.5,-132 229.03,-117.77 233.37,-98.8 238.72,-85.03"/>
<polygon fill="midnightblue" stroke="midnightblue" points="242.01,-86.24 242.81,-75.68 235.6,-83.44 242.01,-86.24"/>
</g>
<!-- Node6 -->
<g id="node6" class="node">
<title>Node6</title>
<g id="a_node6"><a xlink:title=" ">
<polygon fill="white" stroke="#bfbfbf" points="289.5,-56.5 289.5,-75.5 347.5,-75.5 347.5,-56.5 289.5,-56.5"/>
<text text-anchor="middle" x="318.5" y="-63.5" font-family="Helvetica,sans-Serif" font-size="10.00">memory</text>
</a>
</g>
</g>
<!-- Node3&#45;&gt;Node6 -->
<g id="edge5" class="edge">
<title>Node3&#45;&gt;Node6</title>
<path fill="none" stroke="midnightblue" d="M324.86,-168.22C330.5,-155.78 339.2,-132.28 335.5,-112 333.81,-102.76 330.33,-92.95 326.95,-84.85"/>
<polygon fill="midnightblue" stroke="midnightblue" points="330.13,-83.4 322.87,-75.69 323.74,-86.25 330.13,-83.4"/>
</g>
<!-- Node7 -->
<g id="node7" class="node">
<title>Node7</title>
<g id="a_node7"><a xlink:title=" ">
<polygon fill="white" stroke="#bfbfbf" points="365.5,-56.5 365.5,-75.5 409.5,-75.5 409.5,-56.5 365.5,-56.5"/>
<text text-anchor="middle" x="387.5" y="-63.5" font-family="Helvetica,sans-Serif" font-size="10.00">string</text>
</a>
</g>
</g>
<!-- Node3&#45;&gt;Node7 -->
<g id="edge6" class="edge">
<title>Node3&#45;&gt;Node7</title>
<path fill="none" stroke="midnightblue" d="M326.17,-168.44C332.1,-159.44 341.62,-144.83 349.5,-132 359.2,-116.2 369.82,-97.95 377.36,-84.82"/>
<polygon fill="midnightblue" stroke="midnightblue" points="380.53,-86.32 382.46,-75.9 374.46,-82.85 380.53,-86.32"/>
</g>
<!-- Node8 -->
<g id="node8" class="node">
<title>Node8</title>
<g id="a_node8"><a xlink:href="Ints_8hpp.html" target="_top" xlink:title=" ">
<polygon fill="white" stroke="black" points="427.5,-56.5 427.5,-75.5 521.5,-75.5 521.5,-56.5 427.5,-56.5"/>
<text text-anchor="middle" x="474.5" y="-63.5" font-family="Helvetica,sans-Serif" font-size="10.00">Models/Ints.hpp</text>
</a>
</g>
</g>
<!-- Node3&#45;&gt;Node8 -->
<g id="edge7" class="edge">
<title>Node3&#45;&gt;Node8</title>
<path fill="none" stroke="midnightblue" d="M332.58,-168.37C358.9,-149.57 421.62,-104.77 454.15,-81.53"/>
<polygon fill="midnightblue" stroke="midnightblue" points="456.37,-84.25 462.47,-75.59 452.3,-78.56 456.37,-84.25"/>
</g>
<!-- Node11 -->
<g id="node11" class="node">
<title>Node11</title>
<g id="a_node11"><a xlink:href="Components_8hpp.html" target="_top" xlink:title=" ">
<polygon fill="white" stroke="black" points="0,-56.5 0,-75.5 137,-75.5 137,-56.5 0,-56.5"/>
<text text-anchor="middle" x="68.5" y="-63.5" font-family="Helvetica,sans-Serif" font-size="10.00">Models/Components.hpp</text>
</a>
</g>
</g>
<!-- Node3&#45;&gt;Node11 -->
<g id="edge10" class="edge">
<title>Node3&#45;&gt;Node11</title>
<path fill="none" stroke="midnightblue" d="M296.96,-168.34C273.57,-159.61 236.79,-145.53 205.5,-132 166.55,-115.16 122.33,-93.76 94.92,-80.21"/>
<polygon fill="midnightblue" stroke="midnightblue" points="96.14,-76.91 85.62,-75.6 93.03,-83.18 96.14,-76.91"/>
</g>
<!-- Node12 -->
<g id="node12" class="node">
<title>Node12</title>
<g id="a_node12"><a xlink:href="IMemory_8hpp.html" target="_top" xlink:title=" ">
<polygon fill="white" stroke="black" points="246.5,-112.5 246.5,-131.5 326.5,-131.5 326.5,-112.5 246.5,-112.5"/>
<text text-anchor="middle" x="286.5" y="-119.5" font-family="Helvetica,sans-Serif" font-size="10.00">IMemory.hpp</text>
</a>
</g>
</g>
<!-- Node3&#45;&gt;Node12 -->
<g id="edge11" class="edge">
<title>Node3&#45;&gt;Node12</title>
<path fill="none" stroke="midnightblue" d="M314.89,-168.08C310.13,-160.53 303.18,-149.49 297.35,-140.23"/>
<polygon fill="midnightblue" stroke="midnightblue" points="300.3,-138.35 292.01,-131.75 294.38,-142.08 300.3,-138.35"/>
</g>
<!-- Node9 -->
<g id="node9" class="node">
<title>Node9</title>
<g id="a_node9"><a xlink:title=" ">
<polygon fill="white" stroke="#bfbfbf" points="482.5,-0.5 482.5,-19.5 544.5,-19.5 544.5,-0.5 482.5,-0.5"/>
<text text-anchor="middle" x="513.5" y="-7.5" font-family="Helvetica,sans-Serif" font-size="10.00">cinttypes</text>
</a>
</g>
</g>
<!-- Node8&#45;&gt;Node9 -->
<g id="edge8" class="edge">
<title>Node8&#45;&gt;Node9</title>
<path fill="none" stroke="midnightblue" d="M480.94,-56.08C486.45,-48.46 494.53,-37.26 501.26,-27.94"/>
<polygon fill="midnightblue" stroke="midnightblue" points="504.16,-29.91 507.18,-19.75 498.49,-25.81 504.16,-29.91"/>
</g>
<!-- Node10 -->
<g id="node10" class="node">
<title>Node10</title>
<g id="a_node10"><a xlink:title=" ">
<polygon fill="white" stroke="#bfbfbf" points="404.5,-0.5 404.5,-19.5 464.5,-19.5 464.5,-0.5 404.5,-0.5"/>
<text text-anchor="middle" x="434.5" y="-7.5" font-family="Helvetica,sans-Serif" font-size="10.00">iostream</text>
</a>
</g>
</g>
<!-- Node8&#45;&gt;Node10 -->
<g id="edge9" class="edge">
<title>Node8&#45;&gt;Node10</title>
<path fill="none" stroke="midnightblue" d="M467.89,-56.08C462.24,-48.46 453.96,-37.26 447.05,-27.94"/>
<polygon fill="midnightblue" stroke="midnightblue" points="449.75,-25.7 440.98,-19.75 444.12,-29.87 449.75,-25.7"/>
</g>
<!-- Node12&#45;&gt;Node4 -->
<g id="edge12" class="edge">
<title>Node12&#45;&gt;Node4</title>
<path fill="none" stroke="midnightblue" d="M269.47,-112.32C252.47,-103.66 226.12,-90.24 206.51,-80.25"/>
<polygon fill="midnightblue" stroke="midnightblue" points="207.99,-77.08 197.49,-75.65 204.81,-83.31 207.99,-77.08"/>
</g>
<!-- Node12&#45;&gt;Node5 -->
<g id="edge13" class="edge">
<title>Node12&#45;&gt;Node5</title>
<path fill="none" stroke="midnightblue" d="M280.06,-112.08C274.55,-104.46 266.47,-93.26 259.74,-83.94"/>
<polygon fill="midnightblue" stroke="midnightblue" points="262.51,-81.81 253.82,-75.75 256.84,-85.91 262.51,-81.81"/>
</g>
<!-- Node12&#45;&gt;Node6 -->
<g id="edge14" class="edge">
<title>Node12&#45;&gt;Node6</title>
<path fill="none" stroke="midnightblue" d="M291.78,-112.08C296.21,-104.61 302.66,-93.72 308.12,-84.52"/>
<polygon fill="midnightblue" stroke="midnightblue" points="311.23,-86.14 313.31,-75.75 305.21,-82.57 311.23,-86.14"/>
</g>
<!-- Node12&#45;&gt;Node7 -->
<g id="edge15" class="edge">
<title>Node12&#45;&gt;Node7</title>
<path fill="none" stroke="midnightblue" d="M302.73,-112.32C318.85,-103.7 343.8,-90.36 362.46,-80.39"/>
<polygon fill="midnightblue" stroke="midnightblue" points="364.14,-83.46 371.31,-75.65 360.84,-77.28 364.14,-83.46"/>
</g>
<!-- Node12&#45;&gt;Node8 -->
<g id="edge16" class="edge">
<title>Node12&#45;&gt;Node8</title>
<path fill="none" stroke="midnightblue" d="M316.29,-112.44C348.33,-103.24 399.43,-88.56 434.85,-78.39"/>
<polygon fill="midnightblue" stroke="midnightblue" points="436.21,-81.64 444.85,-75.52 434.27,-74.91 436.21,-81.64"/>
</g>
<!-- Node12&#45;&gt;Node11 -->
<g id="edge17" class="edge">
<title>Node12&#45;&gt;Node11</title>
<path fill="none" stroke="midnightblue" d="M251.96,-112.44C214.25,-103.1 153.76,-88.12 112.64,-77.93"/>
<polygon fill="midnightblue" stroke="midnightblue" points="113.43,-74.52 102.88,-75.52 111.75,-81.32 113.43,-74.52"/>
</g>
<!-- Node13&#45;&gt;Node7 -->
<g id="edge25" class="edge">
<title>Node13&#45;&gt;Node7</title>
<path fill="none" stroke="midnightblue" d="M528.88,-112.44C499.16,-102.89 451.08,-87.44 419.38,-77.25"/>
<polygon fill="midnightblue" stroke="midnightblue" points="420.29,-73.86 409.7,-74.14 418.15,-80.53 420.29,-73.86"/>
</g>
<!-- Node13&#45;&gt;Node8 -->
<g id="edge21" class="edge">
<title>Node13&#45;&gt;Node8</title>
<path fill="none" stroke="midnightblue" d="M542.49,-112.32C529.97,-103.98 510.82,-91.21 496.03,-81.35"/>
<polygon fill="midnightblue" stroke="midnightblue" points="497.74,-78.29 487.48,-75.65 493.86,-84.11 497.74,-78.29"/>
</g>
<!-- Node14 -->
<g id="node14" class="node">
<title>Node14</title>
<g id="a_node14"><a xlink:href="DebuggableError_8hpp.html" target="_top" xlink:title=" ">
<polygon fill="white" stroke="black" points="664,-56.5 664,-75.5 783,-75.5 783,-56.5 664,-56.5"/>
<text text-anchor="middle" x="723.5" y="-63.5" font-family="Helvetica,sans-Serif" font-size="10.00">DebuggableError.hpp</text>
</a>
</g>
</g>
<!-- Node13&#45;&gt;Node14 -->
<g id="edge19" class="edge">
<title>Node13&#45;&gt;Node14</title>
<path fill="none" stroke="midnightblue" d="M582.12,-112.44C610.51,-103.32 655.64,-88.81 687.25,-78.65"/>
<polygon fill="midnightblue" stroke="midnightblue" points="688.56,-81.91 697,-75.52 686.41,-75.24 688.56,-81.91"/>
</g>
<!-- Node16 -->
<g id="node16" class="node">
<title>Node16</title>
<g id="a_node16"><a xlink:title=" ">
<polygon fill="white" stroke="#bfbfbf" points="801,-56.5 801,-75.5 866,-75.5 866,-56.5 801,-56.5"/>
<text text-anchor="middle" x="833.5" y="-63.5" font-family="Helvetica,sans-Serif" font-size="10.00">exception</text>
</a>
</g>
</g>
<!-- Node13&#45;&gt;Node16 -->
<g id="edge22" class="edge">
<title>Node13&#45;&gt;Node16</title>
<path fill="none" stroke="midnightblue" d="M602.79,-112.43C648.53,-104.05 720.07,-90.7 790.86,-76.3"/>
<polygon fill="midnightblue" stroke="midnightblue" points="791.75,-79.69 800.84,-74.26 790.35,-72.83 791.75,-79.69"/>
</g>
<!-- Node17 -->
<g id="node17" class="node">
<title>Node17</title>
<g id="a_node17"><a xlink:title=" ">
<polygon fill="white" stroke="#bfbfbf" points="540,-56.5 540,-75.5 571,-75.5 571,-56.5 540,-56.5"/>
<text text-anchor="middle" x="555.5" y="-63.5" font-family="Helvetica,sans-Serif" font-size="10.00">ios</text>
</a>
</g>
</g>
<!-- Node13&#45;&gt;Node17 -->
<g id="edge23" class="edge">
<title>Node13&#45;&gt;Node17</title>
<path fill="none" stroke="midnightblue" d="M555.5,-112.08C555.5,-105.01 555.5,-94.86 555.5,-85.99"/>
<polygon fill="midnightblue" stroke="midnightblue" points="559,-85.75 555.5,-75.75 552,-85.75 559,-85.75"/>
</g>
<!-- Node18 -->
<g id="node18" class="node">
<title>Node18</title>
<g id="a_node18"><a xlink:title=" ">
<polygon fill="white" stroke="#bfbfbf" points="589.5,-56.5 589.5,-75.5 645.5,-75.5 645.5,-56.5 589.5,-56.5"/>
<text text-anchor="middle" x="617.5" y="-63.5" font-family="Helvetica,sans-Serif" font-size="10.00">sstream</text>
</a>
</g>
</g>
<!-- Node13&#45;&gt;Node18 -->
<g id="edge24" class="edge">
<title>Node13&#45;&gt;Node18</title>
<path fill="none" stroke="midnightblue" d="M565.46,-112.32C574.63,-104.34 588.44,-92.31 599.53,-82.65"/>
<polygon fill="midnightblue" stroke="midnightblue" points="602.12,-85.04 607.36,-75.83 597.52,-79.76 602.12,-85.04"/>
</g>
<!-- Node15 -->
<g id="node15" class="node">
<title>Node15</title>
<g id="a_node15"><a xlink:title=" ">
<polygon fill="white" stroke="#bfbfbf" points="676,-0.5 676,-19.5 771,-19.5 771,-0.5 676,-0.5"/>
<text text-anchor="middle" x="723.5" y="-7.5" font-family="Helvetica,sans-Serif" font-size="10.00">bits/exception.h</text>
</a>
</g>
</g>
<!-- Node14&#45;&gt;Node15 -->
<g id="edge20" class="edge">
<title>Node14&#45;&gt;Node15</title>
<path fill="none" stroke="midnightblue" d="M723.5,-56.08C723.5,-49.01 723.5,-38.86 723.5,-29.99"/>
<polygon fill="midnightblue" stroke="midnightblue" points="727,-29.75 723.5,-19.75 720,-29.75 727,-29.75"/>
</g>
</g>
</svg>
