<?xml version="1.0" encoding="UTF-8" standalone="no"?>
<!DOCTYPE svg PUBLIC "-//W3C//DTD SVG 1.1//EN"
 "http://www.w3.org/Graphics/SVG/1.1/DTD/svg11.dtd">
<!-- Generated by graphviz version 2.43.0 (0)
 -->
<!-- Title: sources/Renderer/IRenderer.hpp Pages: 1 -->
<svg width="180pt" height="84pt"
 viewBox="0.00 0.00 180.00 84.00" xmlns="http://www.w3.org/2000/svg" xmlns:xlink="http://www.w3.org/1999/xlink">
<g id="graph0" class="graph" transform="scale(1 1) rotate(0) translate(4 80)">
<title>sources/Renderer/IRenderer.hpp</title>
<polygon fill="white" stroke="transparent" points="-4,4 -4,-80 176,-80 176,4 -4,4"/>
<!-- Node1 -->
<g id="node1" class="node">
<title>Node1</title>
<g id="a_node1"><a xlink:title=" ">
<polygon fill="#bfbfbf" stroke="black" points="0,-56.5 0,-75.5 172,-75.5 172,-56.5 0,-56.5"/>
<text text-anchor="middle" x="86" y="-63.5" font-family="Helvetica,sans-Serif" font-size="10.00">sources/Renderer/IRenderer.hpp</text>
</a>
</g>
</g>
<!-- Node2 -->
<g id="node2" class="node">
<title>Node2</title>
<g id="a_node2"><a xlink:title=" ">
<polygon fill="white" stroke="#bfbfbf" points="34,-0.5 34,-19.5 78,-19.5 78,-0.5 34,-0.5"/>
<text text-anchor="middle" x="56" y="-7.5" font-family="Helvetica,sans-Serif" font-size="10.00">string</text>
</a>
</g>
</g>
<!-- Node1&#45;&gt;Node2 -->
<g id="edge1" class="edge">
<title>Node1&#45;&gt;Node2</title>
<path fill="none" stroke="midnightblue" d="M81.05,-56.08C76.9,-48.61 70.85,-37.72 65.73,-28.52"/>
<polygon fill="midnightblue" stroke="midnightblue" points="68.78,-26.79 60.86,-19.75 62.66,-30.19 68.78,-26.79"/>
</g>
<!-- Node3 -->
<g id="node3" class="node">
<title>Node3</title>
<g id="a_node3"><a xlink:title=" ">
<polygon fill="white" stroke="#bfbfbf" points="96,-0.5 96,-19.5 136,-19.5 136,-0.5 96,-0.5"/>
<text text-anchor="middle" x="116" y="-7.5" font-family="Helvetica,sans-Serif" font-size="10.00">span</text>
</a>
</g>
</g>
<!-- Node1&#45;&gt;Node3 -->
<g id="edge2" class="edge">
<title>Node1&#45;&gt;Node3</title>
<path fill="none" stroke="midnightblue" d="M90.95,-56.08C95.1,-48.61 101.15,-37.72 106.27,-28.52"/>
<polygon fill="midnightblue" stroke="midnightblue" points="109.34,-30.19 111.14,-19.75 103.22,-26.79 109.34,-30.19"/>
</g>
</g>
</svg>
