<?xml version="1.0" encoding="UTF-8" standalone="no"?>
<!DOCTYPE svg PUBLIC "-//W3C//DTD SVG 1.1//EN"
 "http://www.w3.org/Graphics/SVG/1.1/DTD/svg11.dtd">
<!-- Generated by graphviz version 2.43.0 (0)
 -->
<!-- Title: sources/Renderer/IRenderer.hpp Pages: 1 -->
<svg width="4503pt" height="285pt"
 viewBox="0.00 0.00 4502.50 285.00" xmlns="http://www.w3.org/2000/svg" xmlns:xlink="http://www.w3.org/1999/xlink">
<g id="graph0" class="graph" transform="scale(1 1) rotate(0) translate(4 281)">
<title>sources/Renderer/IRenderer.hpp</title>
<polygon fill="white" stroke="transparent" points="-4,4 -4,-281 4498.5,-281 4498.5,4 -4,4"/>
<!-- Node1 -->
<g id="node1" class="node">
<title>Node1</title>
<g id="a_node1"><a xlink:title=" ">
<polygon fill="#bfbfbf" stroke="black" points="3462,-257.5 3462,-276.5 3634,-276.5 3634,-257.5 3462,-257.5"/>
<text text-anchor="middle" x="3548" y="-264.5" font-family="Helvetica,sans-Serif" font-size="10.00">sources/Renderer/IRenderer.hpp</text>
</a>
</g>
</g>
<!-- Node2 -->
<g id="node2" class="node">
<title>Node2</title>
<g id="a_node2"><a xlink:href="DSP_8hpp.html" target="_top" xlink:title=" ">
<polygon fill="white" stroke="black" points="2889,-201.5 2889,-220.5 3031,-220.5 3031,-201.5 2889,-201.5"/>
<text text-anchor="middle" x="2960" y="-208.5" font-family="Helvetica,sans-Serif" font-size="10.00">sources/APU/DSP/DSP.hpp</text>
</a>
</g>
</g>
<!-- Node1&#45;&gt;Node2 -->
<g id="edge1" class="edge">
<title>Node1&#45;&gt;Node2</title>
<path fill="none" stroke="midnightblue" d="M3451.75,-257.16C3333.7,-246.32 3136.33,-228.19 3031.12,-218.53"/>
<polygon fill="midnightblue" stroke="midnightblue" points="3451.59,-260.66 3461.87,-258.09 3452.23,-253.69 3451.59,-260.66"/>
</g>
<!-- Node3 -->
<g id="node3" class="node">
<title>Node3</title>
<g id="a_node3"><a xlink:href="APU_8hpp.html" target="_top" xlink:title=" ">
<polygon fill="white" stroke="black" points="1979,-140 1979,-159 2101,-159 2101,-140 1979,-140"/>
<text text-anchor="middle" x="2040" y="-147" font-family="Helvetica,sans-Serif" font-size="10.00">sources/APU/APU.hpp</text>
</a>
</g>
</g>
<!-- Node1&#45;&gt;Node3 -->
<g id="edge45" class="edge">
<title>Node1&#45;&gt;Node3</title>
<path fill="none" stroke="midnightblue" d="M3451.45,-260C3321.53,-251.8 3083.27,-236.38 2880,-221 2588.14,-198.92 2239.62,-168.31 2101.1,-155.98"/>
<polygon fill="midnightblue" stroke="midnightblue" points="3451.56,-263.51 3461.76,-260.65 3452,-256.52 3451.56,-263.51"/>
</g>
<!-- Node24 -->
<g id="node24" class="node">
<title>Node24</title>
<g id="a_node24"><a xlink:href="SNES_8hpp.html" target="_top" xlink:title=" ">
<polygon fill="white" stroke="red" points="3178,-73 3178,-92 3282,-92 3282,-73 3178,-73"/>
<text text-anchor="middle" x="3230" y="-80" font-family="Helvetica,sans-Serif" font-size="10.00">sources/SNES.hpp</text>
</a>
</g>
</g>
<!-- Node1&#45;&gt;Node24 -->
<g id="edge65" class="edge">
<title>Node1&#45;&gt;Node24</title>
<path fill="none" stroke="midnightblue" d="M3545.52,-247.14C3540.63,-218.02 3526.91,-162.49 3491,-134 3420.24,-77.87 3379.41,-116.45 3291,-98 3282.37,-96.2 3273.09,-94.09 3264.44,-92.04"/>
<polygon fill="midnightblue" stroke="midnightblue" points="3542.09,-247.85 3547.03,-257.22 3549.01,-246.81 3542.09,-247.85"/>
</g>
<!-- Node64 -->
<g id="node40" class="node">
<title>Node64</title>
<g id="a_node40"><a xlink:href="PPU_8hpp.html" target="_top" xlink:title=" ">
<polygon fill="white" stroke="black" points="3679,-140 3679,-159 3799,-159 3799,-140 3679,-140"/>
<text text-anchor="middle" x="3739" y="-147" font-family="Helvetica,sans-Serif" font-size="10.00">sources/PPU/PPU.hpp</text>
</a>
</g>
</g>
<!-- Node1&#45;&gt;Node64 -->
<g id="edge46" class="edge">
<title>Node1&#45;&gt;Node64</title>
<path fill="none" stroke="midnightblue" d="M3549.15,-246.78C3551.01,-232.34 3555.81,-213.05 3568,-201 3597.28,-172.05 3642.29,-159.55 3678.78,-154.22"/>
<polygon fill="midnightblue" stroke="midnightblue" points="3545.63,-246.81 3548.19,-257.09 3552.6,-247.46 3545.63,-246.81"/>
</g>
<!-- Node73 -->
<g id="node48" class="node">
<title>Node73</title>
<g id="a_node48"><a xlink:href="QtSFML_8hpp.html" target="_top" xlink:title=" ">
<polygon fill="white" stroke="red" points="3906,-134.5 3906,-164.5 4066,-164.5 4066,-134.5 3906,-134.5"/>
<text text-anchor="start" x="3914" y="-152.5" font-family="Helvetica,sans-Serif" font-size="10.00">sources/Renderer/QtRenderer</text>
<text text-anchor="middle" x="3986" y="-141.5" font-family="Helvetica,sans-Serif" font-size="10.00">/QtSFML.hpp</text>
</a>
</g>
</g>
<!-- Node1&#45;&gt;Node73 -->
<g id="edge66" class="edge">
<title>Node1&#45;&gt;Node73</title>
<path fill="none" stroke="midnightblue" d="M3644.42,-261.34C3760.51,-254.85 3942.98,-241.53 3967,-221 3983.28,-207.08 3986.35,-180.81 3986.55,-164.57"/>
<polygon fill="midnightblue" stroke="midnightblue" points="3643.89,-257.86 3634.1,-261.9 3644.27,-264.85 3643.89,-257.86"/>
</g>
<!-- Node74 -->
<g id="node49" class="node">
<title>Node74</title>
<g id="a_node49"><a xlink:href="NoRenderer_8hpp.html" target="_top" xlink:title=" ">
<polygon fill="white" stroke="red" points="3776,-201.5 3776,-220.5 3958,-220.5 3958,-201.5 3776,-201.5"/>
<text text-anchor="middle" x="3867" y="-208.5" font-family="Helvetica,sans-Serif" font-size="10.00">sources/Renderer/NoRenderer.hpp</text>
</a>
</g>
</g>
<!-- Node1&#45;&gt;Node74 -->
<g id="edge68" class="edge">
<title>Node1&#45;&gt;Node74</title>
<path fill="none" stroke="midnightblue" d="M3608.68,-255.73C3668.97,-245.52 3760.32,-230.06 3816.69,-220.52"/>
<polygon fill="midnightblue" stroke="midnightblue" points="3607.82,-252.32 3598.55,-257.44 3608.99,-259.23 3607.82,-252.32"/>
</g>
<!-- Node76 -->
<g id="node50" class="node">
<title>Node76</title>
<g id="a_node50"><a xlink:href="SFRenderer_8hpp.html" target="_top" xlink:title=" ">
<polygon fill="white" stroke="red" points="3576.5,-201.5 3576.5,-220.5 3757.5,-220.5 3757.5,-201.5 3576.5,-201.5"/>
<text text-anchor="middle" x="3667" y="-208.5" font-family="Helvetica,sans-Serif" font-size="10.00">sources/Renderer/SFRenderer.hpp</text>
</a>
</g>
</g>
<!-- Node1&#45;&gt;Node76 -->
<g id="edge69" class="edge">
<title>Node1&#45;&gt;Node76</title>
<path fill="none" stroke="midnightblue" d="M3576.14,-253.23C3598.4,-243.13 3628.86,-229.31 3648.23,-220.52"/>
<polygon fill="midnightblue" stroke="midnightblue" points="3574.52,-250.12 3566.86,-257.44 3577.41,-256.5 3574.52,-250.12"/>
</g>
<!-- Node2&#45;&gt;Node3 -->
<g id="edge2" class="edge">
<title>Node2&#45;&gt;Node3</title>
<path fill="none" stroke="midnightblue" d="M2878.94,-204.76C2697.48,-193.02 2261.89,-164.85 2101.03,-154.45"/>
<polygon fill="midnightblue" stroke="midnightblue" points="2878.75,-208.25 2888.96,-205.41 2879.2,-201.27 2878.75,-208.25"/>
</g>
<!-- Node5 -->
<g id="node5" class="node">
<title>Node5</title>
<g id="a_node5"><a xlink:href="DSP_8cpp.html" target="_top" xlink:title=" ">
<polygon fill="white" stroke="black" points="2851.5,-73 2851.5,-92 2992.5,-92 2992.5,-73 2851.5,-73"/>
<text text-anchor="middle" x="2922" y="-80" font-family="Helvetica,sans-Serif" font-size="10.00">sources/APU/DSP/DSP.cpp</text>
</a>
</g>
</g>
<!-- Node2&#45;&gt;Node5 -->
<g id="edge39" class="edge">
<title>Node2&#45;&gt;Node5</title>
<path fill="none" stroke="midnightblue" d="M2954.26,-191.77C2951.7,-183.59 2948.67,-173.82 2946,-165 2937.96,-138.46 2928.79,-106.95 2924.48,-92.08"/>
<polygon fill="midnightblue" stroke="midnightblue" points="2950.94,-192.89 2957.28,-201.39 2957.62,-190.8 2950.94,-192.89"/>
</g>
<!-- Node6 -->
<g id="node6" class="node">
<title>Node6</title>
<g id="a_node6"><a xlink:href="Voice_8cpp.html" target="_top" xlink:title=" ">
<polygon fill="white" stroke="black" points="3010.5,-73 3010.5,-92 3159.5,-92 3159.5,-73 3010.5,-73"/>
<text text-anchor="middle" x="3085" y="-80" font-family="Helvetica,sans-Serif" font-size="10.00">sources/APU/DSP/Voice.cpp</text>
</a>
</g>
</g>
<!-- Node2&#45;&gt;Node6 -->
<g id="edge44" class="edge">
<title>Node2&#45;&gt;Node6</title>
<path fill="none" stroke="midnightblue" d="M2960.62,-191.26C2962.08,-174.53 2966.59,-150.25 2980,-134 2997.77,-112.47 3026.89,-99.48 3049.96,-92.07"/>
<polygon fill="midnightblue" stroke="midnightblue" points="2957.11,-191.25 2960.01,-201.44 2964.1,-191.66 2957.11,-191.25"/>
</g>
<!-- Node59 -->
<g id="node35" class="node">
<title>Node59</title>
<g id="a_node35"><a xlink:href="BRR_8cpp.html" target="_top" xlink:title=" ">
<polygon fill="white" stroke="black" points="2988.5,-140 2988.5,-159 3131.5,-159 3131.5,-140 2988.5,-140"/>
<text text-anchor="middle" x="3060" y="-147" font-family="Helvetica,sans-Serif" font-size="10.00">sources/APU/DSP/BRR.cpp</text>
</a>
</g>
</g>
<!-- Node2&#45;&gt;Node59 -->
<g id="edge38" class="edge">
<title>Node2&#45;&gt;Node59</title>
<path fill="none" stroke="midnightblue" d="M2983.12,-196.24C3002.44,-184.75 3029.37,-168.72 3045.7,-159.01"/>
<polygon fill="midnightblue" stroke="midnightblue" points="2981.13,-193.35 2974.33,-201.48 2984.71,-199.37 2981.13,-193.35"/>
</g>
<!-- Node60 -->
<g id="node36" class="node">
<title>Node60</title>
<g id="a_node36"><a xlink:href="Echo_8cpp.html" target="_top" xlink:title=" ">
<polygon fill="white" stroke="black" points="3150,-140 3150,-159 3296,-159 3296,-140 3150,-140"/>
<text text-anchor="middle" x="3223" y="-147" font-family="Helvetica,sans-Serif" font-size="10.00">sources/APU/DSP/Echo.cpp</text>
</a>
</g>
</g>
<!-- Node2&#45;&gt;Node60 -->
<g id="edge40" class="edge">
<title>Node2&#45;&gt;Node60</title>
<path fill="none" stroke="midnightblue" d="M3007.48,-199.26C3058.5,-187.72 3138.55,-169.61 3185.39,-159.01"/>
<polygon fill="midnightblue" stroke="midnightblue" points="3006.66,-195.85 2997.68,-201.48 3008.21,-202.68 3006.66,-195.85"/>
</g>
<!-- Node61 -->
<g id="node37" class="node">
<title>Node61</title>
<g id="a_node37"><a xlink:href="Envelope_8cpp.html" target="_top" xlink:title=" ">
<polygon fill="white" stroke="black" points="3314,-140 3314,-159 3482,-159 3482,-140 3314,-140"/>
<text text-anchor="middle" x="3398" y="-147" font-family="Helvetica,sans-Serif" font-size="10.00">sources/APU/DSP/Envelope.cpp</text>
</a>
</g>
</g>
<!-- Node2&#45;&gt;Node61 -->
<g id="edge41" class="edge">
<title>Node2&#45;&gt;Node61</title>
<path fill="none" stroke="midnightblue" d="M3039.19,-200.24C3109.17,-191.48 3213.96,-178.03 3305,-165 3317.94,-163.15 3331.88,-161.04 3344.92,-159.01"/>
<polygon fill="midnightblue" stroke="midnightblue" points="3038.62,-196.79 3029.13,-201.5 3039.48,-203.73 3038.62,-196.79"/>
</g>
<!-- Node62 -->
<g id="node38" class="node">
<title>Node62</title>
<g id="a_node38"><a xlink:href="Gauss_8cpp.html" target="_top" xlink:title=" ">
<polygon fill="white" stroke="black" points="2571.5,-140 2571.5,-159 2724.5,-159 2724.5,-140 2571.5,-140"/>
<text text-anchor="middle" x="2648" y="-147" font-family="Helvetica,sans-Serif" font-size="10.00">sources/APU/DSP/Gauss.cpp</text>
</a>
</g>
</g>
<!-- Node2&#45;&gt;Node62 -->
<g id="edge42" class="edge">
<title>Node2&#45;&gt;Node62</title>
<path fill="none" stroke="midnightblue" d="M2905.18,-199.55C2844.74,-188.02 2748.65,-169.69 2692.62,-159.01"/>
<polygon fill="midnightblue" stroke="midnightblue" points="2904.82,-203.04 2915.3,-201.48 2906.13,-196.16 2904.82,-203.04"/>
</g>
<!-- Node63 -->
<g id="node39" class="node">
<title>Node63</title>
<g id="a_node39"><a xlink:href="Timer_8cpp.html" target="_top" xlink:title=" ">
<polygon fill="white" stroke="black" points="2742.5,-140 2742.5,-159 2893.5,-159 2893.5,-140 2742.5,-140"/>
<text text-anchor="middle" x="2818" y="-147" font-family="Helvetica,sans-Serif" font-size="10.00">sources/APU/DSP/Timer.cpp</text>
</a>
</g>
</g>
<!-- Node2&#45;&gt;Node63 -->
<g id="edge43" class="edge">
<title>Node2&#45;&gt;Node63</title>
<path fill="none" stroke="midnightblue" d="M2930.12,-197.48C2902.54,-185.92 2862.33,-169.08 2838.31,-159.01"/>
<polygon fill="midnightblue" stroke="midnightblue" points="2929.08,-200.84 2939.65,-201.48 2931.78,-194.38 2929.08,-200.84"/>
</g>
<!-- Node4 -->
<g id="node4" class="node">
<title>Node4</title>
<g id="a_node4"><a xlink:href="APU_8cpp.html" target="_top" xlink:title=" ">
<polygon fill="white" stroke="black" points="2231.5,-73 2231.5,-92 2352.5,-92 2352.5,-73 2231.5,-73"/>
<text text-anchor="middle" x="2292" y="-80" font-family="Helvetica,sans-Serif" font-size="10.00">sources/APU/APU.cpp</text>
</a>
</g>
</g>
<!-- Node3&#45;&gt;Node4 -->
<g id="edge3" class="edge">
<title>Node3&#45;&gt;Node4</title>
<path fill="none" stroke="midnightblue" d="M2083.02,-137.4C2132.75,-124.58 2213.55,-103.74 2258.72,-92.08"/>
<polygon fill="midnightblue" stroke="midnightblue" points="2082.01,-134.05 2073.2,-139.94 2083.76,-140.83 2082.01,-134.05"/>
</g>
<!-- Node3&#45;&gt;Node5 -->
<g id="edge4" class="edge">
<title>Node3&#45;&gt;Node5</title>
<path fill="none" stroke="midnightblue" d="M2111.38,-146.85C2251.91,-142.98 2574.17,-131.01 2843,-98 2855.32,-96.49 2868.62,-94.27 2880.73,-92.03"/>
<polygon fill="midnightblue" stroke="midnightblue" points="2111.08,-143.36 2101.17,-147.13 2111.26,-150.36 2111.08,-143.36"/>
</g>
<!-- Node3&#45;&gt;Node6 -->
<g id="edge5" class="edge">
<title>Node3&#45;&gt;Node6</title>
<path fill="none" stroke="midnightblue" d="M2111.46,-147.69C2271.45,-145.23 2670.47,-135.52 3002,-98 3015.08,-96.52 3029.22,-94.29 3042.06,-92.02"/>
<polygon fill="midnightblue" stroke="midnightblue" points="2111.22,-144.19 2101.27,-147.84 2111.32,-151.19 2111.22,-144.19"/>
</g>
<!-- Node7 -->
<g id="node7" class="node">
<title>Node7</title>
<g id="a_node7"><a xlink:href="16bitArithmetic_8cpp.html" target="_top" xlink:title=" ">
<polygon fill="white" stroke="black" points="2370.5,-67.5 2370.5,-97.5 2507.5,-97.5 2507.5,-67.5 2370.5,-67.5"/>
<text text-anchor="start" x="2378.5" y="-85.5" font-family="Helvetica,sans-Serif" font-size="10.00">sources/APU/Instructions</text>
<text text-anchor="middle" x="2439" y="-74.5" font-family="Helvetica,sans-Serif" font-size="10.00">/16bitArithmetic.cpp</text>
</a>
</g>
</g>
<!-- Node3&#45;&gt;Node7 -->
<g id="edge6" class="edge">
<title>Node3&#45;&gt;Node7</title>
<path fill="none" stroke="midnightblue" d="M2107.82,-138.48C2173.06,-128.7 2274.4,-113.11 2362,-98 2364.68,-97.54 2367.41,-97.06 2370.17,-96.57"/>
<polygon fill="midnightblue" stroke="midnightblue" points="2107.04,-135.06 2097.67,-140 2108.08,-141.98 2107.04,-135.06"/>
</g>
<!-- Node8 -->
<g id="node8" class="node">
<title>Node8</title>
<g id="a_node8"><a xlink:href="16bitDataTransmission_8cpp.html" target="_top" xlink:title=" ">
<polygon fill="white" stroke="black" points="2526,-67.5 2526,-97.5 2678,-97.5 2678,-67.5 2526,-67.5"/>
<text text-anchor="start" x="2534" y="-85.5" font-family="Helvetica,sans-Serif" font-size="10.00">sources/APU/Instructions</text>
<text text-anchor="middle" x="2602" y="-74.5" font-family="Helvetica,sans-Serif" font-size="10.00">/16bitDataTransmission.cpp</text>
</a>
</g>
</g>
<!-- Node3&#45;&gt;Node8 -->
<g id="edge7" class="edge">
<title>Node3&#45;&gt;Node8</title>
<path fill="none" stroke="midnightblue" d="M2111.32,-142.37C2204.73,-134.02 2373.48,-117.82 2517,-98 2519.82,-97.61 2522.69,-97.2 2525.58,-96.77"/>
<polygon fill="midnightblue" stroke="midnightblue" points="2110.79,-138.91 2101.14,-143.28 2111.41,-145.88 2110.79,-138.91"/>
</g>
<!-- Node9 -->
<g id="node9" class="node">
<title>Node9</title>
<g id="a_node9"><a xlink:href="8bitArithmetic_8cpp.html" target="_top" xlink:title=" ">
<polygon fill="white" stroke="black" points="2696.5,-67.5 2696.5,-97.5 2833.5,-97.5 2833.5,-67.5 2696.5,-67.5"/>
<text text-anchor="start" x="2704.5" y="-85.5" font-family="Helvetica,sans-Serif" font-size="10.00">sources/APU/Instructions</text>
<text text-anchor="middle" x="2765" y="-74.5" font-family="Helvetica,sans-Serif" font-size="10.00">/8bitArithmetic.cpp</text>
</a>
</g>
</g>
<!-- Node3&#45;&gt;Node9 -->
<g id="edge8" class="edge">
<title>Node3&#45;&gt;Node9</title>
<path fill="none" stroke="midnightblue" d="M2111.45,-145.4C2230.98,-139.66 2478.87,-125.39 2687,-98 2690,-97.6 2693.07,-97.17 2696.16,-96.71"/>
<polygon fill="midnightblue" stroke="midnightblue" points="2111.15,-141.91 2101.33,-145.88 2111.48,-148.9 2111.15,-141.91"/>
</g>
<!-- Node10 -->
<g id="node10" class="node">
<title>Node10</title>
<g id="a_node10"><a xlink:href="8bitDataTransmission_8cpp.html" target="_top" xlink:title=" ">
<polygon fill="white" stroke="black" points="0,-67.5 0,-97.5 146,-97.5 146,-67.5 0,-67.5"/>
<text text-anchor="start" x="8" y="-85.5" font-family="Helvetica,sans-Serif" font-size="10.00">sources/APU/Instructions</text>
<text text-anchor="middle" x="73" y="-74.5" font-family="Helvetica,sans-Serif" font-size="10.00">/8bitDataTransmission.cpp</text>
</a>
</g>
</g>
<!-- Node3&#45;&gt;Node10 -->
<g id="edge9" class="edge">
<title>Node3&#45;&gt;Node10</title>
<path fill="none" stroke="midnightblue" d="M1968.68,-148C1669.79,-145.71 516.73,-134.62 155,-98 152.12,-97.71 149.2,-97.37 146.24,-97.01"/>
<polygon fill="midnightblue" stroke="midnightblue" points="1968.93,-151.51 1978.95,-148.08 1968.98,-144.51 1968.93,-151.51"/>
</g>
<!-- Node11 -->
<g id="node11" class="node">
<title>Node11</title>
<g id="a_node11"><a xlink:href="8bitIncrementDecrement_8cpp.html" target="_top" xlink:title=" ">
<polygon fill="white" stroke="black" points="164,-67.5 164,-97.5 326,-97.5 326,-67.5 164,-67.5"/>
<text text-anchor="start" x="172" y="-85.5" font-family="Helvetica,sans-Serif" font-size="10.00">sources/APU/Instructions</text>
<text text-anchor="middle" x="245" y="-74.5" font-family="Helvetica,sans-Serif" font-size="10.00">/8bitIncrementDecrement.cpp</text>
</a>
</g>
</g>
<!-- Node3&#45;&gt;Node11 -->
<g id="edge10" class="edge">
<title>Node3&#45;&gt;Node11</title>
<path fill="none" stroke="midnightblue" d="M1968.64,-147.63C1687.99,-143.99 659.7,-128.83 335,-98 332.16,-97.73 329.28,-97.43 326.37,-97.1"/>
<polygon fill="midnightblue" stroke="midnightblue" points="1968.65,-151.13 1978.7,-147.75 1968.74,-144.13 1968.65,-151.13"/>
</g>
<!-- Node12 -->
<g id="node12" class="node">
<title>Node12</title>
<g id="a_node12"><a xlink:href="8bitLogical_8cpp.html" target="_top" xlink:title=" ">
<polygon fill="white" stroke="black" points="344.5,-67.5 344.5,-97.5 481.5,-97.5 481.5,-67.5 344.5,-67.5"/>
<text text-anchor="start" x="352.5" y="-85.5" font-family="Helvetica,sans-Serif" font-size="10.00">sources/APU/Instructions</text>
<text text-anchor="middle" x="413" y="-74.5" font-family="Helvetica,sans-Serif" font-size="10.00">/8bitLogical.cpp</text>
</a>
</g>
</g>
<!-- Node3&#45;&gt;Node12 -->
<g id="edge11" class="edge">
<title>Node3&#45;&gt;Node12</title>
<path fill="none" stroke="midnightblue" d="M1968.63,-147.63C1704.45,-144.19 782.33,-130.09 490,-98 487.3,-97.7 484.54,-97.36 481.77,-96.99"/>
<polygon fill="midnightblue" stroke="midnightblue" points="1968.82,-151.13 1978.86,-147.76 1968.91,-144.13 1968.82,-151.13"/>
</g>
<!-- Node13 -->
<g id="node13" class="node">
<title>Node13</title>
<g id="a_node13"><a xlink:href="8bitShiftRotation_8cpp.html" target="_top" xlink:title=" ">
<polygon fill="white" stroke="black" points="499.5,-67.5 499.5,-97.5 636.5,-97.5 636.5,-67.5 499.5,-67.5"/>
<text text-anchor="start" x="507.5" y="-85.5" font-family="Helvetica,sans-Serif" font-size="10.00">sources/APU/Instructions</text>
<text text-anchor="middle" x="568" y="-74.5" font-family="Helvetica,sans-Serif" font-size="10.00">/8bitShiftRotation.cpp</text>
</a>
</g>
</g>
<!-- Node3&#45;&gt;Node13 -->
<g id="edge12" class="edge">
<title>Node3&#45;&gt;Node13</title>
<path fill="none" stroke="midnightblue" d="M1968.44,-147.33C1721.43,-143.06 905.44,-127.07 645,-98 642.3,-97.7 639.54,-97.36 636.77,-96.98"/>
<polygon fill="midnightblue" stroke="midnightblue" points="1968.67,-150.83 1978.73,-147.51 1968.79,-143.83 1968.67,-150.83"/>
</g>
<!-- Node14 -->
<g id="node14" class="node">
<title>Node14</title>
<g id="a_node14"><a xlink:href="Bit_8cpp.html" target="_top" xlink:title=" ">
<polygon fill="white" stroke="black" points="654.5,-67.5 654.5,-97.5 791.5,-97.5 791.5,-67.5 654.5,-67.5"/>
<text text-anchor="start" x="662.5" y="-85.5" font-family="Helvetica,sans-Serif" font-size="10.00">sources/APU/Instructions</text>
<text text-anchor="middle" x="723" y="-74.5" font-family="Helvetica,sans-Serif" font-size="10.00">/Bit.cpp</text>
</a>
</g>
</g>
<!-- Node3&#45;&gt;Node14 -->
<g id="edge13" class="edge">
<title>Node3&#45;&gt;Node14</title>
<path fill="none" stroke="midnightblue" d="M1968.63,-149.21C1778.17,-150.33 1242.22,-148.37 800,-98 797.3,-97.69 794.55,-97.34 791.77,-96.96"/>
<polygon fill="midnightblue" stroke="midnightblue" points="1968.82,-152.71 1978.79,-149.15 1968.77,-145.71 1968.82,-152.71"/>
</g>
<!-- Node15 -->
<g id="node15" class="node">
<title>Node15</title>
<g id="a_node15"><a xlink:href="DecimalCompensation_8cpp.html" target="_top" xlink:title=" ">
<polygon fill="white" stroke="black" points="809.5,-67.5 809.5,-97.5 960.5,-97.5 960.5,-67.5 809.5,-67.5"/>
<text text-anchor="start" x="817.5" y="-85.5" font-family="Helvetica,sans-Serif" font-size="10.00">sources/APU/Instructions</text>
<text text-anchor="middle" x="885" y="-74.5" font-family="Helvetica,sans-Serif" font-size="10.00">/DecimalCompensation.cpp</text>
</a>
</g>
</g>
<!-- Node3&#45;&gt;Node15 -->
<g id="edge14" class="edge">
<title>Node3&#45;&gt;Node15</title>
<path fill="none" stroke="midnightblue" d="M1968.67,-148.13C1796.49,-146.58 1344.6,-138.64 970,-98 967.02,-97.68 963.99,-97.32 960.94,-96.93"/>
<polygon fill="midnightblue" stroke="midnightblue" points="1968.84,-151.63 1978.87,-148.22 1968.9,-144.63 1968.84,-151.63"/>
</g>
<!-- Node16 -->
<g id="node16" class="node">
<title>Node16</title>
<g id="a_node16"><a xlink:href="MultiplicationDivision_8cpp.html" target="_top" xlink:title=" ">
<polygon fill="white" stroke="black" points="979,-67.5 979,-97.5 1125,-97.5 1125,-67.5 979,-67.5"/>
<text text-anchor="start" x="987" y="-85.5" font-family="Helvetica,sans-Serif" font-size="10.00">sources/APU/Instructions</text>
<text text-anchor="middle" x="1052" y="-74.5" font-family="Helvetica,sans-Serif" font-size="10.00">/MultiplicationDivision.cpp</text>
</a>
</g>
</g>
<!-- Node3&#45;&gt;Node16 -->
<g id="edge15" class="edge">
<title>Node3&#45;&gt;Node16</title>
<path fill="none" stroke="midnightblue" d="M1968.59,-147.41C1815.27,-144.45 1443.39,-133.85 1134,-98 1131.13,-97.67 1128.2,-97.3 1125.25,-96.9"/>
<polygon fill="midnightblue" stroke="midnightblue" points="1968.75,-150.92 1978.81,-147.61 1968.88,-143.92 1968.75,-150.92"/>
</g>
<!-- Node17 -->
<g id="node17" class="node">
<title>Node17</title>
<g id="a_node17"><a xlink:href="ProgramFlow_8cpp.html" target="_top" xlink:title=" ">
<polygon fill="white" stroke="black" points="1143.5,-67.5 1143.5,-97.5 1280.5,-97.5 1280.5,-67.5 1143.5,-67.5"/>
<text text-anchor="start" x="1151.5" y="-85.5" font-family="Helvetica,sans-Serif" font-size="10.00">sources/APU/Instructions</text>
<text text-anchor="middle" x="1212" y="-74.5" font-family="Helvetica,sans-Serif" font-size="10.00">/ProgramFlow.cpp</text>
</a>
</g>
</g>
<!-- Node3&#45;&gt;Node17 -->
<g id="edge16" class="edge">
<title>Node3&#45;&gt;Node17</title>
<path fill="none" stroke="midnightblue" d="M1968.81,-146.53C1835.12,-142.22 1537.57,-129.65 1289,-98 1286.3,-97.66 1283.55,-97.28 1280.78,-96.87"/>
<polygon fill="midnightblue" stroke="midnightblue" points="1968.82,-150.04 1978.92,-146.86 1969.04,-143.04 1968.82,-150.04"/>
</g>
<!-- Node18 -->
<g id="node18" class="node">
<title>Node18</title>
<g id="a_node18"><a xlink:href="ProgramStatusWord_8cpp.html" target="_top" xlink:title=" ">
<polygon fill="white" stroke="black" points="1298.5,-67.5 1298.5,-97.5 1435.5,-97.5 1435.5,-67.5 1298.5,-67.5"/>
<text text-anchor="start" x="1306.5" y="-85.5" font-family="Helvetica,sans-Serif" font-size="10.00">sources/APU/Instructions</text>
<text text-anchor="middle" x="1367" y="-74.5" font-family="Helvetica,sans-Serif" font-size="10.00">/ProgramStatusWord.cpp</text>
</a>
</g>
</g>
<!-- Node3&#45;&gt;Node18 -->
<g id="edge17" class="edge">
<title>Node3&#45;&gt;Node18</title>
<path fill="none" stroke="midnightblue" d="M1968.69,-144.81C1856.62,-138.47 1632.58,-123.68 1444,-98 1441.3,-97.63 1438.56,-97.23 1435.79,-96.81"/>
<polygon fill="midnightblue" stroke="midnightblue" points="1968.68,-148.31 1978.86,-145.37 1969.07,-141.32 1968.68,-148.31"/>
</g>
<!-- Node19 -->
<g id="node19" class="node">
<title>Node19</title>
<g id="a_node19"><a xlink:href="Stack_8cpp.html" target="_top" xlink:title=" ">
<polygon fill="white" stroke="black" points="1453.5,-67.5 1453.5,-97.5 1590.5,-97.5 1590.5,-67.5 1453.5,-67.5"/>
<text text-anchor="start" x="1461.5" y="-85.5" font-family="Helvetica,sans-Serif" font-size="10.00">sources/APU/Instructions</text>
<text text-anchor="middle" x="1522" y="-74.5" font-family="Helvetica,sans-Serif" font-size="10.00">/Stack.cpp</text>
</a>
</g>
</g>
<!-- Node3&#45;&gt;Node19 -->
<g id="edge18" class="edge">
<title>Node3&#45;&gt;Node19</title>
<path fill="none" stroke="midnightblue" d="M1968.76,-141.94C1881.4,-133.52 1728.91,-117.64 1599,-98 1596.31,-97.59 1593.57,-97.16 1590.81,-96.71"/>
<polygon fill="midnightblue" stroke="midnightblue" points="1968.53,-145.43 1978.82,-142.9 1969.2,-138.46 1968.53,-145.43"/>
</g>
<!-- Node20 -->
<g id="node20" class="node">
<title>Node20</title>
<g id="a_node20"><a xlink:href="Standbys_8cpp.html" target="_top" xlink:title=" ">
<polygon fill="white" stroke="black" points="1608.5,-67.5 1608.5,-97.5 1745.5,-97.5 1745.5,-67.5 1608.5,-67.5"/>
<text text-anchor="start" x="1616.5" y="-85.5" font-family="Helvetica,sans-Serif" font-size="10.00">sources/APU/Instructions</text>
<text text-anchor="middle" x="1677" y="-74.5" font-family="Helvetica,sans-Serif" font-size="10.00">/Standbys.cpp</text>
</a>
</g>
</g>
<!-- Node3&#45;&gt;Node20 -->
<g id="edge19" class="edge">
<title>Node3&#45;&gt;Node20</title>
<path fill="none" stroke="midnightblue" d="M1980.56,-138.21C1922.69,-128.14 1832.26,-112.28 1754,-98 1751.32,-97.51 1748.6,-97.01 1745.84,-96.5"/>
<polygon fill="midnightblue" stroke="midnightblue" points="1980.17,-141.69 1990.62,-139.96 1981.37,-134.8 1980.17,-141.69"/>
</g>
<!-- Node21 -->
<g id="node21" class="node">
<title>Node21</title>
<g id="a_node21"><a xlink:href="Subroutine_8cpp.html" target="_top" xlink:title=" ">
<polygon fill="white" stroke="black" points="1763.5,-67.5 1763.5,-97.5 1900.5,-97.5 1900.5,-67.5 1763.5,-67.5"/>
<text text-anchor="start" x="1771.5" y="-85.5" font-family="Helvetica,sans-Serif" font-size="10.00">sources/APU/Instructions</text>
<text text-anchor="middle" x="1832" y="-74.5" font-family="Helvetica,sans-Serif" font-size="10.00">/Subroutine.cpp</text>
</a>
</g>
</g>
<!-- Node3&#45;&gt;Node21 -->
<g id="edge20" class="edge">
<title>Node3&#45;&gt;Node21</title>
<path fill="none" stroke="midnightblue" d="M2002.48,-136.77C1967.21,-125.75 1914.38,-109.24 1876.89,-97.53"/>
<polygon fill="midnightblue" stroke="midnightblue" points="2001.79,-140.23 2012.38,-139.87 2003.88,-133.55 2001.79,-140.23"/>
</g>
<!-- Node22 -->
<g id="node22" class="node">
<title>Node22</title>
<g id="a_node22"><a xlink:href="Operand_8cpp.html" target="_top" xlink:title=" ">
<polygon fill="white" stroke="black" points="1919,-73 1919,-92 2061,-92 2061,-73 1919,-73"/>
<text text-anchor="middle" x="1990" y="-80" font-family="Helvetica,sans-Serif" font-size="10.00">sources/APU/Operand.cpp</text>
</a>
</g>
</g>
<!-- Node3&#45;&gt;Node22 -->
<g id="edge21" class="edge">
<title>Node3&#45;&gt;Node22</title>
<path fill="none" stroke="midnightblue" d="M2027.13,-131.77C2017.38,-119.1 2004.39,-102.2 1996.64,-92.13"/>
<polygon fill="midnightblue" stroke="midnightblue" points="2024.39,-133.94 2033.26,-139.73 2029.93,-129.67 2024.39,-133.94"/>
</g>
<!-- Node23 -->
<g id="node23" class="node">
<title>Node23</title>
<g id="a_node23"><a xlink:href="APUDebug_8cpp.html" target="_top" xlink:title=" ">
<polygon fill="white" stroke="black" points="2006.5,-6 2006.5,-25 2185.5,-25 2185.5,-6 2006.5,-6"/>
<text text-anchor="middle" x="2096" y="-13" font-family="Helvetica,sans-Serif" font-size="10.00">sources/Debugger/APUDebug.cpp</text>
</a>
</g>
</g>
<!-- Node3&#45;&gt;Node23 -->
<g id="edge22" class="edge">
<title>Node3&#45;&gt;Node23</title>
<path fill="none" stroke="midnightblue" d="M2051.49,-131.38C2057.56,-121.84 2064.79,-109.58 2070,-98 2081.45,-72.53 2090.1,-40.52 2093.89,-25.31"/>
<polygon fill="midnightblue" stroke="midnightblue" points="2048.48,-129.6 2045.94,-139.89 2054.34,-133.43 2048.48,-129.6"/>
</g>
<!-- Node3&#45;&gt;Node24 -->
<g id="edge23" class="edge">
<title>Node3&#45;&gt;Node24</title>
<path fill="none" stroke="midnightblue" d="M2111.38,-146.09C2343.01,-138.17 3064.83,-112.58 3169,-98 3178.92,-96.61 3189.59,-94.35 3199.18,-92.02"/>
<polygon fill="midnightblue" stroke="midnightblue" points="2111.25,-142.59 2101.38,-146.43 2111.49,-149.59 2111.25,-142.59"/>
</g>
<!-- Node38 -->
<g id="node28" class="node">
<title>Node38</title>
<g id="a_node28"><a xlink:href="testAPU_8cpp.html" target="_top" xlink:title=" ">
<polygon fill="white" stroke="black" points="2256,-6 2256,-25 2382,-25 2382,-6 2256,-6"/>
<text text-anchor="middle" x="2319" y="-13" font-family="Helvetica,sans-Serif" font-size="10.00">tests/APU/testAPU.cpp</text>
</a>
</g>
</g>
<!-- Node3&#45;&gt;Node38 -->
<g id="edge35" class="edge">
<title>Node3&#45;&gt;Node38</title>
<path fill="none" stroke="midnightblue" d="M2056.99,-133.11C2077.78,-115 2114.71,-85.1 2151,-67 2191.47,-46.81 2241.52,-33.05 2276.42,-25.06"/>
<polygon fill="midnightblue" stroke="midnightblue" points="2054.52,-130.61 2049.36,-139.86 2059.16,-135.86 2054.52,-130.61"/>
</g>
<!-- Node40 -->
<g id="node29" class="node">
<title>Node40</title>
<g id="a_node29"><a xlink:href="testAPUInstructions_8cpp.html" target="_top" xlink:title=" ">
<polygon fill="white" stroke="black" points="2426.5,-6 2426.5,-25 2609.5,-25 2609.5,-6 2426.5,-6"/>
<text text-anchor="middle" x="2518" y="-13" font-family="Helvetica,sans-Serif" font-size="10.00">tests/APU/testAPUInstructions.cpp</text>
</a>
</g>
</g>
<!-- Node3&#45;&gt;Node40 -->
<g id="edge36" class="edge">
<title>Node3&#45;&gt;Node40</title>
<path fill="none" stroke="midnightblue" d="M2067.67,-135.67C2088.21,-125.91 2116.75,-111.84 2141,-98 2163.06,-85.41 2165.26,-76.01 2189,-67 2213.14,-57.83 2363.97,-36.85 2452.8,-25.02"/>
<polygon fill="midnightblue" stroke="midnightblue" points="2066.12,-132.54 2058.56,-139.97 2069.1,-138.87 2066.12,-132.54"/>
</g>
<!-- Node41 -->
<g id="node30" class="node">
<title>Node41</title>
<g id="a_node30"><a xlink:href="testOperand_8cpp.html" target="_top" xlink:title=" ">
<polygon fill="white" stroke="black" points="2640.5,-6 2640.5,-25 2787.5,-25 2787.5,-6 2640.5,-6"/>
<text text-anchor="middle" x="2714" y="-13" font-family="Helvetica,sans-Serif" font-size="10.00">tests/APU/testOperand.cpp</text>
</a>
</g>
</g>
<!-- Node3&#45;&gt;Node41 -->
<g id="edge37" class="edge">
<title>Node3&#45;&gt;Node41</title>
<path fill="none" stroke="midnightblue" d="M2080.13,-137.04C2108.55,-128.18 2147.14,-114.63 2179,-98 2200.21,-86.93 2200.55,-75.25 2223,-67 2388.88,-6.03 2443.57,-52.34 2619,-31 2632.91,-29.31 2647.92,-27.16 2661.81,-25.05"/>
<polygon fill="midnightblue" stroke="midnightblue" points="2079.07,-133.7 2070.53,-139.97 2081.12,-140.39 2079.07,-133.7"/>
</g>
<!-- Node24&#45;&gt;Node23 -->
<g id="edge24" class="edge">
<title>Node24&#45;&gt;Node23</title>
<path fill="none" stroke="midnightblue" d="M3188.98,-70.6C3182.34,-69.17 3175.51,-67.89 3169,-67 2762.71,-11.32 2656.16,-58.61 2247,-31 2223.88,-29.44 2198.81,-27.24 2175.86,-25.02"/>
<polygon fill="midnightblue" stroke="midnightblue" points="3188.66,-74.12 3199.19,-72.95 3190.23,-67.3 3188.66,-74.12"/>
</g>
<!-- Node25 -->
<g id="node25" class="node">
<title>Node25</title>
<g id="a_node25"><a xlink:href="CGramDebug_8cpp.html" target="_top" xlink:title=" ">
<polygon fill="white" stroke="black" points="2958.5,-6 2958.5,-25 3151.5,-25 3151.5,-6 2958.5,-6"/>
<text text-anchor="middle" x="3055" y="-13" font-family="Helvetica,sans-Serif" font-size="10.00">sources/Debugger/CGramDebug.cpp</text>
</a>
</g>
</g>
<!-- Node24&#45;&gt;Node25 -->
<g id="edge25" class="edge">
<title>Node24&#45;&gt;Node25</title>
<path fill="none" stroke="midnightblue" d="M3197.07,-69.27C3162.34,-56.37 3108.51,-36.38 3078.06,-25.06"/>
<polygon fill="midnightblue" stroke="midnightblue" points="3196.17,-72.67 3206.76,-72.87 3198.61,-66.11 3196.17,-72.67"/>
</g>
<!-- Node26 -->
<g id="node26" class="node">
<title>Node26</title>
<g id="a_node26"><a xlink:href="CPUDebug_8cpp.html" target="_top" xlink:title=" ">
<polygon fill="white" stroke="black" points="2812,-0.5 2812,-30.5 2940,-30.5 2940,-0.5 2812,-0.5"/>
<text text-anchor="start" x="2820" y="-18.5" font-family="Helvetica,sans-Serif" font-size="10.00">sources/Debugger/CPU</text>
<text text-anchor="middle" x="2876" y="-7.5" font-family="Helvetica,sans-Serif" font-size="10.00">/CPUDebug.cpp</text>
</a>
</g>
</g>
<!-- Node24&#45;&gt;Node26 -->
<g id="edge26" class="edge">
<title>Node24&#45;&gt;Node26</title>
<path fill="none" stroke="midnightblue" d="M3185.85,-70.62C3180.19,-69.34 3174.47,-68.1 3169,-67 3072.29,-47.58 3047.08,-48.49 2950,-31 2946.78,-30.42 2943.48,-29.81 2940.15,-29.19"/>
<polygon fill="midnightblue" stroke="midnightblue" points="3185.36,-74.1 3195.9,-72.95 3186.94,-67.28 3185.36,-74.1"/>
</g>
<!-- Node32 -->
<g id="node27" class="node">
<title>Node32</title>
<g id="a_node27"><a xlink:href="TileViewer_8cpp.html" target="_top" xlink:title=" ">
<polygon fill="white" stroke="black" points="3961.5,-0.5 3961.5,-30.5 4120.5,-30.5 4120.5,-0.5 3961.5,-0.5"/>
<text text-anchor="start" x="3969.5" y="-18.5" font-family="Helvetica,sans-Serif" font-size="10.00">sources/Debugger/TileViewer</text>
<text text-anchor="middle" x="4041" y="-7.5" font-family="Helvetica,sans-Serif" font-size="10.00">/TileViewer.cpp</text>
</a>
</g>
</g>
<!-- Node24&#45;&gt;Node32 -->
<g id="edge27" class="edge">
<title>Node24&#45;&gt;Node32</title>
<path fill="none" stroke="midnightblue" d="M3271.47,-70.65C3277.97,-69.24 3284.64,-67.95 3291,-67 3536.77,-30.13 3601.09,-48.36 3849,-31 3885.85,-28.42 3926.66,-25.37 3961.14,-22.73"/>
<polygon fill="midnightblue" stroke="midnightblue" points="3270.43,-67.3 3261.46,-72.95 3271.99,-74.12 3270.43,-67.3"/>
</g>
<!-- Node24&#45;&gt;Node38 -->
<g id="edge28" class="edge">
<title>Node24&#45;&gt;Node38</title>
<path fill="none" stroke="midnightblue" d="M3188.76,-70.61C3182.19,-69.19 3175.44,-67.91 3169,-67 2838.14,-20.16 2750.6,-63.25 2418,-31 2402.53,-29.5 2385.77,-27.28 2370.52,-25.02"/>
<polygon fill="midnightblue" stroke="midnightblue" points="3188.34,-74.1 3198.87,-72.92 3189.9,-67.28 3188.34,-74.1"/>
</g>
<!-- Node24&#45;&gt;Node40 -->
<g id="edge29" class="edge">
<title>Node24&#45;&gt;Node40</title>
<path fill="none" stroke="midnightblue" d="M3188.53,-70.67C3182.03,-69.25 3175.36,-67.96 3169,-67 2932.49,-31.22 2870.08,-54.1 2632,-31 2615.02,-29.35 2596.67,-27.19 2579.75,-25.04"/>
<polygon fill="midnightblue" stroke="midnightblue" points="3188.01,-74.14 3198.54,-72.96 3189.57,-67.32 3188.01,-74.14"/>
</g>
<!-- Node24&#45;&gt;Node41 -->
<g id="edge30" class="edge">
<title>Node24&#45;&gt;Node41</title>
<path fill="none" stroke="midnightblue" d="M3187.4,-70.6C3181.25,-69.25 3174.98,-68 3169,-67 3007.79,-40.04 2965.08,-52.15 2803,-31 2789.96,-29.3 2775.9,-27.15 2762.88,-25.04"/>
<polygon fill="midnightblue" stroke="midnightblue" points="3187.03,-74.11 3197.56,-72.93 3188.59,-67.28 3187.03,-74.11"/>
</g>
<!-- Node53 -->
<g id="node31" class="node">
<title>Node53</title>
<g id="a_node31"><a xlink:href="testBackground_8cpp.html" target="_top" xlink:title=" ">
<polygon fill="white" stroke="black" points="3342.5,-6 3342.5,-25 3505.5,-25 3505.5,-6 3342.5,-6"/>
<text text-anchor="middle" x="3424" y="-13" font-family="Helvetica,sans-Serif" font-size="10.00">tests/PPU/testBackground.cpp</text>
</a>
</g>
</g>
<!-- Node24&#45;&gt;Node53 -->
<g id="edge31" class="edge">
<title>Node24&#45;&gt;Node53</title>
<path fill="none" stroke="midnightblue" d="M3265.51,-69.6C3303.98,-56.71 3364.39,-36.47 3398.44,-25.06"/>
<polygon fill="midnightblue" stroke="midnightblue" points="3264.13,-66.37 3255.76,-72.87 3266.36,-73.01 3264.13,-66.37"/>
</g>
<!-- Node54 -->
<g id="node32" class="node">
<title>Node54</title>
<g id="a_node32"><a xlink:href="testPpuRead_8cpp.html" target="_top" xlink:title=" ">
<polygon fill="white" stroke="black" points="3524,-6 3524,-25 3672,-25 3672,-6 3524,-6"/>
<text text-anchor="middle" x="3598" y="-13" font-family="Helvetica,sans-Serif" font-size="10.00">tests/PPU/testPpuRead.cpp</text>
</a>
</g>
</g>
<!-- Node24&#45;&gt;Node54 -->
<g id="edge32" class="edge">
<title>Node24&#45;&gt;Node54</title>
<path fill="none" stroke="midnightblue" d="M3273.94,-70.65C3279.66,-69.35 3285.46,-68.1 3291,-67 3389.9,-47.33 3415.56,-47.68 3515,-31 3526.25,-29.11 3538.35,-27.03 3549.74,-25.05"/>
<polygon fill="midnightblue" stroke="midnightblue" points="3272.73,-67.33 3263.78,-73 3274.31,-74.15 3272.73,-67.33"/>
</g>
<!-- Node55 -->
<g id="node33" class="node">
<title>Node55</title>
<g id="a_node33"><a xlink:href="testPpuWrite_8cpp.html" target="_top" xlink:title=" ">
<polygon fill="white" stroke="black" points="3690.5,-6 3690.5,-25 3839.5,-25 3839.5,-6 3690.5,-6"/>
<text text-anchor="middle" x="3765" y="-13" font-family="Helvetica,sans-Serif" font-size="10.00">tests/PPU/testPpuWrite.cpp</text>
</a>
</g>
</g>
<!-- Node24&#45;&gt;Node55 -->
<g id="edge33" class="edge">
<title>Node24&#45;&gt;Node55</title>
<path fill="none" stroke="midnightblue" d="M3271.93,-70.71C3278.29,-69.32 3284.8,-68.02 3291,-67 3462.77,-38.8 3508.43,-53.82 3681,-31 3693.47,-29.35 3706.92,-27.2 3719.32,-25.06"/>
<polygon fill="midnightblue" stroke="midnightblue" points="3271.08,-67.32 3262.12,-72.97 3272.65,-74.14 3271.08,-67.32"/>
</g>
<!-- Node56 -->
<g id="node34" class="node">
<title>Node56</title>
<g id="a_node34"><a xlink:href="testPpuWriteFromVmain_8cpp.html" target="_top" xlink:title=" ">
<polygon fill="white" stroke="black" points="3170,-0.5 3170,-30.5 3324,-30.5 3324,-0.5 3170,-0.5"/>
<text text-anchor="start" x="3178" y="-18.5" font-family="Helvetica,sans-Serif" font-size="10.00">tests/PPU/testPpuWriteFrom</text>
<text text-anchor="middle" x="3247" y="-7.5" font-family="Helvetica,sans-Serif" font-size="10.00">Vmain.cpp</text>
</a>
</g>
</g>
<!-- Node24&#45;&gt;Node56 -->
<g id="edge34" class="edge">
<title>Node24&#45;&gt;Node56</title>
<path fill="none" stroke="midnightblue" d="M3234.91,-62.74C3237.59,-52.49 3240.85,-40 3243.32,-30.59"/>
<polygon fill="midnightblue" stroke="midnightblue" points="3231.44,-62.17 3232.29,-72.73 3238.21,-63.94 3231.44,-62.17"/>
</g>
<!-- Node64&#45;&gt;Node24 -->
<g id="edge52" class="edge">
<title>Node64&#45;&gt;Node24</title>
<path fill="none" stroke="midnightblue" d="M3668.7,-143.23C3580.16,-135.98 3423.58,-121.14 3291,-98 3281.78,-96.39 3271.87,-94.23 3262.77,-92.06"/>
<polygon fill="midnightblue" stroke="midnightblue" points="3668.64,-146.73 3678.89,-144.05 3669.2,-139.76 3668.64,-146.73"/>
</g>
<!-- Node64&#45;&gt;Node32 -->
<g id="edge51" class="edge">
<title>Node64&#45;&gt;Node32</title>
<path fill="none" stroke="midnightblue" d="M3809.46,-142.27C3877.18,-135.02 3973.45,-121.01 4003,-98 4024.55,-81.21 4034.4,-49.29 4038.47,-30.77"/>
<polygon fill="midnightblue" stroke="midnightblue" points="3808.85,-138.81 3799.27,-143.33 3809.58,-145.78 3808.85,-138.81"/>
</g>
<!-- Node64&#45;&gt;Node53 -->
<g id="edge61" class="edge">
<title>Node64&#45;&gt;Node53</title>
<path fill="none" stroke="midnightblue" d="M3708.72,-136.04C3684.02,-125.85 3648.23,-111.06 3617,-98 3553.91,-71.62 3479.4,-40.03 3444.26,-25.11"/>
<polygon fill="midnightblue" stroke="midnightblue" points="3707.68,-139.39 3718.26,-139.97 3710.35,-132.92 3707.68,-139.39"/>
</g>
<!-- Node64&#45;&gt;Node54 -->
<g id="edge62" class="edge">
<title>Node64&#45;&gt;Node54</title>
<path fill="none" stroke="midnightblue" d="M3705.68,-136.04C3686.27,-127.54 3662.29,-114.77 3645,-98 3622.49,-76.16 3607.31,-41.24 3601.12,-25.14"/>
<polygon fill="midnightblue" stroke="midnightblue" points="3704.49,-139.34 3715.07,-139.98 3707.2,-132.88 3704.49,-139.34"/>
</g>
<!-- Node64&#45;&gt;Node55 -->
<g id="edge63" class="edge">
<title>Node64&#45;&gt;Node55</title>
<path fill="none" stroke="midnightblue" d="M3701.5,-135.9C3684.08,-127.94 3665.04,-115.75 3655,-98 3648.22,-86.01 3647.56,-78.6 3655,-67 3669.35,-44.62 3696.38,-32.03 3720.05,-25.02"/>
<polygon fill="midnightblue" stroke="midnightblue" points="3700.37,-139.22 3710.94,-139.89 3703.09,-132.77 3700.37,-139.22"/>
</g>
<!-- Node64&#45;&gt;Node56 -->
<g id="edge64" class="edge">
<title>Node64&#45;&gt;Node56</title>
<path fill="none" stroke="midnightblue" d="M3670.92,-138.02C3632.08,-130.34 3583.26,-117.73 3543,-98 3522.8,-88.1 3523.47,-76.32 3503,-67 3486.76,-59.61 3393.61,-42.2 3324.32,-29.89"/>
<polygon fill="midnightblue" stroke="midnightblue" points="3670.61,-141.53 3681.08,-139.97 3671.92,-134.65 3670.61,-141.53"/>
</g>
<!-- Node65 -->
<g id="node41" class="node">
<title>Node65</title>
<g id="a_node41"><a xlink:href="CGramDebug_8hpp.html" target="_top" xlink:title=" ">
<polygon fill="white" stroke="black" points="3300,-73 3300,-92 3494,-92 3494,-73 3300,-73"/>
<text text-anchor="middle" x="3397" y="-80" font-family="Helvetica,sans-Serif" font-size="10.00">sources/Debugger/CGramDebug.hpp</text>
</a>
</g>
</g>
<!-- Node64&#45;&gt;Node65 -->
<g id="edge47" class="edge">
<title>Node64&#45;&gt;Node65</title>
<path fill="none" stroke="midnightblue" d="M3683.95,-138.04C3616.68,-125.25 3504.17,-103.87 3441.89,-92.03"/>
<polygon fill="midnightblue" stroke="midnightblue" points="3683.46,-141.51 3693.94,-139.94 3684.77,-134.63 3683.46,-141.51"/>
</g>
<!-- Node66 -->
<g id="node42" class="node">
<title>Node66</title>
<g id="a_node42"><a xlink:href="TileViewer_8hpp.html" target="_top" xlink:title=" ">
<polygon fill="white" stroke="black" points="4049.5,-67.5 4049.5,-97.5 4208.5,-97.5 4208.5,-67.5 4049.5,-67.5"/>
<text text-anchor="start" x="4057.5" y="-85.5" font-family="Helvetica,sans-Serif" font-size="10.00">sources/Debugger/TileViewer</text>
<text text-anchor="middle" x="4129" y="-74.5" font-family="Helvetica,sans-Serif" font-size="10.00">/TileViewer.hpp</text>
</a>
</g>
</g>
<!-- Node64&#45;&gt;Node66 -->
<g id="edge49" class="edge">
<title>Node64&#45;&gt;Node66</title>
<path fill="none" stroke="midnightblue" d="M3800.41,-138.26C3867.66,-127.06 3975.72,-109.05 4049.42,-96.76"/>
<polygon fill="midnightblue" stroke="midnightblue" points="3799.68,-134.84 3790.39,-139.94 3800.83,-141.74 3799.68,-134.84"/>
</g>
<!-- Node67 -->
<g id="node43" class="node">
<title>Node67</title>
<g id="a_node43"><a xlink:href="Background_8hpp.html" target="_top" xlink:title=" ">
<polygon fill="white" stroke="black" points="4264,-73 4264,-92 4422,-92 4422,-73 4264,-73"/>
<text text-anchor="middle" x="4343" y="-80" font-family="Helvetica,sans-Serif" font-size="10.00">sources/PPU/Background.hpp</text>
</a>
</g>
</g>
<!-- Node64&#45;&gt;Node67 -->
<g id="edge53" class="edge">
<title>Node64&#45;&gt;Node67</title>
<path fill="none" stroke="midnightblue" d="M3809.05,-141.56C3926.69,-130.34 4158.83,-108.46 4241,-98 4254.45,-96.29 4268.96,-94.16 4282.73,-92.07"/>
<polygon fill="midnightblue" stroke="midnightblue" points="3808.68,-138.07 3799.06,-142.51 3809.34,-145.04 3808.68,-138.07"/>
</g>
<!-- Node68 -->
<g id="node44" class="node">
<title>Node68</title>
<g id="a_node44"><a xlink:href="Background_8cpp.html" target="_top" xlink:title=" ">
<polygon fill="white" stroke="black" points="4171,-6 4171,-25 4329,-25 4329,-6 4171,-6"/>
<text text-anchor="middle" x="4250" y="-13" font-family="Helvetica,sans-Serif" font-size="10.00">sources/PPU/Background.cpp</text>
</a>
</g>
</g>
<!-- Node64&#45;&gt;Node68 -->
<g id="edge57" class="edge">
<title>Node64&#45;&gt;Node68</title>
<path fill="none" stroke="midnightblue" d="M3809.35,-142.03C3940.52,-129.83 4209.96,-104.13 4218,-98 4241.58,-80.04 4247.81,-42.15 4249.43,-25.12"/>
<polygon fill="midnightblue" stroke="midnightblue" points="3809.02,-138.54 3799.39,-142.95 3809.67,-145.51 3809.02,-138.54"/>
</g>
<!-- Node69 -->
<g id="node45" class="node">
<title>Node69</title>
<g id="a_node45"><a xlink:href="PPU_8cpp.html" target="_top" xlink:title=" ">
<polygon fill="white" stroke="black" points="4375.5,-6 4375.5,-25 4494.5,-25 4494.5,-6 4375.5,-6"/>
<text text-anchor="middle" x="4435" y="-13" font-family="Helvetica,sans-Serif" font-size="10.00">sources/PPU/PPU.cpp</text>
</a>
</g>
</g>
<!-- Node64&#45;&gt;Node69 -->
<g id="edge58" class="edge">
<title>Node64&#45;&gt;Node69</title>
<path fill="none" stroke="midnightblue" d="M3809.61,-141.65C3836.9,-139.1 3868.39,-136.28 3897,-134 3956.28,-129.28 4389.34,-140.43 4431,-98 4450.25,-78.39 4442.62,-41.7 4437.8,-25.07"/>
<polygon fill="midnightblue" stroke="midnightblue" points="3809,-138.19 3799.37,-142.61 3809.65,-145.16 3809,-138.19"/>
</g>
<!-- Node70 -->
<g id="node46" class="node">
<title>Node70</title>
<g id="a_node46"><a xlink:href="PpuDebug_8hpp.html" target="_top" xlink:title=" ">
<polygon fill="white" stroke="red" points="3664,-73 3664,-92 3814,-92 3814,-73 3664,-73"/>
<text text-anchor="middle" x="3739" y="-80" font-family="Helvetica,sans-Serif" font-size="10.00">sources/PPU/PpuDebug.hpp</text>
</a>
</g>
</g>
<!-- Node64&#45;&gt;Node70 -->
<g id="edge59" class="edge">
<title>Node64&#45;&gt;Node70</title>
<path fill="none" stroke="midnightblue" d="M3739,-129.54C3739,-117.17 3739,-101.62 3739,-92.13"/>
<polygon fill="midnightblue" stroke="midnightblue" points="3735.5,-129.73 3739,-139.73 3742.5,-129.73 3735.5,-129.73"/>
</g>
<!-- Node72 -->
<g id="node47" class="node">
<title>Node72</title>
<g id="a_node47"><a xlink:href="TileRenderer_8cpp.html" target="_top" xlink:title=" ">
<polygon fill="white" stroke="black" points="3832.5,-73 3832.5,-92 3993.5,-92 3993.5,-73 3832.5,-73"/>
<text text-anchor="middle" x="3913" y="-80" font-family="Helvetica,sans-Serif" font-size="10.00">sources/PPU/TileRenderer.cpp</text>
</a>
</g>
</g>
<!-- Node64&#45;&gt;Node72 -->
<g id="edge60" class="edge">
<title>Node64&#45;&gt;Node72</title>
<path fill="none" stroke="midnightblue" d="M3771.74,-136.27C3806.27,-123.37 3859.79,-103.38 3890.08,-92.06"/>
<polygon fill="midnightblue" stroke="midnightblue" points="3770.25,-133.09 3762.11,-139.87 3772.7,-139.65 3770.25,-133.09"/>
</g>
<!-- Node65&#45;&gt;Node25 -->
<g id="edge48" class="edge">
<title>Node65&#45;&gt;Node25</title>
<path fill="none" stroke="midnightblue" d="M3341.95,-71.04C3274.68,-58.25 3162.17,-36.87 3099.89,-25.03"/>
<polygon fill="midnightblue" stroke="midnightblue" points="3341.46,-74.51 3351.94,-72.94 3342.77,-67.63 3341.46,-74.51"/>
</g>
<!-- Node66&#45;&gt;Node32 -->
<g id="edge50" class="edge">
<title>Node66&#45;&gt;Node32</title>
<path fill="none" stroke="midnightblue" d="M4101.86,-61.45C4088.32,-51.45 4072.27,-39.6 4060.06,-30.58"/>
<polygon fill="midnightblue" stroke="midnightblue" points="4099.78,-64.27 4109.91,-67.4 4103.94,-58.64 4099.78,-64.27"/>
</g>
<!-- Node67&#45;&gt;Node64 -->
<g id="edge54" class="edge">
<title>Node67&#45;&gt;Node64</title>
<path fill="none" stroke="midnightblue" d="M4290.03,-93.64C4279.77,-95.2 4269.09,-96.72 4259,-98 4172,-109.07 3916.89,-132.95 3799.38,-143.42"/>
<polygon fill="midnightblue" stroke="midnightblue" points="4290.77,-97.07 4300.12,-92.07 4289.7,-90.15 4290.77,-97.07"/>
</g>
<!-- Node67&#45;&gt;Node68 -->
<g id="edge55" class="edge">
<title>Node67&#45;&gt;Node68</title>
<path fill="none" stroke="midnightblue" d="M4322.14,-66.92C4303.75,-54.07 4277.59,-35.78 4262.34,-25.13"/>
<polygon fill="midnightblue" stroke="midnightblue" points="4320.26,-69.87 4330.46,-72.73 4324.27,-64.14 4320.26,-69.87"/>
</g>
<!-- Node67&#45;&gt;Node69 -->
<g id="edge56" class="edge">
<title>Node67&#45;&gt;Node69</title>
<path fill="none" stroke="midnightblue" d="M4363.64,-66.92C4381.82,-54.07 4407.71,-35.78 4422.79,-25.13"/>
<polygon fill="midnightblue" stroke="midnightblue" points="4361.56,-64.1 4355.41,-72.73 4365.59,-69.82 4361.56,-64.1"/>
</g>
<!-- Node73&#45;&gt;Node32 -->
<g id="edge67" class="edge">
<title>Node73&#45;&gt;Node32</title>
<path fill="none" stroke="midnightblue" d="M4076.33,-144.58C4199.57,-138.3 4407.83,-123.95 4431,-98 4440.18,-87.72 4440.1,-77.35 4431,-67 4428.45,-64.1 4234.01,-39.99 4120.68,-26.16"/>
<polygon fill="midnightblue" stroke="midnightblue" points="4075.96,-141.1 4066.15,-145.09 4076.31,-148.09 4075.96,-141.1"/>
</g>
<!-- Node76&#45;&gt;Node73 -->
<g id="edge70" class="edge">
<title>Node76&#45;&gt;Node73</title>
<path fill="none" stroke="midnightblue" d="M3722.77,-199.6C3774.91,-189.87 3853.18,-175.27 3910.82,-164.52"/>
<polygon fill="midnightblue" stroke="midnightblue" points="3721.89,-196.2 3712.7,-201.48 3723.18,-203.08 3721.89,-196.2"/>
</g>
</g>
</svg>
