<?xml version="1.0" encoding="UTF-8" standalone="no"?>
<!DOCTYPE svg PUBLIC "-//W3C//DTD SVG 1.1//EN"
 "http://www.w3.org/Graphics/SVG/1.1/DTD/svg11.dtd">
<!-- Generated by graphviz version 2.43.0 (0)
 -->
<!-- Title: sources/CPU/Instructions/MemoryInstructions.cpp Pages: 1 -->
<svg width="1238pt" height="543pt"
 viewBox="0.00 0.00 1238.00 543.00" xmlns="http://www.w3.org/2000/svg" xmlns:xlink="http://www.w3.org/1999/xlink">
<g id="graph0" class="graph" transform="scale(1 1) rotate(0) translate(4 539)">
<title>sources/CPU/Instructions/MemoryInstructions.cpp</title>
<polygon fill="white" stroke="transparent" points="-4,4 -4,-539 1234,-539 1234,4 -4,4"/>
<!-- Node1 -->
<g id="node1" class="node">
<title>Node1</title>
<g id="a_node1"><a xlink:title=" ">
<polygon fill="#bfbfbf" stroke="black" points="682.5,-504.5 682.5,-534.5 819.5,-534.5 819.5,-504.5 682.5,-504.5"/>
<text text-anchor="start" x="690.5" y="-522.5" font-family="Helvetica,sans-Serif" font-size="10.00">sources/CPU/Instructions</text>
<text text-anchor="middle" x="751" y="-511.5" font-family="Helvetica,sans-Serif" font-size="10.00">/MemoryInstructions.cpp</text>
</a>
</g>
</g>
<!-- Node2 -->
<g id="node2" class="node">
<title>Node2</title>
<g id="a_node2"><a xlink:href="CPU_8hpp.html" target="_top" xlink:title=" ">
<polygon fill="white" stroke="black" points="710.5,-448.5 710.5,-467.5 791.5,-467.5 791.5,-448.5 710.5,-448.5"/>
<text text-anchor="middle" x="751" y="-455.5" font-family="Helvetica,sans-Serif" font-size="10.00">CPU/CPU.hpp</text>
</a>
</g>
</g>
<!-- Node1&#45;&gt;Node2 -->
<g id="edge1" class="edge">
<title>Node1&#45;&gt;Node2</title>
<path fill="none" stroke="midnightblue" d="M751,-504.4C751,-496.47 751,-486.46 751,-477.86"/>
<polygon fill="midnightblue" stroke="midnightblue" points="754.5,-477.66 751,-467.66 747.5,-477.66 754.5,-477.66"/>
</g>
<!-- Node3 -->
<g id="node3" class="node">
<title>Node3</title>
<g id="a_node3"><a xlink:href="AMemory_8hpp.html" target="_top" xlink:title=" ">
<polygon fill="white" stroke="black" points="419.5,-168.5 419.5,-187.5 546.5,-187.5 546.5,-168.5 419.5,-168.5"/>
<text text-anchor="middle" x="483" y="-175.5" font-family="Helvetica,sans-Serif" font-size="10.00">Memory/AMemory.hpp</text>
</a>
</g>
</g>
<!-- Node2&#45;&gt;Node3 -->
<g id="edge2" class="edge">
<title>Node2&#45;&gt;Node3</title>
<path fill="none" stroke="midnightblue" d="M710.23,-456.95C638.91,-454.49 499,-438.06 499,-347 499,-347 499,-347 499,-289 499,-256.63 492.13,-219.44 487.39,-197.66"/>
<polygon fill="midnightblue" stroke="midnightblue" points="490.78,-196.76 485.16,-187.78 483.95,-198.3 490.78,-196.76"/>
</g>
<!-- Node8 -->
<g id="node8" class="node">
<title>Node8</title>
<g id="a_node8"><a xlink:href="Ints_8hpp.html" target="_top" xlink:title=" ">
<polygon fill="white" stroke="black" points="943,-56.5 943,-75.5 1037,-75.5 1037,-56.5 943,-56.5"/>
<text text-anchor="middle" x="990" y="-63.5" font-family="Helvetica,sans-Serif" font-size="10.00">Models/Ints.hpp</text>
</a>
</g>
</g>
<!-- Node2&#45;&gt;Node8 -->
<g id="edge36" class="edge">
<title>Node2&#45;&gt;Node8</title>
<path fill="none" stroke="midnightblue" d="M791.84,-456.3C907.67,-453.22 1230,-436.59 1230,-347 1230,-347 1230,-347 1230,-177 1230,-96.95 1118.28,-74.92 1047.29,-69.01"/>
<polygon fill="midnightblue" stroke="midnightblue" points="1047.36,-65.51 1037.13,-68.25 1046.84,-72.49 1047.36,-65.51"/>
</g>
<!-- Node13 -->
<g id="node13" class="node">
<title>Node13</title>
<g id="a_node13"><a xlink:href="MemoryBus_8hpp.html" target="_top" xlink:title=" ">
<polygon fill="white" stroke="black" points="258,-336.5 258,-355.5 398,-355.5 398,-336.5 258,-336.5"/>
<text text-anchor="middle" x="328" y="-343.5" font-family="Helvetica,sans-Serif" font-size="10.00">Memory/MemoryBus.hpp</text>
</a>
</g>
</g>
<!-- Node2&#45;&gt;Node13 -->
<g id="edge18" class="edge">
<title>Node2&#45;&gt;Node13</title>
<path fill="none" stroke="midnightblue" d="M710.26,-452.99C657.52,-447.15 563.1,-434.46 485,-412 437.42,-398.31 384.74,-374.63 354.11,-359.95"/>
<polygon fill="midnightblue" stroke="midnightblue" points="355.49,-356.73 344.97,-355.52 352.44,-363.03 355.49,-356.73"/>
</g>
<!-- Node19 -->
<g id="node19" class="node">
<title>Node19</title>
<g id="a_node19"><a xlink:href="Callback_8hpp.html" target="_top" xlink:title=" ">
<polygon fill="white" stroke="black" points="630,-392.5 630,-411.5 748,-411.5 748,-392.5 630,-392.5"/>
<text text-anchor="middle" x="689" y="-399.5" font-family="Helvetica,sans-Serif" font-size="10.00">Models/Callback.hpp</text>
</a>
</g>
</g>
<!-- Node2&#45;&gt;Node19 -->
<g id="edge37" class="edge">
<title>Node2&#45;&gt;Node19</title>
<path fill="none" stroke="midnightblue" d="M741.04,-448.32C731.87,-440.34 718.06,-428.31 706.97,-418.65"/>
<polygon fill="midnightblue" stroke="midnightblue" points="708.98,-415.76 699.14,-411.83 704.38,-421.04 708.98,-415.76"/>
</g>
<!-- Node23 -->
<g id="node23" class="node">
<title>Node23</title>
<g id="a_node23"><a xlink:href="Cartridge_8hpp.html" target="_top" xlink:title=" ">
<polygon fill="white" stroke="black" points="729.5,-280.5 729.5,-299.5 860.5,-299.5 860.5,-280.5 729.5,-280.5"/>
<text text-anchor="middle" x="795" y="-287.5" font-family="Helvetica,sans-Serif" font-size="10.00">Cartridge/Cartridge.hpp</text>
</a>
</g>
</g>
<!-- Node2&#45;&gt;Node23 -->
<g id="edge41" class="edge">
<title>Node2&#45;&gt;Node23</title>
<path fill="none" stroke="midnightblue" d="M753.37,-448.08C760.29,-421.95 780.63,-345.21 790.08,-309.58"/>
<polygon fill="midnightblue" stroke="midnightblue" points="793.55,-310.13 792.73,-299.57 786.78,-308.34 793.55,-310.13"/>
</g>
<!-- Node28 -->
<g id="node28" class="node">
<title>Node28</title>
<g id="a_node28"><a xlink:href="Instruction_8hpp.html" target="_top" xlink:title=" ">
<polygon fill="white" stroke="black" points="1056.5,-112.5 1056.5,-131.5 1145.5,-131.5 1145.5,-112.5 1056.5,-112.5"/>
<text text-anchor="middle" x="1101" y="-119.5" font-family="Helvetica,sans-Serif" font-size="10.00">Instruction.hpp</text>
</a>
</g>
</g>
<!-- Node2&#45;&gt;Node28 -->
<g id="edge54" class="edge">
<title>Node2&#45;&gt;Node28</title>
<path fill="none" stroke="midnightblue" d="M791.54,-451.55C876.61,-438.96 1066,-404.49 1066,-347 1066,-347 1066,-347 1066,-233 1066,-199.07 1081.31,-161.91 1091.68,-140.63"/>
<polygon fill="midnightblue" stroke="midnightblue" points="1094.88,-142.05 1096.28,-131.54 1088.64,-138.88 1094.88,-142.05"/>
</g>
<!-- Node29 -->
<g id="node29" class="node">
<title>Node29</title>
<g id="a_node29"><a xlink:href="DMA_8hpp.html" target="_top" xlink:title=" ">
<polygon fill="white" stroke="black" points="284.5,-392.5 284.5,-411.5 371.5,-411.5 371.5,-392.5 284.5,-392.5"/>
<text text-anchor="middle" x="328" y="-399.5" font-family="Helvetica,sans-Serif" font-size="10.00">DMA/DMA.hpp</text>
</a>
</g>
</g>
<!-- Node2&#45;&gt;Node29 -->
<g id="edge57" class="edge">
<title>Node2&#45;&gt;Node29</title>
<path fill="none" stroke="midnightblue" d="M710.44,-451.82C633.74,-442.03 467.45,-420.8 381.64,-409.85"/>
<polygon fill="midnightblue" stroke="midnightblue" points="381.95,-406.36 371.58,-408.56 381.06,-413.3 381.95,-406.36"/>
</g>
<!-- Node30 -->
<g id="node30" class="node">
<title>Node30</title>
<g id="a_node30"><a xlink:href="Registers_8hpp.html" target="_top" xlink:title=" ">
<polygon fill="white" stroke="black" points="1094.5,-280.5 1094.5,-299.5 1201.5,-299.5 1201.5,-280.5 1094.5,-280.5"/>
<text text-anchor="middle" x="1148" y="-287.5" font-family="Helvetica,sans-Serif" font-size="10.00">CPU/Registers.hpp</text>
</a>
</g>
</g>
<!-- Node2&#45;&gt;Node30 -->
<g id="edge62" class="edge">
<title>Node2&#45;&gt;Node30</title>
<path fill="none" stroke="midnightblue" d="M791.71,-455.88C869.09,-453.05 1033.82,-443.41 1080,-412 1116.25,-387.34 1135.32,-336.62 1143.32,-309.33"/>
<polygon fill="midnightblue" stroke="midnightblue" points="1146.74,-310.09 1146.01,-299.52 1139.99,-308.24 1146.74,-310.09"/>
</g>
<!-- Node4 -->
<g id="node4" class="node">
<title>Node4</title>
<g id="a_node4"><a xlink:title=" ">
<polygon fill="white" stroke="#bfbfbf" points="232,-56.5 232,-75.5 282,-75.5 282,-56.5 232,-56.5"/>
<text text-anchor="middle" x="257" y="-63.5" font-family="Helvetica,sans-Serif" font-size="10.00">cstdint</text>
</a>
</g>
</g>
<!-- Node3&#45;&gt;Node4 -->
<g id="edge3" class="edge">
<title>Node3&#45;&gt;Node4</title>
<path fill="none" stroke="midnightblue" d="M465.27,-168.37C425.82,-149.17 330.64,-102.84 283.86,-80.07"/>
<polygon fill="midnightblue" stroke="midnightblue" points="285.17,-76.82 274.65,-75.59 282.11,-83.11 285.17,-76.82"/>
</g>
<!-- Node5 -->
<g id="node5" class="node">
<title>Node5</title>
<g id="a_node5"><a xlink:title=" ">
<polygon fill="white" stroke="#bfbfbf" points="564.5,-56.5 564.5,-75.5 611.5,-75.5 611.5,-56.5 564.5,-56.5"/>
<text text-anchor="middle" x="588" y="-63.5" font-family="Helvetica,sans-Serif" font-size="10.00">vector</text>
</a>
</g>
</g>
<!-- Node3&#45;&gt;Node5 -->
<g id="edge4" class="edge">
<title>Node3&#45;&gt;Node5</title>
<path fill="none" stroke="midnightblue" d="M493.33,-168.42C503.71,-159.64 519.99,-145.41 533,-132 548.2,-116.33 564.16,-97.11 574.95,-83.65"/>
<polygon fill="midnightblue" stroke="midnightblue" points="577.76,-85.74 581.23,-75.73 572.28,-81.39 577.76,-85.74"/>
</g>
<!-- Node6 -->
<g id="node6" class="node">
<title>Node6</title>
<g id="a_node6"><a xlink:title=" ">
<polygon fill="white" stroke="#bfbfbf" points="66,-56.5 66,-75.5 124,-75.5 124,-56.5 66,-56.5"/>
<text text-anchor="middle" x="95" y="-63.5" font-family="Helvetica,sans-Serif" font-size="10.00">memory</text>
</a>
</g>
</g>
<!-- Node3&#45;&gt;Node6 -->
<g id="edge5" class="edge">
<title>Node3&#45;&gt;Node6</title>
<path fill="none" stroke="midnightblue" d="M456.88,-168.38C406.66,-151.83 300.09,-116.81 283,-112 232.07,-97.65 172.55,-83.91 134.35,-75.47"/>
<polygon fill="midnightblue" stroke="midnightblue" points="134.69,-71.96 124.17,-73.23 133.19,-78.79 134.69,-71.96"/>
</g>
<!-- Node7 -->
<g id="node7" class="node">
<title>Node7</title>
<g id="a_node7"><a xlink:title=" ">
<polygon fill="white" stroke="#bfbfbf" points="854,-56.5 854,-75.5 898,-75.5 898,-56.5 854,-56.5"/>
<text text-anchor="middle" x="876" y="-63.5" font-family="Helvetica,sans-Serif" font-size="10.00">string</text>
</a>
</g>
</g>
<!-- Node3&#45;&gt;Node7 -->
<g id="edge6" class="edge">
<title>Node3&#45;&gt;Node7</title>
<path fill="none" stroke="midnightblue" d="M502.4,-168.3C533.45,-154.66 596.45,-128.14 652,-112 719.04,-92.53 799.77,-78.56 843.68,-71.73"/>
<polygon fill="midnightblue" stroke="midnightblue" points="844.41,-75.16 853.76,-70.19 843.35,-68.24 844.41,-75.16"/>
</g>
<!-- Node3&#45;&gt;Node8 -->
<g id="edge7" class="edge">
<title>Node3&#45;&gt;Node8</title>
<path fill="none" stroke="midnightblue" d="M516.08,-168.47C547.5,-160.1 595.9,-146.52 637,-132 658.79,-124.3 662.73,-118.18 685,-112 730.38,-99.41 857.49,-82.87 932.52,-73.75"/>
<polygon fill="midnightblue" stroke="midnightblue" points="933.24,-77.19 942.75,-72.52 932.4,-70.24 933.24,-77.19"/>
</g>
<!-- Node11 -->
<g id="node11" class="node">
<title>Node11</title>
<g id="a_node11"><a xlink:href="Components_8hpp.html" target="_top" xlink:title=" ">
<polygon fill="white" stroke="black" points="408.5,-56.5 408.5,-75.5 545.5,-75.5 545.5,-56.5 408.5,-56.5"/>
<text text-anchor="middle" x="477" y="-63.5" font-family="Helvetica,sans-Serif" font-size="10.00">Models/Components.hpp</text>
</a>
</g>
</g>
<!-- Node3&#45;&gt;Node11 -->
<g id="edge10" class="edge">
<title>Node3&#45;&gt;Node11</title>
<path fill="none" stroke="midnightblue" d="M468.63,-168.33C457.12,-160.47 441.81,-147.72 435,-132 427.1,-113.76 442.36,-94.89 456.65,-82.21"/>
<polygon fill="midnightblue" stroke="midnightblue" points="459.28,-84.58 464.77,-75.52 454.83,-79.18 459.28,-84.58"/>
</g>
<!-- Node12 -->
<g id="node12" class="node">
<title>Node12</title>
<g id="a_node12"><a xlink:href="IMemory_8hpp.html" target="_top" xlink:title=" ">
<polygon fill="white" stroke="black" points="444,-112.5 444,-131.5 524,-131.5 524,-112.5 444,-112.5"/>
<text text-anchor="middle" x="484" y="-119.5" font-family="Helvetica,sans-Serif" font-size="10.00">IMemory.hpp</text>
</a>
</g>
</g>
<!-- Node3&#45;&gt;Node12 -->
<g id="edge11" class="edge">
<title>Node3&#45;&gt;Node12</title>
<path fill="none" stroke="midnightblue" d="M483.17,-168.08C483.3,-161.01 483.48,-150.86 483.65,-141.99"/>
<polygon fill="midnightblue" stroke="midnightblue" points="487.15,-141.81 483.84,-131.75 480.15,-141.68 487.15,-141.81"/>
</g>
<!-- Node9 -->
<g id="node9" class="node">
<title>Node9</title>
<g id="a_node9"><a xlink:title=" ">
<polygon fill="white" stroke="#bfbfbf" points="721,-0.5 721,-19.5 783,-19.5 783,-0.5 721,-0.5"/>
<text text-anchor="middle" x="752" y="-7.5" font-family="Helvetica,sans-Serif" font-size="10.00">cinttypes</text>
</a>
</g>
</g>
<!-- Node8&#45;&gt;Node9 -->
<g id="edge8" class="edge">
<title>Node8&#45;&gt;Node9</title>
<path fill="none" stroke="midnightblue" d="M952.29,-56.44C908.88,-46.59 837.82,-30.47 793.05,-20.31"/>
<polygon fill="midnightblue" stroke="midnightblue" points="793.62,-16.85 783.09,-18.05 792.07,-23.68 793.62,-16.85"/>
</g>
<!-- Node10 -->
<g id="node10" class="node">
<title>Node10</title>
<g id="a_node10"><a xlink:title=" ">
<polygon fill="white" stroke="#bfbfbf" points="960,-0.5 960,-19.5 1020,-19.5 1020,-0.5 960,-0.5"/>
<text text-anchor="middle" x="990" y="-7.5" font-family="Helvetica,sans-Serif" font-size="10.00">iostream</text>
</a>
</g>
</g>
<!-- Node8&#45;&gt;Node10 -->
<g id="edge9" class="edge">
<title>Node8&#45;&gt;Node10</title>
<path fill="none" stroke="midnightblue" d="M990,-56.08C990,-49.01 990,-38.86 990,-29.99"/>
<polygon fill="midnightblue" stroke="midnightblue" points="993.5,-29.75 990,-19.75 986.5,-29.75 993.5,-29.75"/>
</g>
<!-- Node12&#45;&gt;Node4 -->
<g id="edge12" class="edge">
<title>Node12&#45;&gt;Node4</title>
<path fill="none" stroke="midnightblue" d="M448.03,-112.44C405.3,-102.28 334.48,-85.43 292.12,-75.36"/>
<polygon fill="midnightblue" stroke="midnightblue" points="292.8,-71.92 282.26,-73.01 291.18,-78.73 292.8,-71.92"/>
</g>
<!-- Node12&#45;&gt;Node5 -->
<g id="edge13" class="edge">
<title>Node12&#45;&gt;Node5</title>
<path fill="none" stroke="midnightblue" d="M500.71,-112.32C517.31,-103.7 543,-90.36 562.22,-80.39"/>
<polygon fill="midnightblue" stroke="midnightblue" points="564.07,-83.37 571.33,-75.65 560.84,-77.16 564.07,-83.37"/>
</g>
<!-- Node12&#45;&gt;Node6 -->
<g id="edge14" class="edge">
<title>Node12&#45;&gt;Node6</title>
<path fill="none" stroke="midnightblue" d="M443.84,-115.42C368.9,-105.02 208.67,-82.78 134.36,-72.46"/>
<polygon fill="midnightblue" stroke="midnightblue" points="134.42,-68.94 124.04,-71.03 133.46,-75.87 134.42,-68.94"/>
</g>
<!-- Node12&#45;&gt;Node7 -->
<g id="edge15" class="edge">
<title>Node12&#45;&gt;Node7</title>
<path fill="none" stroke="midnightblue" d="M524.11,-115.47C602.06,-104.74 772.6,-81.24 843.79,-71.44"/>
<polygon fill="midnightblue" stroke="midnightblue" points="844.51,-74.87 853.94,-70.04 843.55,-67.94 844.51,-74.87"/>
</g>
<!-- Node12&#45;&gt;Node8 -->
<g id="edge16" class="edge">
<title>Node12&#45;&gt;Node8</title>
<path fill="none" stroke="midnightblue" d="M524.25,-116.75C599.44,-108.79 766.38,-91.1 907,-76 915.29,-75.11 924.04,-74.17 932.63,-73.24"/>
<polygon fill="midnightblue" stroke="midnightblue" points="933.03,-76.71 942.6,-72.16 932.28,-69.75 933.03,-76.71"/>
</g>
<!-- Node12&#45;&gt;Node11 -->
<g id="edge17" class="edge">
<title>Node12&#45;&gt;Node11</title>
<path fill="none" stroke="midnightblue" d="M482.84,-112.08C481.92,-104.93 480.58,-94.64 479.42,-85.69"/>
<polygon fill="midnightblue" stroke="midnightblue" points="482.89,-85.22 478.13,-75.75 475.95,-86.12 482.89,-85.22"/>
</g>
<!-- Node13&#45;&gt;Node3 -->
<g id="edge19" class="edge">
<title>Node13&#45;&gt;Node3</title>
<path fill="none" stroke="midnightblue" d="M336.33,-336.08C361.37,-309.27 436.14,-229.19 468.17,-194.89"/>
<polygon fill="midnightblue" stroke="midnightblue" points="470.73,-197.27 475,-187.57 465.62,-192.49 470.73,-197.27"/>
</g>
<!-- Node13&#45;&gt;Node4 -->
<g id="edge33" class="edge">
<title>Node13&#45;&gt;Node4</title>
<path fill="none" stroke="midnightblue" d="M323.99,-336.34C314.61,-316.28 290.28,-265.16 267,-224 243.2,-181.93 222.42,-178.44 209,-132 206.53,-123.46 205.47,-120.16 209,-112 214.27,-99.84 224.62,-89.46 234.36,-81.74"/>
<polygon fill="midnightblue" stroke="midnightblue" points="236.64,-84.41 242.63,-75.67 232.5,-78.77 236.64,-84.41"/>
</g>
<!-- Node13&#45;&gt;Node5 -->
<g id="edge35" class="edge">
<title>Node13&#45;&gt;Node5</title>
<path fill="none" stroke="midnightblue" d="M349.24,-336.4C394.37,-317.01 500.18,-265.44 555,-188 577.15,-156.71 584.44,-111.24 586.83,-85.88"/>
<polygon fill="midnightblue" stroke="midnightblue" points="590.33,-86.02 587.63,-75.77 583.36,-85.47 590.33,-86.02"/>
</g>
<!-- Node13&#45;&gt;Node6 -->
<g id="edge34" class="edge">
<title>Node13&#45;&gt;Node6</title>
<path fill="none" stroke="midnightblue" d="M257.53,-336.87C217.36,-330.42 166.84,-319.18 125,-300 81.13,-279.88 38,-283.27 38,-235 38,-235 38,-235 38,-177 38,-140.3 63.32,-103.66 80.21,-83.3"/>
<polygon fill="midnightblue" stroke="midnightblue" points="82.95,-85.48 86.83,-75.62 77.65,-80.9 82.95,-85.48"/>
</g>
<!-- Node14 -->
<g id="node14" class="node">
<title>Node14</title>
<g id="a_node14"><a xlink:href="RectangleShadow_8hpp.html" target="_top" xlink:title=" ">
<polygon fill="white" stroke="black" points="142,-280.5 142,-299.5 266,-299.5 266,-280.5 142,-280.5"/>
<text text-anchor="middle" x="204" y="-287.5" font-family="Helvetica,sans-Serif" font-size="10.00">RectangleShadow.hpp</text>
</a>
</g>
</g>
<!-- Node13&#45;&gt;Node14 -->
<g id="edge20" class="edge">
<title>Node13&#45;&gt;Node14</title>
<path fill="none" stroke="midnightblue" d="M308.35,-336.44C288.04,-327.6 256.1,-313.69 232.9,-303.59"/>
<polygon fill="midnightblue" stroke="midnightblue" points="234.12,-300.3 223.56,-299.52 231.33,-306.72 234.12,-300.3"/>
</g>
<!-- Node16 -->
<g id="node16" class="node">
<title>Node16</title>
<g id="a_node16"><a xlink:href="MemoryShadow_8hpp.html" target="_top" xlink:title=" ">
<polygon fill="white" stroke="black" points="142,-224.5 142,-243.5 258,-243.5 258,-224.5 142,-224.5"/>
<text text-anchor="middle" x="200" y="-231.5" font-family="Helvetica,sans-Serif" font-size="10.00">MemoryShadow.hpp</text>
</a>
</g>
</g>
<!-- Node13&#45;&gt;Node16 -->
<g id="edge28" class="edge">
<title>Node13&#45;&gt;Node16</title>
<path fill="none" stroke="midnightblue" d="M257.89,-337.97C208.53,-331.41 148.6,-319.61 133,-300 117.25,-280.21 145.61,-260.39 170.14,-247.93"/>
<polygon fill="midnightblue" stroke="midnightblue" points="171.77,-251.03 179.26,-243.54 168.73,-244.73 171.77,-251.03"/>
</g>
<!-- Node17 -->
<g id="node17" class="node">
<title>Node17</title>
<g id="a_node17"><a xlink:href="IMemoryBus_8hpp.html" target="_top" xlink:title=" ">
<polygon fill="white" stroke="black" points="302.5,-168.5 302.5,-187.5 401.5,-187.5 401.5,-168.5 302.5,-168.5"/>
<text text-anchor="middle" x="352" y="-175.5" font-family="Helvetica,sans-Serif" font-size="10.00">IMemoryBus.hpp</text>
</a>
</g>
</g>
<!-- Node13&#45;&gt;Node17 -->
<g id="edge29" class="edge">
<title>Node13&#45;&gt;Node17</title>
<path fill="none" stroke="midnightblue" d="M329.29,-336.08C333.07,-309.95 344.16,-233.21 349.31,-197.58"/>
<polygon fill="midnightblue" stroke="midnightblue" points="352.79,-197.97 350.76,-187.57 345.87,-196.96 352.79,-197.97"/>
</g>
<!-- Node14&#45;&gt;Node6 -->
<g id="edge21" class="edge">
<title>Node14&#45;&gt;Node6</title>
<path fill="none" stroke="midnightblue" d="M181.69,-280.44C165.69,-273.16 144.93,-261.12 133,-244 98.61,-194.66 94.4,-120.18 94.47,-85.71"/>
<polygon fill="midnightblue" stroke="midnightblue" points="97.97,-85.71 94.62,-75.66 90.97,-85.6 97.97,-85.71"/>
</g>
<!-- Node15 -->
<g id="node15" class="node">
<title>Node15</title>
<g id="a_node15"><a xlink:href="ARectangleMemory_8hpp.html" target="_top" xlink:title=" ">
<polygon fill="white" stroke="black" points="641,-168.5 641,-187.5 773,-187.5 773,-168.5 641,-168.5"/>
<text text-anchor="middle" x="707" y="-175.5" font-family="Helvetica,sans-Serif" font-size="10.00">ARectangleMemory.hpp</text>
</a>
</g>
</g>
<!-- Node14&#45;&gt;Node15 -->
<g id="edge22" class="edge">
<title>Node14&#45;&gt;Node15</title>
<path fill="none" stroke="midnightblue" d="M243.05,-280.46C333.77,-260.62 558.57,-211.46 658.17,-189.68"/>
<polygon fill="midnightblue" stroke="midnightblue" points="658.95,-193.09 667.97,-187.53 657.46,-186.25 658.95,-193.09"/>
</g>
<!-- Node14&#45;&gt;Node16 -->
<g id="edge25" class="edge">
<title>Node14&#45;&gt;Node16</title>
<path fill="none" stroke="midnightblue" d="M203.34,-280.08C202.82,-273.01 202.06,-262.86 201.41,-253.99"/>
<polygon fill="midnightblue" stroke="midnightblue" points="204.88,-253.47 200.65,-243.75 197.9,-253.98 204.88,-253.47"/>
</g>
<!-- Node15&#45;&gt;Node8 -->
<g id="edge24" class="edge">
<title>Node15&#45;&gt;Node8</title>
<path fill="none" stroke="midnightblue" d="M729.21,-168.37C779.22,-148.93 900.79,-101.67 958.54,-79.23"/>
<polygon fill="midnightblue" stroke="midnightblue" points="959.84,-82.48 967.9,-75.59 957.31,-75.95 959.84,-82.48"/>
</g>
<!-- Node15&#45;&gt;Node12 -->
<g id="edge23" class="edge">
<title>Node15&#45;&gt;Node12</title>
<path fill="none" stroke="midnightblue" d="M671.66,-168.44C633.09,-159.1 571.22,-144.12 529.15,-133.93"/>
<polygon fill="midnightblue" stroke="midnightblue" points="529.71,-130.47 519.17,-131.52 528.07,-137.27 529.71,-130.47"/>
</g>
<!-- Node16&#45;&gt;Node3 -->
<g id="edge27" class="edge">
<title>Node16&#45;&gt;Node3</title>
<path fill="none" stroke="midnightblue" d="M244.84,-224.44C294.62,-214.94 374.98,-199.61 428.39,-189.42"/>
<polygon fill="midnightblue" stroke="midnightblue" points="429.2,-192.83 438.37,-187.52 427.89,-185.95 429.2,-192.83"/>
</g>
<!-- Node16&#45;&gt;Node6 -->
<g id="edge26" class="edge">
<title>Node16&#45;&gt;Node6</title>
<path fill="none" stroke="midnightblue" d="M194.35,-224.08C177.61,-197.61 128.02,-119.21 105.89,-84.21"/>
<polygon fill="midnightblue" stroke="midnightblue" points="108.72,-82.15 100.42,-75.57 102.81,-85.89 108.72,-82.15"/>
</g>
<!-- Node17&#45;&gt;Node9 -->
<g id="edge30" class="edge">
<title>Node17&#45;&gt;Node9</title>
<path fill="none" stroke="midnightblue" d="M352.49,-168.23C354.28,-145.52 362.43,-84.59 399,-56 446.73,-18.69 628.49,-12.13 710.92,-11.11"/>
<polygon fill="midnightblue" stroke="midnightblue" points="710.97,-14.61 720.93,-11.01 710.9,-7.61 710.97,-14.61"/>
</g>
<!-- Node17&#45;&gt;Node12 -->
<g id="edge32" class="edge">
<title>Node17&#45;&gt;Node12</title>
<path fill="none" stroke="midnightblue" d="M372.92,-168.44C394.74,-159.52 429.15,-145.44 453.89,-135.32"/>
<polygon fill="midnightblue" stroke="midnightblue" points="455.25,-138.54 463.18,-131.52 452.6,-132.06 455.25,-138.54"/>
</g>
<!-- Node18 -->
<g id="node18" class="node">
<title>Node18</title>
<g id="a_node18"><a xlink:title=" ">
<polygon fill="white" stroke="#bfbfbf" points="218,-112.5 218,-131.5 274,-131.5 274,-112.5 218,-112.5"/>
<text text-anchor="middle" x="246" y="-119.5" font-family="Helvetica,sans-Serif" font-size="10.00">optional</text>
</a>
</g>
</g>
<!-- Node17&#45;&gt;Node18 -->
<g id="edge31" class="edge">
<title>Node17&#45;&gt;Node18</title>
<path fill="none" stroke="midnightblue" d="M334.97,-168.32C317.97,-159.66 291.62,-146.24 272.01,-136.25"/>
<polygon fill="midnightblue" stroke="midnightblue" points="273.49,-133.08 262.99,-131.65 270.31,-139.31 273.49,-133.08"/>
</g>
<!-- Node20 -->
<g id="node20" class="node">
<title>Node20</title>
<g id="a_node20"><a xlink:title=" ">
<polygon fill="white" stroke="#bfbfbf" points="638.5,-336.5 638.5,-355.5 703.5,-355.5 703.5,-336.5 638.5,-336.5"/>
<text text-anchor="middle" x="671" y="-343.5" font-family="Helvetica,sans-Serif" font-size="10.00">functional</text>
</a>
</g>
</g>
<!-- Node19&#45;&gt;Node20 -->
<g id="edge38" class="edge">
<title>Node19&#45;&gt;Node20</title>
<path fill="none" stroke="midnightblue" d="M686.03,-392.08C683.62,-384.85 680.14,-374.41 677.13,-365.4"/>
<polygon fill="midnightblue" stroke="midnightblue" points="680.4,-364.13 673.92,-355.75 673.76,-366.34 680.4,-364.13"/>
</g>
<!-- Node21 -->
<g id="node21" class="node">
<title>Node21</title>
<g id="a_node21"><a xlink:title=" ">
<polygon fill="white" stroke="#bfbfbf" points="721.5,-336.5 721.5,-355.5 766.5,-355.5 766.5,-336.5 721.5,-336.5"/>
<text text-anchor="middle" x="744" y="-343.5" font-family="Helvetica,sans-Serif" font-size="10.00">utility</text>
</a>
</g>
</g>
<!-- Node19&#45;&gt;Node21 -->
<g id="edge39" class="edge">
<title>Node19&#45;&gt;Node21</title>
<path fill="none" stroke="midnightblue" d="M698.08,-392.08C706.17,-384.14 718.2,-372.34 727.91,-362.8"/>
<polygon fill="midnightblue" stroke="midnightblue" points="730.4,-365.25 735.09,-355.75 725.5,-360.26 730.4,-365.25"/>
</g>
<!-- Node22 -->
<g id="node22" class="node">
<title>Node22</title>
<g id="a_node22"><a xlink:title=" ">
<polygon fill="white" stroke="#bfbfbf" points="527.5,-336.5 527.5,-355.5 620.5,-355.5 620.5,-336.5 527.5,-336.5"/>
<text text-anchor="middle" x="574" y="-343.5" font-family="Helvetica,sans-Serif" font-size="10.00">unordered_map</text>
</a>
</g>
</g>
<!-- Node19&#45;&gt;Node22 -->
<g id="edge40" class="edge">
<title>Node19&#45;&gt;Node22</title>
<path fill="none" stroke="midnightblue" d="M670.78,-392.44C652.1,-383.68 622.84,-369.94 601.38,-359.86"/>
<polygon fill="midnightblue" stroke="midnightblue" points="602.68,-356.6 592.14,-355.52 599.7,-362.93 602.68,-356.6"/>
</g>
<!-- Node23&#45;&gt;Node3 -->
<g id="edge44" class="edge">
<title>Node23&#45;&gt;Node3</title>
<path fill="none" stroke="midnightblue" d="M738.83,-280.49C698.95,-273.4 644.6,-261.59 599,-244 563.98,-230.49 526.65,-207.92 504.07,-193.25"/>
<polygon fill="midnightblue" stroke="midnightblue" points="505.9,-190.26 495.62,-187.68 502.05,-196.11 505.9,-190.26"/>
</g>
<!-- Node23&#45;&gt;Node7 -->
<g id="edge53" class="edge">
<title>Node23&#45;&gt;Node7</title>
<path fill="none" stroke="midnightblue" d="M808.61,-280.46C831.5,-265.18 876.98,-230.75 895,-188 908.15,-156.81 908.21,-144.84 900,-112 897.56,-102.25 892.56,-92.29 887.76,-84.23"/>
<polygon fill="midnightblue" stroke="midnightblue" points="890.69,-82.32 882.37,-75.77 884.79,-86.08 890.69,-82.32"/>
</g>
<!-- Node23&#45;&gt;Node8 -->
<g id="edge46" class="edge">
<title>Node23&#45;&gt;Node8</title>
<path fill="none" stroke="midnightblue" d="M858.51,-280.48C902.68,-273.17 956.19,-261.11 971,-244 1010.07,-198.89 1001.01,-121.12 994.2,-85.63"/>
<polygon fill="midnightblue" stroke="midnightblue" points="997.59,-84.77 992.13,-75.69 990.74,-86.2 997.59,-84.77"/>
</g>
<!-- Node23&#45;&gt;Node15 -->
<g id="edge45" class="edge">
<title>Node23&#45;&gt;Node15</title>
<path fill="none" stroke="midnightblue" d="M782.77,-280.39C771.48,-272.01 754.73,-258.46 743,-244 731.21,-229.47 721.23,-210.54 714.78,-196.86"/>
<polygon fill="midnightblue" stroke="midnightblue" points="717.89,-195.25 710.58,-187.58 711.52,-198.14 717.89,-195.25"/>
</g>
<!-- Node24 -->
<g id="node24" class="node">
<title>Node24</title>
<g id="a_node24"><a xlink:href="InterruptVectors_8hpp.html" target="_top" xlink:title=" ">
<polygon fill="white" stroke="black" points="694,-112.5 694,-131.5 810,-131.5 810,-112.5 694,-112.5"/>
<text text-anchor="middle" x="752" y="-119.5" font-family="Helvetica,sans-Serif" font-size="10.00">InterruptVectors.hpp</text>
</a>
</g>
</g>
<!-- Node23&#45;&gt;Node24 -->
<g id="edge42" class="edge">
<title>Node23&#45;&gt;Node24</title>
<path fill="none" stroke="midnightblue" d="M765.21,-280.46C726.48,-267.57 660.42,-239.05 632,-188 616.41,-160 650.8,-143.44 686.71,-134.05"/>
<polygon fill="midnightblue" stroke="midnightblue" points="687.95,-137.35 696.84,-131.59 686.3,-130.55 687.95,-137.35"/>
</g>
<!-- Node25 -->
<g id="node25" class="node">
<title>Node25</title>
<g id="a_node25"><a xlink:href="Ram_8hpp.html" target="_top" xlink:title=" ">
<polygon fill="white" stroke="black" points="752,-224.5 752,-243.5 838,-243.5 838,-224.5 752,-224.5"/>
<text text-anchor="middle" x="795" y="-231.5" font-family="Helvetica,sans-Serif" font-size="10.00">Ram/Ram.hpp</text>
</a>
</g>
</g>
<!-- Node23&#45;&gt;Node25 -->
<g id="edge47" class="edge">
<title>Node23&#45;&gt;Node25</title>
<path fill="none" stroke="midnightblue" d="M795,-280.08C795,-273.01 795,-262.86 795,-253.99"/>
<polygon fill="midnightblue" stroke="midnightblue" points="798.5,-253.75 795,-243.75 791.5,-253.75 798.5,-253.75"/>
</g>
<!-- Node27 -->
<g id="node27" class="node">
<title>Node27</title>
<g id="a_node27"><a xlink:title=" ">
<polygon fill="white" stroke="#bfbfbf" points="894,-224.5 894,-243.5 962,-243.5 962,-224.5 894,-224.5"/>
<text text-anchor="middle" x="928" y="-231.5" font-family="Helvetica,sans-Serif" font-size="10.00">filesystem</text>
</a>
</g>
</g>
<!-- Node23&#45;&gt;Node27 -->
<g id="edge52" class="edge">
<title>Node23&#45;&gt;Node27</title>
<path fill="none" stroke="midnightblue" d="M816.07,-280.44C838.06,-271.52 872.73,-257.44 897.66,-247.32"/>
<polygon fill="midnightblue" stroke="midnightblue" points="899.08,-250.52 907.02,-243.52 896.44,-244.04 899.08,-250.52"/>
</g>
<!-- Node24&#45;&gt;Node9 -->
<g id="edge43" class="edge">
<title>Node24&#45;&gt;Node9</title>
<path fill="none" stroke="midnightblue" d="M752,-112.37C752,-94.62 752,-53.67 752,-29.6"/>
<polygon fill="midnightblue" stroke="midnightblue" points="755.5,-29.59 752,-19.59 748.5,-29.59 755.5,-29.59"/>
</g>
<!-- Node25&#45;&gt;Node5 -->
<g id="edge51" class="edge">
<title>Node25&#45;&gt;Node5</title>
<path fill="none" stroke="midnightblue" d="M798.43,-224.36C807.99,-199.66 833.3,-129.35 819,-112 794.42,-82.17 679.97,-71.85 621.94,-68.5"/>
<polygon fill="midnightblue" stroke="midnightblue" points="621.96,-65 611.79,-67.95 621.59,-71.98 621.96,-65"/>
</g>
<!-- Node25&#45;&gt;Node7 -->
<g id="edge49" class="edge">
<title>Node25&#45;&gt;Node7</title>
<path fill="none" stroke="midnightblue" d="M827.18,-224.49C845.54,-217.8 867.02,-206.45 878,-188 897.01,-156.08 888.8,-110.52 881.91,-85.4"/>
<polygon fill="midnightblue" stroke="midnightblue" points="885.23,-84.29 879.03,-75.7 878.52,-86.28 885.23,-84.29"/>
</g>
<!-- Node25&#45;&gt;Node15 -->
<g id="edge48" class="edge">
<title>Node25&#45;&gt;Node15</title>
<path fill="none" stroke="midnightblue" d="M780.86,-224.32C767.13,-215.9 746.06,-202.97 729.94,-193.07"/>
<polygon fill="midnightblue" stroke="midnightblue" points="731.46,-189.9 721.1,-187.65 727.8,-195.87 731.46,-189.9"/>
</g>
<!-- Node26 -->
<g id="node26" class="node">
<title>Node26</title>
<g id="a_node26"><a xlink:title=" ">
<polygon fill="white" stroke="#bfbfbf" points="829,-168.5 829,-187.5 869,-187.5 869,-168.5 829,-168.5"/>
<text text-anchor="middle" x="849" y="-175.5" font-family="Helvetica,sans-Serif" font-size="10.00">span</text>
</a>
</g>
</g>
<!-- Node25&#45;&gt;Node26 -->
<g id="edge50" class="edge">
<title>Node25&#45;&gt;Node26</title>
<path fill="none" stroke="midnightblue" d="M803.92,-224.08C811.78,-216.22 823.43,-204.57 832.92,-195.08"/>
<polygon fill="midnightblue" stroke="midnightblue" points="835.65,-197.3 840.25,-187.75 830.7,-192.35 835.65,-197.3"/>
</g>
<!-- Node28&#45;&gt;Node7 -->
<g id="edge55" class="edge">
<title>Node28&#45;&gt;Node7</title>
<path fill="none" stroke="midnightblue" d="M1065.35,-112.44C1022.05,-102.05 949.67,-84.68 908.06,-74.7"/>
<polygon fill="midnightblue" stroke="midnightblue" points="908.73,-71.25 898.19,-72.32 907.09,-78.06 908.73,-71.25"/>
</g>
<!-- Node28&#45;&gt;Node8 -->
<g id="edge56" class="edge">
<title>Node28&#45;&gt;Node8</title>
<path fill="none" stroke="midnightblue" d="M1083.17,-112.32C1065.28,-103.62 1037.52,-90.12 1016.95,-80.11"/>
<polygon fill="midnightblue" stroke="midnightblue" points="1018.31,-76.88 1007.79,-75.65 1015.25,-83.18 1018.31,-76.88"/>
</g>
<!-- Node29&#45;&gt;Node4 -->
<g id="edge60" class="edge">
<title>Node29&#45;&gt;Node4</title>
<path fill="none" stroke="midnightblue" d="M284.44,-393.23C235.91,-381.99 159.72,-356.05 125,-300 74.99,-219.26 188.85,-119.01 236.89,-81.8"/>
<polygon fill="midnightblue" stroke="midnightblue" points="239.2,-84.44 245.04,-75.6 234.96,-78.87 239.2,-84.44"/>
</g>
<!-- Node29&#45;&gt;Node6 -->
<g id="edge61" class="edge">
<title>Node29&#45;&gt;Node6</title>
<path fill="none" stroke="midnightblue" d="M284.44,-395.68C195.22,-383.58 0,-350.31 0,-291 0,-291 0,-291 0,-177 0,-133.74 42.61,-99.09 70.75,-80.91"/>
<polygon fill="midnightblue" stroke="midnightblue" points="72.66,-83.85 79.31,-75.6 68.97,-77.9 72.66,-83.85"/>
</g>
<!-- Node29&#45;&gt;Node8 -->
<g id="edge59" class="edge">
<title>Node29&#45;&gt;Node8</title>
<path fill="none" stroke="midnightblue" d="M348.2,-392.43C382.59,-378.22 455.01,-349.98 519,-336 727.8,-290.38 846.86,-401.8 991,-244 1031.11,-200.09 1026.92,-169.82 1013,-112 1010.69,-102.42 1005.98,-92.58 1001.42,-84.56"/>
<polygon fill="midnightblue" stroke="midnightblue" points="1004.29,-82.54 996.1,-75.81 998.31,-86.17 1004.29,-82.54"/>
</g>
<!-- Node29&#45;&gt;Node13 -->
<g id="edge58" class="edge">
<title>Node29&#45;&gt;Node13</title>
<path fill="none" stroke="midnightblue" d="M328,-392.08C328,-385.01 328,-374.86 328,-365.99"/>
<polygon fill="midnightblue" stroke="midnightblue" points="331.5,-365.75 328,-355.75 324.5,-365.75 331.5,-365.75"/>
</g>
<!-- Node30&#45;&gt;Node8 -->
<g id="edge63" class="edge">
<title>Node30&#45;&gt;Node8</title>
<path fill="none" stroke="midnightblue" d="M1151.73,-280.49C1163.22,-252.85 1194.95,-164.3 1155,-112 1141.78,-94.69 1089.5,-82.44 1047.29,-75.13"/>
<polygon fill="midnightblue" stroke="midnightblue" points="1047.8,-71.67 1037.36,-73.47 1046.64,-78.57 1047.8,-71.67"/>
</g>
</g>
</svg>
