<?xml version="1.0" encoding="UTF-8" standalone="no"?>
<!DOCTYPE svg PUBLIC "-//W3C//DTD SVG 1.1//EN"
 "http://www.w3.org/Graphics/SVG/1.1/DTD/svg11.dtd">
<!-- Generated by graphviz version 2.43.0 (0)
 -->
<!-- Title: sources/Debugger/MemoryBusDebug.hpp Pages: 1 -->
<svg width="944pt" height="431pt"
 viewBox="0.00 0.00 944.00 431.00" xmlns="http://www.w3.org/2000/svg" xmlns:xlink="http://www.w3.org/1999/xlink">
<g id="graph0" class="graph" transform="scale(1 1) rotate(0) translate(4 427)">
<title>sources/Debugger/MemoryBusDebug.hpp</title>
<polygon fill="white" stroke="transparent" points="-4,4 -4,-427 940,-427 940,4 -4,4"/>
<!-- Node1 -->
<g id="node1" class="node">
<title>Node1</title>
<g id="a_node1"><a xlink:title=" ">
<polygon fill="#bfbfbf" stroke="black" points="559,-392.5 559,-422.5 725,-422.5 725,-392.5 559,-392.5"/>
<text text-anchor="start" x="567" y="-410.5" font-family="Helvetica,sans-Serif" font-size="10.00">sources/Debugger/MemoryBus</text>
<text text-anchor="middle" x="642" y="-399.5" font-family="Helvetica,sans-Serif" font-size="10.00">Debug.hpp</text>
</a>
</g>
</g>
<!-- Node2 -->
<g id="node2" class="node">
<title>Node2</title>
<g id="a_node2"><a xlink:title=" ">
<polygon fill="white" stroke="#bfbfbf" points="683.5,-280.5 683.5,-299.5 824.5,-299.5 824.5,-280.5 683.5,-280.5"/>
<text text-anchor="middle" x="754" y="-287.5" font-family="Helvetica,sans-Serif" font-size="10.00">QtWidgets/QMainWindow</text>
</a>
</g>
</g>
<!-- Node1&#45;&gt;Node2 -->
<g id="edge1" class="edge">
<title>Node1&#45;&gt;Node2</title>
<path fill="none" stroke="midnightblue" d="M652.14,-392.28C662.97,-377.51 681.02,-354.08 699,-336 709.84,-325.09 723.17,-314.14 733.99,-305.77"/>
<polygon fill="midnightblue" stroke="midnightblue" points="736.19,-308.49 742.03,-299.66 731.95,-302.92 736.19,-308.49"/>
</g>
<!-- Node3 -->
<g id="node3" class="node">
<title>Node3</title>
<g id="a_node3"><a xlink:title=" ">
<polygon fill="white" stroke="#bfbfbf" points="412.5,-336.5 412.5,-355.5 575.5,-355.5 575.5,-336.5 412.5,-336.5"/>
<text text-anchor="middle" x="494" y="-343.5" font-family="Helvetica,sans-Serif" font-size="10.00">QtCore/QSortFilterProxyModel</text>
</a>
</g>
</g>
<!-- Node1&#45;&gt;Node3 -->
<g id="edge2" class="edge">
<title>Node1&#45;&gt;Node3</title>
<path fill="none" stroke="midnightblue" d="M606.93,-392.4C581.98,-382.37 548.79,-369.03 524.86,-359.4"/>
<polygon fill="midnightblue" stroke="midnightblue" points="526.12,-356.14 515.54,-355.66 523.51,-362.64 526.12,-356.14"/>
</g>
<!-- Node4 -->
<g id="node4" class="node">
<title>Node4</title>
<g id="a_node4"><a xlink:href="MemoryBus_8hpp.html" target="_top" xlink:title=" ">
<polygon fill="white" stroke="black" points="197,-336.5 197,-355.5 337,-355.5 337,-336.5 197,-336.5"/>
<text text-anchor="middle" x="267" y="-343.5" font-family="Helvetica,sans-Serif" font-size="10.00">Memory/MemoryBus.hpp</text>
</a>
</g>
</g>
<!-- Node1&#45;&gt;Node4 -->
<g id="edge3" class="edge">
<title>Node1&#45;&gt;Node4</title>
<path fill="none" stroke="midnightblue" d="M558.78,-393.3C490,-382.38 393.77,-367.11 330.92,-357.14"/>
<polygon fill="midnightblue" stroke="midnightblue" points="331.18,-353.64 320.75,-355.53 330.08,-360.55 331.18,-353.64"/>
</g>
<!-- Node14 -->
<g id="node14" class="node">
<title>Node14</title>
<g id="a_node14"><a xlink:href="IMemory_8hpp.html" target="_top" xlink:title=" ">
<polygon fill="white" stroke="black" points="319,-112.5 319,-131.5 399,-131.5 399,-112.5 319,-112.5"/>
<text text-anchor="middle" x="359" y="-119.5" font-family="Helvetica,sans-Serif" font-size="10.00">IMemory.hpp</text>
</a>
</g>
</g>
<!-- Node1&#45;&gt;Node14 -->
<g id="edge36" class="edge">
<title>Node1&#45;&gt;Node14</title>
<path fill="none" stroke="midnightblue" d="M645.64,-392.28C653.46,-358.1 667.71,-270.72 623,-224 547.82,-145.44 464.44,-257.72 381,-188 367.45,-176.68 362.22,-156.68 360.21,-141.84"/>
<polygon fill="midnightblue" stroke="midnightblue" points="363.68,-141.35 359.22,-131.73 356.71,-142.03 363.68,-141.35"/>
</g>
<!-- Node19 -->
<g id="node19" class="node">
<title>Node19</title>
<g id="a_node19"><a xlink:title=" ">
<polygon fill="white" stroke="#bfbfbf" points="558,-224.5 558,-243.5 614,-243.5 614,-224.5 558,-224.5"/>
<text text-anchor="middle" x="586" y="-231.5" font-family="Helvetica,sans-Serif" font-size="10.00">optional</text>
</a>
</g>
</g>
<!-- Node1&#45;&gt;Node19 -->
<g id="edge41" class="edge">
<title>Node1&#45;&gt;Node19</title>
<path fill="none" stroke="midnightblue" d="M637.42,-392.47C627.33,-361.57 603.2,-287.69 591.96,-253.25"/>
<polygon fill="midnightblue" stroke="midnightblue" points="595.23,-251.98 588.8,-243.56 588.57,-254.15 595.23,-251.98"/>
</g>
<!-- Node20 -->
<g id="node20" class="node">
<title>Node20</title>
<g id="a_node20"><a xlink:title=" ">
<polygon fill="white" stroke="#bfbfbf" points="708,-336.5 708,-355.5 800,-355.5 800,-336.5 708,-336.5"/>
<text text-anchor="middle" x="754" y="-343.5" font-family="Helvetica,sans-Serif" font-size="10.00">ui/ui_busView.h</text>
</a>
</g>
</g>
<!-- Node1&#45;&gt;Node20 -->
<g id="edge37" class="edge">
<title>Node1&#45;&gt;Node20</title>
<path fill="none" stroke="midnightblue" d="M668.54,-392.4C686.66,-382.77 710.54,-370.09 728.44,-360.58"/>
<polygon fill="midnightblue" stroke="midnightblue" points="730.51,-363.44 737.7,-355.66 727.23,-357.26 730.51,-363.44"/>
</g>
<!-- Node21 -->
<g id="node21" class="node">
<title>Node21</title>
<g id="a_node21"><a xlink:href="ClosableWindow_8hpp.html" target="_top" xlink:title=" ">
<polygon fill="white" stroke="black" points="818,-336.5 818,-355.5 936,-355.5 936,-336.5 818,-336.5"/>
<text text-anchor="middle" x="877" y="-343.5" font-family="Helvetica,sans-Serif" font-size="10.00">ClosableWindow.hpp</text>
</a>
</g>
</g>
<!-- Node1&#45;&gt;Node21 -->
<g id="edge38" class="edge">
<title>Node1&#45;&gt;Node21</title>
<path fill="none" stroke="midnightblue" d="M697.39,-392.47C739,-381.94 795.18,-367.72 833.56,-358"/>
<polygon fill="midnightblue" stroke="midnightblue" points="834.57,-361.35 843.4,-355.51 832.85,-354.57 834.57,-361.35"/>
</g>
<!-- Node5 -->
<g id="node5" class="node">
<title>Node5</title>
<g id="a_node5"><a xlink:href="AMemory_8hpp.html" target="_top" xlink:title=" ">
<polygon fill="white" stroke="black" points="212.5,-168.5 212.5,-187.5 295.5,-187.5 295.5,-168.5 212.5,-168.5"/>
<text text-anchor="middle" x="254" y="-175.5" font-family="Helvetica,sans-Serif" font-size="10.00">AMemory.hpp</text>
</a>
</g>
</g>
<!-- Node4&#45;&gt;Node5 -->
<g id="edge4" class="edge">
<title>Node4&#45;&gt;Node5</title>
<path fill="none" stroke="midnightblue" d="M267.04,-336.46C267.05,-316.64 266.58,-266.01 262,-224 261.04,-215.21 259.4,-205.56 257.86,-197.45"/>
<polygon fill="midnightblue" stroke="midnightblue" points="261.28,-196.69 255.88,-187.58 254.41,-198.07 261.28,-196.69"/>
</g>
<!-- Node6 -->
<g id="node6" class="node">
<title>Node6</title>
<g id="a_node6"><a xlink:title=" ">
<polygon fill="white" stroke="#bfbfbf" points="510,-56.5 510,-75.5 560,-75.5 560,-56.5 510,-56.5"/>
<text text-anchor="middle" x="535" y="-63.5" font-family="Helvetica,sans-Serif" font-size="10.00">cstdint</text>
</a>
</g>
</g>
<!-- Node4&#45;&gt;Node6 -->
<g id="edge33" class="edge">
<title>Node4&#45;&gt;Node6</title>
<path fill="none" stroke="midnightblue" d="M300.32,-336.47C359,-319.46 479.46,-275.23 531,-188 549.82,-156.14 544.65,-110.88 539.58,-85.72"/>
<polygon fill="midnightblue" stroke="midnightblue" points="542.94,-84.69 537.35,-75.69 536.11,-86.21 542.94,-84.69"/>
</g>
<!-- Node7 -->
<g id="node7" class="node">
<title>Node7</title>
<g id="a_node7"><a xlink:title=" ">
<polygon fill="white" stroke="#bfbfbf" points="115.5,-56.5 115.5,-75.5 162.5,-75.5 162.5,-56.5 115.5,-56.5"/>
<text text-anchor="middle" x="139" y="-63.5" font-family="Helvetica,sans-Serif" font-size="10.00">vector</text>
</a>
</g>
</g>
<!-- Node4&#45;&gt;Node7 -->
<g id="edge35" class="edge">
<title>Node4&#45;&gt;Node7</title>
<path fill="none" stroke="midnightblue" d="M263.03,-336.38C245.15,-297.54 171.91,-138.47 147.19,-84.79"/>
<polygon fill="midnightblue" stroke="midnightblue" points="150.29,-83.14 142.92,-75.52 143.93,-86.07 150.29,-83.14"/>
</g>
<!-- Node8 -->
<g id="node8" class="node">
<title>Node8</title>
<g id="a_node8"><a xlink:title=" ">
<polygon fill="white" stroke="#bfbfbf" points="39,-56.5 39,-75.5 97,-75.5 97,-56.5 39,-56.5"/>
<text text-anchor="middle" x="68" y="-63.5" font-family="Helvetica,sans-Serif" font-size="10.00">memory</text>
</a>
</g>
</g>
<!-- Node4&#45;&gt;Node8 -->
<g id="edge34" class="edge">
<title>Node4&#45;&gt;Node8</title>
<path fill="none" stroke="midnightblue" d="M196.85,-344.95C117.74,-340.77 0,-320.23 0,-235 0,-235 0,-235 0,-177 0,-138.55 30.43,-102.31 50.58,-82.54"/>
<polygon fill="midnightblue" stroke="midnightblue" points="53.1,-84.98 57.97,-75.57 48.29,-79.89 53.1,-84.98"/>
</g>
<!-- Node15 -->
<g id="node15" class="node">
<title>Node15</title>
<g id="a_node15"><a xlink:href="RectangleShadow_8hpp.html" target="_top" xlink:title=" ">
<polygon fill="white" stroke="black" points="96,-280.5 96,-299.5 220,-299.5 220,-280.5 96,-280.5"/>
<text text-anchor="middle" x="158" y="-287.5" font-family="Helvetica,sans-Serif" font-size="10.00">RectangleShadow.hpp</text>
</a>
</g>
</g>
<!-- Node4&#45;&gt;Node15 -->
<g id="edge20" class="edge">
<title>Node4&#45;&gt;Node15</title>
<path fill="none" stroke="midnightblue" d="M249.49,-336.32C231.93,-327.62 204.67,-314.12 184.47,-304.11"/>
<polygon fill="midnightblue" stroke="midnightblue" points="185.98,-300.96 175.47,-299.65 182.88,-307.23 185.98,-300.96"/>
</g>
<!-- Node17 -->
<g id="node17" class="node">
<title>Node17</title>
<g id="a_node17"><a xlink:href="MemoryShadow_8hpp.html" target="_top" xlink:title=" ">
<polygon fill="white" stroke="black" points="66,-224.5 66,-243.5 182,-243.5 182,-224.5 66,-224.5"/>
<text text-anchor="middle" x="124" y="-231.5" font-family="Helvetica,sans-Serif" font-size="10.00">MemoryShadow.hpp</text>
</a>
</g>
</g>
<!-- Node4&#45;&gt;Node17 -->
<g id="edge28" class="edge">
<title>Node4&#45;&gt;Node17</title>
<path fill="none" stroke="midnightblue" d="M197.21,-336.45C152.66,-329.4 100.78,-317.65 87,-300 74.8,-284.37 90.32,-264.26 104.83,-250.57"/>
<polygon fill="midnightblue" stroke="midnightblue" points="107.43,-252.94 112.61,-243.7 102.8,-247.7 107.43,-252.94"/>
</g>
<!-- Node18 -->
<g id="node18" class="node">
<title>Node18</title>
<g id="a_node18"><a xlink:href="IMemoryBus_8hpp.html" target="_top" xlink:title=" ">
<polygon fill="white" stroke="black" points="476.5,-280.5 476.5,-299.5 575.5,-299.5 575.5,-280.5 476.5,-280.5"/>
<text text-anchor="middle" x="526" y="-287.5" font-family="Helvetica,sans-Serif" font-size="10.00">IMemoryBus.hpp</text>
</a>
</g>
</g>
<!-- Node4&#45;&gt;Node18 -->
<g id="edge29" class="edge">
<title>Node4&#45;&gt;Node18</title>
<path fill="none" stroke="midnightblue" d="M308.04,-336.44C353.32,-327 426.23,-311.8 475.11,-301.61"/>
<polygon fill="midnightblue" stroke="midnightblue" points="476.08,-304.98 485.15,-299.52 474.65,-298.13 476.08,-304.98"/>
</g>
<!-- Node5&#45;&gt;Node6 -->
<g id="edge5" class="edge">
<title>Node5&#45;&gt;Node6</title>
<path fill="none" stroke="midnightblue" d="M295.6,-170.2C332.24,-163.33 386.54,-151 431,-132 462.55,-118.52 495.59,-96.25 515.74,-81.6"/>
<polygon fill="midnightblue" stroke="midnightblue" points="517.83,-84.41 523.8,-75.65 513.67,-78.78 517.83,-84.41"/>
</g>
<!-- Node5&#45;&gt;Node7 -->
<g id="edge6" class="edge">
<title>Node5&#45;&gt;Node7</title>
<path fill="none" stroke="midnightblue" d="M246.08,-168.35C234.35,-155.67 211.56,-131.43 191,-112 180.15,-101.75 167.5,-90.78 157.39,-82.24"/>
<polygon fill="midnightblue" stroke="midnightblue" points="159.51,-79.44 149.6,-75.7 155.01,-84.81 159.51,-79.44"/>
</g>
<!-- Node5&#45;&gt;Node8 -->
<g id="edge7" class="edge">
<title>Node5&#45;&gt;Node8</title>
<path fill="none" stroke="midnightblue" d="M239.4,-168.37C207.35,-149.41 130.56,-104 91.58,-80.94"/>
<polygon fill="midnightblue" stroke="midnightblue" points="92.92,-77.67 82.53,-75.59 89.35,-83.69 92.92,-77.67"/>
</g>
<!-- Node9 -->
<g id="node9" class="node">
<title>Node9</title>
<g id="a_node9"><a xlink:title=" ">
<polygon fill="white" stroke="#bfbfbf" points="336,-56.5 336,-75.5 380,-75.5 380,-56.5 336,-56.5"/>
<text text-anchor="middle" x="358" y="-63.5" font-family="Helvetica,sans-Serif" font-size="10.00">string</text>
</a>
</g>
</g>
<!-- Node5&#45;&gt;Node9 -->
<g id="edge8" class="edge">
<title>Node5&#45;&gt;Node9</title>
<path fill="none" stroke="midnightblue" d="M260.97,-168.33C271.3,-155.63 291.44,-131.35 310,-112 319.78,-101.8 331.32,-90.94 340.64,-82.45"/>
<polygon fill="midnightblue" stroke="midnightblue" points="343.07,-84.97 348.15,-75.67 338.38,-79.77 343.07,-84.97"/>
</g>
<!-- Node10 -->
<g id="node10" class="node">
<title>Node10</title>
<g id="a_node10"><a xlink:href="Ints_8hpp.html" target="_top" xlink:title=" ">
<polygon fill="white" stroke="black" points="398,-56.5 398,-75.5 492,-75.5 492,-56.5 398,-56.5"/>
<text text-anchor="middle" x="445" y="-63.5" font-family="Helvetica,sans-Serif" font-size="10.00">Models/Ints.hpp</text>
</a>
</g>
</g>
<!-- Node5&#45;&gt;Node10 -->
<g id="edge9" class="edge">
<title>Node5&#45;&gt;Node10</title>
<path fill="none" stroke="midnightblue" d="M295.83,-173.38C329.24,-168.61 375.66,-157.56 408,-132 423.25,-119.95 433.31,-99.77 439.04,-85.09"/>
<polygon fill="midnightblue" stroke="midnightblue" points="442.38,-86.16 442.46,-75.56 435.79,-83.79 442.38,-86.16"/>
</g>
<!-- Node13 -->
<g id="node13" class="node">
<title>Node13</title>
<g id="a_node13"><a xlink:href="Components_8hpp.html" target="_top" xlink:title=" ">
<polygon fill="white" stroke="black" points="180.5,-56.5 180.5,-75.5 317.5,-75.5 317.5,-56.5 180.5,-56.5"/>
<text text-anchor="middle" x="249" y="-63.5" font-family="Helvetica,sans-Serif" font-size="10.00">Models/Components.hpp</text>
</a>
</g>
</g>
<!-- Node5&#45;&gt;Node13 -->
<g id="edge12" class="edge">
<title>Node5&#45;&gt;Node13</title>
<path fill="none" stroke="midnightblue" d="M253.61,-168.37C252.8,-150.62 250.94,-109.67 249.85,-85.6"/>
<polygon fill="midnightblue" stroke="midnightblue" points="253.34,-85.42 249.39,-75.59 246.35,-85.74 253.34,-85.42"/>
</g>
<!-- Node5&#45;&gt;Node14 -->
<g id="edge13" class="edge">
<title>Node5&#45;&gt;Node14</title>
<path fill="none" stroke="midnightblue" d="M270.87,-168.32C287.71,-159.66 313.81,-146.24 333.24,-136.25"/>
<polygon fill="midnightblue" stroke="midnightblue" points="334.88,-139.34 342.17,-131.65 331.68,-133.12 334.88,-139.34"/>
</g>
<!-- Node11 -->
<g id="node11" class="node">
<title>Node11</title>
<g id="a_node11"><a xlink:title=" ">
<polygon fill="white" stroke="#bfbfbf" points="525,-0.5 525,-19.5 587,-19.5 587,-0.5 525,-0.5"/>
<text text-anchor="middle" x="556" y="-7.5" font-family="Helvetica,sans-Serif" font-size="10.00">cinttypes</text>
</a>
</g>
</g>
<!-- Node10&#45;&gt;Node11 -->
<g id="edge10" class="edge">
<title>Node10&#45;&gt;Node11</title>
<path fill="none" stroke="midnightblue" d="M462.83,-56.32C480.72,-47.62 508.48,-34.12 529.05,-24.11"/>
<polygon fill="midnightblue" stroke="midnightblue" points="530.75,-27.18 538.21,-19.65 527.69,-20.88 530.75,-27.18"/>
</g>
<!-- Node12 -->
<g id="node12" class="node">
<title>Node12</title>
<g id="a_node12"><a xlink:title=" ">
<polygon fill="white" stroke="#bfbfbf" points="415,-0.5 415,-19.5 475,-19.5 475,-0.5 415,-0.5"/>
<text text-anchor="middle" x="445" y="-7.5" font-family="Helvetica,sans-Serif" font-size="10.00">iostream</text>
</a>
</g>
</g>
<!-- Node10&#45;&gt;Node12 -->
<g id="edge11" class="edge">
<title>Node10&#45;&gt;Node12</title>
<path fill="none" stroke="midnightblue" d="M445,-56.08C445,-49.01 445,-38.86 445,-29.99"/>
<polygon fill="midnightblue" stroke="midnightblue" points="448.5,-29.75 445,-19.75 441.5,-29.75 448.5,-29.75"/>
</g>
<!-- Node14&#45;&gt;Node6 -->
<g id="edge14" class="edge">
<title>Node14&#45;&gt;Node6</title>
<path fill="none" stroke="midnightblue" d="M386.89,-112.44C417.54,-103.04 466.84,-87.91 500.06,-77.72"/>
<polygon fill="midnightblue" stroke="midnightblue" points="501.28,-81.01 509.81,-74.73 499.22,-74.32 501.28,-81.01"/>
</g>
<!-- Node14&#45;&gt;Node7 -->
<g id="edge15" class="edge">
<title>Node14&#45;&gt;Node7</title>
<path fill="none" stroke="midnightblue" d="M321.44,-112.47C285.49,-104.2 229.51,-91.06 172.62,-76.35"/>
<polygon fill="midnightblue" stroke="midnightblue" points="173.3,-72.92 162.74,-73.79 171.54,-79.69 173.3,-72.92"/>
</g>
<!-- Node14&#45;&gt;Node8 -->
<g id="edge16" class="edge">
<title>Node14&#45;&gt;Node8</title>
<path fill="none" stroke="midnightblue" d="M318.99,-114.6C270.96,-106.76 187.74,-92.68 106.86,-76.08"/>
<polygon fill="midnightblue" stroke="midnightblue" points="107.51,-72.65 97.01,-74.05 106.09,-79.5 107.51,-72.65"/>
</g>
<!-- Node14&#45;&gt;Node9 -->
<g id="edge17" class="edge">
<title>Node14&#45;&gt;Node9</title>
<path fill="none" stroke="midnightblue" d="M358.83,-112.08C358.7,-105.01 358.52,-94.86 358.35,-85.99"/>
<polygon fill="midnightblue" stroke="midnightblue" points="361.85,-85.68 358.16,-75.75 354.85,-85.81 361.85,-85.68"/>
</g>
<!-- Node14&#45;&gt;Node10 -->
<g id="edge18" class="edge">
<title>Node14&#45;&gt;Node10</title>
<path fill="none" stroke="midnightblue" d="M372.82,-112.32C386.23,-103.9 406.82,-90.97 422.59,-81.07"/>
<polygon fill="midnightblue" stroke="midnightblue" points="424.61,-83.94 431.22,-75.65 420.89,-78.01 424.61,-83.94"/>
</g>
<!-- Node14&#45;&gt;Node13 -->
<g id="edge19" class="edge">
<title>Node14&#45;&gt;Node13</title>
<path fill="none" stroke="midnightblue" d="M341.33,-112.32C323.61,-103.62 296.1,-90.12 275.71,-80.11"/>
<polygon fill="midnightblue" stroke="midnightblue" points="277.15,-76.92 266.63,-75.65 274.06,-83.2 277.15,-76.92"/>
</g>
<!-- Node15&#45;&gt;Node8 -->
<g id="edge21" class="edge">
<title>Node15&#45;&gt;Node8</title>
<path fill="none" stroke="midnightblue" d="M112.35,-280.43C91.76,-274.04 69.33,-263 57,-244 24.78,-194.37 47.14,-119.49 60.29,-85.25"/>
<polygon fill="midnightblue" stroke="midnightblue" points="63.67,-86.23 64.15,-75.65 57.17,-83.62 63.67,-86.23"/>
</g>
<!-- Node16 -->
<g id="node16" class="node">
<title>Node16</title>
<g id="a_node16"><a xlink:href="ARectangleMemory_8hpp.html" target="_top" xlink:title=" ">
<polygon fill="white" stroke="black" points="390,-168.5 390,-187.5 522,-187.5 522,-168.5 390,-168.5"/>
<text text-anchor="middle" x="456" y="-175.5" font-family="Helvetica,sans-Serif" font-size="10.00">ARectangleMemory.hpp</text>
</a>
</g>
</g>
<!-- Node15&#45;&gt;Node16 -->
<g id="edge22" class="edge">
<title>Node15&#45;&gt;Node16</title>
<path fill="none" stroke="midnightblue" d="M181.38,-280.37C234.15,-260.89 362.59,-213.48 423.25,-191.09"/>
<polygon fill="midnightblue" stroke="midnightblue" points="424.56,-194.34 432.73,-187.59 422.13,-187.77 424.56,-194.34"/>
</g>
<!-- Node15&#45;&gt;Node17 -->
<g id="edge25" class="edge">
<title>Node15&#45;&gt;Node17</title>
<path fill="none" stroke="midnightblue" d="M152.39,-280.08C147.63,-272.53 140.68,-261.49 134.85,-252.23"/>
<polygon fill="midnightblue" stroke="midnightblue" points="137.8,-250.35 129.51,-243.75 131.88,-254.08 137.8,-250.35"/>
</g>
<!-- Node16&#45;&gt;Node10 -->
<g id="edge24" class="edge">
<title>Node16&#45;&gt;Node10</title>
<path fill="none" stroke="midnightblue" d="M455.14,-168.37C453.36,-150.62 449.27,-109.67 446.86,-85.6"/>
<polygon fill="midnightblue" stroke="midnightblue" points="450.34,-85.19 445.86,-75.59 443.37,-85.89 450.34,-85.19"/>
</g>
<!-- Node16&#45;&gt;Node14 -->
<g id="edge23" class="edge">
<title>Node16&#45;&gt;Node14</title>
<path fill="none" stroke="midnightblue" d="M440.42,-168.32C425,-159.74 401.19,-146.49 383.29,-136.52"/>
<polygon fill="midnightblue" stroke="midnightblue" points="384.99,-133.46 374.55,-131.65 381.58,-139.58 384.99,-133.46"/>
</g>
<!-- Node17&#45;&gt;Node5 -->
<g id="edge27" class="edge">
<title>Node17&#45;&gt;Node5</title>
<path fill="none" stroke="midnightblue" d="M144.6,-224.44C165.99,-215.56 199.68,-201.56 224.02,-191.45"/>
<polygon fill="midnightblue" stroke="midnightblue" points="225.61,-194.58 233.5,-187.52 222.92,-188.12 225.61,-194.58"/>
</g>
<!-- Node17&#45;&gt;Node8 -->
<g id="edge26" class="edge">
<title>Node17&#45;&gt;Node8</title>
<path fill="none" stroke="midnightblue" d="M120.99,-224.08C112.14,-197.83 86.06,-120.55 74.11,-85.12"/>
<polygon fill="midnightblue" stroke="midnightblue" points="77.4,-83.92 70.89,-75.57 70.77,-86.16 77.4,-83.92"/>
</g>
<!-- Node18&#45;&gt;Node11 -->
<g id="edge30" class="edge">
<title>Node18&#45;&gt;Node11</title>
<path fill="none" stroke="midnightblue" d="M528.97,-280.11C533.22,-267.54 541.35,-243.88 549,-224 555.23,-207.82 560.22,-204.92 564,-188 574.86,-139.37 567.89,-125.81 569,-76 569.2,-67.11 570.25,-64.8 569,-56 567.73,-47.04 565.11,-37.37 562.55,-29.3"/>
<polygon fill="midnightblue" stroke="midnightblue" points="565.86,-28.16 559.34,-19.8 559.23,-30.4 565.86,-28.16"/>
</g>
<!-- Node18&#45;&gt;Node14 -->
<g id="edge32" class="edge">
<title>Node18&#45;&gt;Node14</title>
<path fill="none" stroke="midnightblue" d="M490.65,-280.46C448.13,-268.09 378.67,-240.66 348,-188 339.65,-173.66 344.29,-154.7 349.88,-140.97"/>
<polygon fill="midnightblue" stroke="midnightblue" points="353.17,-142.19 354.15,-131.64 346.8,-139.28 353.17,-142.19"/>
</g>
<!-- Node18&#45;&gt;Node19 -->
<g id="edge31" class="edge">
<title>Node18&#45;&gt;Node19</title>
<path fill="none" stroke="midnightblue" d="M535.64,-280.32C544.51,-272.34 557.87,-260.31 568.61,-250.65"/>
<polygon fill="midnightblue" stroke="midnightblue" points="571.09,-253.13 576.18,-243.83 566.41,-247.92 571.09,-253.13"/>
</g>
<!-- Node21&#45;&gt;Node2 -->
<g id="edge39" class="edge">
<title>Node21&#45;&gt;Node2</title>
<path fill="none" stroke="midnightblue" d="M857.51,-336.44C837.36,-327.6 805.68,-313.69 782.67,-303.59"/>
<polygon fill="midnightblue" stroke="midnightblue" points="783.96,-300.33 773.4,-299.52 781.15,-306.74 783.96,-300.33"/>
</g>
<!-- Node22 -->
<g id="node22" class="node">
<title>Node22</title>
<g id="a_node22"><a xlink:title=" ">
<polygon fill="white" stroke="#bfbfbf" points="854.5,-280.5 854.5,-299.5 899.5,-299.5 899.5,-280.5 854.5,-280.5"/>
<text text-anchor="middle" x="877" y="-287.5" font-family="Helvetica,sans-Serif" font-size="10.00">utility</text>
</a>
</g>
</g>
<!-- Node21&#45;&gt;Node22 -->
<g id="edge40" class="edge">
<title>Node21&#45;&gt;Node22</title>
<path fill="none" stroke="midnightblue" d="M877,-336.08C877,-329.01 877,-318.86 877,-309.99"/>
<polygon fill="midnightblue" stroke="midnightblue" points="880.5,-309.75 877,-299.75 873.5,-309.75 880.5,-309.75"/>
</g>
</g>
</svg>
