<?xml version="1.0" encoding="UTF-8" standalone="no"?>
<!DOCTYPE svg PUBLIC "-//W3C//DTD SVG 1.1//EN"
 "http://www.w3.org/Graphics/SVG/1.1/DTD/svg11.dtd">
<!-- Generated by graphviz version 2.43.0 (0)
 -->
<!-- Title: sources/Memory/MemoryBus.hpp Pages: 1 -->
<svg width="667pt" height="364pt"
 viewBox="0.00 0.00 666.50 364.00" xmlns="http://www.w3.org/2000/svg" xmlns:xlink="http://www.w3.org/1999/xlink">
<g id="graph0" class="graph" transform="scale(1 1) rotate(0) translate(4 360)">
<title>sources/Memory/MemoryBus.hpp</title>
<polygon fill="white" stroke="transparent" points="-4,4 -4,-360 662.5,-360 662.5,4 -4,4"/>
<!-- Node1 -->
<g id="node1" class="node">
<title>Node1</title>
<g id="a_node1"><a xlink:title=" ">
<polygon fill="#bfbfbf" stroke="black" points="212,-336.5 212,-355.5 392,-355.5 392,-336.5 212,-336.5"/>
<text text-anchor="middle" x="302" y="-343.5" font-family="Helvetica,sans-Serif" font-size="10.00">sources/Memory/MemoryBus.hpp</text>
</a>
</g>
</g>
<!-- Node2 -->
<g id="node2" class="node">
<title>Node2</title>
<g id="a_node2"><a xlink:href="AMemory_8hpp.html" target="_top" xlink:title=" ">
<polygon fill="white" stroke="black" points="178.5,-168.5 178.5,-187.5 261.5,-187.5 261.5,-168.5 178.5,-168.5"/>
<text text-anchor="middle" x="220" y="-175.5" font-family="Helvetica,sans-Serif" font-size="10.00">AMemory.hpp</text>
</a>
</g>
</g>
<!-- Node1&#45;&gt;Node2 -->
<g id="edge1" class="edge">
<title>Node1&#45;&gt;Node2</title>
<path fill="none" stroke="midnightblue" d="M295.39,-336.27C282.83,-319.32 255.3,-280.4 239,-244 232.24,-228.91 227.18,-210.79 223.98,-197.51"/>
<polygon fill="midnightblue" stroke="midnightblue" points="227.38,-196.65 221.74,-187.68 220.55,-198.21 227.38,-196.65"/>
</g>
<!-- Node3 -->
<g id="node3" class="node">
<title>Node3</title>
<g id="a_node3"><a xlink:title=" ">
<polygon fill="white" stroke="#bfbfbf" points="0,-56.5 0,-75.5 50,-75.5 50,-56.5 0,-56.5"/>
<text text-anchor="middle" x="25" y="-63.5" font-family="Helvetica,sans-Serif" font-size="10.00">cstdint</text>
</a>
</g>
</g>
<!-- Node1&#45;&gt;Node3 -->
<g id="edge30" class="edge">
<title>Node1&#45;&gt;Node3</title>
<path fill="none" stroke="midnightblue" d="M235.92,-336.49C196.9,-329.86 147.23,-318.56 106,-300 60.68,-279.6 15,-284.7 15,-235 15,-235 15,-235 15,-177 15,-144.82 19.3,-107.55 22.26,-85.7"/>
<polygon fill="midnightblue" stroke="midnightblue" points="25.76,-85.92 23.69,-75.53 18.83,-84.95 25.76,-85.92"/>
</g>
<!-- Node4 -->
<g id="node4" class="node">
<title>Node4</title>
<g id="a_node4"><a xlink:title=" ">
<polygon fill="white" stroke="#bfbfbf" points="68.5,-56.5 68.5,-75.5 115.5,-75.5 115.5,-56.5 68.5,-56.5"/>
<text text-anchor="middle" x="92" y="-63.5" font-family="Helvetica,sans-Serif" font-size="10.00">vector</text>
</a>
</g>
</g>
<!-- Node1&#45;&gt;Node4 -->
<g id="edge32" class="edge">
<title>Node1&#45;&gt;Node4</title>
<path fill="none" stroke="midnightblue" d="M226.42,-336.49C165.88,-324.98 91,-298 91,-235 91,-235 91,-235 91,-177 91,-144.95 91.43,-107.64 91.73,-85.75"/>
<polygon fill="midnightblue" stroke="midnightblue" points="95.23,-85.61 91.87,-75.56 88.23,-85.51 95.23,-85.61"/>
</g>
<!-- Node5 -->
<g id="node5" class="node">
<title>Node5</title>
<g id="a_node5"><a xlink:title=" ">
<polygon fill="white" stroke="#bfbfbf" points="464,-56.5 464,-75.5 522,-75.5 522,-56.5 464,-56.5"/>
<text text-anchor="middle" x="493" y="-63.5" font-family="Helvetica,sans-Serif" font-size="10.00">memory</text>
</a>
</g>
</g>
<!-- Node1&#45;&gt;Node5 -->
<g id="edge31" class="edge">
<title>Node1&#45;&gt;Node5</title>
<path fill="none" stroke="midnightblue" d="M392.18,-337.25C456.26,-326.21 531,-299.5 531,-235 531,-235 531,-235 531,-177 531,-142.81 514.4,-105.76 503.14,-84.57"/>
<polygon fill="midnightblue" stroke="midnightblue" points="506.18,-82.83 498.28,-75.77 500.05,-86.22 506.18,-82.83"/>
</g>
<!-- Node12 -->
<g id="node12" class="node">
<title>Node12</title>
<g id="a_node12"><a xlink:href="RectangleShadow_8hpp.html" target="_top" xlink:title=" ">
<polygon fill="white" stroke="black" points="330,-280.5 330,-299.5 454,-299.5 454,-280.5 330,-280.5"/>
<text text-anchor="middle" x="392" y="-287.5" font-family="Helvetica,sans-Serif" font-size="10.00">RectangleShadow.hpp</text>
</a>
</g>
</g>
<!-- Node1&#45;&gt;Node12 -->
<g id="edge17" class="edge">
<title>Node1&#45;&gt;Node12</title>
<path fill="none" stroke="midnightblue" d="M316.46,-336.32C330.5,-327.9 352.05,-314.97 368.54,-305.07"/>
<polygon fill="midnightblue" stroke="midnightblue" points="370.8,-307.8 377.58,-299.65 367.2,-301.8 370.8,-307.8"/>
</g>
<!-- Node14 -->
<g id="node14" class="node">
<title>Node14</title>
<g id="a_node14"><a xlink:href="MemoryShadow_8hpp.html" target="_top" xlink:title=" ">
<polygon fill="white" stroke="black" points="248,-224.5 248,-243.5 364,-243.5 364,-224.5 248,-224.5"/>
<text text-anchor="middle" x="306" y="-231.5" font-family="Helvetica,sans-Serif" font-size="10.00">MemoryShadow.hpp</text>
</a>
</g>
</g>
<!-- Node1&#45;&gt;Node14 -->
<g id="edge25" class="edge">
<title>Node1&#45;&gt;Node14</title>
<path fill="none" stroke="midnightblue" d="M302.31,-336.37C302.96,-318.62 304.45,-277.67 305.32,-253.6"/>
<polygon fill="midnightblue" stroke="midnightblue" points="308.82,-253.71 305.69,-243.59 301.83,-253.46 308.82,-253.71"/>
</g>
<!-- Node15 -->
<g id="node15" class="node">
<title>Node15</title>
<g id="a_node15"><a xlink:href="IMemoryBus_8hpp.html" target="_top" xlink:title=" ">
<polygon fill="white" stroke="black" points="559.5,-168.5 559.5,-187.5 658.5,-187.5 658.5,-168.5 559.5,-168.5"/>
<text text-anchor="middle" x="609" y="-175.5" font-family="Helvetica,sans-Serif" font-size="10.00">IMemoryBus.hpp</text>
</a>
</g>
</g>
<!-- Node1&#45;&gt;Node15 -->
<g id="edge26" class="edge">
<title>Node1&#45;&gt;Node15</title>
<path fill="none" stroke="midnightblue" d="M392.19,-336.53C450.89,-329.49 520.88,-317.72 545,-300 579.67,-274.52 597.31,-224.56 604.67,-197.49"/>
<polygon fill="midnightblue" stroke="midnightblue" points="608.08,-198.28 607.14,-187.73 601.3,-196.56 608.08,-198.28"/>
</g>
<!-- Node2&#45;&gt;Node3 -->
<g id="edge2" class="edge">
<title>Node2&#45;&gt;Node3</title>
<path fill="none" stroke="midnightblue" d="M204.7,-168.37C170.88,-149.29 89.57,-103.42 48.94,-80.51"/>
<polygon fill="midnightblue" stroke="midnightblue" points="50.66,-77.46 40.23,-75.59 47.22,-83.55 50.66,-77.46"/>
</g>
<!-- Node2&#45;&gt;Node4 -->
<g id="edge3" class="edge">
<title>Node2&#45;&gt;Node4</title>
<path fill="none" stroke="midnightblue" d="M209.96,-168.37C188.27,-149.73 136.84,-105.53 109.61,-82.13"/>
<polygon fill="midnightblue" stroke="midnightblue" points="111.86,-79.45 102,-75.59 107.3,-84.76 111.86,-79.45"/>
</g>
<!-- Node2&#45;&gt;Node5 -->
<g id="edge4" class="edge">
<title>Node2&#45;&gt;Node5</title>
<path fill="none" stroke="midnightblue" d="M246.94,-168.37C273.21,-159.78 314.19,-145.89 349,-132 390.47,-115.44 437.44,-93.66 466.13,-79.99"/>
<polygon fill="midnightblue" stroke="midnightblue" points="467.97,-82.99 475.48,-75.51 464.95,-76.67 467.97,-82.99"/>
</g>
<!-- Node6 -->
<g id="node6" class="node">
<title>Node6</title>
<g id="a_node6"><a xlink:title=" ">
<polygon fill="white" stroke="#bfbfbf" points="134,-56.5 134,-75.5 178,-75.5 178,-56.5 134,-56.5"/>
<text text-anchor="middle" x="156" y="-63.5" font-family="Helvetica,sans-Serif" font-size="10.00">string</text>
</a>
</g>
</g>
<!-- Node2&#45;&gt;Node6 -->
<g id="edge5" class="edge">
<title>Node2&#45;&gt;Node6</title>
<path fill="none" stroke="midnightblue" d="M214.98,-168.37C204.46,-150.3 179.96,-108.18 166.07,-84.31"/>
<polygon fill="midnightblue" stroke="midnightblue" points="169.05,-82.47 161,-75.59 163,-86 169.05,-82.47"/>
</g>
<!-- Node7 -->
<g id="node7" class="node">
<title>Node7</title>
<g id="a_node7"><a xlink:href="Ints_8hpp.html" target="_top" xlink:title=" ">
<polygon fill="white" stroke="black" points="352,-56.5 352,-75.5 446,-75.5 446,-56.5 352,-56.5"/>
<text text-anchor="middle" x="399" y="-63.5" font-family="Helvetica,sans-Serif" font-size="10.00">Models/Ints.hpp</text>
</a>
</g>
</g>
<!-- Node2&#45;&gt;Node7 -->
<g id="edge6" class="edge">
<title>Node2&#45;&gt;Node7</title>
<path fill="none" stroke="midnightblue" d="M244.47,-168.47C265.77,-160.53 297.05,-147.58 322,-132 344.79,-117.77 367.94,-97.22 382.82,-83.06"/>
<polygon fill="midnightblue" stroke="midnightblue" points="385.44,-85.4 390.19,-75.93 380.57,-80.37 385.44,-85.4"/>
</g>
<!-- Node10 -->
<g id="node10" class="node">
<title>Node10</title>
<g id="a_node10"><a xlink:href="Components_8hpp.html" target="_top" xlink:title=" ">
<polygon fill="white" stroke="black" points="196.5,-56.5 196.5,-75.5 333.5,-75.5 333.5,-56.5 196.5,-56.5"/>
<text text-anchor="middle" x="265" y="-63.5" font-family="Helvetica,sans-Serif" font-size="10.00">Models/Components.hpp</text>
</a>
</g>
</g>
<!-- Node2&#45;&gt;Node10 -->
<g id="edge9" class="edge">
<title>Node2&#45;&gt;Node10</title>
<path fill="none" stroke="midnightblue" d="M218.75,-168.17C217.31,-155.26 216.07,-130.74 224,-112 228.81,-100.64 237.75,-90.29 246.06,-82.38"/>
<polygon fill="midnightblue" stroke="midnightblue" points="248.54,-84.86 253.68,-75.6 243.88,-79.63 248.54,-84.86"/>
</g>
<!-- Node11 -->
<g id="node11" class="node">
<title>Node11</title>
<g id="a_node11"><a xlink:href="IMemory_8hpp.html" target="_top" xlink:title=" ">
<polygon fill="white" stroke="black" points="233,-112.5 233,-131.5 313,-131.5 313,-112.5 233,-112.5"/>
<text text-anchor="middle" x="273" y="-119.5" font-family="Helvetica,sans-Serif" font-size="10.00">IMemory.hpp</text>
</a>
</g>
</g>
<!-- Node2&#45;&gt;Node11 -->
<g id="edge10" class="edge">
<title>Node2&#45;&gt;Node11</title>
<path fill="none" stroke="midnightblue" d="M228.75,-168.08C236.47,-160.22 247.9,-148.57 257.22,-139.08"/>
<polygon fill="midnightblue" stroke="midnightblue" points="259.9,-141.34 264.41,-131.75 254.91,-136.44 259.9,-141.34"/>
</g>
<!-- Node8 -->
<g id="node8" class="node">
<title>Node8</title>
<g id="a_node8"><a xlink:title=" ">
<polygon fill="white" stroke="#bfbfbf" points="529,-0.5 529,-19.5 591,-19.5 591,-0.5 529,-0.5"/>
<text text-anchor="middle" x="560" y="-7.5" font-family="Helvetica,sans-Serif" font-size="10.00">cinttypes</text>
</a>
</g>
</g>
<!-- Node7&#45;&gt;Node8 -->
<g id="edge7" class="edge">
<title>Node7&#45;&gt;Node8</title>
<path fill="none" stroke="midnightblue" d="M424.51,-56.44C451.6,-47.36 494.59,-32.94 524.87,-22.78"/>
<polygon fill="midnightblue" stroke="midnightblue" points="526.24,-26.01 534.61,-19.52 524.01,-19.38 526.24,-26.01"/>
</g>
<!-- Node9 -->
<g id="node9" class="node">
<title>Node9</title>
<g id="a_node9"><a xlink:title=" ">
<polygon fill="white" stroke="#bfbfbf" points="369,-0.5 369,-19.5 429,-19.5 429,-0.5 369,-0.5"/>
<text text-anchor="middle" x="399" y="-7.5" font-family="Helvetica,sans-Serif" font-size="10.00">iostream</text>
</a>
</g>
</g>
<!-- Node7&#45;&gt;Node9 -->
<g id="edge8" class="edge">
<title>Node7&#45;&gt;Node9</title>
<path fill="none" stroke="midnightblue" d="M399,-56.08C399,-49.01 399,-38.86 399,-29.99"/>
<polygon fill="midnightblue" stroke="midnightblue" points="402.5,-29.75 399,-19.75 395.5,-29.75 402.5,-29.75"/>
</g>
<!-- Node11&#45;&gt;Node3 -->
<g id="edge11" class="edge">
<title>Node11&#45;&gt;Node3</title>
<path fill="none" stroke="midnightblue" d="M232.63,-113.16C191.61,-105.04 126.01,-91.68 60.33,-76.22"/>
<polygon fill="midnightblue" stroke="midnightblue" points="60.75,-72.73 50.21,-73.83 59.14,-79.54 60.75,-72.73"/>
</g>
<!-- Node11&#45;&gt;Node4 -->
<g id="edge12" class="edge">
<title>Node11&#45;&gt;Node4</title>
<path fill="none" stroke="midnightblue" d="M244.32,-112.44C212.07,-102.82 159.76,-87.21 125.61,-77.03"/>
<polygon fill="midnightblue" stroke="midnightblue" points="126.23,-73.56 115.64,-74.05 124.22,-80.27 126.23,-73.56"/>
</g>
<!-- Node11&#45;&gt;Node5 -->
<g id="edge13" class="edge">
<title>Node11&#45;&gt;Node5</title>
<path fill="none" stroke="midnightblue" d="M307.86,-112.44C347.71,-102.66 412.75,-86.7 454.18,-76.53"/>
<polygon fill="midnightblue" stroke="midnightblue" points="455.05,-79.92 463.92,-74.14 453.38,-73.12 455.05,-79.92"/>
</g>
<!-- Node11&#45;&gt;Node6 -->
<g id="edge14" class="edge">
<title>Node11&#45;&gt;Node6</title>
<path fill="none" stroke="midnightblue" d="M254.46,-112.44C235.38,-103.64 205.43,-89.81 183.56,-79.72"/>
<polygon fill="midnightblue" stroke="midnightblue" points="185,-76.53 174.45,-75.52 182.07,-82.88 185,-76.53"/>
</g>
<!-- Node11&#45;&gt;Node7 -->
<g id="edge15" class="edge">
<title>Node11&#45;&gt;Node7</title>
<path fill="none" stroke="midnightblue" d="M292.97,-112.44C313.61,-103.6 346.06,-89.69 369.63,-79.59"/>
<polygon fill="midnightblue" stroke="midnightblue" points="371.32,-82.67 379.13,-75.52 368.56,-76.24 371.32,-82.67"/>
</g>
<!-- Node11&#45;&gt;Node10 -->
<g id="edge16" class="edge">
<title>Node11&#45;&gt;Node10</title>
<path fill="none" stroke="midnightblue" d="M271.68,-112.08C270.62,-104.93 269.09,-94.64 267.77,-85.69"/>
<polygon fill="midnightblue" stroke="midnightblue" points="271.22,-85.13 266.3,-75.75 264.3,-86.16 271.22,-85.13"/>
</g>
<!-- Node12&#45;&gt;Node5 -->
<g id="edge18" class="edge">
<title>Node12&#45;&gt;Node5</title>
<path fill="none" stroke="midnightblue" d="M398.19,-280.39C410.29,-263.33 437.5,-223.77 456,-188 468.36,-164.1 471.02,-157.7 479,-132 483.76,-116.65 487.49,-98.77 489.89,-85.66"/>
<polygon fill="midnightblue" stroke="midnightblue" points="493.39,-85.99 491.66,-75.54 486.49,-84.79 493.39,-85.99"/>
</g>
<!-- Node13 -->
<g id="node13" class="node">
<title>Node13</title>
<g id="a_node13"><a xlink:href="ARectangleMemory_8hpp.html" target="_top" xlink:title=" ">
<polygon fill="white" stroke="black" points="295,-168.5 295,-187.5 427,-187.5 427,-168.5 295,-168.5"/>
<text text-anchor="middle" x="361" y="-175.5" font-family="Helvetica,sans-Serif" font-size="10.00">ARectangleMemory.hpp</text>
</a>
</g>
</g>
<!-- Node12&#45;&gt;Node13 -->
<g id="edge19" class="edge">
<title>Node12&#45;&gt;Node13</title>
<path fill="none" stroke="midnightblue" d="M389.57,-280.37C384.54,-262.54 372.92,-221.3 366.15,-197.27"/>
<polygon fill="midnightblue" stroke="midnightblue" points="369.5,-196.27 363.42,-187.59 362.77,-198.17 369.5,-196.27"/>
</g>
<!-- Node12&#45;&gt;Node14 -->
<g id="edge22" class="edge">
<title>Node12&#45;&gt;Node14</title>
<path fill="none" stroke="midnightblue" d="M378.18,-280.32C364.77,-271.9 344.18,-258.97 328.41,-249.07"/>
<polygon fill="midnightblue" stroke="midnightblue" points="330.11,-246.01 319.78,-243.65 326.39,-251.94 330.11,-246.01"/>
</g>
<!-- Node13&#45;&gt;Node7 -->
<g id="edge21" class="edge">
<title>Node13&#45;&gt;Node7</title>
<path fill="none" stroke="midnightblue" d="M363.98,-168.37C370.14,-150.54 384.39,-109.3 392.69,-85.27"/>
<polygon fill="midnightblue" stroke="midnightblue" points="396.07,-86.19 396.03,-75.59 389.46,-83.9 396.07,-86.19"/>
</g>
<!-- Node13&#45;&gt;Node11 -->
<g id="edge20" class="edge">
<title>Node13&#45;&gt;Node11</title>
<path fill="none" stroke="midnightblue" d="M346.86,-168.32C333.13,-159.9 312.06,-146.97 295.94,-137.07"/>
<polygon fill="midnightblue" stroke="midnightblue" points="297.46,-133.9 287.1,-131.65 293.8,-139.87 297.46,-133.9"/>
</g>
<!-- Node14&#45;&gt;Node2 -->
<g id="edge24" class="edge">
<title>Node14&#45;&gt;Node2</title>
<path fill="none" stroke="midnightblue" d="M292.18,-224.32C278.77,-215.9 258.18,-202.97 242.41,-193.07"/>
<polygon fill="midnightblue" stroke="midnightblue" points="244.11,-190.01 233.78,-187.65 240.39,-195.94 244.11,-190.01"/>
</g>
<!-- Node14&#45;&gt;Node5 -->
<g id="edge23" class="edge">
<title>Node14&#45;&gt;Node5</title>
<path fill="none" stroke="midnightblue" d="M359.68,-224.45C385.28,-218.05 414.86,-206.99 436,-188 452.15,-173.49 475.13,-115.6 486.34,-85.46"/>
<polygon fill="midnightblue" stroke="midnightblue" points="489.74,-86.33 489.9,-75.74 483.17,-83.92 489.74,-86.33"/>
</g>
<!-- Node15&#45;&gt;Node8 -->
<g id="edge27" class="edge">
<title>Node15&#45;&gt;Node8</title>
<path fill="none" stroke="midnightblue" d="M613.93,-168.09C620.25,-155.49 629.74,-131.8 624,-112 614.37,-78.81 590.19,-46.07 574.47,-27.23"/>
<polygon fill="midnightblue" stroke="midnightblue" points="577.09,-24.91 567.92,-19.6 571.78,-29.47 577.09,-24.91"/>
</g>
<!-- Node15&#45;&gt;Node11 -->
<g id="edge29" class="edge">
<title>Node15&#45;&gt;Node11</title>
<path fill="none" stroke="midnightblue" d="M559.42,-169.03C496.05,-158.85 386.93,-141.31 323.24,-131.07"/>
<polygon fill="midnightblue" stroke="midnightblue" points="323.47,-127.57 313.04,-129.43 322.35,-134.48 323.47,-127.57"/>
</g>
<!-- Node16 -->
<g id="node16" class="node">
<title>Node16</title>
<g id="a_node16"><a xlink:title=" ">
<polygon fill="white" stroke="#bfbfbf" points="559,-112.5 559,-131.5 615,-131.5 615,-112.5 559,-112.5"/>
<text text-anchor="middle" x="587" y="-119.5" font-family="Helvetica,sans-Serif" font-size="10.00">optional</text>
</a>
</g>
</g>
<!-- Node15&#45;&gt;Node16 -->
<g id="edge28" class="edge">
<title>Node15&#45;&gt;Node16</title>
<path fill="none" stroke="midnightblue" d="M605.37,-168.08C602.39,-160.77 598.07,-150.18 594.38,-141.1"/>
<polygon fill="midnightblue" stroke="midnightblue" points="597.58,-139.69 590.57,-131.75 591.1,-142.33 597.58,-139.69"/>
</g>
</g>
</svg>
