<?xml version="1.0" encoding="UTF-8" standalone="no"?>
<!DOCTYPE svg PUBLIC "-//W3C//DTD SVG 1.1//EN"
 "http://www.w3.org/Graphics/SVG/1.1/DTD/svg11.dtd">
<!-- Generated by graphviz version 2.43.0 (0)
 -->
<!-- Title: sources/Memory/MemoryShadow.cpp Pages: 1 -->
<svg width="543pt" height="308pt"
 viewBox="0.00 0.00 543.00 308.00" xmlns="http://www.w3.org/2000/svg" xmlns:xlink="http://www.w3.org/1999/xlink">
<g id="graph0" class="graph" transform="scale(1 1) rotate(0) translate(4 304)">
<title>sources/Memory/MemoryShadow.cpp</title>
<polygon fill="white" stroke="transparent" points="-4,4 -4,-304 539,-304 539,4 -4,4"/>
<!-- Node1 -->
<g id="node1" class="node">
<title>Node1</title>
<g id="a_node1"><a xlink:title=" ">
<polygon fill="#bfbfbf" stroke="black" points="0,-280.5 0,-299.5 199,-299.5 199,-280.5 0,-280.5"/>
<text text-anchor="middle" x="99.5" y="-287.5" font-family="Helvetica,sans-Serif" font-size="10.00">sources/Memory/MemoryShadow.cpp</text>
</a>
</g>
</g>
<!-- Node2 -->
<g id="node2" class="node">
<title>Node2</title>
<g id="a_node2"><a xlink:href="MemoryShadow_8hpp.html" target="_top" xlink:title=" ">
<polygon fill="white" stroke="black" points="41.5,-224.5 41.5,-243.5 157.5,-243.5 157.5,-224.5 41.5,-224.5"/>
<text text-anchor="middle" x="99.5" y="-231.5" font-family="Helvetica,sans-Serif" font-size="10.00">MemoryShadow.hpp</text>
</a>
</g>
</g>
<!-- Node1&#45;&gt;Node2 -->
<g id="edge1" class="edge">
<title>Node1&#45;&gt;Node2</title>
<path fill="none" stroke="midnightblue" d="M99.5,-280.08C99.5,-273.01 99.5,-262.86 99.5,-253.99"/>
<polygon fill="midnightblue" stroke="midnightblue" points="103,-253.75 99.5,-243.75 96,-253.75 103,-253.75"/>
</g>
<!-- Node3 -->
<g id="node3" class="node">
<title>Node3</title>
<g id="a_node3"><a xlink:title=" ">
<polygon fill="white" stroke="#bfbfbf" points="13.5,-56.5 13.5,-75.5 71.5,-75.5 71.5,-56.5 13.5,-56.5"/>
<text text-anchor="middle" x="42.5" y="-63.5" font-family="Helvetica,sans-Serif" font-size="10.00">memory</text>
</a>
</g>
</g>
<!-- Node2&#45;&gt;Node3 -->
<g id="edge2" class="edge">
<title>Node2&#45;&gt;Node3</title>
<path fill="none" stroke="midnightblue" d="M96.44,-224.08C87.42,-197.83 60.89,-120.55 48.72,-85.12"/>
<polygon fill="midnightblue" stroke="midnightblue" points="52,-83.89 45.44,-75.57 45.38,-86.16 52,-83.89"/>
</g>
<!-- Node4 -->
<g id="node4" class="node">
<title>Node4</title>
<g id="a_node4"><a xlink:href="AMemory_8hpp.html" target="_top" xlink:title=" ">
<polygon fill="white" stroke="black" points="149,-168.5 149,-187.5 232,-187.5 232,-168.5 149,-168.5"/>
<text text-anchor="middle" x="190.5" y="-175.5" font-family="Helvetica,sans-Serif" font-size="10.00">AMemory.hpp</text>
</a>
</g>
</g>
<!-- Node2&#45;&gt;Node4 -->
<g id="edge3" class="edge">
<title>Node2&#45;&gt;Node4</title>
<path fill="none" stroke="midnightblue" d="M114.12,-224.32C128.45,-215.82 150.51,-202.73 167.25,-192.8"/>
<polygon fill="midnightblue" stroke="midnightblue" points="169.1,-195.77 175.92,-187.65 165.53,-189.75 169.1,-195.77"/>
</g>
<!-- Node4&#45;&gt;Node3 -->
<g id="edge6" class="edge">
<title>Node4&#45;&gt;Node3</title>
<path fill="none" stroke="midnightblue" d="M178.89,-168.37C153.71,-149.65 93.83,-105.15 62.46,-81.83"/>
<polygon fill="midnightblue" stroke="midnightblue" points="64.17,-78.75 54.06,-75.59 60,-84.37 64.17,-78.75"/>
</g>
<!-- Node5 -->
<g id="node5" class="node">
<title>Node5</title>
<g id="a_node5"><a xlink:title=" ">
<polygon fill="white" stroke="#bfbfbf" points="89.5,-56.5 89.5,-75.5 139.5,-75.5 139.5,-56.5 89.5,-56.5"/>
<text text-anchor="middle" x="114.5" y="-63.5" font-family="Helvetica,sans-Serif" font-size="10.00">cstdint</text>
</a>
</g>
</g>
<!-- Node4&#45;&gt;Node5 -->
<g id="edge4" class="edge">
<title>Node4&#45;&gt;Node5</title>
<path fill="none" stroke="midnightblue" d="M184.54,-168.37C171.99,-150.22 142.69,-107.8 126.24,-83.99"/>
<polygon fill="midnightblue" stroke="midnightblue" points="129,-81.83 120.44,-75.59 123.24,-85.81 129,-81.83"/>
</g>
<!-- Node6 -->
<g id="node6" class="node">
<title>Node6</title>
<g id="a_node6"><a xlink:title=" ">
<polygon fill="white" stroke="#bfbfbf" points="158,-56.5 158,-75.5 205,-75.5 205,-56.5 158,-56.5"/>
<text text-anchor="middle" x="181.5" y="-63.5" font-family="Helvetica,sans-Serif" font-size="10.00">vector</text>
</a>
</g>
</g>
<!-- Node4&#45;&gt;Node6 -->
<g id="edge5" class="edge">
<title>Node4&#45;&gt;Node6</title>
<path fill="none" stroke="midnightblue" d="M186.64,-168.25C182.94,-159.33 177.61,-145.01 175.5,-132 173,-116.6 174.92,-98.96 177.24,-85.95"/>
<polygon fill="midnightblue" stroke="midnightblue" points="180.72,-86.37 179.27,-75.88 173.86,-84.99 180.72,-86.37"/>
</g>
<!-- Node7 -->
<g id="node7" class="node">
<title>Node7</title>
<g id="a_node7"><a xlink:title=" ">
<polygon fill="white" stroke="#bfbfbf" points="223.5,-56.5 223.5,-75.5 267.5,-75.5 267.5,-56.5 223.5,-56.5"/>
<text text-anchor="middle" x="245.5" y="-63.5" font-family="Helvetica,sans-Serif" font-size="10.00">string</text>
</a>
</g>
</g>
<!-- Node4&#45;&gt;Node7 -->
<g id="edge7" class="edge">
<title>Node4&#45;&gt;Node7</title>
<path fill="none" stroke="midnightblue" d="M222.68,-168.49C241.04,-161.8 262.52,-150.45 273.5,-132 282.78,-116.41 272.04,-97.18 261.29,-83.7"/>
<polygon fill="midnightblue" stroke="midnightblue" points="263.62,-81.04 254.43,-75.76 258.32,-85.61 263.62,-81.04"/>
</g>
<!-- Node8 -->
<g id="node8" class="node">
<title>Node8</title>
<g id="a_node8"><a xlink:href="Ints_8hpp.html" target="_top" xlink:title=" ">
<polygon fill="white" stroke="black" points="285.5,-56.5 285.5,-75.5 379.5,-75.5 379.5,-56.5 285.5,-56.5"/>
<text text-anchor="middle" x="332.5" y="-63.5" font-family="Helvetica,sans-Serif" font-size="10.00">Models/Ints.hpp</text>
</a>
</g>
</g>
<!-- Node4&#45;&gt;Node8 -->
<g id="edge8" class="edge">
<title>Node4&#45;&gt;Node8</title>
<path fill="none" stroke="midnightblue" d="M220.23,-168.38C241.28,-161.18 269.25,-149.28 289.5,-132 304.74,-118.99 316.73,-99.29 324.14,-84.99"/>
<polygon fill="midnightblue" stroke="midnightblue" points="327.44,-86.22 328.7,-75.7 321.15,-83.13 327.44,-86.22"/>
</g>
<!-- Node11 -->
<g id="node11" class="node">
<title>Node11</title>
<g id="a_node11"><a xlink:href="Components_8hpp.html" target="_top" xlink:title=" ">
<polygon fill="white" stroke="black" points="398,-56.5 398,-75.5 535,-75.5 535,-56.5 398,-56.5"/>
<text text-anchor="middle" x="466.5" y="-63.5" font-family="Helvetica,sans-Serif" font-size="10.00">Models/Components.hpp</text>
</a>
</g>
</g>
<!-- Node4&#45;&gt;Node11 -->
<g id="edge11" class="edge">
<title>Node4&#45;&gt;Node11</title>
<path fill="none" stroke="midnightblue" d="M214.93,-168.36C239.65,-159.54 278.91,-145.28 312.5,-132 356.34,-114.68 406.54,-93.17 437.38,-79.76"/>
<polygon fill="midnightblue" stroke="midnightblue" points="438.92,-82.91 446.69,-75.71 436.12,-76.49 438.92,-82.91"/>
</g>
<!-- Node12 -->
<g id="node12" class="node">
<title>Node12</title>
<g id="a_node12"><a xlink:href="IMemory_8hpp.html" target="_top" xlink:title=" ">
<polygon fill="white" stroke="black" points="184.5,-112.5 184.5,-131.5 264.5,-131.5 264.5,-112.5 184.5,-112.5"/>
<text text-anchor="middle" x="224.5" y="-119.5" font-family="Helvetica,sans-Serif" font-size="10.00">IMemory.hpp</text>
</a>
</g>
</g>
<!-- Node4&#45;&gt;Node12 -->
<g id="edge12" class="edge">
<title>Node4&#45;&gt;Node12</title>
<path fill="none" stroke="midnightblue" d="M196.11,-168.08C200.87,-160.53 207.82,-149.49 213.65,-140.23"/>
<polygon fill="midnightblue" stroke="midnightblue" points="216.62,-142.08 218.99,-131.75 210.7,-138.35 216.62,-142.08"/>
</g>
<!-- Node9 -->
<g id="node9" class="node">
<title>Node9</title>
<g id="a_node9"><a xlink:title=" ">
<polygon fill="white" stroke="#bfbfbf" points="262.5,-0.5 262.5,-19.5 324.5,-19.5 324.5,-0.5 262.5,-0.5"/>
<text text-anchor="middle" x="293.5" y="-7.5" font-family="Helvetica,sans-Serif" font-size="10.00">cinttypes</text>
</a>
</g>
</g>
<!-- Node8&#45;&gt;Node9 -->
<g id="edge9" class="edge">
<title>Node8&#45;&gt;Node9</title>
<path fill="none" stroke="midnightblue" d="M326.06,-56.08C320.55,-48.46 312.47,-37.26 305.74,-27.94"/>
<polygon fill="midnightblue" stroke="midnightblue" points="308.51,-25.81 299.82,-19.75 302.84,-29.91 308.51,-25.81"/>
</g>
<!-- Node10 -->
<g id="node10" class="node">
<title>Node10</title>
<g id="a_node10"><a xlink:title=" ">
<polygon fill="white" stroke="#bfbfbf" points="342.5,-0.5 342.5,-19.5 402.5,-19.5 402.5,-0.5 342.5,-0.5"/>
<text text-anchor="middle" x="372.5" y="-7.5" font-family="Helvetica,sans-Serif" font-size="10.00">iostream</text>
</a>
</g>
</g>
<!-- Node8&#45;&gt;Node10 -->
<g id="edge10" class="edge">
<title>Node8&#45;&gt;Node10</title>
<path fill="none" stroke="midnightblue" d="M339.11,-56.08C344.76,-48.46 353.04,-37.26 359.95,-27.94"/>
<polygon fill="midnightblue" stroke="midnightblue" points="362.88,-29.87 366.02,-19.75 357.25,-25.7 362.88,-29.87"/>
</g>
<!-- Node12&#45;&gt;Node3 -->
<g id="edge15" class="edge">
<title>Node12&#45;&gt;Node3</title>
<path fill="none" stroke="midnightblue" d="M195.66,-112.44C164.64,-103.24 115.17,-88.56 80.88,-78.39"/>
<polygon fill="midnightblue" stroke="midnightblue" points="81.79,-75.01 71.2,-75.52 79.79,-81.72 81.79,-75.01"/>
</g>
<!-- Node12&#45;&gt;Node5 -->
<g id="edge13" class="edge">
<title>Node12&#45;&gt;Node5</title>
<path fill="none" stroke="midnightblue" d="M206.83,-112.32C189.11,-103.62 161.6,-90.12 141.21,-80.11"/>
<polygon fill="midnightblue" stroke="midnightblue" points="142.65,-76.92 132.13,-75.65 139.56,-83.2 142.65,-76.92"/>
</g>
<!-- Node12&#45;&gt;Node6 -->
<g id="edge14" class="edge">
<title>Node12&#45;&gt;Node6</title>
<path fill="none" stroke="midnightblue" d="M217.4,-112.08C211.26,-104.38 202.23,-93.03 194.76,-83.65"/>
<polygon fill="midnightblue" stroke="midnightblue" points="197.44,-81.39 188.47,-75.75 191.96,-85.75 197.44,-81.39"/>
</g>
<!-- Node12&#45;&gt;Node7 -->
<g id="edge16" class="edge">
<title>Node12&#45;&gt;Node7</title>
<path fill="none" stroke="midnightblue" d="M227.97,-112.08C230.81,-104.77 234.93,-94.18 238.46,-85.1"/>
<polygon fill="midnightblue" stroke="midnightblue" points="241.73,-86.34 242.1,-75.75 235.21,-83.8 241.73,-86.34"/>
</g>
<!-- Node12&#45;&gt;Node8 -->
<g id="edge17" class="edge">
<title>Node12&#45;&gt;Node8</title>
<path fill="none" stroke="midnightblue" d="M241.85,-112.32C259.17,-103.66 286.02,-90.24 306,-80.25"/>
<polygon fill="midnightblue" stroke="midnightblue" points="307.81,-83.26 315.19,-75.65 304.68,-77 307.81,-83.26"/>
</g>
<!-- Node12&#45;&gt;Node11 -->
<g id="edge18" class="edge">
<title>Node12&#45;&gt;Node11</title>
<path fill="none" stroke="midnightblue" d="M262.85,-112.44C304.97,-103.04 372.71,-87.93 418.37,-77.74"/>
<polygon fill="midnightblue" stroke="midnightblue" points="419.34,-81.11 428.33,-75.52 417.81,-74.28 419.34,-81.11"/>
</g>
</g>
</svg>
