<?xml version="1.0" encoding="UTF-8" standalone="no"?>
<!DOCTYPE svg PUBLIC "-//W3C//DTD SVG 1.1//EN"
 "http://www.w3.org/Graphics/SVG/1.1/DTD/svg11.dtd">
<!-- Generated by graphviz version 2.43.0 (0)
 -->
<!-- Title: sources/Memory/MemoryShadow.hpp Pages: 1 -->
<svg width="544pt" height="252pt"
 viewBox="0.00 0.00 543.50 252.00" xmlns="http://www.w3.org/2000/svg" xmlns:xlink="http://www.w3.org/1999/xlink">
<g id="graph0" class="graph" transform="scale(1 1) rotate(0) translate(4 248)">
<title>sources/Memory/MemoryShadow.hpp</title>
<polygon fill="white" stroke="transparent" points="-4,4 -4,-248 539.5,-248 539.5,4 -4,4"/>
<!-- Node1 -->
<g id="node1" class="node">
<title>Node1</title>
<g id="a_node1"><a xlink:title=" ">
<polygon fill="#bfbfbf" stroke="black" points="0,-224.5 0,-243.5 200,-243.5 200,-224.5 0,-224.5"/>
<text text-anchor="middle" x="100" y="-231.5" font-family="Helvetica,sans-Serif" font-size="10.00">sources/Memory/MemoryShadow.hpp</text>
</a>
</g>
</g>
<!-- Node2 -->
<g id="node2" class="node">
<title>Node2</title>
<g id="a_node2"><a xlink:title=" ">
<polygon fill="white" stroke="#bfbfbf" points="14,-56.5 14,-75.5 72,-75.5 72,-56.5 14,-56.5"/>
<text text-anchor="middle" x="43" y="-63.5" font-family="Helvetica,sans-Serif" font-size="10.00">memory</text>
</a>
</g>
</g>
<!-- Node1&#45;&gt;Node2 -->
<g id="edge1" class="edge">
<title>Node1&#45;&gt;Node2</title>
<path fill="none" stroke="midnightblue" d="M96.94,-224.08C87.92,-197.83 61.39,-120.55 49.22,-85.12"/>
<polygon fill="midnightblue" stroke="midnightblue" points="52.5,-83.89 45.94,-75.57 45.88,-86.16 52.5,-83.89"/>
</g>
<!-- Node3 -->
<g id="node3" class="node">
<title>Node3</title>
<g id="a_node3"><a xlink:href="AMemory_8hpp.html" target="_top" xlink:title=" ">
<polygon fill="white" stroke="black" points="149.5,-168.5 149.5,-187.5 232.5,-187.5 232.5,-168.5 149.5,-168.5"/>
<text text-anchor="middle" x="191" y="-175.5" font-family="Helvetica,sans-Serif" font-size="10.00">AMemory.hpp</text>
</a>
</g>
</g>
<!-- Node1&#45;&gt;Node3 -->
<g id="edge2" class="edge">
<title>Node1&#45;&gt;Node3</title>
<path fill="none" stroke="midnightblue" d="M114.62,-224.32C128.95,-215.82 151.01,-202.73 167.75,-192.8"/>
<polygon fill="midnightblue" stroke="midnightblue" points="169.6,-195.77 176.42,-187.65 166.03,-189.75 169.6,-195.77"/>
</g>
<!-- Node3&#45;&gt;Node2 -->
<g id="edge5" class="edge">
<title>Node3&#45;&gt;Node2</title>
<path fill="none" stroke="midnightblue" d="M179.39,-168.37C154.21,-149.65 94.33,-105.15 62.96,-81.83"/>
<polygon fill="midnightblue" stroke="midnightblue" points="64.67,-78.75 54.56,-75.59 60.5,-84.37 64.67,-78.75"/>
</g>
<!-- Node4 -->
<g id="node4" class="node">
<title>Node4</title>
<g id="a_node4"><a xlink:title=" ">
<polygon fill="white" stroke="#bfbfbf" points="90,-56.5 90,-75.5 140,-75.5 140,-56.5 90,-56.5"/>
<text text-anchor="middle" x="115" y="-63.5" font-family="Helvetica,sans-Serif" font-size="10.00">cstdint</text>
</a>
</g>
</g>
<!-- Node3&#45;&gt;Node4 -->
<g id="edge3" class="edge">
<title>Node3&#45;&gt;Node4</title>
<path fill="none" stroke="midnightblue" d="M185.04,-168.37C172.49,-150.22 143.19,-107.8 126.74,-83.99"/>
<polygon fill="midnightblue" stroke="midnightblue" points="129.5,-81.83 120.94,-75.59 123.74,-85.81 129.5,-81.83"/>
</g>
<!-- Node5 -->
<g id="node5" class="node">
<title>Node5</title>
<g id="a_node5"><a xlink:title=" ">
<polygon fill="white" stroke="#bfbfbf" points="158.5,-56.5 158.5,-75.5 205.5,-75.5 205.5,-56.5 158.5,-56.5"/>
<text text-anchor="middle" x="182" y="-63.5" font-family="Helvetica,sans-Serif" font-size="10.00">vector</text>
</a>
</g>
</g>
<!-- Node3&#45;&gt;Node5 -->
<g id="edge4" class="edge">
<title>Node3&#45;&gt;Node5</title>
<path fill="none" stroke="midnightblue" d="M187.14,-168.25C183.44,-159.33 178.11,-145.01 176,-132 173.5,-116.6 175.42,-98.96 177.74,-85.95"/>
<polygon fill="midnightblue" stroke="midnightblue" points="181.22,-86.37 179.77,-75.88 174.36,-84.99 181.22,-86.37"/>
</g>
<!-- Node6 -->
<g id="node6" class="node">
<title>Node6</title>
<g id="a_node6"><a xlink:title=" ">
<polygon fill="white" stroke="#bfbfbf" points="224,-56.5 224,-75.5 268,-75.5 268,-56.5 224,-56.5"/>
<text text-anchor="middle" x="246" y="-63.5" font-family="Helvetica,sans-Serif" font-size="10.00">string</text>
</a>
</g>
</g>
<!-- Node3&#45;&gt;Node6 -->
<g id="edge6" class="edge">
<title>Node3&#45;&gt;Node6</title>
<path fill="none" stroke="midnightblue" d="M223.18,-168.49C241.54,-161.8 263.02,-150.45 274,-132 283.28,-116.41 272.54,-97.18 261.79,-83.7"/>
<polygon fill="midnightblue" stroke="midnightblue" points="264.12,-81.04 254.93,-75.76 258.82,-85.61 264.12,-81.04"/>
</g>
<!-- Node7 -->
<g id="node7" class="node">
<title>Node7</title>
<g id="a_node7"><a xlink:href="Ints_8hpp.html" target="_top" xlink:title=" ">
<polygon fill="white" stroke="black" points="286,-56.5 286,-75.5 380,-75.5 380,-56.5 286,-56.5"/>
<text text-anchor="middle" x="333" y="-63.5" font-family="Helvetica,sans-Serif" font-size="10.00">Models/Ints.hpp</text>
</a>
</g>
</g>
<!-- Node3&#45;&gt;Node7 -->
<g id="edge7" class="edge">
<title>Node3&#45;&gt;Node7</title>
<path fill="none" stroke="midnightblue" d="M220.73,-168.38C241.78,-161.18 269.75,-149.28 290,-132 305.24,-118.99 317.23,-99.29 324.64,-84.99"/>
<polygon fill="midnightblue" stroke="midnightblue" points="327.94,-86.22 329.2,-75.7 321.65,-83.13 327.94,-86.22"/>
</g>
<!-- Node10 -->
<g id="node10" class="node">
<title>Node10</title>
<g id="a_node10"><a xlink:href="Components_8hpp.html" target="_top" xlink:title=" ">
<polygon fill="white" stroke="black" points="398.5,-56.5 398.5,-75.5 535.5,-75.5 535.5,-56.5 398.5,-56.5"/>
<text text-anchor="middle" x="467" y="-63.5" font-family="Helvetica,sans-Serif" font-size="10.00">Models/Components.hpp</text>
</a>
</g>
</g>
<!-- Node3&#45;&gt;Node10 -->
<g id="edge10" class="edge">
<title>Node3&#45;&gt;Node10</title>
<path fill="none" stroke="midnightblue" d="M215.43,-168.36C240.15,-159.54 279.41,-145.28 313,-132 356.84,-114.68 407.04,-93.17 437.88,-79.76"/>
<polygon fill="midnightblue" stroke="midnightblue" points="439.42,-82.91 447.19,-75.71 436.62,-76.49 439.42,-82.91"/>
</g>
<!-- Node11 -->
<g id="node11" class="node">
<title>Node11</title>
<g id="a_node11"><a xlink:href="IMemory_8hpp.html" target="_top" xlink:title=" ">
<polygon fill="white" stroke="black" points="185,-112.5 185,-131.5 265,-131.5 265,-112.5 185,-112.5"/>
<text text-anchor="middle" x="225" y="-119.5" font-family="Helvetica,sans-Serif" font-size="10.00">IMemory.hpp</text>
</a>
</g>
</g>
<!-- Node3&#45;&gt;Node11 -->
<g id="edge11" class="edge">
<title>Node3&#45;&gt;Node11</title>
<path fill="none" stroke="midnightblue" d="M196.61,-168.08C201.37,-160.53 208.32,-149.49 214.15,-140.23"/>
<polygon fill="midnightblue" stroke="midnightblue" points="217.12,-142.08 219.49,-131.75 211.2,-138.35 217.12,-142.08"/>
</g>
<!-- Node8 -->
<g id="node8" class="node">
<title>Node8</title>
<g id="a_node8"><a xlink:title=" ">
<polygon fill="white" stroke="#bfbfbf" points="263,-0.5 263,-19.5 325,-19.5 325,-0.5 263,-0.5"/>
<text text-anchor="middle" x="294" y="-7.5" font-family="Helvetica,sans-Serif" font-size="10.00">cinttypes</text>
</a>
</g>
</g>
<!-- Node7&#45;&gt;Node8 -->
<g id="edge8" class="edge">
<title>Node7&#45;&gt;Node8</title>
<path fill="none" stroke="midnightblue" d="M326.56,-56.08C321.05,-48.46 312.97,-37.26 306.24,-27.94"/>
<polygon fill="midnightblue" stroke="midnightblue" points="309.01,-25.81 300.32,-19.75 303.34,-29.91 309.01,-25.81"/>
</g>
<!-- Node9 -->
<g id="node9" class="node">
<title>Node9</title>
<g id="a_node9"><a xlink:title=" ">
<polygon fill="white" stroke="#bfbfbf" points="343,-0.5 343,-19.5 403,-19.5 403,-0.5 343,-0.5"/>
<text text-anchor="middle" x="373" y="-7.5" font-family="Helvetica,sans-Serif" font-size="10.00">iostream</text>
</a>
</g>
</g>
<!-- Node7&#45;&gt;Node9 -->
<g id="edge9" class="edge">
<title>Node7&#45;&gt;Node9</title>
<path fill="none" stroke="midnightblue" d="M339.61,-56.08C345.26,-48.46 353.54,-37.26 360.45,-27.94"/>
<polygon fill="midnightblue" stroke="midnightblue" points="363.38,-29.87 366.52,-19.75 357.75,-25.7 363.38,-29.87"/>
</g>
<!-- Node11&#45;&gt;Node2 -->
<g id="edge14" class="edge">
<title>Node11&#45;&gt;Node2</title>
<path fill="none" stroke="midnightblue" d="M196.16,-112.44C165.14,-103.24 115.67,-88.56 81.38,-78.39"/>
<polygon fill="midnightblue" stroke="midnightblue" points="82.29,-75.01 71.7,-75.52 80.29,-81.72 82.29,-75.01"/>
</g>
<!-- Node11&#45;&gt;Node4 -->
<g id="edge12" class="edge">
<title>Node11&#45;&gt;Node4</title>
<path fill="none" stroke="midnightblue" d="M207.33,-112.32C189.61,-103.62 162.1,-90.12 141.71,-80.11"/>
<polygon fill="midnightblue" stroke="midnightblue" points="143.15,-76.92 132.63,-75.65 140.06,-83.2 143.15,-76.92"/>
</g>
<!-- Node11&#45;&gt;Node5 -->
<g id="edge13" class="edge">
<title>Node11&#45;&gt;Node5</title>
<path fill="none" stroke="midnightblue" d="M217.9,-112.08C211.76,-104.38 202.73,-93.03 195.26,-83.65"/>
<polygon fill="midnightblue" stroke="midnightblue" points="197.94,-81.39 188.97,-75.75 192.46,-85.75 197.94,-81.39"/>
</g>
<!-- Node11&#45;&gt;Node6 -->
<g id="edge15" class="edge">
<title>Node11&#45;&gt;Node6</title>
<path fill="none" stroke="midnightblue" d="M228.47,-112.08C231.31,-104.77 235.43,-94.18 238.96,-85.1"/>
<polygon fill="midnightblue" stroke="midnightblue" points="242.23,-86.34 242.6,-75.75 235.71,-83.8 242.23,-86.34"/>
</g>
<!-- Node11&#45;&gt;Node7 -->
<g id="edge16" class="edge">
<title>Node11&#45;&gt;Node7</title>
<path fill="none" stroke="midnightblue" d="M242.35,-112.32C259.67,-103.66 286.52,-90.24 306.5,-80.25"/>
<polygon fill="midnightblue" stroke="midnightblue" points="308.31,-83.26 315.69,-75.65 305.18,-77 308.31,-83.26"/>
</g>
<!-- Node11&#45;&gt;Node10 -->
<g id="edge17" class="edge">
<title>Node11&#45;&gt;Node10</title>
<path fill="none" stroke="midnightblue" d="M263.35,-112.44C305.47,-103.04 373.21,-87.93 418.87,-77.74"/>
<polygon fill="midnightblue" stroke="midnightblue" points="419.84,-81.11 428.83,-75.52 418.31,-74.28 419.84,-81.11"/>
</g>
</g>
</svg>
