<?xml version="1.0" encoding="UTF-8" standalone="no"?>
<!DOCTYPE svg PUBLIC "-//W3C//DTD SVG 1.1//EN"
 "http://www.w3.org/Graphics/SVG/1.1/DTD/svg11.dtd">
<!-- Generated by graphviz version 2.43.0 (0)
 -->
<!-- Title: sources/Renderer/NoRenderer.hpp Pages: 1 -->
<svg width="3312pt" height="151pt"
 viewBox="0.00 0.00 3312.00 151.00" xmlns="http://www.w3.org/2000/svg" xmlns:xlink="http://www.w3.org/1999/xlink">
<g id="graph0" class="graph" transform="scale(1 1) rotate(0) translate(4 147)">
<title>sources/Renderer/NoRenderer.hpp</title>
<polygon fill="white" stroke="transparent" points="-4,4 -4,-147 3308,-147 3308,4 -4,4"/>
<!-- Node1 -->
<g id="node1" class="node">
<title>Node1</title>
<g id="a_node1"><a xlink:title=" ">
<polygon fill="#bfbfbf" stroke="black" points="1467,-123.5 1467,-142.5 1649,-142.5 1649,-123.5 1467,-123.5"/>
<text text-anchor="middle" x="1558" y="-130.5" font-family="Helvetica,sans-Serif" font-size="10.00">sources/Renderer/NoRenderer.hpp</text>
</a>
</g>
</g>
<!-- Node2 -->
<g id="node2" class="node">
<title>Node2</title>
<g id="a_node2"><a xlink:href="NoRenderer_8cpp.html" target="_top" xlink:title=" ">
<polygon fill="white" stroke="black" points="1390,-67.5 1390,-86.5 1572,-86.5 1572,-67.5 1390,-67.5"/>
<text text-anchor="middle" x="1481" y="-74.5" font-family="Helvetica,sans-Serif" font-size="10.00">sources/Renderer/NoRenderer.cpp</text>
</a>
</g>
</g>
<!-- Node1&#45;&gt;Node2 -->
<g id="edge1" class="edge">
<title>Node1&#45;&gt;Node2</title>
<path fill="none" stroke="midnightblue" d="M1537.1,-117.34C1523.09,-107.52 1505.12,-94.91 1493.34,-86.65"/>
<polygon fill="midnightblue" stroke="midnightblue" points="1535.43,-120.45 1545.63,-123.32 1539.45,-114.72 1535.43,-120.45"/>
</g>
<!-- Node3 -->
<g id="node3" class="node">
<title>Node3</title>
<g id="a_node3"><a xlink:href="tests_8hpp.html" target="_top" xlink:title=" ">
<polygon fill="white" stroke="black" points="1590.5,-67.5 1590.5,-86.5 1679.5,-86.5 1679.5,-67.5 1590.5,-67.5"/>
<text text-anchor="middle" x="1635" y="-74.5" font-family="Helvetica,sans-Serif" font-size="10.00">tests/tests.hpp</text>
</a>
</g>
</g>
<!-- Node1&#45;&gt;Node3 -->
<g id="edge2" class="edge">
<title>Node1&#45;&gt;Node3</title>
<path fill="none" stroke="midnightblue" d="M1578.9,-117.34C1592.91,-107.52 1610.88,-94.91 1622.66,-86.65"/>
<polygon fill="midnightblue" stroke="midnightblue" points="1576.55,-114.72 1570.37,-123.32 1580.57,-120.45 1576.55,-114.72"/>
</g>
<!-- Node4 -->
<g id="node4" class="node">
<title>Node4</title>
<g id="a_node4"><a xlink:href="testAPU_8cpp.html" target="_top" xlink:title=" ">
<polygon fill="white" stroke="black" points="0,-6 0,-25 126,-25 126,-6 0,-6"/>
<text text-anchor="middle" x="63" y="-13" font-family="Helvetica,sans-Serif" font-size="10.00">tests/APU/testAPU.cpp</text>
</a>
</g>
</g>
<!-- Node3&#45;&gt;Node4 -->
<g id="edge3" class="edge">
<title>Node3&#45;&gt;Node4</title>
<path fill="none" stroke="midnightblue" d="M1579.85,-67.06C939.22,-7.04 770.42,-102.34 135,-31 123.22,-29.68 110.49,-27.4 99.07,-25.04"/>
<polygon fill="midnightblue" stroke="midnightblue" points="1579.99,-70.59 1590.27,-68.05 1580.65,-63.62 1579.99,-70.59"/>
</g>
<!-- Node5 -->
<g id="node5" class="node">
<title>Node5</title>
<g id="a_node5"><a xlink:href="testAPUInstructions_8cpp.html" target="_top" xlink:title=" ">
<polygon fill="white" stroke="black" points="144.5,-6 144.5,-25 327.5,-25 327.5,-6 144.5,-6"/>
<text text-anchor="middle" x="236" y="-13" font-family="Helvetica,sans-Serif" font-size="10.00">tests/APU/testAPUInstructions.cpp</text>
</a>
</g>
</g>
<!-- Node3&#45;&gt;Node5 -->
<g id="edge4" class="edge">
<title>Node3&#45;&gt;Node5</title>
<path fill="none" stroke="midnightblue" d="M1580.06,-67.08C1028.28,-14.17 884.13,-78.51 336,-31 319.92,-29.61 302.48,-27.34 286.74,-25.01"/>
<polygon fill="midnightblue" stroke="midnightblue" points="1579.98,-70.58 1590.27,-68.06 1580.66,-63.62 1579.98,-70.58"/>
</g>
<!-- Node6 -->
<g id="node6" class="node">
<title>Node6</title>
<g id="a_node6"><a xlink:href="testOperand_8cpp.html" target="_top" xlink:title=" ">
<polygon fill="white" stroke="black" points="345.5,-6 345.5,-25 492.5,-25 492.5,-6 345.5,-6"/>
<text text-anchor="middle" x="419" y="-13" font-family="Helvetica,sans-Serif" font-size="10.00">tests/APU/testOperand.cpp</text>
</a>
</g>
</g>
<!-- Node3&#45;&gt;Node6 -->
<g id="edge5" class="edge">
<title>Node3&#45;&gt;Node6</title>
<path fill="none" stroke="midnightblue" d="M1579.98,-67.06C1101.32,-20.28 975.28,-80.59 501,-31 487.77,-29.62 473.46,-27.36 460.55,-25.03"/>
<polygon fill="midnightblue" stroke="midnightblue" points="1579.98,-70.58 1590.27,-68.08 1580.66,-63.61 1579.98,-70.58"/>
</g>
<!-- Node7 -->
<g id="node7" class="node">
<title>Node7</title>
<g id="a_node7"><a xlink:href="testADC_8cpp.html" target="_top" xlink:title=" ">
<polygon fill="white" stroke="black" points="510.5,-6 510.5,-25 665.5,-25 665.5,-6 510.5,-6"/>
<text text-anchor="middle" x="588" y="-13" font-family="Helvetica,sans-Serif" font-size="10.00">tests/CPU/Math/testADC.cpp</text>
</a>
</g>
</g>
<!-- Node3&#45;&gt;Node7 -->
<g id="edge6" class="edge">
<title>Node3&#45;&gt;Node7</title>
<path fill="none" stroke="midnightblue" d="M1580.12,-67.07C1178.38,-26.56 1072.54,-71.86 675,-31 661.14,-29.58 646.14,-27.33 632.56,-25.03"/>
<polygon fill="midnightblue" stroke="midnightblue" points="1579.97,-70.57 1590.27,-68.1 1580.68,-63.6 1579.97,-70.57"/>
</g>
<!-- Node8 -->
<g id="node8" class="node">
<title>Node8</title>
<g id="a_node8"><a xlink:href="testCMP_8cpp.html" target="_top" xlink:title=" ">
<polygon fill="white" stroke="black" points="684,-6 684,-25 838,-25 838,-6 684,-6"/>
<text text-anchor="middle" x="761" y="-13" font-family="Helvetica,sans-Serif" font-size="10.00">tests/CPU/Math/testCMP.cpp</text>
</a>
</g>
</g>
<!-- Node3&#45;&gt;Node8 -->
<g id="edge7" class="edge">
<title>Node3&#45;&gt;Node8</title>
<path fill="none" stroke="midnightblue" d="M1580.07,-67.05C1254.5,-32.79 1168.38,-65.85 847,-31 833.45,-29.53 818.8,-27.3 805.5,-25.03"/>
<polygon fill="midnightblue" stroke="midnightblue" points="1579.95,-70.55 1590.27,-68.13 1580.69,-63.59 1579.95,-70.55"/>
</g>
<!-- Node9 -->
<g id="node9" class="node">
<title>Node9</title>
<g id="a_node9"><a xlink:href="testOthersMath_8cpp.html" target="_top" xlink:title=" ">
<polygon fill="white" stroke="black" points="856,-0.5 856,-30.5 1002,-30.5 1002,-0.5 856,-0.5"/>
<text text-anchor="start" x="864" y="-18.5" font-family="Helvetica,sans-Serif" font-size="10.00">tests/CPU/Math/testOthers</text>
<text text-anchor="middle" x="929" y="-7.5" font-family="Helvetica,sans-Serif" font-size="10.00">Math.cpp</text>
</a>
</g>
</g>
<!-- Node3&#45;&gt;Node9 -->
<g id="edge8" class="edge">
<title>Node3&#45;&gt;Node9</title>
<path fill="none" stroke="midnightblue" d="M1580.02,-67.02C1327.05,-38.7 1259.72,-60.75 1011,-31 1008.13,-30.66 1005.21,-30.28 1002.26,-29.87"/>
<polygon fill="midnightblue" stroke="midnightblue" points="1579.93,-70.53 1590.26,-68.18 1580.72,-63.58 1579.93,-70.53"/>
</g>
<!-- Node10 -->
<g id="node10" class="node">
<title>Node10</title>
<g id="a_node10"><a xlink:href="testSBC_8cpp.html" target="_top" xlink:title=" ">
<polygon fill="white" stroke="black" points="1020.5,-6 1020.5,-25 1173.5,-25 1173.5,-6 1020.5,-6"/>
<text text-anchor="middle" x="1097" y="-13" font-family="Helvetica,sans-Serif" font-size="10.00">tests/CPU/Math/testSBC.cpp</text>
</a>
</g>
</g>
<!-- Node3&#45;&gt;Node10 -->
<g id="edge9" class="edge">
<title>Node3&#45;&gt;Node10</title>
<path fill="none" stroke="midnightblue" d="M1580.07,-66.98C1403.09,-44.72 1355.88,-53.36 1183,-31 1170.24,-29.35 1156.47,-27.2 1143.77,-25.06"/>
<polygon fill="midnightblue" stroke="midnightblue" points="1579.89,-70.49 1590.25,-68.28 1580.77,-63.54 1579.89,-70.49"/>
</g>
<!-- Node11 -->
<g id="node11" class="node">
<title>Node11</title>
<g id="a_node11"><a xlink:href="testAddressingMode_8cpp.html" target="_top" xlink:title=" ">
<polygon fill="white" stroke="black" points="1192,-0.5 1192,-30.5 1332,-30.5 1332,-0.5 1192,-0.5"/>
<text text-anchor="start" x="1200" y="-18.5" font-family="Helvetica,sans-Serif" font-size="10.00">tests/CPU/testAddressing</text>
<text text-anchor="middle" x="1262" y="-7.5" font-family="Helvetica,sans-Serif" font-size="10.00">Mode.cpp</text>
</a>
</g>
</g>
<!-- Node3&#45;&gt;Node11 -->
<g id="edge10" class="edge">
<title>Node3&#45;&gt;Node11</title>
<path fill="none" stroke="midnightblue" d="M1580.27,-66.91C1472.81,-50.04 1444.27,-48.22 1341,-31 1338.11,-30.52 1335.17,-30.02 1332.19,-29.51"/>
<polygon fill="midnightblue" stroke="midnightblue" points="1579.8,-70.38 1590.22,-68.48 1580.89,-63.46 1579.8,-70.38"/>
</g>
<!-- Node12 -->
<g id="node12" class="node">
<title>Node12</title>
<g id="a_node12"><a xlink:href="testBits_8cpp.html" target="_top" xlink:title=" ">
<polygon fill="white" stroke="black" points="1350.5,-6 1350.5,-25 1475.5,-25 1475.5,-6 1350.5,-6"/>
<text text-anchor="middle" x="1413" y="-13" font-family="Helvetica,sans-Serif" font-size="10.00">tests/CPU/testBits.cpp</text>
</a>
</g>
</g>
<!-- Node3&#45;&gt;Node12 -->
<g id="edge11" class="edge">
<title>Node3&#45;&gt;Node12</title>
<path fill="none" stroke="midnightblue" d="M1593.3,-64.82C1550.17,-53.26 1483.79,-35.47 1444.75,-25.01"/>
<polygon fill="midnightblue" stroke="midnightblue" points="1592.63,-68.27 1603.19,-67.48 1594.44,-61.51 1592.63,-68.27"/>
</g>
<!-- Node13 -->
<g id="node13" class="node">
<title>Node13</title>
<g id="a_node13"><a xlink:href="testDMA_8cpp.html" target="_top" xlink:title=" ">
<polygon fill="white" stroke="black" points="1493.5,-6 1493.5,-25 1622.5,-25 1622.5,-6 1493.5,-6"/>
<text text-anchor="middle" x="1558" y="-13" font-family="Helvetica,sans-Serif" font-size="10.00">tests/CPU/testDMA.cpp</text>
</a>
</g>
</g>
<!-- Node3&#45;&gt;Node13 -->
<g id="edge12" class="edge">
<title>Node3&#45;&gt;Node13</title>
<path fill="none" stroke="midnightblue" d="M1615.97,-61.29C1601.2,-49.88 1581.24,-34.46 1569.01,-25.01"/>
<polygon fill="midnightblue" stroke="midnightblue" points="1613.91,-64.13 1623.97,-67.48 1618.19,-58.59 1613.91,-64.13"/>
</g>
<!-- Node14 -->
<g id="node14" class="node">
<title>Node14</title>
<g id="a_node14"><a xlink:href="testInternal_8cpp.html" target="_top" xlink:title=" ">
<polygon fill="white" stroke="black" points="1640.5,-6 1640.5,-25 1783.5,-25 1783.5,-6 1640.5,-6"/>
<text text-anchor="middle" x="1712" y="-13" font-family="Helvetica,sans-Serif" font-size="10.00">tests/CPU/testInternal.cpp</text>
</a>
</g>
</g>
<!-- Node3&#45;&gt;Node14 -->
<g id="edge13" class="edge">
<title>Node3&#45;&gt;Node14</title>
<path fill="none" stroke="midnightblue" d="M1654.03,-61.29C1668.8,-49.88 1688.76,-34.46 1700.99,-25.01"/>
<polygon fill="midnightblue" stroke="midnightblue" points="1651.81,-58.59 1646.03,-67.48 1656.09,-64.13 1651.81,-58.59"/>
</g>
<!-- Node15 -->
<g id="node15" class="node">
<title>Node15</title>
<g id="a_node15"><a xlink:href="testInterupts_8cpp.html" target="_top" xlink:title=" ">
<polygon fill="white" stroke="black" points="1801.5,-6 1801.5,-25 1950.5,-25 1950.5,-6 1801.5,-6"/>
<text text-anchor="middle" x="1876" y="-13" font-family="Helvetica,sans-Serif" font-size="10.00">tests/CPU/testInterupts.cpp</text>
</a>
</g>
</g>
<!-- Node3&#45;&gt;Node15 -->
<g id="edge14" class="edge">
<title>Node3&#45;&gt;Node15</title>
<path fill="none" stroke="midnightblue" d="M1679.39,-65.04C1726.18,-53.49 1798.88,-35.54 1841.53,-25.01"/>
<polygon fill="midnightblue" stroke="midnightblue" points="1678.4,-61.68 1669.53,-67.48 1680.08,-68.48 1678.4,-61.68"/>
</g>
<!-- Node16 -->
<g id="node16" class="node">
<title>Node16</title>
<g id="a_node16"><a xlink:href="testStore_8cpp.html" target="_top" xlink:title=" ">
<polygon fill="white" stroke="black" points="1968.5,-6 1968.5,-25 2099.5,-25 2099.5,-6 1968.5,-6"/>
<text text-anchor="middle" x="2034" y="-13" font-family="Helvetica,sans-Serif" font-size="10.00">tests/CPU/testStore.cpp</text>
</a>
</g>
</g>
<!-- Node3&#45;&gt;Node16 -->
<g id="edge15" class="edge">
<title>Node3&#45;&gt;Node16</title>
<path fill="none" stroke="midnightblue" d="M1689.51,-69.4C1754.19,-61.35 1865.21,-46.84 1960,-31 1970.59,-29.23 1981.99,-27.11 1992.59,-25.04"/>
<polygon fill="midnightblue" stroke="midnightblue" points="1689.03,-65.93 1679.54,-70.63 1689.89,-72.88 1689.03,-65.93"/>
</g>
<!-- Node17 -->
<g id="node17" class="node">
<title>Node17</title>
<g id="a_node17"><a xlink:href="testTransfers_8cpp.html" target="_top" xlink:title=" ">
<polygon fill="white" stroke="black" points="2118,-6 2118,-25 2268,-25 2268,-6 2118,-6"/>
<text text-anchor="middle" x="2193" y="-13" font-family="Helvetica,sans-Serif" font-size="10.00">tests/CPU/testTransfers.cpp</text>
</a>
</g>
</g>
<!-- Node3&#45;&gt;Node17 -->
<g id="edge16" class="edge">
<title>Node3&#45;&gt;Node17</title>
<path fill="none" stroke="midnightblue" d="M1689.63,-72.18C1777.99,-65.68 1957.68,-51.21 2109,-31 2121.47,-29.33 2134.92,-27.18 2147.32,-25.04"/>
<polygon fill="midnightblue" stroke="midnightblue" points="1689.29,-68.69 1679.57,-72.91 1689.79,-75.67 1689.29,-68.69"/>
</g>
<!-- Node18 -->
<g id="node18" class="node">
<title>Node18</title>
<g id="a_node18"><a xlink:href="testBackground_8cpp.html" target="_top" xlink:title=" ">
<polygon fill="white" stroke="black" points="2286.5,-6 2286.5,-25 2449.5,-25 2449.5,-6 2286.5,-6"/>
<text text-anchor="middle" x="2368" y="-13" font-family="Helvetica,sans-Serif" font-size="10.00">tests/PPU/testBackground.cpp</text>
</a>
</g>
</g>
<!-- Node3&#45;&gt;Node18 -->
<g id="edge17" class="edge">
<title>Node3&#45;&gt;Node18</title>
<path fill="none" stroke="midnightblue" d="M1690.18,-73.77C1801.45,-68.92 2060.58,-55.78 2277,-31 2290.83,-29.42 2305.77,-27.24 2319.47,-25.04"/>
<polygon fill="midnightblue" stroke="midnightblue" points="1689.72,-70.29 1679.88,-74.22 1690.02,-77.28 1689.72,-70.29"/>
</g>
<!-- Node19 -->
<g id="node19" class="node">
<title>Node19</title>
<g id="a_node19"><a xlink:href="testPpuRead_8cpp.html" target="_top" xlink:title=" ">
<polygon fill="white" stroke="black" points="2468,-6 2468,-25 2616,-25 2616,-6 2468,-6"/>
<text text-anchor="middle" x="2542" y="-13" font-family="Helvetica,sans-Serif" font-size="10.00">tests/PPU/testPpuRead.cpp</text>
</a>
</g>
</g>
<!-- Node3&#45;&gt;Node19 -->
<g id="edge18" class="edge">
<title>Node3&#45;&gt;Node19</title>
<path fill="none" stroke="midnightblue" d="M1690.12,-75.24C1822.89,-72.92 2170.73,-63.93 2459,-31 2471.93,-29.52 2485.91,-27.32 2498.63,-25.07"/>
<polygon fill="midnightblue" stroke="midnightblue" points="1689.76,-71.75 1679.82,-75.41 1689.87,-78.75 1689.76,-71.75"/>
</g>
<!-- Node20 -->
<g id="node20" class="node">
<title>Node20</title>
<g id="a_node20"><a xlink:href="testPpuWrite_8cpp.html" target="_top" xlink:title=" ">
<polygon fill="white" stroke="black" points="2634.5,-6 2634.5,-25 2783.5,-25 2783.5,-6 2634.5,-6"/>
<text text-anchor="middle" x="2709" y="-13" font-family="Helvetica,sans-Serif" font-size="10.00">tests/PPU/testPpuWrite.cpp</text>
</a>
</g>
</g>
<!-- Node3&#45;&gt;Node20 -->
<g id="edge19" class="edge">
<title>Node3&#45;&gt;Node20</title>
<path fill="none" stroke="midnightblue" d="M1689.88,-75.92C1840.02,-75.17 2270.04,-69.55 2625,-31 2638.24,-29.56 2652.55,-27.34 2665.55,-25.07"/>
<polygon fill="midnightblue" stroke="midnightblue" points="1689.54,-72.42 1679.56,-75.96 1689.57,-79.42 1689.54,-72.42"/>
</g>
<!-- Node21 -->
<g id="node21" class="node">
<title>Node21</title>
<g id="a_node21"><a xlink:href="testPpuWriteFromVmain_8cpp.html" target="_top" xlink:title=" ">
<polygon fill="white" stroke="black" points="2802,-0.5 2802,-30.5 2956,-30.5 2956,-0.5 2802,-0.5"/>
<text text-anchor="start" x="2810" y="-18.5" font-family="Helvetica,sans-Serif" font-size="10.00">tests/PPU/testPpuWriteFrom</text>
<text text-anchor="middle" x="2879" y="-7.5" font-family="Helvetica,sans-Serif" font-size="10.00">Vmain.cpp</text>
</a>
</g>
</g>
<!-- Node3&#45;&gt;Node21 -->
<g id="edge20" class="edge">
<title>Node3&#45;&gt;Node21</title>
<path fill="none" stroke="midnightblue" d="M1690.06,-76.36C1856.72,-76.91 2370.25,-74.67 2793,-31 2795.86,-30.7 2798.77,-30.37 2801.71,-30.01"/>
<polygon fill="midnightblue" stroke="midnightblue" points="1689.6,-72.86 1679.59,-76.32 1689.57,-79.86 1689.6,-72.86"/>
</g>
<!-- Node22 -->
<g id="node22" class="node">
<title>Node22</title>
<g id="a_node22"><a xlink:href="testMemoryBus_8cpp.html" target="_top" xlink:title=" ">
<polygon fill="white" stroke="black" points="2974.5,-6 2974.5,-25 3115.5,-25 3115.5,-6 2974.5,-6"/>
<text text-anchor="middle" x="3045" y="-13" font-family="Helvetica,sans-Serif" font-size="10.00">tests/testMemoryBus.cpp</text>
</a>
</g>
</g>
<!-- Node3&#45;&gt;Node22 -->
<g id="edge21" class="edge">
<title>Node3&#45;&gt;Node22</title>
<path fill="none" stroke="midnightblue" d="M1689.98,-75.21C1907.95,-71.9 2711.71,-58.09 2965,-31 2977.91,-29.62 2991.88,-27.36 3004.47,-25.03"/>
<polygon fill="midnightblue" stroke="midnightblue" points="1689.7,-71.71 1679.75,-75.36 1689.8,-78.71 1689.7,-71.71"/>
</g>
<!-- Node23 -->
<g id="node23" class="node">
<title>Node23</title>
<g id="a_node23"><a xlink:href="testRectangleMemory_8cpp.html" target="_top" xlink:title=" ">
<polygon fill="white" stroke="black" points="3134,-6 3134,-25 3304,-25 3304,-6 3134,-6"/>
<text text-anchor="middle" x="3219" y="-13" font-family="Helvetica,sans-Serif" font-size="10.00">tests/testRectangleMemory.cpp</text>
</a>
</g>
</g>
<!-- Node3&#45;&gt;Node23 -->
<g id="edge22" class="edge">
<title>Node3&#45;&gt;Node23</title>
<path fill="none" stroke="midnightblue" d="M1689.89,-75.25C1923.76,-71.9 2838.19,-57.35 3125,-31 3140.13,-29.61 3156.52,-27.35 3171.32,-25.02"/>
<polygon fill="midnightblue" stroke="midnightblue" points="1689.54,-71.75 1679.59,-75.39 1689.64,-78.75 1689.54,-71.75"/>
</g>
</g>
</svg>
