<?xml version="1.0" encoding="UTF-8" standalone="no"?>
<!DOCTYPE svg PUBLIC "-//W3C//DTD SVG 1.1//EN"
 "http://www.w3.org/Graphics/SVG/1.1/DTD/svg11.dtd">
<!-- Generated by graphviz version 2.43.0 (0)
 -->
<!-- Title: sources/Renderer/NoRenderer.hpp Pages: 1 -->
<svg width="190pt" height="140pt"
 viewBox="0.00 0.00 190.00 140.00" xmlns="http://www.w3.org/2000/svg" xmlns:xlink="http://www.w3.org/1999/xlink">
<g id="graph0" class="graph" transform="scale(1 1) rotate(0) translate(4 136)">
<title>sources/Renderer/NoRenderer.hpp</title>
<polygon fill="white" stroke="transparent" points="-4,4 -4,-136 186,-136 186,4 -4,4"/>
<!-- Node1 -->
<g id="node1" class="node">
<title>Node1</title>
<g id="a_node1"><a xlink:title=" ">
<polygon fill="#bfbfbf" stroke="black" points="0,-112.5 0,-131.5 182,-131.5 182,-112.5 0,-112.5"/>
<text text-anchor="middle" x="91" y="-119.5" font-family="Helvetica,sans-Serif" font-size="10.00">sources/Renderer/NoRenderer.hpp</text>
</a>
</g>
</g>
<!-- Node2 -->
<g id="node2" class="node">
<title>Node2</title>
<g id="a_node2"><a xlink:href="IRenderer_8hpp.html" target="_top" xlink:title=" ">
<polygon fill="white" stroke="black" points="49,-56.5 49,-75.5 133,-75.5 133,-56.5 49,-56.5"/>
<text text-anchor="middle" x="91" y="-63.5" font-family="Helvetica,sans-Serif" font-size="10.00">IRenderer.hpp</text>
</a>
</g>
</g>
<!-- Node1&#45;&gt;Node2 -->
<g id="edge1" class="edge">
<title>Node1&#45;&gt;Node2</title>
<path fill="none" stroke="midnightblue" d="M91,-112.08C91,-105.01 91,-94.86 91,-85.99"/>
<polygon fill="midnightblue" stroke="midnightblue" points="94.5,-85.75 91,-75.75 87.5,-85.75 94.5,-85.75"/>
</g>
<!-- Node3 -->
<g id="node3" class="node">
<title>Node3</title>
<g id="a_node3"><a xlink:title=" ">
<polygon fill="white" stroke="#bfbfbf" points="39,-0.5 39,-19.5 83,-19.5 83,-0.5 39,-0.5"/>
<text text-anchor="middle" x="61" y="-7.5" font-family="Helvetica,sans-Serif" font-size="10.00">string</text>
</a>
</g>
</g>
<!-- Node2&#45;&gt;Node3 -->
<g id="edge2" class="edge">
<title>Node2&#45;&gt;Node3</title>
<path fill="none" stroke="midnightblue" d="M86.05,-56.08C81.9,-48.61 75.85,-37.72 70.73,-28.52"/>
<polygon fill="midnightblue" stroke="midnightblue" points="73.78,-26.79 65.86,-19.75 67.66,-30.19 73.78,-26.79"/>
</g>
<!-- Node4 -->
<g id="node4" class="node">
<title>Node4</title>
<g id="a_node4"><a xlink:title=" ">
<polygon fill="white" stroke="#bfbfbf" points="101,-0.5 101,-19.5 141,-19.5 141,-0.5 101,-0.5"/>
<text text-anchor="middle" x="121" y="-7.5" font-family="Helvetica,sans-Serif" font-size="10.00">span</text>
</a>
</g>
</g>
<!-- Node2&#45;&gt;Node4 -->
<g id="edge3" class="edge">
<title>Node2&#45;&gt;Node4</title>
<path fill="none" stroke="midnightblue" d="M95.95,-56.08C100.1,-48.61 106.15,-37.72 111.27,-28.52"/>
<polygon fill="midnightblue" stroke="midnightblue" points="114.34,-30.19 116.14,-19.75 108.22,-26.79 114.34,-30.19"/>
</g>
</g>
</svg>
