<?xml version="1.0" encoding="UTF-8" standalone="no"?>
<!DOCTYPE svg PUBLIC "-//W3C//DTD SVG 1.1//EN"
 "http://www.w3.org/Graphics/SVG/1.1/DTD/svg11.dtd">
<!-- Generated by graphviz version 2.43.0 (0)
 -->
<!-- Title: sources/APU/Operand.cpp Pages: 1 -->
<svg width="895pt" height="420pt"
 viewBox="0.00 0.00 894.80 420.00" xmlns="http://www.w3.org/2000/svg" xmlns:xlink="http://www.w3.org/1999/xlink">
<g id="graph0" class="graph" transform="scale(1 1) rotate(0) translate(4 416)">
<title>sources/APU/Operand.cpp</title>
<polygon fill="white" stroke="transparent" points="-4,4 -4,-416 890.8,-416 890.8,4 -4,4"/>
<!-- Node1 -->
<g id="node1" class="node">
<title>Node1</title>
<g id="a_node1"><a xlink:title=" ">
<polygon fill="#bfbfbf" stroke="black" points="272,-392.5 272,-411.5 414,-411.5 414,-392.5 272,-392.5"/>
<text text-anchor="middle" x="343" y="-399.5" font-family="Helvetica,sans-Serif" font-size="10.00">sources/APU/Operand.cpp</text>
</a>
</g>
</g>
<!-- Node2 -->
<g id="node2" class="node">
<title>Node2</title>
<g id="a_node2"><a xlink:href="Ints_8hpp.html" target="_top" xlink:title=" ">
<polygon fill="white" stroke="black" points="163,-56.5 163,-75.5 257,-75.5 257,-56.5 163,-56.5"/>
<text text-anchor="middle" x="210" y="-63.5" font-family="Helvetica,sans-Serif" font-size="10.00">Models/Ints.hpp</text>
</a>
</g>
</g>
<!-- Node1&#45;&gt;Node2 -->
<g id="edge1" class="edge">
<title>Node1&#45;&gt;Node2</title>
<path fill="none" stroke="midnightblue" d="M326.72,-392.35C299.6,-377.15 245.11,-343.14 214,-300 164.7,-231.63 168.55,-193.77 189,-112 191.38,-102.49 195.79,-92.54 199.96,-84.43"/>
<polygon fill="midnightblue" stroke="midnightblue" points="203.06,-86.05 204.77,-75.59 196.91,-82.7 203.06,-86.05"/>
</g>
<!-- Node5 -->
<g id="node5" class="node">
<title>Node5</title>
<g id="a_node5"><a xlink:href="APU_8hpp.html" target="_top" xlink:title=" ">
<polygon fill="white" stroke="black" points="611,-336.5 611,-355.5 669,-355.5 669,-336.5 611,-336.5"/>
<text text-anchor="middle" x="640" y="-343.5" font-family="Helvetica,sans-Serif" font-size="10.00">APU.hpp</text>
</a>
</g>
</g>
<!-- Node1&#45;&gt;Node5 -->
<g id="edge4" class="edge">
<title>Node1&#45;&gt;Node5</title>
<path fill="none" stroke="midnightblue" d="M390.06,-392.44C448.3,-381.85 546.41,-364.02 600.77,-354.13"/>
<polygon fill="midnightblue" stroke="midnightblue" points="601.5,-357.56 610.72,-352.32 600.25,-350.67 601.5,-357.56"/>
</g>
<!-- Node3 -->
<g id="node3" class="node">
<title>Node3</title>
<g id="a_node3"><a xlink:title=" ">
<polygon fill="white" stroke="#bfbfbf" points="79,-0.5 79,-19.5 141,-19.5 141,-0.5 79,-0.5"/>
<text text-anchor="middle" x="110" y="-7.5" font-family="Helvetica,sans-Serif" font-size="10.00">cinttypes</text>
</a>
</g>
</g>
<!-- Node2&#45;&gt;Node3 -->
<g id="edge2" class="edge">
<title>Node2&#45;&gt;Node3</title>
<path fill="none" stroke="midnightblue" d="M193.93,-56.32C178.04,-47.74 153.49,-34.49 135.04,-24.52"/>
<polygon fill="midnightblue" stroke="midnightblue" points="136.49,-21.33 126.03,-19.65 133.16,-27.49 136.49,-21.33"/>
</g>
<!-- Node4 -->
<g id="node4" class="node">
<title>Node4</title>
<g id="a_node4"><a xlink:title=" ">
<polygon fill="white" stroke="#bfbfbf" points="180,-0.5 180,-19.5 240,-19.5 240,-0.5 180,-0.5"/>
<text text-anchor="middle" x="210" y="-7.5" font-family="Helvetica,sans-Serif" font-size="10.00">iostream</text>
</a>
</g>
</g>
<!-- Node2&#45;&gt;Node4 -->
<g id="edge3" class="edge">
<title>Node2&#45;&gt;Node4</title>
<path fill="none" stroke="midnightblue" d="M210,-56.08C210,-49.01 210,-38.86 210,-29.99"/>
<polygon fill="midnightblue" stroke="midnightblue" points="213.5,-29.75 210,-19.75 206.5,-29.75 213.5,-29.75"/>
</g>
<!-- Node6 -->
<g id="node6" class="node">
<title>Node6</title>
<g id="a_node6"><a xlink:title=" ">
<polygon fill="white" stroke="#bfbfbf" points="825,-56.5 825,-75.5 883,-75.5 883,-56.5 825,-56.5"/>
<text text-anchor="middle" x="854" y="-63.5" font-family="Helvetica,sans-Serif" font-size="10.00">memory</text>
</a>
</g>
</g>
<!-- Node5&#45;&gt;Node6 -->
<g id="edge5" class="edge">
<title>Node5&#45;&gt;Node6</title>
<path fill="none" stroke="midnightblue" d="M669.28,-342.92C723.9,-338.46 838.4,-326.17 867,-300 889.2,-279.68 886,-265.1 886,-235 886,-235 886,-235 886,-177 886,-143.33 872.01,-106.08 862.53,-84.72"/>
<polygon fill="midnightblue" stroke="midnightblue" points="865.68,-83.21 858.32,-75.59 859.33,-86.14 865.68,-83.21"/>
</g>
<!-- Node7 -->
<g id="node7" class="node">
<title>Node7</title>
<g id="a_node7"><a xlink:href="DSP_8hpp.html" target="_top" xlink:title=" ">
<polygon fill="white" stroke="black" points="635,-280.5 635,-299.5 713,-299.5 713,-280.5 635,-280.5"/>
<text text-anchor="middle" x="674" y="-287.5" font-family="Helvetica,sans-Serif" font-size="10.00">DSP/DSP.hpp</text>
</a>
</g>
</g>
<!-- Node5&#45;&gt;Node7 -->
<g id="edge6" class="edge">
<title>Node5&#45;&gt;Node7</title>
<path fill="none" stroke="midnightblue" d="M645.61,-336.08C650.37,-328.53 657.32,-317.49 663.15,-308.23"/>
<polygon fill="midnightblue" stroke="midnightblue" points="666.12,-310.08 668.49,-299.75 660.2,-306.35 666.12,-310.08"/>
</g>
<!-- Node10 -->
<g id="node10" class="node">
<title>Node10</title>
<g id="a_node10"><a xlink:href="IRenderer_8hpp.html" target="_top" xlink:title=" ">
<polygon fill="white" stroke="black" points="514.5,-224.5 514.5,-243.5 645.5,-243.5 645.5,-224.5 514.5,-224.5"/>
<text text-anchor="middle" x="580" y="-231.5" font-family="Helvetica,sans-Serif" font-size="10.00">Renderer/IRenderer.hpp</text>
</a>
</g>
</g>
<!-- Node5&#45;&gt;Node10 -->
<g id="edge36" class="edge">
<title>Node5&#45;&gt;Node10</title>
<path fill="none" stroke="midnightblue" d="M635.29,-336.37C625.48,-318.38 602.66,-276.55 589.61,-252.63"/>
<polygon fill="midnightblue" stroke="midnightblue" points="592.55,-250.69 584.69,-243.59 586.4,-254.05 592.55,-250.69"/>
</g>
<!-- Node13 -->
<g id="node13" class="node">
<title>Node13</title>
<g id="a_node13"><a xlink:href="AMemory_8hpp.html" target="_top" xlink:title=" ">
<polygon fill="white" stroke="black" points="632.5,-168.5 632.5,-187.5 759.5,-187.5 759.5,-168.5 632.5,-168.5"/>
<text text-anchor="middle" x="696" y="-175.5" font-family="Helvetica,sans-Serif" font-size="10.00">Memory/AMemory.hpp</text>
</a>
</g>
</g>
<!-- Node5&#45;&gt;Node13 -->
<g id="edge26" class="edge">
<title>Node5&#45;&gt;Node13</title>
<path fill="none" stroke="midnightblue" d="M663.11,-336.48C680.9,-329.02 705.2,-316.73 722,-300 742.15,-279.92 745.88,-271.54 753,-244 755.22,-235.39 756.88,-232 753,-224 746.6,-210.8 734.25,-200.3 722.67,-192.78"/>
<polygon fill="midnightblue" stroke="midnightblue" points="724.45,-189.77 714.08,-187.61 720.84,-195.77 724.45,-189.77"/>
</g>
<!-- Node17 -->
<g id="node17" class="node">
<title>Node17</title>
<g id="a_node17"><a xlink:href="Ram_8hpp.html" target="_top" xlink:title=" ">
<polygon fill="white" stroke="black" points="372,-224.5 372,-243.5 458,-243.5 458,-224.5 372,-224.5"/>
<text text-anchor="middle" x="415" y="-231.5" font-family="Helvetica,sans-Serif" font-size="10.00">Ram/Ram.hpp</text>
</a>
</g>
</g>
<!-- Node5&#45;&gt;Node17 -->
<g id="edge27" class="edge">
<title>Node5&#45;&gt;Node17</title>
<path fill="none" stroke="midnightblue" d="M622.34,-336.37C583.08,-317.17 488.31,-270.84 441.74,-248.07"/>
<polygon fill="midnightblue" stroke="midnightblue" points="443.09,-244.84 432.57,-243.59 440.02,-251.13 443.09,-244.84"/>
</g>
<!-- Node19 -->
<g id="node19" class="node">
<title>Node19</title>
<g id="a_node19"><a xlink:href="IPL_8hpp.html" target="_top" xlink:title=" ">
<polygon fill="white" stroke="black" points="788.5,-280.5 788.5,-299.5 857.5,-299.5 857.5,-280.5 788.5,-280.5"/>
<text text-anchor="middle" x="823" y="-287.5" font-family="Helvetica,sans-Serif" font-size="10.00">IPL/IPL.hpp</text>
</a>
</g>
</g>
<!-- Node5&#45;&gt;Node19 -->
<g id="edge34" class="edge">
<title>Node5&#45;&gt;Node19</title>
<path fill="none" stroke="midnightblue" d="M669,-336.44C700.18,-327.24 749.93,-312.56 784.41,-302.39"/>
<polygon fill="midnightblue" stroke="midnightblue" points="785.54,-305.7 794.14,-299.52 783.56,-298.99 785.54,-305.7"/>
</g>
<!-- Node20 -->
<g id="node20" class="node">
<title>Node20</title>
<g id="a_node20"><a xlink:href="Cartridge_8hpp.html" target="_top" xlink:title=" ">
<polygon fill="white" stroke="black" points="223.5,-280.5 223.5,-299.5 354.5,-299.5 354.5,-280.5 223.5,-280.5"/>
<text text-anchor="middle" x="289" y="-287.5" font-family="Helvetica,sans-Serif" font-size="10.00">Cartridge/Cartridge.hpp</text>
</a>
</g>
</g>
<!-- Node5&#45;&gt;Node20 -->
<g id="edge37" class="edge">
<title>Node5&#45;&gt;Node20</title>
<path fill="none" stroke="midnightblue" d="M610.98,-340.54C555.1,-331.94 431.31,-312.89 354.54,-301.08"/>
<polygon fill="midnightblue" stroke="midnightblue" points="354.91,-297.6 344.49,-299.54 353.84,-304.52 354.91,-297.6"/>
</g>
<!-- Node8 -->
<g id="node8" class="node">
<title>Node8</title>
<g id="a_node8"><a xlink:title=" ">
<polygon fill="white" stroke="#bfbfbf" points="757,-56.5 757,-75.5 807,-75.5 807,-56.5 757,-56.5"/>
<text text-anchor="middle" x="782" y="-63.5" font-family="Helvetica,sans-Serif" font-size="10.00">cstdint</text>
</a>
</g>
</g>
<!-- Node7&#45;&gt;Node8 -->
<g id="edge7" class="edge">
<title>Node7&#45;&gt;Node8</title>
<path fill="none" stroke="midnightblue" d="M699.56,-280.36C717.01,-273.21 739.35,-261.38 753,-244 789.8,-197.13 787.79,-121.43 784.43,-86.19"/>
<polygon fill="midnightblue" stroke="midnightblue" points="787.86,-85.44 783.29,-75.89 780.91,-86.21 787.86,-85.44"/>
</g>
<!-- Node9 -->
<g id="node9" class="node">
<title>Node9</title>
<g id="a_node9"><a xlink:title=" ">
<polygon fill="white" stroke="#bfbfbf" points="702,-224.5 702,-243.5 744,-243.5 744,-224.5 702,-224.5"/>
<text text-anchor="middle" x="723" y="-231.5" font-family="Helvetica,sans-Serif" font-size="10.00">array</text>
</a>
</g>
</g>
<!-- Node7&#45;&gt;Node9 -->
<g id="edge8" class="edge">
<title>Node7&#45;&gt;Node9</title>
<path fill="none" stroke="midnightblue" d="M682.09,-280.08C689.16,-272.3 699.59,-260.8 708.15,-251.37"/>
<polygon fill="midnightblue" stroke="midnightblue" points="710.93,-253.51 715.06,-243.75 705.75,-248.8 710.93,-253.51"/>
</g>
<!-- Node7&#45;&gt;Node10 -->
<g id="edge9" class="edge">
<title>Node7&#45;&gt;Node10</title>
<path fill="none" stroke="midnightblue" d="M658.9,-280.32C644.1,-271.82 621.31,-258.73 604.02,-248.8"/>
<polygon fill="midnightblue" stroke="midnightblue" points="605.48,-245.6 595.07,-243.65 601.99,-251.67 605.48,-245.6"/>
</g>
<!-- Node7&#45;&gt;Node13 -->
<g id="edge12" class="edge">
<title>Node7&#45;&gt;Node13</title>
<path fill="none" stroke="midnightblue" d="M675.73,-280.37C679.28,-262.62 687.47,-221.67 692.28,-197.6"/>
<polygon fill="midnightblue" stroke="midnightblue" points="695.75,-198.08 694.28,-187.59 688.89,-196.71 695.75,-198.08"/>
</g>
<!-- Node11 -->
<g id="node11" class="node">
<title>Node11</title>
<g id="a_node11"><a xlink:title=" ">
<polygon fill="white" stroke="#bfbfbf" points="462,-56.5 462,-75.5 506,-75.5 506,-56.5 462,-56.5"/>
<text text-anchor="middle" x="484" y="-63.5" font-family="Helvetica,sans-Serif" font-size="10.00">string</text>
</a>
</g>
</g>
<!-- Node10&#45;&gt;Node11 -->
<g id="edge10" class="edge">
<title>Node10&#45;&gt;Node11</title>
<path fill="none" stroke="midnightblue" d="M579.59,-224.16C578.7,-211.25 575.87,-186.72 567,-168 558.17,-149.38 520.11,-106.36 498.72,-82.92"/>
<polygon fill="midnightblue" stroke="midnightblue" points="501.27,-80.52 491.93,-75.52 496.11,-85.25 501.27,-80.52"/>
</g>
<!-- Node12 -->
<g id="node12" class="node">
<title>Node12</title>
<g id="a_node12"><a xlink:title=" ">
<polygon fill="white" stroke="#bfbfbf" points="518,-168.5 518,-187.5 558,-187.5 558,-168.5 518,-168.5"/>
<text text-anchor="middle" x="538" y="-175.5" font-family="Helvetica,sans-Serif" font-size="10.00">span</text>
</a>
</g>
</g>
<!-- Node10&#45;&gt;Node12 -->
<g id="edge11" class="edge">
<title>Node10&#45;&gt;Node12</title>
<path fill="none" stroke="midnightblue" d="M573.06,-224.08C567.07,-216.38 558.25,-205.03 550.95,-195.65"/>
<polygon fill="midnightblue" stroke="midnightblue" points="553.71,-193.5 544.81,-187.75 548.18,-197.79 553.71,-193.5"/>
</g>
<!-- Node13&#45;&gt;Node2 -->
<g id="edge17" class="edge">
<title>Node13&#45;&gt;Node2</title>
<path fill="none" stroke="midnightblue" d="M658.27,-168.46C570.71,-148.64 353.85,-99.56 257.48,-77.75"/>
<polygon fill="midnightblue" stroke="midnightblue" points="258.23,-74.33 247.71,-75.53 256.69,-81.16 258.23,-74.33"/>
</g>
<!-- Node13&#45;&gt;Node6 -->
<g id="edge15" class="edge">
<title>Node13&#45;&gt;Node6</title>
<path fill="none" stroke="midnightblue" d="M708.4,-168.37C735.4,-149.57 799.75,-104.77 833.12,-81.53"/>
<polygon fill="midnightblue" stroke="midnightblue" points="835.45,-84.18 841.66,-75.59 831.45,-78.43 835.45,-84.18"/>
</g>
<!-- Node13&#45;&gt;Node8 -->
<g id="edge13" class="edge">
<title>Node13&#45;&gt;Node8</title>
<path fill="none" stroke="midnightblue" d="M702.75,-168.37C717,-150.14 750.39,-107.43 768.96,-83.68"/>
<polygon fill="midnightblue" stroke="midnightblue" points="771.88,-85.63 775.28,-75.59 766.37,-81.31 771.88,-85.63"/>
</g>
<!-- Node13&#45;&gt;Node11 -->
<g id="edge16" class="edge">
<title>Node13&#45;&gt;Node11</title>
<path fill="none" stroke="midnightblue" d="M668.26,-168.37C644.04,-160.36 608.29,-147.38 579,-132 551.05,-117.32 521.42,-96 502.82,-81.83"/>
<polygon fill="midnightblue" stroke="midnightblue" points="504.93,-79.03 494.87,-75.69 500.65,-84.58 504.93,-79.03"/>
</g>
<!-- Node14 -->
<g id="node14" class="node">
<title>Node14</title>
<g id="a_node14"><a xlink:title=" ">
<polygon fill="white" stroke="#bfbfbf" points="536.5,-56.5 536.5,-75.5 583.5,-75.5 583.5,-56.5 536.5,-56.5"/>
<text text-anchor="middle" x="560" y="-63.5" font-family="Helvetica,sans-Serif" font-size="10.00">vector</text>
</a>
</g>
</g>
<!-- Node13&#45;&gt;Node14 -->
<g id="edge14" class="edge">
<title>Node13&#45;&gt;Node14</title>
<path fill="none" stroke="midnightblue" d="M695.81,-168.24C695.06,-154.53 691.65,-127.92 677,-112 665.38,-99.38 623.69,-85.23 593.38,-76.23"/>
<polygon fill="midnightblue" stroke="midnightblue" points="594.17,-72.82 583.59,-73.38 592.22,-79.54 594.17,-72.82"/>
</g>
<!-- Node15 -->
<g id="node15" class="node">
<title>Node15</title>
<g id="a_node15"><a xlink:href="Components_8hpp.html" target="_top" xlink:title=" ">
<polygon fill="white" stroke="black" points="601.5,-56.5 601.5,-75.5 738.5,-75.5 738.5,-56.5 601.5,-56.5"/>
<text text-anchor="middle" x="670" y="-63.5" font-family="Helvetica,sans-Serif" font-size="10.00">Models/Components.hpp</text>
</a>
</g>
</g>
<!-- Node13&#45;&gt;Node15 -->
<g id="edge18" class="edge">
<title>Node13&#45;&gt;Node15</title>
<path fill="none" stroke="midnightblue" d="M700.92,-168.35C707.46,-155.67 717.38,-131.42 710,-112 705.66,-100.6 696.97,-90.24 688.79,-82.34"/>
<polygon fill="midnightblue" stroke="midnightblue" points="691.04,-79.66 681.27,-75.57 686.36,-84.86 691.04,-79.66"/>
</g>
<!-- Node16 -->
<g id="node16" class="node">
<title>Node16</title>
<g id="a_node16"><a xlink:href="IMemory_8hpp.html" target="_top" xlink:title=" ">
<polygon fill="white" stroke="black" points="588,-112.5 588,-131.5 668,-131.5 668,-112.5 588,-112.5"/>
<text text-anchor="middle" x="628" y="-119.5" font-family="Helvetica,sans-Serif" font-size="10.00">IMemory.hpp</text>
</a>
</g>
</g>
<!-- Node13&#45;&gt;Node16 -->
<g id="edge19" class="edge">
<title>Node13&#45;&gt;Node16</title>
<path fill="none" stroke="midnightblue" d="M685.07,-168.32C674.83,-160.18 659.28,-147.84 647,-138.09"/>
<polygon fill="midnightblue" stroke="midnightblue" points="649.13,-135.31 639.12,-131.83 644.78,-140.79 649.13,-135.31"/>
</g>
<!-- Node16&#45;&gt;Node2 -->
<g id="edge24" class="edge">
<title>Node16&#45;&gt;Node2</title>
<path fill="none" stroke="midnightblue" d="M587.92,-115.82C513.4,-106.2 353.31,-85.51 267.35,-74.41"/>
<polygon fill="midnightblue" stroke="midnightblue" points="267.62,-70.91 257.25,-73.1 266.72,-77.86 267.62,-70.91"/>
</g>
<!-- Node16&#45;&gt;Node6 -->
<g id="edge22" class="edge">
<title>Node16&#45;&gt;Node6</title>
<path fill="none" stroke="midnightblue" d="M663.81,-112.44C704.97,-102.61 772.32,-86.52 814.84,-76.36"/>
<polygon fill="midnightblue" stroke="midnightblue" points="815.91,-79.7 824.83,-73.97 814.29,-72.89 815.91,-79.7"/>
</g>
<!-- Node16&#45;&gt;Node8 -->
<g id="edge20" class="edge">
<title>Node16&#45;&gt;Node8</title>
<path fill="none" stroke="midnightblue" d="M652.4,-112.44C678.2,-103.4 719.08,-89.06 748.02,-78.92"/>
<polygon fill="midnightblue" stroke="midnightblue" points="749.43,-82.13 757.71,-75.52 747.12,-75.52 749.43,-82.13"/>
</g>
<!-- Node16&#45;&gt;Node11 -->
<g id="edge23" class="edge">
<title>Node16&#45;&gt;Node11</title>
<path fill="none" stroke="midnightblue" d="M605.18,-112.44C581.03,-103.39 542.72,-89.02 515.65,-78.87"/>
<polygon fill="midnightblue" stroke="midnightblue" points="516.83,-75.57 506.24,-75.34 514.37,-82.13 516.83,-75.57"/>
</g>
<!-- Node16&#45;&gt;Node14 -->
<g id="edge21" class="edge">
<title>Node16&#45;&gt;Node14</title>
<path fill="none" stroke="midnightblue" d="M617.07,-112.32C606.83,-104.18 591.28,-91.84 579,-82.09"/>
<polygon fill="midnightblue" stroke="midnightblue" points="581.13,-79.31 571.12,-75.83 576.78,-84.79 581.13,-79.31"/>
</g>
<!-- Node16&#45;&gt;Node15 -->
<g id="edge25" class="edge">
<title>Node16&#45;&gt;Node15</title>
<path fill="none" stroke="midnightblue" d="M634.94,-112.08C640.93,-104.38 649.75,-93.03 657.05,-83.65"/>
<polygon fill="midnightblue" stroke="midnightblue" points="659.82,-85.79 663.19,-75.75 654.29,-81.5 659.82,-85.79"/>
</g>
<!-- Node17&#45;&gt;Node11 -->
<g id="edge31" class="edge">
<title>Node17&#45;&gt;Node11</title>
<path fill="none" stroke="midnightblue" d="M418.71,-224.08C429.62,-197.83 461.74,-120.55 476.47,-85.12"/>
<polygon fill="midnightblue" stroke="midnightblue" points="479.83,-86.15 480.44,-75.57 473.37,-83.46 479.83,-86.15"/>
</g>
<!-- Node17&#45;&gt;Node12 -->
<g id="edge32" class="edge">
<title>Node17&#45;&gt;Node12</title>
<path fill="none" stroke="midnightblue" d="M434.49,-224.44C454.64,-215.6 486.32,-201.69 509.33,-191.59"/>
<polygon fill="midnightblue" stroke="midnightblue" points="510.85,-194.74 518.6,-187.52 508.04,-188.33 510.85,-194.74"/>
</g>
<!-- Node17&#45;&gt;Node14 -->
<g id="edge33" class="edge">
<title>Node17&#45;&gt;Node14</title>
<path fill="none" stroke="midnightblue" d="M422.8,-224.08C446.11,-197.38 515.57,-117.87 545.74,-83.32"/>
<polygon fill="midnightblue" stroke="midnightblue" points="548.57,-85.4 552.52,-75.57 543.3,-80.8 548.57,-85.4"/>
</g>
<!-- Node18 -->
<g id="node18" class="node">
<title>Node18</title>
<g id="a_node18"><a xlink:href="ARectangleMemory_8hpp.html" target="_top" xlink:title=" ">
<polygon fill="white" stroke="black" points="248,-168.5 248,-187.5 424,-187.5 424,-168.5 248,-168.5"/>
<text text-anchor="middle" x="336" y="-175.5" font-family="Helvetica,sans-Serif" font-size="10.00">Memory/ARectangleMemory.hpp</text>
</a>
</g>
</g>
<!-- Node17&#45;&gt;Node18 -->
<g id="edge28" class="edge">
<title>Node17&#45;&gt;Node18</title>
<path fill="none" stroke="midnightblue" d="M402.31,-224.32C390.1,-215.98 371.42,-203.21 357,-193.35"/>
<polygon fill="midnightblue" stroke="midnightblue" points="358.89,-190.41 348.66,-187.65 354.94,-196.19 358.89,-190.41"/>
</g>
<!-- Node18&#45;&gt;Node2 -->
<g id="edge30" class="edge">
<title>Node18&#45;&gt;Node2</title>
<path fill="none" stroke="midnightblue" d="M326.11,-168.37C304.86,-149.81 254.57,-105.91 227.68,-82.44"/>
<polygon fill="midnightblue" stroke="midnightblue" points="229.68,-79.53 219.84,-75.59 225.07,-84.8 229.68,-79.53"/>
</g>
<!-- Node18&#45;&gt;Node16 -->
<g id="edge29" class="edge">
<title>Node18&#45;&gt;Node16</title>
<path fill="none" stroke="midnightblue" d="M382.27,-168.44C435.56,-158.59 522.8,-142.45 577.73,-132.3"/>
<polygon fill="midnightblue" stroke="midnightblue" points="578.39,-135.73 587.59,-130.47 577.12,-128.85 578.39,-135.73"/>
</g>
<!-- Node19&#45;&gt;Node13 -->
<g id="edge35" class="edge">
<title>Node19&#45;&gt;Node13</title>
<path fill="none" stroke="midnightblue" d="M819.98,-280.37C814.87,-266.82 803.34,-240.43 786,-224 770.7,-209.5 749.83,-198.67 732.04,-191.28"/>
<polygon fill="midnightblue" stroke="midnightblue" points="733.11,-187.94 722.53,-187.52 730.54,-194.45 733.11,-187.94"/>
</g>
<!-- Node20&#45;&gt;Node2 -->
<g id="edge42" class="edge">
<title>Node20&#45;&gt;Node2</title>
<path fill="none" stroke="midnightblue" d="M256.82,-280.49C238.46,-273.8 216.98,-262.45 206,-244 175.91,-193.46 193.04,-119.57 203.61,-85.49"/>
<polygon fill="midnightblue" stroke="midnightblue" points="207.08,-86.13 206.86,-75.54 200.43,-83.96 207.08,-86.13"/>
</g>
<!-- Node20&#45;&gt;Node11 -->
<g id="edge45" class="edge">
<title>Node20&#45;&gt;Node11</title>
<path fill="none" stroke="midnightblue" d="M279.86,-280.21C259.36,-259.43 213.46,-206.15 239,-168 287.11,-96.14 396.65,-75.35 451.48,-69.38"/>
<polygon fill="midnightblue" stroke="midnightblue" points="452.07,-72.84 461.68,-68.37 451.39,-65.87 452.07,-72.84"/>
</g>
<!-- Node20&#45;&gt;Node13 -->
<g id="edge40" class="edge">
<title>Node20&#45;&gt;Node13</title>
<path fill="none" stroke="midnightblue" d="M334.49,-280.47C370.98,-272.92 423.16,-260.54 467,-244 485.23,-237.12 487.72,-230.74 506,-224 548.19,-208.45 597.67,-196.93 635.56,-189.44"/>
<polygon fill="midnightblue" stroke="midnightblue" points="636.27,-192.87 645.42,-187.53 634.94,-186 636.27,-192.87"/>
</g>
<!-- Node20&#45;&gt;Node17 -->
<g id="edge43" class="edge">
<title>Node20&#45;&gt;Node17</title>
<path fill="none" stroke="midnightblue" d="M308.97,-280.44C329.61,-271.6 362.06,-257.69 385.63,-247.59"/>
<polygon fill="midnightblue" stroke="midnightblue" points="387.32,-250.67 395.13,-243.52 384.56,-244.24 387.32,-250.67"/>
</g>
<!-- Node20&#45;&gt;Node18 -->
<g id="edge41" class="edge">
<title>Node20&#45;&gt;Node18</title>
<path fill="none" stroke="midnightblue" d="M284.03,-280.11C277.49,-267.13 267.84,-242.51 277,-224 283.6,-210.66 296.26,-200.19 308.17,-192.73"/>
<polygon fill="midnightblue" stroke="midnightblue" points="310.12,-195.64 317.02,-187.6 306.61,-189.59 310.12,-195.64"/>
</g>
<!-- Node21 -->
<g id="node21" class="node">
<title>Node21</title>
<g id="a_node21"><a xlink:href="InterruptVectors_8hpp.html" target="_top" xlink:title=" ">
<polygon fill="white" stroke="black" points="0,-112.5 0,-131.5 116,-131.5 116,-112.5 0,-112.5"/>
<text text-anchor="middle" x="58" y="-119.5" font-family="Helvetica,sans-Serif" font-size="10.00">InterruptVectors.hpp</text>
</a>
</g>
</g>
<!-- Node20&#45;&gt;Node21 -->
<g id="edge38" class="edge">
<title>Node20&#45;&gt;Node21</title>
<path fill="none" stroke="midnightblue" d="M252.99,-280.48C227.74,-273.39 193.99,-261.57 168,-244 125.06,-214.97 87.42,-165.8 69.36,-139.99"/>
<polygon fill="midnightblue" stroke="midnightblue" points="72.16,-137.88 63.62,-131.61 66.39,-141.84 72.16,-137.88"/>
</g>
<!-- Node22 -->
<g id="node22" class="node">
<title>Node22</title>
<g id="a_node22"><a xlink:title=" ">
<polygon fill="white" stroke="#bfbfbf" points="286,-224.5 286,-243.5 354,-243.5 354,-224.5 286,-224.5"/>
<text text-anchor="middle" x="320" y="-231.5" font-family="Helvetica,sans-Serif" font-size="10.00">filesystem</text>
</a>
</g>
</g>
<!-- Node20&#45;&gt;Node22 -->
<g id="edge44" class="edge">
<title>Node20&#45;&gt;Node22</title>
<path fill="none" stroke="midnightblue" d="M294.12,-280.08C298.41,-272.61 304.66,-261.72 309.94,-252.52"/>
<polygon fill="midnightblue" stroke="midnightblue" points="313.03,-254.17 314.98,-243.75 306.96,-250.68 313.03,-254.17"/>
</g>
<!-- Node21&#45;&gt;Node3 -->
<g id="edge39" class="edge">
<title>Node21&#45;&gt;Node3</title>
<path fill="none" stroke="midnightblue" d="M62.08,-112.37C70.55,-94.46 90.18,-52.92 101.52,-28.95"/>
<polygon fill="midnightblue" stroke="midnightblue" points="104.83,-30.13 105.94,-19.59 98.5,-27.14 104.83,-30.13"/>
</g>
</g>
</svg>
