<?xml version="1.0" encoding="UTF-8" standalone="no"?>
<!DOCTYPE svg PUBLIC "-//W3C//DTD SVG 1.1//EN"
 "http://www.w3.org/Graphics/SVG/1.1/DTD/svg11.dtd">
<!-- Generated by graphviz version 2.43.0 (0)
 -->
<!-- Title: sources/PPU/PPU.hpp Pages: 1 -->
<svg width="1328pt" height="420pt"
 viewBox="0.00 0.00 1327.50 420.00" xmlns="http://www.w3.org/2000/svg" xmlns:xlink="http://www.w3.org/1999/xlink">
<g id="graph0" class="graph" transform="scale(1 1) rotate(0) translate(4 416)">
<title>sources/PPU/PPU.hpp</title>
<polygon fill="white" stroke="transparent" points="-4,4 -4,-416 1323.5,-416 1323.5,4 -4,4"/>
<!-- Node1 -->
<g id="node1" class="node">
<title>Node1</title>
<g id="a_node1"><a xlink:title=" ">
<polygon fill="#bfbfbf" stroke="black" points="831,-392.5 831,-411.5 951,-411.5 951,-392.5 831,-392.5"/>
<text text-anchor="middle" x="891" y="-399.5" font-family="Helvetica,sans-Serif" font-size="10.00">sources/PPU/PPU.hpp</text>
</a>
</g>
</g>
<!-- Node2 -->
<g id="node2" class="node">
<title>Node2</title>
<g id="a_node2"><a xlink:title=" ">
<polygon fill="white" stroke="#bfbfbf" points="0,-56.5 0,-75.5 50,-75.5 50,-56.5 0,-56.5"/>
<text text-anchor="middle" x="25" y="-63.5" font-family="Helvetica,sans-Serif" font-size="10.00">cstdint</text>
</a>
</g>
</g>
<!-- Node1&#45;&gt;Node2 -->
<g id="edge1" class="edge">
<title>Node1&#45;&gt;Node2</title>
<path fill="none" stroke="midnightblue" d="M830.94,-399.89C631.23,-395.43 2,-374.74 2,-291 2,-291 2,-291 2,-177 2,-144.12 11.97,-106.86 18.78,-85.24"/>
<polygon fill="midnightblue" stroke="midnightblue" points="22.11,-86.3 21.9,-75.71 15.46,-84.12 22.11,-86.3"/>
</g>
<!-- Node3 -->
<g id="node3" class="node">
<title>Node3</title>
<g id="a_node3"><a xlink:href="AMemory_8hpp.html" target="_top" xlink:title=" ">
<polygon fill="white" stroke="black" points="332.5,-168.5 332.5,-187.5 459.5,-187.5 459.5,-168.5 332.5,-168.5"/>
<text text-anchor="middle" x="396" y="-175.5" font-family="Helvetica,sans-Serif" font-size="10.00">Memory/AMemory.hpp</text>
</a>
</g>
</g>
<!-- Node1&#45;&gt;Node3 -->
<g id="edge2" class="edge">
<title>Node1&#45;&gt;Node3</title>
<path fill="none" stroke="midnightblue" d="M847.73,-392.45C813.04,-384.89 763.47,-372.51 722,-356 601.46,-308.02 468.75,-225.94 417.67,-193.14"/>
<polygon fill="midnightblue" stroke="midnightblue" points="419.4,-190.1 409.11,-187.61 415.61,-195.98 419.4,-190.1"/>
</g>
<!-- Node12 -->
<g id="node12" class="node">
<title>Node12</title>
<g id="a_node12"><a xlink:href="MemoryBus_8hpp.html" target="_top" xlink:title=" ">
<polygon fill="white" stroke="black" points="214,-336.5 214,-355.5 354,-355.5 354,-336.5 214,-336.5"/>
<text text-anchor="middle" x="284" y="-343.5" font-family="Helvetica,sans-Serif" font-size="10.00">Memory/MemoryBus.hpp</text>
</a>
</g>
</g>
<!-- Node1&#45;&gt;Node12 -->
<g id="edge18" class="edge">
<title>Node1&#45;&gt;Node12</title>
<path fill="none" stroke="midnightblue" d="M830.86,-395.65C721.04,-385.88 488.02,-365.15 364.6,-354.17"/>
<polygon fill="midnightblue" stroke="midnightblue" points="364.73,-350.67 354.46,-353.27 364.11,-357.64 364.73,-350.67"/>
</g>
<!-- Node18 -->
<g id="node18" class="node">
<title>Node18</title>
<g id="a_node18"><a xlink:href="IRenderer_8hpp.html" target="_top" xlink:title=" ">
<polygon fill="white" stroke="black" points="579.5,-224.5 579.5,-243.5 710.5,-243.5 710.5,-224.5 579.5,-224.5"/>
<text text-anchor="middle" x="645" y="-231.5" font-family="Helvetica,sans-Serif" font-size="10.00">Renderer/IRenderer.hpp</text>
</a>
</g>
</g>
<!-- Node1&#45;&gt;Node18 -->
<g id="edge36" class="edge">
<title>Node1&#45;&gt;Node18</title>
<path fill="none" stroke="midnightblue" d="M843.45,-392.42C814.96,-385.71 778.95,-374.36 751,-356 708.38,-328.01 672.64,-278.4 655.64,-252.24"/>
<polygon fill="midnightblue" stroke="midnightblue" points="658.56,-250.32 650.25,-243.75 652.65,-254.07 658.56,-250.32"/>
</g>
<!-- Node20 -->
<g id="node20" class="node">
<title>Node20</title>
<g id="a_node20"><a xlink:href="Ram_8hpp.html" target="_top" xlink:title=" ">
<polygon fill="white" stroke="black" points="729,-224.5 729,-243.5 815,-243.5 815,-224.5 729,-224.5"/>
<text text-anchor="middle" x="772" y="-231.5" font-family="Helvetica,sans-Serif" font-size="10.00">Ram/Ram.hpp</text>
</a>
</g>
</g>
<!-- Node1&#45;&gt;Node20 -->
<g id="edge39" class="edge">
<title>Node1&#45;&gt;Node20</title>
<path fill="none" stroke="midnightblue" d="M860.01,-392.41C820.5,-379.6 753.85,-351.32 725,-300 714.71,-281.7 732.83,-262.42 749.48,-249.65"/>
<polygon fill="midnightblue" stroke="midnightblue" points="751.81,-252.29 757.88,-243.61 747.72,-246.6 751.81,-252.29"/>
</g>
<!-- Node21 -->
<g id="node21" class="node">
<title>Node21</title>
<g id="a_node21"><a xlink:href="Vector2_8hpp.html" target="_top" xlink:title=" ">
<polygon fill="white" stroke="black" points="1170.5,-224.5 1170.5,-243.5 1283.5,-243.5 1283.5,-224.5 1170.5,-224.5"/>
<text text-anchor="middle" x="1227" y="-231.5" font-family="Helvetica,sans-Serif" font-size="10.00">Models/Vector2.hpp</text>
</a>
</g>
</g>
<!-- Node1&#45;&gt;Node21 -->
<g id="edge44" class="edge">
<title>Node1&#45;&gt;Node21</title>
<path fill="none" stroke="midnightblue" d="M932.31,-392.45C964.82,-384.97 1010.85,-372.68 1049,-356 1092.86,-336.83 1101.41,-326.91 1141,-300 1164.86,-283.78 1191.16,-263.53 1208.32,-249.98"/>
<polygon fill="midnightblue" stroke="midnightblue" points="1210.74,-252.53 1216.39,-243.56 1206.39,-247.05 1210.74,-252.53"/>
</g>
<!-- Node24 -->
<g id="node24" class="node">
<title>Node24</title>
<g id="a_node24"><a xlink:title=" ">
<polygon fill="white" stroke="#bfbfbf" points="957,-336.5 957,-355.5 1021,-355.5 1021,-336.5 957,-336.5"/>
<text text-anchor="middle" x="989" y="-343.5" font-family="Helvetica,sans-Serif" font-size="10.00">algorithm</text>
</a>
</g>
</g>
<!-- Node1&#45;&gt;Node24 -->
<g id="edge47" class="edge">
<title>Node1&#45;&gt;Node24</title>
<path fill="none" stroke="midnightblue" d="M906.75,-392.32C922.32,-383.74 946.38,-370.49 964.46,-360.52"/>
<polygon fill="midnightblue" stroke="midnightblue" points="966.22,-363.55 973.29,-355.65 962.85,-357.42 966.22,-363.55"/>
</g>
<!-- Node25 -->
<g id="node25" class="node">
<title>Node25</title>
<g id="a_node25"><a xlink:href="Background_8hpp.html" target="_top" xlink:title=" ">
<polygon fill="white" stroke="black" points="843.5,-336.5 843.5,-355.5 938.5,-355.5 938.5,-336.5 843.5,-336.5"/>
<text text-anchor="middle" x="891" y="-343.5" font-family="Helvetica,sans-Serif" font-size="10.00">Background.hpp</text>
</a>
</g>
</g>
<!-- Node1&#45;&gt;Node25 -->
<g id="edge48" class="edge">
<title>Node1&#45;&gt;Node25</title>
<path fill="none" stroke="midnightblue" d="M885.83,-392.08C884.32,-384.93 883.89,-374.64 884.54,-365.69"/>
<polygon fill="midnightblue" stroke="midnightblue" points="888.02,-366.13 885.87,-355.75 881.08,-365.2 888.02,-366.13"/>
</g>
<!-- Node28 -->
<g id="node28" class="node">
<title>Node28</title>
<g id="a_node28"><a xlink:href="PPUUtils_8hpp.html" target="_top" xlink:title=" ">
<polygon fill="white" stroke="black" points="998,-280.5 998,-299.5 1100,-299.5 1100,-280.5 998,-280.5"/>
<text text-anchor="middle" x="1049" y="-287.5" font-family="Helvetica,sans-Serif" font-size="10.00">PPU/PPUUtils.hpp</text>
</a>
</g>
</g>
<!-- Node1&#45;&gt;Node28 -->
<g id="edge64" class="edge">
<title>Node1&#45;&gt;Node28</title>
<path fill="none" stroke="midnightblue" d="M951.15,-394.43C978.51,-388.51 1009.32,-377.28 1030,-356 1041.9,-343.76 1046.41,-324.49 1048.09,-310.11"/>
<polygon fill="midnightblue" stroke="midnightblue" points="1051.6,-310.1 1048.91,-299.85 1044.62,-309.54 1051.6,-310.1"/>
</g>
<!-- Node31 -->
<g id="node31" class="node">
<title>Node31</title>
<g id="a_node31"><a xlink:href="PPURegisters_8hpp.html" target="_top" xlink:title=" ">
<polygon fill="white" stroke="black" points="1194.5,-336.5 1194.5,-355.5 1319.5,-355.5 1319.5,-336.5 1194.5,-336.5"/>
<text text-anchor="middle" x="1257" y="-343.5" font-family="Helvetica,sans-Serif" font-size="10.00">PPU/PPURegisters.hpp</text>
</a>
</g>
</g>
<!-- Node1&#45;&gt;Node31 -->
<g id="edge65" class="edge">
<title>Node1&#45;&gt;Node31</title>
<path fill="none" stroke="midnightblue" d="M948.99,-392.44C1014.31,-382.81 1120.34,-367.16 1189.37,-356.98"/>
<polygon fill="midnightblue" stroke="midnightblue" points="1189.9,-360.44 1199.28,-355.52 1188.87,-353.51 1189.9,-360.44"/>
</g>
<!-- Node3&#45;&gt;Node2 -->
<g id="edge3" class="edge">
<title>Node3&#45;&gt;Node2</title>
<path fill="none" stroke="midnightblue" d="M367.2,-168.46C299.88,-148.5 132.45,-98.86 59.68,-77.28"/>
<polygon fill="midnightblue" stroke="midnightblue" points="60.65,-73.92 50.06,-74.43 58.66,-80.63 60.65,-73.92"/>
</g>
<!-- Node4 -->
<g id="node4" class="node">
<title>Node4</title>
<g id="a_node4"><a xlink:title=" ">
<polygon fill="white" stroke="#bfbfbf" points="616.5,-56.5 616.5,-75.5 663.5,-75.5 663.5,-56.5 616.5,-56.5"/>
<text text-anchor="middle" x="640" y="-63.5" font-family="Helvetica,sans-Serif" font-size="10.00">vector</text>
</a>
</g>
</g>
<!-- Node3&#45;&gt;Node4 -->
<g id="edge4" class="edge">
<title>Node3&#45;&gt;Node4</title>
<path fill="none" stroke="midnightblue" d="M423.78,-168.5C449.65,-160.25 489.07,-146.84 522,-132 556.3,-116.55 594.08,-94.86 617.43,-80.86"/>
<polygon fill="midnightblue" stroke="midnightblue" points="619.46,-83.72 626.21,-75.55 615.84,-77.73 619.46,-83.72"/>
</g>
<!-- Node5 -->
<g id="node5" class="node">
<title>Node5</title>
<g id="a_node5"><a xlink:title=" ">
<polygon fill="white" stroke="#bfbfbf" points="272,-56.5 272,-75.5 330,-75.5 330,-56.5 272,-56.5"/>
<text text-anchor="middle" x="301" y="-63.5" font-family="Helvetica,sans-Serif" font-size="10.00">memory</text>
</a>
</g>
</g>
<!-- Node3&#45;&gt;Node5 -->
<g id="edge5" class="edge">
<title>Node3&#45;&gt;Node5</title>
<path fill="none" stroke="midnightblue" d="M388.55,-168.37C372.73,-150.05 335.59,-107.05 315.13,-83.36"/>
<polygon fill="midnightblue" stroke="midnightblue" points="317.6,-80.87 308.42,-75.59 312.31,-85.45 317.6,-80.87"/>
</g>
<!-- Node6 -->
<g id="node6" class="node">
<title>Node6</title>
<g id="a_node6"><a xlink:title=" ">
<polygon fill="white" stroke="#bfbfbf" points="768,-56.5 768,-75.5 812,-75.5 812,-56.5 768,-56.5"/>
<text text-anchor="middle" x="790" y="-63.5" font-family="Helvetica,sans-Serif" font-size="10.00">string</text>
</a>
</g>
</g>
<!-- Node3&#45;&gt;Node6 -->
<g id="edge6" class="edge">
<title>Node3&#45;&gt;Node6</title>
<path fill="none" stroke="midnightblue" d="M426.59,-168.46C499.63,-148.07 683.67,-96.69 758.06,-75.92"/>
<polygon fill="midnightblue" stroke="midnightblue" points="759.12,-79.26 767.81,-73.2 757.23,-72.51 759.12,-79.26"/>
</g>
<!-- Node7 -->
<g id="node7" class="node">
<title>Node7</title>
<g id="a_node7"><a xlink:href="Ints_8hpp.html" target="_top" xlink:title=" ">
<polygon fill="white" stroke="black" points="504,-56.5 504,-75.5 598,-75.5 598,-56.5 504,-56.5"/>
<text text-anchor="middle" x="551" y="-63.5" font-family="Helvetica,sans-Serif" font-size="10.00">Models/Ints.hpp</text>
</a>
</g>
</g>
<!-- Node3&#45;&gt;Node7 -->
<g id="edge7" class="edge">
<title>Node3&#45;&gt;Node7</title>
<path fill="none" stroke="midnightblue" d="M423.99,-168.44C445.36,-161.01 474.81,-148.81 497,-132 514.65,-118.63 530.26,-98.43 540.1,-84.1"/>
<polygon fill="midnightblue" stroke="midnightblue" points="543.08,-85.93 545.69,-75.66 537.25,-82.06 543.08,-85.93"/>
</g>
<!-- Node10 -->
<g id="node10" class="node">
<title>Node10</title>
<g id="a_node10"><a xlink:href="Components_8hpp.html" target="_top" xlink:title=" ">
<polygon fill="white" stroke="black" points="348.5,-56.5 348.5,-75.5 485.5,-75.5 485.5,-56.5 348.5,-56.5"/>
<text text-anchor="middle" x="417" y="-63.5" font-family="Helvetica,sans-Serif" font-size="10.00">Models/Components.hpp</text>
</a>
</g>
</g>
<!-- Node3&#45;&gt;Node10 -->
<g id="edge10" class="edge">
<title>Node3&#45;&gt;Node10</title>
<path fill="none" stroke="midnightblue" d="M395.5,-168.47C394.96,-155.93 394.7,-131.87 399,-112 401,-102.75 404.72,-92.94 408.26,-84.85"/>
<polygon fill="midnightblue" stroke="midnightblue" points="411.48,-86.23 412.51,-75.69 405.13,-83.29 411.48,-86.23"/>
</g>
<!-- Node11 -->
<g id="node11" class="node">
<title>Node11</title>
<g id="a_node11"><a xlink:href="IMemory_8hpp.html" target="_top" xlink:title=" ">
<polygon fill="white" stroke="black" points="408,-112.5 408,-131.5 488,-131.5 488,-112.5 408,-112.5"/>
<text text-anchor="middle" x="448" y="-119.5" font-family="Helvetica,sans-Serif" font-size="10.00">IMemory.hpp</text>
</a>
</g>
</g>
<!-- Node3&#45;&gt;Node11 -->
<g id="edge11" class="edge">
<title>Node3&#45;&gt;Node11</title>
<path fill="none" stroke="midnightblue" d="M404.59,-168.08C412.16,-160.22 423.38,-148.57 432.51,-139.08"/>
<polygon fill="midnightblue" stroke="midnightblue" points="435.16,-141.38 439.57,-131.75 430.12,-136.53 435.16,-141.38"/>
</g>
<!-- Node8 -->
<g id="node8" class="node">
<title>Node8</title>
<g id="a_node8"><a xlink:title=" ">
<polygon fill="white" stroke="#bfbfbf" points="382,-0.5 382,-19.5 444,-19.5 444,-0.5 382,-0.5"/>
<text text-anchor="middle" x="413" y="-7.5" font-family="Helvetica,sans-Serif" font-size="10.00">cinttypes</text>
</a>
</g>
</g>
<!-- Node7&#45;&gt;Node8 -->
<g id="edge8" class="edge">
<title>Node7&#45;&gt;Node8</title>
<path fill="none" stroke="midnightblue" d="M529.13,-56.44C506.22,-47.48 470.02,-33.31 444.13,-23.18"/>
<polygon fill="midnightblue" stroke="midnightblue" points="445.35,-19.9 434.76,-19.52 442.8,-26.42 445.35,-19.9"/>
</g>
<!-- Node9 -->
<g id="node9" class="node">
<title>Node9</title>
<g id="a_node9"><a xlink:title=" ">
<polygon fill="white" stroke="#bfbfbf" points="658,-0.5 658,-19.5 718,-19.5 718,-0.5 658,-0.5"/>
<text text-anchor="middle" x="688" y="-7.5" font-family="Helvetica,sans-Serif" font-size="10.00">iostream</text>
</a>
</g>
</g>
<!-- Node7&#45;&gt;Node9 -->
<g id="edge9" class="edge">
<title>Node7&#45;&gt;Node9</title>
<path fill="none" stroke="midnightblue" d="M572.71,-56.44C595.35,-47.52 631.07,-33.44 656.75,-23.32"/>
<polygon fill="midnightblue" stroke="midnightblue" points="658.37,-26.44 666.39,-19.52 655.81,-19.93 658.37,-26.44"/>
</g>
<!-- Node11&#45;&gt;Node2 -->
<g id="edge12" class="edge">
<title>Node11&#45;&gt;Node2</title>
<path fill="none" stroke="midnightblue" d="M407.82,-115.87C325.4,-105.35 138.36,-81.47 60.28,-71.5"/>
<polygon fill="midnightblue" stroke="midnightblue" points="60.37,-67.99 50,-70.19 59.48,-74.93 60.37,-67.99"/>
</g>
<!-- Node11&#45;&gt;Node4 -->
<g id="edge13" class="edge">
<title>Node11&#45;&gt;Node4</title>
<path fill="none" stroke="midnightblue" d="M478.42,-112.44C513.26,-102.65 570.17,-86.64 606.32,-76.47"/>
<polygon fill="midnightblue" stroke="midnightblue" points="607.7,-79.72 616.38,-73.64 605.8,-72.98 607.7,-79.72"/>
</g>
<!-- Node11&#45;&gt;Node5 -->
<g id="edge14" class="edge">
<title>Node11&#45;&gt;Node5</title>
<path fill="none" stroke="midnightblue" d="M424.71,-112.44C400.19,-103.44 361.4,-89.19 333.8,-79.05"/>
<polygon fill="midnightblue" stroke="midnightblue" points="334.78,-75.68 324.18,-75.52 332.36,-82.25 334.78,-75.68"/>
</g>
<!-- Node11&#45;&gt;Node6 -->
<g id="edge15" class="edge">
<title>Node11&#45;&gt;Node6</title>
<path fill="none" stroke="midnightblue" d="M488.24,-114.65C556.84,-103.81 695.09,-81.99 757.78,-72.09"/>
<polygon fill="midnightblue" stroke="midnightblue" points="758.55,-75.51 767.88,-70.49 757.45,-68.6 758.55,-75.51"/>
</g>
<!-- Node11&#45;&gt;Node7 -->
<g id="edge16" class="edge">
<title>Node11&#45;&gt;Node7</title>
<path fill="none" stroke="midnightblue" d="M464.55,-112.32C480.99,-103.7 506.43,-90.36 525.47,-80.39"/>
<polygon fill="midnightblue" stroke="midnightblue" points="527.26,-83.4 534.49,-75.65 524.01,-77.2 527.26,-83.4"/>
</g>
<!-- Node11&#45;&gt;Node10 -->
<g id="edge17" class="edge">
<title>Node11&#45;&gt;Node10</title>
<path fill="none" stroke="midnightblue" d="M442.88,-112.08C438.59,-104.61 432.34,-93.72 427.06,-84.52"/>
<polygon fill="midnightblue" stroke="midnightblue" points="430.04,-82.68 422.02,-75.75 423.97,-86.17 430.04,-82.68"/>
</g>
<!-- Node12&#45;&gt;Node2 -->
<g id="edge33" class="edge">
<title>Node12&#45;&gt;Node2</title>
<path fill="none" stroke="midnightblue" d="M213.75,-342.28C141.67,-335.28 40,-311.79 40,-235 40,-235 40,-235 40,-177 40,-144.5 33.49,-107.1 29.05,-85.34"/>
<polygon fill="midnightblue" stroke="midnightblue" points="32.46,-84.56 26.96,-75.5 25.61,-86.01 32.46,-84.56"/>
</g>
<!-- Node12&#45;&gt;Node3 -->
<g id="edge19" class="edge">
<title>Node12&#45;&gt;Node3</title>
<path fill="none" stroke="midnightblue" d="M342.57,-336.48C364.33,-330.16 386.88,-319.16 400,-300 421.2,-269.04 410.89,-222.43 402.71,-197.04"/>
<polygon fill="midnightblue" stroke="midnightblue" points="406.01,-195.87 399.43,-187.57 399.39,-198.16 406.01,-195.87"/>
</g>
<!-- Node12&#45;&gt;Node4 -->
<g id="edge35" class="edge">
<title>Node12&#45;&gt;Node4</title>
<path fill="none" stroke="midnightblue" d="M315.19,-336.43C342.96,-328.37 384.43,-315.28 419,-300 442.3,-289.7 604.28,-208.79 619,-188 640.79,-157.22 642.5,-111.2 641.47,-85.7"/>
<polygon fill="midnightblue" stroke="midnightblue" points="644.95,-85.33 640.86,-75.56 637.96,-85.75 644.95,-85.33"/>
</g>
<!-- Node12&#45;&gt;Node5 -->
<g id="edge34" class="edge">
<title>Node12&#45;&gt;Node5</title>
<path fill="none" stroke="midnightblue" d="M270.57,-336.36C243.68,-317.86 186.96,-272.18 201,-224 217.73,-166.61 262.49,-110.18 286.04,-83.29"/>
<polygon fill="midnightblue" stroke="midnightblue" points="288.83,-85.43 292.88,-75.64 283.61,-80.76 288.83,-85.43"/>
</g>
<!-- Node13 -->
<g id="node13" class="node">
<title>Node13</title>
<g id="a_node13"><a xlink:href="RectangleShadow_8hpp.html" target="_top" xlink:title=" ">
<polygon fill="white" stroke="black" points="267,-280.5 267,-299.5 391,-299.5 391,-280.5 267,-280.5"/>
<text text-anchor="middle" x="329" y="-287.5" font-family="Helvetica,sans-Serif" font-size="10.00">RectangleShadow.hpp</text>
</a>
</g>
</g>
<!-- Node12&#45;&gt;Node13 -->
<g id="edge20" class="edge">
<title>Node12&#45;&gt;Node13</title>
<path fill="none" stroke="midnightblue" d="M291.43,-336.08C297.85,-328.38 307.31,-317.03 315.12,-307.65"/>
<polygon fill="midnightblue" stroke="midnightblue" points="317.99,-309.67 321.71,-299.75 312.62,-305.19 317.99,-309.67"/>
</g>
<!-- Node15 -->
<g id="node15" class="node">
<title>Node15</title>
<g id="a_node15"><a xlink:href="MemoryShadow_8hpp.html" target="_top" xlink:title=" ">
<polygon fill="white" stroke="black" points="210,-224.5 210,-243.5 326,-243.5 326,-224.5 210,-224.5"/>
<text text-anchor="middle" x="268" y="-231.5" font-family="Helvetica,sans-Serif" font-size="10.00">MemoryShadow.hpp</text>
</a>
</g>
</g>
<!-- Node12&#45;&gt;Node15 -->
<g id="edge28" class="edge">
<title>Node12&#45;&gt;Node15</title>
<path fill="none" stroke="midnightblue" d="M277.11,-336.32C270.73,-327.68 261.69,-313.77 258,-300 253.84,-284.49 257.27,-266.41 261.2,-253.26"/>
<polygon fill="midnightblue" stroke="midnightblue" points="264.6,-254.13 264.47,-243.54 257.97,-251.9 264.6,-254.13"/>
</g>
<!-- Node16 -->
<g id="node16" class="node">
<title>Node16</title>
<g id="a_node16"><a xlink:href="IMemoryBus_8hpp.html" target="_top" xlink:title=" ">
<polygon fill="white" stroke="black" points="86.5,-168.5 86.5,-187.5 185.5,-187.5 185.5,-168.5 86.5,-168.5"/>
<text text-anchor="middle" x="136" y="-175.5" font-family="Helvetica,sans-Serif" font-size="10.00">IMemoryBus.hpp</text>
</a>
</g>
</g>
<!-- Node12&#45;&gt;Node16 -->
<g id="edge29" class="edge">
<title>Node12&#45;&gt;Node16</title>
<path fill="none" stroke="midnightblue" d="M234.03,-336.43C210.96,-330.05 184.99,-319 168,-300 142.13,-271.08 136.78,-223.63 135.91,-197.57"/>
<polygon fill="midnightblue" stroke="midnightblue" points="139.41,-197.49 135.77,-187.54 132.41,-197.59 139.41,-197.49"/>
</g>
<!-- Node13&#45;&gt;Node5 -->
<g id="edge21" class="edge">
<title>Node13&#45;&gt;Node5</title>
<path fill="none" stroke="midnightblue" d="M330.49,-280.41C331.98,-271.38 334.15,-256.74 335,-244 335.59,-235.13 336.42,-232.77 335,-224 332.3,-207.35 327.19,-204.34 323,-188 313.85,-152.27 307.03,-109.67 303.56,-85.74"/>
<polygon fill="midnightblue" stroke="midnightblue" points="307,-85.01 302.14,-75.6 300.06,-85.99 307,-85.01"/>
</g>
<!-- Node14 -->
<g id="node14" class="node">
<title>Node14</title>
<g id="a_node14"><a xlink:href="ARectangleMemory_8hpp.html" target="_top" xlink:title=" ">
<polygon fill="white" stroke="black" points="478,-168.5 478,-187.5 610,-187.5 610,-168.5 478,-168.5"/>
<text text-anchor="middle" x="544" y="-175.5" font-family="Helvetica,sans-Serif" font-size="10.00">ARectangleMemory.hpp</text>
</a>
</g>
</g>
<!-- Node13&#45;&gt;Node14 -->
<g id="edge22" class="edge">
<title>Node13&#45;&gt;Node14</title>
<path fill="none" stroke="midnightblue" d="M345.87,-280.37C383.31,-261.21 473.57,-215.04 518.17,-192.22"/>
<polygon fill="midnightblue" stroke="midnightblue" points="519.9,-195.26 527.21,-187.59 516.71,-189.03 519.9,-195.26"/>
</g>
<!-- Node13&#45;&gt;Node15 -->
<g id="edge25" class="edge">
<title>Node13&#45;&gt;Node15</title>
<path fill="none" stroke="midnightblue" d="M319.2,-280.32C310.18,-272.34 296.59,-260.31 285.68,-250.65"/>
<polygon fill="midnightblue" stroke="midnightblue" points="287.79,-247.84 277.98,-243.83 283.15,-253.08 287.79,-247.84"/>
</g>
<!-- Node14&#45;&gt;Node7 -->
<g id="edge24" class="edge">
<title>Node14&#45;&gt;Node7</title>
<path fill="none" stroke="midnightblue" d="M544.55,-168.37C545.68,-150.62 548.28,-109.67 549.82,-85.6"/>
<polygon fill="midnightblue" stroke="midnightblue" points="553.31,-85.79 550.45,-75.59 546.33,-85.35 553.31,-85.79"/>
</g>
<!-- Node14&#45;&gt;Node11 -->
<g id="edge23" class="edge">
<title>Node14&#45;&gt;Node11</title>
<path fill="none" stroke="midnightblue" d="M528.58,-168.32C513.46,-159.82 490.18,-146.73 472.53,-136.8"/>
<polygon fill="midnightblue" stroke="midnightblue" points="473.82,-133.51 463.39,-131.65 470.39,-139.61 473.82,-133.51"/>
</g>
<!-- Node15&#45;&gt;Node3 -->
<g id="edge27" class="edge">
<title>Node15&#45;&gt;Node3</title>
<path fill="none" stroke="midnightblue" d="M288.28,-224.44C309.35,-215.56 342.52,-201.56 366.49,-191.45"/>
<polygon fill="midnightblue" stroke="midnightblue" points="367.96,-194.63 375.81,-187.52 365.24,-188.18 367.96,-194.63"/>
</g>
<!-- Node15&#45;&gt;Node5 -->
<g id="edge26" class="edge">
<title>Node15&#45;&gt;Node5</title>
<path fill="none" stroke="midnightblue" d="M269.37,-224.46C272.6,-204.63 281.06,-153.98 290,-112 291.87,-103.24 294.19,-93.58 296.22,-85.47"/>
<polygon fill="midnightblue" stroke="midnightblue" points="299.66,-86.15 298.74,-75.59 292.88,-84.42 299.66,-86.15"/>
</g>
<!-- Node16&#45;&gt;Node8 -->
<g id="edge30" class="edge">
<title>Node16&#45;&gt;Node8</title>
<path fill="none" stroke="midnightblue" d="M124.08,-168.3C108.08,-155.56 83.18,-131.24 97,-112 129.55,-66.67 293.91,-32.09 371.86,-17.96"/>
<polygon fill="midnightblue" stroke="midnightblue" points="372.59,-21.39 381.82,-16.18 371.36,-14.5 372.59,-21.39"/>
</g>
<!-- Node16&#45;&gt;Node11 -->
<g id="edge32" class="edge">
<title>Node16&#45;&gt;Node11</title>
<path fill="none" stroke="midnightblue" d="M185.44,-168.44C243.47,-158.4 339.18,-141.83 397.62,-131.72"/>
<polygon fill="midnightblue" stroke="midnightblue" points="398.47,-135.13 407.72,-129.97 397.27,-128.23 398.47,-135.13"/>
</g>
<!-- Node17 -->
<g id="node17" class="node">
<title>Node17</title>
<g id="a_node17"><a xlink:title=" ">
<polygon fill="white" stroke="#bfbfbf" points="106,-112.5 106,-131.5 162,-131.5 162,-112.5 106,-112.5"/>
<text text-anchor="middle" x="134" y="-119.5" font-family="Helvetica,sans-Serif" font-size="10.00">optional</text>
</a>
</g>
</g>
<!-- Node16&#45;&gt;Node17 -->
<g id="edge31" class="edge">
<title>Node16&#45;&gt;Node17</title>
<path fill="none" stroke="midnightblue" d="M135.67,-168.08C135.41,-161.01 135.03,-150.86 134.7,-141.99"/>
<polygon fill="midnightblue" stroke="midnightblue" points="138.19,-141.61 134.32,-131.75 131.2,-141.87 138.19,-141.61"/>
</g>
<!-- Node18&#45;&gt;Node6 -->
<g id="edge37" class="edge">
<title>Node18&#45;&gt;Node6</title>
<path fill="none" stroke="midnightblue" d="M651.21,-224.37C660.42,-211.72 678.39,-187.51 695,-168 721.61,-136.75 754.91,-102.32 774.19,-82.81"/>
<polygon fill="midnightblue" stroke="midnightblue" points="776.75,-85.21 781.31,-75.65 771.78,-80.28 776.75,-85.21"/>
</g>
<!-- Node19 -->
<g id="node19" class="node">
<title>Node19</title>
<g id="a_node19"><a xlink:title=" ">
<polygon fill="white" stroke="#bfbfbf" points="704,-168.5 704,-187.5 744,-187.5 744,-168.5 704,-168.5"/>
<text text-anchor="middle" x="724" y="-175.5" font-family="Helvetica,sans-Serif" font-size="10.00">span</text>
</a>
</g>
</g>
<!-- Node18&#45;&gt;Node19 -->
<g id="edge38" class="edge">
<title>Node18&#45;&gt;Node19</title>
<path fill="none" stroke="midnightblue" d="M657.69,-224.32C669.9,-215.98 688.58,-203.21 703,-193.35"/>
<polygon fill="midnightblue" stroke="midnightblue" points="705.06,-196.19 711.34,-187.65 701.11,-190.41 705.06,-196.19"/>
</g>
<!-- Node20&#45;&gt;Node4 -->
<g id="edge43" class="edge">
<title>Node20&#45;&gt;Node4</title>
<path fill="none" stroke="midnightblue" d="M771.31,-224.18C769.88,-210.85 765.59,-185.3 753,-168 736.24,-144.98 721.58,-150.58 700,-132 682.63,-117.04 665.11,-97.42 653.53,-83.67"/>
<polygon fill="midnightblue" stroke="midnightblue" points="655.91,-81.05 646.83,-75.58 650.52,-85.52 655.91,-81.05"/>
</g>
<!-- Node20&#45;&gt;Node6 -->
<g id="edge41" class="edge">
<title>Node20&#45;&gt;Node6</title>
<path fill="none" stroke="midnightblue" d="M780.89,-224.29C796.86,-207.97 829.84,-170.89 842,-132 844.65,-123.52 845.7,-120.08 842,-112 836.22,-99.36 824.95,-88.91 814.37,-81.27"/>
<polygon fill="midnightblue" stroke="midnightblue" points="816.04,-78.18 805.78,-75.53 812.15,-84 816.04,-78.18"/>
</g>
<!-- Node20&#45;&gt;Node14 -->
<g id="edge40" class="edge">
<title>Node20&#45;&gt;Node14</title>
<path fill="none" stroke="midnightblue" d="M735.87,-224.44C696.35,-215.08 632.9,-200.06 589.89,-189.87"/>
<polygon fill="midnightblue" stroke="midnightblue" points="590.5,-186.42 579.96,-187.52 588.88,-193.23 590.5,-186.42"/>
</g>
<!-- Node20&#45;&gt;Node19 -->
<g id="edge42" class="edge">
<title>Node20&#45;&gt;Node19</title>
<path fill="none" stroke="midnightblue" d="M764.07,-224.08C757.15,-216.3 746.93,-204.8 738.55,-195.37"/>
<polygon fill="midnightblue" stroke="midnightblue" points="741.04,-192.9 731.78,-187.75 735.81,-197.55 741.04,-192.9"/>
</g>
<!-- Node22 -->
<g id="node22" class="node">
<title>Node22</title>
<g id="a_node22"><a xlink:title=" ">
<polygon fill="white" stroke="#bfbfbf" points="1257.5,-168.5 1257.5,-187.5 1314.5,-187.5 1314.5,-168.5 1257.5,-168.5"/>
<text text-anchor="middle" x="1286" y="-175.5" font-family="Helvetica,sans-Serif" font-size="10.00">ostream</text>
</a>
</g>
</g>
<!-- Node21&#45;&gt;Node22 -->
<g id="edge45" class="edge">
<title>Node21&#45;&gt;Node22</title>
<path fill="none" stroke="midnightblue" d="M1236.48,-224.32C1245.2,-216.34 1258.34,-204.31 1268.9,-194.65"/>
<polygon fill="midnightblue" stroke="midnightblue" points="1271.33,-197.17 1276.35,-187.83 1266.61,-192 1271.33,-197.17"/>
</g>
<!-- Node23 -->
<g id="node23" class="node">
<title>Node23</title>
<g id="a_node23"><a xlink:title=" ">
<polygon fill="white" stroke="#bfbfbf" points="1096.5,-168.5 1096.5,-187.5 1239.5,-187.5 1239.5,-168.5 1096.5,-168.5"/>
<text text-anchor="middle" x="1168" y="-175.5" font-family="Helvetica,sans-Serif" font-size="10.00">SFML/System/Vector2.hpp</text>
</a>
</g>
</g>
<!-- Node21&#45;&gt;Node23 -->
<g id="edge46" class="edge">
<title>Node21&#45;&gt;Node23</title>
<path fill="none" stroke="midnightblue" d="M1217.52,-224.32C1208.8,-216.34 1195.66,-204.31 1185.1,-194.65"/>
<polygon fill="midnightblue" stroke="midnightblue" points="1187.39,-192 1177.65,-187.83 1182.67,-197.17 1187.39,-192"/>
</g>
<!-- Node25&#45;&gt;Node1 -->
<g id="edge57" class="edge">
<title>Node25&#45;&gt;Node1</title>
<path fill="none" stroke="midnightblue" d="M896.13,-355.75C897.66,-362.86 898.1,-373.14 897.47,-382.1"/>
<polygon fill="midnightblue" stroke="midnightblue" points="893.99,-381.71 896.17,-392.08 900.93,-382.62 893.99,-381.71"/>
</g>
<!-- Node25&#45;&gt;Node4 -->
<g id="edge50" class="edge">
<title>Node25&#45;&gt;Node4</title>
<path fill="none" stroke="midnightblue" d="M890.02,-336.11C888.3,-323.12 883.92,-298.5 874,-280 823.02,-184.95 712.59,-110.4 663.89,-80.82"/>
<polygon fill="midnightblue" stroke="midnightblue" points="665.66,-77.8 655.28,-75.67 662.06,-83.81 665.66,-77.8"/>
</g>
<!-- Node25&#45;&gt;Node9 -->
<g id="edge51" class="edge">
<title>Node25&#45;&gt;Node9</title>
<path fill="none" stroke="midnightblue" d="M899.76,-336.17C922.02,-312.74 979,-246.19 979,-179 979,-179 979,-179 979,-121 979,-68.02 808.09,-31.64 728.23,-17.53"/>
<polygon fill="midnightblue" stroke="midnightblue" points="728.5,-14.03 718.05,-15.77 727.3,-20.92 728.5,-14.03"/>
</g>
<!-- Node25&#45;&gt;Node20 -->
<g id="edge56" class="edge">
<title>Node25&#45;&gt;Node20</title>
<path fill="none" stroke="midnightblue" d="M843.15,-337.71C801.99,-330.34 747.23,-317.55 734,-300 721.99,-284.06 737.83,-264 752.57,-250.42"/>
<polygon fill="midnightblue" stroke="midnightblue" points="755.18,-252.79 760.46,-243.6 750.6,-247.49 755.18,-252.79"/>
</g>
<!-- Node25&#45;&gt;Node21 -->
<g id="edge52" class="edge">
<title>Node25&#45;&gt;Node21</title>
<path fill="none" stroke="midnightblue" d="M938.81,-336.86C993.17,-327.3 1078.36,-311.31 1109,-300 1127.93,-293.02 1174.92,-265.93 1203.57,-249.01"/>
<polygon fill="midnightblue" stroke="midnightblue" points="1205.7,-251.81 1212.51,-243.7 1202.13,-245.79 1205.7,-251.81"/>
</g>
<!-- Node26 -->
<g id="node26" class="node">
<title>Node26</title>
<g id="a_node26"><a xlink:title=" ">
<polygon fill="white" stroke="#bfbfbf" points="871,-224.5 871,-243.5 913,-243.5 913,-224.5 871,-224.5"/>
<text text-anchor="middle" x="892" y="-231.5" font-family="Helvetica,sans-Serif" font-size="10.00">array</text>
</a>
</g>
</g>
<!-- Node25&#45;&gt;Node26 -->
<g id="edge49" class="edge">
<title>Node25&#45;&gt;Node26</title>
<path fill="none" stroke="midnightblue" d="M895.11,-336.28C899.06,-327.38 904.74,-313.07 907,-300 909.74,-284.13 905.07,-266.32 900.24,-253.36"/>
<polygon fill="midnightblue" stroke="midnightblue" points="903.34,-251.69 896.3,-243.77 896.86,-254.35 903.34,-251.69"/>
</g>
<!-- Node27 -->
<g id="node27" class="node">
<title>Node27</title>
<g id="a_node27"><a xlink:href="TileRenderer_8hpp.html" target="_top" xlink:title=" ">
<polygon fill="white" stroke="black" points="743,-280.5 743,-299.5 865,-299.5 865,-280.5 743,-280.5"/>
<text text-anchor="middle" x="804" y="-287.5" font-family="Helvetica,sans-Serif" font-size="10.00">PPU/TileRenderer.hpp</text>
</a>
</g>
</g>
<!-- Node25&#45;&gt;Node27 -->
<g id="edge53" class="edge">
<title>Node25&#45;&gt;Node27</title>
<path fill="none" stroke="midnightblue" d="M877.02,-336.32C863.45,-327.9 842.62,-314.97 826.68,-305.07"/>
<polygon fill="midnightblue" stroke="midnightblue" points="828.29,-301.95 817.94,-299.65 824.59,-307.9 828.29,-301.95"/>
</g>
<!-- Node25&#45;&gt;Node28 -->
<g id="edge58" class="edge">
<title>Node25&#45;&gt;Node28</title>
<path fill="none" stroke="midnightblue" d="M916.04,-336.44C942.62,-327.36 984.81,-312.94 1014.52,-302.78"/>
<polygon fill="midnightblue" stroke="midnightblue" points="1015.75,-306.06 1024.08,-299.52 1013.49,-299.44 1015.75,-306.06"/>
</g>
<!-- Node27&#45;&gt;Node20 -->
<g id="edge55" class="edge">
<title>Node27&#45;&gt;Node20</title>
<path fill="none" stroke="midnightblue" d="M798.72,-280.08C794.29,-272.61 787.84,-261.72 782.38,-252.52"/>
<polygon fill="midnightblue" stroke="midnightblue" points="785.29,-250.57 777.19,-243.75 779.27,-254.14 785.29,-250.57"/>
</g>
<!-- Node27&#45;&gt;Node26 -->
<g id="edge54" class="edge">
<title>Node27&#45;&gt;Node26</title>
<path fill="none" stroke="midnightblue" d="M818.14,-280.32C831.87,-271.9 852.94,-258.97 869.06,-249.07"/>
<polygon fill="midnightblue" stroke="midnightblue" points="871.2,-251.87 877.9,-243.65 867.54,-245.9 871.2,-251.87"/>
</g>
<!-- Node28&#45;&gt;Node5 -->
<g id="edge61" class="edge">
<title>Node28&#45;&gt;Node5</title>
<path fill="none" stroke="midnightblue" d="M1034.11,-280.43C1010.74,-267.2 963.81,-241.51 922,-224 678.42,-122.02 601.43,-135.45 339.82,-76.15"/>
<polygon fill="midnightblue" stroke="midnightblue" points="340.56,-72.73 330.04,-73.92 339.01,-79.56 340.56,-72.73"/>
</g>
<!-- Node28&#45;&gt;Node21 -->
<g id="edge63" class="edge">
<title>Node28&#45;&gt;Node21</title>
<path fill="none" stroke="midnightblue" d="M1077.2,-280.44C1107.41,-271.28 1155.51,-256.69 1189.03,-246.52"/>
<polygon fill="midnightblue" stroke="midnightblue" points="1190.37,-249.77 1198.93,-243.52 1188.34,-243.07 1190.37,-249.77"/>
</g>
<!-- Node28&#45;&gt;Node26 -->
<g id="edge62" class="edge">
<title>Node28&#45;&gt;Node26</title>
<path fill="none" stroke="midnightblue" d="M1024.12,-280.44C996.74,-271.03 952.69,-255.87 923.06,-245.68"/>
<polygon fill="midnightblue" stroke="midnightblue" points="923.83,-242.25 913.24,-242.3 921.55,-248.87 923.83,-242.25"/>
</g>
<!-- Node29 -->
<g id="node29" class="node">
<title>Node29</title>
<g id="a_node29"><a xlink:title=" ">
<polygon fill="white" stroke="#bfbfbf" points="1007,-224.5 1007,-243.5 1081,-243.5 1081,-224.5 1007,-224.5"/>
<text text-anchor="middle" x="1044" y="-231.5" font-family="Helvetica,sans-Serif" font-size="10.00">stdint&#45;gcc.h</text>
</a>
</g>
</g>
<!-- Node28&#45;&gt;Node29 -->
<g id="edge59" class="edge">
<title>Node28&#45;&gt;Node29</title>
<path fill="none" stroke="midnightblue" d="M1048.17,-280.08C1047.52,-273.01 1046.58,-262.86 1045.76,-253.99"/>
<polygon fill="midnightblue" stroke="midnightblue" points="1049.22,-253.39 1044.81,-243.75 1042.25,-254.03 1049.22,-253.39"/>
</g>
<!-- Node30 -->
<g id="node30" class="node">
<title>Node30</title>
<g id="a_node30"><a xlink:title=" ">
<polygon fill="white" stroke="#bfbfbf" points="1099.5,-224.5 1099.5,-243.5 1152.5,-243.5 1152.5,-224.5 1099.5,-224.5"/>
<text text-anchor="middle" x="1126" y="-231.5" font-family="Helvetica,sans-Serif" font-size="10.00">cstddef</text>
</a>
</g>
</g>
<!-- Node28&#45;&gt;Node30 -->
<g id="edge60" class="edge">
<title>Node28&#45;&gt;Node30</title>
<path fill="none" stroke="midnightblue" d="M1061.37,-280.32C1073.16,-272.06 1091.13,-259.45 1105.14,-249.63"/>
<polygon fill="midnightblue" stroke="midnightblue" points="1107.48,-252.26 1113.66,-243.65 1103.46,-246.53 1107.48,-252.26"/>
</g>
</g>
</svg>
