<?xml version="1.0" encoding="UTF-8" standalone="no"?>
<!DOCTYPE svg PUBLIC "-//W3C//DTD SVG 1.1//EN"
 "http://www.w3.org/Graphics/SVG/1.1/DTD/svg11.dtd">
<!-- Generated by graphviz version 2.43.0 (0)
 -->
<!-- Title: sources/PPU/PPU.cpp Pages: 1 -->
<svg width="1590pt" height="476pt"
 viewBox="0.00 0.00 1590.00 476.00" xmlns="http://www.w3.org/2000/svg" xmlns:xlink="http://www.w3.org/1999/xlink">
<g id="graph0" class="graph" transform="scale(1 1) rotate(0) translate(4 472)">
<title>sources/PPU/PPU.cpp</title>
<polygon fill="white" stroke="transparent" points="-4,4 -4,-472 1586,-472 1586,4 -4,4"/>
<!-- Node1 -->
<g id="node1" class="node">
<title>Node1</title>
<g id="a_node1"><a xlink:title=" ">
<polygon fill="#bfbfbf" stroke="black" points="654.5,-448.5 654.5,-467.5 773.5,-467.5 773.5,-448.5 654.5,-448.5"/>
<text text-anchor="middle" x="714" y="-455.5" font-family="Helvetica,sans-Serif" font-size="10.00">sources/PPU/PPU.cpp</text>
</a>
</g>
</g>
<!-- Node2 -->
<g id="node2" class="node">
<title>Node2</title>
<g id="a_node2"><a xlink:title=" ">
<polygon fill="white" stroke="#bfbfbf" points="362,-0.5 362,-19.5 422,-19.5 422,-0.5 362,-0.5"/>
<text text-anchor="middle" x="392" y="-7.5" font-family="Helvetica,sans-Serif" font-size="10.00">iostream</text>
</a>
</g>
</g>
<!-- Node1&#45;&gt;Node2 -->
<g id="edge1" class="edge">
<title>Node1&#45;&gt;Node2</title>
<path fill="none" stroke="midnightblue" d="M654.15,-451.17C551.78,-439.52 354,-409 354,-347 354,-347 354,-347 354,-121 354,-86.81 370.6,-49.76 381.86,-28.57"/>
<polygon fill="midnightblue" stroke="midnightblue" points="384.95,-30.22 386.72,-19.77 378.82,-26.83 384.95,-30.22"/>
</g>
<!-- Node3 -->
<g id="node3" class="node">
<title>Node3</title>
<g id="a_node3"><a xlink:title=" ">
<polygon fill="white" stroke="#bfbfbf" points="894,-392.5 894,-411.5 938,-411.5 938,-392.5 894,-392.5"/>
<text text-anchor="middle" x="916" y="-399.5" font-family="Helvetica,sans-Serif" font-size="10.00">bitset</text>
</a>
</g>
</g>
<!-- Node1&#45;&gt;Node3 -->
<g id="edge2" class="edge">
<title>Node1&#45;&gt;Node3</title>
<path fill="none" stroke="midnightblue" d="M746.95,-448.44C781.23,-439.49 836.43,-424.98 884,-412 884.1,-411.97 884.2,-411.94 884.3,-411.92"/>
<polygon fill="midnightblue" stroke="midnightblue" points="885.27,-415.28 893.98,-409.24 883.41,-408.53 885.27,-415.28"/>
</g>
<!-- Node4 -->
<g id="node4" class="node">
<title>Node4</title>
<g id="a_node4"><a xlink:href="PPU_8hpp.html" target="_top" xlink:title=" ">
<polygon fill="white" stroke="black" points="818.5,-392.5 818.5,-411.5 875.5,-411.5 875.5,-392.5 818.5,-392.5"/>
<text text-anchor="middle" x="847" y="-399.5" font-family="Helvetica,sans-Serif" font-size="10.00">PPU.hpp</text>
</a>
</g>
</g>
<!-- Node1&#45;&gt;Node4 -->
<g id="edge3" class="edge">
<title>Node1&#45;&gt;Node4</title>
<path fill="none" stroke="midnightblue" d="M735.07,-448.44C757.06,-439.52 791.73,-425.44 816.66,-415.32"/>
<polygon fill="midnightblue" stroke="midnightblue" points="818.08,-418.52 826.02,-411.52 815.44,-412.04 818.08,-418.52"/>
</g>
<!-- Node23 -->
<g id="node23" class="node">
<title>Node23</title>
<g id="a_node23"><a xlink:href="Vector2_8hpp.html" target="_top" xlink:title=" ">
<polygon fill="white" stroke="black" points="772.5,-224.5 772.5,-243.5 885.5,-243.5 885.5,-224.5 772.5,-224.5"/>
<text text-anchor="middle" x="829" y="-231.5" font-family="Helvetica,sans-Serif" font-size="10.00">Models/Vector2.hpp</text>
</a>
</g>
</g>
<!-- Node1&#45;&gt;Node23 -->
<g id="edge78" class="edge">
<title>Node1&#45;&gt;Node23</title>
<path fill="none" stroke="midnightblue" d="M718.51,-448.3C735.57,-415.36 796.42,-297.9 819.78,-252.81"/>
<polygon fill="midnightblue" stroke="midnightblue" points="822.91,-254.37 824.4,-243.88 816.69,-251.15 822.91,-254.37"/>
</g>
<!-- Node27 -->
<g id="node27" class="node">
<title>Node27</title>
<g id="a_node27"><a xlink:href="Background_8hpp.html" target="_top" xlink:title=" ">
<polygon fill="white" stroke="black" points="609.5,-336.5 609.5,-355.5 704.5,-355.5 704.5,-336.5 609.5,-336.5"/>
<text text-anchor="middle" x="657" y="-343.5" font-family="Helvetica,sans-Serif" font-size="10.00">Background.hpp</text>
</a>
</g>
</g>
<!-- Node1&#45;&gt;Node27 -->
<g id="edge77" class="edge">
<title>Node1&#45;&gt;Node27</title>
<path fill="none" stroke="midnightblue" d="M709.53,-448.37C700.2,-430.38 678.53,-388.55 666.13,-364.63"/>
<polygon fill="midnightblue" stroke="midnightblue" points="669.16,-362.86 661.45,-355.59 662.95,-366.08 669.16,-362.86"/>
</g>
<!-- Node34 -->
<g id="node34" class="node">
<title>Node34</title>
<g id="a_node34"><a xlink:href="InvalidAddress_8hpp.html" target="_top" xlink:title=" ">
<polygon fill="white" stroke="black" points="160,-112.5 160,-131.5 326,-131.5 326,-112.5 160,-112.5"/>
<text text-anchor="middle" x="243" y="-119.5" font-family="Helvetica,sans-Serif" font-size="10.00">Exceptions/InvalidAddress.hpp</text>
</a>
</g>
</g>
<!-- Node1&#45;&gt;Node34 -->
<g id="edge69" class="edge">
<title>Node1&#45;&gt;Node34</title>
<path fill="none" stroke="midnightblue" d="M654.23,-454.81C562.88,-450.62 393.5,-439.35 340,-412 304.99,-394.11 280,-386.32 280,-347 280,-347 280,-347 280,-233 280,-198.89 263.82,-161.79 252.86,-140.57"/>
<polygon fill="midnightblue" stroke="midnightblue" points="255.81,-138.66 247.99,-131.51 249.64,-141.98 255.81,-138.66"/>
</g>
<!-- Node5 -->
<g id="node5" class="node">
<title>Node5</title>
<g id="a_node5"><a xlink:title=" ">
<polygon fill="white" stroke="#bfbfbf" points="1224,-56.5 1224,-75.5 1274,-75.5 1274,-56.5 1224,-56.5"/>
<text text-anchor="middle" x="1249" y="-63.5" font-family="Helvetica,sans-Serif" font-size="10.00">cstdint</text>
</a>
</g>
</g>
<!-- Node4&#45;&gt;Node5 -->
<g id="edge4" class="edge">
<title>Node4&#45;&gt;Node5</title>
<path fill="none" stroke="midnightblue" d="M875.57,-393.89C878.74,-393.2 881.93,-392.56 885,-392 947.38,-380.68 1120.01,-397.42 1168,-356 1250.33,-284.94 1252.26,-137.65 1250.16,-85.66"/>
<polygon fill="midnightblue" stroke="midnightblue" points="1253.65,-85.39 1249.65,-75.58 1246.66,-85.74 1253.65,-85.39"/>
</g>
<!-- Node6 -->
<g id="node6" class="node">
<title>Node6</title>
<g id="a_node6"><a xlink:href="AMemory_8hpp.html" target="_top" xlink:title=" ">
<polygon fill="white" stroke="black" points="1073.5,-168.5 1073.5,-187.5 1200.5,-187.5 1200.5,-168.5 1073.5,-168.5"/>
<text text-anchor="middle" x="1137" y="-175.5" font-family="Helvetica,sans-Serif" font-size="10.00">Memory/AMemory.hpp</text>
</a>
</g>
</g>
<!-- Node4&#45;&gt;Node6 -->
<g id="edge5" class="edge">
<title>Node4&#45;&gt;Node6</title>
<path fill="none" stroke="midnightblue" d="M875.61,-393.72C910.69,-384.45 967.75,-368.19 986,-356 1051.71,-312.12 1105.16,-231.96 1126.72,-196.58"/>
<polygon fill="midnightblue" stroke="midnightblue" points="1129.81,-198.23 1131.95,-187.85 1123.81,-194.64 1129.81,-198.23"/>
</g>
<!-- Node14 -->
<g id="node14" class="node">
<title>Node14</title>
<g id="a_node14"><a xlink:href="MemoryBus_8hpp.html" target="_top" xlink:title=" ">
<polygon fill="white" stroke="black" points="1276,-336.5 1276,-355.5 1416,-355.5 1416,-336.5 1276,-336.5"/>
<text text-anchor="middle" x="1346" y="-343.5" font-family="Helvetica,sans-Serif" font-size="10.00">Memory/MemoryBus.hpp</text>
</a>
</g>
</g>
<!-- Node4&#45;&gt;Node14 -->
<g id="edge21" class="edge">
<title>Node4&#45;&gt;Node14</title>
<path fill="none" stroke="midnightblue" d="M875.55,-393.8C878.73,-393.13 881.92,-392.51 885,-392 1017.46,-369.95 1173.27,-357.52 1265.6,-351.54"/>
<polygon fill="midnightblue" stroke="midnightblue" points="1265.96,-355.03 1275.71,-350.9 1265.51,-348.04 1265.96,-355.03"/>
</g>
<!-- Node20 -->
<g id="node20" class="node">
<title>Node20</title>
<g id="a_node20"><a xlink:href="IRenderer_8hpp.html" target="_top" xlink:title=" ">
<polygon fill="white" stroke="black" points="518.5,-224.5 518.5,-243.5 649.5,-243.5 649.5,-224.5 518.5,-224.5"/>
<text text-anchor="middle" x="584" y="-231.5" font-family="Helvetica,sans-Serif" font-size="10.00">Renderer/IRenderer.hpp</text>
</a>
</g>
</g>
<!-- Node4&#45;&gt;Node20 -->
<g id="edge39" class="edge">
<title>Node4&#45;&gt;Node20</title>
<path fill="none" stroke="midnightblue" d="M833.23,-392.31C790.36,-365.25 658.98,-282.32 606.24,-249.04"/>
<polygon fill="midnightblue" stroke="midnightblue" points="607.96,-245.98 597.63,-243.61 604.22,-251.9 607.96,-245.98"/>
</g>
<!-- Node22 -->
<g id="node22" class="node">
<title>Node22</title>
<g id="a_node22"><a xlink:href="Ram_8hpp.html" target="_top" xlink:title=" ">
<polygon fill="white" stroke="black" points="668,-224.5 668,-243.5 754,-243.5 754,-224.5 668,-224.5"/>
<text text-anchor="middle" x="711" y="-231.5" font-family="Helvetica,sans-Serif" font-size="10.00">Ram/Ram.hpp</text>
</a>
</g>
</g>
<!-- Node4&#45;&gt;Node22 -->
<g id="edge42" class="edge">
<title>Node4&#45;&gt;Node22</title>
<path fill="none" stroke="midnightblue" d="M839.69,-392.08C817.82,-365.38 752.67,-285.87 724.37,-251.32"/>
<polygon fill="midnightblue" stroke="midnightblue" points="727.06,-249.09 718.02,-243.57 721.65,-253.52 727.06,-249.09"/>
</g>
<!-- Node4&#45;&gt;Node23 -->
<g id="edge47" class="edge">
<title>Node4&#45;&gt;Node23</title>
<path fill="none" stroke="midnightblue" d="M846.03,-392.08C843.2,-365.95 834.88,-289.21 831.01,-253.58"/>
<polygon fill="midnightblue" stroke="midnightblue" points="834.49,-253.13 829.93,-243.57 827.53,-253.89 834.49,-253.13"/>
</g>
<!-- Node26 -->
<g id="node26" class="node">
<title>Node26</title>
<g id="a_node26"><a xlink:title=" ">
<polygon fill="white" stroke="#bfbfbf" points="913,-336.5 913,-355.5 977,-355.5 977,-336.5 913,-336.5"/>
<text text-anchor="middle" x="945" y="-343.5" font-family="Helvetica,sans-Serif" font-size="10.00">algorithm</text>
</a>
</g>
</g>
<!-- Node4&#45;&gt;Node26 -->
<g id="edge50" class="edge">
<title>Node4&#45;&gt;Node26</title>
<path fill="none" stroke="midnightblue" d="M862.75,-392.32C878.32,-383.74 902.38,-370.49 920.46,-360.52"/>
<polygon fill="midnightblue" stroke="midnightblue" points="922.22,-363.55 929.29,-355.65 918.85,-357.42 922.22,-363.55"/>
</g>
<!-- Node4&#45;&gt;Node27 -->
<g id="edge51" class="edge">
<title>Node4&#45;&gt;Node27</title>
<path fill="none" stroke="midnightblue" d="M818.26,-394.16C784.29,-385.19 728.08,-369.3 691.73,-358.47"/>
<polygon fill="midnightblue" stroke="midnightblue" points="692.62,-355.09 682.03,-355.56 690.6,-361.79 692.62,-355.09"/>
</g>
<!-- Node30 -->
<g id="node30" class="node">
<title>Node30</title>
<g id="a_node30"><a xlink:href="PPUUtils_8hpp.html" target="_top" xlink:title=" ">
<polygon fill="white" stroke="black" points="875,-280.5 875,-299.5 977,-299.5 977,-280.5 875,-280.5"/>
<text text-anchor="middle" x="926" y="-287.5" font-family="Helvetica,sans-Serif" font-size="10.00">PPU/PPUUtils.hpp</text>
</a>
</g>
</g>
<!-- Node4&#45;&gt;Node30 -->
<g id="edge67" class="edge">
<title>Node4&#45;&gt;Node30</title>
<path fill="none" stroke="midnightblue" d="M853.2,-392.37C866.24,-374.22 896.7,-331.8 913.8,-307.99"/>
<polygon fill="midnightblue" stroke="midnightblue" points="916.84,-309.76 919.83,-299.59 911.15,-305.67 916.84,-309.76"/>
</g>
<!-- Node33 -->
<g id="node33" class="node">
<title>Node33</title>
<g id="a_node33"><a xlink:href="PPURegisters_8hpp.html" target="_top" xlink:title=" ">
<polygon fill="white" stroke="black" points="1033.5,-336.5 1033.5,-355.5 1158.5,-355.5 1158.5,-336.5 1033.5,-336.5"/>
<text text-anchor="middle" x="1096" y="-343.5" font-family="Helvetica,sans-Serif" font-size="10.00">PPU/PPURegisters.hpp</text>
</a>
</g>
</g>
<!-- Node4&#45;&gt;Node33 -->
<g id="edge68" class="edge">
<title>Node4&#45;&gt;Node33</title>
<path fill="none" stroke="midnightblue" d="M875.62,-394.15C878.78,-393.41 881.96,-392.68 885,-392 939.47,-379.74 1002.04,-366.5 1044.81,-357.58"/>
<polygon fill="midnightblue" stroke="midnightblue" points="1045.62,-360.99 1054.7,-355.52 1044.2,-354.13 1045.62,-360.99"/>
</g>
<!-- Node6&#45;&gt;Node5 -->
<g id="edge6" class="edge">
<title>Node6&#45;&gt;Node5</title>
<path fill="none" stroke="midnightblue" d="M1145.79,-168.37C1164.6,-149.89 1208.99,-106.29 1232.97,-82.74"/>
<polygon fill="midnightblue" stroke="midnightblue" points="1235.57,-85.1 1240.25,-75.59 1230.67,-80.1 1235.57,-85.1"/>
</g>
<!-- Node7 -->
<g id="node7" class="node">
<title>Node7</title>
<g id="a_node7"><a xlink:title=" ">
<polygon fill="white" stroke="#bfbfbf" points="833.5,-56.5 833.5,-75.5 880.5,-75.5 880.5,-56.5 833.5,-56.5"/>
<text text-anchor="middle" x="857" y="-63.5" font-family="Helvetica,sans-Serif" font-size="10.00">vector</text>
</a>
</g>
</g>
<!-- Node6&#45;&gt;Node7 -->
<g id="edge7" class="edge">
<title>Node6&#45;&gt;Node7</title>
<path fill="none" stroke="midnightblue" d="M1109.49,-168.49C1082.41,-159.93 1040,-146.02 1004,-132 961.48,-115.45 913.31,-93.52 884.05,-79.84"/>
<polygon fill="midnightblue" stroke="midnightblue" points="885.42,-76.62 874.88,-75.53 882.45,-82.95 885.42,-76.62"/>
</g>
<!-- Node8 -->
<g id="node8" class="node">
<title>Node8</title>
<g id="a_node8"><a xlink:title=" ">
<polygon fill="white" stroke="#bfbfbf" points="1318,-56.5 1318,-75.5 1376,-75.5 1376,-56.5 1318,-56.5"/>
<text text-anchor="middle" x="1347" y="-63.5" font-family="Helvetica,sans-Serif" font-size="10.00">memory</text>
</a>
</g>
</g>
<!-- Node6&#45;&gt;Node8 -->
<g id="edge8" class="edge">
<title>Node6&#45;&gt;Node8</title>
<path fill="none" stroke="midnightblue" d="M1153.48,-168.37C1189.97,-149.25 1277.84,-103.23 1321.49,-80.36"/>
<polygon fill="midnightblue" stroke="midnightblue" points="1323.36,-83.33 1330.6,-75.59 1320.12,-77.13 1323.36,-83.33"/>
</g>
<!-- Node9 -->
<g id="node9" class="node">
<title>Node9</title>
<g id="a_node9"><a xlink:title=" ">
<polygon fill="white" stroke="#bfbfbf" points="560,-56.5 560,-75.5 604,-75.5 604,-56.5 560,-56.5"/>
<text text-anchor="middle" x="582" y="-63.5" font-family="Helvetica,sans-Serif" font-size="10.00">string</text>
</a>
</g>
</g>
<!-- Node6&#45;&gt;Node9 -->
<g id="edge9" class="edge">
<title>Node6&#45;&gt;Node9</title>
<path fill="none" stroke="midnightblue" d="M1093.91,-168.46C986.51,-147.17 708.77,-92.13 614.14,-73.37"/>
<polygon fill="midnightblue" stroke="midnightblue" points="614.77,-69.93 604.28,-71.42 613.41,-76.79 614.77,-69.93"/>
</g>
<!-- Node10 -->
<g id="node10" class="node">
<title>Node10</title>
<g id="a_node10"><a xlink:href="Ints_8hpp.html" target="_top" xlink:title=" ">
<polygon fill="white" stroke="black" points="930,-56.5 930,-75.5 1024,-75.5 1024,-56.5 930,-56.5"/>
<text text-anchor="middle" x="977" y="-63.5" font-family="Helvetica,sans-Serif" font-size="10.00">Models/Ints.hpp</text>
</a>
</g>
</g>
<!-- Node6&#45;&gt;Node10 -->
<g id="edge10" class="edge">
<title>Node6&#45;&gt;Node10</title>
<path fill="none" stroke="midnightblue" d="M1104.7,-168.47C1081.74,-161.32 1051.01,-149.44 1028,-132 1010.91,-119.05 996.39,-99.06 987.26,-84.66"/>
<polygon fill="midnightblue" stroke="midnightblue" points="990.03,-82.48 981.84,-75.75 984.05,-86.11 990.03,-82.48"/>
</g>
<!-- Node12 -->
<g id="node12" class="node">
<title>Node12</title>
<g id="a_node12"><a xlink:href="Components_8hpp.html" target="_top" xlink:title=" ">
<polygon fill="white" stroke="black" points="1059.5,-56.5 1059.5,-75.5 1196.5,-75.5 1196.5,-56.5 1059.5,-56.5"/>
<text text-anchor="middle" x="1128" y="-63.5" font-family="Helvetica,sans-Serif" font-size="10.00">Models/Components.hpp</text>
</a>
</g>
</g>
<!-- Node6&#45;&gt;Node12 -->
<g id="edge13" class="edge">
<title>Node6&#45;&gt;Node12</title>
<path fill="none" stroke="midnightblue" d="M1136.29,-168.37C1134.84,-150.62 1131.49,-109.67 1129.52,-85.6"/>
<polygon fill="midnightblue" stroke="midnightblue" points="1133.01,-85.27 1128.7,-75.59 1126.03,-85.84 1133.01,-85.27"/>
</g>
<!-- Node13 -->
<g id="node13" class="node">
<title>Node13</title>
<g id="a_node13"><a xlink:href="IMemory_8hpp.html" target="_top" xlink:title=" ">
<polygon fill="white" stroke="black" points="1037,-112.5 1037,-131.5 1117,-131.5 1117,-112.5 1037,-112.5"/>
<text text-anchor="middle" x="1077" y="-119.5" font-family="Helvetica,sans-Serif" font-size="10.00">IMemory.hpp</text>
</a>
</g>
</g>
<!-- Node6&#45;&gt;Node13 -->
<g id="edge14" class="edge">
<title>Node6&#45;&gt;Node13</title>
<path fill="none" stroke="midnightblue" d="M1127.36,-168.32C1118.49,-160.34 1105.13,-148.31 1094.39,-138.65"/>
<polygon fill="midnightblue" stroke="midnightblue" points="1096.59,-135.92 1086.82,-131.83 1091.91,-141.13 1096.59,-135.92"/>
</g>
<!-- Node10&#45;&gt;Node2 -->
<g id="edge12" class="edge">
<title>Node10&#45;&gt;Node2</title>
<path fill="none" stroke="midnightblue" d="M929.97,-60.09C916.72,-58.73 902.3,-57.28 889,-56 719.46,-39.66 517.22,-21.88 432.48,-14.5"/>
<polygon fill="midnightblue" stroke="midnightblue" points="432.53,-11 422.27,-13.62 431.93,-17.97 432.53,-11"/>
</g>
<!-- Node11 -->
<g id="node11" class="node">
<title>Node11</title>
<g id="a_node11"><a xlink:title=" ">
<polygon fill="white" stroke="#bfbfbf" points="1260,-0.5 1260,-19.5 1322,-19.5 1322,-0.5 1260,-0.5"/>
<text text-anchor="middle" x="1291" y="-7.5" font-family="Helvetica,sans-Serif" font-size="10.00">cinttypes</text>
</a>
</g>
</g>
<!-- Node10&#45;&gt;Node11 -->
<g id="edge11" class="edge">
<title>Node10&#45;&gt;Node11</title>
<path fill="none" stroke="midnightblue" d="M1024.01,-56.92C1085.34,-46.37 1191.67,-28.08 1249.92,-18.06"/>
<polygon fill="midnightblue" stroke="midnightblue" points="1250.61,-21.5 1259.88,-16.35 1249.43,-14.6 1250.61,-21.5"/>
</g>
<!-- Node13&#45;&gt;Node5 -->
<g id="edge15" class="edge">
<title>Node13&#45;&gt;Node5</title>
<path fill="none" stroke="midnightblue" d="M1104.25,-112.44C1133.91,-103.13 1181.43,-88.21 1213.87,-78.03"/>
<polygon fill="midnightblue" stroke="midnightblue" points="1215.34,-81.24 1223.83,-74.9 1213.24,-74.56 1215.34,-81.24"/>
</g>
<!-- Node13&#45;&gt;Node7 -->
<g id="edge16" class="edge">
<title>Node13&#45;&gt;Node7</title>
<path fill="none" stroke="midnightblue" d="M1042.14,-112.44C1000.48,-102.22 931.27,-85.23 890.31,-75.18"/>
<polygon fill="midnightblue" stroke="midnightblue" points="891.08,-71.76 880.53,-72.78 889.41,-78.56 891.08,-71.76"/>
</g>
<!-- Node13&#45;&gt;Node8 -->
<g id="edge17" class="edge">
<title>Node13&#45;&gt;Node8</title>
<path fill="none" stroke="midnightblue" d="M1117.13,-112.97C1168.53,-102.69 1257.03,-84.99 1307.92,-74.82"/>
<polygon fill="midnightblue" stroke="midnightblue" points="1308.76,-78.22 1317.88,-72.82 1307.39,-71.35 1308.76,-78.22"/>
</g>
<!-- Node13&#45;&gt;Node9 -->
<g id="edge18" class="edge">
<title>Node13&#45;&gt;Node9</title>
<path fill="none" stroke="midnightblue" d="M1036.91,-116.63C941.24,-106.19 701.08,-79.99 614.09,-70.5"/>
<polygon fill="midnightblue" stroke="midnightblue" points="614.35,-67.01 604.03,-69.4 613.59,-73.97 614.35,-67.01"/>
</g>
<!-- Node13&#45;&gt;Node10 -->
<g id="edge19" class="edge">
<title>Node13&#45;&gt;Node10</title>
<path fill="none" stroke="midnightblue" d="M1060.93,-112.32C1045.04,-103.74 1020.49,-90.49 1002.04,-80.52"/>
<polygon fill="midnightblue" stroke="midnightblue" points="1003.49,-77.33 993.03,-75.65 1000.16,-83.49 1003.49,-77.33"/>
</g>
<!-- Node13&#45;&gt;Node12 -->
<g id="edge20" class="edge">
<title>Node13&#45;&gt;Node12</title>
<path fill="none" stroke="midnightblue" d="M1085.42,-112.08C1092.85,-104.22 1103.85,-92.57 1112.81,-83.08"/>
<polygon fill="midnightblue" stroke="midnightblue" points="1115.41,-85.42 1119.74,-75.75 1110.32,-80.62 1115.41,-85.42"/>
</g>
<!-- Node14&#45;&gt;Node5 -->
<g id="edge36" class="edge">
<title>Node14&#45;&gt;Node5</title>
<path fill="none" stroke="midnightblue" d="M1340.06,-336.41C1334.22,-327.62 1325.41,-313.38 1320,-300 1287.7,-220.16 1303.94,-192.38 1273,-112 1269.38,-102.6 1264.24,-92.67 1259.64,-84.54"/>
<polygon fill="midnightblue" stroke="midnightblue" points="1262.52,-82.52 1254.45,-75.66 1256.48,-86.06 1262.52,-82.52"/>
</g>
<!-- Node14&#45;&gt;Node6 -->
<g id="edge22" class="edge">
<title>Node14&#45;&gt;Node6</title>
<path fill="none" stroke="midnightblue" d="M1334.62,-336.46C1322.69,-327.48 1303.42,-312.88 1287,-300 1239.05,-262.38 1183.39,-217.04 1155.27,-194.01"/>
<polygon fill="midnightblue" stroke="midnightblue" points="1157.42,-191.24 1147.47,-187.61 1152.98,-196.65 1157.42,-191.24"/>
</g>
<!-- Node14&#45;&gt;Node7 -->
<g id="edge38" class="edge">
<title>Node14&#45;&gt;Node7</title>
<path fill="none" stroke="midnightblue" d="M1328.17,-336.38C1283.53,-315.03 1162.97,-258.95 1058,-224 995.41,-203.16 964.97,-229.88 914,-188 881.66,-161.43 866.6,-112.29 860.52,-85.53"/>
<polygon fill="midnightblue" stroke="midnightblue" points="863.91,-84.64 858.44,-75.57 857.06,-86.07 863.91,-84.64"/>
</g>
<!-- Node14&#45;&gt;Node8 -->
<g id="edge37" class="edge">
<title>Node14&#45;&gt;Node8</title>
<path fill="none" stroke="midnightblue" d="M1416.17,-341.24C1485.74,-333.28 1582,-308.91 1582,-235 1582,-235 1582,-235 1582,-177 1582,-91.69 1453.41,-72.4 1386.47,-68.14"/>
<polygon fill="midnightblue" stroke="midnightblue" points="1386.47,-64.63 1376.29,-67.58 1386.08,-71.62 1386.47,-64.63"/>
</g>
<!-- Node15 -->
<g id="node15" class="node">
<title>Node15</title>
<g id="a_node15"><a xlink:href="RectangleShadow_8hpp.html" target="_top" xlink:title=" ">
<polygon fill="white" stroke="black" points="1329,-280.5 1329,-299.5 1453,-299.5 1453,-280.5 1329,-280.5"/>
<text text-anchor="middle" x="1391" y="-287.5" font-family="Helvetica,sans-Serif" font-size="10.00">RectangleShadow.hpp</text>
</a>
</g>
</g>
<!-- Node14&#45;&gt;Node15 -->
<g id="edge23" class="edge">
<title>Node14&#45;&gt;Node15</title>
<path fill="none" stroke="midnightblue" d="M1353.43,-336.08C1359.85,-328.38 1369.31,-317.03 1377.12,-307.65"/>
<polygon fill="midnightblue" stroke="midnightblue" points="1379.99,-309.67 1383.71,-299.75 1374.62,-305.19 1379.99,-309.67"/>
</g>
<!-- Node17 -->
<g id="node17" class="node">
<title>Node17</title>
<g id="a_node17"><a xlink:href="MemoryShadow_8hpp.html" target="_top" xlink:title=" ">
<polygon fill="white" stroke="black" points="1333,-224.5 1333,-243.5 1449,-243.5 1449,-224.5 1333,-224.5"/>
<text text-anchor="middle" x="1391" y="-231.5" font-family="Helvetica,sans-Serif" font-size="10.00">MemoryShadow.hpp</text>
</a>
</g>
</g>
<!-- Node14&#45;&gt;Node17 -->
<g id="edge31" class="edge">
<title>Node14&#45;&gt;Node17</title>
<path fill="none" stroke="midnightblue" d="M1404.57,-336.48C1426.33,-330.16 1448.88,-319.16 1462,-300 1476.48,-278.85 1448.11,-259.7 1423.05,-247.76"/>
<polygon fill="midnightblue" stroke="midnightblue" points="1424.26,-244.46 1413.7,-243.54 1421.38,-250.85 1424.26,-244.46"/>
</g>
<!-- Node18 -->
<g id="node18" class="node">
<title>Node18</title>
<g id="a_node18"><a xlink:href="IMemoryBus_8hpp.html" target="_top" xlink:title=" ">
<polygon fill="white" stroke="black" points="1454.5,-168.5 1454.5,-187.5 1553.5,-187.5 1553.5,-168.5 1454.5,-168.5"/>
<text text-anchor="middle" x="1504" y="-175.5" font-family="Helvetica,sans-Serif" font-size="10.00">IMemoryBus.hpp</text>
</a>
</g>
</g>
<!-- Node14&#45;&gt;Node18 -->
<g id="edge32" class="edge">
<title>Node14&#45;&gt;Node18</title>
<path fill="none" stroke="midnightblue" d="M1409.12,-336.46C1433.38,-330.14 1459.44,-319.14 1477,-300 1502.99,-271.68 1505.86,-223.99 1505.22,-197.74"/>
<polygon fill="midnightblue" stroke="midnightblue" points="1508.71,-197.46 1504.76,-187.62 1501.71,-197.77 1508.71,-197.46"/>
</g>
<!-- Node15&#45;&gt;Node8 -->
<g id="edge24" class="edge">
<title>Node15&#45;&gt;Node8</title>
<path fill="none" stroke="midnightblue" d="M1413.79,-280.47C1429.33,-273.32 1448.71,-261.44 1458,-244 1462.18,-236.16 1460.69,-232.47 1458,-224 1439.31,-165.19 1389.72,-109.44 1363.62,-83"/>
<polygon fill="midnightblue" stroke="midnightblue" points="1365.89,-80.33 1356.33,-75.77 1360.96,-85.3 1365.89,-80.33"/>
</g>
<!-- Node16 -->
<g id="node16" class="node">
<title>Node16</title>
<g id="a_node16"><a xlink:href="ARectangleMemory_8hpp.html" target="_top" xlink:title=" ">
<polygon fill="white" stroke="black" points="923,-168.5 923,-187.5 1055,-187.5 1055,-168.5 923,-168.5"/>
<text text-anchor="middle" x="989" y="-175.5" font-family="Helvetica,sans-Serif" font-size="10.00">ARectangleMemory.hpp</text>
</a>
</g>
</g>
<!-- Node15&#45;&gt;Node16 -->
<g id="edge25" class="edge">
<title>Node15&#45;&gt;Node16</title>
<path fill="none" stroke="midnightblue" d="M1359.79,-280.46C1287.88,-260.78 1110.52,-212.25 1029.98,-190.21"/>
<polygon fill="midnightblue" stroke="midnightblue" points="1030.76,-186.8 1020.19,-187.53 1028.91,-193.55 1030.76,-186.8"/>
</g>
<!-- Node15&#45;&gt;Node17 -->
<g id="edge28" class="edge">
<title>Node15&#45;&gt;Node17</title>
<path fill="none" stroke="midnightblue" d="M1391,-280.08C1391,-273.01 1391,-262.86 1391,-253.99"/>
<polygon fill="midnightblue" stroke="midnightblue" points="1394.5,-253.75 1391,-243.75 1387.5,-253.75 1394.5,-253.75"/>
</g>
<!-- Node16&#45;&gt;Node10 -->
<g id="edge27" class="edge">
<title>Node16&#45;&gt;Node10</title>
<path fill="none" stroke="midnightblue" d="M988.06,-168.37C986.12,-150.62 981.65,-109.67 979.03,-85.6"/>
<polygon fill="midnightblue" stroke="midnightblue" points="982.5,-85.15 977.94,-75.59 975.54,-85.91 982.5,-85.15"/>
</g>
<!-- Node16&#45;&gt;Node13 -->
<g id="edge26" class="edge">
<title>Node16&#45;&gt;Node13</title>
<path fill="none" stroke="midnightblue" d="M1003.14,-168.32C1016.87,-159.9 1037.94,-146.97 1054.06,-137.07"/>
<polygon fill="midnightblue" stroke="midnightblue" points="1056.2,-139.87 1062.9,-131.65 1052.54,-133.9 1056.2,-139.87"/>
</g>
<!-- Node17&#45;&gt;Node6 -->
<g id="edge30" class="edge">
<title>Node17&#45;&gt;Node6</title>
<path fill="none" stroke="midnightblue" d="M1350.75,-224.44C1306.35,-215 1234.85,-199.8 1186.91,-189.61"/>
<polygon fill="midnightblue" stroke="midnightblue" points="1187.57,-186.17 1177.06,-187.52 1186.11,-193.02 1187.57,-186.17"/>
</g>
<!-- Node17&#45;&gt;Node8 -->
<g id="edge29" class="edge">
<title>Node17&#45;&gt;Node8</title>
<path fill="none" stroke="midnightblue" d="M1388.63,-224.08C1381.71,-197.95 1361.37,-121.21 1351.92,-85.58"/>
<polygon fill="midnightblue" stroke="midnightblue" points="1355.22,-84.34 1349.27,-75.57 1348.45,-86.13 1355.22,-84.34"/>
</g>
<!-- Node18&#45;&gt;Node11 -->
<g id="edge33" class="edge">
<title>Node18&#45;&gt;Node11</title>
<path fill="none" stroke="midnightblue" d="M1515.3,-168.34C1530.47,-155.64 1554.07,-131.38 1541,-112 1494.18,-42.59 1390.74,-20.86 1332.66,-14.08"/>
<polygon fill="midnightblue" stroke="midnightblue" points="1332.68,-10.56 1322.36,-12.98 1331.94,-17.52 1332.68,-10.56"/>
</g>
<!-- Node18&#45;&gt;Node13 -->
<g id="edge35" class="edge">
<title>Node18&#45;&gt;Node13</title>
<path fill="none" stroke="midnightblue" d="M1454.18,-170.7C1372.11,-160.32 1209.4,-139.74 1127.13,-129.34"/>
<polygon fill="midnightblue" stroke="midnightblue" points="1127.39,-125.84 1117.03,-128.06 1126.51,-132.79 1127.39,-125.84"/>
</g>
<!-- Node19 -->
<g id="node19" class="node">
<title>Node19</title>
<g id="a_node19"><a xlink:title=" ">
<polygon fill="white" stroke="#bfbfbf" points="1476,-112.5 1476,-131.5 1532,-131.5 1532,-112.5 1476,-112.5"/>
<text text-anchor="middle" x="1504" y="-119.5" font-family="Helvetica,sans-Serif" font-size="10.00">optional</text>
</a>
</g>
</g>
<!-- Node18&#45;&gt;Node19 -->
<g id="edge34" class="edge">
<title>Node18&#45;&gt;Node19</title>
<path fill="none" stroke="midnightblue" d="M1504,-168.08C1504,-161.01 1504,-150.86 1504,-141.99"/>
<polygon fill="midnightblue" stroke="midnightblue" points="1507.5,-141.75 1504,-131.75 1500.5,-141.75 1507.5,-141.75"/>
</g>
<!-- Node20&#45;&gt;Node9 -->
<g id="edge40" class="edge">
<title>Node20&#45;&gt;Node9</title>
<path fill="none" stroke="midnightblue" d="M554.12,-224.39C536.46,-217.59 515.55,-206.15 505,-188 482.22,-148.81 530.77,-104.18 560.72,-81.65"/>
<polygon fill="midnightblue" stroke="midnightblue" points="562.94,-84.37 568.97,-75.66 558.82,-78.71 562.94,-84.37"/>
</g>
<!-- Node21 -->
<g id="node21" class="node">
<title>Node21</title>
<g id="a_node21"><a xlink:title=" ">
<polygon fill="white" stroke="#bfbfbf" points="514,-168.5 514,-187.5 554,-187.5 554,-168.5 514,-168.5"/>
<text text-anchor="middle" x="534" y="-175.5" font-family="Helvetica,sans-Serif" font-size="10.00">span</text>
</a>
</g>
</g>
<!-- Node20&#45;&gt;Node21 -->
<g id="edge41" class="edge">
<title>Node20&#45;&gt;Node21</title>
<path fill="none" stroke="midnightblue" d="M575.74,-224.08C568.54,-216.3 557.89,-204.8 549.15,-195.37"/>
<polygon fill="midnightblue" stroke="midnightblue" points="551.47,-192.71 542.1,-187.75 546.33,-197.47 551.47,-192.71"/>
</g>
<!-- Node22&#45;&gt;Node7 -->
<g id="edge46" class="edge">
<title>Node22&#45;&gt;Node7</title>
<path fill="none" stroke="midnightblue" d="M687.79,-224.48C661.27,-213.36 623.41,-192.41 639,-168 679.88,-104.01 772.86,-79.95 823.17,-71.39"/>
<polygon fill="midnightblue" stroke="midnightblue" points="823.9,-74.82 833.22,-69.8 822.8,-67.91 823.9,-74.82"/>
</g>
<!-- Node22&#45;&gt;Node9 -->
<g id="edge44" class="edge">
<title>Node22&#45;&gt;Node9</title>
<path fill="none" stroke="midnightblue" d="M667.86,-224.53C646.19,-218.08 621.36,-206.96 606,-188 582.04,-158.43 579.78,-111.61 580.64,-85.73"/>
<polygon fill="midnightblue" stroke="midnightblue" points="584.13,-85.92 581.16,-75.75 577.14,-85.55 584.13,-85.92"/>
</g>
<!-- Node22&#45;&gt;Node16 -->
<g id="edge43" class="edge">
<title>Node22&#45;&gt;Node16</title>
<path fill="none" stroke="midnightblue" d="M754.13,-224.62C802.85,-215.16 882.19,-199.75 934.98,-189.49"/>
<polygon fill="midnightblue" stroke="midnightblue" points="935.7,-192.92 944.85,-187.58 934.36,-186.05 935.7,-192.92"/>
</g>
<!-- Node22&#45;&gt;Node21 -->
<g id="edge45" class="edge">
<title>Node22&#45;&gt;Node21</title>
<path fill="none" stroke="midnightblue" d="M682.95,-224.44C650.44,-214.53 597.09,-198.25 563.84,-188.1"/>
<polygon fill="midnightblue" stroke="midnightblue" points="564.79,-184.74 554.21,-185.16 562.75,-191.43 564.79,-184.74"/>
</g>
<!-- Node24 -->
<g id="node24" class="node">
<title>Node24</title>
<g id="a_node24"><a xlink:title=" ">
<polygon fill="white" stroke="#bfbfbf" points="648.5,-168.5 648.5,-187.5 705.5,-187.5 705.5,-168.5 648.5,-168.5"/>
<text text-anchor="middle" x="677" y="-175.5" font-family="Helvetica,sans-Serif" font-size="10.00">ostream</text>
</a>
</g>
</g>
<!-- Node23&#45;&gt;Node24 -->
<g id="edge48" class="edge">
<title>Node23&#45;&gt;Node24</title>
<path fill="none" stroke="midnightblue" d="M804.92,-224.44C779.46,-215.4 739.11,-201.06 710.54,-190.92"/>
<polygon fill="midnightblue" stroke="midnightblue" points="711.57,-187.57 700.97,-187.52 709.22,-194.16 711.57,-187.57"/>
</g>
<!-- Node25 -->
<g id="node25" class="node">
<title>Node25</title>
<g id="a_node25"><a xlink:title=" ">
<polygon fill="white" stroke="#bfbfbf" points="723.5,-168.5 723.5,-187.5 866.5,-187.5 866.5,-168.5 723.5,-168.5"/>
<text text-anchor="middle" x="795" y="-175.5" font-family="Helvetica,sans-Serif" font-size="10.00">SFML/System/Vector2.hpp</text>
</a>
</g>
</g>
<!-- Node23&#45;&gt;Node25 -->
<g id="edge49" class="edge">
<title>Node23&#45;&gt;Node25</title>
<path fill="none" stroke="midnightblue" d="M823.39,-224.08C818.63,-216.53 811.68,-205.49 805.85,-196.23"/>
<polygon fill="midnightblue" stroke="midnightblue" points="808.8,-194.35 800.51,-187.75 802.88,-198.08 808.8,-194.35"/>
</g>
<!-- Node27&#45;&gt;Node2 -->
<g id="edge54" class="edge">
<title>Node27&#45;&gt;Node2</title>
<path fill="none" stroke="midnightblue" d="M609.32,-345.63C533.02,-343.87 392,-328.03 392,-235 392,-235 392,-235 392,-121 392,-88.95 392,-51.64 392,-29.75"/>
<polygon fill="midnightblue" stroke="midnightblue" points="395.5,-29.56 392,-19.56 388.5,-29.56 395.5,-29.56"/>
</g>
<!-- Node27&#45;&gt;Node4 -->
<g id="edge60" class="edge">
<title>Node27&#45;&gt;Node4</title>
<path fill="none" stroke="midnightblue" d="M692.05,-355.52C726.25,-364.66 777.78,-379.26 811.97,-389.44"/>
<polygon fill="midnightblue" stroke="midnightblue" points="811.4,-392.92 821.98,-392.44 813.41,-386.22 811.4,-392.92"/>
</g>
<!-- Node27&#45;&gt;Node7 -->
<g id="edge53" class="edge">
<title>Node27&#45;&gt;Node7</title>
<path fill="none" stroke="midnightblue" d="M609.27,-342.59C571.44,-338.52 518.98,-327.82 482,-300 452.57,-277.86 434.91,-258.02 449,-224 508.88,-79.45 736.9,-65.89 823.43,-66.1"/>
<polygon fill="midnightblue" stroke="midnightblue" points="823.46,-69.6 833.49,-66.19 823.52,-62.6 823.46,-69.6"/>
</g>
<!-- Node27&#45;&gt;Node22 -->
<g id="edge59" class="edge">
<title>Node27&#45;&gt;Node22</title>
<path fill="none" stroke="midnightblue" d="M659.49,-336.32C663.3,-323.59 671.18,-299.3 681,-280 685.95,-270.27 692.59,-260.1 698.37,-251.89"/>
<polygon fill="midnightblue" stroke="midnightblue" points="701.35,-253.74 704.38,-243.59 695.68,-249.63 701.35,-253.74"/>
</g>
<!-- Node27&#45;&gt;Node23 -->
<g id="edge55" class="edge">
<title>Node27&#45;&gt;Node23</title>
<path fill="none" stroke="midnightblue" d="M670.22,-336.3C689.31,-323.76 725.75,-299.92 757,-280 773.52,-269.47 792.29,-257.75 806.52,-248.91"/>
<polygon fill="midnightblue" stroke="midnightblue" points="808.5,-251.8 815.15,-243.55 804.81,-245.85 808.5,-251.8"/>
</g>
<!-- Node28 -->
<g id="node28" class="node">
<title>Node28</title>
<g id="a_node28"><a xlink:title=" ">
<polygon fill="white" stroke="#bfbfbf" points="458,-224.5 458,-243.5 500,-243.5 500,-224.5 458,-224.5"/>
<text text-anchor="middle" x="479" y="-231.5" font-family="Helvetica,sans-Serif" font-size="10.00">array</text>
</a>
</g>
</g>
<!-- Node27&#45;&gt;Node28 -->
<g id="edge52" class="edge">
<title>Node27&#45;&gt;Node28</title>
<path fill="none" stroke="midnightblue" d="M609.17,-343.4C573.98,-339.69 527.34,-329.09 498,-300 485.88,-287.98 481.39,-268.69 479.78,-254.24"/>
<polygon fill="midnightblue" stroke="midnightblue" points="483.25,-253.63 479.02,-243.92 476.27,-254.15 483.25,-253.63"/>
</g>
<!-- Node29 -->
<g id="node29" class="node">
<title>Node29</title>
<g id="a_node29"><a xlink:href="TileRenderer_8hpp.html" target="_top" xlink:title=" ">
<polygon fill="white" stroke="black" points="507,-280.5 507,-299.5 629,-299.5 629,-280.5 507,-280.5"/>
<text text-anchor="middle" x="568" y="-287.5" font-family="Helvetica,sans-Serif" font-size="10.00">PPU/TileRenderer.hpp</text>
</a>
</g>
</g>
<!-- Node27&#45;&gt;Node29 -->
<g id="edge56" class="edge">
<title>Node27&#45;&gt;Node29</title>
<path fill="none" stroke="midnightblue" d="M642.7,-336.32C628.82,-327.9 607.51,-314.97 591.2,-305.07"/>
<polygon fill="midnightblue" stroke="midnightblue" points="592.63,-301.85 582.26,-299.65 589,-307.83 592.63,-301.85"/>
</g>
<!-- Node27&#45;&gt;Node30 -->
<g id="edge61" class="edge">
<title>Node27&#45;&gt;Node30</title>
<path fill="none" stroke="midnightblue" d="M699.62,-336.44C746.75,-326.98 822.69,-311.74 873.46,-301.55"/>
<polygon fill="midnightblue" stroke="midnightblue" points="874.46,-304.92 883.58,-299.52 873.08,-298.05 874.46,-304.92"/>
</g>
<!-- Node29&#45;&gt;Node22 -->
<g id="edge58" class="edge">
<title>Node29&#45;&gt;Node22</title>
<path fill="none" stroke="midnightblue" d="M590.66,-280.44C614.4,-271.48 651.91,-257.31 678.74,-247.18"/>
<polygon fill="midnightblue" stroke="midnightblue" points="680.33,-250.32 688.45,-243.52 677.86,-243.77 680.33,-250.32"/>
</g>
<!-- Node29&#45;&gt;Node28 -->
<g id="edge57" class="edge">
<title>Node29&#45;&gt;Node28</title>
<path fill="none" stroke="midnightblue" d="M553.7,-280.32C539.82,-271.9 518.51,-258.97 502.2,-249.07"/>
<polygon fill="midnightblue" stroke="midnightblue" points="503.63,-245.85 493.26,-243.65 500,-251.83 503.63,-245.85"/>
</g>
<!-- Node30&#45;&gt;Node8 -->
<g id="edge64" class="edge">
<title>Node30&#45;&gt;Node8</title>
<path fill="none" stroke="midnightblue" d="M964.37,-280.46C1020.98,-266.77 1128.9,-236.42 1210,-188 1260.18,-158.04 1309.07,-108.56 1332.55,-83.15"/>
<polygon fill="midnightblue" stroke="midnightblue" points="1335.36,-85.27 1339.51,-75.52 1330.18,-80.56 1335.36,-85.27"/>
</g>
<!-- Node30&#45;&gt;Node23 -->
<g id="edge66" class="edge">
<title>Node30&#45;&gt;Node23</title>
<path fill="none" stroke="midnightblue" d="M910.42,-280.32C895,-271.74 871.19,-258.49 853.29,-248.52"/>
<polygon fill="midnightblue" stroke="midnightblue" points="854.99,-245.46 844.55,-243.65 851.58,-251.58 854.99,-245.46"/>
</g>
<!-- Node30&#45;&gt;Node28 -->
<g id="edge65" class="edge">
<title>Node30&#45;&gt;Node28</title>
<path fill="none" stroke="midnightblue" d="M874.83,-286.51C797.57,-282.1 646.55,-270.88 509.99,-243.85"/>
<polygon fill="midnightblue" stroke="midnightblue" points="510.68,-240.42 500.18,-241.88 509.3,-247.28 510.68,-240.42"/>
</g>
<!-- Node31 -->
<g id="node31" class="node">
<title>Node31</title>
<g id="a_node31"><a xlink:title=" ">
<polygon fill="white" stroke="#bfbfbf" points="975,-224.5 975,-243.5 1049,-243.5 1049,-224.5 975,-224.5"/>
<text text-anchor="middle" x="1012" y="-231.5" font-family="Helvetica,sans-Serif" font-size="10.00">stdint&#45;gcc.h</text>
</a>
</g>
</g>
<!-- Node30&#45;&gt;Node31 -->
<g id="edge62" class="edge">
<title>Node30&#45;&gt;Node31</title>
<path fill="none" stroke="midnightblue" d="M939.82,-280.32C953.23,-271.9 973.82,-258.97 989.59,-249.07"/>
<polygon fill="midnightblue" stroke="midnightblue" points="991.61,-251.94 998.22,-243.65 987.89,-246.01 991.61,-251.94"/>
</g>
<!-- Node32 -->
<g id="node32" class="node">
<title>Node32</title>
<g id="a_node32"><a xlink:title=" ">
<polygon fill="white" stroke="#bfbfbf" points="903.5,-224.5 903.5,-243.5 956.5,-243.5 956.5,-224.5 903.5,-224.5"/>
<text text-anchor="middle" x="930" y="-231.5" font-family="Helvetica,sans-Serif" font-size="10.00">cstddef</text>
</a>
</g>
</g>
<!-- Node30&#45;&gt;Node32 -->
<g id="edge63" class="edge">
<title>Node30&#45;&gt;Node32</title>
<path fill="none" stroke="midnightblue" d="M926.66,-280.08C927.18,-273.01 927.94,-262.86 928.59,-253.99"/>
<polygon fill="midnightblue" stroke="midnightblue" points="932.1,-253.98 929.35,-243.75 925.12,-253.47 932.1,-253.98"/>
</g>
<!-- Node34&#45;&gt;Node9 -->
<g id="edge76" class="edge">
<title>Node34&#45;&gt;Node9</title>
<path fill="none" stroke="midnightblue" d="M296.72,-112.44C367.9,-101.1 491.26,-81.45 549.62,-72.16"/>
<polygon fill="midnightblue" stroke="midnightblue" points="550.41,-75.58 559.74,-70.55 549.31,-68.66 550.41,-75.58"/>
</g>
<!-- Node34&#45;&gt;Node10 -->
<g id="edge72" class="edge">
<title>Node34&#45;&gt;Node10</title>
<path fill="none" stroke="midnightblue" d="M326.18,-116.07C449.26,-108.58 687.1,-93.35 889,-76 898.98,-75.14 909.6,-74.14 919.87,-73.11"/>
<polygon fill="midnightblue" stroke="midnightblue" points="920.39,-76.58 929.99,-72.09 919.69,-69.62 920.39,-76.58"/>
</g>
<!-- Node35 -->
<g id="node35" class="node">
<title>Node35</title>
<g id="a_node35"><a xlink:href="DebuggableError_8hpp.html" target="_top" xlink:title=" ">
<polygon fill="white" stroke="black" points="157.5,-56.5 157.5,-75.5 276.5,-75.5 276.5,-56.5 157.5,-56.5"/>
<text text-anchor="middle" x="217" y="-63.5" font-family="Helvetica,sans-Serif" font-size="10.00">DebuggableError.hpp</text>
</a>
</g>
</g>
<!-- Node34&#45;&gt;Node35 -->
<g id="edge70" class="edge">
<title>Node34&#45;&gt;Node35</title>
<path fill="none" stroke="midnightblue" d="M238.71,-112.08C235.15,-104.69 229.98,-93.95 225.58,-84.81"/>
<polygon fill="midnightblue" stroke="midnightblue" points="228.71,-83.24 221.21,-75.75 222.4,-86.28 228.71,-83.24"/>
</g>
<!-- Node37 -->
<g id="node37" class="node">
<title>Node37</title>
<g id="a_node37"><a xlink:title=" ">
<polygon fill="white" stroke="#bfbfbf" points="74.5,-56.5 74.5,-75.5 139.5,-75.5 139.5,-56.5 74.5,-56.5"/>
<text text-anchor="middle" x="107" y="-63.5" font-family="Helvetica,sans-Serif" font-size="10.00">exception</text>
</a>
</g>
</g>
<!-- Node34&#45;&gt;Node37 -->
<g id="edge73" class="edge">
<title>Node34&#45;&gt;Node37</title>
<path fill="none" stroke="midnightblue" d="M221.45,-112.44C198.97,-103.52 163.51,-89.44 138.02,-79.32"/>
<polygon fill="midnightblue" stroke="midnightblue" points="139.03,-75.95 128.45,-75.52 136.45,-82.46 139.03,-75.95"/>
</g>
<!-- Node38 -->
<g id="node38" class="node">
<title>Node38</title>
<g id="a_node38"><a xlink:title=" ">
<polygon fill="white" stroke="#bfbfbf" points="294.5,-56.5 294.5,-75.5 325.5,-75.5 325.5,-56.5 294.5,-56.5"/>
<text text-anchor="middle" x="310" y="-63.5" font-family="Helvetica,sans-Serif" font-size="10.00">ios</text>
</a>
</g>
</g>
<!-- Node34&#45;&gt;Node38 -->
<g id="edge74" class="edge">
<title>Node34&#45;&gt;Node38</title>
<path fill="none" stroke="midnightblue" d="M253.76,-112.32C263.77,-104.26 278.89,-92.08 290.93,-82.37"/>
<polygon fill="midnightblue" stroke="midnightblue" points="293.45,-84.83 299.04,-75.83 289.06,-79.38 293.45,-84.83"/>
</g>
<!-- Node39 -->
<g id="node39" class="node">
<title>Node39</title>
<g id="a_node39"><a xlink:title=" ">
<polygon fill="white" stroke="#bfbfbf" points="0,-56.5 0,-75.5 56,-75.5 56,-56.5 0,-56.5"/>
<text text-anchor="middle" x="28" y="-63.5" font-family="Helvetica,sans-Serif" font-size="10.00">sstream</text>
</a>
</g>
</g>
<!-- Node34&#45;&gt;Node39 -->
<g id="edge75" class="edge">
<title>Node34&#45;&gt;Node39</title>
<path fill="none" stroke="midnightblue" d="M208.93,-112.44C169.96,-102.66 106.33,-86.67 65.85,-76.51"/>
<polygon fill="midnightblue" stroke="midnightblue" points="66.64,-73.1 56.08,-74.05 64.93,-79.88 66.64,-73.1"/>
</g>
<!-- Node36 -->
<g id="node36" class="node">
<title>Node36</title>
<g id="a_node36"><a xlink:title=" ">
<polygon fill="white" stroke="#bfbfbf" points="169.5,-0.5 169.5,-19.5 264.5,-19.5 264.5,-0.5 169.5,-0.5"/>
<text text-anchor="middle" x="217" y="-7.5" font-family="Helvetica,sans-Serif" font-size="10.00">bits/exception.h</text>
</a>
</g>
</g>
<!-- Node35&#45;&gt;Node36 -->
<g id="edge71" class="edge">
<title>Node35&#45;&gt;Node36</title>
<path fill="none" stroke="midnightblue" d="M217,-56.08C217,-49.01 217,-38.86 217,-29.99"/>
<polygon fill="midnightblue" stroke="midnightblue" points="220.5,-29.75 217,-19.75 213.5,-29.75 220.5,-29.75"/>
</g>
</g>
</svg>
