<?xml version="1.0" encoding="UTF-8" standalone="no"?>
<!DOCTYPE svg PUBLIC "-//W3C//DTD SVG 1.1//EN"
 "http://www.w3.org/Graphics/SVG/1.1/DTD/svg11.dtd">
<!-- Generated by graphviz version 2.43.0 (0)
 -->
<!-- Title: sources/PPU/PpuDebug.hpp Pages: 1 -->
<svg width="1266pt" height="476pt"
 viewBox="0.00 0.00 1266.00 476.00" xmlns="http://www.w3.org/2000/svg" xmlns:xlink="http://www.w3.org/1999/xlink">
<g id="graph0" class="graph" transform="scale(1 1) rotate(0) translate(4 472)">
<title>sources/PPU/PpuDebug.hpp</title>
<polygon fill="white" stroke="transparent" points="-4,4 -4,-472 1262,-472 1262,4 -4,4"/>
<!-- Node1 -->
<g id="node1" class="node">
<title>Node1</title>
<g id="a_node1"><a xlink:title=" ">
<polygon fill="#bfbfbf" stroke="black" points="164,-448.5 164,-467.5 314,-467.5 314,-448.5 164,-448.5"/>
<text text-anchor="middle" x="239" y="-455.5" font-family="Helvetica,sans-Serif" font-size="10.00">sources/PPU/PpuDebug.hpp</text>
</a>
</g>
</g>
<!-- Node2 -->
<g id="node2" class="node">
<title>Node2</title>
<g id="a_node2"><a xlink:href="Ram_8hpp.html" target="_top" xlink:title=" ">
<polygon fill="white" stroke="black" points="178,-224.5 178,-243.5 264,-243.5 264,-224.5 178,-224.5"/>
<text text-anchor="middle" x="221" y="-231.5" font-family="Helvetica,sans-Serif" font-size="10.00">Ram/Ram.hpp</text>
</a>
</g>
</g>
<!-- Node1&#45;&gt;Node2 -->
<g id="edge1" class="edge">
<title>Node1&#45;&gt;Node2</title>
<path fill="none" stroke="midnightblue" d="M236.69,-448.2C230.18,-422.46 212.4,-344.97 216,-280 216.48,-271.36 217.47,-261.83 218.45,-253.77"/>
<polygon fill="midnightblue" stroke="midnightblue" points="221.95,-253.97 219.76,-243.6 215.01,-253.07 221.95,-253.97"/>
</g>
<!-- Node14 -->
<g id="node14" class="node">
<title>Node14</title>
<g id="a_node14"><a xlink:href="PPU_8hpp.html" target="_top" xlink:title=" ">
<polygon fill="white" stroke="black" points="568.5,-392.5 568.5,-411.5 625.5,-411.5 625.5,-392.5 568.5,-392.5"/>
<text text-anchor="middle" x="597" y="-399.5" font-family="Helvetica,sans-Serif" font-size="10.00">PPU.hpp</text>
</a>
</g>
</g>
<!-- Node1&#45;&gt;Node14 -->
<g id="edge16" class="edge">
<title>Node1&#45;&gt;Node14</title>
<path fill="none" stroke="midnightblue" d="M295.73,-448.44C369.12,-437.37 495.06,-418.38 558.33,-408.83"/>
<polygon fill="midnightblue" stroke="midnightblue" points="558.93,-412.28 568.3,-407.33 557.89,-405.36 558.93,-412.28"/>
</g>
<!-- Node3 -->
<g id="node3" class="node">
<title>Node3</title>
<g id="a_node3"><a xlink:href="ARectangleMemory_8hpp.html" target="_top" xlink:title=" ">
<polygon fill="white" stroke="black" points="713,-168.5 713,-187.5 889,-187.5 889,-168.5 713,-168.5"/>
<text text-anchor="middle" x="801" y="-175.5" font-family="Helvetica,sans-Serif" font-size="10.00">Memory/ARectangleMemory.hpp</text>
</a>
</g>
</g>
<!-- Node2&#45;&gt;Node3 -->
<g id="edge2" class="edge">
<title>Node2&#45;&gt;Node3</title>
<path fill="none" stroke="midnightblue" d="M264.02,-228.62C278.9,-227.13 295.68,-225.47 311,-224 482.36,-207.58 527.67,-204.22 702.89,-188.1"/>
<polygon fill="midnightblue" stroke="midnightblue" points="703.34,-191.57 712.97,-187.17 702.69,-184.6 703.34,-191.57"/>
</g>
<!-- Node6 -->
<g id="node6" class="node">
<title>Node6</title>
<g id="a_node6"><a xlink:title=" ">
<polygon fill="white" stroke="#bfbfbf" points="543.5,-56.5 543.5,-75.5 590.5,-75.5 590.5,-56.5 543.5,-56.5"/>
<text text-anchor="middle" x="567" y="-63.5" font-family="Helvetica,sans-Serif" font-size="10.00">vector</text>
</a>
</g>
</g>
<!-- Node2&#45;&gt;Node6 -->
<g id="edge15" class="edge">
<title>Node2&#45;&gt;Node6</title>
<path fill="none" stroke="midnightblue" d="M223.19,-224.21C229.34,-201.45 249.08,-140.41 290,-112 328.86,-85.02 468.15,-73.08 533.15,-68.89"/>
<polygon fill="midnightblue" stroke="midnightblue" points="533.52,-72.37 543.28,-68.26 533.09,-65.38 533.52,-72.37"/>
</g>
<!-- Node8 -->
<g id="node8" class="node">
<title>Node8</title>
<g id="a_node8"><a xlink:title=" ">
<polygon fill="white" stroke="#bfbfbf" points="206,-56.5 206,-75.5 250,-75.5 250,-56.5 206,-56.5"/>
<text text-anchor="middle" x="228" y="-63.5" font-family="Helvetica,sans-Serif" font-size="10.00">string</text>
</a>
</g>
</g>
<!-- Node2&#45;&gt;Node8 -->
<g id="edge13" class="edge">
<title>Node2&#45;&gt;Node8</title>
<path fill="none" stroke="midnightblue" d="M219.29,-224.43C215.58,-204.56 207.65,-153.81 214,-112 215.37,-103 218.19,-93.33 220.95,-85.26"/>
<polygon fill="midnightblue" stroke="midnightblue" points="224.27,-86.37 224.4,-75.78 217.69,-83.98 224.27,-86.37"/>
</g>
<!-- Node13 -->
<g id="node13" class="node">
<title>Node13</title>
<g id="a_node13"><a xlink:title=" ">
<polygon fill="white" stroke="#bfbfbf" points="122,-168.5 122,-187.5 162,-187.5 162,-168.5 122,-168.5"/>
<text text-anchor="middle" x="142" y="-175.5" font-family="Helvetica,sans-Serif" font-size="10.00">span</text>
</a>
</g>
</g>
<!-- Node2&#45;&gt;Node13 -->
<g id="edge14" class="edge">
<title>Node2&#45;&gt;Node13</title>
<path fill="none" stroke="midnightblue" d="M208.31,-224.32C196.1,-215.98 177.42,-203.21 163,-193.35"/>
<polygon fill="midnightblue" stroke="midnightblue" points="164.89,-190.41 154.66,-187.65 160.94,-196.19 164.89,-190.41"/>
</g>
<!-- Node4 -->
<g id="node4" class="node">
<title>Node4</title>
<g id="a_node4"><a xlink:href="IMemory_8hpp.html" target="_top" xlink:title=" ">
<polygon fill="white" stroke="black" points="808,-112.5 808,-131.5 888,-131.5 888,-112.5 808,-112.5"/>
<text text-anchor="middle" x="848" y="-119.5" font-family="Helvetica,sans-Serif" font-size="10.00">IMemory.hpp</text>
</a>
</g>
</g>
<!-- Node3&#45;&gt;Node4 -->
<g id="edge3" class="edge">
<title>Node3&#45;&gt;Node4</title>
<path fill="none" stroke="midnightblue" d="M808.76,-168.08C815.54,-160.3 825.54,-148.8 833.76,-139.37"/>
<polygon fill="midnightblue" stroke="midnightblue" points="836.46,-141.59 840.38,-131.75 831.18,-137 836.46,-141.59"/>
</g>
<!-- Node9 -->
<g id="node9" class="node">
<title>Node9</title>
<g id="a_node9"><a xlink:href="Ints_8hpp.html" target="_top" xlink:title=" ">
<polygon fill="white" stroke="black" points="718,-56.5 718,-75.5 812,-75.5 812,-56.5 718,-56.5"/>
<text text-anchor="middle" x="765" y="-63.5" font-family="Helvetica,sans-Serif" font-size="10.00">Models/Ints.hpp</text>
</a>
</g>
</g>
<!-- Node3&#45;&gt;Node9 -->
<g id="edge12" class="edge">
<title>Node3&#45;&gt;Node9</title>
<path fill="none" stroke="midnightblue" d="M798.18,-168.37C792.34,-150.54 778.84,-109.3 770.98,-85.27"/>
<polygon fill="midnightblue" stroke="midnightblue" points="774.25,-84.01 767.81,-75.59 767.6,-86.18 774.25,-84.01"/>
</g>
<!-- Node5 -->
<g id="node5" class="node">
<title>Node5</title>
<g id="a_node5"><a xlink:title=" ">
<polygon fill="white" stroke="#bfbfbf" points="1159,-56.5 1159,-75.5 1209,-75.5 1209,-56.5 1159,-56.5"/>
<text text-anchor="middle" x="1184" y="-63.5" font-family="Helvetica,sans-Serif" font-size="10.00">cstdint</text>
</a>
</g>
</g>
<!-- Node4&#45;&gt;Node5 -->
<g id="edge4" class="edge">
<title>Node4&#45;&gt;Node5</title>
<path fill="none" stroke="midnightblue" d="M888.2,-114.54C954.39,-103.9 1085.28,-82.87 1148.36,-72.73"/>
<polygon fill="midnightblue" stroke="midnightblue" points="1149.28,-76.12 1158.6,-71.08 1148.17,-69.21 1149.28,-76.12"/>
</g>
<!-- Node4&#45;&gt;Node6 -->
<g id="edge5" class="edge">
<title>Node4&#45;&gt;Node6</title>
<path fill="none" stroke="midnightblue" d="M807.74,-113.26C752.09,-102.57 652.65,-83.46 600.7,-73.48"/>
<polygon fill="midnightblue" stroke="midnightblue" points="601.15,-70 590.67,-71.55 599.83,-76.87 601.15,-70"/>
</g>
<!-- Node7 -->
<g id="node7" class="node">
<title>Node7</title>
<g id="a_node7"><a xlink:title=" ">
<polygon fill="white" stroke="#bfbfbf" points="1024,-56.5 1024,-75.5 1082,-75.5 1082,-56.5 1024,-56.5"/>
<text text-anchor="middle" x="1053" y="-63.5" font-family="Helvetica,sans-Serif" font-size="10.00">memory</text>
</a>
</g>
</g>
<!-- Node4&#45;&gt;Node7 -->
<g id="edge6" class="edge">
<title>Node4&#45;&gt;Node7</title>
<path fill="none" stroke="midnightblue" d="M880.48,-112.44C916.76,-102.89 975.44,-87.43 1014.12,-77.24"/>
<polygon fill="midnightblue" stroke="midnightblue" points="1015.21,-80.58 1023.98,-74.64 1013.42,-73.81 1015.21,-80.58"/>
</g>
<!-- Node4&#45;&gt;Node8 -->
<g id="edge7" class="edge">
<title>Node4&#45;&gt;Node8</title>
<path fill="none" stroke="midnightblue" d="M807.8,-117.5C692.99,-107.5 365.17,-78.95 260.53,-69.83"/>
<polygon fill="midnightblue" stroke="midnightblue" points="260.54,-66.32 250.28,-68.94 259.93,-73.29 260.54,-66.32"/>
</g>
<!-- Node4&#45;&gt;Node9 -->
<g id="edge8" class="edge">
<title>Node4&#45;&gt;Node9</title>
<path fill="none" stroke="midnightblue" d="M834.66,-112.32C821.84,-103.98 802.22,-91.21 787.06,-81.35"/>
<polygon fill="midnightblue" stroke="midnightblue" points="788.59,-78.17 778.3,-75.65 784.78,-84.04 788.59,-78.17"/>
</g>
<!-- Node12 -->
<g id="node12" class="node">
<title>Node12</title>
<g id="a_node12"><a xlink:href="Components_8hpp.html" target="_top" xlink:title=" ">
<polygon fill="white" stroke="black" points="861.5,-56.5 861.5,-75.5 998.5,-75.5 998.5,-56.5 861.5,-56.5"/>
<text text-anchor="middle" x="930" y="-63.5" font-family="Helvetica,sans-Serif" font-size="10.00">Models/Components.hpp</text>
</a>
</g>
</g>
<!-- Node4&#45;&gt;Node12 -->
<g id="edge11" class="edge">
<title>Node4&#45;&gt;Node12</title>
<path fill="none" stroke="midnightblue" d="M861.17,-112.32C873.85,-103.98 893.23,-91.21 908.21,-81.35"/>
<polygon fill="midnightblue" stroke="midnightblue" points="910.43,-84.08 916.86,-75.65 906.58,-78.23 910.43,-84.08"/>
</g>
<!-- Node10 -->
<g id="node10" class="node">
<title>Node10</title>
<g id="a_node10"><a xlink:title=" ">
<polygon fill="white" stroke="#bfbfbf" points="696,-0.5 696,-19.5 758,-19.5 758,-0.5 696,-0.5"/>
<text text-anchor="middle" x="727" y="-7.5" font-family="Helvetica,sans-Serif" font-size="10.00">cinttypes</text>
</a>
</g>
</g>
<!-- Node9&#45;&gt;Node10 -->
<g id="edge9" class="edge">
<title>Node9&#45;&gt;Node10</title>
<path fill="none" stroke="midnightblue" d="M758.73,-56.08C753.36,-48.46 745.48,-37.26 738.92,-27.94"/>
<polygon fill="midnightblue" stroke="midnightblue" points="741.78,-25.91 733.16,-19.75 736.05,-29.94 741.78,-25.91"/>
</g>
<!-- Node11 -->
<g id="node11" class="node">
<title>Node11</title>
<g id="a_node11"><a xlink:title=" ">
<polygon fill="white" stroke="#bfbfbf" points="270,-0.5 270,-19.5 330,-19.5 330,-0.5 270,-0.5"/>
<text text-anchor="middle" x="300" y="-7.5" font-family="Helvetica,sans-Serif" font-size="10.00">iostream</text>
</a>
</g>
</g>
<!-- Node9&#45;&gt;Node11 -->
<g id="edge10" class="edge">
<title>Node9&#45;&gt;Node11</title>
<path fill="none" stroke="midnightblue" d="M717.85,-59.53C626.31,-48.89 425.99,-25.63 340.25,-15.67"/>
<polygon fill="midnightblue" stroke="midnightblue" points="340.47,-12.18 330.13,-14.5 339.66,-19.13 340.47,-12.18"/>
</g>
<!-- Node14&#45;&gt;Node2 -->
<g id="edge45" class="edge">
<title>Node14&#45;&gt;Node2</title>
<path fill="none" stroke="midnightblue" d="M568.29,-397.53C489.1,-387.33 270.64,-354.66 228,-300 217.86,-287.01 216.97,-267.85 218.1,-253.69"/>
<polygon fill="midnightblue" stroke="midnightblue" points="221.59,-253.97 219.3,-243.63 214.64,-253.14 221.59,-253.97"/>
</g>
<!-- Node14&#45;&gt;Node5 -->
<g id="edge17" class="edge">
<title>Node14&#45;&gt;Node5</title>
<path fill="none" stroke="midnightblue" d="M625.54,-400.71C700.04,-399.44 906.18,-392.62 1073,-356 1158.12,-337.32 1258,-378.15 1258,-291 1258,-291 1258,-291 1258,-177 1258,-137.61 1224.93,-101.73 1203,-82.26"/>
<polygon fill="midnightblue" stroke="midnightblue" points="1205.12,-79.47 1195.24,-75.64 1200.57,-84.79 1205.12,-79.47"/>
</g>
<!-- Node15 -->
<g id="node15" class="node">
<title>Node15</title>
<g id="a_node15"><a xlink:href="AMemory_8hpp.html" target="_top" xlink:title=" ">
<polygon fill="white" stroke="black" points="907.5,-168.5 907.5,-187.5 1034.5,-187.5 1034.5,-168.5 907.5,-168.5"/>
<text text-anchor="middle" x="971" y="-175.5" font-family="Helvetica,sans-Serif" font-size="10.00">Memory/AMemory.hpp</text>
</a>
</g>
</g>
<!-- Node14&#45;&gt;Node15 -->
<g id="edge18" class="edge">
<title>Node14&#45;&gt;Node15</title>
<path fill="none" stroke="midnightblue" d="M625.63,-399.34C687.21,-395.27 829.86,-383.13 869,-356 925.8,-316.64 955.23,-234.66 966.04,-197.74"/>
<polygon fill="midnightblue" stroke="midnightblue" points="969.49,-198.4 968.81,-187.82 962.75,-196.51 969.49,-198.4"/>
</g>
<!-- Node16 -->
<g id="node16" class="node">
<title>Node16</title>
<g id="a_node16"><a xlink:href="MemoryBus_8hpp.html" target="_top" xlink:title=" ">
<polygon fill="white" stroke="black" points="924,-336.5 924,-355.5 1064,-355.5 1064,-336.5 924,-336.5"/>
<text text-anchor="middle" x="994" y="-343.5" font-family="Helvetica,sans-Serif" font-size="10.00">Memory/MemoryBus.hpp</text>
</a>
</g>
</g>
<!-- Node14&#45;&gt;Node16 -->
<g id="edge26" class="edge">
<title>Node14&#45;&gt;Node16</title>
<path fill="none" stroke="midnightblue" d="M625.55,-397.12C686.84,-388.78 832.62,-368.95 921.33,-356.88"/>
<polygon fill="midnightblue" stroke="midnightblue" points="921.89,-360.34 931.33,-355.52 920.95,-353.4 921.89,-360.34"/>
</g>
<!-- Node21 -->
<g id="node21" class="node">
<title>Node21</title>
<g id="a_node21"><a xlink:href="IRenderer_8hpp.html" target="_top" xlink:title=" ">
<polygon fill="white" stroke="black" points="28.5,-224.5 28.5,-243.5 159.5,-243.5 159.5,-224.5 28.5,-224.5"/>
<text text-anchor="middle" x="94" y="-231.5" font-family="Helvetica,sans-Serif" font-size="10.00">Renderer/IRenderer.hpp</text>
</a>
</g>
</g>
<!-- Node14&#45;&gt;Node21 -->
<g id="edge42" class="edge">
<title>Node14&#45;&gt;Node21</title>
<path fill="none" stroke="midnightblue" d="M568.29,-400.91C511.83,-399.87 383.14,-393.23 283,-356 213.9,-330.31 143.7,-276.5 111.77,-250.17"/>
<polygon fill="midnightblue" stroke="midnightblue" points="113.73,-247.24 103.81,-243.51 109.24,-252.61 113.73,-247.24"/>
</g>
<!-- Node22 -->
<g id="node22" class="node">
<title>Node22</title>
<g id="a_node22"><a xlink:href="Vector2_8hpp.html" target="_top" xlink:title=" ">
<polygon fill="white" stroke="black" points="543.5,-224.5 543.5,-243.5 656.5,-243.5 656.5,-224.5 543.5,-224.5"/>
<text text-anchor="middle" x="600" y="-231.5" font-family="Helvetica,sans-Serif" font-size="10.00">Models/Vector2.hpp</text>
</a>
</g>
</g>
<!-- Node14&#45;&gt;Node22 -->
<g id="edge46" class="edge">
<title>Node14&#45;&gt;Node22</title>
<path fill="none" stroke="midnightblue" d="M597.16,-392.08C597.63,-365.95 599.02,-289.21 599.66,-253.58"/>
<polygon fill="midnightblue" stroke="midnightblue" points="603.16,-253.63 599.85,-243.57 596.16,-253.5 603.16,-253.63"/>
</g>
<!-- Node25 -->
<g id="node25" class="node">
<title>Node25</title>
<g id="a_node25"><a xlink:title=" ">
<polygon fill="white" stroke="#bfbfbf" points="652,-336.5 652,-355.5 716,-355.5 716,-336.5 652,-336.5"/>
<text text-anchor="middle" x="684" y="-343.5" font-family="Helvetica,sans-Serif" font-size="10.00">algorithm</text>
</a>
</g>
</g>
<!-- Node14&#45;&gt;Node25 -->
<g id="edge49" class="edge">
<title>Node14&#45;&gt;Node25</title>
<path fill="none" stroke="midnightblue" d="M610.98,-392.32C624.55,-383.9 645.38,-370.97 661.32,-361.07"/>
<polygon fill="midnightblue" stroke="midnightblue" points="663.41,-363.9 670.06,-355.65 659.71,-357.95 663.41,-363.9"/>
</g>
<!-- Node26 -->
<g id="node26" class="node">
<title>Node26</title>
<g id="a_node26"><a xlink:href="Background_8hpp.html" target="_top" xlink:title=" ">
<polygon fill="white" stroke="black" points="389.5,-336.5 389.5,-355.5 484.5,-355.5 484.5,-336.5 389.5,-336.5"/>
<text text-anchor="middle" x="437" y="-343.5" font-family="Helvetica,sans-Serif" font-size="10.00">Background.hpp</text>
</a>
</g>
</g>
<!-- Node14&#45;&gt;Node26 -->
<g id="edge50" class="edge">
<title>Node14&#45;&gt;Node26</title>
<path fill="none" stroke="midnightblue" d="M568.44,-393.03C539.74,-384.06 495.98,-369.37 466.85,-359.01"/>
<polygon fill="midnightblue" stroke="midnightblue" points="467.8,-355.63 457.21,-355.54 465.43,-362.22 467.8,-355.63"/>
</g>
<!-- Node29 -->
<g id="node29" class="node">
<title>Node29</title>
<g id="a_node29"><a xlink:href="PPUUtils_8hpp.html" target="_top" xlink:title=" ">
<polygon fill="white" stroke="black" points="465,-280.5 465,-299.5 567,-299.5 567,-280.5 465,-280.5"/>
<text text-anchor="middle" x="516" y="-287.5" font-family="Helvetica,sans-Serif" font-size="10.00">PPU/PPUUtils.hpp</text>
</a>
</g>
</g>
<!-- Node14&#45;&gt;Node29 -->
<g id="edge66" class="edge">
<title>Node14&#45;&gt;Node29</title>
<path fill="none" stroke="midnightblue" d="M590.64,-392.37C577.22,-374.14 545.77,-331.43 528.28,-307.68"/>
<polygon fill="midnightblue" stroke="midnightblue" points="531.07,-305.57 522.33,-299.59 525.44,-309.72 531.07,-305.57"/>
</g>
<!-- Node32 -->
<g id="node32" class="node">
<title>Node32</title>
<g id="a_node32"><a xlink:href="PPURegisters_8hpp.html" target="_top" xlink:title=" ">
<polygon fill="white" stroke="black" points="734.5,-336.5 734.5,-355.5 859.5,-355.5 859.5,-336.5 734.5,-336.5"/>
<text text-anchor="middle" x="797" y="-343.5" font-family="Helvetica,sans-Serif" font-size="10.00">PPU/PPURegisters.hpp</text>
</a>
</g>
</g>
<!-- Node14&#45;&gt;Node32 -->
<g id="edge67" class="edge">
<title>Node14&#45;&gt;Node32</title>
<path fill="none" stroke="midnightblue" d="M625.66,-393.26C659.66,-384.08 716.64,-368.7 755.48,-358.21"/>
<polygon fill="midnightblue" stroke="midnightblue" points="756.69,-361.51 765.43,-355.52 754.86,-354.75 756.69,-361.51"/>
</g>
<!-- Node15&#45;&gt;Node4 -->
<g id="edge25" class="edge">
<title>Node15&#45;&gt;Node4</title>
<path fill="none" stroke="midnightblue" d="M951.51,-168.44C931.36,-159.6 899.68,-145.69 876.67,-135.59"/>
<polygon fill="midnightblue" stroke="midnightblue" points="877.96,-132.33 867.4,-131.52 875.15,-138.74 877.96,-132.33"/>
</g>
<!-- Node15&#45;&gt;Node5 -->
<g id="edge19" class="edge">
<title>Node15&#45;&gt;Node5</title>
<path fill="none" stroke="midnightblue" d="M987.71,-168.37C1024.81,-149.21 1114.22,-103.04 1158.41,-80.22"/>
<polygon fill="midnightblue" stroke="midnightblue" points="1160.08,-83.29 1167.36,-75.59 1156.87,-77.07 1160.08,-83.29"/>
</g>
<!-- Node15&#45;&gt;Node6 -->
<g id="edge20" class="edge">
<title>Node15&#45;&gt;Node6</title>
<path fill="none" stroke="midnightblue" d="M937.66,-168.46C902.98,-159.53 847.11,-145.03 799,-132 728.21,-112.82 645.55,-89.42 600.5,-76.58"/>
<polygon fill="midnightblue" stroke="midnightblue" points="601.25,-73.16 590.68,-73.78 599.33,-79.89 601.25,-73.16"/>
</g>
<!-- Node15&#45;&gt;Node7 -->
<g id="edge21" class="edge">
<title>Node15&#45;&gt;Node7</title>
<path fill="none" stroke="midnightblue" d="M976.61,-168.43C984.91,-155.84 1001.11,-131.71 1016,-112 1023.24,-102.42 1031.72,-92.04 1038.74,-83.67"/>
<polygon fill="midnightblue" stroke="midnightblue" points="1041.62,-85.68 1045.41,-75.79 1036.28,-81.16 1041.62,-85.68"/>
</g>
<!-- Node15&#45;&gt;Node8 -->
<g id="edge22" class="edge">
<title>Node15&#45;&gt;Node8</title>
<path fill="none" stroke="midnightblue" d="M907.3,-169.13C904.16,-168.75 901.04,-168.37 898,-168 764.25,-151.76 730.28,-151.69 597,-132 472.04,-113.54 324.33,-85.68 260.29,-73.31"/>
<polygon fill="midnightblue" stroke="midnightblue" points="260.88,-69.86 250.39,-71.39 259.54,-76.73 260.88,-69.86"/>
</g>
<!-- Node15&#45;&gt;Node9 -->
<g id="edge23" class="edge">
<title>Node15&#45;&gt;Node9</title>
<path fill="none" stroke="midnightblue" d="M963.19,-168.21C950.55,-154.44 924.23,-127.76 897,-112 870.52,-96.68 838.02,-85.52 811.9,-78.14"/>
<polygon fill="midnightblue" stroke="midnightblue" points="812.79,-74.76 802.22,-75.5 810.95,-81.51 812.79,-74.76"/>
</g>
<!-- Node15&#45;&gt;Node12 -->
<g id="edge24" class="edge">
<title>Node15&#45;&gt;Node12</title>
<path fill="none" stroke="midnightblue" d="M967.78,-168.37C961.14,-150.54 945.76,-109.3 936.81,-85.27"/>
<polygon fill="midnightblue" stroke="midnightblue" points="939.97,-83.74 933.2,-75.59 933.42,-86.18 939.97,-83.74"/>
</g>
<!-- Node16&#45;&gt;Node5 -->
<g id="edge39" class="edge">
<title>Node16&#45;&gt;Node5</title>
<path fill="none" stroke="midnightblue" d="M1064.44,-342C1103.04,-337.2 1149.83,-325.91 1184,-300 1210.31,-280.05 1220,-268.02 1220,-235 1220,-235 1220,-235 1220,-177 1220,-142.98 1204.26,-105.85 1193.59,-84.6"/>
<polygon fill="midnightblue" stroke="midnightblue" points="1196.59,-82.77 1188.86,-75.53 1190.38,-86.01 1196.59,-82.77"/>
</g>
<!-- Node16&#45;&gt;Node6 -->
<g id="edge41" class="edge">
<title>Node16&#45;&gt;Node6</title>
<path fill="none" stroke="midnightblue" d="M966.66,-336.5C939.25,-327.83 895.93,-313.74 859,-300 851.34,-297.15 592.09,-194.39 587,-188 563.44,-158.39 562.95,-111.58 564.86,-85.72"/>
<polygon fill="midnightblue" stroke="midnightblue" points="568.34,-86.02 565.79,-75.74 561.38,-85.37 568.34,-86.02"/>
</g>
<!-- Node16&#45;&gt;Node7 -->
<g id="edge40" class="edge">
<title>Node16&#45;&gt;Node7</title>
<path fill="none" stroke="midnightblue" d="M1064.34,-341.94C1098.16,-336.93 1136.93,-325.45 1163,-300 1184.54,-278.98 1182,-265.1 1182,-235 1182,-235 1182,-235 1182,-177 1182,-127.35 1125.98,-95.37 1087.77,-79.33"/>
<polygon fill="midnightblue" stroke="midnightblue" points="1089.07,-76.08 1078.49,-75.59 1086.46,-82.57 1089.07,-76.08"/>
</g>
<!-- Node16&#45;&gt;Node15 -->
<g id="edge27" class="edge">
<title>Node16&#45;&gt;Node15</title>
<path fill="none" stroke="midnightblue" d="M992.76,-336.08C989.14,-309.95 978.51,-233.21 973.57,-197.58"/>
<polygon fill="midnightblue" stroke="midnightblue" points="977.03,-196.99 972.19,-187.57 970.09,-197.95 977.03,-196.99"/>
</g>
<!-- Node17 -->
<g id="node17" class="node">
<title>Node17</title>
<g id="a_node17"><a xlink:href="RectangleShadow_8hpp.html" target="_top" xlink:title=" ">
<polygon fill="white" stroke="black" points="1030,-280.5 1030,-299.5 1154,-299.5 1154,-280.5 1030,-280.5"/>
<text text-anchor="middle" x="1092" y="-287.5" font-family="Helvetica,sans-Serif" font-size="10.00">RectangleShadow.hpp</text>
</a>
</g>
</g>
<!-- Node16&#45;&gt;Node17 -->
<g id="edge28" class="edge">
<title>Node16&#45;&gt;Node17</title>
<path fill="none" stroke="midnightblue" d="M1009.75,-336.32C1025.32,-327.74 1049.38,-314.49 1067.46,-304.52"/>
<polygon fill="midnightblue" stroke="midnightblue" points="1069.22,-307.55 1076.29,-299.65 1065.85,-301.42 1069.22,-307.55"/>
</g>
<!-- Node18 -->
<g id="node18" class="node">
<title>Node18</title>
<g id="a_node18"><a xlink:href="MemoryShadow_8hpp.html" target="_top" xlink:title=" ">
<polygon fill="white" stroke="black" points="998,-224.5 998,-243.5 1114,-243.5 1114,-224.5 998,-224.5"/>
<text text-anchor="middle" x="1056" y="-231.5" font-family="Helvetica,sans-Serif" font-size="10.00">MemoryShadow.hpp</text>
</a>
</g>
</g>
<!-- Node16&#45;&gt;Node18 -->
<g id="edge34" class="edge">
<title>Node16&#45;&gt;Node18</title>
<path fill="none" stroke="midnightblue" d="M996.8,-336.24C1001.08,-323.42 1009.93,-299.01 1021,-280 1026.84,-269.97 1034.67,-259.69 1041.45,-251.49"/>
<polygon fill="midnightblue" stroke="midnightblue" points="1044.18,-253.68 1048,-243.79 1038.85,-249.14 1044.18,-253.68"/>
</g>
<!-- Node19 -->
<g id="node19" class="node">
<title>Node19</title>
<g id="a_node19"><a xlink:href="IMemoryBus_8hpp.html" target="_top" xlink:title=" ">
<polygon fill="white" stroke="black" points="595.5,-168.5 595.5,-187.5 694.5,-187.5 694.5,-168.5 595.5,-168.5"/>
<text text-anchor="middle" x="645" y="-175.5" font-family="Helvetica,sans-Serif" font-size="10.00">IMemoryBus.hpp</text>
</a>
</g>
</g>
<!-- Node16&#45;&gt;Node19 -->
<g id="edge35" class="edge">
<title>Node16&#45;&gt;Node19</title>
<path fill="none" stroke="midnightblue" d="M975.73,-336.31C918.25,-308.97 740.87,-224.6 672.38,-192.02"/>
<polygon fill="midnightblue" stroke="midnightblue" points="673.63,-188.74 663.09,-187.61 670.62,-195.06 673.63,-188.74"/>
</g>
<!-- Node17&#45;&gt;Node3 -->
<g id="edge30" class="edge">
<title>Node17&#45;&gt;Node3</title>
<path fill="none" stroke="midnightblue" d="M1069.17,-280.37C1017.74,-260.93 892.73,-213.67 833.35,-191.23"/>
<polygon fill="midnightblue" stroke="midnightblue" points="834.32,-187.85 823.73,-187.59 831.84,-194.4 834.32,-187.85"/>
</g>
<!-- Node17&#45;&gt;Node7 -->
<g id="edge29" class="edge">
<title>Node17&#45;&gt;Node7</title>
<path fill="none" stroke="midnightblue" d="M1100.48,-280.23C1108.05,-271.75 1118.6,-258.13 1123,-244 1125.64,-235.51 1124.38,-232.78 1123,-224 1114.9,-172.34 1111.1,-158.4 1087,-112 1081.71,-101.81 1074.13,-91.51 1067.47,-83.35"/>
<polygon fill="midnightblue" stroke="midnightblue" points="1070.13,-81.07 1061,-75.7 1064.79,-85.59 1070.13,-81.07"/>
</g>
<!-- Node17&#45;&gt;Node18 -->
<g id="edge31" class="edge">
<title>Node17&#45;&gt;Node18</title>
<path fill="none" stroke="midnightblue" d="M1086.06,-280.08C1081.02,-272.53 1073.66,-261.49 1067.49,-252.23"/>
<polygon fill="midnightblue" stroke="midnightblue" points="1070.29,-250.13 1061.83,-243.75 1064.47,-254.01 1070.29,-250.13"/>
</g>
<!-- Node18&#45;&gt;Node7 -->
<g id="edge32" class="edge">
<title>Node18&#45;&gt;Node7</title>
<path fill="none" stroke="midnightblue" d="M1061.38,-224.44C1066.56,-215.68 1074.01,-201.47 1077,-188 1085.08,-151.56 1071.03,-108.65 1061.24,-84.97"/>
<polygon fill="midnightblue" stroke="midnightblue" points="1064.34,-83.31 1057.14,-75.54 1057.92,-86.1 1064.34,-83.31"/>
</g>
<!-- Node18&#45;&gt;Node15 -->
<g id="edge33" class="edge">
<title>Node18&#45;&gt;Node15</title>
<path fill="none" stroke="midnightblue" d="M1042.34,-224.32C1029.08,-215.9 1008.73,-202.97 993.15,-193.07"/>
<polygon fill="midnightblue" stroke="midnightblue" points="994.94,-190.06 984.62,-187.65 991.19,-195.97 994.94,-190.06"/>
</g>
<!-- Node19&#45;&gt;Node4 -->
<g id="edge38" class="edge">
<title>Node19&#45;&gt;Node4</title>
<path fill="none" stroke="midnightblue" d="M677.17,-168.44C712.06,-159.16 767.89,-144.31 806.17,-134.13"/>
<polygon fill="midnightblue" stroke="midnightblue" points="807.22,-137.47 815.98,-131.52 805.42,-130.7 807.22,-137.47"/>
</g>
<!-- Node19&#45;&gt;Node10 -->
<g id="edge36" class="edge">
<title>Node19&#45;&gt;Node10</title>
<path fill="none" stroke="midnightblue" d="M650.42,-168.17C655.86,-159.19 664.35,-144.81 671,-132 689.67,-96.03 709,-52.66 719.35,-28.84"/>
<polygon fill="midnightblue" stroke="midnightblue" points="722.57,-30.2 723.32,-19.64 716.15,-27.43 722.57,-30.2"/>
</g>
<!-- Node20 -->
<g id="node20" class="node">
<title>Node20</title>
<g id="a_node20"><a xlink:title=" ">
<polygon fill="white" stroke="#bfbfbf" points="606,-112.5 606,-131.5 662,-131.5 662,-112.5 606,-112.5"/>
<text text-anchor="middle" x="634" y="-119.5" font-family="Helvetica,sans-Serif" font-size="10.00">optional</text>
</a>
</g>
</g>
<!-- Node19&#45;&gt;Node20 -->
<g id="edge37" class="edge">
<title>Node19&#45;&gt;Node20</title>
<path fill="none" stroke="midnightblue" d="M643.18,-168.08C641.73,-160.93 639.63,-150.64 637.81,-141.69"/>
<polygon fill="midnightblue" stroke="midnightblue" points="641.21,-140.85 635.78,-131.75 634.35,-142.25 641.21,-140.85"/>
</g>
<!-- Node21&#45;&gt;Node8 -->
<g id="edge43" class="edge">
<title>Node21&#45;&gt;Node8</title>
<path fill="none" stroke="midnightblue" d="M94.96,-224.37C96.75,-211.29 101.5,-186.05 113,-168 137.01,-130.31 179.1,-98.55 205.16,-81.2"/>
<polygon fill="midnightblue" stroke="midnightblue" points="207.18,-84.06 213.65,-75.67 203.36,-78.19 207.18,-84.06"/>
</g>
<!-- Node21&#45;&gt;Node13 -->
<g id="edge44" class="edge">
<title>Node21&#45;&gt;Node13</title>
<path fill="none" stroke="midnightblue" d="M101.93,-224.08C108.85,-216.3 119.07,-204.8 127.45,-195.37"/>
<polygon fill="midnightblue" stroke="midnightblue" points="130.19,-197.55 134.22,-187.75 124.96,-192.9 130.19,-197.55"/>
</g>
<!-- Node23 -->
<g id="node23" class="node">
<title>Node23</title>
<g id="a_node23"><a xlink:title=" ">
<polygon fill="white" stroke="#bfbfbf" points="481.5,-168.5 481.5,-187.5 538.5,-187.5 538.5,-168.5 481.5,-168.5"/>
<text text-anchor="middle" x="510" y="-175.5" font-family="Helvetica,sans-Serif" font-size="10.00">ostream</text>
</a>
</g>
</g>
<!-- Node22&#45;&gt;Node23 -->
<g id="edge47" class="edge">
<title>Node22&#45;&gt;Node23</title>
<path fill="none" stroke="midnightblue" d="M585.54,-224.32C571.5,-215.9 549.95,-202.97 533.46,-193.07"/>
<polygon fill="midnightblue" stroke="midnightblue" points="534.8,-189.8 524.42,-187.65 531.2,-195.8 534.8,-189.8"/>
</g>
<!-- Node24 -->
<g id="node24" class="node">
<title>Node24</title>
<g id="a_node24"><a xlink:title=" ">
<polygon fill="white" stroke="#bfbfbf" points="320.5,-168.5 320.5,-187.5 463.5,-187.5 463.5,-168.5 320.5,-168.5"/>
<text text-anchor="middle" x="392" y="-175.5" font-family="Helvetica,sans-Serif" font-size="10.00">SFML/System/Vector2.hpp</text>
</a>
</g>
</g>
<!-- Node22&#45;&gt;Node24 -->
<g id="edge48" class="edge">
<title>Node22&#45;&gt;Node24</title>
<path fill="none" stroke="midnightblue" d="M567.04,-224.44C531.21,-215.14 473.84,-200.25 434.61,-190.06"/>
<polygon fill="midnightblue" stroke="midnightblue" points="435.36,-186.64 424.8,-187.52 433.6,-193.42 435.36,-186.64"/>
</g>
<!-- Node26&#45;&gt;Node2 -->
<g id="edge58" class="edge">
<title>Node26&#45;&gt;Node2</title>
<path fill="none" stroke="midnightblue" d="M389.49,-339.07C339.81,-331.99 266.17,-318.7 245,-300 231.64,-288.19 225.7,-268.27 223.08,-253.59"/>
<polygon fill="midnightblue" stroke="midnightblue" points="226.53,-253 221.64,-243.6 219.6,-253.99 226.53,-253"/>
</g>
<!-- Node26&#45;&gt;Node6 -->
<g id="edge52" class="edge">
<title>Node26&#45;&gt;Node6</title>
<path fill="none" stroke="midnightblue" d="M389.35,-337.94C347.59,-330.65 291.5,-317.85 278,-300 271.77,-291.76 286.24,-195.08 311,-168 370.85,-102.55 478.5,-78.91 533.17,-70.86"/>
<polygon fill="midnightblue" stroke="midnightblue" points="533.94,-74.29 543.36,-69.45 532.98,-67.36 533.94,-74.29"/>
</g>
<!-- Node26&#45;&gt;Node11 -->
<g id="edge53" class="edge">
<title>Node26&#45;&gt;Node11</title>
<path fill="none" stroke="midnightblue" d="M389.4,-343.06C276.14,-337.16 0,-314.6 0,-235 0,-235 0,-235 0,-121 0,-66.27 178.21,-30.56 259.93,-17.06"/>
<polygon fill="midnightblue" stroke="midnightblue" points="260.55,-20.51 269.86,-15.45 259.43,-13.6 260.55,-20.51"/>
</g>
<!-- Node26&#45;&gt;Node14 -->
<g id="edge59" class="edge">
<title>Node26&#45;&gt;Node14</title>
<path fill="none" stroke="midnightblue" d="M467.31,-355.52C496.06,-364.55 538.74,-378.88 567.28,-389.04"/>
<polygon fill="midnightblue" stroke="midnightblue" points="566.14,-392.35 576.74,-392.44 568.51,-385.76 566.14,-392.35"/>
</g>
<!-- Node26&#45;&gt;Node22 -->
<g id="edge54" class="edge">
<title>Node26&#45;&gt;Node22</title>
<path fill="none" stroke="midnightblue" d="M484.58,-340.18C514.27,-334.85 551.39,-323.63 576,-300 588.6,-287.9 594.63,-268.62 597.48,-254.19"/>
<polygon fill="midnightblue" stroke="midnightblue" points="601.01,-254.33 599.16,-243.89 594.1,-253.2 601.01,-254.33"/>
</g>
<!-- Node27 -->
<g id="node27" class="node">
<title>Node27</title>
<g id="a_node27"><a xlink:title=" ">
<polygon fill="white" stroke="#bfbfbf" points="320,-224.5 320,-243.5 362,-243.5 362,-224.5 320,-224.5"/>
<text text-anchor="middle" x="341" y="-231.5" font-family="Helvetica,sans-Serif" font-size="10.00">array</text>
</a>
</g>
</g>
<!-- Node26&#45;&gt;Node27 -->
<g id="edge51" class="edge">
<title>Node26&#45;&gt;Node27</title>
<path fill="none" stroke="midnightblue" d="M436.46,-336.07C435.22,-322.6 431.17,-296.86 418,-280 406.16,-264.84 387.68,-253.8 371.79,-246.45"/>
<polygon fill="midnightblue" stroke="midnightblue" points="372.89,-243.11 362.32,-242.34 370.1,-249.53 372.89,-243.11"/>
</g>
<!-- Node28 -->
<g id="node28" class="node">
<title>Node28</title>
<g id="a_node28"><a xlink:href="TileRenderer_8hpp.html" target="_top" xlink:title=" ">
<polygon fill="white" stroke="black" points="287,-280.5 287,-299.5 409,-299.5 409,-280.5 287,-280.5"/>
<text text-anchor="middle" x="348" y="-287.5" font-family="Helvetica,sans-Serif" font-size="10.00">PPU/TileRenderer.hpp</text>
</a>
</g>
</g>
<!-- Node26&#45;&gt;Node28 -->
<g id="edge55" class="edge">
<title>Node26&#45;&gt;Node28</title>
<path fill="none" stroke="midnightblue" d="M422.7,-336.32C408.82,-327.9 387.51,-314.97 371.2,-305.07"/>
<polygon fill="midnightblue" stroke="midnightblue" points="372.63,-301.85 362.26,-299.65 369,-307.83 372.63,-301.85"/>
</g>
<!-- Node26&#45;&gt;Node29 -->
<g id="edge60" class="edge">
<title>Node26&#45;&gt;Node29</title>
<path fill="none" stroke="midnightblue" d="M449.69,-336.32C461.9,-327.98 480.58,-315.21 495,-305.35"/>
<polygon fill="midnightblue" stroke="midnightblue" points="497.06,-308.19 503.34,-299.65 493.11,-302.41 497.06,-308.19"/>
</g>
<!-- Node28&#45;&gt;Node2 -->
<g id="edge57" class="edge">
<title>Node28&#45;&gt;Node2</title>
<path fill="none" stroke="midnightblue" d="M327.88,-280.44C306.98,-271.56 274.07,-257.56 250.28,-247.45"/>
<polygon fill="midnightblue" stroke="midnightblue" points="251.6,-244.21 241.03,-243.52 248.86,-250.65 251.6,-244.21"/>
</g>
<!-- Node28&#45;&gt;Node27 -->
<g id="edge56" class="edge">
<title>Node28&#45;&gt;Node27</title>
<path fill="none" stroke="midnightblue" d="M346.84,-280.08C345.92,-272.93 344.58,-262.64 343.42,-253.69"/>
<polygon fill="midnightblue" stroke="midnightblue" points="346.89,-253.22 342.13,-243.75 339.95,-254.12 346.89,-253.22"/>
</g>
<!-- Node29&#45;&gt;Node7 -->
<g id="edge63" class="edge">
<title>Node29&#45;&gt;Node7</title>
<path fill="none" stroke="midnightblue" d="M567.3,-286.85C687.35,-280.68 981.12,-258.54 1044,-188 1069.14,-159.79 1063.47,-111.71 1057.82,-85.45"/>
<polygon fill="midnightblue" stroke="midnightblue" points="1061.21,-84.57 1055.49,-75.66 1054.4,-86.19 1061.21,-84.57"/>
</g>
<!-- Node29&#45;&gt;Node22 -->
<g id="edge65" class="edge">
<title>Node29&#45;&gt;Node22</title>
<path fill="none" stroke="midnightblue" d="M529.5,-280.32C542.6,-271.9 562.71,-258.97 578.11,-249.07"/>
<polygon fill="midnightblue" stroke="midnightblue" points="580.02,-252.01 586.54,-243.65 576.23,-246.12 580.02,-252.01"/>
</g>
<!-- Node29&#45;&gt;Node27 -->
<g id="edge64" class="edge">
<title>Node29&#45;&gt;Node27</title>
<path fill="none" stroke="midnightblue" d="M488.27,-280.44C456.48,-270.63 404.52,-254.6 371.58,-244.44"/>
<polygon fill="midnightblue" stroke="midnightblue" points="372.6,-241.09 362.01,-241.48 370.53,-247.78 372.6,-241.09"/>
</g>
<!-- Node30 -->
<g id="node30" class="node">
<title>Node30</title>
<g id="a_node30"><a xlink:title=" ">
<polygon fill="white" stroke="#bfbfbf" points="380,-224.5 380,-243.5 454,-243.5 454,-224.5 380,-224.5"/>
<text text-anchor="middle" x="417" y="-231.5" font-family="Helvetica,sans-Serif" font-size="10.00">stdint&#45;gcc.h</text>
</a>
</g>
</g>
<!-- Node29&#45;&gt;Node30 -->
<g id="edge61" class="edge">
<title>Node29&#45;&gt;Node30</title>
<path fill="none" stroke="midnightblue" d="M500.09,-280.32C484.36,-271.74 460.06,-258.49 441.79,-248.52"/>
<polygon fill="midnightblue" stroke="midnightblue" points="443.32,-245.37 432.87,-243.65 439.97,-251.52 443.32,-245.37"/>
</g>
<!-- Node31 -->
<g id="node31" class="node">
<title>Node31</title>
<g id="a_node31"><a xlink:title=" ">
<polygon fill="white" stroke="#bfbfbf" points="472.5,-224.5 472.5,-243.5 525.5,-243.5 525.5,-224.5 472.5,-224.5"/>
<text text-anchor="middle" x="499" y="-231.5" font-family="Helvetica,sans-Serif" font-size="10.00">cstddef</text>
</a>
</g>
</g>
<!-- Node29&#45;&gt;Node31 -->
<g id="edge62" class="edge">
<title>Node29&#45;&gt;Node31</title>
<path fill="none" stroke="midnightblue" d="M513.19,-280.08C510.92,-272.85 507.63,-262.41 504.79,-253.4"/>
<polygon fill="midnightblue" stroke="midnightblue" points="508.1,-252.24 501.75,-243.75 501.42,-254.34 508.1,-252.24"/>
</g>
</g>
</svg>
