<?xml version="1.0" encoding="UTF-8" standalone="no"?>
<!DOCTYPE svg PUBLIC "-//W3C//DTD SVG 1.1//EN"
 "http://www.w3.org/Graphics/SVG/1.1/DTD/svg11.dtd">
<!-- Generated by graphviz version 2.43.0 (0)
 -->
<!-- Title: sources/PPU/PPURegisters.hpp Pages: 1 -->
<svg width="3917pt" height="285pt"
 viewBox="0.00 0.00 3917.00 285.00" xmlns="http://www.w3.org/2000/svg" xmlns:xlink="http://www.w3.org/1999/xlink">
<g id="graph0" class="graph" transform="scale(1 1) rotate(0) translate(4 281)">
<title>sources/PPU/PPURegisters.hpp</title>
<polygon fill="white" stroke="transparent" points="-4,4 -4,-281 3913,-281 3913,4 -4,4"/>
<!-- Node1 -->
<g id="node1" class="node">
<title>Node1</title>
<g id="a_node1"><a xlink:title=" ">
<polygon fill="#bfbfbf" stroke="black" points="3178.5,-257.5 3178.5,-276.5 3344.5,-276.5 3344.5,-257.5 3178.5,-257.5"/>
<text text-anchor="middle" x="3261.5" y="-264.5" font-family="Helvetica,sans-Serif" font-size="10.00">sources/PPU/PPURegisters.hpp</text>
</a>
</g>
</g>
<!-- Node2 -->
<g id="node2" class="node">
<title>Node2</title>
<g id="a_node2"><a xlink:href="PPU_8hpp.html" target="_top" xlink:title=" ">
<polygon fill="white" stroke="black" points="3201.5,-201.5 3201.5,-220.5 3321.5,-220.5 3321.5,-201.5 3201.5,-201.5"/>
<text text-anchor="middle" x="3261.5" y="-208.5" font-family="Helvetica,sans-Serif" font-size="10.00">sources/PPU/PPU.hpp</text>
</a>
</g>
</g>
<!-- Node1&#45;&gt;Node2 -->
<g id="edge1" class="edge">
<title>Node1&#45;&gt;Node2</title>
<path fill="none" stroke="midnightblue" d="M3261.5,-246.8C3261.5,-237.91 3261.5,-227.78 3261.5,-220.75"/>
<polygon fill="midnightblue" stroke="midnightblue" points="3258,-247.08 3261.5,-257.08 3265,-247.08 3258,-247.08"/>
</g>
<!-- Node3 -->
<g id="node3" class="node">
<title>Node3</title>
<g id="a_node3"><a xlink:href="CGramDebug_8hpp.html" target="_top" xlink:title=" ">
<polygon fill="white" stroke="black" points="94.5,-140 94.5,-159 288.5,-159 288.5,-140 94.5,-140"/>
<text text-anchor="middle" x="191.5" y="-147" font-family="Helvetica,sans-Serif" font-size="10.00">sources/Debugger/CGramDebug.hpp</text>
</a>
</g>
</g>
<!-- Node2&#45;&gt;Node3 -->
<g id="edge2" class="edge">
<title>Node2&#45;&gt;Node3</title>
<path fill="none" stroke="midnightblue" d="M3191.05,-208.95C2894.32,-204.46 1717.02,-186.24 749.5,-165 587.82,-161.45 399.82,-156.37 288.52,-153.26"/>
<polygon fill="midnightblue" stroke="midnightblue" points="3191.18,-212.45 3201.23,-209.1 3191.28,-205.45 3191.18,-212.45"/>
</g>
<!-- Node5 -->
<g id="node5" class="node">
<title>Node5</title>
<g id="a_node5"><a xlink:href="TileViewer_8hpp.html" target="_top" xlink:title=" ">
<polygon fill="white" stroke="black" points="759,-134.5 759,-164.5 918,-164.5 918,-134.5 759,-134.5"/>
<text text-anchor="start" x="767" y="-152.5" font-family="Helvetica,sans-Serif" font-size="10.00">sources/Debugger/TileViewer</text>
<text text-anchor="middle" x="838.5" y="-141.5" font-family="Helvetica,sans-Serif" font-size="10.00">/TileViewer.hpp</text>
</a>
</g>
</g>
<!-- Node2&#45;&gt;Node5 -->
<g id="edge4" class="edge">
<title>Node2&#45;&gt;Node5</title>
<path fill="none" stroke="midnightblue" d="M3190.97,-209.1C2924.86,-205.58 1956.28,-191.61 1158.5,-165 1076.52,-162.27 982.77,-157.87 918.04,-154.63"/>
<polygon fill="midnightblue" stroke="midnightblue" points="3191.21,-212.61 3201.26,-209.24 3191.31,-205.61 3191.21,-212.61"/>
</g>
<!-- Node6 -->
<g id="node6" class="node">
<title>Node6</title>
<g id="a_node6"><a xlink:href="TileViewer_8cpp.html" target="_top" xlink:title=" ">
<polygon fill="white" stroke="black" points="211,-67.5 211,-97.5 370,-97.5 370,-67.5 211,-67.5"/>
<text text-anchor="start" x="219" y="-85.5" font-family="Helvetica,sans-Serif" font-size="10.00">sources/Debugger/TileViewer</text>
<text text-anchor="middle" x="290.5" y="-74.5" font-family="Helvetica,sans-Serif" font-size="10.00">/TileViewer.cpp</text>
</a>
</g>
</g>
<!-- Node2&#45;&gt;Node6 -->
<g id="edge6" class="edge">
<title>Node2&#45;&gt;Node6</title>
<path fill="none" stroke="midnightblue" d="M3191.2,-209.88C2937,-209.12 2041.77,-203.67 1304.5,-165 1136.17,-156.17 1094.61,-146.42 926.5,-134 683.53,-116.04 621.57,-125.62 379.5,-98 376.39,-97.65 373.22,-97.26 370.02,-96.84"/>
<polygon fill="midnightblue" stroke="midnightblue" points="3191.39,-213.38 3201.4,-209.91 3191.41,-206.38 3191.39,-213.38"/>
</g>
<!-- Node7 -->
<g id="node7" class="node">
<title>Node7</title>
<g id="a_node7"><a xlink:href="SNES_8hpp.html" target="_top" xlink:title=" ">
<polygon fill="white" stroke="black" points="1313.5,-140 1313.5,-159 1417.5,-159 1417.5,-140 1313.5,-140"/>
<text text-anchor="middle" x="1365.5" y="-147" font-family="Helvetica,sans-Serif" font-size="10.00">sources/SNES.hpp</text>
</a>
</g>
</g>
<!-- Node2&#45;&gt;Node7 -->
<g id="edge7" class="edge">
<title>Node2&#45;&gt;Node7</title>
<path fill="none" stroke="midnightblue" d="M3191.34,-207.8C2886.84,-198.24 1683.27,-160.47 1417.58,-152.13"/>
<polygon fill="midnightblue" stroke="midnightblue" points="3191.26,-211.3 3201.36,-208.11 3191.48,-204.3 3191.26,-211.3"/>
</g>
<!-- Node35 -->
<g id="node35" class="node">
<title>Node35</title>
<g id="a_node35"><a xlink:href="testBackground_8cpp.html" target="_top" xlink:title=" ">
<polygon fill="white" stroke="black" points="2646,-6 2646,-25 2809,-25 2809,-6 2646,-6"/>
<text text-anchor="middle" x="2727.5" y="-13" font-family="Helvetica,sans-Serif" font-size="10.00">tests/PPU/testBackground.cpp</text>
</a>
</g>
</g>
<!-- Node2&#45;&gt;Node35 -->
<g id="edge68" class="edge">
<title>Node2&#45;&gt;Node35</title>
<path fill="none" stroke="midnightblue" d="M3231.99,-196.99C3214.85,-188.85 3193.2,-177.54 3175.5,-165 3172.24,-162.69 3074.09,-68.73 3070.5,-67 3025.69,-45.43 2895.81,-30.67 2809.36,-22.91"/>
<polygon fill="midnightblue" stroke="midnightblue" points="3230.96,-200.37 3241.51,-201.41 3233.91,-194.02 3230.96,-200.37"/>
</g>
<!-- Node36 -->
<g id="node36" class="node">
<title>Node36</title>
<g id="a_node36"><a xlink:href="testPpuRead_8cpp.html" target="_top" xlink:title=" ">
<polygon fill="white" stroke="black" points="2907.5,-6 2907.5,-25 3055.5,-25 3055.5,-6 2907.5,-6"/>
<text text-anchor="middle" x="2981.5" y="-13" font-family="Helvetica,sans-Serif" font-size="10.00">tests/PPU/testPpuRead.cpp</text>
</a>
</g>
</g>
<!-- Node2&#45;&gt;Node36 -->
<g id="edge69" class="edge">
<title>Node2&#45;&gt;Node36</title>
<path fill="none" stroke="midnightblue" d="M3245.45,-194.36C3216.11,-166.32 3151.04,-106.72 3088.5,-67 3060.76,-49.38 3025.9,-34.06 3003.65,-25.04"/>
<polygon fill="midnightblue" stroke="midnightblue" points="3243.12,-196.97 3252.75,-201.39 3247.98,-191.93 3243.12,-196.97"/>
</g>
<!-- Node37 -->
<g id="node37" class="node">
<title>Node37</title>
<g id="a_node37"><a xlink:href="testPpuWrite_8cpp.html" target="_top" xlink:title=" ">
<polygon fill="white" stroke="black" points="3074,-6 3074,-25 3223,-25 3223,-6 3074,-6"/>
<text text-anchor="middle" x="3148.5" y="-13" font-family="Helvetica,sans-Serif" font-size="10.00">tests/PPU/testPpuWrite.cpp</text>
</a>
</g>
</g>
<!-- Node2&#45;&gt;Node37 -->
<g id="edge70" class="edge">
<title>Node2&#45;&gt;Node37</title>
<path fill="none" stroke="midnightblue" d="M3251.33,-192.58C3227.97,-152.58 3171.17,-55.33 3153.7,-25.41"/>
<polygon fill="midnightblue" stroke="midnightblue" points="3248.43,-194.57 3256.5,-201.44 3254.48,-191.04 3248.43,-194.57"/>
</g>
<!-- Node38 -->
<g id="node38" class="node">
<title>Node38</title>
<g id="a_node38"><a xlink:href="testPpuWriteFromVmain_8cpp.html" target="_top" xlink:title=" ">
<polygon fill="white" stroke="black" points="3241.5,-0.5 3241.5,-30.5 3395.5,-30.5 3395.5,-0.5 3241.5,-0.5"/>
<text text-anchor="start" x="3249.5" y="-18.5" font-family="Helvetica,sans-Serif" font-size="10.00">tests/PPU/testPpuWriteFrom</text>
<text text-anchor="middle" x="3318.5" y="-7.5" font-family="Helvetica,sans-Serif" font-size="10.00">Vmain.cpp</text>
</a>
</g>
</g>
<!-- Node2&#45;&gt;Node38 -->
<g id="edge71" class="edge">
<title>Node2&#45;&gt;Node38</title>
<path fill="none" stroke="midnightblue" d="M3266.92,-191.6C3278.24,-153.16 3304.2,-65.04 3314.34,-30.63"/>
<polygon fill="midnightblue" stroke="midnightblue" points="3263.49,-190.85 3264.02,-201.44 3270.21,-192.83 3263.49,-190.85"/>
</g>
<!-- Node41 -->
<g id="node41" class="node">
<title>Node41</title>
<g id="a_node41"><a xlink:href="Background_8hpp.html" target="_top" xlink:title=" ">
<polygon fill="white" stroke="black" points="3365.5,-140 3365.5,-159 3523.5,-159 3523.5,-140 3365.5,-140"/>
<text text-anchor="middle" x="3444.5" y="-147" font-family="Helvetica,sans-Serif" font-size="10.00">sources/PPU/Background.hpp</text>
</a>
</g>
</g>
<!-- Node2&#45;&gt;Node41 -->
<g id="edge59" class="edge">
<title>Node2&#45;&gt;Node41</title>
<path fill="none" stroke="midnightblue" d="M3292.62,-198.08C3326.38,-186.52 3379.69,-169.25 3413.43,-159.01"/>
<polygon fill="midnightblue" stroke="midnightblue" points="3291.12,-194.9 3282.82,-201.48 3293.41,-201.51 3291.12,-194.9"/>
</g>
<!-- Node42 -->
<g id="node42" class="node">
<title>Node42</title>
<g id="a_node42"><a xlink:href="Background_8cpp.html" target="_top" xlink:title=" ">
<polygon fill="white" stroke="black" points="3346.5,-73 3346.5,-92 3504.5,-92 3504.5,-73 3346.5,-73"/>
<text text-anchor="middle" x="3425.5" y="-80" font-family="Helvetica,sans-Serif" font-size="10.00">sources/PPU/Background.cpp</text>
</a>
</g>
</g>
<!-- Node2&#45;&gt;Node42 -->
<g id="edge63" class="edge">
<title>Node2&#45;&gt;Node42</title>
<path fill="none" stroke="midnightblue" d="M3279.78,-194.99C3298.77,-179.49 3329.45,-154.71 3356.5,-134 3376.19,-118.93 3399.55,-102.03 3413.42,-92.1"/>
<polygon fill="midnightblue" stroke="midnightblue" points="3277.45,-192.38 3271.93,-201.42 3281.88,-197.79 3277.45,-192.38"/>
</g>
<!-- Node43 -->
<g id="node43" class="node">
<title>Node43</title>
<g id="a_node43"><a xlink:href="PPU_8cpp.html" target="_top" xlink:title=" ">
<polygon fill="white" stroke="black" points="3523,-73 3523,-92 3642,-92 3642,-73 3523,-73"/>
<text text-anchor="middle" x="3582.5" y="-80" font-family="Helvetica,sans-Serif" font-size="10.00">sources/PPU/PPU.cpp</text>
</a>
</g>
</g>
<!-- Node2&#45;&gt;Node43 -->
<g id="edge64" class="edge">
<title>Node2&#45;&gt;Node43</title>
<path fill="none" stroke="midnightblue" d="M3332.01,-204.92C3401.11,-198.78 3500.56,-186.5 3532.5,-165 3559.35,-146.92 3574.31,-109.1 3579.91,-92.1"/>
<polygon fill="midnightblue" stroke="midnightblue" points="3331.28,-201.47 3321.62,-205.82 3331.89,-208.44 3331.28,-201.47"/>
</g>
<!-- Node44 -->
<g id="node44" class="node">
<title>Node44</title>
<g id="a_node44"><a xlink:href="PpuDebug_8hpp.html" target="_top" xlink:title=" ">
<polygon fill="white" stroke="black" points="3579.5,-140 3579.5,-159 3729.5,-159 3729.5,-140 3579.5,-140"/>
<text text-anchor="middle" x="3654.5" y="-147" font-family="Helvetica,sans-Serif" font-size="10.00">sources/PPU/PpuDebug.hpp</text>
</a>
</g>
</g>
<!-- Node2&#45;&gt;Node44 -->
<g id="edge65" class="edge">
<title>Node2&#45;&gt;Node44</title>
<path fill="none" stroke="midnightblue" d="M3330.96,-200.01C3392.6,-191.08 3485.1,-177.5 3565.5,-165 3577.57,-163.12 3590.54,-161.05 3602.75,-159.06"/>
<polygon fill="midnightblue" stroke="midnightblue" points="3330.35,-196.56 3320.96,-201.46 3331.35,-203.49 3330.35,-196.56"/>
</g>
<!-- Node46 -->
<g id="node46" class="node">
<title>Node46</title>
<g id="a_node46"><a xlink:href="TileRenderer_8cpp.html" target="_top" xlink:title=" ">
<polygon fill="white" stroke="black" points="3748,-140 3748,-159 3909,-159 3909,-140 3748,-140"/>
<text text-anchor="middle" x="3828.5" y="-147" font-family="Helvetica,sans-Serif" font-size="10.00">sources/PPU/TileRenderer.cpp</text>
</a>
</g>
</g>
<!-- Node2&#45;&gt;Node46 -->
<g id="edge67" class="edge">
<title>Node2&#45;&gt;Node46</title>
<path fill="none" stroke="midnightblue" d="M3331.65,-204.83C3424.8,-197.64 3594.35,-183.39 3738.5,-165 3751.69,-163.32 3765.91,-161.18 3779.07,-159.06"/>
<polygon fill="midnightblue" stroke="midnightblue" points="3331.21,-201.36 3321.5,-205.61 3331.74,-208.34 3331.21,-201.36"/>
</g>
<!-- Node4 -->
<g id="node4" class="node">
<title>Node4</title>
<g id="a_node4"><a xlink:href="CGramDebug_8cpp.html" target="_top" xlink:title=" ">
<polygon fill="white" stroke="black" points="0,-73 0,-92 193,-92 193,-73 0,-73"/>
<text text-anchor="middle" x="96.5" y="-80" font-family="Helvetica,sans-Serif" font-size="10.00">sources/Debugger/CGramDebug.cpp</text>
</a>
</g>
</g>
<!-- Node3&#45;&gt;Node4 -->
<g id="edge3" class="edge">
<title>Node3&#45;&gt;Node4</title>
<path fill="none" stroke="midnightblue" d="M170.19,-133.92C151.41,-121.07 124.68,-102.78 109.11,-92.13"/>
<polygon fill="midnightblue" stroke="midnightblue" points="168.46,-136.98 178.69,-139.73 172.41,-131.2 168.46,-136.98"/>
</g>
<!-- Node5&#45;&gt;Node6 -->
<g id="edge5" class="edge">
<title>Node5&#45;&gt;Node6</title>
<path fill="none" stroke="midnightblue" d="M748.56,-140C655.9,-130.91 507.36,-115.44 379.5,-98 376.4,-97.58 373.24,-97.13 370.05,-96.67"/>
<polygon fill="midnightblue" stroke="midnightblue" points="748.45,-143.5 758.74,-140.99 749.13,-136.54 748.45,-143.5"/>
</g>
<!-- Node7&#45;&gt;Node4 -->
<g id="edge9" class="edge">
<title>Node7&#45;&gt;Node4</title>
<path fill="none" stroke="midnightblue" d="M1303.22,-146.57C1094.16,-139.98 418.43,-117.64 201.5,-98 185.1,-96.51 167.33,-94.3 151.16,-92.04"/>
<polygon fill="midnightblue" stroke="midnightblue" points="1303.3,-150.08 1313.41,-146.89 1303.52,-143.08 1303.3,-150.08"/>
</g>
<!-- Node7&#45;&gt;Node6 -->
<g id="edge16" class="edge">
<title>Node7&#45;&gt;Node6</title>
<path fill="none" stroke="midnightblue" d="M1303.09,-142.89C1268.71,-139.93 1225.27,-136.43 1186.5,-134 828.18,-111.5 736.62,-134.93 379.5,-98 376.39,-97.68 373.21,-97.32 370.01,-96.93"/>
<polygon fill="midnightblue" stroke="midnightblue" points="1303.18,-146.41 1313.45,-143.78 1303.79,-139.43 1303.18,-146.41"/>
</g>
<!-- Node8 -->
<g id="node8" class="node">
<title>Node8</title>
<g id="a_node8"><a xlink:href="APUDebug_8cpp.html" target="_top" xlink:title=" ">
<polygon fill="white" stroke="black" points="1451,-73 1451,-92 1630,-92 1630,-73 1451,-73"/>
<text text-anchor="middle" x="1540.5" y="-80" font-family="Helvetica,sans-Serif" font-size="10.00">sources/Debugger/APUDebug.cpp</text>
</a>
</g>
</g>
<!-- Node7&#45;&gt;Node8 -->
<g id="edge8" class="edge">
<title>Node7&#45;&gt;Node8</title>
<path fill="none" stroke="midnightblue" d="M1398.43,-136.27C1433.16,-123.37 1486.99,-103.38 1517.44,-92.06"/>
<polygon fill="midnightblue" stroke="midnightblue" points="1396.89,-133.11 1388.74,-139.87 1399.33,-139.67 1396.89,-133.11"/>
</g>
<!-- Node9 -->
<g id="node9" class="node">
<title>Node9</title>
<g id="a_node9"><a xlink:href="CPUDebug_8cpp.html" target="_top" xlink:title=" ">
<polygon fill="white" stroke="black" points="1686.5,-67.5 1686.5,-97.5 1814.5,-97.5 1814.5,-67.5 1686.5,-67.5"/>
<text text-anchor="start" x="1694.5" y="-85.5" font-family="Helvetica,sans-Serif" font-size="10.00">sources/Debugger/CPU</text>
<text text-anchor="middle" x="1750.5" y="-74.5" font-family="Helvetica,sans-Serif" font-size="10.00">/CPUDebug.cpp</text>
</a>
</g>
</g>
<!-- Node7&#45;&gt;Node9 -->
<g id="edge10" class="edge">
<title>Node7&#45;&gt;Node9</title>
<path fill="none" stroke="midnightblue" d="M1427.73,-138.65C1489.79,-128.74 1587.83,-112.83 1672.5,-98 1676.98,-97.22 1681.6,-96.39 1686.25,-95.55"/>
<polygon fill="midnightblue" stroke="midnightblue" points="1427.03,-135.22 1417.7,-140.25 1428.13,-142.13 1427.03,-135.22"/>
</g>
<!-- Node10 -->
<g id="node10" class="node">
<title>Node10</title>
<g id="a_node10"><a xlink:href="Disassembly_8cpp.html" target="_top" xlink:title=" ">
<polygon fill="white" stroke="black" points="1832.5,-67.5 1832.5,-97.5 1960.5,-97.5 1960.5,-67.5 1832.5,-67.5"/>
<text text-anchor="start" x="1840.5" y="-85.5" font-family="Helvetica,sans-Serif" font-size="10.00">sources/Debugger/CPU</text>
<text text-anchor="middle" x="1896.5" y="-74.5" font-family="Helvetica,sans-Serif" font-size="10.00">/Disassembly.cpp</text>
</a>
</g>
</g>
<!-- Node7&#45;&gt;Node10 -->
<g id="edge11" class="edge">
<title>Node7&#45;&gt;Node10</title>
<path fill="none" stroke="midnightblue" d="M1427.66,-143.36C1515.95,-135.67 1682.62,-119.72 1823.5,-98 1826.44,-97.55 1829.44,-97.06 1832.46,-96.54"/>
<polygon fill="midnightblue" stroke="midnightblue" points="1427.21,-139.89 1417.55,-144.23 1427.81,-146.86 1427.21,-139.89"/>
</g>
<!-- Node11 -->
<g id="node11" class="node">
<title>Node11</title>
<g id="a_node11"><a xlink:href="HeaderViewer_8cpp.html" target="_top" xlink:title=" ">
<polygon fill="white" stroke="black" points="1978.5,-73 1978.5,-92 2174.5,-92 2174.5,-73 1978.5,-73"/>
<text text-anchor="middle" x="2076.5" y="-80" font-family="Helvetica,sans-Serif" font-size="10.00">sources/Debugger/HeaderViewer.cpp</text>
</a>
</g>
</g>
<!-- Node7&#45;&gt;Node11 -->
<g id="edge12" class="edge">
<title>Node7&#45;&gt;Node11</title>
<path fill="none" stroke="midnightblue" d="M1427.92,-144.34C1537.64,-136.79 1772.15,-119.61 1969.5,-98 1985.15,-96.29 2002.05,-94.14 2017.7,-92.02"/>
<polygon fill="midnightblue" stroke="midnightblue" points="1427.44,-140.87 1417.7,-145.04 1427.91,-147.85 1427.44,-140.87"/>
</g>
<!-- Node12 -->
<g id="node12" class="node">
<title>Node12</title>
<g id="a_node12"><a xlink:href="MemoryBusDebug_8cpp.html" target="_top" xlink:title=" ">
<polygon fill="white" stroke="black" points="2192.5,-67.5 2192.5,-97.5 2358.5,-97.5 2358.5,-67.5 2192.5,-67.5"/>
<text text-anchor="start" x="2200.5" y="-85.5" font-family="Helvetica,sans-Serif" font-size="10.00">sources/Debugger/MemoryBus</text>
<text text-anchor="middle" x="2275.5" y="-74.5" font-family="Helvetica,sans-Serif" font-size="10.00">Debug.cpp</text>
</a>
</g>
</g>
<!-- Node7&#45;&gt;Node12 -->
<g id="edge13" class="edge">
<title>Node7&#45;&gt;Node12</title>
<path fill="none" stroke="midnightblue" d="M1428.11,-146.66C1565.31,-142.17 1902.63,-128.73 2183.5,-98 2186.39,-97.68 2189.33,-97.34 2192.3,-96.97"/>
<polygon fill="midnightblue" stroke="midnightblue" points="1427.68,-143.17 1417.8,-146.99 1427.91,-150.16 1427.68,-143.17"/>
</g>
<!-- Node13 -->
<g id="node13" class="node">
<title>Node13</title>
<g id="a_node13"><a xlink:href="MemoryViewer_8cpp.html" target="_top" xlink:title=" ">
<polygon fill="white" stroke="black" points="2377,-73 2377,-92 2578,-92 2578,-73 2377,-73"/>
<text text-anchor="middle" x="2477.5" y="-80" font-family="Helvetica,sans-Serif" font-size="10.00">sources/Debugger/MemoryViewer.cpp</text>
</a>
</g>
</g>
<!-- Node7&#45;&gt;Node13 -->
<g id="edge14" class="edge">
<title>Node7&#45;&gt;Node13</title>
<path fill="none" stroke="midnightblue" d="M1428.22,-147.1C1586.19,-143.18 2013.11,-130.24 2367.5,-98 2384.48,-96.46 2402.86,-94.25 2419.65,-92.02"/>
<polygon fill="midnightblue" stroke="midnightblue" points="1427.67,-143.61 1417.76,-147.35 1427.84,-150.61 1427.67,-143.61"/>
</g>
<!-- Node14 -->
<g id="node14" class="node">
<title>Node14</title>
<g id="a_node14"><a xlink:href="RegisterViewer_8cpp.html" target="_top" xlink:title=" ">
<polygon fill="white" stroke="black" points="2596.5,-67.5 2596.5,-97.5 2744.5,-97.5 2744.5,-67.5 2596.5,-67.5"/>
<text text-anchor="start" x="2604.5" y="-85.5" font-family="Helvetica,sans-Serif" font-size="10.00">sources/Debugger/Register</text>
<text text-anchor="middle" x="2670.5" y="-74.5" font-family="Helvetica,sans-Serif" font-size="10.00">Viewer.cpp</text>
</a>
</g>
</g>
<!-- Node7&#45;&gt;Node14 -->
<g id="edge15" class="edge">
<title>Node7&#45;&gt;Node14</title>
<path fill="none" stroke="midnightblue" d="M1427.83,-148.77C1607.93,-148.93 2144.4,-145.1 2586.5,-98 2589.74,-97.66 2593.04,-97.26 2596.37,-96.83"/>
<polygon fill="midnightblue" stroke="midnightblue" points="1427.75,-145.27 1417.74,-148.75 1427.74,-152.27 1427.75,-145.27"/>
</g>
<!-- Node15 -->
<g id="node15" class="node">
<title>Node15</title>
<g id="a_node15"><a xlink:href="main_8cpp.html" target="_top" xlink:title=" ">
<polygon fill="white" stroke="black" points="2762.5,-73 2762.5,-92 2864.5,-92 2864.5,-73 2762.5,-73"/>
<text text-anchor="middle" x="2813.5" y="-80" font-family="Helvetica,sans-Serif" font-size="10.00">sources/main.cpp</text>
</a>
</g>
</g>
<!-- Node7&#45;&gt;Node15 -->
<g id="edge17" class="edge">
<title>Node7&#45;&gt;Node15</title>
<path fill="none" stroke="midnightblue" d="M1427.73,-147.9C1662.16,-145.36 2491.93,-133.99 2753.5,-98 2763.27,-96.66 2773.76,-94.41 2783.2,-92.07"/>
<polygon fill="midnightblue" stroke="midnightblue" points="1427.63,-144.4 1417.67,-148 1427.71,-151.4 1427.63,-144.4"/>
</g>
<!-- Node16 -->
<g id="node16" class="node">
<title>Node16</title>
<g id="a_node16"><a xlink:href="MemoryBus_8cpp.html" target="_top" xlink:title=" ">
<polygon fill="white" stroke="black" points="2883,-73 2883,-92 3062,-92 3062,-73 2883,-73"/>
<text text-anchor="middle" x="2972.5" y="-80" font-family="Helvetica,sans-Serif" font-size="10.00">sources/Memory/MemoryBus.cpp</text>
</a>
</g>
</g>
<!-- Node7&#45;&gt;Node16 -->
<g id="edge18" class="edge">
<title>Node7&#45;&gt;Node16</title>
<path fill="none" stroke="midnightblue" d="M1427.76,-148.91C1634.1,-149.73 2314.17,-148.17 2873.5,-98 2889.33,-96.58 2906.49,-94.32 2922.01,-92.01"/>
<polygon fill="midnightblue" stroke="midnightblue" points="1427.73,-145.41 1417.72,-148.86 1427.7,-152.41 1427.73,-145.41"/>
</g>
<!-- Node17 -->
<g id="node17" class="node">
<title>Node17</title>
<g id="a_node17"><a xlink:href="QtSFML_8cpp.html" target="_top" xlink:title=" ">
<polygon fill="white" stroke="black" points="388.5,-67.5 388.5,-97.5 548.5,-97.5 548.5,-67.5 388.5,-67.5"/>
<text text-anchor="start" x="396.5" y="-85.5" font-family="Helvetica,sans-Serif" font-size="10.00">sources/Renderer/QtRenderer</text>
<text text-anchor="middle" x="468.5" y="-74.5" font-family="Helvetica,sans-Serif" font-size="10.00">/QtSFML.cpp</text>
</a>
</g>
</g>
<!-- Node7&#45;&gt;Node17 -->
<g id="edge19" class="edge">
<title>Node7&#45;&gt;Node17</title>
<path fill="none" stroke="midnightblue" d="M1303.07,-143.08C1268.7,-140.19 1225.26,-136.68 1186.5,-134 907.15,-114.69 835.84,-128.55 557.5,-98 554.7,-97.69 551.85,-97.36 548.98,-97"/>
<polygon fill="midnightblue" stroke="midnightblue" points="1303.18,-146.6 1313.44,-143.96 1303.77,-139.62 1303.18,-146.6"/>
</g>
<!-- Node18 -->
<g id="node18" class="node">
<title>Node18</title>
<g id="a_node18"><a xlink:href="SFRenderer_8cpp.html" target="_top" xlink:title=" ">
<polygon fill="white" stroke="black" points="566.5,-73 566.5,-92 746.5,-92 746.5,-73 566.5,-73"/>
<text text-anchor="middle" x="656.5" y="-80" font-family="Helvetica,sans-Serif" font-size="10.00">sources/Renderer/SFRenderer.cpp</text>
</a>
</g>
</g>
<!-- Node7&#45;&gt;Node18 -->
<g id="edge20" class="edge">
<title>Node7&#45;&gt;Node18</title>
<path fill="none" stroke="midnightblue" d="M1303.42,-143.47C1153.57,-131.3 782.41,-101.08 755.5,-98 740.83,-96.32 724.99,-94.16 710.37,-92.02"/>
<polygon fill="midnightblue" stroke="midnightblue" points="1303.14,-146.96 1313.39,-144.28 1303.71,-139.98 1303.14,-146.96"/>
</g>
<!-- Node19 -->
<g id="node19" class="node">
<title>Node19</title>
<g id="a_node19"><a xlink:href="SNES_8cpp.html" target="_top" xlink:title=" ">
<polygon fill="white" stroke="black" points="765,-73 765,-92 868,-92 868,-73 765,-73"/>
<text text-anchor="middle" x="816.5" y="-80" font-family="Helvetica,sans-Serif" font-size="10.00">sources/SNES.cpp</text>
</a>
</g>
</g>
<!-- Node7&#45;&gt;Node19 -->
<g id="edge21" class="edge">
<title>Node7&#45;&gt;Node19</title>
<path fill="none" stroke="midnightblue" d="M1303.33,-142.88C1191.82,-132.64 962,-110.85 882.5,-98 872.54,-96.39 861.82,-94.23 851.98,-92.06"/>
<polygon fill="midnightblue" stroke="midnightblue" points="1303.15,-146.37 1313.42,-143.8 1303.79,-139.4 1303.15,-146.37"/>
</g>
<!-- Node20 -->
<g id="node20" class="node">
<title>Node20</title>
<g id="a_node20"><a xlink:href="testAPU_8cpp.html" target="_top" xlink:title=" ">
<polygon fill="white" stroke="black" points="11.5,-6 11.5,-25 137.5,-25 137.5,-6 11.5,-6"/>
<text text-anchor="middle" x="74.5" y="-13" font-family="Helvetica,sans-Serif" font-size="10.00">tests/APU/testAPU.cpp</text>
</a>
</g>
</g>
<!-- Node7&#45;&gt;Node20 -->
<g id="edge22" class="edge">
<title>Node7&#45;&gt;Node20</title>
<path fill="none" stroke="midnightblue" d="M1303.05,-143.73C1186.73,-134.52 945.47,-113.82 910.5,-98 891.87,-89.57 895.38,-74.86 876.5,-67 726.54,-4.61 307.67,-51.09 146.5,-31 134.99,-29.56 122.56,-27.32 111.32,-25.02"/>
<polygon fill="midnightblue" stroke="midnightblue" points="1302.99,-147.23 1313.23,-144.53 1303.54,-140.25 1302.99,-147.23"/>
</g>
<!-- Node21 -->
<g id="node21" class="node">
<title>Node21</title>
<g id="a_node21"><a xlink:href="tests_8hpp.html" target="_top" xlink:title=" ">
<polygon fill="white" stroke="black" points="1229,-73 1229,-92 1318,-92 1318,-73 1229,-73"/>
<text text-anchor="middle" x="1273.5" y="-80" font-family="Helvetica,sans-Serif" font-size="10.00">tests/tests.hpp</text>
</a>
</g>
</g>
<!-- Node7&#45;&gt;Node21 -->
<g id="edge23" class="edge">
<title>Node7&#45;&gt;Node21</title>
<path fill="none" stroke="midnightblue" d="M1344.86,-133.92C1326.68,-121.07 1300.79,-102.78 1285.71,-92.13"/>
<polygon fill="midnightblue" stroke="midnightblue" points="1342.91,-136.82 1353.09,-139.73 1346.94,-131.1 1342.91,-136.82"/>
</g>
<!-- Node22 -->
<g id="node22" class="node">
<title>Node22</title>
<g id="a_node22"><a xlink:href="testAPUInstructions_8cpp.html" target="_top" xlink:title=" ">
<polygon fill="white" stroke="black" points="156,-6 156,-25 339,-25 339,-6 156,-6"/>
<text text-anchor="middle" x="247.5" y="-13" font-family="Helvetica,sans-Serif" font-size="10.00">tests/APU/testAPUInstructions.cpp</text>
</a>
</g>
</g>
<!-- Node7&#45;&gt;Node22 -->
<g id="edge44" class="edge">
<title>Node7&#45;&gt;Node22</title>
<path fill="none" stroke="midnightblue" d="M1303.2,-142.88C1194.9,-132.84 980.39,-111.57 948.5,-98 928.45,-89.46 930.79,-74.96 910.5,-67 793.8,-21.19 472.19,-44.01 347.5,-31 332.23,-29.41 315.72,-27.21 300.6,-25.01"/>
<polygon fill="midnightblue" stroke="midnightblue" points="1303.06,-146.39 1313.34,-143.82 1303.7,-139.42 1303.06,-146.39"/>
</g>
<!-- Node23 -->
<g id="node23" class="node">
<title>Node23</title>
<g id="a_node23"><a xlink:href="testOperand_8cpp.html" target="_top" xlink:title=" ">
<polygon fill="white" stroke="black" points="357,-6 357,-25 504,-25 504,-6 357,-6"/>
<text text-anchor="middle" x="430.5" y="-13" font-family="Helvetica,sans-Serif" font-size="10.00">tests/APU/testOperand.cpp</text>
</a>
</g>
</g>
<!-- Node7&#45;&gt;Node23 -->
<g id="edge45" class="edge">
<title>Node7&#45;&gt;Node23</title>
<path fill="none" stroke="midnightblue" d="M1303.33,-144.34C1210.87,-137.46 1042.06,-122.04 986.5,-98 966.5,-89.34 968.71,-75.15 948.5,-67 858.34,-30.64 608.91,-43.48 512.5,-31 500.03,-29.39 486.56,-27.19 474.22,-25"/>
<polygon fill="midnightblue" stroke="midnightblue" points="1303.16,-147.84 1313.39,-145.08 1303.68,-140.86 1303.16,-147.84"/>
</g>
<!-- Node24 -->
<g id="node24" class="node">
<title>Node24</title>
<g id="a_node24"><a xlink:href="testADC_8cpp.html" target="_top" xlink:title=" ">
<polygon fill="white" stroke="black" points="522,-6 522,-25 677,-25 677,-6 522,-6"/>
<text text-anchor="middle" x="599.5" y="-13" font-family="Helvetica,sans-Serif" font-size="10.00">tests/CPU/Math/testADC.cpp</text>
</a>
</g>
</g>
<!-- Node7&#45;&gt;Node24 -->
<g id="edge46" class="edge">
<title>Node7&#45;&gt;Node24</title>
<path fill="none" stroke="midnightblue" d="M1303.41,-143.28C1219.08,-135.52 1073.23,-119.51 1024.5,-98 1004.56,-89.2 1006.56,-75.53 986.5,-67 862.91,-14.47 819.43,-50.04 686.5,-31 674.07,-29.22 660.68,-27.09 648.21,-25.02"/>
<polygon fill="midnightblue" stroke="midnightblue" points="1303.11,-146.77 1313.38,-144.19 1303.74,-139.8 1303.11,-146.77"/>
</g>
<!-- Node25 -->
<g id="node25" class="node">
<title>Node25</title>
<g id="a_node25"><a xlink:href="testCMP_8cpp.html" target="_top" xlink:title=" ">
<polygon fill="white" stroke="black" points="695.5,-6 695.5,-25 849.5,-25 849.5,-6 695.5,-6"/>
<text text-anchor="middle" x="772.5" y="-13" font-family="Helvetica,sans-Serif" font-size="10.00">tests/CPU/Math/testCMP.cpp</text>
</a>
</g>
</g>
<!-- Node7&#45;&gt;Node25 -->
<g id="edge47" class="edge">
<title>Node7&#45;&gt;Node25</title>
<path fill="none" stroke="midnightblue" d="M1303.06,-141.92C1227.26,-133.27 1104.38,-116.94 1062.5,-98 1042.64,-89.02 1044.21,-76.3 1024.5,-67 1006.39,-58.45 889.78,-37.06 821.71,-25.04"/>
<polygon fill="midnightblue" stroke="midnightblue" points="1303.1,-145.45 1313.42,-143.09 1303.88,-138.49 1303.1,-145.45"/>
</g>
<!-- Node26 -->
<g id="node26" class="node">
<title>Node26</title>
<g id="a_node26"><a xlink:href="testOthersMath_8cpp.html" target="_top" xlink:title=" ">
<polygon fill="white" stroke="black" points="867.5,-0.5 867.5,-30.5 1013.5,-30.5 1013.5,-0.5 867.5,-0.5"/>
<text text-anchor="start" x="875.5" y="-18.5" font-family="Helvetica,sans-Serif" font-size="10.00">tests/CPU/Math/testOthers</text>
<text text-anchor="middle" x="940.5" y="-7.5" font-family="Helvetica,sans-Serif" font-size="10.00">Math.cpp</text>
</a>
</g>
</g>
<!-- Node7&#45;&gt;Node26 -->
<g id="edge48" class="edge">
<title>Node7&#45;&gt;Node26</title>
<path fill="none" stroke="midnightblue" d="M1313.33,-137.88C1270.54,-128.7 1208.58,-114.37 1155.5,-98 1089.89,-77.76 1015.39,-47.93 973.56,-30.53"/>
<polygon fill="midnightblue" stroke="midnightblue" points="1312.73,-141.33 1323.24,-139.98 1314.19,-134.48 1312.73,-141.33"/>
</g>
<!-- Node27 -->
<g id="node27" class="node">
<title>Node27</title>
<g id="a_node27"><a xlink:href="testSBC_8cpp.html" target="_top" xlink:title=" ">
<polygon fill="white" stroke="black" points="1032,-6 1032,-25 1185,-25 1185,-6 1032,-6"/>
<text text-anchor="middle" x="1108.5" y="-13" font-family="Helvetica,sans-Serif" font-size="10.00">tests/CPU/Math/testSBC.cpp</text>
</a>
</g>
</g>
<!-- Node7&#45;&gt;Node27 -->
<g id="edge49" class="edge">
<title>Node7&#45;&gt;Node27</title>
<path fill="none" stroke="midnightblue" d="M1308.58,-137.65C1275.34,-129.77 1233.4,-117.09 1199.5,-98 1163.83,-77.92 1130.22,-41.79 1115.84,-25.23"/>
<polygon fill="midnightblue" stroke="midnightblue" points="1308.07,-141.12 1318.6,-139.94 1309.63,-134.3 1308.07,-141.12"/>
</g>
<!-- Node28 -->
<g id="node28" class="node">
<title>Node28</title>
<g id="a_node28"><a xlink:href="testAddressingMode_8cpp.html" target="_top" xlink:title=" ">
<polygon fill="white" stroke="black" points="1203.5,-0.5 1203.5,-30.5 1343.5,-30.5 1343.5,-0.5 1203.5,-0.5"/>
<text text-anchor="start" x="1211.5" y="-18.5" font-family="Helvetica,sans-Serif" font-size="10.00">tests/CPU/testAddressing</text>
<text text-anchor="middle" x="1273.5" y="-7.5" font-family="Helvetica,sans-Serif" font-size="10.00">Mode.cpp</text>
</a>
</g>
</g>
<!-- Node7&#45;&gt;Node28 -->
<g id="edge50" class="edge">
<title>Node7&#45;&gt;Node28</title>
<path fill="none" stroke="midnightblue" d="M1303.02,-145.44C1269.2,-140.2 1230.05,-127.57 1208.5,-98 1190.81,-73.72 1223.39,-46.66 1248.49,-30.63"/>
<polygon fill="midnightblue" stroke="midnightblue" points="1302.93,-148.96 1313.31,-146.84 1303.87,-142.02 1302.93,-148.96"/>
</g>
<!-- Node29 -->
<g id="node29" class="node">
<title>Node29</title>
<g id="a_node29"><a xlink:href="testBits_8cpp.html" target="_top" xlink:title=" ">
<polygon fill="white" stroke="black" points="1362,-6 1362,-25 1487,-25 1487,-6 1362,-6"/>
<text text-anchor="middle" x="1424.5" y="-13" font-family="Helvetica,sans-Serif" font-size="10.00">tests/CPU/testBits.cpp</text>
</a>
</g>
</g>
<!-- Node7&#45;&gt;Node29 -->
<g id="edge51" class="edge">
<title>Node7&#45;&gt;Node29</title>
<path fill="none" stroke="midnightblue" d="M1305.55,-137.75C1253.69,-125.77 1191.16,-103.17 1219.5,-67 1224.64,-60.44 1326.09,-37.68 1384.3,-25.07"/>
<polygon fill="midnightblue" stroke="midnightblue" points="1304.9,-141.19 1315.42,-139.94 1306.41,-134.36 1304.9,-141.19"/>
</g>
<!-- Node32 -->
<g id="node32" class="node">
<title>Node32</title>
<g id="a_node32"><a xlink:href="testInterupts_8cpp.html" target="_top" xlink:title=" ">
<polygon fill="white" stroke="black" points="2161,-6 2161,-25 2310,-25 2310,-6 2161,-6"/>
<text text-anchor="middle" x="2235.5" y="-13" font-family="Helvetica,sans-Serif" font-size="10.00">tests/CPU/testInterupts.cpp</text>
</a>
</g>
</g>
<!-- Node7&#45;&gt;Node32 -->
<g id="edge52" class="edge">
<title>Node7&#45;&gt;Node32</title>
<path fill="none" stroke="midnightblue" d="M1360.37,-129.92C1356.47,-111.27 1354.2,-83.06 1370.5,-67 1401.45,-36.52 2108.32,-35.7 2151.5,-31 2164.74,-29.56 2179.05,-27.34 2192.05,-25.06"/>
<polygon fill="midnightblue" stroke="midnightblue" points="1357.02,-130.98 1362.79,-139.87 1363.82,-129.33 1357.02,-130.98"/>
</g>
<!-- Node33 -->
<g id="node33" class="node">
<title>Node33</title>
<g id="a_node33"><a xlink:href="testStore_8cpp.html" target="_top" xlink:title=" ">
<polygon fill="white" stroke="black" points="2328,-6 2328,-25 2459,-25 2459,-6 2328,-6"/>
<text text-anchor="middle" x="2393.5" y="-13" font-family="Helvetica,sans-Serif" font-size="10.00">tests/CPU/testStore.cpp</text>
</a>
</g>
</g>
<!-- Node7&#45;&gt;Node33 -->
<g id="edge53" class="edge">
<title>Node7&#45;&gt;Node33</title>
<path fill="none" stroke="midnightblue" d="M1369.51,-130.12C1374.82,-110.72 1386.22,-81.04 1408.5,-67 1494.1,-13.04 2217.98,-42.64 2318.5,-31 2330.62,-29.6 2343.72,-27.33 2355.52,-25"/>
<polygon fill="midnightblue" stroke="midnightblue" points="1366.09,-129.38 1367.11,-139.92 1372.89,-131.04 1366.09,-129.38"/>
</g>
<!-- Node34 -->
<g id="node34" class="node">
<title>Node34</title>
<g id="a_node34"><a xlink:href="testTransfers_8cpp.html" target="_top" xlink:title=" ">
<polygon fill="white" stroke="black" points="2477.5,-6 2477.5,-25 2627.5,-25 2627.5,-6 2477.5,-6"/>
<text text-anchor="middle" x="2552.5" y="-13" font-family="Helvetica,sans-Serif" font-size="10.00">tests/CPU/testTransfers.cpp</text>
</a>
</g>
</g>
<!-- Node7&#45;&gt;Node34 -->
<g id="edge54" class="edge">
<title>Node7&#45;&gt;Node34</title>
<path fill="none" stroke="midnightblue" d="M1379.52,-132.17C1399.22,-109.44 1433.58,-70.61 1441.5,-67 1545.3,-19.69 2354.02,-42.62 2467.5,-31 2481.2,-29.6 2496.03,-27.33 2509.41,-25"/>
<polygon fill="midnightblue" stroke="midnightblue" points="1376.66,-130.13 1372.77,-139.99 1381.96,-134.71 1376.66,-130.13"/>
</g>
<!-- Node7&#45;&gt;Node35 -->
<g id="edge55" class="edge">
<title>Node7&#45;&gt;Node35</title>
<path fill="none" stroke="midnightblue" d="M1427.85,-145.56C1484.92,-140.92 1570.57,-128.93 1638.5,-98 1658.65,-88.82 1656.74,-74.69 1677.5,-67 1777.5,-29.98 2530.38,-41.41 2636.5,-31 2650.99,-29.58 2666.68,-27.34 2680.88,-25.04"/>
<polygon fill="midnightblue" stroke="midnightblue" points="1427.25,-142.1 1417.54,-146.35 1427.78,-149.08 1427.25,-142.1"/>
</g>
<!-- Node7&#45;&gt;Node36 -->
<g id="edge56" class="edge">
<title>Node7&#45;&gt;Node36</title>
<path fill="none" stroke="midnightblue" d="M1428.27,-147.83C1732.63,-144.42 3041.34,-128.04 3070.5,-98 3097.72,-69.96 3038.04,-39.52 3003.64,-25.06"/>
<polygon fill="midnightblue" stroke="midnightblue" points="1427.84,-144.33 1417.88,-147.94 1427.91,-151.33 1427.84,-144.33"/>
</g>
<!-- Node7&#45;&gt;Node37 -->
<g id="edge57" class="edge">
<title>Node7&#45;&gt;Node37</title>
<path fill="none" stroke="midnightblue" d="M1428.07,-148.2C1728.73,-146.55 3013.64,-137.24 3088.5,-98 3119,-82.01 3137.97,-42.73 3145.18,-25.2"/>
<polygon fill="midnightblue" stroke="midnightblue" points="1427.78,-144.7 1417.79,-148.25 1427.81,-151.7 1427.78,-144.7"/>
</g>
<!-- Node7&#45;&gt;Node38 -->
<g id="edge58" class="edge">
<title>Node7&#45;&gt;Node38</title>
<path fill="none" stroke="midnightblue" d="M1427.77,-148.03C1720.39,-145.65 2951.62,-133.56 3119.5,-98 3184.69,-84.19 3255.72,-50.01 3292.75,-30.59"/>
<polygon fill="midnightblue" stroke="midnightblue" points="1427.73,-144.53 1417.76,-148.11 1427.79,-151.53 1427.73,-144.53"/>
</g>
<!-- Node21&#45;&gt;Node20 -->
<g id="edge24" class="edge">
<title>Node21&#45;&gt;Node20</title>
<path fill="none" stroke="midnightblue" d="M1218.73,-79.28C1000.24,-70.4 200.18,-37.57 146.5,-31 134.98,-29.59 122.56,-27.35 111.32,-25.05"/>
<polygon fill="midnightblue" stroke="midnightblue" points="1218.85,-82.79 1228.99,-79.7 1219.14,-75.79 1218.85,-82.79"/>
</g>
<!-- Node21&#45;&gt;Node22 -->
<g id="edge25" class="edge">
<title>Node21&#45;&gt;Node22</title>
<path fill="none" stroke="midnightblue" d="M1218.69,-79.16C1046.59,-71.7 518.24,-48 347.5,-31 332.05,-29.46 315.33,-27.25 300.07,-25.02"/>
<polygon fill="midnightblue" stroke="midnightblue" points="1218.65,-82.66 1228.79,-79.59 1218.95,-75.67 1218.65,-82.66"/>
</g>
<!-- Node21&#45;&gt;Node23 -->
<g id="edge26" class="edge">
<title>Node21&#45;&gt;Node23</title>
<path fill="none" stroke="midnightblue" d="M1218.24,-78.62C1067.15,-70.61 649.37,-47.59 512.5,-31 499.87,-29.47 486.23,-27.28 473.78,-25.06"/>
<polygon fill="midnightblue" stroke="midnightblue" points="1218.48,-82.13 1228.65,-79.17 1218.85,-75.14 1218.48,-82.13"/>
</g>
<!-- Node21&#45;&gt;Node24 -->
<g id="edge27" class="edge">
<title>Node21&#45;&gt;Node24</title>
<path fill="none" stroke="midnightblue" d="M1218.56,-78.23C1114.48,-71.72 881.5,-55.6 686.5,-31 673.43,-29.35 659.33,-27.17 646.36,-25.01"/>
<polygon fill="midnightblue" stroke="midnightblue" points="1218.62,-81.74 1228.82,-78.87 1219.06,-74.76 1218.62,-81.74"/>
</g>
<!-- Node21&#45;&gt;Node25 -->
<g id="edge28" class="edge">
<title>Node21&#45;&gt;Node25</title>
<path fill="none" stroke="midnightblue" d="M1218.62,-75.63C1139.09,-66.95 987.22,-49.67 858.5,-31 846.21,-29.22 832.97,-27.09 820.65,-25.02"/>
<polygon fill="midnightblue" stroke="midnightblue" points="1218.57,-79.15 1228.89,-76.75 1219.32,-72.19 1218.57,-79.15"/>
</g>
<!-- Node21&#45;&gt;Node26 -->
<g id="edge29" class="edge">
<title>Node21&#45;&gt;Node26</title>
<path fill="none" stroke="midnightblue" d="M1219.5,-70.96C1163.23,-59.98 1074.73,-42.7 1012.53,-30.56"/>
<polygon fill="midnightblue" stroke="midnightblue" points="1219.14,-74.45 1229.62,-72.94 1220.48,-67.58 1219.14,-74.45"/>
</g>
<!-- Node21&#45;&gt;Node27 -->
<g id="edge30" class="edge">
<title>Node21&#45;&gt;Node27</title>
<path fill="none" stroke="midnightblue" d="M1242.03,-69.1C1209.27,-56.2 1158.83,-36.33 1130.24,-25.06"/>
<polygon fill="midnightblue" stroke="midnightblue" points="1241,-72.46 1251.59,-72.87 1243.57,-65.95 1241,-72.46"/>
</g>
<!-- Node21&#45;&gt;Node28 -->
<g id="edge31" class="edge">
<title>Node21&#45;&gt;Node28</title>
<path fill="none" stroke="midnightblue" d="M1273.5,-62.41C1273.5,-52.22 1273.5,-39.9 1273.5,-30.59"/>
<polygon fill="midnightblue" stroke="midnightblue" points="1270,-62.73 1273.5,-72.73 1277,-62.73 1270,-62.73"/>
</g>
<!-- Node21&#45;&gt;Node29 -->
<g id="edge32" class="edge">
<title>Node21&#45;&gt;Node29</title>
<path fill="none" stroke="midnightblue" d="M1303.05,-68.78C1332.95,-55.91 1378.38,-36.35 1404.37,-25.17"/>
<polygon fill="midnightblue" stroke="midnightblue" points="1301.35,-65.7 1293.55,-72.87 1304.12,-72.13 1301.35,-65.7"/>
</g>
<!-- Node30 -->
<g id="node30" class="node">
<title>Node30</title>
<g id="a_node30"><a xlink:href="testDMA_8cpp.html" target="_top" xlink:title=" ">
<polygon fill="white" stroke="black" points="1505,-6 1505,-25 1634,-25 1634,-6 1505,-6"/>
<text text-anchor="middle" x="1569.5" y="-13" font-family="Helvetica,sans-Serif" font-size="10.00">tests/CPU/testDMA.cpp</text>
</a>
</g>
</g>
<!-- Node21&#45;&gt;Node30 -->
<g id="edge33" class="edge">
<title>Node21&#45;&gt;Node30</title>
<path fill="none" stroke="midnightblue" d="M1317.24,-70.59C1322.38,-69.36 1327.55,-68.14 1332.5,-67 1400.57,-51.39 1480.01,-34.79 1527.46,-25.05"/>
<polygon fill="midnightblue" stroke="midnightblue" points="1316.36,-67.2 1307.46,-72.96 1318.01,-74.01 1316.36,-67.2"/>
</g>
<!-- Node31 -->
<g id="node31" class="node">
<title>Node31</title>
<g id="a_node31"><a xlink:href="testInternal_8cpp.html" target="_top" xlink:title=" ">
<polygon fill="white" stroke="black" points="1652,-6 1652,-25 1795,-25 1795,-6 1652,-6"/>
<text text-anchor="middle" x="1723.5" y="-13" font-family="Helvetica,sans-Serif" font-size="10.00">tests/CPU/testInternal.cpp</text>
</a>
</g>
</g>
<!-- Node21&#45;&gt;Node31 -->
<g id="edge34" class="edge">
<title>Node21&#45;&gt;Node31</title>
<path fill="none" stroke="midnightblue" d="M1315.34,-70.53C1321.08,-69.23 1326.92,-68.01 1332.5,-67 1469,-42.4 1505.28,-51.23 1642.5,-31 1654.23,-29.27 1666.87,-27.14 1678.59,-25.05"/>
<polygon fill="midnightblue" stroke="midnightblue" points="1314.11,-67.23 1305.19,-72.94 1315.73,-74.04 1314.11,-67.23"/>
</g>
<!-- Node21&#45;&gt;Node32 -->
<g id="edge35" class="edge">
<title>Node21&#45;&gt;Node32</title>
<path fill="none" stroke="midnightblue" d="M1313.16,-70.62C1319.58,-69.19 1326.2,-67.9 1332.5,-67 1693.16,-15.27 1789.25,-70.07 2151.5,-31 2164.89,-29.56 2179.37,-27.31 2192.48,-25.01"/>
<polygon fill="midnightblue" stroke="midnightblue" points="1312.21,-67.25 1303.29,-72.97 1313.83,-74.06 1312.21,-67.25"/>
</g>
<!-- Node21&#45;&gt;Node33 -->
<g id="edge36" class="edge">
<title>Node21&#45;&gt;Node33</title>
<path fill="none" stroke="midnightblue" d="M1328.52,-72.2C1342.2,-70.18 1356.86,-68.28 1370.5,-67 1790.31,-27.77 1899.62,-79.16 2318.5,-31 2330.62,-29.61 2343.72,-27.34 2355.52,-25.01"/>
<polygon fill="midnightblue" stroke="midnightblue" points="1327.65,-68.79 1318.29,-73.75 1328.7,-75.71 1327.65,-68.79"/>
</g>
<!-- Node21&#45;&gt;Node34 -->
<g id="edge37" class="edge">
<title>Node21&#45;&gt;Node34</title>
<path fill="none" stroke="midnightblue" d="M1328.31,-74.7C1352.81,-71.89 1382.06,-68.87 1408.5,-67 1878.27,-33.83 1998.98,-78.7 2467.5,-31 2481.2,-29.6 2496.03,-27.34 2509.41,-25.01"/>
<polygon fill="midnightblue" stroke="midnightblue" points="1327.65,-71.25 1318.12,-75.88 1328.46,-78.2 1327.65,-71.25"/>
</g>
<!-- Node21&#45;&gt;Node35 -->
<g id="edge38" class="edge">
<title>Node21&#45;&gt;Node35</title>
<path fill="none" stroke="midnightblue" d="M1328.31,-75.99C1361.12,-72.89 1403.66,-69.2 1441.5,-67 1971.96,-36.14 2107.5,-80.91 2636.5,-31 2651.15,-29.62 2667.03,-27.36 2681.35,-25.03"/>
<polygon fill="midnightblue" stroke="midnightblue" points="1327.64,-72.54 1318.02,-76.97 1328.31,-79.51 1327.64,-72.54"/>
</g>
<!-- Node21&#45;&gt;Node36 -->
<g id="edge39" class="edge">
<title>Node21&#45;&gt;Node36</title>
<path fill="none" stroke="midnightblue" d="M1328.31,-75.93C1361.11,-72.81 1403.65,-69.13 1441.5,-67 2052.3,-32.68 2206.73,-65.96 2817.5,-31 2846.89,-29.32 2879.18,-26.64 2907.28,-24.04"/>
<polygon fill="midnightblue" stroke="midnightblue" points="1327.63,-72.48 1318.02,-76.93 1328.31,-79.45 1327.63,-72.48"/>
</g>
<!-- Node21&#45;&gt;Node37 -->
<g id="edge40" class="edge">
<title>Node21&#45;&gt;Node37</title>
<path fill="none" stroke="midnightblue" d="M1328.3,-75.88C1361.11,-72.74 1403.65,-69.05 1441.5,-67 2161.95,-27.96 2346.35,-100.56 3064.5,-31 3078.2,-29.67 3093.03,-27.4 3106.36,-25.04"/>
<polygon fill="midnightblue" stroke="midnightblue" points="1327.63,-72.43 1318.01,-76.88 1328.31,-79.4 1327.63,-72.43"/>
</g>
<!-- Node21&#45;&gt;Node38 -->
<g id="edge41" class="edge">
<title>Node21&#45;&gt;Node38</title>
<path fill="none" stroke="midnightblue" d="M1328.3,-75.85C1361.1,-72.7 1403.65,-69.01 1441.5,-67 2236.09,-24.77 2439.19,-104.6 3231.5,-31 3234.7,-30.7 3237.96,-30.36 3241.25,-29.97"/>
<polygon fill="midnightblue" stroke="midnightblue" points="1327.63,-72.4 1318.01,-76.85 1328.3,-79.37 1327.63,-72.4"/>
</g>
<!-- Node39 -->
<g id="node39" class="node">
<title>Node39</title>
<g id="a_node39"><a xlink:href="testMemoryBus_8cpp.html" target="_top" xlink:title=" ">
<polygon fill="white" stroke="black" points="1813,-6 1813,-25 1954,-25 1954,-6 1813,-6"/>
<text text-anchor="middle" x="1883.5" y="-13" font-family="Helvetica,sans-Serif" font-size="10.00">tests/testMemoryBus.cpp</text>
</a>
</g>
</g>
<!-- Node21&#45;&gt;Node39 -->
<g id="edge42" class="edge">
<title>Node21&#45;&gt;Node39</title>
<path fill="none" stroke="midnightblue" d="M1314.26,-70.56C1320.34,-69.2 1326.56,-67.95 1332.5,-67 1539.81,-33.83 1595.27,-57.76 1803.5,-31 1815.68,-29.43 1828.82,-27.26 1840.86,-25.07"/>
<polygon fill="midnightblue" stroke="midnightblue" points="1313.16,-67.22 1304.23,-72.93 1314.77,-74.04 1313.16,-67.22"/>
</g>
<!-- Node40 -->
<g id="node40" class="node">
<title>Node40</title>
<g id="a_node40"><a xlink:href="testRectangleMemory_8cpp.html" target="_top" xlink:title=" ">
<polygon fill="white" stroke="black" points="1972.5,-6 1972.5,-25 2142.5,-25 2142.5,-6 1972.5,-6"/>
<text text-anchor="middle" x="2057.5" y="-13" font-family="Helvetica,sans-Serif" font-size="10.00">tests/testRectangleMemory.cpp</text>
</a>
</g>
</g>
<!-- Node21&#45;&gt;Node40 -->
<g id="edge43" class="edge">
<title>Node21&#45;&gt;Node40</title>
<path fill="none" stroke="midnightblue" d="M1313.38,-70.65C1319.74,-69.22 1326.27,-67.94 1332.5,-67 1609.85,-25.36 1683.57,-60.19 1962.5,-31 1977.1,-29.47 1992.89,-27.28 2007.33,-25.06"/>
<polygon fill="midnightblue" stroke="midnightblue" points="1312.53,-67.25 1303.61,-72.97 1314.14,-74.06 1312.53,-67.25"/>
</g>
<!-- Node41&#45;&gt;Node2 -->
<g id="edge60" class="edge">
<title>Node41&#45;&gt;Node2</title>
<path fill="none" stroke="midnightblue" d="M3413.43,-162.4C3379.69,-173.96 3326.38,-191.22 3292.62,-201.48"/>
<polygon fill="midnightblue" stroke="midnightblue" points="3414.92,-165.59 3423.23,-159.01 3412.63,-158.97 3414.92,-165.59"/>
</g>
<!-- Node41&#45;&gt;Node42 -->
<g id="edge61" class="edge">
<title>Node41&#45;&gt;Node42</title>
<path fill="none" stroke="midnightblue" d="M3439.07,-129.91C3435.44,-117.49 3430.82,-101.72 3428.02,-92.13"/>
<polygon fill="midnightblue" stroke="midnightblue" points="3435.77,-131.12 3441.94,-139.73 3442.49,-129.15 3435.77,-131.12"/>
</g>
<!-- Node41&#45;&gt;Node43 -->
<g id="edge62" class="edge">
<title>Node41&#45;&gt;Node43</title>
<path fill="none" stroke="midnightblue" d="M3472.22,-135.44C3499.55,-122.57 3540.55,-103.26 3564.1,-92.17"/>
<polygon fill="midnightblue" stroke="midnightblue" points="3470.38,-132.44 3462.83,-139.87 3473.36,-138.77 3470.38,-132.44"/>
</g>
<!-- Node45 -->
<g id="node45" class="node">
<title>Node45</title>
<g id="a_node45"><a xlink:href="PpuDebug_8cpp.html" target="_top" xlink:title=" ">
<polygon fill="white" stroke="black" points="3660,-73 3660,-92 3809,-92 3809,-73 3660,-73"/>
<text text-anchor="middle" x="3734.5" y="-80" font-family="Helvetica,sans-Serif" font-size="10.00">sources/PPU/PpuDebug.cpp</text>
</a>
</g>
</g>
<!-- Node44&#45;&gt;Node45 -->
<g id="edge66" class="edge">
<title>Node44&#45;&gt;Node45</title>
<path fill="none" stroke="midnightblue" d="M3673.31,-133.21C3689.08,-120.41 3711.01,-102.59 3723.88,-92.13"/>
<polygon fill="midnightblue" stroke="midnightblue" points="3670.84,-130.71 3665.29,-139.73 3675.26,-136.14 3670.84,-130.71"/>
</g>
</g>
</svg>
