<?xml version="1.0" encoding="UTF-8" standalone="no"?>
<!DOCTYPE svg PUBLIC "-//W3C//DTD SVG 1.1//EN"
 "http://www.w3.org/Graphics/SVG/1.1/DTD/svg11.dtd">
<!-- Generated by graphviz version 2.43.0 (0)
 -->
<!-- Title: sources/Renderer/QtRenderer/QtSfmlTileRenderer.cpp Pages: 1 -->
<svg width="1112pt" height="498pt"
 viewBox="0.00 0.00 1111.50 498.00" xmlns="http://www.w3.org/2000/svg" xmlns:xlink="http://www.w3.org/1999/xlink">
<g id="graph0" class="graph" transform="scale(1 1) rotate(0) translate(4 494)">
<title>sources/Renderer/QtRenderer/QtSfmlTileRenderer.cpp</title>
<polygon fill="white" stroke="transparent" points="-4,4 -4,-494 1107.5,-494 1107.5,4 -4,4"/>
<!-- Node1 -->
<g id="node1" class="node">
<title>Node1</title>
<g id="a_node1"><a xlink:title=" ">
<polygon fill="#bfbfbf" stroke="black" points="295,-459.5 295,-489.5 455,-489.5 455,-459.5 295,-459.5"/>
<text text-anchor="start" x="303" y="-477.5" font-family="Helvetica,sans-Serif" font-size="10.00">sources/Renderer/QtRenderer</text>
<text text-anchor="middle" x="375" y="-466.5" font-family="Helvetica,sans-Serif" font-size="10.00">/QtSfmlTileRenderer.cpp</text>
</a>
</g>
</g>
<!-- Node2 -->
<g id="node2" class="node">
<title>Node2</title>
<g id="a_node2"><a xlink:title=" ">
<polygon fill="white" stroke="#bfbfbf" points="426,-0.5 426,-19.5 486,-19.5 486,-0.5 426,-0.5"/>
<text text-anchor="middle" x="456" y="-7.5" font-family="Helvetica,sans-Serif" font-size="10.00">iostream</text>
</a>
</g>
</g>
<!-- Node1&#45;&gt;Node2 -->
<g id="edge1" class="edge">
<title>Node1&#45;&gt;Node2</title>
<path fill="none" stroke="midnightblue" d="M294.55,-463.99C184.37,-448.68 0,-413.9 0,-352.5 0,-352.5 0,-352.5 0,-121 0,-35.89 303.96,-16.43 415.55,-12.16"/>
<polygon fill="midnightblue" stroke="midnightblue" points="415.86,-15.65 425.73,-11.79 415.61,-8.65 415.86,-15.65"/>
</g>
<!-- Node3 -->
<g id="node3" class="node">
<title>Node3</title>
<g id="a_node3"><a xlink:href="QtSfmlTileRenderer_8hpp.html" target="_top" xlink:title=" ">
<polygon fill="white" stroke="black" points="673.5,-403.5 673.5,-422.5 806.5,-422.5 806.5,-403.5 673.5,-403.5"/>
<text text-anchor="middle" x="740" y="-410.5" font-family="Helvetica,sans-Serif" font-size="10.00">QtSfmlTileRenderer.hpp</text>
</a>
</g>
</g>
<!-- Node1&#45;&gt;Node3 -->
<g id="edge2" class="edge">
<title>Node1&#45;&gt;Node3</title>
<path fill="none" stroke="midnightblue" d="M455.1,-460.44C522.09,-449.52 616.3,-434.17 677.74,-424.15"/>
<polygon fill="midnightblue" stroke="midnightblue" points="678.38,-427.59 687.69,-422.53 677.25,-420.68 678.38,-427.59"/>
</g>
<!-- Node4 -->
<g id="node4" class="node">
<title>Node4</title>
<g id="a_node4"><a xlink:title=" ">
<polygon fill="white" stroke="#bfbfbf" points="982,-224.5 982,-243.5 1024,-243.5 1024,-224.5 982,-224.5"/>
<text text-anchor="middle" x="1003" y="-231.5" font-family="Helvetica,sans-Serif" font-size="10.00">array</text>
</a>
</g>
</g>
<!-- Node3&#45;&gt;Node4 -->
<g id="edge3" class="edge">
<title>Node3&#45;&gt;Node4</title>
<path fill="none" stroke="midnightblue" d="M806.86,-407.61C848.39,-402.44 901.56,-391.24 943,-367 977.5,-346.82 988.73,-337.34 1003,-300 1008.67,-285.18 1008.11,-267.03 1006.45,-253.68"/>
<polygon fill="midnightblue" stroke="midnightblue" points="1009.91,-253.11 1004.92,-243.77 1002.99,-254.19 1009.91,-253.11"/>
</g>
<!-- Node5 -->
<g id="node5" class="node">
<title>Node5</title>
<g id="a_node5"><a xlink:title=" ">
<polygon fill="white" stroke="#bfbfbf" points="683.5,-280.5 683.5,-299.5 796.5,-299.5 796.5,-280.5 683.5,-280.5"/>
<text text-anchor="middle" x="740" y="-287.5" font-family="Helvetica,sans-Serif" font-size="10.00">QtWidgets/QWidget</text>
</a>
</g>
</g>
<!-- Node3&#45;&gt;Node5 -->
<g id="edge4" class="edge">
<title>Node3&#45;&gt;Node5</title>
<path fill="none" stroke="midnightblue" d="M740,-403.3C740,-383.85 740,-336.49 740,-309.9"/>
<polygon fill="midnightblue" stroke="midnightblue" points="743.5,-309.62 740,-299.62 736.5,-309.62 743.5,-309.62"/>
</g>
<!-- Node6 -->
<g id="node6" class="node">
<title>Node6</title>
<g id="a_node6"><a xlink:href="QtWidgetSFML_8hpp.html" target="_top" xlink:title=" ">
<polygon fill="white" stroke="black" points="433,-342 433,-361 543,-361 543,-342 433,-342"/>
<text text-anchor="middle" x="488" y="-349" font-family="Helvetica,sans-Serif" font-size="10.00">QtWidgetSFML.hpp</text>
</a>
</g>
</g>
<!-- Node3&#45;&gt;Node6 -->
<g id="edge5" class="edge">
<title>Node3&#45;&gt;Node6</title>
<path fill="none" stroke="midnightblue" d="M703.89,-403.48C659.17,-392.92 582.92,-374.91 534.03,-363.37"/>
<polygon fill="midnightblue" stroke="midnightblue" points="534.58,-359.9 524.04,-361.01 532.97,-366.71 534.58,-359.9"/>
</g>
<!-- Node19 -->
<g id="node19" class="node">
<title>Node19</title>
<g id="a_node19"><a xlink:href="RAMTileRenderer_8hpp.html" target="_top" xlink:title=" ">
<polygon fill="white" stroke="black" points="809.5,-336.5 809.5,-366.5 934.5,-366.5 934.5,-336.5 809.5,-336.5"/>
<text text-anchor="start" x="817.5" y="-354.5" font-family="Helvetica,sans-Serif" font-size="10.00">Debugger/TileViewer</text>
<text text-anchor="middle" x="872" y="-343.5" font-family="Helvetica,sans-Serif" font-size="10.00">/RAMTileRenderer.hpp</text>
</a>
</g>
</g>
<!-- Node3&#45;&gt;Node19 -->
<g id="edge20" class="edge">
<title>Node3&#45;&gt;Node19</title>
<path fill="none" stroke="midnightblue" d="M758.91,-403.48C777.79,-394.96 807.4,-381.62 831.58,-370.72"/>
<polygon fill="midnightblue" stroke="midnightblue" points="833.21,-373.82 840.89,-366.52 830.34,-367.44 833.21,-373.82"/>
</g>
<!-- Node6&#45;&gt;Node5 -->
<g id="edge6" class="edge">
<title>Node6&#45;&gt;Node5</title>
<path fill="none" stroke="midnightblue" d="M524.11,-341.98C568.83,-331.42 645.08,-313.41 693.97,-301.87"/>
<polygon fill="midnightblue" stroke="midnightblue" points="695.03,-305.21 703.96,-299.51 693.42,-298.4 695.03,-305.21"/>
</g>
<!-- Node7 -->
<g id="node7" class="node">
<title>Node7</title>
<g id="a_node7"><a xlink:title=" ">
<polygon fill="white" stroke="#bfbfbf" points="27.5,-224.5 27.5,-243.5 212.5,-243.5 212.5,-224.5 27.5,-224.5"/>
<text text-anchor="middle" x="120" y="-231.5" font-family="Helvetica,sans-Serif" font-size="10.00">SFML/Graphics/RenderWindow.hpp</text>
</a>
</g>
</g>
<!-- Node6&#45;&gt;Node7 -->
<g id="edge7" class="edge">
<title>Node6&#45;&gt;Node7</title>
<path fill="none" stroke="midnightblue" d="M432.92,-347.64C327.35,-341.59 104.87,-325.89 82,-300 68.59,-284.82 85.34,-264.19 100.65,-250.28"/>
<polygon fill="midnightblue" stroke="midnightblue" points="103.04,-252.85 108.36,-243.68 98.49,-247.53 103.04,-252.85"/>
</g>
<!-- Node8 -->
<g id="node8" class="node">
<title>Node8</title>
<g id="a_node8"><a xlink:title=" ">
<polygon fill="white" stroke="#bfbfbf" points="576.5,-280.5 576.5,-299.5 665.5,-299.5 665.5,-280.5 576.5,-280.5"/>
<text text-anchor="middle" x="621" y="-287.5" font-family="Helvetica,sans-Serif" font-size="10.00">QtCore/QTimer</text>
</a>
</g>
</g>
<!-- Node6&#45;&gt;Node8 -->
<g id="edge8" class="edge">
<title>Node6&#45;&gt;Node8</title>
<path fill="none" stroke="midnightblue" d="M507.06,-341.98C529.47,-331.95 566.91,-315.2 592.71,-303.65"/>
<polygon fill="midnightblue" stroke="midnightblue" points="594.28,-306.79 601.98,-299.51 591.42,-300.4 594.28,-306.79"/>
</g>
<!-- Node9 -->
<g id="node9" class="node">
<title>Node9</title>
<g id="a_node9"><a xlink:title=" ">
<polygon fill="white" stroke="#bfbfbf" points="91.5,-280.5 91.5,-299.5 232.5,-299.5 232.5,-280.5 91.5,-280.5"/>
<text text-anchor="middle" x="162" y="-287.5" font-family="Helvetica,sans-Serif" font-size="10.00">SFML/Graphics/Sprite.hpp</text>
</a>
</g>
</g>
<!-- Node6&#45;&gt;Node9 -->
<g id="edge9" class="edge">
<title>Node6&#45;&gt;Node9</title>
<path fill="none" stroke="midnightblue" d="M441.29,-341.98C382.59,-331.26 281.89,-312.88 218.8,-301.37"/>
<polygon fill="midnightblue" stroke="midnightblue" points="219.09,-297.86 208.62,-299.51 217.83,-304.75 219.09,-297.86"/>
</g>
<!-- Node10 -->
<g id="node10" class="node">
<title>Node10</title>
<g id="a_node10"><a xlink:title=" ">
<polygon fill="white" stroke="#bfbfbf" points="250.5,-280.5 250.5,-299.5 399.5,-299.5 399.5,-280.5 250.5,-280.5"/>
<text text-anchor="middle" x="325" y="-287.5" font-family="Helvetica,sans-Serif" font-size="10.00">SFML/Graphics/Texture.hpp</text>
</a>
</g>
</g>
<!-- Node6&#45;&gt;Node10 -->
<g id="edge10" class="edge">
<title>Node6&#45;&gt;Node10</title>
<path fill="none" stroke="midnightblue" d="M464.65,-341.98C436.69,-331.77 389.67,-314.61 358.01,-303.05"/>
<polygon fill="midnightblue" stroke="midnightblue" points="358.9,-299.65 348.31,-299.51 356.5,-306.23 358.9,-299.65"/>
</g>
<!-- Node11 -->
<g id="node11" class="node">
<title>Node11</title>
<g id="a_node11"><a xlink:href="SFRenderer_8hpp.html" target="_top" xlink:title=" ">
<polygon fill="white" stroke="black" points="418,-280.5 418,-299.5 558,-299.5 558,-280.5 418,-280.5"/>
<text text-anchor="middle" x="488" y="-287.5" font-family="Helvetica,sans-Serif" font-size="10.00">Renderer/SFRenderer.hpp</text>
</a>
</g>
</g>
<!-- Node6&#45;&gt;Node11 -->
<g id="edge11" class="edge">
<title>Node6&#45;&gt;Node11</title>
<path fill="none" stroke="midnightblue" d="M488,-341.98C488,-333.58 488,-320.48 488,-309.66"/>
<polygon fill="midnightblue" stroke="midnightblue" points="491.5,-309.51 488,-299.51 484.5,-309.51 491.5,-309.51"/>
</g>
<!-- Node11&#45;&gt;Node7 -->
<g id="edge19" class="edge">
<title>Node11&#45;&gt;Node7</title>
<path fill="none" stroke="midnightblue" d="M429.69,-280.44C364.01,-270.81 257.41,-255.16 188,-244.98"/>
<polygon fill="midnightblue" stroke="midnightblue" points="188.44,-241.51 178.04,-243.52 187.42,-248.43 188.44,-241.51"/>
</g>
<!-- Node12 -->
<g id="node12" class="node">
<title>Node12</title>
<g id="a_node12"><a xlink:href="IRenderer_8hpp.html" target="_top" xlink:title=" ">
<polygon fill="white" stroke="black" points="719,-224.5 719,-243.5 803,-243.5 803,-224.5 719,-224.5"/>
<text text-anchor="middle" x="761" y="-231.5" font-family="Helvetica,sans-Serif" font-size="10.00">IRenderer.hpp</text>
</a>
</g>
</g>
<!-- Node11&#45;&gt;Node12 -->
<g id="edge12" class="edge">
<title>Node11&#45;&gt;Node12</title>
<path fill="none" stroke="midnightblue" d="M531.26,-280.44C579.46,-270.91 657.39,-255.49 708.91,-245.3"/>
<polygon fill="midnightblue" stroke="midnightblue" points="709.71,-248.71 718.84,-243.34 708.35,-241.85 709.71,-248.71"/>
</g>
<!-- Node15 -->
<g id="node15" class="node">
<title>Node15</title>
<g id="a_node15"><a xlink:title=" ">
<polygon fill="white" stroke="#bfbfbf" points="231,-224.5 231,-243.5 341,-243.5 341,-224.5 231,-224.5"/>
<text text-anchor="middle" x="286" y="-231.5" font-family="Helvetica,sans-Serif" font-size="10.00">SFML/Graphics.hpp</text>
</a>
</g>
</g>
<!-- Node11&#45;&gt;Node15 -->
<g id="edge15" class="edge">
<title>Node11&#45;&gt;Node15</title>
<path fill="none" stroke="midnightblue" d="M455.99,-280.44C421.27,-271.16 365.71,-256.31 327.62,-246.13"/>
<polygon fill="midnightblue" stroke="midnightblue" points="328.42,-242.72 317.86,-243.52 326.61,-249.48 328.42,-242.72"/>
</g>
<!-- Node16 -->
<g id="node16" class="node">
<title>Node16</title>
<g id="a_node16"><a xlink:title=" ">
<polygon fill="white" stroke="#bfbfbf" points="359.5,-224.5 359.5,-243.5 454.5,-243.5 454.5,-224.5 359.5,-224.5"/>
<text text-anchor="middle" x="407" y="-231.5" font-family="Helvetica,sans-Serif" font-size="10.00">SFML/Audio.hpp</text>
</a>
</g>
</g>
<!-- Node11&#45;&gt;Node16 -->
<g id="edge16" class="edge">
<title>Node11&#45;&gt;Node16</title>
<path fill="none" stroke="midnightblue" d="M474.99,-280.32C462.47,-271.98 443.32,-259.21 428.53,-249.35"/>
<polygon fill="midnightblue" stroke="midnightblue" points="430.24,-246.29 419.98,-243.65 426.36,-252.11 430.24,-246.29"/>
</g>
<!-- Node17 -->
<g id="node17" class="node">
<title>Node17</title>
<g id="a_node17"><a xlink:title=" ">
<polygon fill="white" stroke="#bfbfbf" points="473,-224.5 473,-243.5 577,-243.5 577,-224.5 473,-224.5"/>
<text text-anchor="middle" x="525" y="-231.5" font-family="Helvetica,sans-Serif" font-size="10.00">SFML/System.hpp</text>
</a>
</g>
</g>
<!-- Node11&#45;&gt;Node17 -->
<g id="edge17" class="edge">
<title>Node11&#45;&gt;Node17</title>
<path fill="none" stroke="midnightblue" d="M494.11,-280.08C499.28,-272.53 506.85,-261.49 513.19,-252.23"/>
<polygon fill="midnightblue" stroke="midnightblue" points="516.24,-253.98 519,-243.75 510.46,-250.02 516.24,-253.98"/>
</g>
<!-- Node18 -->
<g id="node18" class="node">
<title>Node18</title>
<g id="a_node18"><a xlink:title=" ">
<polygon fill="white" stroke="#bfbfbf" points="595.5,-224.5 595.5,-243.5 700.5,-243.5 700.5,-224.5 595.5,-224.5"/>
<text text-anchor="middle" x="648" y="-231.5" font-family="Helvetica,sans-Serif" font-size="10.00">SFML/Window.hpp</text>
</a>
</g>
</g>
<!-- Node11&#45;&gt;Node18 -->
<g id="edge18" class="edge">
<title>Node11&#45;&gt;Node18</title>
<path fill="none" stroke="midnightblue" d="M513.35,-280.44C540.27,-271.36 583,-256.94 613.09,-246.78"/>
<polygon fill="midnightblue" stroke="midnightblue" points="614.41,-250.03 622.77,-243.52 612.17,-243.4 614.41,-250.03"/>
</g>
<!-- Node13 -->
<g id="node13" class="node">
<title>Node13</title>
<g id="a_node13"><a xlink:title=" ">
<polygon fill="white" stroke="#bfbfbf" points="582,-56.5 582,-75.5 626,-75.5 626,-56.5 582,-56.5"/>
<text text-anchor="middle" x="604" y="-63.5" font-family="Helvetica,sans-Serif" font-size="10.00">string</text>
</a>
</g>
</g>
<!-- Node12&#45;&gt;Node13 -->
<g id="edge13" class="edge">
<title>Node12&#45;&gt;Node13</title>
<path fill="none" stroke="midnightblue" d="M752.56,-224.08C727.2,-197.27 651.47,-117.19 619.02,-82.89"/>
<polygon fill="midnightblue" stroke="midnightblue" points="621.52,-80.43 612.1,-75.57 616.43,-85.24 621.52,-80.43"/>
</g>
<!-- Node14 -->
<g id="node14" class="node">
<title>Node14</title>
<g id="a_node14"><a xlink:title=" ">
<polygon fill="white" stroke="#bfbfbf" points="741,-168.5 741,-187.5 781,-187.5 781,-168.5 741,-168.5"/>
<text text-anchor="middle" x="761" y="-175.5" font-family="Helvetica,sans-Serif" font-size="10.00">span</text>
</a>
</g>
</g>
<!-- Node12&#45;&gt;Node14 -->
<g id="edge14" class="edge">
<title>Node12&#45;&gt;Node14</title>
<path fill="none" stroke="midnightblue" d="M761,-224.08C761,-217.01 761,-206.86 761,-197.99"/>
<polygon fill="midnightblue" stroke="midnightblue" points="764.5,-197.75 761,-187.75 757.5,-197.75 764.5,-197.75"/>
</g>
<!-- Node19&#45;&gt;Node4 -->
<g id="edge21" class="edge">
<title>Node19&#45;&gt;Node4</title>
<path fill="none" stroke="midnightblue" d="M926.73,-336.49C947.21,-328.76 969.09,-317.14 984,-300 995.2,-287.12 999.81,-267.94 1001.7,-253.75"/>
<polygon fill="midnightblue" stroke="midnightblue" points="1005.2,-253.96 1002.71,-243.66 998.23,-253.26 1005.2,-253.96"/>
</g>
<!-- Node20 -->
<g id="node20" class="node">
<title>Node20</title>
<g id="a_node20"><a xlink:href="TileRenderer_8hpp.html" target="_top" xlink:title=" ">
<polygon fill="white" stroke="black" points="853,-280.5 853,-299.5 975,-299.5 975,-280.5 853,-280.5"/>
<text text-anchor="middle" x="914" y="-287.5" font-family="Helvetica,sans-Serif" font-size="10.00">PPU/TileRenderer.hpp</text>
</a>
</g>
</g>
<!-- Node19&#45;&gt;Node20 -->
<g id="edge22" class="edge">
<title>Node19&#45;&gt;Node20</title>
<path fill="none" stroke="midnightblue" d="M881.95,-336.4C887.99,-327.84 895.74,-316.87 902.1,-307.86"/>
<polygon fill="midnightblue" stroke="midnightblue" points="904.98,-309.85 907.89,-299.66 899.26,-305.81 904.98,-309.85"/>
</g>
<!-- Node21 -->
<g id="node21" class="node">
<title>Node21</title>
<g id="a_node21"><a xlink:href="Ram_8hpp.html" target="_top" xlink:title=" ">
<polygon fill="white" stroke="black" points="858,-224.5 858,-243.5 944,-243.5 944,-224.5 858,-224.5"/>
<text text-anchor="middle" x="901" y="-231.5" font-family="Helvetica,sans-Serif" font-size="10.00">Ram/Ram.hpp</text>
</a>
</g>
</g>
<!-- Node19&#45;&gt;Node21 -->
<g id="edge39" class="edge">
<title>Node19&#45;&gt;Node21</title>
<path fill="none" stroke="midnightblue" d="M859.47,-336.46C848.21,-322.05 834.75,-299.08 844,-280 850.4,-266.8 862.75,-256.3 874.33,-248.78"/>
<polygon fill="midnightblue" stroke="midnightblue" points="876.16,-251.77 882.92,-243.61 872.55,-245.77 876.16,-251.77"/>
</g>
<!-- Node20&#45;&gt;Node4 -->
<g id="edge23" class="edge">
<title>Node20&#45;&gt;Node4</title>
<path fill="none" stroke="midnightblue" d="M928.3,-280.32C942.18,-271.9 963.49,-258.97 979.8,-249.07"/>
<polygon fill="midnightblue" stroke="midnightblue" points="982,-251.83 988.74,-243.65 978.37,-245.85 982,-251.83"/>
</g>
<!-- Node20&#45;&gt;Node21 -->
<g id="edge24" class="edge">
<title>Node20&#45;&gt;Node21</title>
<path fill="none" stroke="midnightblue" d="M911.85,-280.08C910.13,-272.93 907.65,-262.64 905.5,-253.69"/>
<polygon fill="midnightblue" stroke="midnightblue" points="908.85,-252.65 903.11,-243.75 902.04,-254.29 908.85,-252.65"/>
</g>
<!-- Node21&#45;&gt;Node13 -->
<g id="edge36" class="edge">
<title>Node21&#45;&gt;Node13</title>
<path fill="none" stroke="midnightblue" d="M886.72,-224.44C865.66,-211.86 825.01,-187.75 790,-168 733.1,-135.9 665.53,-99.68 629.54,-80.53"/>
<polygon fill="midnightblue" stroke="midnightblue" points="630.74,-77.21 620.27,-75.61 627.46,-83.39 630.74,-77.21"/>
</g>
<!-- Node21&#45;&gt;Node14 -->
<g id="edge37" class="edge">
<title>Node21&#45;&gt;Node14</title>
<path fill="none" stroke="midnightblue" d="M878.82,-224.44C855.02,-215.27 817.12,-200.64 790.75,-190.47"/>
<polygon fill="midnightblue" stroke="midnightblue" points="791.85,-187.15 781.26,-186.82 789.33,-193.68 791.85,-187.15"/>
</g>
<!-- Node22 -->
<g id="node22" class="node">
<title>Node22</title>
<g id="a_node22"><a xlink:href="ARectangleMemory_8hpp.html" target="_top" xlink:title=" ">
<polygon fill="white" stroke="black" points="837,-168.5 837,-187.5 1013,-187.5 1013,-168.5 837,-168.5"/>
<text text-anchor="middle" x="925" y="-175.5" font-family="Helvetica,sans-Serif" font-size="10.00">Memory/ARectangleMemory.hpp</text>
</a>
</g>
</g>
<!-- Node21&#45;&gt;Node22 -->
<g id="edge25" class="edge">
<title>Node21&#45;&gt;Node22</title>
<path fill="none" stroke="midnightblue" d="M904.96,-224.08C908.21,-216.77 912.92,-206.18 916.95,-197.1"/>
<polygon fill="midnightblue" stroke="midnightblue" points="920.25,-198.31 921.11,-187.75 913.85,-195.47 920.25,-198.31"/>
</g>
<!-- Node25 -->
<g id="node25" class="node">
<title>Node25</title>
<g id="a_node25"><a xlink:title=" ">
<polygon fill="white" stroke="#bfbfbf" points="1056.5,-56.5 1056.5,-75.5 1103.5,-75.5 1103.5,-56.5 1056.5,-56.5"/>
<text text-anchor="middle" x="1080" y="-63.5" font-family="Helvetica,sans-Serif" font-size="10.00">vector</text>
</a>
</g>
</g>
<!-- Node21&#45;&gt;Node25 -->
<g id="edge38" class="edge">
<title>Node21&#45;&gt;Node25</title>
<path fill="none" stroke="midnightblue" d="M944.15,-225.38C969.38,-219.03 1000.4,-207.72 1022,-188 1052.86,-159.83 1068.95,-111.73 1075.82,-85.46"/>
<polygon fill="midnightblue" stroke="midnightblue" points="1079.24,-86.2 1078.21,-75.66 1072.44,-84.54 1079.24,-86.2"/>
</g>
<!-- Node23 -->
<g id="node23" class="node">
<title>Node23</title>
<g id="a_node23"><a xlink:href="IMemory_8hpp.html" target="_top" xlink:title=" ">
<polygon fill="white" stroke="black" points="857,-112.5 857,-131.5 937,-131.5 937,-112.5 857,-112.5"/>
<text text-anchor="middle" x="897" y="-119.5" font-family="Helvetica,sans-Serif" font-size="10.00">IMemory.hpp</text>
</a>
</g>
</g>
<!-- Node22&#45;&gt;Node23 -->
<g id="edge26" class="edge">
<title>Node22&#45;&gt;Node23</title>
<path fill="none" stroke="midnightblue" d="M920.38,-168.08C916.54,-160.69 910.98,-149.95 906.24,-140.81"/>
<polygon fill="midnightblue" stroke="midnightblue" points="909.25,-139.02 901.54,-131.75 903.03,-142.24 909.25,-139.02"/>
</g>
<!-- Node27 -->
<g id="node27" class="node">
<title>Node27</title>
<g id="a_node27"><a xlink:href="Ints_8hpp.html" target="_top" xlink:title=" ">
<polygon fill="white" stroke="black" points="944,-56.5 944,-75.5 1038,-75.5 1038,-56.5 944,-56.5"/>
<text text-anchor="middle" x="991" y="-63.5" font-family="Helvetica,sans-Serif" font-size="10.00">Models/Ints.hpp</text>
</a>
</g>
</g>
<!-- Node22&#45;&gt;Node27 -->
<g id="edge35" class="edge">
<title>Node22&#45;&gt;Node27</title>
<path fill="none" stroke="midnightblue" d="M930.18,-168.37C941.02,-150.3 966.29,-108.18 980.62,-84.31"/>
<polygon fill="midnightblue" stroke="midnightblue" points="983.7,-85.97 985.85,-75.59 977.7,-82.37 983.7,-85.97"/>
</g>
<!-- Node23&#45;&gt;Node13 -->
<g id="edge30" class="edge">
<title>Node23&#45;&gt;Node13</title>
<path fill="none" stroke="midnightblue" d="M856.77,-115.53C807.07,-108.45 719.78,-94.99 636.18,-76.06"/>
<polygon fill="midnightblue" stroke="midnightblue" points="636.8,-72.62 626.27,-73.79 635.24,-79.44 636.8,-72.62"/>
</g>
<!-- Node24 -->
<g id="node24" class="node">
<title>Node24</title>
<g id="a_node24"><a xlink:title=" ">
<polygon fill="white" stroke="#bfbfbf" points="800,-56.5 800,-75.5 850,-75.5 850,-56.5 800,-56.5"/>
<text text-anchor="middle" x="825" y="-63.5" font-family="Helvetica,sans-Serif" font-size="10.00">cstdint</text>
</a>
</g>
</g>
<!-- Node23&#45;&gt;Node24 -->
<g id="edge27" class="edge">
<title>Node23&#45;&gt;Node24</title>
<path fill="none" stroke="midnightblue" d="M885.43,-112.32C874.58,-104.18 858.12,-91.84 845.12,-82.09"/>
<polygon fill="midnightblue" stroke="midnightblue" points="846.88,-79.03 836.78,-75.83 842.68,-84.63 846.88,-79.03"/>
</g>
<!-- Node23&#45;&gt;Node25 -->
<g id="edge28" class="edge">
<title>Node23&#45;&gt;Node25</title>
<path fill="none" stroke="midnightblue" d="M926,-112.44C958.84,-102.75 1012.25,-86.99 1046.75,-76.81"/>
<polygon fill="midnightblue" stroke="midnightblue" points="1047.78,-80.16 1056.38,-73.97 1045.79,-73.44 1047.78,-80.16"/>
</g>
<!-- Node26 -->
<g id="node26" class="node">
<title>Node26</title>
<g id="a_node26"><a xlink:title=" ">
<polygon fill="white" stroke="#bfbfbf" points="868,-56.5 868,-75.5 926,-75.5 926,-56.5 868,-56.5"/>
<text text-anchor="middle" x="897" y="-63.5" font-family="Helvetica,sans-Serif" font-size="10.00">memory</text>
</a>
</g>
</g>
<!-- Node23&#45;&gt;Node26 -->
<g id="edge29" class="edge">
<title>Node23&#45;&gt;Node26</title>
<path fill="none" stroke="midnightblue" d="M897,-112.08C897,-105.01 897,-94.86 897,-85.99"/>
<polygon fill="midnightblue" stroke="midnightblue" points="900.5,-85.75 897,-75.75 893.5,-85.75 900.5,-85.75"/>
</g>
<!-- Node23&#45;&gt;Node27 -->
<g id="edge31" class="edge">
<title>Node23&#45;&gt;Node27</title>
<path fill="none" stroke="midnightblue" d="M912.1,-112.32C926.9,-103.82 949.69,-90.73 966.98,-80.8"/>
<polygon fill="midnightblue" stroke="midnightblue" points="969.01,-83.67 975.93,-75.65 965.52,-77.6 969.01,-83.67"/>
</g>
<!-- Node29 -->
<g id="node29" class="node">
<title>Node29</title>
<g id="a_node29"><a xlink:href="Components_8hpp.html" target="_top" xlink:title=" ">
<polygon fill="white" stroke="black" points="644.5,-56.5 644.5,-75.5 781.5,-75.5 781.5,-56.5 644.5,-56.5"/>
<text text-anchor="middle" x="713" y="-63.5" font-family="Helvetica,sans-Serif" font-size="10.00">Models/Components.hpp</text>
</a>
</g>
</g>
<!-- Node23&#45;&gt;Node29 -->
<g id="edge34" class="edge">
<title>Node23&#45;&gt;Node29</title>
<path fill="none" stroke="midnightblue" d="M867.84,-112.44C836.49,-103.24 786.47,-88.56 751.8,-78.39"/>
<polygon fill="midnightblue" stroke="midnightblue" points="752.6,-74.97 742.02,-75.52 750.63,-81.69 752.6,-74.97"/>
</g>
<!-- Node27&#45;&gt;Node2 -->
<g id="edge33" class="edge">
<title>Node27&#45;&gt;Node2</title>
<path fill="none" stroke="midnightblue" d="M943.98,-57.21C940.94,-56.78 937.93,-56.37 935,-56 772.87,-35.38 578.74,-19.99 496.25,-13.88"/>
<polygon fill="midnightblue" stroke="midnightblue" points="496.29,-10.38 486.06,-13.13 495.78,-17.36 496.29,-10.38"/>
</g>
<!-- Node28 -->
<g id="node28" class="node">
<title>Node28</title>
<g id="a_node28"><a xlink:title=" ">
<polygon fill="white" stroke="#bfbfbf" points="960,-0.5 960,-19.5 1022,-19.5 1022,-0.5 960,-0.5"/>
<text text-anchor="middle" x="991" y="-7.5" font-family="Helvetica,sans-Serif" font-size="10.00">cinttypes</text>
</a>
</g>
</g>
<!-- Node27&#45;&gt;Node28 -->
<g id="edge32" class="edge">
<title>Node27&#45;&gt;Node28</title>
<path fill="none" stroke="midnightblue" d="M991,-56.08C991,-49.01 991,-38.86 991,-29.99"/>
<polygon fill="midnightblue" stroke="midnightblue" points="994.5,-29.75 991,-19.75 987.5,-29.75 994.5,-29.75"/>
</g>
</g>
</svg>
