<?xml version="1.0" encoding="UTF-8" standalone="no"?>
<!DOCTYPE svg PUBLIC "-//W3C//DTD SVG 1.1//EN"
 "http://www.w3.org/Graphics/SVG/1.1/DTD/svg11.dtd">
<!-- Generated by graphviz version 2.43.0 (0)
 -->
<!-- Title: sources/Renderer/QtRenderer/QtSFML.hpp Pages: 1 -->
<svg width="1170pt" height="263pt"
 viewBox="0.00 0.00 1170.00 263.00" xmlns="http://www.w3.org/2000/svg" xmlns:xlink="http://www.w3.org/1999/xlink">
<g id="graph0" class="graph" transform="scale(1 1) rotate(0) translate(4 259)">
<title>sources/Renderer/QtRenderer/QtSFML.hpp</title>
<polygon fill="white" stroke="transparent" points="-4,4 -4,-259 1166,-259 1166,4 -4,4"/>
<!-- Node1 -->
<g id="node1" class="node">
<title>Node1</title>
<g id="a_node1"><a xlink:title=" ">
<polygon fill="#bfbfbf" stroke="black" points="594.5,-224.5 594.5,-254.5 754.5,-254.5 754.5,-224.5 594.5,-224.5"/>
<text text-anchor="start" x="602.5" y="-242.5" font-family="Helvetica,sans-Serif" font-size="10.00">sources/Renderer/QtRenderer</text>
<text text-anchor="middle" x="674.5" y="-231.5" font-family="Helvetica,sans-Serif" font-size="10.00">/QtSFML.hpp</text>
</a>
</g>
</g>
<!-- Node2 -->
<g id="node2" class="node">
<title>Node2</title>
<g id="a_node2"><a xlink:title=" ">
<polygon fill="white" stroke="#bfbfbf" points="577,-112.5 577,-131.5 690,-131.5 690,-112.5 577,-112.5"/>
<text text-anchor="middle" x="633.5" y="-119.5" font-family="Helvetica,sans-Serif" font-size="10.00">QtWidgets/QWidget</text>
</a>
</g>
</g>
<!-- Node1&#45;&gt;Node2 -->
<g id="edge1" class="edge">
<title>Node1&#45;&gt;Node2</title>
<path fill="none" stroke="midnightblue" d="M667.65,-224.11C663.04,-214.11 657,-200.41 652.5,-188 646.87,-172.46 641.69,-154.38 638.17,-141.24"/>
<polygon fill="midnightblue" stroke="midnightblue" points="641.54,-140.31 635.62,-131.52 634.77,-142.08 641.54,-140.31"/>
</g>
<!-- Node3 -->
<g id="node3" class="node">
<title>Node3</title>
<g id="a_node3"><a xlink:title=" ">
<polygon fill="white" stroke="#bfbfbf" points="637,-56.5 637,-75.5 822,-75.5 822,-56.5 637,-56.5"/>
<text text-anchor="middle" x="729.5" y="-63.5" font-family="Helvetica,sans-Serif" font-size="10.00">SFML/Graphics/RenderWindow.hpp</text>
</a>
</g>
</g>
<!-- Node1&#45;&gt;Node3 -->
<g id="edge2" class="edge">
<title>Node1&#45;&gt;Node3</title>
<path fill="none" stroke="midnightblue" d="M647.17,-224.45C606.08,-201.48 536.46,-154.23 568.5,-112 580.22,-96.56 623.53,-84.98 662.29,-77.44"/>
<polygon fill="midnightblue" stroke="midnightblue" points="663.36,-80.8 672.54,-75.51 662.07,-73.92 663.36,-80.8"/>
</g>
<!-- Node4 -->
<g id="node4" class="node">
<title>Node4</title>
<g id="a_node4"><a xlink:title=" ">
<polygon fill="white" stroke="#bfbfbf" points="1073,-112.5 1073,-131.5 1162,-131.5 1162,-112.5 1073,-112.5"/>
<text text-anchor="middle" x="1117.5" y="-119.5" font-family="Helvetica,sans-Serif" font-size="10.00">QtCore/QTimer</text>
</a>
</g>
</g>
<!-- Node1&#45;&gt;Node4 -->
<g id="edge3" class="edge">
<title>Node1&#45;&gt;Node4</title>
<path fill="none" stroke="midnightblue" d="M704.77,-224.37C726.03,-214.37 755.1,-200.56 780.5,-188 797.96,-179.37 800.95,-173.94 819.5,-168 921.25,-135.42 953.89,-148.39 1062.9,-132.18"/>
<polygon fill="midnightblue" stroke="midnightblue" points="1063.63,-135.61 1072.98,-130.63 1062.56,-128.69 1063.63,-135.61"/>
</g>
<!-- Node5 -->
<g id="node5" class="node">
<title>Node5</title>
<g id="a_node5"><a xlink:title=" ">
<polygon fill="white" stroke="#bfbfbf" points="828,-168.5 828,-187.5 969,-187.5 969,-168.5 828,-168.5"/>
<text text-anchor="middle" x="898.5" y="-175.5" font-family="Helvetica,sans-Serif" font-size="10.00">QtWidgets/QMainWindow</text>
</a>
</g>
</g>
<!-- Node1&#45;&gt;Node5 -->
<g id="edge4" class="edge">
<title>Node1&#45;&gt;Node5</title>
<path fill="none" stroke="midnightblue" d="M727.3,-224.47C766.79,-213.99 820.06,-199.84 856.63,-190.12"/>
<polygon fill="midnightblue" stroke="midnightblue" points="857.71,-193.46 866.48,-187.51 855.91,-186.69 857.71,-193.46"/>
</g>
<!-- Node6 -->
<g id="node6" class="node">
<title>Node6</title>
<g id="a_node6"><a xlink:title=" ">
<polygon fill="white" stroke="#bfbfbf" points="987,-168.5 987,-187.5 1118,-187.5 1118,-168.5 987,-168.5"/>
<text text-anchor="middle" x="1052.5" y="-175.5" font-family="Helvetica,sans-Serif" font-size="10.00">QtWidgets/QGridLayout</text>
</a>
</g>
</g>
<!-- Node1&#45;&gt;Node6 -->
<g id="edge5" class="edge">
<title>Node1&#45;&gt;Node6</title>
<path fill="none" stroke="midnightblue" d="M754.66,-225.88C824.3,-214.92 923.83,-199.25 988.31,-189.1"/>
<polygon fill="midnightblue" stroke="midnightblue" points="989.01,-192.54 998.35,-187.52 987.93,-185.62 989.01,-192.54"/>
</g>
<!-- Node7 -->
<g id="node7" class="node">
<title>Node7</title>
<g id="a_node7"><a xlink:href="IRenderer_8hpp.html" target="_top" xlink:title=" ">
<polygon fill="white" stroke="black" points="0,-56.5 0,-75.5 131,-75.5 131,-56.5 0,-56.5"/>
<text text-anchor="middle" x="65.5" y="-63.5" font-family="Helvetica,sans-Serif" font-size="10.00">Renderer/IRenderer.hpp</text>
</a>
</g>
</g>
<!-- Node1&#45;&gt;Node7 -->
<g id="edge6" class="edge">
<title>Node1&#45;&gt;Node7</title>
<path fill="none" stroke="midnightblue" d="M624.66,-224.47C506.88,-191.3 213.16,-108.58 105.7,-78.32"/>
<polygon fill="midnightblue" stroke="midnightblue" points="106.47,-74.9 95.9,-75.56 104.57,-81.64 106.47,-74.9"/>
</g>
<!-- Node10 -->
<g id="node10" class="node">
<title>Node10</title>
<g id="a_node10"><a xlink:href="SFRenderer_8hpp.html" target="_top" xlink:title=" ">
<polygon fill="white" stroke="black" points="380.5,-112.5 380.5,-131.5 520.5,-131.5 520.5,-112.5 380.5,-112.5"/>
<text text-anchor="middle" x="450.5" y="-119.5" font-family="Helvetica,sans-Serif" font-size="10.00">Renderer/SFRenderer.hpp</text>
</a>
</g>
</g>
<!-- Node1&#45;&gt;Node10 -->
<g id="edge9" class="edge">
<title>Node1&#45;&gt;Node10</title>
<path fill="none" stroke="midnightblue" d="M623.95,-224.48C596.58,-215.86 562.69,-203.49 534.5,-188 509.18,-174.09 483.38,-152.86 467.18,-138.48"/>
<polygon fill="midnightblue" stroke="midnightblue" points="469.4,-135.77 459.64,-131.66 464.71,-140.96 469.4,-135.77"/>
</g>
<!-- Node15 -->
<g id="node15" class="node">
<title>Node15</title>
<g id="a_node15"><a xlink:href="QtWidgetSFML_8hpp.html" target="_top" xlink:title=" ">
<polygon fill="white" stroke="black" points="661.5,-168.5 661.5,-187.5 771.5,-187.5 771.5,-168.5 661.5,-168.5"/>
<text text-anchor="middle" x="716.5" y="-175.5" font-family="Helvetica,sans-Serif" font-size="10.00">QtWidgetSFML.hpp</text>
</a>
</g>
</g>
<!-- Node1&#45;&gt;Node15 -->
<g id="edge16" class="edge">
<title>Node1&#45;&gt;Node15</title>
<path fill="none" stroke="midnightblue" d="M684.45,-224.4C690.49,-215.84 698.24,-204.87 704.6,-195.86"/>
<polygon fill="midnightblue" stroke="midnightblue" points="707.48,-197.85 710.39,-187.66 701.76,-193.81 707.48,-197.85"/>
</g>
<!-- Node8 -->
<g id="node8" class="node">
<title>Node8</title>
<g id="a_node8"><a xlink:title=" ">
<polygon fill="white" stroke="#bfbfbf" points="13.5,-0.5 13.5,-19.5 57.5,-19.5 57.5,-0.5 13.5,-0.5"/>
<text text-anchor="middle" x="35.5" y="-7.5" font-family="Helvetica,sans-Serif" font-size="10.00">string</text>
</a>
</g>
</g>
<!-- Node7&#45;&gt;Node8 -->
<g id="edge7" class="edge">
<title>Node7&#45;&gt;Node8</title>
<path fill="none" stroke="midnightblue" d="M60.55,-56.08C56.4,-48.61 50.35,-37.72 45.23,-28.52"/>
<polygon fill="midnightblue" stroke="midnightblue" points="48.28,-26.79 40.36,-19.75 42.16,-30.19 48.28,-26.79"/>
</g>
<!-- Node9 -->
<g id="node9" class="node">
<title>Node9</title>
<g id="a_node9"><a xlink:title=" ">
<polygon fill="white" stroke="#bfbfbf" points="75.5,-0.5 75.5,-19.5 115.5,-19.5 115.5,-0.5 75.5,-0.5"/>
<text text-anchor="middle" x="95.5" y="-7.5" font-family="Helvetica,sans-Serif" font-size="10.00">span</text>
</a>
</g>
</g>
<!-- Node7&#45;&gt;Node9 -->
<g id="edge8" class="edge">
<title>Node7&#45;&gt;Node9</title>
<path fill="none" stroke="midnightblue" d="M70.45,-56.08C74.6,-48.61 80.65,-37.72 85.77,-28.52"/>
<polygon fill="midnightblue" stroke="midnightblue" points="88.84,-30.19 90.64,-19.75 82.72,-26.79 88.84,-30.19"/>
</g>
<!-- Node10&#45;&gt;Node3 -->
<g id="edge15" class="edge">
<title>Node10&#45;&gt;Node3</title>
<path fill="none" stroke="midnightblue" d="M494.71,-112.44C543.79,-102.94 623.01,-87.61 675.66,-77.42"/>
<polygon fill="midnightblue" stroke="midnightblue" points="676.35,-80.85 685.5,-75.52 675.02,-73.98 676.35,-80.85"/>
</g>
<!-- Node10&#45;&gt;Node7 -->
<g id="edge10" class="edge">
<title>Node10&#45;&gt;Node7</title>
<path fill="none" stroke="midnightblue" d="M389.5,-112.44C320.64,-102.79 208.8,-87.1 136.2,-76.92"/>
<polygon fill="midnightblue" stroke="midnightblue" points="136.61,-73.44 126.22,-75.52 135.64,-80.37 136.61,-73.44"/>
</g>
<!-- Node11 -->
<g id="node11" class="node">
<title>Node11</title>
<g id="a_node11"><a xlink:title=" ">
<polygon fill="white" stroke="#bfbfbf" points="395.5,-56.5 395.5,-75.5 505.5,-75.5 505.5,-56.5 395.5,-56.5"/>
<text text-anchor="middle" x="450.5" y="-63.5" font-family="Helvetica,sans-Serif" font-size="10.00">SFML/Graphics.hpp</text>
</a>
</g>
</g>
<!-- Node10&#45;&gt;Node11 -->
<g id="edge11" class="edge">
<title>Node10&#45;&gt;Node11</title>
<path fill="none" stroke="midnightblue" d="M450.5,-112.08C450.5,-105.01 450.5,-94.86 450.5,-85.99"/>
<polygon fill="midnightblue" stroke="midnightblue" points="454,-85.75 450.5,-75.75 447,-85.75 454,-85.75"/>
</g>
<!-- Node12 -->
<g id="node12" class="node">
<title>Node12</title>
<g id="a_node12"><a xlink:title=" ">
<polygon fill="white" stroke="#bfbfbf" points="524,-56.5 524,-75.5 619,-75.5 619,-56.5 524,-56.5"/>
<text text-anchor="middle" x="571.5" y="-63.5" font-family="Helvetica,sans-Serif" font-size="10.00">SFML/Audio.hpp</text>
</a>
</g>
</g>
<!-- Node10&#45;&gt;Node12 -->
<g id="edge12" class="edge">
<title>Node10&#45;&gt;Node12</title>
<path fill="none" stroke="midnightblue" d="M469.67,-112.44C489.41,-103.64 520.39,-89.81 542.99,-79.72"/>
<polygon fill="midnightblue" stroke="midnightblue" points="544.71,-82.79 552.42,-75.52 541.86,-76.4 544.71,-82.79"/>
</g>
<!-- Node13 -->
<g id="node13" class="node">
<title>Node13</title>
<g id="a_node13"><a xlink:title=" ">
<polygon fill="white" stroke="#bfbfbf" points="149.5,-56.5 149.5,-75.5 253.5,-75.5 253.5,-56.5 149.5,-56.5"/>
<text text-anchor="middle" x="201.5" y="-63.5" font-family="Helvetica,sans-Serif" font-size="10.00">SFML/System.hpp</text>
</a>
</g>
</g>
<!-- Node10&#45;&gt;Node13 -->
<g id="edge13" class="edge">
<title>Node10&#45;&gt;Node13</title>
<path fill="none" stroke="midnightblue" d="M411.05,-112.44C367.61,-103.02 297.71,-87.87 250.72,-77.68"/>
<polygon fill="midnightblue" stroke="midnightblue" points="251.28,-74.22 240.77,-75.52 249.8,-81.06 251.28,-74.22"/>
</g>
<!-- Node14 -->
<g id="node14" class="node">
<title>Node14</title>
<g id="a_node14"><a xlink:title=" ">
<polygon fill="white" stroke="#bfbfbf" points="272,-56.5 272,-75.5 377,-75.5 377,-56.5 272,-56.5"/>
<text text-anchor="middle" x="324.5" y="-63.5" font-family="Helvetica,sans-Serif" font-size="10.00">SFML/Window.hpp</text>
</a>
</g>
</g>
<!-- Node10&#45;&gt;Node14 -->
<g id="edge14" class="edge">
<title>Node10&#45;&gt;Node14</title>
<path fill="none" stroke="midnightblue" d="M430.53,-112.44C409.89,-103.6 377.44,-89.69 353.87,-79.59"/>
<polygon fill="midnightblue" stroke="midnightblue" points="354.94,-76.24 344.37,-75.52 352.18,-82.67 354.94,-76.24"/>
</g>
<!-- Node15&#45;&gt;Node2 -->
<g id="edge17" class="edge">
<title>Node15&#45;&gt;Node2</title>
<path fill="none" stroke="midnightblue" d="M703.16,-168.32C690.34,-159.98 670.72,-147.21 655.56,-137.35"/>
<polygon fill="midnightblue" stroke="midnightblue" points="657.09,-134.17 646.8,-131.65 653.28,-140.04 657.09,-134.17"/>
</g>
<!-- Node15&#45;&gt;Node3 -->
<g id="edge18" class="edge">
<title>Node15&#45;&gt;Node3</title>
<path fill="none" stroke="midnightblue" d="M717.52,-168.37C719.62,-150.62 724.46,-109.67 727.3,-85.6"/>
<polygon fill="midnightblue" stroke="midnightblue" points="730.79,-85.93 728.48,-75.59 723.84,-85.11 730.79,-85.93"/>
</g>
<!-- Node15&#45;&gt;Node4 -->
<g id="edge19" class="edge">
<title>Node15&#45;&gt;Node4</title>
<path fill="none" stroke="midnightblue" d="M771.86,-169.77C776.47,-169.17 781.07,-168.58 785.5,-168 906.22,-152.34 939.13,-150.56 1062.74,-132.22"/>
<polygon fill="midnightblue" stroke="midnightblue" points="1063.61,-135.63 1072.99,-130.69 1062.58,-128.7 1063.61,-135.63"/>
</g>
<!-- Node15&#45;&gt;Node10 -->
<g id="edge22" class="edge">
<title>Node15&#45;&gt;Node10</title>
<path fill="none" stroke="midnightblue" d="M674.35,-168.44C627.75,-158.98 552.66,-143.74 502.45,-133.55"/>
<polygon fill="midnightblue" stroke="midnightblue" points="502.95,-130.08 492.45,-131.52 501.56,-136.94 502.95,-130.08"/>
</g>
<!-- Node16 -->
<g id="node16" class="node">
<title>Node16</title>
<g id="a_node16"><a xlink:title=" ">
<polygon fill="white" stroke="#bfbfbf" points="747,-112.5 747,-131.5 888,-131.5 888,-112.5 747,-112.5"/>
<text text-anchor="middle" x="817.5" y="-119.5" font-family="Helvetica,sans-Serif" font-size="10.00">SFML/Graphics/Sprite.hpp</text>
</a>
</g>
</g>
<!-- Node15&#45;&gt;Node16 -->
<g id="edge20" class="edge">
<title>Node15&#45;&gt;Node16</title>
<path fill="none" stroke="midnightblue" d="M732.73,-168.32C748.85,-159.7 773.8,-146.36 792.46,-136.39"/>
<polygon fill="midnightblue" stroke="midnightblue" points="794.14,-139.46 801.31,-131.65 790.84,-133.28 794.14,-139.46"/>
</g>
<!-- Node17 -->
<g id="node17" class="node">
<title>Node17</title>
<g id="a_node17"><a xlink:title=" ">
<polygon fill="white" stroke="#bfbfbf" points="906,-112.5 906,-131.5 1055,-131.5 1055,-112.5 906,-112.5"/>
<text text-anchor="middle" x="980.5" y="-119.5" font-family="Helvetica,sans-Serif" font-size="10.00">SFML/Graphics/Texture.hpp</text>
</a>
</g>
</g>
<!-- Node15&#45;&gt;Node17 -->
<g id="edge21" class="edge">
<title>Node15&#45;&gt;Node17</title>
<path fill="none" stroke="midnightblue" d="M758.33,-168.44C804.58,-158.98 879.11,-143.74 928.94,-133.55"/>
<polygon fill="midnightblue" stroke="midnightblue" points="929.77,-136.95 938.86,-131.52 928.37,-130.09 929.77,-136.95"/>
</g>
</g>
</svg>
