<?xml version="1.0" encoding="UTF-8" standalone="no"?>
<!DOCTYPE svg PUBLIC "-//W3C//DTD SVG 1.1//EN"
 "http://www.w3.org/Graphics/SVG/1.1/DTD/svg11.dtd">
<!-- Generated by graphviz version 2.43.0 (0)
 -->
<!-- Title: sources/Renderer/QtRenderer/QtSfmlTileRenderer.hpp Pages: 1 -->
<svg width="1297pt" height="442pt"
 viewBox="0.00 0.00 1296.50 442.00" xmlns="http://www.w3.org/2000/svg" xmlns:xlink="http://www.w3.org/1999/xlink">
<g id="graph0" class="graph" transform="scale(1 1) rotate(0) translate(4 438)">
<title>sources/Renderer/QtRenderer/QtSfmlTileRenderer.hpp</title>
<polygon fill="white" stroke="transparent" points="-4,4 -4,-438 1292.5,-438 1292.5,4 -4,4"/>
<!-- Node1 -->
<g id="node1" class="node">
<title>Node1</title>
<g id="a_node1"><a xlink:title=" ">
<polygon fill="#bfbfbf" stroke="black" points="479,-403.5 479,-433.5 639,-433.5 639,-403.5 479,-403.5"/>
<text text-anchor="start" x="487" y="-421.5" font-family="Helvetica,sans-Serif" font-size="10.00">sources/Renderer/QtRenderer</text>
<text text-anchor="middle" x="559" y="-410.5" font-family="Helvetica,sans-Serif" font-size="10.00">/QtSfmlTileRenderer.hpp</text>
</a>
</g>
</g>
<!-- Node2 -->
<g id="node2" class="node">
<title>Node2</title>
<g id="a_node2"><a xlink:title=" ">
<polygon fill="white" stroke="#bfbfbf" points="410,-224.5 410,-243.5 452,-243.5 452,-224.5 410,-224.5"/>
<text text-anchor="middle" x="431" y="-231.5" font-family="Helvetica,sans-Serif" font-size="10.00">array</text>
</a>
</g>
</g>
<!-- Node1&#45;&gt;Node2 -->
<g id="edge1" class="edge">
<title>Node1&#45;&gt;Node2</title>
<path fill="none" stroke="midnightblue" d="M551.64,-403.16C538.1,-377.37 507.64,-321.95 475,-280 466.88,-269.57 456.61,-258.95 448.04,-250.65"/>
<polygon fill="midnightblue" stroke="midnightblue" points="450.41,-248.08 440.75,-243.74 445.6,-253.16 450.41,-248.08"/>
</g>
<!-- Node3 -->
<g id="node3" class="node">
<title>Node3</title>
<g id="a_node3"><a xlink:title=" ">
<polygon fill="white" stroke="#bfbfbf" points="545.5,-280.5 545.5,-299.5 658.5,-299.5 658.5,-280.5 545.5,-280.5"/>
<text text-anchor="middle" x="602" y="-287.5" font-family="Helvetica,sans-Serif" font-size="10.00">QtWidgets/QWidget</text>
</a>
</g>
</g>
<!-- Node1&#45;&gt;Node3 -->
<g id="edge2" class="edge">
<title>Node1&#45;&gt;Node3</title>
<path fill="none" stroke="midnightblue" d="M563.77,-403.48C571.57,-380.51 587.08,-334.89 595.76,-309.37"/>
<polygon fill="midnightblue" stroke="midnightblue" points="599.11,-310.38 599.01,-299.79 592.48,-308.13 599.11,-310.38"/>
</g>
<!-- Node4 -->
<g id="node4" class="node">
<title>Node4</title>
<g id="a_node4"><a xlink:href="QtWidgetSFML_8hpp.html" target="_top" xlink:title=" ">
<polygon fill="white" stroke="black" points="730,-342 730,-361 840,-361 840,-342 730,-342"/>
<text text-anchor="middle" x="785" y="-349" font-family="Helvetica,sans-Serif" font-size="10.00">QtWidgetSFML.hpp</text>
</a>
</g>
</g>
<!-- Node1&#45;&gt;Node4 -->
<g id="edge3" class="edge">
<title>Node1&#45;&gt;Node4</title>
<path fill="none" stroke="midnightblue" d="M607.76,-403.48C648.97,-391.62 707.26,-374.86 745.58,-363.84"/>
<polygon fill="midnightblue" stroke="midnightblue" points="746.7,-367.16 755.35,-361.03 744.77,-360.43 746.7,-367.16"/>
</g>
<!-- Node17 -->
<g id="node17" class="node">
<title>Node17</title>
<g id="a_node17"><a xlink:href="RAMTileRenderer_8hpp.html" target="_top" xlink:title=" ">
<polygon fill="white" stroke="black" points="345.5,-336.5 345.5,-366.5 470.5,-366.5 470.5,-336.5 345.5,-336.5"/>
<text text-anchor="start" x="353.5" y="-354.5" font-family="Helvetica,sans-Serif" font-size="10.00">Debugger/TileViewer</text>
<text text-anchor="middle" x="408" y="-343.5" font-family="Helvetica,sans-Serif" font-size="10.00">/RAMTileRenderer.hpp</text>
</a>
</g>
</g>
<!-- Node1&#45;&gt;Node17 -->
<g id="edge18" class="edge">
<title>Node1&#45;&gt;Node17</title>
<path fill="none" stroke="midnightblue" d="M526.24,-403.4C503.88,-393.77 474.06,-380.94 449.96,-370.56"/>
<polygon fill="midnightblue" stroke="midnightblue" points="451.27,-367.32 440.7,-366.58 448.5,-373.75 451.27,-367.32"/>
</g>
<!-- Node4&#45;&gt;Node3 -->
<g id="edge4" class="edge">
<title>Node4&#45;&gt;Node3</title>
<path fill="none" stroke="midnightblue" d="M758.78,-341.98C726.98,-331.64 673.23,-314.16 637.68,-302.6"/>
<polygon fill="midnightblue" stroke="midnightblue" points="638.76,-299.27 628.17,-299.51 636.6,-305.93 638.76,-299.27"/>
</g>
<!-- Node5 -->
<g id="node5" class="node">
<title>Node5</title>
<g id="a_node5"><a xlink:title=" ">
<polygon fill="white" stroke="#bfbfbf" points="470.5,-224.5 470.5,-243.5 655.5,-243.5 655.5,-224.5 470.5,-224.5"/>
<text text-anchor="middle" x="563" y="-231.5" font-family="Helvetica,sans-Serif" font-size="10.00">SFML/Graphics/RenderWindow.hpp</text>
</a>
</g>
</g>
<!-- Node4&#45;&gt;Node5 -->
<g id="edge5" class="edge">
<title>Node4&#45;&gt;Node5</title>
<path fill="none" stroke="midnightblue" d="M772,-341.86C750.76,-327.92 707.04,-300.01 668,-280 644.08,-267.74 616.05,-255.85 594.98,-247.37"/>
<polygon fill="midnightblue" stroke="midnightblue" points="596.12,-244.06 585.53,-243.61 593.53,-250.56 596.12,-244.06"/>
</g>
<!-- Node6 -->
<g id="node6" class="node">
<title>Node6</title>
<g id="a_node6"><a xlink:title=" ">
<polygon fill="white" stroke="#bfbfbf" points="873.5,-280.5 873.5,-299.5 962.5,-299.5 962.5,-280.5 873.5,-280.5"/>
<text text-anchor="middle" x="918" y="-287.5" font-family="Helvetica,sans-Serif" font-size="10.00">QtCore/QTimer</text>
</a>
</g>
</g>
<!-- Node4&#45;&gt;Node6 -->
<g id="edge6" class="edge">
<title>Node4&#45;&gt;Node6</title>
<path fill="none" stroke="midnightblue" d="M804.06,-341.98C826.47,-331.95 863.91,-315.2 889.71,-303.65"/>
<polygon fill="midnightblue" stroke="midnightblue" points="891.28,-306.79 898.98,-299.51 888.42,-300.4 891.28,-306.79"/>
</g>
<!-- Node7 -->
<g id="node7" class="node">
<title>Node7</title>
<g id="a_node7"><a xlink:title=" ">
<polygon fill="white" stroke="#bfbfbf" points="980.5,-280.5 980.5,-299.5 1121.5,-299.5 1121.5,-280.5 980.5,-280.5"/>
<text text-anchor="middle" x="1051" y="-287.5" font-family="Helvetica,sans-Serif" font-size="10.00">SFML/Graphics/Sprite.hpp</text>
</a>
</g>
</g>
<!-- Node4&#45;&gt;Node7 -->
<g id="edge7" class="edge">
<title>Node4&#45;&gt;Node7</title>
<path fill="none" stroke="midnightblue" d="M823.11,-341.98C870.52,-331.37 951.48,-313.26 1003.06,-301.72"/>
<polygon fill="midnightblue" stroke="midnightblue" points="1003.96,-305.11 1012.96,-299.51 1002.44,-298.28 1003.96,-305.11"/>
</g>
<!-- Node8 -->
<g id="node8" class="node">
<title>Node8</title>
<g id="a_node8"><a xlink:title=" ">
<polygon fill="white" stroke="#bfbfbf" points="1139.5,-280.5 1139.5,-299.5 1288.5,-299.5 1288.5,-280.5 1139.5,-280.5"/>
<text text-anchor="middle" x="1214" y="-287.5" font-family="Helvetica,sans-Serif" font-size="10.00">SFML/Graphics/Texture.hpp</text>
</a>
</g>
</g>
<!-- Node4&#45;&gt;Node8 -->
<g id="edge8" class="edge">
<title>Node4&#45;&gt;Node8</title>
<path fill="none" stroke="midnightblue" d="M840.21,-342.84C917.3,-332.15 1057.27,-312.74 1142.33,-300.94"/>
<polygon fill="midnightblue" stroke="midnightblue" points="1143,-304.38 1152.42,-299.54 1142.04,-297.45 1143,-304.38"/>
</g>
<!-- Node9 -->
<g id="node9" class="node">
<title>Node9</title>
<g id="a_node9"><a xlink:href="SFRenderer_8hpp.html" target="_top" xlink:title=" ">
<polygon fill="white" stroke="black" points="715,-280.5 715,-299.5 855,-299.5 855,-280.5 715,-280.5"/>
<text text-anchor="middle" x="785" y="-287.5" font-family="Helvetica,sans-Serif" font-size="10.00">Renderer/SFRenderer.hpp</text>
</a>
</g>
</g>
<!-- Node4&#45;&gt;Node9 -->
<g id="edge9" class="edge">
<title>Node4&#45;&gt;Node9</title>
<path fill="none" stroke="midnightblue" d="M785,-341.98C785,-333.58 785,-320.48 785,-309.66"/>
<polygon fill="midnightblue" stroke="midnightblue" points="788.5,-309.51 785,-299.51 781.5,-309.51 788.5,-309.51"/>
</g>
<!-- Node9&#45;&gt;Node5 -->
<g id="edge17" class="edge">
<title>Node9&#45;&gt;Node5</title>
<path fill="none" stroke="midnightblue" d="M749.82,-280.44C711.42,-271.1 649.82,-256.12 607.94,-245.93"/>
<polygon fill="midnightblue" stroke="midnightblue" points="608.56,-242.48 598.01,-243.52 606.9,-249.28 608.56,-242.48"/>
</g>
<!-- Node10 -->
<g id="node10" class="node">
<title>Node10</title>
<g id="a_node10"><a xlink:href="IRenderer_8hpp.html" target="_top" xlink:title=" ">
<polygon fill="white" stroke="black" points="920,-224.5 920,-243.5 1004,-243.5 1004,-224.5 920,-224.5"/>
<text text-anchor="middle" x="962" y="-231.5" font-family="Helvetica,sans-Serif" font-size="10.00">IRenderer.hpp</text>
</a>
</g>
</g>
<!-- Node9&#45;&gt;Node10 -->
<g id="edge10" class="edge">
<title>Node9&#45;&gt;Node10</title>
<path fill="none" stroke="midnightblue" d="M813.05,-280.44C843.08,-271.28 890.91,-256.69 924.24,-246.52"/>
<polygon fill="midnightblue" stroke="midnightblue" points="925.54,-249.78 934.09,-243.52 923.5,-243.09 925.54,-249.78"/>
</g>
<!-- Node13 -->
<g id="node13" class="node">
<title>Node13</title>
<g id="a_node13"><a xlink:title=" ">
<polygon fill="white" stroke="#bfbfbf" points="1022,-224.5 1022,-243.5 1132,-243.5 1132,-224.5 1022,-224.5"/>
<text text-anchor="middle" x="1077" y="-231.5" font-family="Helvetica,sans-Serif" font-size="10.00">SFML/Graphics.hpp</text>
</a>
</g>
</g>
<!-- Node9&#45;&gt;Node13 -->
<g id="edge13" class="edge">
<title>Node9&#45;&gt;Node13</title>
<path fill="none" stroke="midnightblue" d="M831.27,-280.44C882.74,-270.92 965.89,-255.55 1021,-245.36"/>
<polygon fill="midnightblue" stroke="midnightblue" points="1021.75,-248.78 1030.95,-243.52 1020.48,-241.89 1021.75,-248.78"/>
</g>
<!-- Node14 -->
<g id="node14" class="node">
<title>Node14</title>
<g id="a_node14"><a xlink:title=" ">
<polygon fill="white" stroke="#bfbfbf" points="1150.5,-224.5 1150.5,-243.5 1245.5,-243.5 1245.5,-224.5 1150.5,-224.5"/>
<text text-anchor="middle" x="1198" y="-231.5" font-family="Helvetica,sans-Serif" font-size="10.00">SFML/Audio.hpp</text>
</a>
</g>
</g>
<!-- Node9&#45;&gt;Node14 -->
<g id="edge14" class="edge">
<title>Node9&#45;&gt;Node14</title>
<path fill="none" stroke="midnightblue" d="M855.34,-280.76C924.96,-272.45 1034.87,-258.95 1140.25,-244.07"/>
<polygon fill="midnightblue" stroke="midnightblue" points="1141.02,-247.49 1150.43,-242.62 1140.04,-240.56 1141.02,-247.49"/>
</g>
<!-- Node15 -->
<g id="node15" class="node">
<title>Node15</title>
<g id="a_node15"><a xlink:title=" ">
<polygon fill="white" stroke="#bfbfbf" points="674,-224.5 674,-243.5 778,-243.5 778,-224.5 674,-224.5"/>
<text text-anchor="middle" x="726" y="-231.5" font-family="Helvetica,sans-Serif" font-size="10.00">SFML/System.hpp</text>
</a>
</g>
</g>
<!-- Node9&#45;&gt;Node15 -->
<g id="edge15" class="edge">
<title>Node9&#45;&gt;Node15</title>
<path fill="none" stroke="midnightblue" d="M775.52,-280.32C766.8,-272.34 753.66,-260.31 743.1,-250.65"/>
<polygon fill="midnightblue" stroke="midnightblue" points="745.39,-248 735.65,-243.83 740.67,-253.17 745.39,-248"/>
</g>
<!-- Node16 -->
<g id="node16" class="node">
<title>Node16</title>
<g id="a_node16"><a xlink:title=" ">
<polygon fill="white" stroke="#bfbfbf" points="796.5,-224.5 796.5,-243.5 901.5,-243.5 901.5,-224.5 796.5,-224.5"/>
<text text-anchor="middle" x="849" y="-231.5" font-family="Helvetica,sans-Serif" font-size="10.00">SFML/Window.hpp</text>
</a>
</g>
</g>
<!-- Node9&#45;&gt;Node16 -->
<g id="edge16" class="edge">
<title>Node9&#45;&gt;Node16</title>
<path fill="none" stroke="midnightblue" d="M795.28,-280.32C804.84,-272.26 819.28,-260.08 830.78,-250.37"/>
<polygon fill="midnightblue" stroke="midnightblue" points="833.14,-252.96 838.53,-243.83 828.63,-247.61 833.14,-252.96"/>
</g>
<!-- Node11 -->
<g id="node11" class="node">
<title>Node11</title>
<g id="a_node11"><a xlink:title=" ">
<polygon fill="white" stroke="#bfbfbf" points="501,-56.5 501,-75.5 545,-75.5 545,-56.5 501,-56.5"/>
<text text-anchor="middle" x="523" y="-63.5" font-family="Helvetica,sans-Serif" font-size="10.00">string</text>
</a>
</g>
</g>
<!-- Node10&#45;&gt;Node11 -->
<g id="edge11" class="edge">
<title>Node10&#45;&gt;Node11</title>
<path fill="none" stroke="midnightblue" d="M939.32,-224.42C866.52,-196.9 638.59,-110.71 554.54,-78.92"/>
<polygon fill="midnightblue" stroke="midnightblue" points="555.61,-75.59 545.02,-75.33 553.14,-82.14 555.61,-75.59"/>
</g>
<!-- Node12 -->
<g id="node12" class="node">
<title>Node12</title>
<g id="a_node12"><a xlink:title=" ">
<polygon fill="white" stroke="#bfbfbf" points="716,-168.5 716,-187.5 756,-187.5 756,-168.5 716,-168.5"/>
<text text-anchor="middle" x="736" y="-175.5" font-family="Helvetica,sans-Serif" font-size="10.00">span</text>
</a>
</g>
</g>
<!-- Node10&#45;&gt;Node12 -->
<g id="edge12" class="edge">
<title>Node10&#45;&gt;Node12</title>
<path fill="none" stroke="midnightblue" d="M926.19,-224.44C881.9,-213.86 807.31,-196.04 765.92,-186.15"/>
<polygon fill="midnightblue" stroke="midnightblue" points="766.7,-182.74 756.16,-183.82 765.07,-189.54 766.7,-182.74"/>
</g>
<!-- Node17&#45;&gt;Node2 -->
<g id="edge19" class="edge">
<title>Node17&#45;&gt;Node2</title>
<path fill="none" stroke="midnightblue" d="M429.3,-336.38C440.73,-327.46 453.73,-314.84 460,-300 467.03,-283.38 456.6,-264.57 446.35,-251.48"/>
<polygon fill="midnightblue" stroke="midnightblue" points="448.96,-249.15 439.82,-243.78 443.62,-253.67 448.96,-249.15"/>
</g>
<!-- Node18 -->
<g id="node18" class="node">
<title>Node18</title>
<g id="a_node18"><a xlink:href="TileRenderer_8hpp.html" target="_top" xlink:title=" ">
<polygon fill="white" stroke="black" points="329,-280.5 329,-299.5 451,-299.5 451,-280.5 329,-280.5"/>
<text text-anchor="middle" x="390" y="-287.5" font-family="Helvetica,sans-Serif" font-size="10.00">PPU/TileRenderer.hpp</text>
</a>
</g>
</g>
<!-- Node17&#45;&gt;Node18 -->
<g id="edge20" class="edge">
<title>Node17&#45;&gt;Node18</title>
<path fill="none" stroke="midnightblue" d="M403.73,-336.4C401.28,-328.29 398.17,-318.01 395.53,-309.28"/>
<polygon fill="midnightblue" stroke="midnightblue" points="398.86,-308.22 392.62,-299.66 392.16,-310.24 398.86,-308.22"/>
</g>
<!-- Node19 -->
<g id="node19" class="node">
<title>Node19</title>
<g id="a_node19"><a xlink:href="Ram_8hpp.html" target="_top" xlink:title=" ">
<polygon fill="white" stroke="black" points="306,-224.5 306,-243.5 392,-243.5 392,-224.5 306,-224.5"/>
<text text-anchor="middle" x="349" y="-231.5" font-family="Helvetica,sans-Serif" font-size="10.00">Ram/Ram.hpp</text>
</a>
</g>
</g>
<!-- Node17&#45;&gt;Node19 -->
<g id="edge37" class="edge">
<title>Node17&#45;&gt;Node19</title>
<path fill="none" stroke="midnightblue" d="M364.25,-336.32C347.32,-328.45 329.71,-316.77 320,-300 310.77,-284.06 322.12,-264.65 333.21,-251.21"/>
<polygon fill="midnightblue" stroke="midnightblue" points="335.87,-253.49 339.9,-243.7 330.64,-248.84 335.87,-253.49"/>
</g>
<!-- Node18&#45;&gt;Node2 -->
<g id="edge21" class="edge">
<title>Node18&#45;&gt;Node2</title>
<path fill="none" stroke="midnightblue" d="M396.77,-280.08C402.56,-272.46 411.06,-261.26 418.14,-251.94"/>
<polygon fill="midnightblue" stroke="midnightblue" points="421.1,-253.83 424.36,-243.75 415.52,-249.6 421.1,-253.83"/>
</g>
<!-- Node18&#45;&gt;Node19 -->
<g id="edge22" class="edge">
<title>Node18&#45;&gt;Node19</title>
<path fill="none" stroke="midnightblue" d="M383.23,-280.08C377.44,-272.46 368.94,-261.26 361.86,-251.94"/>
<polygon fill="midnightblue" stroke="midnightblue" points="364.48,-249.6 355.64,-243.75 358.9,-253.83 364.48,-249.6"/>
</g>
<!-- Node19&#45;&gt;Node11 -->
<g id="edge34" class="edge">
<title>Node19&#45;&gt;Node11</title>
<path fill="none" stroke="midnightblue" d="M361.9,-224.29C374.4,-215.64 393.66,-201.71 409,-188 447.72,-153.4 488.32,-107.67 509.03,-83.55"/>
<polygon fill="midnightblue" stroke="midnightblue" points="511.9,-85.58 515.73,-75.69 506.57,-81.03 511.9,-85.58"/>
</g>
<!-- Node19&#45;&gt;Node12 -->
<g id="edge35" class="edge">
<title>Node19&#45;&gt;Node12</title>
<path fill="none" stroke="midnightblue" d="M392.11,-225.41C395.12,-224.92 398.1,-224.45 401,-224 513.21,-206.76 647.14,-189.88 705.88,-182.66"/>
<polygon fill="midnightblue" stroke="midnightblue" points="706.45,-186.11 715.95,-181.42 705.6,-179.17 706.45,-186.11"/>
</g>
<!-- Node20 -->
<g id="node20" class="node">
<title>Node20</title>
<g id="a_node20"><a xlink:href="ARectangleMemory_8hpp.html" target="_top" xlink:title=" ">
<polygon fill="white" stroke="black" points="203,-168.5 203,-187.5 379,-187.5 379,-168.5 203,-168.5"/>
<text text-anchor="middle" x="291" y="-175.5" font-family="Helvetica,sans-Serif" font-size="10.00">Memory/ARectangleMemory.hpp</text>
</a>
</g>
</g>
<!-- Node19&#45;&gt;Node20 -->
<g id="edge23" class="edge">
<title>Node19&#45;&gt;Node20</title>
<path fill="none" stroke="midnightblue" d="M339.68,-224.32C331.11,-216.34 318.19,-204.31 307.81,-194.65"/>
<polygon fill="midnightblue" stroke="midnightblue" points="310.19,-192.09 300.49,-187.83 305.42,-197.21 310.19,-192.09"/>
</g>
<!-- Node23 -->
<g id="node23" class="node">
<title>Node23</title>
<g id="a_node23"><a xlink:title=" ">
<polygon fill="white" stroke="#bfbfbf" points="435.5,-56.5 435.5,-75.5 482.5,-75.5 482.5,-56.5 435.5,-56.5"/>
<text text-anchor="middle" x="459" y="-63.5" font-family="Helvetica,sans-Serif" font-size="10.00">vector</text>
</a>
</g>
</g>
<!-- Node19&#45;&gt;Node23 -->
<g id="edge36" class="edge">
<title>Node19&#45;&gt;Node23</title>
<path fill="none" stroke="midnightblue" d="M357.27,-224.43C365.53,-215.66 378.36,-201.44 388,-188 413.1,-153.02 437.38,-108.66 450.02,-84.55"/>
<polygon fill="midnightblue" stroke="midnightblue" points="453.19,-86.03 454.68,-75.54 446.97,-82.81 453.19,-86.03"/>
</g>
<!-- Node21 -->
<g id="node21" class="node">
<title>Node21</title>
<g id="a_node21"><a xlink:href="IMemory_8hpp.html" target="_top" xlink:title=" ">
<polygon fill="white" stroke="black" points="251,-112.5 251,-131.5 331,-131.5 331,-112.5 251,-112.5"/>
<text text-anchor="middle" x="291" y="-119.5" font-family="Helvetica,sans-Serif" font-size="10.00">IMemory.hpp</text>
</a>
</g>
</g>
<!-- Node20&#45;&gt;Node21 -->
<g id="edge24" class="edge">
<title>Node20&#45;&gt;Node21</title>
<path fill="none" stroke="midnightblue" d="M291,-168.08C291,-161.01 291,-150.86 291,-141.99"/>
<polygon fill="midnightblue" stroke="midnightblue" points="294.5,-141.75 291,-131.75 287.5,-141.75 294.5,-141.75"/>
</g>
<!-- Node25 -->
<g id="node25" class="node">
<title>Node25</title>
<g id="a_node25"><a xlink:href="Ints_8hpp.html" target="_top" xlink:title=" ">
<polygon fill="white" stroke="black" points="23,-56.5 23,-75.5 117,-75.5 117,-56.5 23,-56.5"/>
<text text-anchor="middle" x="70" y="-63.5" font-family="Helvetica,sans-Serif" font-size="10.00">Models/Ints.hpp</text>
</a>
</g>
</g>
<!-- Node20&#45;&gt;Node25 -->
<g id="edge33" class="edge">
<title>Node20&#45;&gt;Node25</title>
<path fill="none" stroke="midnightblue" d="M273.66,-168.37C235.09,-149.17 142.01,-102.84 96.27,-80.07"/>
<polygon fill="midnightblue" stroke="midnightblue" points="97.77,-76.91 87.26,-75.59 94.65,-83.18 97.77,-76.91"/>
</g>
<!-- Node21&#45;&gt;Node11 -->
<g id="edge28" class="edge">
<title>Node21&#45;&gt;Node11</title>
<path fill="none" stroke="midnightblue" d="M331.22,-112.77C369.85,-104.69 430.08,-91.64 490.93,-76.16"/>
<polygon fill="midnightblue" stroke="midnightblue" points="491.88,-79.53 500.69,-73.66 490.14,-72.75 491.88,-79.53"/>
</g>
<!-- Node22 -->
<g id="node22" class="node">
<title>Node22</title>
<g id="a_node22"><a xlink:title=" ">
<polygon fill="white" stroke="#bfbfbf" points="367,-56.5 367,-75.5 417,-75.5 417,-56.5 367,-56.5"/>
<text text-anchor="middle" x="392" y="-63.5" font-family="Helvetica,sans-Serif" font-size="10.00">cstdint</text>
</a>
</g>
</g>
<!-- Node21&#45;&gt;Node22 -->
<g id="edge25" class="edge">
<title>Node21&#45;&gt;Node22</title>
<path fill="none" stroke="midnightblue" d="M307.23,-112.32C323.35,-103.7 348.3,-90.36 366.96,-80.39"/>
<polygon fill="midnightblue" stroke="midnightblue" points="368.64,-83.46 375.81,-75.65 365.34,-77.28 368.64,-83.46"/>
</g>
<!-- Node21&#45;&gt;Node23 -->
<g id="edge26" class="edge">
<title>Node21&#45;&gt;Node23</title>
<path fill="none" stroke="midnightblue" d="M317.62,-112.44C346.92,-103.02 394.07,-87.87 425.78,-77.68"/>
<polygon fill="midnightblue" stroke="midnightblue" points="427.04,-80.95 435.49,-74.56 424.89,-74.29 427.04,-80.95"/>
</g>
<!-- Node24 -->
<g id="node24" class="node">
<title>Node24</title>
<g id="a_node24"><a xlink:title=" ">
<polygon fill="white" stroke="#bfbfbf" points="135,-56.5 135,-75.5 193,-75.5 193,-56.5 135,-56.5"/>
<text text-anchor="middle" x="164" y="-63.5" font-family="Helvetica,sans-Serif" font-size="10.00">memory</text>
</a>
</g>
</g>
<!-- Node21&#45;&gt;Node24 -->
<g id="edge27" class="edge">
<title>Node21&#45;&gt;Node24</title>
<path fill="none" stroke="midnightblue" d="M270.88,-112.44C249.98,-103.56 217.07,-89.56 193.28,-79.45"/>
<polygon fill="midnightblue" stroke="midnightblue" points="194.6,-76.21 184.03,-75.52 191.86,-82.65 194.6,-76.21"/>
</g>
<!-- Node21&#45;&gt;Node25 -->
<g id="edge29" class="edge">
<title>Node21&#45;&gt;Node25</title>
<path fill="none" stroke="midnightblue" d="M255.98,-112.44C217.75,-103.1 156.43,-88.12 114.74,-77.93"/>
<polygon fill="midnightblue" stroke="midnightblue" points="115.4,-74.49 104.85,-75.52 113.74,-81.29 115.4,-74.49"/>
</g>
<!-- Node28 -->
<g id="node28" class="node">
<title>Node28</title>
<g id="a_node28"><a xlink:href="Components_8hpp.html" target="_top" xlink:title=" ">
<polygon fill="white" stroke="black" points="211.5,-56.5 211.5,-75.5 348.5,-75.5 348.5,-56.5 211.5,-56.5"/>
<text text-anchor="middle" x="280" y="-63.5" font-family="Helvetica,sans-Serif" font-size="10.00">Models/Components.hpp</text>
</a>
</g>
</g>
<!-- Node21&#45;&gt;Node28 -->
<g id="edge32" class="edge">
<title>Node21&#45;&gt;Node28</title>
<path fill="none" stroke="midnightblue" d="M289.18,-112.08C287.73,-104.93 285.63,-94.64 283.81,-85.69"/>
<polygon fill="midnightblue" stroke="midnightblue" points="287.21,-84.85 281.78,-75.75 280.35,-86.25 287.21,-84.85"/>
</g>
<!-- Node26 -->
<g id="node26" class="node">
<title>Node26</title>
<g id="a_node26"><a xlink:title=" ">
<polygon fill="white" stroke="#bfbfbf" points="0,-0.5 0,-19.5 62,-19.5 62,-0.5 0,-0.5"/>
<text text-anchor="middle" x="31" y="-7.5" font-family="Helvetica,sans-Serif" font-size="10.00">cinttypes</text>
</a>
</g>
</g>
<!-- Node25&#45;&gt;Node26 -->
<g id="edge30" class="edge">
<title>Node25&#45;&gt;Node26</title>
<path fill="none" stroke="midnightblue" d="M63.56,-56.08C58.05,-48.46 49.97,-37.26 43.24,-27.94"/>
<polygon fill="midnightblue" stroke="midnightblue" points="46.01,-25.81 37.32,-19.75 40.34,-29.91 46.01,-25.81"/>
</g>
<!-- Node27 -->
<g id="node27" class="node">
<title>Node27</title>
<g id="a_node27"><a xlink:title=" ">
<polygon fill="white" stroke="#bfbfbf" points="80,-0.5 80,-19.5 140,-19.5 140,-0.5 80,-0.5"/>
<text text-anchor="middle" x="110" y="-7.5" font-family="Helvetica,sans-Serif" font-size="10.00">iostream</text>
</a>
</g>
</g>
<!-- Node25&#45;&gt;Node27 -->
<g id="edge31" class="edge">
<title>Node25&#45;&gt;Node27</title>
<path fill="none" stroke="midnightblue" d="M76.61,-56.08C82.26,-48.46 90.54,-37.26 97.45,-27.94"/>
<polygon fill="midnightblue" stroke="midnightblue" points="100.38,-29.87 103.52,-19.75 94.75,-25.7 100.38,-29.87"/>
</g>
</g>
</svg>
