<?xml version="1.0" encoding="UTF-8" standalone="no"?>
<!DOCTYPE svg PUBLIC "-//W3C//DTD SVG 1.1//EN"
 "http://www.w3.org/Graphics/SVG/1.1/DTD/svg11.dtd">
<!-- Generated by graphviz version 2.43.0 (0)
 -->
<!-- Title: sources/Renderer/QtRenderer/QtWidgetSFML.hpp Pages: 1 -->
<svg width="660pt" height="240pt"
 viewBox="0.00 0.00 659.81 240.00" xmlns="http://www.w3.org/2000/svg" xmlns:xlink="http://www.w3.org/1999/xlink">
<g id="graph0" class="graph" transform="scale(1 1) rotate(0) translate(4 236)">
<title>sources/Renderer/QtRenderer/QtWidgetSFML.hpp</title>
<polygon fill="white" stroke="transparent" points="-4,4 -4,-236 655.81,-236 655.81,4 -4,4"/>
<!-- Node1 -->
<g id="node1" class="node">
<title>Node1</title>
<g id="a_node1"><a xlink:title=" ">
<polygon fill="#bfbfbf" stroke="black" points="313.81,-201.5 313.81,-231.5 473.81,-231.5 473.81,-201.5 313.81,-201.5"/>
<text text-anchor="start" x="321.81" y="-219.5" font-family="Helvetica,sans-Serif" font-size="10.00">sources/Renderer/QtRenderer</text>
<text text-anchor="middle" x="393.81" y="-208.5" font-family="Helvetica,sans-Serif" font-size="10.00">/QtWidgetSFML.hpp</text>
</a>
</g>
</g>
<!-- Node2 -->
<g id="node2" class="node">
<title>Node2</title>
<g id="a_node2"><a xlink:href="QtSFML_8hpp.html" target="_top" xlink:title=" ">
<polygon fill="white" stroke="black" points="61.81,-134.5 61.81,-164.5 221.81,-164.5 221.81,-134.5 61.81,-134.5"/>
<text text-anchor="start" x="69.81" y="-152.5" font-family="Helvetica,sans-Serif" font-size="10.00">sources/Renderer/QtRenderer</text>
<text text-anchor="middle" x="141.81" y="-141.5" font-family="Helvetica,sans-Serif" font-size="10.00">/QtSFML.hpp</text>
</a>
</g>
</g>
<!-- Node1&#45;&gt;Node2 -->
<g id="edge1" class="edge">
<title>Node1&#45;&gt;Node2</title>
<path fill="none" stroke="midnightblue" d="M329.52,-198.92C288.4,-188.31 235.63,-174.7 196.52,-164.61"/>
<polygon fill="midnightblue" stroke="midnightblue" points="328.89,-202.37 339.44,-201.48 330.63,-195.59 328.89,-202.37"/>
</g>
<!-- Node6 -->
<g id="node6" class="node">
<title>Node6</title>
<g id="a_node6"><a xlink:href="QtSfmlTileRenderer_8hpp.html" target="_top" xlink:title=" ">
<polygon fill="white" stroke="black" points="313.81,-134.5 313.81,-164.5 473.81,-164.5 473.81,-134.5 313.81,-134.5"/>
<text text-anchor="start" x="321.81" y="-152.5" font-family="Helvetica,sans-Serif" font-size="10.00">sources/Renderer/QtRenderer</text>
<text text-anchor="middle" x="393.81" y="-141.5" font-family="Helvetica,sans-Serif" font-size="10.00">/QtSfmlTileRenderer.hpp</text>
</a>
</g>
</g>
<!-- Node1&#45;&gt;Node6 -->
<g id="edge5" class="edge">
<title>Node1&#45;&gt;Node6</title>
<path fill="none" stroke="midnightblue" d="M393.81,-191.11C393.81,-182.15 393.81,-172.32 393.81,-164.58"/>
<polygon fill="midnightblue" stroke="midnightblue" points="390.31,-191.4 393.81,-201.4 397.31,-191.4 390.31,-191.4"/>
</g>
<!-- Node9 -->
<g id="node9" class="node">
<title>Node9</title>
<g id="a_node9"><a xlink:href="QtWidgetSFML_8cpp.html" target="_top" xlink:title=" ">
<polygon fill="white" stroke="black" points="491.81,-134.5 491.81,-164.5 651.81,-164.5 651.81,-134.5 491.81,-134.5"/>
<text text-anchor="start" x="499.81" y="-152.5" font-family="Helvetica,sans-Serif" font-size="10.00">sources/Renderer/QtRenderer</text>
<text text-anchor="middle" x="571.81" y="-141.5" font-family="Helvetica,sans-Serif" font-size="10.00">/QtWidgetSFML.cpp</text>
</a>
</g>
</g>
<!-- Node1&#45;&gt;Node9 -->
<g id="edge9" class="edge">
<title>Node1&#45;&gt;Node9</title>
<path fill="none" stroke="midnightblue" d="M441.86,-197.96C470.53,-187.48 506.46,-174.37 533.27,-164.58"/>
<polygon fill="midnightblue" stroke="midnightblue" points="440.63,-194.68 432.44,-201.4 443.03,-201.25 440.63,-194.68"/>
</g>
<!-- Node3 -->
<g id="node3" class="node">
<title>Node3</title>
<g id="a_node3"><a xlink:href="TileViewer_8cpp.html" target="_top" xlink:title=" ">
<polygon fill="white" stroke="black" points="111.31,-0.5 111.31,-30.5 270.31,-30.5 270.31,-0.5 111.31,-0.5"/>
<text text-anchor="start" x="119.31" y="-18.5" font-family="Helvetica,sans-Serif" font-size="10.00">sources/Debugger/TileViewer</text>
<text text-anchor="middle" x="190.81" y="-7.5" font-family="Helvetica,sans-Serif" font-size="10.00">/TileViewer.cpp</text>
</a>
</g>
</g>
<!-- Node2&#45;&gt;Node3 -->
<g id="edge2" class="edge">
<title>Node2&#45;&gt;Node3</title>
<path fill="none" stroke="midnightblue" d="M67.23,-131.55C24.68,-118.25 -16.03,-96.95 6.81,-67 19.92,-49.81 67.48,-37.02 110.96,-28.62"/>
<polygon fill="midnightblue" stroke="midnightblue" points="66.3,-134.92 76.89,-134.43 68.3,-128.22 66.3,-134.92"/>
</g>
<!-- Node4 -->
<g id="node4" class="node">
<title>Node4</title>
<g id="a_node4"><a xlink:href="main_8cpp.html" target="_top" xlink:title=" ">
<polygon fill="white" stroke="black" points="15.81,-73 15.81,-92 117.81,-92 117.81,-73 15.81,-73"/>
<text text-anchor="middle" x="66.81" y="-80" font-family="Helvetica,sans-Serif" font-size="10.00">sources/main.cpp</text>
</a>
</g>
</g>
<!-- Node2&#45;&gt;Node4 -->
<g id="edge3" class="edge">
<title>Node2&#45;&gt;Node4</title>
<path fill="none" stroke="midnightblue" d="M117.78,-127.67C103.93,-115.67 87.26,-101.22 76.85,-92.19"/>
<polygon fill="midnightblue" stroke="midnightblue" points="115.69,-130.49 125.54,-134.4 120.28,-125.2 115.69,-130.49"/>
</g>
<!-- Node5 -->
<g id="node5" class="node">
<title>Node5</title>
<g id="a_node5"><a xlink:href="QtSFML_8cpp.html" target="_top" xlink:title=" ">
<polygon fill="white" stroke="black" points="135.81,-67.5 135.81,-97.5 295.81,-97.5 295.81,-67.5 135.81,-67.5"/>
<text text-anchor="start" x="143.81" y="-85.5" font-family="Helvetica,sans-Serif" font-size="10.00">sources/Renderer/QtRenderer</text>
<text text-anchor="middle" x="215.81" y="-74.5" font-family="Helvetica,sans-Serif" font-size="10.00">/QtSFML.cpp</text>
</a>
</g>
</g>
<!-- Node2&#45;&gt;Node5 -->
<g id="edge4" class="edge">
<title>Node2&#45;&gt;Node5</title>
<path fill="none" stroke="midnightblue" d="M165.61,-127.6C176.78,-117.78 189.81,-106.34 199.79,-97.58"/>
<polygon fill="midnightblue" stroke="midnightblue" points="163.07,-125.17 157.87,-134.4 167.69,-130.43 163.07,-125.17"/>
</g>
<!-- Node7 -->
<g id="node7" class="node">
<title>Node7</title>
<g id="a_node7"><a xlink:href="TileViewer_8hpp.html" target="_top" xlink:title=" ">
<polygon fill="white" stroke="black" points="314.31,-67.5 314.31,-97.5 473.31,-97.5 473.31,-67.5 314.31,-67.5"/>
<text text-anchor="start" x="322.31" y="-85.5" font-family="Helvetica,sans-Serif" font-size="10.00">sources/Debugger/TileViewer</text>
<text text-anchor="middle" x="393.81" y="-74.5" font-family="Helvetica,sans-Serif" font-size="10.00">/TileViewer.hpp</text>
</a>
</g>
</g>
<!-- Node6&#45;&gt;Node7 -->
<g id="edge6" class="edge">
<title>Node6&#45;&gt;Node7</title>
<path fill="none" stroke="midnightblue" d="M393.81,-124.11C393.81,-115.15 393.81,-105.32 393.81,-97.58"/>
<polygon fill="midnightblue" stroke="midnightblue" points="390.31,-124.4 393.81,-134.4 397.31,-124.4 390.31,-124.4"/>
</g>
<!-- Node8 -->
<g id="node8" class="node">
<title>Node8</title>
<g id="a_node8"><a xlink:href="QtSfmlTileRenderer_8cpp.html" target="_top" xlink:title=" ">
<polygon fill="white" stroke="black" points="491.81,-67.5 491.81,-97.5 651.81,-97.5 651.81,-67.5 491.81,-67.5"/>
<text text-anchor="start" x="499.81" y="-85.5" font-family="Helvetica,sans-Serif" font-size="10.00">sources/Renderer/QtRenderer</text>
<text text-anchor="middle" x="571.81" y="-74.5" font-family="Helvetica,sans-Serif" font-size="10.00">/QtSfmlTileRenderer.cpp</text>
</a>
</g>
</g>
<!-- Node6&#45;&gt;Node8 -->
<g id="edge8" class="edge">
<title>Node6&#45;&gt;Node8</title>
<path fill="none" stroke="midnightblue" d="M441.86,-130.96C470.53,-120.48 506.46,-107.37 533.27,-97.58"/>
<polygon fill="midnightblue" stroke="midnightblue" points="440.63,-127.68 432.44,-134.4 443.03,-134.25 440.63,-127.68"/>
</g>
<!-- Node7&#45;&gt;Node3 -->
<g id="edge7" class="edge">
<title>Node7&#45;&gt;Node3</title>
<path fill="none" stroke="midnightblue" d="M339.87,-64.23C307.03,-53.71 265.61,-40.45 234.78,-30.58"/>
<polygon fill="midnightblue" stroke="midnightblue" points="339.17,-67.68 349.77,-67.4 341.31,-61.01 339.17,-67.68"/>
</g>
</g>
</svg>
