<?xml version="1.0" encoding="UTF-8" standalone="no"?>
<!DOCTYPE svg PUBLIC "-//W3C//DTD SVG 1.1//EN"
 "http://www.w3.org/Graphics/SVG/1.1/DTD/svg11.dtd">
<!-- Generated by graphviz version 2.43.0 (0)
 -->
<!-- Title: sources/Renderer/QtRenderer/QtWidgetSFML.cpp Pages: 1 -->
<svg width="975pt" height="263pt"
 viewBox="0.00 0.00 975.00 263.00" xmlns="http://www.w3.org/2000/svg" xmlns:xlink="http://www.w3.org/1999/xlink">
<g id="graph0" class="graph" transform="scale(1 1) rotate(0) translate(4 259)">
<title>sources/Renderer/QtRenderer/QtWidgetSFML.cpp</title>
<polygon fill="white" stroke="transparent" points="-4,4 -4,-259 971,-259 971,4 -4,4"/>
<!-- Node1 -->
<g id="node1" class="node">
<title>Node1</title>
<g id="a_node1"><a xlink:title=" ">
<polygon fill="#bfbfbf" stroke="black" points="200.5,-224.5 200.5,-254.5 360.5,-254.5 360.5,-224.5 200.5,-224.5"/>
<text text-anchor="start" x="208.5" y="-242.5" font-family="Helvetica,sans-Serif" font-size="10.00">sources/Renderer/QtRenderer</text>
<text text-anchor="middle" x="280.5" y="-231.5" font-family="Helvetica,sans-Serif" font-size="10.00">/QtWidgetSFML.cpp</text>
</a>
</g>
</g>
<!-- Node2 -->
<g id="node2" class="node">
<title>Node2</title>
<g id="a_node2"><a xlink:href="QtWidgetSFML_8hpp.html" target="_top" xlink:title=" ">
<polygon fill="white" stroke="black" points="225.5,-168.5 225.5,-187.5 335.5,-187.5 335.5,-168.5 225.5,-168.5"/>
<text text-anchor="middle" x="280.5" y="-175.5" font-family="Helvetica,sans-Serif" font-size="10.00">QtWidgetSFML.hpp</text>
</a>
</g>
</g>
<!-- Node1&#45;&gt;Node2 -->
<g id="edge1" class="edge">
<title>Node1&#45;&gt;Node2</title>
<path fill="none" stroke="midnightblue" d="M280.5,-224.4C280.5,-216.47 280.5,-206.46 280.5,-197.86"/>
<polygon fill="midnightblue" stroke="midnightblue" points="284,-197.66 280.5,-187.66 277,-197.66 284,-197.66"/>
</g>
<!-- Node3 -->
<g id="node3" class="node">
<title>Node3</title>
<g id="a_node3"><a xlink:title=" ">
<polygon fill="white" stroke="#bfbfbf" points="0,-112.5 0,-131.5 113,-131.5 113,-112.5 0,-112.5"/>
<text text-anchor="middle" x="56.5" y="-119.5" font-family="Helvetica,sans-Serif" font-size="10.00">QtWidgets/QWidget</text>
</a>
</g>
</g>
<!-- Node2&#45;&gt;Node3 -->
<g id="edge2" class="edge">
<title>Node2&#45;&gt;Node3</title>
<path fill="none" stroke="midnightblue" d="M245.01,-168.44C206.18,-159.08 143.84,-144.06 101.58,-133.87"/>
<polygon fill="midnightblue" stroke="midnightblue" points="102.37,-130.46 91.83,-131.52 100.73,-137.26 102.37,-130.46"/>
</g>
<!-- Node4 -->
<g id="node4" class="node">
<title>Node4</title>
<g id="a_node4"><a xlink:title=" ">
<polygon fill="white" stroke="#bfbfbf" points="121,-56.5 121,-75.5 306,-75.5 306,-56.5 121,-56.5"/>
<text text-anchor="middle" x="213.5" y="-63.5" font-family="Helvetica,sans-Serif" font-size="10.00">SFML/Graphics/RenderWindow.hpp</text>
</a>
</g>
</g>
<!-- Node2&#45;&gt;Node4 -->
<g id="edge3" class="edge">
<title>Node2&#45;&gt;Node4</title>
<path fill="none" stroke="midnightblue" d="M225.28,-170.38C201.22,-164.44 175.2,-153.21 160.5,-132 147.77,-113.63 169.36,-93.92 188.69,-81.08"/>
<polygon fill="midnightblue" stroke="midnightblue" points="190.67,-83.97 197.28,-75.7 186.95,-78.04 190.67,-83.97"/>
</g>
<!-- Node5 -->
<g id="node5" class="node">
<title>Node5</title>
<g id="a_node5"><a xlink:title=" ">
<polygon fill="white" stroke="#bfbfbf" points="170,-112.5 170,-131.5 259,-131.5 259,-112.5 170,-112.5"/>
<text text-anchor="middle" x="214.5" y="-119.5" font-family="Helvetica,sans-Serif" font-size="10.00">QtCore/QTimer</text>
</a>
</g>
</g>
<!-- Node2&#45;&gt;Node5 -->
<g id="edge4" class="edge">
<title>Node2&#45;&gt;Node5</title>
<path fill="none" stroke="midnightblue" d="M269.9,-168.32C260.04,-160.26 245.15,-148.08 233.28,-138.37"/>
<polygon fill="midnightblue" stroke="midnightblue" points="235.25,-135.46 225.3,-131.83 230.82,-140.88 235.25,-135.46"/>
</g>
<!-- Node6 -->
<g id="node6" class="node">
<title>Node6</title>
<g id="a_node6"><a xlink:title=" ">
<polygon fill="white" stroke="#bfbfbf" points="277,-112.5 277,-131.5 418,-131.5 418,-112.5 277,-112.5"/>
<text text-anchor="middle" x="347.5" y="-119.5" font-family="Helvetica,sans-Serif" font-size="10.00">SFML/Graphics/Sprite.hpp</text>
</a>
</g>
</g>
<!-- Node2&#45;&gt;Node6 -->
<g id="edge5" class="edge">
<title>Node2&#45;&gt;Node6</title>
<path fill="none" stroke="midnightblue" d="M291.26,-168.32C301.27,-160.26 316.39,-148.08 328.43,-138.37"/>
<polygon fill="midnightblue" stroke="midnightblue" points="330.95,-140.83 336.54,-131.83 326.56,-135.38 330.95,-140.83"/>
</g>
<!-- Node7 -->
<g id="node7" class="node">
<title>Node7</title>
<g id="a_node7"><a xlink:title=" ">
<polygon fill="white" stroke="#bfbfbf" points="436,-112.5 436,-131.5 585,-131.5 585,-112.5 436,-112.5"/>
<text text-anchor="middle" x="510.5" y="-119.5" font-family="Helvetica,sans-Serif" font-size="10.00">SFML/Graphics/Texture.hpp</text>
</a>
</g>
</g>
<!-- Node2&#45;&gt;Node7 -->
<g id="edge6" class="edge">
<title>Node2&#45;&gt;Node7</title>
<path fill="none" stroke="midnightblue" d="M316.94,-168.44C356.9,-159.06 421.09,-143.99 464.48,-133.8"/>
<polygon fill="midnightblue" stroke="midnightblue" points="465.29,-137.21 474.23,-131.52 463.69,-130.39 465.29,-137.21"/>
</g>
<!-- Node8 -->
<g id="node8" class="node">
<title>Node8</title>
<g id="a_node8"><a xlink:href="SFRenderer_8hpp.html" target="_top" xlink:title=" ">
<polygon fill="white" stroke="black" points="603.5,-112.5 603.5,-131.5 743.5,-131.5 743.5,-112.5 603.5,-112.5"/>
<text text-anchor="middle" x="673.5" y="-119.5" font-family="Helvetica,sans-Serif" font-size="10.00">Renderer/SFRenderer.hpp</text>
</a>
</g>
</g>
<!-- Node2&#45;&gt;Node8 -->
<g id="edge7" class="edge">
<title>Node2&#45;&gt;Node8</title>
<path fill="none" stroke="midnightblue" d="M335.56,-169.43C405,-159.89 524.59,-143.46 601.3,-132.92"/>
<polygon fill="midnightblue" stroke="midnightblue" points="601.93,-136.37 611.36,-131.54 600.98,-129.43 601.93,-136.37"/>
</g>
<!-- Node8&#45;&gt;Node4 -->
<g id="edge15" class="edge">
<title>Node8&#45;&gt;Node4</title>
<path fill="none" stroke="midnightblue" d="M603.39,-112.77C520.89,-103.08 384.07,-87.02 296.4,-76.73"/>
<polygon fill="midnightblue" stroke="midnightblue" points="296.56,-73.23 286.22,-75.54 295.74,-80.18 296.56,-73.23"/>
</g>
<!-- Node9 -->
<g id="node9" class="node">
<title>Node9</title>
<g id="a_node9"><a xlink:href="IRenderer_8hpp.html" target="_top" xlink:title=" ">
<polygon fill="white" stroke="black" points="395.5,-56.5 395.5,-75.5 479.5,-75.5 479.5,-56.5 395.5,-56.5"/>
<text text-anchor="middle" x="437.5" y="-63.5" font-family="Helvetica,sans-Serif" font-size="10.00">IRenderer.hpp</text>
</a>
</g>
</g>
<!-- Node8&#45;&gt;Node9 -->
<g id="edge8" class="edge">
<title>Node8&#45;&gt;Node9</title>
<path fill="none" stroke="midnightblue" d="M636.11,-112.44C595.11,-103.06 529.25,-87.99 484.72,-77.8"/>
<polygon fill="midnightblue" stroke="midnightblue" points="485.25,-74.34 474.72,-75.52 483.69,-81.16 485.25,-74.34"/>
</g>
<!-- Node12 -->
<g id="node12" class="node">
<title>Node12</title>
<g id="a_node12"><a xlink:title=" ">
<polygon fill="white" stroke="#bfbfbf" points="497.5,-56.5 497.5,-75.5 607.5,-75.5 607.5,-56.5 497.5,-56.5"/>
<text text-anchor="middle" x="552.5" y="-63.5" font-family="Helvetica,sans-Serif" font-size="10.00">SFML/Graphics.hpp</text>
</a>
</g>
</g>
<!-- Node8&#45;&gt;Node12 -->
<g id="edge11" class="edge">
<title>Node8&#45;&gt;Node12</title>
<path fill="none" stroke="midnightblue" d="M654.33,-112.44C634.59,-103.64 603.61,-89.81 581.01,-79.72"/>
<polygon fill="midnightblue" stroke="midnightblue" points="582.14,-76.4 571.58,-75.52 579.29,-82.79 582.14,-76.4"/>
</g>
<!-- Node13 -->
<g id="node13" class="node">
<title>Node13</title>
<g id="a_node13"><a xlink:title=" ">
<polygon fill="white" stroke="#bfbfbf" points="626,-56.5 626,-75.5 721,-75.5 721,-56.5 626,-56.5"/>
<text text-anchor="middle" x="673.5" y="-63.5" font-family="Helvetica,sans-Serif" font-size="10.00">SFML/Audio.hpp</text>
</a>
</g>
</g>
<!-- Node8&#45;&gt;Node13 -->
<g id="edge12" class="edge">
<title>Node8&#45;&gt;Node13</title>
<path fill="none" stroke="midnightblue" d="M673.5,-112.08C673.5,-105.01 673.5,-94.86 673.5,-85.99"/>
<polygon fill="midnightblue" stroke="midnightblue" points="677,-85.75 673.5,-75.75 670,-85.75 677,-85.75"/>
</g>
<!-- Node14 -->
<g id="node14" class="node">
<title>Node14</title>
<g id="a_node14"><a xlink:title=" ">
<polygon fill="white" stroke="#bfbfbf" points="739.5,-56.5 739.5,-75.5 843.5,-75.5 843.5,-56.5 739.5,-56.5"/>
<text text-anchor="middle" x="791.5" y="-63.5" font-family="Helvetica,sans-Serif" font-size="10.00">SFML/System.hpp</text>
</a>
</g>
</g>
<!-- Node8&#45;&gt;Node14 -->
<g id="edge13" class="edge">
<title>Node8&#45;&gt;Node14</title>
<path fill="none" stroke="midnightblue" d="M692.2,-112.44C711.44,-103.64 741.65,-89.81 763.7,-79.72"/>
<polygon fill="midnightblue" stroke="midnightblue" points="765.25,-82.86 772.89,-75.52 762.34,-76.5 765.25,-82.86"/>
</g>
<!-- Node15 -->
<g id="node15" class="node">
<title>Node15</title>
<g id="a_node15"><a xlink:title=" ">
<polygon fill="white" stroke="#bfbfbf" points="862,-56.5 862,-75.5 967,-75.5 967,-56.5 862,-56.5"/>
<text text-anchor="middle" x="914.5" y="-63.5" font-family="Helvetica,sans-Serif" font-size="10.00">SFML/Window.hpp</text>
</a>
</g>
</g>
<!-- Node8&#45;&gt;Node15 -->
<g id="edge14" class="edge">
<title>Node8&#45;&gt;Node15</title>
<path fill="none" stroke="midnightblue" d="M711.69,-112.44C753.64,-103.04 821.09,-87.93 866.57,-77.74"/>
<polygon fill="midnightblue" stroke="midnightblue" points="867.5,-81.12 876.49,-75.52 865.97,-74.29 867.5,-81.12"/>
</g>
<!-- Node10 -->
<g id="node10" class="node">
<title>Node10</title>
<g id="a_node10"><a xlink:title=" ">
<polygon fill="white" stroke="#bfbfbf" points="385.5,-0.5 385.5,-19.5 429.5,-19.5 429.5,-0.5 385.5,-0.5"/>
<text text-anchor="middle" x="407.5" y="-7.5" font-family="Helvetica,sans-Serif" font-size="10.00">string</text>
</a>
</g>
</g>
<!-- Node9&#45;&gt;Node10 -->
<g id="edge9" class="edge">
<title>Node9&#45;&gt;Node10</title>
<path fill="none" stroke="midnightblue" d="M432.55,-56.08C428.4,-48.61 422.35,-37.72 417.23,-28.52"/>
<polygon fill="midnightblue" stroke="midnightblue" points="420.28,-26.79 412.36,-19.75 414.16,-30.19 420.28,-26.79"/>
</g>
<!-- Node11 -->
<g id="node11" class="node">
<title>Node11</title>
<g id="a_node11"><a xlink:title=" ">
<polygon fill="white" stroke="#bfbfbf" points="447.5,-0.5 447.5,-19.5 487.5,-19.5 487.5,-0.5 447.5,-0.5"/>
<text text-anchor="middle" x="467.5" y="-7.5" font-family="Helvetica,sans-Serif" font-size="10.00">span</text>
</a>
</g>
</g>
<!-- Node9&#45;&gt;Node11 -->
<g id="edge10" class="edge">
<title>Node9&#45;&gt;Node11</title>
<path fill="none" stroke="midnightblue" d="M442.45,-56.08C446.6,-48.61 452.65,-37.72 457.77,-28.52"/>
<polygon fill="midnightblue" stroke="midnightblue" points="460.84,-30.19 462.64,-19.75 454.72,-26.79 460.84,-30.19"/>
</g>
</g>
</svg>
