<?xml version="1.0" encoding="UTF-8" standalone="no"?>
<!DOCTYPE svg PUBLIC "-//W3C//DTD SVG 1.1//EN"
 "http://www.w3.org/Graphics/SVG/1.1/DTD/svg11.dtd">
<!-- Generated by graphviz version 2.43.0 (0)
 -->
<!-- Title: sources/Ram/Ram.cpp Pages: 1 -->
<svg width="874pt" height="308pt"
 viewBox="0.00 0.00 874.00 308.00" xmlns="http://www.w3.org/2000/svg" xmlns:xlink="http://www.w3.org/1999/xlink">
<g id="graph0" class="graph" transform="scale(1 1) rotate(0) translate(4 304)">
<title>sources/Ram/Ram.cpp</title>
<polygon fill="white" stroke="transparent" points="-4,4 -4,-304 870,-304 870,4 -4,4"/>
<!-- Node1 -->
<g id="node1" class="node">
<title>Node1</title>
<g id="a_node1"><a xlink:title=" ">
<polygon fill="#bfbfbf" stroke="black" points="237,-280.5 237,-299.5 362,-299.5 362,-280.5 237,-280.5"/>
<text text-anchor="middle" x="299.5" y="-287.5" font-family="Helvetica,sans-Serif" font-size="10.00">sources/Ram/Ram.cpp</text>
</a>
</g>
</g>
<!-- Node2 -->
<g id="node2" class="node">
<title>Node2</title>
<g id="a_node2"><a xlink:title=" ">
<polygon fill="white" stroke="#bfbfbf" points="173.5,-224.5 173.5,-243.5 223.5,-243.5 223.5,-224.5 173.5,-224.5"/>
<text text-anchor="middle" x="198.5" y="-231.5" font-family="Helvetica,sans-Serif" font-size="10.00">cstring</text>
</a>
</g>
</g>
<!-- Node1&#45;&gt;Node2 -->
<g id="edge1" class="edge">
<title>Node1&#45;&gt;Node2</title>
<path fill="none" stroke="midnightblue" d="M283.27,-280.32C267.15,-271.7 242.2,-258.36 223.54,-248.39"/>
<polygon fill="midnightblue" stroke="midnightblue" points="225.16,-245.28 214.69,-243.65 221.86,-251.46 225.16,-245.28"/>
</g>
<!-- Node3 -->
<g id="node3" class="node">
<title>Node3</title>
<g id="a_node3"><a xlink:title=" ">
<polygon fill="white" stroke="#bfbfbf" points="242,-224.5 242,-243.5 287,-243.5 287,-224.5 242,-224.5"/>
<text text-anchor="middle" x="264.5" y="-231.5" font-family="Helvetica,sans-Serif" font-size="10.00">utility</text>
</a>
</g>
</g>
<!-- Node1&#45;&gt;Node3 -->
<g id="edge2" class="edge">
<title>Node1&#45;&gt;Node3</title>
<path fill="none" stroke="midnightblue" d="M293.72,-280.08C288.83,-272.53 281.67,-261.49 275.67,-252.23"/>
<polygon fill="midnightblue" stroke="midnightblue" points="278.55,-250.24 270.17,-243.75 272.67,-254.05 278.55,-250.24"/>
</g>
<!-- Node4 -->
<g id="node4" class="node">
<title>Node4</title>
<g id="a_node4"><a xlink:href="Ram_8hpp.html" target="_top" xlink:title=" ">
<polygon fill="white" stroke="black" points="305.5,-224.5 305.5,-243.5 365.5,-243.5 365.5,-224.5 305.5,-224.5"/>
<text text-anchor="middle" x="335.5" y="-231.5" font-family="Helvetica,sans-Serif" font-size="10.00">Ram.hpp</text>
</a>
</g>
</g>
<!-- Node1&#45;&gt;Node4 -->
<g id="edge3" class="edge">
<title>Node1&#45;&gt;Node4</title>
<path fill="none" stroke="midnightblue" d="M305.44,-280.08C310.48,-272.53 317.84,-261.49 324.01,-252.23"/>
<polygon fill="midnightblue" stroke="midnightblue" points="327.03,-254.01 329.67,-243.75 321.21,-250.13 327.03,-254.01"/>
</g>
<!-- Node16 -->
<g id="node16" class="node">
<title>Node16</title>
<g id="a_node16"><a xlink:href="InvalidAddress_8hpp.html" target="_top" xlink:title=" ">
<polygon fill="white" stroke="black" points="479.5,-112.5 479.5,-131.5 645.5,-131.5 645.5,-112.5 479.5,-112.5"/>
<text text-anchor="middle" x="562.5" y="-119.5" font-family="Helvetica,sans-Serif" font-size="10.00">Exceptions/InvalidAddress.hpp</text>
</a>
</g>
</g>
<!-- Node1&#45;&gt;Node16 -->
<g id="edge18" class="edge">
<title>Node1&#45;&gt;Node16</title>
<path fill="none" stroke="midnightblue" d="M314.24,-280.34C329.43,-271.38 353.74,-256.91 374.5,-244 435.32,-206.19 506.13,-160.03 540.94,-137.19"/>
<polygon fill="midnightblue" stroke="midnightblue" points="542.93,-140.07 549.37,-131.65 539.09,-134.22 542.93,-140.07"/>
</g>
<!-- Node5 -->
<g id="node5" class="node">
<title>Node5</title>
<g id="a_node5"><a xlink:href="ARectangleMemory_8hpp.html" target="_top" xlink:title=" ">
<polygon fill="white" stroke="black" points="247.5,-168.5 247.5,-187.5 423.5,-187.5 423.5,-168.5 247.5,-168.5"/>
<text text-anchor="middle" x="335.5" y="-175.5" font-family="Helvetica,sans-Serif" font-size="10.00">Memory/ARectangleMemory.hpp</text>
</a>
</g>
</g>
<!-- Node4&#45;&gt;Node5 -->
<g id="edge4" class="edge">
<title>Node4&#45;&gt;Node5</title>
<path fill="none" stroke="midnightblue" d="M335.5,-224.08C335.5,-217.01 335.5,-206.86 335.5,-197.99"/>
<polygon fill="midnightblue" stroke="midnightblue" points="339,-197.75 335.5,-187.75 332,-197.75 339,-197.75"/>
</g>
<!-- Node8 -->
<g id="node8" class="node">
<title>Node8</title>
<g id="a_node8"><a xlink:title=" ">
<polygon fill="white" stroke="#bfbfbf" points="0,-56.5 0,-75.5 47,-75.5 47,-56.5 0,-56.5"/>
<text text-anchor="middle" x="23.5" y="-63.5" font-family="Helvetica,sans-Serif" font-size="10.00">vector</text>
</a>
</g>
</g>
<!-- Node4&#45;&gt;Node8 -->
<g id="edge17" class="edge">
<title>Node4&#45;&gt;Node8</title>
<path fill="none" stroke="midnightblue" d="M315.96,-224.48C296.22,-215.74 264.93,-201.54 238.5,-188 201.07,-168.82 94.52,-107.85 46.94,-80.5"/>
<polygon fill="midnightblue" stroke="midnightblue" points="48.66,-77.45 38.25,-75.5 45.17,-83.52 48.66,-77.45"/>
</g>
<!-- Node10 -->
<g id="node10" class="node">
<title>Node10</title>
<g id="a_node10"><a xlink:title=" ">
<polygon fill="white" stroke="#bfbfbf" points="477.5,-56.5 477.5,-75.5 521.5,-75.5 521.5,-56.5 477.5,-56.5"/>
<text text-anchor="middle" x="499.5" y="-63.5" font-family="Helvetica,sans-Serif" font-size="10.00">string</text>
</a>
</g>
</g>
<!-- Node4&#45;&gt;Node10 -->
<g id="edge15" class="edge">
<title>Node4&#45;&gt;Node10</title>
<path fill="none" stroke="midnightblue" d="M365.72,-224.81C386.59,-217.87 413.86,-206.11 432.5,-188 459.59,-161.69 451.8,-144.81 470.5,-112 475.85,-102.61 482.32,-92.47 487.79,-84.2"/>
<polygon fill="midnightblue" stroke="midnightblue" points="490.77,-86.04 493.43,-75.79 484.95,-82.14 490.77,-86.04"/>
</g>
<!-- Node15 -->
<g id="node15" class="node">
<title>Node15</title>
<g id="a_node15"><a xlink:title=" ">
<polygon fill="white" stroke="#bfbfbf" points="151.5,-168.5 151.5,-187.5 191.5,-187.5 191.5,-168.5 151.5,-168.5"/>
<text text-anchor="middle" x="171.5" y="-175.5" font-family="Helvetica,sans-Serif" font-size="10.00">span</text>
</a>
</g>
</g>
<!-- Node4&#45;&gt;Node15 -->
<g id="edge16" class="edge">
<title>Node4&#45;&gt;Node15</title>
<path fill="none" stroke="midnightblue" d="M309.51,-224.44C280.14,-214.77 232.39,-199.05 201.47,-188.87"/>
<polygon fill="midnightblue" stroke="midnightblue" points="202.27,-185.45 191.68,-185.64 200.08,-192.1 202.27,-185.45"/>
</g>
<!-- Node6 -->
<g id="node6" class="node">
<title>Node6</title>
<g id="a_node6"><a xlink:href="IMemory_8hpp.html" target="_top" xlink:title=" ">
<polygon fill="white" stroke="black" points="282.5,-112.5 282.5,-131.5 362.5,-131.5 362.5,-112.5 282.5,-112.5"/>
<text text-anchor="middle" x="322.5" y="-119.5" font-family="Helvetica,sans-Serif" font-size="10.00">IMemory.hpp</text>
</a>
</g>
</g>
<!-- Node5&#45;&gt;Node6 -->
<g id="edge5" class="edge">
<title>Node5&#45;&gt;Node6</title>
<path fill="none" stroke="midnightblue" d="M333.35,-168.08C331.63,-160.93 329.15,-150.64 327,-141.69"/>
<polygon fill="midnightblue" stroke="midnightblue" points="330.35,-140.65 324.61,-131.75 323.54,-142.29 330.35,-140.65"/>
</g>
<!-- Node11 -->
<g id="node11" class="node">
<title>Node11</title>
<g id="a_node11"><a xlink:href="Ints_8hpp.html" target="_top" xlink:title=" ">
<polygon fill="white" stroke="black" points="365.5,-56.5 365.5,-75.5 459.5,-75.5 459.5,-56.5 365.5,-56.5"/>
<text text-anchor="middle" x="412.5" y="-63.5" font-family="Helvetica,sans-Serif" font-size="10.00">Models/Ints.hpp</text>
</a>
</g>
</g>
<!-- Node5&#45;&gt;Node11 -->
<g id="edge14" class="edge">
<title>Node5&#45;&gt;Node11</title>
<path fill="none" stroke="midnightblue" d="M342.97,-168.26C350.47,-159.36 362.22,-145.04 371.5,-132 382.71,-116.26 394.36,-97.52 402.36,-84.22"/>
<polygon fill="midnightblue" stroke="midnightblue" points="405.38,-85.99 407.49,-75.61 399.36,-82.41 405.38,-85.99"/>
</g>
<!-- Node7 -->
<g id="node7" class="node">
<title>Node7</title>
<g id="a_node7"><a xlink:title=" ">
<polygon fill="white" stroke="#bfbfbf" points="297.5,-56.5 297.5,-75.5 347.5,-75.5 347.5,-56.5 297.5,-56.5"/>
<text text-anchor="middle" x="322.5" y="-63.5" font-family="Helvetica,sans-Serif" font-size="10.00">cstdint</text>
</a>
</g>
</g>
<!-- Node6&#45;&gt;Node7 -->
<g id="edge6" class="edge">
<title>Node6&#45;&gt;Node7</title>
<path fill="none" stroke="midnightblue" d="M322.5,-112.08C322.5,-105.01 322.5,-94.86 322.5,-85.99"/>
<polygon fill="midnightblue" stroke="midnightblue" points="326,-85.75 322.5,-75.75 319,-85.75 326,-85.75"/>
</g>
<!-- Node6&#45;&gt;Node8 -->
<g id="edge7" class="edge">
<title>Node6&#45;&gt;Node8</title>
<path fill="none" stroke="midnightblue" d="M282.15,-115.44C231.77,-108.22 142.77,-94.55 57.11,-75.94"/>
<polygon fill="midnightblue" stroke="midnightblue" points="57.74,-72.5 47.22,-73.77 56.24,-79.34 57.74,-72.5"/>
</g>
<!-- Node9 -->
<g id="node9" class="node">
<title>Node9</title>
<g id="a_node9"><a xlink:title=" ">
<polygon fill="white" stroke="#bfbfbf" points="65.5,-56.5 65.5,-75.5 123.5,-75.5 123.5,-56.5 65.5,-56.5"/>
<text text-anchor="middle" x="94.5" y="-63.5" font-family="Helvetica,sans-Serif" font-size="10.00">memory</text>
</a>
</g>
</g>
<!-- Node6&#45;&gt;Node9 -->
<g id="edge8" class="edge">
<title>Node6&#45;&gt;Node9</title>
<path fill="none" stroke="midnightblue" d="M286.37,-112.44C244.64,-102.56 176.24,-86.36 133.37,-76.21"/>
<polygon fill="midnightblue" stroke="midnightblue" points="134.12,-72.79 123.59,-73.89 132.51,-79.6 134.12,-72.79"/>
</g>
<!-- Node6&#45;&gt;Node10 -->
<g id="edge9" class="edge">
<title>Node6&#45;&gt;Node10</title>
<path fill="none" stroke="midnightblue" d="M350.55,-112.44C382.44,-102.71 434.39,-86.86 467.74,-76.69"/>
<polygon fill="midnightblue" stroke="midnightblue" points="468.91,-79.99 477.46,-73.73 466.87,-73.3 468.91,-79.99"/>
</g>
<!-- Node6&#45;&gt;Node11 -->
<g id="edge10" class="edge">
<title>Node6&#45;&gt;Node11</title>
<path fill="none" stroke="midnightblue" d="M336.96,-112.32C351,-103.9 372.55,-90.97 389.04,-81.07"/>
<polygon fill="midnightblue" stroke="midnightblue" points="391.3,-83.8 398.08,-75.65 387.7,-77.8 391.3,-83.8"/>
</g>
<!-- Node14 -->
<g id="node14" class="node">
<title>Node14</title>
<g id="a_node14"><a xlink:href="Components_8hpp.html" target="_top" xlink:title=" ">
<polygon fill="white" stroke="black" points="142,-56.5 142,-75.5 279,-75.5 279,-56.5 142,-56.5"/>
<text text-anchor="middle" x="210.5" y="-63.5" font-family="Helvetica,sans-Serif" font-size="10.00">Models/Components.hpp</text>
</a>
</g>
</g>
<!-- Node6&#45;&gt;Node14 -->
<g id="edge13" class="edge">
<title>Node6&#45;&gt;Node14</title>
<path fill="none" stroke="midnightblue" d="M304.51,-112.32C286.46,-103.62 258.45,-90.12 237.7,-80.11"/>
<polygon fill="midnightblue" stroke="midnightblue" points="238.98,-76.84 228.45,-75.65 235.94,-83.15 238.98,-76.84"/>
</g>
<!-- Node12 -->
<g id="node12" class="node">
<title>Node12</title>
<g id="a_node12"><a xlink:title=" ">
<polygon fill="white" stroke="#bfbfbf" points="420.5,-0.5 420.5,-19.5 482.5,-19.5 482.5,-0.5 420.5,-0.5"/>
<text text-anchor="middle" x="451.5" y="-7.5" font-family="Helvetica,sans-Serif" font-size="10.00">cinttypes</text>
</a>
</g>
</g>
<!-- Node11&#45;&gt;Node12 -->
<g id="edge11" class="edge">
<title>Node11&#45;&gt;Node12</title>
<path fill="none" stroke="midnightblue" d="M418.94,-56.08C424.45,-48.46 432.53,-37.26 439.26,-27.94"/>
<polygon fill="midnightblue" stroke="midnightblue" points="442.16,-29.91 445.18,-19.75 436.49,-25.81 442.16,-29.91"/>
</g>
<!-- Node13 -->
<g id="node13" class="node">
<title>Node13</title>
<g id="a_node13"><a xlink:title=" ">
<polygon fill="white" stroke="#bfbfbf" points="342.5,-0.5 342.5,-19.5 402.5,-19.5 402.5,-0.5 342.5,-0.5"/>
<text text-anchor="middle" x="372.5" y="-7.5" font-family="Helvetica,sans-Serif" font-size="10.00">iostream</text>
</a>
</g>
</g>
<!-- Node11&#45;&gt;Node13 -->
<g id="edge12" class="edge">
<title>Node11&#45;&gt;Node13</title>
<path fill="none" stroke="midnightblue" d="M405.89,-56.08C400.24,-48.46 391.96,-37.26 385.05,-27.94"/>
<polygon fill="midnightblue" stroke="midnightblue" points="387.75,-25.7 378.98,-19.75 382.12,-29.87 387.75,-25.7"/>
</g>
<!-- Node16&#45;&gt;Node10 -->
<g id="edge25" class="edge">
<title>Node16&#45;&gt;Node10</title>
<path fill="none" stroke="midnightblue" d="M552.38,-112.32C542.97,-104.26 528.76,-92.08 517.43,-82.37"/>
<polygon fill="midnightblue" stroke="midnightblue" points="519.68,-79.68 509.81,-75.83 515.12,-85 519.68,-79.68"/>
</g>
<!-- Node16&#45;&gt;Node11 -->
<g id="edge21" class="edge">
<title>Node16&#45;&gt;Node11</title>
<path fill="none" stroke="midnightblue" d="M538.73,-112.44C513.61,-103.4 473.79,-89.06 445.6,-78.92"/>
<polygon fill="midnightblue" stroke="midnightblue" points="446.75,-75.61 436.16,-75.52 444.38,-82.2 446.75,-75.61"/>
</g>
<!-- Node17 -->
<g id="node17" class="node">
<title>Node17</title>
<g id="a_node17"><a xlink:href="DebuggableError_8hpp.html" target="_top" xlink:title=" ">
<polygon fill="white" stroke="black" points="664,-56.5 664,-75.5 783,-75.5 783,-56.5 664,-56.5"/>
<text text-anchor="middle" x="723.5" y="-63.5" font-family="Helvetica,sans-Serif" font-size="10.00">DebuggableError.hpp</text>
</a>
</g>
</g>
<!-- Node16&#45;&gt;Node17 -->
<g id="edge19" class="edge">
<title>Node16&#45;&gt;Node17</title>
<path fill="none" stroke="midnightblue" d="M588.01,-112.44C615.1,-103.36 658.09,-88.94 688.37,-78.78"/>
<polygon fill="midnightblue" stroke="midnightblue" points="689.74,-82.01 698.11,-75.52 687.51,-75.38 689.74,-82.01"/>
</g>
<!-- Node19 -->
<g id="node19" class="node">
<title>Node19</title>
<g id="a_node19"><a xlink:title=" ">
<polygon fill="white" stroke="#bfbfbf" points="801,-56.5 801,-75.5 866,-75.5 866,-56.5 801,-56.5"/>
<text text-anchor="middle" x="833.5" y="-63.5" font-family="Helvetica,sans-Serif" font-size="10.00">exception</text>
</a>
</g>
</g>
<!-- Node16&#45;&gt;Node19 -->
<g id="edge22" class="edge">
<title>Node16&#45;&gt;Node19</title>
<path fill="none" stroke="midnightblue" d="M607.95,-112.43C652.21,-104 721.67,-90.6 790.67,-76.35"/>
<polygon fill="midnightblue" stroke="midnightblue" points="791.76,-79.7 800.84,-74.24 790.34,-72.84 791.76,-79.7"/>
</g>
<!-- Node20 -->
<g id="node20" class="node">
<title>Node20</title>
<g id="a_node20"><a xlink:title=" ">
<polygon fill="white" stroke="#bfbfbf" points="540,-56.5 540,-75.5 571,-75.5 571,-56.5 540,-56.5"/>
<text text-anchor="middle" x="555.5" y="-63.5" font-family="Helvetica,sans-Serif" font-size="10.00">ios</text>
</a>
</g>
</g>
<!-- Node16&#45;&gt;Node20 -->
<g id="edge23" class="edge">
<title>Node16&#45;&gt;Node20</title>
<path fill="none" stroke="midnightblue" d="M561.34,-112.08C560.42,-104.93 559.08,-94.64 557.92,-85.69"/>
<polygon fill="midnightblue" stroke="midnightblue" points="561.39,-85.22 556.63,-75.75 554.45,-86.12 561.39,-85.22"/>
</g>
<!-- Node21 -->
<g id="node21" class="node">
<title>Node21</title>
<g id="a_node21"><a xlink:title=" ">
<polygon fill="white" stroke="#bfbfbf" points="589.5,-56.5 589.5,-75.5 645.5,-75.5 645.5,-56.5 589.5,-56.5"/>
<text text-anchor="middle" x="617.5" y="-63.5" font-family="Helvetica,sans-Serif" font-size="10.00">sstream</text>
</a>
</g>
</g>
<!-- Node16&#45;&gt;Node21 -->
<g id="edge24" class="edge">
<title>Node16&#45;&gt;Node21</title>
<path fill="none" stroke="midnightblue" d="M571.58,-112.08C579.67,-104.14 591.7,-92.34 601.41,-82.8"/>
<polygon fill="midnightblue" stroke="midnightblue" points="603.9,-85.25 608.59,-75.75 599,-80.26 603.9,-85.25"/>
</g>
<!-- Node18 -->
<g id="node18" class="node">
<title>Node18</title>
<g id="a_node18"><a xlink:title=" ">
<polygon fill="white" stroke="#bfbfbf" points="676,-0.5 676,-19.5 771,-19.5 771,-0.5 676,-0.5"/>
<text text-anchor="middle" x="723.5" y="-7.5" font-family="Helvetica,sans-Serif" font-size="10.00">bits/exception.h</text>
</a>
</g>
</g>
<!-- Node17&#45;&gt;Node18 -->
<g id="edge20" class="edge">
<title>Node17&#45;&gt;Node18</title>
<path fill="none" stroke="midnightblue" d="M723.5,-56.08C723.5,-49.01 723.5,-38.86 723.5,-29.99"/>
<polygon fill="midnightblue" stroke="midnightblue" points="727,-29.75 723.5,-19.75 720,-29.75 727,-29.75"/>
</g>
</g>
</svg>
