<?xml version="1.0" encoding="UTF-8" standalone="no"?>
<!DOCTYPE svg PUBLIC "-//W3C//DTD SVG 1.1//EN"
 "http://www.w3.org/Graphics/SVG/1.1/DTD/svg11.dtd">
<!-- Generated by graphviz version 2.43.0 (0)
 -->
<!-- Title: sources/Debugger/TileViewer/RAMTileRenderer.hpp Pages: 1 -->
<svg width="530pt" height="375pt"
 viewBox="0.00 0.00 529.50 375.00" xmlns="http://www.w3.org/2000/svg" xmlns:xlink="http://www.w3.org/1999/xlink">
<g id="graph0" class="graph" transform="scale(1 1) rotate(0) translate(4 371)">
<title>sources/Debugger/TileViewer/RAMTileRenderer.hpp</title>
<polygon fill="white" stroke="transparent" points="-4,4 -4,-371 525.5,-371 525.5,4 -4,4"/>
<!-- Node1 -->
<g id="node1" class="node">
<title>Node1</title>
<g id="a_node1"><a xlink:title=" ">
<polygon fill="#bfbfbf" stroke="black" points="115,-336.5 115,-366.5 274,-366.5 274,-336.5 115,-336.5"/>
<text text-anchor="start" x="123" y="-354.5" font-family="Helvetica,sans-Serif" font-size="10.00">sources/Debugger/TileViewer</text>
<text text-anchor="middle" x="194.5" y="-343.5" font-family="Helvetica,sans-Serif" font-size="10.00">/RAMTileRenderer.hpp</text>
</a>
</g>
</g>
<!-- Node2 -->
<g id="node2" class="node">
<title>Node2</title>
<g id="a_node2"><a xlink:title=" ">
<polygon fill="white" stroke="#bfbfbf" points="130.5,-224.5 130.5,-243.5 172.5,-243.5 172.5,-224.5 130.5,-224.5"/>
<text text-anchor="middle" x="151.5" y="-231.5" font-family="Helvetica,sans-Serif" font-size="10.00">array</text>
</a>
</g>
</g>
<!-- Node1&#45;&gt;Node2 -->
<g id="edge1" class="edge">
<title>Node1&#45;&gt;Node2</title>
<path fill="none" stroke="midnightblue" d="M163.16,-336.44C148.58,-328.11 132.69,-316.01 124.5,-300 116.28,-283.94 126.53,-264.78 136.67,-251.44"/>
<polygon fill="midnightblue" stroke="midnightblue" points="139.47,-253.55 143.13,-243.61 134.06,-249.1 139.47,-253.55"/>
</g>
<!-- Node3 -->
<g id="node3" class="node">
<title>Node3</title>
<g id="a_node3"><a xlink:href="TileRenderer_8hpp.html" target="_top" xlink:title=" ">
<polygon fill="white" stroke="black" points="133.5,-280.5 133.5,-299.5 255.5,-299.5 255.5,-280.5 133.5,-280.5"/>
<text text-anchor="middle" x="194.5" y="-287.5" font-family="Helvetica,sans-Serif" font-size="10.00">PPU/TileRenderer.hpp</text>
</a>
</g>
</g>
<!-- Node1&#45;&gt;Node3 -->
<g id="edge2" class="edge">
<title>Node1&#45;&gt;Node3</title>
<path fill="none" stroke="midnightblue" d="M194.5,-336.4C194.5,-328.47 194.5,-318.46 194.5,-309.86"/>
<polygon fill="midnightblue" stroke="midnightblue" points="198,-309.66 194.5,-299.66 191,-309.66 198,-309.66"/>
</g>
<!-- Node4 -->
<g id="node4" class="node">
<title>Node4</title>
<g id="a_node4"><a xlink:href="Ram_8hpp.html" target="_top" xlink:title=" ">
<polygon fill="white" stroke="black" points="193.5,-224.5 193.5,-243.5 279.5,-243.5 279.5,-224.5 193.5,-224.5"/>
<text text-anchor="middle" x="236.5" y="-231.5" font-family="Helvetica,sans-Serif" font-size="10.00">Ram/Ram.hpp</text>
</a>
</g>
</g>
<!-- Node1&#45;&gt;Node4 -->
<g id="edge19" class="edge">
<title>Node1&#45;&gt;Node4</title>
<path fill="none" stroke="midnightblue" d="M225.84,-336.44C240.42,-328.11 256.31,-316.01 264.5,-300 272.76,-283.85 262.18,-264.7 251.74,-251.39"/>
<polygon fill="midnightblue" stroke="midnightblue" points="254.24,-248.93 245.1,-243.58 248.91,-253.47 254.24,-248.93"/>
</g>
<!-- Node3&#45;&gt;Node2 -->
<g id="edge3" class="edge">
<title>Node3&#45;&gt;Node2</title>
<path fill="none" stroke="midnightblue" d="M187.4,-280.08C181.26,-272.38 172.23,-261.03 164.76,-251.65"/>
<polygon fill="midnightblue" stroke="midnightblue" points="167.44,-249.39 158.47,-243.75 161.96,-253.75 167.44,-249.39"/>
</g>
<!-- Node3&#45;&gt;Node4 -->
<g id="edge4" class="edge">
<title>Node3&#45;&gt;Node4</title>
<path fill="none" stroke="midnightblue" d="M201.44,-280.08C207.43,-272.38 216.25,-261.03 223.55,-251.65"/>
<polygon fill="midnightblue" stroke="midnightblue" points="226.32,-253.79 229.69,-243.75 220.79,-249.5 226.32,-253.79"/>
</g>
<!-- Node5 -->
<g id="node5" class="node">
<title>Node5</title>
<g id="a_node5"><a xlink:href="ARectangleMemory_8hpp.html" target="_top" xlink:title=" ">
<polygon fill="white" stroke="black" points="90.5,-168.5 90.5,-187.5 266.5,-187.5 266.5,-168.5 90.5,-168.5"/>
<text text-anchor="middle" x="178.5" y="-175.5" font-family="Helvetica,sans-Serif" font-size="10.00">Memory/ARectangleMemory.hpp</text>
</a>
</g>
</g>
<!-- Node4&#45;&gt;Node5 -->
<g id="edge5" class="edge">
<title>Node4&#45;&gt;Node5</title>
<path fill="none" stroke="midnightblue" d="M227.18,-224.32C218.61,-216.34 205.69,-204.31 195.31,-194.65"/>
<polygon fill="midnightblue" stroke="midnightblue" points="197.69,-192.09 187.99,-187.83 192.92,-197.21 197.69,-192.09"/>
</g>
<!-- Node8 -->
<g id="node8" class="node">
<title>Node8</title>
<g id="a_node8"><a xlink:title=" ">
<polygon fill="white" stroke="#bfbfbf" points="0,-56.5 0,-75.5 47,-75.5 47,-56.5 0,-56.5"/>
<text text-anchor="middle" x="23.5" y="-63.5" font-family="Helvetica,sans-Serif" font-size="10.00">vector</text>
</a>
</g>
</g>
<!-- Node4&#45;&gt;Node8 -->
<g id="edge18" class="edge">
<title>Node4&#45;&gt;Node8</title>
<path fill="none" stroke="midnightblue" d="M193.17,-224.56C153.47,-216.1 98.39,-202.31 81.5,-188 49.63,-160.98 33.94,-112.42 27.41,-85.77"/>
<polygon fill="midnightblue" stroke="midnightblue" points="30.78,-84.79 25.15,-75.82 23.95,-86.34 30.78,-84.79"/>
</g>
<!-- Node10 -->
<g id="node10" class="node">
<title>Node10</title>
<g id="a_node10"><a xlink:title=" ">
<polygon fill="white" stroke="#bfbfbf" points="477.5,-56.5 477.5,-75.5 521.5,-75.5 521.5,-56.5 477.5,-56.5"/>
<text text-anchor="middle" x="499.5" y="-63.5" font-family="Helvetica,sans-Serif" font-size="10.00">string</text>
</a>
</g>
</g>
<!-- Node4&#45;&gt;Node10 -->
<g id="edge16" class="edge">
<title>Node4&#45;&gt;Node10</title>
<path fill="none" stroke="midnightblue" d="M245.49,-224.35C259.38,-211.24 287.21,-185.96 313.5,-168 366.7,-131.66 434.28,-97.72 471.58,-79.94"/>
<polygon fill="midnightblue" stroke="midnightblue" points="473.28,-83.01 480.82,-75.57 470.29,-76.68 473.28,-83.01"/>
</g>
<!-- Node15 -->
<g id="node15" class="node">
<title>Node15</title>
<g id="a_node15"><a xlink:title=" ">
<polygon fill="white" stroke="#bfbfbf" points="322.5,-168.5 322.5,-187.5 362.5,-187.5 362.5,-168.5 322.5,-168.5"/>
<text text-anchor="middle" x="342.5" y="-175.5" font-family="Helvetica,sans-Serif" font-size="10.00">span</text>
</a>
</g>
</g>
<!-- Node4&#45;&gt;Node15 -->
<g id="edge17" class="edge">
<title>Node4&#45;&gt;Node15</title>
<path fill="none" stroke="midnightblue" d="M253.53,-224.32C270.53,-215.66 296.88,-202.24 316.49,-192.25"/>
<polygon fill="midnightblue" stroke="midnightblue" points="318.19,-195.31 325.51,-187.65 315.01,-189.08 318.19,-195.31"/>
</g>
<!-- Node6 -->
<g id="node6" class="node">
<title>Node6</title>
<g id="a_node6"><a xlink:href="IMemory_8hpp.html" target="_top" xlink:title=" ">
<polygon fill="white" stroke="black" points="162.5,-112.5 162.5,-131.5 242.5,-131.5 242.5,-112.5 162.5,-112.5"/>
<text text-anchor="middle" x="202.5" y="-119.5" font-family="Helvetica,sans-Serif" font-size="10.00">IMemory.hpp</text>
</a>
</g>
</g>
<!-- Node5&#45;&gt;Node6 -->
<g id="edge6" class="edge">
<title>Node5&#45;&gt;Node6</title>
<path fill="none" stroke="midnightblue" d="M182.46,-168.08C185.71,-160.77 190.42,-150.18 194.45,-141.1"/>
<polygon fill="midnightblue" stroke="midnightblue" points="197.75,-142.31 198.61,-131.75 191.35,-139.47 197.75,-142.31"/>
</g>
<!-- Node11 -->
<g id="node11" class="node">
<title>Node11</title>
<g id="a_node11"><a xlink:href="Ints_8hpp.html" target="_top" xlink:title=" ">
<polygon fill="white" stroke="black" points="65.5,-56.5 65.5,-75.5 159.5,-75.5 159.5,-56.5 65.5,-56.5"/>
<text text-anchor="middle" x="112.5" y="-63.5" font-family="Helvetica,sans-Serif" font-size="10.00">Models/Ints.hpp</text>
</a>
</g>
</g>
<!-- Node5&#45;&gt;Node11 -->
<g id="edge15" class="edge">
<title>Node5&#45;&gt;Node11</title>
<path fill="none" stroke="midnightblue" d="M173.32,-168.37C162.48,-150.3 137.21,-108.18 122.88,-84.31"/>
<polygon fill="midnightblue" stroke="midnightblue" points="125.8,-82.37 117.65,-75.59 119.8,-85.97 125.8,-82.37"/>
</g>
<!-- Node7 -->
<g id="node7" class="node">
<title>Node7</title>
<g id="a_node7"><a xlink:title=" ">
<polygon fill="white" stroke="#bfbfbf" points="177.5,-56.5 177.5,-75.5 227.5,-75.5 227.5,-56.5 177.5,-56.5"/>
<text text-anchor="middle" x="202.5" y="-63.5" font-family="Helvetica,sans-Serif" font-size="10.00">cstdint</text>
</a>
</g>
</g>
<!-- Node6&#45;&gt;Node7 -->
<g id="edge7" class="edge">
<title>Node6&#45;&gt;Node7</title>
<path fill="none" stroke="midnightblue" d="M202.5,-112.08C202.5,-105.01 202.5,-94.86 202.5,-85.99"/>
<polygon fill="midnightblue" stroke="midnightblue" points="206,-85.75 202.5,-75.75 199,-85.75 206,-85.75"/>
</g>
<!-- Node6&#45;&gt;Node8 -->
<g id="edge8" class="edge">
<title>Node6&#45;&gt;Node8</title>
<path fill="none" stroke="midnightblue" d="M174.14,-112.44C142.33,-102.85 90.8,-87.3 57.03,-77.11"/>
<polygon fill="midnightblue" stroke="midnightblue" points="57.74,-73.67 47.16,-74.14 55.72,-80.38 57.74,-73.67"/>
</g>
<!-- Node9 -->
<g id="node9" class="node">
<title>Node9</title>
<g id="a_node9"><a xlink:title=" ">
<polygon fill="white" stroke="#bfbfbf" points="245.5,-56.5 245.5,-75.5 303.5,-75.5 303.5,-56.5 245.5,-56.5"/>
<text text-anchor="middle" x="274.5" y="-63.5" font-family="Helvetica,sans-Serif" font-size="10.00">memory</text>
</a>
</g>
</g>
<!-- Node6&#45;&gt;Node9 -->
<g id="edge9" class="edge">
<title>Node6&#45;&gt;Node9</title>
<path fill="none" stroke="midnightblue" d="M214.07,-112.32C224.92,-104.18 241.38,-91.84 254.38,-82.09"/>
<polygon fill="midnightblue" stroke="midnightblue" points="256.82,-84.63 262.72,-75.83 252.62,-79.03 256.82,-84.63"/>
</g>
<!-- Node6&#45;&gt;Node10 -->
<g id="edge10" class="edge">
<title>Node6&#45;&gt;Node10</title>
<path fill="none" stroke="midnightblue" d="M242.89,-115.64C293.32,-108.63 382.37,-95.18 467.42,-76.04"/>
<polygon fill="midnightblue" stroke="midnightblue" points="468.26,-79.43 477.23,-73.8 466.7,-72.61 468.26,-79.43"/>
</g>
<!-- Node6&#45;&gt;Node11 -->
<g id="edge11" class="edge">
<title>Node6&#45;&gt;Node11</title>
<path fill="none" stroke="midnightblue" d="M188.04,-112.32C174,-103.9 152.45,-90.97 135.96,-81.07"/>
<polygon fill="midnightblue" stroke="midnightblue" points="137.3,-77.8 126.92,-75.65 133.7,-83.8 137.3,-77.8"/>
</g>
<!-- Node14 -->
<g id="node14" class="node">
<title>Node14</title>
<g id="a_node14"><a xlink:href="Components_8hpp.html" target="_top" xlink:title=" ">
<polygon fill="white" stroke="black" points="322,-56.5 322,-75.5 459,-75.5 459,-56.5 322,-56.5"/>
<text text-anchor="middle" x="390.5" y="-63.5" font-family="Helvetica,sans-Serif" font-size="10.00">Models/Components.hpp</text>
</a>
</g>
</g>
<!-- Node6&#45;&gt;Node14 -->
<g id="edge14" class="edge">
<title>Node6&#45;&gt;Node14</title>
<path fill="none" stroke="midnightblue" d="M232.29,-112.44C264.33,-103.24 315.43,-88.56 350.85,-78.39"/>
<polygon fill="midnightblue" stroke="midnightblue" points="352.21,-81.64 360.85,-75.52 350.27,-74.91 352.21,-81.64"/>
</g>
<!-- Node12 -->
<g id="node12" class="node">
<title>Node12</title>
<g id="a_node12"><a xlink:title=" ">
<polygon fill="white" stroke="#bfbfbf" points="42.5,-0.5 42.5,-19.5 104.5,-19.5 104.5,-0.5 42.5,-0.5"/>
<text text-anchor="middle" x="73.5" y="-7.5" font-family="Helvetica,sans-Serif" font-size="10.00">cinttypes</text>
</a>
</g>
</g>
<!-- Node11&#45;&gt;Node12 -->
<g id="edge12" class="edge">
<title>Node11&#45;&gt;Node12</title>
<path fill="none" stroke="midnightblue" d="M106.06,-56.08C100.55,-48.46 92.47,-37.26 85.74,-27.94"/>
<polygon fill="midnightblue" stroke="midnightblue" points="88.51,-25.81 79.82,-19.75 82.84,-29.91 88.51,-25.81"/>
</g>
<!-- Node13 -->
<g id="node13" class="node">
<title>Node13</title>
<g id="a_node13"><a xlink:title=" ">
<polygon fill="white" stroke="#bfbfbf" points="122.5,-0.5 122.5,-19.5 182.5,-19.5 182.5,-0.5 122.5,-0.5"/>
<text text-anchor="middle" x="152.5" y="-7.5" font-family="Helvetica,sans-Serif" font-size="10.00">iostream</text>
</a>
</g>
</g>
<!-- Node11&#45;&gt;Node13 -->
<g id="edge13" class="edge">
<title>Node11&#45;&gt;Node13</title>
<path fill="none" stroke="midnightblue" d="M119.11,-56.08C124.76,-48.46 133.04,-37.26 139.95,-27.94"/>
<polygon fill="midnightblue" stroke="midnightblue" points="142.88,-29.87 146.02,-19.75 137.25,-25.7 142.88,-29.87"/>
</g>
</g>
</svg>
