<?xml version="1.0" encoding="UTF-8" standalone="no"?>
<!DOCTYPE svg PUBLIC "-//W3C//DTD SVG 1.1//EN"
 "http://www.w3.org/Graphics/SVG/1.1/DTD/svg11.dtd">
<!-- Generated by graphviz version 2.43.0 (0)
 -->
<!-- Title: sources/Debugger/TileViewer/RAMTileRenderer.hpp Pages: 1 -->
<svg width="560pt" height="240pt"
 viewBox="0.00 0.00 559.50 240.00" xmlns="http://www.w3.org/2000/svg" xmlns:xlink="http://www.w3.org/1999/xlink">
<g id="graph0" class="graph" transform="scale(1 1) rotate(0) translate(4 236)">
<title>sources/Debugger/TileViewer/RAMTileRenderer.hpp</title>
<polygon fill="white" stroke="transparent" points="-4,4 -4,-236 555.5,-236 555.5,4 -4,4"/>
<!-- Node1 -->
<g id="node1" class="node">
<title>Node1</title>
<g id="a_node1"><a xlink:title=" ">
<polygon fill="#bfbfbf" stroke="black" points="126,-201.5 126,-231.5 285,-231.5 285,-201.5 126,-201.5"/>
<text text-anchor="start" x="134" y="-219.5" font-family="Helvetica,sans-Serif" font-size="10.00">sources/Debugger/TileViewer</text>
<text text-anchor="middle" x="205.5" y="-208.5" font-family="Helvetica,sans-Serif" font-size="10.00">/RAMTileRenderer.hpp</text>
</a>
</g>
</g>
<!-- Node2 -->
<g id="node2" class="node">
<title>Node2</title>
<g id="a_node2"><a xlink:href="RAMTileRenderer_8cpp.html" target="_top" xlink:title=" ">
<polygon fill="white" stroke="black" points="0,-134.5 0,-164.5 159,-164.5 159,-134.5 0,-134.5"/>
<text text-anchor="start" x="8" y="-152.5" font-family="Helvetica,sans-Serif" font-size="10.00">sources/Debugger/TileViewer</text>
<text text-anchor="middle" x="79.5" y="-141.5" font-family="Helvetica,sans-Serif" font-size="10.00">/RAMTileRenderer.cpp</text>
</a>
</g>
</g>
<!-- Node1&#45;&gt;Node2 -->
<g id="edge1" class="edge">
<title>Node1&#45;&gt;Node2</title>
<path fill="none" stroke="midnightblue" d="M169.08,-196.71C149.21,-186.46 125.02,-173.98 106.79,-164.58"/>
<polygon fill="midnightblue" stroke="midnightblue" points="167.67,-199.92 178.16,-201.4 170.88,-193.7 167.67,-199.92"/>
</g>
<!-- Node3 -->
<g id="node3" class="node">
<title>Node3</title>
<g id="a_node3"><a xlink:href="TileViewer_8hpp.html" target="_top" xlink:title=" ">
<polygon fill="white" stroke="black" points="214,-67.5 214,-97.5 373,-97.5 373,-67.5 214,-67.5"/>
<text text-anchor="start" x="222" y="-85.5" font-family="Helvetica,sans-Serif" font-size="10.00">sources/Debugger/TileViewer</text>
<text text-anchor="middle" x="293.5" y="-74.5" font-family="Helvetica,sans-Serif" font-size="10.00">/TileViewer.hpp</text>
</a>
</g>
</g>
<!-- Node1&#45;&gt;Node3 -->
<g id="edge2" class="edge">
<title>Node1&#45;&gt;Node3</title>
<path fill="none" stroke="midnightblue" d="M214.03,-191.79C220.7,-174.88 230.94,-152.04 243.5,-134 252.95,-120.43 266.21,-107.23 276.69,-97.73"/>
<polygon fill="midnightblue" stroke="midnightblue" points="210.64,-190.87 210.35,-201.46 217.18,-193.36 210.64,-190.87"/>
</g>
<!-- Node4 -->
<g id="node4" class="node">
<title>Node4</title>
<g id="a_node4"><a xlink:href="TileViewer_8cpp.html" target="_top" xlink:title=" ">
<polygon fill="white" stroke="black" points="160,-0.5 160,-30.5 319,-30.5 319,-0.5 160,-0.5"/>
<text text-anchor="start" x="168" y="-18.5" font-family="Helvetica,sans-Serif" font-size="10.00">sources/Debugger/TileViewer</text>
<text text-anchor="middle" x="239.5" y="-7.5" font-family="Helvetica,sans-Serif" font-size="10.00">/TileViewer.cpp</text>
</a>
</g>
</g>
<!-- Node1&#45;&gt;Node4 -->
<g id="edge4" class="edge">
<title>Node1&#45;&gt;Node4</title>
<path fill="none" stroke="midnightblue" d="M201.24,-191.2C196.95,-161.26 192.63,-109.17 205.5,-67 209.64,-53.45 218.76,-40.25 226.51,-30.75"/>
<polygon fill="midnightblue" stroke="midnightblue" points="197.8,-191.83 202.79,-201.17 204.72,-190.76 197.8,-191.83"/>
</g>
<!-- Node5 -->
<g id="node5" class="node">
<title>Node5</title>
<g id="a_node5"><a xlink:href="QtSfmlTileRenderer_8hpp.html" target="_top" xlink:title=" ">
<polygon fill="white" stroke="black" points="252.5,-134.5 252.5,-164.5 412.5,-164.5 412.5,-134.5 252.5,-134.5"/>
<text text-anchor="start" x="260.5" y="-152.5" font-family="Helvetica,sans-Serif" font-size="10.00">sources/Renderer/QtRenderer</text>
<text text-anchor="middle" x="332.5" y="-141.5" font-family="Helvetica,sans-Serif" font-size="10.00">/QtSfmlTileRenderer.hpp</text>
</a>
</g>
</g>
<!-- Node1&#45;&gt;Node5 -->
<g id="edge5" class="edge">
<title>Node1&#45;&gt;Node5</title>
<path fill="none" stroke="midnightblue" d="M242.2,-196.71C262.23,-186.46 286.62,-173.98 305,-164.58"/>
<polygon fill="midnightblue" stroke="midnightblue" points="240.36,-193.72 233.06,-201.4 243.55,-199.96 240.36,-193.72"/>
</g>
<!-- Node3&#45;&gt;Node4 -->
<g id="edge3" class="edge">
<title>Node3&#45;&gt;Node4</title>
<path fill="none" stroke="midnightblue" d="M275.18,-59.45C267.25,-49.9 258.2,-39 251.19,-30.58"/>
<polygon fill="midnightblue" stroke="midnightblue" points="272.7,-61.94 281.78,-67.4 278.08,-57.47 272.7,-61.94"/>
</g>
<!-- Node5&#45;&gt;Node3 -->
<g id="edge6" class="edge">
<title>Node5&#45;&gt;Node3</title>
<path fill="none" stroke="midnightblue" d="M318.75,-125.58C313.14,-116.24 306.85,-105.75 301.95,-97.58"/>
<polygon fill="midnightblue" stroke="midnightblue" points="315.89,-127.62 324.04,-134.4 321.89,-124.02 315.89,-127.62"/>
</g>
<!-- Node6 -->
<g id="node6" class="node">
<title>Node6</title>
<g id="a_node6"><a xlink:href="QtSfmlTileRenderer_8cpp.html" target="_top" xlink:title=" ">
<polygon fill="white" stroke="black" points="391.5,-67.5 391.5,-97.5 551.5,-97.5 551.5,-67.5 391.5,-67.5"/>
<text text-anchor="start" x="399.5" y="-85.5" font-family="Helvetica,sans-Serif" font-size="10.00">sources/Renderer/QtRenderer</text>
<text text-anchor="middle" x="471.5" y="-74.5" font-family="Helvetica,sans-Serif" font-size="10.00">/QtSfmlTileRenderer.cpp</text>
</a>
</g>
</g>
<!-- Node5&#45;&gt;Node6 -->
<g id="edge7" class="edge">
<title>Node5&#45;&gt;Node6</title>
<path fill="none" stroke="midnightblue" d="M371.78,-130.13C393.87,-119.8 421.01,-107.11 441.4,-97.58"/>
<polygon fill="midnightblue" stroke="midnightblue" points="370.24,-126.99 362.66,-134.4 373.2,-133.33 370.24,-126.99"/>
</g>
</g>
</svg>
