<?xml version="1.0" encoding="UTF-8" standalone="no"?>
<!DOCTYPE svg PUBLIC "-//W3C//DTD SVG 1.1//EN"
 "http://www.w3.org/Graphics/SVG/1.1/DTD/svg11.dtd">
<!-- Generated by graphviz version 2.43.0 (0)
 -->
<!-- Title: sources/Memory/RectangleShadow.cpp Pages: 1 -->
<svg width="588pt" height="375pt"
 viewBox="0.00 0.00 588.00 375.00" xmlns="http://www.w3.org/2000/svg" xmlns:xlink="http://www.w3.org/1999/xlink">
<g id="graph0" class="graph" transform="scale(1 1) rotate(0) translate(4 371)">
<title>sources/Memory/RectangleShadow.cpp</title>
<polygon fill="white" stroke="transparent" points="-4,4 -4,-371 584,-371 584,4 -4,4"/>
<!-- Node1 -->
<g id="node1" class="node">
<title>Node1</title>
<g id="a_node1"><a xlink:title=" ">
<polygon fill="#bfbfbf" stroke="black" points="317.5,-336.5 317.5,-366.5 466.5,-366.5 466.5,-336.5 317.5,-336.5"/>
<text text-anchor="start" x="325.5" y="-354.5" font-family="Helvetica,sans-Serif" font-size="10.00">sources/Memory/Rectangle</text>
<text text-anchor="middle" x="392" y="-343.5" font-family="Helvetica,sans-Serif" font-size="10.00">Shadow.cpp</text>
</a>
</g>
</g>
<!-- Node2 -->
<g id="node2" class="node">
<title>Node2</title>
<g id="a_node2"><a xlink:href="RectangleShadow_8hpp.html" target="_top" xlink:title=" ">
<polygon fill="white" stroke="black" points="225,-280.5 225,-299.5 349,-299.5 349,-280.5 225,-280.5"/>
<text text-anchor="middle" x="287" y="-287.5" font-family="Helvetica,sans-Serif" font-size="10.00">RectangleShadow.hpp</text>
</a>
</g>
</g>
<!-- Node1&#45;&gt;Node2 -->
<g id="edge1" class="edge">
<title>Node1&#45;&gt;Node2</title>
<path fill="none" stroke="midnightblue" d="M367.12,-336.4C350.29,-326.86 328.16,-314.32 311.43,-304.84"/>
<polygon fill="midnightblue" stroke="midnightblue" points="312.7,-301.54 302.28,-299.66 309.25,-307.63 312.7,-301.54"/>
</g>
<!-- Node11 -->
<g id="node11" class="node">
<title>Node11</title>
<g id="a_node11"><a xlink:title=" ">
<polygon fill="white" stroke="#bfbfbf" points="520,-0.5 520,-19.5 580,-19.5 580,-0.5 520,-0.5"/>
<text text-anchor="middle" x="550" y="-7.5" font-family="Helvetica,sans-Serif" font-size="10.00">iostream</text>
</a>
</g>
</g>
<!-- Node1&#45;&gt;Node11 -->
<g id="edge24" class="edge">
<title>Node1&#45;&gt;Node11</title>
<path fill="none" stroke="midnightblue" d="M443.3,-336.44C489.43,-320.3 550,-288.86 550,-235 550,-235 550,-235 550,-121 550,-88.95 550,-51.64 550,-29.75"/>
<polygon fill="midnightblue" stroke="midnightblue" points="553.5,-29.56 550,-19.56 546.5,-29.56 553.5,-29.56"/>
</g>
<!-- Node3 -->
<g id="node3" class="node">
<title>Node3</title>
<g id="a_node3"><a xlink:title=" ">
<polygon fill="white" stroke="#bfbfbf" points="0,-56.5 0,-75.5 58,-75.5 58,-56.5 0,-56.5"/>
<text text-anchor="middle" x="29" y="-63.5" font-family="Helvetica,sans-Serif" font-size="10.00">memory</text>
</a>
</g>
</g>
<!-- Node2&#45;&gt;Node3 -->
<g id="edge2" class="edge">
<title>Node2&#45;&gt;Node3</title>
<path fill="none" stroke="midnightblue" d="M248.97,-280.49C223.97,-273.58 191.47,-261.98 167,-244 105.84,-199.06 57.86,-120.05 38.41,-84.82"/>
<polygon fill="midnightblue" stroke="midnightblue" points="41.34,-82.87 33.5,-75.74 35.18,-86.2 41.34,-82.87"/>
</g>
<!-- Node4 -->
<g id="node4" class="node">
<title>Node4</title>
<g id="a_node4"><a xlink:href="ARectangleMemory_8hpp.html" target="_top" xlink:title=" ">
<polygon fill="white" stroke="black" points="294,-168.5 294,-187.5 426,-187.5 426,-168.5 294,-168.5"/>
<text text-anchor="middle" x="360" y="-175.5" font-family="Helvetica,sans-Serif" font-size="10.00">ARectangleMemory.hpp</text>
</a>
</g>
</g>
<!-- Node2&#45;&gt;Node4 -->
<g id="edge3" class="edge">
<title>Node2&#45;&gt;Node4</title>
<path fill="none" stroke="midnightblue" d="M292.73,-280.37C304.78,-262.22 332.92,-219.8 348.72,-195.99"/>
<polygon fill="midnightblue" stroke="midnightblue" points="351.69,-197.86 354.3,-187.59 345.85,-193.99 351.69,-197.86"/>
</g>
<!-- Node13 -->
<g id="node13" class="node">
<title>Node13</title>
<g id="a_node13"><a xlink:href="MemoryShadow_8hpp.html" target="_top" xlink:title=" ">
<polygon fill="white" stroke="black" points="176,-224.5 176,-243.5 292,-243.5 292,-224.5 176,-224.5"/>
<text text-anchor="middle" x="234" y="-231.5" font-family="Helvetica,sans-Serif" font-size="10.00">MemoryShadow.hpp</text>
</a>
</g>
</g>
<!-- Node2&#45;&gt;Node13 -->
<g id="edge14" class="edge">
<title>Node2&#45;&gt;Node13</title>
<path fill="none" stroke="midnightblue" d="M278.25,-280.08C270.53,-272.22 259.1,-260.57 249.78,-251.08"/>
<polygon fill="midnightblue" stroke="midnightblue" points="252.09,-248.44 242.59,-243.75 247.1,-253.34 252.09,-248.44"/>
</g>
<!-- Node5 -->
<g id="node5" class="node">
<title>Node5</title>
<g id="a_node5"><a xlink:href="IMemory_8hpp.html" target="_top" xlink:title=" ">
<polygon fill="white" stroke="black" points="281,-112.5 281,-131.5 361,-131.5 361,-112.5 281,-112.5"/>
<text text-anchor="middle" x="321" y="-119.5" font-family="Helvetica,sans-Serif" font-size="10.00">IMemory.hpp</text>
</a>
</g>
</g>
<!-- Node4&#45;&gt;Node5 -->
<g id="edge4" class="edge">
<title>Node4&#45;&gt;Node5</title>
<path fill="none" stroke="midnightblue" d="M353.56,-168.08C348.05,-160.46 339.97,-149.26 333.24,-139.94"/>
<polygon fill="midnightblue" stroke="midnightblue" points="336.01,-137.81 327.32,-131.75 330.34,-141.91 336.01,-137.81"/>
</g>
<!-- Node9 -->
<g id="node9" class="node">
<title>Node9</title>
<g id="a_node9"><a xlink:href="Ints_8hpp.html" target="_top" xlink:title=" ">
<polygon fill="white" stroke="black" points="428,-56.5 428,-75.5 522,-75.5 522,-56.5 428,-56.5"/>
<text text-anchor="middle" x="475" y="-63.5" font-family="Helvetica,sans-Serif" font-size="10.00">Models/Ints.hpp</text>
</a>
</g>
</g>
<!-- Node4&#45;&gt;Node9 -->
<g id="edge13" class="edge">
<title>Node4&#45;&gt;Node9</title>
<path fill="none" stroke="midnightblue" d="M384.37,-168.47C402.42,-161.13 426.64,-149.02 443,-132 455.78,-118.71 464.42,-99.32 469.47,-85.18"/>
<polygon fill="midnightblue" stroke="midnightblue" points="472.83,-86.17 472.64,-75.57 466.18,-83.97 472.83,-86.17"/>
</g>
<!-- Node5&#45;&gt;Node3 -->
<g id="edge7" class="edge">
<title>Node5&#45;&gt;Node3</title>
<path fill="none" stroke="midnightblue" d="M280.57,-114.46C232.48,-106.54 149.55,-92.42 68.26,-75.96"/>
<polygon fill="midnightblue" stroke="midnightblue" points="68.85,-72.51 58.35,-73.94 67.45,-79.37 68.85,-72.51"/>
</g>
<!-- Node6 -->
<g id="node6" class="node">
<title>Node6</title>
<g id="a_node6"><a xlink:title=" ">
<polygon fill="white" stroke="#bfbfbf" points="232,-56.5 232,-75.5 282,-75.5 282,-56.5 232,-56.5"/>
<text text-anchor="middle" x="257" y="-63.5" font-family="Helvetica,sans-Serif" font-size="10.00">cstdint</text>
</a>
</g>
</g>
<!-- Node5&#45;&gt;Node6 -->
<g id="edge5" class="edge">
<title>Node5&#45;&gt;Node6</title>
<path fill="none" stroke="midnightblue" d="M310.72,-112.32C301.16,-104.26 286.72,-92.08 275.22,-82.37"/>
<polygon fill="midnightblue" stroke="midnightblue" points="277.37,-79.61 267.47,-75.83 272.86,-84.96 277.37,-79.61"/>
</g>
<!-- Node7 -->
<g id="node7" class="node">
<title>Node7</title>
<g id="a_node7"><a xlink:title=" ">
<polygon fill="white" stroke="#bfbfbf" points="300.5,-56.5 300.5,-75.5 347.5,-75.5 347.5,-56.5 300.5,-56.5"/>
<text text-anchor="middle" x="324" y="-63.5" font-family="Helvetica,sans-Serif" font-size="10.00">vector</text>
</a>
</g>
</g>
<!-- Node5&#45;&gt;Node7 -->
<g id="edge6" class="edge">
<title>Node5&#45;&gt;Node7</title>
<path fill="none" stroke="midnightblue" d="M321.5,-112.08C321.89,-105.01 322.45,-94.86 322.95,-85.99"/>
<polygon fill="midnightblue" stroke="midnightblue" points="326.45,-85.93 323.51,-75.75 319.46,-85.54 326.45,-85.93"/>
</g>
<!-- Node8 -->
<g id="node8" class="node">
<title>Node8</title>
<g id="a_node8"><a xlink:title=" ">
<polygon fill="white" stroke="#bfbfbf" points="366,-56.5 366,-75.5 410,-75.5 410,-56.5 366,-56.5"/>
<text text-anchor="middle" x="388" y="-63.5" font-family="Helvetica,sans-Serif" font-size="10.00">string</text>
</a>
</g>
</g>
<!-- Node5&#45;&gt;Node8 -->
<g id="edge8" class="edge">
<title>Node5&#45;&gt;Node8</title>
<path fill="none" stroke="midnightblue" d="M331.76,-112.32C341.77,-104.26 356.89,-92.08 368.93,-82.37"/>
<polygon fill="midnightblue" stroke="midnightblue" points="371.45,-84.83 377.04,-75.83 367.06,-79.38 371.45,-84.83"/>
</g>
<!-- Node5&#45;&gt;Node9 -->
<g id="edge9" class="edge">
<title>Node5&#45;&gt;Node9</title>
<path fill="none" stroke="midnightblue" d="M345.4,-112.44C371.2,-103.4 412.08,-89.06 441.02,-78.92"/>
<polygon fill="midnightblue" stroke="midnightblue" points="442.43,-82.13 450.71,-75.52 440.12,-75.52 442.43,-82.13"/>
</g>
<!-- Node12 -->
<g id="node12" class="node">
<title>Node12</title>
<g id="a_node12"><a xlink:href="Components_8hpp.html" target="_top" xlink:title=" ">
<polygon fill="white" stroke="black" points="76.5,-56.5 76.5,-75.5 213.5,-75.5 213.5,-56.5 76.5,-56.5"/>
<text text-anchor="middle" x="145" y="-63.5" font-family="Helvetica,sans-Serif" font-size="10.00">Models/Components.hpp</text>
</a>
</g>
</g>
<!-- Node5&#45;&gt;Node12 -->
<g id="edge12" class="edge">
<title>Node5&#45;&gt;Node12</title>
<path fill="none" stroke="midnightblue" d="M293.11,-112.44C263.25,-103.28 215.69,-88.69 182.54,-78.52"/>
<polygon fill="midnightblue" stroke="midnightblue" points="183.34,-75.1 172.76,-75.52 181.29,-81.8 183.34,-75.1"/>
</g>
<!-- Node10 -->
<g id="node10" class="node">
<title>Node10</title>
<g id="a_node10"><a xlink:title=" ">
<polygon fill="white" stroke="#bfbfbf" points="440,-0.5 440,-19.5 502,-19.5 502,-0.5 440,-0.5"/>
<text text-anchor="middle" x="471" y="-7.5" font-family="Helvetica,sans-Serif" font-size="10.00">cinttypes</text>
</a>
</g>
</g>
<!-- Node9&#45;&gt;Node10 -->
<g id="edge10" class="edge">
<title>Node9&#45;&gt;Node10</title>
<path fill="none" stroke="midnightblue" d="M474.34,-56.08C473.82,-49.01 473.06,-38.86 472.41,-29.99"/>
<polygon fill="midnightblue" stroke="midnightblue" points="475.88,-29.47 471.65,-19.75 468.9,-29.98 475.88,-29.47"/>
</g>
<!-- Node9&#45;&gt;Node11 -->
<g id="edge11" class="edge">
<title>Node9&#45;&gt;Node11</title>
<path fill="none" stroke="midnightblue" d="M487.05,-56.32C498.46,-48.11 515.83,-35.6 529.43,-25.81"/>
<polygon fill="midnightblue" stroke="midnightblue" points="531.66,-28.52 537.73,-19.83 527.57,-22.84 531.66,-28.52"/>
</g>
<!-- Node13&#45;&gt;Node3 -->
<g id="edge15" class="edge">
<title>Node13&#45;&gt;Node3</title>
<path fill="none" stroke="midnightblue" d="M223.29,-224.36C201.67,-206.92 151.27,-166.25 109,-132 88,-114.99 63.93,-95.42 47.73,-82.24"/>
<polygon fill="midnightblue" stroke="midnightblue" points="49.57,-79.23 39.6,-75.63 45.15,-84.66 49.57,-79.23"/>
</g>
<!-- Node14 -->
<g id="node14" class="node">
<title>Node14</title>
<g id="a_node14"><a xlink:href="AMemory_8hpp.html" target="_top" xlink:title=" ">
<polygon fill="white" stroke="black" points="192.5,-168.5 192.5,-187.5 275.5,-187.5 275.5,-168.5 192.5,-168.5"/>
<text text-anchor="middle" x="234" y="-175.5" font-family="Helvetica,sans-Serif" font-size="10.00">AMemory.hpp</text>
</a>
</g>
</g>
<!-- Node13&#45;&gt;Node14 -->
<g id="edge16" class="edge">
<title>Node13&#45;&gt;Node14</title>
<path fill="none" stroke="midnightblue" d="M234,-224.08C234,-217.01 234,-206.86 234,-197.99"/>
<polygon fill="midnightblue" stroke="midnightblue" points="237.5,-197.75 234,-187.75 230.5,-197.75 237.5,-197.75"/>
</g>
<!-- Node14&#45;&gt;Node3 -->
<g id="edge19" class="edge">
<title>Node14&#45;&gt;Node3</title>
<path fill="none" stroke="midnightblue" d="M217.91,-168.37C182.29,-149.25 96.52,-103.23 53.9,-80.36"/>
<polygon fill="midnightblue" stroke="midnightblue" points="55.48,-77.24 45.01,-75.59 52.17,-83.4 55.48,-77.24"/>
</g>
<!-- Node14&#45;&gt;Node5 -->
<g id="edge23" class="edge">
<title>Node14&#45;&gt;Node5</title>
<path fill="none" stroke="midnightblue" d="M247.98,-168.32C261.55,-159.9 282.38,-146.97 298.32,-137.07"/>
<polygon fill="midnightblue" stroke="midnightblue" points="300.41,-139.9 307.06,-131.65 296.71,-133.95 300.41,-139.9"/>
</g>
<!-- Node14&#45;&gt;Node6 -->
<g id="edge17" class="edge">
<title>Node14&#45;&gt;Node6</title>
<path fill="none" stroke="midnightblue" d="M233.84,-168.46C233.79,-155.92 234.38,-131.84 239,-112 241.15,-102.78 244.88,-92.97 248.4,-84.88"/>
<polygon fill="midnightblue" stroke="midnightblue" points="251.61,-86.26 252.59,-75.71 245.25,-83.34 251.61,-86.26"/>
</g>
<!-- Node14&#45;&gt;Node7 -->
<g id="edge18" class="edge">
<title>Node14&#45;&gt;Node7</title>
<path fill="none" stroke="midnightblue" d="M237.88,-168.43C244,-155.43 256.8,-130.3 272,-112 281.3,-100.81 293.53,-90.07 303.79,-81.9"/>
<polygon fill="midnightblue" stroke="midnightblue" points="306.07,-84.56 311.84,-75.68 301.79,-79.02 306.07,-84.56"/>
</g>
<!-- Node14&#45;&gt;Node8 -->
<g id="edge20" class="edge">
<title>Node14&#45;&gt;Node8</title>
<path fill="none" stroke="midnightblue" d="M272.91,-168.44C308.13,-159.95 356.5,-146.19 370,-132 381.72,-119.69 385.94,-100.43 387.39,-86.07"/>
<polygon fill="midnightblue" stroke="midnightblue" points="390.9,-86.03 388.05,-75.83 383.91,-85.58 390.9,-86.03"/>
</g>
<!-- Node14&#45;&gt;Node9 -->
<g id="edge21" class="edge">
<title>Node14&#45;&gt;Node9</title>
<path fill="none" stroke="midnightblue" d="M275.67,-169.23C307.78,-162.23 352.68,-150.22 389,-132 415.21,-118.85 441.55,-97.45 458.05,-82.82"/>
<polygon fill="midnightblue" stroke="midnightblue" points="460.66,-85.18 465.72,-75.87 455.96,-79.99 460.66,-85.18"/>
</g>
<!-- Node14&#45;&gt;Node12 -->
<g id="edge22" class="edge">
<title>Node14&#45;&gt;Node12</title>
<path fill="none" stroke="midnightblue" d="M227.02,-168.37C212.26,-150.14 177.71,-107.43 158.49,-83.68"/>
<polygon fill="midnightblue" stroke="midnightblue" points="160.96,-81.16 151.95,-75.59 155.52,-85.57 160.96,-81.16"/>
</g>
</g>
</svg>
