<?xml version="1.0" encoding="UTF-8" standalone="no"?>
<!DOCTYPE svg PUBLIC "-//W3C//DTD SVG 1.1//EN"
 "http://www.w3.org/Graphics/SVG/1.1/DTD/svg11.dtd">
<!-- Generated by graphviz version 2.43.0 (0)
 -->
<!-- Title: sources/Memory/RectangleShadow.hpp Pages: 1 -->
<svg width="552pt" height="319pt"
 viewBox="0.00 0.00 552.00 319.00" xmlns="http://www.w3.org/2000/svg" xmlns:xlink="http://www.w3.org/1999/xlink">
<g id="graph0" class="graph" transform="scale(1 1) rotate(0) translate(4 315)">
<title>sources/Memory/RectangleShadow.hpp</title>
<polygon fill="white" stroke="transparent" points="-4,4 -4,-315 548,-315 548,4 -4,4"/>
<!-- Node1 -->
<g id="node1" class="node">
<title>Node1</title>
<g id="a_node1"><a xlink:title=" ">
<polygon fill="#bfbfbf" stroke="black" points="59.5,-280.5 59.5,-310.5 208.5,-310.5 208.5,-280.5 59.5,-280.5"/>
<text text-anchor="start" x="67.5" y="-298.5" font-family="Helvetica,sans-Serif" font-size="10.00">sources/Memory/Rectangle</text>
<text text-anchor="middle" x="134" y="-287.5" font-family="Helvetica,sans-Serif" font-size="10.00">Shadow.hpp</text>
</a>
</g>
</g>
<!-- Node2 -->
<g id="node2" class="node">
<title>Node2</title>
<g id="a_node2"><a xlink:title=" ">
<polygon fill="white" stroke="#bfbfbf" points="0,-56.5 0,-75.5 58,-75.5 58,-56.5 0,-56.5"/>
<text text-anchor="middle" x="29" y="-63.5" font-family="Helvetica,sans-Serif" font-size="10.00">memory</text>
</a>
</g>
</g>
<!-- Node1&#45;&gt;Node2 -->
<g id="edge1" class="edge">
<title>Node1&#45;&gt;Node2</title>
<path fill="none" stroke="midnightblue" d="M107.02,-280.42C93,-271.75 76.8,-259.35 67,-244 34.78,-193.53 29.47,-120.14 28.86,-85.9"/>
<polygon fill="midnightblue" stroke="midnightblue" points="32.36,-85.51 28.81,-75.53 25.36,-85.55 32.36,-85.51"/>
</g>
<!-- Node3 -->
<g id="node3" class="node">
<title>Node3</title>
<g id="a_node3"><a xlink:href="ARectangleMemory_8hpp.html" target="_top" xlink:title=" ">
<polygon fill="white" stroke="black" points="227,-168.5 227,-187.5 359,-187.5 359,-168.5 227,-168.5"/>
<text text-anchor="middle" x="293" y="-175.5" font-family="Helvetica,sans-Serif" font-size="10.00">ARectangleMemory.hpp</text>
</a>
</g>
</g>
<!-- Node1&#45;&gt;Node3 -->
<g id="edge2" class="edge">
<title>Node1&#45;&gt;Node3</title>
<path fill="none" stroke="midnightblue" d="M153.5,-280.34C183.84,-258.3 242.06,-216.01 272.81,-193.66"/>
<polygon fill="midnightblue" stroke="midnightblue" points="275.03,-196.38 281.07,-187.67 270.92,-190.71 275.03,-196.38"/>
</g>
<!-- Node12 -->
<g id="node12" class="node">
<title>Node12</title>
<g id="a_node12"><a xlink:href="MemoryShadow_8hpp.html" target="_top" xlink:title=" ">
<polygon fill="white" stroke="black" points="76,-224.5 76,-243.5 192,-243.5 192,-224.5 76,-224.5"/>
<text text-anchor="middle" x="134" y="-231.5" font-family="Helvetica,sans-Serif" font-size="10.00">MemoryShadow.hpp</text>
</a>
</g>
</g>
<!-- Node1&#45;&gt;Node12 -->
<g id="edge13" class="edge">
<title>Node1&#45;&gt;Node12</title>
<path fill="none" stroke="midnightblue" d="M134,-280.4C134,-272.47 134,-262.46 134,-253.86"/>
<polygon fill="midnightblue" stroke="midnightblue" points="137.5,-253.66 134,-243.66 130.5,-253.66 137.5,-253.66"/>
</g>
<!-- Node4 -->
<g id="node4" class="node">
<title>Node4</title>
<g id="a_node4"><a xlink:href="IMemory_8hpp.html" target="_top" xlink:title=" ">
<polygon fill="white" stroke="black" points="233,-112.5 233,-131.5 313,-131.5 313,-112.5 233,-112.5"/>
<text text-anchor="middle" x="273" y="-119.5" font-family="Helvetica,sans-Serif" font-size="10.00">IMemory.hpp</text>
</a>
</g>
</g>
<!-- Node3&#45;&gt;Node4 -->
<g id="edge3" class="edge">
<title>Node3&#45;&gt;Node4</title>
<path fill="none" stroke="midnightblue" d="M289.7,-168.08C287.02,-160.85 283.15,-150.41 279.81,-141.4"/>
<polygon fill="midnightblue" stroke="midnightblue" points="283,-139.91 276.24,-131.75 276.43,-142.34 283,-139.91"/>
</g>
<!-- Node8 -->
<g id="node8" class="node">
<title>Node8</title>
<g id="a_node8"><a xlink:href="Ints_8hpp.html" target="_top" xlink:title=" ">
<polygon fill="white" stroke="black" points="428,-56.5 428,-75.5 522,-75.5 522,-56.5 428,-56.5"/>
<text text-anchor="middle" x="475" y="-63.5" font-family="Helvetica,sans-Serif" font-size="10.00">Models/Ints.hpp</text>
</a>
</g>
</g>
<!-- Node3&#45;&gt;Node8 -->
<g id="edge12" class="edge">
<title>Node3&#45;&gt;Node8</title>
<path fill="none" stroke="midnightblue" d="M335.53,-168.43C362.1,-161.63 396.07,-150.17 422,-132 440,-119.39 455.2,-99.05 464.64,-84.49"/>
<polygon fill="midnightblue" stroke="midnightblue" points="467.68,-86.22 469.99,-75.88 461.74,-82.53 467.68,-86.22"/>
</g>
<!-- Node4&#45;&gt;Node2 -->
<g id="edge6" class="edge">
<title>Node4&#45;&gt;Node2</title>
<path fill="none" stroke="midnightblue" d="M233.08,-112.5C193.57,-104.03 131.12,-90.52 67.79,-76.15"/>
<polygon fill="midnightblue" stroke="midnightblue" points="68.56,-72.74 58.03,-73.93 67.01,-79.56 68.56,-72.74"/>
</g>
<!-- Node5 -->
<g id="node5" class="node">
<title>Node5</title>
<g id="a_node5"><a xlink:title=" ">
<polygon fill="white" stroke="#bfbfbf" points="76,-56.5 76,-75.5 126,-75.5 126,-56.5 76,-56.5"/>
<text text-anchor="middle" x="101" y="-63.5" font-family="Helvetica,sans-Serif" font-size="10.00">cstdint</text>
</a>
</g>
</g>
<!-- Node4&#45;&gt;Node5 -->
<g id="edge4" class="edge">
<title>Node4&#45;&gt;Node5</title>
<path fill="none" stroke="midnightblue" d="M245.75,-112.44C216.09,-103.13 168.57,-88.21 136.13,-78.03"/>
<polygon fill="midnightblue" stroke="midnightblue" points="136.76,-74.56 126.17,-74.9 134.66,-81.24 136.76,-74.56"/>
</g>
<!-- Node6 -->
<g id="node6" class="node">
<title>Node6</title>
<g id="a_node6"><a xlink:title=" ">
<polygon fill="white" stroke="#bfbfbf" points="144.5,-56.5 144.5,-75.5 191.5,-75.5 191.5,-56.5 144.5,-56.5"/>
<text text-anchor="middle" x="168" y="-63.5" font-family="Helvetica,sans-Serif" font-size="10.00">vector</text>
</a>
</g>
</g>
<!-- Node4&#45;&gt;Node6 -->
<g id="edge5" class="edge">
<title>Node4&#45;&gt;Node6</title>
<path fill="none" stroke="midnightblue" d="M256.13,-112.32C239.29,-103.66 213.19,-90.24 193.76,-80.25"/>
<polygon fill="midnightblue" stroke="midnightblue" points="195.32,-77.12 184.83,-75.65 192.12,-83.34 195.32,-77.12"/>
</g>
<!-- Node7 -->
<g id="node7" class="node">
<title>Node7</title>
<g id="a_node7"><a xlink:title=" ">
<polygon fill="white" stroke="#bfbfbf" points="210,-56.5 210,-75.5 254,-75.5 254,-56.5 210,-56.5"/>
<text text-anchor="middle" x="232" y="-63.5" font-family="Helvetica,sans-Serif" font-size="10.00">string</text>
</a>
</g>
</g>
<!-- Node4&#45;&gt;Node7 -->
<g id="edge7" class="edge">
<title>Node4&#45;&gt;Node7</title>
<path fill="none" stroke="midnightblue" d="M266.23,-112.08C260.44,-104.46 251.94,-93.26 244.86,-83.94"/>
<polygon fill="midnightblue" stroke="midnightblue" points="247.48,-81.6 238.64,-75.75 241.9,-85.83 247.48,-81.6"/>
</g>
<!-- Node4&#45;&gt;Node8 -->
<g id="edge8" class="edge">
<title>Node4&#45;&gt;Node8</title>
<path fill="none" stroke="midnightblue" d="M305.01,-112.44C339.73,-103.16 395.29,-88.31 433.38,-78.13"/>
<polygon fill="midnightblue" stroke="midnightblue" points="434.39,-81.48 443.14,-75.52 432.58,-74.72 434.39,-81.48"/>
</g>
<!-- Node11 -->
<g id="node11" class="node">
<title>Node11</title>
<g id="a_node11"><a xlink:href="Components_8hpp.html" target="_top" xlink:title=" ">
<polygon fill="white" stroke="black" points="272.5,-56.5 272.5,-75.5 409.5,-75.5 409.5,-56.5 272.5,-56.5"/>
<text text-anchor="middle" x="341" y="-63.5" font-family="Helvetica,sans-Serif" font-size="10.00">Models/Components.hpp</text>
</a>
</g>
</g>
<!-- Node4&#45;&gt;Node11 -->
<g id="edge11" class="edge">
<title>Node4&#45;&gt;Node11</title>
<path fill="none" stroke="midnightblue" d="M283.93,-112.32C294.17,-104.18 309.72,-91.84 322,-82.09"/>
<polygon fill="midnightblue" stroke="midnightblue" points="324.22,-84.79 329.88,-75.83 319.87,-79.31 324.22,-84.79"/>
</g>
<!-- Node9 -->
<g id="node9" class="node">
<title>Node9</title>
<g id="a_node9"><a xlink:title=" ">
<polygon fill="white" stroke="#bfbfbf" points="404,-0.5 404,-19.5 466,-19.5 466,-0.5 404,-0.5"/>
<text text-anchor="middle" x="435" y="-7.5" font-family="Helvetica,sans-Serif" font-size="10.00">cinttypes</text>
</a>
</g>
</g>
<!-- Node8&#45;&gt;Node9 -->
<g id="edge9" class="edge">
<title>Node8&#45;&gt;Node9</title>
<path fill="none" stroke="midnightblue" d="M468.39,-56.08C462.74,-48.46 454.46,-37.26 447.55,-27.94"/>
<polygon fill="midnightblue" stroke="midnightblue" points="450.25,-25.7 441.48,-19.75 444.62,-29.87 450.25,-25.7"/>
</g>
<!-- Node10 -->
<g id="node10" class="node">
<title>Node10</title>
<g id="a_node10"><a xlink:title=" ">
<polygon fill="white" stroke="#bfbfbf" points="484,-0.5 484,-19.5 544,-19.5 544,-0.5 484,-0.5"/>
<text text-anchor="middle" x="514" y="-7.5" font-family="Helvetica,sans-Serif" font-size="10.00">iostream</text>
</a>
</g>
</g>
<!-- Node8&#45;&gt;Node10 -->
<g id="edge10" class="edge">
<title>Node8&#45;&gt;Node10</title>
<path fill="none" stroke="midnightblue" d="M481.44,-56.08C486.95,-48.46 495.03,-37.26 501.76,-27.94"/>
<polygon fill="midnightblue" stroke="midnightblue" points="504.66,-29.91 507.68,-19.75 498.99,-25.81 504.66,-29.91"/>
</g>
<!-- Node12&#45;&gt;Node2 -->
<g id="edge14" class="edge">
<title>Node12&#45;&gt;Node2</title>
<path fill="none" stroke="midnightblue" d="M128.35,-224.08C111.61,-197.61 62.02,-119.21 39.89,-84.21"/>
<polygon fill="midnightblue" stroke="midnightblue" points="42.72,-82.15 34.42,-75.57 36.81,-85.89 42.72,-82.15"/>
</g>
<!-- Node13 -->
<g id="node13" class="node">
<title>Node13</title>
<g id="a_node13"><a xlink:href="AMemory_8hpp.html" target="_top" xlink:title=" ">
<polygon fill="white" stroke="black" points="125.5,-168.5 125.5,-187.5 208.5,-187.5 208.5,-168.5 125.5,-168.5"/>
<text text-anchor="middle" x="167" y="-175.5" font-family="Helvetica,sans-Serif" font-size="10.00">AMemory.hpp</text>
</a>
</g>
</g>
<!-- Node12&#45;&gt;Node13 -->
<g id="edge15" class="edge">
<title>Node12&#45;&gt;Node13</title>
<path fill="none" stroke="midnightblue" d="M139.45,-224.08C144.01,-216.61 150.67,-205.72 156.29,-196.52"/>
<polygon fill="midnightblue" stroke="midnightblue" points="159.42,-198.11 161.65,-187.75 153.45,-194.46 159.42,-198.11"/>
</g>
<!-- Node13&#45;&gt;Node2 -->
<g id="edge18" class="edge">
<title>Node13&#45;&gt;Node2</title>
<path fill="none" stroke="midnightblue" d="M156.17,-168.37C132.69,-149.65 76.86,-105.15 47.61,-81.83"/>
<polygon fill="midnightblue" stroke="midnightblue" points="49.78,-79.09 39.78,-75.59 45.42,-84.56 49.78,-79.09"/>
</g>
<!-- Node13&#45;&gt;Node4 -->
<g id="edge22" class="edge">
<title>Node13&#45;&gt;Node4</title>
<path fill="none" stroke="midnightblue" d="M184.03,-168.32C201.03,-159.66 227.38,-146.24 246.99,-136.25"/>
<polygon fill="midnightblue" stroke="midnightblue" points="248.69,-139.31 256.01,-131.65 245.51,-133.08 248.69,-139.31"/>
</g>
<!-- Node13&#45;&gt;Node5 -->
<g id="edge16" class="edge">
<title>Node13&#45;&gt;Node5</title>
<path fill="none" stroke="midnightblue" d="M161.82,-168.37C150.98,-150.3 125.71,-108.18 111.38,-84.31"/>
<polygon fill="midnightblue" stroke="midnightblue" points="114.3,-82.37 106.15,-75.59 108.3,-85.97 114.3,-82.37"/>
</g>
<!-- Node13&#45;&gt;Node6 -->
<g id="edge17" class="edge">
<title>Node13&#45;&gt;Node6</title>
<path fill="none" stroke="midnightblue" d="M167.08,-168.37C167.24,-150.62 167.61,-109.67 167.83,-85.6"/>
<polygon fill="midnightblue" stroke="midnightblue" points="171.33,-85.62 167.92,-75.59 164.33,-85.56 171.33,-85.62"/>
</g>
<!-- Node13&#45;&gt;Node7 -->
<g id="edge19" class="edge">
<title>Node13&#45;&gt;Node7</title>
<path fill="none" stroke="midnightblue" d="M172.1,-168.37C182.78,-150.3 207.67,-108.18 221.77,-84.31"/>
<polygon fill="midnightblue" stroke="midnightblue" points="224.85,-85.98 226.92,-75.59 218.82,-82.42 224.85,-85.98"/>
</g>
<!-- Node13&#45;&gt;Node8 -->
<g id="edge20" class="edge">
<title>Node13&#45;&gt;Node8</title>
<path fill="none" stroke="midnightblue" d="M208.74,-168.77C244.66,-161.09 297.55,-148.38 342,-132 381.52,-117.43 424.94,-94.88 451.08,-80.54"/>
<polygon fill="midnightblue" stroke="midnightblue" points="452.84,-83.56 459.89,-75.65 449.44,-77.44 452.84,-83.56"/>
</g>
<!-- Node13&#45;&gt;Node11 -->
<g id="edge21" class="edge">
<title>Node13&#45;&gt;Node11</title>
<path fill="none" stroke="midnightblue" d="M208.6,-169.59C248.85,-161.63 306.04,-147.94 322,-132 334.08,-119.94 338.57,-100.65 340.19,-86.21"/>
<polygon fill="midnightblue" stroke="midnightblue" points="343.71,-86.14 340.97,-75.91 336.73,-85.61 343.71,-86.14"/>
</g>
</g>
</svg>
