<?xml version="1.0" encoding="UTF-8" standalone="no"?>
<!DOCTYPE svg PUBLIC "-//W3C//DTD SVG 1.1//EN"
 "http://www.w3.org/Graphics/SVG/1.1/DTD/svg11.dtd">
<!-- Generated by graphviz version 2.43.0 (0)
 -->
<!-- Title: sources/Debugger/RegisterViewer.hpp Pages: 1 -->
<svg width="995pt" height="431pt"
 viewBox="0.00 0.00 994.50 431.00" xmlns="http://www.w3.org/2000/svg" xmlns:xlink="http://www.w3.org/1999/xlink">
<g id="graph0" class="graph" transform="scale(1 1) rotate(0) translate(4 427)">
<title>sources/Debugger/RegisterViewer.hpp</title>
<polygon fill="white" stroke="transparent" points="-4,4 -4,-427 990.5,-427 990.5,4 -4,4"/>
<!-- Node1 -->
<g id="node1" class="node">
<title>Node1</title>
<g id="a_node1"><a xlink:title=" ">
<polygon fill="#bfbfbf" stroke="black" points="531.5,-392.5 531.5,-422.5 679.5,-422.5 679.5,-392.5 531.5,-392.5"/>
<text text-anchor="start" x="539.5" y="-410.5" font-family="Helvetica,sans-Serif" font-size="10.00">sources/Debugger/Register</text>
<text text-anchor="middle" x="605.5" y="-399.5" font-family="Helvetica,sans-Serif" font-size="10.00">Viewer.hpp</text>
</a>
</g>
</g>
<!-- Node2 -->
<g id="node2" class="node">
<title>Node2</title>
<g id="a_node2"><a xlink:href="ClosableWindow_8hpp.html" target="_top" xlink:title=" ">
<polygon fill="white" stroke="black" points="104.5,-336.5 104.5,-355.5 222.5,-355.5 222.5,-336.5 104.5,-336.5"/>
<text text-anchor="middle" x="163.5" y="-343.5" font-family="Helvetica,sans-Serif" font-size="10.00">ClosableWindow.hpp</text>
</a>
</g>
</g>
<!-- Node1&#45;&gt;Node2 -->
<g id="edge1" class="edge">
<title>Node1&#45;&gt;Node2</title>
<path fill="none" stroke="midnightblue" d="M531.02,-396.47C447.73,-385.26 313.92,-367.25 232.8,-356.33"/>
<polygon fill="midnightblue" stroke="midnightblue" points="233.07,-352.83 222.69,-354.97 232.13,-359.77 233.07,-352.83"/>
</g>
<!-- Node5 -->
<g id="node5" class="node">
<title>Node5</title>
<g id="a_node5"><a xlink:href="MemoryBus_8hpp.html" target="_top" xlink:title=" ">
<polygon fill="white" stroke="black" points="462.5,-336.5 462.5,-355.5 602.5,-355.5 602.5,-336.5 462.5,-336.5"/>
<text text-anchor="middle" x="532.5" y="-343.5" font-family="Helvetica,sans-Serif" font-size="10.00">Memory/MemoryBus.hpp</text>
</a>
</g>
</g>
<!-- Node1&#45;&gt;Node5 -->
<g id="edge4" class="edge">
<title>Node1&#45;&gt;Node5</title>
<path fill="none" stroke="midnightblue" d="M588.2,-392.4C577.05,-383.31 562.55,-371.49 551.14,-362.19"/>
<polygon fill="midnightblue" stroke="midnightblue" points="553.08,-359.26 543.12,-355.66 548.66,-364.69 553.08,-359.26"/>
</g>
<!-- Node11 -->
<g id="node11" class="node">
<title>Node11</title>
<g id="a_node11"><a xlink:href="Ints_8hpp.html" target="_top" xlink:title=" ">
<polygon fill="white" stroke="black" points="416.5,-56.5 416.5,-75.5 510.5,-75.5 510.5,-56.5 416.5,-56.5"/>
<text text-anchor="middle" x="463.5" y="-63.5" font-family="Helvetica,sans-Serif" font-size="10.00">Models/Ints.hpp</text>
</a>
</g>
</g>
<!-- Node1&#45;&gt;Node11 -->
<g id="edge37" class="edge">
<title>Node1&#45;&gt;Node11</title>
<path fill="none" stroke="midnightblue" d="M531.08,-397.55C426.98,-382.92 250.5,-349.49 250.5,-291 250.5,-291 250.5,-291 250.5,-177 250.5,-106.73 343.16,-81.3 406.25,-72.13"/>
<polygon fill="midnightblue" stroke="midnightblue" points="407.05,-75.56 416.49,-70.75 406.11,-68.62 407.05,-75.56"/>
</g>
<!-- Node21 -->
<g id="node21" class="node">
<title>Node21</title>
<g id="a_node21"><a xlink:title=" ">
<polygon fill="white" stroke="#bfbfbf" points="620.5,-336.5 620.5,-355.5 738.5,-355.5 738.5,-336.5 620.5,-336.5"/>
<text text-anchor="middle" x="679.5" y="-343.5" font-family="Helvetica,sans-Serif" font-size="10.00">ui/ui_registersView.h</text>
</a>
</g>
</g>
<!-- Node1&#45;&gt;Node21 -->
<g id="edge38" class="edge">
<title>Node1&#45;&gt;Node21</title>
<path fill="none" stroke="midnightblue" d="M623.04,-392.4C634.34,-383.31 649.04,-371.49 660.61,-362.19"/>
<polygon fill="midnightblue" stroke="midnightblue" points="663.13,-364.65 668.73,-355.66 658.75,-359.2 663.13,-364.65"/>
</g>
<!-- Node22 -->
<g id="node22" class="node">
<title>Node22</title>
<g id="a_node22"><a xlink:title=" ">
<polygon fill="white" stroke="#bfbfbf" points="756.5,-336.5 756.5,-355.5 876.5,-355.5 876.5,-336.5 756.5,-336.5"/>
<text text-anchor="middle" x="816.5" y="-343.5" font-family="Helvetica,sans-Serif" font-size="10.00">QAbstractTableModel</text>
</a>
</g>
</g>
<!-- Node1&#45;&gt;Node22 -->
<g id="edge39" class="edge">
<title>Node1&#45;&gt;Node22</title>
<path fill="none" stroke="midnightblue" d="M655.24,-392.47C692.27,-382.03 742.18,-367.96 776.62,-358.25"/>
<polygon fill="midnightblue" stroke="midnightblue" points="777.66,-361.59 786.33,-355.51 775.76,-354.85 777.66,-361.59"/>
</g>
<!-- Node23 -->
<g id="node23" class="node">
<title>Node23</title>
<g id="a_node23"><a xlink:title=" ">
<polygon fill="white" stroke="#bfbfbf" points="894.5,-336.5 894.5,-355.5 986.5,-355.5 986.5,-336.5 894.5,-336.5"/>
<text text-anchor="middle" x="940.5" y="-343.5" font-family="Helvetica,sans-Serif" font-size="10.00">QtCore/QObject</text>
</a>
</g>
</g>
<!-- Node1&#45;&gt;Node23 -->
<g id="edge40" class="edge">
<title>Node1&#45;&gt;Node23</title>
<path fill="none" stroke="midnightblue" d="M679.85,-393.3C741.55,-382.34 827.97,-366.99 884.09,-357.02"/>
<polygon fill="midnightblue" stroke="midnightblue" points="884.97,-360.42 894.21,-355.22 883.75,-353.53 884.97,-360.42"/>
</g>
<!-- Node3 -->
<g id="node3" class="node">
<title>Node3</title>
<g id="a_node3"><a xlink:title=" ">
<polygon fill="white" stroke="#bfbfbf" points="0,-280.5 0,-299.5 141,-299.5 141,-280.5 0,-280.5"/>
<text text-anchor="middle" x="70.5" y="-287.5" font-family="Helvetica,sans-Serif" font-size="10.00">QtWidgets/QMainWindow</text>
</a>
</g>
</g>
<!-- Node2&#45;&gt;Node3 -->
<g id="edge2" class="edge">
<title>Node2&#45;&gt;Node3</title>
<path fill="none" stroke="midnightblue" d="M148.56,-336.32C133.91,-327.82 111.37,-314.73 94.26,-304.8"/>
<polygon fill="midnightblue" stroke="midnightblue" points="95.81,-301.65 85.4,-299.65 92.3,-307.7 95.81,-301.65"/>
</g>
<!-- Node4 -->
<g id="node4" class="node">
<title>Node4</title>
<g id="a_node4"><a xlink:title=" ">
<polygon fill="white" stroke="#bfbfbf" points="159,-280.5 159,-299.5 204,-299.5 204,-280.5 159,-280.5"/>
<text text-anchor="middle" x="181.5" y="-287.5" font-family="Helvetica,sans-Serif" font-size="10.00">utility</text>
</a>
</g>
</g>
<!-- Node2&#45;&gt;Node4 -->
<g id="edge3" class="edge">
<title>Node2&#45;&gt;Node4</title>
<path fill="none" stroke="midnightblue" d="M166.47,-336.08C168.88,-328.85 172.36,-318.41 175.37,-309.4"/>
<polygon fill="midnightblue" stroke="midnightblue" points="178.74,-310.34 178.58,-299.75 172.1,-308.13 178.74,-310.34"/>
</g>
<!-- Node6 -->
<g id="node6" class="node">
<title>Node6</title>
<g id="a_node6"><a xlink:href="AMemory_8hpp.html" target="_top" xlink:title=" ">
<polygon fill="white" stroke="black" points="667,-168.5 667,-187.5 750,-187.5 750,-168.5 667,-168.5"/>
<text text-anchor="middle" x="708.5" y="-175.5" font-family="Helvetica,sans-Serif" font-size="10.00">AMemory.hpp</text>
</a>
</g>
</g>
<!-- Node5&#45;&gt;Node6 -->
<g id="edge5" class="edge">
<title>Node5&#45;&gt;Node6</title>
<path fill="none" stroke="midnightblue" d="M557.69,-336.41C593.38,-322.82 657.82,-292.8 689.5,-244 698.6,-229.98 703.45,-211.48 705.97,-197.8"/>
<polygon fill="midnightblue" stroke="midnightblue" points="709.47,-198.08 707.58,-187.65 702.56,-196.99 709.47,-198.08"/>
</g>
<!-- Node7 -->
<g id="node7" class="node">
<title>Node7</title>
<g id="a_node7"><a xlink:title=" ">
<polygon fill="white" stroke="#bfbfbf" points="822.5,-56.5 822.5,-75.5 872.5,-75.5 872.5,-56.5 822.5,-56.5"/>
<text text-anchor="middle" x="847.5" y="-63.5" font-family="Helvetica,sans-Serif" font-size="10.00">cstdint</text>
</a>
</g>
</g>
<!-- Node5&#45;&gt;Node7 -->
<g id="edge34" class="edge">
<title>Node5&#45;&gt;Node7</title>
<path fill="none" stroke="midnightblue" d="M592.67,-336.46C683.85,-321.81 846.5,-288.21 846.5,-235 846.5,-235 846.5,-235 846.5,-177 846.5,-144.95 846.93,-107.64 847.23,-85.75"/>
<polygon fill="midnightblue" stroke="midnightblue" points="850.73,-85.61 847.37,-75.56 843.73,-85.51 850.73,-85.61"/>
</g>
<!-- Node8 -->
<g id="node8" class="node">
<title>Node8</title>
<g id="a_node8"><a xlink:title=" ">
<polygon fill="white" stroke="#bfbfbf" points="891,-56.5 891,-75.5 938,-75.5 938,-56.5 891,-56.5"/>
<text text-anchor="middle" x="914.5" y="-63.5" font-family="Helvetica,sans-Serif" font-size="10.00">vector</text>
</a>
</g>
</g>
<!-- Node5&#45;&gt;Node8 -->
<g id="edge36" class="edge">
<title>Node5&#45;&gt;Node8</title>
<path fill="none" stroke="midnightblue" d="M595.42,-336.47C661.06,-327.18 759.35,-312.03 795.5,-300 855.66,-279.98 922.5,-298.41 922.5,-235 922.5,-235 922.5,-235 922.5,-177 922.5,-144.86 919.06,-107.58 916.69,-85.72"/>
<polygon fill="midnightblue" stroke="midnightblue" points="920.14,-85.09 915.55,-75.54 913.19,-85.87 920.14,-85.09"/>
</g>
<!-- Node9 -->
<g id="node9" class="node">
<title>Node9</title>
<g id="a_node9"><a xlink:title=" ">
<polygon fill="white" stroke="#bfbfbf" points="528.5,-56.5 528.5,-75.5 586.5,-75.5 586.5,-56.5 528.5,-56.5"/>
<text text-anchor="middle" x="557.5" y="-63.5" font-family="Helvetica,sans-Serif" font-size="10.00">memory</text>
</a>
</g>
</g>
<!-- Node5&#45;&gt;Node9 -->
<g id="edge35" class="edge">
<title>Node5&#45;&gt;Node9</title>
<path fill="none" stroke="midnightblue" d="M508.21,-336.47C471.59,-321.88 406.5,-288.43 406.5,-235 406.5,-235 406.5,-235 406.5,-177 406.5,-121.52 473.92,-91.07 518.66,-76.97"/>
<polygon fill="midnightblue" stroke="midnightblue" points="519.82,-80.28 528.39,-74.05 517.8,-73.57 519.82,-80.28"/>
</g>
<!-- Node16 -->
<g id="node16" class="node">
<title>Node16</title>
<g id="a_node16"><a xlink:href="RectangleShadow_8hpp.html" target="_top" xlink:title=" ">
<polygon fill="white" stroke="black" points="470.5,-280.5 470.5,-299.5 594.5,-299.5 594.5,-280.5 470.5,-280.5"/>
<text text-anchor="middle" x="532.5" y="-287.5" font-family="Helvetica,sans-Serif" font-size="10.00">RectangleShadow.hpp</text>
</a>
</g>
</g>
<!-- Node5&#45;&gt;Node16 -->
<g id="edge21" class="edge">
<title>Node5&#45;&gt;Node16</title>
<path fill="none" stroke="midnightblue" d="M532.5,-336.08C532.5,-329.01 532.5,-318.86 532.5,-309.99"/>
<polygon fill="midnightblue" stroke="midnightblue" points="536,-309.75 532.5,-299.75 529,-309.75 536,-309.75"/>
</g>
<!-- Node18 -->
<g id="node18" class="node">
<title>Node18</title>
<g id="a_node18"><a xlink:href="MemoryShadow_8hpp.html" target="_top" xlink:title=" ">
<polygon fill="white" stroke="black" points="564.5,-224.5 564.5,-243.5 680.5,-243.5 680.5,-224.5 564.5,-224.5"/>
<text text-anchor="middle" x="622.5" y="-231.5" font-family="Helvetica,sans-Serif" font-size="10.00">MemoryShadow.hpp</text>
</a>
</g>
</g>
<!-- Node5&#45;&gt;Node18 -->
<g id="edge29" class="edge">
<title>Node5&#45;&gt;Node18</title>
<path fill="none" stroke="midnightblue" d="M553.79,-336.49C569.69,-329.1 590.78,-316.91 603.5,-300 613.55,-286.64 618.3,-268.07 620.53,-254.2"/>
<polygon fill="midnightblue" stroke="midnightblue" points="624.06,-254.24 621.88,-243.87 617.12,-253.33 624.06,-254.24"/>
</g>
<!-- Node19 -->
<g id="node19" class="node">
<title>Node19</title>
<g id="a_node19"><a xlink:href="IMemoryBus_8hpp.html" target="_top" xlink:title=" ">
<polygon fill="white" stroke="black" points="279,-168.5 279,-187.5 378,-187.5 378,-168.5 279,-168.5"/>
<text text-anchor="middle" x="328.5" y="-175.5" font-family="Helvetica,sans-Serif" font-size="10.00">IMemoryBus.hpp</text>
</a>
</g>
</g>
<!-- Node5&#45;&gt;Node19 -->
<g id="edge30" class="edge">
<title>Node5&#45;&gt;Node19</title>
<path fill="none" stroke="midnightblue" d="M473.4,-336.5C446.34,-330.14 415.29,-319.11 392.5,-300 359.83,-272.62 341.52,-224.2 333.49,-197.67"/>
<polygon fill="midnightblue" stroke="midnightblue" points="336.77,-196.42 330.66,-187.77 330.04,-198.34 336.77,-196.42"/>
</g>
<!-- Node6&#45;&gt;Node7 -->
<g id="edge6" class="edge">
<title>Node6&#45;&gt;Node7</title>
<path fill="none" stroke="midnightblue" d="M719.41,-168.37C743.06,-149.65 799.29,-105.15 828.76,-81.83"/>
<polygon fill="midnightblue" stroke="midnightblue" points="830.97,-84.54 836.64,-75.59 826.63,-79.05 830.97,-84.54"/>
</g>
<!-- Node6&#45;&gt;Node8 -->
<g id="edge7" class="edge">
<title>Node6&#45;&gt;Node8</title>
<path fill="none" stroke="midnightblue" d="M724.66,-168.37C760.47,-149.25 846.65,-103.23 889.48,-80.36"/>
<polygon fill="midnightblue" stroke="midnightblue" points="891.24,-83.39 898.41,-75.59 887.94,-77.21 891.24,-83.39"/>
</g>
<!-- Node6&#45;&gt;Node9 -->
<g id="edge8" class="edge">
<title>Node6&#45;&gt;Node9</title>
<path fill="none" stroke="midnightblue" d="M684.52,-168.42C664.84,-160.7 636.83,-148.1 615.5,-132 597.28,-118.25 580.38,-98.12 569.58,-83.91"/>
<polygon fill="midnightblue" stroke="midnightblue" points="572.17,-81.52 563.41,-75.55 566.54,-85.68 572.17,-81.52"/>
</g>
<!-- Node10 -->
<g id="node10" class="node">
<title>Node10</title>
<g id="a_node10"><a xlink:title=" ">
<polygon fill="white" stroke="#bfbfbf" points="604.5,-56.5 604.5,-75.5 648.5,-75.5 648.5,-56.5 604.5,-56.5"/>
<text text-anchor="middle" x="626.5" y="-63.5" font-family="Helvetica,sans-Serif" font-size="10.00">string</text>
</a>
</g>
</g>
<!-- Node6&#45;&gt;Node10 -->
<g id="edge9" class="edge">
<title>Node6&#45;&gt;Node10</title>
<path fill="none" stroke="midnightblue" d="M712.2,-168.26C717.16,-155.03 724.21,-129.6 713.5,-112 707.15,-101.56 680.5,-88.66 658.36,-79.35"/>
<polygon fill="midnightblue" stroke="midnightblue" points="659.48,-76.03 648.9,-75.47 656.82,-82.5 659.48,-76.03"/>
</g>
<!-- Node6&#45;&gt;Node11 -->
<g id="edge10" class="edge">
<title>Node6&#45;&gt;Node11</title>
<path fill="none" stroke="midnightblue" d="M683.78,-168.46C659.68,-159.92 622.15,-146.08 590.5,-132 553.98,-115.75 513.03,-94.16 487.76,-80.41"/>
<polygon fill="midnightblue" stroke="midnightblue" points="489.33,-77.29 478.88,-75.56 485.97,-83.43 489.33,-77.29"/>
</g>
<!-- Node14 -->
<g id="node14" class="node">
<title>Node14</title>
<g id="a_node14"><a xlink:href="Components_8hpp.html" target="_top" xlink:title=" ">
<polygon fill="white" stroke="black" points="667,-56.5 667,-75.5 804,-75.5 804,-56.5 667,-56.5"/>
<text text-anchor="middle" x="735.5" y="-63.5" font-family="Helvetica,sans-Serif" font-size="10.00">Models/Components.hpp</text>
</a>
</g>
</g>
<!-- Node6&#45;&gt;Node14 -->
<g id="edge13" class="edge">
<title>Node6&#45;&gt;Node14</title>
<path fill="none" stroke="midnightblue" d="M719.21,-168.3C728.44,-160.07 741.09,-146.79 746.5,-132 752.08,-116.73 748.09,-98.4 743.42,-85.1"/>
<polygon fill="midnightblue" stroke="midnightblue" points="746.63,-83.69 739.7,-75.67 740.11,-86.26 746.63,-83.69"/>
</g>
<!-- Node15 -->
<g id="node15" class="node">
<title>Node15</title>
<g id="a_node15"><a xlink:href="IMemory_8hpp.html" target="_top" xlink:title=" ">
<polygon fill="white" stroke="black" points="624.5,-112.5 624.5,-131.5 704.5,-131.5 704.5,-112.5 624.5,-112.5"/>
<text text-anchor="middle" x="664.5" y="-119.5" font-family="Helvetica,sans-Serif" font-size="10.00">IMemory.hpp</text>
</a>
</g>
</g>
<!-- Node6&#45;&gt;Node15 -->
<g id="edge14" class="edge">
<title>Node6&#45;&gt;Node15</title>
<path fill="none" stroke="midnightblue" d="M701.23,-168.08C694.96,-160.38 685.71,-149.03 678.07,-139.65"/>
<polygon fill="midnightblue" stroke="midnightblue" points="680.66,-137.29 671.63,-131.75 675.23,-141.71 680.66,-137.29"/>
</g>
<!-- Node12 -->
<g id="node12" class="node">
<title>Node12</title>
<g id="a_node12"><a xlink:title=" ">
<polygon fill="white" stroke="#bfbfbf" points="268.5,-0.5 268.5,-19.5 330.5,-19.5 330.5,-0.5 268.5,-0.5"/>
<text text-anchor="middle" x="299.5" y="-7.5" font-family="Helvetica,sans-Serif" font-size="10.00">cinttypes</text>
</a>
</g>
</g>
<!-- Node11&#45;&gt;Node12 -->
<g id="edge11" class="edge">
<title>Node11&#45;&gt;Node12</title>
<path fill="none" stroke="midnightblue" d="M437.51,-56.44C409.8,-47.32 365.75,-32.81 334.88,-22.65"/>
<polygon fill="midnightblue" stroke="midnightblue" points="335.96,-19.32 325.36,-19.52 333.77,-25.97 335.96,-19.32"/>
</g>
<!-- Node13 -->
<g id="node13" class="node">
<title>Node13</title>
<g id="a_node13"><a xlink:title=" ">
<polygon fill="white" stroke="#bfbfbf" points="433.5,-0.5 433.5,-19.5 493.5,-19.5 493.5,-0.5 433.5,-0.5"/>
<text text-anchor="middle" x="463.5" y="-7.5" font-family="Helvetica,sans-Serif" font-size="10.00">iostream</text>
</a>
</g>
</g>
<!-- Node11&#45;&gt;Node13 -->
<g id="edge12" class="edge">
<title>Node11&#45;&gt;Node13</title>
<path fill="none" stroke="midnightblue" d="M463.5,-56.08C463.5,-49.01 463.5,-38.86 463.5,-29.99"/>
<polygon fill="midnightblue" stroke="midnightblue" points="467,-29.75 463.5,-19.75 460,-29.75 467,-29.75"/>
</g>
<!-- Node15&#45;&gt;Node7 -->
<g id="edge15" class="edge">
<title>Node15&#45;&gt;Node7</title>
<path fill="none" stroke="midnightblue" d="M693.5,-112.44C725.88,-102.89 778.26,-87.43 812.79,-77.24"/>
<polygon fill="midnightblue" stroke="midnightblue" points="813.86,-80.58 822.46,-74.39 811.88,-73.86 813.86,-80.58"/>
</g>
<!-- Node15&#45;&gt;Node8 -->
<g id="edge16" class="edge">
<title>Node15&#45;&gt;Node8</title>
<path fill="none" stroke="midnightblue" d="M704.66,-113.44C746.29,-105.44 813.47,-92.04 880.82,-76.04"/>
<polygon fill="midnightblue" stroke="midnightblue" points="881.84,-79.4 890.75,-73.67 880.21,-72.59 881.84,-79.4"/>
</g>
<!-- Node15&#45;&gt;Node9 -->
<g id="edge17" class="edge">
<title>Node15&#45;&gt;Node9</title>
<path fill="none" stroke="midnightblue" d="M647.31,-112.32C630.15,-103.66 603.55,-90.24 583.75,-80.25"/>
<polygon fill="midnightblue" stroke="midnightblue" points="585.15,-77.04 574.65,-75.65 582,-83.28 585.15,-77.04"/>
</g>
<!-- Node15&#45;&gt;Node10 -->
<g id="edge18" class="edge">
<title>Node15&#45;&gt;Node10</title>
<path fill="none" stroke="midnightblue" d="M658.23,-112.08C652.86,-104.46 644.98,-93.26 638.42,-83.94"/>
<polygon fill="midnightblue" stroke="midnightblue" points="641.28,-81.91 632.66,-75.75 635.55,-85.94 641.28,-81.91"/>
</g>
<!-- Node15&#45;&gt;Node11 -->
<g id="edge19" class="edge">
<title>Node15&#45;&gt;Node11</title>
<path fill="none" stroke="midnightblue" d="M632.65,-112.44C598.1,-103.16 542.82,-88.31 504.92,-78.13"/>
<polygon fill="midnightblue" stroke="midnightblue" points="505.77,-74.73 495.2,-75.52 503.95,-81.49 505.77,-74.73"/>
</g>
<!-- Node15&#45;&gt;Node14 -->
<g id="edge20" class="edge">
<title>Node15&#45;&gt;Node14</title>
<path fill="none" stroke="midnightblue" d="M675.91,-112.32C686.61,-104.18 702.84,-91.84 715.66,-82.09"/>
<polygon fill="midnightblue" stroke="midnightblue" points="718.04,-84.67 723.89,-75.83 713.81,-79.1 718.04,-84.67"/>
</g>
<!-- Node16&#45;&gt;Node9 -->
<g id="edge22" class="edge">
<title>Node16&#45;&gt;Node9</title>
<path fill="none" stroke="midnightblue" d="M521.14,-280.34C497.35,-261.06 445.88,-212.78 463.5,-168 478.12,-130.84 513.56,-99.25 536.5,-81.73"/>
<polygon fill="midnightblue" stroke="midnightblue" points="538.66,-84.49 544.62,-75.72 534.5,-78.86 538.66,-84.49"/>
</g>
<!-- Node17 -->
<g id="node17" class="node">
<title>Node17</title>
<g id="a_node17"><a xlink:href="ARectangleMemory_8hpp.html" target="_top" xlink:title=" ">
<polygon fill="white" stroke="black" points="472.5,-168.5 472.5,-187.5 604.5,-187.5 604.5,-168.5 472.5,-168.5"/>
<text text-anchor="middle" x="538.5" y="-175.5" font-family="Helvetica,sans-Serif" font-size="10.00">ARectangleMemory.hpp</text>
</a>
</g>
</g>
<!-- Node16&#45;&gt;Node17 -->
<g id="edge23" class="edge">
<title>Node16&#45;&gt;Node17</title>
<path fill="none" stroke="midnightblue" d="M532.97,-280.37C533.94,-262.62 536.17,-221.67 537.49,-197.6"/>
<polygon fill="midnightblue" stroke="midnightblue" points="540.98,-197.77 538.03,-187.59 533.99,-197.39 540.98,-197.77"/>
</g>
<!-- Node16&#45;&gt;Node18 -->
<g id="edge26" class="edge">
<title>Node16&#45;&gt;Node18</title>
<path fill="none" stroke="midnightblue" d="M546.96,-280.32C561,-271.9 582.55,-258.97 599.04,-249.07"/>
<polygon fill="midnightblue" stroke="midnightblue" points="601.3,-251.8 608.08,-243.65 597.7,-245.8 601.3,-251.8"/>
</g>
<!-- Node17&#45;&gt;Node11 -->
<g id="edge25" class="edge">
<title>Node17&#45;&gt;Node11</title>
<path fill="none" stroke="midnightblue" d="M532.28,-168.43C525.77,-159.42 515.29,-144.81 506.5,-132 495.54,-116.02 483.38,-97.57 474.8,-84.42"/>
<polygon fill="midnightblue" stroke="midnightblue" points="477.64,-82.37 469.25,-75.89 471.77,-86.19 477.64,-82.37"/>
</g>
<!-- Node17&#45;&gt;Node15 -->
<g id="edge24" class="edge">
<title>Node17&#45;&gt;Node15</title>
<path fill="none" stroke="midnightblue" d="M558.47,-168.44C579.11,-159.6 611.56,-145.69 635.13,-135.59"/>
<polygon fill="midnightblue" stroke="midnightblue" points="636.82,-138.67 644.63,-131.52 634.06,-132.24 636.82,-138.67"/>
</g>
<!-- Node18&#45;&gt;Node6 -->
<g id="edge28" class="edge">
<title>Node18&#45;&gt;Node6</title>
<path fill="none" stroke="midnightblue" d="M636.32,-224.32C649.73,-215.9 670.32,-202.97 686.09,-193.07"/>
<polygon fill="midnightblue" stroke="midnightblue" points="688.11,-195.94 694.72,-187.65 684.39,-190.01 688.11,-195.94"/>
</g>
<!-- Node18&#45;&gt;Node9 -->
<g id="edge27" class="edge">
<title>Node18&#45;&gt;Node9</title>
<path fill="none" stroke="midnightblue" d="M622.47,-224.3C622.16,-211.56 620.59,-187.24 613.5,-168 606.94,-150.18 599.92,-148.48 590.5,-132 581.58,-116.39 572.4,-98.1 566,-84.9"/>
<polygon fill="midnightblue" stroke="midnightblue" points="568.99,-83.06 561.51,-75.56 562.68,-86.08 568.99,-83.06"/>
</g>
<!-- Node19&#45;&gt;Node12 -->
<g id="edge31" class="edge">
<title>Node19&#45;&gt;Node12</title>
<path fill="none" stroke="midnightblue" d="M318.06,-168.24C309.08,-159.97 296.75,-146.66 291.5,-132 279.06,-97.28 287.39,-53.42 293.89,-29.19"/>
<polygon fill="midnightblue" stroke="midnightblue" points="297.27,-30.11 296.67,-19.54 290.54,-28.18 297.27,-30.11"/>
</g>
<!-- Node19&#45;&gt;Node15 -->
<g id="edge33" class="edge">
<title>Node19&#45;&gt;Node15</title>
<path fill="none" stroke="midnightblue" d="M378.08,-169.03C441.45,-158.85 550.57,-141.31 614.26,-131.07"/>
<polygon fill="midnightblue" stroke="midnightblue" points="615.15,-134.48 624.46,-129.43 614.03,-127.57 615.15,-134.48"/>
</g>
<!-- Node20 -->
<g id="node20" class="node">
<title>Node20</title>
<g id="a_node20"><a xlink:title=" ">
<polygon fill="white" stroke="#bfbfbf" points="300.5,-112.5 300.5,-131.5 356.5,-131.5 356.5,-112.5 300.5,-112.5"/>
<text text-anchor="middle" x="328.5" y="-119.5" font-family="Helvetica,sans-Serif" font-size="10.00">optional</text>
</a>
</g>
</g>
<!-- Node19&#45;&gt;Node20 -->
<g id="edge32" class="edge">
<title>Node19&#45;&gt;Node20</title>
<path fill="none" stroke="midnightblue" d="M328.5,-168.08C328.5,-161.01 328.5,-150.86 328.5,-141.99"/>
<polygon fill="midnightblue" stroke="midnightblue" points="332,-141.75 328.5,-131.75 325,-141.75 332,-141.75"/>
</g>
</g>
</svg>
