<?xml version="1.0" encoding="UTF-8" standalone="no"?>
<!DOCTYPE svg PUBLIC "-//W3C//DTD SVG 1.1//EN"
 "http://www.w3.org/Graphics/SVG/1.1/DTD/svg11.dtd">
<!-- Generated by graphviz version 2.43.0 (0)
 -->
<!-- Title: sources/Renderer/SFRenderer.hpp Pages: 1 -->
<svg width="664pt" height="296pt"
 viewBox="0.00 0.00 663.77 296.00" xmlns="http://www.w3.org/2000/svg" xmlns:xlink="http://www.w3.org/1999/xlink">
<g id="graph0" class="graph" transform="scale(1 1) rotate(0) translate(4 292)">
<title>sources/Renderer/SFRenderer.hpp</title>
<polygon fill="white" stroke="transparent" points="-4,4 -4,-292 659.77,-292 659.77,4 -4,4"/>
<!-- Node1 -->
<g id="node1" class="node">
<title>Node1</title>
<g id="a_node1"><a xlink:title=" ">
<polygon fill="#bfbfbf" stroke="black" points="287.27,-268.5 287.27,-287.5 468.27,-287.5 468.27,-268.5 287.27,-268.5"/>
<text text-anchor="middle" x="377.77" y="-275.5" font-family="Helvetica,sans-Serif" font-size="10.00">sources/Renderer/SFRenderer.hpp</text>
</a>
</g>
</g>
<!-- Node2 -->
<g id="node2" class="node">
<title>Node2</title>
<g id="a_node2"><a xlink:href="QtSFML_8hpp.html" target="_top" xlink:title=" ">
<polygon fill="white" stroke="black" points="137.77,-134.5 137.77,-164.5 297.77,-164.5 297.77,-134.5 137.77,-134.5"/>
<text text-anchor="start" x="145.77" y="-152.5" font-family="Helvetica,sans-Serif" font-size="10.00">sources/Renderer/QtRenderer</text>
<text text-anchor="middle" x="217.77" y="-141.5" font-family="Helvetica,sans-Serif" font-size="10.00">/QtSFML.hpp</text>
</a>
</g>
</g>
<!-- Node1&#45;&gt;Node2 -->
<g id="edge1" class="edge">
<title>Node1&#45;&gt;Node2</title>
<path fill="none" stroke="midnightblue" d="M345.78,-264.44C328.01,-256.6 306.06,-245.46 288.77,-232 263.29,-212.18 240,-182.2 227.46,-164.66"/>
<polygon fill="midnightblue" stroke="midnightblue" points="344.6,-267.74 355.17,-268.45 347.35,-261.3 344.6,-267.74"/>
</g>
<!-- Node6 -->
<g id="node6" class="node">
<title>Node6</title>
<g id="a_node6"><a xlink:href="QtWidgetSFML_8hpp.html" target="_top" xlink:title=" ">
<polygon fill="white" stroke="black" points="297.77,-201.5 297.77,-231.5 457.77,-231.5 457.77,-201.5 297.77,-201.5"/>
<text text-anchor="start" x="305.77" y="-219.5" font-family="Helvetica,sans-Serif" font-size="10.00">sources/Renderer/QtRenderer</text>
<text text-anchor="middle" x="377.77" y="-208.5" font-family="Helvetica,sans-Serif" font-size="10.00">/QtWidgetSFML.hpp</text>
</a>
</g>
</g>
<!-- Node1&#45;&gt;Node6 -->
<g id="edge5" class="edge">
<title>Node1&#45;&gt;Node6</title>
<path fill="none" stroke="midnightblue" d="M377.77,-258.23C377.77,-249.59 377.77,-239.5 377.77,-231.52"/>
<polygon fill="midnightblue" stroke="midnightblue" points="374.27,-258.48 377.77,-268.48 381.27,-258.48 374.27,-258.48"/>
</g>
<!-- Node11 -->
<g id="node11" class="node">
<title>Node11</title>
<g id="a_node11"><a xlink:href="SFRenderer_8cpp.html" target="_top" xlink:title=" ">
<polygon fill="white" stroke="black" points="475.77,-207 475.77,-226 655.77,-226 655.77,-207 475.77,-207"/>
<text text-anchor="middle" x="565.77" y="-214" font-family="Helvetica,sans-Serif" font-size="10.00">sources/Renderer/SFRenderer.cpp</text>
</a>
</g>
</g>
<!-- Node1&#45;&gt;Node11 -->
<g id="edge12" class="edge">
<title>Node1&#45;&gt;Node11</title>
<path fill="none" stroke="midnightblue" d="M414.48,-265.38C451.02,-253.82 506.24,-236.34 538.88,-226.01"/>
<polygon fill="midnightblue" stroke="midnightblue" points="413.18,-262.12 404.7,-268.48 415.29,-268.79 413.18,-262.12"/>
</g>
<!-- Node3 -->
<g id="node3" class="node">
<title>Node3</title>
<g id="a_node3"><a xlink:href="TileViewer_8cpp.html" target="_top" xlink:title=" ">
<polygon fill="white" stroke="black" points="113.27,-0.5 113.27,-30.5 272.27,-30.5 272.27,-0.5 113.27,-0.5"/>
<text text-anchor="start" x="121.27" y="-18.5" font-family="Helvetica,sans-Serif" font-size="10.00">sources/Debugger/TileViewer</text>
<text text-anchor="middle" x="192.77" y="-7.5" font-family="Helvetica,sans-Serif" font-size="10.00">/TileViewer.cpp</text>
</a>
</g>
</g>
<!-- Node2&#45;&gt;Node3 -->
<g id="edge2" class="edge">
<title>Node2&#45;&gt;Node3</title>
<path fill="none" stroke="midnightblue" d="M127.47,-137.83C78.05,-129.94 23.86,-117.17 8.77,-98 -24.62,-55.59 49.31,-34.68 113.18,-24.77"/>
<polygon fill="midnightblue" stroke="midnightblue" points="127.18,-141.33 137.6,-139.4 128.25,-134.41 127.18,-141.33"/>
</g>
<!-- Node4 -->
<g id="node4" class="node">
<title>Node4</title>
<g id="a_node4"><a xlink:href="main_8cpp.html" target="_top" xlink:title=" ">
<polygon fill="white" stroke="black" points="17.77,-73 17.77,-92 119.77,-92 119.77,-73 17.77,-73"/>
<text text-anchor="middle" x="68.77" y="-80" font-family="Helvetica,sans-Serif" font-size="10.00">sources/main.cpp</text>
</a>
</g>
</g>
<!-- Node2&#45;&gt;Node4 -->
<g id="edge3" class="edge">
<title>Node2&#45;&gt;Node4</title>
<path fill="none" stroke="midnightblue" d="M176.04,-130.3C147.3,-117.76 110.45,-101.68 88.27,-92.01"/>
<polygon fill="midnightblue" stroke="midnightblue" points="174.87,-133.61 185.44,-134.4 177.67,-127.19 174.87,-133.61"/>
</g>
<!-- Node5 -->
<g id="node5" class="node">
<title>Node5</title>
<g id="a_node5"><a xlink:href="QtSFML_8cpp.html" target="_top" xlink:title=" ">
<polygon fill="white" stroke="black" points="137.77,-67.5 137.77,-97.5 297.77,-97.5 297.77,-67.5 137.77,-67.5"/>
<text text-anchor="start" x="145.77" y="-85.5" font-family="Helvetica,sans-Serif" font-size="10.00">sources/Renderer/QtRenderer</text>
<text text-anchor="middle" x="217.77" y="-74.5" font-family="Helvetica,sans-Serif" font-size="10.00">/QtSFML.cpp</text>
</a>
</g>
</g>
<!-- Node2&#45;&gt;Node5 -->
<g id="edge4" class="edge">
<title>Node2&#45;&gt;Node5</title>
<path fill="none" stroke="midnightblue" d="M217.77,-124.11C217.77,-115.15 217.77,-105.32 217.77,-97.58"/>
<polygon fill="midnightblue" stroke="midnightblue" points="214.27,-124.4 217.77,-134.4 221.27,-124.4 214.27,-124.4"/>
</g>
<!-- Node6&#45;&gt;Node2 -->
<g id="edge6" class="edge">
<title>Node6&#45;&gt;Node2</title>
<path fill="none" stroke="midnightblue" d="M333.57,-197.54C307.97,-187.14 276.2,-174.24 252.42,-164.58"/>
<polygon fill="midnightblue" stroke="midnightblue" points="332.47,-200.87 343.05,-201.4 335.1,-194.39 332.47,-200.87"/>
</g>
<!-- Node7 -->
<g id="node7" class="node">
<title>Node7</title>
<g id="a_node7"><a xlink:href="QtSfmlTileRenderer_8hpp.html" target="_top" xlink:title=" ">
<polygon fill="white" stroke="black" points="315.77,-134.5 315.77,-164.5 475.77,-164.5 475.77,-134.5 315.77,-134.5"/>
<text text-anchor="start" x="323.77" y="-152.5" font-family="Helvetica,sans-Serif" font-size="10.00">sources/Renderer/QtRenderer</text>
<text text-anchor="middle" x="395.77" y="-141.5" font-family="Helvetica,sans-Serif" font-size="10.00">/QtSfmlTileRenderer.hpp</text>
</a>
</g>
</g>
<!-- Node6&#45;&gt;Node7 -->
<g id="edge7" class="edge">
<title>Node6&#45;&gt;Node7</title>
<path fill="none" stroke="midnightblue" d="M384.36,-191.7C386.88,-182.59 389.68,-172.49 391.87,-164.58"/>
<polygon fill="midnightblue" stroke="midnightblue" points="380.97,-190.82 381.67,-201.4 387.72,-192.69 380.97,-190.82"/>
</g>
<!-- Node10 -->
<g id="node10" class="node">
<title>Node10</title>
<g id="a_node10"><a xlink:href="QtWidgetSFML_8cpp.html" target="_top" xlink:title=" ">
<polygon fill="white" stroke="black" points="493.77,-134.5 493.77,-164.5 653.77,-164.5 653.77,-134.5 493.77,-134.5"/>
<text text-anchor="start" x="501.77" y="-152.5" font-family="Helvetica,sans-Serif" font-size="10.00">sources/Renderer/QtRenderer</text>
<text text-anchor="middle" x="573.77" y="-141.5" font-family="Helvetica,sans-Serif" font-size="10.00">/QtWidgetSFML.cpp</text>
</a>
</g>
</g>
<!-- Node6&#45;&gt;Node10 -->
<g id="edge11" class="edge">
<title>Node6&#45;&gt;Node10</title>
<path fill="none" stroke="midnightblue" d="M429.85,-198.23C461.56,-187.71 501.55,-174.45 531.32,-164.58"/>
<polygon fill="midnightblue" stroke="midnightblue" points="428.69,-194.93 420.3,-201.4 430.89,-201.57 428.69,-194.93"/>
</g>
<!-- Node8 -->
<g id="node8" class="node">
<title>Node8</title>
<g id="a_node8"><a xlink:href="TileViewer_8hpp.html" target="_top" xlink:title=" ">
<polygon fill="white" stroke="black" points="316.27,-67.5 316.27,-97.5 475.27,-97.5 475.27,-67.5 316.27,-67.5"/>
<text text-anchor="start" x="324.27" y="-85.5" font-family="Helvetica,sans-Serif" font-size="10.00">sources/Debugger/TileViewer</text>
<text text-anchor="middle" x="395.77" y="-74.5" font-family="Helvetica,sans-Serif" font-size="10.00">/TileViewer.hpp</text>
</a>
</g>
</g>
<!-- Node7&#45;&gt;Node8 -->
<g id="edge8" class="edge">
<title>Node7&#45;&gt;Node8</title>
<path fill="none" stroke="midnightblue" d="M395.77,-124.11C395.77,-115.15 395.77,-105.32 395.77,-97.58"/>
<polygon fill="midnightblue" stroke="midnightblue" points="392.27,-124.4 395.77,-134.4 399.27,-124.4 392.27,-124.4"/>
</g>
<!-- Node9 -->
<g id="node9" class="node">
<title>Node9</title>
<g id="a_node9"><a xlink:href="QtSfmlTileRenderer_8cpp.html" target="_top" xlink:title=" ">
<polygon fill="white" stroke="black" points="493.77,-67.5 493.77,-97.5 653.77,-97.5 653.77,-67.5 493.77,-67.5"/>
<text text-anchor="start" x="501.77" y="-85.5" font-family="Helvetica,sans-Serif" font-size="10.00">sources/Renderer/QtRenderer</text>
<text text-anchor="middle" x="573.77" y="-74.5" font-family="Helvetica,sans-Serif" font-size="10.00">/QtSfmlTileRenderer.cpp</text>
</a>
</g>
</g>
<!-- Node7&#45;&gt;Node9 -->
<g id="edge10" class="edge">
<title>Node7&#45;&gt;Node9</title>
<path fill="none" stroke="midnightblue" d="M443.81,-130.96C472.49,-120.48 508.41,-107.37 535.22,-97.58"/>
<polygon fill="midnightblue" stroke="midnightblue" points="442.58,-127.68 434.39,-134.4 444.99,-134.25 442.58,-127.68"/>
</g>
<!-- Node8&#45;&gt;Node3 -->
<g id="edge9" class="edge">
<title>Node8&#45;&gt;Node3</title>
<path fill="none" stroke="midnightblue" d="M341.83,-64.23C308.99,-53.71 267.57,-40.45 236.73,-30.58"/>
<polygon fill="midnightblue" stroke="midnightblue" points="341.13,-67.68 351.72,-67.4 343.26,-61.01 341.13,-67.68"/>
</g>
</g>
</svg>
