<?xml version="1.0" encoding="UTF-8" standalone="no"?>
<!DOCTYPE svg PUBLIC "-//W3C//DTD SVG 1.1//EN"
 "http://www.w3.org/Graphics/SVG/1.1/DTD/svg11.dtd">
<!-- Generated by graphviz version 2.43.0 (0)
 -->
<!-- Title: sources/SNES.hpp Pages: 1 -->
<svg width="4691pt" height="162pt"
 viewBox="0.00 0.00 4690.50 162.00" xmlns="http://www.w3.org/2000/svg" xmlns:xlink="http://www.w3.org/1999/xlink">
<g id="graph0" class="graph" transform="scale(1 1) rotate(0) translate(4 158)">
<title>sources/SNES.hpp</title>
<polygon fill="white" stroke="transparent" points="-4,4 -4,-158 4686.5,-158 4686.5,4 -4,4"/>
<!-- Node1 -->
<g id="node1" class="node">
<title>Node1</title>
<g id="a_node1"><a xlink:title=" ">
<polygon fill="#bfbfbf" stroke="black" points="2473.5,-134.5 2473.5,-153.5 2577.5,-153.5 2577.5,-134.5 2473.5,-134.5"/>
<text text-anchor="middle" x="2525.5" y="-141.5" font-family="Helvetica,sans-Serif" font-size="10.00">sources/SNES.hpp</text>
</a>
</g>
</g>
<!-- Node2 -->
<g id="node2" class="node">
<title>Node2</title>
<g id="a_node2"><a xlink:href="APUDebug_8cpp.html" target="_top" xlink:title=" ">
<polygon fill="white" stroke="black" points="0,-73 0,-92 179,-92 179,-73 0,-73"/>
<text text-anchor="middle" x="89.5" y="-80" font-family="Helvetica,sans-Serif" font-size="10.00">sources/Debugger/APUDebug.cpp</text>
</a>
</g>
</g>
<!-- Node1&#45;&gt;Node2 -->
<g id="edge1" class="edge">
<title>Node1&#45;&gt;Node2</title>
<path fill="none" stroke="midnightblue" d="M2463.32,-142.88C2140,-142.08 648.27,-136.36 187.5,-98 171.56,-96.67 154.27,-94.4 138.71,-92.04"/>
<polygon fill="midnightblue" stroke="midnightblue" points="2463.42,-146.38 2473.43,-142.9 2463.44,-139.38 2463.42,-146.38"/>
</g>
<!-- Node3 -->
<g id="node3" class="node">
<title>Node3</title>
<g id="a_node3"><a xlink:href="CGramDebug_8cpp.html" target="_top" xlink:title=" ">
<polygon fill="white" stroke="black" points="197,-73 197,-92 390,-92 390,-73 197,-73"/>
<text text-anchor="middle" x="293.5" y="-80" font-family="Helvetica,sans-Serif" font-size="10.00">sources/Debugger/CGramDebug.cpp</text>
</a>
</g>
</g>
<!-- Node1&#45;&gt;Node3 -->
<g id="edge2" class="edge">
<title>Node1&#45;&gt;Node3</title>
<path fill="none" stroke="midnightblue" d="M2463.13,-142.65C2157.5,-140.77 815.95,-130.78 399.5,-98 382.28,-96.64 363.58,-94.36 346.75,-92"/>
<polygon fill="midnightblue" stroke="midnightblue" points="2463.12,-146.15 2473.14,-142.71 2463.16,-139.15 2463.12,-146.15"/>
</g>
<!-- Node4 -->
<g id="node4" class="node">
<title>Node4</title>
<g id="a_node4"><a xlink:href="CPUDebug_8cpp.html" target="_top" xlink:title=" ">
<polygon fill="white" stroke="black" points="408.5,-67.5 408.5,-97.5 536.5,-97.5 536.5,-67.5 408.5,-67.5"/>
<text text-anchor="start" x="416.5" y="-85.5" font-family="Helvetica,sans-Serif" font-size="10.00">sources/Debugger/CPU</text>
<text text-anchor="middle" x="472.5" y="-74.5" font-family="Helvetica,sans-Serif" font-size="10.00">/CPUDebug.cpp</text>
</a>
</g>
</g>
<!-- Node1&#45;&gt;Node4 -->
<g id="edge3" class="edge">
<title>Node1&#45;&gt;Node4</title>
<path fill="none" stroke="midnightblue" d="M2463.14,-143.04C2170.38,-142.99 930.36,-140.27 545.5,-98 542.67,-97.69 539.8,-97.33 536.89,-96.92"/>
<polygon fill="midnightblue" stroke="midnightblue" points="2463.16,-146.54 2473.16,-143.04 2463.16,-139.54 2463.16,-146.54"/>
</g>
<!-- Node5 -->
<g id="node5" class="node">
<title>Node5</title>
<g id="a_node5"><a xlink:href="Disassembly_8cpp.html" target="_top" xlink:title=" ">
<polygon fill="white" stroke="black" points="554.5,-67.5 554.5,-97.5 682.5,-97.5 682.5,-67.5 554.5,-67.5"/>
<text text-anchor="start" x="562.5" y="-85.5" font-family="Helvetica,sans-Serif" font-size="10.00">sources/Debugger/CPU</text>
<text text-anchor="middle" x="618.5" y="-74.5" font-family="Helvetica,sans-Serif" font-size="10.00">/Disassembly.cpp</text>
</a>
</g>
</g>
<!-- Node1&#45;&gt;Node5 -->
<g id="edge4" class="edge">
<title>Node1&#45;&gt;Node5</title>
<path fill="none" stroke="midnightblue" d="M2462.83,-142.91C2182.99,-142.26 1045.85,-137.25 691.5,-98 688.67,-97.69 685.8,-97.32 682.89,-96.91"/>
<polygon fill="midnightblue" stroke="midnightblue" points="2463.19,-146.41 2473.2,-142.93 2463.21,-139.41 2463.19,-146.41"/>
</g>
<!-- Node6 -->
<g id="node6" class="node">
<title>Node6</title>
<g id="a_node6"><a xlink:href="HeaderViewer_8cpp.html" target="_top" xlink:title=" ">
<polygon fill="white" stroke="black" points="700.5,-73 700.5,-92 896.5,-92 896.5,-73 700.5,-73"/>
<text text-anchor="middle" x="798.5" y="-80" font-family="Helvetica,sans-Serif" font-size="10.00">sources/Debugger/HeaderViewer.cpp</text>
</a>
</g>
</g>
<!-- Node1&#45;&gt;Node6 -->
<g id="edge5" class="edge">
<title>Node1&#45;&gt;Node6</title>
<path fill="none" stroke="midnightblue" d="M2463.14,-142.16C2204.67,-138.54 1216.5,-123.32 905.5,-98 888.31,-96.6 869.66,-94.33 852.81,-92"/>
<polygon fill="midnightblue" stroke="midnightblue" points="2463.42,-145.66 2473.46,-142.3 2463.51,-138.67 2463.42,-145.66"/>
</g>
<!-- Node7 -->
<g id="node7" class="node">
<title>Node7</title>
<g id="a_node7"><a xlink:href="MemoryBusDebug_8cpp.html" target="_top" xlink:title=" ">
<polygon fill="white" stroke="black" points="914.5,-67.5 914.5,-97.5 1080.5,-97.5 1080.5,-67.5 914.5,-67.5"/>
<text text-anchor="start" x="922.5" y="-85.5" font-family="Helvetica,sans-Serif" font-size="10.00">sources/Debugger/MemoryBus</text>
<text text-anchor="middle" x="997.5" y="-74.5" font-family="Helvetica,sans-Serif" font-size="10.00">Debug.cpp</text>
</a>
</g>
</g>
<!-- Node1&#45;&gt;Node7 -->
<g id="edge6" class="edge">
<title>Node1&#45;&gt;Node7</title>
<path fill="none" stroke="midnightblue" d="M2463.23,-142.09C2223.79,-138.41 1362.18,-123.66 1089.5,-98 1086.6,-97.73 1083.66,-97.42 1080.69,-97.09"/>
<polygon fill="midnightblue" stroke="midnightblue" points="2463.44,-145.59 2473.49,-142.24 2463.55,-138.59 2463.44,-145.59"/>
</g>
<!-- Node8 -->
<g id="node8" class="node">
<title>Node8</title>
<g id="a_node8"><a xlink:href="MemoryViewer_8cpp.html" target="_top" xlink:title=" ">
<polygon fill="white" stroke="black" points="1099,-73 1099,-92 1300,-92 1300,-73 1099,-73"/>
<text text-anchor="middle" x="1199.5" y="-80" font-family="Helvetica,sans-Serif" font-size="10.00">sources/Debugger/MemoryViewer.cpp</text>
</a>
</g>
</g>
<!-- Node1&#45;&gt;Node8 -->
<g id="edge7" class="edge">
<title>Node1&#45;&gt;Node8</title>
<path fill="none" stroke="midnightblue" d="M2463.2,-142.76C2283.75,-141.63 1750.38,-135.13 1309.5,-98 1292.13,-96.54 1273.29,-94.3 1256.2,-92.01"/>
<polygon fill="midnightblue" stroke="midnightblue" points="2463.23,-146.26 2473.25,-142.82 2463.27,-139.26 2463.23,-146.26"/>
</g>
<!-- Node9 -->
<g id="node9" class="node">
<title>Node9</title>
<g id="a_node9"><a xlink:href="RegisterViewer_8cpp.html" target="_top" xlink:title=" ">
<polygon fill="white" stroke="black" points="1318.5,-67.5 1318.5,-97.5 1466.5,-97.5 1466.5,-67.5 1318.5,-67.5"/>
<text text-anchor="start" x="1326.5" y="-85.5" font-family="Helvetica,sans-Serif" font-size="10.00">sources/Debugger/Register</text>
<text text-anchor="middle" x="1392.5" y="-74.5" font-family="Helvetica,sans-Serif" font-size="10.00">Viewer.cpp</text>
</a>
</g>
</g>
<!-- Node1&#45;&gt;Node9 -->
<g id="edge8" class="edge">
<title>Node1&#45;&gt;Node9</title>
<path fill="none" stroke="midnightblue" d="M2463.11,-143.15C2300.19,-142.94 1848.7,-138.42 1475.5,-98 1472.59,-97.68 1469.63,-97.33 1466.64,-96.95"/>
<polygon fill="midnightblue" stroke="midnightblue" points="2463.42,-146.65 2473.42,-143.16 2463.43,-139.65 2463.42,-146.65"/>
</g>
<!-- Node10 -->
<g id="node10" class="node">
<title>Node10</title>
<g id="a_node10"><a xlink:href="TileViewer_8cpp.html" target="_top" xlink:title=" ">
<polygon fill="white" stroke="black" points="1485,-67.5 1485,-97.5 1644,-97.5 1644,-67.5 1485,-67.5"/>
<text text-anchor="start" x="1493" y="-85.5" font-family="Helvetica,sans-Serif" font-size="10.00">sources/Debugger/TileViewer</text>
<text text-anchor="middle" x="1564.5" y="-74.5" font-family="Helvetica,sans-Serif" font-size="10.00">/TileViewer.cpp</text>
</a>
</g>
</g>
<!-- Node1&#45;&gt;Node10 -->
<g id="edge9" class="edge">
<title>Node1&#45;&gt;Node10</title>
<path fill="none" stroke="midnightblue" d="M2462.82,-142.17C2319.12,-139.74 1955.01,-130.62 1652.5,-98 1649.73,-97.7 1646.91,-97.37 1644.07,-97.02"/>
<polygon fill="midnightblue" stroke="midnightblue" points="2463.13,-145.68 2473.19,-142.34 2463.25,-138.68 2463.13,-145.68"/>
</g>
<!-- Node11 -->
<g id="node11" class="node">
<title>Node11</title>
<g id="a_node11"><a xlink:href="main_8cpp.html" target="_top" xlink:title=" ">
<polygon fill="white" stroke="black" points="1661.5,-73 1661.5,-92 1763.5,-92 1763.5,-73 1661.5,-73"/>
<text text-anchor="middle" x="1712.5" y="-80" font-family="Helvetica,sans-Serif" font-size="10.00">sources/main.cpp</text>
</a>
</g>
</g>
<!-- Node1&#45;&gt;Node11 -->
<g id="edge10" class="edge">
<title>Node1&#45;&gt;Node11</title>
<path fill="none" stroke="midnightblue" d="M2463.01,-143C2333.48,-142.18 2026.61,-135.99 1772.5,-98 1762.86,-96.56 1752.49,-94.31 1743.13,-92.01"/>
<polygon fill="midnightblue" stroke="midnightblue" points="2463.11,-146.5 2473.13,-143.06 2463.15,-139.5 2463.11,-146.5"/>
</g>
<!-- Node12 -->
<g id="node12" class="node">
<title>Node12</title>
<g id="a_node12"><a xlink:href="MemoryBus_8cpp.html" target="_top" xlink:title=" ">
<polygon fill="white" stroke="black" points="1782,-73 1782,-92 1961,-92 1961,-73 1782,-73"/>
<text text-anchor="middle" x="1871.5" y="-80" font-family="Helvetica,sans-Serif" font-size="10.00">sources/Memory/MemoryBus.cpp</text>
</a>
</g>
</g>
<!-- Node1&#45;&gt;Node12 -->
<g id="edge11" class="edge">
<title>Node1&#45;&gt;Node12</title>
<path fill="none" stroke="midnightblue" d="M2463.16,-139.26C2360.33,-132.8 2148.8,-118.26 1970.5,-98 1955.83,-96.33 1939.99,-94.17 1925.37,-92.03"/>
<polygon fill="midnightblue" stroke="midnightblue" points="2463.16,-142.77 2473.36,-139.9 2463.6,-135.78 2463.16,-142.77"/>
</g>
<!-- Node13 -->
<g id="node13" class="node">
<title>Node13</title>
<g id="a_node13"><a xlink:href="QtSFML_8cpp.html" target="_top" xlink:title=" ">
<polygon fill="white" stroke="black" points="1979.5,-67.5 1979.5,-97.5 2139.5,-97.5 2139.5,-67.5 1979.5,-67.5"/>
<text text-anchor="start" x="1987.5" y="-85.5" font-family="Helvetica,sans-Serif" font-size="10.00">sources/Renderer/QtRenderer</text>
<text text-anchor="middle" x="2059.5" y="-74.5" font-family="Helvetica,sans-Serif" font-size="10.00">/QtSFML.cpp</text>
</a>
</g>
</g>
<!-- Node1&#45;&gt;Node13 -->
<g id="edge12" class="edge">
<title>Node1&#45;&gt;Node13</title>
<path fill="none" stroke="midnightblue" d="M2463.07,-136.37C2388.21,-128.24 2258.99,-113.59 2148.5,-98 2145.55,-97.58 2142.56,-97.15 2139.53,-96.7"/>
<polygon fill="midnightblue" stroke="midnightblue" points="2462.95,-139.88 2473.27,-137.48 2463.7,-132.92 2462.95,-139.88"/>
</g>
<!-- Node14 -->
<g id="node14" class="node">
<title>Node14</title>
<g id="a_node14"><a xlink:href="SFRenderer_8cpp.html" target="_top" xlink:title=" ">
<polygon fill="white" stroke="black" points="2157.5,-73 2157.5,-92 2337.5,-92 2337.5,-73 2157.5,-73"/>
<text text-anchor="middle" x="2247.5" y="-80" font-family="Helvetica,sans-Serif" font-size="10.00">sources/Renderer/SFRenderer.cpp</text>
</a>
</g>
</g>
<!-- Node1&#45;&gt;Node14 -->
<g id="edge13" class="edge">
<title>Node1&#45;&gt;Node14</title>
<path fill="none" stroke="midnightblue" d="M2475.65,-132.33C2421.74,-120.79 2336.87,-102.63 2287.26,-92.01"/>
<polygon fill="midnightblue" stroke="midnightblue" points="2475.16,-135.8 2485.67,-134.48 2476.62,-128.96 2475.16,-135.8"/>
</g>
<!-- Node15 -->
<g id="node15" class="node">
<title>Node15</title>
<g id="a_node15"><a xlink:href="SNES_8cpp.html" target="_top" xlink:title=" ">
<polygon fill="white" stroke="black" points="2356,-73 2356,-92 2459,-92 2459,-73 2356,-73"/>
<text text-anchor="middle" x="2407.5" y="-80" font-family="Helvetica,sans-Serif" font-size="10.00">sources/SNES.cpp</text>
</a>
</g>
</g>
<!-- Node1&#45;&gt;Node15 -->
<g id="edge14" class="edge">
<title>Node1&#45;&gt;Node15</title>
<path fill="none" stroke="midnightblue" d="M2499.45,-129.87C2476.58,-118.33 2443.99,-101.9 2424.38,-92.01"/>
<polygon fill="midnightblue" stroke="midnightblue" points="2498.09,-133.1 2508.59,-134.48 2501.24,-126.85 2498.09,-133.1"/>
</g>
<!-- Node16 -->
<g id="node16" class="node">
<title>Node16</title>
<g id="a_node16"><a xlink:href="testAPU_8cpp.html" target="_top" xlink:title=" ">
<polygon fill="white" stroke="black" points="1378.5,-6 1378.5,-25 1504.5,-25 1504.5,-6 1378.5,-6"/>
<text text-anchor="middle" x="1441.5" y="-13" font-family="Helvetica,sans-Serif" font-size="10.00">tests/APU/testAPU.cpp</text>
</a>
</g>
</g>
<!-- Node1&#45;&gt;Node16 -->
<g id="edge15" class="edge">
<title>Node1&#45;&gt;Node16</title>
<path fill="none" stroke="midnightblue" d="M2517.6,-125.1C2508.45,-106.84 2491.51,-79.45 2467.5,-67 2373.33,-18.17 1618.84,-43.51 1513.5,-31 1501.85,-29.62 1489.28,-27.35 1477.94,-25.02"/>
<polygon fill="midnightblue" stroke="midnightblue" points="2514.54,-126.84 2521.97,-134.39 2520.88,-123.86 2514.54,-126.84"/>
</g>
<!-- Node17 -->
<g id="node17" class="node">
<title>Node17</title>
<g id="a_node17"><a xlink:href="tests_8hpp.html" target="_top" xlink:title=" ">
<polygon fill="white" stroke="black" points="2892,-73 2892,-92 2981,-92 2981,-73 2892,-73"/>
<text text-anchor="middle" x="2936.5" y="-80" font-family="Helvetica,sans-Serif" font-size="10.00">tests/tests.hpp</text>
</a>
</g>
</g>
<!-- Node1&#45;&gt;Node17 -->
<g id="edge16" class="edge">
<title>Node1&#45;&gt;Node17</title>
<path fill="none" stroke="midnightblue" d="M2587.68,-134C2671.36,-121.88 2818.18,-100.63 2891.78,-89.97"/>
<polygon fill="midnightblue" stroke="midnightblue" points="2586.95,-130.57 2577.55,-135.46 2587.95,-137.5 2586.95,-130.57"/>
</g>
<!-- Node18 -->
<g id="node18" class="node">
<title>Node18</title>
<g id="a_node18"><a xlink:href="testAPUInstructions_8cpp.html" target="_top" xlink:title=" ">
<polygon fill="white" stroke="black" points="1523,-6 1523,-25 1706,-25 1706,-6 1523,-6"/>
<text text-anchor="middle" x="1614.5" y="-13" font-family="Helvetica,sans-Serif" font-size="10.00">tests/APU/testAPUInstructions.cpp</text>
</a>
</g>
</g>
<!-- Node1&#45;&gt;Node18 -->
<g id="edge37" class="edge">
<title>Node1&#45;&gt;Node18</title>
<path fill="none" stroke="midnightblue" d="M2525.27,-124.06C2523.93,-106.23 2518.86,-80.34 2501.5,-67 2432.1,-13.65 1801.64,-39.29 1714.5,-31 1698.87,-29.51 1681.95,-27.29 1666.54,-25.04"/>
<polygon fill="midnightblue" stroke="midnightblue" points="2521.78,-124.32 2525.7,-134.16 2528.77,-124.02 2521.78,-124.32"/>
</g>
<!-- Node19 -->
<g id="node19" class="node">
<title>Node19</title>
<g id="a_node19"><a xlink:href="testOperand_8cpp.html" target="_top" xlink:title=" ">
<polygon fill="white" stroke="black" points="1724,-6 1724,-25 1871,-25 1871,-6 1724,-6"/>
<text text-anchor="middle" x="1797.5" y="-13" font-family="Helvetica,sans-Serif" font-size="10.00">tests/APU/testOperand.cpp</text>
</a>
</g>
</g>
<!-- Node1&#45;&gt;Node19 -->
<g id="edge38" class="edge">
<title>Node1&#45;&gt;Node19</title>
<path fill="none" stroke="midnightblue" d="M2536.21,-125.42C2545.14,-108.27 2554.23,-82.55 2539.5,-67 2489,-13.67 1952.46,-39.41 1879.5,-31 1866.57,-29.51 1852.6,-27.28 1839.92,-25"/>
<polygon fill="midnightblue" stroke="midnightblue" points="2533.02,-123.96 2531.16,-134.39 2539.12,-127.4 2533.02,-123.96"/>
</g>
<!-- Node20 -->
<g id="node20" class="node">
<title>Node20</title>
<g id="a_node20"><a xlink:href="testADC_8cpp.html" target="_top" xlink:title=" ">
<polygon fill="white" stroke="black" points="1889,-6 1889,-25 2044,-25 2044,-6 1889,-6"/>
<text text-anchor="middle" x="1966.5" y="-13" font-family="Helvetica,sans-Serif" font-size="10.00">tests/CPU/Math/testADC.cpp</text>
</a>
</g>
</g>
<!-- Node1&#45;&gt;Node20 -->
<g id="edge39" class="edge">
<title>Node1&#45;&gt;Node20</title>
<path fill="none" stroke="midnightblue" d="M2547.27,-128.4C2568.62,-112.35 2595.53,-86.31 2577.5,-67 2537.67,-24.34 2111.46,-37.81 2053.5,-31 2040.12,-29.43 2025.65,-27.22 2012.44,-25.01"/>
<polygon fill="midnightblue" stroke="midnightblue" points="2544.98,-125.73 2538.9,-134.41 2549.06,-131.42 2544.98,-125.73"/>
</g>
<!-- Node21 -->
<g id="node21" class="node">
<title>Node21</title>
<g id="a_node21"><a xlink:href="testCMP_8cpp.html" target="_top" xlink:title=" ">
<polygon fill="white" stroke="black" points="2062.5,-6 2062.5,-25 2216.5,-25 2216.5,-6 2062.5,-6"/>
<text text-anchor="middle" x="2139.5" y="-13" font-family="Helvetica,sans-Serif" font-size="10.00">tests/CPU/Math/testCMP.cpp</text>
</a>
</g>
</g>
<!-- Node1&#45;&gt;Node21 -->
<g id="edge40" class="edge">
<title>Node1&#45;&gt;Node21</title>
<path fill="none" stroke="midnightblue" d="M2572.28,-130.85C2588.88,-124.04 2605.83,-113.65 2615.5,-98 2622.74,-86.28 2624.78,-77.18 2615.5,-67 2586.18,-34.85 2268.65,-36.62 2225.5,-31 2212.74,-29.34 2198.97,-27.18 2186.27,-25.04"/>
<polygon fill="midnightblue" stroke="midnightblue" points="2570.75,-127.68 2562.6,-134.46 2573.19,-134.24 2570.75,-127.68"/>
</g>
<!-- Node22 -->
<g id="node22" class="node">
<title>Node22</title>
<g id="a_node22"><a xlink:href="testOthersMath_8cpp.html" target="_top" xlink:title=" ">
<polygon fill="white" stroke="black" points="2234.5,-0.5 2234.5,-30.5 2380.5,-30.5 2380.5,-0.5 2234.5,-0.5"/>
<text text-anchor="start" x="2242.5" y="-18.5" font-family="Helvetica,sans-Serif" font-size="10.00">tests/CPU/Math/testOthers</text>
<text text-anchor="middle" x="2307.5" y="-7.5" font-family="Helvetica,sans-Serif" font-size="10.00">Math.cpp</text>
</a>
</g>
</g>
<!-- Node1&#45;&gt;Node22 -->
<g id="edge41" class="edge">
<title>Node1&#45;&gt;Node22</title>
<path fill="none" stroke="midnightblue" d="M2577.78,-132.01C2624.15,-119.95 2680.63,-98.08 2653.5,-67 2614.56,-22.39 2448,-40.16 2389.5,-31 2386.64,-30.55 2383.73,-30.09 2380.79,-29.61"/>
<polygon fill="midnightblue" stroke="midnightblue" points="2576.93,-128.62 2568.07,-134.44 2578.63,-135.41 2576.93,-128.62"/>
</g>
<!-- Node23 -->
<g id="node23" class="node">
<title>Node23</title>
<g id="a_node23"><a xlink:href="testSBC_8cpp.html" target="_top" xlink:title=" ">
<polygon fill="white" stroke="black" points="2399,-6 2399,-25 2552,-25 2552,-6 2399,-6"/>
<text text-anchor="middle" x="2475.5" y="-13" font-family="Helvetica,sans-Serif" font-size="10.00">tests/CPU/Math/testSBC.cpp</text>
</a>
</g>
</g>
<!-- Node1&#45;&gt;Node23 -->
<g id="edge42" class="edge">
<title>Node1&#45;&gt;Node23</title>
<path fill="none" stroke="midnightblue" d="M2587.69,-136.27C2647.25,-127.29 2723.67,-107.55 2691.5,-67 2681.19,-54.01 2586.97,-35.64 2526.42,-25.01"/>
<polygon fill="midnightblue" stroke="midnightblue" points="2586.95,-132.84 2577.54,-137.73 2587.94,-139.77 2586.95,-132.84"/>
</g>
<!-- Node24 -->
<g id="node24" class="node">
<title>Node24</title>
<g id="a_node24"><a xlink:href="testAddressingMode_8cpp.html" target="_top" xlink:title=" ">
<polygon fill="white" stroke="black" points="2570.5,-0.5 2570.5,-30.5 2710.5,-30.5 2710.5,-0.5 2570.5,-0.5"/>
<text text-anchor="start" x="2578.5" y="-18.5" font-family="Helvetica,sans-Serif" font-size="10.00">tests/CPU/testAddressing</text>
<text text-anchor="middle" x="2640.5" y="-7.5" font-family="Helvetica,sans-Serif" font-size="10.00">Mode.cpp</text>
</a>
</g>
</g>
<!-- Node1&#45;&gt;Node24 -->
<g id="edge43" class="edge">
<title>Node1&#45;&gt;Node24</title>
<path fill="none" stroke="midnightblue" d="M2587.97,-135.97C2635.22,-129.21 2694.46,-117.16 2709.5,-98 2728.5,-73.79 2693.85,-46.71 2667.13,-30.66"/>
<polygon fill="midnightblue" stroke="midnightblue" points="2587.21,-132.54 2577.78,-137.37 2588.16,-139.48 2587.21,-132.54"/>
</g>
<!-- Node25 -->
<g id="node25" class="node">
<title>Node25</title>
<g id="a_node25"><a xlink:href="testBits_8cpp.html" target="_top" xlink:title=" ">
<polygon fill="white" stroke="black" points="2729,-6 2729,-25 2854,-25 2854,-6 2729,-6"/>
<text text-anchor="middle" x="2791.5" y="-13" font-family="Helvetica,sans-Serif" font-size="10.00">tests/CPU/testBits.cpp</text>
</a>
</g>
</g>
<!-- Node1&#45;&gt;Node25 -->
<g id="edge44" class="edge">
<title>Node1&#45;&gt;Node25</title>
<path fill="none" stroke="midnightblue" d="M2587.9,-139.77C2629.8,-135.14 2684.77,-124.1 2726.5,-98 2756.27,-79.38 2778.25,-42.18 2787.15,-25.25"/>
<polygon fill="midnightblue" stroke="midnightblue" points="2587.41,-136.31 2577.81,-140.79 2588.12,-143.27 2587.41,-136.31"/>
</g>
<!-- Node28 -->
<g id="node28" class="node">
<title>Node28</title>
<g id="a_node28"><a xlink:href="testInterupts_8cpp.html" target="_top" xlink:title=" ">
<polygon fill="white" stroke="black" points="3528,-6 3528,-25 3677,-25 3677,-6 3528,-6"/>
<text text-anchor="middle" x="3602.5" y="-13" font-family="Helvetica,sans-Serif" font-size="10.00">tests/CPU/testInterupts.cpp</text>
</a>
</g>
</g>
<!-- Node1&#45;&gt;Node28 -->
<g id="edge45" class="edge">
<title>Node1&#45;&gt;Node28</title>
<path fill="none" stroke="midnightblue" d="M2587.95,-137.53C2677.11,-129.58 2845.98,-114.04 2989.5,-98 3225.02,-71.67 3284.12,-66.05 3518.5,-31 3530.5,-29.21 3543.43,-27.07 3555.47,-25"/>
<polygon fill="midnightblue" stroke="midnightblue" points="2587.39,-134.06 2577.74,-138.44 2588.01,-141.04 2587.39,-134.06"/>
</g>
<!-- Node29 -->
<g id="node29" class="node">
<title>Node29</title>
<g id="a_node29"><a xlink:href="testStore_8cpp.html" target="_top" xlink:title=" ">
<polygon fill="white" stroke="black" points="3695,-6 3695,-25 3826,-25 3826,-6 3695,-6"/>
<text text-anchor="middle" x="3760.5" y="-13" font-family="Helvetica,sans-Serif" font-size="10.00">tests/CPU/testStore.cpp</text>
</a>
</g>
</g>
<!-- Node1&#45;&gt;Node29 -->
<g id="edge46" class="edge">
<title>Node1&#45;&gt;Node29</title>
<path fill="none" stroke="midnightblue" d="M2587.86,-139.4C2698.5,-132.78 2936.32,-117.57 3136.5,-98 3381.14,-74.08 3442.68,-69.24 3685.5,-31 3696.37,-29.29 3708.08,-27.16 3718.94,-25.07"/>
<polygon fill="midnightblue" stroke="midnightblue" points="2587.65,-135.9 2577.88,-139.99 2588.07,-142.89 2587.65,-135.9"/>
</g>
<!-- Node30 -->
<g id="node30" class="node">
<title>Node30</title>
<g id="a_node30"><a xlink:href="testTransfers_8cpp.html" target="_top" xlink:title=" ">
<polygon fill="white" stroke="black" points="3844.5,-6 3844.5,-25 3994.5,-25 3994.5,-6 3844.5,-6"/>
<text text-anchor="middle" x="3919.5" y="-13" font-family="Helvetica,sans-Serif" font-size="10.00">tests/CPU/testTransfers.cpp</text>
</a>
</g>
</g>
<!-- Node1&#45;&gt;Node30 -->
<g id="edge47" class="edge">
<title>Node1&#45;&gt;Node30</title>
<path fill="none" stroke="midnightblue" d="M2587.81,-140.76C2719.2,-135.74 3034.23,-122.07 3297.5,-98 3537.02,-76.1 3596.56,-66.12 3834.5,-31 3846.64,-29.21 3859.73,-27.08 3871.91,-25.01"/>
<polygon fill="midnightblue" stroke="midnightblue" points="2587.41,-137.27 2577.55,-141.15 2587.67,-144.27 2587.41,-137.27"/>
</g>
<!-- Node31 -->
<g id="node31" class="node">
<title>Node31</title>
<g id="a_node31"><a xlink:href="testBackground_8cpp.html" target="_top" xlink:title=" ">
<polygon fill="white" stroke="black" points="4013,-6 4013,-25 4176,-25 4176,-6 4013,-6"/>
<text text-anchor="middle" x="4094.5" y="-13" font-family="Helvetica,sans-Serif" font-size="10.00">tests/PPU/testBackground.cpp</text>
</a>
</g>
</g>
<!-- Node1&#45;&gt;Node31 -->
<g id="edge48" class="edge">
<title>Node1&#45;&gt;Node31</title>
<path fill="none" stroke="midnightblue" d="M2587.88,-141.56C2737.69,-137.76 3129.52,-125.78 3455.5,-98 3699.98,-77.17 3760.53,-65.2 4003.5,-31 4016.33,-29.19 4030.15,-27.08 4043.05,-25.03"/>
<polygon fill="midnightblue" stroke="midnightblue" points="2587.43,-138.07 2577.52,-141.82 2587.6,-145.07 2587.43,-138.07"/>
</g>
<!-- Node32 -->
<g id="node32" class="node">
<title>Node32</title>
<g id="a_node32"><a xlink:href="testPpuRead_8cpp.html" target="_top" xlink:title=" ">
<polygon fill="white" stroke="black" points="4194.5,-6 4194.5,-25 4342.5,-25 4342.5,-6 4194.5,-6"/>
<text text-anchor="middle" x="4268.5" y="-13" font-family="Helvetica,sans-Serif" font-size="10.00">tests/PPU/testPpuRead.cpp</text>
</a>
</g>
</g>
<!-- Node1&#45;&gt;Node32 -->
<g id="edge49" class="edge">
<title>Node1&#45;&gt;Node32</title>
<path fill="none" stroke="midnightblue" d="M2587.61,-142.09C2754.36,-139.3 3225.71,-129.06 3616.5,-98 3869.9,-77.86 3932.94,-67.52 4184.5,-31 4196.51,-29.26 4209.44,-27.14 4221.48,-25.07"/>
<polygon fill="midnightblue" stroke="midnightblue" points="2587.48,-138.6 2577.54,-142.26 2587.6,-145.59 2587.48,-138.6"/>
</g>
<!-- Node33 -->
<g id="node33" class="node">
<title>Node33</title>
<g id="a_node33"><a xlink:href="testPpuWrite_8cpp.html" target="_top" xlink:title=" ">
<polygon fill="white" stroke="black" points="4361,-6 4361,-25 4510,-25 4510,-6 4361,-6"/>
<text text-anchor="middle" x="4435.5" y="-13" font-family="Helvetica,sans-Serif" font-size="10.00">tests/PPU/testPpuWrite.cpp</text>
</a>
</g>
</g>
<!-- Node1&#45;&gt;Node33 -->
<g id="edge50" class="edge">
<title>Node1&#45;&gt;Node33</title>
<path fill="none" stroke="midnightblue" d="M2587.59,-142.6C2771.22,-141.03 3327.6,-133.46 3787.5,-98 4039.18,-78.6 4101.7,-67.37 4351.5,-31 4363.51,-29.25 4376.44,-27.14 4388.48,-25.07"/>
<polygon fill="midnightblue" stroke="midnightblue" points="2587.55,-139.1 2577.58,-142.68 2587.61,-146.1 2587.55,-139.1"/>
</g>
<!-- Node34 -->
<g id="node34" class="node">
<title>Node34</title>
<g id="a_node34"><a xlink:href="testPpuWriteFromVmain_8cpp.html" target="_top" xlink:title=" ">
<polygon fill="white" stroke="black" points="4528.5,-0.5 4528.5,-30.5 4682.5,-30.5 4682.5,-0.5 4528.5,-0.5"/>
<text text-anchor="start" x="4536.5" y="-18.5" font-family="Helvetica,sans-Serif" font-size="10.00">tests/PPU/testPpuWriteFrom</text>
<text text-anchor="middle" x="4605.5" y="-7.5" font-family="Helvetica,sans-Serif" font-size="10.00">Vmain.cpp</text>
</a>
</g>
</g>
<!-- Node1&#45;&gt;Node34 -->
<g id="edge51" class="edge">
<title>Node1&#45;&gt;Node34</title>
<path fill="none" stroke="midnightblue" d="M2587.89,-142.98C2787.56,-142.5 3428.73,-137.75 3957.5,-98 4208.34,-79.14 4270.52,-66.81 4519.5,-31 4522.35,-30.59 4525.25,-30.16 4528.17,-29.72"/>
<polygon fill="midnightblue" stroke="midnightblue" points="2587.6,-139.48 2577.6,-143 2587.61,-146.48 2587.6,-139.48"/>
</g>
<!-- Node17&#45;&gt;Node16 -->
<g id="edge17" class="edge">
<title>Node17&#45;&gt;Node16</title>
<path fill="none" stroke="midnightblue" d="M2881.77,-79.68C2624.68,-71.11 1548.08,-35.07 1513.5,-31 1501.85,-29.63 1489.27,-27.37 1477.94,-25.04"/>
<polygon fill="midnightblue" stroke="midnightblue" points="2881.87,-83.18 2891.98,-80.02 2882.1,-76.19 2881.87,-83.18"/>
</g>
<!-- Node17&#45;&gt;Node18 -->
<g id="edge18" class="edge">
<title>Node17&#45;&gt;Node18</title>
<path fill="none" stroke="midnightblue" d="M2881.7,-79.39C2651.67,-70.53 1773.26,-36.46 1714.5,-31 1698.69,-29.53 1681.56,-27.29 1666.02,-25"/>
<polygon fill="midnightblue" stroke="midnightblue" points="2881.72,-82.9 2891.84,-79.78 2881.99,-75.9 2881.72,-82.9"/>
</g>
<!-- Node17&#45;&gt;Node19 -->
<g id="edge19" class="edge">
<title>Node17&#45;&gt;Node19</title>
<path fill="none" stroke="midnightblue" d="M2881.73,-79.29C2679.21,-71.08 1979.27,-42.16 1879.5,-31 1866.57,-29.55 1852.6,-27.33 1839.91,-25.06"/>
<polygon fill="midnightblue" stroke="midnightblue" points="2881.7,-82.79 2891.84,-79.7 2881.99,-75.8 2881.7,-82.79"/>
</g>
<!-- Node17&#45;&gt;Node20 -->
<g id="edge20" class="edge">
<title>Node17&#45;&gt;Node20</title>
<path fill="none" stroke="midnightblue" d="M2881.98,-79.16C2715.52,-71.88 2215.4,-49.07 2053.5,-31 2039.96,-29.49 2025.31,-27.28 2011.97,-25.03"/>
<polygon fill="midnightblue" stroke="midnightblue" points="2881.85,-82.65 2891.99,-79.59 2882.15,-75.66 2881.85,-82.65"/>
</g>
<!-- Node17&#45;&gt;Node21 -->
<g id="edge21" class="edge">
<title>Node17&#45;&gt;Node21</title>
<path fill="none" stroke="midnightblue" d="M2881.43,-78.28C2737.49,-69.74 2352.42,-46.17 2225.5,-31 2212.42,-29.44 2198.3,-27.26 2185.35,-25.07"/>
<polygon fill="midnightblue" stroke="midnightblue" points="2881.59,-81.79 2891.78,-78.89 2882,-74.8 2881.59,-81.79"/>
</g>
<!-- Node17&#45;&gt;Node22 -->
<g id="edge22" class="edge">
<title>Node17&#45;&gt;Node22</title>
<path fill="none" stroke="midnightblue" d="M2881.65,-77.95C2782.92,-71.22 2568.88,-55.1 2389.5,-31 2386.63,-30.62 2383.72,-30.2 2380.77,-29.77"/>
<polygon fill="midnightblue" stroke="midnightblue" points="2881.48,-81.44 2891.69,-78.63 2881.95,-74.46 2881.48,-81.44"/>
</g>
<!-- Node17&#45;&gt;Node23 -->
<g id="edge23" class="edge">
<title>Node17&#45;&gt;Node23</title>
<path fill="none" stroke="midnightblue" d="M2881.64,-74.69C2808.51,-65.48 2675.1,-48.22 2561.5,-31 2549.52,-29.18 2536.63,-27.09 2524.57,-25.06"/>
<polygon fill="midnightblue" stroke="midnightblue" points="2881.62,-78.22 2891.98,-75.99 2882.5,-71.27 2881.62,-78.22"/>
</g>
<!-- Node17&#45;&gt;Node24 -->
<g id="edge24" class="edge">
<title>Node17&#45;&gt;Node24</title>
<path fill="none" stroke="midnightblue" d="M2887.57,-70.75C2837.5,-59.76 2759.47,-42.63 2704.52,-30.56"/>
<polygon fill="midnightblue" stroke="midnightblue" points="2886.98,-74.21 2897.5,-72.94 2888.48,-67.37 2886.98,-74.21"/>
</g>
<!-- Node17&#45;&gt;Node25 -->
<g id="edge25" class="edge">
<title>Node17&#45;&gt;Node25</title>
<path fill="none" stroke="midnightblue" d="M2907.75,-68.61C2879.03,-55.74 2835.68,-36.31 2810.83,-25.17"/>
<polygon fill="midnightblue" stroke="midnightblue" points="2906.69,-71.97 2917.25,-72.87 2909.55,-65.58 2906.69,-71.97"/>
</g>
<!-- Node26 -->
<g id="node26" class="node">
<title>Node26</title>
<g id="a_node26"><a xlink:href="testDMA_8cpp.html" target="_top" xlink:title=" ">
<polygon fill="white" stroke="black" points="2872,-6 2872,-25 3001,-25 3001,-6 2872,-6"/>
<text text-anchor="middle" x="2936.5" y="-13" font-family="Helvetica,sans-Serif" font-size="10.00">tests/CPU/testDMA.cpp</text>
</a>
</g>
</g>
<!-- Node17&#45;&gt;Node26 -->
<g id="edge26" class="edge">
<title>Node17&#45;&gt;Node26</title>
<path fill="none" stroke="midnightblue" d="M2936.5,-62.54C2936.5,-50.17 2936.5,-34.62 2936.5,-25.13"/>
<polygon fill="midnightblue" stroke="midnightblue" points="2933,-62.73 2936.5,-72.73 2940,-62.73 2933,-62.73"/>
</g>
<!-- Node27 -->
<g id="node27" class="node">
<title>Node27</title>
<g id="a_node27"><a xlink:href="testInternal_8cpp.html" target="_top" xlink:title=" ">
<polygon fill="white" stroke="black" points="3019,-6 3019,-25 3162,-25 3162,-6 3019,-6"/>
<text text-anchor="middle" x="3090.5" y="-13" font-family="Helvetica,sans-Serif" font-size="10.00">tests/CPU/testInternal.cpp</text>
</a>
</g>
</g>
<!-- Node17&#45;&gt;Node27 -->
<g id="edge27" class="edge">
<title>Node17&#45;&gt;Node27</title>
<path fill="none" stroke="midnightblue" d="M2966.24,-68.95C2996.73,-56.08 3043.34,-36.4 3069.97,-25.17"/>
<polygon fill="midnightblue" stroke="midnightblue" points="2964.8,-65.76 2956.95,-72.87 2967.52,-72.2 2964.8,-65.76"/>
</g>
<!-- Node17&#45;&gt;Node28 -->
<g id="edge28" class="edge">
<title>Node17&#45;&gt;Node28</title>
<path fill="none" stroke="midnightblue" d="M2991.37,-78.29C3094.78,-71.89 3325.47,-55.99 3518.5,-31 3531.12,-29.37 3544.74,-27.19 3557.27,-25.03"/>
<polygon fill="midnightblue" stroke="midnightblue" points="2990.94,-74.81 2981.18,-78.91 2991.37,-81.79 2990.94,-74.81"/>
</g>
<!-- Node17&#45;&gt;Node29 -->
<g id="edge29" class="edge">
<title>Node17&#45;&gt;Node29</title>
<path fill="none" stroke="midnightblue" d="M2991.38,-80.12C3115.5,-76.5 3427.11,-64.56 3685.5,-31 3697.2,-29.48 3709.84,-27.26 3721.33,-25.02"/>
<polygon fill="midnightblue" stroke="midnightblue" points="2990.91,-76.63 2981.01,-80.42 2991.1,-83.63 2990.91,-76.63"/>
</g>
<!-- Node17&#45;&gt;Node30 -->
<g id="edge30" class="edge">
<title>Node17&#45;&gt;Node30</title>
<path fill="none" stroke="midnightblue" d="M2991.11,-80.57C3131.48,-77.72 3516.24,-66.98 3834.5,-31 3847.74,-29.5 3862.05,-27.29 3875.08,-25.05"/>
<polygon fill="midnightblue" stroke="midnightblue" points="2990.96,-77.07 2981.03,-80.77 2991.1,-84.07 2990.96,-77.07"/>
</g>
<!-- Node17&#45;&gt;Node31 -->
<g id="edge31" class="edge">
<title>Node17&#45;&gt;Node31</title>
<path fill="none" stroke="midnightblue" d="M2991.49,-81.04C3149.34,-79.27 3617.37,-70.78 4003.5,-31 4017.82,-29.52 4033.32,-27.29 4047.4,-25.02"/>
<polygon fill="midnightblue" stroke="midnightblue" points="2991.06,-77.55 2981.1,-81.15 2991.14,-84.55 2991.06,-77.55"/>
</g>
<!-- Node17&#45;&gt;Node32 -->
<g id="edge32" class="edge">
<title>Node17&#45;&gt;Node32</title>
<path fill="none" stroke="midnightblue" d="M2991.37,-81.83C3166.12,-82.33 3725.15,-79.73 4184.5,-31 4197.89,-29.58 4212.38,-27.34 4225.49,-25.04"/>
<polygon fill="midnightblue" stroke="midnightblue" points="2991.16,-78.33 2981.15,-81.79 2991.13,-85.33 2991.16,-78.33"/>
</g>
<!-- Node17&#45;&gt;Node33 -->
<g id="edge33" class="edge">
<title>Node17&#45;&gt;Node33</title>
<path fill="none" stroke="midnightblue" d="M2991.59,-80.53C3218.37,-76.39 4080.58,-59.09 4351.5,-31 4364.9,-29.61 4379.38,-27.38 4392.49,-25.08"/>
<polygon fill="midnightblue" stroke="midnightblue" points="2991.21,-77.04 2981.27,-80.72 2991.33,-84.04 2991.21,-77.04"/>
</g>
<!-- Node17&#45;&gt;Node34 -->
<g id="edge34" class="edge">
<title>Node17&#45;&gt;Node34</title>
<path fill="none" stroke="midnightblue" d="M2991.61,-80.74C3234.83,-77.25 4213.67,-61.52 4519.5,-31 4522.36,-30.71 4525.27,-30.39 4528.21,-30.04"/>
<polygon fill="midnightblue" stroke="midnightblue" points="2991.2,-77.25 2981.25,-80.89 2991.3,-84.25 2991.2,-77.25"/>
</g>
<!-- Node35 -->
<g id="node35" class="node">
<title>Node35</title>
<g id="a_node35"><a xlink:href="testMemoryBus_8cpp.html" target="_top" xlink:title=" ">
<polygon fill="white" stroke="black" points="3180,-6 3180,-25 3321,-25 3321,-6 3180,-6"/>
<text text-anchor="middle" x="3250.5" y="-13" font-family="Helvetica,sans-Serif" font-size="10.00">tests/testMemoryBus.cpp</text>
</a>
</g>
</g>
<!-- Node17&#45;&gt;Node35 -->
<g id="edge35" class="edge">
<title>Node17&#45;&gt;Node35</title>
<path fill="none" stroke="midnightblue" d="M2987.79,-70.88C3049.54,-58.1 3152.04,-36.88 3209.04,-25.08"/>
<polygon fill="midnightblue" stroke="midnightblue" points="2986.96,-67.48 2977.87,-72.94 2988.37,-74.34 2986.96,-67.48"/>
</g>
<!-- Node36 -->
<g id="node36" class="node">
<title>Node36</title>
<g id="a_node36"><a xlink:href="testRectangleMemory_8cpp.html" target="_top" xlink:title=" ">
<polygon fill="white" stroke="black" points="3339.5,-6 3339.5,-25 3509.5,-25 3509.5,-6 3339.5,-6"/>
<text text-anchor="middle" x="3424.5" y="-13" font-family="Helvetica,sans-Serif" font-size="10.00">tests/testRectangleMemory.cpp</text>
</a>
</g>
</g>
<!-- Node17&#45;&gt;Node36 -->
<g id="edge36" class="edge">
<title>Node17&#45;&gt;Node36</title>
<path fill="none" stroke="midnightblue" d="M2991.32,-74.87C3067.33,-65.59 3208.98,-47.94 3329.5,-31 3342.72,-29.14 3356.95,-27.03 3370.28,-25"/>
<polygon fill="midnightblue" stroke="midnightblue" points="2990.55,-71.44 2981.04,-76.12 2991.39,-78.39 2990.55,-71.44"/>
</g>
</g>
</svg>
