<?xml version="1.0" encoding="UTF-8" standalone="no"?>
<!DOCTYPE svg PUBLIC "-//W3C//DTD SVG 1.1//EN"
 "http://www.w3.org/Graphics/SVG/1.1/DTD/svg11.dtd">
<!-- Generated by graphviz version 2.43.0 (0)
 -->
<!-- Title: sources/APU/Instructions/Stack.cpp Pages: 1 -->
<svg width="859pt" height="431pt"
 viewBox="0.00 0.00 859.00 431.00" xmlns="http://www.w3.org/2000/svg" xmlns:xlink="http://www.w3.org/1999/xlink">
<g id="graph0" class="graph" transform="scale(1 1) rotate(0) translate(4 427)">
<title>sources/APU/Instructions/Stack.cpp</title>
<polygon fill="white" stroke="transparent" points="-4,4 -4,-427 855,-427 855,4 -4,4"/>
<!-- Node1 -->
<g id="node1" class="node">
<title>Node1</title>
<g id="a_node1"><a xlink:title=" ">
<polygon fill="#bfbfbf" stroke="black" points="168.5,-392.5 168.5,-422.5 305.5,-422.5 305.5,-392.5 168.5,-392.5"/>
<text text-anchor="start" x="176.5" y="-410.5" font-family="Helvetica,sans-Serif" font-size="10.00">sources/APU/Instructions</text>
<text text-anchor="middle" x="237" y="-399.5" font-family="Helvetica,sans-Serif" font-size="10.00">/Stack.cpp</text>
</a>
</g>
</g>
<!-- Node2 -->
<g id="node2" class="node">
<title>Node2</title>
<g id="a_node2"><a xlink:href="APU_8hpp.html" target="_top" xlink:title=" ">
<polygon fill="white" stroke="black" points="196.5,-336.5 196.5,-355.5 277.5,-355.5 277.5,-336.5 196.5,-336.5"/>
<text text-anchor="middle" x="237" y="-343.5" font-family="Helvetica,sans-Serif" font-size="10.00">APU/APU.hpp</text>
</a>
</g>
</g>
<!-- Node1&#45;&gt;Node2 -->
<g id="edge1" class="edge">
<title>Node1&#45;&gt;Node2</title>
<path fill="none" stroke="midnightblue" d="M237,-392.4C237,-384.47 237,-374.46 237,-365.86"/>
<polygon fill="midnightblue" stroke="midnightblue" points="240.5,-365.66 237,-355.66 233.5,-365.66 240.5,-365.66"/>
</g>
<!-- Node3 -->
<g id="node3" class="node">
<title>Node3</title>
<g id="a_node3"><a xlink:title=" ">
<polygon fill="white" stroke="#bfbfbf" points="3,-56.5 3,-75.5 61,-75.5 61,-56.5 3,-56.5"/>
<text text-anchor="middle" x="32" y="-63.5" font-family="Helvetica,sans-Serif" font-size="10.00">memory</text>
</a>
</g>
</g>
<!-- Node2&#45;&gt;Node3 -->
<g id="edge2" class="edge">
<title>Node2&#45;&gt;Node3</title>
<path fill="none" stroke="midnightblue" d="M196.26,-343.92C128.5,-339.73 0,-320.51 0,-235 0,-235 0,-235 0,-177 0,-143.33 13.99,-106.08 23.47,-84.72"/>
<polygon fill="midnightblue" stroke="midnightblue" points="26.67,-86.14 27.68,-75.59 20.32,-83.21 26.67,-86.14"/>
</g>
<!-- Node4 -->
<g id="node4" class="node">
<title>Node4</title>
<g id="a_node4"><a xlink:href="DSP_8hpp.html" target="_top" xlink:title=" ">
<polygon fill="white" stroke="black" points="68,-280.5 68,-299.5 146,-299.5 146,-280.5 68,-280.5"/>
<text text-anchor="middle" x="107" y="-287.5" font-family="Helvetica,sans-Serif" font-size="10.00">DSP/DSP.hpp</text>
</a>
</g>
</g>
<!-- Node2&#45;&gt;Node4 -->
<g id="edge3" class="edge">
<title>Node2&#45;&gt;Node4</title>
<path fill="none" stroke="midnightblue" d="M216.4,-336.44C195.01,-327.56 161.32,-313.56 136.98,-303.45"/>
<polygon fill="midnightblue" stroke="midnightblue" points="138.08,-300.12 127.5,-299.52 135.39,-306.58 138.08,-300.12"/>
</g>
<!-- Node7 -->
<g id="node7" class="node">
<title>Node7</title>
<g id="a_node7"><a xlink:href="IRenderer_8hpp.html" target="_top" xlink:title=" ">
<polygon fill="white" stroke="black" points="240.5,-224.5 240.5,-243.5 371.5,-243.5 371.5,-224.5 240.5,-224.5"/>
<text text-anchor="middle" x="306" y="-231.5" font-family="Helvetica,sans-Serif" font-size="10.00">Renderer/IRenderer.hpp</text>
</a>
</g>
</g>
<!-- Node2&#45;&gt;Node7 -->
<g id="edge35" class="edge">
<title>Node2&#45;&gt;Node7</title>
<path fill="none" stroke="midnightblue" d="M247.68,-336.33C257.47,-327.92 271.79,-314.34 281,-300 290.38,-285.39 297.1,-266.72 301.2,-253.14"/>
<polygon fill="midnightblue" stroke="midnightblue" points="304.57,-254.09 303.92,-243.51 297.83,-252.18 304.57,-254.09"/>
</g>
<!-- Node10 -->
<g id="node10" class="node">
<title>Node10</title>
<g id="a_node10"><a xlink:href="AMemory_8hpp.html" target="_top" xlink:title=" ">
<polygon fill="white" stroke="black" points="126.5,-168.5 126.5,-187.5 253.5,-187.5 253.5,-168.5 126.5,-168.5"/>
<text text-anchor="middle" x="190" y="-175.5" font-family="Helvetica,sans-Serif" font-size="10.00">Memory/AMemory.hpp</text>
</a>
</g>
</g>
<!-- Node2&#45;&gt;Node10 -->
<g id="edge25" class="edge">
<title>Node2&#45;&gt;Node10</title>
<path fill="none" stroke="midnightblue" d="M224.63,-336.25C214.33,-328.17 200.36,-315.14 194,-300 179.8,-266.21 183.09,-222.31 186.63,-197.75"/>
<polygon fill="midnightblue" stroke="midnightblue" points="190.12,-198.09 188.26,-187.66 183.21,-196.97 190.12,-198.09"/>
</g>
<!-- Node17 -->
<g id="node17" class="node">
<title>Node17</title>
<g id="a_node17"><a xlink:href="Ram_8hpp.html" target="_top" xlink:title=" ">
<polygon fill="white" stroke="black" points="428,-224.5 428,-243.5 514,-243.5 514,-224.5 428,-224.5"/>
<text text-anchor="middle" x="471" y="-231.5" font-family="Helvetica,sans-Serif" font-size="10.00">Ram/Ram.hpp</text>
</a>
</g>
</g>
<!-- Node2&#45;&gt;Node17 -->
<g id="edge26" class="edge">
<title>Node2&#45;&gt;Node17</title>
<path fill="none" stroke="midnightblue" d="M255.36,-336.37C296.29,-317.13 395.17,-270.65 443.49,-247.93"/>
<polygon fill="midnightblue" stroke="midnightblue" points="445.16,-251.01 452.72,-243.59 442.18,-244.68 445.16,-251.01"/>
</g>
<!-- Node19 -->
<g id="node19" class="node">
<title>Node19</title>
<g id="a_node19"><a xlink:href="IPL_8hpp.html" target="_top" xlink:title=" ">
<polygon fill="white" stroke="black" points="202.5,-280.5 202.5,-299.5 271.5,-299.5 271.5,-280.5 202.5,-280.5"/>
<text text-anchor="middle" x="237" y="-287.5" font-family="Helvetica,sans-Serif" font-size="10.00">IPL/IPL.hpp</text>
</a>
</g>
</g>
<!-- Node2&#45;&gt;Node19 -->
<g id="edge33" class="edge">
<title>Node2&#45;&gt;Node19</title>
<path fill="none" stroke="midnightblue" d="M237,-336.08C237,-329.01 237,-318.86 237,-309.99"/>
<polygon fill="midnightblue" stroke="midnightblue" points="240.5,-309.75 237,-299.75 233.5,-309.75 240.5,-309.75"/>
</g>
<!-- Node20 -->
<g id="node20" class="node">
<title>Node20</title>
<g id="a_node20"><a xlink:href="Cartridge_8hpp.html" target="_top" xlink:title=" ">
<polygon fill="white" stroke="black" points="531.5,-280.5 531.5,-299.5 662.5,-299.5 662.5,-280.5 531.5,-280.5"/>
<text text-anchor="middle" x="597" y="-287.5" font-family="Helvetica,sans-Serif" font-size="10.00">Cartridge/Cartridge.hpp</text>
</a>
</g>
</g>
<!-- Node2&#45;&gt;Node20 -->
<g id="edge36" class="edge">
<title>Node2&#45;&gt;Node20</title>
<path fill="none" stroke="midnightblue" d="M277.6,-338.91C338.98,-329.7 456.08,-312.14 530.16,-301.03"/>
<polygon fill="midnightblue" stroke="midnightblue" points="530.95,-304.45 540.32,-299.5 529.91,-297.52 530.95,-304.45"/>
</g>
<!-- Node5 -->
<g id="node5" class="node">
<title>Node5</title>
<g id="a_node5"><a xlink:title=" ">
<polygon fill="white" stroke="#bfbfbf" points="79,-56.5 79,-75.5 129,-75.5 129,-56.5 79,-56.5"/>
<text text-anchor="middle" x="104" y="-63.5" font-family="Helvetica,sans-Serif" font-size="10.00">cstdint</text>
</a>
</g>
</g>
<!-- Node4&#45;&gt;Node5 -->
<g id="edge4" class="edge">
<title>Node4&#45;&gt;Node5</title>
<path fill="none" stroke="midnightblue" d="M101.87,-280.41C96.94,-271.61 89.84,-257.38 87,-244 74.9,-187 89.89,-117.84 98.59,-85.43"/>
<polygon fill="midnightblue" stroke="midnightblue" points="102.02,-86.15 101.36,-75.58 95.28,-84.26 102.02,-86.15"/>
</g>
<!-- Node6 -->
<g id="node6" class="node">
<title>Node6</title>
<g id="a_node6"><a xlink:title=" ">
<polygon fill="white" stroke="#bfbfbf" points="104,-224.5 104,-243.5 146,-243.5 146,-224.5 104,-224.5"/>
<text text-anchor="middle" x="125" y="-231.5" font-family="Helvetica,sans-Serif" font-size="10.00">array</text>
</a>
</g>
</g>
<!-- Node4&#45;&gt;Node6 -->
<g id="edge5" class="edge">
<title>Node4&#45;&gt;Node6</title>
<path fill="none" stroke="midnightblue" d="M109.97,-280.08C112.38,-272.85 115.86,-262.41 118.87,-253.4"/>
<polygon fill="midnightblue" stroke="midnightblue" points="122.24,-254.34 122.08,-243.75 115.6,-252.13 122.24,-254.34"/>
</g>
<!-- Node4&#45;&gt;Node7 -->
<g id="edge6" class="edge">
<title>Node4&#45;&gt;Node7</title>
<path fill="none" stroke="midnightblue" d="M138.53,-280.44C172.59,-271.2 227.01,-256.44 264.52,-246.26"/>
<polygon fill="midnightblue" stroke="midnightblue" points="265.88,-249.51 274.62,-243.52 264.05,-242.76 265.88,-249.51"/>
</g>
<!-- Node4&#45;&gt;Node10 -->
<g id="edge9" class="edge">
<title>Node4&#45;&gt;Node10</title>
<path fill="none" stroke="midnightblue" d="M101.77,-280.27C94.61,-267.06 83.83,-241.65 95,-224 105.05,-208.13 122.37,-197.74 139.5,-191"/>
<polygon fill="midnightblue" stroke="midnightblue" points="140.71,-194.28 148.95,-187.62 138.35,-187.69 140.71,-194.28"/>
</g>
<!-- Node8 -->
<g id="node8" class="node">
<title>Node8</title>
<g id="a_node8"><a xlink:title=" ">
<polygon fill="white" stroke="#bfbfbf" points="418,-56.5 418,-75.5 462,-75.5 462,-56.5 418,-56.5"/>
<text text-anchor="middle" x="440" y="-63.5" font-family="Helvetica,sans-Serif" font-size="10.00">string</text>
</a>
</g>
</g>
<!-- Node7&#45;&gt;Node8 -->
<g id="edge7" class="edge">
<title>Node7&#45;&gt;Node8</title>
<path fill="none" stroke="midnightblue" d="M306.46,-224.36C307.5,-211.26 310.91,-186.01 322,-168 345.66,-129.59 388.78,-98.26 415.83,-81.15"/>
<polygon fill="midnightblue" stroke="midnightblue" points="417.99,-83.93 424.67,-75.7 414.32,-77.97 417.99,-83.93"/>
</g>
<!-- Node9 -->
<g id="node9" class="node">
<title>Node9</title>
<g id="a_node9"><a xlink:title=" ">
<polygon fill="white" stroke="#bfbfbf" points="331,-168.5 331,-187.5 371,-187.5 371,-168.5 331,-168.5"/>
<text text-anchor="middle" x="351" y="-175.5" font-family="Helvetica,sans-Serif" font-size="10.00">span</text>
</a>
</g>
</g>
<!-- Node7&#45;&gt;Node9 -->
<g id="edge8" class="edge">
<title>Node7&#45;&gt;Node9</title>
<path fill="none" stroke="midnightblue" d="M313.43,-224.08C319.85,-216.38 329.31,-205.03 337.12,-195.65"/>
<polygon fill="midnightblue" stroke="midnightblue" points="339.99,-197.67 343.71,-187.75 334.62,-193.19 339.99,-197.67"/>
</g>
<!-- Node10&#45;&gt;Node3 -->
<g id="edge12" class="edge">
<title>Node10&#45;&gt;Node3</title>
<path fill="none" stroke="midnightblue" d="M177.6,-168.37C150.6,-149.57 86.25,-104.77 52.88,-81.53"/>
<polygon fill="midnightblue" stroke="midnightblue" points="54.55,-78.43 44.34,-75.59 50.55,-84.18 54.55,-78.43"/>
</g>
<!-- Node10&#45;&gt;Node5 -->
<g id="edge10" class="edge">
<title>Node10&#45;&gt;Node5</title>
<path fill="none" stroke="midnightblue" d="M183.25,-168.37C169,-150.14 135.61,-107.43 117.04,-83.68"/>
<polygon fill="midnightblue" stroke="midnightblue" points="119.63,-81.31 110.72,-75.59 114.12,-85.63 119.63,-81.31"/>
</g>
<!-- Node10&#45;&gt;Node8 -->
<g id="edge13" class="edge">
<title>Node10&#45;&gt;Node8</title>
<path fill="none" stroke="midnightblue" d="M214,-168.47C237.83,-159.83 275.28,-145.82 307,-132 344.98,-115.45 387.87,-93.97 414.42,-80.33"/>
<polygon fill="midnightblue" stroke="midnightblue" points="416.14,-83.38 423.42,-75.68 412.93,-77.16 416.14,-83.38"/>
</g>
<!-- Node11 -->
<g id="node11" class="node">
<title>Node11</title>
<g id="a_node11"><a xlink:title=" ">
<polygon fill="white" stroke="#bfbfbf" points="302.5,-56.5 302.5,-75.5 349.5,-75.5 349.5,-56.5 302.5,-56.5"/>
<text text-anchor="middle" x="326" y="-63.5" font-family="Helvetica,sans-Serif" font-size="10.00">vector</text>
</a>
</g>
</g>
<!-- Node10&#45;&gt;Node11 -->
<g id="edge11" class="edge">
<title>Node10&#45;&gt;Node11</title>
<path fill="none" stroke="midnightblue" d="M190.19,-168.24C190.94,-154.53 194.35,-127.92 209,-112 214.98,-105.51 260.36,-89.17 292.81,-78.08"/>
<polygon fill="midnightblue" stroke="midnightblue" points="294.06,-81.35 302.4,-74.82 291.81,-74.72 294.06,-81.35"/>
</g>
<!-- Node12 -->
<g id="node12" class="node">
<title>Node12</title>
<g id="a_node12"><a xlink:href="Ints_8hpp.html" target="_top" xlink:title=" ">
<polygon fill="white" stroke="black" points="506,-56.5 506,-75.5 600,-75.5 600,-56.5 506,-56.5"/>
<text text-anchor="middle" x="553" y="-63.5" font-family="Helvetica,sans-Serif" font-size="10.00">Models/Ints.hpp</text>
</a>
</g>
</g>
<!-- Node10&#45;&gt;Node12 -->
<g id="edge14" class="edge">
<title>Node10&#45;&gt;Node12</title>
<path fill="none" stroke="midnightblue" d="M218.97,-168.44C249.38,-159.44 298.58,-144.82 341,-132 402.24,-113.49 473.3,-91.62 515.63,-78.55"/>
<polygon fill="midnightblue" stroke="midnightblue" points="516.72,-81.88 525.24,-75.59 514.65,-75.19 516.72,-81.88"/>
</g>
<!-- Node15 -->
<g id="node15" class="node">
<title>Node15</title>
<g id="a_node15"><a xlink:href="Components_8hpp.html" target="_top" xlink:title=" ">
<polygon fill="white" stroke="black" points="147.5,-56.5 147.5,-75.5 284.5,-75.5 284.5,-56.5 147.5,-56.5"/>
<text text-anchor="middle" x="216" y="-63.5" font-family="Helvetica,sans-Serif" font-size="10.00">Models/Components.hpp</text>
</a>
</g>
</g>
<!-- Node10&#45;&gt;Node15 -->
<g id="edge17" class="edge">
<title>Node10&#45;&gt;Node15</title>
<path fill="none" stroke="midnightblue" d="M185.08,-168.35C178.54,-155.67 168.62,-131.42 176,-112 180.34,-100.6 189.03,-90.24 197.21,-82.34"/>
<polygon fill="midnightblue" stroke="midnightblue" points="199.64,-84.86 204.73,-75.57 194.96,-79.66 199.64,-84.86"/>
</g>
<!-- Node16 -->
<g id="node16" class="node">
<title>Node16</title>
<g id="a_node16"><a xlink:href="IMemory_8hpp.html" target="_top" xlink:title=" ">
<polygon fill="white" stroke="black" points="218,-112.5 218,-131.5 298,-131.5 298,-112.5 218,-112.5"/>
<text text-anchor="middle" x="258" y="-119.5" font-family="Helvetica,sans-Serif" font-size="10.00">IMemory.hpp</text>
</a>
</g>
</g>
<!-- Node10&#45;&gt;Node16 -->
<g id="edge18" class="edge">
<title>Node10&#45;&gt;Node16</title>
<path fill="none" stroke="midnightblue" d="M200.93,-168.32C211.17,-160.18 226.72,-147.84 239,-138.09"/>
<polygon fill="midnightblue" stroke="midnightblue" points="241.22,-140.79 246.88,-131.83 236.87,-135.31 241.22,-140.79"/>
</g>
<!-- Node13 -->
<g id="node13" class="node">
<title>Node13</title>
<g id="a_node13"><a xlink:title=" ">
<polygon fill="white" stroke="#bfbfbf" points="681,-0.5 681,-19.5 743,-19.5 743,-0.5 681,-0.5"/>
<text text-anchor="middle" x="712" y="-7.5" font-family="Helvetica,sans-Serif" font-size="10.00">cinttypes</text>
</a>
</g>
</g>
<!-- Node12&#45;&gt;Node13 -->
<g id="edge15" class="edge">
<title>Node12&#45;&gt;Node13</title>
<path fill="none" stroke="midnightblue" d="M578.19,-56.44C604.94,-47.36 647.4,-32.94 677.31,-22.78"/>
<polygon fill="midnightblue" stroke="midnightblue" points="678.58,-26.05 686.92,-19.52 676.33,-19.42 678.58,-26.05"/>
</g>
<!-- Node14 -->
<g id="node14" class="node">
<title>Node14</title>
<g id="a_node14"><a xlink:title=" ">
<polygon fill="white" stroke="#bfbfbf" points="523,-0.5 523,-19.5 583,-19.5 583,-0.5 523,-0.5"/>
<text text-anchor="middle" x="553" y="-7.5" font-family="Helvetica,sans-Serif" font-size="10.00">iostream</text>
</a>
</g>
</g>
<!-- Node12&#45;&gt;Node14 -->
<g id="edge16" class="edge">
<title>Node12&#45;&gt;Node14</title>
<path fill="none" stroke="midnightblue" d="M553,-56.08C553,-49.01 553,-38.86 553,-29.99"/>
<polygon fill="midnightblue" stroke="midnightblue" points="556.5,-29.75 553,-19.75 549.5,-29.75 556.5,-29.75"/>
</g>
<!-- Node16&#45;&gt;Node3 -->
<g id="edge21" class="edge">
<title>Node16&#45;&gt;Node3</title>
<path fill="none" stroke="midnightblue" d="M222.19,-112.44C181.03,-102.61 113.68,-86.52 71.16,-76.36"/>
<polygon fill="midnightblue" stroke="midnightblue" points="71.71,-72.89 61.17,-73.97 70.09,-79.7 71.71,-72.89"/>
</g>
<!-- Node16&#45;&gt;Node5 -->
<g id="edge19" class="edge">
<title>Node16&#45;&gt;Node5</title>
<path fill="none" stroke="midnightblue" d="M233.6,-112.44C207.8,-103.4 166.92,-89.06 137.98,-78.92"/>
<polygon fill="midnightblue" stroke="midnightblue" points="138.88,-75.52 128.29,-75.52 136.57,-82.13 138.88,-75.52"/>
</g>
<!-- Node16&#45;&gt;Node8 -->
<g id="edge22" class="edge">
<title>Node16&#45;&gt;Node8</title>
<path fill="none" stroke="midnightblue" d="M286.84,-112.44C319.81,-102.66 373.64,-86.69 407.92,-76.52"/>
<polygon fill="midnightblue" stroke="midnightblue" points="409.29,-79.76 417.88,-73.56 407.3,-73.05 409.29,-79.76"/>
</g>
<!-- Node16&#45;&gt;Node11 -->
<g id="edge20" class="edge">
<title>Node16&#45;&gt;Node11</title>
<path fill="none" stroke="midnightblue" d="M268.93,-112.32C279.17,-104.18 294.72,-91.84 307,-82.09"/>
<polygon fill="midnightblue" stroke="midnightblue" points="309.22,-84.79 314.88,-75.83 304.87,-79.31 309.22,-84.79"/>
</g>
<!-- Node16&#45;&gt;Node12 -->
<g id="edge23" class="edge">
<title>Node16&#45;&gt;Node12</title>
<path fill="none" stroke="midnightblue" d="M298.09,-113.66C349.21,-104.3 437.94,-88.06 496.06,-77.42"/>
<polygon fill="midnightblue" stroke="midnightblue" points="496.97,-80.81 506.18,-75.57 495.71,-73.93 496.97,-80.81"/>
</g>
<!-- Node16&#45;&gt;Node15 -->
<g id="edge24" class="edge">
<title>Node16&#45;&gt;Node15</title>
<path fill="none" stroke="midnightblue" d="M251.06,-112.08C245.07,-104.38 236.25,-93.03 228.95,-83.65"/>
<polygon fill="midnightblue" stroke="midnightblue" points="231.71,-81.5 222.81,-75.75 226.18,-85.79 231.71,-81.5"/>
</g>
<!-- Node17&#45;&gt;Node8 -->
<g id="edge30" class="edge">
<title>Node17&#45;&gt;Node8</title>
<path fill="none" stroke="midnightblue" d="M467.22,-224.24C463.57,-215.31 458.28,-200.98 456,-188 450.15,-154.72 459.52,-145.34 454,-112 452.51,-103.02 449.68,-93.35 446.94,-85.28"/>
<polygon fill="midnightblue" stroke="midnightblue" points="450.21,-84.01 443.53,-75.79 443.62,-86.38 450.21,-84.01"/>
</g>
<!-- Node17&#45;&gt;Node9 -->
<g id="edge31" class="edge">
<title>Node17&#45;&gt;Node9</title>
<path fill="none" stroke="midnightblue" d="M451.99,-224.44C432.41,-215.64 401.69,-201.81 379.27,-191.72"/>
<polygon fill="midnightblue" stroke="midnightblue" points="380.48,-188.43 369.93,-187.52 377.61,-194.81 380.48,-188.43"/>
</g>
<!-- Node17&#45;&gt;Node11 -->
<g id="edge32" class="edge">
<title>Node17&#45;&gt;Node11</title>
<path fill="none" stroke="midnightblue" d="M463.2,-224.08C439.89,-197.38 370.43,-117.87 340.26,-83.32"/>
<polygon fill="midnightblue" stroke="midnightblue" points="342.7,-80.8 333.48,-75.57 337.43,-85.4 342.7,-80.8"/>
</g>
<!-- Node18 -->
<g id="node18" class="node">
<title>Node18</title>
<g id="a_node18"><a xlink:href="ARectangleMemory_8hpp.html" target="_top" xlink:title=" ">
<polygon fill="white" stroke="black" points="465,-168.5 465,-187.5 641,-187.5 641,-168.5 465,-168.5"/>
<text text-anchor="middle" x="553" y="-175.5" font-family="Helvetica,sans-Serif" font-size="10.00">Memory/ARectangleMemory.hpp</text>
</a>
</g>
</g>
<!-- Node17&#45;&gt;Node18 -->
<g id="edge27" class="edge">
<title>Node17&#45;&gt;Node18</title>
<path fill="none" stroke="midnightblue" d="M484.17,-224.32C496.85,-215.98 516.23,-203.21 531.21,-193.35"/>
<polygon fill="midnightblue" stroke="midnightblue" points="533.43,-196.08 539.86,-187.65 529.58,-190.23 533.43,-196.08"/>
</g>
<!-- Node18&#45;&gt;Node12 -->
<g id="edge29" class="edge">
<title>Node18&#45;&gt;Node12</title>
<path fill="none" stroke="midnightblue" d="M553,-168.37C553,-150.62 553,-109.67 553,-85.6"/>
<polygon fill="midnightblue" stroke="midnightblue" points="556.5,-85.59 553,-75.59 549.5,-85.59 556.5,-85.59"/>
</g>
<!-- Node18&#45;&gt;Node16 -->
<g id="edge28" class="edge">
<title>Node18&#45;&gt;Node16</title>
<path fill="none" stroke="midnightblue" d="M506.26,-168.44C452.27,-158.56 363.78,-142.36 308.32,-132.21"/>
<polygon fill="midnightblue" stroke="midnightblue" points="308.83,-128.75 298.36,-130.39 307.57,-135.63 308.83,-128.75"/>
</g>
<!-- Node19&#45;&gt;Node10 -->
<g id="edge34" class="edge">
<title>Node19&#45;&gt;Node10</title>
<path fill="none" stroke="midnightblue" d="M233.31,-280.37C225.66,-262.46 207.91,-220.92 197.67,-196.95"/>
<polygon fill="midnightblue" stroke="midnightblue" points="200.82,-195.41 193.67,-187.59 194.38,-198.16 200.82,-195.41"/>
</g>
<!-- Node20&#45;&gt;Node8 -->
<g id="edge44" class="edge">
<title>Node20&#45;&gt;Node8</title>
<path fill="none" stroke="midnightblue" d="M606.37,-280.35C627.4,-259.88 674.66,-207.22 650,-168 610.68,-105.46 520.61,-80.75 472.19,-71.72"/>
<polygon fill="midnightblue" stroke="midnightblue" points="472.7,-68.26 462.24,-69.98 471.49,-75.15 472.7,-68.26"/>
</g>
<!-- Node20&#45;&gt;Node10 -->
<g id="edge39" class="edge">
<title>Node20&#45;&gt;Node10</title>
<path fill="none" stroke="midnightblue" d="M550.72,-280.44C514.24,-272.95 462.45,-260.66 419,-244 401.18,-237.17 398.88,-230.69 381,-224 338.97,-208.28 289.62,-196.82 251.61,-189.4"/>
<polygon fill="midnightblue" stroke="midnightblue" points="252.19,-185.95 241.71,-187.51 250.88,-192.82 252.19,-185.95"/>
</g>
<!-- Node20&#45;&gt;Node12 -->
<g id="edge41" class="edge">
<title>Node20&#45;&gt;Node12</title>
<path fill="none" stroke="midnightblue" d="M631.18,-280.49C649.99,-273.88 671.74,-262.6 683,-244 713.38,-193.81 717.03,-159.79 683,-112 666.42,-88.71 636.92,-77.36 610.21,-71.88"/>
<polygon fill="midnightblue" stroke="midnightblue" points="610.6,-68.39 600.14,-70.05 609.35,-75.28 610.6,-68.39"/>
</g>
<!-- Node20&#45;&gt;Node17 -->
<g id="edge42" class="edge">
<title>Node20&#45;&gt;Node17</title>
<path fill="none" stroke="midnightblue" d="M577.03,-280.44C556.39,-271.6 523.94,-257.69 500.37,-247.59"/>
<polygon fill="midnightblue" stroke="midnightblue" points="501.44,-244.24 490.87,-243.52 498.68,-250.67 501.44,-244.24"/>
</g>
<!-- Node20&#45;&gt;Node18 -->
<g id="edge40" class="edge">
<title>Node20&#45;&gt;Node18</title>
<path fill="none" stroke="midnightblue" d="M601.91,-280.14C608.37,-267.19 617.93,-242.63 609,-224 602.75,-210.95 590.66,-200.49 579.32,-192.95"/>
<polygon fill="midnightblue" stroke="midnightblue" points="580.85,-189.79 570.5,-187.54 577.19,-195.75 580.85,-189.79"/>
</g>
<!-- Node21 -->
<g id="node21" class="node">
<title>Node21</title>
<g id="a_node21"><a xlink:href="InterruptVectors_8hpp.html" target="_top" xlink:title=" ">
<polygon fill="white" stroke="black" points="735,-112.5 735,-131.5 851,-131.5 851,-112.5 735,-112.5"/>
<text text-anchor="middle" x="793" y="-119.5" font-family="Helvetica,sans-Serif" font-size="10.00">InterruptVectors.hpp</text>
</a>
</g>
</g>
<!-- Node20&#45;&gt;Node21 -->
<g id="edge37" class="edge">
<title>Node20&#45;&gt;Node21</title>
<path fill="none" stroke="midnightblue" d="M642.36,-280.44C667.65,-273.85 698.5,-262.61 721,-244 754.94,-215.93 776.77,-167.43 786.72,-141.17"/>
<polygon fill="midnightblue" stroke="midnightblue" points="790.04,-142.28 790.16,-131.69 783.46,-139.9 790.04,-142.28"/>
</g>
<!-- Node22 -->
<g id="node22" class="node">
<title>Node22</title>
<g id="a_node22"><a xlink:title=" ">
<polygon fill="white" stroke="#bfbfbf" points="532,-224.5 532,-243.5 600,-243.5 600,-224.5 532,-224.5"/>
<text text-anchor="middle" x="566" y="-231.5" font-family="Helvetica,sans-Serif" font-size="10.00">filesystem</text>
</a>
</g>
</g>
<!-- Node20&#45;&gt;Node22 -->
<g id="edge43" class="edge">
<title>Node20&#45;&gt;Node22</title>
<path fill="none" stroke="midnightblue" d="M591.88,-280.08C587.59,-272.61 581.34,-261.72 576.06,-252.52"/>
<polygon fill="midnightblue" stroke="midnightblue" points="579.04,-250.68 571.02,-243.75 572.97,-254.17 579.04,-250.68"/>
</g>
<!-- Node21&#45;&gt;Node13 -->
<g id="edge38" class="edge">
<title>Node21&#45;&gt;Node13</title>
<path fill="none" stroke="midnightblue" d="M786.64,-112.37C773.22,-94.14 741.77,-51.43 724.28,-27.68"/>
<polygon fill="midnightblue" stroke="midnightblue" points="727.07,-25.57 718.33,-19.59 721.44,-29.72 727.07,-25.57"/>
</g>
</g>
</svg>
