<?xml version="1.0" encoding="UTF-8" standalone="no"?>
<!DOCTYPE svg PUBLIC "-//W3C//DTD SVG 1.1//EN"
 "http://www.w3.org/Graphics/SVG/1.1/DTD/svg11.dtd">
<!-- Generated by graphviz version 2.43.0 (0)
 -->
<!-- Title: ComSquare::APU::MemoryMap Pages: 1 -->
<svg width="301pt" height="768pt"
 viewBox="0.00 0.00 301.00 768.00" xmlns="http://www.w3.org/2000/svg" xmlns:xlink="http://www.w3.org/1999/xlink">
<g id="graph0" class="graph" transform="scale(1 1) rotate(0) translate(4 764)">
<title>ComSquare::APU::MemoryMap</title>
<polygon fill="white" stroke="transparent" points="-4,4 -4,-764 297,-764 297,4 -4,4"/>
<!-- Node1 -->
<g id="node1" class="node">
<title>Node1</title>
<g id="a_node1"><a xlink:title=" ">
<polygon fill="#bfbfbf" stroke="black" points="62.5,-0.5 62.5,-90.5 229.5,-90.5 229.5,-0.5 62.5,-0.5"/>
<text text-anchor="middle" x="146" y="-78.5" font-family="Helvetica,sans-Serif" font-size="10.00">ComSquare::APU::MemoryMap</text>
<polyline fill="none" stroke="black" points="62.5,-71.5 229.5,-71.5 "/>
<text text-anchor="middle" x="146" y="-59.5" font-family="Helvetica,sans-Serif" font-size="10.00"> </text>
<polyline fill="none" stroke="black" points="62.5,-52.5 229.5,-52.5 "/>
<text text-anchor="start" x="70.5" y="-40.5" font-family="Helvetica,sans-Serif" font-size="10.00">+ MemoryMap()</text>
<text text-anchor="start" x="70.5" y="-29.5" font-family="Helvetica,sans-Serif" font-size="10.00">+ MemoryMap()</text>
<text text-anchor="start" x="70.5" y="-18.5" font-family="Helvetica,sans-Serif" font-size="10.00">+ operator=()</text>
<text text-anchor="start" x="70.5" y="-7.5" font-family="Helvetica,sans-Serif" font-size="10.00">+ ~MemoryMap()</text>
</a>
</g>
</g>
<!-- Node2 -->
<g id="node2" class="node">
<title>Node2</title>
<g id="a_node2"><a xlink:href="classComSquare_1_1Ram_1_1Ram.html" target="_top" xlink:title=" ">
<polygon fill="white" stroke="black" points="5,-160.5 5,-382.5 135,-382.5 135,-160.5 5,-160.5"/>
<text text-anchor="middle" x="70" y="-370.5" font-family="Helvetica,sans-Serif" font-size="10.00">ComSquare::Ram::Ram</text>
<polyline fill="none" stroke="black" points="5,-363.5 135,-363.5 "/>
<text text-anchor="start" x="13" y="-351.5" font-family="Helvetica,sans-Serif" font-size="10.00"># _data</text>
<text text-anchor="start" x="13" y="-340.5" font-family="Helvetica,sans-Serif" font-size="10.00"># _ramType</text>
<text text-anchor="start" x="13" y="-329.5" font-family="Helvetica,sans-Serif" font-size="10.00"># _ramName</text>
<polyline fill="none" stroke="black" points="5,-322.5 135,-322.5 "/>
<text text-anchor="start" x="13" y="-310.5" font-family="Helvetica,sans-Serif" font-size="10.00">+ Ram()</text>
<text text-anchor="start" x="13" y="-299.5" font-family="Helvetica,sans-Serif" font-size="10.00">+ Ram()</text>
<text text-anchor="start" x="13" y="-288.5" font-family="Helvetica,sans-Serif" font-size="10.00">+ operator=()</text>
<text text-anchor="start" x="13" y="-277.5" font-family="Helvetica,sans-Serif" font-size="10.00">+ ~Ram()</text>
<text text-anchor="start" x="13" y="-266.5" font-family="Helvetica,sans-Serif" font-size="10.00">+ read()</text>
<text text-anchor="start" x="13" y="-255.5" font-family="Helvetica,sans-Serif" font-size="10.00">+ write()</text>
<text text-anchor="start" x="13" y="-244.5" font-family="Helvetica,sans-Serif" font-size="10.00">+ operator[]()</text>
<text text-anchor="start" x="13" y="-233.5" font-family="Helvetica,sans-Serif" font-size="10.00">+ operator[]()</text>
<text text-anchor="start" x="13" y="-222.5" font-family="Helvetica,sans-Serif" font-size="10.00">+ getName()</text>
<text text-anchor="start" x="13" y="-211.5" font-family="Helvetica,sans-Serif" font-size="10.00">+ getComponent()</text>
<text text-anchor="start" x="13" y="-200.5" font-family="Helvetica,sans-Serif" font-size="10.00">+ getSize()</text>
<text text-anchor="start" x="13" y="-189.5" font-family="Helvetica,sans-Serif" font-size="10.00">+ setSize()</text>
<text text-anchor="start" x="13" y="-178.5" font-family="Helvetica,sans-Serif" font-size="10.00">+ getData()</text>
<text text-anchor="start" x="13" y="-167.5" font-family="Helvetica,sans-Serif" font-size="10.00">+ getData()</text>
</a>
</g>
</g>
<!-- Node2&#45;&gt;Node1 -->
<g id="edge1" class="edge">
<title>Node2&#45;&gt;Node1</title>
<path fill="none" stroke="#404040" d="M107.33,-160.47C114.2,-140.24 121.09,-119.92 127.12,-102.15"/>
<polygon fill="none" stroke="#404040" points="127.19,-101.95 125.33,-94.98 131.04,-90.59 132.9,-97.56 127.19,-101.95"/>
<text text-anchor="middle" x="148.5" y="-134" font-family="Helvetica,sans-Serif" font-size="10.00"> +Page0</text>
<text text-anchor="middle" x="148.5" y="-123" font-family="Helvetica,sans-Serif" font-size="10.00">+Page1</text>
<text text-anchor="middle" x="148.5" y="-112" font-family="Helvetica,sans-Serif" font-size="10.00">+Memory</text>
</g>
<!-- Node3 -->
<g id="node3" class="node">
<title>Node3</title>
<g id="a_node3"><a xlink:href="classComSquare_1_1Memory_1_1ARectangleMemory.html" target="_top" xlink:title="Base memory class to map non continuous rectangle to the memory. (A rectangle that spam across more t...">
<polygon fill="white" stroke="black" points="0,-420.5 0,-565.5 140,-565.5 140,-420.5 0,-420.5"/>
<text text-anchor="start" x="8" y="-553.5" font-family="Helvetica,sans-Serif" font-size="10.00">ComSquare::Memory::</text>
<text text-anchor="middle" x="70" y="-542.5" font-family="Helvetica,sans-Serif" font-size="10.00">ARectangleMemory</text>
<polyline fill="none" stroke="black" points="0,-535.5 140,-535.5 "/>
<text text-anchor="start" x="8" y="-523.5" font-family="Helvetica,sans-Serif" font-size="10.00"># _startBank</text>
<text text-anchor="start" x="8" y="-512.5" font-family="Helvetica,sans-Serif" font-size="10.00"># _endBank</text>
<text text-anchor="start" x="8" y="-501.5" font-family="Helvetica,sans-Serif" font-size="10.00"># _startPage</text>
<text text-anchor="start" x="8" y="-490.5" font-family="Helvetica,sans-Serif" font-size="10.00"># _endPage</text>
<polyline fill="none" stroke="black" points="0,-483.5 140,-483.5 "/>
<text text-anchor="start" x="8" y="-471.5" font-family="Helvetica,sans-Serif" font-size="10.00">+ getRelativeAddress()</text>
<text text-anchor="start" x="8" y="-460.5" font-family="Helvetica,sans-Serif" font-size="10.00">+ hasMemoryAt()</text>
<text text-anchor="start" x="8" y="-449.5" font-family="Helvetica,sans-Serif" font-size="10.00">+ setMemoryRegion()</text>
<text text-anchor="start" x="8" y="-438.5" font-family="Helvetica,sans-Serif" font-size="10.00">+ getValueName()</text>
<text text-anchor="start" x="8" y="-427.5" font-family="Helvetica,sans-Serif" font-size="10.00">+ ~ARectangleMemory()</text>
</a>
</g>
</g>
<!-- Node3&#45;&gt;Node2 -->
<g id="edge2" class="edge">
<title>Node3&#45;&gt;Node2</title>
<path fill="none" stroke="midnightblue" d="M70,-410.33C70,-401.27 70,-391.93 70,-382.6"/>
<polygon fill="none" stroke="midnightblue" points="66.5,-410.43 70,-420.43 73.5,-410.43 66.5,-410.43"/>
</g>
<!-- Node4 -->
<g id="node4" class="node">
<title>Node4</title>
<g id="a_node4"><a xlink:href="classComSquare_1_1Memory_1_1IMemory.html" target="_top" xlink:title="Common interface implemented by all components mapping memory.">
<polygon fill="white" stroke="black" points="80.5,-603.5 80.5,-759.5 211.5,-759.5 211.5,-603.5 80.5,-603.5"/>
<text text-anchor="start" x="88.5" y="-747.5" font-family="Helvetica,sans-Serif" font-size="10.00">ComSquare::Memory::</text>
<text text-anchor="middle" x="146" y="-736.5" font-family="Helvetica,sans-Serif" font-size="10.00">IMemory</text>
<polyline fill="none" stroke="black" points="80.5,-729.5 211.5,-729.5 "/>
<text text-anchor="middle" x="146" y="-717.5" font-family="Helvetica,sans-Serif" font-size="10.00"> </text>
<polyline fill="none" stroke="black" points="80.5,-710.5 211.5,-710.5 "/>
<text text-anchor="start" x="88.5" y="-698.5" font-family="Helvetica,sans-Serif" font-size="10.00">+ read()</text>
<text text-anchor="start" x="88.5" y="-687.5" font-family="Helvetica,sans-Serif" font-size="10.00">+ write()</text>
<text text-anchor="start" x="88.5" y="-676.5" font-family="Helvetica,sans-Serif" font-size="10.00">+ hasMemoryAt()</text>
<text text-anchor="start" x="88.5" y="-665.5" font-family="Helvetica,sans-Serif" font-size="10.00">+ getRelativeAddress()</text>
<text text-anchor="start" x="88.5" y="-654.5" font-family="Helvetica,sans-Serif" font-size="10.00">+ getSize()</text>
<text text-anchor="start" x="88.5" y="-643.5" font-family="Helvetica,sans-Serif" font-size="10.00">+ getName()</text>
<text text-anchor="start" x="88.5" y="-632.5" font-family="Helvetica,sans-Serif" font-size="10.00">+ getComponent()</text>
<text text-anchor="start" x="88.5" y="-621.5" font-family="Helvetica,sans-Serif" font-size="10.00">+ getValueName()</text>
<text text-anchor="start" x="88.5" y="-610.5" font-family="Helvetica,sans-Serif" font-size="10.00">+ ~IMemory()</text>
</a>
</g>
</g>
<!-- Node4&#45;&gt;Node3 -->
<g id="edge3" class="edge">
<title>Node4&#45;&gt;Node3</title>
<path fill="none" stroke="midnightblue" d="M110.72,-593.92C106.88,-584.5 103,-574.98 99.24,-565.76"/>
<polygon fill="none" stroke="midnightblue" points="107.52,-595.36 114.54,-603.3 114.01,-592.72 107.52,-595.36"/>
</g>
<!-- Node6 -->
<g id="node6" class="node">
<title>Node6</title>
<g id="a_node6"><a xlink:href="classComSquare_1_1Memory_1_1AMemory.html" target="_top" xlink:title="Abstract class representing a continuous block of memory.">
<polygon fill="white" stroke="black" points="158.5,-437 158.5,-549 289.5,-549 289.5,-437 158.5,-437"/>
<text text-anchor="start" x="166.5" y="-537" font-family="Helvetica,sans-Serif" font-size="10.00">ComSquare::Memory::</text>
<text text-anchor="middle" x="224" y="-526" font-family="Helvetica,sans-Serif" font-size="10.00">AMemory</text>
<polyline fill="none" stroke="black" points="158.5,-519 289.5,-519 "/>
<text text-anchor="start" x="166.5" y="-507" font-family="Helvetica,sans-Serif" font-size="10.00"># _start</text>
<text text-anchor="start" x="166.5" y="-496" font-family="Helvetica,sans-Serif" font-size="10.00"># _end</text>
<polyline fill="none" stroke="black" points="158.5,-489 289.5,-489 "/>
<text text-anchor="start" x="166.5" y="-477" font-family="Helvetica,sans-Serif" font-size="10.00">+ getRelativeAddress()</text>
<text text-anchor="start" x="166.5" y="-466" font-family="Helvetica,sans-Serif" font-size="10.00">+ setMemoryRegion()</text>
<text text-anchor="start" x="166.5" y="-455" font-family="Helvetica,sans-Serif" font-size="10.00">+ hasMemoryAt()</text>
<text text-anchor="start" x="166.5" y="-444" font-family="Helvetica,sans-Serif" font-size="10.00">+ ~AMemory()</text>
</a>
</g>
</g>
<!-- Node4&#45;&gt;Node6 -->
<g id="edge6" class="edge">
<title>Node4&#45;&gt;Node6</title>
<path fill="none" stroke="midnightblue" d="M182.22,-593.89C188.58,-578.7 195.03,-563.27 200.9,-549.24"/>
<polygon fill="none" stroke="midnightblue" points="178.92,-592.72 178.29,-603.3 185.38,-595.42 178.92,-592.72"/>
</g>
<!-- Node5 -->
<g id="node5" class="node">
<title>Node5</title>
<g id="a_node5"><a xlink:href="classComSquare_1_1APU_1_1IPL_1_1IPL.html" target="_top" xlink:title=" ">
<polygon fill="white" stroke="black" points="153,-166 153,-377 293,-377 293,-166 153,-166"/>
<text text-anchor="middle" x="223" y="-365" font-family="Helvetica,sans-Serif" font-size="10.00">ComSquare::APU::IPL::IPL</text>
<polyline fill="none" stroke="black" points="153,-358 293,-358 "/>
<text text-anchor="start" x="161" y="-346" font-family="Helvetica,sans-Serif" font-size="10.00"># _data</text>
<text text-anchor="start" x="161" y="-335" font-family="Helvetica,sans-Serif" font-size="10.00"># _size</text>
<text text-anchor="start" x="161" y="-324" font-family="Helvetica,sans-Serif" font-size="10.00"># _iplType</text>
<text text-anchor="start" x="161" y="-313" font-family="Helvetica,sans-Serif" font-size="10.00"># _iplName</text>
<polyline fill="none" stroke="black" points="153,-306 293,-306 "/>
<text text-anchor="start" x="161" y="-294" font-family="Helvetica,sans-Serif" font-size="10.00">+ IPL()</text>
<text text-anchor="start" x="161" y="-283" font-family="Helvetica,sans-Serif" font-size="10.00">+ IPL()</text>
<text text-anchor="start" x="161" y="-272" font-family="Helvetica,sans-Serif" font-size="10.00">+ operator=()</text>
<text text-anchor="start" x="161" y="-261" font-family="Helvetica,sans-Serif" font-size="10.00">+ ~IPL()</text>
<text text-anchor="start" x="161" y="-250" font-family="Helvetica,sans-Serif" font-size="10.00">+ read()</text>
<text text-anchor="start" x="161" y="-239" font-family="Helvetica,sans-Serif" font-size="10.00">+ write()</text>
<text text-anchor="start" x="161" y="-228" font-family="Helvetica,sans-Serif" font-size="10.00">+ operator[]()</text>
<text text-anchor="start" x="161" y="-217" font-family="Helvetica,sans-Serif" font-size="10.00">+ operator[]()</text>
<text text-anchor="start" x="161" y="-206" font-family="Helvetica,sans-Serif" font-size="10.00">+ getSize()</text>
<text text-anchor="start" x="161" y="-195" font-family="Helvetica,sans-Serif" font-size="10.00">+ getName()</text>
<text text-anchor="start" x="161" y="-184" font-family="Helvetica,sans-Serif" font-size="10.00">+ getComponent()</text>
<text text-anchor="start" x="161" y="-173" font-family="Helvetica,sans-Serif" font-size="10.00">+ getValueName()</text>
</a>
</g>
</g>
<!-- Node5&#45;&gt;Node1 -->
<g id="edge4" class="edge">
<title>Node5&#45;&gt;Node1</title>
<path fill="none" stroke="#404040" d="M196.19,-165.76C190.46,-146.67 183.99,-127.08 177,-109 176.1,-106.66 175.13,-104.29 174.13,-101.91"/>
<polygon fill="none" stroke="#404040" points="174.06,-101.75 167.97,-97.88 169.2,-90.78 175.29,-94.64 174.06,-101.75"/>
<text text-anchor="middle" x="201" y="-123" font-family="Helvetica,sans-Serif" font-size="10.00"> +IPL</text>
</g>
<!-- Node6&#45;&gt;Node5 -->
<g id="edge5" class="edge">
<title>Node6&#45;&gt;Node5</title>
<path fill="none" stroke="midnightblue" d="M223.7,-426.86C223.63,-411.25 223.55,-394.19 223.48,-377.29"/>
<polygon fill="none" stroke="midnightblue" points="220.2,-426.91 223.75,-436.89 227.2,-426.88 220.2,-426.91"/>
</g>
</g>
</svg>
