<?xml version="1.0" encoding="UTF-8" standalone="no"?>
<!DOCTYPE svg PUBLIC "-//W3C//DTD SVG 1.1//EN"
 "http://www.w3.org/Graphics/SVG/1.1/DTD/svg11.dtd">
<!-- Generated by graphviz version 2.43.0 (0)
 -->
<!-- Title: ComSquare::Debugger::BusLog Pages: 1 -->
<svg width="139pt" height="314pt"
 viewBox="0.00 0.00 139.00 314.00" xmlns="http://www.w3.org/2000/svg" xmlns:xlink="http://www.w3.org/1999/xlink">
<g id="graph0" class="graph" transform="scale(1 1) rotate(0) translate(4 310)">
<title>ComSquare::Debugger::BusLog</title>
<polygon fill="white" stroke="transparent" points="-4,4 -4,-310 135,-310 135,4 -4,4"/>
<!-- Node1 -->
<g id="node1" class="node">
<title>Node1</title>
<g id="a_node1"><a xlink:title="The struct used to represent memory bus logs.">
<polygon fill="#bfbfbf" stroke="black" points="2.5,-0.5 2.5,-101.5 128.5,-101.5 128.5,-0.5 2.5,-0.5"/>
<text text-anchor="start" x="10.5" y="-89.5" font-family="Helvetica,sans-Serif" font-size="10.00">ComSquare::Debugger</text>
<text text-anchor="middle" x="65.5" y="-78.5" font-family="Helvetica,sans-Serif" font-size="10.00">::BusLog</text>
<polyline fill="none" stroke="black" points="2.5,-71.5 128.5,-71.5 "/>
<text text-anchor="start" x="10.5" y="-59.5" font-family="Helvetica,sans-Serif" font-size="10.00">+ write</text>
<text text-anchor="start" x="10.5" y="-48.5" font-family="Helvetica,sans-Serif" font-size="10.00">+ addr</text>
<text text-anchor="start" x="10.5" y="-37.5" font-family="Helvetica,sans-Serif" font-size="10.00">+ oldData</text>
<text text-anchor="start" x="10.5" y="-26.5" font-family="Helvetica,sans-Serif" font-size="10.00">+ newData</text>
<polyline fill="none" stroke="black" points="2.5,-19.5 128.5,-19.5 "/>
<text text-anchor="start" x="10.5" y="-7.5" font-family="Helvetica,sans-Serif" font-size="10.00">+ BusLog()</text>
</a>
</g>
</g>
<!-- Node2 -->
<g id="node2" class="node">
<title>Node2</title>
<g id="a_node2"><a xlink:href="classComSquare_1_1Memory_1_1IMemory.html" target="_top" xlink:title="Common interface implemented by all components mapping memory.">
<polygon fill="white" stroke="black" points="0,-149.5 0,-305.5 131,-305.5 131,-149.5 0,-149.5"/>
<text text-anchor="start" x="8" y="-293.5" font-family="Helvetica,sans-Serif" font-size="10.00">ComSquare::Memory::</text>
<text text-anchor="middle" x="65.5" y="-282.5" font-family="Helvetica,sans-Serif" font-size="10.00">IMemory</text>
<polyline fill="none" stroke="black" points="0,-275.5 131,-275.5 "/>
<text text-anchor="middle" x="65.5" y="-263.5" font-family="Helvetica,sans-Serif" font-size="10.00"> </text>
<polyline fill="none" stroke="black" points="0,-256.5 131,-256.5 "/>
<text text-anchor="start" x="8" y="-244.5" font-family="Helvetica,sans-Serif" font-size="10.00">+ read()</text>
<text text-anchor="start" x="8" y="-233.5" font-family="Helvetica,sans-Serif" font-size="10.00">+ write()</text>
<text text-anchor="start" x="8" y="-222.5" font-family="Helvetica,sans-Serif" font-size="10.00">+ hasMemoryAt()</text>
<text text-anchor="start" x="8" y="-211.5" font-family="Helvetica,sans-Serif" font-size="10.00">+ getRelativeAddress()</text>
<text text-anchor="start" x="8" y="-200.5" font-family="Helvetica,sans-Serif" font-size="10.00">+ getSize()</text>
<text text-anchor="start" x="8" y="-189.5" font-family="Helvetica,sans-Serif" font-size="10.00">+ getName()</text>
<text text-anchor="start" x="8" y="-178.5" font-family="Helvetica,sans-Serif" font-size="10.00">+ getComponent()</text>
<text text-anchor="start" x="8" y="-167.5" font-family="Helvetica,sans-Serif" font-size="10.00">+ getValueName()</text>
<text text-anchor="start" x="8" y="-156.5" font-family="Helvetica,sans-Serif" font-size="10.00">+ ~IMemory()</text>
</a>
</g>
</g>
<!-- Node2&#45;&gt;Node1 -->
<g id="edge1" class="edge">
<title>Node2&#45;&gt;Node1</title>
<path fill="none" stroke="#404040" d="M65.5,-149.45C65.5,-137.52 65.5,-125.33 65.5,-113.78"/>
<polygon fill="none" stroke="#404040" points="65.5,-113.56 61.5,-107.56 65.5,-101.56 69.5,-107.56 65.5,-113.56"/>
<text text-anchor="middle" x="93" y="-123" font-family="Helvetica,sans-Serif" font-size="10.00"> +accessor</text>
</g>
</g>
</svg>
