<?xml version="1.0" encoding="UTF-8" standalone="no"?>
<!DOCTYPE svg PUBLIC "-//W3C//DTD SVG 1.1//EN"
 "http://www.w3.org/Graphics/SVG/1.1/DTD/svg11.dtd">
<!-- Generated by graphviz version 2.43.0 (0)
 -->
<!-- Title: sources/APU/Instructions/Subroutine.cpp Pages: 1 -->
<svg width="1011pt" height="431pt"
 viewBox="0.00 0.00 1010.50 431.00" xmlns="http://www.w3.org/2000/svg" xmlns:xlink="http://www.w3.org/1999/xlink">
<g id="graph0" class="graph" transform="scale(1 1) rotate(0) translate(4 427)">
<title>sources/APU/Instructions/Subroutine.cpp</title>
<polygon fill="white" stroke="transparent" points="-4,4 -4,-427 1006.5,-427 1006.5,4 -4,4"/>
<!-- Node1 -->
<g id="node1" class="node">
<title>Node1</title>
<g id="a_node1"><a xlink:title=" ">
<polygon fill="#bfbfbf" stroke="black" points="552.5,-392.5 552.5,-422.5 689.5,-422.5 689.5,-392.5 552.5,-392.5"/>
<text text-anchor="start" x="560.5" y="-410.5" font-family="Helvetica,sans-Serif" font-size="10.00">sources/APU/Instructions</text>
<text text-anchor="middle" x="621" y="-399.5" font-family="Helvetica,sans-Serif" font-size="10.00">/Subroutine.cpp</text>
</a>
</g>
</g>
<!-- Node2 -->
<g id="node2" class="node">
<title>Node2</title>
<g id="a_node2"><a xlink:href="APU_8hpp.html" target="_top" xlink:title=" ">
<polygon fill="white" stroke="black" points="309.5,-336.5 309.5,-355.5 390.5,-355.5 390.5,-336.5 309.5,-336.5"/>
<text text-anchor="middle" x="350" y="-343.5" font-family="Helvetica,sans-Serif" font-size="10.00">APU/APU.hpp</text>
</a>
</g>
</g>
<!-- Node1&#45;&gt;Node2 -->
<g id="edge1" class="edge">
<title>Node1&#45;&gt;Node2</title>
<path fill="none" stroke="midnightblue" d="M557.12,-392.47C508.63,-381.83 442.97,-367.41 398.69,-357.69"/>
<polygon fill="midnightblue" stroke="midnightblue" points="399.26,-354.23 388.74,-355.51 397.76,-361.07 399.26,-354.23"/>
</g>
<!-- Node23 -->
<g id="node23" class="node">
<title>Node23</title>
<g id="a_node23"><a xlink:href="Utility_8hpp.html" target="_top" xlink:title=" ">
<polygon fill="white" stroke="black" points="903.5,-112.5 903.5,-131.5 1002.5,-131.5 1002.5,-112.5 903.5,-112.5"/>
<text text-anchor="middle" x="953" y="-119.5" font-family="Helvetica,sans-Serif" font-size="10.00">Utility/Utility.hpp</text>
</a>
</g>
</g>
<!-- Node1&#45;&gt;Node23 -->
<g id="edge45" class="edge">
<title>Node1&#45;&gt;Node23</title>
<path fill="none" stroke="midnightblue" d="M689.51,-394.91C779.99,-377.62 928,-341.61 928,-291 928,-291 928,-291 928,-233 928,-200 938.83,-162.77 946.24,-141.19"/>
<polygon fill="midnightblue" stroke="midnightblue" points="949.57,-142.28 949.63,-131.69 942.97,-139.93 949.57,-142.28"/>
</g>
<!-- Node3 -->
<g id="node3" class="node">
<title>Node3</title>
<g id="a_node3"><a xlink:title=" ">
<polygon fill="white" stroke="#bfbfbf" points="68,-56.5 68,-75.5 126,-75.5 126,-56.5 68,-56.5"/>
<text text-anchor="middle" x="97" y="-63.5" font-family="Helvetica,sans-Serif" font-size="10.00">memory</text>
</a>
</g>
</g>
<!-- Node2&#45;&gt;Node3 -->
<g id="edge2" class="edge">
<title>Node2&#45;&gt;Node3</title>
<path fill="none" stroke="midnightblue" d="M309.37,-341.26C255.6,-335.49 164.8,-322.64 141,-300 80.64,-242.57 88.22,-130.32 94.04,-85.82"/>
<polygon fill="midnightblue" stroke="midnightblue" points="97.52,-86.22 95.47,-75.82 90.59,-85.23 97.52,-86.22"/>
</g>
<!-- Node4 -->
<g id="node4" class="node">
<title>Node4</title>
<g id="a_node4"><a xlink:href="DSP_8hpp.html" target="_top" xlink:title=" ">
<polygon fill="white" stroke="black" points="176,-280.5 176,-299.5 254,-299.5 254,-280.5 176,-280.5"/>
<text text-anchor="middle" x="215" y="-287.5" font-family="Helvetica,sans-Serif" font-size="10.00">DSP/DSP.hpp</text>
</a>
</g>
</g>
<!-- Node2&#45;&gt;Node4 -->
<g id="edge3" class="edge">
<title>Node2&#45;&gt;Node4</title>
<path fill="none" stroke="midnightblue" d="M328.61,-336.44C306.29,-327.52 271.1,-313.44 245.79,-303.32"/>
<polygon fill="midnightblue" stroke="midnightblue" points="246.88,-299.98 236.29,-299.52 244.28,-306.48 246.88,-299.98"/>
</g>
<!-- Node7 -->
<g id="node7" class="node">
<title>Node7</title>
<g id="a_node7"><a xlink:href="IRenderer_8hpp.html" target="_top" xlink:title=" ">
<polygon fill="white" stroke="black" points="319.5,-224.5 319.5,-243.5 450.5,-243.5 450.5,-224.5 319.5,-224.5"/>
<text text-anchor="middle" x="385" y="-231.5" font-family="Helvetica,sans-Serif" font-size="10.00">Renderer/IRenderer.hpp</text>
</a>
</g>
</g>
<!-- Node2&#45;&gt;Node7 -->
<g id="edge35" class="edge">
<title>Node2&#45;&gt;Node7</title>
<path fill="none" stroke="midnightblue" d="M352.75,-336.37C358.42,-318.54 371.54,-277.3 379.19,-253.27"/>
<polygon fill="midnightblue" stroke="midnightblue" points="382.57,-254.18 382.27,-243.59 375.9,-252.06 382.57,-254.18"/>
</g>
<!-- Node10 -->
<g id="node10" class="node">
<title>Node10</title>
<g id="a_node10"><a xlink:href="AMemory_8hpp.html" target="_top" xlink:title=" ">
<polygon fill="white" stroke="black" points="151.5,-168.5 151.5,-187.5 278.5,-187.5 278.5,-168.5 151.5,-168.5"/>
<text text-anchor="middle" x="215" y="-175.5" font-family="Helvetica,sans-Serif" font-size="10.00">Memory/AMemory.hpp</text>
</a>
</g>
</g>
<!-- Node2&#45;&gt;Node10 -->
<g id="edge25" class="edge">
<title>Node2&#45;&gt;Node10</title>
<path fill="none" stroke="midnightblue" d="M309.26,-344.16C269.28,-341.38 208.44,-331.71 167,-300 138.03,-277.83 117.67,-255.54 136,-224 144.74,-208.97 160.58,-198.54 175.79,-191.54"/>
<polygon fill="midnightblue" stroke="midnightblue" points="177.26,-194.72 185.12,-187.61 174.54,-188.27 177.26,-194.72"/>
</g>
<!-- Node17 -->
<g id="node17" class="node">
<title>Node17</title>
<g id="a_node17"><a xlink:href="Ram_8hpp.html" target="_top" xlink:title=" ">
<polygon fill="white" stroke="black" points="469,-224.5 469,-243.5 555,-243.5 555,-224.5 469,-224.5"/>
<text text-anchor="middle" x="512" y="-231.5" font-family="Helvetica,sans-Serif" font-size="10.00">Ram/Ram.hpp</text>
</a>
</g>
</g>
<!-- Node2&#45;&gt;Node17 -->
<g id="edge26" class="edge">
<title>Node2&#45;&gt;Node17</title>
<path fill="none" stroke="midnightblue" d="M362.71,-336.37C390.51,-317.49 456.94,-272.38 491.03,-249.24"/>
<polygon fill="midnightblue" stroke="midnightblue" points="493.04,-252.1 499.35,-243.59 489.11,-246.31 493.04,-252.1"/>
</g>
<!-- Node19 -->
<g id="node19" class="node">
<title>Node19</title>
<g id="a_node19"><a xlink:href="IPL_8hpp.html" target="_top" xlink:title=" ">
<polygon fill="white" stroke="black" points="276.5,-280.5 276.5,-299.5 345.5,-299.5 345.5,-280.5 276.5,-280.5"/>
<text text-anchor="middle" x="311" y="-287.5" font-family="Helvetica,sans-Serif" font-size="10.00">IPL/IPL.hpp</text>
</a>
</g>
</g>
<!-- Node2&#45;&gt;Node19 -->
<g id="edge33" class="edge">
<title>Node2&#45;&gt;Node19</title>
<path fill="none" stroke="midnightblue" d="M343.56,-336.08C338.05,-328.46 329.97,-317.26 323.24,-307.94"/>
<polygon fill="midnightblue" stroke="midnightblue" points="326.01,-305.81 317.32,-299.75 320.34,-309.91 326.01,-305.81"/>
</g>
<!-- Node20 -->
<g id="node20" class="node">
<title>Node20</title>
<g id="a_node20"><a xlink:href="Cartridge_8hpp.html" target="_top" xlink:title=" ">
<polygon fill="white" stroke="black" points="598.5,-280.5 598.5,-299.5 729.5,-299.5 729.5,-280.5 598.5,-280.5"/>
<text text-anchor="middle" x="664" y="-287.5" font-family="Helvetica,sans-Serif" font-size="10.00">Cartridge/Cartridge.hpp</text>
</a>
</g>
</g>
<!-- Node2&#45;&gt;Node20 -->
<g id="edge36" class="edge">
<title>Node2&#45;&gt;Node20</title>
<path fill="none" stroke="midnightblue" d="M390.73,-338C445.12,-328.64 541.85,-312.01 604.43,-301.24"/>
<polygon fill="midnightblue" stroke="midnightblue" points="605.29,-304.65 614.56,-299.5 604.11,-297.75 605.29,-304.65"/>
</g>
<!-- Node5 -->
<g id="node5" class="node">
<title>Node5</title>
<g id="a_node5"><a xlink:title=" ">
<polygon fill="white" stroke="#bfbfbf" points="0,-56.5 0,-75.5 50,-75.5 50,-56.5 0,-56.5"/>
<text text-anchor="middle" x="25" y="-63.5" font-family="Helvetica,sans-Serif" font-size="10.00">cstdint</text>
</a>
</g>
</g>
<!-- Node4&#45;&gt;Node5 -->
<g id="edge4" class="edge">
<title>Node4&#45;&gt;Node5</title>
<path fill="none" stroke="midnightblue" d="M193.69,-280.36C176.63,-272.68 152.86,-260.17 136,-244 85.45,-195.55 48.02,-119.53 32.67,-85.06"/>
<polygon fill="midnightblue" stroke="midnightblue" points="35.83,-83.55 28.62,-75.78 29.41,-86.34 35.83,-83.55"/>
</g>
<!-- Node6 -->
<g id="node6" class="node">
<title>Node6</title>
<g id="a_node6"><a xlink:title=" ">
<polygon fill="white" stroke="#bfbfbf" points="145,-224.5 145,-243.5 187,-243.5 187,-224.5 145,-224.5"/>
<text text-anchor="middle" x="166" y="-231.5" font-family="Helvetica,sans-Serif" font-size="10.00">array</text>
</a>
</g>
</g>
<!-- Node4&#45;&gt;Node6 -->
<g id="edge5" class="edge">
<title>Node4&#45;&gt;Node6</title>
<path fill="none" stroke="midnightblue" d="M206.91,-280.08C199.84,-272.3 189.41,-260.8 180.85,-251.37"/>
<polygon fill="midnightblue" stroke="midnightblue" points="183.25,-248.8 173.94,-243.75 178.07,-253.51 183.25,-248.8"/>
</g>
<!-- Node4&#45;&gt;Node7 -->
<g id="edge6" class="edge">
<title>Node4&#45;&gt;Node7</title>
<path fill="none" stroke="midnightblue" d="M241.94,-280.44C270.66,-271.32 316.33,-256.81 348.32,-246.65"/>
<polygon fill="midnightblue" stroke="midnightblue" points="349.72,-249.88 358.19,-243.52 347.6,-243.21 349.72,-249.88"/>
</g>
<!-- Node4&#45;&gt;Node10 -->
<g id="edge9" class="edge">
<title>Node4&#45;&gt;Node10</title>
<path fill="none" stroke="midnightblue" d="M215,-280.37C215,-262.62 215,-221.67 215,-197.6"/>
<polygon fill="midnightblue" stroke="midnightblue" points="218.5,-197.59 215,-187.59 211.5,-197.59 218.5,-197.59"/>
</g>
<!-- Node8 -->
<g id="node8" class="node">
<title>Node8</title>
<g id="a_node8"><a xlink:title=" ">
<polygon fill="white" stroke="#bfbfbf" points="411,-56.5 411,-75.5 455,-75.5 455,-56.5 411,-56.5"/>
<text text-anchor="middle" x="433" y="-63.5" font-family="Helvetica,sans-Serif" font-size="10.00">string</text>
</a>
</g>
</g>
<!-- Node7&#45;&gt;Node8 -->
<g id="edge7" class="edge">
<title>Node7&#45;&gt;Node8</title>
<path fill="none" stroke="midnightblue" d="M376.6,-224.38C365.73,-212.12 348.96,-188.84 356,-168 367.79,-133.09 397,-100.71 415.87,-82.44"/>
<polygon fill="midnightblue" stroke="midnightblue" points="418.35,-84.91 423.23,-75.51 413.55,-79.81 418.35,-84.91"/>
</g>
<!-- Node9 -->
<g id="node9" class="node">
<title>Node9</title>
<g id="a_node9"><a xlink:title=" ">
<polygon fill="white" stroke="#bfbfbf" points="365,-168.5 365,-187.5 405,-187.5 405,-168.5 365,-168.5"/>
<text text-anchor="middle" x="385" y="-175.5" font-family="Helvetica,sans-Serif" font-size="10.00">span</text>
</a>
</g>
</g>
<!-- Node7&#45;&gt;Node9 -->
<g id="edge8" class="edge">
<title>Node7&#45;&gt;Node9</title>
<path fill="none" stroke="midnightblue" d="M385,-224.08C385,-217.01 385,-206.86 385,-197.99"/>
<polygon fill="midnightblue" stroke="midnightblue" points="388.5,-197.75 385,-187.75 381.5,-197.75 388.5,-197.75"/>
</g>
<!-- Node10&#45;&gt;Node3 -->
<g id="edge12" class="edge">
<title>Node10&#45;&gt;Node3</title>
<path fill="none" stroke="midnightblue" d="M202.79,-168.19C190.95,-159.46 172.67,-145.47 158,-132 141.01,-116.4 123.12,-96.93 111.14,-83.38"/>
<polygon fill="midnightblue" stroke="midnightblue" points="113.73,-81.02 104.51,-75.8 108.46,-85.63 113.73,-81.02"/>
</g>
<!-- Node10&#45;&gt;Node5 -->
<g id="edge10" class="edge">
<title>Node10&#45;&gt;Node5</title>
<path fill="none" stroke="midnightblue" d="M199.61,-168.47C183.46,-159.49 157.36,-144.9 135,-132 104.73,-114.55 70.07,-93.97 47.88,-80.71"/>
<polygon fill="midnightblue" stroke="midnightblue" points="49.56,-77.64 39.18,-75.51 45.97,-83.65 49.56,-77.64"/>
</g>
<!-- Node10&#45;&gt;Node8 -->
<g id="edge13" class="edge">
<title>Node10&#45;&gt;Node8</title>
<path fill="none" stroke="midnightblue" d="M231.96,-168.34C256.45,-155.86 303.16,-132.08 343,-112 364.32,-101.25 388.53,-89.16 406.47,-80.21"/>
<polygon fill="midnightblue" stroke="midnightblue" points="408.34,-83.19 415.73,-75.59 405.22,-76.92 408.34,-83.19"/>
</g>
<!-- Node11 -->
<g id="node11" class="node">
<title>Node11</title>
<g id="a_node11"><a xlink:title=" ">
<polygon fill="white" stroke="#bfbfbf" points="299.5,-56.5 299.5,-75.5 346.5,-75.5 346.5,-56.5 299.5,-56.5"/>
<text text-anchor="middle" x="323" y="-63.5" font-family="Helvetica,sans-Serif" font-size="10.00">vector</text>
</a>
</g>
</g>
<!-- Node10&#45;&gt;Node11 -->
<g id="edge11" class="edge">
<title>Node10&#45;&gt;Node11</title>
<path fill="none" stroke="midnightblue" d="M224.51,-168.18C234.1,-159.21 249.28,-144.84 262,-132 278.23,-115.61 296.24,-96.27 308.46,-82.97"/>
<polygon fill="midnightblue" stroke="midnightblue" points="311.08,-85.29 315.25,-75.55 305.91,-80.56 311.08,-85.29"/>
</g>
<!-- Node12 -->
<g id="node12" class="node">
<title>Node12</title>
<g id="a_node12"><a xlink:href="Ints_8hpp.html" target="_top" xlink:title=" ">
<polygon fill="white" stroke="black" points="662,-56.5 662,-75.5 756,-75.5 756,-56.5 662,-56.5"/>
<text text-anchor="middle" x="709" y="-63.5" font-family="Helvetica,sans-Serif" font-size="10.00">Models/Ints.hpp</text>
</a>
</g>
</g>
<!-- Node10&#45;&gt;Node12 -->
<g id="edge14" class="edge">
<title>Node10&#45;&gt;Node12</title>
<path fill="none" stroke="midnightblue" d="M253.35,-168.46C342.35,-148.64 562.78,-99.56 660.74,-77.75"/>
<polygon fill="midnightblue" stroke="midnightblue" points="661.67,-81.12 670.67,-75.53 660.15,-74.29 661.67,-81.12"/>
</g>
<!-- Node15 -->
<g id="node15" class="node">
<title>Node15</title>
<g id="a_node15"><a xlink:href="Components_8hpp.html" target="_top" xlink:title=" ">
<polygon fill="white" stroke="black" points="144.5,-56.5 144.5,-75.5 281.5,-75.5 281.5,-56.5 144.5,-56.5"/>
<text text-anchor="middle" x="213" y="-63.5" font-family="Helvetica,sans-Serif" font-size="10.00">Models/Components.hpp</text>
</a>
</g>
</g>
<!-- Node10&#45;&gt;Node15 -->
<g id="edge17" class="edge">
<title>Node10&#45;&gt;Node15</title>
<path fill="none" stroke="midnightblue" d="M199.27,-168.24C187.11,-160.48 171.19,-147.93 164,-132 155.34,-112.8 173.36,-93.93 189.94,-81.51"/>
<polygon fill="midnightblue" stroke="midnightblue" points="192.15,-84.24 198.33,-75.63 188.13,-78.5 192.15,-84.24"/>
</g>
<!-- Node16 -->
<g id="node16" class="node">
<title>Node16</title>
<g id="a_node16"><a xlink:href="IMemory_8hpp.html" target="_top" xlink:title=" ">
<polygon fill="white" stroke="black" points="173,-112.5 173,-131.5 253,-131.5 253,-112.5 173,-112.5"/>
<text text-anchor="middle" x="213" y="-119.5" font-family="Helvetica,sans-Serif" font-size="10.00">IMemory.hpp</text>
</a>
</g>
</g>
<!-- Node10&#45;&gt;Node16 -->
<g id="edge18" class="edge">
<title>Node10&#45;&gt;Node16</title>
<path fill="none" stroke="midnightblue" d="M214.67,-168.08C214.41,-161.01 214.03,-150.86 213.7,-141.99"/>
<polygon fill="midnightblue" stroke="midnightblue" points="217.19,-141.61 213.32,-131.75 210.2,-141.87 217.19,-141.61"/>
</g>
<!-- Node13 -->
<g id="node13" class="node">
<title>Node13</title>
<g id="a_node13"><a xlink:title=" ">
<polygon fill="white" stroke="#bfbfbf" points="779,-0.5 779,-19.5 841,-19.5 841,-0.5 779,-0.5"/>
<text text-anchor="middle" x="810" y="-7.5" font-family="Helvetica,sans-Serif" font-size="10.00">cinttypes</text>
</a>
</g>
</g>
<!-- Node12&#45;&gt;Node13 -->
<g id="edge15" class="edge">
<title>Node12&#45;&gt;Node13</title>
<path fill="none" stroke="midnightblue" d="M725.23,-56.32C741.35,-47.7 766.3,-34.36 784.96,-24.39"/>
<polygon fill="midnightblue" stroke="midnightblue" points="786.64,-27.46 793.81,-19.65 783.34,-21.28 786.64,-27.46"/>
</g>
<!-- Node14 -->
<g id="node14" class="node">
<title>Node14</title>
<g id="a_node14"><a xlink:title=" ">
<polygon fill="white" stroke="#bfbfbf" points="679,-0.5 679,-19.5 739,-19.5 739,-0.5 679,-0.5"/>
<text text-anchor="middle" x="709" y="-7.5" font-family="Helvetica,sans-Serif" font-size="10.00">iostream</text>
</a>
</g>
</g>
<!-- Node12&#45;&gt;Node14 -->
<g id="edge16" class="edge">
<title>Node12&#45;&gt;Node14</title>
<path fill="none" stroke="midnightblue" d="M709,-56.08C709,-49.01 709,-38.86 709,-29.99"/>
<polygon fill="midnightblue" stroke="midnightblue" points="712.5,-29.75 709,-19.75 705.5,-29.75 712.5,-29.75"/>
</g>
<!-- Node16&#45;&gt;Node3 -->
<g id="edge21" class="edge">
<title>Node16&#45;&gt;Node3</title>
<path fill="none" stroke="midnightblue" d="M194.62,-112.44C175.78,-103.68 146.27,-89.94 124.62,-79.86"/>
<polygon fill="midnightblue" stroke="midnightblue" points="125.84,-76.56 115.29,-75.52 122.88,-82.91 125.84,-76.56"/>
</g>
<!-- Node16&#45;&gt;Node5 -->
<g id="edge19" class="edge">
<title>Node16&#45;&gt;Node5</title>
<path fill="none" stroke="midnightblue" d="M183.21,-112.44C149.76,-102.83 95.52,-87.26 60.05,-77.07"/>
<polygon fill="midnightblue" stroke="midnightblue" points="60.72,-73.62 50.14,-74.22 58.78,-80.35 60.72,-73.62"/>
</g>
<!-- Node16&#45;&gt;Node8 -->
<g id="edge22" class="edge">
<title>Node16&#45;&gt;Node8</title>
<path fill="none" stroke="midnightblue" d="M247.86,-112.44C289.88,-102.13 359.92,-84.94 400.74,-74.92"/>
<polygon fill="midnightblue" stroke="midnightblue" points="401.82,-78.26 410.7,-72.47 400.15,-71.46 401.82,-78.26"/>
</g>
<!-- Node16&#45;&gt;Node11 -->
<g id="edge20" class="edge">
<title>Node16&#45;&gt;Node11</title>
<path fill="none" stroke="midnightblue" d="M230.67,-112.32C248.39,-103.62 275.9,-90.12 296.29,-80.11"/>
<polygon fill="midnightblue" stroke="midnightblue" points="297.94,-83.2 305.37,-75.65 294.85,-76.92 297.94,-83.2"/>
</g>
<!-- Node16&#45;&gt;Node12 -->
<g id="edge23" class="edge">
<title>Node16&#45;&gt;Node12</title>
<path fill="none" stroke="midnightblue" d="M253.17,-116.63C340.91,-107.07 549.93,-84.32 651.55,-73.25"/>
<polygon fill="midnightblue" stroke="midnightblue" points="652.07,-76.72 661.63,-72.16 651.31,-69.76 652.07,-76.72"/>
</g>
<!-- Node16&#45;&gt;Node15 -->
<g id="edge24" class="edge">
<title>Node16&#45;&gt;Node15</title>
<path fill="none" stroke="midnightblue" d="M213,-112.08C213,-105.01 213,-94.86 213,-85.99"/>
<polygon fill="midnightblue" stroke="midnightblue" points="216.5,-85.75 213,-75.75 209.5,-85.75 216.5,-85.75"/>
</g>
<!-- Node17&#45;&gt;Node8 -->
<g id="edge30" class="edge">
<title>Node17&#45;&gt;Node8</title>
<path fill="none" stroke="midnightblue" d="M507.75,-224.39C503.29,-215.35 496.1,-200.7 490,-188 472.41,-151.35 452.22,-108.23 441.21,-84.64"/>
<polygon fill="midnightblue" stroke="midnightblue" points="444.36,-83.11 436.97,-75.53 438.02,-86.07 444.36,-83.11"/>
</g>
<!-- Node17&#45;&gt;Node9 -->
<g id="edge31" class="edge">
<title>Node17&#45;&gt;Node9</title>
<path fill="none" stroke="midnightblue" d="M491.88,-224.44C470.98,-215.56 438.07,-201.56 414.28,-191.45"/>
<polygon fill="midnightblue" stroke="midnightblue" points="415.6,-188.21 405.03,-187.52 412.86,-194.65 415.6,-188.21"/>
</g>
<!-- Node17&#45;&gt;Node11 -->
<g id="edge32" class="edge">
<title>Node17&#45;&gt;Node11</title>
<path fill="none" stroke="midnightblue" d="M502.1,-224.31C471.74,-197.64 379.6,-116.72 340.67,-82.52"/>
<polygon fill="midnightblue" stroke="midnightblue" points="342.62,-79.57 332.8,-75.61 338,-84.83 342.62,-79.57"/>
</g>
<!-- Node18 -->
<g id="node18" class="node">
<title>Node18</title>
<g id="a_node18"><a xlink:href="ARectangleMemory_8hpp.html" target="_top" xlink:title=" ">
<polygon fill="white" stroke="black" points="499,-168.5 499,-187.5 675,-187.5 675,-168.5 499,-168.5"/>
<text text-anchor="middle" x="587" y="-175.5" font-family="Helvetica,sans-Serif" font-size="10.00">Memory/ARectangleMemory.hpp</text>
</a>
</g>
</g>
<!-- Node17&#45;&gt;Node18 -->
<g id="edge27" class="edge">
<title>Node17&#45;&gt;Node18</title>
<path fill="none" stroke="midnightblue" d="M524.05,-224.32C535.46,-216.11 552.83,-203.6 566.43,-193.81"/>
<polygon fill="midnightblue" stroke="midnightblue" points="568.66,-196.52 574.73,-187.83 564.57,-190.84 568.66,-196.52"/>
</g>
<!-- Node18&#45;&gt;Node12 -->
<g id="edge29" class="edge">
<title>Node18&#45;&gt;Node12</title>
<path fill="none" stroke="midnightblue" d="M596.57,-168.37C617.15,-149.81 665.84,-105.91 691.88,-82.44"/>
<polygon fill="midnightblue" stroke="midnightblue" points="694.39,-84.89 699.47,-75.59 689.7,-79.69 694.39,-84.89"/>
</g>
<!-- Node18&#45;&gt;Node16 -->
<g id="edge28" class="edge">
<title>Node18&#45;&gt;Node16</title>
<path fill="none" stroke="midnightblue" d="M527.74,-168.44C454.66,-157.89 331.73,-140.14 263.13,-130.24"/>
<polygon fill="midnightblue" stroke="midnightblue" points="263.41,-126.74 253.01,-128.78 262.41,-133.67 263.41,-126.74"/>
</g>
<!-- Node19&#45;&gt;Node10 -->
<g id="edge34" class="edge">
<title>Node19&#45;&gt;Node10</title>
<path fill="none" stroke="midnightblue" d="M303.47,-280.37C287.48,-262.05 249.95,-219.05 229.28,-195.36"/>
<polygon fill="midnightblue" stroke="midnightblue" points="231.71,-192.82 222.5,-187.59 226.44,-197.43 231.71,-192.82"/>
</g>
<!-- Node20&#45;&gt;Node8 -->
<g id="edge44" class="edge">
<title>Node20&#45;&gt;Node8</title>
<path fill="none" stroke="midnightblue" d="M669.33,-280.19C681.44,-258.91 708.2,-203.82 684,-168 634.23,-94.32 520.82,-74.38 465.1,-68.99"/>
<polygon fill="midnightblue" stroke="midnightblue" points="465.35,-65.5 455.08,-68.12 464.74,-72.47 465.35,-65.5"/>
</g>
<!-- Node20&#45;&gt;Node10 -->
<g id="edge39" class="edge">
<title>Node20&#45;&gt;Node10</title>
<path fill="none" stroke="midnightblue" d="M598.38,-289.64C525.81,-288.32 406.51,-280.06 311,-244 294.89,-237.92 257.42,-210.92 234.34,-193.69"/>
<polygon fill="midnightblue" stroke="midnightblue" points="236.38,-190.84 226.28,-187.63 232.17,-196.43 236.38,-190.84"/>
</g>
<!-- Node20&#45;&gt;Node12 -->
<g id="edge41" class="edge">
<title>Node20&#45;&gt;Node12</title>
<path fill="none" stroke="midnightblue" d="M680.33,-280.39C692.96,-272.72 709.5,-260.21 717,-244 741.61,-190.83 725.17,-118.8 715.14,-85.4"/>
<polygon fill="midnightblue" stroke="midnightblue" points="718.41,-84.12 712.05,-75.64 711.73,-86.23 718.41,-84.12"/>
</g>
<!-- Node20&#45;&gt;Node17 -->
<g id="edge42" class="edge">
<title>Node20&#45;&gt;Node17</title>
<path fill="none" stroke="midnightblue" d="M639.92,-280.44C614.46,-271.4 574.11,-257.06 545.54,-246.92"/>
<polygon fill="midnightblue" stroke="midnightblue" points="546.57,-243.57 535.97,-243.52 544.22,-250.16 546.57,-243.57"/>
</g>
<!-- Node20&#45;&gt;Node18 -->
<g id="edge40" class="edge">
<title>Node20&#45;&gt;Node18</title>
<path fill="none" stroke="midnightblue" d="M657.96,-280.37C645.25,-262.22 615.56,-219.8 598.89,-195.99"/>
<polygon fill="midnightblue" stroke="midnightblue" points="601.62,-193.78 593.01,-187.59 595.88,-197.79 601.62,-193.78"/>
</g>
<!-- Node21 -->
<g id="node21" class="node">
<title>Node21</title>
<g id="a_node21"><a xlink:href="InterruptVectors_8hpp.html" target="_top" xlink:title=" ">
<polygon fill="white" stroke="black" points="769,-112.5 769,-131.5 885,-131.5 885,-112.5 769,-112.5"/>
<text text-anchor="middle" x="827" y="-119.5" font-family="Helvetica,sans-Serif" font-size="10.00">InterruptVectors.hpp</text>
</a>
</g>
</g>
<!-- Node20&#45;&gt;Node21 -->
<g id="edge37" class="edge">
<title>Node20&#45;&gt;Node21</title>
<path fill="none" stroke="midnightblue" d="M729.73,-281.29C775.77,-274.38 831.55,-262.45 846,-244 869.61,-213.85 850.6,-166.24 837.25,-140.65"/>
<polygon fill="midnightblue" stroke="midnightblue" points="840.22,-138.8 832.34,-131.72 834.09,-142.17 840.22,-138.8"/>
</g>
<!-- Node22 -->
<g id="node22" class="node">
<title>Node22</title>
<g id="a_node22"><a xlink:title=" ">
<polygon fill="white" stroke="#bfbfbf" points="769,-224.5 769,-243.5 837,-243.5 837,-224.5 769,-224.5"/>
<text text-anchor="middle" x="803" y="-231.5" font-family="Helvetica,sans-Serif" font-size="10.00">filesystem</text>
</a>
</g>
</g>
<!-- Node20&#45;&gt;Node22 -->
<g id="edge43" class="edge">
<title>Node20&#45;&gt;Node22</title>
<path fill="none" stroke="midnightblue" d="M686.02,-280.44C709.1,-271.48 745.56,-257.31 771.64,-247.18"/>
<polygon fill="midnightblue" stroke="midnightblue" points="773.02,-250.4 781.08,-243.52 770.49,-243.88 773.02,-250.4"/>
</g>
<!-- Node21&#45;&gt;Node13 -->
<g id="edge38" class="edge">
<title>Node21&#45;&gt;Node13</title>
<path fill="none" stroke="midnightblue" d="M825.67,-112.37C822.92,-94.62 816.59,-53.67 812.87,-29.6"/>
<polygon fill="midnightblue" stroke="midnightblue" points="816.31,-28.94 811.33,-19.59 809.4,-30.01 816.31,-28.94"/>
</g>
<!-- Node23&#45;&gt;Node8 -->
<g id="edge46" class="edge">
<title>Node23&#45;&gt;Node8</title>
<path fill="none" stroke="midnightblue" d="M903.45,-113.24C900.26,-112.8 897.08,-112.39 894,-112 733.53,-91.94 540.68,-75.63 465.36,-69.55"/>
<polygon fill="midnightblue" stroke="midnightblue" points="465.37,-66.04 455.12,-68.73 464.81,-73.02 465.37,-66.04"/>
</g>
<!-- Node23&#45;&gt;Node12 -->
<g id="edge49" class="edge">
<title>Node23&#45;&gt;Node12</title>
<path fill="none" stroke="midnightblue" d="M914.34,-112.44C871.86,-103.04 803.57,-87.93 757.53,-77.74"/>
<polygon fill="midnightblue" stroke="midnightblue" points="758,-74.26 747.48,-75.52 756.49,-81.09 758,-74.26"/>
</g>
<!-- Node24 -->
<g id="node24" class="node">
<title>Node24</title>
<g id="a_node24"><a xlink:title=" ">
<polygon fill="white" stroke="#bfbfbf" points="968.5,-56.5 968.5,-75.5 999.5,-75.5 999.5,-56.5 968.5,-56.5"/>
<text text-anchor="middle" x="984" y="-63.5" font-family="Helvetica,sans-Serif" font-size="10.00">ios</text>
</a>
</g>
</g>
<!-- Node23&#45;&gt;Node24 -->
<g id="edge47" class="edge">
<title>Node23&#45;&gt;Node24</title>
<path fill="none" stroke="midnightblue" d="M958.12,-112.08C962.41,-104.61 968.66,-93.72 973.94,-84.52"/>
<polygon fill="midnightblue" stroke="midnightblue" points="977.03,-86.17 978.98,-75.75 970.96,-82.68 977.03,-86.17"/>
</g>
<!-- Node25 -->
<g id="node25" class="node">
<title>Node25</title>
<g id="a_node25"><a xlink:title=" ">
<polygon fill="white" stroke="#bfbfbf" points="894,-56.5 894,-75.5 950,-75.5 950,-56.5 894,-56.5"/>
<text text-anchor="middle" x="922" y="-63.5" font-family="Helvetica,sans-Serif" font-size="10.00">sstream</text>
</a>
</g>
</g>
<!-- Node23&#45;&gt;Node25 -->
<g id="edge48" class="edge">
<title>Node23&#45;&gt;Node25</title>
<path fill="none" stroke="midnightblue" d="M947.88,-112.08C943.59,-104.61 937.34,-93.72 932.06,-84.52"/>
<polygon fill="midnightblue" stroke="midnightblue" points="935.04,-82.68 927.02,-75.75 928.97,-86.17 935.04,-82.68"/>
</g>
</g>
</svg>
