<?xml version="1.0" encoding="UTF-8" standalone="no"?>
<!DOCTYPE svg PUBLIC "-//W3C//DTD SVG 1.1//EN"
 "http://www.w3.org/Graphics/SVG/1.1/DTD/svg11.dtd">
<!-- Generated by graphviz version 2.43.0 (0)
 -->
<!-- Title: tests/PPU/testTileRenderer.cpp Pages: 1 -->
<svg width="847pt" height="364pt"
 viewBox="0.00 0.00 847.00 364.00" xmlns="http://www.w3.org/2000/svg" xmlns:xlink="http://www.w3.org/1999/xlink">
<g id="graph0" class="graph" transform="scale(1 1) rotate(0) translate(4 360)">
<title>tests/PPU/testTileRenderer.cpp</title>
<polygon fill="white" stroke="transparent" points="-4,4 -4,-360 843,-360 843,4 -4,4"/>
<!-- Node1 -->
<g id="node1" class="node">
<title>Node1</title>
<g id="a_node1"><a xlink:title=" ">
<polygon fill="#bfbfbf" stroke="black" points="228.5,-336.5 228.5,-355.5 395.5,-355.5 395.5,-336.5 228.5,-336.5"/>
<text text-anchor="middle" x="312" y="-343.5" font-family="Helvetica,sans-Serif" font-size="10.00">tests/PPU/testTileRenderer.cpp</text>
</a>
</g>
</g>
<!-- Node2 -->
<g id="node2" class="node">
<title>Node2</title>
<g id="a_node2"><a xlink:title=" ">
<polygon fill="white" stroke="#bfbfbf" points="0,-280.5 0,-299.5 56,-299.5 56,-280.5 0,-280.5"/>
<text text-anchor="middle" x="28" y="-287.5" font-family="Helvetica,sans-Serif" font-size="10.00">sstream</text>
</a>
</g>
</g>
<!-- Node1&#45;&gt;Node2 -->
<g id="edge1" class="edge">
<title>Node1&#45;&gt;Node2</title>
<path fill="none" stroke="midnightblue" d="M263.71,-336.42C214.82,-327.64 137.05,-313.41 70,-300 68.77,-299.75 67.51,-299.5 66.25,-299.24"/>
<polygon fill="midnightblue" stroke="midnightblue" points="66.95,-295.81 56.44,-297.2 65.52,-302.67 66.95,-295.81"/>
</g>
<!-- Node3 -->
<g id="node3" class="node">
<title>Node3</title>
<g id="a_node3"><a xlink:title=" ">
<polygon fill="white" stroke="#bfbfbf" points="87,-56.5 87,-75.5 131,-75.5 131,-56.5 87,-56.5"/>
<text text-anchor="middle" x="109" y="-63.5" font-family="Helvetica,sans-Serif" font-size="10.00">string</text>
</a>
</g>
</g>
<!-- Node1&#45;&gt;Node3 -->
<g id="edge2" class="edge">
<title>Node1&#45;&gt;Node3</title>
<path fill="none" stroke="midnightblue" d="M228.4,-338.16C163.32,-327.71 84,-301.36 84,-235 84,-235 84,-235 84,-177 84,-144 94.83,-106.77 102.24,-85.19"/>
<polygon fill="midnightblue" stroke="midnightblue" points="105.57,-86.28 105.63,-75.69 98.97,-83.93 105.57,-86.28"/>
</g>
<!-- Node4 -->
<g id="node4" class="node">
<title>Node4</title>
<g id="a_node4"><a xlink:title=" ">
<polygon fill="white" stroke="#bfbfbf" points="420,-168.5 420,-187.5 460,-187.5 460,-168.5 420,-168.5"/>
<text text-anchor="middle" x="440" y="-175.5" font-family="Helvetica,sans-Serif" font-size="10.00">span</text>
</a>
</g>
</g>
<!-- Node1&#45;&gt;Node4 -->
<g id="edge3" class="edge">
<title>Node1&#45;&gt;Node4</title>
<path fill="none" stroke="midnightblue" d="M317.14,-336.46C322.5,-327.47 331.07,-312.87 338,-300 355.9,-266.75 351.36,-252.62 376,-224 386.77,-211.49 401.73,-200.72 414.48,-192.85"/>
<polygon fill="midnightblue" stroke="midnightblue" points="416.45,-195.75 423.29,-187.66 412.9,-189.73 416.45,-195.75"/>
</g>
<!-- Node5 -->
<g id="node5" class="node">
<title>Node5</title>
<g id="a_node5"><a xlink:title=" ">
<polygon fill="white" stroke="#bfbfbf" points="149.5,-56.5 149.5,-75.5 196.5,-75.5 196.5,-56.5 149.5,-56.5"/>
<text text-anchor="middle" x="173" y="-63.5" font-family="Helvetica,sans-Serif" font-size="10.00">vector</text>
</a>
</g>
</g>
<!-- Node1&#45;&gt;Node5 -->
<g id="edge4" class="edge">
<title>Node1&#45;&gt;Node5</title>
<path fill="none" stroke="midnightblue" d="M254.48,-336.48C198.56,-324.57 122,-296.94 122,-235 122,-235 122,-235 122,-177 122,-141.24 144.45,-104.51 159.56,-83.84"/>
<polygon fill="midnightblue" stroke="midnightblue" points="162.43,-85.85 165.69,-75.77 156.86,-81.61 162.43,-85.85"/>
</g>
<!-- Node6 -->
<g id="node6" class="node">
<title>Node6</title>
<g id="a_node6"><a xlink:title=" ">
<polygon fill="white" stroke="#bfbfbf" points="505,-280.5 505,-299.5 669,-299.5 669,-280.5 505,-280.5"/>
<text text-anchor="middle" x="587" y="-287.5" font-family="Helvetica,sans-Serif" font-size="10.00">catch2/catch_test_macros.hpp</text>
</a>
</g>
</g>
<!-- Node1&#45;&gt;Node6 -->
<g id="edge5" class="edge">
<title>Node1&#45;&gt;Node6</title>
<path fill="none" stroke="midnightblue" d="M355.57,-336.44C403.85,-326.96 481.71,-311.67 533.61,-301.48"/>
<polygon fill="midnightblue" stroke="midnightblue" points="534.49,-304.88 543.63,-299.52 533.14,-298.01 534.49,-304.88"/>
</g>
<!-- Node7 -->
<g id="node7" class="node">
<title>Node7</title>
<g id="a_node7"><a xlink:title=" ">
<polygon fill="white" stroke="#bfbfbf" points="687,-280.5 687,-299.5 743,-299.5 743,-280.5 687,-280.5"/>
<text text-anchor="middle" x="715" y="-287.5" font-family="Helvetica,sans-Serif" font-size="10.00">iomanip</text>
</a>
</g>
</g>
<!-- Node1&#45;&gt;Node7 -->
<g id="edge6" class="edge">
<title>Node1&#45;&gt;Node7</title>
<path fill="none" stroke="midnightblue" d="M395.64,-337.51C467.77,-330.41 574.85,-318.34 676.93,-300.01"/>
<polygon fill="midnightblue" stroke="midnightblue" points="677.58,-303.45 686.79,-298.22 676.33,-296.56 677.58,-303.45"/>
</g>
<!-- Node8 -->
<g id="node8" class="node">
<title>Node8</title>
<g id="a_node8"><a xlink:href="TileRenderer_8hpp.html" target="_top" xlink:title=" ">
<polygon fill="white" stroke="black" points="207,-280.5 207,-299.5 329,-299.5 329,-280.5 207,-280.5"/>
<text text-anchor="middle" x="268" y="-287.5" font-family="Helvetica,sans-Serif" font-size="10.00">PPU/TileRenderer.hpp</text>
</a>
</g>
</g>
<!-- Node1&#45;&gt;Node8 -->
<g id="edge7" class="edge">
<title>Node1&#45;&gt;Node8</title>
<path fill="none" stroke="midnightblue" d="M304.73,-336.08C298.46,-328.38 289.21,-317.03 281.57,-307.65"/>
<polygon fill="midnightblue" stroke="midnightblue" points="284.16,-305.29 275.13,-299.75 278.73,-309.71 284.16,-305.29"/>
</g>
<!-- Node10 -->
<g id="node10" class="node">
<title>Node10</title>
<g id="a_node10"><a xlink:href="Ram_8hpp.html" target="_top" xlink:title=" ">
<polygon fill="white" stroke="black" points="190,-224.5 190,-243.5 276,-243.5 276,-224.5 190,-224.5"/>
<text text-anchor="middle" x="233" y="-231.5" font-family="Helvetica,sans-Serif" font-size="10.00">Ram/Ram.hpp</text>
</a>
</g>
</g>
<!-- Node1&#45;&gt;Node10 -->
<g id="edge24" class="edge">
<title>Node1&#45;&gt;Node10</title>
<path fill="none" stroke="midnightblue" d="M255.31,-336.5C233.65,-330.18 211.05,-319.18 198,-300 187.15,-284.06 201.15,-264.4 214.53,-250.9"/>
<polygon fill="midnightblue" stroke="midnightblue" points="217.26,-253.14 222.15,-243.74 212.46,-248.04 217.26,-253.14"/>
</g>
<!-- Node19 -->
<g id="node19" class="node">
<title>Node19</title>
<g id="a_node19"><a xlink:href="Tile_8hpp.html" target="_top" xlink:title=" ">
<polygon fill="white" stroke="black" points="761,-280.5 761,-299.5 839,-299.5 839,-280.5 761,-280.5"/>
<text text-anchor="middle" x="800" y="-287.5" font-family="Helvetica,sans-Serif" font-size="10.00">PPU/Tile.hpp</text>
</a>
</g>
</g>
<!-- Node1&#45;&gt;Node19 -->
<g id="edge25" class="edge">
<title>Node1&#45;&gt;Node19</title>
<path fill="none" stroke="midnightblue" d="M395.79,-338.52C482.25,-331.37 621.23,-318.53 750.66,-300.09"/>
<polygon fill="midnightblue" stroke="midnightblue" points="751.35,-303.52 760.75,-298.64 750.36,-296.6 751.35,-303.52"/>
</g>
<!-- Node20 -->
<g id="node20" class="node">
<title>Node20</title>
<g id="a_node20"><a xlink:href="PPUUtils_8hpp.html" target="_top" xlink:title=" ">
<polygon fill="white" stroke="black" points="385,-280.5 385,-299.5 487,-299.5 487,-280.5 385,-280.5"/>
<text text-anchor="middle" x="436" y="-287.5" font-family="Helvetica,sans-Serif" font-size="10.00">PPU/PPUUtils.hpp</text>
</a>
</g>
</g>
<!-- Node1&#45;&gt;Node20 -->
<g id="edge26" class="edge">
<title>Node1&#45;&gt;Node20</title>
<path fill="none" stroke="midnightblue" d="M331.65,-336.44C351.96,-327.6 383.9,-313.69 407.1,-303.59"/>
<polygon fill="midnightblue" stroke="midnightblue" points="408.67,-306.72 416.44,-299.52 405.88,-300.3 408.67,-306.72"/>
</g>
<!-- Node9 -->
<g id="node9" class="node">
<title>Node9</title>
<g id="a_node9"><a xlink:title=" ">
<polygon fill="white" stroke="#bfbfbf" points="385,-224.5 385,-243.5 427,-243.5 427,-224.5 385,-224.5"/>
<text text-anchor="middle" x="406" y="-231.5" font-family="Helvetica,sans-Serif" font-size="10.00">array</text>
</a>
</g>
</g>
<!-- Node8&#45;&gt;Node9 -->
<g id="edge8" class="edge">
<title>Node8&#45;&gt;Node9</title>
<path fill="none" stroke="midnightblue" d="M289.87,-280.44C312.91,-271.42 349.4,-257.15 375.32,-247"/>
<polygon fill="midnightblue" stroke="midnightblue" points="376.65,-250.24 384.69,-243.34 374.1,-243.72 376.65,-250.24"/>
</g>
<!-- Node8&#45;&gt;Node10 -->
<g id="edge9" class="edge">
<title>Node8&#45;&gt;Node10</title>
<path fill="none" stroke="midnightblue" d="M262.22,-280.08C257.33,-272.53 250.17,-261.49 244.17,-252.23"/>
<polygon fill="midnightblue" stroke="midnightblue" points="247.05,-250.24 238.67,-243.75 241.17,-254.05 247.05,-250.24"/>
</g>
<!-- Node10&#45;&gt;Node3 -->
<g id="edge21" class="edge">
<title>Node10&#45;&gt;Node3</title>
<path fill="none" stroke="midnightblue" d="M226.33,-224.08C206.48,-197.49 147.5,-118.54 121.52,-83.76"/>
<polygon fill="midnightblue" stroke="midnightblue" points="124.19,-81.49 115.4,-75.57 118.58,-85.67 124.19,-81.49"/>
</g>
<!-- Node10&#45;&gt;Node4 -->
<g id="edge22" class="edge">
<title>Node10&#45;&gt;Node4</title>
<path fill="none" stroke="midnightblue" d="M269.29,-224.43C303.32,-216.25 355.84,-203.3 409.99,-188.18"/>
<polygon fill="midnightblue" stroke="midnightblue" points="411.08,-191.51 419.76,-185.43 409.19,-184.77 411.08,-191.51"/>
</g>
<!-- Node10&#45;&gt;Node5 -->
<g id="edge23" class="edge">
<title>Node10&#45;&gt;Node5</title>
<path fill="none" stroke="midnightblue" d="M229.77,-224.08C220.29,-197.83 192.35,-120.55 179.55,-85.12"/>
<polygon fill="midnightblue" stroke="midnightblue" points="182.79,-83.78 176.1,-75.57 176.2,-86.16 182.79,-83.78"/>
</g>
<!-- Node11 -->
<g id="node11" class="node">
<title>Node11</title>
<g id="a_node11"><a xlink:href="ARectangleMemory_8hpp.html" target="_top" xlink:title=" ">
<polygon fill="white" stroke="black" points="226,-168.5 226,-187.5 402,-187.5 402,-168.5 226,-168.5"/>
<text text-anchor="middle" x="314" y="-175.5" font-family="Helvetica,sans-Serif" font-size="10.00">Memory/ARectangleMemory.hpp</text>
</a>
</g>
</g>
<!-- Node10&#45;&gt;Node11 -->
<g id="edge10" class="edge">
<title>Node10&#45;&gt;Node11</title>
<path fill="none" stroke="midnightblue" d="M246.01,-224.32C258.53,-215.98 277.68,-203.21 292.47,-193.35"/>
<polygon fill="midnightblue" stroke="midnightblue" points="294.64,-196.11 301.02,-187.65 290.76,-190.29 294.64,-196.11"/>
</g>
<!-- Node12 -->
<g id="node12" class="node">
<title>Node12</title>
<g id="a_node12"><a xlink:href="IMemory_8hpp.html" target="_top" xlink:title=" ">
<polygon fill="white" stroke="black" points="274,-112.5 274,-131.5 354,-131.5 354,-112.5 274,-112.5"/>
<text text-anchor="middle" x="314" y="-119.5" font-family="Helvetica,sans-Serif" font-size="10.00">IMemory.hpp</text>
</a>
</g>
</g>
<!-- Node11&#45;&gt;Node12 -->
<g id="edge11" class="edge">
<title>Node11&#45;&gt;Node12</title>
<path fill="none" stroke="midnightblue" d="M314,-168.08C314,-161.01 314,-150.86 314,-141.99"/>
<polygon fill="midnightblue" stroke="midnightblue" points="317.5,-141.75 314,-131.75 310.5,-141.75 317.5,-141.75"/>
</g>
<!-- Node15 -->
<g id="node15" class="node">
<title>Node15</title>
<g id="a_node15"><a xlink:href="Ints_8hpp.html" target="_top" xlink:title=" ">
<polygon fill="white" stroke="black" points="439,-56.5 439,-75.5 533,-75.5 533,-56.5 439,-56.5"/>
<text text-anchor="middle" x="486" y="-63.5" font-family="Helvetica,sans-Serif" font-size="10.00">Models/Ints.hpp</text>
</a>
</g>
</g>
<!-- Node11&#45;&gt;Node15 -->
<g id="edge20" class="edge">
<title>Node11&#45;&gt;Node15</title>
<path fill="none" stroke="midnightblue" d="M327.5,-168.37C357.01,-149.49 427.54,-104.38 463.74,-81.24"/>
<polygon fill="midnightblue" stroke="midnightblue" points="466.03,-83.93 472.57,-75.59 462.26,-78.03 466.03,-83.93"/>
</g>
<!-- Node12&#45;&gt;Node3 -->
<g id="edge15" class="edge">
<title>Node12&#45;&gt;Node3</title>
<path fill="none" stroke="midnightblue" d="M279.59,-112.42C246.42,-104.08 194.59,-90.86 141,-76.22"/>
<polygon fill="midnightblue" stroke="midnightblue" points="141.9,-72.84 131.33,-73.57 140.05,-79.59 141.9,-72.84"/>
</g>
<!-- Node12&#45;&gt;Node5 -->
<g id="edge13" class="edge">
<title>Node12&#45;&gt;Node5</title>
<path fill="none" stroke="midnightblue" d="M291.66,-112.44C268.25,-103.48 231.26,-89.31 204.81,-79.18"/>
<polygon fill="midnightblue" stroke="midnightblue" points="205.83,-75.82 195.24,-75.52 203.32,-82.36 205.83,-75.82"/>
</g>
<!-- Node13 -->
<g id="node13" class="node">
<title>Node13</title>
<g id="a_node13"><a xlink:title=" ">
<polygon fill="white" stroke="#bfbfbf" points="215,-56.5 215,-75.5 265,-75.5 265,-56.5 215,-56.5"/>
<text text-anchor="middle" x="240" y="-63.5" font-family="Helvetica,sans-Serif" font-size="10.00">cstdint</text>
</a>
</g>
</g>
<!-- Node12&#45;&gt;Node13 -->
<g id="edge12" class="edge">
<title>Node12&#45;&gt;Node13</title>
<path fill="none" stroke="midnightblue" d="M302.11,-112.32C290.85,-104.11 273.71,-91.6 260.29,-81.81"/>
<polygon fill="midnightblue" stroke="midnightblue" points="262.25,-78.9 252.11,-75.83 258.12,-84.56 262.25,-78.9"/>
</g>
<!-- Node14 -->
<g id="node14" class="node">
<title>Node14</title>
<g id="a_node14"><a xlink:title=" ">
<polygon fill="white" stroke="#bfbfbf" points="624,-56.5 624,-75.5 682,-75.5 682,-56.5 624,-56.5"/>
<text text-anchor="middle" x="653" y="-63.5" font-family="Helvetica,sans-Serif" font-size="10.00">memory</text>
</a>
</g>
</g>
<!-- Node12&#45;&gt;Node14 -->
<g id="edge14" class="edge">
<title>Node12&#45;&gt;Node14</title>
<path fill="none" stroke="midnightblue" d="M354.22,-114.59C419.68,-104.17 548.47,-83.65 613.47,-73.3"/>
<polygon fill="midnightblue" stroke="midnightblue" points="614.39,-76.69 623.72,-71.66 613.29,-69.78 614.39,-76.69"/>
</g>
<!-- Node12&#45;&gt;Node15 -->
<g id="edge16" class="edge">
<title>Node12&#45;&gt;Node15</title>
<path fill="none" stroke="midnightblue" d="M341.25,-112.44C370.44,-103.28 416.92,-88.69 449.31,-78.52"/>
<polygon fill="midnightblue" stroke="midnightblue" points="450.38,-81.85 458.87,-75.52 448.28,-75.17 450.38,-81.85"/>
</g>
<!-- Node18 -->
<g id="node18" class="node">
<title>Node18</title>
<g id="a_node18"><a xlink:href="Components_8hpp.html" target="_top" xlink:title=" ">
<polygon fill="white" stroke="black" points="283.5,-56.5 283.5,-75.5 420.5,-75.5 420.5,-56.5 283.5,-56.5"/>
<text text-anchor="middle" x="352" y="-63.5" font-family="Helvetica,sans-Serif" font-size="10.00">Models/Components.hpp</text>
</a>
</g>
</g>
<!-- Node12&#45;&gt;Node18 -->
<g id="edge19" class="edge">
<title>Node12&#45;&gt;Node18</title>
<path fill="none" stroke="midnightblue" d="M320.27,-112.08C325.64,-104.46 333.52,-93.26 340.08,-83.94"/>
<polygon fill="midnightblue" stroke="midnightblue" points="342.95,-85.94 345.84,-75.75 337.22,-81.91 342.95,-85.94"/>
</g>
<!-- Node16 -->
<g id="node16" class="node">
<title>Node16</title>
<g id="a_node16"><a xlink:title=" ">
<polygon fill="white" stroke="#bfbfbf" points="415,-0.5 415,-19.5 477,-19.5 477,-0.5 415,-0.5"/>
<text text-anchor="middle" x="446" y="-7.5" font-family="Helvetica,sans-Serif" font-size="10.00">cinttypes</text>
</a>
</g>
</g>
<!-- Node15&#45;&gt;Node16 -->
<g id="edge17" class="edge">
<title>Node15&#45;&gt;Node16</title>
<path fill="none" stroke="midnightblue" d="M479.39,-56.08C473.74,-48.46 465.46,-37.26 458.55,-27.94"/>
<polygon fill="midnightblue" stroke="midnightblue" points="461.25,-25.7 452.48,-19.75 455.62,-29.87 461.25,-25.7"/>
</g>
<!-- Node17 -->
<g id="node17" class="node">
<title>Node17</title>
<g id="a_node17"><a xlink:title=" ">
<polygon fill="white" stroke="#bfbfbf" points="495,-0.5 495,-19.5 555,-19.5 555,-0.5 495,-0.5"/>
<text text-anchor="middle" x="525" y="-7.5" font-family="Helvetica,sans-Serif" font-size="10.00">iostream</text>
</a>
</g>
</g>
<!-- Node15&#45;&gt;Node17 -->
<g id="edge18" class="edge">
<title>Node15&#45;&gt;Node17</title>
<path fill="none" stroke="midnightblue" d="M492.44,-56.08C497.95,-48.46 506.03,-37.26 512.76,-27.94"/>
<polygon fill="midnightblue" stroke="midnightblue" points="515.66,-29.91 518.68,-19.75 509.99,-25.81 515.66,-29.91"/>
</g>
<!-- Node20&#45;&gt;Node9 -->
<g id="edge30" class="edge">
<title>Node20&#45;&gt;Node9</title>
<path fill="none" stroke="midnightblue" d="M431.05,-280.08C426.9,-272.61 420.85,-261.72 415.73,-252.52"/>
<polygon fill="midnightblue" stroke="midnightblue" points="418.78,-250.79 410.86,-243.75 412.66,-254.19 418.78,-250.79"/>
</g>
<!-- Node20&#45;&gt;Node14 -->
<g id="edge29" class="edge">
<title>Node20&#45;&gt;Node14</title>
<path fill="none" stroke="midnightblue" d="M487.4,-280.47C538.44,-271.5 612.76,-256.91 639,-244 673.82,-226.87 689.56,-223.16 706,-188 723.46,-150.65 690.25,-106.07 668.93,-82.85"/>
<polygon fill="midnightblue" stroke="midnightblue" points="671.43,-80.39 661.99,-75.57 666.36,-85.22 671.43,-80.39"/>
</g>
<!-- Node21 -->
<g id="node21" class="node">
<title>Node21</title>
<g id="a_node21"><a xlink:title=" ">
<polygon fill="white" stroke="#bfbfbf" points="753,-224.5 753,-243.5 827,-243.5 827,-224.5 753,-224.5"/>
<text text-anchor="middle" x="790" y="-231.5" font-family="Helvetica,sans-Serif" font-size="10.00">stdint&#45;gcc.h</text>
</a>
</g>
</g>
<!-- Node20&#45;&gt;Node21 -->
<g id="edge27" class="edge">
<title>Node20&#45;&gt;Node21</title>
<path fill="none" stroke="midnightblue" d="M487.06,-281.33C490.09,-280.88 493.08,-280.43 496,-280 603.99,-263.9 631.23,-261.49 739,-244 740.27,-243.79 741.56,-243.58 742.87,-243.37"/>
<polygon fill="midnightblue" stroke="midnightblue" points="743.7,-246.78 752.97,-241.66 742.53,-239.87 743.7,-246.78"/>
</g>
<!-- Node22 -->
<g id="node22" class="node">
<title>Node22</title>
<g id="a_node22"><a xlink:title=" ">
<polygon fill="white" stroke="#bfbfbf" points="445.5,-224.5 445.5,-243.5 498.5,-243.5 498.5,-224.5 445.5,-224.5"/>
<text text-anchor="middle" x="472" y="-231.5" font-family="Helvetica,sans-Serif" font-size="10.00">cstddef</text>
</a>
</g>
</g>
<!-- Node20&#45;&gt;Node22 -->
<g id="edge28" class="edge">
<title>Node20&#45;&gt;Node22</title>
<path fill="none" stroke="midnightblue" d="M441.94,-280.08C446.98,-272.53 454.34,-261.49 460.51,-252.23"/>
<polygon fill="midnightblue" stroke="midnightblue" points="463.53,-254.01 466.17,-243.75 457.71,-250.13 463.53,-254.01"/>
</g>
<!-- Node23 -->
<g id="node23" class="node">
<title>Node23</title>
<g id="a_node23"><a xlink:href="Vector2_8hpp.html" target="_top" xlink:title=" ">
<polygon fill="white" stroke="black" points="516.5,-224.5 516.5,-243.5 629.5,-243.5 629.5,-224.5 516.5,-224.5"/>
<text text-anchor="middle" x="573" y="-231.5" font-family="Helvetica,sans-Serif" font-size="10.00">Models/Vector2.hpp</text>
</a>
</g>
</g>
<!-- Node20&#45;&gt;Node23 -->
<g id="edge31" class="edge">
<title>Node20&#45;&gt;Node23</title>
<path fill="none" stroke="midnightblue" d="M457.71,-280.44C480.35,-271.52 516.07,-257.44 541.75,-247.32"/>
<polygon fill="midnightblue" stroke="midnightblue" points="543.37,-250.44 551.39,-243.52 540.81,-243.93 543.37,-250.44"/>
</g>
<!-- Node24 -->
<g id="node24" class="node">
<title>Node24</title>
<g id="a_node24"><a xlink:title=" ">
<polygon fill="white" stroke="#bfbfbf" points="639.5,-168.5 639.5,-187.5 696.5,-187.5 696.5,-168.5 639.5,-168.5"/>
<text text-anchor="middle" x="668" y="-175.5" font-family="Helvetica,sans-Serif" font-size="10.00">ostream</text>
</a>
</g>
</g>
<!-- Node23&#45;&gt;Node24 -->
<g id="edge32" class="edge">
<title>Node23&#45;&gt;Node24</title>
<path fill="none" stroke="midnightblue" d="M588.26,-224.32C603.22,-215.82 626.25,-202.73 643.73,-192.8"/>
<polygon fill="midnightblue" stroke="midnightblue" points="645.81,-195.64 652.77,-187.65 642.35,-189.55 645.81,-195.64"/>
</g>
<!-- Node25 -->
<g id="node25" class="node">
<title>Node25</title>
<g id="a_node25"><a xlink:title=" ">
<polygon fill="white" stroke="#bfbfbf" points="478.5,-168.5 478.5,-187.5 621.5,-187.5 621.5,-168.5 478.5,-168.5"/>
<text text-anchor="middle" x="550" y="-175.5" font-family="Helvetica,sans-Serif" font-size="10.00">SFML/System/Vector2.hpp</text>
</a>
</g>
</g>
<!-- Node23&#45;&gt;Node25 -->
<g id="edge33" class="edge">
<title>Node23&#45;&gt;Node25</title>
<path fill="none" stroke="midnightblue" d="M569.2,-224.08C566.09,-216.77 561.58,-206.18 557.71,-197.1"/>
<polygon fill="midnightblue" stroke="midnightblue" points="560.87,-195.58 553.73,-187.75 554.43,-198.32 560.87,-195.58"/>
</g>
</g>
</svg>
