<?xml version="1.0" encoding="UTF-8" standalone="no"?>
<!DOCTYPE svg PUBLIC "-//W3C//DTD SVG 1.1//EN"
 "http://www.w3.org/Graphics/SVG/1.1/DTD/svg11.dtd">
<!-- Generated by graphviz version 2.43.0 (0)
 -->
<!-- Title: sources/PPU/TileRenderer.cpp Pages: 1 -->
<svg width="1522pt" height="476pt"
 viewBox="0.00 0.00 1521.50 476.00" xmlns="http://www.w3.org/2000/svg" xmlns:xlink="http://www.w3.org/1999/xlink">
<g id="graph0" class="graph" transform="scale(1 1) rotate(0) translate(4 472)">
<title>sources/PPU/TileRenderer.cpp</title>
<polygon fill="white" stroke="transparent" points="-4,4 -4,-472 1517.5,-472 1517.5,4 -4,4"/>
<!-- Node1 -->
<g id="node1" class="node">
<title>Node1</title>
<g id="a_node1"><a xlink:title=" ">
<polygon fill="#bfbfbf" stroke="black" points="92,-448.5 92,-467.5 253,-467.5 253,-448.5 92,-448.5"/>
<text text-anchor="middle" x="172.5" y="-455.5" font-family="Helvetica,sans-Serif" font-size="10.00">sources/PPU/TileRenderer.cpp</text>
</a>
</g>
</g>
<!-- Node2 -->
<g id="node2" class="node">
<title>Node2</title>
<g id="a_node2"><a xlink:title=" ">
<polygon fill="white" stroke="#bfbfbf" points="0,-392.5 0,-411.5 59,-411.5 59,-392.5 0,-392.5"/>
<text text-anchor="middle" x="29.5" y="-399.5" font-family="Helvetica,sans-Serif" font-size="10.00">complex</text>
</a>
</g>
</g>
<!-- Node1&#45;&gt;Node2 -->
<g id="edge1" class="edge">
<title>Node1&#45;&gt;Node2</title>
<path fill="none" stroke="midnightblue" d="M149.84,-448.44C126.1,-439.48 88.59,-425.31 61.76,-415.18"/>
<polygon fill="midnightblue" stroke="midnightblue" points="62.64,-411.77 52.05,-411.52 60.17,-418.32 62.64,-411.77"/>
</g>
<!-- Node3 -->
<g id="node3" class="node">
<title>Node3</title>
<g id="a_node3"><a xlink:title=" ">
<polygon fill="white" stroke="#bfbfbf" points="77,-392.5 77,-411.5 124,-411.5 124,-392.5 77,-392.5"/>
<text text-anchor="middle" x="100.5" y="-399.5" font-family="Helvetica,sans-Serif" font-size="10.00">cmath</text>
</a>
</g>
</g>
<!-- Node1&#45;&gt;Node3 -->
<g id="edge2" class="edge">
<title>Node1&#45;&gt;Node3</title>
<path fill="none" stroke="midnightblue" d="M160.93,-448.32C150.08,-440.18 133.62,-427.84 120.62,-418.09"/>
<polygon fill="midnightblue" stroke="midnightblue" points="122.38,-415.03 112.28,-411.83 118.18,-420.63 122.38,-415.03"/>
</g>
<!-- Node4 -->
<g id="node4" class="node">
<title>Node4</title>
<g id="a_node4"><a xlink:href="TileRenderer_8hpp.html" target="_top" xlink:title=" ">
<polygon fill="white" stroke="black" points="339,-280.5 339,-299.5 438,-299.5 438,-280.5 339,-280.5"/>
<text text-anchor="middle" x="388.5" y="-287.5" font-family="Helvetica,sans-Serif" font-size="10.00">TileRenderer.hpp</text>
</a>
</g>
</g>
<!-- Node1&#45;&gt;Node4 -->
<g id="edge3" class="edge">
<title>Node1&#45;&gt;Node4</title>
<path fill="none" stroke="midnightblue" d="M183.81,-448.31C218.73,-421.47 325.14,-339.69 369.14,-305.88"/>
<polygon fill="midnightblue" stroke="midnightblue" points="371.51,-308.47 377.3,-299.61 367.24,-302.92 371.51,-308.47"/>
</g>
<!-- Node15 -->
<g id="node15" class="node">
<title>Node15</title>
<g id="a_node15"><a xlink:title=" ">
<polygon fill="white" stroke="#bfbfbf" points="372.5,-0.5 372.5,-19.5 432.5,-19.5 432.5,-0.5 372.5,-0.5"/>
<text text-anchor="middle" x="402.5" y="-7.5" font-family="Helvetica,sans-Serif" font-size="10.00">iostream</text>
</a>
</g>
</g>
<!-- Node1&#45;&gt;Node15 -->
<g id="edge71" class="edge">
<title>Node1&#45;&gt;Node15</title>
<path fill="none" stroke="midnightblue" d="M169.8,-448.26C164.34,-429.77 152.5,-385.24 152.5,-347 152.5,-347 152.5,-347 152.5,-121 152.5,-30.57 291.24,-13.83 362.01,-11.17"/>
<polygon fill="midnightblue" stroke="midnightblue" points="362.45,-14.66 372.34,-10.86 362.24,-7.66 362.45,-14.66"/>
</g>
<!-- Node18 -->
<g id="node18" class="node">
<title>Node18</title>
<g id="a_node18"><a xlink:href="PPU_8hpp.html" target="_top" xlink:title=" ">
<polygon fill="white" stroke="black" points="540.5,-392.5 540.5,-411.5 620.5,-411.5 620.5,-392.5 540.5,-392.5"/>
<text text-anchor="middle" x="580.5" y="-399.5" font-family="Helvetica,sans-Serif" font-size="10.00">PPU/PPU.hpp</text>
</a>
</g>
</g>
<!-- Node1&#45;&gt;Node18 -->
<g id="edge20" class="edge">
<title>Node1&#45;&gt;Node18</title>
<path fill="none" stroke="midnightblue" d="M237.15,-448.44C318.48,-437.68 456.43,-419.42 530.29,-409.65"/>
<polygon fill="midnightblue" stroke="midnightblue" points="530.82,-413.11 540.27,-408.32 529.9,-406.17 530.82,-413.11"/>
</g>
<!-- Node35 -->
<g id="node35" class="node">
<title>Node35</title>
<g id="a_node35"><a xlink:href="Tile_8hpp.html" target="_top" xlink:title=" ">
<polygon fill="white" stroke="black" points="638.5,-392.5 638.5,-411.5 716.5,-411.5 716.5,-392.5 638.5,-392.5"/>
<text text-anchor="middle" x="677.5" y="-399.5" font-family="Helvetica,sans-Serif" font-size="10.00">PPU/Tile.hpp</text>
</a>
</g>
</g>
<!-- Node1&#45;&gt;Node35 -->
<g id="edge70" class="edge">
<title>Node1&#45;&gt;Node35</title>
<path fill="none" stroke="midnightblue" d="M253.24,-451.19C342.53,-444.28 490.83,-431.37 627.98,-412.11"/>
<polygon fill="midnightblue" stroke="midnightblue" points="628.84,-415.52 638.25,-410.65 627.86,-408.59 628.84,-415.52"/>
</g>
<!-- Node5 -->
<g id="node5" class="node">
<title>Node5</title>
<g id="a_node5"><a xlink:title=" ">
<polygon fill="white" stroke="#bfbfbf" points="472.5,-224.5 472.5,-243.5 514.5,-243.5 514.5,-224.5 472.5,-224.5"/>
<text text-anchor="middle" x="493.5" y="-231.5" font-family="Helvetica,sans-Serif" font-size="10.00">array</text>
</a>
</g>
</g>
<!-- Node4&#45;&gt;Node5 -->
<g id="edge4" class="edge">
<title>Node4&#45;&gt;Node5</title>
<path fill="none" stroke="midnightblue" d="M405.37,-280.32C422.21,-271.66 448.31,-258.24 467.74,-248.25"/>
<polygon fill="midnightblue" stroke="midnightblue" points="469.38,-251.34 476.67,-243.65 466.18,-245.12 469.38,-251.34"/>
</g>
<!-- Node6 -->
<g id="node6" class="node">
<title>Node6</title>
<g id="a_node6"><a xlink:href="Ram_8hpp.html" target="_top" xlink:title=" ">
<polygon fill="white" stroke="black" points="330.5,-224.5 330.5,-243.5 416.5,-243.5 416.5,-224.5 330.5,-224.5"/>
<text text-anchor="middle" x="373.5" y="-231.5" font-family="Helvetica,sans-Serif" font-size="10.00">Ram/Ram.hpp</text>
</a>
</g>
</g>
<!-- Node4&#45;&gt;Node6 -->
<g id="edge5" class="edge">
<title>Node4&#45;&gt;Node6</title>
<path fill="none" stroke="midnightblue" d="M386.02,-280.08C384.01,-272.85 381.11,-262.41 378.61,-253.4"/>
<polygon fill="midnightblue" stroke="midnightblue" points="381.98,-252.45 375.93,-243.75 375.24,-254.32 381.98,-252.45"/>
</g>
<!-- Node7 -->
<g id="node7" class="node">
<title>Node7</title>
<g id="a_node7"><a xlink:href="ARectangleMemory_8hpp.html" target="_top" xlink:title=" ">
<polygon fill="white" stroke="black" points="582.5,-168.5 582.5,-187.5 758.5,-187.5 758.5,-168.5 582.5,-168.5"/>
<text text-anchor="middle" x="670.5" y="-175.5" font-family="Helvetica,sans-Serif" font-size="10.00">Memory/ARectangleMemory.hpp</text>
</a>
</g>
</g>
<!-- Node6&#45;&gt;Node7 -->
<g id="edge6" class="edge">
<title>Node6&#45;&gt;Node7</title>
<path fill="none" stroke="midnightblue" d="M416.69,-225.15C468.59,-215.71 555.86,-199.84 613.32,-189.4"/>
<polygon fill="midnightblue" stroke="midnightblue" points="614.12,-192.81 623.33,-187.58 612.87,-185.92 614.12,-192.81"/>
</g>
<!-- Node10 -->
<g id="node10" class="node">
<title>Node10</title>
<g id="a_node10"><a xlink:title=" ">
<polygon fill="white" stroke="#bfbfbf" points="569,-56.5 569,-75.5 616,-75.5 616,-56.5 569,-56.5"/>
<text text-anchor="middle" x="592.5" y="-63.5" font-family="Helvetica,sans-Serif" font-size="10.00">vector</text>
</a>
</g>
</g>
<!-- Node6&#45;&gt;Node10 -->
<g id="edge19" class="edge">
<title>Node6&#45;&gt;Node10</title>
<path fill="none" stroke="midnightblue" d="M384.04,-224.23C394.67,-215.3 411.47,-200.97 425.5,-188 460.81,-155.36 463.4,-139.99 502.5,-112 520.72,-98.96 543.27,-87.69 561.24,-79.69"/>
<polygon fill="midnightblue" stroke="midnightblue" points="562.91,-82.78 570.7,-75.59 560.13,-76.36 562.91,-82.78"/>
</g>
<!-- Node12 -->
<g id="node12" class="node">
<title>Node12</title>
<g id="a_node12"><a xlink:title=" ">
<polygon fill="white" stroke="#bfbfbf" points="468.5,-56.5 468.5,-75.5 512.5,-75.5 512.5,-56.5 468.5,-56.5"/>
<text text-anchor="middle" x="490.5" y="-63.5" font-family="Helvetica,sans-Serif" font-size="10.00">string</text>
</a>
</g>
</g>
<!-- Node6&#45;&gt;Node12 -->
<g id="edge17" class="edge">
<title>Node6&#45;&gt;Node12</title>
<path fill="none" stroke="midnightblue" d="M379.79,-224.08C398.53,-197.49 454.18,-118.54 478.68,-83.76"/>
<polygon fill="midnightblue" stroke="midnightblue" points="481.56,-85.76 484.46,-75.57 475.84,-81.73 481.56,-85.76"/>
</g>
<!-- Node17 -->
<g id="node17" class="node">
<title>Node17</title>
<g id="a_node17"><a xlink:title=" ">
<polygon fill="white" stroke="#bfbfbf" points="306.5,-168.5 306.5,-187.5 346.5,-187.5 346.5,-168.5 306.5,-168.5"/>
<text text-anchor="middle" x="326.5" y="-175.5" font-family="Helvetica,sans-Serif" font-size="10.00">span</text>
</a>
</g>
</g>
<!-- Node6&#45;&gt;Node17 -->
<g id="edge18" class="edge">
<title>Node6&#45;&gt;Node17</title>
<path fill="none" stroke="midnightblue" d="M365.74,-224.08C358.96,-216.3 348.96,-204.8 340.74,-195.37"/>
<polygon fill="midnightblue" stroke="midnightblue" points="343.32,-193 334.12,-187.75 338.04,-197.59 343.32,-193"/>
</g>
<!-- Node8 -->
<g id="node8" class="node">
<title>Node8</title>
<g id="a_node8"><a xlink:href="IMemory_8hpp.html" target="_top" xlink:title=" ">
<polygon fill="white" stroke="black" points="1047.5,-112.5 1047.5,-131.5 1127.5,-131.5 1127.5,-112.5 1047.5,-112.5"/>
<text text-anchor="middle" x="1087.5" y="-119.5" font-family="Helvetica,sans-Serif" font-size="10.00">IMemory.hpp</text>
</a>
</g>
</g>
<!-- Node7&#45;&gt;Node8 -->
<g id="edge7" class="edge">
<title>Node7&#45;&gt;Node8</title>
<path fill="none" stroke="midnightblue" d="M736.57,-168.44C820.03,-157.64 961.81,-139.28 1037.07,-129.53"/>
<polygon fill="midnightblue" stroke="midnightblue" points="1037.77,-132.97 1047.24,-128.21 1036.87,-126.03 1037.77,-132.97"/>
</g>
<!-- Node13 -->
<g id="node13" class="node">
<title>Node13</title>
<g id="a_node13"><a xlink:href="Ints_8hpp.html" target="_top" xlink:title=" ">
<polygon fill="white" stroke="black" points="859.5,-56.5 859.5,-75.5 953.5,-75.5 953.5,-56.5 859.5,-56.5"/>
<text text-anchor="middle" x="906.5" y="-63.5" font-family="Helvetica,sans-Serif" font-size="10.00">Models/Ints.hpp</text>
</a>
</g>
</g>
<!-- Node7&#45;&gt;Node13 -->
<g id="edge16" class="edge">
<title>Node7&#45;&gt;Node13</title>
<path fill="none" stroke="midnightblue" d="M689.02,-168.37C730.29,-149.13 830.02,-102.65 878.76,-79.93"/>
<polygon fill="midnightblue" stroke="midnightblue" points="880.48,-82.99 888.07,-75.59 877.53,-76.64 880.48,-82.99"/>
</g>
<!-- Node9 -->
<g id="node9" class="node">
<title>Node9</title>
<g id="a_node9"><a xlink:title=" ">
<polygon fill="white" stroke="#bfbfbf" points="1393.5,-56.5 1393.5,-75.5 1443.5,-75.5 1443.5,-56.5 1393.5,-56.5"/>
<text text-anchor="middle" x="1418.5" y="-63.5" font-family="Helvetica,sans-Serif" font-size="10.00">cstdint</text>
</a>
</g>
</g>
<!-- Node8&#45;&gt;Node9 -->
<g id="edge8" class="edge">
<title>Node8&#45;&gt;Node9</title>
<path fill="none" stroke="midnightblue" d="M1127.76,-114.43C1193.07,-103.78 1321.04,-82.9 1383.09,-72.78"/>
<polygon fill="midnightblue" stroke="midnightblue" points="1383.87,-76.2 1393.17,-71.13 1382.74,-69.29 1383.87,-76.2"/>
</g>
<!-- Node8&#45;&gt;Node10 -->
<g id="edge9" class="edge">
<title>Node8&#45;&gt;Node10</title>
<path fill="none" stroke="midnightblue" d="M1047.44,-114.03C1042.75,-113.3 1038.02,-112.61 1033.5,-112 882.28,-91.7 700.8,-75.86 626.62,-69.74"/>
<polygon fill="midnightblue" stroke="midnightblue" points="626.72,-66.24 616.46,-68.91 626.15,-73.21 626.72,-66.24"/>
</g>
<!-- Node11 -->
<g id="node11" class="node">
<title>Node11</title>
<g id="a_node11"><a xlink:title=" ">
<polygon fill="white" stroke="#bfbfbf" points="1275.5,-56.5 1275.5,-75.5 1333.5,-75.5 1333.5,-56.5 1275.5,-56.5"/>
<text text-anchor="middle" x="1304.5" y="-63.5" font-family="Helvetica,sans-Serif" font-size="10.00">memory</text>
</a>
</g>
</g>
<!-- Node8&#45;&gt;Node11 -->
<g id="edge10" class="edge">
<title>Node8&#45;&gt;Node11</title>
<path fill="none" stroke="midnightblue" d="M1121.88,-112.44C1161,-102.71 1224.72,-86.85 1265.61,-76.68"/>
<polygon fill="midnightblue" stroke="midnightblue" points="1266.63,-80.03 1275.49,-74.22 1264.94,-73.24 1266.63,-80.03"/>
</g>
<!-- Node8&#45;&gt;Node12 -->
<g id="edge11" class="edge">
<title>Node8&#45;&gt;Node12</title>
<path fill="none" stroke="midnightblue" d="M1047.37,-118.19C959.06,-111.89 741.3,-95.59 559.5,-76 547.45,-74.7 534.25,-73.04 522.66,-71.5"/>
<polygon fill="midnightblue" stroke="midnightblue" points="522.91,-68 512.53,-70.13 521.97,-74.94 522.91,-68"/>
</g>
<!-- Node8&#45;&gt;Node13 -->
<g id="edge12" class="edge">
<title>Node8&#45;&gt;Node13</title>
<path fill="none" stroke="midnightblue" d="M1058.82,-112.44C1027.97,-103.24 978.77,-88.56 944.67,-78.39"/>
<polygon fill="midnightblue" stroke="midnightblue" points="945.63,-75.02 935.05,-75.52 943.63,-81.73 945.63,-75.02"/>
</g>
<!-- Node16 -->
<g id="node16" class="node">
<title>Node16</title>
<g id="a_node16"><a xlink:href="Components_8hpp.html" target="_top" xlink:title=" ">
<polygon fill="white" stroke="black" points="1060,-56.5 1060,-75.5 1197,-75.5 1197,-56.5 1060,-56.5"/>
<text text-anchor="middle" x="1128.5" y="-63.5" font-family="Helvetica,sans-Serif" font-size="10.00">Models/Components.hpp</text>
</a>
</g>
</g>
<!-- Node8&#45;&gt;Node16 -->
<g id="edge15" class="edge">
<title>Node8&#45;&gt;Node16</title>
<path fill="none" stroke="midnightblue" d="M1094.27,-112.08C1100.06,-104.46 1108.56,-93.26 1115.64,-83.94"/>
<polygon fill="midnightblue" stroke="midnightblue" points="1118.6,-85.83 1121.86,-75.75 1113.02,-81.6 1118.6,-85.83"/>
</g>
<!-- Node14 -->
<g id="node14" class="node">
<title>Node14</title>
<g id="a_node14"><a xlink:title=" ">
<polygon fill="white" stroke="#bfbfbf" points="912.5,-0.5 912.5,-19.5 974.5,-19.5 974.5,-0.5 912.5,-0.5"/>
<text text-anchor="middle" x="943.5" y="-7.5" font-family="Helvetica,sans-Serif" font-size="10.00">cinttypes</text>
</a>
</g>
</g>
<!-- Node13&#45;&gt;Node14 -->
<g id="edge13" class="edge">
<title>Node13&#45;&gt;Node14</title>
<path fill="none" stroke="midnightblue" d="M912.61,-56.08C917.78,-48.53 925.35,-37.49 931.69,-28.23"/>
<polygon fill="midnightblue" stroke="midnightblue" points="934.74,-29.98 937.5,-19.75 928.96,-26.02 934.74,-29.98"/>
</g>
<!-- Node13&#45;&gt;Node15 -->
<g id="edge14" class="edge">
<title>Node13&#45;&gt;Node15</title>
<path fill="none" stroke="midnightblue" d="M859.08,-59.92C760.46,-49.35 534.74,-25.17 442.69,-15.31"/>
<polygon fill="midnightblue" stroke="midnightblue" points="442.98,-11.82 432.66,-14.23 442.23,-18.78 442.98,-11.82"/>
</g>
<!-- Node18&#45;&gt;Node6 -->
<g id="edge49" class="edge">
<title>Node18&#45;&gt;Node6</title>
<path fill="none" stroke="midnightblue" d="M540.09,-399.02C480.08,-393.63 369.36,-373.65 321.5,-300 309.47,-281.48 330.32,-261.91 349.1,-249.15"/>
<polygon fill="midnightblue" stroke="midnightblue" points="351.19,-251.96 357.72,-243.62 347.41,-246.07 351.19,-251.96"/>
</g>
<!-- Node18&#45;&gt;Node9 -->
<g id="edge21" class="edge">
<title>Node18&#45;&gt;Node9</title>
<path fill="none" stroke="midnightblue" d="M620.55,-393.2C623.57,-392.75 626.58,-392.34 629.5,-392 945.1,-355.22 1032.6,-421.55 1343.5,-356 1422.65,-339.31 1513.5,-371.89 1513.5,-291 1513.5,-291 1513.5,-291 1513.5,-177 1513.5,-133.74 1470.89,-99.09 1442.75,-80.91"/>
<polygon fill="midnightblue" stroke="midnightblue" points="1444.53,-77.9 1434.19,-75.6 1440.84,-83.85 1444.53,-77.9"/>
</g>
<!-- Node19 -->
<g id="node19" class="node">
<title>Node19</title>
<g id="a_node19"><a xlink:href="AMemory_8hpp.html" target="_top" xlink:title=" ">
<polygon fill="white" stroke="black" points="1130,-168.5 1130,-187.5 1257,-187.5 1257,-168.5 1130,-168.5"/>
<text text-anchor="middle" x="1193.5" y="-175.5" font-family="Helvetica,sans-Serif" font-size="10.00">Memory/AMemory.hpp</text>
</a>
</g>
</g>
<!-- Node18&#45;&gt;Node19 -->
<g id="edge22" class="edge">
<title>Node18&#45;&gt;Node19</title>
<path fill="none" stroke="midnightblue" d="M620.6,-393.58C623.61,-393.04 626.6,-392.51 629.5,-392 725.36,-375.21 753.05,-386.41 845.5,-356 976.09,-313.04 1118.19,-227.05 1171.6,-193.18"/>
<polygon fill="midnightblue" stroke="midnightblue" points="1173.69,-195.99 1180.23,-187.66 1169.92,-190.09 1173.69,-195.99"/>
</g>
<!-- Node20 -->
<g id="node20" class="node">
<title>Node20</title>
<g id="a_node20"><a xlink:href="MemoryBus_8hpp.html" target="_top" xlink:title=" ">
<polygon fill="white" stroke="black" points="1194.5,-336.5 1194.5,-355.5 1334.5,-355.5 1334.5,-336.5 1194.5,-336.5"/>
<text text-anchor="middle" x="1264.5" y="-343.5" font-family="Helvetica,sans-Serif" font-size="10.00">Memory/MemoryBus.hpp</text>
</a>
</g>
</g>
<!-- Node18&#45;&gt;Node20 -->
<g id="edge30" class="edge">
<title>Node18&#45;&gt;Node20</title>
<path fill="none" stroke="midnightblue" d="M620.55,-393.27C623.58,-392.8 626.58,-392.37 629.5,-392 683.11,-385.2 1025.44,-362.52 1184.04,-352.2"/>
<polygon fill="midnightblue" stroke="midnightblue" points="1184.47,-355.68 1194.22,-351.54 1184.01,-348.69 1184.47,-355.68"/>
</g>
<!-- Node25 -->
<g id="node25" class="node">
<title>Node25</title>
<g id="a_node25"><a xlink:href="IRenderer_8hpp.html" target="_top" xlink:title=" ">
<polygon fill="white" stroke="black" points="181,-224.5 181,-243.5 312,-243.5 312,-224.5 181,-224.5"/>
<text text-anchor="middle" x="246.5" y="-231.5" font-family="Helvetica,sans-Serif" font-size="10.00">Renderer/IRenderer.hpp</text>
</a>
</g>
</g>
<!-- Node18&#45;&gt;Node25 -->
<g id="edge46" class="edge">
<title>Node18&#45;&gt;Node25</title>
<path fill="none" stroke="midnightblue" d="M540.49,-400.67C492.92,-398.64 412.56,-389.91 353.5,-356 308.88,-330.38 273.26,-279.34 256.66,-252.47"/>
<polygon fill="midnightblue" stroke="midnightblue" points="259.57,-250.52 251.42,-243.75 253.57,-254.13 259.57,-250.52"/>
</g>
<!-- Node26 -->
<g id="node26" class="node">
<title>Node26</title>
<g id="a_node26"><a xlink:href="Vector2_8hpp.html" target="_top" xlink:title=" ">
<polygon fill="white" stroke="black" points="788,-224.5 788,-243.5 901,-243.5 901,-224.5 788,-224.5"/>
<text text-anchor="middle" x="844.5" y="-231.5" font-family="Helvetica,sans-Serif" font-size="10.00">Models/Vector2.hpp</text>
</a>
</g>
</g>
<!-- Node18&#45;&gt;Node26 -->
<g id="edge50" class="edge">
<title>Node18&#45;&gt;Node26</title>
<path fill="none" stroke="midnightblue" d="M620.68,-393.62C690.19,-380.85 825.5,-356 825.5,-356 852.12,-328.68 850.76,-280.24 847.57,-253.69"/>
<polygon fill="midnightblue" stroke="midnightblue" points="851.03,-253.19 846.16,-243.78 844.1,-254.17 851.03,-253.19"/>
</g>
<!-- Node29 -->
<g id="node29" class="node">
<title>Node29</title>
<g id="a_node29"><a xlink:title=" ">
<polygon fill="white" stroke="#bfbfbf" points="608.5,-336.5 608.5,-355.5 672.5,-355.5 672.5,-336.5 608.5,-336.5"/>
<text text-anchor="middle" x="640.5" y="-343.5" font-family="Helvetica,sans-Serif" font-size="10.00">algorithm</text>
</a>
</g>
</g>
<!-- Node18&#45;&gt;Node29 -->
<g id="edge53" class="edge">
<title>Node18&#45;&gt;Node29</title>
<path fill="none" stroke="midnightblue" d="M590.14,-392.32C599.01,-384.34 612.37,-372.31 623.11,-362.65"/>
<polygon fill="midnightblue" stroke="midnightblue" points="625.59,-365.13 630.68,-355.83 620.91,-359.92 625.59,-365.13"/>
</g>
<!-- Node30 -->
<g id="node30" class="node">
<title>Node30</title>
<g id="a_node30"><a xlink:href="Background_8hpp.html" target="_top" xlink:title=" ">
<polygon fill="white" stroke="black" points="457,-336.5 457,-355.5 552,-355.5 552,-336.5 457,-336.5"/>
<text text-anchor="middle" x="504.5" y="-343.5" font-family="Helvetica,sans-Serif" font-size="10.00">Background.hpp</text>
</a>
</g>
</g>
<!-- Node18&#45;&gt;Node30 -->
<g id="edge54" class="edge">
<title>Node18&#45;&gt;Node30</title>
<path fill="none" stroke="midnightblue" d="M563.17,-392.32C549.96,-384.18 532.24,-371.84 519.61,-362.09"/>
<polygon fill="midnightblue" stroke="midnightblue" points="521.78,-359.34 511.78,-355.83 517.41,-364.81 521.78,-359.34"/>
</g>
<!-- Node31 -->
<g id="node31" class="node">
<title>Node31</title>
<g id="a_node31"><a xlink:href="PPUUtils_8hpp.html" target="_top" xlink:title=" ">
<polygon fill="white" stroke="black" points="608.5,-280.5 608.5,-299.5 710.5,-299.5 710.5,-280.5 608.5,-280.5"/>
<text text-anchor="middle" x="659.5" y="-287.5" font-family="Helvetica,sans-Serif" font-size="10.00">PPU/PPUUtils.hpp</text>
</a>
</g>
</g>
<!-- Node18&#45;&gt;Node31 -->
<g id="edge68" class="edge">
<title>Node18&#45;&gt;Node31</title>
<path fill="none" stroke="midnightblue" d="M581.29,-392.26C582.85,-379.02 587.32,-353.59 599.5,-336 608.3,-323.29 621.85,-312.69 633.84,-304.98"/>
<polygon fill="midnightblue" stroke="midnightblue" points="635.88,-307.84 642.61,-299.65 632.24,-301.85 635.88,-307.84"/>
</g>
<!-- Node34 -->
<g id="node34" class="node">
<title>Node34</title>
<g id="a_node34"><a xlink:href="PPURegisters_8hpp.html" target="_top" xlink:title=" ">
<polygon fill="white" stroke="black" points="691,-336.5 691,-355.5 816,-355.5 816,-336.5 691,-336.5"/>
<text text-anchor="middle" x="753.5" y="-343.5" font-family="Helvetica,sans-Serif" font-size="10.00">PPU/PPURegisters.hpp</text>
</a>
</g>
</g>
<!-- Node18&#45;&gt;Node34 -->
<g id="edge69" class="edge">
<title>Node18&#45;&gt;Node34</title>
<path fill="none" stroke="midnightblue" d="M607.91,-392.44C637.27,-383.28 684.02,-368.69 716.6,-358.52"/>
<polygon fill="midnightblue" stroke="midnightblue" points="717.71,-361.84 726.22,-355.52 715.63,-355.16 717.71,-361.84"/>
</g>
<!-- Node19&#45;&gt;Node8 -->
<g id="edge29" class="edge">
<title>Node19&#45;&gt;Node8</title>
<path fill="none" stroke="midnightblue" d="M1176.47,-168.32C1159.47,-159.66 1133.12,-146.24 1113.51,-136.25"/>
<polygon fill="midnightblue" stroke="midnightblue" points="1114.99,-133.08 1104.49,-131.65 1111.81,-139.31 1114.99,-133.08"/>
</g>
<!-- Node19&#45;&gt;Node9 -->
<g id="edge23" class="edge">
<title>Node19&#45;&gt;Node9</title>
<path fill="none" stroke="midnightblue" d="M1211.16,-168.37C1250.42,-149.17 1345.19,-102.84 1391.76,-80.07"/>
<polygon fill="midnightblue" stroke="midnightblue" points="1393.48,-83.13 1400.93,-75.59 1390.41,-76.84 1393.48,-83.13"/>
</g>
<!-- Node19&#45;&gt;Node10 -->
<g id="edge24" class="edge">
<title>Node19&#45;&gt;Node10</title>
<path fill="none" stroke="midnightblue" d="M1164.24,-168.49C1106.65,-151.8 982.47,-116 962.5,-112 839.89,-87.44 691.56,-74.32 626.2,-69.36"/>
<polygon fill="midnightblue" stroke="midnightblue" points="626.31,-65.86 616.07,-68.61 625.79,-72.84 626.31,-65.86"/>
</g>
<!-- Node19&#45;&gt;Node11 -->
<g id="edge25" class="edge">
<title>Node19&#45;&gt;Node11</title>
<path fill="none" stroke="midnightblue" d="M1202.21,-168.37C1220.85,-149.89 1264.85,-106.29 1288.61,-82.74"/>
<polygon fill="midnightblue" stroke="midnightblue" points="1291.19,-85.12 1295.83,-75.59 1286.26,-80.14 1291.19,-85.12"/>
</g>
<!-- Node19&#45;&gt;Node12 -->
<g id="edge26" class="edge">
<title>Node19&#45;&gt;Node12</title>
<path fill="none" stroke="midnightblue" d="M1133.85,-168.48C1072.33,-159.62 973.65,-145.23 888.5,-132 752.57,-110.87 590.84,-83.89 522.99,-72.48"/>
<polygon fill="midnightblue" stroke="midnightblue" points="523.36,-68.99 512.92,-70.79 522.2,-75.9 523.36,-68.99"/>
</g>
<!-- Node19&#45;&gt;Node13 -->
<g id="edge27" class="edge">
<title>Node19&#45;&gt;Node13</title>
<path fill="none" stroke="midnightblue" d="M1188.47,-168.2C1179.82,-153.93 1160.7,-125.92 1136.5,-112 1083.16,-81.31 1012.57,-71.18 963.73,-68.02"/>
<polygon fill="midnightblue" stroke="midnightblue" points="963.83,-64.52 953.65,-67.45 963.43,-71.51 963.83,-64.52"/>
</g>
<!-- Node19&#45;&gt;Node16 -->
<g id="edge28" class="edge">
<title>Node19&#45;&gt;Node16</title>
<path fill="none" stroke="midnightblue" d="M1191.38,-168.11C1188.04,-155.12 1180.75,-130.5 1169.5,-112 1163.08,-101.43 1153.96,-91.13 1145.95,-83.05"/>
<polygon fill="midnightblue" stroke="midnightblue" points="1148.08,-80.23 1138.46,-75.79 1143.21,-85.26 1148.08,-80.23"/>
</g>
<!-- Node20&#45;&gt;Node9 -->
<g id="edge43" class="edge">
<title>Node20&#45;&gt;Node9</title>
<path fill="none" stroke="midnightblue" d="M1334.76,-337.47C1396.14,-326.54 1475.5,-299.86 1475.5,-235 1475.5,-235 1475.5,-235 1475.5,-177 1475.5,-140.3 1450.18,-103.66 1433.29,-83.3"/>
<polygon fill="midnightblue" stroke="midnightblue" points="1435.85,-80.9 1426.67,-75.62 1430.55,-85.48 1435.85,-80.9"/>
</g>
<!-- Node20&#45;&gt;Node10 -->
<g id="edge45" class="edge">
<title>Node20&#45;&gt;Node10</title>
<path fill="none" stroke="midnightblue" d="M1194.46,-344.9C1032.8,-344 644.03,-337.9 599.5,-300 553.97,-261.25 567.95,-227.54 573.5,-168 576.21,-138.91 583.23,-105.7 587.93,-85.55"/>
<polygon fill="midnightblue" stroke="midnightblue" points="591.4,-86.11 590.33,-75.57 584.59,-84.48 591.4,-86.11"/>
</g>
<!-- Node20&#45;&gt;Node11 -->
<g id="edge44" class="edge">
<title>Node20&#45;&gt;Node11</title>
<path fill="none" stroke="midnightblue" d="M1310.41,-336.47C1361.66,-323.99 1437.5,-295.33 1437.5,-235 1437.5,-235 1437.5,-235 1437.5,-177 1437.5,-126.73 1380.37,-95.1 1341,-79.27"/>
<polygon fill="midnightblue" stroke="midnightblue" points="1342,-75.91 1331.41,-75.59 1339.49,-82.45 1342,-75.91"/>
</g>
<!-- Node20&#45;&gt;Node19 -->
<g id="edge31" class="edge">
<title>Node20&#45;&gt;Node19</title>
<path fill="none" stroke="midnightblue" d="M1258.87,-336.27C1253.27,-327.37 1244.65,-313.06 1238.5,-300 1221.86,-264.65 1207.02,-221.35 1199.24,-197.3"/>
<polygon fill="midnightblue" stroke="midnightblue" points="1202.55,-196.18 1196.18,-187.71 1195.88,-198.3 1202.55,-196.18"/>
</g>
<!-- Node21 -->
<g id="node21" class="node">
<title>Node21</title>
<g id="a_node21"><a xlink:href="RectangleShadow_8hpp.html" target="_top" xlink:title=" ">
<polygon fill="white" stroke="black" points="1247.5,-280.5 1247.5,-299.5 1371.5,-299.5 1371.5,-280.5 1247.5,-280.5"/>
<text text-anchor="middle" x="1309.5" y="-287.5" font-family="Helvetica,sans-Serif" font-size="10.00">RectangleShadow.hpp</text>
</a>
</g>
</g>
<!-- Node20&#45;&gt;Node21 -->
<g id="edge32" class="edge">
<title>Node20&#45;&gt;Node21</title>
<path fill="none" stroke="midnightblue" d="M1271.93,-336.08C1278.35,-328.38 1287.81,-317.03 1295.62,-307.65"/>
<polygon fill="midnightblue" stroke="midnightblue" points="1298.49,-309.67 1302.21,-299.75 1293.12,-305.19 1298.49,-309.67"/>
</g>
<!-- Node22 -->
<g id="node22" class="node">
<title>Node22</title>
<g id="a_node22"><a xlink:href="MemoryShadow_8hpp.html" target="_top" xlink:title=" ">
<polygon fill="white" stroke="black" points="1253.5,-224.5 1253.5,-243.5 1369.5,-243.5 1369.5,-224.5 1253.5,-224.5"/>
<text text-anchor="middle" x="1311.5" y="-231.5" font-family="Helvetica,sans-Serif" font-size="10.00">MemoryShadow.hpp</text>
</a>
</g>
</g>
<!-- Node20&#45;&gt;Node22 -->
<g id="edge38" class="edge">
<title>Node20&#45;&gt;Node22</title>
<path fill="none" stroke="midnightblue" d="M1323.07,-336.48C1344.83,-330.16 1367.38,-319.16 1380.5,-300 1394.76,-279.17 1367.16,-259.96 1342.74,-247.91"/>
<polygon fill="midnightblue" stroke="midnightblue" points="1344.17,-244.72 1333.63,-243.66 1341.21,-251.06 1344.17,-244.72"/>
</g>
<!-- Node23 -->
<g id="node23" class="node">
<title>Node23</title>
<g id="a_node23"><a xlink:href="IMemoryBus_8hpp.html" target="_top" xlink:title=" ">
<polygon fill="white" stroke="black" points="1013,-168.5 1013,-187.5 1112,-187.5 1112,-168.5 1013,-168.5"/>
<text text-anchor="middle" x="1062.5" y="-175.5" font-family="Helvetica,sans-Serif" font-size="10.00">IMemoryBus.hpp</text>
</a>
</g>
</g>
<!-- Node20&#45;&gt;Node23 -->
<g id="edge39" class="edge">
<title>Node20&#45;&gt;Node23</title>
<path fill="none" stroke="midnightblue" d="M1253.92,-336.31C1221.34,-309.53 1122.17,-228.03 1080.86,-194.09"/>
<polygon fill="midnightblue" stroke="midnightblue" points="1082.92,-191.25 1072.97,-187.61 1078.48,-196.66 1082.92,-191.25"/>
</g>
<!-- Node21&#45;&gt;Node7 -->
<g id="edge34" class="edge">
<title>Node21&#45;&gt;Node7</title>
<path fill="none" stroke="midnightblue" d="M1259.89,-280.46C1143.95,-260.5 855.59,-210.86 730.25,-189.29"/>
<polygon fill="midnightblue" stroke="midnightblue" points="730.53,-185.78 720.08,-187.53 729.34,-192.68 730.53,-185.78"/>
</g>
<!-- Node21&#45;&gt;Node11 -->
<g id="edge33" class="edge">
<title>Node21&#45;&gt;Node11</title>
<path fill="none" stroke="midnightblue" d="M1333.29,-280.5C1349.22,-273.41 1368.96,-261.61 1378.5,-244 1382.73,-236.18 1380.44,-232.67 1378.5,-224 1366.37,-169.81 1333.36,-112.29 1315.82,-84.31"/>
<polygon fill="midnightblue" stroke="midnightblue" points="1318.65,-82.24 1310.31,-75.7 1312.75,-86.01 1318.65,-82.24"/>
</g>
<!-- Node21&#45;&gt;Node22 -->
<g id="edge35" class="edge">
<title>Node21&#45;&gt;Node22</title>
<path fill="none" stroke="midnightblue" d="M1309.83,-280.08C1310.09,-273.01 1310.47,-262.86 1310.8,-253.99"/>
<polygon fill="midnightblue" stroke="midnightblue" points="1314.3,-253.87 1311.18,-243.75 1307.31,-253.61 1314.3,-253.87"/>
</g>
<!-- Node22&#45;&gt;Node11 -->
<g id="edge36" class="edge">
<title>Node22&#45;&gt;Node11</title>
<path fill="none" stroke="midnightblue" d="M1311.12,-224.08C1310.02,-197.95 1306.79,-121.21 1305.28,-85.58"/>
<polygon fill="midnightblue" stroke="midnightblue" points="1308.78,-85.41 1304.86,-75.57 1301.79,-85.71 1308.78,-85.41"/>
</g>
<!-- Node22&#45;&gt;Node19 -->
<g id="edge37" class="edge">
<title>Node22&#45;&gt;Node19</title>
<path fill="none" stroke="midnightblue" d="M1292.8,-224.44C1273.56,-215.64 1243.35,-201.81 1221.3,-191.72"/>
<polygon fill="midnightblue" stroke="midnightblue" points="1222.66,-188.5 1212.11,-187.52 1219.75,-194.86 1222.66,-188.5"/>
</g>
<!-- Node23&#45;&gt;Node8 -->
<g id="edge42" class="edge">
<title>Node23&#45;&gt;Node8</title>
<path fill="none" stroke="midnightblue" d="M1066.63,-168.08C1070.01,-160.77 1074.92,-150.18 1079.12,-141.1"/>
<polygon fill="midnightblue" stroke="midnightblue" points="1082.42,-142.3 1083.45,-131.75 1076.07,-139.36 1082.42,-142.3"/>
</g>
<!-- Node23&#45;&gt;Node14 -->
<g id="edge40" class="edge">
<title>Node23&#45;&gt;Node14</title>
<path fill="none" stroke="midnightblue" d="M1056.1,-168.08C1037.05,-141.49 980.45,-62.54 955.52,-27.76"/>
<polygon fill="midnightblue" stroke="midnightblue" points="958.31,-25.66 949.64,-19.57 952.62,-29.73 958.31,-25.66"/>
</g>
<!-- Node24 -->
<g id="node24" class="node">
<title>Node24</title>
<g id="a_node24"><a xlink:title=" ">
<polygon fill="white" stroke="#bfbfbf" points="897.5,-112.5 897.5,-131.5 953.5,-131.5 953.5,-112.5 897.5,-112.5"/>
<text text-anchor="middle" x="925.5" y="-119.5" font-family="Helvetica,sans-Serif" font-size="10.00">optional</text>
</a>
</g>
</g>
<!-- Node23&#45;&gt;Node24 -->
<g id="edge41" class="edge">
<title>Node23&#45;&gt;Node24</title>
<path fill="none" stroke="midnightblue" d="M1040.79,-168.44C1018.15,-159.52 982.43,-145.44 956.75,-135.32"/>
<polygon fill="midnightblue" stroke="midnightblue" points="957.69,-131.93 947.11,-131.52 955.13,-138.44 957.69,-131.93"/>
</g>
<!-- Node25&#45;&gt;Node12 -->
<g id="edge47" class="edge">
<title>Node25&#45;&gt;Node12</title>
<path fill="none" stroke="midnightblue" d="M251.52,-224.47C259.74,-211.07 277.21,-184.88 297.5,-168 347.89,-126.09 418.51,-94.63 458.87,-78.69"/>
<polygon fill="midnightblue" stroke="midnightblue" points="460.4,-81.85 468.45,-74.97 457.86,-75.32 460.4,-81.85"/>
</g>
<!-- Node25&#45;&gt;Node17 -->
<g id="edge48" class="edge">
<title>Node25&#45;&gt;Node17</title>
<path fill="none" stroke="midnightblue" d="M259.35,-224.32C271.72,-215.98 290.63,-203.21 305.24,-193.35"/>
<polygon fill="midnightblue" stroke="midnightblue" points="307.35,-196.15 313.68,-187.65 303.43,-190.35 307.35,-196.15"/>
</g>
<!-- Node27 -->
<g id="node27" class="node">
<title>Node27</title>
<g id="a_node27"><a xlink:title=" ">
<polygon fill="white" stroke="#bfbfbf" points="938,-168.5 938,-187.5 995,-187.5 995,-168.5 938,-168.5"/>
<text text-anchor="middle" x="966.5" y="-175.5" font-family="Helvetica,sans-Serif" font-size="10.00">ostream</text>
</a>
</g>
</g>
<!-- Node26&#45;&gt;Node27 -->
<g id="edge51" class="edge">
<title>Node26&#45;&gt;Node27</title>
<path fill="none" stroke="midnightblue" d="M863.83,-224.44C883.82,-215.6 915.24,-201.69 938.06,-191.59"/>
<polygon fill="midnightblue" stroke="midnightblue" points="939.53,-194.76 947.26,-187.52 936.7,-188.36 939.53,-194.76"/>
</g>
<!-- Node28 -->
<g id="node28" class="node">
<title>Node28</title>
<g id="a_node28"><a xlink:title=" ">
<polygon fill="white" stroke="#bfbfbf" points="777,-168.5 777,-187.5 920,-187.5 920,-168.5 777,-168.5"/>
<text text-anchor="middle" x="848.5" y="-175.5" font-family="Helvetica,sans-Serif" font-size="10.00">SFML/System/Vector2.hpp</text>
</a>
</g>
</g>
<!-- Node26&#45;&gt;Node28 -->
<g id="edge52" class="edge">
<title>Node26&#45;&gt;Node28</title>
<path fill="none" stroke="midnightblue" d="M845.16,-224.08C845.68,-217.01 846.44,-206.86 847.09,-197.99"/>
<polygon fill="midnightblue" stroke="midnightblue" points="850.6,-197.98 847.85,-187.75 843.62,-197.47 850.6,-197.98"/>
</g>
<!-- Node30&#45;&gt;Node4 -->
<g id="edge59" class="edge">
<title>Node30&#45;&gt;Node4</title>
<path fill="none" stroke="midnightblue" d="M486.12,-336.44C467.28,-327.68 437.77,-313.94 416.12,-303.86"/>
<polygon fill="midnightblue" stroke="midnightblue" points="417.34,-300.56 406.79,-299.52 414.38,-306.91 417.34,-300.56"/>
</g>
<!-- Node30&#45;&gt;Node5 -->
<g id="edge55" class="edge">
<title>Node30&#45;&gt;Node5</title>
<path fill="none" stroke="midnightblue" d="M503.64,-336.37C501.86,-318.62 497.77,-277.67 495.36,-253.6"/>
<polygon fill="midnightblue" stroke="midnightblue" points="498.84,-253.19 494.36,-243.59 491.87,-253.89 498.84,-253.19"/>
</g>
<!-- Node30&#45;&gt;Node6 -->
<g id="edge60" class="edge">
<title>Node30&#45;&gt;Node6</title>
<path fill="none" stroke="midnightblue" d="M456.91,-339.31C410.61,-332.69 345.02,-320.02 329.5,-300 316.7,-283.49 335,-263.45 351.75,-250.02"/>
<polygon fill="midnightblue" stroke="midnightblue" points="354.32,-252.47 360.19,-243.66 350.1,-246.88 354.32,-252.47"/>
</g>
<!-- Node30&#45;&gt;Node10 -->
<g id="edge56" class="edge">
<title>Node30&#45;&gt;Node10</title>
<path fill="none" stroke="midnightblue" d="M506.25,-336.21C513.28,-301.03 539.06,-172.09 540.5,-168 551.36,-137.12 569.99,-103.83 581.76,-84.23"/>
<polygon fill="midnightblue" stroke="midnightblue" points="584.83,-85.91 587.06,-75.55 578.86,-82.26 584.83,-85.91"/>
</g>
<!-- Node30&#45;&gt;Node15 -->
<g id="edge57" class="edge">
<title>Node30&#45;&gt;Node15</title>
<path fill="none" stroke="midnightblue" d="M500.61,-336.49C492.83,-319.29 475.14,-279.02 463.5,-244 437.4,-165.46 415.19,-69.09 406.46,-29.41"/>
<polygon fill="midnightblue" stroke="midnightblue" points="409.87,-28.61 404.32,-19.58 403.03,-30.1 409.87,-28.61"/>
</g>
<!-- Node30&#45;&gt;Node18 -->
<g id="edge61" class="edge">
<title>Node30&#45;&gt;Node18</title>
<path fill="none" stroke="midnightblue" d="M521.79,-355.65C535.08,-363.83 552.92,-376.28 565.59,-386.06"/>
<polygon fill="midnightblue" stroke="midnightblue" points="563.41,-388.8 573.4,-392.32 567.79,-383.34 563.41,-388.8"/>
</g>
<!-- Node30&#45;&gt;Node26 -->
<g id="edge58" class="edge">
<title>Node30&#45;&gt;Node26</title>
<path fill="none" stroke="midnightblue" d="M552.07,-338.86C596.32,-332.26 663.65,-319.94 719.5,-300 757.12,-286.57 797.62,-263.82 822.01,-249.11"/>
<polygon fill="midnightblue" stroke="midnightblue" points="824.12,-251.92 830.82,-243.71 820.47,-245.95 824.12,-251.92"/>
</g>
<!-- Node30&#45;&gt;Node31 -->
<g id="edge62" class="edge">
<title>Node30&#45;&gt;Node31</title>
<path fill="none" stroke="midnightblue" d="M529.06,-336.44C555.02,-327.4 596.17,-313.06 625.3,-302.92"/>
<polygon fill="midnightblue" stroke="midnightblue" points="626.76,-306.11 635.05,-299.52 624.46,-299.5 626.76,-306.11"/>
</g>
<!-- Node31&#45;&gt;Node5 -->
<g id="edge66" class="edge">
<title>Node31&#45;&gt;Node5</title>
<path fill="none" stroke="midnightblue" d="M633.2,-280.44C603.58,-270.81 555.52,-255.18 524.21,-244.99"/>
<polygon fill="midnightblue" stroke="midnightblue" points="525.27,-241.65 514.68,-241.89 523.1,-248.31 525.27,-241.65"/>
</g>
<!-- Node31&#45;&gt;Node11 -->
<g id="edge65" class="edge">
<title>Node31&#45;&gt;Node11</title>
<path fill="none" stroke="midnightblue" d="M710.89,-287.19C841.85,-281.55 1183.56,-260.11 1266.5,-188 1281.97,-174.55 1295.04,-116.65 1301.02,-86.08"/>
<polygon fill="midnightblue" stroke="midnightblue" points="1304.53,-86.32 1302.95,-75.85 1297.65,-85.02 1304.53,-86.32"/>
</g>
<!-- Node31&#45;&gt;Node26 -->
<g id="edge67" class="edge">
<title>Node31&#45;&gt;Node26</title>
<path fill="none" stroke="midnightblue" d="M688.81,-280.44C720.34,-271.24 770.63,-256.56 805.49,-246.39"/>
<polygon fill="midnightblue" stroke="midnightblue" points="806.7,-249.68 815.32,-243.52 804.74,-242.96 806.7,-249.68"/>
</g>
<!-- Node32 -->
<g id="node32" class="node">
<title>Node32</title>
<g id="a_node32"><a xlink:title=" ">
<polygon fill="white" stroke="#bfbfbf" points="615.5,-224.5 615.5,-243.5 689.5,-243.5 689.5,-224.5 615.5,-224.5"/>
<text text-anchor="middle" x="652.5" y="-231.5" font-family="Helvetica,sans-Serif" font-size="10.00">stdint&#45;gcc.h</text>
</a>
</g>
</g>
<!-- Node31&#45;&gt;Node32 -->
<g id="edge63" class="edge">
<title>Node31&#45;&gt;Node32</title>
<path fill="none" stroke="midnightblue" d="M658.34,-280.08C657.42,-272.93 656.08,-262.64 654.92,-253.69"/>
<polygon fill="midnightblue" stroke="midnightblue" points="658.39,-253.22 653.63,-243.75 651.45,-254.12 658.39,-253.22"/>
</g>
<!-- Node33 -->
<g id="node33" class="node">
<title>Node33</title>
<g id="a_node33"><a xlink:title=" ">
<polygon fill="white" stroke="#bfbfbf" points="708,-224.5 708,-243.5 761,-243.5 761,-224.5 708,-224.5"/>
<text text-anchor="middle" x="734.5" y="-231.5" font-family="Helvetica,sans-Serif" font-size="10.00">cstddef</text>
</a>
</g>
</g>
<!-- Node31&#45;&gt;Node33 -->
<g id="edge64" class="edge">
<title>Node31&#45;&gt;Node33</title>
<path fill="none" stroke="midnightblue" d="M671.55,-280.32C682.96,-272.11 700.33,-259.6 713.93,-249.81"/>
<polygon fill="midnightblue" stroke="midnightblue" points="716.16,-252.52 722.23,-243.83 712.07,-246.84 716.16,-252.52"/>
</g>
</g>
</svg>
