<?xml version="1.0" encoding="UTF-8" standalone="no"?>
<!DOCTYPE svg PUBLIC "-//W3C//DTD SVG 1.1//EN"
 "http://www.w3.org/Graphics/SVG/1.1/DTD/svg11.dtd">
<!-- Generated by graphviz version 2.43.0 (0)
 -->
<!-- Title: sources/PPU/TileRenderer.hpp Pages: 1 -->
<svg width="530pt" height="308pt"
 viewBox="0.00 0.00 529.50 308.00" xmlns="http://www.w3.org/2000/svg" xmlns:xlink="http://www.w3.org/1999/xlink">
<g id="graph0" class="graph" transform="scale(1 1) rotate(0) translate(4 304)">
<title>sources/PPU/TileRenderer.hpp</title>
<polygon fill="white" stroke="transparent" points="-4,4 -4,-304 525.5,-304 525.5,4 -4,4"/>
<!-- Node1 -->
<g id="node1" class="node">
<title>Node1</title>
<g id="a_node1"><a xlink:title=" ">
<polygon fill="#bfbfbf" stroke="black" points="114.5,-280.5 114.5,-299.5 276.5,-299.5 276.5,-280.5 114.5,-280.5"/>
<text text-anchor="middle" x="195.5" y="-287.5" font-family="Helvetica,sans-Serif" font-size="10.00">sources/PPU/TileRenderer.hpp</text>
</a>
</g>
</g>
<!-- Node2 -->
<g id="node2" class="node">
<title>Node2</title>
<g id="a_node2"><a xlink:title=" ">
<polygon fill="white" stroke="#bfbfbf" points="133.5,-224.5 133.5,-243.5 175.5,-243.5 175.5,-224.5 133.5,-224.5"/>
<text text-anchor="middle" x="154.5" y="-231.5" font-family="Helvetica,sans-Serif" font-size="10.00">array</text>
</a>
</g>
</g>
<!-- Node1&#45;&gt;Node2 -->
<g id="edge1" class="edge">
<title>Node1&#45;&gt;Node2</title>
<path fill="none" stroke="midnightblue" d="M188.73,-280.08C182.94,-272.46 174.44,-261.26 167.36,-251.94"/>
<polygon fill="midnightblue" stroke="midnightblue" points="169.98,-249.6 161.14,-243.75 164.4,-253.83 169.98,-249.6"/>
</g>
<!-- Node3 -->
<g id="node3" class="node">
<title>Node3</title>
<g id="a_node3"><a xlink:href="Ram_8hpp.html" target="_top" xlink:title=" ">
<polygon fill="white" stroke="black" points="193.5,-224.5 193.5,-243.5 279.5,-243.5 279.5,-224.5 193.5,-224.5"/>
<text text-anchor="middle" x="236.5" y="-231.5" font-family="Helvetica,sans-Serif" font-size="10.00">Ram/Ram.hpp</text>
</a>
</g>
</g>
<!-- Node1&#45;&gt;Node3 -->
<g id="edge2" class="edge">
<title>Node1&#45;&gt;Node3</title>
<path fill="none" stroke="midnightblue" d="M202.27,-280.08C208.06,-272.46 216.56,-261.26 223.64,-251.94"/>
<polygon fill="midnightblue" stroke="midnightblue" points="226.6,-253.83 229.86,-243.75 221.02,-249.6 226.6,-253.83"/>
</g>
<!-- Node4 -->
<g id="node4" class="node">
<title>Node4</title>
<g id="a_node4"><a xlink:href="ARectangleMemory_8hpp.html" target="_top" xlink:title=" ">
<polygon fill="white" stroke="black" points="90.5,-168.5 90.5,-187.5 266.5,-187.5 266.5,-168.5 90.5,-168.5"/>
<text text-anchor="middle" x="178.5" y="-175.5" font-family="Helvetica,sans-Serif" font-size="10.00">Memory/ARectangleMemory.hpp</text>
</a>
</g>
</g>
<!-- Node3&#45;&gt;Node4 -->
<g id="edge3" class="edge">
<title>Node3&#45;&gt;Node4</title>
<path fill="none" stroke="midnightblue" d="M227.18,-224.32C218.61,-216.34 205.69,-204.31 195.31,-194.65"/>
<polygon fill="midnightblue" stroke="midnightblue" points="197.69,-192.09 187.99,-187.83 192.92,-197.21 197.69,-192.09"/>
</g>
<!-- Node7 -->
<g id="node7" class="node">
<title>Node7</title>
<g id="a_node7"><a xlink:title=" ">
<polygon fill="white" stroke="#bfbfbf" points="0,-56.5 0,-75.5 47,-75.5 47,-56.5 0,-56.5"/>
<text text-anchor="middle" x="23.5" y="-63.5" font-family="Helvetica,sans-Serif" font-size="10.00">vector</text>
</a>
</g>
</g>
<!-- Node3&#45;&gt;Node7 -->
<g id="edge16" class="edge">
<title>Node3&#45;&gt;Node7</title>
<path fill="none" stroke="midnightblue" d="M193.17,-224.56C153.47,-216.1 98.39,-202.31 81.5,-188 49.63,-160.98 33.94,-112.42 27.41,-85.77"/>
<polygon fill="midnightblue" stroke="midnightblue" points="30.78,-84.79 25.15,-75.82 23.95,-86.34 30.78,-84.79"/>
</g>
<!-- Node9 -->
<g id="node9" class="node">
<title>Node9</title>
<g id="a_node9"><a xlink:title=" ">
<polygon fill="white" stroke="#bfbfbf" points="477.5,-56.5 477.5,-75.5 521.5,-75.5 521.5,-56.5 477.5,-56.5"/>
<text text-anchor="middle" x="499.5" y="-63.5" font-family="Helvetica,sans-Serif" font-size="10.00">string</text>
</a>
</g>
</g>
<!-- Node3&#45;&gt;Node9 -->
<g id="edge14" class="edge">
<title>Node3&#45;&gt;Node9</title>
<path fill="none" stroke="midnightblue" d="M245.49,-224.35C259.38,-211.24 287.21,-185.96 313.5,-168 366.7,-131.66 434.28,-97.72 471.58,-79.94"/>
<polygon fill="midnightblue" stroke="midnightblue" points="473.28,-83.01 480.82,-75.57 470.29,-76.68 473.28,-83.01"/>
</g>
<!-- Node14 -->
<g id="node14" class="node">
<title>Node14</title>
<g id="a_node14"><a xlink:title=" ">
<polygon fill="white" stroke="#bfbfbf" points="322.5,-168.5 322.5,-187.5 362.5,-187.5 362.5,-168.5 322.5,-168.5"/>
<text text-anchor="middle" x="342.5" y="-175.5" font-family="Helvetica,sans-Serif" font-size="10.00">span</text>
</a>
</g>
</g>
<!-- Node3&#45;&gt;Node14 -->
<g id="edge15" class="edge">
<title>Node3&#45;&gt;Node14</title>
<path fill="none" stroke="midnightblue" d="M253.53,-224.32C270.53,-215.66 296.88,-202.24 316.49,-192.25"/>
<polygon fill="midnightblue" stroke="midnightblue" points="318.19,-195.31 325.51,-187.65 315.01,-189.08 318.19,-195.31"/>
</g>
<!-- Node5 -->
<g id="node5" class="node">
<title>Node5</title>
<g id="a_node5"><a xlink:href="IMemory_8hpp.html" target="_top" xlink:title=" ">
<polygon fill="white" stroke="black" points="162.5,-112.5 162.5,-131.5 242.5,-131.5 242.5,-112.5 162.5,-112.5"/>
<text text-anchor="middle" x="202.5" y="-119.5" font-family="Helvetica,sans-Serif" font-size="10.00">IMemory.hpp</text>
</a>
</g>
</g>
<!-- Node4&#45;&gt;Node5 -->
<g id="edge4" class="edge">
<title>Node4&#45;&gt;Node5</title>
<path fill="none" stroke="midnightblue" d="M182.46,-168.08C185.71,-160.77 190.42,-150.18 194.45,-141.1"/>
<polygon fill="midnightblue" stroke="midnightblue" points="197.75,-142.31 198.61,-131.75 191.35,-139.47 197.75,-142.31"/>
</g>
<!-- Node10 -->
<g id="node10" class="node">
<title>Node10</title>
<g id="a_node10"><a xlink:href="Ints_8hpp.html" target="_top" xlink:title=" ">
<polygon fill="white" stroke="black" points="65.5,-56.5 65.5,-75.5 159.5,-75.5 159.5,-56.5 65.5,-56.5"/>
<text text-anchor="middle" x="112.5" y="-63.5" font-family="Helvetica,sans-Serif" font-size="10.00">Models/Ints.hpp</text>
</a>
</g>
</g>
<!-- Node4&#45;&gt;Node10 -->
<g id="edge13" class="edge">
<title>Node4&#45;&gt;Node10</title>
<path fill="none" stroke="midnightblue" d="M173.32,-168.37C162.48,-150.3 137.21,-108.18 122.88,-84.31"/>
<polygon fill="midnightblue" stroke="midnightblue" points="125.8,-82.37 117.65,-75.59 119.8,-85.97 125.8,-82.37"/>
</g>
<!-- Node6 -->
<g id="node6" class="node">
<title>Node6</title>
<g id="a_node6"><a xlink:title=" ">
<polygon fill="white" stroke="#bfbfbf" points="177.5,-56.5 177.5,-75.5 227.5,-75.5 227.5,-56.5 177.5,-56.5"/>
<text text-anchor="middle" x="202.5" y="-63.5" font-family="Helvetica,sans-Serif" font-size="10.00">cstdint</text>
</a>
</g>
</g>
<!-- Node5&#45;&gt;Node6 -->
<g id="edge5" class="edge">
<title>Node5&#45;&gt;Node6</title>
<path fill="none" stroke="midnightblue" d="M202.5,-112.08C202.5,-105.01 202.5,-94.86 202.5,-85.99"/>
<polygon fill="midnightblue" stroke="midnightblue" points="206,-85.75 202.5,-75.75 199,-85.75 206,-85.75"/>
</g>
<!-- Node5&#45;&gt;Node7 -->
<g id="edge6" class="edge">
<title>Node5&#45;&gt;Node7</title>
<path fill="none" stroke="midnightblue" d="M174.14,-112.44C142.33,-102.85 90.8,-87.3 57.03,-77.11"/>
<polygon fill="midnightblue" stroke="midnightblue" points="57.74,-73.67 47.16,-74.14 55.72,-80.38 57.74,-73.67"/>
</g>
<!-- Node8 -->
<g id="node8" class="node">
<title>Node8</title>
<g id="a_node8"><a xlink:title=" ">
<polygon fill="white" stroke="#bfbfbf" points="245.5,-56.5 245.5,-75.5 303.5,-75.5 303.5,-56.5 245.5,-56.5"/>
<text text-anchor="middle" x="274.5" y="-63.5" font-family="Helvetica,sans-Serif" font-size="10.00">memory</text>
</a>
</g>
</g>
<!-- Node5&#45;&gt;Node8 -->
<g id="edge7" class="edge">
<title>Node5&#45;&gt;Node8</title>
<path fill="none" stroke="midnightblue" d="M214.07,-112.32C224.92,-104.18 241.38,-91.84 254.38,-82.09"/>
<polygon fill="midnightblue" stroke="midnightblue" points="256.82,-84.63 262.72,-75.83 252.62,-79.03 256.82,-84.63"/>
</g>
<!-- Node5&#45;&gt;Node9 -->
<g id="edge8" class="edge">
<title>Node5&#45;&gt;Node9</title>
<path fill="none" stroke="midnightblue" d="M242.89,-115.64C293.32,-108.63 382.37,-95.18 467.42,-76.04"/>
<polygon fill="midnightblue" stroke="midnightblue" points="468.26,-79.43 477.23,-73.8 466.7,-72.61 468.26,-79.43"/>
</g>
<!-- Node5&#45;&gt;Node10 -->
<g id="edge9" class="edge">
<title>Node5&#45;&gt;Node10</title>
<path fill="none" stroke="midnightblue" d="M188.04,-112.32C174,-103.9 152.45,-90.97 135.96,-81.07"/>
<polygon fill="midnightblue" stroke="midnightblue" points="137.3,-77.8 126.92,-75.65 133.7,-83.8 137.3,-77.8"/>
</g>
<!-- Node13 -->
<g id="node13" class="node">
<title>Node13</title>
<g id="a_node13"><a xlink:href="Components_8hpp.html" target="_top" xlink:title=" ">
<polygon fill="white" stroke="black" points="322,-56.5 322,-75.5 459,-75.5 459,-56.5 322,-56.5"/>
<text text-anchor="middle" x="390.5" y="-63.5" font-family="Helvetica,sans-Serif" font-size="10.00">Models/Components.hpp</text>
</a>
</g>
</g>
<!-- Node5&#45;&gt;Node13 -->
<g id="edge12" class="edge">
<title>Node5&#45;&gt;Node13</title>
<path fill="none" stroke="midnightblue" d="M232.29,-112.44C264.33,-103.24 315.43,-88.56 350.85,-78.39"/>
<polygon fill="midnightblue" stroke="midnightblue" points="352.21,-81.64 360.85,-75.52 350.27,-74.91 352.21,-81.64"/>
</g>
<!-- Node11 -->
<g id="node11" class="node">
<title>Node11</title>
<g id="a_node11"><a xlink:title=" ">
<polygon fill="white" stroke="#bfbfbf" points="41.5,-0.5 41.5,-19.5 103.5,-19.5 103.5,-0.5 41.5,-0.5"/>
<text text-anchor="middle" x="72.5" y="-7.5" font-family="Helvetica,sans-Serif" font-size="10.00">cinttypes</text>
</a>
</g>
</g>
<!-- Node10&#45;&gt;Node11 -->
<g id="edge10" class="edge">
<title>Node10&#45;&gt;Node11</title>
<path fill="none" stroke="midnightblue" d="M105.89,-56.08C100.24,-48.46 91.96,-37.26 85.05,-27.94"/>
<polygon fill="midnightblue" stroke="midnightblue" points="87.75,-25.7 78.98,-19.75 82.12,-29.87 87.75,-25.7"/>
</g>
<!-- Node12 -->
<g id="node12" class="node">
<title>Node12</title>
<g id="a_node12"><a xlink:title=" ">
<polygon fill="white" stroke="#bfbfbf" points="121.5,-0.5 121.5,-19.5 181.5,-19.5 181.5,-0.5 121.5,-0.5"/>
<text text-anchor="middle" x="151.5" y="-7.5" font-family="Helvetica,sans-Serif" font-size="10.00">iostream</text>
</a>
</g>
</g>
<!-- Node10&#45;&gt;Node12 -->
<g id="edge11" class="edge">
<title>Node10&#45;&gt;Node12</title>
<path fill="none" stroke="midnightblue" d="M118.94,-56.08C124.45,-48.46 132.53,-37.26 139.26,-27.94"/>
<polygon fill="midnightblue" stroke="midnightblue" points="142.16,-29.91 145.18,-19.75 136.49,-25.81 142.16,-29.91"/>
</g>
</g>
</svg>
