<?xml version="1.0" encoding="UTF-8" standalone="no"?>
<!DOCTYPE svg PUBLIC "-//W3C//DTD SVG 1.1//EN"
 "http://www.w3.org/Graphics/SVG/1.1/DTD/svg11.dtd">
<!-- Generated by graphviz version 2.43.0 (0)
 -->
<!-- Title: sources/PPU/Tile.hpp Pages: 1 -->
<svg width="707pt" height="95pt"
 viewBox="0.00 0.00 707.00 95.00" xmlns="http://www.w3.org/2000/svg" xmlns:xlink="http://www.w3.org/1999/xlink">
<g id="graph0" class="graph" transform="scale(1 1) rotate(0) translate(4 91)">
<title>sources/PPU/Tile.hpp</title>
<polygon fill="white" stroke="transparent" points="-4,4 -4,-91 703,-91 703,4 -4,4"/>
<!-- Node1 -->
<g id="node1" class="node">
<title>Node1</title>
<g id="a_node1"><a xlink:title=" ">
<polygon fill="#bfbfbf" stroke="black" points="285,-67.5 285,-86.5 404,-86.5 404,-67.5 285,-67.5"/>
<text text-anchor="middle" x="344.5" y="-74.5" font-family="Helvetica,sans-Serif" font-size="10.00">sources/PPU/Tile.hpp</text>
</a>
</g>
</g>
<!-- Node2 -->
<g id="node2" class="node">
<title>Node2</title>
<g id="a_node2"><a xlink:href="RAMTileRenderer_8cpp.html" target="_top" xlink:title=" ">
<polygon fill="white" stroke="black" points="0,-0.5 0,-30.5 159,-30.5 159,-0.5 0,-0.5"/>
<text text-anchor="start" x="8" y="-18.5" font-family="Helvetica,sans-Serif" font-size="10.00">sources/Debugger/TileViewer</text>
<text text-anchor="middle" x="79.5" y="-7.5" font-family="Helvetica,sans-Serif" font-size="10.00">/RAMTileRenderer.cpp</text>
</a>
</g>
</g>
<!-- Node1&#45;&gt;Node2 -->
<g id="edge1" class="edge">
<title>Node1&#45;&gt;Node2</title>
<path fill="none" stroke="midnightblue" d="M296.53,-65.23C253.23,-55.51 189.24,-41.14 141.96,-30.52"/>
<polygon fill="midnightblue" stroke="midnightblue" points="296.01,-68.7 306.53,-67.48 297.54,-61.87 296.01,-68.7"/>
</g>
<!-- Node3 -->
<g id="node3" class="node">
<title>Node3</title>
<g id="a_node3"><a xlink:href="Background_8cpp.html" target="_top" xlink:title=" ">
<polygon fill="white" stroke="black" points="176.5,-6 176.5,-25 334.5,-25 334.5,-6 176.5,-6"/>
<text text-anchor="middle" x="255.5" y="-13" font-family="Helvetica,sans-Serif" font-size="10.00">sources/PPU/Background.cpp</text>
</a>
</g>
</g>
<!-- Node1&#45;&gt;Node3 -->
<g id="edge2" class="edge">
<title>Node1&#45;&gt;Node3</title>
<path fill="none" stroke="midnightblue" d="M322.98,-61.61C305.86,-50.17 282.49,-34.55 268.23,-25.01"/>
<polygon fill="midnightblue" stroke="midnightblue" points="321.49,-64.83 331.75,-67.48 325.38,-59.01 321.49,-64.83"/>
</g>
<!-- Node4 -->
<g id="node4" class="node">
<title>Node4</title>
<g id="a_node4"><a xlink:href="TileRenderer_8cpp.html" target="_top" xlink:title=" ">
<polygon fill="white" stroke="black" points="353,-6 353,-25 514,-25 514,-6 353,-6"/>
<text text-anchor="middle" x="433.5" y="-13" font-family="Helvetica,sans-Serif" font-size="10.00">sources/PPU/TileRenderer.cpp</text>
</a>
</g>
</g>
<!-- Node1&#45;&gt;Node4 -->
<g id="edge3" class="edge">
<title>Node1&#45;&gt;Node4</title>
<path fill="none" stroke="midnightblue" d="M366.02,-61.61C383.14,-50.17 406.51,-34.55 420.77,-25.01"/>
<polygon fill="midnightblue" stroke="midnightblue" points="363.62,-59.01 357.25,-67.48 367.51,-64.83 363.62,-59.01"/>
</g>
<!-- Node5 -->
<g id="node5" class="node">
<title>Node5</title>
<g id="a_node5"><a xlink:href="testTileRenderer_8cpp.html" target="_top" xlink:title=" ">
<polygon fill="white" stroke="black" points="532,-6 532,-25 699,-25 699,-6 532,-6"/>
<text text-anchor="middle" x="615.5" y="-13" font-family="Helvetica,sans-Serif" font-size="10.00">tests/PPU/testTileRenderer.cpp</text>
</a>
</g>
</g>
<!-- Node1&#45;&gt;Node5 -->
<g id="edge4" class="edge">
<title>Node1&#45;&gt;Node5</title>
<path fill="none" stroke="midnightblue" d="M393.1,-65.33C445.65,-53.79 528.38,-35.63 576.74,-25.01"/>
<polygon fill="midnightblue" stroke="midnightblue" points="392.34,-61.91 383.33,-67.48 393.85,-68.75 392.34,-61.91"/>
</g>
</g>
</svg>
