<?xml version="1.0" encoding="UTF-8" standalone="no"?>
<!DOCTYPE svg PUBLIC "-//W3C//DTD SVG 1.1//EN"
 "http://www.w3.org/Graphics/SVG/1.1/DTD/svg11.dtd">
<!-- Generated by graphviz version 2.43.0 (0)
 -->
<!-- Title: sources/CPU/Instructions/TransferRegisters.cpp Pages: 1 -->
<svg width="1576pt" height="543pt"
 viewBox="0.00 0.00 1575.50 543.00" xmlns="http://www.w3.org/2000/svg" xmlns:xlink="http://www.w3.org/1999/xlink">
<g id="graph0" class="graph" transform="scale(1 1) rotate(0) translate(4 539)">
<title>sources/CPU/Instructions/TransferRegisters.cpp</title>
<polygon fill="white" stroke="transparent" points="-4,4 -4,-539 1571.5,-539 1571.5,4 -4,4"/>
<!-- Node1 -->
<g id="node1" class="node">
<title>Node1</title>
<g id="a_node1"><a xlink:title=" ">
<polygon fill="#bfbfbf" stroke="black" points="167.5,-504.5 167.5,-534.5 304.5,-534.5 304.5,-504.5 167.5,-504.5"/>
<text text-anchor="start" x="175.5" y="-522.5" font-family="Helvetica,sans-Serif" font-size="10.00">sources/CPU/Instructions</text>
<text text-anchor="middle" x="236" y="-511.5" font-family="Helvetica,sans-Serif" font-size="10.00">/TransferRegisters.cpp</text>
</a>
</g>
</g>
<!-- Node2 -->
<g id="node2" class="node">
<title>Node2</title>
<g id="a_node2"><a xlink:title=" ">
<polygon fill="white" stroke="#bfbfbf" points="71,-0.5 71,-19.5 131,-19.5 131,-0.5 71,-0.5"/>
<text text-anchor="middle" x="101" y="-7.5" font-family="Helvetica,sans-Serif" font-size="10.00">iostream</text>
</a>
</g>
</g>
<!-- Node1&#45;&gt;Node2 -->
<g id="edge1" class="edge">
<title>Node1&#45;&gt;Node2</title>
<path fill="none" stroke="midnightblue" d="M167.42,-513.58C97.74,-504.41 0,-478.15 0,-403 0,-403 0,-403 0,-121 0,-76.59 45.21,-42.37 75.14,-24.58"/>
<polygon fill="midnightblue" stroke="midnightblue" points="76.92,-27.59 83.87,-19.59 73.45,-21.51 76.92,-27.59"/>
</g>
<!-- Node3 -->
<g id="node3" class="node">
<title>Node3</title>
<g id="a_node3"><a xlink:href="CPU_8hpp.html" target="_top" xlink:title=" ">
<polygon fill="white" stroke="black" points="437.5,-448.5 437.5,-467.5 518.5,-467.5 518.5,-448.5 437.5,-448.5"/>
<text text-anchor="middle" x="478" y="-455.5" font-family="Helvetica,sans-Serif" font-size="10.00">CPU/CPU.hpp</text>
</a>
</g>
</g>
<!-- Node1&#45;&gt;Node3 -->
<g id="edge2" class="edge">
<title>Node1&#45;&gt;Node3</title>
<path fill="none" stroke="midnightblue" d="M293.04,-504.47C335.98,-493.92 393.99,-479.66 433.52,-469.94"/>
<polygon fill="midnightblue" stroke="midnightblue" points="434.53,-473.29 443.4,-467.51 432.86,-466.5 434.53,-473.29"/>
</g>
<!-- Node4 -->
<g id="node4" class="node">
<title>Node4</title>
<g id="a_node4"><a xlink:href="AMemory_8hpp.html" target="_top" xlink:title=" ">
<polygon fill="white" stroke="black" points="752.5,-168.5 752.5,-187.5 879.5,-187.5 879.5,-168.5 752.5,-168.5"/>
<text text-anchor="middle" x="816" y="-175.5" font-family="Helvetica,sans-Serif" font-size="10.00">Memory/AMemory.hpp</text>
</a>
</g>
</g>
<!-- Node3&#45;&gt;Node4 -->
<g id="edge3" class="edge">
<title>Node3&#45;&gt;Node4</title>
<path fill="none" stroke="midnightblue" d="M488.49,-448.38C536.59,-408.81 736.41,-244.46 797.91,-193.88"/>
<polygon fill="midnightblue" stroke="midnightblue" points="800.14,-196.58 805.64,-187.52 795.69,-191.17 800.14,-196.58"/>
</g>
<!-- Node9 -->
<g id="node9" class="node">
<title>Node9</title>
<g id="a_node9"><a xlink:href="Ints_8hpp.html" target="_top" xlink:title=" ">
<polygon fill="white" stroke="black" points="191,-56.5 191,-75.5 285,-75.5 285,-56.5 191,-56.5"/>
<text text-anchor="middle" x="238" y="-63.5" font-family="Helvetica,sans-Serif" font-size="10.00">Models/Ints.hpp</text>
</a>
</g>
</g>
<!-- Node3&#45;&gt;Node9 -->
<g id="edge37" class="edge">
<title>Node3&#45;&gt;Node9</title>
<path fill="none" stroke="midnightblue" d="M437.22,-457.2C388.31,-455.7 305.37,-447.51 245,-412 216.99,-395.53 211.77,-385.43 198,-356 151.96,-257.56 135.03,-210 182,-112 188.25,-98.95 200.34,-88.49 211.68,-80.95"/>
<polygon fill="midnightblue" stroke="midnightblue" points="213.81,-83.75 220.5,-75.54 210.15,-77.79 213.81,-83.75"/>
</g>
<!-- Node13 -->
<g id="node13" class="node">
<title>Node13</title>
<g id="a_node13"><a xlink:href="MemoryBus_8hpp.html" target="_top" xlink:title=" ">
<polygon fill="white" stroke="black" points="879,-336.5 879,-355.5 1019,-355.5 1019,-336.5 879,-336.5"/>
<text text-anchor="middle" x="949" y="-343.5" font-family="Helvetica,sans-Serif" font-size="10.00">Memory/MemoryBus.hpp</text>
</a>
</g>
</g>
<!-- Node3&#45;&gt;Node13 -->
<g id="edge19" class="edge">
<title>Node3&#45;&gt;Node13</title>
<path fill="none" stroke="midnightblue" d="M514.57,-448.46C599.34,-428.66 809.16,-379.66 902.71,-357.81"/>
<polygon fill="midnightblue" stroke="midnightblue" points="903.51,-361.22 912.46,-355.53 901.92,-354.4 903.51,-361.22"/>
</g>
<!-- Node19 -->
<g id="node19" class="node">
<title>Node19</title>
<g id="a_node19"><a xlink:href="Callback_8hpp.html" target="_top" xlink:title=" ">
<polygon fill="white" stroke="black" points="1338,-392.5 1338,-411.5 1456,-411.5 1456,-392.5 1338,-392.5"/>
<text text-anchor="middle" x="1397" y="-399.5" font-family="Helvetica,sans-Serif" font-size="10.00">Models/Callback.hpp</text>
</a>
</g>
</g>
<!-- Node3&#45;&gt;Node19 -->
<g id="edge38" class="edge">
<title>Node3&#45;&gt;Node19</title>
<path fill="none" stroke="midnightblue" d="M518.67,-454.61C662.22,-446.18 1146.19,-417.74 1327.58,-407.08"/>
<polygon fill="midnightblue" stroke="midnightblue" points="1328.01,-410.56 1337.79,-406.48 1327.6,-403.57 1328.01,-410.56"/>
</g>
<!-- Node23 -->
<g id="node23" class="node">
<title>Node23</title>
<g id="a_node23"><a xlink:href="Cartridge_8hpp.html" target="_top" xlink:title=" ">
<polygon fill="white" stroke="black" points="412.5,-280.5 412.5,-299.5 543.5,-299.5 543.5,-280.5 412.5,-280.5"/>
<text text-anchor="middle" x="478" y="-287.5" font-family="Helvetica,sans-Serif" font-size="10.00">Cartridge/Cartridge.hpp</text>
</a>
</g>
</g>
<!-- Node3&#45;&gt;Node23 -->
<g id="edge42" class="edge">
<title>Node3&#45;&gt;Node23</title>
<path fill="none" stroke="midnightblue" d="M478,-448.08C478,-421.95 478,-345.21 478,-309.58"/>
<polygon fill="midnightblue" stroke="midnightblue" points="481.5,-309.57 478,-299.57 474.5,-309.57 481.5,-309.57"/>
</g>
<!-- Node28 -->
<g id="node28" class="node">
<title>Node28</title>
<g id="a_node28"><a xlink:href="Instruction_8hpp.html" target="_top" xlink:title=" ">
<polygon fill="white" stroke="black" points="230.5,-112.5 230.5,-131.5 319.5,-131.5 319.5,-112.5 230.5,-112.5"/>
<text text-anchor="middle" x="275" y="-119.5" font-family="Helvetica,sans-Serif" font-size="10.00">Instruction.hpp</text>
</a>
</g>
</g>
<!-- Node3&#45;&gt;Node28 -->
<g id="edge55" class="edge">
<title>Node3&#45;&gt;Node28</title>
<path fill="none" stroke="midnightblue" d="M437.28,-449.57C360.5,-434.41 202,-397.03 202,-347 202,-347 202,-347 202,-233 202,-193.78 234.62,-157.84 256.25,-138.32"/>
<polygon fill="midnightblue" stroke="midnightblue" points="258.65,-140.87 263.91,-131.67 254.07,-135.58 258.65,-140.87"/>
</g>
<!-- Node29 -->
<g id="node29" class="node">
<title>Node29</title>
<g id="a_node29"><a xlink:href="DMA_8hpp.html" target="_top" xlink:title=" ">
<polygon fill="white" stroke="black" points="905.5,-392.5 905.5,-411.5 992.5,-411.5 992.5,-392.5 905.5,-392.5"/>
<text text-anchor="middle" x="949" y="-399.5" font-family="Helvetica,sans-Serif" font-size="10.00">DMA/DMA.hpp</text>
</a>
</g>
</g>
<!-- Node3&#45;&gt;Node29 -->
<g id="edge58" class="edge">
<title>Node3&#45;&gt;Node29</title>
<path fill="none" stroke="midnightblue" d="M518.56,-452.35C603.5,-442.61 800.04,-420.08 895.3,-409.16"/>
<polygon fill="midnightblue" stroke="midnightblue" points="895.77,-412.63 905.3,-408.01 894.97,-405.67 895.77,-412.63"/>
</g>
<!-- Node30 -->
<g id="node30" class="node">
<title>Node30</title>
<g id="a_node30"><a xlink:href="Registers_8hpp.html" target="_top" xlink:title=" ">
<polygon fill="white" stroke="black" points="28.5,-280.5 28.5,-299.5 135.5,-299.5 135.5,-280.5 28.5,-280.5"/>
<text text-anchor="middle" x="82" y="-287.5" font-family="Helvetica,sans-Serif" font-size="10.00">CPU/Registers.hpp</text>
</a>
</g>
</g>
<!-- Node3&#45;&gt;Node30 -->
<g id="edge63" class="edge">
<title>Node3&#45;&gt;Node30</title>
<path fill="none" stroke="midnightblue" d="M437.41,-455.87C360.27,-453.01 196.03,-443.33 150,-412 113.76,-387.33 94.68,-336.61 86.68,-309.33"/>
<polygon fill="midnightblue" stroke="midnightblue" points="90.01,-308.23 83.99,-299.52 83.26,-310.09 90.01,-308.23"/>
</g>
<!-- Node5 -->
<g id="node5" class="node">
<title>Node5</title>
<g id="a_node5"><a xlink:title=" ">
<polygon fill="white" stroke="#bfbfbf" points="956,-56.5 956,-75.5 1006,-75.5 1006,-56.5 956,-56.5"/>
<text text-anchor="middle" x="981" y="-63.5" font-family="Helvetica,sans-Serif" font-size="10.00">cstdint</text>
</a>
</g>
</g>
<!-- Node4&#45;&gt;Node5 -->
<g id="edge4" class="edge">
<title>Node4&#45;&gt;Node5</title>
<path fill="none" stroke="midnightblue" d="M828.95,-168.37C857.26,-149.49 924.92,-104.38 959.64,-81.24"/>
<polygon fill="midnightblue" stroke="midnightblue" points="961.73,-84.05 968.11,-75.59 957.85,-78.23 961.73,-84.05"/>
</g>
<!-- Node6 -->
<g id="node6" class="node">
<title>Node6</title>
<g id="a_node6"><a xlink:title=" ">
<polygon fill="white" stroke="#bfbfbf" points="702.5,-56.5 702.5,-75.5 749.5,-75.5 749.5,-56.5 702.5,-56.5"/>
<text text-anchor="middle" x="726" y="-63.5" font-family="Helvetica,sans-Serif" font-size="10.00">vector</text>
</a>
</g>
</g>
<!-- Node4&#45;&gt;Node6 -->
<g id="edge5" class="edge">
<title>Node4&#45;&gt;Node6</title>
<path fill="none" stroke="midnightblue" d="M805.1,-168.43C794.62,-159.87 778.69,-146.01 767,-132 754.62,-117.16 743.12,-98.31 735.47,-84.73"/>
<polygon fill="midnightblue" stroke="midnightblue" points="738.51,-82.99 730.63,-75.91 732.38,-86.36 738.51,-82.99"/>
</g>
<!-- Node7 -->
<g id="node7" class="node">
<title>Node7</title>
<g id="a_node7"><a xlink:title=" ">
<polygon fill="white" stroke="#bfbfbf" points="1176,-56.5 1176,-75.5 1234,-75.5 1234,-56.5 1176,-56.5"/>
<text text-anchor="middle" x="1205" y="-63.5" font-family="Helvetica,sans-Serif" font-size="10.00">memory</text>
</a>
</g>
</g>
<!-- Node4&#45;&gt;Node7 -->
<g id="edge6" class="edge">
<title>Node4&#45;&gt;Node7</title>
<path fill="none" stroke="midnightblue" d="M840.26,-168.48C877.85,-155.43 952.56,-130.1 1017,-112 1067.95,-97.69 1127.45,-83.94 1165.65,-75.48"/>
<polygon fill="midnightblue" stroke="midnightblue" points="1166.82,-78.81 1175.83,-73.24 1165.31,-71.97 1166.82,-78.81"/>
</g>
<!-- Node8 -->
<g id="node8" class="node">
<title>Node8</title>
<g id="a_node8"><a xlink:title=" ">
<polygon fill="white" stroke="#bfbfbf" points="402,-56.5 402,-75.5 446,-75.5 446,-56.5 402,-56.5"/>
<text text-anchor="middle" x="424" y="-63.5" font-family="Helvetica,sans-Serif" font-size="10.00">string</text>
</a>
</g>
</g>
<!-- Node4&#45;&gt;Node8 -->
<g id="edge7" class="edge">
<title>Node4&#45;&gt;Node8</title>
<path fill="none" stroke="midnightblue" d="M791.75,-168.45C754.17,-155.36 679.47,-129.99 615,-112 559.66,-96.56 494.34,-81.93 456.21,-73.75"/>
<polygon fill="midnightblue" stroke="midnightblue" points="456.72,-70.28 446.21,-71.62 455.26,-77.13 456.72,-70.28"/>
</g>
<!-- Node4&#45;&gt;Node9 -->
<g id="edge8" class="edge">
<title>Node4&#45;&gt;Node9</title>
<path fill="none" stroke="midnightblue" d="M752.26,-172.54C684.3,-166.84 573.88,-154.84 481,-132 455.74,-125.79 450.91,-119.48 426,-112 380.41,-98.3 327.64,-85.97 289.63,-77.7"/>
<polygon fill="midnightblue" stroke="midnightblue" points="290.32,-74.27 279.81,-75.58 288.84,-81.11 290.32,-74.27"/>
</g>
<!-- Node11 -->
<g id="node11" class="node">
<title>Node11</title>
<g id="a_node11"><a xlink:href="Components_8hpp.html" target="_top" xlink:title=" ">
<polygon fill="white" stroke="black" points="783.5,-56.5 783.5,-75.5 920.5,-75.5 920.5,-56.5 783.5,-56.5"/>
<text text-anchor="middle" x="852" y="-63.5" font-family="Helvetica,sans-Serif" font-size="10.00">Models/Components.hpp</text>
</a>
</g>
</g>
<!-- Node4&#45;&gt;Node11 -->
<g id="edge11" class="edge">
<title>Node4&#45;&gt;Node11</title>
<path fill="none" stroke="midnightblue" d="M830.66,-168.4C842.41,-160.58 858.03,-147.86 865,-132 871.64,-116.89 866.76,-98.3 861.18,-84.88"/>
<polygon fill="midnightblue" stroke="midnightblue" points="864.34,-83.37 856.96,-75.77 857.99,-86.32 864.34,-83.37"/>
</g>
<!-- Node12 -->
<g id="node12" class="node">
<title>Node12</title>
<g id="a_node12"><a xlink:href="IMemory_8hpp.html" target="_top" xlink:title=" ">
<polygon fill="white" stroke="black" points="776,-112.5 776,-131.5 856,-131.5 856,-112.5 776,-112.5"/>
<text text-anchor="middle" x="816" y="-119.5" font-family="Helvetica,sans-Serif" font-size="10.00">IMemory.hpp</text>
</a>
</g>
</g>
<!-- Node4&#45;&gt;Node12 -->
<g id="edge12" class="edge">
<title>Node4&#45;&gt;Node12</title>
<path fill="none" stroke="midnightblue" d="M816,-168.08C816,-161.01 816,-150.86 816,-141.99"/>
<polygon fill="midnightblue" stroke="midnightblue" points="819.5,-141.75 816,-131.75 812.5,-141.75 819.5,-141.75"/>
</g>
<!-- Node9&#45;&gt;Node2 -->
<g id="edge10" class="edge">
<title>Node9&#45;&gt;Node2</title>
<path fill="none" stroke="midnightblue" d="M216.29,-56.44C193.65,-47.52 157.93,-33.44 132.25,-23.32"/>
<polygon fill="midnightblue" stroke="midnightblue" points="133.19,-19.93 122.61,-19.52 130.63,-26.44 133.19,-19.93"/>
</g>
<!-- Node10 -->
<g id="node10" class="node">
<title>Node10</title>
<g id="a_node10"><a xlink:title=" ">
<polygon fill="white" stroke="#bfbfbf" points="517,-0.5 517,-19.5 579,-19.5 579,-0.5 517,-0.5"/>
<text text-anchor="middle" x="548" y="-7.5" font-family="Helvetica,sans-Serif" font-size="10.00">cinttypes</text>
</a>
</g>
</g>
<!-- Node9&#45;&gt;Node10 -->
<g id="edge9" class="edge">
<title>Node9&#45;&gt;Node10</title>
<path fill="none" stroke="midnightblue" d="M285.08,-56.8C345.52,-46.27 449.4,-28.18 506.83,-18.17"/>
<polygon fill="midnightblue" stroke="midnightblue" points="507.74,-21.57 516.99,-16.4 506.54,-14.67 507.74,-21.57"/>
</g>
<!-- Node12&#45;&gt;Node5 -->
<g id="edge13" class="edge">
<title>Node12&#45;&gt;Node5</title>
<path fill="none" stroke="midnightblue" d="M842.14,-112.44C870.27,-103.24 915.13,-88.56 946.22,-78.38"/>
<polygon fill="midnightblue" stroke="midnightblue" points="947.37,-81.69 955.79,-75.25 945.2,-75.03 947.37,-81.69"/>
</g>
<!-- Node12&#45;&gt;Node6 -->
<g id="edge14" class="edge">
<title>Node12&#45;&gt;Node6</title>
<path fill="none" stroke="midnightblue" d="M801.54,-112.32C787.5,-103.9 765.95,-90.97 749.46,-81.07"/>
<polygon fill="midnightblue" stroke="midnightblue" points="750.8,-77.8 740.42,-75.65 747.2,-83.8 750.8,-77.8"/>
</g>
<!-- Node12&#45;&gt;Node7 -->
<g id="edge15" class="edge">
<title>Node12&#45;&gt;Node7</title>
<path fill="none" stroke="midnightblue" d="M856.16,-115.42C931.1,-105.02 1091.33,-82.78 1165.64,-72.46"/>
<polygon fill="midnightblue" stroke="midnightblue" points="1166.54,-75.87 1175.96,-71.03 1165.58,-68.94 1166.54,-75.87"/>
</g>
<!-- Node12&#45;&gt;Node8 -->
<g id="edge16" class="edge">
<title>Node12&#45;&gt;Node8</title>
<path fill="none" stroke="midnightblue" d="M775.89,-115.47C697.94,-104.74 527.4,-81.24 456.21,-71.44"/>
<polygon fill="midnightblue" stroke="midnightblue" points="456.45,-67.94 446.06,-70.04 455.49,-74.87 456.45,-67.94"/>
</g>
<!-- Node12&#45;&gt;Node9 -->
<g id="edge17" class="edge">
<title>Node12&#45;&gt;Node9</title>
<path fill="none" stroke="midnightblue" d="M775.82,-117.25C675.17,-107.84 412,-83.26 295.23,-72.35"/>
<polygon fill="midnightblue" stroke="midnightblue" points="295.35,-68.84 285.06,-71.4 294.69,-75.81 295.35,-68.84"/>
</g>
<!-- Node12&#45;&gt;Node11 -->
<g id="edge18" class="edge">
<title>Node12&#45;&gt;Node11</title>
<path fill="none" stroke="midnightblue" d="M821.94,-112.08C826.98,-104.53 834.34,-93.49 840.51,-84.23"/>
<polygon fill="midnightblue" stroke="midnightblue" points="843.53,-86.01 846.17,-75.75 837.71,-82.13 843.53,-86.01"/>
</g>
<!-- Node13&#45;&gt;Node4 -->
<g id="edge20" class="edge">
<title>Node13&#45;&gt;Node4</title>
<path fill="none" stroke="midnightblue" d="M941.85,-336.08C920.55,-309.49 857.29,-230.54 829.43,-195.76"/>
<polygon fill="midnightblue" stroke="midnightblue" points="831.85,-193.18 822.86,-187.57 826.39,-197.56 831.85,-193.18"/>
</g>
<!-- Node13&#45;&gt;Node5 -->
<g id="edge34" class="edge">
<title>Node13&#45;&gt;Node5</title>
<path fill="none" stroke="midnightblue" d="M949.99,-336.38C954.44,-297.7 972.62,-139.79 978.87,-85.47"/>
<polygon fill="midnightblue" stroke="midnightblue" points="982.35,-85.86 980.02,-75.52 975.4,-85.06 982.35,-85.86"/>
</g>
<!-- Node13&#45;&gt;Node6 -->
<g id="edge36" class="edge">
<title>Node13&#45;&gt;Node6</title>
<path fill="none" stroke="midnightblue" d="M929.46,-336.4C887.54,-316.83 789.17,-264.67 744,-188 725.11,-155.93 723.64,-111.07 724.6,-85.95"/>
<polygon fill="midnightblue" stroke="midnightblue" points="728.12,-85.82 725.18,-75.64 721.13,-85.42 728.12,-85.82"/>
</g>
<!-- Node13&#45;&gt;Node7 -->
<g id="edge35" class="edge">
<title>Node13&#45;&gt;Node7</title>
<path fill="none" stroke="midnightblue" d="M1019.29,-341.7C1083.17,-334.29 1172.29,-311.64 1205,-244 1230.63,-191 1223.04,-170.45 1216,-112 1214.93,-103.11 1212.71,-93.43 1210.54,-85.34"/>
<polygon fill="midnightblue" stroke="midnightblue" points="1213.84,-84.17 1207.73,-75.51 1207.11,-86.09 1213.84,-84.17"/>
</g>
<!-- Node14 -->
<g id="node14" class="node">
<title>Node14</title>
<g id="a_node14"><a xlink:href="RectangleShadow_8hpp.html" target="_top" xlink:title=" ">
<polygon fill="white" stroke="black" points="996,-280.5 996,-299.5 1120,-299.5 1120,-280.5 996,-280.5"/>
<text text-anchor="middle" x="1058" y="-287.5" font-family="Helvetica,sans-Serif" font-size="10.00">RectangleShadow.hpp</text>
</a>
</g>
</g>
<!-- Node13&#45;&gt;Node14 -->
<g id="edge21" class="edge">
<title>Node13&#45;&gt;Node14</title>
<path fill="none" stroke="midnightblue" d="M966.51,-336.32C984.07,-327.62 1011.33,-314.12 1031.53,-304.11"/>
<polygon fill="midnightblue" stroke="midnightblue" points="1033.12,-307.23 1040.53,-299.65 1030.02,-300.96 1033.12,-307.23"/>
</g>
<!-- Node16 -->
<g id="node16" class="node">
<title>Node16</title>
<g id="a_node16"><a xlink:href="MemoryShadow_8hpp.html" target="_top" xlink:title=" ">
<polygon fill="white" stroke="black" points="1080,-224.5 1080,-243.5 1196,-243.5 1196,-224.5 1080,-224.5"/>
<text text-anchor="middle" x="1138" y="-231.5" font-family="Helvetica,sans-Serif" font-size="10.00">MemoryShadow.hpp</text>
</a>
</g>
</g>
<!-- Node13&#45;&gt;Node16 -->
<g id="edge29" class="edge">
<title>Node13&#45;&gt;Node16</title>
<path fill="none" stroke="midnightblue" d="M1014.26,-336.45C1059.25,-329.17 1113.61,-317.14 1129,-300 1140.05,-287.69 1141.46,-268.44 1140.61,-254.08"/>
<polygon fill="midnightblue" stroke="midnightblue" points="1144.07,-253.43 1139.59,-243.83 1137.1,-254.13 1144.07,-253.43"/>
</g>
<!-- Node17 -->
<g id="node17" class="node">
<title>Node17</title>
<g id="a_node17"><a xlink:href="IMemoryBus_8hpp.html" target="_top" xlink:title=" ">
<polygon fill="white" stroke="black" points="981.5,-168.5 981.5,-187.5 1080.5,-187.5 1080.5,-168.5 981.5,-168.5"/>
<text text-anchor="middle" x="1031" y="-175.5" font-family="Helvetica,sans-Serif" font-size="10.00">IMemoryBus.hpp</text>
</a>
</g>
</g>
<!-- Node13&#45;&gt;Node17 -->
<g id="edge30" class="edge">
<title>Node13&#45;&gt;Node17</title>
<path fill="none" stroke="midnightblue" d="M953.41,-336.08C966.43,-309.72 1004.88,-231.88 1022.28,-196.66"/>
<polygon fill="midnightblue" stroke="midnightblue" points="1025.48,-198.08 1026.77,-187.57 1019.2,-194.98 1025.48,-198.08"/>
</g>
<!-- Node14&#45;&gt;Node7 -->
<g id="edge22" class="edge">
<title>Node14&#45;&gt;Node7</title>
<path fill="none" stroke="midnightblue" d="M1058.36,-280.14C1059.2,-267.2 1061.95,-242.63 1071,-224 1100.06,-164.15 1157.45,-108.53 1186.8,-82.48"/>
<polygon fill="midnightblue" stroke="midnightblue" points="1189.38,-84.87 1194.61,-75.66 1184.78,-79.6 1189.38,-84.87"/>
</g>
<!-- Node15 -->
<g id="node15" class="node">
<title>Node15</title>
<g id="a_node15"><a xlink:href="ARectangleMemory_8hpp.html" target="_top" xlink:title=" ">
<polygon fill="white" stroke="black" points="519,-168.5 519,-187.5 651,-187.5 651,-168.5 519,-168.5"/>
<text text-anchor="middle" x="585" y="-175.5" font-family="Helvetica,sans-Serif" font-size="10.00">ARectangleMemory.hpp</text>
</a>
</g>
</g>
<!-- Node14&#45;&gt;Node15 -->
<g id="edge23" class="edge">
<title>Node14&#45;&gt;Node15</title>
<path fill="none" stroke="midnightblue" d="M1021.28,-280.46C936.15,-260.66 725.43,-211.66 631.49,-189.81"/>
<polygon fill="midnightblue" stroke="midnightblue" points="632.23,-186.39 621.7,-187.53 630.65,-193.21 632.23,-186.39"/>
</g>
<!-- Node14&#45;&gt;Node16 -->
<g id="edge26" class="edge">
<title>Node14&#45;&gt;Node16</title>
<path fill="none" stroke="midnightblue" d="M1070.85,-280.32C1083.22,-271.98 1102.13,-259.21 1116.74,-249.35"/>
<polygon fill="midnightblue" stroke="midnightblue" points="1118.85,-252.15 1125.18,-243.65 1114.93,-246.35 1118.85,-252.15"/>
</g>
<!-- Node15&#45;&gt;Node9 -->
<g id="edge25" class="edge">
<title>Node15&#45;&gt;Node9</title>
<path fill="none" stroke="midnightblue" d="M558.06,-168.46C496.44,-148.93 345.14,-100.96 274.91,-78.7"/>
<polygon fill="midnightblue" stroke="midnightblue" points="275.75,-75.3 265.16,-75.61 273.64,-81.97 275.75,-75.3"/>
</g>
<!-- Node15&#45;&gt;Node12 -->
<g id="edge24" class="edge">
<title>Node15&#45;&gt;Node12</title>
<path fill="none" stroke="midnightblue" d="M621.6,-168.44C661.73,-159.06 726.2,-143.99 769.78,-133.8"/>
<polygon fill="midnightblue" stroke="midnightblue" points="770.63,-137.2 779.57,-131.52 769.03,-130.38 770.63,-137.2"/>
</g>
<!-- Node16&#45;&gt;Node4 -->
<g id="edge28" class="edge">
<title>Node16&#45;&gt;Node4</title>
<path fill="none" stroke="midnightblue" d="M1086.98,-224.44C1029.98,-214.89 937.76,-199.42 877,-189.23"/>
<polygon fill="midnightblue" stroke="midnightblue" points="877.22,-185.72 866.78,-187.52 876.07,-192.62 877.22,-185.72"/>
</g>
<!-- Node16&#45;&gt;Node7 -->
<g id="edge27" class="edge">
<title>Node16&#45;&gt;Node7</title>
<path fill="none" stroke="midnightblue" d="M1145.4,-224.26C1159.03,-207.6 1187.81,-169.58 1200,-132 1204.86,-117.01 1205.91,-99.1 1205.86,-85.88"/>
<polygon fill="midnightblue" stroke="midnightblue" points="1209.36,-85.57 1205.6,-75.66 1202.36,-85.75 1209.36,-85.57"/>
</g>
<!-- Node17&#45;&gt;Node10 -->
<g id="edge31" class="edge">
<title>Node17&#45;&gt;Node10</title>
<path fill="none" stroke="midnightblue" d="M1049.61,-168.41C1071.37,-157.06 1102.98,-135.71 1091,-112 1072.08,-74.55 1054.18,-71 1015,-56 937.66,-26.4 688.55,-15.43 589.33,-12.17"/>
<polygon fill="midnightblue" stroke="midnightblue" points="589.21,-8.67 579.1,-11.85 588.98,-15.66 589.21,-8.67"/>
</g>
<!-- Node17&#45;&gt;Node12 -->
<g id="edge33" class="edge">
<title>Node17&#45;&gt;Node12</title>
<path fill="none" stroke="midnightblue" d="M996.93,-168.44C959.82,-159.12 900.34,-144.18 859.79,-134"/>
<polygon fill="midnightblue" stroke="midnightblue" points="860.46,-130.56 849.91,-131.52 858.75,-137.35 860.46,-130.56"/>
</g>
<!-- Node18 -->
<g id="node18" class="node">
<title>Node18</title>
<g id="a_node18"><a xlink:title=" ">
<polygon fill="white" stroke="#bfbfbf" points="1026,-112.5 1026,-131.5 1082,-131.5 1082,-112.5 1026,-112.5"/>
<text text-anchor="middle" x="1054" y="-119.5" font-family="Helvetica,sans-Serif" font-size="10.00">optional</text>
</a>
</g>
</g>
<!-- Node17&#45;&gt;Node18 -->
<g id="edge32" class="edge">
<title>Node17&#45;&gt;Node18</title>
<path fill="none" stroke="midnightblue" d="M1034.8,-168.08C1037.91,-160.77 1042.42,-150.18 1046.29,-141.1"/>
<polygon fill="midnightblue" stroke="midnightblue" points="1049.57,-142.32 1050.27,-131.75 1043.13,-139.58 1049.57,-142.32"/>
</g>
<!-- Node20 -->
<g id="node20" class="node">
<title>Node20</title>
<g id="a_node20"><a xlink:title=" ">
<polygon fill="white" stroke="#bfbfbf" points="1328.5,-336.5 1328.5,-355.5 1393.5,-355.5 1393.5,-336.5 1328.5,-336.5"/>
<text text-anchor="middle" x="1361" y="-343.5" font-family="Helvetica,sans-Serif" font-size="10.00">functional</text>
</a>
</g>
</g>
<!-- Node19&#45;&gt;Node20 -->
<g id="edge39" class="edge">
<title>Node19&#45;&gt;Node20</title>
<path fill="none" stroke="midnightblue" d="M1391.06,-392.08C1386.02,-384.53 1378.66,-373.49 1372.49,-364.23"/>
<polygon fill="midnightblue" stroke="midnightblue" points="1375.29,-362.13 1366.83,-355.75 1369.47,-366.01 1375.29,-362.13"/>
</g>
<!-- Node21 -->
<g id="node21" class="node">
<title>Node21</title>
<g id="a_node21"><a xlink:title=" ">
<polygon fill="white" stroke="#bfbfbf" points="1411.5,-336.5 1411.5,-355.5 1456.5,-355.5 1456.5,-336.5 1411.5,-336.5"/>
<text text-anchor="middle" x="1434" y="-343.5" font-family="Helvetica,sans-Serif" font-size="10.00">utility</text>
</a>
</g>
</g>
<!-- Node19&#45;&gt;Node21 -->
<g id="edge40" class="edge">
<title>Node19&#45;&gt;Node21</title>
<path fill="none" stroke="midnightblue" d="M1403.11,-392.08C1408.28,-384.53 1415.85,-373.49 1422.19,-364.23"/>
<polygon fill="midnightblue" stroke="midnightblue" points="1425.24,-365.98 1428,-355.75 1419.46,-362.02 1425.24,-365.98"/>
</g>
<!-- Node22 -->
<g id="node22" class="node">
<title>Node22</title>
<g id="a_node22"><a xlink:title=" ">
<polygon fill="white" stroke="#bfbfbf" points="1474.5,-336.5 1474.5,-355.5 1567.5,-355.5 1567.5,-336.5 1474.5,-336.5"/>
<text text-anchor="middle" x="1521" y="-343.5" font-family="Helvetica,sans-Serif" font-size="10.00">unordered_map</text>
</a>
</g>
</g>
<!-- Node19&#45;&gt;Node22 -->
<g id="edge41" class="edge">
<title>Node19&#45;&gt;Node22</title>
<path fill="none" stroke="midnightblue" d="M1416.65,-392.44C1436.96,-383.6 1468.9,-369.69 1492.1,-359.59"/>
<polygon fill="midnightblue" stroke="midnightblue" points="1493.67,-362.72 1501.44,-355.52 1490.88,-356.3 1493.67,-362.72"/>
</g>
<!-- Node23&#45;&gt;Node4 -->
<g id="edge45" class="edge">
<title>Node23&#45;&gt;Node4</title>
<path fill="none" stroke="midnightblue" d="M517.81,-280.5C553.97,-272.39 608.59,-259.19 655,-244 702.51,-228.45 756.03,-205.77 787.84,-191.72"/>
<polygon fill="midnightblue" stroke="midnightblue" points="789.26,-194.92 796.98,-187.66 786.42,-188.52 789.26,-194.92"/>
</g>
<!-- Node23&#45;&gt;Node8 -->
<g id="edge54" class="edge">
<title>Node23&#45;&gt;Node8</title>
<path fill="none" stroke="midnightblue" d="M463.38,-280.43C439.38,-265.36 392.61,-231.54 376,-188 361.72,-150.55 390.26,-106.92 409.14,-83.64"/>
<polygon fill="midnightblue" stroke="midnightblue" points="412.02,-85.67 415.8,-75.77 406.67,-81.15 412.02,-85.67"/>
</g>
<!-- Node23&#45;&gt;Node9 -->
<g id="edge47" class="edge">
<title>Node23&#45;&gt;Node9</title>
<path fill="none" stroke="midnightblue" d="M412.32,-281.62C376.43,-275.45 332.24,-264.24 297,-244 236.77,-209.41 214.15,-196.35 188,-132 184.65,-123.76 184.38,-120.12 188,-112 193.57,-99.5 204.52,-89.01 214.75,-81.32"/>
<polygon fill="midnightblue" stroke="midnightblue" points="216.85,-84.12 223.05,-75.53 212.84,-78.38 216.85,-84.12"/>
</g>
<!-- Node23&#45;&gt;Node15 -->
<g id="edge46" class="edge">
<title>Node23&#45;&gt;Node15</title>
<path fill="none" stroke="midnightblue" d="M488.79,-280.49C499.61,-271.76 516.57,-257.58 530,-244 545.35,-228.48 561.29,-209.24 572.03,-195.73"/>
<polygon fill="midnightblue" stroke="midnightblue" points="574.85,-197.81 578.28,-187.78 569.35,-193.48 574.85,-197.81"/>
</g>
<!-- Node24 -->
<g id="node24" class="node">
<title>Node24</title>
<g id="a_node24"><a xlink:href="InterruptVectors_8hpp.html" target="_top" xlink:title=" ">
<polygon fill="white" stroke="black" points="490,-112.5 490,-131.5 606,-131.5 606,-112.5 490,-112.5"/>
<text text-anchor="middle" x="548" y="-119.5" font-family="Helvetica,sans-Serif" font-size="10.00">InterruptVectors.hpp</text>
</a>
</g>
</g>
<!-- Node23&#45;&gt;Node24 -->
<g id="edge43" class="edge">
<title>Node23&#45;&gt;Node24</title>
<path fill="none" stroke="midnightblue" d="M514.88,-280.49C558.39,-268.27 628.74,-241.1 660,-188 676.06,-160.73 640.59,-143.8 605.41,-134.08"/>
<polygon fill="midnightblue" stroke="midnightblue" points="606.1,-130.64 595.54,-131.52 604.34,-137.42 606.1,-130.64"/>
</g>
<!-- Node25 -->
<g id="node25" class="node">
<title>Node25</title>
<g id="a_node25"><a xlink:href="Ram_8hpp.html" target="_top" xlink:title=" ">
<polygon fill="white" stroke="black" points="435,-224.5 435,-243.5 521,-243.5 521,-224.5 435,-224.5"/>
<text text-anchor="middle" x="478" y="-231.5" font-family="Helvetica,sans-Serif" font-size="10.00">Ram/Ram.hpp</text>
</a>
</g>
</g>
<!-- Node23&#45;&gt;Node25 -->
<g id="edge48" class="edge">
<title>Node23&#45;&gt;Node25</title>
<path fill="none" stroke="midnightblue" d="M478,-280.08C478,-273.01 478,-262.86 478,-253.99"/>
<polygon fill="midnightblue" stroke="midnightblue" points="481.5,-253.75 478,-243.75 474.5,-253.75 481.5,-253.75"/>
</g>
<!-- Node27 -->
<g id="node27" class="node">
<title>Node27</title>
<g id="a_node27"><a xlink:title=" ">
<polygon fill="white" stroke="#bfbfbf" points="306,-224.5 306,-243.5 374,-243.5 374,-224.5 306,-224.5"/>
<text text-anchor="middle" x="340" y="-231.5" font-family="Helvetica,sans-Serif" font-size="10.00">filesystem</text>
</a>
</g>
</g>
<!-- Node23&#45;&gt;Node27 -->
<g id="edge53" class="edge">
<title>Node23&#45;&gt;Node27</title>
<path fill="none" stroke="midnightblue" d="M456.13,-280.44C433.22,-271.48 397.02,-257.31 371.13,-247.18"/>
<polygon fill="midnightblue" stroke="midnightblue" points="372.35,-243.9 361.76,-243.52 369.8,-250.42 372.35,-243.9"/>
</g>
<!-- Node24&#45;&gt;Node10 -->
<g id="edge44" class="edge">
<title>Node24&#45;&gt;Node10</title>
<path fill="none" stroke="midnightblue" d="M548,-112.37C548,-94.62 548,-53.67 548,-29.6"/>
<polygon fill="midnightblue" stroke="midnightblue" points="551.5,-29.59 548,-19.59 544.5,-29.59 551.5,-29.59"/>
</g>
<!-- Node25&#45;&gt;Node6 -->
<g id="edge52" class="edge">
<title>Node25&#45;&gt;Node6</title>
<path fill="none" stroke="midnightblue" d="M480.05,-224.1C483.7,-210.18 492.63,-183.29 510,-168 547.03,-135.4 570.16,-152.57 615,-132 647.5,-117.09 682.77,-95.4 704.63,-81.25"/>
<polygon fill="midnightblue" stroke="midnightblue" points="706.68,-84.09 713.13,-75.69 702.85,-78.23 706.68,-84.09"/>
</g>
<!-- Node25&#45;&gt;Node8 -->
<g id="edge50" class="edge">
<title>Node25&#45;&gt;Node8</title>
<path fill="none" stroke="midnightblue" d="M475.1,-224.08C466.56,-197.83 441.42,-120.55 429.89,-85.12"/>
<polygon fill="midnightblue" stroke="midnightblue" points="433.21,-83.99 426.79,-75.57 426.55,-86.16 433.21,-83.99"/>
</g>
<!-- Node25&#45;&gt;Node15 -->
<g id="edge49" class="edge">
<title>Node25&#45;&gt;Node15</title>
<path fill="none" stroke="midnightblue" d="M495.19,-224.32C512.35,-215.66 538.95,-202.24 558.75,-192.25"/>
<polygon fill="midnightblue" stroke="midnightblue" points="560.5,-195.28 567.85,-187.65 557.35,-189.04 560.5,-195.28"/>
</g>
<!-- Node26 -->
<g id="node26" class="node">
<title>Node26</title>
<g id="a_node26"><a xlink:title=" ">
<polygon fill="white" stroke="#bfbfbf" points="385,-168.5 385,-187.5 425,-187.5 425,-168.5 385,-168.5"/>
<text text-anchor="middle" x="405" y="-175.5" font-family="Helvetica,sans-Serif" font-size="10.00">span</text>
</a>
</g>
</g>
<!-- Node25&#45;&gt;Node26 -->
<g id="edge51" class="edge">
<title>Node25&#45;&gt;Node26</title>
<path fill="none" stroke="midnightblue" d="M466.27,-224.32C455.16,-216.11 438.26,-203.6 425.02,-193.81"/>
<polygon fill="midnightblue" stroke="midnightblue" points="427.06,-190.97 416.94,-187.83 422.9,-196.59 427.06,-190.97"/>
</g>
<!-- Node28&#45;&gt;Node8 -->
<g id="edge56" class="edge">
<title>Node28&#45;&gt;Node8</title>
<path fill="none" stroke="midnightblue" d="M298.61,-112.44C323.9,-103.28 364.17,-88.68 392.22,-78.52"/>
<polygon fill="midnightblue" stroke="midnightblue" points="393.75,-81.69 401.96,-74.99 391.36,-75.11 393.75,-81.69"/>
</g>
<!-- Node28&#45;&gt;Node9 -->
<g id="edge57" class="edge">
<title>Node28&#45;&gt;Node9</title>
<path fill="none" stroke="midnightblue" d="M268.89,-112.08C263.72,-104.53 256.15,-93.49 249.81,-84.23"/>
<polygon fill="midnightblue" stroke="midnightblue" points="252.54,-82.02 244,-75.75 246.76,-85.98 252.54,-82.02"/>
</g>
<!-- Node29&#45;&gt;Node5 -->
<g id="edge61" class="edge">
<title>Node29&#45;&gt;Node5</title>
<path fill="none" stroke="midnightblue" d="M986.46,-392.49C1047.86,-376.15 1166.9,-333.74 1205,-244 1243.31,-153.77 1088.73,-97.31 1016.44,-76.3"/>
<polygon fill="midnightblue" stroke="midnightblue" points="1016.98,-72.82 1006.4,-73.46 1015.07,-79.55 1016.98,-72.82"/>
</g>
<!-- Node29&#45;&gt;Node7 -->
<g id="edge62" class="edge">
<title>Node29&#45;&gt;Node7</title>
<path fill="none" stroke="midnightblue" d="M992.74,-396.6C1086.84,-385.92 1300,-354.7 1300,-291 1300,-291 1300,-291 1300,-177 1300,-133.74 1257.39,-99.09 1229.25,-80.91"/>
<polygon fill="midnightblue" stroke="midnightblue" points="1231.03,-77.9 1220.69,-75.6 1227.34,-83.85 1231.03,-77.9"/>
</g>
<!-- Node29&#45;&gt;Node9 -->
<g id="edge60" class="edge">
<title>Node29&#45;&gt;Node9</title>
<path fill="none" stroke="midnightblue" d="M905.38,-397.44C811.32,-388.81 583.29,-362.66 403,-300 299.02,-263.86 253.33,-237.23 221,-132 216.14,-116.18 221.89,-97.94 227.97,-84.81"/>
<polygon fill="midnightblue" stroke="midnightblue" points="231.1,-86.4 232.53,-75.9 224.86,-83.21 231.1,-86.4"/>
</g>
<!-- Node29&#45;&gt;Node13 -->
<g id="edge59" class="edge">
<title>Node29&#45;&gt;Node13</title>
<path fill="none" stroke="midnightblue" d="M949,-392.08C949,-385.01 949,-374.86 949,-365.99"/>
<polygon fill="midnightblue" stroke="midnightblue" points="952.5,-365.75 949,-355.75 945.5,-365.75 952.5,-365.75"/>
</g>
<!-- Node30&#45;&gt;Node9 -->
<g id="edge64" class="edge">
<title>Node30&#45;&gt;Node9</title>
<path fill="none" stroke="midnightblue" d="M80.7,-280.4C76.97,-252.46 69.14,-163.11 112,-112 129.12,-91.59 156.19,-80.43 180.86,-74.34"/>
<polygon fill="midnightblue" stroke="midnightblue" points="181.89,-77.69 190.89,-72.09 180.37,-70.86 181.89,-77.69"/>
</g>
</g>
</svg>
