<?xml version="1.0" encoding="UTF-8" standalone="no"?>
<!DOCTYPE svg PUBLIC "-//W3C//DTD SVG 1.1//EN"
 "http://www.w3.org/Graphics/SVG/1.1/DTD/svg11.dtd">
<!-- Generated by graphviz version 2.43.0 (0)
 -->
<!-- Title: sources/Utility/Utility.hpp Pages: 1 -->
<svg width="2615pt" height="95pt"
 viewBox="0.00 0.00 2614.50 95.00" xmlns="http://www.w3.org/2000/svg" xmlns:xlink="http://www.w3.org/1999/xlink">
<g id="graph0" class="graph" transform="scale(1 1) rotate(0) translate(4 91)">
<title>sources/Utility/Utility.hpp</title>
<polygon fill="white" stroke="transparent" points="-4,4 -4,-91 2610.5,-91 2610.5,4 -4,4"/>
<!-- Node1 -->
<g id="node1" class="node">
<title>Node1</title>
<g id="a_node1"><a xlink:title=" ">
<polygon fill="#bfbfbf" stroke="black" points="1162,-67.5 1162,-86.5 1302,-86.5 1302,-67.5 1162,-67.5"/>
<text text-anchor="middle" x="1232" y="-74.5" font-family="Helvetica,sans-Serif" font-size="10.00">sources/Utility/Utility.hpp</text>
</a>
</g>
</g>
<!-- Node2 -->
<g id="node2" class="node">
<title>Node2</title>
<g id="a_node2"><a xlink:href="8bitDataTransmission_8cpp.html" target="_top" xlink:title=" ">
<polygon fill="white" stroke="black" points="0,-0.5 0,-30.5 146,-30.5 146,-0.5 0,-0.5"/>
<text text-anchor="start" x="8" y="-18.5" font-family="Helvetica,sans-Serif" font-size="10.00">sources/APU/Instructions</text>
<text text-anchor="middle" x="73" y="-7.5" font-family="Helvetica,sans-Serif" font-size="10.00">/8bitDataTransmission.cpp</text>
</a>
</g>
</g>
<!-- Node1&#45;&gt;Node2 -->
<g id="edge1" class="edge">
<title>Node1&#45;&gt;Node2</title>
<path fill="none" stroke="midnightblue" d="M1151.69,-76.29C972.36,-76.15 525.93,-71.36 155,-31 152.13,-30.69 149.2,-30.33 146.25,-29.95"/>
<polygon fill="midnightblue" stroke="midnightblue" points="1151.83,-79.79 1161.83,-76.3 1151.83,-72.79 1151.83,-79.79"/>
</g>
<!-- Node3 -->
<g id="node3" class="node">
<title>Node3</title>
<g id="a_node3"><a xlink:href="Bit_8cpp.html" target="_top" xlink:title=" ">
<polygon fill="white" stroke="black" points="164.5,-0.5 164.5,-30.5 301.5,-30.5 301.5,-0.5 164.5,-0.5"/>
<text text-anchor="start" x="172.5" y="-18.5" font-family="Helvetica,sans-Serif" font-size="10.00">sources/APU/Instructions</text>
<text text-anchor="middle" x="233" y="-7.5" font-family="Helvetica,sans-Serif" font-size="10.00">/Bit.cpp</text>
</a>
</g>
</g>
<!-- Node1&#45;&gt;Node3 -->
<g id="edge2" class="edge">
<title>Node1&#45;&gt;Node3</title>
<path fill="none" stroke="midnightblue" d="M1151.48,-75.78C990.88,-74.52 619.53,-67.52 310,-31 307.3,-30.68 304.55,-30.32 301.77,-29.94"/>
<polygon fill="midnightblue" stroke="midnightblue" points="1151.73,-79.28 1161.75,-75.85 1151.78,-72.28 1151.73,-79.28"/>
</g>
<!-- Node4 -->
<g id="node4" class="node">
<title>Node4</title>
<g id="a_node4"><a xlink:href="Subroutine_8cpp.html" target="_top" xlink:title=" ">
<polygon fill="white" stroke="black" points="319.5,-0.5 319.5,-30.5 456.5,-30.5 456.5,-0.5 319.5,-0.5"/>
<text text-anchor="start" x="327.5" y="-18.5" font-family="Helvetica,sans-Serif" font-size="10.00">sources/APU/Instructions</text>
<text text-anchor="middle" x="388" y="-7.5" font-family="Helvetica,sans-Serif" font-size="10.00">/Subroutine.cpp</text>
</a>
</g>
</g>
<!-- Node1&#45;&gt;Node4 -->
<g id="edge3" class="edge">
<title>Node1&#45;&gt;Node4</title>
<path fill="none" stroke="midnightblue" d="M1151.73,-74.65C1011.78,-71.56 714.28,-61.66 465,-31 462.3,-30.67 459.55,-30.3 456.78,-29.9"/>
<polygon fill="midnightblue" stroke="midnightblue" points="1151.86,-78.16 1161.93,-74.87 1152.01,-71.16 1151.86,-78.16"/>
</g>
<!-- Node5 -->
<g id="node5" class="node">
<title>Node5</title>
<g id="a_node5"><a xlink:href="CPU_8cpp.html" target="_top" xlink:title=" ">
<polygon fill="white" stroke="black" points="474.5,-6 474.5,-25 595.5,-25 595.5,-6 474.5,-6"/>
<text text-anchor="middle" x="535" y="-13" font-family="Helvetica,sans-Serif" font-size="10.00">sources/CPU/CPU.cpp</text>
</a>
</g>
</g>
<!-- Node1&#45;&gt;Node5 -->
<g id="edge4" class="edge">
<title>Node1&#45;&gt;Node5</title>
<path fill="none" stroke="midnightblue" d="M1151.8,-73.73C1032.05,-69.56 799.64,-58.44 604,-31 593.21,-29.49 581.58,-27.27 571.01,-25.03"/>
<polygon fill="midnightblue" stroke="midnightblue" points="1151.86,-77.24 1161.98,-74.08 1152.1,-70.24 1151.86,-77.24"/>
</g>
<!-- Node6 -->
<g id="node6" class="node">
<title>Node6</title>
<g id="a_node6"><a xlink:href="APUDebug_8cpp.html" target="_top" xlink:title=" ">
<polygon fill="white" stroke="black" points="613.5,-6 613.5,-25 792.5,-25 792.5,-6 613.5,-6"/>
<text text-anchor="middle" x="703" y="-13" font-family="Helvetica,sans-Serif" font-size="10.00">sources/Debugger/APUDebug.cpp</text>
</a>
</g>
</g>
<!-- Node1&#45;&gt;Node6 -->
<g id="edge5" class="edge">
<title>Node1&#45;&gt;Node6</title>
<path fill="none" stroke="midnightblue" d="M1151.69,-68.65C1065.04,-60.48 923.06,-46.39 801,-31 786.92,-29.22 771.74,-27.09 757.63,-25.01"/>
<polygon fill="midnightblue" stroke="midnightblue" points="1151.44,-72.14 1161.72,-69.6 1152.09,-65.17 1151.44,-72.14"/>
</g>
<!-- Node7 -->
<g id="node7" class="node">
<title>Node7</title>
<g id="a_node7"><a xlink:href="CGramDebug_8cpp.html" target="_top" xlink:title=" ">
<polygon fill="white" stroke="black" points="810.5,-6 810.5,-25 1003.5,-25 1003.5,-6 810.5,-6"/>
<text text-anchor="middle" x="907" y="-13" font-family="Helvetica,sans-Serif" font-size="10.00">sources/Debugger/CGramDebug.cpp</text>
</a>
</g>
</g>
<!-- Node1&#45;&gt;Node7 -->
<g id="edge6" class="edge">
<title>Node1&#45;&gt;Node7</title>
<path fill="none" stroke="midnightblue" d="M1175.29,-65.62C1112.35,-54.09 1011.96,-35.72 953.48,-25.01"/>
<polygon fill="midnightblue" stroke="midnightblue" points="1174.97,-69.12 1185.44,-67.48 1176.23,-62.23 1174.97,-69.12"/>
</g>
<!-- Node8 -->
<g id="node8" class="node">
<title>Node8</title>
<g id="a_node8"><a xlink:href="CPUDebug_8cpp.html" target="_top" xlink:title=" ">
<polygon fill="white" stroke="black" points="1022,-0.5 1022,-30.5 1150,-30.5 1150,-0.5 1022,-0.5"/>
<text text-anchor="start" x="1030" y="-18.5" font-family="Helvetica,sans-Serif" font-size="10.00">sources/Debugger/CPU</text>
<text text-anchor="middle" x="1086" y="-7.5" font-family="Helvetica,sans-Serif" font-size="10.00">/CPUDebug.cpp</text>
</a>
</g>
</g>
<!-- Node1&#45;&gt;Node8 -->
<g id="edge7" class="edge">
<title>Node1&#45;&gt;Node8</title>
<path fill="none" stroke="midnightblue" d="M1201.55,-63.59C1177.88,-53.94 1145.03,-40.56 1120.41,-30.52"/>
<polygon fill="midnightblue" stroke="midnightblue" points="1200.5,-66.94 1211.08,-67.48 1203.14,-60.46 1200.5,-66.94"/>
</g>
<!-- Node9 -->
<g id="node9" class="node">
<title>Node9</title>
<g id="a_node9"><a xlink:href="Disassembly_8cpp.html" target="_top" xlink:title=" ">
<polygon fill="white" stroke="black" points="1168,-0.5 1168,-30.5 1296,-30.5 1296,-0.5 1168,-0.5"/>
<text text-anchor="start" x="1176" y="-18.5" font-family="Helvetica,sans-Serif" font-size="10.00">sources/Debugger/CPU</text>
<text text-anchor="middle" x="1232" y="-7.5" font-family="Helvetica,sans-Serif" font-size="10.00">/Disassembly.cpp</text>
</a>
</g>
</g>
<!-- Node1&#45;&gt;Node9 -->
<g id="edge8" class="edge">
<title>Node1&#45;&gt;Node9</title>
<path fill="none" stroke="midnightblue" d="M1232,-57.23C1232,-48.59 1232,-38.5 1232,-30.52"/>
<polygon fill="midnightblue" stroke="midnightblue" points="1228.5,-57.48 1232,-67.48 1235.5,-57.48 1228.5,-57.48"/>
</g>
<!-- Node10 -->
<g id="node10" class="node">
<title>Node10</title>
<g id="a_node10"><a xlink:href="WlaDx_8cpp.html" target="_top" xlink:title=" ">
<polygon fill="white" stroke="black" points="1314,-0.5 1314,-30.5 1464,-30.5 1464,-0.5 1314,-0.5"/>
<text text-anchor="start" x="1322" y="-18.5" font-family="Helvetica,sans-Serif" font-size="10.00">sources/Debugger/CPU</text>
<text text-anchor="middle" x="1389" y="-7.5" font-family="Helvetica,sans-Serif" font-size="10.00">/SymbolLoaders/WlaDx.cpp</text>
</a>
</g>
</g>
<!-- Node1&#45;&gt;Node10 -->
<g id="edge9" class="edge">
<title>Node1&#45;&gt;Node10</title>
<path fill="none" stroke="midnightblue" d="M1264.07,-63.85C1289.57,-54.18 1325.28,-40.65 1352,-30.52"/>
<polygon fill="midnightblue" stroke="midnightblue" points="1262.6,-60.66 1254.49,-67.48 1265.09,-67.2 1262.6,-60.66"/>
</g>
<!-- Node11 -->
<g id="node11" class="node">
<title>Node11</title>
<g id="a_node11"><a xlink:href="HeaderViewer_8cpp.html" target="_top" xlink:title=" ">
<polygon fill="white" stroke="black" points="1482,-6 1482,-25 1678,-25 1678,-6 1482,-6"/>
<text text-anchor="middle" x="1580" y="-13" font-family="Helvetica,sans-Serif" font-size="10.00">sources/Debugger/HeaderViewer.cpp</text>
</a>
</g>
</g>
<!-- Node1&#45;&gt;Node11 -->
<g id="edge10" class="edge">
<title>Node1&#45;&gt;Node11</title>
<path fill="none" stroke="midnightblue" d="M1291.9,-65.76C1359.23,-54.25 1467.35,-35.76 1530.23,-25.01"/>
<polygon fill="midnightblue" stroke="midnightblue" points="1291.13,-62.34 1281.86,-67.48 1292.31,-69.24 1291.13,-62.34"/>
</g>
<!-- Node12 -->
<g id="node12" class="node">
<title>Node12</title>
<g id="a_node12"><a xlink:href="MemoryBusDebug_8cpp.html" target="_top" xlink:title=" ">
<polygon fill="white" stroke="black" points="1696,-0.5 1696,-30.5 1862,-30.5 1862,-0.5 1696,-0.5"/>
<text text-anchor="start" x="1704" y="-18.5" font-family="Helvetica,sans-Serif" font-size="10.00">sources/Debugger/MemoryBus</text>
<text text-anchor="middle" x="1779" y="-7.5" font-family="Helvetica,sans-Serif" font-size="10.00">Debug.cpp</text>
</a>
</g>
</g>
<!-- Node1&#45;&gt;Node12 -->
<g id="edge11" class="edge">
<title>Node1&#45;&gt;Node12</title>
<path fill="none" stroke="midnightblue" d="M1312.27,-69.47C1403.3,-61.74 1556.09,-47.78 1687,-31 1689.89,-30.63 1692.82,-30.24 1695.79,-29.84"/>
<polygon fill="midnightblue" stroke="midnightblue" points="1311.96,-65.99 1302.29,-70.32 1312.55,-72.96 1311.96,-65.99"/>
</g>
<!-- Node13 -->
<g id="node13" class="node">
<title>Node13</title>
<g id="a_node13"><a xlink:href="MemoryViewer_8cpp.html" target="_top" xlink:title=" ">
<polygon fill="white" stroke="black" points="1880.5,-6 1880.5,-25 2081.5,-25 2081.5,-6 1880.5,-6"/>
<text text-anchor="middle" x="1981" y="-13" font-family="Helvetica,sans-Serif" font-size="10.00">sources/Debugger/MemoryViewer.cpp</text>
</a>
</g>
</g>
<!-- Node1&#45;&gt;Node13 -->
<g id="edge12" class="edge">
<title>Node1&#45;&gt;Node13</title>
<path fill="none" stroke="midnightblue" d="M1312.39,-71.91C1433.65,-65.38 1670.48,-51.26 1871,-31 1887.39,-29.34 1905.1,-27.18 1921.42,-25.03"/>
<polygon fill="midnightblue" stroke="midnightblue" points="1311.89,-68.43 1302.09,-72.46 1312.26,-75.42 1311.89,-68.43"/>
</g>
<!-- Node14 -->
<g id="node14" class="node">
<title>Node14</title>
<g id="a_node14"><a xlink:href="RegisterViewer_8cpp.html" target="_top" xlink:title=" ">
<polygon fill="white" stroke="black" points="2100,-0.5 2100,-30.5 2248,-30.5 2248,-0.5 2100,-0.5"/>
<text text-anchor="start" x="2108" y="-18.5" font-family="Helvetica,sans-Serif" font-size="10.00">sources/Debugger/Register</text>
<text text-anchor="middle" x="2174" y="-7.5" font-family="Helvetica,sans-Serif" font-size="10.00">Viewer.cpp</text>
</a>
</g>
</g>
<!-- Node1&#45;&gt;Node14 -->
<g id="edge13" class="edge">
<title>Node1&#45;&gt;Node14</title>
<path fill="none" stroke="midnightblue" d="M1312.3,-75.02C1464.62,-72.45 1805.78,-63.27 2091,-31 2093.91,-30.67 2096.87,-30.31 2099.85,-29.91"/>
<polygon fill="midnightblue" stroke="midnightblue" points="1312.05,-71.52 1302.1,-75.19 1312.16,-78.52 1312.05,-71.52"/>
</g>
<!-- Node15 -->
<g id="node15" class="node">
<title>Node15</title>
<g id="a_node15"><a xlink:href="Utility_8cpp.html" target="_top" xlink:title=" ">
<polygon fill="white" stroke="black" points="2266.5,-6 2266.5,-25 2405.5,-25 2405.5,-6 2266.5,-6"/>
<text text-anchor="middle" x="2336" y="-13" font-family="Helvetica,sans-Serif" font-size="10.00">sources/Utility/Utility.cpp</text>
</a>
</g>
</g>
<!-- Node1&#45;&gt;Node15 -->
<g id="edge14" class="edge">
<title>Node1&#45;&gt;Node15</title>
<path fill="none" stroke="midnightblue" d="M1312.21,-76.22C1485.33,-75.89 1906.67,-70.65 2257,-31 2269.61,-29.57 2283.24,-27.33 2295.56,-25.03"/>
<polygon fill="midnightblue" stroke="midnightblue" points="1312.16,-72.72 1302.17,-76.24 1312.17,-79.72 1312.16,-72.72"/>
</g>
<!-- Node16 -->
<g id="node16" class="node">
<title>Node16</title>
<g id="a_node16"><a xlink:href="testAPUInstructions_8cpp.html" target="_top" xlink:title=" ">
<polygon fill="white" stroke="black" points="2423.5,-6 2423.5,-25 2606.5,-25 2606.5,-6 2423.5,-6"/>
<text text-anchor="middle" x="2515" y="-13" font-family="Helvetica,sans-Serif" font-size="10.00">tests/APU/testAPUInstructions.cpp</text>
</a>
</g>
</g>
<!-- Node1&#45;&gt;Node16 -->
<g id="edge15" class="edge">
<title>Node1&#45;&gt;Node16</title>
<path fill="none" stroke="midnightblue" d="M1312.42,-75.87C1503.85,-74.94 2001.48,-68.74 2415,-31 2430.81,-29.56 2447.94,-27.32 2463.48,-25.04"/>
<polygon fill="midnightblue" stroke="midnightblue" points="1312.15,-72.38 1302.17,-75.92 1312.19,-79.38 1312.15,-72.38"/>
</g>
</g>
</svg>
