<?xml version="1.0" encoding="UTF-8" standalone="no"?>
<!DOCTYPE svg PUBLIC "-//W3C//DTD SVG 1.1//EN"
 "http://www.w3.org/Graphics/SVG/1.1/DTD/svg11.dtd">
<!-- Generated by graphviz version 2.43.0 (0)
 -->
<!-- Title: sources/APU/DSP/Voice.cpp Pages: 1 -->
<svg width="1000pt" height="420pt"
 viewBox="0.00 0.00 1000.00 420.00" xmlns="http://www.w3.org/2000/svg" xmlns:xlink="http://www.w3.org/1999/xlink">
<g id="graph0" class="graph" transform="scale(1 1) rotate(0) translate(4 416)">
<title>sources/APU/DSP/Voice.cpp</title>
<polygon fill="white" stroke="transparent" points="-4,4 -4,-416 996,-416 996,4 -4,4"/>
<!-- Node1 -->
<g id="node1" class="node">
<title>Node1</title>
<g id="a_node1"><a xlink:title=" ">
<polygon fill="#bfbfbf" stroke="black" points="194.5,-392.5 194.5,-411.5 343.5,-411.5 343.5,-392.5 194.5,-392.5"/>
<text text-anchor="middle" x="269" y="-399.5" font-family="Helvetica,sans-Serif" font-size="10.00">sources/APU/DSP/Voice.cpp</text>
</a>
</g>
</g>
<!-- Node2 -->
<g id="node2" class="node">
<title>Node2</title>
<g id="a_node2"><a xlink:href="DSP_8hpp.html" target="_top" xlink:title=" ">
<polygon fill="white" stroke="black" points="62,-280.5 62,-299.5 118,-299.5 118,-280.5 62,-280.5"/>
<text text-anchor="middle" x="90" y="-287.5" font-family="Helvetica,sans-Serif" font-size="10.00">DSP.hpp</text>
</a>
</g>
</g>
<!-- Node1&#45;&gt;Node2 -->
<g id="edge1" class="edge">
<title>Node1&#45;&gt;Node2</title>
<path fill="none" stroke="midnightblue" d="M254.95,-392.37C224.11,-373.41 150.21,-328 112.69,-304.94"/>
<polygon fill="midnightblue" stroke="midnightblue" points="114.33,-301.85 103.98,-299.59 110.67,-307.81 114.33,-301.85"/>
</g>
<!-- Node16 -->
<g id="node16" class="node">
<title>Node16</title>
<g id="a_node16"><a xlink:href="APU_8hpp.html" target="_top" xlink:title=" ">
<polygon fill="white" stroke="black" points="228.5,-336.5 228.5,-355.5 309.5,-355.5 309.5,-336.5 228.5,-336.5"/>
<text text-anchor="middle" x="269" y="-343.5" font-family="Helvetica,sans-Serif" font-size="10.00">APU/APU.hpp</text>
</a>
</g>
</g>
<!-- Node1&#45;&gt;Node16 -->
<g id="edge23" class="edge">
<title>Node1&#45;&gt;Node16</title>
<path fill="none" stroke="midnightblue" d="M269,-392.08C269,-385.01 269,-374.86 269,-365.99"/>
<polygon fill="midnightblue" stroke="midnightblue" points="272.5,-365.75 269,-355.75 265.5,-365.75 272.5,-365.75"/>
</g>
<!-- Node23 -->
<g id="node23" class="node">
<title>Node23</title>
<g id="a_node23"><a xlink:title=" ">
<polygon fill="white" stroke="#bfbfbf" points="328,-336.5 328,-355.5 392,-355.5 392,-336.5 328,-336.5"/>
<text text-anchor="middle" x="360" y="-343.5" font-family="Helvetica,sans-Serif" font-size="10.00">algorithm</text>
</a>
</g>
</g>
<!-- Node1&#45;&gt;Node23 -->
<g id="edge46" class="edge">
<title>Node1&#45;&gt;Node23</title>
<path fill="none" stroke="midnightblue" d="M283.62,-392.32C297.95,-383.82 320.01,-370.73 336.75,-360.8"/>
<polygon fill="midnightblue" stroke="midnightblue" points="338.6,-363.77 345.42,-355.65 335.03,-357.75 338.6,-363.77"/>
</g>
<!-- Node3 -->
<g id="node3" class="node">
<title>Node3</title>
<g id="a_node3"><a xlink:title=" ">
<polygon fill="white" stroke="#bfbfbf" points="77,-56.5 77,-75.5 127,-75.5 127,-56.5 77,-56.5"/>
<text text-anchor="middle" x="102" y="-63.5" font-family="Helvetica,sans-Serif" font-size="10.00">cstdint</text>
</a>
</g>
</g>
<!-- Node2&#45;&gt;Node3 -->
<g id="edge2" class="edge">
<title>Node2&#45;&gt;Node3</title>
<path fill="none" stroke="midnightblue" d="M90.47,-280.3C92.24,-247.63 98.49,-131.87 100.98,-85.96"/>
<polygon fill="midnightblue" stroke="midnightblue" points="104.47,-86.06 101.52,-75.88 97.49,-85.68 104.47,-86.06"/>
</g>
<!-- Node4 -->
<g id="node4" class="node">
<title>Node4</title>
<g id="a_node4"><a xlink:title=" ">
<polygon fill="white" stroke="#bfbfbf" points="0,-224.5 0,-243.5 42,-243.5 42,-224.5 0,-224.5"/>
<text text-anchor="middle" x="21" y="-231.5" font-family="Helvetica,sans-Serif" font-size="10.00">array</text>
</a>
</g>
</g>
<!-- Node2&#45;&gt;Node4 -->
<g id="edge3" class="edge">
<title>Node2&#45;&gt;Node4</title>
<path fill="none" stroke="midnightblue" d="M78.91,-280.32C68.51,-272.18 52.74,-259.84 40.28,-250.09"/>
<polygon fill="midnightblue" stroke="midnightblue" points="42.32,-247.24 32.29,-243.83 38.01,-252.75 42.32,-247.24"/>
</g>
<!-- Node5 -->
<g id="node5" class="node">
<title>Node5</title>
<g id="a_node5"><a xlink:href="IRenderer_8hpp.html" target="_top" xlink:title=" ">
<polygon fill="white" stroke="black" points="348.5,-224.5 348.5,-243.5 479.5,-243.5 479.5,-224.5 348.5,-224.5"/>
<text text-anchor="middle" x="414" y="-231.5" font-family="Helvetica,sans-Serif" font-size="10.00">Renderer/IRenderer.hpp</text>
</a>
</g>
</g>
<!-- Node2&#45;&gt;Node5 -->
<g id="edge4" class="edge">
<title>Node2&#45;&gt;Node5</title>
<path fill="none" stroke="midnightblue" d="M118.19,-284.3C170.21,-275.63 282.4,-256.93 352.68,-245.22"/>
<polygon fill="midnightblue" stroke="midnightblue" points="353.45,-248.64 362.74,-243.54 352.3,-241.74 353.45,-248.64"/>
</g>
<!-- Node8 -->
<g id="node8" class="node">
<title>Node8</title>
<g id="a_node8"><a xlink:href="AMemory_8hpp.html" target="_top" xlink:title=" ">
<polygon fill="white" stroke="black" points="218.5,-168.5 218.5,-187.5 345.5,-187.5 345.5,-168.5 218.5,-168.5"/>
<text text-anchor="middle" x="282" y="-175.5" font-family="Helvetica,sans-Serif" font-size="10.00">Memory/AMemory.hpp</text>
</a>
</g>
</g>
<!-- Node2&#45;&gt;Node8 -->
<g id="edge7" class="edge">
<title>Node2&#45;&gt;Node8</title>
<path fill="none" stroke="midnightblue" d="M105.07,-280.37C138.29,-261.33 218.09,-215.62 258.17,-192.65"/>
<polygon fill="midnightblue" stroke="midnightblue" points="260.07,-195.6 267,-187.59 256.59,-189.53 260.07,-195.6"/>
</g>
<!-- Node6 -->
<g id="node6" class="node">
<title>Node6</title>
<g id="a_node6"><a xlink:title=" ">
<polygon fill="white" stroke="#bfbfbf" points="450,-56.5 450,-75.5 494,-75.5 494,-56.5 450,-56.5"/>
<text text-anchor="middle" x="472" y="-63.5" font-family="Helvetica,sans-Serif" font-size="10.00">string</text>
</a>
</g>
</g>
<!-- Node5&#45;&gt;Node6 -->
<g id="edge5" class="edge">
<title>Node5&#45;&gt;Node6</title>
<path fill="none" stroke="midnightblue" d="M416.35,-224.09C419.72,-211.5 426.29,-187.82 433,-168 442.96,-138.57 456.32,-105.04 464.53,-84.97"/>
<polygon fill="midnightblue" stroke="midnightblue" points="467.84,-86.14 468.41,-75.56 461.37,-83.47 467.84,-86.14"/>
</g>
<!-- Node7 -->
<g id="node7" class="node">
<title>Node7</title>
<g id="a_node7"><a xlink:title=" ">
<polygon fill="white" stroke="#bfbfbf" points="442,-168.5 442,-187.5 482,-187.5 482,-168.5 442,-168.5"/>
<text text-anchor="middle" x="462" y="-175.5" font-family="Helvetica,sans-Serif" font-size="10.00">span</text>
</a>
</g>
</g>
<!-- Node5&#45;&gt;Node7 -->
<g id="edge6" class="edge">
<title>Node5&#45;&gt;Node7</title>
<path fill="none" stroke="midnightblue" d="M421.93,-224.08C428.85,-216.3 439.07,-204.8 447.45,-195.37"/>
<polygon fill="midnightblue" stroke="midnightblue" points="450.19,-197.55 454.22,-187.75 444.96,-192.9 450.19,-197.55"/>
</g>
<!-- Node8&#45;&gt;Node3 -->
<g id="edge8" class="edge">
<title>Node8&#45;&gt;Node3</title>
<path fill="none" stroke="midnightblue" d="M267.88,-168.37C236.86,-149.41 162.55,-104 124.81,-80.94"/>
<polygon fill="midnightblue" stroke="midnightblue" points="126.42,-77.82 116.06,-75.59 122.77,-83.79 126.42,-77.82"/>
</g>
<!-- Node8&#45;&gt;Node6 -->
<g id="edge11" class="edge">
<title>Node8&#45;&gt;Node6</title>
<path fill="none" stroke="midnightblue" d="M297.39,-168.47C313.54,-159.49 339.64,-144.9 362,-132 392.27,-114.55 426.93,-93.97 449.12,-80.71"/>
<polygon fill="midnightblue" stroke="midnightblue" points="451.03,-83.65 457.82,-75.51 447.44,-77.64 451.03,-83.65"/>
</g>
<!-- Node9 -->
<g id="node9" class="node">
<title>Node9</title>
<g id="a_node9"><a xlink:title=" ">
<polygon fill="white" stroke="#bfbfbf" points="376.5,-56.5 376.5,-75.5 423.5,-75.5 423.5,-56.5 376.5,-56.5"/>
<text text-anchor="middle" x="400" y="-63.5" font-family="Helvetica,sans-Serif" font-size="10.00">vector</text>
</a>
</g>
</g>
<!-- Node8&#45;&gt;Node9 -->
<g id="edge9" class="edge">
<title>Node8&#45;&gt;Node9</title>
<path fill="none" stroke="midnightblue" d="M294.21,-168.19C306.05,-159.46 324.33,-145.47 339,-132 355.99,-116.4 373.88,-96.93 385.86,-83.38"/>
<polygon fill="midnightblue" stroke="midnightblue" points="388.54,-85.63 392.49,-75.8 383.27,-81.02 388.54,-85.63"/>
</g>
<!-- Node10 -->
<g id="node10" class="node">
<title>Node10</title>
<g id="a_node10"><a xlink:title=" ">
<polygon fill="white" stroke="#bfbfbf" points="145,-56.5 145,-75.5 203,-75.5 203,-56.5 145,-56.5"/>
<text text-anchor="middle" x="174" y="-63.5" font-family="Helvetica,sans-Serif" font-size="10.00">memory</text>
</a>
</g>
</g>
<!-- Node8&#45;&gt;Node10 -->
<g id="edge10" class="edge">
<title>Node8&#45;&gt;Node10</title>
<path fill="none" stroke="midnightblue" d="M272.24,-168.23C262.4,-159.31 246.87,-144.97 234,-132 218.03,-115.9 200.52,-96.75 188.56,-83.42"/>
<polygon fill="midnightblue" stroke="midnightblue" points="190.85,-80.73 181.58,-75.6 185.62,-85.39 190.85,-80.73"/>
</g>
<!-- Node11 -->
<g id="node11" class="node">
<title>Node11</title>
<g id="a_node11"><a xlink:href="Ints_8hpp.html" target="_top" xlink:title=" ">
<polygon fill="white" stroke="black" points="763,-56.5 763,-75.5 857,-75.5 857,-56.5 763,-56.5"/>
<text text-anchor="middle" x="810" y="-63.5" font-family="Helvetica,sans-Serif" font-size="10.00">Models/Ints.hpp</text>
</a>
</g>
</g>
<!-- Node8&#45;&gt;Node11 -->
<g id="edge12" class="edge">
<title>Node8&#45;&gt;Node11</title>
<path fill="none" stroke="midnightblue" d="M322.99,-168.46C418.31,-148.6 654.67,-99.36 759.06,-77.61"/>
<polygon fill="midnightblue" stroke="midnightblue" points="759.96,-81 769.03,-75.53 758.53,-74.15 759.96,-81"/>
</g>
<!-- Node14 -->
<g id="node14" class="node">
<title>Node14</title>
<g id="a_node14"><a xlink:href="Components_8hpp.html" target="_top" xlink:title=" ">
<polygon fill="white" stroke="black" points="221.5,-56.5 221.5,-75.5 358.5,-75.5 358.5,-56.5 221.5,-56.5"/>
<text text-anchor="middle" x="290" y="-63.5" font-family="Helvetica,sans-Serif" font-size="10.00">Models/Components.hpp</text>
</a>
</g>
</g>
<!-- Node8&#45;&gt;Node14 -->
<g id="edge15" class="edge">
<title>Node8&#45;&gt;Node14</title>
<path fill="none" stroke="midnightblue" d="M269.98,-168.43C254.74,-156.42 231.5,-133.62 241,-112 246.39,-99.73 256.96,-89.34 266.9,-81.65"/>
<polygon fill="midnightblue" stroke="midnightblue" points="269.25,-84.27 275.34,-75.6 265.17,-78.58 269.25,-84.27"/>
</g>
<!-- Node15 -->
<g id="node15" class="node">
<title>Node15</title>
<g id="a_node15"><a xlink:href="IMemory_8hpp.html" target="_top" xlink:title=" ">
<polygon fill="white" stroke="black" points="250,-112.5 250,-131.5 330,-131.5 330,-112.5 250,-112.5"/>
<text text-anchor="middle" x="290" y="-119.5" font-family="Helvetica,sans-Serif" font-size="10.00">IMemory.hpp</text>
</a>
</g>
</g>
<!-- Node8&#45;&gt;Node15 -->
<g id="edge16" class="edge">
<title>Node8&#45;&gt;Node15</title>
<path fill="none" stroke="midnightblue" d="M283.32,-168.08C284.38,-160.93 285.91,-150.64 287.23,-141.69"/>
<polygon fill="midnightblue" stroke="midnightblue" points="290.7,-142.16 288.7,-131.75 283.78,-141.13 290.7,-142.16"/>
</g>
<!-- Node12 -->
<g id="node12" class="node">
<title>Node12</title>
<g id="a_node12"><a xlink:title=" ">
<polygon fill="white" stroke="#bfbfbf" points="880,-0.5 880,-19.5 942,-19.5 942,-0.5 880,-0.5"/>
<text text-anchor="middle" x="911" y="-7.5" font-family="Helvetica,sans-Serif" font-size="10.00">cinttypes</text>
</a>
</g>
</g>
<!-- Node11&#45;&gt;Node12 -->
<g id="edge13" class="edge">
<title>Node11&#45;&gt;Node12</title>
<path fill="none" stroke="midnightblue" d="M826.23,-56.32C842.35,-47.7 867.3,-34.36 885.96,-24.39"/>
<polygon fill="midnightblue" stroke="midnightblue" points="887.64,-27.46 894.81,-19.65 884.34,-21.28 887.64,-27.46"/>
</g>
<!-- Node13 -->
<g id="node13" class="node">
<title>Node13</title>
<g id="a_node13"><a xlink:title=" ">
<polygon fill="white" stroke="#bfbfbf" points="780,-0.5 780,-19.5 840,-19.5 840,-0.5 780,-0.5"/>
<text text-anchor="middle" x="810" y="-7.5" font-family="Helvetica,sans-Serif" font-size="10.00">iostream</text>
</a>
</g>
</g>
<!-- Node11&#45;&gt;Node13 -->
<g id="edge14" class="edge">
<title>Node11&#45;&gt;Node13</title>
<path fill="none" stroke="midnightblue" d="M810,-56.08C810,-49.01 810,-38.86 810,-29.99"/>
<polygon fill="midnightblue" stroke="midnightblue" points="813.5,-29.75 810,-19.75 806.5,-29.75 813.5,-29.75"/>
</g>
<!-- Node15&#45;&gt;Node3 -->
<g id="edge17" class="edge">
<title>Node15&#45;&gt;Node3</title>
<path fill="none" stroke="midnightblue" d="M260.21,-112.44C226.76,-102.83 172.52,-87.26 137.05,-77.07"/>
<polygon fill="midnightblue" stroke="midnightblue" points="137.72,-73.62 127.14,-74.22 135.78,-80.35 137.72,-73.62"/>
</g>
<!-- Node15&#45;&gt;Node6 -->
<g id="edge20" class="edge">
<title>Node15&#45;&gt;Node6</title>
<path fill="none" stroke="midnightblue" d="M318.84,-112.44C351.81,-102.66 405.64,-86.69 439.92,-76.52"/>
<polygon fill="midnightblue" stroke="midnightblue" points="441.29,-79.76 449.88,-73.56 439.3,-73.05 441.29,-79.76"/>
</g>
<!-- Node15&#45;&gt;Node9 -->
<g id="edge18" class="edge">
<title>Node15&#45;&gt;Node9</title>
<path fill="none" stroke="midnightblue" d="M307.67,-112.32C325.39,-103.62 352.9,-90.12 373.29,-80.11"/>
<polygon fill="midnightblue" stroke="midnightblue" points="374.94,-83.2 382.37,-75.65 371.85,-76.92 374.94,-83.2"/>
</g>
<!-- Node15&#45;&gt;Node10 -->
<g id="edge19" class="edge">
<title>Node15&#45;&gt;Node10</title>
<path fill="none" stroke="midnightblue" d="M271.62,-112.44C252.78,-103.68 223.27,-89.94 201.62,-79.86"/>
<polygon fill="midnightblue" stroke="midnightblue" points="202.84,-76.56 192.29,-75.52 199.88,-82.91 202.84,-76.56"/>
</g>
<!-- Node15&#45;&gt;Node11 -->
<g id="edge21" class="edge">
<title>Node15&#45;&gt;Node11</title>
<path fill="none" stroke="midnightblue" d="M330.37,-116.81C422.17,-107.27 646.78,-83.95 752.81,-72.94"/>
<polygon fill="midnightblue" stroke="midnightblue" points="753.41,-76.4 763,-71.88 752.69,-69.43 753.41,-76.4"/>
</g>
<!-- Node15&#45;&gt;Node14 -->
<g id="edge22" class="edge">
<title>Node15&#45;&gt;Node14</title>
<path fill="none" stroke="midnightblue" d="M290,-112.08C290,-105.01 290,-94.86 290,-85.99"/>
<polygon fill="midnightblue" stroke="midnightblue" points="293.5,-85.75 290,-75.75 286.5,-85.75 293.5,-85.75"/>
</g>
<!-- Node16&#45;&gt;Node2 -->
<g id="edge25" class="edge">
<title>Node16&#45;&gt;Node2</title>
<path fill="none" stroke="midnightblue" d="M240.64,-336.44C210.26,-327.28 161.89,-312.69 128.18,-302.52"/>
<polygon fill="midnightblue" stroke="midnightblue" points="128.82,-299.05 118.23,-299.52 126.79,-305.76 128.82,-299.05"/>
</g>
<!-- Node16&#45;&gt;Node5 -->
<g id="edge36" class="edge">
<title>Node16&#45;&gt;Node5</title>
<path fill="none" stroke="midnightblue" d="M285.98,-336.35C301.85,-327.95 325.89,-314.38 345,-300 365.01,-284.95 385.6,-264.83 399.02,-250.98"/>
<polygon fill="midnightblue" stroke="midnightblue" points="401.66,-253.29 406.04,-243.64 396.6,-248.45 401.66,-253.29"/>
</g>
<!-- Node16&#45;&gt;Node8 -->
<g id="edge26" class="edge">
<title>Node16&#45;&gt;Node8</title>
<path fill="none" stroke="midnightblue" d="M266.27,-336.49C263.55,-327.52 259.56,-312.94 258,-300 253.56,-263.12 266.15,-220.68 274.74,-197.13"/>
<polygon fill="midnightblue" stroke="midnightblue" points="278.03,-198.32 278.32,-187.73 271.49,-195.83 278.03,-198.32"/>
</g>
<!-- Node16&#45;&gt;Node10 -->
<g id="edge24" class="edge">
<title>Node16&#45;&gt;Node10</title>
<path fill="none" stroke="midnightblue" d="M245.58,-336.42C209.89,-321.66 146,-287.86 146,-235 146,-235 146,-235 146,-177 146,-143.79 158.13,-106.63 166.43,-85.12"/>
<polygon fill="midnightblue" stroke="midnightblue" points="169.75,-86.23 170.22,-75.65 163.25,-83.63 169.75,-86.23"/>
</g>
<!-- Node17 -->
<g id="node17" class="node">
<title>Node17</title>
<g id="a_node17"><a xlink:href="Ram_8hpp.html" target="_top" xlink:title=" ">
<polygon fill="white" stroke="black" points="502,-224.5 502,-243.5 588,-243.5 588,-224.5 502,-224.5"/>
<text text-anchor="middle" x="545" y="-231.5" font-family="Helvetica,sans-Serif" font-size="10.00">Ram/Ram.hpp</text>
</a>
</g>
</g>
<!-- Node16&#45;&gt;Node17 -->
<g id="edge27" class="edge">
<title>Node16&#45;&gt;Node17</title>
<path fill="none" stroke="midnightblue" d="M290.66,-336.37C339.33,-316.97 457.51,-269.87 513.97,-247.37"/>
<polygon fill="midnightblue" stroke="midnightblue" points="515.45,-250.55 523.44,-243.59 512.86,-244.04 515.45,-250.55"/>
</g>
<!-- Node19 -->
<g id="node19" class="node">
<title>Node19</title>
<g id="a_node19"><a xlink:href="IPL_8hpp.html" target="_top" xlink:title=" ">
<polygon fill="white" stroke="black" points="266.5,-280.5 266.5,-299.5 335.5,-299.5 335.5,-280.5 266.5,-280.5"/>
<text text-anchor="middle" x="301" y="-287.5" font-family="Helvetica,sans-Serif" font-size="10.00">IPL/IPL.hpp</text>
</a>
</g>
</g>
<!-- Node16&#45;&gt;Node19 -->
<g id="edge34" class="edge">
<title>Node16&#45;&gt;Node19</title>
<path fill="none" stroke="midnightblue" d="M274.28,-336.08C278.71,-328.61 285.16,-317.72 290.62,-308.52"/>
<polygon fill="midnightblue" stroke="midnightblue" points="293.73,-310.14 295.81,-299.75 287.71,-306.57 293.73,-310.14"/>
</g>
<!-- Node20 -->
<g id="node20" class="node">
<title>Node20</title>
<g id="a_node20"><a xlink:href="Cartridge_8hpp.html" target="_top" xlink:title=" ">
<polygon fill="white" stroke="black" points="631.5,-280.5 631.5,-299.5 762.5,-299.5 762.5,-280.5 631.5,-280.5"/>
<text text-anchor="middle" x="697" y="-287.5" font-family="Helvetica,sans-Serif" font-size="10.00">Cartridge/Cartridge.hpp</text>
</a>
</g>
</g>
<!-- Node16&#45;&gt;Node20 -->
<g id="edge37" class="edge">
<title>Node16&#45;&gt;Node20</title>
<path fill="none" stroke="midnightblue" d="M309.63,-337.48C312.79,-336.96 315.95,-336.46 319,-336 423.47,-320.39 544.82,-306.73 621.27,-298.67"/>
<polygon fill="midnightblue" stroke="midnightblue" points="621.71,-302.15 631.29,-297.62 620.97,-295.19 621.71,-302.15"/>
</g>
<!-- Node17&#45;&gt;Node6 -->
<g id="edge31" class="edge">
<title>Node17&#45;&gt;Node6</title>
<path fill="none" stroke="midnightblue" d="M545.41,-224.43C546.03,-203.68 545.3,-149.68 524,-112 517.11,-99.82 505.64,-89.36 495.21,-81.6"/>
<polygon fill="midnightblue" stroke="midnightblue" points="497.03,-78.6 486.83,-75.74 493.02,-84.34 497.03,-78.6"/>
</g>
<!-- Node17&#45;&gt;Node7 -->
<g id="edge32" class="edge">
<title>Node17&#45;&gt;Node7</title>
<path fill="none" stroke="midnightblue" d="M531.66,-224.32C518.84,-215.98 499.22,-203.21 484.06,-193.35"/>
<polygon fill="midnightblue" stroke="midnightblue" points="485.59,-190.17 475.3,-187.65 481.78,-196.04 485.59,-190.17"/>
</g>
<!-- Node17&#45;&gt;Node9 -->
<g id="edge33" class="edge">
<title>Node17&#45;&gt;Node9</title>
<path fill="none" stroke="midnightblue" d="M538.12,-224.5C527.96,-211.99 508.28,-187.97 491,-168 464.65,-137.55 433,-102.82 414.82,-83.05"/>
<polygon fill="midnightblue" stroke="midnightblue" points="417.26,-80.53 407.91,-75.54 412.11,-85.27 417.26,-80.53"/>
</g>
<!-- Node18 -->
<g id="node18" class="node">
<title>Node18</title>
<g id="a_node18"><a xlink:href="ARectangleMemory_8hpp.html" target="_top" xlink:title=" ">
<polygon fill="white" stroke="black" points="576,-168.5 576,-187.5 752,-187.5 752,-168.5 576,-168.5"/>
<text text-anchor="middle" x="664" y="-175.5" font-family="Helvetica,sans-Serif" font-size="10.00">Memory/ARectangleMemory.hpp</text>
</a>
</g>
</g>
<!-- Node17&#45;&gt;Node18 -->
<g id="edge28" class="edge">
<title>Node17&#45;&gt;Node18</title>
<path fill="none" stroke="midnightblue" d="M563.86,-224.44C583.27,-215.64 613.73,-201.81 635.96,-191.72"/>
<polygon fill="midnightblue" stroke="midnightblue" points="637.57,-194.84 645.23,-187.52 634.68,-188.46 637.57,-194.84"/>
</g>
<!-- Node18&#45;&gt;Node11 -->
<g id="edge30" class="edge">
<title>Node18&#45;&gt;Node11</title>
<path fill="none" stroke="midnightblue" d="M675.46,-168.37C700.3,-149.65 759.36,-105.15 790.31,-81.83"/>
<polygon fill="midnightblue" stroke="midnightblue" points="792.72,-84.4 798.6,-75.59 788.5,-78.81 792.72,-84.4"/>
</g>
<!-- Node18&#45;&gt;Node15 -->
<g id="edge29" class="edge">
<title>Node18&#45;&gt;Node15</title>
<path fill="none" stroke="midnightblue" d="M604.74,-168.44C531.66,-157.89 408.73,-140.14 340.13,-130.24"/>
<polygon fill="midnightblue" stroke="midnightblue" points="340.41,-126.74 330.01,-128.78 339.41,-133.67 340.41,-126.74"/>
</g>
<!-- Node19&#45;&gt;Node8 -->
<g id="edge35" class="edge">
<title>Node19&#45;&gt;Node8</title>
<path fill="none" stroke="midnightblue" d="M299.51,-280.37C296.44,-262.62 289.37,-221.67 285.21,-197.6"/>
<polygon fill="midnightblue" stroke="midnightblue" points="288.64,-196.85 283.48,-187.59 281.74,-198.04 288.64,-196.85"/>
</g>
<!-- Node20&#45;&gt;Node6 -->
<g id="edge45" class="edge">
<title>Node20&#45;&gt;Node6</title>
<path fill="none" stroke="midnightblue" d="M703.34,-280.41C718.33,-259.89 755.13,-208.24 761,-188 763.48,-179.46 766.15,-175.25 761,-168 701.38,-84.01 566.42,-69.3 504.34,-67.11"/>
<polygon fill="midnightblue" stroke="midnightblue" points="504.42,-63.62 494.33,-66.85 504.23,-70.61 504.42,-63.62"/>
</g>
<!-- Node20&#45;&gt;Node8 -->
<g id="edge40" class="edge">
<title>Node20&#45;&gt;Node8</title>
<path fill="none" stroke="midnightblue" d="M631.48,-286.22C542.59,-281.52 389.22,-269.86 340,-244 319.16,-233.05 302.21,-211.38 292.14,-196.07"/>
<polygon fill="midnightblue" stroke="midnightblue" points="295.05,-194.14 286.78,-187.52 289.12,-197.85 295.05,-194.14"/>
</g>
<!-- Node20&#45;&gt;Node11 -->
<g id="edge42" class="edge">
<title>Node20&#45;&gt;Node11</title>
<path fill="none" stroke="midnightblue" d="M762.74,-282.67C787.67,-276.7 813.71,-265.36 829,-244 863.72,-195.48 835.28,-119.5 819.18,-85.05"/>
<polygon fill="midnightblue" stroke="midnightblue" points="822.19,-83.23 814.67,-75.77 815.9,-86.3 822.19,-83.23"/>
</g>
<!-- Node20&#45;&gt;Node17 -->
<g id="edge43" class="edge">
<title>Node20&#45;&gt;Node17</title>
<path fill="none" stroke="midnightblue" d="M672.92,-280.44C647.46,-271.4 607.11,-257.06 578.54,-246.92"/>
<polygon fill="midnightblue" stroke="midnightblue" points="579.57,-243.57 568.97,-243.52 577.22,-250.16 579.57,-243.57"/>
</g>
<!-- Node20&#45;&gt;Node18 -->
<g id="edge41" class="edge">
<title>Node20&#45;&gt;Node18</title>
<path fill="none" stroke="midnightblue" d="M694.41,-280.37C689.06,-262.54 676.69,-221.3 669.48,-197.27"/>
<polygon fill="midnightblue" stroke="midnightblue" points="672.8,-196.16 666.58,-187.59 666.1,-198.18 672.8,-196.16"/>
</g>
<!-- Node21 -->
<g id="node21" class="node">
<title>Node21</title>
<g id="a_node21"><a xlink:href="InterruptVectors_8hpp.html" target="_top" xlink:title=" ">
<polygon fill="white" stroke="black" points="876,-112.5 876,-131.5 992,-131.5 992,-112.5 876,-112.5"/>
<text text-anchor="middle" x="934" y="-119.5" font-family="Helvetica,sans-Serif" font-size="10.00">InterruptVectors.hpp</text>
</a>
</g>
</g>
<!-- Node20&#45;&gt;Node21 -->
<g id="edge38" class="edge">
<title>Node20&#45;&gt;Node21</title>
<path fill="none" stroke="midnightblue" d="M762.81,-282.73C795.29,-276.9 833.52,-265.66 862,-244 897.23,-217.21 918.64,-167.79 928.16,-141.15"/>
<polygon fill="midnightblue" stroke="midnightblue" points="931.52,-142.15 931.42,-131.56 924.89,-139.9 931.52,-142.15"/>
</g>
<!-- Node22 -->
<g id="node22" class="node">
<title>Node22</title>
<g id="a_node22"><a xlink:title=" ">
<polygon fill="white" stroke="#bfbfbf" points="752,-224.5 752,-243.5 820,-243.5 820,-224.5 752,-224.5"/>
<text text-anchor="middle" x="786" y="-231.5" font-family="Helvetica,sans-Serif" font-size="10.00">filesystem</text>
</a>
</g>
</g>
<!-- Node20&#45;&gt;Node22 -->
<g id="edge44" class="edge">
<title>Node20&#45;&gt;Node22</title>
<path fill="none" stroke="midnightblue" d="M711.3,-280.32C725.18,-271.9 746.49,-258.97 762.8,-249.07"/>
<polygon fill="midnightblue" stroke="midnightblue" points="765,-251.83 771.74,-243.65 761.37,-245.85 765,-251.83"/>
</g>
<!-- Node21&#45;&gt;Node12 -->
<g id="edge39" class="edge">
<title>Node21&#45;&gt;Node12</title>
<path fill="none" stroke="midnightblue" d="M932.2,-112.37C928.48,-94.62 919.92,-53.67 914.89,-29.6"/>
<polygon fill="midnightblue" stroke="midnightblue" points="918.27,-28.66 912.8,-19.59 911.42,-30.1 918.27,-28.66"/>
</g>
</g>
</svg>
