<?xml version="1.0" encoding="UTF-8" standalone="no"?>
<!DOCTYPE svg PUBLIC "-//W3C//DTD SVG 1.1//EN"
 "http://www.w3.org/Graphics/SVG/1.1/DTD/svg11.dtd">
<!-- Generated by graphviz version 2.43.0 (0)
 -->
<!-- Title: sources/Debugger/CPU/SymbolLoaders/WlaDx.cpp Pages: 1 -->
<svg width="1632pt" height="543pt"
 viewBox="0.00 0.00 1631.81 543.00" xmlns="http://www.w3.org/2000/svg" xmlns:xlink="http://www.w3.org/1999/xlink">
<g id="graph0" class="graph" transform="scale(1 1) rotate(0) translate(4 539)">
<title>sources/Debugger/CPU/SymbolLoaders/WlaDx.cpp</title>
<polygon fill="white" stroke="transparent" points="-4,4 -4,-539 1627.81,-539 1627.81,4 -4,4"/>
<!-- Node1 -->
<g id="node1" class="node">
<title>Node1</title>
<g id="a_node1"><a xlink:title=" ">
<polygon fill="#bfbfbf" stroke="black" points="0,-504.5 0,-534.5 150,-534.5 150,-504.5 0,-504.5"/>
<text text-anchor="start" x="8" y="-522.5" font-family="Helvetica,sans-Serif" font-size="10.00">sources/Debugger/CPU</text>
<text text-anchor="middle" x="75" y="-511.5" font-family="Helvetica,sans-Serif" font-size="10.00">/SymbolLoaders/WlaDx.cpp</text>
</a>
</g>
</g>
<!-- Node2 -->
<g id="node2" class="node">
<title>Node2</title>
<g id="a_node2"><a xlink:title=" ">
<polygon fill="white" stroke="#bfbfbf" points="3,-448.5 3,-467.5 47,-467.5 47,-448.5 3,-448.5"/>
<text text-anchor="middle" x="25" y="-455.5" font-family="Helvetica,sans-Serif" font-size="10.00">regex</text>
</a>
</g>
</g>
<!-- Node1&#45;&gt;Node2 -->
<g id="edge1" class="edge">
<title>Node1&#45;&gt;Node2</title>
<path fill="none" stroke="midnightblue" d="M63.15,-504.4C55.89,-495.75 46.55,-484.64 38.93,-475.58"/>
<polygon fill="midnightblue" stroke="midnightblue" points="41.39,-473.06 32.28,-467.66 36.03,-477.57 41.39,-473.06"/>
</g>
<!-- Node3 -->
<g id="node3" class="node">
<title>Node3</title>
<g id="a_node3"><a xlink:href="Utility_8hpp.html" target="_top" xlink:title=" ">
<polygon fill="white" stroke="black" points="696.5,-112.5 696.5,-131.5 795.5,-131.5 795.5,-112.5 696.5,-112.5"/>
<text text-anchor="middle" x="746" y="-119.5" font-family="Helvetica,sans-Serif" font-size="10.00">Utility/Utility.hpp</text>
</a>
</g>
</g>
<!-- Node1&#45;&gt;Node3 -->
<g id="edge2" class="edge">
<title>Node1&#45;&gt;Node3</title>
<path fill="none" stroke="midnightblue" d="M75,-504.28C75,-482.48 75,-439.49 75,-403 75,-403 75,-403 75,-233 75,-171.38 521.34,-137.1 685.96,-126.56"/>
<polygon fill="midnightblue" stroke="midnightblue" points="686.63,-130.02 696.39,-125.9 686.19,-123.04 686.63,-130.02"/>
</g>
<!-- Node10 -->
<g id="node10" class="node">
<title>Node10</title>
<g id="a_node10"><a xlink:href="WlaDx_8hpp.html" target="_top" xlink:title=" ">
<polygon fill="white" stroke="black" points="330,-448.5 330,-467.5 400,-467.5 400,-448.5 330,-448.5"/>
<text text-anchor="middle" x="365" y="-455.5" font-family="Helvetica,sans-Serif" font-size="10.00">WlaDx.hpp</text>
</a>
</g>
</g>
<!-- Node1&#45;&gt;Node10 -->
<g id="edge9" class="edge">
<title>Node1&#45;&gt;Node10</title>
<path fill="none" stroke="midnightblue" d="M143.36,-504.47C197.81,-493.3 272.48,-477.98 319.74,-468.29"/>
<polygon fill="midnightblue" stroke="midnightblue" points="320.59,-471.68 329.68,-466.25 319.18,-464.83 320.59,-471.68"/>
</g>
<!-- Node4 -->
<g id="node4" class="node">
<title>Node4</title>
<g id="a_node4"><a xlink:title=" ">
<polygon fill="white" stroke="#bfbfbf" points="883,-56.5 883,-75.5 927,-75.5 927,-56.5 883,-56.5"/>
<text text-anchor="middle" x="905" y="-63.5" font-family="Helvetica,sans-Serif" font-size="10.00">string</text>
</a>
</g>
</g>
<!-- Node3&#45;&gt;Node4 -->
<g id="edge3" class="edge">
<title>Node3&#45;&gt;Node4</title>
<path fill="none" stroke="midnightblue" d="M771.19,-112.44C798.89,-103.04 843.42,-87.91 873.42,-77.72"/>
<polygon fill="midnightblue" stroke="midnightblue" points="874.65,-81 883,-74.47 872.4,-74.37 874.65,-81"/>
</g>
<!-- Node5 -->
<g id="node5" class="node">
<title>Node5</title>
<g id="a_node5"><a xlink:title=" ">
<polygon fill="white" stroke="#bfbfbf" points="699.5,-56.5 699.5,-75.5 730.5,-75.5 730.5,-56.5 699.5,-56.5"/>
<text text-anchor="middle" x="715" y="-63.5" font-family="Helvetica,sans-Serif" font-size="10.00">ios</text>
</a>
</g>
</g>
<!-- Node3&#45;&gt;Node5 -->
<g id="edge4" class="edge">
<title>Node3&#45;&gt;Node5</title>
<path fill="none" stroke="midnightblue" d="M740.88,-112.08C736.59,-104.61 730.34,-93.72 725.06,-84.52"/>
<polygon fill="midnightblue" stroke="midnightblue" points="728.04,-82.68 720.02,-75.75 721.97,-86.17 728.04,-82.68"/>
</g>
<!-- Node6 -->
<g id="node6" class="node">
<title>Node6</title>
<g id="a_node6"><a xlink:title=" ">
<polygon fill="white" stroke="#bfbfbf" points="749,-56.5 749,-75.5 805,-75.5 805,-56.5 749,-56.5"/>
<text text-anchor="middle" x="777" y="-63.5" font-family="Helvetica,sans-Serif" font-size="10.00">sstream</text>
</a>
</g>
</g>
<!-- Node3&#45;&gt;Node6 -->
<g id="edge5" class="edge">
<title>Node3&#45;&gt;Node6</title>
<path fill="none" stroke="midnightblue" d="M751.12,-112.08C755.41,-104.61 761.66,-93.72 766.94,-84.52"/>
<polygon fill="midnightblue" stroke="midnightblue" points="770.03,-86.17 771.98,-75.75 763.96,-82.68 770.03,-86.17"/>
</g>
<!-- Node7 -->
<g id="node7" class="node">
<title>Node7</title>
<g id="a_node7"><a xlink:href="Ints_8hpp.html" target="_top" xlink:title=" ">
<polygon fill="white" stroke="black" points="981,-56.5 981,-75.5 1075,-75.5 1075,-56.5 981,-56.5"/>
<text text-anchor="middle" x="1028" y="-63.5" font-family="Helvetica,sans-Serif" font-size="10.00">Models/Ints.hpp</text>
</a>
</g>
</g>
<!-- Node3&#45;&gt;Node7 -->
<g id="edge6" class="edge">
<title>Node3&#45;&gt;Node7</title>
<path fill="none" stroke="midnightblue" d="M790.68,-112.44C840.29,-102.94 920.36,-87.61 973.59,-77.42"/>
<polygon fill="midnightblue" stroke="midnightblue" points="974.36,-80.83 983.53,-75.52 973.05,-73.96 974.36,-80.83"/>
</g>
<!-- Node8 -->
<g id="node8" class="node">
<title>Node8</title>
<g id="a_node8"><a xlink:title=" ">
<polygon fill="white" stroke="#bfbfbf" points="1074,-0.5 1074,-19.5 1136,-19.5 1136,-0.5 1074,-0.5"/>
<text text-anchor="middle" x="1105" y="-7.5" font-family="Helvetica,sans-Serif" font-size="10.00">cinttypes</text>
</a>
</g>
</g>
<!-- Node7&#45;&gt;Node8 -->
<g id="edge7" class="edge">
<title>Node7&#45;&gt;Node8</title>
<path fill="none" stroke="midnightblue" d="M1040.37,-56.32C1052.16,-48.06 1070.13,-35.45 1084.14,-25.63"/>
<polygon fill="midnightblue" stroke="midnightblue" points="1086.48,-28.26 1092.66,-19.65 1082.46,-22.53 1086.48,-28.26"/>
</g>
<!-- Node9 -->
<g id="node9" class="node">
<title>Node9</title>
<g id="a_node9"><a xlink:title=" ">
<polygon fill="white" stroke="#bfbfbf" points="996,-0.5 996,-19.5 1056,-19.5 1056,-0.5 996,-0.5"/>
<text text-anchor="middle" x="1026" y="-7.5" font-family="Helvetica,sans-Serif" font-size="10.00">iostream</text>
</a>
</g>
</g>
<!-- Node7&#45;&gt;Node9 -->
<g id="edge8" class="edge">
<title>Node7&#45;&gt;Node9</title>
<path fill="none" stroke="midnightblue" d="M1027.67,-56.08C1027.41,-49.01 1027.03,-38.86 1026.7,-29.99"/>
<polygon fill="midnightblue" stroke="midnightblue" points="1030.19,-29.61 1026.32,-19.75 1023.2,-29.87 1030.19,-29.61"/>
</g>
<!-- Node11 -->
<g id="node11" class="node">
<title>Node11</title>
<g id="a_node11"><a xlink:href="CPUDebug_8hpp.html" target="_top" xlink:title=" ">
<polygon fill="white" stroke="black" points="637.5,-392.5 637.5,-411.5 800.5,-411.5 800.5,-392.5 637.5,-392.5"/>
<text text-anchor="middle" x="719" y="-399.5" font-family="Helvetica,sans-Serif" font-size="10.00">Debugger/CPU/CPUDebug.hpp</text>
</a>
</g>
</g>
<!-- Node10&#45;&gt;Node11 -->
<g id="edge10" class="edge">
<title>Node10&#45;&gt;Node11</title>
<path fill="none" stroke="midnightblue" d="M400.24,-451.62C459.03,-442.66 578.05,-424.5 652.85,-413.09"/>
<polygon fill="midnightblue" stroke="midnightblue" points="653.75,-416.49 663.1,-411.53 652.69,-409.57 653.75,-416.49"/>
</g>
<!-- Node34 -->
<g id="node34" class="node">
<title>Node34</title>
<g id="a_node34"><a xlink:title=" ">
<polygon fill="white" stroke="#bfbfbf" points="337.5,-392.5 337.5,-411.5 392.5,-411.5 392.5,-392.5 337.5,-392.5"/>
<text text-anchor="middle" x="365" y="-399.5" font-family="Helvetica,sans-Serif" font-size="10.00">fstream</text>
</a>
</g>
</g>
<!-- Node10&#45;&gt;Node34 -->
<g id="edge56" class="edge">
<title>Node10&#45;&gt;Node34</title>
<path fill="none" stroke="midnightblue" d="M365,-448.08C365,-441.01 365,-430.86 365,-421.99"/>
<polygon fill="midnightblue" stroke="midnightblue" points="368.5,-421.75 365,-411.75 361.5,-421.75 368.5,-421.75"/>
</g>
<!-- Node11&#45;&gt;Node7 -->
<g id="edge17" class="edge">
<title>Node11&#45;&gt;Node7</title>
<path fill="none" stroke="midnightblue" d="M800.64,-395.68C864.95,-389.87 947.83,-378.24 973,-356 995.65,-335.98 993,-321.23 993,-291 993,-291 993,-291 993,-177 993,-143.07 1008.31,-105.91 1018.68,-84.63"/>
<polygon fill="midnightblue" stroke="midnightblue" points="1021.88,-86.05 1023.28,-75.54 1015.64,-82.88 1021.88,-86.05"/>
</g>
<!-- Node12 -->
<g id="node12" class="node">
<title>Node12</title>
<g id="a_node12"><a xlink:href="ClosableWindow_8hpp.html" target="_top" xlink:title=" ">
<polygon fill="white" stroke="black" points="103,-336.5 103,-355.5 271,-355.5 271,-336.5 103,-336.5"/>
<text text-anchor="middle" x="187" y="-343.5" font-family="Helvetica,sans-Serif" font-size="10.00">Debugger/ClosableWindow.hpp</text>
</a>
</g>
</g>
<!-- Node11&#45;&gt;Node12 -->
<g id="edge11" class="edge">
<title>Node11&#45;&gt;Node12</title>
<path fill="none" stroke="midnightblue" d="M637.33,-392.71C541.31,-382.96 382.23,-366.82 281.11,-356.55"/>
<polygon fill="midnightblue" stroke="midnightblue" points="281.21,-353.04 270.91,-355.52 280.5,-360.01 281.21,-353.04"/>
</g>
<!-- Node15 -->
<g id="node15" class="node">
<title>Node15</title>
<g id="a_node15"><a xlink:href="DebuggableError_8hpp.html" target="_top" xlink:title=" ">
<polygon fill="white" stroke="black" points="289.5,-336.5 289.5,-355.5 464.5,-355.5 464.5,-336.5 289.5,-336.5"/>
<text text-anchor="middle" x="377" y="-343.5" font-family="Helvetica,sans-Serif" font-size="10.00">Exceptions/DebuggableError.hpp</text>
</a>
</g>
</g>
<!-- Node11&#45;&gt;Node15 -->
<g id="edge14" class="edge">
<title>Node11&#45;&gt;Node15</title>
<path fill="none" stroke="midnightblue" d="M664.81,-392.44C604.02,-382.85 505.51,-367.29 440.99,-357.1"/>
<polygon fill="midnightblue" stroke="midnightblue" points="441.36,-353.62 430.94,-355.52 440.27,-360.53 441.36,-353.62"/>
</g>
<!-- Node17 -->
<g id="node17" class="node">
<title>Node17</title>
<g id="a_node17"><a xlink:title=" ">
<polygon fill="white" stroke="#bfbfbf" points="483,-336.5 483,-355.5 575,-355.5 575,-336.5 483,-336.5"/>
<text text-anchor="middle" x="529" y="-343.5" font-family="Helvetica,sans-Serif" font-size="10.00">ui/ui_cpuView.h</text>
</a>
</g>
</g>
<!-- Node11&#45;&gt;Node17 -->
<g id="edge16" class="edge">
<title>Node11&#45;&gt;Node17</title>
<path fill="none" stroke="midnightblue" d="M688.89,-392.44C656.37,-383.2 604.42,-368.44 568.61,-358.26"/>
<polygon fill="midnightblue" stroke="midnightblue" points="569.54,-354.88 558.97,-355.52 567.63,-361.62 569.54,-354.88"/>
</g>
<!-- Node18 -->
<g id="node18" class="node">
<title>Node18</title>
<g id="a_node18"><a xlink:href="MemoryBus_8hpp.html" target="_top" xlink:title=" ">
<polygon fill="white" stroke="black" points="1301,-336.5 1301,-355.5 1441,-355.5 1441,-336.5 1301,-336.5"/>
<text text-anchor="middle" x="1371" y="-343.5" font-family="Helvetica,sans-Serif" font-size="10.00">Memory/MemoryBus.hpp</text>
</a>
</g>
</g>
<!-- Node11&#45;&gt;Node18 -->
<g id="edge18" class="edge">
<title>Node11&#45;&gt;Node18</title>
<path fill="none" stroke="midnightblue" d="M800.59,-394.24C926.22,-383.84 1165.56,-364.02 1290.52,-353.67"/>
<polygon fill="midnightblue" stroke="midnightblue" points="1291.1,-357.13 1300.78,-352.82 1290.52,-350.15 1291.1,-357.13"/>
</g>
<!-- Node29 -->
<g id="node29" class="node">
<title>Node29</title>
<g id="a_node29"><a xlink:title=" ">
<polygon fill="white" stroke="#bfbfbf" points="1021,-224.5 1021,-243.5 1077,-243.5 1077,-224.5 1021,-224.5"/>
<text text-anchor="middle" x="1049" y="-231.5" font-family="Helvetica,sans-Serif" font-size="10.00">optional</text>
</a>
</g>
</g>
<!-- Node11&#45;&gt;Node29 -->
<g id="edge54" class="edge">
<title>Node11&#45;&gt;Node29</title>
<path fill="none" stroke="midnightblue" d="M800.52,-397.49C874.45,-392.69 976.41,-381.55 1007,-356 1037.76,-330.31 1046.03,-280.81 1048.22,-253.76"/>
<polygon fill="midnightblue" stroke="midnightblue" points="1051.72,-253.88 1048.84,-243.68 1044.74,-253.45 1051.72,-253.88"/>
</g>
<!-- Node30 -->
<g id="node30" class="node">
<title>Node30</title>
<g id="a_node30"><a xlink:href="Instruction_8hpp.html" target="_top" xlink:title=" ">
<polygon fill="white" stroke="black" points="813.5,-112.5 813.5,-131.5 926.5,-131.5 926.5,-112.5 813.5,-112.5"/>
<text text-anchor="middle" x="870" y="-119.5" font-family="Helvetica,sans-Serif" font-size="10.00">CPU/Instruction.hpp</text>
</a>
</g>
</g>
<!-- Node11&#45;&gt;Node30 -->
<g id="edge49" class="edge">
<title>Node11&#45;&gt;Node30</title>
<path fill="none" stroke="midnightblue" d="M683.55,-392.48C662.89,-385.79 637.86,-374.44 622,-356 602.37,-333.18 603,-321.1 603,-291 603,-291 603,-291 603,-233 603,-187.3 738.42,-150.9 816.37,-133.74"/>
<polygon fill="midnightblue" stroke="midnightblue" points="817.48,-137.08 826.51,-131.54 815.99,-130.24 817.48,-137.08"/>
</g>
<!-- Node31 -->
<g id="node31" class="node">
<title>Node31</title>
<g id="a_node31"><a xlink:title=" ">
<polygon fill="white" stroke="#bfbfbf" points="631,-336.5 631,-355.5 807,-355.5 807,-336.5 631,-336.5"/>
<text text-anchor="middle" x="719" y="-343.5" font-family="Helvetica,sans-Serif" font-size="10.00">QtWidgets/QStyledItemDelegate</text>
</a>
</g>
</g>
<!-- Node11&#45;&gt;Node31 -->
<g id="edge52" class="edge">
<title>Node11&#45;&gt;Node31</title>
<path fill="none" stroke="midnightblue" d="M719,-392.08C719,-385.01 719,-374.86 719,-365.99"/>
<polygon fill="midnightblue" stroke="midnightblue" points="722.5,-365.75 719,-355.75 715.5,-365.75 722.5,-365.75"/>
</g>
<!-- Node32 -->
<g id="node32" class="node">
<title>Node32</title>
<g id="a_node32"><a xlink:title=" ">
<polygon fill="white" stroke="#bfbfbf" points="825,-336.5 825,-355.5 893,-355.5 893,-336.5 825,-336.5"/>
<text text-anchor="middle" x="859" y="-343.5" font-family="Helvetica,sans-Serif" font-size="10.00">filesystem</text>
</a>
</g>
</g>
<!-- Node11&#45;&gt;Node32 -->
<g id="edge53" class="edge">
<title>Node11&#45;&gt;Node32</title>
<path fill="none" stroke="midnightblue" d="M741.18,-392.44C764.43,-383.48 801.15,-369.31 827.42,-359.18"/>
<polygon fill="midnightblue" stroke="midnightblue" points="828.85,-362.38 836.92,-355.52 826.33,-355.85 828.85,-362.38"/>
</g>
<!-- Node33 -->
<g id="node33" class="node">
<title>Node33</title>
<g id="a_node33"><a xlink:title=" ">
<polygon fill="white" stroke="#bfbfbf" points="911.5,-336.5 911.5,-355.5 964.5,-355.5 964.5,-336.5 911.5,-336.5"/>
<text text-anchor="middle" x="938" y="-343.5" font-family="Helvetica,sans-Serif" font-size="10.00">QTimer</text>
</a>
</g>
</g>
<!-- Node11&#45;&gt;Node33 -->
<g id="edge55" class="edge">
<title>Node11&#45;&gt;Node33</title>
<path fill="none" stroke="midnightblue" d="M753.75,-392.5C788.56,-383.97 843.92,-370.38 901.29,-356.17"/>
<polygon fill="midnightblue" stroke="midnightblue" points="902.4,-359.5 911.27,-353.7 900.72,-352.7 902.4,-359.5"/>
</g>
<!-- Node13 -->
<g id="node13" class="node">
<title>Node13</title>
<g id="a_node13"><a xlink:title=" ">
<polygon fill="white" stroke="#bfbfbf" points="168.5,-280.5 168.5,-299.5 309.5,-299.5 309.5,-280.5 168.5,-280.5"/>
<text text-anchor="middle" x="239" y="-287.5" font-family="Helvetica,sans-Serif" font-size="10.00">QtWidgets/QMainWindow</text>
</a>
</g>
</g>
<!-- Node12&#45;&gt;Node13 -->
<g id="edge12" class="edge">
<title>Node12&#45;&gt;Node13</title>
<path fill="none" stroke="midnightblue" d="M195.59,-336.08C203.16,-328.22 214.38,-316.57 223.51,-307.08"/>
<polygon fill="midnightblue" stroke="midnightblue" points="226.16,-309.38 230.57,-299.75 221.12,-304.53 226.16,-309.38"/>
</g>
<!-- Node14 -->
<g id="node14" class="node">
<title>Node14</title>
<g id="a_node14"><a xlink:title=" ">
<polygon fill="white" stroke="#bfbfbf" points="105.5,-280.5 105.5,-299.5 150.5,-299.5 150.5,-280.5 105.5,-280.5"/>
<text text-anchor="middle" x="128" y="-287.5" font-family="Helvetica,sans-Serif" font-size="10.00">utility</text>
</a>
</g>
</g>
<!-- Node12&#45;&gt;Node14 -->
<g id="edge13" class="edge">
<title>Node12&#45;&gt;Node14</title>
<path fill="none" stroke="midnightblue" d="M177.52,-336.32C168.8,-328.34 155.66,-316.31 145.1,-306.65"/>
<polygon fill="midnightblue" stroke="midnightblue" points="147.39,-304 137.65,-299.83 142.67,-309.17 147.39,-304"/>
</g>
<!-- Node16 -->
<g id="node16" class="node">
<title>Node16</title>
<g id="a_node16"><a xlink:title=" ">
<polygon fill="white" stroke="#bfbfbf" points="329.5,-280.5 329.5,-299.5 424.5,-299.5 424.5,-280.5 329.5,-280.5"/>
<text text-anchor="middle" x="377" y="-287.5" font-family="Helvetica,sans-Serif" font-size="10.00">bits/exception.h</text>
</a>
</g>
</g>
<!-- Node15&#45;&gt;Node16 -->
<g id="edge15" class="edge">
<title>Node15&#45;&gt;Node16</title>
<path fill="none" stroke="midnightblue" d="M377,-336.08C377,-329.01 377,-318.86 377,-309.99"/>
<polygon fill="midnightblue" stroke="midnightblue" points="380.5,-309.75 377,-299.75 373.5,-309.75 380.5,-309.75"/>
</g>
<!-- Node19 -->
<g id="node19" class="node">
<title>Node19</title>
<g id="a_node19"><a xlink:href="AMemory_8hpp.html" target="_top" xlink:title=" ">
<polygon fill="white" stroke="black" points="1359.5,-168.5 1359.5,-187.5 1442.5,-187.5 1442.5,-168.5 1359.5,-168.5"/>
<text text-anchor="middle" x="1401" y="-175.5" font-family="Helvetica,sans-Serif" font-size="10.00">AMemory.hpp</text>
</a>
</g>
</g>
<!-- Node18&#45;&gt;Node19 -->
<g id="edge19" class="edge">
<title>Node18&#45;&gt;Node19</title>
<path fill="none" stroke="midnightblue" d="M1372.61,-336.08C1377.34,-309.95 1391.2,-233.21 1397.64,-197.58"/>
<polygon fill="midnightblue" stroke="midnightblue" points="1401.12,-198.03 1399.45,-187.57 1394.23,-196.79 1401.12,-198.03"/>
</g>
<!-- Node20 -->
<g id="node20" class="node">
<title>Node20</title>
<g id="a_node20"><a xlink:title=" ">
<polygon fill="white" stroke="#bfbfbf" points="1205,-56.5 1205,-75.5 1255,-75.5 1255,-56.5 1205,-56.5"/>
<text text-anchor="middle" x="1230" y="-63.5" font-family="Helvetica,sans-Serif" font-size="10.00">cstdint</text>
</a>
</g>
</g>
<!-- Node18&#45;&gt;Node20 -->
<g id="edge46" class="edge">
<title>Node18&#45;&gt;Node20</title>
<path fill="none" stroke="midnightblue" d="M1354.96,-336.49C1318.99,-316.38 1232.51,-261.98 1200,-188 1184.54,-152.82 1204.95,-108.24 1218.92,-84.22"/>
<polygon fill="midnightblue" stroke="midnightblue" points="1221.99,-85.9 1224.21,-75.54 1216.02,-82.25 1221.99,-85.9"/>
</g>
<!-- Node21 -->
<g id="node21" class="node">
<title>Node21</title>
<g id="a_node21"><a xlink:title=" ">
<polygon fill="white" stroke="#bfbfbf" points="1428.5,-56.5 1428.5,-75.5 1475.5,-75.5 1475.5,-56.5 1428.5,-56.5"/>
<text text-anchor="middle" x="1452" y="-63.5" font-family="Helvetica,sans-Serif" font-size="10.00">vector</text>
</a>
</g>
</g>
<!-- Node18&#45;&gt;Node21 -->
<g id="edge48" class="edge">
<title>Node18&#45;&gt;Node21</title>
<path fill="none" stroke="midnightblue" d="M1375.17,-336.43C1384.89,-316.55 1409.87,-265.79 1432,-224 1440.57,-207.82 1447.41,-205.72 1452,-188 1461.1,-152.87 1457.92,-110.06 1454.89,-85.93"/>
<polygon fill="midnightblue" stroke="midnightblue" points="1458.31,-85.12 1453.47,-75.7 1451.38,-86.08 1458.31,-85.12"/>
</g>
<!-- Node22 -->
<g id="node22" class="node">
<title>Node22</title>
<g id="a_node22"><a xlink:title=" ">
<polygon fill="white" stroke="#bfbfbf" points="1518,-56.5 1518,-75.5 1576,-75.5 1576,-56.5 1518,-56.5"/>
<text text-anchor="middle" x="1547" y="-63.5" font-family="Helvetica,sans-Serif" font-size="10.00">memory</text>
</a>
</g>
</g>
<!-- Node18&#45;&gt;Node22 -->
<g id="edge47" class="edge">
<title>Node18&#45;&gt;Node22</title>
<path fill="none" stroke="midnightblue" d="M1441.03,-339.46C1500.73,-333.34 1580.51,-321.39 1604,-300 1626.25,-279.74 1623,-265.1 1623,-235 1623,-235 1623,-235 1623,-177 1623,-137.28 1589.04,-101.5 1566.52,-82.15"/>
<polygon fill="midnightblue" stroke="midnightblue" points="1568.48,-79.24 1558.54,-75.57 1564.02,-84.63 1568.48,-79.24"/>
</g>
<!-- Node25 -->
<g id="node25" class="node">
<title>Node25</title>
<g id="a_node25"><a xlink:href="RectangleShadow_8hpp.html" target="_top" xlink:title=" ">
<polygon fill="white" stroke="black" points="1471,-280.5 1471,-299.5 1595,-299.5 1595,-280.5 1471,-280.5"/>
<text text-anchor="middle" x="1533" y="-287.5" font-family="Helvetica,sans-Serif" font-size="10.00">RectangleShadow.hpp</text>
</a>
</g>
</g>
<!-- Node18&#45;&gt;Node25 -->
<g id="edge33" class="edge">
<title>Node18&#45;&gt;Node25</title>
<path fill="none" stroke="midnightblue" d="M1396.67,-336.44C1423.92,-327.36 1467.18,-312.94 1497.65,-302.78"/>
<polygon fill="midnightblue" stroke="midnightblue" points="1499.07,-306 1507.45,-299.52 1496.86,-299.36 1499.07,-306"/>
</g>
<!-- Node27 -->
<g id="node27" class="node">
<title>Node27</title>
<g id="a_node27"><a xlink:href="MemoryShadow_8hpp.html" target="_top" xlink:title=" ">
<polygon fill="white" stroke="black" points="1441,-224.5 1441,-243.5 1557,-243.5 1557,-224.5 1441,-224.5"/>
<text text-anchor="middle" x="1499" y="-231.5" font-family="Helvetica,sans-Serif" font-size="10.00">MemoryShadow.hpp</text>
</a>
</g>
</g>
<!-- Node18&#45;&gt;Node27 -->
<g id="edge41" class="edge">
<title>Node18&#45;&gt;Node27</title>
<path fill="none" stroke="midnightblue" d="M1381.04,-336.37C1402.73,-317.73 1454.16,-273.53 1481.39,-250.13"/>
<polygon fill="midnightblue" stroke="midnightblue" points="1483.7,-252.76 1489,-243.59 1479.14,-247.45 1483.7,-252.76"/>
</g>
<!-- Node28 -->
<g id="node28" class="node">
<title>Node28</title>
<g id="a_node28"><a xlink:href="IMemoryBus_8hpp.html" target="_top" xlink:title=" ">
<polygon fill="white" stroke="black" points="1059.5,-280.5 1059.5,-299.5 1158.5,-299.5 1158.5,-280.5 1059.5,-280.5"/>
<text text-anchor="middle" x="1109" y="-287.5" font-family="Helvetica,sans-Serif" font-size="10.00">IMemoryBus.hpp</text>
</a>
</g>
</g>
<!-- Node18&#45;&gt;Node28 -->
<g id="edge42" class="edge">
<title>Node18&#45;&gt;Node28</title>
<path fill="none" stroke="midnightblue" d="M1329.49,-336.44C1283.59,-326.98 1209.62,-311.74 1160.17,-301.55"/>
<polygon fill="midnightblue" stroke="midnightblue" points="1160.82,-298.11 1150.32,-299.52 1159.41,-304.96 1160.82,-298.11"/>
</g>
<!-- Node19&#45;&gt;Node4 -->
<g id="edge23" class="edge">
<title>Node19&#45;&gt;Node4</title>
<path fill="none" stroke="midnightblue" d="M1359.1,-169.35C1313.09,-160.81 1237.1,-146.31 1172,-132 1086.74,-113.25 986.95,-88.1 936.96,-75.27"/>
<polygon fill="midnightblue" stroke="midnightblue" points="937.63,-71.83 927.08,-72.73 935.89,-78.61 937.63,-71.83"/>
</g>
<!-- Node19&#45;&gt;Node7 -->
<g id="edge24" class="edge">
<title>Node19&#45;&gt;Node7</title>
<path fill="none" stroke="midnightblue" d="M1369.47,-168.44C1336.96,-159.55 1284.84,-145.14 1240,-132 1178.27,-113.91 1106.8,-91.74 1064.6,-78.53"/>
<polygon fill="midnightblue" stroke="midnightblue" points="1065.63,-75.18 1055.04,-75.53 1063.54,-81.86 1065.63,-75.18"/>
</g>
<!-- Node19&#45;&gt;Node20 -->
<g id="edge20" class="edge">
<title>Node19&#45;&gt;Node20</title>
<path fill="none" stroke="midnightblue" d="M1394.52,-168.33C1383.99,-154.74 1361.9,-128.28 1338,-112 1315.43,-96.63 1286.79,-85 1264.67,-77.41"/>
<polygon fill="midnightblue" stroke="midnightblue" points="1265.61,-74.03 1255.02,-74.21 1263.41,-80.68 1265.61,-74.03"/>
</g>
<!-- Node19&#45;&gt;Node21 -->
<g id="edge21" class="edge">
<title>Node19&#45;&gt;Node21</title>
<path fill="none" stroke="midnightblue" d="M1405,-168.37C1413.31,-150.46 1432.56,-108.92 1443.68,-84.95"/>
<polygon fill="midnightblue" stroke="midnightblue" points="1446.99,-86.14 1448.02,-75.59 1440.64,-83.19 1446.99,-86.14"/>
</g>
<!-- Node19&#45;&gt;Node22 -->
<g id="edge22" class="edge">
<title>Node19&#45;&gt;Node22</title>
<path fill="none" stroke="midnightblue" d="M1412.46,-168.37C1437.3,-149.65 1496.36,-105.15 1527.31,-81.83"/>
<polygon fill="midnightblue" stroke="midnightblue" points="1529.72,-84.4 1535.6,-75.59 1525.5,-78.81 1529.72,-84.4"/>
</g>
<!-- Node23 -->
<g id="node23" class="node">
<title>Node23</title>
<g id="a_node23"><a xlink:href="Components_8hpp.html" target="_top" xlink:title=" ">
<polygon fill="white" stroke="black" points="1273.5,-56.5 1273.5,-75.5 1410.5,-75.5 1410.5,-56.5 1273.5,-56.5"/>
<text text-anchor="middle" x="1342" y="-63.5" font-family="Helvetica,sans-Serif" font-size="10.00">Models/Components.hpp</text>
</a>
</g>
</g>
<!-- Node19&#45;&gt;Node23 -->
<g id="edge25" class="edge">
<title>Node19&#45;&gt;Node23</title>
<path fill="none" stroke="midnightblue" d="M1397.49,-168.4C1392.23,-155.78 1381.77,-131.61 1371,-112 1365.8,-102.53 1359.34,-92.38 1353.84,-84.12"/>
<polygon fill="midnightblue" stroke="midnightblue" points="1356.66,-82.05 1348.15,-75.74 1350.87,-85.98 1356.66,-82.05"/>
</g>
<!-- Node24 -->
<g id="node24" class="node">
<title>Node24</title>
<g id="a_node24"><a xlink:href="IMemory_8hpp.html" target="_top" xlink:title=" ">
<polygon fill="white" stroke="black" points="1249,-112.5 1249,-131.5 1329,-131.5 1329,-112.5 1249,-112.5"/>
<text text-anchor="middle" x="1289" y="-119.5" font-family="Helvetica,sans-Serif" font-size="10.00">IMemory.hpp</text>
</a>
</g>
</g>
<!-- Node19&#45;&gt;Node24 -->
<g id="edge26" class="edge">
<title>Node19&#45;&gt;Node24</title>
<path fill="none" stroke="midnightblue" d="M1383.01,-168.32C1364.96,-159.62 1336.95,-146.12 1316.2,-136.11"/>
<polygon fill="midnightblue" stroke="midnightblue" points="1317.48,-132.84 1306.95,-131.65 1314.44,-139.15 1317.48,-132.84"/>
</g>
<!-- Node24&#45;&gt;Node4 -->
<g id="edge30" class="edge">
<title>Node24&#45;&gt;Node4</title>
<path fill="none" stroke="midnightblue" d="M1248.99,-115.37C1172.62,-104.63 1007.43,-81.4 937.41,-71.56"/>
<polygon fill="midnightblue" stroke="midnightblue" points="937.8,-68.08 927.41,-70.15 936.82,-75.01 937.8,-68.08"/>
</g>
<!-- Node24&#45;&gt;Node7 -->
<g id="edge31" class="edge">
<title>Node24&#45;&gt;Node7</title>
<path fill="none" stroke="midnightblue" d="M1248.79,-112.68C1203.17,-103.24 1128.68,-87.83 1079.01,-77.55"/>
<polygon fill="midnightblue" stroke="midnightblue" points="1079.62,-74.11 1069.12,-75.51 1078.2,-80.96 1079.62,-74.11"/>
</g>
<!-- Node24&#45;&gt;Node20 -->
<g id="edge27" class="edge">
<title>Node24&#45;&gt;Node20</title>
<path fill="none" stroke="midnightblue" d="M1279.52,-112.32C1270.8,-104.34 1257.66,-92.31 1247.1,-82.65"/>
<polygon fill="midnightblue" stroke="midnightblue" points="1249.39,-80 1239.65,-75.83 1244.67,-85.17 1249.39,-80"/>
</g>
<!-- Node24&#45;&gt;Node21 -->
<g id="edge28" class="edge">
<title>Node24&#45;&gt;Node21</title>
<path fill="none" stroke="midnightblue" d="M1314.83,-112.44C1342.89,-103.15 1387.83,-88.26 1418.57,-78.07"/>
<polygon fill="midnightblue" stroke="midnightblue" points="1420.02,-81.28 1428.41,-74.82 1417.82,-74.64 1420.02,-81.28"/>
</g>
<!-- Node24&#45;&gt;Node22 -->
<g id="edge29" class="edge">
<title>Node24&#45;&gt;Node22</title>
<path fill="none" stroke="midnightblue" d="M1329.03,-112.62C1377.69,-102.44 1459.27,-85.36 1507.63,-75.24"/>
<polygon fill="midnightblue" stroke="midnightblue" points="1508.64,-78.6 1517.71,-73.13 1507.21,-71.75 1508.64,-78.6"/>
</g>
<!-- Node24&#45;&gt;Node23 -->
<g id="edge32" class="edge">
<title>Node24&#45;&gt;Node23</title>
<path fill="none" stroke="midnightblue" d="M1297.75,-112.08C1305.47,-104.22 1316.9,-92.57 1326.22,-83.08"/>
<polygon fill="midnightblue" stroke="midnightblue" points="1328.9,-85.34 1333.41,-75.75 1323.91,-80.44 1328.9,-85.34"/>
</g>
<!-- Node25&#45;&gt;Node22 -->
<g id="edge34" class="edge">
<title>Node25&#45;&gt;Node22</title>
<path fill="none" stroke="midnightblue" d="M1542.02,-280.34C1550.07,-271.93 1561.3,-258.36 1566,-244 1584.23,-188.32 1565.04,-118.04 1553.86,-85.32"/>
<polygon fill="midnightblue" stroke="midnightblue" points="1557.09,-83.98 1550.44,-75.74 1550.5,-86.33 1557.09,-83.98"/>
</g>
<!-- Node26 -->
<g id="node26" class="node">
<title>Node26</title>
<g id="a_node26"><a xlink:href="ARectangleMemory_8hpp.html" target="_top" xlink:title=" ">
<polygon fill="white" stroke="black" points="1209,-168.5 1209,-187.5 1341,-187.5 1341,-168.5 1209,-168.5"/>
<text text-anchor="middle" x="1275" y="-175.5" font-family="Helvetica,sans-Serif" font-size="10.00">ARectangleMemory.hpp</text>
</a>
</g>
</g>
<!-- Node25&#45;&gt;Node26 -->
<g id="edge35" class="edge">
<title>Node25&#45;&gt;Node26</title>
<path fill="none" stroke="midnightblue" d="M1512.76,-280.37C1467.45,-261.05 1357.7,-214.26 1304.67,-191.65"/>
<polygon fill="midnightblue" stroke="midnightblue" points="1305.72,-188.29 1295.15,-187.59 1302.98,-194.73 1305.72,-188.29"/>
</g>
<!-- Node25&#45;&gt;Node27 -->
<g id="edge38" class="edge">
<title>Node25&#45;&gt;Node27</title>
<path fill="none" stroke="midnightblue" d="M1527.39,-280.08C1522.63,-272.53 1515.68,-261.49 1509.85,-252.23"/>
<polygon fill="midnightblue" stroke="midnightblue" points="1512.8,-250.35 1504.51,-243.75 1506.88,-254.08 1512.8,-250.35"/>
</g>
<!-- Node26&#45;&gt;Node7 -->
<g id="edge37" class="edge">
<title>Node26&#45;&gt;Node7</title>
<path fill="none" stroke="midnightblue" d="M1255.62,-168.37C1212.33,-149.09 1107.61,-102.45 1056.72,-79.79"/>
<polygon fill="midnightblue" stroke="midnightblue" points="1057.85,-76.46 1047.29,-75.59 1055,-82.86 1057.85,-76.46"/>
</g>
<!-- Node26&#45;&gt;Node24 -->
<g id="edge36" class="edge">
<title>Node26&#45;&gt;Node24</title>
<path fill="none" stroke="midnightblue" d="M1277.31,-168.08C1279.17,-160.93 1281.84,-150.64 1284.15,-141.69"/>
<polygon fill="midnightblue" stroke="midnightblue" points="1287.61,-142.31 1286.73,-131.75 1280.83,-140.55 1287.61,-142.31"/>
</g>
<!-- Node27&#45;&gt;Node19 -->
<g id="edge40" class="edge">
<title>Node27&#45;&gt;Node19</title>
<path fill="none" stroke="midnightblue" d="M1483.25,-224.32C1467.68,-215.74 1443.62,-202.49 1425.54,-192.52"/>
<polygon fill="midnightblue" stroke="midnightblue" points="1427.15,-189.42 1416.71,-187.65 1423.78,-195.55 1427.15,-189.42"/>
</g>
<!-- Node27&#45;&gt;Node22 -->
<g id="edge39" class="edge">
<title>Node27&#45;&gt;Node22</title>
<path fill="none" stroke="midnightblue" d="M1501.58,-224.08C1509.14,-197.95 1531.32,-121.21 1541.63,-85.58"/>
<polygon fill="midnightblue" stroke="midnightblue" points="1545.11,-86.15 1544.52,-75.57 1538.38,-84.2 1545.11,-86.15"/>
</g>
<!-- Node28&#45;&gt;Node8 -->
<g id="edge43" class="edge">
<title>Node28&#45;&gt;Node8</title>
<path fill="none" stroke="midnightblue" d="M1108.48,-280.45C1107.39,-261.95 1105,-216.84 1105,-179 1105,-179 1105,-179 1105,-121 1105,-88.95 1105,-51.64 1105,-29.75"/>
<polygon fill="midnightblue" stroke="midnightblue" points="1108.5,-29.56 1105,-19.56 1101.5,-29.56 1108.5,-29.56"/>
</g>
<!-- Node28&#45;&gt;Node24 -->
<g id="edge45" class="edge">
<title>Node28&#45;&gt;Node24</title>
<path fill="none" stroke="midnightblue" d="M1113.65,-280.31C1125.51,-258.82 1158.89,-202.42 1200,-168 1216.47,-154.21 1237.87,-143.22 1255.56,-135.56"/>
<polygon fill="midnightblue" stroke="midnightblue" points="1257.07,-138.72 1264.95,-131.64 1254.37,-132.26 1257.07,-138.72"/>
</g>
<!-- Node28&#45;&gt;Node29 -->
<g id="edge44" class="edge">
<title>Node28&#45;&gt;Node29</title>
<path fill="none" stroke="midnightblue" d="M1099.36,-280.32C1090.49,-272.34 1077.13,-260.31 1066.39,-250.65"/>
<polygon fill="midnightblue" stroke="midnightblue" points="1068.59,-247.92 1058.82,-243.83 1063.91,-253.13 1068.59,-247.92"/>
</g>
<!-- Node30&#45;&gt;Node4 -->
<g id="edge50" class="edge">
<title>Node30&#45;&gt;Node4</title>
<path fill="none" stroke="midnightblue" d="M875.78,-112.08C880.67,-104.53 887.83,-93.49 893.83,-84.23"/>
<polygon fill="midnightblue" stroke="midnightblue" points="896.83,-86.05 899.33,-75.75 890.95,-82.24 896.83,-86.05"/>
</g>
<!-- Node30&#45;&gt;Node7 -->
<g id="edge51" class="edge">
<title>Node30&#45;&gt;Node7</title>
<path fill="none" stroke="midnightblue" d="M895.04,-112.44C921.62,-103.36 963.81,-88.94 993.52,-78.78"/>
<polygon fill="midnightblue" stroke="midnightblue" points="994.75,-82.06 1003.08,-75.52 992.49,-75.44 994.75,-82.06"/>
</g>
</g>
</svg>
