<?xml version="1.0" encoding="UTF-8" standalone="no"?>
<!DOCTYPE svg PUBLIC "-//W3C//DTD SVG 1.1//EN"
 "http://www.w3.org/Graphics/SVG/1.1/DTD/svg11.dtd">
<!-- Generated by graphviz version 2.43.0 (0)
 -->
<!-- Title: sources/Debugger/CPU/SymbolLoaders/WlaDx.hpp Pages: 1 -->
<svg width="1430pt" height="487pt"
 viewBox="0.00 0.00 1430.00 487.00" xmlns="http://www.w3.org/2000/svg" xmlns:xlink="http://www.w3.org/1999/xlink">
<g id="graph0" class="graph" transform="scale(1 1) rotate(0) translate(4 483)">
<title>sources/Debugger/CPU/SymbolLoaders/WlaDx.hpp</title>
<polygon fill="white" stroke="transparent" points="-4,4 -4,-483 1426,-483 1426,4 -4,4"/>
<!-- Node1 -->
<g id="node1" class="node">
<title>Node1</title>
<g id="a_node1"><a xlink:title=" ">
<polygon fill="#bfbfbf" stroke="black" points="840,-448.5 840,-478.5 991,-478.5 991,-448.5 840,-448.5"/>
<text text-anchor="start" x="848" y="-466.5" font-family="Helvetica,sans-Serif" font-size="10.00">sources/Debugger/CPU</text>
<text text-anchor="middle" x="915.5" y="-455.5" font-family="Helvetica,sans-Serif" font-size="10.00">/SymbolLoaders/WlaDx.hpp</text>
</a>
</g>
</g>
<!-- Node2 -->
<g id="node2" class="node">
<title>Node2</title>
<g id="a_node2"><a xlink:href="CPUDebug_8hpp.html" target="_top" xlink:title=" ">
<polygon fill="white" stroke="black" points="771,-392.5 771,-411.5 934,-411.5 934,-392.5 771,-392.5"/>
<text text-anchor="middle" x="852.5" y="-399.5" font-family="Helvetica,sans-Serif" font-size="10.00">Debugger/CPU/CPUDebug.hpp</text>
</a>
</g>
</g>
<!-- Node1&#45;&gt;Node2 -->
<g id="edge1" class="edge">
<title>Node1&#45;&gt;Node2</title>
<path fill="none" stroke="midnightblue" d="M900.57,-448.4C891.13,-439.49 878.92,-427.95 869.17,-418.74"/>
<polygon fill="midnightblue" stroke="midnightblue" points="871.34,-415.98 861.67,-411.66 866.53,-421.07 871.34,-415.98"/>
</g>
<!-- Node29 -->
<g id="node29" class="node">
<title>Node29</title>
<g id="a_node29"><a xlink:title=" ">
<polygon fill="white" stroke="#bfbfbf" points="952,-392.5 952,-411.5 1007,-411.5 1007,-392.5 952,-392.5"/>
<text text-anchor="middle" x="979.5" y="-399.5" font-family="Helvetica,sans-Serif" font-size="10.00">fstream</text>
</a>
</g>
</g>
<!-- Node1&#45;&gt;Node29 -->
<g id="edge49" class="edge">
<title>Node1&#45;&gt;Node29</title>
<path fill="none" stroke="midnightblue" d="M930.67,-448.4C940.25,-439.49 952.66,-427.95 962.57,-418.74"/>
<polygon fill="midnightblue" stroke="midnightblue" points="965.25,-421.03 970.19,-411.66 960.48,-415.9 965.25,-421.03"/>
</g>
<!-- Node3 -->
<g id="node3" class="node">
<title>Node3</title>
<g id="a_node3"><a xlink:href="ClosableWindow_8hpp.html" target="_top" xlink:title=" ">
<polygon fill="white" stroke="black" points="22.5,-336.5 22.5,-355.5 190.5,-355.5 190.5,-336.5 22.5,-336.5"/>
<text text-anchor="middle" x="106.5" y="-343.5" font-family="Helvetica,sans-Serif" font-size="10.00">Debugger/ClosableWindow.hpp</text>
</a>
</g>
</g>
<!-- Node2&#45;&gt;Node3 -->
<g id="edge2" class="edge">
<title>Node2&#45;&gt;Node3</title>
<path fill="none" stroke="midnightblue" d="M770.75,-396.09C648.97,-388.63 412.44,-373.5 200.7,-356.08"/>
<polygon fill="midnightblue" stroke="midnightblue" points="200.89,-352.58 190.64,-355.25 200.32,-359.56 200.89,-352.58"/>
</g>
<!-- Node6 -->
<g id="node6" class="node">
<title>Node6</title>
<g id="a_node6"><a xlink:href="DebuggableError_8hpp.html" target="_top" xlink:title=" ">
<polygon fill="white" stroke="black" points="209,-336.5 209,-355.5 384,-355.5 384,-336.5 209,-336.5"/>
<text text-anchor="middle" x="296.5" y="-343.5" font-family="Helvetica,sans-Serif" font-size="10.00">Exceptions/DebuggableError.hpp</text>
</a>
</g>
</g>
<!-- Node2&#45;&gt;Node6 -->
<g id="edge5" class="edge">
<title>Node2&#45;&gt;Node6</title>
<path fill="none" stroke="midnightblue" d="M770.76,-393.06C670.61,-383.33 501.09,-366.87 394.17,-356.49"/>
<polygon fill="midnightblue" stroke="midnightblue" points="394.32,-352.98 384.03,-355.5 393.64,-359.95 394.32,-352.98"/>
</g>
<!-- Node8 -->
<g id="node8" class="node">
<title>Node8</title>
<g id="a_node8"><a xlink:title=" ">
<polygon fill="white" stroke="#bfbfbf" points="402.5,-336.5 402.5,-355.5 494.5,-355.5 494.5,-336.5 402.5,-336.5"/>
<text text-anchor="middle" x="448.5" y="-343.5" font-family="Helvetica,sans-Serif" font-size="10.00">ui/ui_cpuView.h</text>
</a>
</g>
</g>
<!-- Node2&#45;&gt;Node8 -->
<g id="edge7" class="edge">
<title>Node2&#45;&gt;Node8</title>
<path fill="none" stroke="midnightblue" d="M784.57,-392.5C715.14,-383.72 604.23,-369.44 508.5,-356 507.24,-355.82 505.96,-355.64 504.68,-355.46"/>
<polygon fill="midnightblue" stroke="midnightblue" points="505.07,-351.98 494.68,-354.02 504.07,-358.91 505.07,-351.98"/>
</g>
<!-- Node9 -->
<g id="node9" class="node">
<title>Node9</title>
<g id="a_node9"><a xlink:href="Ints_8hpp.html" target="_top" xlink:title=" ">
<polygon fill="white" stroke="black" points="967.5,-56.5 967.5,-75.5 1061.5,-75.5 1061.5,-56.5 967.5,-56.5"/>
<text text-anchor="middle" x="1014.5" y="-63.5" font-family="Helvetica,sans-Serif" font-size="10.00">Models/Ints.hpp</text>
</a>
</g>
</g>
<!-- Node2&#45;&gt;Node9 -->
<g id="edge8" class="edge">
<title>Node2&#45;&gt;Node9</title>
<path fill="none" stroke="midnightblue" d="M897.16,-392.46C922.53,-385.85 953.68,-374.58 976.5,-356 1067.17,-282.17 1082.63,-244.5 1114.5,-132 1116.92,-123.45 1119.33,-119.46 1114.5,-112 1104.12,-95.95 1086.5,-85.57 1068.92,-78.87"/>
<polygon fill="midnightblue" stroke="midnightblue" points="1069.79,-75.47 1059.2,-75.52 1067.51,-82.09 1069.79,-75.47"/>
</g>
<!-- Node12 -->
<g id="node12" class="node">
<title>Node12</title>
<g id="a_node12"><a xlink:href="MemoryBus_8hpp.html" target="_top" xlink:title=" ">
<polygon fill="white" stroke="black" points="617.5,-336.5 617.5,-355.5 757.5,-355.5 757.5,-336.5 617.5,-336.5"/>
<text text-anchor="middle" x="687.5" y="-343.5" font-family="Helvetica,sans-Serif" font-size="10.00">Memory/MemoryBus.hpp</text>
</a>
</g>
</g>
<!-- Node2&#45;&gt;Node12 -->
<g id="edge11" class="edge">
<title>Node2&#45;&gt;Node12</title>
<path fill="none" stroke="midnightblue" d="M826.36,-392.44C798.48,-383.32 754.15,-368.81 723.1,-358.65"/>
<polygon fill="midnightblue" stroke="midnightblue" points="724.12,-355.3 713.52,-355.52 721.94,-361.95 724.12,-355.3"/>
</g>
<!-- Node24 -->
<g id="node24" class="node">
<title>Node24</title>
<g id="a_node24"><a xlink:title=" ">
<polygon fill="white" stroke="#bfbfbf" points="347.5,-224.5 347.5,-243.5 403.5,-243.5 403.5,-224.5 347.5,-224.5"/>
<text text-anchor="middle" x="375.5" y="-231.5" font-family="Helvetica,sans-Serif" font-size="10.00">optional</text>
</a>
</g>
</g>
<!-- Node2&#45;&gt;Node24 -->
<g id="edge47" class="edge">
<title>Node2&#45;&gt;Node24</title>
<path fill="none" stroke="midnightblue" d="M790.68,-392.45C686.2,-377.05 480.33,-342.26 421.5,-300 404.53,-287.81 391.57,-267.36 383.79,-252.65"/>
<polygon fill="midnightblue" stroke="midnightblue" points="386.85,-250.94 379.25,-243.56 380.59,-254.07 386.85,-250.94"/>
</g>
<!-- Node25 -->
<g id="node25" class="node">
<title>Node25</title>
<g id="a_node25"><a xlink:href="Instruction_8hpp.html" target="_top" xlink:title=" ">
<polygon fill="white" stroke="black" points="976,-112.5 976,-131.5 1089,-131.5 1089,-112.5 976,-112.5"/>
<text text-anchor="middle" x="1032.5" y="-119.5" font-family="Helvetica,sans-Serif" font-size="10.00">CPU/Instruction.hpp</text>
</a>
</g>
</g>
<!-- Node2&#45;&gt;Node25 -->
<g id="edge42" class="edge">
<title>Node2&#45;&gt;Node25</title>
<path fill="none" stroke="midnightblue" d="M881.09,-392.49C921.51,-378.48 990.5,-346.46 990.5,-291 990.5,-291 990.5,-291 990.5,-233 990.5,-198.41 1008.85,-161.49 1021.29,-140.43"/>
<polygon fill="midnightblue" stroke="midnightblue" points="1024.41,-142.04 1026.66,-131.69 1018.44,-138.38 1024.41,-142.04"/>
</g>
<!-- Node26 -->
<g id="node26" class="node">
<title>Node26</title>
<g id="a_node26"><a xlink:title=" ">
<polygon fill="white" stroke="#bfbfbf" points="1088.5,-336.5 1088.5,-355.5 1264.5,-355.5 1264.5,-336.5 1088.5,-336.5"/>
<text text-anchor="middle" x="1176.5" y="-343.5" font-family="Helvetica,sans-Serif" font-size="10.00">QtWidgets/QStyledItemDelegate</text>
</a>
</g>
</g>
<!-- Node2&#45;&gt;Node26 -->
<g id="edge45" class="edge">
<title>Node2&#45;&gt;Node26</title>
<path fill="none" stroke="midnightblue" d="M903.84,-392.44C961.31,-382.87 1054.37,-367.36 1115.5,-357.17"/>
<polygon fill="midnightblue" stroke="midnightblue" points="1116.11,-360.61 1125.4,-355.52 1114.96,-353.71 1116.11,-360.61"/>
</g>
<!-- Node27 -->
<g id="node27" class="node">
<title>Node27</title>
<g id="a_node27"><a xlink:title=" ">
<polygon fill="white" stroke="#bfbfbf" points="1282.5,-336.5 1282.5,-355.5 1350.5,-355.5 1350.5,-336.5 1282.5,-336.5"/>
<text text-anchor="middle" x="1316.5" y="-343.5" font-family="Helvetica,sans-Serif" font-size="10.00">filesystem</text>
</a>
</g>
</g>
<!-- Node2&#45;&gt;Node27 -->
<g id="edge46" class="edge">
<title>Node2&#45;&gt;Node27</title>
<path fill="none" stroke="midnightblue" d="M934.09,-392.72C1039.54,-381.96 1215.52,-363.76 1272.1,-355.98"/>
<polygon fill="midnightblue" stroke="midnightblue" points="1272.9,-359.4 1282.29,-354.48 1271.89,-352.47 1272.9,-359.4"/>
</g>
<!-- Node28 -->
<g id="node28" class="node">
<title>Node28</title>
<g id="a_node28"><a xlink:title=" ">
<polygon fill="white" stroke="#bfbfbf" points="1369,-336.5 1369,-355.5 1422,-355.5 1422,-336.5 1369,-336.5"/>
<text text-anchor="middle" x="1395.5" y="-343.5" font-family="Helvetica,sans-Serif" font-size="10.00">QTimer</text>
</a>
</g>
</g>
<!-- Node2&#45;&gt;Node28 -->
<g id="edge48" class="edge">
<title>Node2&#45;&gt;Node28</title>
<path fill="none" stroke="midnightblue" d="M934.35,-392.86C937.44,-392.57 940.5,-392.28 943.5,-392 1125.04,-375.17 1174.72,-386.2 1358.85,-355.83"/>
<polygon fill="midnightblue" stroke="midnightblue" points="1359.57,-359.26 1368.86,-354.16 1358.42,-352.35 1359.57,-359.26"/>
</g>
<!-- Node4 -->
<g id="node4" class="node">
<title>Node4</title>
<g id="a_node4"><a xlink:title=" ">
<polygon fill="white" stroke="#bfbfbf" points="63,-280.5 63,-299.5 204,-299.5 204,-280.5 63,-280.5"/>
<text text-anchor="middle" x="133.5" y="-287.5" font-family="Helvetica,sans-Serif" font-size="10.00">QtWidgets/QMainWindow</text>
</a>
</g>
</g>
<!-- Node3&#45;&gt;Node4 -->
<g id="edge3" class="edge">
<title>Node3&#45;&gt;Node4</title>
<path fill="none" stroke="midnightblue" d="M110.96,-336.08C114.65,-328.69 120.02,-317.95 124.59,-308.81"/>
<polygon fill="midnightblue" stroke="midnightblue" points="127.78,-310.26 129.12,-299.75 121.52,-307.13 127.78,-310.26"/>
</g>
<!-- Node5 -->
<g id="node5" class="node">
<title>Node5</title>
<g id="a_node5"><a xlink:title=" ">
<polygon fill="white" stroke="#bfbfbf" points="0,-280.5 0,-299.5 45,-299.5 45,-280.5 0,-280.5"/>
<text text-anchor="middle" x="22.5" y="-287.5" font-family="Helvetica,sans-Serif" font-size="10.00">utility</text>
</a>
</g>
</g>
<!-- Node3&#45;&gt;Node5 -->
<g id="edge4" class="edge">
<title>Node3&#45;&gt;Node5</title>
<path fill="none" stroke="midnightblue" d="M93,-336.32C79.9,-327.9 59.79,-314.97 44.39,-305.07"/>
<polygon fill="midnightblue" stroke="midnightblue" points="46.27,-302.12 35.96,-299.65 42.48,-308.01 46.27,-302.12"/>
</g>
<!-- Node7 -->
<g id="node7" class="node">
<title>Node7</title>
<g id="a_node7"><a xlink:title=" ">
<polygon fill="white" stroke="#bfbfbf" points="249,-280.5 249,-299.5 344,-299.5 344,-280.5 249,-280.5"/>
<text text-anchor="middle" x="296.5" y="-287.5" font-family="Helvetica,sans-Serif" font-size="10.00">bits/exception.h</text>
</a>
</g>
</g>
<!-- Node6&#45;&gt;Node7 -->
<g id="edge6" class="edge">
<title>Node6&#45;&gt;Node7</title>
<path fill="none" stroke="midnightblue" d="M296.5,-336.08C296.5,-329.01 296.5,-318.86 296.5,-309.99"/>
<polygon fill="midnightblue" stroke="midnightblue" points="300,-309.75 296.5,-299.75 293,-309.75 300,-309.75"/>
</g>
<!-- Node10 -->
<g id="node10" class="node">
<title>Node10</title>
<g id="a_node10"><a xlink:title=" ">
<polygon fill="white" stroke="#bfbfbf" points="661.5,-0.5 661.5,-19.5 723.5,-19.5 723.5,-0.5 661.5,-0.5"/>
<text text-anchor="middle" x="692.5" y="-7.5" font-family="Helvetica,sans-Serif" font-size="10.00">cinttypes</text>
</a>
</g>
</g>
<!-- Node9&#45;&gt;Node10 -->
<g id="edge9" class="edge">
<title>Node9&#45;&gt;Node10</title>
<path fill="none" stroke="midnightblue" d="M967.33,-57.09C904.38,-46.53 793.9,-28 733.98,-17.96"/>
<polygon fill="midnightblue" stroke="midnightblue" points="734.19,-14.44 723.75,-16.24 733.03,-21.35 734.19,-14.44"/>
</g>
<!-- Node11 -->
<g id="node11" class="node">
<title>Node11</title>
<g id="a_node11"><a xlink:title=" ">
<polygon fill="white" stroke="#bfbfbf" points="984.5,-0.5 984.5,-19.5 1044.5,-19.5 1044.5,-0.5 984.5,-0.5"/>
<text text-anchor="middle" x="1014.5" y="-7.5" font-family="Helvetica,sans-Serif" font-size="10.00">iostream</text>
</a>
</g>
</g>
<!-- Node9&#45;&gt;Node11 -->
<g id="edge10" class="edge">
<title>Node9&#45;&gt;Node11</title>
<path fill="none" stroke="midnightblue" d="M1014.5,-56.08C1014.5,-49.01 1014.5,-38.86 1014.5,-29.99"/>
<polygon fill="midnightblue" stroke="midnightblue" points="1018,-29.75 1014.5,-19.75 1011,-29.75 1018,-29.75"/>
</g>
<!-- Node13 -->
<g id="node13" class="node">
<title>Node13</title>
<g id="a_node13"><a xlink:href="AMemory_8hpp.html" target="_top" xlink:title=" ">
<polygon fill="white" stroke="black" points="650,-168.5 650,-187.5 733,-187.5 733,-168.5 650,-168.5"/>
<text text-anchor="middle" x="691.5" y="-175.5" font-family="Helvetica,sans-Serif" font-size="10.00">AMemory.hpp</text>
</a>
</g>
</g>
<!-- Node12&#45;&gt;Node13 -->
<g id="edge12" class="edge">
<title>Node12&#45;&gt;Node13</title>
<path fill="none" stroke="midnightblue" d="M757.55,-337.85C781.48,-331.67 805.87,-320.4 820.5,-300 853.4,-254.13 772.53,-211.74 724.32,-191.49"/>
<polygon fill="midnightblue" stroke="midnightblue" points="725.45,-188.17 714.87,-187.63 722.8,-194.65 725.45,-188.17"/>
</g>
<!-- Node14 -->
<g id="node14" class="node">
<title>Node14</title>
<g id="a_node14"><a xlink:title=" ">
<polygon fill="white" stroke="#bfbfbf" points="597.5,-56.5 597.5,-75.5 647.5,-75.5 647.5,-56.5 597.5,-56.5"/>
<text text-anchor="middle" x="622.5" y="-63.5" font-family="Helvetica,sans-Serif" font-size="10.00">cstdint</text>
</a>
</g>
</g>
<!-- Node12&#45;&gt;Node14 -->
<g id="edge39" class="edge">
<title>Node12&#45;&gt;Node14</title>
<path fill="none" stroke="midnightblue" d="M677.76,-336.37C659.4,-319.1 621.5,-278.21 621.5,-235 621.5,-235 621.5,-235 621.5,-177 621.5,-144.95 621.93,-107.64 622.23,-85.75"/>
<polygon fill="midnightblue" stroke="midnightblue" points="625.73,-85.61 622.37,-75.56 618.73,-85.51 625.73,-85.61"/>
</g>
<!-- Node15 -->
<g id="node15" class="node">
<title>Node15</title>
<g id="a_node15"><a xlink:title=" ">
<polygon fill="white" stroke="#bfbfbf" points="821,-56.5 821,-75.5 868,-75.5 868,-56.5 821,-56.5"/>
<text text-anchor="middle" x="844.5" y="-63.5" font-family="Helvetica,sans-Serif" font-size="10.00">vector</text>
</a>
</g>
</g>
<!-- Node12&#45;&gt;Node15 -->
<g id="edge41" class="edge">
<title>Node12&#45;&gt;Node15</title>
<path fill="none" stroke="midnightblue" d="M756.71,-336.48C784.34,-330.16 814.89,-319.16 837.5,-300 885.99,-258.92 906.48,-230 892.5,-168 885.45,-136.73 867.53,-103.78 855.69,-84.33"/>
<polygon fill="midnightblue" stroke="midnightblue" points="858.56,-82.32 850.29,-75.7 852.63,-86.03 858.56,-82.32"/>
</g>
<!-- Node16 -->
<g id="node16" class="node">
<title>Node16</title>
<g id="a_node16"><a xlink:title=" ">
<polygon fill="white" stroke="#bfbfbf" points="516.5,-56.5 516.5,-75.5 574.5,-75.5 574.5,-56.5 516.5,-56.5"/>
<text text-anchor="middle" x="545.5" y="-63.5" font-family="Helvetica,sans-Serif" font-size="10.00">memory</text>
</a>
</g>
</g>
<!-- Node12&#45;&gt;Node16 -->
<g id="edge40" class="edge">
<title>Node12&#45;&gt;Node16</title>
<path fill="none" stroke="midnightblue" d="M672.48,-336.3C659.66,-328.25 641.46,-315.24 629.5,-300 579.02,-235.68 577,-210.61 554.5,-132 550.14,-116.75 547.86,-98.86 546.69,-85.72"/>
<polygon fill="midnightblue" stroke="midnightblue" points="550.16,-85.28 545.92,-75.57 543.18,-85.81 550.16,-85.28"/>
</g>
<!-- Node20 -->
<g id="node20" class="node">
<title>Node20</title>
<g id="a_node20"><a xlink:href="RectangleShadow_8hpp.html" target="_top" xlink:title=" ">
<polygon fill="white" stroke="black" points="687.5,-280.5 687.5,-299.5 811.5,-299.5 811.5,-280.5 687.5,-280.5"/>
<text text-anchor="middle" x="749.5" y="-287.5" font-family="Helvetica,sans-Serif" font-size="10.00">RectangleShadow.hpp</text>
</a>
</g>
</g>
<!-- Node12&#45;&gt;Node20 -->
<g id="edge26" class="edge">
<title>Node12&#45;&gt;Node20</title>
<path fill="none" stroke="midnightblue" d="M697.46,-336.32C706.63,-328.34 720.44,-316.31 731.53,-306.65"/>
<polygon fill="midnightblue" stroke="midnightblue" points="734.12,-309.04 739.36,-299.83 729.52,-303.76 734.12,-309.04"/>
</g>
<!-- Node22 -->
<g id="node22" class="node">
<title>Node22</title>
<g id="a_node22"><a xlink:href="MemoryShadow_8hpp.html" target="_top" xlink:title=" ">
<polygon fill="white" stroke="black" points="649.5,-224.5 649.5,-243.5 765.5,-243.5 765.5,-224.5 649.5,-224.5"/>
<text text-anchor="middle" x="707.5" y="-231.5" font-family="Helvetica,sans-Serif" font-size="10.00">MemoryShadow.hpp</text>
</a>
</g>
</g>
<!-- Node12&#45;&gt;Node22 -->
<g id="edge34" class="edge">
<title>Node12&#45;&gt;Node22</title>
<path fill="none" stroke="midnightblue" d="M684.06,-336.42C679.51,-323.82 672.71,-299.67 678.5,-280 681.51,-269.76 687.65,-259.66 693.51,-251.63"/>
<polygon fill="midnightblue" stroke="midnightblue" points="696.43,-253.58 699.83,-243.54 690.91,-249.27 696.43,-253.58"/>
</g>
<!-- Node23 -->
<g id="node23" class="node">
<title>Node23</title>
<g id="a_node23"><a xlink:href="IMemoryBus_8hpp.html" target="_top" xlink:title=" ">
<polygon fill="white" stroke="black" points="430,-280.5 430,-299.5 529,-299.5 529,-280.5 430,-280.5"/>
<text text-anchor="middle" x="479.5" y="-287.5" font-family="Helvetica,sans-Serif" font-size="10.00">IMemoryBus.hpp</text>
</a>
</g>
</g>
<!-- Node12&#45;&gt;Node23 -->
<g id="edge35" class="edge">
<title>Node12&#45;&gt;Node23</title>
<path fill="none" stroke="midnightblue" d="M654.54,-336.44C618.71,-327.14 561.34,-312.25 522.11,-302.06"/>
<polygon fill="midnightblue" stroke="midnightblue" points="522.86,-298.64 512.3,-299.52 521.1,-305.42 522.86,-298.64"/>
</g>
<!-- Node13&#45;&gt;Node9 -->
<g id="edge17" class="edge">
<title>Node13&#45;&gt;Node9</title>
<path fill="none" stroke="midnightblue" d="M730.35,-168.49C765.33,-160.43 817.93,-147.3 862.5,-132 907.13,-116.68 957.13,-94.23 987.19,-80.12"/>
<polygon fill="midnightblue" stroke="midnightblue" points="989.04,-83.12 996.59,-75.68 986.05,-76.79 989.04,-83.12"/>
</g>
<!-- Node13&#45;&gt;Node14 -->
<g id="edge13" class="edge">
<title>Node13&#45;&gt;Node14</title>
<path fill="none" stroke="midnightblue" d="M686.09,-168.37C674.75,-150.3 648.33,-108.18 633.36,-84.31"/>
<polygon fill="midnightblue" stroke="midnightblue" points="636.17,-82.2 627.89,-75.59 630.24,-85.92 636.17,-82.2"/>
</g>
<!-- Node13&#45;&gt;Node15 -->
<g id="edge14" class="edge">
<title>Node13&#45;&gt;Node15</title>
<path fill="none" stroke="midnightblue" d="M733.12,-170.22C759.2,-164.09 792.01,-152.72 814.5,-132 827.9,-119.65 835.79,-100.12 840.09,-85.69"/>
<polygon fill="midnightblue" stroke="midnightblue" points="843.52,-86.42 842.71,-75.86 836.75,-84.62 843.52,-86.42"/>
</g>
<!-- Node13&#45;&gt;Node16 -->
<g id="edge15" class="edge">
<title>Node13&#45;&gt;Node16</title>
<path fill="none" stroke="midnightblue" d="M680.04,-168.37C655.2,-149.65 596.14,-105.15 565.19,-81.83"/>
<polygon fill="midnightblue" stroke="midnightblue" points="567,-78.81 556.9,-75.59 562.78,-84.4 567,-78.81"/>
</g>
<!-- Node17 -->
<g id="node17" class="node">
<title>Node17</title>
<g id="a_node17"><a xlink:title=" ">
<polygon fill="white" stroke="#bfbfbf" points="887.5,-56.5 887.5,-75.5 931.5,-75.5 931.5,-56.5 887.5,-56.5"/>
<text text-anchor="middle" x="909.5" y="-63.5" font-family="Helvetica,sans-Serif" font-size="10.00">string</text>
</a>
</g>
</g>
<!-- Node13&#45;&gt;Node17 -->
<g id="edge16" class="edge">
<title>Node13&#45;&gt;Node17</title>
<path fill="none" stroke="midnightblue" d="M733.08,-168.87C762.89,-161.9 803.3,-150.09 835.5,-132 858.65,-119 880.93,-97.86 894.89,-83.24"/>
<polygon fill="midnightblue" stroke="midnightblue" points="897.49,-85.58 901.74,-75.88 892.37,-80.81 897.49,-85.58"/>
</g>
<!-- Node18 -->
<g id="node18" class="node">
<title>Node18</title>
<g id="a_node18"><a xlink:href="Components_8hpp.html" target="_top" xlink:title=" ">
<polygon fill="white" stroke="black" points="666,-56.5 666,-75.5 803,-75.5 803,-56.5 666,-56.5"/>
<text text-anchor="middle" x="734.5" y="-63.5" font-family="Helvetica,sans-Serif" font-size="10.00">Models/Components.hpp</text>
</a>
</g>
</g>
<!-- Node13&#45;&gt;Node18 -->
<g id="edge18" class="edge">
<title>Node13&#45;&gt;Node18</title>
<path fill="none" stroke="midnightblue" d="M694.86,-168.15C699.62,-155.63 708.64,-132.03 716.5,-112 720,-103.08 723.95,-93.19 727.25,-84.95"/>
<polygon fill="midnightblue" stroke="midnightblue" points="730.53,-86.2 731.02,-75.61 724.03,-83.58 730.53,-86.2"/>
</g>
<!-- Node19 -->
<g id="node19" class="node">
<title>Node19</title>
<g id="a_node19"><a xlink:href="IMemory_8hpp.html" target="_top" xlink:title=" ">
<polygon fill="white" stroke="black" points="725.5,-112.5 725.5,-131.5 805.5,-131.5 805.5,-112.5 725.5,-112.5"/>
<text text-anchor="middle" x="765.5" y="-119.5" font-family="Helvetica,sans-Serif" font-size="10.00">IMemory.hpp</text>
</a>
</g>
</g>
<!-- Node13&#45;&gt;Node19 -->
<g id="edge19" class="edge">
<title>Node13&#45;&gt;Node19</title>
<path fill="none" stroke="midnightblue" d="M703.39,-168.32C714.65,-160.11 731.79,-147.6 745.21,-137.81"/>
<polygon fill="midnightblue" stroke="midnightblue" points="747.38,-140.56 753.39,-131.83 743.25,-134.9 747.38,-140.56"/>
</g>
<!-- Node19&#45;&gt;Node9 -->
<g id="edge24" class="edge">
<title>Node19&#45;&gt;Node9</title>
<path fill="none" stroke="midnightblue" d="M804.95,-112.44C848.39,-103.02 918.29,-87.87 965.28,-77.68"/>
<polygon fill="midnightblue" stroke="midnightblue" points="966.2,-81.06 975.23,-75.52 964.72,-74.22 966.2,-81.06"/>
</g>
<!-- Node19&#45;&gt;Node14 -->
<g id="edge20" class="edge">
<title>Node19&#45;&gt;Node14</title>
<path fill="none" stroke="midnightblue" d="M742.84,-112.44C719.1,-103.48 681.59,-89.31 654.76,-79.18"/>
<polygon fill="midnightblue" stroke="midnightblue" points="655.64,-75.77 645.05,-75.52 653.17,-82.32 655.64,-75.77"/>
</g>
<!-- Node19&#45;&gt;Node15 -->
<g id="edge21" class="edge">
<title>Node19&#45;&gt;Node15</title>
<path fill="none" stroke="midnightblue" d="M778.19,-112.32C790.4,-103.98 809.08,-91.21 823.5,-81.35"/>
<polygon fill="midnightblue" stroke="midnightblue" points="825.56,-84.19 831.84,-75.65 821.61,-78.41 825.56,-84.19"/>
</g>
<!-- Node19&#45;&gt;Node16 -->
<g id="edge22" class="edge">
<title>Node19&#45;&gt;Node16</title>
<path fill="none" stroke="midnightblue" d="M730.64,-112.44C690.79,-102.66 625.75,-86.7 584.32,-76.53"/>
<polygon fill="midnightblue" stroke="midnightblue" points="585.12,-73.12 574.58,-74.14 583.45,-79.92 585.12,-73.12"/>
</g>
<!-- Node19&#45;&gt;Node17 -->
<g id="edge23" class="edge">
<title>Node19&#45;&gt;Node17</title>
<path fill="none" stroke="midnightblue" d="M788.32,-112.44C812.47,-103.39 850.78,-89.02 877.85,-78.87"/>
<polygon fill="midnightblue" stroke="midnightblue" points="879.13,-82.13 887.26,-75.34 876.67,-75.57 879.13,-82.13"/>
</g>
<!-- Node19&#45;&gt;Node18 -->
<g id="edge25" class="edge">
<title>Node19&#45;&gt;Node18</title>
<path fill="none" stroke="midnightblue" d="M760.38,-112.08C756.09,-104.61 749.84,-93.72 744.56,-84.52"/>
<polygon fill="midnightblue" stroke="midnightblue" points="747.54,-82.68 739.52,-75.75 741.47,-86.17 747.54,-82.68"/>
</g>
<!-- Node20&#45;&gt;Node16 -->
<g id="edge27" class="edge">
<title>Node20&#45;&gt;Node16</title>
<path fill="none" stroke="midnightblue" d="M713.83,-280.43C690.93,-273.53 661.63,-261.98 640.5,-244 589.21,-200.35 561.25,-121.84 550.6,-85.9"/>
<polygon fill="midnightblue" stroke="midnightblue" points="553.84,-84.49 547.74,-75.82 547.1,-86.4 553.84,-84.49"/>
</g>
<!-- Node21 -->
<g id="node21" class="node">
<title>Node21</title>
<g id="a_node21"><a xlink:href="ARectangleMemory_8hpp.html" target="_top" xlink:title=" ">
<polygon fill="white" stroke="black" points="751.5,-168.5 751.5,-187.5 883.5,-187.5 883.5,-168.5 751.5,-168.5"/>
<text text-anchor="middle" x="817.5" y="-175.5" font-family="Helvetica,sans-Serif" font-size="10.00">ARectangleMemory.hpp</text>
</a>
</g>
</g>
<!-- Node20&#45;&gt;Node21 -->
<g id="edge28" class="edge">
<title>Node20&#45;&gt;Node21</title>
<path fill="none" stroke="midnightblue" d="M754.84,-280.37C766.01,-262.3 792.05,-220.18 806.8,-196.31"/>
<polygon fill="midnightblue" stroke="midnightblue" points="809.91,-197.94 812.19,-187.59 803.95,-194.26 809.91,-197.94"/>
</g>
<!-- Node20&#45;&gt;Node22 -->
<g id="edge31" class="edge">
<title>Node20&#45;&gt;Node22</title>
<path fill="none" stroke="midnightblue" d="M742.56,-280.08C736.57,-272.38 727.75,-261.03 720.45,-251.65"/>
<polygon fill="midnightblue" stroke="midnightblue" points="723.21,-249.5 714.31,-243.75 717.68,-253.79 723.21,-249.5"/>
</g>
<!-- Node21&#45;&gt;Node9 -->
<g id="edge30" class="edge">
<title>Node21&#45;&gt;Node9</title>
<path fill="none" stroke="midnightblue" d="M883.75,-175.94C957.96,-173.18 1071.45,-163.72 1098.5,-132 1117.12,-110.16 1082.04,-90.85 1051.68,-79.06"/>
<polygon fill="midnightblue" stroke="midnightblue" points="1052.66,-75.69 1042.07,-75.51 1050.23,-82.26 1052.66,-75.69"/>
</g>
<!-- Node21&#45;&gt;Node19 -->
<g id="edge29" class="edge">
<title>Node21&#45;&gt;Node19</title>
<path fill="none" stroke="midnightblue" d="M808.91,-168.08C801.34,-160.22 790.12,-148.57 780.99,-139.08"/>
<polygon fill="midnightblue" stroke="midnightblue" points="783.38,-136.53 773.93,-131.75 778.34,-141.38 783.38,-136.53"/>
</g>
<!-- Node22&#45;&gt;Node13 -->
<g id="edge33" class="edge">
<title>Node22&#45;&gt;Node13</title>
<path fill="none" stroke="midnightblue" d="M704.86,-224.08C702.71,-216.85 699.62,-206.41 696.95,-197.4"/>
<polygon fill="midnightblue" stroke="midnightblue" points="700.29,-196.34 694.09,-187.75 693.58,-198.33 700.29,-196.34"/>
</g>
<!-- Node22&#45;&gt;Node16 -->
<g id="edge32" class="edge">
<title>Node22&#45;&gt;Node16</title>
<path fill="none" stroke="midnightblue" d="M692.14,-224.35C678.11,-216.05 657.24,-202.64 641.5,-188 606.31,-155.27 573.35,-109.07 556.73,-84.29"/>
<polygon fill="midnightblue" stroke="midnightblue" points="559.45,-82.06 551.02,-75.64 553.61,-85.92 559.45,-82.06"/>
</g>
<!-- Node23&#45;&gt;Node10 -->
<g id="edge36" class="edge">
<title>Node23&#45;&gt;Node10</title>
<path fill="none" stroke="midnightblue" d="M472.83,-280.44C459.64,-262.62 431.5,-219.84 431.5,-179 431.5,-179 431.5,-179 431.5,-121 431.5,-26.91 577.3,-12.02 650.96,-10.5"/>
<polygon fill="midnightblue" stroke="midnightblue" points="651.32,-14 661.28,-10.37 651.23,-7 651.32,-14"/>
</g>
<!-- Node23&#45;&gt;Node19 -->
<g id="edge38" class="edge">
<title>Node23&#45;&gt;Node19</title>
<path fill="none" stroke="midnightblue" d="M489.04,-280.26C513.03,-258.65 578.48,-202.01 641.5,-168 667.89,-153.76 699.73,-142.31 724.54,-134.53"/>
<polygon fill="midnightblue" stroke="midnightblue" points="725.82,-137.79 734.36,-131.52 723.77,-131.1 725.82,-137.79"/>
</g>
<!-- Node23&#45;&gt;Node24 -->
<g id="edge37" class="edge">
<title>Node23&#45;&gt;Node24</title>
<path fill="none" stroke="midnightblue" d="M462.79,-280.32C446.19,-271.7 420.5,-258.36 401.28,-248.39"/>
<polygon fill="midnightblue" stroke="midnightblue" points="402.66,-245.16 392.17,-243.65 399.43,-251.37 402.66,-245.16"/>
</g>
<!-- Node25&#45;&gt;Node9 -->
<g id="edge44" class="edge">
<title>Node25&#45;&gt;Node9</title>
<path fill="none" stroke="midnightblue" d="M1029.53,-112.08C1027.12,-104.85 1023.64,-94.41 1020.63,-85.4"/>
<polygon fill="midnightblue" stroke="midnightblue" points="1023.9,-84.13 1017.42,-75.75 1017.26,-86.34 1023.9,-84.13"/>
</g>
<!-- Node25&#45;&gt;Node17 -->
<g id="edge43" class="edge">
<title>Node25&#45;&gt;Node17</title>
<path fill="none" stroke="midnightblue" d="M1013.01,-112.44C992.86,-103.6 961.18,-89.69 938.17,-79.59"/>
<polygon fill="midnightblue" stroke="midnightblue" points="939.46,-76.33 928.9,-75.52 936.65,-82.74 939.46,-76.33"/>
</g>
</g>
</svg>
