<svg xmlns="http://www.w3.org/2000/svg" viewBox="0 0 718.97 427.25"><defs><style>.cls-1{stroke:#fff;stroke-miterlimit:10;}.cls-2{fill:#fff;}.cls-3{fill:#06c;}.cls-4{fill:#096;}.cls-5{fill:#c33;}.cls-6{fill:#fc6;}</style></defs><title>Fichier 5</title><g id="Calque_2" data-name="Calque 2"><g id="Calque_2-2" data-name="Calque 2"><path class="cls-1" d="M400.67,166.69v-.88a6,6,0,0,0-1.76-4.39,6.26,6.26,0,0,0-4.39-1.61H380.89a9.1,9.1,0,0,0-5.71,2.05,7.82,7.82,0,0,0-3.07,4.83l-26.81,149v.73a6.23,6.23,0,0,0,1.76,4.39,5.72,5.72,0,0,0,4.39,1.91h13.48q7.17,0,8.93-7.33l7.91-44.09h24.47l-10,56a23.89,23.89,0,0,1-23.15,18.9h-35a17.7,17.7,0,0,1-13.18-5.57,18.4,18.4,0,0,1-5.42-13.33v-3.66l30.17-168.46a23.15,23.15,0,0,1,8.06-13.62,22.69,22.69,0,0,1,14.79-5.42h35.6a17.55,17.55,0,0,1,13,5.56,18.38,18.38,0,0,1,5.56,13.48,14.48,14.48,0,0,1-.29,3.37l-9.37,52.44H392.76Z" transform="translate(0 -23.98)"/><path class="cls-1" d="M502.48,136.08a17.53,17.53,0,0,1,13,5.56,18.39,18.39,0,0,1,5.57,13.48,15.06,15.06,0,0,1-.29,3.37L490.61,327.24a23.87,23.87,0,0,1-23.14,18.9h-35a17.73,17.73,0,0,1-13.19-5.57,18.44,18.44,0,0,1-5.42-13.33v-3.66L444,155.12a23.1,23.1,0,0,1,8.06-13.62,22.69,22.69,0,0,1,14.79-5.42ZM439.63,316.4a6.27,6.27,0,0,0,1.76,4.39,5.74,5.74,0,0,0,4.4,1.91h13.47q7.19,0,8.94-7.33L495,166.69v-.88a6,6,0,0,0-1.76-4.39,6.28,6.28,0,0,0-4.4-1.61H475.23a9.1,9.1,0,0,0-5.71,2.05,7.88,7.88,0,0,0-3.08,4.83l-26.81,149Z" transform="translate(0 -23.98)"/><path class="cls-1" d="M557.12,213.42,533.53,346.14H508.19l38.23-210.06h31.79L575,287.4l50.68-151.32h34.86L622.45,346.14H597.11L620.4,215,577.77,346.14H555.5Z" transform="translate(0 -23.98)"/><path class="cls-1" d="M709.48,24.48a9,9,0,0,1,7.11,2.9A8.7,8.7,0,0,1,718.47,33c0,.52,0,1-.08,1.56l-3.51,22.5a26.42,26.42,0,0,1-1,4.46A25.26,25.26,0,0,1,709,69.64q-2,2.58-22.43,24.69a30.71,30.71,0,0,0-7.5,11.4,16.71,16.71,0,0,0-.78,2.9l-2.58,15.23h28.21l-2.11,12.66h-41.1L665.58,107c.26-1.14.57-2.29.94-3.43a36.06,36.06,0,0,1,7-11.57L685,78.7q9-10.23,11-12.5,4.37-4.85,5.54-8a8.88,8.88,0,0,0,.32-1.49l2.57-15.78v-.47a3.75,3.75,0,0,0-.78-2.34,3.8,3.8,0,0,0-2.81-1.1H695a4.34,4.34,0,0,0-2.65,1,5.25,5.25,0,0,0-1.72,2.34l-.16.39-4,24.07h-13l4.76-28.44.63-1.8A15.46,15.46,0,0,1,684,27.45a12.82,12.82,0,0,1,8-3Z" transform="translate(0 -23.98)"/><path class="cls-1" d="M668,384.84H663.5a3,3,0,0,0-1.91.68,2.62,2.62,0,0,0-1,1.61l-8.94,49.66V437a2.1,2.1,0,0,0,.59,1.47,1.92,1.92,0,0,0,1.46.63h4.5a2.81,2.81,0,0,0,3-2.44l8.94-49.56v-.29a2,2,0,0,0-.59-1.47A2.1,2.1,0,0,0,668,384.84Z" transform="translate(0 -23.98)"/><path class="cls-1" d="M700.9,384.84h-6.74L690,407.69h6.79a2.83,2.83,0,0,0,1.9-.73,2.64,2.64,0,0,0,1-1.71L703,387.13v-.29a2,2,0,0,0-.59-1.47A2.28,2.28,0,0,0,700.9,384.84Z" transform="translate(0 -23.98)"/><polygon class="cls-1" points="609.2 403.53 612.28 372.52 601.58 403.53 609.2 403.53"/><path class="cls-1" d="M319,370.73v80H718v-80Zm35.81,56.39-2.49,13.53a8,8,0,0,1-2.69,4.49,7.71,7.71,0,0,1-5,1.81H332.93a5.73,5.73,0,0,1-4.34-1.86,6.22,6.22,0,0,1-1.71-4.44v-1.13L330,421.75h8.11l-2.64,15V437a2.1,2.1,0,0,0,.59,1.47,1.86,1.86,0,0,0,1.41.63h4.5a3.09,3.09,0,0,0,1.95-.68,3.17,3.17,0,0,0,1.12-1.76l1.76-9.86a4.57,4.57,0,0,0,.1-.93,10.91,10.91,0,0,0-1.71-5c-.52-.94-1.92-3.55-4.2-7.81l-4.4-8.3a16,16,0,0,1-1.85-7.23,15.65,15.65,0,0,1,.15-2.15l2.1-12.11a7.63,7.63,0,0,1,2.73-4.54,7.46,7.46,0,0,1,4.93-1.8h11.72a6.42,6.42,0,0,1,6.3,6.34,4.68,4.68,0,0,1-.1,1.13l-3.07,17.23h-8.21l2.59-14.5a.48.48,0,0,0,.1-.29,2,2,0,0,0-.64-1.47,2.22,2.22,0,0,0-1.46-.53h-4.49a2.89,2.89,0,0,0-1.91.68,2.62,2.62,0,0,0-1,1.61L343,394.9a10.58,10.58,0,0,0-.15,1.8,13.42,13.42,0,0,0,2.25,7.13q8.06,13.82,8.74,15.43a10.46,10.46,0,0,1,1.27,5.08A14,14,0,0,1,354.81,427.12ZM378.05,447q-3.62-37.76-3.76-52.2-.5,12.11-7.62,52.2h-8.49l12.69-70h8.45q3.66,37.89,3.81,53.46.48-13.77,7.61-53.46h8.45L386.5,447Zm33.3,0h-19l12.69-70h19l-1.36,7.91H412.13L408.18,407h10.49l-1.46,7.81H406.76l-4.35,24.36h10.36Zm41.5-62.55-3.07,17.23h-8.21l2.59-14.5a.48.48,0,0,0,.1-.29,2,2,0,0,0-.63-1.47,2.27,2.27,0,0,0-1.47-.53h-4.49a2.9,2.9,0,0,0-1.91.68,2.62,2.62,0,0,0-1,1.61l-1.42,7.77a10.59,10.59,0,0,0-.14,1.8,13.41,13.41,0,0,0,2.24,7.13q8.06,13.82,8.74,15.43a10.46,10.46,0,0,1,1.27,5.08,14,14,0,0,1-.29,2.78l-2.49,13.53a8,8,0,0,1-2.69,4.49,7.71,7.71,0,0,1-5,1.81H423.26a5.73,5.73,0,0,1-4.34-1.86,6.22,6.22,0,0,1-1.71-4.44v-1.13l3.08-17.77h8.1l-2.64,15V437a2.1,2.1,0,0,0,.59,1.47,1.86,1.86,0,0,0,1.42.63h4.49a3.07,3.07,0,0,0,1.95-.68,3.17,3.17,0,0,0,1.12-1.76l1.76-9.86a4,4,0,0,0,.1-.93,10.91,10.91,0,0,0-1.71-5c-.52-.94-1.92-3.55-4.2-7.81q-3.81-7.19-4.39-8.3a15.87,15.87,0,0,1-1.86-7.23,15.65,15.65,0,0,1,.15-2.15l2.1-12.11a7.68,7.68,0,0,1,2.73-4.54,7.46,7.46,0,0,1,4.93-1.8h11.72a6.4,6.4,0,0,1,6.3,6.34A4.68,4.68,0,0,1,452.85,384.4ZM482.15,447h-19l12.69-70h19l-1.37,7.91H482.93L479,407h10.49L488,414.77H477.56l-4.35,24.36h10.36Zm35.5,0,7.76-43.71L511.2,447h-7.42l.54-44.24L496.46,447H488l12.74-70h10.6l-1.07,50.44,16.89-50.44h11.62L526.1,447Zm37.21-1.81a7.75,7.75,0,0,1-5,1.81H538.06a5.8,5.8,0,0,1-4.3-1.86,6.16,6.16,0,0,1-1.8-4.44v-1.22l11.27-62.5h8.11L540.6,436.79V437a2.23,2.23,0,0,0,.53,1.47,2,2,0,0,0,1.47.63h4.49a2.82,2.82,0,0,0,3-2.44l10.84-59.76h8.3l-11.67,63.72A7.69,7.69,0,0,1,554.86,445.14Zm28.95-6L582.39,447h-19l12.7-70h8.49l-11.13,62.2ZM615.26,447h-8l1.12-11.53h-9.57l-4,11.53H586l26.37-70h8.39Zm9.13,0,11.32-62.11h-6l1.42-7.91h20.36L650,384.84h-5.81L632.93,447Zm41.5-1.81a7.64,7.64,0,0,1-5,1.81H649.24a5.87,5.87,0,0,1-4.39-1.86,6.13,6.13,0,0,1-1.81-4.44v-1.22l10.06-56.16a7.75,7.75,0,0,1,2.68-4.54,7.59,7.59,0,0,1,4.93-1.8h11.87a5.89,5.89,0,0,1,4.35,1.85,6.15,6.15,0,0,1,1.85,4.49,4.68,4.68,0,0,1-.1,1.13l-10,56.25A7.58,7.58,0,0,1,665.89,445.14ZM712,384.4l-3.9,22.07a7.16,7.16,0,0,1-5.42,5.86,4.75,4.75,0,0,1,2.59,2.24,6,6,0,0,1,.68,2.83,6.57,6.57,0,0,1,0,.74,10.18,10.18,0,0,1,0,1.12L700.75,447h-8.59l5.13-28.67V418a2,2,0,0,0-.59-1.42,1.92,1.92,0,0,0-1.41-.58H688.5L683,447h-8.55l12.55-70h18.8a6,6,0,0,1,4.4,1.85,6.37,6.37,0,0,1,1.95,4.45A8.45,8.45,0,0,1,712,384.4Z" transform="translate(0 -23.98)"/><circle cx="157" cy="269.75" r="157"/><rect class="cls-2" x="81.42" y="173.78" width="78.6" height="183.69" rx="39.3" transform="translate(258.97 -15.3) rotate(52.72)"/><circle class="cls-3" cx="161" cy="211.75" r="30"/><circle class="cls-4" cx="80" cy="273.75" r="30"/><rect class="cls-2" x="155.42" y="235.78" width="78.6" height="183.69" rx="39.3" transform="translate(337.48 -49.73) rotate(52.72)"/><circle class="cls-5" cx="235" cy="273.75" r="30"/><circle class="cls-6" cx="154" cy="335.75" r="30"/></g></g></svg>
